<svg width="300" height="313" viewBox="0 0 300 313" fill="none" xmlns="http://www.w3.org/2000/svg">
<path d="M200.977 205.613C200.772 205.229 200.578 204.555 200.378 204.555C199.746 204.555 199.104 204.787 198.483 204.976C198.424 204.992 198.381 205.354 198.456 205.489C198.618 205.769 198.861 206.007 199.082 206.282C198.019 207.076 196.918 207.82 195.914 208.684C195.504 209.035 194.791 208.101 194.581 209.154C194.462 209.758 193.685 209.526 193.199 209.672C192.643 209.839 192.135 210.168 191.601 210.406C190.673 210.816 189.76 211.275 188.8 211.588C187.882 211.885 186.889 211.95 185.976 212.247C182.63 213.337 179.272 214.411 175.974 215.631C173.691 216.478 171.294 217.045 169.13 218.13C167.392 218.999 165.567 219.663 163.845 220.538C160.639 222.168 157.228 223.031 153.697 223.62C151.808 223.938 149.908 224.154 148.095 225.083C146.362 225.968 144.316 226.222 142.405 226.767C141.234 227.101 140.079 227.49 138.902 227.792C137.029 228.273 135.134 228.688 133.261 229.163C130.795 229.784 128.231 229.757 125.758 230.329C125.445 230.399 125.1 230.335 124.765 230.335C121.645 230.34 118.52 230.329 115.4 230.367C114.148 230.383 112.912 230.437 111.999 229.261C112.026 229.115 113.03 229.153 112.302 228.678C111.692 228.278 110.774 228.262 111.049 227.155C111.071 227.074 110.925 226.945 110.839 226.853C110.801 226.815 110.72 226.81 110.655 226.81C109.506 226.783 109.446 225.315 108.313 225.115C107.336 224.942 106.423 224.37 105.506 223.933C105.311 223.841 105.15 223.593 105.069 223.377C104.863 222.843 104.712 222.281 104.54 221.747C104.011 221.898 103.471 222.06 102.839 222.243C102.559 221.574 102.591 220.813 103.336 220.538C104.588 220.068 104.561 219.026 104.205 218.281C103.514 216.829 103.352 215.188 102.38 213.823C101.765 212.959 101.166 211.782 101.241 210.795C101.333 209.558 101.063 208.382 101.112 207.173C101.161 205.845 101.123 204.517 101.123 203.189C101.123 202.725 101.263 202.196 101.09 201.807C100.545 200.598 100.551 199.303 100.783 198.126C101.155 196.231 101.009 194.337 101.193 192.447C101.231 192.075 101.209 191.762 101.182 191.406C101.112 190.51 100.88 189.549 101.452 188.701C100.874 187.427 101.9 186.083 101.252 184.766C101.015 184.275 101.171 183.6 101.117 183.012C101.042 182.17 100.928 181.333 100.853 180.491C100.831 180.248 100.885 180 100.891 179.757C100.912 179.255 100.955 178.753 100.934 178.251C100.891 177.204 100.534 176.081 100.81 175.131C101.225 173.679 101.009 172.26 101.128 170.845C100.184 170.106 99.3846 171.002 98.521 171.067C97.7221 171.131 97.4468 172.162 96.5022 172.319C95.8167 172.432 95.2499 173.21 94.613 173.663C93.0854 174.764 91.5848 175.919 89.9978 176.929C87.8765 178.284 85.685 179.53 83.5043 180.799C82.7809 181.22 82.0091 181.549 81.2588 181.916C81.0806 182.003 80.8863 182.057 80.7244 182.159C80.0712 182.591 79.4775 183.223 78.7596 183.433C78.0633 183.638 77.3723 183.822 76.73 184.156C76.5573 184.248 76.4007 184.372 76.2334 184.469C75.8663 184.685 76.0391 185.441 75.3212 185.322C74.8515 185.247 74.3819 185.338 74.2794 185.954C74.1822 185.927 74.0419 185.927 73.9879 185.862C73.351 185.058 72.6762 185.743 72.0825 185.878C70.8086 186.164 70.679 186.143 70.4307 184.842C70.393 184.653 70.3606 184.464 70.3228 184.264C69.7236 184.502 69.1623 184.718 68.1475 185.117C68.671 184.183 68.8546 183.347 69.3026 183.169C70.2148 182.802 70.0475 182.148 69.9773 181.56C69.8586 180.54 69.5833 179.541 69.389 178.526C69.3134 178.143 69.1677 177.722 69.254 177.366C69.5185 176.232 69.2594 175.115 69.2594 173.992C69.2648 172.875 69.5293 171.763 69.5833 170.64C69.6211 169.874 69.8424 169.08 69.3134 168.33C69.1353 168.071 69.1677 167.499 69.3296 167.196C69.7182 166.484 69.5779 165.912 69.3512 165.161C69.1515 164.497 69.4267 163.639 69.6534 162.916C70.1393 161.356 70.1878 159.737 70.4307 158.144C70.7168 156.298 70.8734 154.409 72.2768 152.925C72.9407 152.217 73.4913 151.44 74.5979 151.462C74.7814 151.467 74.9595 151.348 75.1484 151.3C75.3697 151.246 75.6019 151.208 75.8232 151.165C75.7746 151.332 75.726 151.5 75.6774 151.661C75.9149 151.726 76.1848 151.894 76.3791 151.834C76.8002 151.699 77.3022 151.543 77.5559 151.224C78.4249 150.145 79.7042 149.815 80.8485 149.227C82.6946 148.272 84.3895 147.122 86.0088 145.767C87.1154 144.844 87.9898 143.64 89.3717 142.949C90.624 142.318 91.6334 141.201 92.7507 140.294C93.107 140.002 93.4902 139.743 93.8141 139.419C95.0232 138.221 96.1729 136.952 97.7653 136.224C97.992 136.121 98.1647 135.878 98.3429 135.684C99.9892 133.881 101.976 132.478 103.892 131.009C106.294 129.174 108.28 126.939 110.261 124.694C111.217 123.609 112.102 122.6 113.667 122.238C114.768 121.979 115.826 121.304 116.744 120.511C117.295 120.036 117.791 119.296 118.779 119.777C118.914 119.841 119.324 119.21 119.918 119.15C122.482 118.875 124.965 118.065 127.567 117.947C128.376 117.909 129.17 117.412 130.033 117.655C130.784 117.866 131.502 117.547 132.252 117.558C133.402 117.58 134.622 117.164 135.69 117.423C136.813 117.698 137.725 117.24 138.74 117.202C139.204 117.186 139.674 117.229 140.133 117.186C140.899 117.121 141.677 117.353 142.443 116.867C142.826 116.624 143.544 116.651 143.992 116.84C145.045 117.283 146.038 116.927 147.015 116.759C148.192 116.559 149.379 116.549 150.545 116.365C154.032 115.82 157.643 115.955 160.974 114.535C161.093 114.487 161.217 114.4 161.33 114.411C163.246 114.578 165.114 114.13 167.003 114.006C167.84 113.952 168.73 114.211 169.351 113.332C169.707 112.824 170.172 113.855 170.701 113.278C171.116 112.824 171.829 112.651 172.352 112.268C172.649 112.052 172.784 112.112 172.957 112.338C173.238 112.711 173.454 112.705 173.902 112.457C174.474 112.139 175.213 112.905 175.856 112.365C177.599 112.641 179.332 112.112 181.091 112.279C181.62 112.328 182.144 112.328 182.684 112.468C183.369 112.641 184.125 112.884 184.778 112.754C186.138 112.479 187.358 112.97 188.638 113.089C189.863 113.202 191.142 113.936 192.432 113.224C192.637 113.11 193.08 113.099 193.199 113.229C193.895 113.996 194.753 113.224 195.514 113.547C196.27 113.866 197.128 113.958 197.927 114.184C198.651 114.39 199.395 114.33 200.103 114.287C201.965 114.168 203.568 115.394 205.436 115.21C205.711 115.183 206.019 115.458 206.31 115.577C206.963 115.847 207.616 116.317 208.275 116.327C209.279 116.344 209.921 116.802 210.725 117.31C212.177 118.222 213.835 118.81 215.416 119.517C215.583 119.593 215.816 119.566 216.01 119.528C217.305 119.248 217.332 119.215 217.867 119.76C218.617 120.527 219.384 121.196 220.549 121.218C220.825 121.223 221.122 121.482 221.348 121.687C221.521 121.849 221.602 122.114 221.721 122.335C221.726 122.346 222.002 123.409 222.023 123.442C222.541 124.251 222.277 124.872 221.699 125.568C221.44 125.882 221.499 126.562 221.607 127.031C221.699 127.447 222.007 127.857 222.309 128.186C223.221 129.18 223.189 130.448 223.167 131.609C223.14 132.882 222.687 134.146 222.536 135.425C222.39 136.645 222.406 137.875 221.877 139.025C221.775 139.247 221.834 139.549 221.856 139.813C221.931 140.801 221.602 141.6 220.879 142.28C220.609 142.534 220.458 142.912 220.263 143.246C218.925 145.535 218.374 148.126 217.473 150.582C216.987 151.904 216.258 153.162 215.961 154.522C215.535 156.476 214.768 158.312 214.283 160.233C214.169 160.67 214.034 161.102 213.862 161.518C213.554 162.252 213.063 162.759 212.258 163.013C211.595 163.224 210.963 163.58 210.364 163.952C210.04 164.152 209.824 164.228 209.5 163.979C209.284 163.812 208.917 163.569 208.755 163.645C208.302 163.855 207.74 164.136 207.562 164.535C207.33 165.07 207.724 165.955 206.607 165.836C206.596 165.987 206.569 166.138 206.575 166.284C206.666 168.109 206.866 169.901 206.369 171.741C205.986 173.166 206.046 174.71 205.905 176.205C205.867 176.594 205.824 176.983 205.738 177.36C205.517 178.332 205.096 179.234 205.436 180.324C205.603 180.858 205.16 181.56 205.117 182.197C205.052 183.055 205.144 183.924 205.096 184.783C205.058 185.527 204.977 186.256 205.069 187.017C205.133 187.568 204.858 188.151 204.82 188.723C204.793 189.139 205.085 189.678 204.912 189.959C204.739 190.24 204.415 190.202 204.642 190.758C204.901 191.384 204.809 192.183 204.367 192.831C204.885 193.705 203.876 194.536 204.194 195.287C204.653 196.361 203.757 197.154 203.87 198.142C203.978 199.06 203.924 199.999 203.903 200.927C203.865 202.714 202.623 204.954 201.333 205.607C201.241 205.656 201.09 205.613 200.977 205.613ZM161.908 154.906C161.692 155.667 161.47 156.206 161.4 156.768C161.227 158.133 160.353 159.283 160.164 160.584C159.975 161.89 159.592 163.083 159.079 164.265C158.977 164.498 158.923 164.757 158.879 165.005C158.734 165.831 158.637 166.662 158.458 167.477C158.232 168.54 157.854 169.577 157.708 170.646C157.595 171.488 157.411 172.475 158.572 172.918C158.734 172.983 158.782 173.355 158.874 173.593C159.079 174.143 159.273 174.694 159.452 175.191C159.759 174.964 160.115 174.591 160.207 174.651C160.639 174.915 160.871 174.991 160.963 174.376C161.001 174.133 161.254 173.922 161.281 173.685C161.438 172.13 161.589 170.575 161.692 169.021C161.821 166.997 161.805 164.978 161.983 162.948C162.215 160.39 162.679 157.756 161.908 154.906ZM185.771 151.122C184.719 153.016 185.35 155.008 185.356 156.951C186.198 155.078 187.024 153.205 185.771 151.122ZM190.198 166.257C189.744 167.634 189.248 168.999 188.848 170.387C188.659 171.04 188.611 171.763 189.523 172.103C190.187 170.219 190.511 168.352 190.198 166.257Z" fill="#FFE48B"/>
<path d="M57.2708 29.7789C58.0858 30.0703 57.9347 30.5885 57.5622 31.1337C57.5352 31.1769 57.3139 31.1337 57.2222 31.0743C57.1142 30.9988 57.0494 30.8584 56.9685 30.7505C56.9307 30.8692 56.8767 30.988 56.8551 31.1121C56.8335 31.2417 56.7957 31.4738 56.8443 31.4954C57.7835 31.938 57.3031 32.6559 57.3247 33.3522C57.3679 34.8096 57.0386 36.1051 56.3207 37.352C56.0994 37.7298 56.1642 38.2804 55.9375 38.6475C55.1008 39.9753 54.1994 41.2654 53.3034 42.5555C53.2278 42.6635 52.9201 42.7282 52.8068 42.6635C52.5153 42.4961 52.2562 42.2154 52.2346 42.8362C52.2076 43.5001 51.9917 43.7808 51.2198 43.9319C50.097 44.1479 49.0175 44.5419 47.5061 44.4393C48.0297 44.1694 48.2348 44.0669 48.4399 43.9589C48.2348 43.7916 48.0567 43.5649 47.8246 43.4677C47.3604 43.2788 46.0271 43.1277 45.8274 43.187C44.9151 43.4461 44.4779 44.1101 44.5103 45.1788C44.5697 47.3002 44.4941 47.5863 43.0745 48.8008C42.1083 49.6266 41.304 50.5497 40.7318 51.6832C39.7872 53.5401 38.3406 54.4523 36.1815 54.2418C35.2962 54.1554 34.4002 54.1014 33.4556 54.3173C32.77 54.4739 31.7822 54.0529 31.1723 53.5778C30.7513 53.254 30.3356 53.2918 30.0442 53.3026C28.862 53.3457 27.8526 52.8437 26.8162 52.4713C25.4884 51.9909 24.1281 51.4997 22.9514 50.7494C21.3429 49.7292 20.1445 48.2502 19.1028 46.6201C17.7317 44.4663 16.8411 42.1561 16.2851 39.6893C16.2689 39.6245 16.2203 39.5705 16.1987 39.5111C15.8533 38.723 16.8843 38.0375 16.2635 37.1253C15.8209 36.4722 16.6899 35.6409 16.4309 34.7772C16.3337 34.4426 16.8789 34.1025 17.4079 34.0161C17.9584 33.9244 17.9422 33.8326 17.4294 33.1633C17.0786 32.7045 17.2081 32.305 17.7803 31.9812C17.8937 31.9164 18.0556 31.7329 18.0286 31.6627C17.8991 31.301 17.6723 31.015 18.1582 30.6695C18.4065 30.4914 18.644 29.8436 18.5252 29.6871C17.8775 28.8396 18.4388 28.1865 18.7897 27.5334C20.0852 25.1313 21.6505 22.9074 23.4588 20.8617C23.9176 20.3435 24.5222 19.944 25.0944 19.5446C25.2077 19.4636 25.4938 19.6472 25.7043 19.6849C26.3358 19.7983 26.4168 19.6795 26.4438 18.8753C26.4492 18.6702 26.6111 18.4704 26.7029 18.2653C26.8486 18.3463 27.0106 18.4111 27.1347 18.519C27.2967 18.6648 27.4262 18.8429 27.5665 19.0102C27.7069 18.8213 27.8904 18.654 27.966 18.4434C28.0524 18.2059 28.0362 17.9306 28.0632 17.6716C28.5274 17.7579 28.9538 17.936 29.3478 17.8767C29.6393 17.8335 30.0064 17.6716 29.8498 17.0508C29.7581 16.6838 31.1723 16.5326 31.1345 16.6028C30.6325 17.596 31.1993 17.3639 31.6419 17.0346C32.1385 16.673 32.6567 17.5582 33.1965 16.8511C33.4502 16.5164 34.2383 16.592 34.9724 16.4462C34.4326 16.2627 34.0817 16.144 33.7309 16.0252C33.7363 15.9389 33.7417 15.8579 33.7471 15.7715C34.5297 15.8147 35.307 15.8525 36.0897 15.8957C36.6079 16.7107 37.2934 16.3275 37.9628 16.0306C37.3258 15.9982 36.6943 15.9604 36.0573 15.9281C36.9318 15.2101 37.8764 15.7121 38.7832 15.8201C38.9236 15.8363 38.1625 16.2735 38.8264 16.4193C39.0639 16.4732 39.3284 16.3869 39.5767 16.3653C39.1449 15.48 39.8736 15.7337 40.2406 15.7283C40.7642 15.7229 41.3094 15.7283 41.8114 15.8579C43.2202 16.2249 44.6614 16.3977 45.9731 17.1858C46.5939 17.5582 45.6816 17.9954 46.2862 18.2113C46.6856 18.3517 47.1714 18.654 47.3064 19.0048C47.4305 19.3179 47.1552 19.8091 46.9825 20.1869C46.9609 20.2355 46.4913 20.0682 46.2268 20.0196C46.1027 19.998 45.9677 20.0196 45.8382 20.0196C45.8274 19.9548 45.8382 19.8415 45.8112 19.8307C44.0677 19.1667 42.254 18.7943 40.4134 18.546C39.6954 18.4488 38.875 18.2437 38.2488 18.4758C37.3096 18.8267 36.4676 18.7295 35.5715 18.5244C35.415 18.4866 35.2422 18.4704 35.0911 18.5028C33.7794 18.8051 32.4732 19.1236 30.7783 19.5284C31.7121 19.6256 32.3058 19.5932 32.8348 19.7659C33.4286 19.9602 33.963 20.3381 34.5243 20.635C36.4568 21.6605 38.5673 21.1262 40.5915 21.2989C40.7264 21.3097 40.9208 20.9966 41.0341 20.8023C41.1313 20.6458 41.0989 20.3435 41.2122 20.2895C41.4282 20.1869 41.7088 20.2085 41.9625 20.2031C42.1892 20.1977 42.3404 20.8994 42.6697 20.2625C42.7506 20.106 43.0529 20.0574 43.2526 19.9602C43.4793 20.9588 44.0299 20.3543 44.5103 20.2355C44.9475 20.1276 45.4009 20.0898 45.8436 20.0196C46.0487 20.5864 45.8004 21.5634 46.9663 21.2665C47.857 22.006 49.3521 21.979 49.676 23.4418C49.7084 23.593 49.8973 23.7549 50.0539 23.8251C51.209 24.3702 51.3763 25.3796 51.5329 26.5132C51.603 27.0314 51.3062 27.8141 52.0888 28.1487C52.159 28.1757 52.213 28.451 52.1644 28.5104C51.4627 29.2877 52.7258 30.1243 52.078 30.8908C52.8283 31.6357 51.7326 32.1863 51.8729 32.8664C51.6732 32.8448 51.4141 32.7261 51.29 32.8124C50.8204 33.1201 50.4533 33.5627 50.8042 34.1349C51.2198 34.815 50.9607 34.9122 50.3346 34.8258C50.4263 35.6625 49.2766 36.0349 49.5303 36.9364C48.4237 37.1307 49.0337 38.275 48.4939 38.858C48.2024 39.1711 48.0891 39.7055 47.6572 40.0671C47.1174 40.5205 46.7234 41.1521 45.9461 42.0913C48.0405 41.2276 49.811 40.7796 51.0902 39.3708C51.3439 39.0955 51.5005 38.723 51.6624 38.3776C52.796 36.0241 53.4761 33.5519 53.6542 30.9448C53.665 30.8098 53.6272 30.6533 53.6866 30.5507C54.5179 29.0717 53.7676 27.8195 53.0712 26.6049C52.634 25.8385 52.2886 25.1097 52.4127 24.2137C52.4991 23.5822 53.0065 23.3609 53.5247 23.7657C54.0375 24.1651 54.4693 24.7859 55.0415 24.9694C56.4719 25.4174 56.9037 26.4106 56.9955 27.7493C57.044 28.451 57.2006 29.1419 57.3085 29.8382C57.2006 29.7951 57.0926 29.7465 56.9847 29.7033C56.8551 29.6493 56.7202 29.5953 56.5906 29.536C56.6014 29.7033 56.5474 29.9462 56.6392 30.0218C56.9361 30.2593 57.1844 30.1945 57.2708 29.7789ZM23.0864 34.7502C23.394 34.7826 23.7557 34.9446 23.9068 34.4966C24.0472 34.0863 24.058 33.4332 24.3171 33.309C24.927 33.0283 24.8299 32.5587 24.7975 32.1539C24.7381 31.4522 24.56 30.7613 24.4088 30.0703C23.9878 28.1757 24.5276 26.0598 25.5424 24.3594C26.0066 23.5822 27.0699 23.0748 26.8594 21.7307C25.4722 23.0964 24.4358 24.5268 23.502 26.0652C23.0378 26.8317 23.0108 27.4578 23.3994 28.2567C23.9932 29.4874 23.8043 30.7559 23.4156 32.0513C23.1565 32.9204 22.7517 33.8218 23.1187 34.7826C22.3253 35.29 22.6221 35.954 22.9892 36.6179C23.0162 35.9972 23.0486 35.3764 23.0864 34.7502ZM40.8074 43.8078C41.3148 43.0413 41.7304 42.3342 42.2216 41.681C43.8518 39.5165 45.9623 37.7083 47.0581 35.1497C48.1916 34.3184 48.4399 33.0176 48.8448 31.7976C48.9041 31.6195 49.0283 31.4576 49.1308 31.2903C49.8434 30.0973 49.838 28.872 49.4655 27.5496C48.5911 24.462 46.1566 22.4702 42.6535 22.3731C43.4092 22.875 43.9057 23.2259 44.4185 23.539C44.7424 23.7387 45.3632 23.8575 45.3956 24.0788C45.5467 25.0396 46.7666 25.1637 46.8584 26.2487C46.9177 26.999 48.278 27.5064 47.4413 28.5859C47.3981 28.6399 47.6518 28.899 47.722 29.0771C47.7976 29.2715 47.8893 29.5036 47.8516 29.6925C47.7706 30.1027 47.4683 30.5238 47.5169 30.9016C47.5979 31.4684 46.5723 31.4522 46.9771 32.1755C47.0743 32.3482 46.3294 32.8934 46.3672 33.2173C46.4589 34 45.6546 33.8704 45.4495 34.3292C45.2714 34.7341 44.6668 35.0849 44.6938 35.425C44.7748 36.4182 43.706 36.877 43.7222 37.6921C43.7384 38.6259 42.3566 38.7932 42.7344 39.8188C42.756 39.8836 42.5833 40.1157 42.5239 40.1049C41.1475 39.9268 40.9963 41.5407 39.9491 41.735C40.2352 42.4367 40.4889 43.0359 40.8074 43.8078ZM36.1923 47.8885C37.5687 47.9317 38.5187 47.3704 39.4525 46.8036C39.5713 46.728 39.6577 46.334 39.6091 46.3016C39.4364 46.1774 39.1989 46.1397 38.9829 46.0857C38.9398 46.0749 38.8804 46.1666 38.821 46.1882C37.9142 46.5175 37.9142 46.5121 36.3542 46.0479C36.2786 46.0263 36.1221 46.0533 36.0897 46.1127C35.6471 46.9169 35.0101 46.6255 34.4542 46.3448C33.9954 46.1127 33.6229 45.7132 33.1857 45.4271C33.0507 45.3408 32.8348 45.3786 32.6621 45.3624C32.6621 45.5891 32.5595 45.9075 32.6729 46.0371C33.6661 47.1544 35.0101 47.5809 36.1923 47.8885ZM26.2495 46.7928C27.5612 48.844 29.4018 49.5187 31.4206 49.9559C31.1075 49.5295 30.9078 49.0059 30.5407 48.817C29.7797 48.4283 29.3748 47.8292 29.0402 47.1005C28.6029 46.1504 28.5705 46.1666 27.4694 46.4905C27.1293 46.5877 26.7839 46.6578 26.2495 46.7928ZM35.1937 37.0497C35.442 37.0173 35.7119 37.0281 35.9332 36.931C36.0357 36.8824 36.0411 36.6233 36.0897 36.456C35.2908 36.5207 35.0803 35.5761 34.4056 35.4844C34.2868 35.4682 33.9468 35.9216 33.9846 36.1105C34.1033 36.7205 34.4704 37.1361 35.1937 37.0497ZM18.4496 40.0671C18.5684 40.0563 18.6817 40.0455 18.8005 40.0347C18.6979 39.0523 18.6008 38.0699 18.482 37.0929C18.4712 37.0281 18.2769 36.9472 18.1689 36.9418C18.0826 36.9364 17.9099 37.0605 17.9206 37.1037C18.0826 38.0915 18.2661 39.0793 18.4496 40.0671ZM24.4736 44.6121C24.5222 43.6567 24.5546 43.0899 24.5816 42.5825C24.2253 42.8362 23.61 43.0953 23.6261 43.3058C23.6531 43.6836 24.0634 44.0291 24.4736 44.6121ZM18.1905 34.5721C18.1258 34.5721 18.0556 34.5721 17.9908 34.5721C17.953 34.8096 17.8883 35.0471 17.8829 35.2846C17.8775 35.3926 17.9746 35.5059 18.0286 35.6193C18.1204 35.4898 18.2769 35.371 18.2877 35.2361C18.3039 35.0147 18.2283 34.7934 18.1905 34.5721ZM29.2075 37.6219C28.862 37.4114 28.6569 37.2656 28.4302 37.1631C28.3708 37.1361 28.2467 37.244 28.1549 37.2872C28.2737 37.4762 28.3816 37.6759 28.5328 37.8378C28.5597 37.8756 28.7433 37.773 29.2075 37.6219ZM36.6673 42.6419C36.5539 42.5285 36.4568 42.372 36.311 42.3072C36.2247 42.264 36.0789 42.3558 35.9602 42.3882C36.1059 42.5825 36.257 42.7768 36.4028 42.9711C36.4784 42.8794 36.5485 42.793 36.6673 42.6419Z" fill="#FF9737"/>
<path d="M16.452 19.6523C16.7003 20.7157 16.4088 21.6549 16.1389 22.5834C15.8258 23.6413 15.8474 24.7911 15.2159 25.7573C14.6491 26.6209 14.6977 27.6249 14.6275 28.5965C14.5897 29.1255 14.7301 29.7355 14.5088 30.1673C13.8664 31.4088 13.6883 32.7259 13.413 34.0591C13.2619 34.7824 13.0352 35.3708 13.3536 36.0995C13.4994 36.4288 13.4346 36.8984 13.3374 37.2708C13.1917 37.8484 12.938 38.3936 12.7275 38.9549C13.6235 39.1709 13.0784 40.1209 13.5372 40.5743C13.6289 40.6661 13.5318 40.9521 13.5102 41.3246C12.9272 41.0817 12.3982 40.7362 11.8369 40.6607C10.4442 40.4717 10.1149 39.3166 9.80727 38.3342C9.42943 37.1197 9.37545 35.8026 9.18652 34.5341C10.1203 32.9472 9.59136 31.1065 10.0934 29.3846C10.6709 27.3982 11.1513 25.374 12.1769 23.6089C13.1755 21.9086 14.3145 20.1813 16.452 19.6523Z" fill="#FF9737"/>
<path d="M54.4961 44.7363C55.7592 45.0872 56.7416 45.3625 57.724 45.6378C57.9075 45.6917 58.0964 45.8321 58.2692 45.8105C59.7374 45.6162 60.7036 46.3503 61.6428 47.3867C62.3985 48.2233 62.8141 49.1571 62.9545 50.1989C63.1002 51.2893 62.5173 52.0828 61.6806 52.8115C61.2488 53.1893 61.0437 53.2001 60.7738 52.8492C60.1746 52.0666 59.5269 51.3001 59.0788 50.4364C58.3717 49.0816 57.7402 47.7321 56.1424 47.1977C55.9319 47.1276 55.7808 46.8361 55.6458 46.6202C55.2896 46.075 54.9711 45.519 54.4961 44.7363Z" fill="#FF9737"/>
<path d="M16.7279 49.2597C15.2651 48.2233 14.1099 49.3029 12.8792 49.8588C12.1235 50.1989 11.438 50.7009 10.6661 50.9762C10.0562 51.1921 9.46781 50.852 9.0036 50.4094C8.93882 50.35 8.96581 50.1125 9.03598 50.0154C9.4948 49.3406 10.1857 48.871 10.5258 48.0506C10.6931 47.6457 11.4542 47.5 11.94 47.2193C12.3287 46.9926 12.6471 46.415 13.1869 46.998C13.2139 47.0304 13.3165 47.0034 13.3812 46.9926C13.8454 46.917 13.052 46.2261 13.7807 46.2153C14.1045 46.2099 14.369 45.7889 14.7307 46.2909C14.925 46.5662 15.4594 46.577 15.7131 46.8306C16.1017 47.2193 16.3392 47.7483 17.0302 47.6943C17.1543 47.6835 17.381 47.9318 17.4296 48.0991C17.5106 48.396 17.5699 48.7469 17.4836 49.0222C17.4242 49.1463 17.0248 49.1679 16.7279 49.2597Z" fill="#FF9737"/>
<path d="M34.7459 4.13915C35.1723 2.76811 35.9604 1.21353 37.4826 0.150162C37.909 -0.146718 38.3732 0.0206145 38.6917 0.441644C38.9508 0.781707 39.4474 1.0408 39.0479 1.60757C38.5891 2.26071 38.2814 2.97322 38.2868 3.79369C38.2868 4.19313 37.9468 4.23631 37.7309 4.44143C37.1749 4.96502 36.3274 5.12156 35.955 5.88805C35.8686 6.06078 35.4584 6.2551 35.3234 6.18492C35.0589 6.04998 34.789 5.76929 34.6973 5.494C34.6055 5.20252 34.7081 4.84087 34.7459 4.13915Z" fill="#FF9737"/>
<path d="M6.42894 28.3319C5.81899 28.6341 5.24143 28.7205 5.11188 29.012C4.70704 29.9404 4.68545 30.0268 4.0701 29.3844C3.47634 28.7691 2.78002 28.2941 2.45075 27.3495C2.21325 26.6585 1.26323 26.2159 0.642484 25.6491C0.431969 25.4548 0.259236 25.2227 0.0703125 25.0068C0.388784 24.8233 0.896178 24.4184 0.993339 24.4994C1.5925 25.0068 2.24563 24.1432 2.78541 24.6398C3.23343 25.0446 4.10248 24.8773 4.23743 25.7085C5.82979 25.8435 5.59768 27.3872 6.42894 28.3319Z" fill="#FF9737"/>
<path d="M262.188 228.068C263.257 229.061 263.824 230.351 264.407 231.657C264.671 232.246 264.768 232.51 264.002 232.499C264.013 232.634 264.024 232.769 264.034 232.904C265.454 232.591 265.524 234.005 266.053 234.658C266.728 235.495 266.987 236.661 267.424 237.687C267.473 237.8 267.467 237.946 267.538 238.043C268.45 239.257 268.757 240.79 269.583 242.01C270.026 242.669 270.182 243.23 270.285 243.959C270.371 244.547 270.841 245.065 271.041 245.648C271.246 246.242 271.257 246.901 271.478 247.478C271.71 248.088 272.131 248.552 272.055 249.351C271.985 250.096 272.325 250.976 272.741 251.64C273.157 252.309 273.351 252.995 273.578 253.718C273.993 255.03 274.188 256.39 274.652 257.696C275.262 259.413 275.084 261.318 275.856 263.035C276.104 263.596 275.942 264.341 275.964 265C276.946 265.329 275.413 266.193 276.293 266.543C275.958 267.547 275.807 268.67 275.246 269.518C274.706 270.327 274.031 271.288 272.784 271.266C272.736 271.266 272.665 271.407 272.644 271.396C272.239 271.196 271.856 270.878 271.429 270.802C271.019 270.732 270.674 271.536 270.107 270.867C269.702 270.392 269.103 270.09 268.59 269.712C268.164 269.399 268.228 268.611 267.478 268.573C267.376 268.568 267.289 268.195 267.192 267.99C267.003 268.179 266.652 268.368 266.652 268.562C266.652 270.246 265.287 271.007 264.337 272.033C264.045 272.346 263.624 272.562 263.23 272.74C263.009 272.843 262.696 272.832 262.447 272.778C262.005 272.675 261.881 271.628 261.152 272.346C260.688 272.017 260.223 271.677 259.754 271.353C259.392 271.105 259.009 270.883 258.642 270.64C258 270.214 257.541 270.095 257.228 271.067C257.071 271.547 256.531 271.903 256.008 271.239C255.614 270.743 255.36 271.887 254.885 271.347C254.653 271.083 254.259 270.948 253.919 270.786C253.217 270.446 252.693 269.863 252.154 269.345C251.517 268.735 250.842 268.006 250.588 267.197C250.351 266.441 249.806 265.62 250.146 264.778C250.362 264.249 249.52 263.99 249.962 263.413C250.086 263.245 249.709 262.695 249.579 262.36C247.949 264.298 247.425 266.867 245.827 268.827C245.784 270.122 244.743 270.921 244.262 272.001C243.906 272.805 243.981 273.032 245.029 273.113C246.437 273.226 247.776 273.571 249.088 274.014C249.903 274.289 250.686 274.699 251.436 275.137C252.04 275.488 252.521 276.065 253.136 276.384C255.203 277.452 256.769 279.19 258.685 280.459C259.074 280.718 259.257 281.549 259.581 281.576C260.418 281.652 260.186 282.478 260.677 282.775C261.12 283.045 261.476 283.487 261.789 283.908C261.999 284.2 262.183 284.588 262.188 284.939C262.199 286.17 262.89 287.071 263.532 288.011C263.743 288.318 264.018 288.637 264.088 288.982C264.596 291.449 266.604 292.658 268.304 294.126C269.632 295.271 271.03 296.35 271.613 298.104C271.888 298.936 272.131 299.772 272.336 300.631C272.617 301.797 272.611 302.935 272.692 304.096C272.757 305.041 272.396 305.872 272.002 306.633C271.446 307.707 270.166 307.95 269.238 308.614C268.849 307.82 268.358 308.976 267.986 308.56C267.246 307.734 265.686 308.922 265.292 307.313C264.957 308.112 264.547 308.765 264.412 309.472C264.272 310.196 263.619 310.482 263.257 310.525C261.454 310.725 259.56 311.038 258.221 309.278C258.021 309.013 257.816 308.754 257.681 308.571C256.369 308.846 256.202 309.985 255.576 310.676C255.074 311.227 254.723 311.842 253.865 311.863C253.687 311.869 253.519 312.112 253.341 312.247C252.936 312.247 252.537 312.247 252.132 312.247C251.97 311.874 251.889 311.388 251.274 311.68C251.198 311.718 251.009 311.621 250.934 311.529C250.864 311.442 250.912 311.21 250.847 311.178C248.839 310.239 248.181 308.15 246.891 306.601C246.114 305.667 245.331 304.695 244.942 303.583C244.5 302.293 243.906 301.03 243.69 299.675C243.506 298.542 242.891 298.023 241.806 297.71C240.926 297.457 240.041 296.982 239.356 296.383C238.702 295.816 237.941 295.54 237.229 295.146C234.665 293.738 232.074 292.372 229.483 291.012C228.479 290.483 227.615 290.207 226.541 291.217C225.677 292.032 224.323 292.302 223.254 292.928C221.354 294.04 219.357 294.866 217.23 295.4C215.648 295.8 214.094 296.28 212.485 296.62C210.159 297.117 207.881 296.858 205.587 296.895C204.14 296.922 202.688 296.604 201.285 296.145C200.626 295.929 199.924 295.859 199.239 295.729C199.05 295.692 198.785 295.735 198.688 295.621C197.441 294.25 195.315 294.477 194.1 293.068C193.021 292.825 192.157 292.194 191.32 291.508C191.185 291.395 190.899 291.255 190.818 291.314C190.106 291.838 189.42 291.951 188.719 291.314C188.222 292.156 187.742 291.39 187.245 291.309C186.916 291.255 186.57 291.271 186.241 291.303C183.456 291.589 180.724 290.817 177.95 290.877C177.54 290.888 177.129 290.558 176.708 290.504C174.933 290.283 173.146 289.986 171.424 289.603C169.454 289.16 167.268 289.106 165.594 287.676C164.051 287.379 162.847 286.235 161.233 286.013C160.488 285.911 159.813 285.263 159.112 284.858C157.514 283.941 156.024 282.872 154.534 281.776C152.186 280.049 150.54 277.577 148.084 275.995C147.62 274.575 146.092 274.251 145.223 273.226C144.316 272.152 143.237 271.229 142.26 270.214C141.828 269.76 141.558 269.107 141.061 268.783C140.505 268.416 140.376 267.785 139.868 267.407C139.334 267.013 138.87 266.506 138.438 265.993C137.65 265.059 136.905 264.082 136.144 263.121C136.036 262.986 135.966 262.797 135.831 262.716C135.059 262.258 134.265 261.361 133.483 262.706C131.766 263.062 130.228 263.915 128.527 264.379C126.476 264.94 124.458 264.519 122.433 264.719C121.764 264.168 120.954 263.726 120.469 263.046C119.902 262.252 119.362 261.281 119.281 260.347C119.119 258.501 118.137 257.043 117.408 255.467C116.409 253.303 115.681 251.084 115.108 248.752C114.671 246.971 114.396 245.157 114.078 243.376C113.797 241.805 113.354 240.191 113.57 238.523C113.84 236.418 112.874 234.372 113.181 232.251C112.388 231.285 113.208 229.919 112.377 228.958C113.16 228.262 112.323 227.571 112.35 226.875C112.356 226.745 112.037 226.594 111.87 226.459C111.514 226.902 111.017 226.4 110.817 226.508C110.25 226.815 109.495 226.459 109.225 226.686C108.431 227.344 108.135 226.092 107.406 226.411C106.844 226.659 106.083 226.459 105.414 226.459C104.745 226.459 104.059 226.54 103.401 226.443C101.069 226.108 99.2443 225.029 98.2673 222.772C97.9974 222.146 97.6412 221.558 97.3821 220.926C97.15 220.354 96.9178 219.755 96.8261 219.151C96.7343 218.557 96.092 218.017 96.6156 217.353C95.8653 216.214 96.0596 214.881 95.7843 213.656C95.5144 212.446 95.0988 211.248 94.8991 210.007C94.8721 209.834 94.6723 209.677 94.6562 209.505C94.505 207.815 94.3863 206.126 94.2405 204.436C94.1973 203.934 94.4025 203.421 93.949 202.925C93.7979 202.757 94.2459 202.147 94.2189 201.748C94.1434 200.593 93.9167 199.443 93.8519 198.288C93.7871 197.084 94.0246 195.832 93.7709 194.677C93.6036 193.91 93.5874 193.338 93.7709 192.566C94.0246 191.487 93.8789 190.299 93.8249 189.16C93.7439 187.395 94.2189 185.716 94.6777 184.07C95.1312 182.445 95.5522 180.842 95.4226 179.158C95.3741 178.478 95.0988 177.814 94.8829 176.972C94.7641 177.064 94.6022 177.29 94.4672 177.274C92.47 177.037 90.7805 178.132 88.9453 178.554C87.2989 178.931 85.7228 179.639 84.0009 179.73C83.8659 179.736 83.6986 179.676 83.6014 179.741C81.8417 180.88 79.6502 180.448 77.8096 181.328C77.5343 181.458 77.1456 181.344 76.811 181.344C74.9973 181.344 73.1836 181.382 71.3754 181.328C70.5549 181.301 69.7398 181.09 68.9248 180.939C68.1745 180.799 67.4404 181.096 66.6307 180.626C65.9236 180.216 64.898 180.383 64.0073 180.227C62.5067 179.962 61.0331 179.547 59.5271 179.331C59.2789 179.293 59.0306 179.234 58.8038 179.136C57.7837 178.678 56.8174 178.035 55.7541 177.771C54.6799 177.501 54.0592 176.378 52.877 176.438C51.8137 175.282 50.1943 175.077 48.9852 174.165C48.8934 174.095 48.6883 174.165 48.6182 174.095C47.3713 172.729 45.5144 172.486 44.0138 171.59C43.4686 171.266 42.9882 170.829 42.4592 170.484C41.4067 169.798 40.2138 169.269 39.2961 168.438C37.5041 166.824 35.8199 165.081 34.1628 163.321C33.6122 162.738 33.3801 161.863 32.8457 161.264C30.8809 159.067 29.7744 156.32 28.0363 153.983C27.788 153.648 27.7772 153.151 27.5883 152.763C26.9513 151.446 26.3953 150.08 25.1862 149.114C24.8624 148.855 24.7058 148.38 24.4575 148.018C24.1336 147.543 23.8476 147.036 23.4535 146.625C22.4927 145.627 21.7748 144.547 21.7262 143.101C21.7154 142.815 21.4455 142.55 21.3484 142.259C21.0623 141.438 20.6628 140.618 20.5765 139.77C20.4901 138.923 20.0745 138.216 19.9018 137.417C19.8802 137.32 19.8154 137.163 19.8478 137.141C20.4739 136.688 19.416 136.478 19.7128 135.997C20.2418 135.139 19.6157 134.227 19.7074 133.32C19.81 132.321 19.6643 131.301 19.756 130.302C19.81 129.73 19.1569 129.25 19.6157 128.667C19.0273 128.111 19.3998 127.404 19.3404 126.772C19.281 126.108 19.5131 125.363 19.2918 124.775C18.6333 123.032 19.0813 121.245 18.914 119.491C18.8492 118.81 18.4497 118.066 18.6279 117.477C18.8492 116.754 18.385 116.22 18.4767 115.55C18.5685 114.892 18.8276 114.082 18.1421 113.499C18.8222 113.062 18.0503 112.668 18.0989 112.231C18.4336 109.316 17.7372 106.444 17.6617 103.54C17.5861 100.641 16.4633 98.0613 14.1045 96.172C13.7482 95.8859 13.5701 95.8158 13.257 96.3501C12.2099 98.1368 11.4596 100.042 10.8766 102.012C10.5204 103.222 9.78625 104.35 10.0453 105.705C10.0507 105.737 9.77545 105.899 9.72687 105.861C9.1601 105.472 8.73367 106.39 8.18309 106.018C7.87002 105.807 7.29785 105.607 7.29246 105.391C7.26547 104.35 6.33164 103.416 7.11972 102.239C7.50297 101.667 7.30865 100.793 7.98338 100.166C8.43139 99.7562 8.47458 98.9195 8.73907 98.2934C9.24647 97.095 9.78085 95.9075 10.299 94.7092C10.6067 93.9967 10.5635 93.4623 9.9104 93.2302C9.1547 92.9657 8.79305 92.3504 8.24247 91.9077C7.69189 91.4651 7.20069 90.9793 6.59074 90.5745C5.03616 89.5381 3.64353 88.2588 2.19691 87.0605C1.80827 86.7366 0.593761 84.4264 0.388644 83.784C0.345461 83.6491 0.134945 83.5681 0 83.4601C0 82.386 0 81.3118 0 80.2377C0.836662 79.903 0.480407 78.5103 1.60315 78.4348C2.38584 76.47 3.9674 76.0274 6.14812 76.2595C5.04156 74.7697 4.65832 73.1395 3.77847 71.7631C3.12534 70.7429 3.23329 69.6579 3.23869 68.5676C3.23869 68.4326 3.46 68.1681 3.53557 68.1843C4.27507 68.3355 4.71769 67.8335 4.99298 67.3531C5.36543 66.7053 5.9322 67.4664 6.36942 66.9968C6.63932 66.7107 7.1737 67.094 7.55695 67.4232C7.84303 67.6715 8.31804 67.7039 8.78765 67.7201C7.9186 66.5488 7.81604 65.1453 7.27086 63.92C7.12512 63.5854 7.25467 63.1266 7.25467 62.7271C7.49217 62.7595 7.72968 62.8027 7.96718 62.8027C7.99417 62.8027 8.02116 62.576 8.05354 62.4518C8.11832 62.2089 8.15071 61.9552 8.25327 61.7285C8.9064 60.2927 9.44618 59.9149 10.963 60.1308C13.0357 60.4277 14.9304 61.3021 16.6199 62.4842C18.6063 63.8715 20.4469 65.4584 22.3416 66.9536C22.5629 66.43 22.7356 65.9658 22.9515 65.5178C23.9825 63.3803 24.5817 61.0916 25.3751 58.8677C26.228 56.4711 26.8488 53.9989 27.9013 51.6562C28.4087 50.5335 28.8675 49.3729 29.3533 48.234C29.8391 47.095 30.3357 45.9615 30.6488 44.7362C30.9511 43.5541 31.696 42.4961 32.2034 41.3626C32.8133 40.0077 33.3747 38.6259 34.0386 37.0713C34.1682 37.5625 34.1628 38.0105 34.3787 38.2804C34.708 38.6906 34.6972 38.9551 34.3355 39.2844C34.3085 39.3114 34.4435 39.5813 34.5514 39.6892C35.1992 40.3586 34.3139 41.3302 35.0103 41.9941C35.0211 42.0049 34.8267 42.3504 34.708 42.3665C34.2222 42.4259 34.1142 42.5447 34.5191 42.9009C34.5946 42.9711 34.6486 43.1546 34.6108 43.2518C34.0386 44.9575 33.4125 46.6524 32.8781 48.3689C32.5489 49.4377 31.8255 50.3553 31.7716 51.5482C31.7392 52.2877 31.0591 52.8059 30.8 53.5562C30.1738 55.3753 29.7366 57.2699 28.9593 59.0296C28.1982 60.7353 27.626 62.5058 26.9729 64.2493C26.9567 64.2871 27.0215 64.3573 27.0485 64.4166C28.1712 64.2925 28.8891 63.4936 29.6718 62.8135C30.0389 62.495 30.2818 62.3925 30.6596 62.7757C31.0267 63.1482 31.7662 62.6516 32.0361 63.3263C34.4273 63.5422 35.9441 65.2749 37.6822 66.6136C37.9197 66.7971 38.1194 67.0994 38.2274 67.3854C38.8751 69.1343 39.4419 70.9102 40.1382 72.6375C40.3757 73.2313 40.1436 73.852 40.5808 74.489C40.9425 75.018 40.7913 75.9464 40.9748 76.7075C41.099 77.2311 41.709 77.9436 41.0558 78.5697C41.3257 79.0825 41.4445 79.6169 41.4822 80.2161C41.5686 81.6033 41.1854 82.9204 40.8345 84.1996C40.6834 84.7448 41.4876 84.9284 41.0018 85.3332C40.5268 85.7272 40.6834 85.9971 40.9641 86.4829C41.1422 86.7852 40.7427 87.3952 40.6672 87.881C40.5862 88.3938 40.5916 88.9227 40.5214 89.4355C40.4998 89.6083 40.2299 89.8134 40.2731 89.9213C41.0774 91.9077 40.5106 93.9805 40.6348 96.0047C40.6834 96.7928 40.7859 97.5269 41.1206 98.2286C41.2285 98.4553 41.4229 98.6604 41.4499 98.8925C41.6064 100.312 41.7305 101.732 41.8655 103.157C41.8763 103.292 41.8115 103.47 41.8763 103.551C42.7075 104.63 42.4269 106.023 42.8911 107.162C43.2149 107.955 42.7993 108.798 43.4255 109.58C43.8465 110.098 43.8303 111.032 43.8627 111.788C43.9005 112.716 44.926 113.283 44.6885 114.271C45.3579 114.541 44.613 115.167 45.0502 115.62C45.3903 115.971 45.3525 116.678 45.4982 117.224C45.6224 117.709 45.7357 118.201 45.9085 118.665C46.1028 119.188 46.4752 119.669 46.5616 120.198C46.7991 121.698 47.517 123.032 47.9164 124.473C48.0676 125.013 48.2295 125.552 48.44 126.065C48.8449 127.037 49.1525 128.089 49.7517 128.931C50.3509 129.773 50.6747 130.707 51.1551 131.582C51.8245 132.796 52.7205 133.87 53.4546 135.052C54.1671 136.202 55.1981 137.168 56.1211 138.183C57.8754 140.099 60.0831 141.379 62.4096 142.437C63.759 143.052 65.2164 143.414 66.5497 144.126C67.2946 144.526 68.2608 144.536 69.1353 144.666C69.702 144.747 70.312 144.553 70.7924 145.065C70.8896 145.168 71.1864 145.109 71.3808 145.076C72.2498 144.92 73.1836 144.882 73.9717 144.536C75.0513 144.061 76.1146 143.446 77.0269 142.696C78.6084 141.406 80.0713 139.97 81.5772 138.588C82.0091 138.194 82.3221 137.714 83.0778 137.805C83.9037 137.903 84.5029 137.314 85.0372 136.742C86.7484 134.901 88.4541 133.055 90.1652 131.215C91.3635 129.925 92.7291 128.834 94.2459 127.938C95.6224 127.123 96.6372 125.887 97.7869 124.813C98.3483 124.289 98.9852 123.836 99.606 123.382C100.48 122.751 101.43 122.211 102.245 121.509C103.557 120.381 105.139 119.744 106.618 118.913C107.492 118.422 108.437 118.098 109.23 117.423C109.932 116.829 111.103 117.002 111.697 116.117C112.771 116.322 113.295 115.21 114.299 115.064C115.314 114.919 116.118 113.898 117.295 114.071C117.807 113.105 118.887 113.375 119.675 113.008C120.404 112.668 121.213 112.517 121.985 112.268C122.099 112.231 122.185 112.09 122.304 112.063C122.736 111.971 123.421 112.052 123.561 111.809C123.864 111.291 124.02 110.6 123.993 109.99C123.875 107.248 124.792 104.674 125.283 102.045C125.494 100.933 126.336 99.9397 126.903 98.9033C127.005 98.7144 127.383 98.5848 127.005 98.3365C126.843 98.234 126.633 98.1962 126.439 98.153C126.309 98.126 126.05 98.1368 126.044 98.1314C126.034 97.4621 125.834 96.7064 126.082 96.1396C127.102 93.7808 128.193 91.4435 129.882 89.4517C130.314 88.9389 130.622 88.3182 131.086 87.5949C129.877 87.8378 128.938 88.1617 127.955 87.6435C127.734 87.5301 127.286 87.9187 126.989 87.8594C126.644 87.7892 126.314 87.5193 126.055 87.2548C125.991 87.1846 126.179 86.7852 126.331 86.6017C126.741 86.0997 127.302 85.6787 126.887 84.9014C126.87 84.869 127.016 84.6855 127.102 84.6747C128.312 84.5019 129.521 84.3508 131.183 84.1349C129.062 83.4817 127.685 82.278 126.077 81.4791C125.683 81.2794 125.64 81.1229 125.623 80.7882C125.596 80.3456 125.785 80.1891 126.206 80.2377C126.341 80.2538 126.573 80.2862 126.595 80.2323C127.351 78.6075 128.83 79.1635 130.098 79.0069C130.638 78.9422 131.129 78.5805 131.669 78.4456C132.149 78.3268 132.662 78.289 133.159 78.3214C133.391 78.3376 133.153 79.5251 133.871 78.6399C134.184 79.0825 134.789 78.8612 135.07 79.0771C135.496 79.4064 135.89 79.428 136.349 79.428C136.797 79.428 137.24 79.428 137.92 79.428C136.581 78.0947 135.442 76.9774 134.325 75.833C133.342 74.829 132.597 73.7117 132.894 72.2111C132.927 72.0438 133.207 71.7955 133.369 71.7955C134.805 71.8332 134.805 71.8386 136.182 71.0991C136.344 71.0128 136.619 70.9102 136.721 70.9858C137.715 71.7199 138.994 71.0668 140.052 71.7307C140.651 72.1085 141.542 71.9844 142.27 72.1949C142.859 72.3676 143.388 72.7401 143.96 72.9776C145.455 73.5929 146.939 74.2353 148.348 75.018C148.85 75.2932 149.293 75.6819 149.703 76.1461C150.027 76.5078 150.421 77.3444 151.258 77.0637C152.24 77.7762 153.217 78.4888 154.2 79.2013C154.129 80.0163 154.61 79.4766 154.907 79.5359C156.515 79.8652 160.304 81.6897 161.238 82.6721C161.789 83.2496 162.097 84.0485 162.55 84.7232C163.219 85.711 163.84 86.7258 164.45 87.7568C164.93 88.5719 165.017 89.4139 165.243 90.256C165.373 90.7472 165.395 91.2654 165.508 91.7566C165.632 92.3018 165.654 93.0035 166.005 93.3382C166.442 93.7484 165.557 94.326 166.296 94.5203C166.21 94.747 166.156 95.1518 166.026 95.1788C165.362 95.3192 165.794 96.4635 164.925 96.3393C164.007 96.2098 164.671 96.7658 164.585 97.0249C164.299 97.9209 163.98 98.8061 163.883 99.7508C163.797 100.587 163.063 101.111 162.852 101.948C162.572 103.076 161.972 104.128 161.46 105.186C161.303 105.505 161.012 105.904 160.715 105.969C159.916 106.153 160.364 106.671 160.288 107.211C160.958 107.211 161.611 107.178 162.258 107.221C162.787 107.254 163.327 107.486 163.84 107.432C164.445 107.367 165.098 106.817 165.605 106.957C166.312 107.146 166.798 107.178 167.494 106.86C168.088 106.59 168.898 106.93 169.535 106.428C169.67 106.325 170.107 106.406 170.253 106.557C170.657 106.968 171.186 106.914 171.559 106.779C173.081 106.239 174.582 106.185 176.098 106.73C176.811 105.942 177.437 106.962 178.155 106.838C178.938 106.703 179.769 106.87 180.562 106.795C182.085 106.649 183.542 107.043 185.026 107.211C185.393 108.026 185.923 106.887 186.468 107.351C186.835 107.664 187.688 107.372 188.125 107.653C188.686 108.015 189.231 108.074 189.793 107.993C190.365 107.912 190.915 109.019 191.477 108.015C191.892 108.657 192.632 108.204 193.091 108.474C193.604 108.771 194.138 108.517 194.651 108.787C195.126 109.035 195.854 108.56 196.286 109.202C196.589 108.749 196.831 109.127 197.161 109.181C198.17 109.353 199.255 109.003 200.211 109.629C201.107 109.094 201.981 109.791 202.904 109.661C204.453 109.445 205.916 109.974 207.341 110.573C207.875 110.8 208.48 110.692 209.041 111.027C209.614 111.367 210.396 111.34 210.979 111.669C211.659 112.052 212.339 112.004 213.041 112.063C213.262 112.079 213.462 112.328 213.683 112.446C213.959 112.592 214.293 112.889 214.515 112.824C216.042 112.387 217.187 113.71 218.617 113.677C218.828 113.672 219.038 113.936 219.259 114.05C220.096 114.465 220.906 115.108 221.78 115.21C222.849 115.334 223.373 116.203 224.279 116.522C225.143 116.829 226.082 117.137 226.73 117.893C226.806 117.985 226.941 118.076 227.048 118.082C227.669 118.109 228.409 117.882 228.5 118.87C229.17 118.756 229.623 119.107 230.017 119.582C230.865 119.08 231.28 119.998 231.809 120.268C232.398 120.576 233.159 120.845 233.558 121.342C234.168 122.087 235.053 122.351 235.777 122.805C236.586 123.312 237.407 123.76 238.119 124.424C238.416 124.699 238.902 124.78 239.312 124.926C239.49 124.991 239.744 124.921 239.874 125.023C240.489 125.509 241.013 126.351 241.677 126.465C242.605 126.627 242.859 127.452 243.566 127.771C244.246 128.079 244.829 128.602 245.477 128.991C246.556 129.633 247.247 130.907 248.678 130.988C249.347 131.992 250.329 132.623 251.328 133.25C251.922 133.622 252.402 134.243 253.034 134.486C253.951 134.842 254.097 135.905 255.074 136.283C255.83 136.575 256.283 137.611 256.925 138.264C257.357 138.701 257.859 139.074 258.372 139.414C259.203 139.965 259.835 140.699 260.499 141.422C261.206 142.188 262.107 142.782 262.82 143.549C263.57 144.358 264.558 144.941 265.011 146.059C265.168 146.447 265.864 146.588 266.156 146.965C266.663 147.629 267.381 148.077 267.802 148.855C268.228 149.637 268.882 150.307 269.486 150.976C270.118 151.672 270.9 152.245 271.451 152.989C272.892 154.938 274.641 156.611 276.158 158.484C277.162 159.731 278.096 161.032 279.056 162.317C279.245 162.571 279.359 162.9 279.591 163.094C281.561 164.746 282.824 166.959 284.265 169.021C284.962 170.02 285.647 171.007 286.392 171.968C287.822 173.82 289.436 175.542 290.354 177.771C291.04 179.444 292.033 180.977 292.929 182.548C293.722 183.935 294.17 185.517 294.759 187.017C294.829 187.19 294.726 187.492 294.829 187.584C296.027 188.588 296.016 190.197 296.778 191.417C297.539 192.642 297.96 194.013 298.521 195.325C298.618 195.551 298.812 195.805 298.775 196.015C298.57 197.187 299.368 197.856 300 198.617C300 199.556 300 200.496 300 201.435C299.466 202.174 298.769 202.855 298.435 203.675C298.084 204.539 297.333 204.949 296.821 205.613C296.745 205.71 296.626 205.845 296.524 205.85C295.099 205.942 293.658 205.942 292.373 205.235C291.973 205.014 291.461 204.674 291.531 203.993C291.59 203.448 291.212 203.184 290.538 202.336C290.338 202.212 290.289 202.482 290.354 202.72C290.387 202.849 290.602 202.935 290.737 203.038C290.867 202.828 291.126 202.59 291.088 202.423C291.034 202.201 290.743 202.039 290.538 202.336C290.602 203.389 290.343 203.745 290.365 204.08C290.408 204.76 290.187 205.327 289.949 205.931C289.723 206.509 289.76 207.232 289.426 207.718C288.94 208.425 288.265 209.024 287.59 209.575C287.223 209.877 286.694 209.98 286.23 210.158C286.149 210.19 285.96 210.147 285.96 210.125C285.879 209.154 285.167 209.105 284.433 208.986C284.228 208.954 283.888 208.587 283.92 208.436C284.174 207.108 282.9 206.288 282.803 205.057C282.63 205.786 282.543 206.552 282.263 207.243C281.75 208.495 281.172 209.753 279.893 210.449C279.407 210.714 278.873 210.908 278.344 211.081C278.214 211.124 277.874 210.946 277.874 210.876C277.88 210.46 277.756 210.282 277.308 210.282C275.985 210.293 275.397 209.505 275.008 208.328C274.441 206.617 273.815 204.927 273.281 203.2C273 202.288 273.119 201.343 272.665 200.436C272.228 199.567 272.25 198.466 272.023 197.198C271.543 198.067 271.116 198.725 270.809 199.438C270.598 199.929 270.334 200.231 269.826 200.415C269.07 200.695 268.374 201.127 267.613 201.381C266.69 201.689 263.478 200.749 263.468 200.037C263.451 198.882 262.345 198.628 262.134 197.732C261.935 196.885 261.643 196.059 261.335 195.249C261.114 194.671 260.833 194.11 260.526 193.57C259.964 192.593 259.365 191.627 258.777 190.682C257.994 189.43 257.481 187.854 255.862 187.282C255.603 186.326 254.761 185.841 254.146 185.177C253.552 184.534 252.872 183.978 252.316 183.309C251.803 182.694 250.955 182.478 250.572 181.657C250.399 181.285 249.768 181.101 249.314 180.896C248.014 180.313 246.858 179.536 245.876 178.505C244.716 177.29 243.247 176.508 241.849 175.612C240.888 174.991 239.89 174.494 238.859 174.063C237.828 173.636 236.964 172.783 235.755 172.81C234.443 171.569 232.738 171.034 231.172 170.268C228.765 169.091 226.217 168.292 223.637 167.537C222.223 167.121 220.776 166.711 219.394 166.133C218.828 165.896 218.331 165.431 217.602 165.556C217.365 165.599 217.068 165.275 216.793 165.124C216.577 165.005 216.35 164.789 216.129 164.794C214.758 164.832 213.538 164.222 212.237 163.952C211.146 163.726 210.045 163.413 209.031 162.959C208 162.5 206.958 162.123 205.867 161.836C205.754 161.81 205.673 161.653 205.446 161.426C205.419 161.993 205.209 162.571 205.414 162.846C205.862 163.456 205.743 164.082 205.781 164.719C205.813 165.226 205.619 165.761 206.137 166.198C206.272 166.311 206.116 166.802 206.046 167.116C205.992 167.353 205.776 167.585 205.792 167.806C205.965 170.387 205.144 172.902 205.338 175.493C205.414 176.497 205.052 177.523 204.982 178.548C204.917 179.552 205.214 180.642 204.912 181.549C204.324 183.32 204.696 185.079 204.567 186.839C204.48 188 204.599 189.139 204.21 190.315C203.849 191.406 204.286 192.636 203.973 193.835C203.789 194.526 203.973 195.503 204.356 196.113C205.079 197.252 204.961 198.552 205.311 199.745C205.495 200.366 205.414 201.03 206.013 201.478C206.1 201.543 206.175 201.705 206.164 201.807C205.997 203.443 206.526 205.116 205.905 206.73C205.813 206.962 205.689 207.308 205.786 207.464C206.499 208.571 206.035 209.78 206.17 210.935C206.24 211.523 206.353 212.112 206.353 212.7C206.353 213.278 205.981 214.023 206.229 214.39C206.591 214.929 206.175 215.448 206.51 215.982C206.726 216.333 206.623 217.045 206.337 217.661C206.024 218.325 206.148 219.215 206.186 220.003C206.229 220.926 206.089 221.806 205.759 222.654C205.5 223.318 205.436 224.003 205.333 224.699C205.074 226.454 204.874 228.203 204.966 229.973C204.248 231.128 204.675 232.408 204.567 233.633C204.486 234.594 204.712 235.56 204.205 236.51C204.005 236.888 204.367 237.53 204.361 238.054C204.356 238.626 204.183 239.198 204.167 239.776C204.135 241.249 204.162 242.728 204.156 244.207C204.156 244.628 202.958 245.859 202.737 245.67C201.857 244.92 201.932 246.215 201.436 246.231C201.468 246.593 201.398 247.009 201.549 247.311C201.916 248.04 202.445 248.682 202.796 249.416C203.196 250.253 203.26 251.359 203.865 251.958C204.599 252.687 204.383 253.902 205.371 254.387C205.533 255.947 206.472 257.065 207.508 258.139C207.633 258.269 207.811 258.495 207.773 258.619C207.487 259.559 208.518 259.343 208.771 259.796C209.635 259.548 209.927 260.314 210.094 260.789C210.299 261.351 210.537 261.421 211.039 261.475C211.271 261.502 211.454 261.944 211.665 262.193C212.237 261.448 212.426 262.29 212.636 262.5C212.874 262.743 212.906 263.181 213.03 263.531C213.187 263.979 213.451 263.936 213.781 263.715C213.894 263.639 214.067 263.607 214.202 263.623C214.817 263.699 214.936 264.433 215.368 264.611C215.87 264.821 216.512 264.535 216.976 265.14C217.257 265.507 219.103 265.701 219.562 265.577C219.923 265.475 221.742 265.431 222.201 265.453C222.671 265.48 222.822 265.323 222.406 264.94C222.379 264.913 222.509 264.606 222.628 264.541C224.371 263.553 225.613 261.907 227.389 260.973C227.658 259.667 229.046 259.235 229.607 258.069C230.125 256.995 231.291 256.298 231.966 255.219C233.24 253.178 234.589 251.187 236.003 249.238C237.142 247.673 238.416 246.204 239.636 244.698C240.203 243.991 240.775 243.295 241.342 242.588C241.865 241.935 242.286 241.136 242.94 240.661C243.49 240.261 242.745 239.365 243.695 239.268C244.473 239.187 243.954 238.421 244.257 237.978C245.196 236.618 246.303 235.549 247.792 234.847C248.397 234.567 248.818 233.876 248.37 233.433C247.668 232.737 248.526 232.397 248.483 231.889C248.445 231.42 248.219 230.756 249.12 230.783C249.082 230.642 249.039 230.497 249.001 230.356C248.958 230.178 248.85 229.854 248.893 229.833C249.762 229.374 249.552 228.327 250.076 227.684C250.184 227.55 250.243 227.226 250.318 227.231C250.642 227.247 250.961 227.344 251.279 227.415C251.155 227.139 250.847 226.729 250.934 226.61C251.285 226.125 251.749 225.725 252.197 225.32C252.24 225.277 252.461 225.477 252.613 225.504C253.082 225.585 253.698 225.957 253.73 225.002C253.73 224.926 254.048 224.813 254.221 224.802C254.755 224.775 255.295 224.753 255.83 224.802C256.267 224.845 256.979 224.451 256.99 225.412C256.99 225.477 257.568 225.552 257.881 225.59C258.334 225.644 259.031 225.488 259.203 225.73C259.873 226.648 261.352 226.405 261.762 227.609C261.287 227.62 261.238 228.014 261.416 228.23C261.708 228.608 262.08 228.634 262.188 228.068ZM18.3796 76.6859C18.6333 75.4822 19.756 74.6077 19.7506 73.2097C20.8518 72.2165 20.2742 70.5378 21.3754 69.55C20.9273 69.1775 20.6143 68.8267 20.2202 68.6C19.0705 67.9306 18.2608 66.7593 16.9222 66.376C14.7306 64.4274 13.311 63.6447 10.855 62.6731C10.1641 62.3979 9.88341 62.8081 9.77005 63.1104C9.57573 63.6286 9.49476 64.2547 10.0345 64.7297C10.6715 65.2857 11.0062 66.0144 11.3624 66.7863C11.7726 67.6877 12.2962 68.5568 12.9818 69.3448C14.0181 70.527 14.9574 71.844 15.6591 73.2475C16.1017 74.1327 16.5713 74.9154 17.273 75.5901C17.5969 75.8978 17.91 76.2271 18.277 76.5401C17.381 77.1555 16.717 76.9882 15.848 76.7561C14.1801 76.308 14.1099 76.5024 13.786 76.1245C13.1599 75.385 12.5607 74.6185 11.9346 73.879C10.7848 72.535 9.25726 71.6551 7.9132 70.554C7.22228 69.9926 6.38022 69.944 5.74328 69.4096C5.67311 69.3503 5.32225 69.4852 5.26287 69.6039C5.1981 69.7335 5.32765 70.1113 5.38163 70.1113C6.21829 70.1437 6.39641 70.8293 6.62312 71.3906C7.31404 73.1395 8.28565 74.7427 9.28965 76.308C10.7147 78.5265 12.0155 80.8746 14.1693 82.5209C14.7792 82.9851 14.9142 83.6221 15.0491 84.4264C16.0207 81.6627 17.5159 79.3254 18.3796 76.6859ZM183.11 157.777C183.58 157.502 183.871 157.367 184.12 157.178C184.46 156.919 184.8 157.054 185.161 157.049C185.626 157.038 186.068 156.665 186.543 156.536C186.975 156.422 187.439 156.412 187.893 156.379C189.517 156.261 191.169 156.649 192.772 156.001C193.139 155.856 194.03 156.045 194.041 156.142C194.149 157.211 194.931 156.698 195.412 156.757C196.006 156.833 196.643 156.665 197.215 156.806C197.744 156.935 198.208 157.043 198.699 156.773C199.444 157.691 200.545 156.941 201.474 157.372C202.343 157.777 203.401 157.934 204.437 158.026C205.538 158.123 206.531 158.868 207.703 158.878C207.746 158.878 207.767 159.111 207.832 159.213C207.908 159.321 208.097 159.499 208.118 159.483C209.468 158.544 210.742 159.953 212.059 159.602C212.55 160.32 212.906 159.667 213.03 159.386C214.013 157.216 215.357 155.246 216.55 153.205C217.602 151.397 217.91 149.308 219.103 147.602C218.763 146.415 220.074 145.654 219.907 144.515C220.733 143.624 220.663 142.399 220.981 141.341C221.543 139.484 222.045 137.595 222.39 135.662C222.552 134.761 222.649 133.811 222.979 132.904C223.34 131.9 223.594 130.75 223.47 129.714C223.329 128.521 224.458 127.436 223.637 126.259C224.528 124.856 223.486 123.501 223.502 122.119C223.502 121.995 223.184 121.817 222.984 121.747C221.408 121.175 219.869 120.489 218.331 119.858C215.918 118.859 213.435 118.071 211.012 117.116C208.761 116.23 206.542 115.226 204.173 114.665C203.622 114.535 203.077 114.395 202.537 114.239C201.042 113.796 199.584 113.17 198.057 112.927C196.292 112.641 194.51 112.225 192.756 112.16C190.662 112.085 188.692 111.496 186.662 111.205C185.863 111.092 185.005 111.043 184.228 110.8C182.943 110.401 181.62 110.25 180.303 110.082C179.51 109.98 178.695 110.066 177.891 110.066C177.151 110.066 176.412 110.066 175.677 110.066C174.873 110.066 173.988 110.277 173.281 110.012C172.493 109.71 171.867 110.098 171.176 110.104C169.351 110.131 167.484 109.726 165.702 110.471C161.983 110.163 158.307 111.054 154.594 110.881C153.789 110.843 152.882 110.638 152.202 110.935C151.355 111.302 150.551 111.194 149.725 111.286C148.904 111.378 148.095 111.594 147.274 111.669C145.52 111.836 143.76 111.95 142.006 112.079C141.871 112.09 141.671 112.025 141.612 112.09C140.959 112.835 140.1 112.344 139.35 112.484C138.6 112.625 137.85 112.862 137.099 112.867C135.34 112.873 133.785 113.602 132.171 114.114C131.556 114.309 130.989 114.508 130.32 114.525C129.299 114.552 128.274 114.724 127.27 114.919C126.86 114.994 126.503 115.334 126.093 115.464C124.431 115.987 122.865 116.754 121.235 117.353C119.61 117.947 117.894 118.541 116.517 119.523C114.606 120.889 112.177 121.423 110.601 123.291C110.51 123.399 110.213 123.296 110.035 123.366C108.534 123.955 106.942 124.392 105.56 125.191C103.406 126.432 101.285 127.76 99.498 129.552C98.9204 130.13 98.2133 130.815 97.4792 130.934C96.6048 131.08 96.1837 131.711 95.9193 132.175C95.4389 133.023 94.3647 133.233 94.0678 134.183C94.0138 134.356 93.8195 134.54 93.6468 134.604C92.4592 135.042 91.7683 136.132 90.7319 136.785C89.6956 137.438 88.7887 138.324 87.8981 139.182C86.1114 140.909 84.3679 142.674 82.6244 144.445C81.8039 145.276 80.8647 145.913 79.8283 146.442C78.6084 147.063 77.3238 147.629 76.2388 148.455C74.2902 149.94 72.0825 150.523 69.7236 150.739C68.7682 150.825 68.5253 151.068 68.4605 152.05C68.3472 153.675 68.3148 155.316 68.0125 156.908C67.856 157.734 67.7156 158.603 67.3 159.424C66.8196 160.363 66.4418 161.459 67.1543 162.538C67.2406 162.673 67.273 162.997 67.1921 163.062C66.6037 163.542 66.9653 164.185 66.8466 164.741C66.7332 165.291 66.5119 165.831 66.4633 166.387C66.3554 167.677 66.4526 168.951 66.1125 170.262C65.7994 171.455 66.0045 172.799 66.0639 174.068C66.0963 174.753 66.2528 175.455 66.4688 176.108C66.6145 176.546 66.8682 177.085 67.2298 177.28C67.7642 177.566 68.4335 177.636 69.0543 177.711C70.339 177.868 71.683 177.398 72.9191 178.111C73.0649 178.197 73.4157 178.192 73.4913 178.095C73.9555 177.474 74.6734 177.944 75.143 177.69C75.7368 177.371 76.0391 178.321 76.6976 177.825C77.0863 177.533 77.8527 177.728 78.4519 177.728C78.8567 177.728 79.1644 177.539 79.5207 177.393C80.4977 176.988 81.5503 176.778 82.5812 176.524C84.0656 176.157 85.6202 176.119 87.0506 175.471C87.3529 175.336 87.7685 175.444 88.1302 175.455C88.2759 175.461 88.4757 175.59 88.5458 175.531C89.7333 174.597 91.2069 174.5 92.5672 174.041C94.003 173.561 95.59 173.863 96.9502 172.934C97.6681 172.443 98.7099 173.426 99.606 172.891C99.7517 173.42 99.892 173.955 100.054 174.484C100.124 174.721 100.216 174.959 100.34 175.169C100.459 175.358 100.75 175.439 100.453 175.757C100.264 175.957 100.34 176.022 100.669 177.15C100.686 177.209 100.686 177.285 100.669 177.35C100.475 178.273 100.421 179.261 100.049 180.113C99.4224 181.544 99.0878 183.023 99.1148 184.534C99.1255 185.166 98.3915 185.776 99.0392 186.407C98.2889 187.055 98.9798 188.01 98.6182 188.642C98.2889 189.214 98.1539 189.776 98.2997 190.305C98.467 190.904 97.9326 191.276 98.0622 191.87C98.1809 192.421 97.911 193.047 97.8733 193.64C97.8355 194.24 97.8841 194.85 97.8571 195.454C97.8355 195.972 97.9542 196.75 97.6789 196.955C96.9718 197.473 98.1755 198.018 97.5278 198.407C98.2025 199.567 97.7653 200.83 97.8409 202.039C97.8625 202.374 97.49 202.73 97.49 203.081C97.49 203.427 97.7815 203.767 97.8517 204.123C98.0946 205.327 97.6681 206.53 98.1809 207.815C98.6074 208.884 98.2727 210.223 98.6182 211.453C98.8827 212.414 98.6667 213.418 99.417 214.373C100.086 215.216 99.8489 216.479 99.8974 217.585C99.9946 219.814 100.95 221.655 102.715 223.048C102.855 223.156 103.055 223.193 103.239 223.237C104.442 223.528 105.646 223.744 106.898 223.652C107.568 223.604 108.242 223.642 108.912 223.642C109.581 223.642 110.256 223.674 110.925 223.631C111.524 223.593 112.221 223.231 112.685 223.442C113.36 223.744 113.98 223.593 114.617 223.625C115.621 223.674 116.647 223.755 117.629 223.604C118.536 223.463 119.448 223.355 120.361 223.258C121.354 223.15 122.374 223.237 123.378 223.237C123.513 223.237 123.707 223.296 123.772 223.226C124.371 222.605 125.138 222.924 125.829 222.826C126.584 222.718 127.351 222.378 128.074 222.47C129.488 222.643 130.773 222.049 132.133 221.952C132.624 221.92 133.251 221.499 133.774 221.666C134.271 221.822 134.627 220.878 135.08 221.59C135.539 221.099 136.311 221.455 136.673 221.175C137.245 220.732 137.887 221.051 138.335 220.786C139.21 220.268 140.203 220.354 141.094 220.182C142.583 219.89 143.933 218.994 145.547 219.178C146.07 219.237 146.637 218.837 147.188 218.832C147.744 218.827 148.278 217.877 148.85 218.762C149.001 218.508 149.163 218.022 149.304 218.033C150.626 218.103 151.781 217.58 153.017 217.256C154.529 216.856 156.024 216.398 157.53 215.982C159.09 215.55 160.812 215.593 162.107 214.39C162.177 214.325 162.366 214.373 162.501 214.379C163.608 214.411 164.59 213.904 165.637 213.704C166.652 213.51 167.543 212.711 168.666 213.051C169.324 212.301 170.328 212.522 171.127 212.187C171.926 211.853 172.692 211.426 173.48 211.065C173.761 210.935 174.058 210.816 174.36 210.762C175.791 210.514 176.919 209.413 178.409 209.354C179.251 208.436 180.757 208.646 181.48 207.534C182.171 207.642 182.776 207.292 183.213 206.897C183.709 206.455 184.19 206.363 184.8 206.293C185.383 206.223 185.523 205.445 186.128 205.224C187.245 204.819 188.222 204.118 189.253 203.529C192.281 201.802 195.363 200.156 198.472 198.574C199.806 197.894 201.004 197.289 200.572 195.46C200.491 195.125 201.166 194.747 200.556 194.385C200.961 193.192 201.414 192.005 201.069 190.704C201.646 189.786 201.339 188.815 201.22 187.859C201.204 187.714 201.107 187.568 201.123 187.433C201.188 186.861 201.312 186.294 201.349 185.722C201.393 185.123 201.333 184.513 201.366 183.908C201.393 183.455 201.43 182.985 201.571 182.553C201.717 182.116 201.414 181.727 201.603 181.252C201.808 180.729 201.846 180.07 201.738 179.509C201.436 177.927 202.834 176.373 201.765 174.802C201.743 174.775 201.787 174.667 201.83 174.635C202.434 174.171 202.197 173.496 202.121 172.961C202.03 172.335 202.272 171.758 202.375 171.229C202.602 170.079 202.467 168.945 202.58 167.817C202.634 167.261 202.985 166.705 202.936 166.176C202.845 165.178 202.537 164.201 202.359 163.208C202.272 162.722 202.229 162.209 202.272 161.718C202.326 161.14 202.154 160.676 201.636 160.406C201.544 160.357 198.839 159.591 198.748 159.602C196.772 159.866 195.007 158.684 193.058 158.754C192.47 158.063 191.606 158.668 191.013 158.36C190.262 157.972 189.517 157.999 188.746 157.993C187.671 157.982 186.597 157.966 185.523 158.004C185.188 158.015 184.848 158.285 184.53 158.252C184.13 158.215 183.726 157.993 183.11 157.777ZM147.895 252.012C146.259 249.718 144.775 247.489 143.139 245.379C141.801 243.651 140.748 241.719 139.183 240.159C138.735 239.711 138.411 239.144 138.033 238.626C137.655 238.113 137.31 237.568 136.883 237.098C136.619 236.807 136.516 236.639 136.878 236.37C137.218 236.121 137.52 235.841 137.747 236.478C137.806 236.639 137.903 236.882 138.022 236.909C140.376 237.465 142.022 239.079 143.679 240.661C145.039 241.962 146.416 243.252 147.279 245.001C147.56 245.573 148.23 245.935 148.661 246.447C149.072 246.933 149.66 247.23 149.876 247.959C150.027 248.466 150.702 248.806 151.08 249.27C151.484 249.762 152.229 250.004 152.24 250.798C153.061 250.911 152.985 251.645 153.201 252.18C154.156 252.153 153.881 253.087 154.253 253.524C154.669 254.015 155.133 254.49 155.452 255.041C156.477 256.817 157.481 258.598 159.014 260.001C159.495 260.438 159.667 261.14 160.294 261.459C160.412 261.518 160.472 261.707 160.553 261.837C160.85 261.588 161.141 261.318 161.454 261.092C161.789 260.849 161.859 261.469 162.404 261.291C163.948 260.784 165.486 260.33 166.911 259.521C167.883 258.97 169.168 259.154 170.015 258.269C170.992 258.457 171.732 257.82 172.482 257.432C174.096 256.595 175.812 256.061 177.513 255.472C179.807 254.679 181.939 253.524 184.19 252.628C184.654 251.813 185.701 252.018 186.311 251.413C186.759 250.971 187.299 250.598 187.844 250.269C189.075 249.529 190.349 248.86 191.579 248.121C192.605 247.505 193.636 246.885 194.591 246.172C195.509 245.492 196.751 245.217 197.485 244.499C198.359 243.64 199.547 243.457 200.405 242.631C200.75 242.296 201.182 242.356 200.788 241.735C200.599 241.438 200.588 240.996 200.583 240.623C200.561 239.214 200.556 237.805 200.583 236.397C200.588 236.024 200.696 235.646 200.81 235.29C201.279 233.876 200.626 232.354 201.236 230.95C200.713 230.524 201.031 229.952 200.988 229.45C200.939 228.877 200.972 228.338 201.322 227.771C201.501 227.485 200.842 226.659 201.026 226.394C201.625 225.515 201.328 224.597 201.36 223.712C201.382 223.091 201.646 222.368 201.004 221.855C202.024 220.64 200.772 219.016 201.749 217.742C201.943 217.488 201.69 216.873 201.614 216.43C201.576 216.198 201.382 215.804 201.441 215.766C202.111 215.334 201.366 214.708 201.517 214.519C201.986 213.947 201.711 213.359 201.765 212.797C201.83 212.133 201.555 211.34 201.835 210.816C202.224 210.077 201.603 209.542 201.776 208.905C201.938 208.301 202.105 207.68 202.17 207.059C202.235 206.395 202.165 205.715 202.202 205.051C202.213 204.889 202.467 204.755 202.505 204.582C202.575 204.263 202.704 203.842 202.564 203.621C201.997 202.725 202.294 201.721 202.121 200.685C201.835 200.685 201.549 200.604 201.333 200.695C199.849 201.338 198.359 202.007 197.01 202.882C194.904 204.242 192.627 205.284 190.446 206.509C189.588 206.989 188.719 207.502 187.812 207.912C186.894 208.333 186.057 208.911 185.178 209.343C183.558 210.142 182.155 211.356 180.374 211.826C179.952 211.934 179.542 212.085 179.143 212.252C177.486 212.954 175.877 213.785 174.177 214.341C172.406 214.919 170.744 215.842 168.86 216.106C168.131 216.209 167.451 216.7 166.728 216.754C165.74 216.824 165.065 217.564 164.051 217.661C162.518 217.812 161.017 218.373 159.516 218.816C158.869 219.01 158.275 219.388 157.627 219.593C157.023 219.782 156.359 219.372 155.727 219.895C155.268 220.279 154.437 219.782 153.93 220.403C153.552 220.867 152.92 220.608 152.413 220.759C150.372 221.358 148.31 221.995 146.238 222.33C144.543 222.605 142.961 223.609 141.158 223.242C139.987 223.971 138.605 223.874 137.342 224.235C136.041 224.608 134.746 224.996 133.364 224.84C132.533 225.558 131.426 224.948 130.579 225.396C129.612 225.903 128.625 225.498 127.658 225.649C127.41 225.687 127.167 225.763 126.919 225.801C126.352 225.887 125.775 225.946 125.208 226.054C124.587 226.168 123.977 226.34 123.356 226.438C123.2 226.465 123.016 226.297 122.838 226.249C122.611 226.195 122.255 226.06 122.174 226.152C121.667 226.718 121.03 226.416 120.474 226.432C118.747 226.475 117.014 226.448 115.049 226.448C115.654 228.219 116.01 229.871 116.15 231.576C116.253 232.823 116.895 234.016 116.803 235.312C116.663 237.314 116.965 239.29 117.251 241.249C117.44 242.55 118.002 243.808 118.007 245.146C118.018 246.447 118.542 247.608 118.86 248.822C118.952 249.184 119.195 249.524 119.211 249.88C119.286 251.505 120.242 252.817 120.706 254.301C121.526 254.652 120.976 255.705 121.645 256.126C121.251 257.076 122.423 257.345 122.52 258.198C122.655 259.413 123.324 260.541 124.069 261.561C124.139 261.653 124.328 261.761 124.404 261.729C125.839 261.07 127.443 260.989 128.905 260.449C130.476 259.866 132.009 259.213 133.504 258.409C134.449 257.901 135.496 257.405 136.559 257.07C137.634 256.736 138.654 256.239 139.696 255.91C141.153 255.456 142.351 254.512 143.771 254.074C145.272 253.621 146.405 252.514 147.895 252.012ZM272.029 268.314C272.908 267.639 273.097 266.792 273.065 265.836C273.032 264.697 273.157 263.542 273.027 262.419C272.919 261.502 272.849 260.509 272.277 259.726C271.651 258.862 271.019 257.27 270.614 255.98C270.08 254.258 269.567 252.514 269.103 250.782C268.757 249.502 268.196 248.326 267.786 247.09C267.1 245.033 266.485 242.939 265.405 241.033C265.006 240.332 264.445 239.651 264.353 238.863C264.175 237.33 262.847 236.407 262.474 235.004C261.254 234.329 261.508 233.147 261.335 232.041C261.13 230.745 260.585 229.595 259.273 228.834C258.059 228.127 256.726 227.814 255.463 227.339C254.545 226.994 253.471 227.193 252.726 228.386C251.884 229.736 251.29 231.047 251.306 232.64C251.317 233.638 250.88 235.069 250.351 235.22C249.746 235.393 249.698 235.662 249.687 236.164C249.682 236.461 249.563 236.801 249.385 237.034C248.316 238.41 247.058 239.668 246.162 241.147C245.115 242.879 243.501 244.153 242.643 246.086C242.081 247.354 241.056 248.498 240.3 249.745C239.841 250.501 239.404 251.3 238.81 251.937C237.752 253.076 237.499 254.684 236.414 255.786C236.516 256.439 235.825 256.131 235.636 256.433C235.404 256.806 235.199 257.205 234.918 257.545C234.179 258.452 233.472 259.402 232.635 260.217C230.881 261.917 229.343 263.85 227.275 265.226C226.471 265.761 225.85 266.743 224.992 266.986C224.063 267.251 223.313 267.823 222.439 268.147C221.715 268.411 221.041 268.163 220.355 268.454C219.184 268.956 217.932 269.248 216.62 269.161C215.821 269.107 215.001 269.064 214.207 269.172C212.852 269.361 211.8 268.578 210.914 267.909C209.511 266.856 208.242 265.556 207.314 264.006C206.925 263.364 206.58 262.695 206.17 262.069C204.313 259.24 202.839 256.234 201.77 253.016C201.198 251.284 200.41 249.648 199.207 248.239C198.91 247.889 198.758 247.84 198.321 248.175C197.636 248.698 196.804 249.027 196.022 249.411C193.544 250.636 191.39 252.39 188.945 253.691C187.412 254.512 185.842 255.3 184.319 256.158C182.754 257.038 180.978 257.47 179.359 258.269C178.133 258.873 176.843 259.321 175.553 259.775C174.452 260.163 173.335 260.633 172.244 261C171.008 261.415 169.929 262.295 168.552 262.333C168.358 262.338 168.147 262.668 168.002 262.889C167.975 262.938 168.212 263.17 168.347 263.299C168.768 263.715 168.968 264.276 169.578 264.606C170.085 264.881 170.35 265.593 170.755 266.09C170.863 266.22 171.095 266.23 171.251 266.333C171.532 266.516 173.858 269.474 174.117 269.863C174.468 270.392 174.846 270.916 175.256 271.401C175.602 271.812 176.109 272.109 176.374 272.557C178.123 275.542 180.568 277.965 182.819 280.54C184.33 282.267 186.138 283.719 187.828 285.274C189.679 286.985 191.93 288.059 193.9 289.576C195.212 290.585 196.912 291.017 198.413 291.767C199.136 292.129 199.892 292.696 200.578 292.825C202.326 293.155 204.032 293.743 205.867 293.738C208.766 293.727 211.659 293.705 214.45 292.869C215.319 292.609 216.231 292.674 217.041 292.334C219.524 291.303 221.991 290.224 224.117 288.518C224.549 288.172 225.213 287.606 225.548 287.735C226.563 288.113 226.098 286.72 226.816 286.855C227.637 287.012 227.907 286.229 228.393 285.824C228.803 285.479 229.137 285.047 229.542 284.702C230.12 284.21 230.757 283.784 231.334 283.293C231.923 282.791 232.473 282.267 233.132 281.83C233.796 281.387 234.136 280.486 234.746 279.925C236.095 278.683 236.905 277.037 238.001 275.612C239.021 274.284 239.782 272.751 240.624 271.283C241.558 269.658 242.589 268.082 243.409 266.392C244.197 264.773 245.099 263.208 245.887 261.588C246.313 260.708 246.961 259.904 247.301 258.949C247.63 258.009 248.138 257.14 248.559 256.255C249.417 254.458 249.903 252.514 250.896 250.771C251.42 249.848 252.024 248.919 252.424 247.986C252.801 247.106 253.401 246.383 253.741 245.513C254.081 244.644 254.75 244.051 255.36 243.403C255.511 243.246 255.689 243.117 255.857 242.977C255.959 243.182 256.181 243.414 256.143 243.592C255.889 244.823 255.608 246.048 255.274 247.257C255.22 247.446 254.853 247.548 254.631 247.689C255.382 248.115 254.264 248.347 254.523 248.812C254.804 249.319 254.367 249.783 254.146 250.242C253.957 250.636 253.719 251.008 253.573 251.413C253.255 252.304 252.818 253.162 252.926 254.172C253.017 255.035 252.812 255.742 252.218 256.514C251.797 257.059 251.252 257.82 251.285 258.738C251.295 259.094 250.891 259.413 251.398 259.791C252.667 260.725 253.034 262.085 252.915 263.575C252.839 264.584 253.244 265.442 253.546 266.338C253.778 267.024 254.189 267.618 254.858 267.936C255.479 268.238 256.121 268.611 256.861 268.249C256.893 268.195 256.963 268.141 256.958 268.093C256.909 267.396 257.098 266.695 256.596 266.02C256.326 265.664 256.612 265.102 257.066 264.859C257.233 264.768 257.676 264.811 257.719 264.913C258.178 265.971 259.419 266.268 259.932 267.38C260.294 268.168 261.179 268.81 262.075 269.323C262.814 269.744 263.192 269.399 263.327 268.994C263.683 267.925 264.385 267.04 264.693 265.923C264.925 265.086 265.108 264.573 264.434 263.882C263.964 263.402 263.689 262.695 263.813 261.939C263.899 261.405 264.234 261.324 264.795 261.453C265.735 261.669 266.415 262.22 267.014 262.9C267.743 263.731 268.407 264.616 269.162 265.426C270.058 266.392 271.035 267.321 272.029 268.314ZM267.937 186.245C268.979 186.958 270.226 187.471 270.609 188.793C270.857 189.635 271.435 190.202 271.883 190.893C272.941 192.507 273.794 194.245 274.269 196.14C274.846 198.45 275.445 200.749 276.044 203.054C276.104 203.292 276.271 203.524 276.271 203.761C276.271 205.078 276.865 206.174 277.421 207.319C277.707 207.912 278.058 208.144 278.56 208.452C278.976 208.706 279.218 208.598 279.272 208.328C279.504 207.157 280.535 206.234 280.32 204.927C280.276 204.668 280.201 204.258 280.33 204.145C280.962 203.599 280.422 202.741 280.768 202.32C281.172 201.824 280.643 201.381 281.021 200.917C281.502 200.328 280.697 199.767 280.697 199.119C280.692 197.505 280.114 196.042 279.316 194.666C279.127 194.337 278.959 194.029 279.321 193.856C279.564 193.743 280.217 193.932 280.212 193.964C280.174 194.704 280.903 194.801 281.237 194.887C282.236 195.152 282.43 195.972 282.711 196.701C283.299 198.202 283.753 199.762 284.352 201.257C284.956 202.757 285.107 204.393 285.896 205.861C286.192 206.417 286.149 207.162 286.829 207.518C287.175 206.946 287.542 206.39 287.85 205.796C287.963 205.58 287.947 205.294 287.957 205.041C287.99 204.398 287.995 203.81 288.298 203.162C288.508 202.709 287.941 201.948 287.995 201.349C288.082 200.393 287.612 199.605 287.418 198.747C287.142 197.532 286.549 196.372 286.856 194.914C287.18 195.076 287.407 195.157 287.601 195.287C288.292 195.729 288.924 196.323 289.674 196.598C290.198 196.793 290.705 196.863 290.764 197.489C290.824 198.099 292.281 198.331 291.223 199.222C291.293 199.303 291.358 199.395 291.444 199.465C292.038 199.95 293.123 201.295 293.544 202.018C293.798 202.455 294.068 202.898 294.402 203.27C294.764 203.664 295.218 203.632 295.622 203.281C296.653 202.39 296.983 200.436 296.437 199.103C296.135 198.358 295.709 197.694 295.531 196.847C295.293 195.729 294.624 194.677 294.014 193.667C293.609 193.003 293.166 192.415 293.177 191.584C293.183 191.309 292.902 191.039 292.756 190.763C292.497 190.267 292.216 189.781 292 189.263C291.52 188.118 291.153 186.926 290.608 185.814C289.62 183.8 288.481 181.868 287.509 179.849C286.451 177.658 284.919 175.79 283.466 173.884C282.025 171.995 280.514 170.133 279.175 168.179C278.56 167.283 277.685 166.63 277.183 165.604C276.687 164.584 275.802 163.704 274.943 162.916C273.394 161.491 272.579 159.51 271.062 158.063C270.258 157.297 269.497 156.46 268.855 155.559C267.343 153.421 265.378 151.689 263.732 149.67C263.392 149.254 262.706 148.936 262.658 148.52C262.561 147.7 261.638 147.975 261.492 147.408C261.26 146.496 260.283 146.264 259.878 145.67C259.387 144.952 258.869 144.213 258.205 143.802C256.817 142.95 255.878 141.665 254.702 140.623C253.422 139.49 252.256 138.199 250.858 137.239C248.024 135.29 245.293 133.206 242.481 131.231C240.581 129.898 238.675 128.489 236.376 128.008C235.086 127.738 234.006 127.091 232.997 126.454C232.128 125.909 231.248 125.482 230.314 125.115C229.726 124.883 229.137 124.764 228.625 124.289C228.214 123.911 227.513 123.847 226.746 123.577C226.746 125.277 226.746 126.734 226.746 128.197C226.746 128.602 226.865 129.05 226.725 129.396C225.99 131.247 225.985 133.25 225.629 135.16C225.316 136.845 225.121 138.572 224.706 140.24C224.485 141.141 224.56 142.167 223.912 142.923C223.216 143.732 223.653 144.763 223.248 145.675C222.93 146.399 222.52 147.127 222.325 147.905C222.082 148.882 221.656 149.783 221.354 150.722C221.046 151.683 220.755 152.622 220.182 153.464C220.074 153.621 219.929 153.778 219.902 153.95C219.74 154.976 219.205 155.829 218.612 156.638C217.613 158.009 216.587 159.359 215.557 160.741C215.891 160.784 216.237 160.762 216.517 160.881C216.744 160.978 216.879 161.345 217.1 161.405C217.322 161.464 217.651 161.156 217.851 161.227C219.114 161.68 220.485 161.734 221.715 162.123C223.831 162.792 225.964 163.521 227.923 164.616C228.306 164.827 228.689 165.205 229.078 165.205C230.471 165.216 231.566 166.041 232.797 166.468C234.022 166.894 235.199 167.477 236.36 168.066C237.585 168.686 238.832 169.302 239.938 170.101C240.77 170.7 241.752 170.921 242.583 171.553C243.868 172.535 245.352 173.258 246.751 174.095C247.02 174.257 247.328 174.376 247.549 174.586C248.705 175.709 249.811 176.88 250.982 177.987C252.1 179.039 252.963 180.319 254.189 181.296C254.675 181.679 255.101 182.305 255.646 182.607C256.353 182.996 256.181 184.146 257.168 184.189C257.508 185.069 258.448 185.333 259.009 186.008C260.558 187.865 261.67 190.008 262.971 192.026C263.441 192.755 264.088 193.554 264.121 194.342C264.159 195.438 265.173 196.14 265.001 197.23C265.751 197.462 265.53 198.612 266.561 198.709C267.716 198.822 268.299 197.969 269.114 197.538C269.767 197.187 269.378 196.442 269.416 195.875C269.475 195.006 269.443 194.132 269.427 193.257C269.421 192.939 269.459 192.539 269.286 192.318C268.752 191.605 268.542 190.839 268.612 189.965C268.628 189.792 268.563 189.549 268.439 189.441C267.408 188.507 267.548 187.406 267.937 186.245ZM65.8426 150.447C64.6335 150.215 63.6619 150.614 62.8738 149.94C61.3084 149.977 60.1749 148.99 58.9442 148.25C57.6757 147.484 56.2777 146.798 55.4518 145.54C53.8325 143.074 52.0188 140.726 50.7449 138.037C49.973 136.407 49.3145 134.675 48.2673 133.239C46.6911 131.074 45.9138 128.564 44.7317 126.232C44.4564 125.687 44.4942 124.996 44.2945 124.403C44.0948 123.82 43.7169 123.296 43.5172 122.713C43.3121 122.119 43.4039 121.353 43.0584 120.905C42.5834 120.295 42.8479 119.642 42.6158 119.059C42.3891 118.481 42.0274 117.936 41.9249 117.342C41.8331 116.819 41.7035 116.295 41.6766 115.745C41.6064 114.368 40.9802 113.083 40.6186 111.761C40.2084 110.25 40.1112 108.679 39.5174 107.194C39.0316 105.98 38.8967 104.625 38.6808 103.313C38.5458 102.498 38.6916 101.683 38.3191 100.841C38.0061 100.129 38.4595 99.157 37.8603 98.4175C37.9791 96.1072 37.1802 93.8563 37.4609 91.5407C37.5094 91.1466 37.6714 90.758 37.666 90.3694C37.6606 89.9321 37.3529 89.4301 37.4825 89.0631C38.3947 86.5369 38.3731 83.8326 39.0154 81.2524C39.3123 80.0487 39.0748 78.7155 39.064 77.4416C39.0532 76.6049 38.5134 75.8924 38.6106 74.9856C38.6592 74.5268 38.087 74.0248 37.8711 73.5066C37.5634 72.7617 37.2665 72.0006 37.0668 71.2233C36.7322 69.9116 35.8253 68.9292 35.2046 67.7849C33.5906 66.9806 31.9875 66.1547 30.3519 65.399C30.1846 65.3235 29.7852 65.6311 29.5531 65.8309C29.2076 66.1278 29.4559 66.3707 29.661 66.6621C30.0173 67.1695 30.4113 67.7039 30.5786 68.2869C30.8215 69.1397 30.8539 70.052 31.0159 70.9264C31.1076 71.4176 31.3991 71.8926 31.3829 72.3676C31.3559 72.9938 31.642 73.5444 31.6312 74.1813C31.6204 74.8182 32.0468 75.4606 32.2897 76.0975C32.7864 77.4254 33.5528 78.6831 33.4017 80.3078C32.6568 80.1567 31.8201 80.5993 31.6528 79.4874C30.5517 79.7896 30.2764 78.8018 29.8068 78.2243C29.2832 77.5765 28.603 77.0421 28.5329 76.0327C28.4951 75.493 27.9013 74.9316 27.4425 74.4998C26.309 73.4364 25.1053 72.4486 23.9501 71.45C23.7504 71.6389 23.4427 71.7955 23.378 72.0168C22.9137 73.6307 22.5899 75.2771 21.7802 76.7938C21.0839 78.1001 20.7546 79.6007 20.0529 80.9016C19.0489 82.7692 18.6711 84.923 17.3162 86.6179C16.8952 88.9659 15.5133 90.9091 14.5849 93.0143C15.2704 93.5703 15.8534 94.3745 16.5929 94.5635C18.2392 94.9845 18.9463 96.2584 19.7938 97.4513C19.9665 97.6942 20.1231 98.0235 20.1231 98.3149C20.1015 99.9343 21.343 101.332 20.9435 103.016C21.6453 103.508 21.2782 104.236 21.3322 104.863C21.3808 105.418 21.7694 105.937 21.3808 106.563C21.235 106.8 21.4887 107.286 21.5535 107.659C21.5913 107.885 21.7316 108.236 21.6345 108.328C21.0731 108.841 21.289 109.51 21.3916 110.023C21.4995 110.541 20.7276 110.838 21.2134 111.367C21.6237 111.81 21.0569 112.533 21.6291 113.019C21.8072 113.17 21.7154 113.639 21.7478 113.958C21.8018 114.584 21.4779 115.156 21.6992 115.852C21.9259 116.587 21.7478 117.445 21.7478 118.254C21.7478 118.524 21.6399 118.859 21.764 119.048C22.4927 120.149 22.1041 121.369 22.0933 122.513C22.0879 122.945 21.8666 123.328 22.1311 123.803C22.3632 124.23 22.4819 124.748 22.5413 125.239C22.6115 125.833 22.5629 126.443 22.5575 127.048C22.5467 128.467 23.0217 129.8 23.2592 131.171C23.5291 132.737 24.301 134.205 24.1714 135.841L24.6464 137.325C24.7544 137.616 24.8192 137.94 24.9865 138.189C25.3967 138.804 25.2996 139.533 25.5101 140.191C25.7206 140.839 25.9635 141.481 26.2226 142.113C26.4601 142.685 27.0269 143.3 26.9351 143.792C26.7516 144.747 27.8743 144.893 27.8258 145.686C27.8096 145.956 28.0903 146.237 28.1982 146.528C28.4789 147.284 28.711 148.061 29.0187 148.806C29.2346 149.319 29.5585 149.789 29.8122 150.291C30.0928 150.841 30.3735 151.402 30.6164 151.969C30.8377 152.482 31.0051 153.016 31.1994 153.54C32.3221 153.432 31.4855 154.674 32.1602 154.943C32.3761 155.03 32.4301 155.483 32.6028 155.737C32.9645 156.266 33.3369 156.784 33.7418 157.275C34.1574 157.783 34.6108 158.258 35.0534 158.749C34.5838 159.64 35.7767 159.51 35.9387 160.174C36.1168 160.913 36.8563 161.55 37.4231 162.155C38.4325 163.229 39.4311 164.341 40.5646 165.275C42.0274 166.479 43.4794 167.704 45.2607 168.487C46.8531 169.188 48.3968 170.036 49.8758 170.926C51.6463 171.995 53.6867 172.584 55.2683 173.976C56.2291 173.96 56.6717 174.942 57.5839 175.121C58.6095 175.32 59.5703 175.855 60.5959 176.081C61.2113 176.216 61.7511 176.761 62.4312 176.497C62.6093 176.427 62.8414 176.152 62.8198 176C62.7497 175.509 62.4798 175.04 62.4582 174.554C62.4042 173.145 62.388 171.736 62.4528 170.327C62.5229 168.902 62.7065 167.488 62.8414 166.063C62.8468 165.998 62.8144 165.89 62.8468 165.869C63.7968 165.135 62.9548 164.017 63.473 163.094C63.9426 162.258 63.8562 161.119 64.0559 160.12C64.2718 159.051 64.2125 157.864 64.5957 156.924C65.4486 154.846 64.9412 152.601 65.8426 150.447ZM186.446 287.87C186.198 287.746 185.906 287.676 185.712 287.492C185.075 286.899 184.497 286.245 183.85 285.662C183.278 285.15 182.43 284.82 182.101 284.2C181.669 283.401 180.757 283.287 180.341 282.559C180.179 282.278 179.812 282.116 179.656 281.835C178.754 280.2 177.367 278.937 176.352 277.382C175.683 276.357 174.468 275.59 174.08 274.5C173.615 273.204 172.466 272.551 171.91 271.374C171.527 270.554 170.717 269.89 170.145 269.118C169.805 268.659 169.551 268.109 169.135 267.736C168.115 266.813 167.5 265.604 166.749 264.492C166.539 264.179 166.426 263.688 166.145 263.575C165.891 263.472 165.486 263.828 165.13 263.898C163.468 264.228 161.837 264.681 160.207 265.124C159.91 265.205 159.554 265.572 159.381 265.491C158.286 264.946 156.915 264.741 156.288 263.526C155.436 261.874 154 260.671 153.093 259.03C152.499 257.95 151.457 257.081 150.874 255.92C150.793 255.753 150.443 255.543 150.329 255.591C148.764 256.347 146.858 256.266 145.504 257.551C145.239 257.799 144.888 258.004 144.537 258.117C142.648 258.738 140.883 259.656 138.999 260.293C138.719 260.39 138.249 260.401 138.179 260.579C137.93 261.221 138.659 260.984 138.88 261.232C139.015 261.383 139.226 261.491 139.296 261.664C139.982 263.353 141.277 264.568 142.6 265.707C143.668 266.63 144.143 268.114 145.536 268.692C145.892 270.187 147.614 270.43 148.278 271.736C148.678 272.53 149.682 273.048 150.475 273.604C151.204 274.111 151.42 275.018 152.262 275.493C153.104 275.973 153.687 276.891 154.432 277.566C155.247 278.311 156.094 279.023 156.969 279.698C157.875 280.394 158.782 281.101 159.77 281.679C161.217 282.526 162.685 283.368 164.229 284.022C165.767 284.675 167.484 284.896 168.865 285.943C169.044 286.078 169.367 286.003 169.616 286.067C170.037 286.181 170.436 286.397 170.863 286.451C171.392 286.521 172.061 286.267 172.439 286.515C173 286.882 173.545 286.807 174.112 286.882C174.603 286.953 175.073 287.158 175.559 287.266C176.082 287.384 176.735 287.687 177.124 287.498C177.718 287.201 177.966 287.854 178.484 287.708C179.046 287.552 179.688 287.611 180.282 287.692C180.789 287.762 181.216 287.908 181.777 287.719C182.301 287.541 183.164 287.492 183.493 287.8C184.06 288.329 184.503 287.633 184.773 287.832C185.34 288.253 185.863 287.957 186.446 287.87ZM262.868 301.629C263.975 303.47 265.686 304.269 267.354 305.116C268.083 305.489 268.903 305.316 269.551 304.663C269.988 304.22 269.805 303.821 269.589 303.276C269.157 302.18 268.801 301.008 268.671 299.843C268.552 298.758 267.84 298.061 267.214 297.451C266.809 297.057 266.436 296.474 265.772 296.237C265.195 296.032 264.66 295.584 264.239 295.114C263.791 294.617 263.473 294.045 262.831 293.711C262.329 293.452 262.307 293.144 261.751 291.487C261.638 291.141 261.082 290.931 261.006 290.596C260.558 288.674 259.398 287.098 258.556 285.366C258.221 284.68 257.584 284.032 257.109 283.579C256.078 282.596 255.171 281.463 253.735 281.026C253.53 280.108 252.602 279.871 252.003 279.401C251.42 278.942 250.713 278.494 249.876 278.246C249.196 278.046 248.532 277.366 247.76 277.064C247.528 276.972 247.306 276.853 247.064 276.799C246.454 276.648 245.838 276.432 245.218 276.416C244.494 276.4 243.841 276.222 243.161 276.027C242.708 275.898 241.833 275.957 241.698 276.222C240.759 278.014 239.296 279.385 238.098 280.966C236.624 282.92 232.608 287.001 230.994 288.048C230.67 288.259 230.314 288.426 229.893 288.653C230.341 288.896 230.606 289.149 230.886 289.171C232.268 289.29 233.456 289.803 234.465 290.753C235.415 290.58 235.815 291.713 236.694 291.686C237.45 291.665 237.99 292.07 238.605 292.437C239.884 293.198 241.191 293.991 242.589 294.461C243.658 294.817 244.397 295.594 245.363 296.026C245.617 296.14 245.682 296.307 245.439 296.609C245.266 296.825 245.315 297.219 245.288 297.538C245.288 297.57 245.466 297.613 245.558 297.651C245.595 297.532 245.628 297.413 245.676 297.3C245.725 297.187 245.784 297.079 245.854 296.939C246.497 297.435 246.68 298.142 246.902 298.876C247.258 300.064 247.463 301.327 248.127 302.39C249.136 303.993 250.178 305.591 251.333 307.097C251.916 307.858 252.774 308.403 253.838 309.327C253.411 307.319 254.513 306.055 254.793 304.571C254.858 304.22 254.863 304.037 254.723 303.718C254.621 303.475 254.853 303.081 254.934 302.757C255.079 302.185 255.592 301.948 256.035 302.272C256.958 302.946 257.417 304.274 258.836 304.274C258.879 304.274 258.912 304.495 258.966 304.609C259.155 304.997 259.349 305.391 259.549 305.775C260.331 307.275 260.769 307.48 262.458 307.227C262.361 306.401 262.437 305.505 262.113 304.792C261.837 304.188 261.568 303.778 262.107 303.249C261.6 302.466 262.426 302.261 262.868 301.629ZM129.062 110.552C130.897 109.699 132.83 110.185 134.713 110.061C134.897 110.05 135.086 109.996 135.259 109.926C137.245 109.105 139.399 109.283 141.455 108.878C142.842 108.609 144.316 108.7 145.649 108.301C146.259 108.117 146.524 108.776 146.977 108.452C147.927 107.783 149.007 108.15 150.027 108.047C150.718 107.977 151.501 108.344 152.073 107.648C153.379 107.702 154.669 107.653 155.927 107.254C156.1 107.2 156.315 107.259 156.51 107.292C157.352 107.448 157.53 107.248 157.303 106.46C157.195 106.099 157.131 105.721 157.071 105.348C156.877 104.096 157.314 102.914 157.465 101.694C157.627 100.415 157.73 99.1246 157.881 97.8399C157.94 97.3433 157.886 95.5513 157.73 95.2166C157.028 93.6998 156.31 92.183 155.603 90.6716C155.365 90.1588 155.225 89.4463 154.469 90.2668C154.34 90.4071 153.854 90.4287 153.719 90.3046C152.969 89.5975 152.067 90.0671 151.252 89.9159C150.756 89.8242 150.216 90.1319 149.736 89.6784C149.514 89.4679 149.126 89.8728 148.705 89.5651C148.348 89.3114 147.636 89.6083 147.161 89.4463C145.061 88.7338 142.815 88.2534 141.466 86.2076C141.202 85.8082 140.926 85.8568 140.484 86.1267C139.426 86.769 138.314 87.3412 137.175 87.8378C136.489 88.1401 136.128 88.6259 135.68 89.1926C134.6 90.5421 133.909 92.1183 132.84 93.4731C130.935 95.8913 129.737 98.7576 128.949 101.689C128.344 103.934 127.41 106.18 127.669 108.609C126.924 109.213 127.858 109.38 127.95 109.764C128.112 110.417 128.457 110.595 129.062 110.552ZM11.8212 91.0657C12.2045 90.2668 12.4906 89.5057 12.9116 88.831C13.6403 87.6651 13.9534 86.3048 14.6821 85.1497C15.0653 84.5505 14.3744 84.5937 14.3096 84.286C13.6403 84.8906 13.0627 84.2806 12.5283 84.0647C11.9616 83.8434 11.276 83.892 10.8388 83.2658C10.4232 82.6721 9.77005 82.251 9.31124 81.6789C8.35043 80.486 7.02256 79.8814 5.6839 79.2822C4.64752 78.8234 3.90802 79.0123 2.94181 79.9462C2.35885 80.5075 2.2293 81.355 2.62874 82.2618C2.97959 83.0553 3.40062 83.8164 3.75148 84.6045C4.29126 85.8406 5.77027 86.0403 6.46119 87.1037C7.11972 86.9309 7.38962 87.4707 7.77286 87.8162C8.25866 88.2534 8.67969 88.858 9.25186 89.0847C10.3368 89.5111 11.0493 90.3262 11.8212 91.0657ZM57.7621 143.905C58.5933 145.702 60.4556 146.118 61.8374 147.181C62.2638 147.505 62.782 147.338 63.0627 147.597C63.6619 148.148 64.3258 147.808 64.9412 147.926C65.5565 148.045 66.1611 148.223 66.7818 148.304C66.9222 148.32 67.1003 148.04 67.2622 147.894C67.1435 147.77 67.0355 147.548 66.9114 147.538C64.8008 147.381 62.9116 146.496 61.1735 145.449C60.0831 144.79 58.8416 144.59 57.7621 143.905ZM26.8164 64.8269C26.309 66.1655 25.5857 67.2127 25.2024 68.4758C25.0297 69.0426 25.0135 69.2963 25.4021 69.6039C26.1416 70.1977 26.9081 70.7645 27.8204 71.4662C27.6692 70.2895 27.7718 69.1181 27.3346 68.2059C26.811 67.1263 27.2536 66.0144 26.8164 64.8269ZM147.987 85.8406C146.988 85.0093 146.988 85.0093 146.211 85.8406C146.761 85.8406 147.242 85.8406 147.987 85.8406ZM146.518 77.312C146.033 77.0313 145.989 76.0543 144.818 76.3404C145.493 76.7561 145.633 77.4686 146.518 77.312ZM211.541 265.458C211.751 264.94 211.87 264.778 211.832 264.73C211.702 264.568 211.524 264.444 211.362 264.309C211.292 264.417 211.152 264.541 211.173 264.627C211.238 264.865 211.368 265.075 211.541 265.458ZM56.6501 143.559C56.9146 143.452 57.0226 143.403 57.1305 143.36C56.947 143.144 56.7635 142.923 56.5745 142.707C56.5098 142.809 56.3802 142.928 56.4018 143.014C56.4504 143.203 56.5691 143.381 56.6501 143.559Z" fill="white"/>
<path d="M23.3674 4.14941C23.3674 4.4193 23.3566 4.6838 23.3674 4.95369C23.3836 5.31534 23.254 5.62842 23.8694 5.80655C24.9004 6.10343 25.4132 6.89691 25.4024 8.07903C25.3862 9.54184 25.8288 10.9561 26.4603 12.2569C27.8746 15.161 28.695 18.3079 30.1363 21.1957C29.9581 22.0864 30.9351 22.9284 30.228 23.8622C30.0985 24.035 30.2118 24.3858 30.2118 24.6557C30.2118 24.9094 30.2118 25.1631 30.2118 25.6111C29.4022 25.0606 29.1161 24.2941 28.4521 23.8407C27.8368 23.425 27.4535 22.5506 27.1621 21.8057C26.8652 21.05 25.9691 20.575 26.1365 19.6142C24.8086 18.4428 24.7492 16.478 23.4322 15.3013C22.8762 13.4337 21.6131 11.9061 20.9546 10.0924C20.6361 9.20717 19.5889 8.68358 19.7401 7.57703C19.1679 7.21538 19.3568 6.64321 19.3406 6.13581C19.319 5.47728 19.3838 5.05625 20.2097 5.57984C20.5443 5.79035 21.9154 4.86193 22.5631 4.15481C22.833 4.14942 23.1029 4.14941 23.3674 4.14941ZM22.4983 6.9185C22.3796 6.98867 22.2608 7.05344 22.1475 7.12361C22.1745 7.43129 22.1367 7.76056 22.2446 8.03584C22.331 8.25715 22.6009 8.4083 22.7844 8.58642C22.887 8.51085 22.9841 8.43528 23.0867 8.36511C22.8924 7.87931 22.6981 7.3989 22.4983 6.9185Z" fill="white"/>
<path d="M50.7393 37.3573C51.279 37.1522 51.6839 36.9848 52.0941 36.8499C52.5637 36.6934 52.974 36.3101 53.5569 36.7419C53.843 36.9525 54.2694 36.7096 54.6041 36.4127C54.7444 36.2885 55.403 36.7096 55.5109 36.5908C56.1101 35.9431 56.4394 36.9255 56.8712 36.7581C57.3246 36.5854 57.7132 36.024 58.1667 36.7365C60.4553 36.5314 62.4525 37.7729 64.6656 38.0644C66.3012 38.2803 67.9799 38.6474 69.6208 39.0846C71.1862 39.5002 72.6544 40.3261 74.3115 40.4071C74.4087 40.4125 74.4843 40.6176 74.5976 40.6716C75.5152 41.1196 75.661 41.9239 74.7703 42.2855C73.8149 42.6688 73.3291 43.3867 73.0107 44.1693C72.7192 44.9034 72.1416 45.2921 71.6828 45.8211C71.5748 45.9452 71.2672 46.0694 71.1862 46.01C70.7382 45.6861 70.3279 45.3299 69.8961 46.0154C69.4049 45.7509 68.9299 45.454 68.4225 45.2327C67.9691 45.033 67.3376 45.0546 67.0353 44.7415C66.312 43.9858 65.3727 43.8941 64.4767 43.5972C63.246 43.1923 62.0693 42.604 60.8278 42.2423C59.7914 41.94 58.8684 41.492 57.9346 40.9738C56.6391 40.2613 55.2302 39.7647 53.8646 39.1764C53.5785 39.0522 53.1953 39.0144 53.0279 38.8039C52.5475 38.1994 51.9214 37.9673 51.2143 37.8107C51.0577 37.7837 50.9336 37.5516 50.7393 37.3573Z" fill="white"/>
<path d="M1.65737 47.5802C1.49544 46.9 1.99203 46.1929 0.955652 45.8906C0.437462 45.7395 0.47525 44.2065 0.777528 43.4346C0.890882 43.1432 0.804513 42.7869 1.30111 42.7977C1.85169 42.8085 2.54261 42.992 2.5696 42.069C2.94205 42.4576 3.27671 42.15 3.61678 42.0042C4.08099 41.7991 4.48043 41.5184 5.06339 41.5724C5.46283 41.6048 5.87846 41.2485 6.29949 41.2161C7.63815 41.1136 8.87965 40.7141 10.105 40.2013C10.5638 40.0124 11.1197 40.0826 11.6217 39.98C12.0428 39.8937 12.4422 39.6886 12.8632 39.5914C15.1573 39.0786 17.392 38.2581 19.7994 38.3769C20.3338 37.8749 20.9654 37.9127 21.6185 38.0314C21.7049 38.9868 21.6995 38.9868 20.96 40.0178C20.3446 40.8707 19.7994 41.8099 18.504 41.6048C18.4446 41.594 18.369 41.6048 18.315 41.6318C15.8914 43.154 13.0468 43.467 10.4234 44.417C9.60836 44.7139 8.7717 44.9568 7.94583 45.2267C7.37366 46.4844 6.035 46.3603 5.03641 46.8569C3.42786 47.6449 3.42786 47.6503 1.65737 47.5802ZM2.78012 44.9352C2.88268 45.0594 2.91506 45.1134 2.95824 45.1511C3.22813 45.3887 3.42786 45.8205 3.89747 45.556C3.97843 45.5074 4.03781 45.3401 4.03241 45.2321C3.98923 44.579 3.47104 44.9082 3.15256 44.8327C3.10398 44.8165 3.03921 44.8597 2.78012 44.9352Z" fill="white"/>
<path d="M54.9444 25.0882C54.7663 24.8507 54.4748 24.6186 54.4047 24.3325C54.2535 23.7226 53.9674 23.7604 53.595 24.0788C53.2927 24.3379 52.9904 24.4189 52.8015 24.0572C52.7313 23.9169 52.9149 23.4743 53.0768 23.4149C53.8541 23.1288 54.3453 22.6214 54.6152 21.8549C54.653 21.7416 54.7825 21.6066 54.8959 21.5743C56.4073 21.1748 57.6811 20.1816 59.2141 19.8739C59.9698 19.7228 60.4448 19.3827 60.9792 18.7944C61.6755 18.0333 62.6687 17.4125 63.6511 17.0833C65.1301 16.5867 66.431 15.6852 67.9586 15.3398C68.3202 15.2588 68.6711 15.0753 69.0328 15.0375C69.6373 14.9835 69.8478 15.2804 69.6751 15.8957C69.6265 16.0685 69.416 16.1926 69.362 16.3654C69.2217 16.8134 69.1677 17.256 69.6319 17.6015C69.8964 17.8012 70.1339 18.0495 70.3444 18.3086C70.6575 18.6972 70.5118 19.0913 69.9774 19.4583C69.8154 19.5663 69.6481 19.6796 69.5294 19.8254C69.2433 20.1816 69.0328 20.3004 68.6279 19.8955C68.5092 19.7768 67.6455 19.5069 67.6455 20.3921C67.6455 20.4839 67.2461 20.5865 67.0248 20.662C65.5458 21.1856 64.002 21.4879 62.523 21.9467C61.4812 22.2706 60.3855 22.8751 59.3707 22.9777C58.2317 23.091 57.4005 23.8359 56.3047 23.9439C55.8189 23.9871 55.4087 24.6726 54.9444 25.0882Z" fill="white"/>
<path d="M23.4053 29.3356C22.5848 28.5529 22.0019 28.5745 21.2192 28.6501C20.0263 28.7634 18.7848 28.5043 17.5865 28.2776C17.2248 28.2075 17.3436 27.2359 16.5393 27.5003C15.9077 27.7109 15.6379 27.1117 15.2114 26.831C14.8066 26.5665 14.0995 26.5665 13.889 26.2265C13.171 25.0659 11.8864 25.1901 10.8824 24.6989C10.6611 24.5909 10.3588 24.6557 10.1483 24.5423C9.67866 24.2886 9.17126 24.1591 9.21445 23.3386C9.24144 22.7827 8.85279 23.5545 8.46955 23.3278C8.46955 22.9068 8.37239 22.3616 8.50193 21.8812C8.5937 21.552 9.25223 21.2875 9.23064 21.0392C9.13348 20.1323 9.70565 20.3536 10.213 20.2241C10.7906 20.073 11.1307 21.2011 11.8 20.44C11.8648 20.3644 12.5503 20.8664 12.9713 21.0607C13.4787 21.2929 14.0347 21.417 14.5151 21.6869C16.7606 22.9554 18.855 24.4722 20.9871 25.9188C21.8507 26.5071 22.5741 27.3114 23.2974 28.0779C23.4593 28.2506 23.3567 28.6825 23.4053 29.3356Z" fill="white"/>
<path d="M52.0834 59.0505C51.8405 59.1585 51.5706 59.369 51.4626 59.3042C50.6152 58.8022 49.8595 58.705 48.9365 59.2718C48.3049 59.6551 47.3927 59.3042 46.9717 58.867C46.5236 58.3974 46.0972 59.0883 45.9569 58.7158C45.8381 58.4028 45.7518 57.9116 46.1998 57.6363C45.7841 57.2368 46.4967 56.5729 45.8327 56.2004C45.4171 55.9629 45.3901 55.6175 45.7572 55.2234C45.8705 55.1047 45.8111 54.7754 45.7679 54.5541C45.4117 52.5785 44.4671 50.781 43.9705 48.8702C43.76 48.0551 43.177 47.5909 42.8639 46.9054C42.5778 46.2631 42.8585 46.0687 43.177 45.7665C43.5063 45.4534 43.7384 45.7071 44.0083 45.9284C44.548 46.3818 45.1148 46.8028 45.687 47.2131C47.0526 48.2009 47.5762 49.7932 48.2725 51.1805C49.1848 52.9995 50.4209 54.7053 50.8095 56.7672C51.7109 57.2098 51.4465 58.2678 52.0834 59.0505Z" fill="white"/>
<path d="M44.5648 5.8125C44.8833 6.13097 45.191 6.39547 45.4339 6.70854C45.5203 6.82189 45.4879 7.21054 45.4447 7.22133C44.3111 7.51821 44.8401 8.44124 44.7106 9.11597C44.5432 9.98502 44.5486 10.9458 44.1546 11.6961C43.5662 12.8135 43.3017 14.028 42.8213 15.1669C42.5029 15.9118 42.3841 16.7215 41.8066 17.3692C41.5852 17.6175 41.5852 18.071 41.4935 18.438C41.3046 19.1667 41.1426 19.8954 40.9213 20.6133C40.8673 20.7807 40.6676 20.9858 40.5057 21.0128C40.3923 21.0344 40.1224 20.8022 40.1008 20.6619C39.8795 19.1181 38.3196 17.7525 39.4693 16.0144C39.5611 15.874 39.4801 15.6203 39.4801 15.4206C39.4801 14.8161 39.6258 14.1683 39.4423 13.6231C39.2372 13.0024 40.1332 12.5274 39.5341 11.9552C40.1818 11.545 39.5934 10.7245 39.9875 10.3521C40.5327 9.82848 40.0415 9.16995 40.3977 8.70034C40.5651 8.47903 40.6838 8.40345 40.4517 8.10657C40.0739 7.62617 40.4841 7.20514 40.6406 6.71933C40.8781 6.00682 41.1426 5.92586 41.5259 6.43325C42.071 7.15116 42.5838 6.88667 43.1614 6.57359C43.5932 6.32529 44.0359 6.09319 44.5648 5.8125Z" fill="white"/>
<path d="M133.315 189.473C133.315 189.888 133.212 190.32 133.347 190.655C133.461 190.93 133.995 191.038 134.097 191.313C134.508 192.42 134.826 193.559 135.172 194.687C135.199 194.779 135.231 194.941 135.199 194.962C134.384 195.399 134.583 196.188 134.481 196.889C134.427 197.278 132.845 199.167 132.419 199.475C132.316 199.55 132.197 199.599 132.106 199.685C131.814 199.961 131.566 200.301 131.237 200.511C131.086 200.608 130.745 200.387 130.546 200.457C130.2 200.581 129.914 200.884 129.563 200.992C128.921 201.186 128.289 201.213 127.787 200.603C127.447 200.193 127.032 199.842 126.665 199.459C126.605 199.394 126.578 199.275 126.578 199.178C126.578 199.129 126.708 199.081 126.708 199.038C126.638 198.379 126.562 197.721 126.476 197.062C126.422 196.636 126.692 196.366 126.87 196.015C127.366 195.027 127.895 194.109 128.743 193.37C129.574 192.652 130.044 191.659 130.637 190.752C130.945 190.288 131.674 190.093 132.23 189.813C132.489 189.678 132.797 189.629 133.315 189.473ZM132.1 193.413C130.324 194.417 130.06 196.215 129.299 197.699C129.239 197.818 129.342 198.12 129.466 198.206C129.58 198.282 129.93 198.239 129.979 198.147C130.373 197.364 131.442 197.013 131.393 195.955C132.397 195.319 132.063 194.379 132.1 193.413Z" fill="white"/>
<path d="M125.229 167.655C125.03 167.072 125.591 166.996 125.974 166.672C126.293 166.397 126.255 165.739 126.482 165.312C126.838 164.654 127.243 164.011 127.707 163.423C128.317 162.651 129.396 162.678 130.163 162.079C130.465 161.841 131.669 161.129 131.701 162.624C132.927 162.932 132.462 164.346 133.229 164.956C132.694 165.609 133.25 166.618 132.797 167.083C131.89 168.022 131.739 169.555 130.341 170.1C130.066 170.208 129.958 170.764 129.693 170.85C129.224 170.996 128.716 170.823 128.23 171.228C128.052 171.374 127.351 170.937 126.913 170.71C126.525 170.516 126.136 170.284 125.823 169.992C125.72 169.895 125.958 169.506 125.877 169.317C125.785 169.091 125.44 168.961 125.353 168.734C125.235 168.437 125.267 168.087 125.229 167.655ZM131.199 164.681C129.85 165.377 128.927 165.841 128.009 166.322C127.755 166.456 127.394 166.575 127.302 166.791C127.086 167.304 127 167.871 126.881 168.421C126.859 168.529 126.919 168.729 126.989 168.761C127.448 168.95 127.912 169.188 128.387 169.242C128.9 169.296 129.099 168.875 129.305 168.416C129.812 167.288 130.417 166.203 131.199 164.681Z" fill="white"/>
<path d="M136.122 134.459C135.879 134.885 136.052 135.517 135.998 136.116C135.938 136.823 135.501 137.498 135.193 138.172C135.042 138.512 134.875 138.869 134.621 139.133C133.914 139.878 133.218 140.564 132.057 140.715C131.177 140.828 130.362 141.017 129.504 140.677C129.045 140.493 128.554 140.358 128.068 140.277C127.566 140.191 127.599 139.9 127.761 139.587C127.917 139.279 128.376 138.847 128.311 138.755C127.685 137.913 128.754 138.453 128.77 138.161C128.775 138.043 128.878 137.924 128.873 137.805C128.802 136.386 129.008 136.143 130.049 135.236C131.107 134.307 132.257 133.519 133.423 132.764C133.893 132.461 134.47 131.938 135.172 132.267C135.798 132.569 136.176 133.406 136.122 134.459ZM134.119 135.425C134.071 135.311 134.044 135.16 133.957 135.101C133.866 135.036 133.671 134.998 133.596 135.052C133.223 135.295 132.905 135.63 132.516 135.835C132.138 136.035 131.706 136.213 131.291 136.234C130.303 136.272 131.798 137.071 131.032 137.044C130.249 137.017 130.568 137.843 130.109 138.102C129.893 138.226 130.497 139.074 130.789 138.966C132.5 138.35 133.428 136.996 134.119 135.425Z" fill="white"/>
<path d="M135.836 102.654C136.899 102.994 137.542 102.649 138.287 103.059C138.713 103.291 139.485 102.967 140.089 103.21C140.376 103.324 140.699 103.351 140.991 103.453C141.358 103.583 142.049 103.604 142.799 103.631C144.807 103.707 146.319 102.714 147.738 101.472C147.986 101.256 148.192 100.959 148.478 100.824C148.688 100.727 149.061 100.738 149.233 100.868C149.384 100.981 149.455 101.353 149.401 101.569C149.217 102.293 149.012 103.016 148.721 103.696C147.889 105.666 146.184 106.444 144.235 106.827C143.846 106.902 143.42 106.767 143.031 106.848C140.813 107.307 139.274 105.871 137.628 104.857C136.996 104.468 136.619 103.647 135.836 102.654Z" fill="white"/>
<path d="M144.424 91.3887C144.791 92.479 144.348 93.4992 144.953 94.3899C145.104 94.6112 144.656 95.1779 144.607 95.599C144.424 97.0996 144.057 98.5462 143.387 99.9064C143.722 100.873 142.448 101.089 142.427 101.931C142.421 102.098 141.908 102.411 141.671 102.373C141.412 102.335 141.023 101.985 141.002 101.747C140.894 100.365 140.311 99.0266 141.326 97.607C142.319 96.2143 142.81 94.4978 143.409 92.8731C143.587 92.3711 144.019 91.9608 144.424 91.3887Z" fill="white"/>
<path d="M139.355 94.9189C140.019 95.8257 138.616 95.8851 138.475 96.5976C138.394 97.0186 137.903 97.0834 136.845 97.2993C136.586 97.3533 136.338 97.5854 136.143 97.7905C135.836 98.109 135.355 97.2669 135.145 97.9686C134.967 97.607 134.567 97.1806 134.654 96.8999C135.112 95.3777 135.83 93.9581 137.05 92.9109C137.266 92.722 137.644 92.1876 138.297 92.6194C138.864 92.9919 139.452 93.1538 139.361 93.9796C139.328 94.2495 139.355 94.5194 139.355 94.9189Z" fill="white"/>
<path d="M148.391 96.3819C147.846 96.3495 147.63 96.3873 147.349 95.8907C146.669 94.6708 147.047 93.6938 147.668 92.7222C147.981 92.231 148.547 91.9017 148.898 91.4321C149.238 90.9841 149.821 91.8046 150.048 91.1406C150.453 91.2864 150.874 91.3997 151.252 91.5886C151.37 91.648 151.446 91.9341 151.419 92.096C151.322 92.6466 151.289 93.262 151.003 93.7046C150.447 94.5574 149.757 95.3293 149.071 96.0904C148.893 96.2955 148.52 96.3333 148.391 96.3819Z" fill="white"/>
</svg>
