<svg width="300" height="262" viewBox="0 0 300 262" fill="none" xmlns="http://www.w3.org/2000/svg">
<path d="M126.441 125.954C126.696 123.105 125.69 120.638 123.039 119.646C120.53 118.703 117.879 119.065 116.093 121.588C115.165 120.929 114.449 120.319 113.641 119.859C109.332 117.385 104.796 119.653 104.449 124.565C104.215 127.896 103.045 130.823 101.458 133.693C100.891 134.714 100.111 135.373 99.1613 135.522C97.3327 135.805 96.0357 136.762 94.8734 138.066C94.3631 138.64 93.8741 138.966 93.1228 138.3C92.7826 138.003 92.1802 137.939 91.684 137.889C91.2163 137.84 90.5784 137.776 90.2807 138.031C88.4947 139.541 86.177 139.491 84.1429 140.263C83.2145 140.618 82.1655 140.731 81.1662 140.795C79.3872 140.915 79.3801 140.866 77.9059 142.127C78.3099 142.496 79.1321 142.978 79.0683 143.233C78.8628 144.02 77.9201 144.24 77.3531 143.913C75.5742 142.893 73.7031 143.984 71.9312 143.474C71.7682 143.424 71.5839 143.467 71.4138 143.439C69.6278 143.134 67.9835 142.68 66.7219 141.156C65.3894 139.555 63.8018 138.158 62.3347 136.67C60.9527 135.281 59.5635 133.899 58.1602 132.531C55.2401 129.689 52.2421 126.925 49.2583 124.139C48.9606 123.863 48.5566 123.679 48.1739 123.502C47.1108 122.998 46.402 122.105 46.1965 121.028C46.0193 120.1 46.2391 119.093 46.3525 118.129C46.3737 117.931 46.6784 117.647 46.8982 117.605C47.8904 117.399 48.4787 116.768 49.0032 115.953C49.5064 115.174 50.0238 114.373 50.69 113.742C52.2138 112.296 53.447 110.581 55.9772 110.397C57.7491 110.269 59.4359 109.128 61.1936 108.526C64.2909 107.455 67.3598 106.314 70.62 105.776C72.0375 105.542 73.4054 105.039 74.8158 104.769C76.9775 104.358 79.1888 104.16 81.3292 103.657C84.306 102.955 87.4032 103.054 90.3516 102.175C91.443 101.849 92.5983 102.466 93.7677 102.161C94.8309 101.878 95.9507 101.644 97.0351 101.672C98.1833 101.7 99.2747 101.218 100.458 101.509C101.032 101.651 101.826 101.381 102.372 101.048C104.782 99.5741 107.553 99.5529 110.182 99.0426C113.436 98.4118 116.717 97.781 120.084 97.9157C120.807 97.944 121.551 97.6038 122.267 97.377C122.451 97.3203 122.642 97.0581 122.706 96.8596C123.167 95.3216 123.479 93.7199 124.698 92.5292C124.613 90.8707 125.768 89.7154 126.384 88.3334C127.908 84.9314 129.517 81.5861 131.417 78.3684C132.621 76.3272 133.436 74.0592 134.422 71.8904C135.081 70.4445 135.463 68.7719 136.456 67.6095C137.377 66.5322 137.101 65.1785 137.923 64.1438C138.646 63.2366 139 62.0459 139.574 61.004C141.169 58.1194 142.813 55.256 144.394 52.3643C144.84 51.5493 145.124 50.6492 145.506 49.7987C147.186 46.0919 149.412 42.6899 151.425 39.1674C152.516 37.2609 153.501 35.2977 154.862 33.5187C157.151 30.5349 159.306 27.4802 162.523 25.3681C163.331 24.8365 163.976 23.986 164.515 23.1639C164.912 22.5614 165.11 22.1078 165.996 22.3346C166.195 22.3843 166.648 21.4345 166.989 20.9455C167.371 20.3927 167.761 19.8399 168.144 19.2799C168.477 18.7909 168.796 18.2948 169.122 17.7986C169.172 17.7278 169.242 17.664 169.313 17.6215C170.476 16.8702 170.83 14.8148 172.878 15.4102C172.914 15.4243 173.318 14.4746 173.963 14.9495C174.551 15.3818 174.579 15.8779 174.126 16.5016C173.566 17.2742 174.955 18.5358 173.523 19.1453C174.969 20.3643 173.332 21.6259 173.58 22.7103C173.842 23.8655 173.537 25.3327 174.778 26.2186C175.359 26.6297 175.402 27.3526 175.6 28.0259C177.117 33.1431 178.024 38.3949 179.257 43.5759C179.626 45.1351 179.987 46.7014 180.242 48.282C180.504 49.8766 180.93 51.4359 180.831 53.1014C180.767 54.1787 181.171 55.2702 181.298 56.3688C181.426 57.4603 181.079 58.5872 181.78 59.6432C182.021 60.0047 181.872 60.6709 181.823 61.1883C181.66 62.7121 182.262 64.2997 181.426 65.7668C182.241 67.1489 181.816 68.6656 181.78 70.0973C181.745 71.4084 182.071 72.4857 182.935 73.3717C183.899 74.3639 184.814 75.2357 185.232 76.7241C185.607 78.0494 186.763 79.1692 187.627 80.3458C188.244 81.1821 189.258 81.8271 188.804 83.1099C190.462 85.3354 191.157 88.1845 193.467 90.0202C194.431 90.7927 195.055 91.9905 195.856 93.0182C196.926 92.3378 198.237 92.0756 199.662 92.1606C200.789 92.2315 201.93 92.1252 203.057 92.1961C203.744 92.2386 204.694 91.7495 204.978 92.919C205.701 92.8481 206.551 92.5079 207.111 92.7772C208.174 93.2946 209.124 92.3165 210.251 92.919C211.151 93.4009 212.434 93.245 213.546 93.2096C215.878 93.1316 218.089 93.6915 220.322 94.2585C221.966 94.6767 223.66 94.868 225.305 95.2862C226.545 95.6051 228.083 94.5704 229.04 96.1083C230.301 96.3281 231.556 96.6116 232.831 96.7533C233.476 96.8242 234.164 96.725 234.795 96.569C235.815 96.321 236.786 96.0091 237.665 96.9376C237.821 97.1006 238.218 97.0226 238.501 97.0723C239.961 97.3628 240.734 98.6457 240.621 100.262C240.592 100.63 240.925 100.822 240.33 101.112C239.763 101.381 238.87 101.7 239.161 102.735C239.175 102.792 238.742 103.068 238.523 103.075C237.814 103.09 237.183 102.126 236.404 102.898C236.85 103.182 236.971 103.458 236.737 103.671C236.616 103.784 236.404 103.862 236.361 103.99C236.014 105.216 234.511 104.826 233.958 105.705C233.462 106.499 233.058 107.349 232.583 108.15C232.456 108.363 232.236 108.597 232.009 108.667C229.082 109.575 227.091 111.935 224.56 113.451C223.469 114.111 222.37 114.763 221.243 115.443C220.662 114.522 221.761 112.941 220.294 112.048C218.6 113.622 216.885 115.202 215.191 116.811C214.68 117.293 214.574 117.824 215.254 118.285C215.467 118.427 215.8 118.498 215.885 118.689C216.084 119.129 216.417 119.887 216.254 120.036C215.8 120.447 215.24 121.191 214.546 120.815C213.773 120.39 213.249 120.383 212.419 120.773C211.867 121.035 210.974 120.61 210.244 120.44C209.223 120.199 209.783 119.284 209.535 118.71C209.478 118.583 209.294 118.505 208.982 118.257C206.253 121.085 203.886 124.097 204.453 128.349C204.722 130.355 205.289 132.382 206.083 134.239C206.735 135.756 206.438 136.684 205.275 137.613C204.8 137.988 204.418 138.484 203.95 138.874C201.462 140.93 201.172 143.495 202.178 146.359C202.66 147.719 203.192 149.066 203.709 150.42C203.95 151.051 203.872 151.391 203.234 151.894C202.036 152.822 200.739 153.602 199.804 154.949C197.344 158.492 199.343 161.987 201.795 163.312C203.128 164.035 204.623 164.503 206.09 164.907C208.16 165.474 208.309 165.495 207.735 167.444C207.501 168.245 208.103 169.138 207.161 169.939C206.707 170.321 207.04 171.59 206.92 172.441C206.785 173.362 206.523 174.262 206.345 175.176C206.182 176.006 206.126 176.863 205.906 177.678C205.559 178.982 205.084 180.251 204.73 181.548C203.716 185.226 202.858 188.926 202.135 192.683C201.717 194.858 201.242 196.992 201.087 199.217C200.966 200.982 200.52 202.733 200.158 204.483C199.612 207.12 199.662 209.792 199.577 212.464C199.541 213.619 199.095 214.774 198.726 215.894C198.478 216.652 198.393 216.574 196.947 216.518C196.692 216.511 196.359 217.071 196.175 217.432C196.069 217.638 196.196 217.957 196.217 218.226C195.969 218.056 195.601 217.942 195.495 217.708C195.31 217.283 195.268 216.794 195.197 216.326C195.169 216.128 195.282 215.816 195.183 215.731C194.814 215.405 194.297 215.221 193.999 214.852C193.772 214.569 193.801 214.08 193.701 213.619C193.276 214.094 193.177 215.341 192.326 214.08C192.192 213.888 191.986 213.69 191.774 213.612C190.193 213.038 189.137 211.84 188.088 210.621C187.457 209.884 186.734 209.423 185.671 209.296C184.431 209.147 183.382 208.098 182 208.332C181.858 208.353 181.624 208.261 181.546 208.14C180.618 206.765 178.775 206.978 177.684 205.922C176.961 205.227 176.202 204.526 175.671 203.697C175.189 202.945 174.657 202.435 173.878 201.967C171.985 200.833 170.235 199.451 168.364 198.26C167.308 197.587 166.088 197.268 165.011 196.517C161.801 194.284 158.427 192.286 155.131 190.181C153.189 188.94 151.184 189.373 149.986 191.343C149.858 191.556 149.858 191.953 149.688 192.023C148.15 192.683 147.548 194.348 146.378 195.227C144.571 196.588 142.934 198.338 140.595 198.948C140.134 199.068 139.737 199.479 139.34 199.798C137.49 201.301 135.641 202.796 133.819 204.327C133.288 204.774 132.806 205.291 132.359 205.823C130.871 207.602 129.552 209.537 127.908 211.145C126.186 212.832 124.449 214.54 123.259 216.567C121.905 218.878 119.949 220.629 118.411 222.741C117.801 223.577 116.958 224.236 116.214 224.973C115.937 225.25 115.562 225.476 115.378 225.802C114.109 228.035 112.082 229.63 110.586 231.678C108.765 234.166 106.823 236.561 104.966 239.021C104.25 239.97 103.648 241.005 102.96 241.983C101.628 243.861 101.075 246.087 100.161 248.156C99.9481 248.624 99.3811 249.056 98.8778 249.248C98.2542 249.482 97.5312 249.482 96.8437 249.51C96.7516 249.517 96.6099 249.141 96.539 248.922C96.2059 247.866 95.1002 246.944 95.9649 245.669C96.0287 245.576 95.9365 245.336 95.8586 245.194C94.4907 242.536 94.4907 242.536 94.4907 240.58C94.4907 236.916 94.4907 233.258 94.4907 229.594C94.4907 228.347 94.2143 227.284 93.5126 226.135C92.655 224.739 92.3715 222.982 91.9037 221.366C91.8258 221.096 92.1447 220.728 92.1518 220.409C92.1873 217.652 92.2227 214.895 92.2014 212.138C92.1943 211.464 91.847 210.791 91.9037 210.132C92.0455 208.353 92.2865 206.581 92.5487 204.816C92.7117 203.732 93.0377 202.669 93.1795 201.584C93.5976 198.487 94.9372 195.595 95.0648 192.413C95.1215 191.01 95.6885 189.621 96.1137 188.246C96.8154 185.978 97.6234 183.731 97.6446 181.314C97.6517 180.719 98.084 180.74 98.5022 180.598C99.3527 180.301 100.444 180.513 101.018 179.564C101.316 179.075 101.649 178.578 101.812 178.033C102.216 176.693 103.003 175.68 104.172 174.943C105.32 174.22 106.433 173.44 107.61 172.774C108.255 172.405 108.985 172.1 109.715 171.98C110.423 171.867 111.175 172.065 111.912 172.072C112.394 172.072 112.989 172.129 113.329 171.881C115.122 170.555 116.845 169.145 118.595 167.763C119.205 167.288 119.878 166.884 120.417 166.338C121.253 165.495 122.068 164.602 122.763 163.645C123.946 162.022 125.102 160.378 126.42 158.854C126.852 158.358 127.306 157.692 127.355 157.075C127.511 154.942 128.078 152.9 128.482 150.817C128.631 150.058 128.567 149.243 128.482 148.471C128.277 146.508 128.879 144.75 129.744 143.042C130.212 142.12 130.722 141.22 131.119 140.271C131.381 139.654 131.537 138.974 131.65 138.307C131.927 136.713 132.076 135.082 132.423 133.502C133.025 130.745 131.395 127.655 128.709 126.684C127.993 126.443 127.27 126.223 126.441 125.954ZM115.477 204.1C116.696 202.428 117.773 200.84 118.978 199.352C119.651 198.523 119.963 197.374 121.211 196.985C121.657 196.85 122.054 196.12 122.217 195.588C122.734 193.887 124.676 193.32 125.229 191.683C127.051 190.677 127.844 188.82 128.922 187.197C129.723 185.985 130.531 184.766 131.452 183.646C133.507 181.158 135.655 178.734 137.731 176.261C138.015 175.928 138.1 175.432 138.277 175.006C135.045 174.312 132.657 175.276 131.091 178.026C129.985 179.96 128.993 181.959 127.894 183.901C126.838 185.765 125.824 187.679 124.591 189.422C122.16 192.867 119.566 196.191 117.086 199.6C116.157 200.89 115.08 202.18 115.477 204.1ZM193.779 151.263C195.516 150.703 194.871 149.477 195.176 148.648C195.934 146.607 196.657 144.502 197.004 142.361C197.564 138.86 198.882 135.55 199.371 132.049C199.627 130.213 200.456 128.356 199.293 126.514C198.932 125.94 199.194 125.373 199.577 124.841C199.662 124.728 199.513 124.302 199.357 124.203C199.201 124.104 198.811 124.161 198.684 124.295C198.407 124.6 198.195 124.976 198.032 125.358C197.181 127.279 196.338 129.207 195.53 131.149C195.402 131.447 195.473 131.829 195.445 132.17C195.367 133.091 195.275 133.984 195.034 134.912C194.545 136.791 194.545 138.803 194.41 140.76C194.304 142.312 194.339 143.871 194.24 145.423C194.127 147.308 193.949 149.179 193.779 151.263ZM173.906 158.45C173.637 157.94 173.396 157.422 173.084 156.954C173.006 156.841 172.623 156.77 172.531 156.848C172.127 157.203 171.766 157.607 171.425 158.025C171.362 158.103 171.447 158.365 171.539 158.478C172.085 159.18 172.077 159.166 171.936 159.499C171.418 160.739 170.589 161.887 170.844 163.362C170.894 163.659 170.738 164.035 170.589 164.325C170.391 164.715 170.1 165.176 170.667 165.346C170.936 165.424 171.489 165.07 171.688 164.758C172.467 163.553 173.226 162.32 173.863 161.037C174.267 160.236 172.871 159.35 173.906 158.45ZM184.14 191.208C185.225 192.576 186.288 193.909 187.627 195.595C187.464 193.682 188.244 192.172 187.514 190.811C186.387 190.939 185.317 191.067 184.14 191.208Z" fill="#FF9737"/>
<path d="M51.3923 231.089C51.208 231.188 51.0379 231.365 50.9174 231.33C49.6204 230.982 48.8762 231.812 48.8053 232.804C48.7416 233.69 48.3021 233.817 47.7564 234.221C45.6798 235.781 44.4465 238.027 43.2771 240.274C42.8306 241.132 42.6109 242.117 42.3983 243.074C42.0014 244.853 41.5761 246.639 41.3635 248.446C41.2217 249.644 39.9531 250.395 40.272 251.699C39.2869 253.577 39.0813 255.803 37.7063 257.568C37.9828 257.865 38.33 258.234 38.7269 258.659C37.5292 259.219 36.6432 258.198 35.6084 258.149L34.4532 257.305C34.2405 257.114 34.0563 256.795 33.8153 256.753C31.8946 256.363 31.6253 256.122 31.2851 254.272C31.1008 253.287 31.0299 252.273 30.718 251.338C30.5409 250.806 29.9739 250.409 29.499 249.864C27.8193 251.238 26.7703 253.209 24.9489 254.378C24.7291 254.52 24.7292 254.988 24.5094 255.144C22.9431 256.228 21.3909 257.355 19.7466 258.312C17.9818 259.34 15.9761 259.921 14.3389 261.211C14.0199 261.466 13.219 261.565 12.971 261.345C12.4607 260.906 12.319 261.225 11.9788 261.459C11.8441 261.551 11.029 261.834 11.4472 260.948C11.6386 260.544 11.7378 259.921 11.5606 259.545C10.7739 257.844 11.1566 256.278 11.9008 254.711C12.4961 253.457 13.5026 252.344 13.3041 250.799C14.3814 249.885 14.3885 248.411 15.1043 247.326C15.3736 246.922 15.324 246.773 15.0122 246.568C14.8492 246.462 14.6295 246.334 14.4594 246.362C14.2326 246.398 13.8853 246.731 13.8357 246.681C12.9214 245.831 11.7023 246.398 10.6888 245.958C9.25716 245.349 7.69081 245.044 6.51429 243.903C6.30166 243.69 5.91893 243.662 5.62125 243.527C5.25271 243.364 4.89833 243.138 4.51561 243.01C3.38161 242.641 2.7012 241.819 2.20508 240.799C2.93509 240.125 3.55879 239.197 4.41637 238.85C5.17473 238.545 3.76434 237.468 5.00465 237.716C5.9969 236.645 7.54905 236.539 8.62634 235.611C8.85314 235.412 13.5025 234.037 13.7719 234.016C15.3595 233.917 16.6707 232.79 18.3504 232.861C18.7615 232.875 19.3214 231.946 19.6332 231.358C20.8948 228.984 21.9083 226.503 22.8722 223.98C24.0771 220.84 25.8206 217.934 27.7555 215.192C28.1453 214.632 29.0879 214.398 29.3714 213.505C29.4636 213.228 30.0518 212.987 30.4204 212.987C30.6047 212.987 30.7464 213.604 30.9874 213.859C33.3688 216.411 34.4036 219.635 35.4951 222.825C35.6439 223.271 35.6084 223.966 35.3533 224.32C34.9564 224.88 34.9918 224.965 35.6297 225.043C35.7856 225.064 36.0124 225.362 36.0266 225.553C36.0833 226.078 35.9699 226.624 36.0691 227.134C36.1542 227.602 36.3243 228.14 36.6432 228.459C36.8913 228.7 37.5646 228.849 37.8055 228.686C38.4505 228.254 38.6561 229.643 39.3507 228.927C39.5845 228.686 40.2082 229.26 40.676 228.743C41.0516 228.332 41.2714 229.444 41.9234 228.998C42.3558 228.7 43.0645 228.771 43.6457 228.736C44.241 228.693 44.7796 228.431 45.3041 228.303C46.4665 228.013 47.7493 228.14 48.9683 228.233C49.4715 228.268 49.0605 229.473 50.074 229.331C50.3079 229.296 51.2293 229.948 50.315 230.578C50.6694 230.727 51.0167 230.897 51.3923 231.089ZM36.2676 253.627C36.9338 252.713 36.7779 251.479 37.5646 250.948C38.7624 250.14 37.7701 249.041 38.1812 248.212C38.3513 247.865 39.0317 247.695 39.0813 247.383C39.1451 246.951 38.734 246.462 38.7269 245.994C38.7199 245.739 39.1309 245.469 39.3577 245.214C39.4782 245.079 39.6058 244.966 39.7334 244.838C38.3442 243.832 39.7617 242.826 39.8184 241.848C39.8893 240.565 40.1161 239.041 40.8815 238.112C42.3345 236.341 43.1141 234.058 45.0348 232.662C45.4459 232.365 45.8499 232.06 46.2539 231.762C45.9704 231.479 45.9207 231.386 45.8428 231.358C45.0986 231.089 44.567 231.805 43.9504 231.826C42.4975 231.883 41.1934 232.662 39.6696 232.45C38.812 232.329 37.8552 232.967 36.9976 232.846C36.466 232.769 36.0833 232.74 35.5659 232.889C34.9847 233.066 34.2831 233.031 34.4532 232.031C34.5595 231.386 34.3114 230.912 33.8507 230.415C33.4184 229.948 32.8585 229.246 32.9294 228.729C33.1349 227.212 32.2986 225.901 32.334 224.448C32.3978 221.981 31.1292 219.876 30.5834 217.488C30.2716 217.8 30.0235 217.956 29.903 218.182C28.2516 221.372 26.586 224.582 25.1473 227.85C24.0629 230.309 22.6808 232.634 21.7382 235.164C21.5185 235.767 21.0932 236.277 20.3561 235.646C18.1732 236.964 15.643 237.049 13.2828 237.723C11.4117 238.254 9.61862 239.069 7.81131 239.821C7.29392 240.033 7.36476 240.48 7.73331 240.848C7.91759 241.033 8.09477 241.337 8.3074 241.373C11.0219 241.784 13.46 243.485 16.3801 243.003C17.3936 242.833 18.4638 242.974 19.5482 242.974C19.5907 243.336 19.7183 243.634 19.6261 243.818C19.2151 244.619 18.641 245.356 18.322 246.185C18.0031 247.029 18.0315 248 17.7125 248.843C16.699 251.458 15.5934 254.038 14.4948 256.703C14.7712 256.675 15.0831 256.745 15.2319 256.618C16.4439 255.583 17.8259 254.846 19.1867 254.045C20.4908 253.273 21.7028 252.273 22.7234 251.161C23.1345 250.707 23.3754 250.204 23.9849 249.8C25.4591 248.815 26.742 247.532 28.1028 246.369C28.1595 245.108 29.0171 245.54 29.5557 245.795C30.4629 246.228 31.278 246.738 32.3623 246.724C32.9506 246.717 33.3617 247.227 33.4184 247.964C33.4609 248.517 34.0421 249.367 33.8649 249.545C32.6317 250.728 34.5879 250.147 34.4815 250.757C34.3965 251.253 34.1413 251.961 35.2257 252.054C35.6084 252.082 35.9061 253.039 36.2676 253.627Z" fill="white"/>
<path d="M282.501 76.2349C280.665 77.8154 279.056 79.6086 277.079 80.7638C275.789 81.5151 273.96 81.3308 272.273 81.5789C272.004 80.7567 271.77 80.0621 271.558 79.3605C271.366 78.7297 270.87 77.7162 271.083 77.5319C272.004 76.731 270.665 76.2349 270.998 75.512C271.508 74.4063 271.721 73.1589 272.245 72.0675C272.493 71.5572 272.791 71.2737 272.302 70.7563C271.947 70.3806 272.047 69.7357 271.154 69.7144C270.374 69.7002 269.63 69.112 268.723 69.2183C268.375 69.2608 267.978 68.9206 267.617 68.7434C265.774 67.8362 265.703 67.6165 267.461 66.6597C268.304 66.199 268.134 64.8524 269.318 64.8878C269.275 64.7603 269.268 64.6114 269.19 64.5193C268.609 63.7822 268.85 63.5837 269.715 63.3924C270.828 63.1443 271.409 61.7197 272.777 61.8331C272.883 61.8402 272.996 61.4575 273.152 61.2874C273.485 60.933 273.797 60.3873 274.194 60.3093C275.498 60.0683 276.632 59.714 277.008 58.261C277.256 58.3673 277.504 58.4807 277.979 58.6863C277.213 55.6528 279.871 54.1645 280.743 51.8823C281.877 51.6484 282.054 50.5073 282.621 49.7844C283.769 48.3244 284.393 48.1684 285.492 49.6426C286.37 50.8262 287.193 52.1162 287.377 53.6045C287.462 54.3062 288.709 55.0575 287.441 55.7946C288.298 56.3332 287.788 57.2333 288.008 57.9563C288.518 57.8499 289.028 57.7011 289.546 57.6373C290.12 57.5665 290.559 56.56 291.325 57.4601C291.481 57.6444 292.317 57.1766 292.856 57.1128C293.465 57.042 294.096 57.1625 294.698 57.0774C295.258 56.9924 295.846 56.5104 296.321 56.6238C296.938 56.7726 297.384 56.9215 298.037 56.6167C298.54 56.3758 299.248 56.5671 300 56.5671C299.539 58.1405 298.774 59.6431 299.071 61.3157C299.227 62.1662 298.738 62.9742 298.285 63.3357C296.619 64.6681 296.095 67.0283 293.905 67.9142C293.323 68.1481 292.763 69.2962 292.785 70.005C292.856 72.0108 291.346 73.6196 291.622 75.6537C291.722 76.3908 290.474 76.5893 290.545 77.5957C290.58 78.1627 290.049 78.7722 289.758 79.3534C289.546 79.7787 290.269 80.2677 289.567 80.7142C289.191 80.9481 289.113 81.6994 288.738 81.8907C288.419 82.0467 287.745 82.2734 287.419 81.5576C287.143 80.9623 286.732 80.4307 286.378 79.8779C286.257 79.6865 286.122 79.3392 285.995 79.3392C284.188 79.318 283.663 77.8579 282.912 76.646C282.806 76.4901 282.65 76.3837 282.501 76.2349ZM280.027 61.0322C278.709 61.7126 277.476 62.2088 276.413 62.9388C275.116 63.8318 273.407 64.0515 272.422 65.4548C271.919 66.1707 271.947 66.2557 272.791 66.6314C273.684 67.0283 274.577 67.4889 275.342 68.0843C275.654 68.3253 275.527 69.0836 275.81 69.4451C277.022 70.9973 275.824 72.2659 275.392 73.6125C275.038 74.6969 274.57 75.7388 274.23 76.8232C274.152 77.0712 274.371 77.4398 274.541 77.702C274.577 77.7587 275.023 77.6311 275.208 77.4965C276.087 76.8303 276.972 76.1782 277.787 75.4411C278.638 74.6757 279.297 73.3928 280.254 73.1377C281.494 72.8046 281.537 71.5926 282.543 71.0965C283.613 70.572 283.911 70.2743 284.237 71.3587C284.755 73.0881 286.087 74.4559 286.392 76.2845C286.42 76.4404 286.753 76.646 286.937 76.6389C287.108 76.6318 287.37 76.3837 287.412 76.2066C287.519 75.7104 287.398 75.1363 287.597 74.6969C287.972 73.8748 288.362 73.1093 288.575 72.1809C288.802 71.1886 289.092 70.2318 289.007 69.2183C288.95 68.6088 289.34 68.3111 289.595 67.8646C290.786 65.7808 292.714 64.3988 294.294 62.6907C294.939 61.989 295.691 61.3724 295.641 60.2597C294.301 60.4156 292.926 59.9975 291.615 60.77C291.162 61.0393 290.191 61.0535 289.843 60.7487C288.964 59.962 288.376 60.3306 287.575 60.7913C286.534 61.3937 286.491 61.3228 285.818 59.9904C285.782 59.9124 285.676 59.799 285.64 59.8132C285.385 59.8982 285.137 60.0116 284.889 60.1109C284.861 59.7707 284.953 59.2462 284.776 59.1257C283.876 58.502 285.123 57.8216 284.762 57.4531C284.074 56.7656 284.287 56.0072 284.287 55.263C284.287 54.8378 284.599 54.3983 284.549 53.9873C284.485 53.4344 284.216 52.9029 284.067 52.4705C283.33 53.6612 282.366 54.8307 281.827 56.1702C281.147 57.8145 279.368 59.069 280.027 61.0322Z" fill="white"/>
<path d="M0.0637632 12.7663C0.503188 12.7663 1.15527 12.9435 1.33955 12.7308C1.74353 12.256 1.98448 11.5968 2.15458 10.9731C2.30342 10.4061 2.13333 9.73281 2.34596 9.19417C3.1185 7.22384 4.02568 5.31022 4.81239 3.3399C5.52114 1.58929 7.17961 1.0719 8.61837 0.249752C8.71051 0.20014 8.93732 0.207226 8.97984 0.271014C9.53975 1.12151 10.3619 1.22783 11.2762 1.13569C11.4038 1.12151 11.6518 1.27036 11.6802 1.38376C12.1338 3.04223 14.0616 3.18398 14.8625 4.51643C15.635 5.79926 16.4572 7.10336 17.499 8.1594C18.2149 8.88941 17.7896 9.98088 18.7322 10.6188C19.4622 11.1078 19.8237 12.1071 20.4687 12.7592C21.0428 13.3474 21.4964 13.9074 21.2908 14.9138C22.2901 13.5884 23.6439 13.0569 24.9763 12.8088C26.2946 12.5607 27.2585 11.3842 28.7681 11.6464C29.4343 11.7598 30.1927 11.2425 30.9227 11.1928C32.0638 11.1078 33.2261 11.0724 34.3531 11.1999C35.324 11.3062 36.0966 12.0362 37.0605 12.3268C37.7338 12.5324 38.2725 13.5742 38.6268 14.3539C38.8891 14.9209 39.123 14.9563 39.5624 14.772C39.938 14.6161 40.3136 14.4318 40.6468 14.2121C41.0649 13.9357 41.4122 13.4679 41.8658 13.3262C42.7305 13.0498 43.6448 12.8655 44.5449 12.7875C45.5938 12.6954 46.657 12.7592 47.713 12.7804C47.8618 12.7804 48.039 12.8868 48.1382 13.0072C48.5848 13.5175 49.0171 14.042 49.6975 13.3049C49.8959 13.5105 50.0873 13.7231 50.2999 13.9144C50.4275 14.0278 50.5905 14.1838 50.7323 14.1767C51.5757 14.1341 52.9152 14.6374 52.8798 15.1477C52.8514 15.5375 51.9797 16.1045 52.6601 16.3596C53.4893 16.6786 53.7799 17.1534 54.1414 17.8693C54.6162 18.819 55.0202 18.7481 56.1188 17.8267C56.5369 17.4795 59.6554 16.9762 60.2649 17.1818C60.4917 17.2597 60.7115 17.5291 60.9099 17.5078C62.9511 17.2739 64.2198 18.5638 65.5239 19.7971C65.9704 20.2223 66.3956 20.6688 67.0193 21.2925C67.4658 20.6192 67.8202 19.9034 68.3518 19.3505C68.8621 18.819 69.5 18.337 70.1804 18.0464C71.6758 17.4015 73.0508 16.3809 74.8156 16.4518C75.2975 16.473 75.7866 16.2675 76.2685 16.1541C78.7208 15.5446 80.9108 16.1187 82.8953 17.607C83.3489 17.9472 83.8167 18.3299 83.1505 18.9111C83.5899 19.1308 84.0222 19.3505 84.5254 19.5986C84.7523 17.9047 84.979 16.1541 85.2129 14.4035C85.2554 14.0704 85.22 13.5246 85.383 13.4467C85.9571 13.1915 85.4326 12.2205 86.4178 12.1922C87.3392 12.1638 85.8508 11.5047 86.5099 11.1928C86.9919 10.966 86.6091 9.83913 87.6014 10.1085C87.5163 9.8604 87.2825 9.47767 87.3675 9.37845C87.97 8.69096 88.4377 7.74831 89.6426 7.99638C90.082 8.08851 90.3655 7.99638 90.5285 7.38685C90.9113 5.93392 90.9821 5.95519 92.3784 5.8914C92.7894 5.87723 93.2005 5.8914 93.6967 5.8914C93.5053 5.43071 93.2714 4.99837 93.321 4.96293C93.8597 4.58021 94.4479 4.26127 94.9724 3.89272C95.5748 3.54544 95.0433 5.38109 95.6812 4.35341C96.0781 3.71553 96.6592 3.59505 97.0065 3.44621C98.0625 3.01387 99.2532 2.87921 100.409 2.73037C101.486 2.58862 102.627 2.95717 103.64 2.2059C104.009 1.92948 104.562 3.16271 105.037 2.18463C105.682 3.10601 106.646 2.68076 107.461 2.68076C108.261 2.67367 108.928 2.943 109.622 3.23359C110.147 3.4533 110.714 3.5667 111.245 3.77932C111.699 3.95651 112.145 4.17623 112.556 4.43846C114.619 5.71421 115.725 7.95385 117.631 9.44932C118.808 9.42097 119.134 7.71288 120.473 7.89715C121.21 6.80568 122.649 7.06792 123.528 6.36626C124.463 5.62916 125.413 5.28188 126.561 5.35984C128.149 3.87147 130.41 3.9636 132.175 2.97844C133.146 2.4327 134.322 3.31864 135.073 2.29095C138.369 1.75939 141.502 0.249752 144.946 0.604127C149.241 -0.487347 153.614 0.263925 157.945 0.115088C159.178 0.0725631 160.432 -0.175498 161.729 0.526164C162.771 1.09316 164.302 0.129269 165.436 1.12861C167.782 0.767143 169.845 2.19173 172.134 2.19881C173.318 2.19881 174.097 3.51 175.387 3.27611C175.784 3.94234 176.443 3.72262 177.031 3.77932C177.442 3.82185 178.052 3.80059 178.215 4.04157C179.08 5.31731 180.568 4.76448 181.709 5.25352C182.404 5.5512 183.275 5.73547 183.998 6.09693C185.607 6.90491 187.145 7.85463 188.747 8.68386C190.377 9.52728 191.504 11.1291 193.311 11.7031C193.942 13.0427 195.402 13.5317 196.302 14.6232C197.224 15.7359 198.535 16.5297 199.52 17.5361C200.448 18.4788 201.228 19.6695 202.242 20.5767C203.22 21.4555 203.758 22.7171 204.984 23.3904C206.147 24.0283 207.295 24.7654 208.245 25.6655C208.557 25.9632 210.158 26.1829 208.939 27.2885C209.074 27.3807 209.216 27.565 209.336 27.5508C210.754 27.3807 211.356 28.5714 211.994 29.3794C213.22 30.9315 214.099 32.7601 215.304 34.3264C216.48 35.8502 217.232 37.6505 218.543 39.0892C219.06 39.6562 219.081 40.6414 219.528 41.3005C221.201 43.7811 221.598 46.8004 223.036 49.3732C223.341 49.926 223.327 50.6631 223.433 51.3222C223.731 53.2217 224.844 54.7951 225.503 56.5457C225.978 57.7931 226.375 59.0263 226.084 60.38C226.048 60.5501 226.112 60.7628 226.183 60.94C226.779 62.3929 227.516 63.7891 227.466 65.4476C227.445 66.0713 227.664 66.7871 227.991 67.3258C228.713 68.5378 228.742 69.7355 228.175 70.9546C227.877 71.5925 228.423 71.309 228.579 71.4649C228.784 71.6633 229.025 72.1878 228.997 72.202C228.331 72.6556 228.763 72.9178 229.047 73.3785C229.5 74.1369 229.784 75.0086 230.067 75.8591C230.273 76.4828 229.351 77.0357 230.032 77.8365C230.464 78.3398 230.436 79.2328 230.606 79.9557C230.776 80.6857 230.23 81.5504 231.01 82.167C230.145 83.2089 231.066 83.705 231.605 84.3996C231.938 84.8248 232.052 85.4485 232.172 86.0013C232.3 86.5754 232.101 87.4755 232.42 87.7094C233.186 88.2693 234.149 88.7088 235.085 88.8647C237.296 89.2261 239.352 90.105 241.521 90.5869C242.314 90.7641 243.073 91.2461 243.859 91.2886C245.567 91.3736 246.872 92.7274 248.615 92.6352C248.969 92.614 249.38 92.9116 249.707 93.1455C250.188 93.4999 250.812 93.8472 251.018 94.3433C251.181 94.7473 250.911 95.4135 250.67 95.8813C250.274 96.6538 249.707 97.3413 250.621 98.1422C250.699 98.2131 250.394 98.9218 250.337 98.9147C249.331 98.7588 249.685 99.7652 249.303 100.141C248.211 101.218 247.41 102.614 246.241 103.578C245.142 104.493 244.256 105.57 243.349 106.612C241.641 108.589 240.266 110.857 238.48 112.757C236.949 114.38 236.191 116.541 234.511 118.001C233.717 118.696 233.738 120.177 232.314 120.234C232.413 121.552 231.371 122.162 230.634 122.977C229.89 123.806 229.224 124.699 228.458 125.5C228.019 125.961 227.402 126.244 226.934 126.684C226.169 127.406 226.048 127.917 226.757 128.633C227.338 129.214 227.431 129.781 227.423 130.497C227.402 132.878 227.459 135.259 227.402 137.634C227.367 139.158 226.786 140.603 226.842 142.177C226.892 143.594 226.538 145.026 226.36 146.451C226.339 146.614 226.339 146.833 226.233 146.918C224.914 148.017 224.759 149.661 224.262 151.128C223.766 152.602 222.753 153.829 222.441 155.409C222.264 156.323 221.697 157.436 220.953 157.89C220.109 158.407 219.833 159.243 219.195 159.839C218.21 160.767 217.31 161.83 216.58 162.972C215.984 163.914 215.531 164.843 214.347 165.197C214.049 165.289 213.886 165.856 213.667 166.203C213.929 166.345 214.241 166.437 214.446 166.636C214.602 166.792 214.701 167.075 214.716 167.302C214.751 167.919 214.744 168.535 214.723 169.152C214.708 169.669 214.808 170.534 214.588 170.633C213.652 171.037 215.261 171.703 214.375 172.029C214.248 172.079 214.177 172.497 214.205 172.724C214.588 175.339 213.73 177.855 213.617 180.435C213.567 181.548 212.901 182.611 212.703 183.738C212.384 185.538 211.866 187.296 211.455 189.061C210.81 191.867 210.676 194.801 209.506 197.488C209.138 198.331 209.903 199.43 208.939 200.16C209.265 202.087 208.266 203.781 207.756 205.496C207.111 207.637 206.934 209.947 206.048 211.911C204.694 214.902 204.467 218.282 202.624 221.089C202.348 221.507 202.341 222.209 201.838 222.599C201.171 223.116 200.881 223.747 200.952 224.626C201.037 225.589 199.47 225.923 199.889 227.106C199.903 227.142 199.52 227.404 199.307 227.425C198.343 227.503 197.436 227.17 196.508 226.972C195.537 226.773 195.14 226.064 194.623 225.398C194.048 224.654 193.545 223.584 192.78 223.314C190.887 222.634 190.42 220.564 188.811 219.7C184.792 214.044 184.686 214.448 179.845 210.281C179.299 208.82 177.747 208.587 176.712 207.715C175.699 206.864 174.615 205.851 173.403 205.546C172.155 205.234 171.361 204.242 170.022 204.036C168.732 203.838 167.655 202.541 166.358 202.116C164.961 201.662 163.969 200.656 162.729 200.018C159.575 198.402 157.016 195.822 153.621 194.553C152.537 194.149 151.871 194.022 150.871 194.731C146.839 197.594 142.756 200.379 139.418 204.093C138.702 204.887 138.086 206.014 136.696 205.794C136.548 207.247 135.059 207.353 134.273 208.168C133.45 209.019 132.444 209.678 131.523 210.436C129.432 212.166 127.412 213.987 125.243 215.617C122.67 217.559 120.735 220.288 117.695 221.628C117.617 221.663 117.574 221.762 117.504 221.805C116.696 222.258 116.958 223.548 115.725 223.811C114.902 223.988 114.137 224.725 113.478 225.349C112.613 226.164 111.869 227.106 111.089 228.006C110.983 228.127 110.933 228.432 110.877 228.424C109.906 228.347 109.261 228.864 108.694 229.566C108.205 230.175 107.489 230.487 106.979 231.174C106.242 232.167 104.817 232.677 104.144 233.691C103.229 235.08 102.095 236.086 100.756 237C99.4092 237.915 98.7288 239.637 97.0419 240.161C96.4395 241.884 94.4834 241.692 93.3706 242.72C93.0517 243.018 92.5414 242.784 92.5626 242.153C92.6052 240.877 91.457 243.11 91.5066 241.799C91.535 241.175 91.5846 240.537 90.6491 240.608C90.6916 240.296 90.8687 239.814 90.7411 239.708C90.4718 239.481 89.9049 239.694 89.8907 239.013C89.8836 238.63 89.5079 238.248 89.515 237.865C89.5575 236.058 88.1259 234.654 88.1826 232.854C87.3463 232.528 88.5086 232.138 88.1471 231.713C87.9062 231.43 87.8495 230.948 87.8141 230.544C87.7361 229.707 87.8636 228.914 87.3321 228.084C86.921 227.439 87.5943 226.405 86.8501 225.632C86.6233 225.398 86.758 224.803 86.7509 224.37C86.7368 223.839 86.7651 223.314 86.7438 222.783C86.7226 222.273 86.8643 221.479 86.595 221.294C85.8933 220.805 86.9565 220.43 86.5596 220.132C85.8012 219.565 86.9281 219.395 86.7793 218.892C86.6304 218.41 86.9493 217.708 86.7084 217.34C86.1272 216.461 86.3965 215.511 86.1768 214.632C85.9642 213.803 86.3469 212.853 86.0067 212.251C85.4539 211.28 86.1697 210.117 85.6311 209.515C84.7381 208.516 86.113 207.58 85.3192 206.595C84.7381 205.879 85.383 204.646 84.7026 203.682C84.4333 203.299 85.8012 202.435 84.6459 201.783C85.7728 199.819 84.9152 197.693 85.1704 195.652C85.298 194.66 85.0003 193.667 85.6382 192.661C85.9996 192.094 86.0209 190.875 85.6382 190.372C84.7452 189.188 85.4893 188.345 85.8366 187.381C85.9217 187.154 86.1839 186.97 86.2052 186.75C86.2335 186.431 86.2264 185.97 86.0351 185.793C85.8296 185.609 85.298 185.538 85.0641 185.68C83.3064 186.771 81.3148 187.267 79.4224 188.026C78.0546 188.579 76.5449 188.848 75.3046 189.55C73.9509 190.315 72.3137 189.939 71.1088 190.946C69.7976 190.294 68.7203 191.208 67.5296 191.456C66.2113 191.725 64.8435 191.761 63.5252 192.03C62.7385 192.193 61.9022 192.987 61.2785 192.817C60.4138 192.583 59.6696 192.923 59.1522 193.157C58.3939 193.497 57.6993 193.526 56.948 193.604C55.6935 193.738 54.4461 193.923 53.1987 194.128C51.9513 194.334 50.6614 193.703 49.3998 194.582C48.9958 194.865 48.0177 194.206 47.2877 194.142C44.6157 193.923 42.043 193.462 39.4419 192.661C34.0129 190.995 33.3537 190.428 29.6682 188.132C27.8964 187.026 26.1529 185.928 24.466 184.68C23.7006 184.113 23.0343 183.469 22.3468 182.852C21.1065 181.732 19.9655 180.499 18.7748 179.315C16.7052 177.26 14.7774 175.084 13.1686 172.646C12.1763 172.66 12.2046 171.661 11.7227 171.165C11.2691 170.697 10.8793 170.144 10.5108 169.577C9.32715 167.784 9.28459 165.672 8.52623 163.772C8.05137 162.582 8.19314 161.129 7.39934 160.016C6.97409 159.421 8.28527 159.293 7.61196 158.478C7.17254 157.954 7.51274 156.805 7.39934 155.948C7.30721 155.218 7.17254 154.452 6.86069 153.8C6.40709 152.836 8.22858 151.972 6.91031 151.043C6.90322 149.987 6.88902 148.931 6.88902 147.882C6.88194 146.826 6.88902 145.77 6.88902 144.707C6.88902 143.651 6.88902 142.595 6.88902 141.532C6.88902 140.469 6.91741 139.413 6.88197 138.357C6.83945 137.074 7.64742 135.954 7.45606 134.607C7.29304 133.452 7.22924 132.226 7.92381 131.113C8.07974 130.858 7.90253 130.412 7.95215 130.071C8.15768 128.81 7.56235 127.527 8.32071 126.251C8.91606 125.252 8.101 123.919 8.94441 122.8C9.28461 122.353 8.93023 121.425 9.02236 120.73C9.09324 120.17 9.4051 119.653 9.5185 119.093C9.73112 118.03 9.95083 116.952 10.043 115.875C10.128 114.826 10.0288 113.763 10.0784 112.707C10.0997 112.31 10.3052 111.927 10.4186 111.53C10.858 110.035 11.1203 108.462 11.7794 107.072C12.4173 105.719 12.8922 104.372 13.2961 102.933C13.7143 101.459 14.2246 99.9849 14.8129 98.5462C15.3941 97.1145 15.8335 95.6191 16.4288 94.1945C16.7477 93.4432 17.4281 92.8337 17.6691 92.0682C18.0235 90.9484 19.2921 90.3814 19.2567 88.9993C19.2354 88.2764 20.8727 88.6166 20.7238 87.2487C20.6529 86.6109 21.5176 85.8596 21.9783 85.1721C22.3965 84.5484 22.8855 83.9672 23.2683 83.3223C23.6864 82.6206 23.8777 81.7134 24.4306 81.1818C25.6921 79.977 26.2875 78.4531 27.0742 76.979C27.6271 75.93 27.5633 75.0653 27.2443 74.0872C26.7836 72.6556 26.7624 72.2374 27.1805 70.2954C27.8609 71.0396 28.513 71.6775 29.08 72.3933C29.6753 73.1446 29.9376 73.1942 30.4691 72.4288C31.6031 70.7916 32.9427 69.2323 33.7648 67.4463C34.3956 66.0713 35.7209 65.398 36.3517 64.0301C36.8195 63.0095 38.0102 62.237 38.719 61.3227C40.0089 59.6784 41.5256 58.2963 42.9431 56.8079C44.3039 55.3834 45.5513 53.8666 46.8696 52.4137C48.2942 50.8474 50.0164 49.5433 51.6537 48.1825C53.1916 46.8996 55.0486 46.0846 56.6078 44.7946C57.6497 43.93 59.0034 43.3701 60.3075 42.9306C61.5478 42.5125 62.8306 42.2148 63.9717 41.5557C64.5742 41.2084 65.049 41.1517 65.6018 41.5911C66.2255 42.0801 66.2822 42.5621 65.6585 43.0582C64.9994 43.5827 64.3474 44.1143 63.6244 44.5395C63.0433 44.8797 64.6592 45.3191 63.5181 45.553C63.0432 45.6451 62.6109 45.9003 62.1502 46.0633C61.9163 46.1484 61.5832 46.0987 61.4415 46.2547C59.7759 48.1045 57.1819 48.6502 55.5234 50.5213C54.9847 51.1238 53.9216 50.8261 53.3263 51.6341C52.901 52.2082 52.4545 52.8602 51.5402 53.0303C51.0441 53.1225 50.4984 53.7816 50.2858 54.3061C50.1086 54.7455 50.0519 54.9298 49.5416 55.0999C48.7549 55.3621 48.2091 56.0921 47.5571 56.6024C46.7987 57.1907 46.253 57.8144 45.7994 58.6507C45.2607 59.65 43.9991 59.9619 43.3896 61.0392C42.6809 62.2866 41.0791 62.8748 40.6255 64.3987C39.0379 64.8381 39.208 66.6596 38.1236 67.588C37.4078 68.1975 36.7203 69.0197 36.2029 69.8844C35.6926 70.7278 35.2532 71.6208 34.6933 72.4288C34.0625 73.3289 33.375 74.1936 32.6379 75.0086C32.1489 75.5473 32.0993 76.0788 32.4324 76.6317C32.9923 77.553 33.5805 78.439 34.2822 79.2966C35.2886 80.5085 36.1887 81.841 37.2093 83.0884C38.1874 84.2862 38.8111 85.7816 39.5553 87.1353C40.3633 88.6024 42.1281 89.212 42.4824 90.9342C43.9212 91.8202 44.793 93.2802 45.9837 94.4142C47.8548 96.1931 49.7046 98.0076 51.7458 99.581C52.7522 100.354 54.0776 100.75 55.1832 101.466C55.3887 101.594 55.8849 101.268 56.2463 101.14C58.6348 100.318 60.8178 98.9856 63.2771 98.3265C65.8782 97.6319 68.2738 96.2853 70.9458 95.7821C71.8034 94.6622 73.1996 95.6261 74.284 94.8536C75.0849 94.2866 76.389 94.4851 77.4238 94.1732C80.7691 93.181 84.2916 92.9542 87.5872 91.8769C88.6929 91.5154 89.9119 92.0115 90.8546 91.1823C91.1168 91.6004 91.2869 91.3807 91.62 91.1894C92.4918 90.6862 93.4344 90.4168 94.4976 90.4523C95.2984 90.4735 96.1135 90.1263 96.9215 89.9703C97.6515 89.8286 98.3531 89.942 99.1399 89.5734C100.224 89.0631 101.599 89.5309 102.847 88.9639C103.803 88.5245 104.966 88.482 106.043 88.404C107.057 88.3331 108.091 88.4678 108.991 87.8512C110.253 88.4323 111.515 87.7449 112.783 87.8086C113.669 87.8512 114.576 87.5039 115.469 87.3125C115.576 87.2913 115.647 87.107 115.732 86.9936C114.385 86.0226 116.348 85.6753 116.143 85.3776C115.356 84.2365 117.22 84.2862 116.937 83.2726C116.788 82.7482 117.496 81.9756 117.83 81.3236C118.198 80.5936 118.574 79.8636 118.978 79.1548C119.105 78.9351 119.297 78.6587 119.516 78.602C120.976 78.198 121.281 77.1845 121.104 75.845C121.076 75.6323 121.38 75.363 121.331 75.1646C121.154 74.4062 123.337 75.1787 122.16 73.8534C122.699 73.5486 123.358 73.499 123.28 72.4855C123.23 71.8689 123.925 71.2026 124.258 70.5506C124.556 69.9694 124.719 69.2961 125.108 68.7929C126.526 66.9431 126.653 64.3916 128.454 62.7685C128.447 61.7125 128.893 60.8407 129.545 60.0469C129.063 58.6649 131.161 58.1971 130.693 56.8221C131.92 56.7867 131.494 55.837 131.693 55.1636C131.891 54.4691 132.614 53.8737 132.65 53.2075C132.699 52.3995 133.429 52.5909 133.571 52.2861C134.11 51.1309 135.123 50.1953 135.548 49.1393C136.037 47.9202 136.859 47.0272 137.504 45.9924C139.042 43.5189 140.751 41.1588 142.402 38.7632C143.026 37.8702 143.741 37.0338 144.33 36.1196C144.883 35.2549 144.918 33.9791 146.286 33.7807C146.378 33.7665 146.385 33.32 146.484 33.1003C146.647 32.7246 146.782 32.2923 147.065 32.0372C147.221 31.9025 147.682 32.1718 147.966 32.1009C148.185 32.0513 148.348 31.7537 148.533 31.5694C147.682 30.9882 148.483 30.3432 148.667 29.9534C148.922 29.4006 149.645 29.0533 150.184 28.6352C150.312 28.5359 150.545 28.5359 150.616 28.4225C151.013 27.7988 151.396 27.1681 151.743 26.5089C152.551 24.978 153.954 23.8086 154.394 22.058C155.202 21.8099 155.5 21.3421 155.514 20.4278C155.521 19.7404 156.208 21.2004 156.52 20.3357C156.662 19.953 156.875 19.5773 157.151 19.2868C157.449 18.9678 157.931 19.9884 158.257 19.2088C158.724 19.4356 158.887 19.6199 159.291 18.8544C159.738 18.011 160.922 17.444 161.893 17.0329C162.878 16.6219 163.905 17.1392 164.77 17.6425C165.259 17.926 165.578 18.2874 166.074 17.7417C166.138 17.6708 166.372 17.6354 166.428 17.685C166.818 18.0394 167.159 18.4575 167.57 18.7906C168.037 19.1734 168.243 19.5136 167.626 19.9175C167.924 20.0451 168.229 20.1656 168.526 20.2932C168.427 20.4775 168.215 20.7964 168.25 20.8318C168.434 21.009 168.753 21.0515 168.916 21.2358C169.235 21.5973 170.107 21.8808 169.207 22.5541C169.129 22.6108 169.249 23.1778 169.377 23.2203C171.078 23.7802 170.816 25.4671 171.241 26.6507C171.794 28.1816 171.836 29.8684 172.673 31.3497C172.984 31.8954 172.736 32.8876 173.126 33.2349C173.722 33.7594 172.361 34.3335 173.325 34.6028C173.311 37.2323 174.771 39.5286 175.004 42.1014C175.763 42.4983 175.004 43.2708 175.479 43.8662C175.897 44.3907 175.841 45.2766 176.068 45.9853C176.316 46.7579 176.564 47.5517 176.961 48.2533C177.35 48.9479 176.833 49.7417 177.457 50.4505C177.903 50.9537 177.917 51.8254 178.18 52.5129C178.499 53.3493 178.995 54.136 179.207 54.9936C179.803 57.4033 180.221 59.8556 180.837 62.2582C181.355 64.264 181.234 66.3902 182.141 68.3251C182.411 68.9063 182.283 69.6647 182.418 70.3309C182.531 70.8908 182.808 71.4082 182.921 71.9681C183.134 73.0312 183.283 74.1085 183.46 75.1858C183.637 76.256 183.651 77.39 184.027 78.3894C184.65 80.0407 184.665 81.8055 185.217 83.3506C185.94 83.2656 186.968 82.8261 187.471 83.1663C188.357 83.7617 189.201 83.1025 190.079 83.5278C190.923 83.9389 192.007 83.6625 193.021 84.0664C193.935 84.4279 195.105 84.1444 196.161 84.1444C197.217 84.1444 198.273 84.1444 199.336 84.1444C200.399 84.1444 201.455 84.1231 202.511 84.1515C203.333 84.1798 204.233 83.8963 204.921 84.6264C205.686 83.3435 206.367 84.8815 207.153 84.7114C207.997 84.5271 208.982 84.4492 209.776 84.7114C212.093 85.4698 214.581 85.2146 216.884 86.0509C217.225 86.1785 217.749 85.7107 218.167 85.7533C219.762 85.895 221.413 85.9375 222.909 86.4266C223.582 86.6463 224.213 86.6888 224.865 86.788C225.999 86.9581 227.14 87.1282 228.281 87.2983C227.842 85.5406 227.516 83.8751 226.488 82.4647C226.353 82.2804 226.311 81.9969 226.304 81.7559C226.282 81.0543 226.268 80.3455 226.304 79.6439C226.332 79.0343 226.318 78.4602 225.808 78.0279C226.793 77.4396 225.694 76.9081 225.694 76.334C225.687 74.7747 225.021 73.2368 224.844 71.7271C224.631 69.8702 224.107 68.1408 223.681 66.3619C223.412 65.235 223.022 64.1719 222.625 63.0946C221.69 60.5714 220.747 58.027 220.13 55.4188C219.833 54.1643 218.918 53.2996 218.692 52.0239C218.472 50.7694 217.792 49.5929 217.246 48.4093C216.736 47.2965 216.183 46.198 215.566 45.1419C214.262 42.9235 212.915 40.7406 211.335 38.6781C209.57 36.3676 207.912 33.9437 206.303 31.5127C205.466 30.244 204.254 29.3085 203.56 27.9122C203.05 26.8704 202.1 26.0482 201.37 25.1127C200.689 24.2409 199.506 23.7873 199.307 22.5328C197.798 22.1926 197.429 20.7184 196.522 19.7687C195.643 18.8473 194.885 17.6141 193.269 18.0606C191.391 17.0684 189.449 16.1683 187.641 15.0626C186.025 14.0774 184.452 13.0427 182.73 12.2276C182.063 11.9087 181.454 11.4338 180.873 10.9731C178.265 8.8965 174.877 8.34367 172.148 6.49383C170.943 6.60014 169.845 6.09694 168.689 5.93392C167.938 5.82761 167.236 5.76382 166.514 5.41653C165.791 5.06216 164.919 5.02673 164.111 4.84954C163.303 4.67235 162.367 4.69361 161.715 4.26836C160.9 3.74389 160.007 4.04156 159.277 3.7368C158.278 3.31864 157.484 3.07058 156.492 3.75098C156.13 3.99904 155.365 3.97777 154.947 3.75806C153.21 2.83669 151.375 3.35408 149.596 3.29738C148.533 3.26194 147.455 3.74389 146.378 3.75098C145.336 3.75806 144.386 4.01321 143.423 4.31088C142.898 4.4739 142.104 4.88497 141.885 4.68652C141.133 4.00612 140.765 5.12594 140.106 4.88497C139.56 4.68652 138.886 4.83536 138.27 4.84954C137.384 4.86371 136.385 4.59439 136.08 5.91266C136.03 6.13946 135.562 6.38752 135.265 6.41587C133.415 6.58597 131.905 7.69871 130.169 8.16648C126.76 9.07368 123.868 10.9519 121.083 13.0356C120.565 13.4254 120.239 13.8081 120.884 14.5169C121.905 15.6296 122.273 17.1392 122.585 18.5497C122.89 19.9246 123.769 21.1295 123.712 22.5966C123.705 22.8305 123.769 23.1211 123.911 23.2983C125.697 25.6088 125.115 28.3233 125.335 30.9244C125.406 31.7607 123.79 30.7472 124.527 31.9167C124.775 32.3065 124.789 32.916 124.733 33.398C124.669 33.9579 124.279 34.4823 124.251 35.0352C124.187 36.481 122.699 37.5016 123.088 39.0538C122.195 39.7625 121.905 40.8327 121.388 41.7825C120.792 42.8669 120.176 44.0079 119.311 44.8726C118.446 45.7373 117.348 46.4815 116.214 46.9209C114.619 47.5304 113.102 49.0471 111.132 47.736C110.827 47.5375 110.168 47.7501 110.841 48.3526C110.891 48.3951 110.806 48.5935 110.785 48.714C110.048 48.2179 109.41 49.7275 108.545 48.8062C108.375 48.629 107.496 49.2881 106.972 49.2456C105.724 49.1535 104.491 48.8699 103.258 48.6715C102.988 47.7005 102.365 49.0968 101.911 48.4518C101.635 48.062 100.827 48.0974 100.862 47.332C100.735 47.3461 100.586 47.3249 100.494 47.3887C99.2887 48.1683 98.424 47.6155 97.5877 46.7154C96.2907 45.3191 94.2495 44.66 93.5407 42.6613C93.5124 42.5833 93.4131 42.5408 93.3564 42.4699C93.0729 42.0801 91.9956 42.9802 92.2579 41.9242C92.4705 41.0595 91.4854 41.0595 91.5279 40.6059C91.6059 39.6633 90.6348 39.9539 90.4293 39.5003C90.2734 39.153 90.401 38.6781 90.401 38.2387C93.3139 39.7696 95.5819 42.0376 98.4665 43.2921C99.5013 43.7457 100.245 44.745 101.663 44.6104C102.669 44.5182 103.733 45.2128 104.874 45.0781C105.71 44.9789 106.589 44.9364 107.298 45.5884C109.062 44.66 111.089 45.1774 112.932 44.5041C115.065 43.7315 116.547 42.1652 117.837 40.4996C118.758 39.3089 119.502 37.9127 120.119 36.4456C120.728 34.9926 120.636 33.3342 121.593 32.0301C121.175 30.0314 122.309 28.0965 121.692 26.0057C121.409 25.0418 120.353 24.893 120.324 23.9645C119.304 23.759 118.51 23.1849 117.745 22.4974C117.489 22.2635 116.929 22.3202 116.511 22.3344C114.513 22.3982 112.812 21.7036 111.111 20.6546C109.962 19.9459 108.51 19.7262 107.191 19.3009C107.085 19.2655 106.837 19.3576 106.837 19.3789C106.858 20.3286 105.923 20.5909 105.519 21.2216C104.895 22.1926 104.647 23.4188 103.64 24.1417C102.783 24.7583 102.57 25.9773 101.5 26.3813C101.557 27.4657 100.104 27.3807 100.054 27.8272C99.9195 29.0321 97.9987 28.6139 98.3177 29.996C97.4672 30.4921 96.6238 31.0024 95.7662 31.4914C94.9086 31.9734 94.044 32.4341 93.1722 32.8947C93.0304 32.9656 92.832 32.9231 92.6902 33.0011C89.7631 34.4894 89.7631 34.4894 86.9635 34.4894C86.9139 34.3619 86.7864 34.1705 86.8218 34.128C87.9558 32.8451 87.8211 31.6828 86.6729 30.4496C86.191 29.9322 85.9996 29.1525 85.6311 28.5147C85.5319 28.3375 85.2484 28.1603 85.0641 28.1745C84.894 28.1886 84.6955 28.4367 84.5963 28.621C83.9513 29.8613 83.3135 31.0874 82.5126 32.2569C80.1454 35.6872 76.9843 37.3315 72.8452 37.1189C72.5263 37.1047 72.2145 36.9417 71.8955 36.8637C71.4986 36.7645 71.527 35.8148 70.7474 36.3605C70.5135 36.5235 69.911 36.0699 69.4929 36.0912C68.2738 36.155 67.4588 35.4392 66.5303 34.7942C66.9626 34.5532 67.2957 34.3689 67.6359 34.1776C66.8988 34.4256 67.6501 32.1647 66.3248 33.398C66.1972 33.1003 66.0767 32.7955 65.8641 32.2781C64.9498 33.4688 63.7733 34.1563 62.4692 34.6808C60.5343 35.4604 58.5285 35.666 56.4802 35.51C56.3172 35.4959 56.2463 34.8863 56.0337 34.7871C54.1555 33.9366 52.894 32.5829 52.3128 30.5842C52.2703 30.4283 51.7387 30.2866 51.4836 30.3433C50.3921 30.6055 50.3992 30.6338 50.1936 29.436C50.1795 29.3652 50.0731 29.3085 50.0164 29.2447C48.9675 31.0095 48.9888 30.9102 46.9263 30.4212C45.2324 30.0243 43.6235 29.5707 42.043 28.7698C40.746 28.1178 39.7254 27.3736 38.9812 26.1616C38.7544 25.7931 38.4 25.4954 38.0527 25.2261C37.2731 24.6166 36.7699 23.8724 36.8266 22.7384C35.9832 24.6732 34.4098 25.6655 32.7726 26.5231C30.4266 27.7492 27.9318 28.5147 25.2456 28.1036C24.4235 27.976 23.3533 28.0044 23.2115 26.757C22.9493 26.8137 22.6941 26.8704 22.3965 26.9413C21.6664 25.4529 21.0711 23.7731 20.4758 22.0721C19.9938 20.683 20.1356 19.6837 20.5892 18.4859C20.6955 18.1953 21.1491 18.1315 20.901 17.4936C20.0505 15.3178 20.1781 14.9421 17.7896 15.9769C16.287 16.6219 14.905 17.5432 13.1261 16.551C12.5236 16.2108 11.5668 16.5439 10.7801 16.4872C8.46957 16.3313 6.15196 16.232 3.86979 15.9202C2.94133 15.7926 2.05538 15.2115 1.20488 14.7366C1.0277 14.6374 1.11273 14.0987 1.05603 13.7656C0.94263 13.0639 0.382725 13.4041 0 13.3191C0.0637874 13.1136 0.0637632 12.9364 0.0637632 12.7663ZM50.6614 18.1811C50.7606 18.1102 50.8669 18.0394 50.9661 17.9685C50.7323 17.5432 50.5125 17.118 50.2574 16.7069C50.2078 16.629 50.0235 16.6289 49.896 16.5935C49.8534 16.7494 49.7188 16.9692 49.7754 17.0542C50.0377 17.4511 50.3566 17.8055 51.0725 18.0464C51.2355 18.7198 49.9739 19.0529 50.7393 20.0239C51.0441 20.4066 50.4984 21.4697 50.2787 22.4903C52.0647 21.0303 51.1008 19.4781 50.6614 18.1811ZM106.773 6.35208C105.774 5.74256 105.774 5.74256 104.207 6.35208C105.2 6.35208 106.036 6.35208 106.929 6.2245C106.894 6.32373 106.851 6.41587 106.816 6.51509C108.495 7.57113 110.182 8.62717 111.862 9.67612C111.621 8.64843 111.217 7.61365 110.473 7.20966C109.431 6.64267 108.127 6.53636 106.773 6.35208ZM196.557 220.976C196.798 220.416 197.075 219.827 197.295 219.218C197.784 217.885 198.294 216.574 199.385 215.589C199.966 212.917 201.334 210.585 202.553 208.19C202.327 206.907 203.539 206.12 203.652 204.944C203.9 202.378 204.942 199.997 205.459 197.48C205.927 195.213 206.352 192.923 206.742 190.648C206.898 189.727 207.132 188.869 207.415 187.997C207.543 187.608 207.855 187.239 207.848 186.863C207.834 184.737 209.209 182.859 208.925 180.69C210.087 178.5 209.868 175.991 210.428 173.659C210.86 171.88 210.357 169.903 211.016 168.074C211.108 167.812 210.938 167.458 210.895 167.167C209.067 167.167 207.387 167.104 205.714 167.181C203.985 167.259 202.596 166.09 200.867 166.005C200.137 165.97 199.477 164.786 198.762 164.155C197.713 163.241 197.472 161.852 196.735 160.767C196.026 159.725 196.075 158.577 196.281 157.542C196.536 156.281 197.748 155.423 198.06 154.048C198.209 153.396 199.045 152.815 199.69 152.383C200.427 151.887 201.299 151.589 202.064 151.228C201.32 149.845 200.385 148.69 200.066 147.379C199.711 145.94 198.833 144.65 198.868 143.105C198.953 139.051 200.236 136.507 203.198 134.083C203.468 133.863 204.148 134.132 204.8 134.182C204.651 133.495 204.545 132.843 204.368 132.212C203.787 130.128 202.936 128.101 203.099 125.861C203.213 124.345 203.836 122.906 203.73 121.347C203.709 120.978 204.021 120.595 204.162 120.213C204.46 119.398 205.544 118.377 206.395 117.959C206.87 117.725 207.26 117.314 207.713 116.959C207.855 117.378 207.961 117.69 208.103 118.093C208.316 117.64 208.479 117.286 208.606 117.009C209.031 117.519 209.372 118.108 209.875 118.462C210.066 118.597 211.654 118.987 210.506 117.647C211.413 116.293 210.165 114.947 210.506 113.593C210.626 113.111 210.711 112.622 210.81 112.133C211.186 110.297 213.064 110.404 214.191 109.539C214.262 109.482 214.56 109.589 214.631 109.695C214.801 109.964 214.893 110.276 215.02 110.574C215.304 110.276 215.431 110.148 215.984 110.404C217.31 111.02 218.16 112.055 218.961 113.146C220.038 114.599 221.25 115.996 221.718 117.817C223.532 119.178 223.887 121.297 224.503 123.409C232.037 114.904 238.579 105.811 244.993 96.4554C242.655 95.9734 240.592 95.2151 238.388 95.2505C234.135 93.5353 229.571 93.0959 225.141 92.1745C223.036 91.7351 220.981 90.7074 218.727 91.0193C216.091 89.701 213.1 89.8215 210.336 88.9639C209.209 88.6166 207.883 88.9781 206.657 88.8859C205.403 88.7938 204.162 88.4607 202.908 88.3969C201.058 88.3119 199.208 88.3473 197.358 88.3898C196.841 88.404 196.281 88.7938 195.813 88.6875C193.779 88.2197 191.795 88.1488 189.753 88.73C189.378 88.8363 188.846 88.5457 188.4 88.893C188.322 88.9568 187.989 88.8647 187.953 88.7725C187.599 87.9575 187.152 89.1411 186.819 88.7158C186.203 87.922 185.827 88.7229 185.317 88.8859C184.7 89.0773 183.97 88.9001 183.772 88.2693C183.538 87.5322 182.914 87.3976 182.482 86.9794C181.837 86.3486 181.1 85.8596 180.852 84.7468C180.384 82.6064 179.703 80.5156 179.874 78.2972C180.079 75.6819 179.016 73.258 178.725 70.7207C178.669 70.2458 178.187 69.7001 178.279 69.0835C178.428 68.1125 178.165 67.2195 177.691 66.4186C177.464 66.043 177.102 65.8162 177.655 65.4689C176.911 64.0018 177.294 62.2157 176.351 60.7982C176.223 60.6068 176.167 60.3233 176.167 60.0895C176.195 58.1262 175.288 56.3969 174.848 54.5541C174.359 52.4775 172.814 50.7269 172.977 48.4589C171.801 47.7076 172.68 46.4106 172.141 45.3616C171.376 43.8662 171.319 42.0163 170.858 40.3508C170.249 38.1466 169.469 35.9849 168.881 33.7736C168.052 30.6622 166.811 27.7421 165.054 25.0489C164.196 23.7306 163.388 22.384 162.495 21.0941C162.19 20.6476 161.765 20.3711 161.333 21.1366C160.808 22.0721 160.291 23.0857 159.525 23.8157C155.911 27.2744 152.771 31.1229 149.815 35.1344C148.901 36.3676 147.767 37.4378 146.86 38.6781C145.953 39.9114 144.911 41.0383 143.975 42.2219C141.984 44.745 140.332 47.5517 138.66 50.3087C136.881 53.2429 135.222 56.2764 133.493 59.246C132.04 61.7479 130.998 64.4199 129.793 66.9927C128.347 70.0757 126.788 73.1375 125.548 76.334C125.257 77.0924 124.811 77.794 124.435 78.5169C124.059 79.2399 123.344 79.9911 123.393 80.6928C123.464 81.7701 122.635 82.0252 122.174 82.5426C121.6 83.1947 122.316 83.946 121.706 84.5838C120.75 85.5903 121.175 87.4755 119.573 88.1347C119.835 89.7435 118.496 90.1617 117.482 90.8492C117.851 90.9909 118.156 91.1043 118.475 91.2248C116.341 93.0959 116.341 93.0959 114.087 93.1597C113.733 93.1668 113.294 93.025 113.046 93.188C111.826 93.996 110.423 94.1378 109.055 94.4142C107.694 94.6906 106.369 95.4064 104.916 94.8607C104.399 95.5907 103.357 94.9387 103.031 95.3285C102.457 96.016 101.783 95.13 101.181 95.7466C100.834 96.101 99.8344 95.7892 99.1328 95.8246C98.8989 95.8317 98.6721 95.9734 98.4382 96.0514C97.8996 96.2357 97.1199 96.264 96.8648 96.6467C96.2127 97.6319 95.7946 96.0089 95.1213 96.6326C94.774 96.9586 93.9873 96.8381 93.3919 96.8594C92.6902 96.8948 91.7476 96.5759 91.3223 96.9232C90.2521 97.7949 89.0473 97.0153 88.0763 97.4405C86.999 97.9154 85.9359 97.9012 84.8373 97.9225C84.2207 97.9296 83.597 97.8658 82.9874 97.9367C82.3566 98.0146 81.3715 98.5249 81.1943 98.3052C80.4856 97.4476 80.0958 98.9715 79.6989 98.4328C79.061 97.5752 78.5578 98.4966 77.9978 98.4895C77.2749 98.4895 76.5662 98.8722 75.8362 98.9573C73.9792 99.177 72.1081 99.3258 70.2441 99.503C69.989 99.5243 69.7267 99.5172 69.4929 99.6022C68.8833 99.829 68.3022 100.155 67.6785 100.325C67.1398 100.474 66.8138 101.147 65.9987 100.786C65.6373 100.63 64.9498 101.31 64.3757 101.523C63.2275 101.941 62.2211 102.707 60.9595 102.862C60.5201 102.919 59.301 103.961 58.7766 104.493C58.3655 104.911 58.0111 105.308 57.2811 105.379C56.1471 105.485 55.0202 105.832 53.9358 106.194C51.2993 107.072 48.8116 108.299 46.338 109.553C45.4592 110 44.637 110.552 43.7795 111.041C42.9998 111.488 42.206 111.913 41.4122 112.353C42.0855 112.842 42.4399 113.607 42.9998 114.202C43.3258 114.557 43.581 115.018 43.7511 115.471C45.3387 119.681 48.7478 122.41 51.8237 125.394C52.6034 126.145 53.4822 126.698 54.035 127.725C54.6233 128.824 55.5234 129.795 56.3952 130.709C57.026 131.368 57.8765 131.815 58.5781 132.424C59.2444 132.999 59.7334 133.962 60.4776 134.21C61.5336 134.565 61.7675 135.415 62.2991 136.11C62.4408 136.294 62.6889 136.429 62.9086 136.528C64.2907 137.131 65.5238 137.953 66.6862 138.902C67.3241 139.42 68.0541 140.121 68.777 140.157C70.0244 140.221 71.3427 140.603 72.6043 139.902C73.0721 139.639 73.8021 139.632 74.3478 139.781C74.7022 139.873 74.851 139.98 75.3117 139.873C77.4734 139.391 79.7768 140.114 81.9102 139.179C82.7323 139.888 83.5403 139.306 84.3837 139.214C86.6304 138.973 88.7213 138.229 90.8688 137.627C92.3075 137.223 93.6258 136.641 94.9866 136.067C96.9357 135.245 96.9994 135.415 97.5523 134.48C97.8925 133.906 98.2965 133.374 98.665 132.828C99.4588 131.659 100.444 130.567 100.954 129.285C101.202 128.661 101.443 128.101 101.812 127.52C102.868 125.861 103.343 123.863 104.739 122.396C105.051 120.085 106.929 119.355 108.701 118.597C109.537 118.242 110.083 118.767 110.303 119.61C110.494 119.27 110.678 118.944 110.87 118.618C111.741 119.539 112.861 118.88 113.846 119.1C114.534 119.256 113.882 119.554 113.917 119.731C113.981 120.071 114.3 120.361 114.513 120.673C114.881 120.333 115.228 119.731 115.356 120.865C115.399 121.24 116.887 121.552 116.866 121.46C116.625 120.461 118.567 120.737 117.985 119.539C117.971 119.511 118.638 119.079 118.673 119.114C119.105 119.61 119.375 119.532 119.857 119.079C120.75 118.257 122.047 118.462 123.124 118.072C123.365 117.987 124.109 118.462 124.109 118.682C124.123 119.972 125.229 119.419 125.775 119.759C126.221 120.9 125.229 122.417 126.795 123.331C126.894 122.608 126.994 121.921 127.093 121.233C127.469 123.523 127.497 125.791 127.454 128.059C127.44 128.81 127.681 129.292 128.44 129.639C128.404 128.179 129.68 128.08 130.459 127.591C131.133 127.165 131.721 127.796 132.238 128.314C132.444 128.519 132.855 128.498 133.167 128.604C133.394 128.682 133.776 128.781 133.784 128.902C133.847 129.511 133.677 130.178 133.854 130.738C133.989 131.17 134.521 131.482 134.861 131.857C134.903 131.907 134.868 132.028 134.868 132.12C134.882 132.97 134.599 133.658 133.869 135.189C133.557 135.841 133.486 136.613 133.28 137.322C132.522 139.994 131.934 141.071 130.339 142.942C130.148 143.162 130.112 143.573 130.119 143.899C130.133 144.452 129.928 144.828 129.609 145.295C129.113 146.018 128.801 146.897 128.539 147.748C128.383 148.265 128.461 148.818 129.29 148.711C129.9 148.633 130.509 148.612 130.913 149.25C131.615 150.363 132.189 151.532 132.72 152.73C132.791 152.9 132.564 153.396 132.522 153.389C131.154 153.205 132.6 154.651 131.735 154.729C132.316 155.303 132.43 155.841 131.7 156.408C131.629 156.465 131.749 156.912 131.891 157.089C132.43 157.748 132.437 157.989 131.48 158.28C130.764 158.499 132.104 159.073 131.657 159.407C130.566 160.222 130.757 161.724 129.729 162.61C128.716 163.496 127.773 164.573 127.121 165.743C126.122 167.55 124.641 168.946 123.096 170.094C121.614 171.193 119.998 172.235 118.297 173.107C116.618 173.971 114.569 173.978 113.152 175.396C113.067 175.481 112.698 175.453 112.62 175.353C111.897 174.467 111.217 175.8 110.402 175.346C109.743 174.985 109.154 176.558 108.191 175.764C108.141 175.722 107.737 176.176 107.468 176.339C106.681 176.792 105.951 177.416 104.937 177.253C103.796 177.069 102.556 177.692 101.514 176.516C100.883 175.807 99.7919 176.048 99.0477 176.856C97.0703 178.996 94.7881 180.711 92.2366 182.115C91.3224 182.618 90.7057 183.497 90.9467 184.737C91.0601 185.318 91.0814 186.006 90.8829 186.552C90.1883 188.479 89.8694 190.45 89.8977 192.491C89.9332 194.695 89.9545 196.899 89.8836 199.096C89.8411 200.443 89.9615 201.747 89.4654 203.143C88.8984 204.731 90.2521 206.432 89.9048 208.183C90.9254 209.019 90.2379 210.153 90.4293 211.138C90.6207 212.116 90.8049 213.101 90.9609 214.094C91.2302 215.858 90.3868 217.737 91.4783 219.43C91.5421 219.53 91.4783 219.785 91.3932 219.905C90.7624 220.77 90.9184 221.507 91.3932 222.464C91.783 223.244 91.4428 224.356 91.6767 225.256C92.0736 226.794 92.6264 228.276 92.5697 229.913C92.5272 231.174 93.1651 232.337 93.2076 233.634C93.236 234.428 93.888 235.207 94.37 236.221C98.1972 232.493 101.826 228.963 105.448 225.434C105.575 225.313 105.682 225.164 105.823 225.065C108.814 222.974 111.692 220.749 114.3 218.19C114.704 217.793 115.321 217.616 115.732 217.226C116.129 216.844 116.299 216.17 116.738 215.894C117.461 215.44 118.113 214.972 118.765 214.42C119.446 213.838 120.076 213.002 120.906 212.683C121.877 212.315 122.061 210.869 123.386 211.06C123.606 211.096 123.911 210.663 124.159 210.415C126.753 207.814 129.729 205.695 132.628 203.455C135.811 200.996 138.695 198.154 141.736 195.503C142.494 194.837 143.288 194.185 144.145 193.66C145.634 192.76 147.108 191.825 148.483 190.776C149.227 190.209 149.879 189.982 150.786 189.876C151.552 189.791 152.254 188.905 153.026 189.869C154.288 189.103 154.805 191.024 155.953 190.684C158.25 191.81 160.277 193.391 162.488 194.674C163.905 195.496 165.358 196.403 166.62 197.417C168.023 198.544 169.951 198.6 171.135 199.982C174.09 200.698 176.564 202.3 178.952 204.107C179.547 204.554 180.313 204.653 180.901 205.326C182.007 206.595 183.268 207.8 184.658 208.743C186.968 210.316 188.754 212.322 190.413 214.526C192.262 216.886 193.659 219.686 196.557 220.976ZM115.682 149.831C113.584 149.144 113.464 147.634 113.825 146.323C114.144 145.182 114.973 144.098 115.824 143.212C117.411 141.546 118.297 139.455 119.523 137.584C120.452 136.174 121.04 134.522 121.664 132.935C122.323 131.262 123.712 129.802 123.266 127.782C124.279 126.655 123.698 125.287 123.762 124.033C123.811 123.012 122.869 121.814 122.188 121.701C121.012 121.495 120.119 121.729 119.552 122.97C119.339 123.423 119.169 123.856 118.999 124.33C118.482 125.783 117.978 127.3 117.128 128.562C115.817 130.504 114.917 132.573 114.265 134.792C114.08 135.408 113.868 136.195 113.4 136.514C112.556 137.088 112.883 138.704 111.422 138.626C110.785 137.584 111.21 136.443 111.139 135.352C111.125 135.103 111.493 134.785 111.748 134.565C112.301 134.083 112.33 133.495 112.004 132.956C111.812 132.637 111.834 132.545 111.94 132.176C112.33 130.837 112.145 129.341 113.194 128.186C113.35 128.009 113.265 127.484 113.131 127.187C112.436 125.649 112.152 124.026 112.103 122.233C111.345 122.233 110.643 122.289 109.962 122.218C109.346 122.148 108.949 122.431 108.637 122.863C107.51 124.416 106.383 125.975 105.299 127.562C105.03 127.952 104.937 128.462 104.753 128.916C104.179 130.355 103.867 131.992 102.96 133.169C101.628 134.898 100.245 136.556 99.2674 138.534C99.0477 138.98 98.5516 139.59 98.1689 139.611C97.1695 139.654 96.1773 139.973 95.7095 140.646C94.9511 141.737 93.7463 140.922 92.8887 141.659C92.35 142.12 91.216 141.808 90.4648 142.127C87.7077 143.311 84.7948 143.786 81.8676 143.878C77.0269 144.034 72.179 143.927 67.3312 143.906C66.672 143.906 65.9066 144.197 65.4175 143.438C64.9072 144.048 64.0639 144.147 63.5677 143.871C62.4125 143.219 61.2359 143.474 60.0594 143.382C59.4074 143.332 58.7624 142.765 58.1174 143.389C56.9693 142.588 55.2895 142.935 54.3682 141.482C54.0421 140.972 52.9081 141.014 52.9365 139.994C53.6807 139.895 54.4178 139.774 55.162 139.696C55.41 139.668 55.7006 139.668 55.9132 139.774C57.7135 140.674 59.542 140.079 61.5549 140.114C60.9879 139.547 60.676 138.987 60.2224 138.839C59.2585 138.513 58.7411 137.705 58.0182 137.13C57.2882 136.556 56.948 135.479 55.814 135.437C55.5801 134.451 54.9281 133.877 53.9854 133.594C53.8437 132.417 52.738 131.992 52.1002 131.205C51.3985 130.355 50.3921 129.752 50.0519 128.611C48.7478 128.562 48.9533 127.08 48.0603 126.535C47.1106 125.954 46.4089 124.961 45.6009 124.16C43.8574 122.424 42.1635 120.652 41.2988 118.278C40.094 117.477 40.1931 115.882 39.2222 114.89C38.8182 114.479 38.8111 113.671 38.6623 113.033C38.5205 112.431 38.3008 111.814 38.3433 111.219C38.3929 110.496 38.6835 109.787 38.8678 109.071C39.3214 109.255 39.853 110.226 40.2073 109.149C40.6468 107.831 41.7808 107.427 42.7872 106.945C44.6796 106.038 46.6641 105.329 48.9533 104.393C48.1312 104.287 47.4011 104.337 47.3444 104.167C47.0113 103.139 46.1254 103.011 45.3316 102.65C44.9772 102.487 44.6441 102.097 44.4811 101.736C43.6377 99.8432 41.8162 98.6312 41.1429 96.5475C40.7035 95.1867 39.6545 93.8826 38.5772 92.8833C35.6146 90.1333 33.8003 86.6746 32.0851 83.1309C31.511 81.9402 30.6676 81.0755 29.5903 80.3242C28.8177 81.6425 28.3145 83.0175 27.3861 83.9743C26.3159 85.0658 26.408 86.6179 25.4512 87.7023C24.5227 88.7584 24.4873 90.3672 23.3249 91.3099C23.5305 92.5076 22.7012 93.3582 22.2264 94.2866C21.7444 95.2293 21.8649 96.5192 20.7096 97.1003C20.9152 98.3052 19.7599 99.0423 19.6465 100.091C19.3417 102.827 17.9172 105.208 17.2864 107.852C16.5847 110.793 14.6215 113.387 14.8412 116.619C14.8625 116.974 14.5081 117.349 14.338 117.718C13.1048 120.454 13.3032 123.452 12.7504 126.308C13.3103 126.981 11.992 127.463 12.6299 128.321C13.0126 128.838 12.8071 129.852 12.7292 130.624C12.6583 131.354 12.3464 132.056 12.233 132.786C12.1125 133.551 12.233 134.303 12.7504 134.94C11.3612 135.89 13.6859 137.336 12.3039 138.286C13.2465 140.618 12.5378 143.056 12.7362 145.43C12.8142 146.394 12.8142 147.372 12.7292 148.336C12.6512 149.151 12.5732 150.051 12.1834 150.738C11.5384 151.887 11.7227 153.063 11.7015 154.24C11.6802 155.686 11.7652 157.089 12.1692 158.528C12.8567 160.973 12.9063 163.595 14.2955 165.849C14.5435 166.253 14.4089 167.018 14.7136 167.224C15.6067 167.841 15.6917 169.208 16.8966 169.478C16.9178 170.711 17.9313 171.427 18.6259 172.121C19.8591 173.355 20.3269 175.346 22.2547 175.906C22.4036 175.949 22.6091 176.14 22.6162 176.268C22.7296 177.94 24.3951 178.302 25.2456 179.358C26.3088 180.683 27.7475 181.661 29.08 182.703C30.6534 183.936 32.6946 184.482 34.0342 186.07C34.1263 186.176 34.3389 186.204 34.4948 186.218C35.7068 186.296 36.6919 186.991 37.6062 187.622C38.6339 188.331 39.8105 188.281 40.8877 188.649C43.014 189.372 45.204 189.954 47.4933 189.932C49.2581 189.918 51.0158 189.932 52.7805 189.925C53.2979 189.925 54.0138 190.081 54.2973 189.812C55.0131 189.139 55.7927 189.543 56.5228 189.394C57.3307 189.231 58.1458 188.869 58.9467 188.912C60.1799 188.975 61.4911 188.89 62.377 188.267C63.4898 187.48 64.6663 187.87 65.7861 187.53C67.8557 186.892 70.0811 186.708 72.2216 186.226C73.8233 185.864 75.496 185.807 76.9135 184.773C77.6293 184.255 78.4869 183.894 79.3232 183.596C82.0873 182.611 84.7947 181.498 87.5093 180.378C88.3385 180.038 88.9551 179.096 89.7844 178.869C91.7192 178.344 93.0801 176.962 94.6322 175.913C96.3545 174.758 97.935 173.411 99.962 172.795C100.302 172.688 100.692 172.738 101.061 172.71C100.954 171.363 102.414 171.611 102.939 170.846C103.761 172.022 104.533 173.376 106.234 171.958C106.39 171.831 106.752 171.966 107.014 171.937C108.701 171.767 110.395 171.597 112.082 171.399C112.308 171.37 112.535 171.094 112.741 171.115C113.953 171.207 114.591 170.109 115.64 169.79C119.368 168.649 120.863 167.458 123.691 164.432C125.668 162.312 127.256 159.945 128.95 157.628C129.765 156.515 129.517 155.218 130.112 154.126C130.169 154.02 129.807 153.673 129.63 153.446C129.453 153.219 129.226 153.021 129.099 152.773C128.95 152.489 128.936 151.929 128.787 151.901C128.397 151.837 127.901 151.88 127.568 152.078C125.654 153.212 125.328 153.446 123.826 156.026C122.692 157.968 120.551 158.705 119.141 160.285C119.013 160.434 118.17 160.257 118.021 160.009C117.496 159.158 118.645 158.223 118.007 157.28C117.929 157.167 118.113 156.805 118.255 156.614C118.793 155.863 119.382 155.14 119.927 154.396C120.87 153.113 121.933 151.901 122.706 150.519C124.215 147.811 125.463 144.955 127.029 142.276C127.617 141.27 127.95 140.171 128.574 139.207C129.29 138.094 129.779 136.897 130.226 135.663C130.814 134.04 131.516 132.467 131.048 130.674C130.715 130.702 130.481 130.653 130.382 130.745C127.121 133.665 124.471 137.067 122.337 140.887C121.657 142.106 121.097 143.417 120.253 144.509C118.822 146.344 117.227 148.045 115.682 149.831ZM209.159 154.92C207.819 154.92 206.877 154.92 205.934 154.92C205.282 153.63 203.999 155.99 203.383 154.488C202.284 155.608 200.47 156.068 200.094 157.812C199.924 158.591 199.832 159.74 200.257 160.236C201.505 161.667 202.412 163.772 204.906 163.468C209.095 164.843 210.336 163.609 213.185 162.1C213.482 161.944 213.78 161.363 213.922 161.412C214.326 161.561 214.581 162.312 214.794 161.178C214.985 160.165 215.332 158.91 216.055 158.336C216.856 157.706 217.26 156.862 217.877 156.16C218.571 155.381 219.06 154.381 219.486 153.41C220.889 150.2 223.277 147.372 223.27 143.608C223.27 143.424 223.88 143.233 224.206 143.049C223.022 142.588 224.241 141.844 224.014 141.192C223.717 140.334 223.497 139.214 223.802 138.428C224.454 136.741 224.588 135.181 223.759 133.565C224.808 133.055 223.277 132.424 223.823 131.921C224.695 131.12 224.029 130.086 224.277 129.2C224.489 128.448 223.603 127.874 224.199 126.953C224.808 126.017 223.469 125.309 223.277 124.508C222.732 122.233 221.371 120.61 219.79 119.079C219.28 118.583 218.947 118.108 218.918 117.307C218.897 116.641 218.507 115.896 218.061 115.372C217.529 114.741 216.792 114.252 216.083 113.806C215.396 113.373 214.652 113.026 213.893 112.735C213.723 112.672 213.249 112.969 213.192 113.175C213.078 113.586 212.972 114.21 213.192 114.458C213.794 115.138 213.603 115.896 213.702 116.641C213.808 117.456 214.227 118.271 214.184 119.064C214.021 121.758 215.049 124.111 216.091 126.478C216.707 127.895 217.522 129.27 217.848 130.752C218.082 131.808 218.33 132.864 218.755 133.821C219.039 134.459 218.883 134.707 218.522 135.125C217.947 135.798 217.77 134.643 217.267 134.884C217.161 134.933 216.856 134.636 216.679 134.459C215.566 133.303 214.382 132.283 213.823 130.624C213.1 128.477 211.959 126.471 211.058 124.38C210.151 122.282 208.727 120.794 206.253 119.95C207.068 121.269 206.976 122.474 206.756 123.565C206.147 126.598 206.055 128.151 206.919 130.497C207.394 131.787 207.671 133.183 208.578 134.303C208.727 134.487 208.897 134.721 208.918 134.948C209.031 136.11 209.655 136.96 210.428 137.768C210.761 138.116 210.881 138.654 211.207 139.016C211.484 139.328 211.647 139.554 211.207 139.767C210.874 139.93 210.279 140.178 210.158 140.051C208.918 138.746 206.884 138.846 205.679 137.329C204.864 136.308 203.39 137.074 203.106 138.47C202.979 139.108 202.929 139.866 202.546 140.334C201.845 141.206 201.831 142.248 202.107 143.027C203.206 146.139 204.375 149.257 206.856 151.617C207.43 152.163 208.032 152.695 208.514 153.311C208.812 153.68 208.89 154.211 209.159 154.92ZM98.7146 21.6044C99.5934 20.3782 100.557 19.0458 101.734 17.4157C100.529 18.0323 99.5863 16.1683 98.6366 17.5999C98.098 18.4079 97.5877 19.3222 97.4459 20.2507C97.3892 20.6405 98.2964 21.1862 98.7146 21.6044ZM77.0623 29.1809C77.3245 29.1171 77.5301 29.1313 77.6293 29.0391C78.5365 28.1886 79.5854 27.572 80.6911 27.0192C80.8541 26.9413 80.9888 26.5656 80.9463 26.3743C80.8045 25.7222 79.5642 25.0985 79.1106 25.4954C78.1042 26.3672 77.119 27.2956 76.7575 28.6564C76.715 28.8053 76.9631 29.025 77.0623 29.1809ZM34.9626 18.9395C35.1115 18.9962 35.2673 19.0458 35.4162 19.1025C35.4445 18.6985 35.3028 18.1173 35.5154 17.9118C36.6565 16.8132 35.6572 15.8989 35.2886 14.9917C35.1043 14.5452 34.4665 13.8223 34.3602 15.1689C34.346 15.3178 33.8003 15.417 33.5026 15.5375C33.779 15.7217 34.1263 15.8493 34.3035 16.1045C34.5799 16.4943 34.835 16.9479 34.9342 17.4086C35.0406 17.8976 34.9626 18.4292 34.9626 18.9395ZM10.1493 6.7986C9.41928 6.28121 8.77433 5.80634 8.11519 5.37401C8.01596 5.31022 7.71828 5.36693 7.66158 5.45906C7.54109 5.65751 7.39934 5.99062 7.48439 6.13237C8.14353 7.16715 9.10035 7.06084 10.1493 6.7986ZM81.2014 24.9993C81.5133 24.574 81.7897 24.2338 82.0094 23.8582C82.059 23.7731 81.9101 23.5747 81.8534 23.4329C81.5558 23.7519 81.2439 24.0637 80.9817 24.411C80.9321 24.4748 81.0809 24.6874 81.2014 24.9993ZM102.542 6.32373C102.542 6.17489 102.549 6.01897 102.549 5.87013C101.897 5.91265 101.245 5.96227 100.593 6.00479C100.6 6.11111 100.607 6.21742 100.607 6.33082C101.252 6.32374 101.897 6.32373 102.542 6.32373ZM164.522 18.8332C164.352 18.6843 164.281 18.578 164.224 18.5851C163.82 18.6276 163.416 18.6985 163.012 18.7694C163.005 18.7694 163.012 18.9324 163.034 18.9395C163.438 19.0033 163.849 19.0671 164.253 19.1025C164.309 19.1025 164.373 18.9891 164.522 18.8332ZM43.8432 18.0252C44.0346 18.3158 44.1267 18.4504 44.2118 18.5851C44.4386 18.2874 44.6725 17.9898 44.8993 17.685C44.7504 17.6283 44.5591 17.4936 44.4669 17.5432C44.233 17.6566 44.0417 17.8622 43.8432 18.0252Z" fill="white"/>
<path d="M203.071 32.7539C203.149 34.3132 203.312 35.7094 202.426 37.0064C202.249 37.2686 202.071 37.6088 202.078 37.9065C202.185 40.4013 200.47 42.0243 199.229 43.8671C198.613 44.7743 197.776 45.5397 197.216 46.4753C196.735 47.2762 195.926 47.7439 195.487 48.6086C195.005 49.5654 194.02 50.1891 193.403 51.1672C192.702 52.2941 191.433 53.0808 190.405 54.0022C189.831 54.5196 189.208 54.9803 188.662 55.5189C186.876 57.2695 186.883 57.2837 183.552 58.2051C183.552 56.5183 183.814 55.0441 185.047 53.8179C185.763 53.1021 186.607 52.4997 186.961 51.4436C187.11 50.9971 187.613 50.4726 188.052 50.3451C189.526 49.9198 190.15 48.5661 191.157 47.6589C191.724 47.1486 191.787 46.2485 192.815 45.965C193.375 45.8091 193.68 44.7956 194.148 44.2144C195.742 42.2441 197.379 40.3021 198.96 38.3176C199.527 37.6088 200.087 36.8576 200.455 36.0354C201.008 34.7668 201.802 33.732 203.071 32.7539Z" fill="white"/>
<path d="M107.454 36.2969C107.376 36.7079 107.398 37.4238 107.213 37.4805C105.966 37.8561 105.98 39.5217 104.52 39.791C102.684 40.1312 102.684 40.3934 100.594 39.465C99.977 39.1886 98.3469 39.6776 98.8643 37.9057C98.9139 37.7498 97.9713 37.3175 97.5106 36.9844C96.6742 36.389 96.5821 35.5739 97.2341 34.8227C97.546 34.4683 97.9004 34.1919 98.3115 34.6313C99.0202 35.3826 100.02 35.6236 100.82 36.1551C101.834 36.8284 102.826 36.4528 103.818 36.5166C104.109 36.5378 104.754 35.8787 104.697 35.737C104.343 34.7943 105.463 33.9226 104.768 32.987C104.69 32.8878 104.867 32.4342 105.03 32.3633C105.2 32.2853 105.612 32.3775 105.704 32.5263C106.448 33.7028 107.773 34.6242 107.454 36.2969Z" fill="white"/>
<path d="M116.773 25.9062C117.291 26.6646 117.829 27.4017 118.311 28.1813C118.545 28.5641 117.815 29.1027 118.453 29.4784C117.347 30.0737 117.723 31.3069 117.277 32.1432C116.809 33.0363 115.852 33.6671 114.973 34.5459C114.711 34.2128 114.498 33.8017 114.158 33.582C113.96 33.4544 113.527 33.7379 113.251 33.66C112.634 33.4757 112.053 33.1638 111.444 32.9441C110.997 32.7882 110.529 32.689 110.069 32.5685C110.423 32.285 110.664 32.0511 110.154 31.6259C109.487 31.0659 108.878 30.421 108.297 29.7689C108.098 29.5421 108.056 29.1807 107.942 28.883C108.417 28.8405 109.296 28.7129 109.31 28.7625C109.587 30.102 111.004 29.8752 111.734 30.5698C112.889 31.6755 114.186 31.0518 115.42 30.7187C115.618 30.662 115.824 30.2367 115.838 29.9745C115.873 29.372 115.987 28.883 116.327 28.316C116.653 27.7703 117.291 26.9339 115.93 26.1685C116.214 26.0763 116.497 25.9913 116.773 25.9062Z" fill="white"/>
<path d="M115.129 40.1449C114.654 40.6482 114.37 40.9458 114.087 41.2435C113.477 40.6269 112.62 41.0025 111.982 40.7332C111.408 40.4922 110.919 39.8544 110.6 39.2732C110.047 38.2809 109.565 37.2462 109.289 36.1193C109.189 35.7294 108.736 35.3325 109.232 35.0561C109.53 34.886 110.153 34.9286 110.43 35.1412C111.124 35.6727 111.819 36.2752 112.287 36.9981C112.832 37.8486 114.555 38.0045 113.917 39.6063C113.917 39.6205 114.547 39.8898 115.129 40.1449Z" fill="white"/>
<path d="M141.487 109.503C141.714 109.73 141.977 109.879 142.069 110.105C142.515 111.183 141.962 112.607 142.87 113.444C143.911 114.415 142.749 115.875 143.841 116.718C143.685 116.916 143.437 117.094 143.394 117.32C143.359 117.519 143.203 118.086 143.819 117.795C143.961 117.732 144.067 117.597 144.422 117.306C144.422 117.909 144.443 118.32 144.415 118.724C144.365 119.447 144.521 120.007 145.088 120.581C145.705 121.204 146.045 122.105 146.541 122.863C147.696 124.642 148.412 124.734 150.255 123.543C152.133 122.324 153.09 120.453 153.919 118.504C154.528 117.087 154.826 115.513 155.577 114.188C156.102 113.259 156.3 112.239 155.96 111.516C155.641 110.842 155.868 110.481 156.074 110.07C156.789 108.631 157.229 108.624 158.171 109.935C159.915 112.366 160.255 114.152 159.206 116.654C158.448 118.454 157.42 120.134 156.641 121.927C155.691 124.124 153.94 125.627 152.331 127.264C150.552 127.477 148.873 128.71 146.98 127.711C146.746 127.583 146.385 127.675 146.087 127.697C145.896 127.711 145.712 127.775 145.527 127.817C145.74 126.534 144.138 127.009 143.798 125.932C143.288 124.33 141.714 123.019 141.395 121.417C141.112 119.964 140.665 118.454 140.715 116.916C140.736 116.215 140.722 115.506 140.722 114.804C140.722 114.103 140.906 113.323 140.672 112.714C140.403 112.019 141.622 111.665 140.899 110.92C140.757 110.786 141.268 110.006 141.487 109.503Z" fill="white"/>
<path d="M174.211 105.911C175.238 107.456 176.911 108.639 176.677 110.737C177.846 112.084 177.542 114.09 178.789 115.408C179.08 115.713 179.292 116.095 179.583 116.393C180.292 117.102 180.717 117.116 181.567 116.542C182.042 116.216 182.836 116.01 182.964 115.585C183.325 114.387 184.487 113.948 185.062 113.012C185.529 112.254 186.125 111.403 186.132 110.581C186.153 109.015 187.202 107.782 187.273 106.272C187.28 106.06 187.613 105.882 187.67 105.656C187.854 104.975 188.067 104.302 188.896 104.259C189.399 104.231 190.285 105.415 190.427 106.123C190.93 108.774 191.001 108.802 190.406 110.425C189.931 111.722 189.725 113.126 188.697 114.217C188.159 114.791 187.904 115.628 187.556 116.372C187.237 117.045 186.444 117.024 185.997 117.775C184.934 119.575 182.829 120.043 180.915 120.631C179.455 119.753 177.095 120.412 176.486 118.066C174.983 116.833 174.934 115.068 174.459 113.353C173.778 110.844 174.289 108.413 174.211 105.911Z" fill="white"/>
<path d="M166.816 114.727C167.731 115.811 167.454 117.299 168.574 118.15C168.808 118.327 168.744 118.958 168.73 119.376C168.702 120.262 168.666 121.112 169.524 121.708C169.687 121.821 169.765 122.14 169.793 122.374C169.984 124.323 170.14 126.279 170.339 128.228C170.388 128.717 170.552 129.199 170.658 129.681C170.729 130.007 170.743 130.347 170.87 130.652C171.345 131.793 169.786 132.651 170.622 134.033C171.175 134.94 170.849 136.4 170.835 137.619C170.835 138.002 170.615 138.406 170.417 138.76C170.346 138.888 169.992 139.008 169.885 138.945C168.829 138.285 167.646 137.733 166.823 136.854C166.349 136.351 165.93 135.486 166.065 134.536C166.207 133.586 166.264 132.566 166.051 131.644C165.845 130.773 166.221 129.88 166.03 129.185C165.3 126.527 165.689 123.855 165.569 121.19C164.322 119.659 165.413 118.121 165.619 116.612C165.718 115.953 166.384 115.379 166.816 114.727Z" fill="white"/>
<path d="M172.255 146.515C172.857 148.131 172.247 149.385 171.354 150.37C170.369 151.462 168.952 152.185 167.506 152.298C165.989 152.419 164.394 152.695 162.885 152.057C162.353 151.83 161.836 152.865 161.205 152.015C160.829 151.511 160.142 151.235 159.589 150.874C159.249 150.647 158.859 150.484 158.54 150.236C158.214 149.981 157.796 149.697 157.669 149.343C157.151 147.883 156.683 146.401 156.301 144.899C156.201 144.523 156.442 144.041 156.598 143.63C157.038 142.482 157.087 141.121 158.278 140.37C158.476 140.242 158.739 140.221 159.235 140.072C159.235 140.88 159.249 141.554 159.228 142.22C159.214 142.751 159.214 143.24 159.717 143.616C159.965 143.8 160.185 144.126 160.277 144.431C161.071 147.216 162.169 147.996 164.841 148.166C167.031 148.301 168.902 147.387 170.887 146.791C171.347 146.657 171.829 146.6 172.255 146.515Z" fill="white"/>
</svg>
