<svg width="237" height="276" viewBox="0 0 237 276" fill="none" xmlns="http://www.w3.org/2000/svg">
<path d="M185.07 160.661C185.73 161.375 186.38 162.089 187.05 162.794C187.24 163 187.52 163.348 187.7 163.321C188.93 163.142 189.15 163.982 189.56 164.66C190.68 166.525 191.86 168.364 192.91 170.256C194.03 172.282 195 174.371 196.07 176.415C196.93 178.057 198.07 179.601 198.25 181.485C200.11 183.859 200.63 186.76 202.07 189.303C202.91 190.794 203.44 192.427 204.17 193.98C204.48 194.641 204.95 195.248 205.33 195.855C207.58 195.194 209.57 194.239 211.71 193.561C213.61 192.954 215.34 191.919 217.21 191.214C219.01 190.535 220.57 189.259 222.79 189.553C223.43 189.643 223.91 188.375 224.89 189.071C225.58 187.518 226.5 189.491 227.26 188.955C227.32 189.125 227.49 189.375 227.42 189.455C226.89 190.044 227.18 190.366 227.79 190.678C227.92 190.74 227.96 191.222 227.9 191.249C226.68 191.758 227.23 192.66 227.69 193.061C229.01 194.204 228.39 195.15 227.94 196.426C226.76 199.791 224.75 202.835 223.56 206.173C222.6 208.842 221.37 211.394 219.48 213.635C218.88 214.349 219.28 214.813 219.66 215.17C222.2 217.58 223.82 220.454 225.27 223.444C225.53 223.98 225.86 224.524 226.3 224.935C226.94 225.533 227.58 226.077 227.62 226.987C227.63 227.255 227.83 227.559 228.04 227.773C229.96 229.701 231.11 232.084 232.77 234.155C233.84 235.494 234.38 237.207 236.25 238.073C236.71 238.287 236.88 239.367 236.83 240.028C236.77 240.697 235.64 241.081 234.57 240.947C234.17 240.902 233.78 240.76 233.39 240.653C231.59 240.171 229.77 239.715 227.98 239.189C226.91 238.876 225.83 239.082 224.91 239.385C223.34 239.903 221.94 239.412 220.51 239.144C219.4 238.93 218.35 238.484 217.29 238.127C216.44 237.841 215.66 238.26 215.7 239.055C215.74 239.894 215.98 240.733 215.99 241.572C216 242.223 216.45 243.054 215.28 243.437C215.09 243.5 215.01 244.535 215.19 244.624C216.13 245.089 215.6 245.713 215.53 246.258C215.23 248.543 214.9 250.828 214.56 253.113C214.4 254.184 214.84 255.201 214.57 256.335C213.9 259.12 213.51 261.967 213.02 264.787C212.86 265.689 212.76 266.59 212.61 267.492C212.45 268.438 212.28 269.384 212.06 270.312C211.94 270.803 211.7 271.267 211.51 271.74C211.41 271.999 211.29 272.249 211.18 272.508L210.55 274.49C209.98 274.686 209.4 274.891 208.72 275.123C208.67 274.695 208.73 274.177 208.53 273.749C208.39 273.436 207.78 273.294 207.64 272.981C207.47 272.588 207.72 272.017 207.5 271.687C207.23 271.285 206.62 271.08 206.22 270.732C204.86 269.563 203.96 268.099 203.08 266.626C201.99 264.823 200.91 263.02 199.85 261.217C198.15 258.325 196.45 255.424 194.77 252.515C194.51 252.06 194.28 251.586 194.08 251.104C192.97 248.427 191.3 246.017 189.82 243.5C188.61 241.447 186.79 239.733 186.16 237.082C184.24 239.055 182.65 240.626 181.13 242.25C179.34 244.16 177.54 246.053 175.54 247.802C174.09 249.069 172.77 250.462 171.3 251.738C169.73 253.095 167.85 253.952 166.09 255.023C165.2 255.567 164.17 255.969 163.09 255.701C162.25 255.496 161.5 255.032 160.73 254.684C160.98 254.148 162.06 254.916 161.83 253.621C161.61 252.381 161.14 250.962 162 249.56C162.68 248.445 162.61 246.981 163.19 245.803C164.43 243.303 164.61 240.572 165.54 238.011C166.83 234.485 168 230.924 169.19 227.371C169.67 225.943 170.04 224.497 170.5 222.935C167.83 222.132 165.14 221.302 162.45 220.507C159.75 219.713 157.03 218.954 154.32 218.169C153.39 217.901 152.48 217.473 151.54 217.401C150.39 217.312 149.62 217.098 149.48 215.946C149.44 215.598 149.17 215.277 149 214.947C149.5 214.768 150.37 214.661 150.45 214.384C150.98 212.564 152.73 211.787 154.19 210.868C155.79 209.868 157.6 209.136 159.37 208.369C162.82 206.869 166.29 205.423 169.76 203.959C169.99 203.861 170.19 203.709 170.42 203.656C172.08 203.29 173.75 202.951 175.37 202.603C175.28 201.915 175.2 201.353 175.12 200.791C175.25 200.773 175.42 200.71 175.51 200.764C175.64 200.835 175.71 200.987 175.91 201.246C175.98 200.71 176.24 200.193 176.06 199.907C175.42 198.907 175.65 197.997 175.96 196.971C176.46 195.284 176.92 193.561 177.04 191.829C177.25 188.75 178.5 185.867 179.01 182.85C179.4 180.539 180.17 178.289 180.57 175.978C181.22 172.247 181.82 168.507 182.95 164.856C183.1 164.374 183.2 163.776 183.02 163.33C182.8 162.776 182.82 162.455 183.27 162.018C183.64 161.661 183.81 161.125 184.07 160.679C184.4 160.661 184.74 160.661 185.07 160.661ZM176.53 216.857C177.46 216.25 177 215.5 176.61 214.768C176.61 215.491 176.61 216.205 176.61 216.928C176.43 217.196 176.16 217.446 176.09 217.74C176.03 217.99 176.19 218.276 176.25 218.553C176.34 218.544 176.43 218.535 176.52 218.517C176.53 217.955 176.53 217.41 176.53 216.857ZM190.03 175.87C190.26 175.014 189.79 174.335 189.29 173.675C189.24 173.603 188.96 173.594 188.84 173.648C188.73 173.702 188.6 173.934 188.65 173.996C189.11 174.621 189.61 175.219 190.1 175.826C189.79 177.727 190.96 179.351 191.35 181.128C191.57 182.127 191.9 183.1 192.19 184.091C194 184.751 193.92 186.456 194.59 187.706C195.58 189.527 196.56 191.419 196.98 193.382C197.41 195.409 198.26 196.837 200.65 197.533C199.84 195.775 199.08 194.105 198.3 192.436C197.58 190.883 196.69 189.384 196.12 187.795C194.71 183.832 192.54 180.164 190.76 176.343C190.66 176.129 190.28 176.022 190.03 175.87ZM189.76 221.079C188.9 222.266 188.85 222.417 189.39 223.194C189.78 223.756 190.22 224.283 190.68 224.801C192.3 226.675 194.18 227.907 197 226.773C197.21 226.684 197.5 226.764 197.74 226.72C199.87 226.291 202.12 226.068 203.53 224.274C203.71 224.042 204 223.756 204.28 223.712C205.67 223.471 205.44 222.248 206.02 221.516C206.08 221.436 206.03 221.168 205.94 221.123C205.75 221.025 205.47 220.936 205.3 220.998C204.92 221.132 204.53 221.32 204.25 221.57C203.41 222.355 202.35 222.551 201.21 222.828C200.43 223.016 199.48 222.614 199.03 223.06C198.13 223.944 196.98 223.792 195.95 224.131C194.9 224.479 194.32 224.238 193.85 223.614C193.18 222.712 192.29 222.185 191.21 221.811C190.7 221.641 190.24 221.329 189.76 221.079ZM193.15 203.513C193.31 204.37 193.5 205.057 193.55 205.762C193.7 207.521 194.13 209.225 194.95 210.823C195.37 211.644 195.47 212.474 195.6 213.358C195.92 215.598 196.82 217.616 199.01 219.249C199.26 218.731 199.58 218.392 199.54 218.098C199.33 216.509 199.06 214.929 198.75 213.358C198.16 210.422 196.74 207.726 195.57 204.959C195.17 204.013 194.34 203.718 193.15 203.513ZM185.07 209.511C184.74 211.091 186.16 212.171 187.01 213.474C187.81 213.394 188.34 213.983 189.01 214.143C190.08 214.393 191.16 213.447 191.01 212.483C190.91 211.841 190.82 211.171 190.52 210.591C189.84 209.27 189.05 207.958 187.66 207.11C186.45 206.369 185.26 206.914 185.06 208.244C185.02 208.601 185.07 208.976 185.07 209.511ZM203.68 204.843C201.9 204.861 201.16 205.503 201.61 206.673C202.19 208.172 203.02 209.591 204.63 210.413C205.03 210.618 205.75 210.529 206.21 210.35C206.57 210.207 207.08 209.618 206.99 209.413C206.47 208.217 206.6 206.824 205.46 205.789C204.87 205.271 204.56 204.548 203.68 204.843ZM186.57 168.757C186.3 170.444 186.4 170.595 188.26 171.756C187.61 170.595 187.09 169.676 186.57 168.757ZM167.24 247.284C167.01 248.088 166.79 248.9 166.48 249.98C168.04 248.846 168.04 248.846 167.24 247.284Z" fill="#FF9737"/>
<path d="M36.0701 103.537C36.7301 104.251 37.3801 104.965 38.05 105.67C38.24 105.876 38.5201 106.224 38.7001 106.197C39.9301 106.018 40.1501 106.857 40.5601 107.536C41.6801 109.401 42.86 111.24 43.91 113.132C45.03 115.158 46.0001 117.247 47.0701 119.291C47.9301 120.933 49.07 122.477 49.25 124.361C51.11 126.735 51.6301 129.636 53.0701 132.179C53.9101 133.67 54.44 135.303 55.17 136.856C55.48 137.517 55.9501 138.124 56.3301 138.731C58.5801 138.07 60.5701 137.115 62.7101 136.437C64.6101 135.83 66.3401 134.795 68.2101 134.09C70.0101 133.411 71.57 132.135 73.79 132.429C74.43 132.519 74.91 131.251 75.89 131.947C76.58 130.394 77.5 132.367 78.26 131.831C78.32 132.001 78.49 132.251 78.42 132.331C77.89 132.92 78.18 133.242 78.79 133.554C78.92 133.616 78.96 134.098 78.9 134.125C77.68 134.634 78.2301 135.536 78.6901 135.937C80.0101 137.08 79.3901 138.026 78.9401 139.302C77.7601 142.667 75.7501 145.711 74.5601 149.049C73.6001 151.718 72.3701 154.27 70.4801 156.511C69.8801 157.225 70.28 157.689 70.66 158.046C73.2 160.456 74.82 163.33 76.27 166.32C76.53 166.855 76.86 167.4 77.3 167.811C77.94 168.409 78.58 168.953 78.62 169.863C78.63 170.131 78.83 170.435 79.04 170.649C80.96 172.577 82.11 174.96 83.77 177.031C84.84 178.37 85.38 180.083 87.25 180.949C87.71 181.163 87.8801 182.243 87.8301 182.904C87.7701 183.573 86.6401 183.957 85.5701 183.823C85.1701 183.778 84.78 183.636 84.39 183.529C82.59 183.047 80.7701 182.591 78.9801 182.065C77.9101 181.752 76.83 181.958 75.91 182.261C74.34 182.779 72.94 182.288 71.51 182.02C70.4 181.806 69.35 181.36 68.29 181.003C67.44 180.717 66.6601 181.136 66.7001 181.931C66.7401 182.77 66.98 183.609 66.99 184.448C67 185.099 67.45 185.93 66.28 186.313C66.09 186.376 66.0101 187.411 66.1901 187.5C67.1301 187.965 66.6 188.589 66.53 189.134C66.23 191.419 65.9001 193.704 65.5601 195.989C65.4001 197.06 65.8401 198.077 65.5701 199.211C64.9001 201.996 64.51 204.843 64.02 207.663C63.86 208.565 63.76 209.466 63.61 210.368C63.45 211.314 63.2801 212.26 63.0601 213.188C62.9401 213.679 62.7 214.143 62.51 214.616C62.41 214.875 62.2901 215.125 62.1801 215.384L61.55 217.366C60.98 217.562 60.4001 217.767 59.7201 217.999C59.6701 217.571 59.73 217.053 59.53 216.625C59.39 216.312 58.78 216.17 58.64 215.857C58.47 215.464 58.72 214.893 58.5 214.563C58.23 214.161 57.6201 213.956 57.2201 213.608C55.8601 212.439 54.9601 210.975 54.0801 209.502C52.9901 207.699 51.9101 205.896 50.8501 204.093C49.1501 201.201 47.45 198.3 45.77 195.391C45.51 194.935 45.2801 194.462 45.0801 193.98C43.9701 191.303 42.3001 188.893 40.8201 186.376C39.6101 184.323 37.79 182.609 37.16 179.958C35.24 181.931 33.65 183.502 32.13 185.126C30.34 187.036 28.54 188.929 26.54 190.678C25.09 191.945 23.77 193.338 22.3 194.614C20.73 195.971 18.8501 196.828 17.0901 197.899C16.2001 198.443 15.1701 198.845 14.0901 198.577C13.2501 198.372 12.5001 197.908 11.7301 197.56C11.9801 197.024 13.0601 197.792 12.8301 196.497C12.6101 195.257 12.14 193.838 13 192.436C13.68 191.321 13.6101 189.857 14.1901 188.679C15.4301 186.179 15.61 183.448 16.54 180.887C17.83 177.361 19.0001 173.8 20.1901 170.247C20.6701 168.819 21.04 167.373 21.5 165.811C18.83 165.008 16.1401 164.178 13.4501 163.383C10.7501 162.589 8.03007 161.83 5.32007 161.045C4.39007 160.777 3.48004 160.349 2.54004 160.277C1.39004 160.188 0.620103 159.974 0.480103 158.822C0.440103 158.474 0.17 158.153 0 157.823C0.5 157.644 1.37007 157.537 1.45007 157.26C1.98007 155.44 3.73006 154.663 5.19006 153.744C6.79006 152.744 8.59999 152.012 10.37 151.245C13.82 149.745 17.29 148.299 20.76 146.835C20.99 146.737 21.19 146.585 21.42 146.532C23.08 146.166 24.75 145.827 26.37 145.479C26.28 144.791 26.2 144.229 26.12 143.667C26.25 143.649 26.42 143.586 26.51 143.64C26.64 143.711 26.71 143.863 26.91 144.122C26.98 143.586 27.2401 143.069 27.0601 142.783C26.4201 141.783 26.6501 140.873 26.9601 139.847C27.4601 138.16 27.92 136.437 28.04 134.705C28.25 131.626 29.5 128.743 30.01 125.726C30.4 123.415 31.1701 121.165 31.5701 118.854C32.2201 115.123 32.8201 111.383 33.9501 107.732C34.1001 107.25 34.2 106.652 34.02 106.206C33.8 105.652 33.82 105.331 34.27 104.894C34.64 104.537 34.8101 104.001 35.0701 103.555C35.4001 103.537 35.7401 103.537 36.0701 103.537ZM27.53 159.733C28.46 159.126 28 158.376 27.61 157.644C27.61 158.367 27.61 159.081 27.61 159.804C27.43 160.072 27.1601 160.322 27.0901 160.616C27.0301 160.866 27.19 161.152 27.25 161.429C27.34 161.42 27.43 161.411 27.52 161.393C27.53 160.831 27.53 160.286 27.53 159.733ZM41.03 118.746C41.26 117.89 40.79 117.211 40.29 116.551C40.24 116.479 39.9601 116.47 39.8401 116.524C39.7301 116.577 39.6 116.81 39.65 116.872C40.11 117.497 40.6101 118.095 41.1001 118.702C40.7901 120.603 41.9601 122.227 42.3501 124.004C42.5701 125.003 42.9001 125.976 43.1901 126.967C45.0001 127.627 44.9201 129.332 45.5901 130.582C46.5801 132.403 47.5601 134.295 47.9801 136.258C48.4101 138.285 49.26 139.713 51.65 140.409C50.84 138.65 50.08 136.981 49.3 135.312C48.58 133.759 47.69 132.26 47.12 130.671C45.71 126.708 43.54 123.04 41.76 119.219C41.66 119.005 41.28 118.898 41.03 118.746ZM40.76 163.955C39.9 165.142 39.85 165.293 40.39 166.07C40.78 166.632 41.2201 167.159 41.6801 167.677C43.3001 169.551 45.18 170.783 48 169.649C48.21 169.56 48.5 169.64 48.74 169.596C50.87 169.167 53.12 168.944 54.53 167.15C54.71 166.918 55 166.632 55.28 166.588C56.67 166.347 56.44 165.124 57.02 164.392C57.08 164.312 57.0301 164.044 56.9401 163.999C56.7501 163.901 56.47 163.812 56.3 163.874C55.92 164.008 55.53 164.196 55.25 164.446C54.41 165.231 53.3501 165.427 52.2101 165.704C51.4301 165.892 50.48 165.49 50.03 165.936C49.13 166.82 47.9801 166.668 46.9501 167.007C45.9001 167.355 45.3201 167.114 44.8501 166.49C44.1801 165.588 43.2901 165.061 42.2101 164.687C41.7001 164.517 41.24 164.205 40.76 163.955ZM44.15 146.389C44.31 147.246 44.5 147.933 44.55 148.638C44.7001 150.397 45.1301 152.101 45.9501 153.699C46.3701 154.52 46.4701 155.35 46.6001 156.234C46.9201 158.474 47.82 160.492 50.01 162.125C50.26 161.607 50.58 161.268 50.54 160.974C50.33 159.385 50.06 157.805 49.75 156.234C49.16 153.297 47.7401 150.602 46.5701 147.835C46.1701 146.889 45.34 146.594 44.15 146.389ZM36.0701 152.387C35.7401 153.967 37.16 155.047 38.01 156.35C38.81 156.27 39.34 156.859 40.01 157.019C41.08 157.269 42.16 156.323 42.01 155.359C41.91 154.717 41.82 154.047 41.52 153.467C40.84 152.146 40.05 150.834 38.66 149.986C37.45 149.245 36.2601 149.79 36.0601 151.12C36.0201 151.477 36.0701 151.852 36.0701 152.387ZM54.6801 147.719C52.9001 147.737 52.16 148.379 52.61 149.549C53.19 151.048 54.02 152.467 55.63 153.289C56.03 153.494 56.7501 153.405 57.2101 153.226C57.5701 153.083 58.08 152.494 57.99 152.289C57.47 151.093 57.6001 149.7 56.4601 148.665C55.8701 148.147 55.5601 147.424 54.6801 147.719ZM37.5701 111.633C37.3001 113.32 37.4 113.471 39.26 114.632C38.61 113.471 38.0901 112.552 37.5701 111.633ZM18.24 190.16C18.01 190.964 17.7901 191.776 17.4801 192.856C19.0401 191.722 19.04 191.722 18.24 190.16Z" fill="#F2DFBF"/>
<path d="M146.07 0C146.73 0.71405 147.38 1.42811 148.05 2.13324C148.24 2.33853 148.52 2.68665 148.7 2.65987C149.93 2.48136 150.15 3.32037 150.56 3.99871C151.68 5.86417 152.86 7.70281 153.91 9.59504C155.03 11.6212 156 13.7098 157.07 15.7537C157.93 17.3961 159.07 18.9402 159.25 20.8235C161.11 23.1977 161.63 26.0985 163.07 28.6423C163.91 30.1329 164.44 31.7663 165.17 33.3194C165.48 33.9799 165.95 34.5868 166.33 35.1937C168.58 34.5332 170.57 33.5782 172.71 32.8999C174.61 32.2929 176.34 31.2576 178.21 30.5524C180.01 29.8741 181.57 28.5977 183.79 28.8922C184.43 28.9815 184.91 27.7141 185.89 28.4103C186.58 26.8572 187.5 28.8298 188.26 28.2942C188.32 28.4638 188.49 28.7137 188.42 28.7941C187.89 29.3832 188.18 29.7045 188.79 30.0169C188.92 30.0793 188.96 30.5613 188.9 30.5881C187.68 31.0969 188.23 31.9984 188.69 32.4C190.01 33.5425 189.39 34.4886 188.94 35.765C187.76 39.1299 185.75 42.1735 184.56 45.5117C183.6 48.1805 182.37 50.7333 180.48 52.9736C179.88 53.6876 180.28 54.1517 180.66 54.5088C183.2 56.9187 184.82 59.7928 186.27 62.7828C186.53 63.3184 186.86 63.8628 187.3 64.2734C187.94 64.8714 188.58 65.4159 188.62 66.3263C188.63 66.594 188.83 66.8975 189.04 67.1117C190.96 69.0397 192.11 71.4228 193.77 73.4936C194.84 74.8324 195.38 76.5462 197.25 77.4119C197.71 77.6262 197.88 78.7062 197.83 79.3667C197.77 80.0361 196.64 80.4199 195.57 80.286C195.17 80.2413 194.78 80.0985 194.39 79.9914C192.59 79.5094 190.77 79.0543 188.98 78.5276C187.91 78.2152 186.83 78.4205 185.91 78.724C184.34 79.2417 182.94 78.7507 181.51 78.483C180.4 78.2688 179.35 77.8225 178.29 77.4655C177.44 77.1799 176.66 77.5994 176.7 78.3937C176.74 79.2327 176.98 80.0718 176.99 80.9108C177 81.5623 177.45 82.3924 176.28 82.7762C176.09 82.8387 176.01 83.8741 176.19 83.9633C177.13 84.4275 176.6 85.0523 176.53 85.5967C176.23 87.8817 175.9 90.1666 175.56 92.4516C175.4 93.5227 175.84 94.5402 175.57 95.6737C174.9 98.4585 174.51 101.306 174.02 104.126C173.86 105.028 173.76 105.929 173.61 106.831C173.45 107.777 173.28 108.723 173.06 109.651C172.94 110.142 172.7 110.606 172.51 111.079C172.41 111.338 172.29 111.588 172.18 111.847L171.55 113.828C170.98 114.025 170.4 114.23 169.72 114.462C169.67 114.034 169.73 113.516 169.53 113.088C169.39 112.775 168.78 112.632 168.64 112.32C168.47 111.927 168.72 111.356 168.5 111.026C168.23 110.624 167.62 110.419 167.22 110.071C165.86 108.901 164.96 107.438 164.08 105.965C162.99 104.162 161.91 102.359 160.85 100.556C159.15 97.6642 157.45 94.7633 155.77 91.8536C155.51 91.3984 155.28 90.9253 155.08 90.4433C153.97 87.7656 152.3 85.3557 150.82 82.8387C149.61 80.7858 147.79 79.0721 147.16 76.4212C145.24 78.3937 143.65 79.9647 142.13 81.5891C140.34 83.4992 138.54 85.3914 136.54 87.1408C135.09 88.4083 133.77 89.8007 132.3 91.0771C130.73 92.4338 128.85 93.2906 127.09 94.3617C126.2 94.9062 125.17 95.3078 124.09 95.04C123.25 94.8348 122.5 94.3706 121.73 94.0225C121.98 93.487 123.06 94.2546 122.83 92.9604C122.61 91.7197 122.14 90.3005 123 88.8992C123.68 87.7835 123.61 86.3197 124.19 85.1415C125.43 82.6423 125.61 79.9111 126.54 77.3495C127.83 73.8238 129 70.2625 130.19 66.7101C130.67 65.282 131.04 63.8361 131.5 62.2741C128.83 61.4708 126.14 60.6407 123.45 59.8463C120.75 59.0519 118.03 58.2932 115.32 57.5078C114.39 57.24 113.48 56.8116 112.54 56.7402C111.39 56.6509 110.62 56.4367 110.48 55.2853C110.44 54.9372 110.17 54.6159 110 54.2856C110.5 54.1071 111.37 54 111.45 53.7233C111.98 51.9025 113.73 51.126 115.19 50.2066C116.79 49.2069 118.6 48.4751 120.37 47.7075C123.82 46.2079 127.29 44.762 130.76 43.2982C130.99 43.2 131.19 43.0483 131.42 42.9948C133.08 42.6288 134.75 42.2896 136.37 41.9415C136.28 41.2542 136.2 40.6919 136.12 40.1296C136.25 40.1118 136.42 40.0493 136.51 40.1028C136.64 40.1742 136.71 40.326 136.91 40.5848C136.98 40.0493 137.24 39.5316 137.06 39.246C136.42 38.2463 136.65 37.3359 136.96 36.3094C137.46 34.6225 137.92 32.8999 138.04 31.1683C138.25 28.089 139.5 25.206 140.01 22.1891C140.4 19.8774 141.17 17.6281 141.57 15.3164C142.22 11.5855 142.82 7.84563 143.95 4.19505C144.1 3.71307 144.2 3.11503 144.02 2.66875C143.8 2.11536 143.82 1.79407 144.27 1.35671C144.64 0.999687 144.81 0.46415 145.07 0.0178687C145.4 1.74333e-05 145.74 0 146.07 0ZM137.53 56.1957C138.46 55.5888 138 54.839 137.61 54.1071C137.61 54.8301 137.61 55.5442 137.61 56.2671C137.43 56.5349 137.16 56.7848 137.09 57.0794C137.03 57.3293 137.19 57.6149 137.25 57.8916C137.34 57.8827 137.43 57.8737 137.52 57.8559C137.53 57.2936 137.53 56.7491 137.53 56.1957ZM151.03 15.2093C151.26 14.3524 150.79 13.6741 150.29 13.0136C150.24 12.9422 149.96 12.9333 149.84 12.9868C149.73 13.0404 149.6 13.2724 149.65 13.3349C150.11 13.9597 150.61 14.5577 151.1 15.1646C150.79 17.0658 151.96 18.6902 152.35 20.4664C152.57 21.4661 152.9 22.439 153.19 23.4298C155 24.0903 154.92 25.7951 155.59 27.0447C156.58 28.8655 157.56 30.7577 157.98 32.7214C158.41 34.7475 159.26 36.1755 161.65 36.8717C160.84 35.1134 160.08 33.4443 159.3 31.7752C158.58 30.2222 157.69 28.7227 157.12 27.1339C155.71 23.1709 153.54 19.5025 151.76 15.6823C151.66 15.4681 151.28 15.361 151.03 15.2093ZM150.76 60.4175C149.9 61.6046 149.85 61.7564 150.39 62.5329C150.78 63.0952 151.22 63.6219 151.68 64.1395C153.3 66.0139 155.18 67.2456 158 66.1121C158.21 66.0228 158.5 66.1031 158.74 66.0585C160.87 65.6301 163.12 65.407 164.53 63.6129C164.71 63.3808 165 63.0952 165.28 63.0506C166.67 62.8096 166.44 61.5868 167.02 60.8549C167.08 60.7745 167.03 60.5068 166.94 60.4621C166.75 60.364 166.47 60.2747 166.3 60.3372C165.92 60.4711 165.53 60.6585 165.25 60.9084C164.41 61.6939 163.35 61.8903 162.21 62.167C161.43 62.3544 160.48 61.9528 160.03 62.399C159.13 63.2827 157.98 63.131 156.95 63.4701C155.9 63.8182 155.32 63.5772 154.85 62.9524C154.18 62.0509 153.29 61.5243 152.21 61.1494C151.7 60.9798 151.24 60.6674 150.76 60.4175ZM154.15 42.8519C154.31 43.7088 154.5 44.3961 154.55 45.1012C154.7 46.8595 155.13 48.5643 155.95 50.162C156.37 50.9832 156.47 51.8133 156.6 52.6969C156.92 54.9372 157.82 56.9544 160.01 58.5878C160.26 58.0701 160.58 57.7309 160.54 57.4364C160.33 55.8476 160.06 54.2678 159.75 52.6969C159.16 49.7604 157.74 47.0648 156.57 44.2979C156.17 43.3517 155.34 43.0572 154.15 42.8519ZM146.07 48.85C145.74 50.4298 147.16 51.5098 148.01 52.8129C148.81 52.7326 149.34 53.3217 150.01 53.4824C151.08 53.7323 152.16 52.7861 152.01 51.8222C151.91 51.1795 151.82 50.5101 151.52 49.9299C150.84 48.6089 150.05 47.2969 148.66 46.449C147.45 45.7081 146.26 46.2526 146.06 47.5825C146.02 47.9395 146.07 48.3144 146.07 48.85ZM164.68 44.1818C162.9 44.1997 162.16 44.8424 162.61 46.0116C163.19 47.5111 164.02 48.9302 165.63 49.7514C166.03 49.9567 166.75 49.8675 167.21 49.689C167.57 49.5462 168.08 48.957 167.99 48.7517C167.47 47.5557 167.6 46.1633 166.46 45.1279C165.87 44.6102 165.56 43.8873 164.68 44.1818ZM147.57 8.09554C147.3 9.78249 147.4 9.93421 149.26 11.0945C148.61 9.93421 148.09 9.01488 147.57 8.09554ZM128.24 86.6232C128.01 87.4265 127.79 88.2387 127.48 89.3187C129.04 88.1851 129.04 88.1852 128.24 86.6232Z" fill="#FFE48B"/>
</svg>
