<svg width="623" height="583" viewBox="0 0 623 583" fill="none" xmlns="http://www.w3.org/2000/svg">
<path d="M328.402 145.971C328.672 147.031 329.132 148.081 329.182 149.151C329.292 151.831 329.232 154.511 329.202 157.201C329.192 157.891 329.172 158.621 328.952 159.251C328.732 159.881 326.802 160.071 327.862 160.791C328.952 161.521 329.242 163.541 331.332 163.021C333.032 162.601 334.942 163.451 336.642 162.261C337.122 161.921 338.162 161.921 338.702 162.211C340.562 163.231 342.612 162.861 344.462 162.831C346.332 162.791 348.202 162.951 350.062 162.971C353.012 162.991 355.932 163.471 358.902 163.091C359.892 162.961 360.972 163.661 362.032 163.831C362.872 163.971 363.632 162.871 364.652 163.761C365.222 164.251 366.162 164.391 366.952 164.501C367.662 164.601 368.512 164.211 369.132 164.461C371.452 165.401 372.862 164.391 373.962 162.491C373.292 162.021 371.782 161.961 373.062 160.561C376.692 156.571 380.992 153.881 386.552 153.631C386.822 153.621 387.162 153.611 387.342 153.451C389.842 151.371 392.472 152.091 395.122 153.051C395.372 153.141 395.662 153.561 395.802 153.501C400.322 151.591 403.432 155.411 407.262 156.291C408.672 156.621 409.592 157.911 410.522 158.791C414.312 162.401 417.872 166.311 420.492 170.861C422.322 174.041 423.582 177.541 425.132 180.881C425.272 181.191 425.682 181.541 425.982 181.561C426.222 181.571 426.632 181.161 426.732 180.861C427.112 179.651 427.332 178.391 427.772 177.211C427.862 176.961 429.022 176.841 429.042 176.881C430.002 179.701 433.042 177.301 434.392 179.031C436.652 177.211 437.102 179.931 438.212 180.921C438.562 180.231 439.302 179.851 439.522 179.991C439.922 180.241 440.322 180.571 440.762 180.641C441.072 180.691 441.642 180.171 441.762 180.281C442.402 180.851 442.932 181.541 443.502 182.191C444.182 179.781 444.922 182.001 445.602 182.191C446.522 182.451 447.412 182.791 448.292 183.151C449.172 183.511 450.012 183.991 450.912 184.311C452.072 184.721 453.712 184.671 454.332 185.461C455.172 186.521 456.022 186.951 457.082 186.681C458.292 186.381 457.692 189.101 459.462 187.801C460.722 186.881 460.442 189.131 461.462 189.291C462.532 189.461 463.582 189.811 464.612 190.171C465.512 190.491 466.402 190.871 467.232 191.321C468.192 191.841 469.032 192.751 470.042 193.001C472.362 193.571 474.412 194.591 476.332 195.941C479.022 197.821 481.732 199.681 484.392 201.601C485.052 202.081 485.552 202.801 486.362 203.651C485.622 204.171 484.962 204.541 484.442 205.051C484.202 205.291 484.032 205.951 484.182 206.191C485.842 208.721 485.412 208.721 485.502 211.781C485.592 214.631 484.002 216.841 483.882 219.701C489.362 220.291 495.042 220.881 500.702 221.531C502.482 221.741 504.392 221.791 505.952 222.531C507.752 223.391 509.512 223.031 511.292 223.241C513.772 223.521 516.252 223.821 518.722 224.171C519.392 224.261 519.162 226.201 520.642 225.041C521.172 224.621 522.292 225.021 523.122 224.871C523.562 224.791 524.002 224.411 524.312 224.041C526.352 221.631 528.342 219.181 530.382 216.771C532.432 214.351 535.372 213.351 538.172 212.251C539.792 211.611 541.792 211.851 543.332 211.111C544.632 210.481 544.522 211.171 544.922 211.841C545.302 212.461 545.762 213.461 546.772 212.351C546.932 212.171 547.592 212.221 547.872 212.411C550.152 213.941 552.732 215.191 553.232 218.391C553.352 219.141 554.012 219.811 554.442 220.551C554.672 220.111 554.912 219.651 555.152 219.191C555.332 219.501 555.752 219.951 555.662 220.091C554.762 221.521 555.902 222.951 555.632 224.311C555.182 226.591 555.032 229.151 553.842 231.011C550.962 235.531 548.912 240.611 545.082 244.521C544.392 245.231 544.292 246.951 542.702 245.611C542.532 245.861 542.302 246.081 542.192 246.351C541.332 248.411 540.322 250.331 538.202 251.441C537.602 251.761 537.162 252.381 536.622 252.841C535.502 253.801 534.712 254.901 532.872 255.141C531.482 255.321 530.122 256.671 528.492 257.231C526.842 257.791 525.262 257.891 523.622 258.031C521.652 258.201 519.822 259.011 517.672 258.081C515.532 257.151 515.382 257.501 514.592 254.391C514.542 254.191 514.472 253.871 514.362 253.851C511.952 253.311 512.502 251.421 512.482 249.791C512.462 248.661 512.312 247.511 512.452 246.401C512.602 245.191 512.992 244.011 513.322 242.831C513.802 241.101 515.612 242.391 516.752 241.171C515.722 240.821 514.782 240.151 514.022 240.311C509.542 241.261 505.072 241.991 500.462 241.851C498.982 241.801 497.482 242.221 495.992 242.431C495.722 242.471 495.362 242.691 495.222 242.591C493.162 241.111 490.832 242.181 488.662 241.831C487.882 241.701 486.912 241.471 486.452 240.931C485.472 239.761 484.902 242.621 483.902 241.001C483.112 239.701 481.992 241.221 480.952 241.061C479.732 240.871 478.382 240.921 477.232 241.301C476.662 241.491 476.062 242.681 476.092 243.391C476.192 246.031 475.162 248.181 473.852 250.361C472.592 252.461 471.512 254.701 470.582 256.981C468.262 262.631 463.832 266.731 460.192 271.391C457.992 274.201 455.282 276.451 451.342 277.181C451.492 276.671 451.672 276.211 451.752 275.731C451.962 274.431 450.902 274.941 450.512 275.071C449.222 275.471 448.422 277.181 446.802 276.651C443.282 275.521 439.452 275.661 436.102 273.751C433.532 272.291 430.902 270.921 428.142 269.781C425.712 268.771 423.392 267.421 421.712 265.271C419.782 262.801 418.002 260.201 415.892 257.891C414.852 256.751 414.932 255.621 414.992 254.401C415.022 253.891 415.732 253.311 415.622 252.911C415.222 251.431 415.992 249.811 415.562 248.641C414.922 246.891 412.882 248.051 411.462 247.831C408.592 247.391 406.012 245.951 403.222 245.341C396.682 243.911 390.642 240.691 383.882 240.121C383.612 240.101 383.322 240.061 383.082 239.951C379.992 238.451 380.002 238.441 377.262 238.621C377.142 238.631 377.032 238.781 376.652 239.071C378.192 239.231 379.492 239.371 380.792 239.511C380.792 239.651 380.792 239.801 380.792 239.941C380.012 240.031 379.232 240.141 378.452 240.191C376.312 240.341 375.052 240.991 375.092 242.861C375.152 245.751 373.332 246.361 371.272 246.881C370.532 247.071 369.642 247.231 370.022 248.061C370.732 249.601 370.712 250.231 369.112 248.991C368.032 248.151 367.202 248.161 365.912 248.201C364.882 248.231 364.592 248.401 364.942 249.011C365.652 250.251 365.172 250.441 364.112 250.281C362.612 250.051 360.692 250.191 359.752 249.321C358.532 248.181 357.062 248.421 355.882 247.701C354.602 246.921 353.362 246.091 352.112 245.281C352.992 245.071 353.212 244.461 352.622 243.891C352.042 243.331 351.422 243.551 351.252 244.451C350.392 243.981 350.082 242.621 348.462 243.441C346.802 244.281 344.912 241.851 343.032 243.321C341.852 242.181 340.842 243.151 339.642 243.381C337.452 243.781 335.182 244.211 332.862 243.641C331.822 243.381 330.562 243.481 329.552 243.841C328.442 244.251 327.582 244.601 326.402 243.951C325.932 243.691 325.042 244.181 325.312 245.301C325.832 247.451 325.632 249.481 325.152 251.741C324.442 255.021 325.012 258.581 325.042 262.731C325.672 261.531 325.922 261.061 326.312 260.311C326.732 262.231 326.772 263.761 325.902 265.391C325.342 266.441 325.182 267.741 325.002 268.961C324.842 270.061 326.862 268.621 326.692 270.501C326.362 274.291 326.582 278.121 326.552 281.941C326.552 282.341 326.452 282.741 326.362 283.501C325.972 282.791 325.742 282.391 325.382 281.731C324.662 283.151 324.842 284.441 325.232 285.661C325.392 286.171 326.392 284.561 326.522 285.891C326.592 286.531 326.162 287.201 326.092 287.881C325.992 288.821 325.982 289.771 326.002 290.721C326.012 291.081 326.402 291.661 326.292 291.761C324.262 293.561 324.682 294.741 327.132 295.531C327.282 295.581 327.442 296.081 327.362 296.261C326.142 298.801 327.742 301.311 327.432 303.811C327.092 306.521 327.812 309.171 327.582 311.911C327.412 313.891 328.212 315.941 328.562 317.971C328.792 319.321 329.152 320.671 329.132 322.021C329.112 323.771 328.772 325.521 328.572 327.271C331.092 327.661 329.352 330.191 330.572 331.321C330.902 331.631 330.852 332.741 330.562 333.261C329.942 334.381 329.922 334.911 331.302 335.391C332.182 335.701 332.902 336.501 332.212 337.771C332.002 338.171 332.372 338.951 332.602 339.501C333.512 341.661 334.582 343.751 335.372 345.941C336.132 348.041 337.232 350.061 337.142 352.431C337.112 353.271 338.922 353.241 338.422 354.531C338.322 354.781 338.252 355.041 338.172 355.301C337.992 355.031 337.872 354.691 337.622 354.501C337.462 354.381 336.972 354.381 336.912 354.491C336.782 354.711 336.792 355.051 336.852 355.311C336.952 355.701 337.172 356.061 337.312 356.441C337.732 357.581 338.192 358.711 338.552 359.871C338.932 361.081 339.702 361.361 340.832 361.021C341.452 362.681 342.082 364.351 342.682 366.021C342.772 366.271 342.732 366.581 342.712 366.861C342.622 368.151 342.522 369.441 342.432 370.731C344.572 371.451 343.262 373.341 343.742 374.631C344.212 375.901 344.592 377.231 344.862 378.561C345.112 379.771 345.242 381.021 345.252 382.261C345.252 382.671 344.822 383.331 344.442 383.461C343.122 383.891 343.352 384.851 343.172 385.881C343.052 386.601 342.842 388.241 341.062 387.011C340.142 386.381 338.472 386.861 337.502 386.251C334.162 384.171 331.062 381.851 329.112 378.171C327.702 375.511 325.652 373.191 323.662 370.411C322.262 375.601 322.222 380.571 320.712 385.261C319.322 389.571 318.572 394.121 315.582 397.751C314.572 398.981 312.762 399.871 312.392 401.221C311.912 402.951 310.782 404.141 309.952 405.531C309.322 406.591 308.072 407.731 306.962 407.891C306.302 407.991 305.282 406.341 304.582 405.361C303.772 404.231 303.172 403.351 301.622 404.561C300.352 405.551 298.782 406.031 297.162 405.101C296.282 407.511 294.422 405.921 292.232 406.791C293.352 405.711 293.732 405.361 294.092 404.981C294.112 404.961 293.952 404.751 293.852 404.651C292.972 403.741 291.392 402.841 291.382 401.921C291.372 400.881 291.152 399.921 290.922 398.991C290.502 397.311 290.432 398.841 290.072 399.101C289.202 399.731 289.392 398.831 289.362 398.451C289.242 397.041 288.422 396.461 287.532 397.581C285.462 400.181 283.432 397.851 281.402 397.791C281.332 397.791 281.192 397.411 281.202 397.211C281.392 393.951 278.392 392.891 276.692 390.701C279.722 388.251 279.372 384.781 278.922 381.521C278.762 380.361 278.262 379.591 279.272 378.631C280.732 377.251 280.052 375.261 280.512 373.581C278.582 373.391 280.032 371.581 279.212 370.861C280.252 369.391 279.502 368.051 278.922 366.681C278.802 366.391 278.662 365.881 278.802 365.731C280.062 364.411 279.262 362.951 279.362 361.521C279.462 360.071 280.392 358.741 279.202 357.281C278.982 357.011 279.302 356.241 279.442 355.721C279.542 355.331 279.962 354.731 279.852 354.631C277.062 352.071 278.072 348.351 276.992 345.271C275.512 341.001 274.482 336.591 272.432 332.511C271.822 331.291 271.652 329.801 271.502 328.411C271.362 327.121 269.322 326.731 270.052 325.181C270.862 323.461 268.682 323.121 268.582 321.721C268.492 320.551 267.742 319.421 267.242 318.291C266.732 317.161 266.192 316.041 265.622 314.941C265.382 314.461 265.102 313.971 264.752 313.571C264.162 312.901 263.632 313.051 263.092 313.751C260.512 317.091 258.212 320.751 255.162 323.601C253.272 325.361 251.192 328.021 247.752 327.151C247.522 327.091 247.002 327.301 246.952 327.471C246.392 329.601 244.902 328.221 243.812 328.361C242.532 328.521 241.442 327.411 239.942 328.181C238.962 328.681 237.892 326.361 236.342 327.371C233.942 324.901 230.022 325.501 227.602 323.051C227.322 322.771 226.822 322.391 226.542 322.471C224.272 323.101 222.612 321.361 220.592 320.971C218.452 320.561 216.282 320.121 214.192 319.561C212.142 319.011 210.122 318.791 208.042 318.631C207.082 318.551 206.152 318.241 205.192 318.161C202.682 317.971 200.162 317.861 197.652 317.681C197.112 317.641 196.492 317.231 196.052 317.391C192.152 318.771 188.552 316.941 184.802 316.581C181.342 316.251 177.902 316.121 174.622 314.861C172.522 316.241 170.072 314.211 167.972 315.551C165.712 314.301 163.482 315.801 161.212 315.631C158.962 315.461 156.692 315.701 154.432 315.671C149.582 315.611 144.752 315.371 140.032 314.051C138.972 313.751 137.782 313.971 136.662 313.911C135.292 313.831 133.962 313.931 132.592 313.191C130.872 312.271 128.772 312.861 126.842 312.271C124.102 311.431 121.222 311.011 118.372 310.571C115.742 310.161 113.082 309.931 110.432 309.691C106.142 309.301 101.852 308.951 97.5819 308.361C94.1619 307.891 90.7219 307.521 87.2819 307.131C86.8619 307.081 86.3319 307.291 86.0319 307.101C83.5319 305.501 80.5619 305.601 77.9619 305.701C73.9319 305.851 70.0619 303.531 66.0219 305.111C65.8519 305.181 65.5519 305.051 65.3619 304.931C63.8319 303.891 62.0919 304.431 60.4519 304.281C58.8019 304.131 57.0919 304.161 55.5319 303.691C52.5219 302.801 49.4919 303.841 46.3819 303.061C43.5219 302.341 40.5019 301.701 37.4219 301.611C34.1519 301.511 30.9119 300.751 27.3219 300.221C27.3219 303.691 26.5019 306.851 27.8419 309.971C28.0019 310.341 28.0219 310.781 28.0419 311.191C28.3219 317.501 28.5519 323.811 28.8919 330.121C29.0619 333.321 29.3419 336.531 29.7719 339.711C30.4819 345.021 31.4719 350.261 33.0619 355.411C34.1519 358.931 36.1419 362.021 37.3619 365.421C38.6619 369.071 41.0319 372.051 43.4519 374.731C46.5419 378.151 48.4319 382.661 52.8319 384.991C54.8119 386.041 56.2619 388.031 58.0619 389.481C60.8719 391.741 63.7119 393.981 66.6719 396.041C67.4119 396.551 67.9919 396.791 68.0219 397.791C68.0319 398.091 68.7019 398.611 69.1019 398.641C71.9019 398.861 73.6919 399.991 74.7919 402.251C75.2319 403.161 75.7819 404.521 76.6419 402.471C76.9719 402.631 77.3119 402.771 77.6319 402.961C82.8319 405.991 87.5919 409.821 93.4819 411.571C94.3519 413.711 97.0219 412.741 98.2219 414.301C99.0619 415.391 100.052 416.411 100.692 417.601C101.272 418.691 101.822 419.321 103.182 419.211C103.732 419.171 104.382 419.741 104.922 420.121C106.042 420.941 107.522 421.611 108.112 422.731C108.892 424.201 110.312 423.551 111.202 424.281C111.732 424.711 112.572 425.051 112.742 425.591C113.582 428.371 115.692 427.791 117.572 427.431C121.062 426.751 124.472 425.581 127.972 425.161C132.822 424.581 137.732 424.541 142.622 424.221C143.852 424.141 145.072 423.711 146.292 423.711C148.052 423.701 149.812 424.031 151.572 424.061C157.782 424.161 164.002 424.461 170.192 424.151C174.022 423.961 177.532 421.961 180.882 420.171C183.532 418.761 185.742 416.561 188.182 414.751C190.472 413.051 190.402 410.751 189.882 408.331C189.772 407.801 189.352 407.321 189.302 406.801C188.962 402.921 188.682 399.031 188.362 394.881C186.692 394.481 185.012 393.971 183.172 394.431C183.012 394.471 182.652 394.191 182.582 393.991C182.502 393.781 182.542 393.331 182.692 393.241C183.382 392.811 184.102 392.341 184.872 392.111C187.732 391.251 187.692 391.411 187.522 388.351C187.382 385.721 186.942 383.111 186.512 380.511C186.112 378.081 185.302 375.691 185.122 373.251C184.912 370.461 184.522 367.791 183.462 365.191C182.842 363.671 183.202 361.961 182.832 360.291C182.242 357.621 181.212 355.051 180.872 352.371C180.562 349.921 180.552 347.441 179.982 345.001C179.782 344.161 179.552 342.911 181.122 342.791C182.322 342.701 183.012 342.821 183.432 344.391C184.332 347.781 185.782 351.031 186.922 354.361C187.492 356.041 187.682 357.871 188.392 359.481C189.292 361.491 189.042 363.571 189.352 365.621C189.612 367.331 190.112 369.001 189.702 370.731C189.292 372.441 191.582 373.341 190.942 375.081C190.742 375.621 192.312 375.971 190.792 376.871C189.182 377.821 192.522 377.111 191.822 378.541C191.532 379.151 191.782 380.671 192.202 380.861C194.182 381.781 189.362 381.851 192.022 382.821C192.512 383.001 192.452 384.541 192.742 385.431C193.072 386.461 193.512 387.461 193.902 388.481C195.562 389.171 197.572 387.861 199.112 389.391C199.212 389.491 199.652 389.341 199.882 389.221C203.072 387.591 204.852 387.021 206.832 386.961C207.922 386.931 209.112 387.321 209.982 386.261C210.052 386.171 210.232 386.181 210.362 386.141C211.562 385.741 212.282 388.231 212.822 387.181C213.502 385.881 214.362 386.291 215.162 386.041C216.102 385.741 217.062 385.451 218.042 385.331C219.012 385.211 220.172 384.991 220.942 385.401C222.032 385.981 222.052 385.081 222.562 384.871C223.712 384.411 225.372 384.281 226.442 384.791C228.832 385.941 231.542 384.361 233.782 385.931C233.952 385.601 234.062 385.201 234.322 384.971C234.582 384.731 235.132 384.451 235.322 384.571C235.782 384.851 236.112 385.351 236.492 385.761C236.772 385.321 237.052 384.891 237.342 384.451C237.732 384.881 239.802 383.361 238.652 385.581C238.962 385.721 239.452 386.061 239.562 385.961C241.112 384.611 242.542 383.691 244.802 384.841C245.502 385.201 246.952 383.871 248.122 383.631C250.272 383.191 252.482 383.031 254.652 382.671C258.632 382.011 260.072 380.601 258.662 377.041C256.692 372.091 257.872 366.821 256.232 361.981C254.992 358.311 256.182 354.171 253.842 350.781C253.742 344.791 250.942 339.341 250.332 333.451C250.252 332.661 249.672 331.921 249.602 331.141C249.552 330.551 249.782 329.601 250.192 329.381C250.632 329.151 251.642 329.381 252.022 329.771C253.072 330.851 254.412 332.001 254.752 333.351C255.162 334.991 257.102 334.251 257.442 335.831C257.752 337.261 258.622 338.501 258.932 340.061C259.682 343.921 260.912 347.691 261.892 351.511C262.092 352.301 262.042 353.161 262.182 353.971C262.412 355.321 262.622 356.701 263.002 358.011C263.592 360.021 264.102 362.011 263.922 364.141C263.702 366.691 265.002 369.001 265.322 371.511C265.592 373.631 264.712 376.001 266.212 378.061C266.482 378.421 265.472 379.711 264.922 380.861C266.162 380.621 267.262 380.351 268.392 380.201C269.482 380.051 269.962 380.411 269.142 381.461C269.492 381.581 269.852 381.701 270.202 381.821C271.042 379.311 272.982 380.361 274.692 380.201C274.032 382.801 272.462 384.131 270.222 384.541C269.902 385.481 272.292 384.971 270.922 386.171C269.232 387.641 266.992 387.931 264.952 388.611C264.562 388.741 263.892 388.481 263.722 388.701C262.712 389.961 260.682 387.711 260.222 389.581C259.992 390.511 261.182 391.701 261.252 392.811C261.352 394.411 260.352 392.831 260.062 393.081C259.812 393.301 259.722 393.851 259.762 394.231C259.872 395.201 260.392 396.021 259.882 397.191C259.492 398.071 260.442 397.551 260.852 397.351C260.932 397.761 261.152 398.501 261.072 398.531C258.842 399.451 259.442 401.151 259.622 402.901C259.732 403.921 259.062 405.001 258.982 406.071C258.902 407.171 258.022 408.671 260.052 409.151C260.202 409.191 260.362 410.201 260.152 410.561C259.102 412.411 258.902 414.451 258.372 416.451C256.902 422.031 254.432 427.281 251.792 432.421C251.692 432.621 251.332 432.681 251.092 432.801C251.012 432.271 250.932 431.741 250.852 431.221C250.452 431.601 249.952 431.931 249.682 432.391C249.512 432.691 249.702 433.191 249.722 433.591C249.032 436.411 247.932 439.031 246.382 441.501C245.132 443.491 244.802 446.191 241.912 446.831C241.632 446.891 241.222 447.481 241.282 447.731C242.062 451.271 238.182 452.441 237.532 455.241C233.252 459.621 230.612 465.261 226.092 469.561C223.462 472.051 221.292 475.141 218.692 477.781C217.432 479.061 216.172 480.231 214.622 481.121C214.242 481.341 214.352 483.401 214.642 483.711C215.942 485.051 218.212 484.791 219.282 486.651C219.642 487.281 219.622 484.771 221.052 486.101C222.852 487.771 222.732 489.821 222.172 491.511C221.722 492.881 220.362 494.141 219.252 495.341C218.432 496.232 218.972 498.341 217.162 499.291C219.502 500.171 221.622 500.911 223.682 501.781C224.382 502.081 225.212 502.651 224.192 503.581C224.862 504.031 225.482 504.751 226.202 504.861C227.752 505.101 228.972 505.981 230.342 506.571C230.842 506.791 231.342 506.991 231.832 507.211C232.862 507.661 232.012 510.541 234.422 509.211C235.592 510.221 236.612 511.721 237.962 512.121C239.682 512.631 240.552 514.011 241.912 514.811C243.222 515.581 244.392 516.581 245.632 517.471C246.862 518.361 248.092 519.231 249.322 520.121C250.992 521.331 252.722 522.481 254.312 523.781C254.992 524.341 255.912 525.281 255.832 525.951C255.652 527.491 257.442 526.761 257.502 527.751C257.522 528.091 257.532 528.441 257.472 528.771C257.222 530.051 256.112 530.491 255.122 530.861C254.092 531.241 253.182 531.421 252.492 532.531C252.062 533.221 250.702 532.861 249.992 534.131C249.412 535.161 247.572 535.871 246.062 534.641C243.722 536.021 241.162 535.451 238.712 535.351C232.912 535.131 227.272 533.961 221.742 532.131C220.512 531.721 219.582 531.391 218.762 530.211C218.062 529.201 216.482 528.841 215.482 527.971C213.952 526.651 216.402 527.261 216.242 526.481C214.912 526.061 213.532 525.611 212.152 525.201C211.892 525.121 211.592 525.181 211.312 525.161C209.752 525.041 210.082 522.721 208.402 522.671C207.152 522.631 205.902 522.521 204.672 522.341C202.232 521.982 199.802 521.501 197.352 521.181C196.312 521.051 195.052 522.461 195.182 523.571C195.332 524.781 196.272 526.292 195.822 527.091C195.022 528.531 196.372 529.391 196.122 530.611C195.862 531.831 195.702 533.271 196.122 534.371C196.572 535.531 196.622 537.431 198.972 537.111C200.352 536.921 201.152 538.091 201.142 539.621C201.132 540.461 199.862 541.371 198.942 541.261C198.472 541.211 198.702 538.121 197.582 540.941C197.332 541.561 196.692 542.461 195.622 541.571C195.532 541.501 193.982 542.151 194.902 543.331C195.052 543.531 194.642 544.171 194.482 544.601C193.392 543.971 192.812 544.301 192.092 545.371C191.462 546.291 190.252 546.821 189.262 547.471C188.422 548.031 187.402 548.401 186.712 549.101C186.092 549.731 185.392 550.031 185.112 549.271C184.572 547.821 183.942 547.761 183.092 548.831C181.932 550.301 180.482 550.641 178.652 550.711C176.342 550.802 173.952 551.131 171.772 551.871C170.252 552.391 169.152 554.121 167.632 554.701C166.122 555.281 164.882 553.031 162.992 553.631C161.942 553.961 161.882 553.741 160.992 555.171C160.842 555.421 160.442 555.591 160.122 555.651C159.272 555.801 159.932 553.631 158.692 554.561C157.322 555.591 155.512 556.411 155.392 558.461C155.362 559.061 155.692 559.851 156.122 560.271C157.192 561.301 161.042 561.091 162.072 559.801C162.652 559.071 163.232 558.991 163.832 559.151C166.212 559.791 168.082 559.141 170.122 557.721C172.092 556.341 174.552 555.602 176.882 554.841C179.232 554.081 181.042 552.221 183.722 552.081C186.162 551.951 188.592 550.711 191.002 550.801C194.052 550.921 196.202 549.311 198.622 548.111C201.952 546.461 201.942 546.381 198.782 544.061C199.752 543.451 200.642 542.781 201.612 542.301C202.682 541.781 203.842 543.921 204.962 542.271C205.482 543.181 206.832 542.871 207.232 544.411C208.062 547.571 208.732 547.711 211.932 546.961C212.442 546.841 213.012 546.451 213.432 546.581C216.992 547.681 220.432 547.221 224.052 546.591C227.132 546.052 230.412 546.201 233.652 546.881C236.102 547.391 238.412 548.141 240.712 548.991C242.752 549.751 244.322 551.021 244.502 553.491C244.572 554.401 244.992 555.331 245.402 556.171C246.302 558.001 246.352 557.971 245.492 561.261C246.932 562.511 245.442 563.621 245.162 564.661C244.352 567.681 244.082 567.521 240.262 568.591C238.462 569.091 236.952 570.631 234.842 570.221C231.772 572.161 228.112 571.641 224.802 572.631C220.542 573.911 216.072 573.991 211.692 574.571C206.642 575.231 201.622 574.791 196.622 575.301C193.532 575.611 190.302 575.281 187.342 576.861C186.062 577.541 184.412 577.511 182.942 577.861C182.152 578.051 181.242 578.201 180.642 578.681C178.762 580.171 176.632 580.951 174.312 581.361C174.172 581.381 174.102 581.801 173.992 582.031C173.142 582.031 172.292 582.031 171.452 582.031C171.232 581.091 171.252 579.971 170.722 579.271C170.082 578.441 168.962 577.971 168.042 577.341C167.922 577.261 167.822 577.102 167.702 577.091C165.702 576.922 165.922 575.261 165.672 573.991C165.202 571.601 164.832 569.191 164.422 566.751C162.632 566.751 161.072 566.861 159.542 566.721C157.762 566.561 155.972 566.301 154.252 565.851C152.392 565.361 151.682 563.482 150.482 562.201C151.802 560.361 149.832 558.971 149.852 557.321C149.852 556.901 150.242 556.491 150.462 556.071C150.822 556.451 151.182 556.841 151.712 557.391C151.532 554.251 154.772 553.721 155.862 551.561C155.892 551.491 156.162 551.461 156.262 551.521C157.932 552.511 158.612 551.191 159.452 550.171C158.342 548.261 157.302 546.301 156.112 544.431C152.212 538.301 149.282 531.661 146.032 525.191C143.262 519.671 140.762 514.001 138.442 508.271C137.522 505.991 134.852 504.101 136.362 501.081C136.392 501.021 136.022 500.801 135.882 500.621C135.302 499.891 134.562 499.211 134.202 498.381C131.302 491.761 128.432 485.121 125.632 478.461C124.412 475.571 123.422 472.581 122.192 469.701C121.542 468.181 120.532 466.821 119.832 465.321C119.142 463.831 118.672 462.241 118.062 460.711C117.402 459.061 116.412 457.481 116.102 455.771C115.812 454.201 114.572 453.351 114.112 452.011C112.562 447.521 109.562 443.901 106.832 440.151C106.222 439.311 104.542 438.531 103.622 438.771C100.392 439.601 97.5819 437.561 94.4819 437.831C93.3919 437.921 92.7519 437.071 92.6219 435.951C92.5319 435.151 93.2619 433.451 93.8919 432.551C94.1019 432.251 93.8819 431.641 93.8619 431.181C91.5719 431.821 90.4819 430.411 89.6019 428.671C87.6019 429.571 86.9219 427.351 85.4619 426.871C83.9319 426.361 82.6719 425.081 81.1719 424.401C78.1119 423.021 75.4519 421.042 73.6219 418.341C72.7919 417.111 71.6719 416.561 70.7219 415.671C69.4119 414.441 67.9019 413.421 66.6219 412.161C61.6919 407.281 56.9219 402.261 53.1119 396.411C51.9719 394.661 50.6919 392.951 49.1819 391.521C45.7319 388.271 42.2719 384.941 39.4119 381.261C34.2019 374.551 29.2919 367.521 26.5619 359.321C25.4919 356.111 24.3119 352.831 23.9619 349.501C23.1719 342.021 21.9919 334.551 22.1619 326.991C22.1719 326.441 22.0519 325.891 21.9719 325.351C21.0419 318.951 20.7319 312.551 22.1519 306.191C22.4719 304.781 23.0419 303.351 23.8019 302.131C24.9719 300.251 25.0719 300.331 23.4319 298.481C23.1819 298.191 22.9419 297.731 22.9719 297.371C23.1419 295.291 22.4719 293.561 21.1319 291.981C20.8019 291.591 20.9219 290.791 20.9019 290.171C20.7519 286.501 22.0719 283.101 22.7819 279.571C23.3819 276.621 24.7419 274.171 26.3919 271.821C26.9319 271.051 28.5919 270.761 28.7119 270.061C29.0919 267.931 30.4819 266.791 31.9019 265.471C33.2219 264.251 34.3619 262.791 35.3619 261.291C35.7119 260.761 35.6319 259.241 35.3219 259.101C32.4919 257.811 30.3219 255.501 27.6819 254.101C22.5119 251.361 17.6219 248.531 13.5219 244.161C9.92191 240.321 6.08191 236.851 3.91191 231.861C2.61191 228.871 1.48191 225.991 1.75191 222.661C1.80191 222.011 2.31191 220.891 0.961914 220.671C0.961914 217.281 0.961914 213.881 0.961914 210.491C2.71191 209.571 1.81192 207.971 1.76192 206.741C1.56192 201.361 2.74191 196.391 4.88191 191.441C6.51191 187.651 8.63192 184.151 10.4819 180.501C12.7219 176.081 15.3419 171.841 17.9419 167.601C22.5219 160.121 28.8719 154.111 34.6619 147.641C35.7319 146.451 36.4019 144.781 37.6519 143.911C39.4019 142.701 40.0419 140.921 40.6719 139.221C41.0119 138.291 41.4019 137.521 41.9519 136.721C43.0119 135.191 43.9319 133.561 44.8419 132.071C45.5519 133.191 45.8319 133.301 46.1219 132.521C46.6419 131.121 49.0319 130.741 48.3619 128.941C47.9319 127.781 48.0919 126.651 48.9719 126.781C50.3819 126.991 49.5419 124.601 51.3719 125.311C52.5219 125.761 52.1319 123.921 52.4219 123.081C52.5919 122.591 53.0619 122.051 53.5319 121.851C54.6119 121.381 55.4219 120.971 55.4419 119.501C55.4419 119.181 57.7419 119.491 57.7519 117.901C57.7619 116.191 58.5619 116.701 59.4519 117.091C59.5019 117.111 59.9319 116.501 59.8919 116.451C58.7519 115.171 60.0919 114.091 60.5619 113.501C62.5619 110.971 65.8419 109.661 67.2719 106.531C69.5219 106.601 69.8619 104.371 71.1819 103.321C72.9619 101.891 74.1319 99.8814 76.3119 98.7814C77.9419 97.9514 79.0319 96.1314 80.5519 95.0114C82.0319 93.9114 84.1419 93.3814 84.9319 91.6914C85.7619 89.9114 87.5219 89.4114 88.7919 88.6314C90.5719 87.5414 91.1019 84.8914 93.6219 84.9114C94.6919 82.5814 97.0819 81.8914 99.0319 80.6914C100.412 79.8414 102.312 79.5814 103.332 78.4714C104.592 77.1114 106.032 76.1714 107.562 75.3814C109.762 74.2514 111.692 72.7315 113.822 71.4915C118.202 68.9515 122.682 66.6714 127.262 64.5314C128.262 64.0614 129.212 63.4714 130.242 63.0714C131.382 62.6314 132.962 62.7015 133.662 61.9315C134.772 60.7015 135.742 62.1014 136.582 61.6514C139.062 60.3214 141.742 59.8414 144.472 59.4514C145.332 59.3314 145.912 58.2215 147.122 59.1215C147.692 59.5415 149.042 58.0114 149.952 59.3914C149.992 59.4414 150.572 59.1414 150.892 59.0014C150.332 58.2714 150.292 57.7514 151.422 57.9214C152.662 58.1014 154.012 58.8414 155.082 58.5214C156.332 58.1514 158.022 58.8414 158.862 57.2614C160.692 58.3114 163.012 55.9114 164.692 58.0714C165.872 57.7314 167.122 59.2714 168.242 57.9714C169.132 56.9414 169.372 57.4414 170.232 58.2214C170.902 58.8314 172.732 58.6814 173.802 58.2714C176.022 57.4114 176.732 57.0714 178.022 58.0714C179.242 59.0114 180.302 58.6115 181.542 58.3115C182.602 58.0615 183.732 58.1114 184.802 58.0414C183.902 54.5314 183.922 54.5514 186.132 51.1614C186.722 50.2614 187.232 49.2614 187.562 48.2314C189.242 43.1314 190.692 37.9914 190.992 32.5714C191.042 31.6914 191.642 30.8115 192.092 29.9915C192.492 29.2815 192.982 28.5914 193.542 28.0014C195.412 26.0414 197.082 23.7315 199.312 22.3015C201.642 20.8015 204.502 20.0714 207.182 19.1714C208.852 18.6114 210.812 17.7314 212.292 18.1714C213.882 18.6514 214.822 17.5514 216.112 17.6314C216.432 17.6514 217.252 16.3014 217.112 16.1115C216.172 14.8315 217.432 13.7714 217.282 12.5814C216.992 10.3414 218.772 8.84142 220.172 8.08142C224.122 5.96142 228.462 4.59143 232.452 2.53143C233.882 1.79143 235.742 2.50141 236.772 0.941406C238.472 0.941406 240.162 0.941406 241.862 0.941406C241.982 1.45141 241.322 2.18145 242.612 2.30145C244.282 2.45145 246.102 3.68143 247.532 3.28143C249.482 2.73143 250.642 3.63146 251.972 4.37146C253.542 5.25146 254.932 6.44144 256.492 7.35144C257.582 7.99144 258.382 8.47145 257.352 9.86145C257.172 10.1014 257.662 11.2714 258.102 11.4814C261.332 13.0514 262.332 15.9315 263.092 19.1215C263.562 21.0915 264.572 22.9214 265.192 24.8514C265.422 25.5614 265.572 26.8115 265.192 27.1215C263.082 28.8215 261.692 31.2015 259.582 32.8715C258.842 33.4515 258.072 33.9915 257.572 34.3615C258.192 35.0314 259.222 35.6814 259.542 36.5814C260.322 38.7414 260.862 41.0114 261.332 43.2614C261.662 44.8714 260.942 46.6015 262.032 48.1815C262.302 48.5715 261.842 49.4515 261.752 50.1215C261.622 51.0715 261.122 52.2614 261.502 52.9214C262.252 54.1914 262.362 55.1514 261.572 56.3914C260.982 57.3114 261.672 58.1714 261.902 59.0914C262.082 59.7914 260.622 61.4214 260.762 61.5214C262.342 62.7614 261.482 64.2915 261.302 65.6115C261.022 67.7414 261.962 68.8114 263.762 69.6514C266.622 70.9914 269.452 72.4214 272.202 73.9814C273.332 74.6214 274.192 75.7114 275.242 76.5014C279.412 79.6514 283.762 82.5814 287.342 86.4714C288.432 87.6514 290.352 88.3415 290.932 89.6815C292.582 93.4915 296.672 94.7114 298.912 97.8914C300.092 99.5714 302.252 100.521 303.862 101.931C305.762 103.591 307.632 105.321 309.352 107.161C310.132 108.001 310.572 109.181 311.102 110.241C311.232 110.491 311.122 110.851 311.112 111.171C313.822 110.751 313.862 113.531 315.272 114.681C316.442 115.641 317.502 116.801 317.602 118.481C319.542 117.741 319.552 119.491 320.262 120.451C321.992 122.771 322.732 125.341 322.612 128.191C322.562 128.731 322.452 129.271 322.492 129.801C322.512 130.061 322.812 130.291 322.992 130.541C323.092 130.301 323.252 130.071 323.272 129.831C323.322 129.291 323.302 128.751 323.302 128.201C324.682 130.971 326.332 133.651 327.362 136.551C328.302 139.201 328.612 142.091 329.102 144.891C329.162 145.221 328.592 145.661 328.322 146.061C328.152 145.431 328.172 144.641 327.782 144.211C327.152 143.501 328.272 141.681 326.292 141.911C326.482 142.891 326.522 143.921 326.902 144.821C327.112 145.321 327.882 145.591 328.402 145.971ZM66.2319 403.901C66.2219 403.631 66.3219 403.261 66.1919 403.111C65.8819 402.771 65.4619 402.521 65.0519 402.291C65.0119 402.271 64.5819 402.741 64.6219 402.811C64.8519 403.201 65.1219 403.591 65.4719 403.871C65.6319 404.001 65.9919 403.871 66.2619 403.861C67.3319 405.101 68.3319 406.431 69.5119 407.561C70.2819 408.291 70.3419 408.801 69.7119 409.571C69.6819 409.611 70.5419 410.531 70.6019 410.491C71.9619 409.511 72.8219 410.211 72.9319 411.471C73.1119 413.471 74.1019 414.121 75.9319 414.041C76.7419 414.001 77.3319 414.421 77.2319 415.281C77.0419 416.891 77.6119 417.701 79.2919 417.491C80.5019 417.341 81.4619 417.701 82.2819 418.621C82.7319 419.131 83.2919 419.631 83.9019 419.931C88.4019 422.121 89.0719 422.661 91.2119 425.721C91.8119 426.581 92.4619 427.031 93.6419 426.221C94.5519 425.591 95.2019 425.881 94.4419 427.181C94.3519 427.341 95.0919 429.001 96.0319 427.841C96.9219 426.741 97.6419 427.381 98.4719 427.691L102.722 428.891C102.982 428.781 103.332 428.741 103.462 428.541C103.552 428.411 103.402 427.951 103.222 427.841C101.282 426.572 99.1019 425.581 97.4019 424.051C94.2419 421.221 90.7419 419.091 86.9919 417.131C81.3919 414.201 76.2219 410.511 71.1719 406.671C69.6819 405.551 68.3419 403.991 66.2319 403.901ZM111.992 441.271C111.932 440.771 111.872 440.261 111.812 439.761C111.522 439.941 111.212 440.101 110.952 440.321C110.782 440.461 110.702 440.711 110.582 440.901C111.092 440.991 111.602 441.071 112.112 441.161C112.892 442.111 113.542 443.221 114.482 443.951C115.482 444.721 115.202 446.971 117.312 446.431C117.372 446.411 117.582 446.741 117.632 446.931C118.492 449.941 118.512 449.921 119.932 451.481C120.252 451.831 120.292 452.431 120.452 452.921C120.132 453.181 119.782 453.411 119.502 453.711C119.102 454.132 118.742 454.731 119.732 454.711C120.292 454.701 120.842 454.221 121.402 453.961C121.642 454.331 122.152 454.971 122.092 455.021C121.152 455.921 122.142 456.621 122.292 457.391C120.932 457.771 121.392 458.481 122.022 459.141C122.222 459.351 122.602 459.391 122.902 459.501C122.772 459.011 122.652 458.521 122.502 458.031C122.422 457.771 122.282 457.531 122.172 457.291C122.732 457.581 123.602 457.741 123.802 458.191C124.842 460.561 123.762 463.361 125.242 465.681C125.472 465.191 125.702 464.701 125.942 464.211C126.182 464.371 126.532 464.461 126.622 464.671C128.912 469.471 131.452 474.181 132.732 479.401C132.782 479.621 132.832 479.831 132.872 480.051C130.832 480.271 132.282 481.361 132.482 481.951C132.762 482.771 133.162 483.701 133.812 484.211C135.262 485.371 136.402 486.241 136.412 486.711C136.432 487.371 134.512 487.271 135.482 487.661C137.082 488.301 137.492 489.561 138.082 490.691C140.052 494.441 141.842 498.301 143.692 502.111C143.872 502.481 144.142 502.831 144.232 503.221C145.352 508.231 147.762 512.691 150.122 517.181C150.742 518.361 151.042 519.731 151.732 520.871C152.832 522.721 154.182 524.431 155.342 526.251C158.192 530.751 159.202 536.241 162.892 540.291C163.242 543.021 165.722 544.711 166.342 547.311C166.572 548.271 167.182 547.961 167.942 547.821C169.012 547.631 170.052 547.491 171.082 547.101C172.282 546.651 173.522 546.241 174.782 546.011C176.212 545.751 177.732 545.391 179.112 545.641C180.742 545.941 182.152 543.861 183.752 545.371C186.712 544.521 189.232 542.881 191.702 541.061C191.122 539.611 188.892 539.111 189.652 537.101C187.832 535.761 188.412 533.821 188.382 532.031C188.372 531.611 188.452 531.141 188.292 530.781C186.002 525.511 186.242 519.741 185.002 514.261C184.612 512.521 184.402 510.731 184.142 508.961C183.512 504.621 182.682 500.301 181.672 496.061C180.412 490.741 178.842 485.501 178.202 480.051C177.892 477.441 177.992 474.671 177.092 472.281C176.342 470.281 176.772 468.421 176.492 466.521C176.212 464.631 176.042 462.711 175.632 460.851C175.402 459.771 176.062 458.941 175.932 457.771C175.382 452.931 175.792 448.031 174.852 443.181C174.272 440.181 174.122 437.071 174.012 434.001C173.942 432.041 173.072 430.911 171.352 430.251C170.862 428.741 170.012 429.371 169.162 430.141C169.922 430.141 170.692 430.141 171.452 430.141C171.422 430.281 171.412 430.521 171.342 430.541C167.382 431.551 163.462 432.811 159.292 432.741C157.032 432.701 154.772 432.731 152.512 432.731C150.392 432.731 148.272 432.811 146.162 432.681C144.022 432.551 141.912 432.931 139.752 432.861C136.932 432.771 134.092 433.771 131.242 434.121C128.922 434.411 126.782 435.581 124.342 435.291C123.592 435.201 122.682 435.531 121.992 435.941C120.472 436.831 118.832 437.311 117.182 436.911C115.802 436.571 114.652 438.211 113.252 437.161C113.152 437.081 111.662 437.691 112.522 438.901C113.142 439.711 113.312 440.741 111.992 441.271ZM70.4819 117.421C69.9519 117.561 69.4319 117.701 68.9019 117.841C69.1619 118.181 69.4119 118.521 69.6719 118.861C68.7419 119.901 67.8419 120.961 66.8919 121.971C65.8719 123.051 64.5919 123.771 63.6719 125.061C62.7419 126.361 61.2219 127.301 59.8319 128.201C58.7319 128.921 58.4819 131.041 56.3319 130.251C55.9819 130.121 56.4619 132.591 55.0219 132.371C52.8219 132.031 54.5219 133.891 53.7019 134.361C53.0019 134.761 52.5619 135.601 51.9619 136.191C51.3419 136.801 50.6019 137.301 50.1419 138.531C52.3519 137.441 54.8419 136.981 56.7719 137.181C56.3319 137.391 55.9719 137.561 55.6019 137.741C55.7719 137.961 55.8919 138.261 56.1219 138.401C57.0419 138.961 57.7419 139.131 59.0619 138.711C61.3819 137.981 64.1219 138.141 65.3919 141.011C65.8119 141.961 66.0419 141.361 66.5219 141.251C67.3119 141.061 68.3819 140.721 68.9319 141.071C70.8019 142.251 73.0419 141.961 74.8719 142.771C77.5519 143.961 80.2619 144.721 83.1119 145.281C86.0419 145.861 88.5919 147.651 91.7419 147.911C93.8219 148.081 95.8519 149.261 97.8319 150.131C100.312 151.221 102.632 153.071 105.202 153.491C108.842 154.081 111.722 156.201 115.082 157.281C116.482 157.731 117.732 158.641 119.042 159.371C119.812 159.801 120.252 159.651 120.632 158.811C121.092 157.821 121.692 156.891 122.292 155.971C123.542 154.061 124.772 152.131 126.122 150.291C127.392 148.551 129.232 147.581 131.262 146.971C131.492 146.901 131.952 146.961 132.032 147.101C132.202 147.421 132.352 147.881 132.252 148.201C132.052 148.841 131.592 149.411 131.412 150.051C130.942 151.711 129.882 153.611 130.312 155.031C130.812 156.651 130.542 157.891 129.802 158.901C127.842 161.561 127.922 164.891 126.562 167.731C126.222 168.441 126.522 169.101 127.322 169.811C129.302 171.581 131.432 173.181 133.262 175.101C134.142 176.021 136.092 175.441 136.212 177.301C138.712 176.091 140.242 179.221 142.582 178.731C146.892 181.651 152.062 181.961 156.892 183.271C158.562 183.721 160.212 183.511 160.732 185.621C160.762 185.741 161.432 185.701 161.802 185.741C161.792 185.511 161.752 185.281 161.772 185.061C161.802 184.801 161.932 184.321 161.952 184.321C163.962 184.691 166.182 184.281 167.912 185.521C168.462 185.911 168.272 187.481 169.022 185.601C169.142 185.291 170.472 185.461 171.252 185.411C171.192 185.901 170.232 186.661 171.652 186.731C172.362 186.771 172.982 186.871 173.162 185.841C173.332 184.881 174.112 185.781 174.302 185.671C176.132 184.531 177.692 186.551 179.442 186.051C179.822 185.941 180.632 186.231 180.662 186.141C181.222 184.511 182.032 185.591 182.932 185.741C185.842 186.201 188.762 187.011 191.762 186.021C192.722 185.701 193.732 185.851 192.862 187.321C193.252 187.371 193.962 187.491 193.972 187.451C194.352 185.741 195.682 185.891 196.912 185.971C198.102 186.051 199.492 184.691 200.502 186.421C200.522 186.451 201.002 186.321 201.042 186.201C201.352 185.111 201.822 185.061 202.872 185.481C203.802 185.851 204.962 185.791 206.002 185.711C207.222 185.621 208.422 185.241 209.642 185.121C210.762 185.001 212.062 185.401 212.992 184.961C214.622 184.191 216.262 184.391 217.922 184.221C219.552 184.061 221.152 183.531 222.782 183.431C227.052 183.171 231.142 182.031 235.282 181.141C238.102 180.541 240.882 179.481 243.722 179.291C246.672 179.081 249.302 176.671 252.442 178.081C252.502 178.111 252.842 177.761 252.892 177.551C253.192 176.321 254.122 176.691 254.922 176.711C255.352 176.721 256.142 176.871 256.162 176.811C256.642 174.891 258.532 176.351 259.322 175.481C260.202 174.501 261.322 174.461 262.412 174.431C265.642 174.351 268.522 173.041 271.512 172.091C271.982 171.941 272.502 171.891 272.992 171.891C273.352 171.891 273.162 174.161 274.172 172.061C274.862 170.621 277.812 169.891 278.632 170.661C279.752 171.721 280.432 171.541 281.442 170.571C282.242 169.811 282.952 168.221 284.532 169.511C284.692 169.251 285.062 168.861 284.992 168.741C283.302 165.871 284.202 162.891 285.272 160.311C286.932 156.321 287.992 152.311 288.652 148.031C289.672 141.421 291.322 134.891 292.892 128.381C293.182 127.191 293.312 125.541 295.202 124.971C295.542 127.471 296.152 129.911 296.112 132.351C296.082 134.131 298.262 131.721 297.742 133.461C296.432 137.911 296.832 142.541 296.272 147.071C295.722 151.481 294.792 155.761 293.552 160.001C292.872 162.331 291.942 164.601 291.002 167.251C292.172 167.191 293.122 167.201 294.052 167.081C295.142 166.941 296.202 166.641 297.282 166.491C300.162 166.101 303.122 166.001 305.912 165.281C307.232 164.941 307.892 165.021 308.832 165.861C309.702 166.631 310.672 166.991 311.492 165.481C312.272 164.041 313.862 163.821 314.942 164.801C316.242 165.971 317.862 163.811 318.912 165.481C318.942 165.531 319.752 165.291 319.872 165.041C320.472 163.801 322.622 163.161 321.102 161.041C320.522 160.221 320.952 158.631 321.052 157.391C321.132 156.441 321.522 155.511 321.582 154.551C322.032 147.561 321.122 140.781 318.212 134.351C317.142 132.001 316.372 129.461 315.012 127.291C311.572 121.771 307.712 116.561 302.712 112.271C300.842 110.661 299.332 108.631 297.512 106.951C294.682 104.331 291.852 101.691 288.792 99.3615C286.012 97.2414 283.652 94.6114 280.302 93.1014C278.142 92.1214 276.082 90.6614 274.002 89.4014C271.842 88.0914 269.832 86.5614 267.532 85.4214C265.602 84.4715 263.992 82.8714 262.182 81.6514C260.272 80.3714 258.302 79.1814 256.342 77.9814C255.882 77.7014 255.332 77.5714 254.832 77.3615C252.052 76.1814 249.322 74.8414 246.472 73.8514C243.792 72.9314 241.642 70.5214 238.482 70.9414C236.772 69.0514 234.532 69.3214 232.652 70.1115C231.292 70.6814 231.922 68.0415 230.732 69.3115C230.642 69.4015 230.202 69.3414 230.162 69.2514C229.912 68.6514 229.732 68.0114 229.532 67.3914C229.102 67.8814 228.762 68.5714 228.232 68.8015C227.382 69.1715 226.312 69.5415 225.502 69.3115C224.822 69.1215 224.402 68.0614 223.832 67.4114C222.902 66.3614 221.922 65.7814 220.562 66.8414C220.242 67.0914 219.452 67.1015 219.102 66.8715C217.392 65.7515 215.542 66.3414 213.782 66.4214C211.812 66.5114 209.652 68.4414 208.112 65.5914C208.082 65.5314 207.802 65.5214 207.712 65.5814C206.132 66.6914 204.382 65.3014 202.842 65.8814C201.502 66.3814 202.252 64.6914 201.702 64.8914C200.962 65.1614 200.352 65.7914 199.642 66.1914C199.472 66.2914 199.122 66.1214 198.872 66.0314C196.952 65.3114 196.922 65.2214 195.382 65.8414C194.112 66.3514 193.162 66.7314 192.412 65.0414C192.132 64.4214 191.232 64.5414 190.922 65.5114C190.542 66.6814 189.612 66.1915 188.822 66.1115C188.952 65.6714 189.172 65.2314 189.192 64.7814C189.202 64.5914 188.682 64.1714 188.612 64.2114C188.262 64.4214 187.792 64.6914 187.702 65.0414C187.342 66.3714 187.352 66.5115 186.572 65.1215C186.082 64.2515 184.492 63.2814 183.692 65.3615C183.282 65.1014 182.702 64.9415 182.482 64.5615C181.982 63.7015 181.202 63.6415 180.942 64.3715C180.382 65.9115 179.612 65.6814 178.822 64.8015C177.702 63.5415 176.932 63.1914 176.282 65.1614C176.212 65.3914 175.122 65.5815 174.752 65.3615C173.022 64.3315 171.382 63.7914 169.702 65.4214C169.552 65.5614 169.062 65.5514 168.892 65.4214C167.592 64.3614 166.332 65.5415 165.042 65.4915C163.572 65.4315 162.042 65.3214 160.582 66.2114C159.862 66.6514 158.602 66.4914 157.672 66.2614C154.632 65.5014 151.852 65.9414 149.232 67.6314C148.942 67.8214 148.192 67.8714 148.152 67.7714C147.322 65.7914 146.272 67.3014 145.352 67.5914C144.172 67.9614 143.032 68.7815 141.872 68.8015C140.392 68.8214 139.232 69.5014 137.922 69.8615C137.012 70.1115 136.082 70.2915 135.172 70.5615C134.412 70.7915 133.632 71.0214 132.922 71.3914C131.342 72.2014 129.812 73.1014 128.252 73.9414C127.102 74.5614 125.962 75.2014 124.762 75.7014C123.772 76.1214 122.622 76.1914 121.702 76.7114C120.512 77.3814 119.522 78.3914 118.382 79.1614C115.122 81.3414 111.722 83.3514 108.572 85.6914C107.092 86.7914 105.842 88.0515 103.802 87.9915C104.222 88.2315 104.632 88.4715 105.322 88.8715C103.422 89.3615 102.132 89.9814 101.102 91.8514C99.9419 93.9614 97.2319 95.1614 95.4819 97.0314C91.5519 101.231 86.2319 103.691 82.2819 107.901C79.6019 110.761 76.1519 112.911 73.5619 115.831C72.5319 116.881 71.5819 117.031 70.4819 117.421ZM17.8619 179.851C17.6919 179.131 17.4519 179.091 17.0619 179.741C16.8419 180.111 16.5319 180.431 16.2619 180.771C15.3519 181.031 15.1919 181.581 15.7119 182.321C16.3519 183.231 16.5519 184.341 15.7219 185.001C14.5719 185.911 14.6819 187.231 14.1019 188.291C13.5319 189.321 13.4419 190.841 11.8019 191.011C11.7319 191.021 11.7219 191.501 11.6719 191.761C12.8319 191.811 12.4919 192.271 12.1519 193.031C11.0019 195.551 10.2219 198.111 10.1519 200.991C10.1019 203.271 9.48192 205.501 10.2019 207.811C10.4319 208.531 10.0919 209.451 9.96191 210.261C9.78191 211.341 9.32191 212.431 9.38191 213.501C9.58191 217.241 9.57192 221.071 10.4019 224.691C10.9219 226.951 11.5419 229.521 13.5719 231.261C14.2919 231.881 14.7719 232.781 15.3919 233.531C18.3319 237.101 21.2619 240.551 25.4819 242.891C28.9119 244.781 32.6119 246.441 35.3719 249.411C40.1419 250.971 44.4119 253.891 49.4719 254.691C50.4019 254.841 51.3219 255.151 52.2319 255.401C56.6019 256.611 60.8519 258.151 65.5419 258.031C69.1319 257.941 72.7419 258.581 76.3419 258.911C76.6019 258.931 76.8419 259.131 77.0919 259.211C84.3219 261.511 90.6919 262.151 97.4719 262.261C103.972 262.371 110.462 262.311 116.962 262.321C118.802 262.321 120.642 262.251 122.472 262.331C124.192 262.401 125.882 262.631 127.612 262.231C131.022 261.441 134.492 261.191 137.992 261.391C138.952 261.441 139.932 261.071 140.912 260.931C141.732 260.811 142.582 260.551 143.372 260.681C147.272 261.321 151.222 260.651 155.152 261.281C157.212 261.611 159.412 261.791 161.572 261.631C163.812 261.461 166.082 261.591 168.322 261.411C170.542 261.241 172.902 261.251 174.902 260.451C176.832 259.671 178.762 258.981 180.752 258.471C186.222 257.071 191.642 255.331 197.392 255.381C198.182 255.391 198.972 255.011 199.762 254.801C200.952 254.481 202.142 253.911 203.342 253.881C208.532 253.781 213.612 252.811 218.732 252.081C220.502 251.831 222.292 251.251 224.042 251.361C226.942 251.541 229.802 251.441 232.682 251.251C238.002 250.911 243.352 250.861 248.622 250.191C250.972 249.891 253.282 249.551 255.652 249.531C256.052 249.531 256.552 249.481 256.822 249.251C258.342 247.951 260.562 250.021 261.922 248.141C264.052 249.581 266.062 248.051 267.802 247.431C269.702 246.751 272.222 247.841 273.602 245.571C273.752 245.331 274.382 245.301 274.782 245.331C277.082 245.481 279.062 244.381 281.192 243.821C285.012 242.821 288.512 240.841 292.622 240.691C297.472 240.511 302.302 239.601 307.162 239.461C310.172 239.371 312.892 238.881 315.482 237.381C316.542 236.771 317.712 236.211 318.902 236.001C323.732 235.151 328.612 235.031 333.502 235.071C335.402 235.091 337.342 235.531 339.242 234.371C340.022 233.901 341.412 234.381 342.522 234.521C343.612 234.661 344.672 234.991 345.762 235.091C349.832 235.471 353.512 236.941 356.722 239.351C359.572 241.481 362.672 242.521 366.162 242.791C367.702 242.911 368.622 242.181 369.322 241.121C370.472 239.371 371.642 237.551 370.022 235.401C369.762 235.051 371.282 232.121 371.732 232.171C372.272 232.221 372.742 232.771 373.282 232.981C375.082 233.661 376.572 236.531 378.942 233.661C379.372 233.151 380.822 233.491 381.802 233.421C383.262 233.321 383.952 232.511 383.342 231.361C382.702 230.151 382.052 228.571 380.962 228.041C376.942 226.061 373.222 223.211 368.402 223.181C367.242 223.171 366.012 222.601 364.962 222.031C363.732 221.361 363.772 219.651 365.012 219.461C367.232 219.131 368.582 216.711 371.132 217.231C371.952 217.401 372.962 216.791 373.832 216.441C374.912 216.001 375.782 216.821 376.862 216.801C380.002 216.751 382.762 215.361 385.562 214.451C389.142 213.291 390.812 211.461 390.282 208.031C390.092 206.791 390.462 205.441 390.202 204.231C389.752 202.141 389.312 200.041 386.532 199.461C384.152 198.961 381.932 197.701 379.562 197.111C373.202 195.531 367.382 192.061 360.652 191.751C360.012 191.721 359.392 191.231 358.762 190.951C357.702 190.481 357.762 189.531 358.242 188.881C358.672 188.291 359.522 187.791 360.252 187.681C361.812 187.441 363.622 188.061 364.492 186.061C364.852 186.341 365.232 186.601 365.582 186.891C365.872 187.131 366.132 187.401 366.412 187.651C366.872 188.141 367.332 188.631 367.792 189.121C367.952 188.631 368.102 188.131 368.262 187.641C369.082 187.761 369.912 187.801 370.712 188.021C372.162 188.411 373.592 188.911 375.032 189.351C376.462 189.791 377.862 190.321 379.322 190.631C380.552 190.901 381.042 193.101 382.782 191.931C382.842 192.201 382.902 192.481 382.962 192.751C383.272 194.181 383.272 194.181 384.382 193.301C385.472 192.431 388.212 193.071 388.042 194.261C387.862 195.511 388.512 195.851 389.092 196.001C390.652 196.391 389.332 194.771 389.872 194.621C392.242 193.991 392.852 191.691 393.902 190.041C394.872 188.521 395.452 186.321 395.202 184.571C394.802 181.811 392.892 179.661 390.942 177.581C389.382 175.921 387.682 175.601 385.642 175.691C385.132 175.711 384.612 175.351 384.092 175.231C378.232 173.891 372.652 171.301 366.472 171.451C365.452 170.121 364.062 171.181 362.862 170.971C359.192 170.341 355.452 169.821 351.742 169.861C344.062 169.941 336.392 169.431 328.692 170.291C324.252 170.781 319.712 170.761 315.242 171.301C310.712 171.841 306.202 172.531 301.682 173.171C297.462 173.771 293.172 174.101 289.032 175.081C284.672 176.111 280.472 177.851 276.162 179.111C271.872 180.361 267.242 180.491 263.402 183.171C263.092 183.381 262.572 183.261 262.182 183.391C260.102 184.071 257.672 183.331 255.822 184.941C251.212 184.501 247.172 186.801 242.852 187.721C238.352 188.691 234.082 190.731 229.592 191.781C224.602 192.941 219.762 195.701 214.342 193.801C214.172 193.741 213.902 194.091 213.652 194.141C209.872 194.811 206.092 195.481 202.302 196.101C200.272 196.431 198.112 196.371 196.222 197.051C194.262 197.761 192.322 197.211 190.392 197.721C185.882 198.911 181.412 198.021 176.972 197.071C174.442 196.531 171.912 195.521 169.382 195.521C167.162 195.531 165.232 194.991 163.282 194.241C162.022 193.761 160.912 192.721 159.632 192.491C158.312 192.261 157.322 191.361 156.192 191.141C150.452 190.031 145.862 186.231 140.302 184.611C136.862 183.611 133.742 181.341 130.632 179.401C126.342 176.731 121.962 174.141 118.322 170.571C116.332 168.621 113.582 167.431 112.352 164.681C112.202 164.351 111.662 163.931 111.362 163.971C109.212 164.291 107.702 162.771 105.912 162.131C98.1119 159.311 90.3619 156.351 82.5919 153.441C79.7819 152.391 76.9819 151.271 74.1519 150.291C70.6719 149.091 67.1919 147.901 63.6619 146.871C58.4219 145.341 53.7519 141.651 47.8419 142.621C47.5919 142.661 47.2019 142.611 47.0519 142.451C45.3319 140.571 44.2119 140.711 43.7019 143.341C43.6819 143.441 43.2019 143.501 42.9419 143.481C41.3519 143.411 40.8419 145.361 40.9719 145.681C41.7219 147.531 40.4019 148.351 39.5219 149.421C39.0819 149.951 38.3119 150.451 38.2619 151.021C38.1319 152.661 36.6419 150.571 36.6219 151.671C36.5819 153.661 35.3019 154.931 34.3219 156.451C33.7019 157.411 33.4519 157.941 32.3819 157.171C32.3119 157.121 31.8119 157.461 31.7319 157.691C29.9219 163.051 29.9819 163.101 27.5619 165.551C26.6919 166.431 26.2519 167.871 24.7219 168.001C24.7519 170.291 22.9819 171.701 21.9919 173.481C20.7719 175.671 19.2519 177.721 17.8619 179.851ZM36.3719 279.101C35.7719 278.471 35.3619 278.001 34.8819 277.601C34.8019 277.531 34.2319 277.791 34.2219 277.921C34.1219 281.181 31.9419 283.211 30.1519 285.621C29.0219 287.141 27.8819 289.471 29.6719 291.771C30.3419 292.641 30.7519 292.371 31.5719 292.441C34.4719 292.711 37.3519 292.911 40.2619 292.991C42.6719 293.061 45.0419 294.281 47.4619 294.381C52.2019 294.581 56.8619 295.861 61.6519 295.331C62.4719 295.241 63.3319 295.341 64.1419 295.511C67.1719 296.121 70.1819 296.421 73.3019 296.541C79.3319 296.771 85.4419 297.441 91.2319 299.011C97.5019 300.721 103.902 299.981 110.162 301.171C113.552 301.811 117.172 301.401 120.482 302.261C122.412 302.761 124.332 302.581 126.182 303.131C129.502 304.111 132.852 304.871 136.362 304.651C137.192 304.601 138.082 304.591 138.862 304.831C142.462 305.941 146.112 306.441 149.892 306.361C155.262 306.241 160.632 306.231 166.002 306.361C170.872 306.481 175.722 306.151 180.632 307.001C185.082 307.771 189.642 308.601 194.122 308.701C199.872 308.831 205.552 309.851 211.302 309.711C213.262 309.661 215.142 309.891 217.042 310.531C220.002 311.531 223.082 312.161 226.042 313.141C229.272 314.211 232.792 314.981 235.512 316.851C239.112 319.321 242.852 319.041 246.692 318.981C247.372 318.971 248.172 318.251 248.702 317.671C251.172 314.991 253.702 312.351 255.952 309.501C258.682 306.041 260.482 302.151 261.522 297.741C262.612 293.131 264.282 288.611 266.192 284.271C269.322 277.131 272.252 269.921 274.922 262.611C275.812 260.181 276.692 257.721 277.212 255.151C277.382 254.311 277.412 253.601 276.462 253.811C273.282 254.531 270.172 255.551 266.982 256.211C264.412 256.751 261.692 256.671 259.162 257.341C253.642 258.791 248.022 259.261 242.382 259.601C235.532 260.011 228.652 260.071 221.812 260.581C219.342 260.761 216.752 260.961 214.432 261.581C212.452 262.111 210.582 261.931 208.672 262.191C206.622 262.471 204.572 262.961 202.522 262.991C199.862 263.031 197.262 263.271 194.672 263.881C193.212 264.231 191.712 264.401 190.252 264.761C188.402 265.211 186.552 265.701 184.732 266.281C178.682 268.181 172.692 270.111 166.192 269.881C159.422 269.641 152.632 269.741 145.842 269.851C139.132 269.961 132.442 269.881 125.702 270.511C115.652 271.451 105.512 270.321 95.3819 271.091C90.8019 271.441 86.0919 269.831 81.3619 269.801C80.9619 269.801 80.5419 269.691 80.1519 269.561C72.7919 267.001 65.0219 266.781 57.4219 265.691C54.6719 265.291 52.0119 264.841 49.3919 263.941C47.7219 263.371 45.9719 263.001 44.2419 262.611C43.1619 262.361 42.7619 262.921 42.2819 264.221C40.8919 267.961 40.6019 272.231 37.1519 275.011C36.9819 275.151 37.1419 275.651 37.0819 275.971C36.8719 277.011 36.6219 278.021 36.3719 279.101ZM266.512 307.661C267.012 308.101 267.292 308.481 267.662 308.651C269.312 309.391 270.702 310.481 272.162 311.541C273.972 312.841 273.522 314.801 274.252 316.371C276.922 322.061 278.992 327.991 280.812 333.991C282.952 341.011 284.702 348.121 284.712 355.551C284.712 359.901 284.712 364.281 285.142 368.601C285.572 372.911 283.392 376.931 284.132 381.201C282.562 384.281 283.652 387.571 283.442 390.751C283.392 391.431 284.112 392.161 284.522 392.951C284.982 392.481 285.352 392.221 285.552 391.871C288.322 387.051 289.932 381.871 290.152 376.311C290.212 374.721 290.702 373.471 291.772 372.371C295.512 375.431 297.322 379.881 296.002 384.431C294.542 389.461 295.712 394.471 295.302 399.471C295.282 399.781 295.642 400.371 295.882 400.401C296.392 400.471 297.192 400.451 297.422 400.131C297.972 399.381 298.392 398.461 298.622 397.551C299.022 395.961 298.932 394.191 299.602 392.751C300.242 391.391 300.092 390.041 300.402 388.721C301.102 385.721 301.062 382.671 301.392 379.651C301.582 377.871 302.202 376.231 301.322 374.411C300.802 373.341 301.392 372.291 302.932 371.671C304.162 373.631 305.162 375.851 306.732 377.531C308.372 379.291 307.962 381.131 307.832 383.031C307.762 384.031 306.182 381.901 306.362 383.611C306.442 384.401 306.932 385.141 307.082 385.941C307.202 386.621 307.322 387.451 307.052 388.031C305.562 391.281 306.502 394.571 306.422 398.051C307.102 397.841 307.652 397.841 307.822 397.591C310.462 393.701 312.752 389.541 313.812 385.011C315.092 379.551 315.792 373.911 316.302 368.341C316.742 363.551 317.292 358.551 315.662 353.731C315.182 352.321 314.952 350.791 314.822 349.301C314.762 348.581 315.032 347.671 315.482 347.141C315.692 346.901 316.832 347.201 317.352 347.541C318.612 348.361 319.792 349.331 320.962 350.291C322.392 351.461 323.812 352.881 323.982 354.661C324.282 357.631 326.012 360.021 326.702 362.821C327.142 364.601 328.122 366.371 329.272 367.831C331.572 370.771 334.152 373.491 336.752 376.471C336.472 373.791 336.532 371.251 335.882 368.911C334.352 363.391 332.522 357.941 330.712 352.501C330.072 350.571 328.822 348.811 328.402 346.851C327.612 343.201 326.162 339.761 325.412 336.101C324.512 331.671 323.072 327.341 322.472 322.881C321.792 317.771 321.762 312.571 321.472 307.401C321.362 305.341 321.892 303.211 320.782 301.241C320.612 300.941 320.732 300.111 320.872 300.061C322.862 299.461 321.552 298.101 321.492 297.161C321.362 295.091 321.002 293.041 320.732 290.991C320.522 289.421 321.152 287.911 320.822 286.271C320.462 284.501 320.822 282.601 320.672 280.781C320.482 278.361 321.462 276.091 320.892 273.531C320.332 271.021 321.032 268.251 321.032 265.591C321.022 262.851 320.832 260.121 320.722 257.381C323.052 253.891 319.042 250.021 321.342 246.491C321.412 246.381 320.692 245.471 320.242 245.361C319.452 245.171 318.342 244.991 317.802 245.391C316.492 246.361 315.102 245.961 313.742 246.071C309.722 246.391 305.702 246.651 301.672 246.941C301.392 246.961 301.112 247.001 300.842 247.071C297.792 247.851 294.772 248.951 291.672 249.311C289.032 249.621 286.992 251.711 284.112 251.301C282.822 251.121 281.322 253.481 281.752 254.701C282.872 257.901 281.292 260.981 281.472 264.141C281.512 264.761 281.032 266.301 279.602 266.621C279.432 266.661 280.052 268.691 279.652 269.451C277.402 273.701 277.202 278.621 274.952 282.911C273.122 286.401 272.842 290.551 270.892 294.111C270.202 295.361 270.382 297.051 269.152 298.241C268.872 298.521 269.512 299.691 269.652 300.461C269.812 301.331 267.972 300.781 268.452 302.141C268.582 302.511 267.272 303.461 267.422 303.771C268.182 305.321 267.302 306.341 266.512 307.661ZM207.972 392.281C209.682 394.441 209.972 396.901 209.222 399.361C208.542 401.581 208.622 402.741 208.482 405.171C208.362 407.351 209.072 409.451 208.722 411.581C208.452 413.191 208.002 414.771 207.632 416.371C205.802 416.321 206.552 418.381 206.592 418.481C207.312 419.951 206.472 421.061 205.962 422.261C205.372 423.661 206.872 425.081 205.962 426.491C205.812 426.731 205.592 426.951 205.532 427.221C205.072 429.091 204.262 430.881 204.422 432.901C204.462 433.391 203.902 434.281 203.472 434.381C202.512 434.601 202.102 434.551 202.582 435.831C202.912 436.711 202.482 437.991 202.132 439.011C201.282 441.481 200.292 443.901 199.342 446.341C199.262 446.551 198.952 446.881 198.932 446.871C197.652 446.051 197.342 447.021 196.862 447.891C196.402 448.721 195.742 449.441 195.272 450.261C195.172 450.431 195.532 450.861 195.682 451.171C197.312 450.271 196.972 451.371 196.432 452.031C195.592 453.061 194.342 453.761 193.552 454.821C192.752 455.881 192.222 457.171 191.722 458.411C191.362 459.311 190.002 457.531 190.062 459.121C190.132 460.801 189.012 461.971 187.742 462.291C184.362 463.151 183.892 465.441 184.082 468.331C184.122 468.851 183.962 469.451 183.722 469.921C183.362 470.631 183.582 470.771 184.262 471.001C184.592 471.111 185.012 472.081 184.882 472.251C183.432 474.071 185.062 475.041 185.842 476.291C186.572 477.461 187.062 478.791 187.902 479.861C188.282 480.341 189.252 480.341 189.962 480.551C190.132 479.631 190.532 479.361 191.262 480.111C192.012 480.881 192.762 481.351 193.792 480.451C194.002 480.271 194.732 480.311 194.912 480.521C196.512 482.331 198.152 481.901 200.222 481.261C201.432 480.881 202.942 480.261 204.522 480.961C205.722 481.491 206.462 480.471 207.042 479.341C207.662 478.151 208.402 476.851 209.442 476.071C212.782 473.581 215.752 470.731 218.412 467.561C219.022 466.831 219.352 465.841 220.012 465.181C224.822 460.421 228.462 454.751 232.512 449.401C233.342 448.301 234.212 447.221 235.042 446.121C240.412 439.071 244.282 431.131 248.292 423.291C248.982 421.941 249.672 420.591 250.232 419.181C250.782 417.791 251.172 416.331 251.612 414.901C252.092 413.331 252.372 411.671 253.072 410.221C253.652 409.031 254.152 407.761 254.882 406.601C255.512 405.591 254.662 403.691 254.572 402.181C254.542 401.651 254.832 401.111 254.932 400.571C255.092 399.631 255.472 398.621 255.292 397.741C254.932 396.021 254.352 394.511 255.192 392.621C255.792 391.281 254.722 390.341 253.392 390.251C249.572 390.001 245.782 390.641 241.972 390.711C236.322 390.821 230.692 391.531 225.042 391.631C221.812 391.691 218.492 392.861 215.312 391.241C212.982 392.191 210.382 391.531 207.972 392.281ZM429.482 180.001C429.292 180.561 428.902 181.131 428.962 181.651C429.072 182.531 429.642 183.361 429.692 184.231C429.742 185.171 429.372 186.121 429.242 187.071C429.112 188.031 429.032 189.001 428.932 189.961C426.852 188.861 427.612 189.911 428.032 191.041C428.362 191.921 428.382 192.931 428.422 193.891C428.512 196.011 428.282 198.051 426.982 199.871C426.422 200.661 426.622 202.821 427.052 203.651C427.272 204.081 427.362 204.651 427.302 205.141C427.192 206.081 426.782 207.001 426.762 207.941C426.702 210.171 426.712 212.391 425.902 214.521C425.612 215.281 424.992 216.291 425.252 216.821C425.762 217.831 425.812 218.471 425.242 219.491C424.972 219.971 425.682 220.951 425.812 221.731C425.922 222.421 426.012 223.201 425.792 223.831C424.022 229.071 424.262 234.511 424.132 239.911C424.112 240.741 424.242 241.651 423.962 242.391C423.442 243.781 422.202 244.891 422.712 246.651C423.122 248.061 422.432 249.471 422.482 250.941C422.552 252.761 422.582 254.131 424.672 254.861C425.912 255.291 427.382 256.181 427.942 257.281C429.612 260.551 432.852 261.481 435.572 263.271C438.612 265.271 442.432 265.021 445.382 267.231C446.342 267.951 448.152 268.221 449.272 267.831C450.362 267.451 451.982 267.761 452.632 265.931C453.162 264.431 454.532 263.211 455.542 261.881C458.532 257.951 462.022 254.381 463.732 249.571C465.782 243.801 468.352 238.251 470.232 232.361C472.722 224.581 474.782 216.691 477.152 208.881C477.902 206.411 477.912 206.371 475.332 205.391C474.822 205.201 474.342 204.931 473.862 204.681C468.542 201.871 463.072 199.311 457.952 196.181C452.292 192.721 445.852 190.771 440.532 186.751C436.182 185.741 433.152 182.561 429.482 180.001ZM389.432 235.841C391.342 235.001 392.822 234.451 394.692 235.021C396.102 235.451 397.502 235.361 398.932 236.321C400.292 237.231 402.352 237.281 404.122 237.341C406.042 237.411 407.382 239.711 409.632 238.551C410.142 238.291 411.142 238.961 411.902 239.221C412.802 239.531 413.672 239.981 414.602 240.141C415.542 240.301 416.452 240.401 416.632 238.831C417.022 235.391 418.102 231.991 418.142 228.571C418.202 223.951 418.692 219.391 419.202 214.831C419.712 210.261 420.602 205.731 421.142 201.161C421.472 198.391 423.712 195.751 421.792 192.791C421.692 192.641 421.892 192.281 421.982 192.021C422.782 189.721 422.242 187.871 420.222 186.431C419.792 186.121 419.192 185.511 419.252 185.131C419.582 182.991 418.112 181.541 417.492 179.761C415.312 173.531 411.732 168.341 406.952 163.821C403.202 160.271 398.632 158.871 393.762 158.821C388.872 158.771 384.562 161.191 380.282 163.361C379.792 165.121 377.852 164.921 376.912 165.831C380.232 166.841 383.572 168.071 387.022 168.811C388.962 169.231 390.682 169.391 391.702 171.461C392.062 172.201 393.232 172.611 394.112 172.981C394.472 173.131 394.762 172.061 395.482 173.211C397.352 176.181 400.522 178.361 400.782 182.281C402.312 183.731 402.682 185.351 401.452 187.181C402.452 188.821 401.012 189.831 400.472 191.091C399.872 192.481 399.322 193.891 398.722 195.281C398.552 195.661 398.262 195.981 398.012 196.321C397.142 197.561 395.432 198.911 395.582 200.001C395.802 201.551 396.272 202.991 395.732 204.541C397.272 206.661 396.052 208.981 396.152 211.191C396.192 212.091 395.672 213.031 395.322 213.911C395.252 214.101 394.712 214.341 394.602 214.261C393.672 213.621 393.132 213.741 392.832 214.891C392.342 216.771 391.942 217.151 389.492 218.581C389.442 220.171 387.952 219.371 387.332 219.921C386.672 220.491 386.612 221.591 385.292 221.601C384.082 221.611 384.422 222.771 384.362 223.561C384.302 224.401 384.572 224.951 385.492 224.881C386.352 224.811 386.732 225.141 386.902 225.991C387.152 227.191 387.192 228.881 387.972 229.421C389.732 230.641 389.382 232.191 389.422 233.781C389.442 234.341 389.432 234.901 389.432 235.841ZM206.392 59.8314C206.462 60.0414 206.532 60.2614 206.602 60.4714C208.012 60.1814 209.442 59.5814 210.812 59.6914C212.262 59.8114 213.662 59.7414 215.102 59.7014C216.602 59.6614 218.122 59.8214 219.622 59.9014C220.252 62.3114 222.122 60.8314 223.432 61.0914C223.482 61.1014 223.742 60.6614 223.682 60.5714C222.852 59.3214 223.922 59.3914 224.442 59.6914C226.312 60.7814 226.242 60.7514 227.482 60.3514C227.962 60.1914 228.542 58.9814 229.052 60.1414C229.402 60.9314 229.622 61.2614 230.502 60.9114C233.072 59.8814 235.612 60.0114 238.162 61.0914C238.772 61.3514 239.562 61.3114 240.252 61.2514C241.202 61.1714 240.502 63.0914 241.792 62.4514C243.332 61.6914 244.672 62.3914 246.132 62.8514C249.062 63.7714 252.082 64.4315 255.212 65.2415C255.742 62.6815 254.852 59.9114 256.222 57.4714C256.332 57.2714 256.302 56.8414 256.152 56.6514C254.872 55.0114 255.412 53.1114 255.442 51.3314C255.502 47.4114 255.262 43.5415 254.572 39.6815C253.962 36.2815 252.302 33.3114 250.962 30.2214C250.352 28.8214 249.022 28.0914 247.202 28.0314C241.132 27.8614 235.302 26.7414 230.542 22.5014C229.932 21.9614 229.182 21.5614 228.482 21.1414C228.192 20.9714 227.752 20.7314 227.532 20.8414C223.742 22.6714 219.202 23.1615 216.472 26.9315C216.242 27.2515 215.872 27.6314 215.522 27.7014C212.192 28.2914 209.962 30.4914 207.992 32.9514C205.402 36.1814 203.152 39.6714 200.692 42.9714C197.452 47.3014 195.102 51.9715 192.772 56.8015C195.582 57.1815 198.052 57.4314 200.472 57.9214C201.082 58.0414 201.482 59.2614 202.082 59.3414C202.792 59.4514 203.592 58.7314 204.382 58.6614C205.472 58.5614 206.582 58.7315 208.212 58.8115C207.262 59.3315 206.822 59.5814 206.392 59.8314ZM190.552 557.721C189.972 557.811 188.472 557.981 187.002 558.271C182.272 559.201 178.062 561.501 173.712 563.411C172.602 563.901 171.282 564.581 170.792 565.541C170.462 566.181 171.452 567.481 171.822 568.491C171.892 568.691 171.902 569.111 171.852 569.131C169.322 569.901 171.772 569.961 172.012 570.361C172.222 570.711 172.342 571.111 172.492 571.501C172.942 572.721 173.042 574.541 173.902 575.021C175.052 575.671 175.712 573.391 177.442 573.371C178.912 573.351 180.362 571.971 181.842 571.241C182.552 570.891 183.172 570.901 183.392 571.891C183.422 572.011 183.962 572.191 184.072 572.101C184.442 571.801 184.652 571.221 185.052 571.051C187.272 570.061 189.932 570.422 192.002 568.831C192.142 568.721 193.032 569.181 193.152 569.521C193.902 571.541 194.132 570.251 194.812 569.441C195.272 568.881 196.282 568.541 197.052 568.521C200.942 568.441 204.752 566.801 208.702 567.951C209.012 568.042 209.402 567.921 209.742 567.871C215.442 567.061 221.082 565.921 226.772 565.071C229.232 564.711 231.642 564.031 234.052 563.391C235.762 562.931 237.402 562.221 239.102 561.771C240.292 561.461 240.252 560.682 240.062 559.841C239.622 557.941 237.652 556.792 237.512 554.711C237.492 554.471 236.932 554.121 236.592 554.081C233.432 553.741 230.262 553.431 227.092 553.181C225.832 553.081 224.192 552.671 223.362 553.271C221.682 554.481 221.512 552.421 220.522 552.391C219.852 552.371 217.462 553.091 216.072 553.801C215.842 553.921 215.412 554.011 215.292 553.891C214.872 553.481 214.532 552.981 214.172 552.511C213.782 552.991 213.452 553.791 212.972 553.891C212.142 554.071 211.222 553.751 210.352 553.761C208.732 553.781 206.762 555.141 205.832 552.531C205.812 552.481 204.842 552.611 204.812 552.761C204.582 553.881 203.992 553.921 203.142 553.471C202.892 555.441 200.962 554.991 199.872 555.441C198.652 555.941 198.012 557.761 196.302 557.101C194.862 556.541 193.782 557.531 192.552 557.951C192.222 558.061 191.812 557.881 190.552 557.721ZM198.702 393.591C198.102 393.701 197.012 393.891 195.932 394.111C194.472 394.421 194.022 394.781 194.362 395.741C194.972 397.471 195.722 399.331 195.082 400.981C194.222 403.221 196.202 405.501 194.662 407.591C194.612 407.661 194.842 408.081 194.982 408.111C196.772 408.511 195.792 409.931 195.952 410.871C196.082 411.631 194.002 415.161 193.672 416.181C193.172 417.741 191.182 418.621 191.712 420.631C191.782 420.891 191.412 421.531 191.172 421.571C188.932 421.931 187.792 424.581 185.272 424.351C184.942 424.321 184.432 424.581 184.262 424.861C182.792 427.291 180.602 428.381 177.842 428.681C177.412 428.731 176.082 429.381 177.132 430.491C177.742 431.131 177.272 432.101 178.382 432.861C179.842 433.851 180.282 435.951 180.352 437.881C180.452 441.031 180.982 444.091 181.922 447.131C182.342 448.481 181.972 450.071 181.942 451.551C181.922 452.211 181.542 453.141 181.842 453.471C183.062 454.821 183.822 456.101 182.712 457.881C182.652 457.971 183.222 458.501 183.542 458.751C183.622 458.811 184.002 458.661 184.102 458.511C186.952 454.441 189.812 450.371 192.612 446.261C195.462 442.091 195.992 437.041 197.722 432.441C198.442 430.511 198.902 428.481 199.472 426.491C200.642 422.421 201.112 418.231 201.542 414.041C201.902 410.541 203.112 407.171 202.892 403.561C202.772 401.521 202.562 399.471 203.482 397.361C204.292 395.491 202.602 393.751 200.472 393.681C200.062 393.671 199.642 393.641 198.702 393.591ZM247.042 527.411C246.492 526.911 246.212 526.581 245.862 526.361C241.912 523.841 237.642 521.801 234.392 518.231C233.012 516.711 231.232 515.521 229.522 514.341C224.092 510.572 218.572 506.941 213.192 503.101C211.392 501.811 209.592 501.271 207.442 501.401C205.472 501.521 203.492 501.361 201.512 501.441C199.102 501.541 196.892 501.001 194.782 499.851C193.732 499.281 192.392 498.611 191.532 499.831C190.982 500.621 191.062 501.891 190.982 502.951C190.952 503.311 191.242 503.731 191.472 504.061C192.572 505.631 192.642 507.401 192.662 509.231C192.702 511.721 193.482 512.631 195.952 513.271C198.062 513.821 200.172 514.551 202.322 514.721C205.192 514.951 207.832 515.732 210.312 517.081C213.042 518.561 215.742 520.021 218.212 521.991C220.312 523.671 222.012 525.941 224.992 526.551C231.112 527.791 237.212 529.111 243.502 528.541C244.642 528.441 245.722 527.851 247.042 527.411ZM548.922 221.761C548.922 221.131 548.932 220.851 548.922 220.571C548.842 217.451 548.632 217.241 545.412 217.271C544.712 217.281 543.982 217.231 543.332 217.421C538.822 218.741 535.092 221.031 532.652 225.301C529.922 230.081 526.752 234.601 524.022 239.381C522.412 242.201 521.442 245.381 519.812 248.201C519.082 249.471 520.442 249.901 520.182 250.791C520.792 250.761 521.412 250.771 522.022 250.701C522.562 250.641 523.092 250.421 523.632 250.381C529.852 249.911 534.452 246.801 537.912 241.761C538.932 240.281 539.892 238.711 541.132 237.441C543.902 234.621 545.842 231.321 547.422 227.761C548.322 225.731 549.212 223.711 548.922 221.761ZM482.082 225.931C481.972 226.771 482.192 228.181 481.662 228.581C479.282 230.381 480.892 233.181 479.722 235.221C479.642 235.371 479.762 235.631 479.782 235.841C481.342 235.501 482.202 237.171 483.782 237.131C485.362 237.091 486.962 237.601 488.552 237.851C488.832 237.891 489.122 237.831 489.412 237.821C489.212 237.501 489.052 237.151 488.822 236.851C488.632 236.611 488.372 236.431 488.142 236.221C488.402 236.131 488.662 235.971 488.922 235.981C489.322 235.991 490.012 236.021 490.072 236.211C490.702 238.211 491.662 237.671 492.722 236.621C493.452 235.891 494.192 235.811 494.872 236.631C495.282 237.131 495.592 237.711 495.952 238.261C496.382 237.761 496.722 237.091 497.262 236.821C498.052 236.421 499.072 234.871 499.822 236.931C499.882 237.091 500.142 237.171 500.312 237.281C501.762 234.761 503.862 236.131 505.782 236.351C505.972 236.371 506.302 236.371 506.352 236.271C507.562 234.081 509.072 234.891 510.392 236.001C511.162 236.651 511.612 236.871 512.522 236.291C513.292 235.801 514.482 235.131 515.102 235.401C517.312 236.371 518.302 234.931 519.412 233.641C520.092 232.851 520.842 231.871 520.362 230.831C519.682 229.371 518.742 231.251 517.852 230.861C517.372 230.651 516.762 230.701 516.212 230.651C513.852 230.431 511.492 230.221 509.122 229.991C506.092 229.701 503.052 229.401 500.022 229.101C499.752 229.071 499.472 229.021 499.232 228.901C498.072 228.351 496.992 228.031 495.572 228.031C494.212 228.031 492.652 227.581 491.152 227.391C488.172 227.011 485.232 226.451 482.082 225.931ZM211.832 495.601C212.852 494.961 214.402 494.132 215.792 493.091C217.632 491.701 217.522 490.511 215.522 489.221C215.082 488.931 214.402 488.991 214.002 488.671C212.162 487.211 209.942 488.051 207.932 487.611C204.312 486.811 200.612 486.561 196.892 486.551C194.742 486.541 192.572 486.301 190.442 485.961C188.142 485.591 187.262 486.102 187.582 488.211C187.792 489.531 188.562 490.761 188.802 492.081C189.152 493.971 189.912 494.881 192.032 494.861C193.002 494.851 194.022 496.211 194.512 494.271C194.532 494.181 194.692 494.121 194.782 494.041C195.932 496.231 197.982 494.341 199.402 495.061C200.392 495.571 201.132 495.451 202.152 495.141C203.442 494.741 204.892 494.741 206.262 494.801C206.802 494.821 207.302 495.481 207.832 495.851C208.042 494.131 208.902 495.431 209.502 495.481C210.052 495.521 210.612 495.531 211.832 495.601ZM189.852 191.291C186.582 191.781 184.062 192.301 181.522 191.401C181.362 191.341 180.802 191.841 180.742 192.141C180.532 193.211 181.092 193.581 182.152 193.561C183.962 193.531 185.702 191.791 187.642 193.331C187.742 193.411 188.802 192.281 189.852 191.291ZM111.432 437.211C111.082 436.791 110.872 436.551 110.672 436.311C110.322 436.841 109.922 437.351 109.652 437.921C109.612 438.001 110.132 438.361 110.392 438.581C110.732 438.151 111.062 437.701 111.432 437.211ZM326.442 302.261C326.222 302.281 326.012 302.311 325.792 302.331C325.872 303.321 325.952 304.321 326.032 305.311C326.172 305.301 326.302 305.301 326.442 305.291C326.442 304.281 326.442 303.271 326.442 302.261ZM179.172 191.561C178.742 191.371 178.392 191.071 178.132 191.131C177.862 191.201 177.692 191.621 177.472 191.891C177.832 192.131 178.182 192.371 178.542 192.621C178.722 192.301 178.902 192.001 179.172 191.561ZM175.702 190.821C175.362 191.231 175.152 191.481 174.932 191.741C175.272 192.021 175.612 192.301 175.952 192.581C176.122 192.281 176.432 191.981 176.412 191.691C176.392 191.441 176.022 191.201 175.702 190.821ZM258.192 74.8914C257.722 74.5014 257.442 74.0914 257.182 74.1014C256.902 74.1114 256.642 74.5114 256.372 74.7314C256.602 74.9814 256.812 75.4014 257.082 75.4514C257.332 75.5014 257.662 75.1814 258.192 74.8914ZM275.342 279.111C275.432 279.011 275.612 278.901 275.612 278.811C275.592 278.171 275.542 277.541 275.482 276.901C275.482 276.881 275.322 276.871 275.242 276.861C275.192 277.501 275.132 278.141 275.102 278.781C275.092 278.891 275.252 279.001 275.342 279.111ZM395.182 208.841C395.052 208.841 394.922 208.841 394.792 208.841C394.722 209.351 394.612 209.861 394.582 210.381C394.572 210.621 394.742 210.861 394.822 211.101C394.992 210.851 395.292 210.611 395.312 210.351C395.352 209.851 395.232 209.351 395.182 208.841ZM230.042 65.8615C230.402 66.0815 230.512 66.2014 230.622 66.2014C231.122 66.1814 231.612 66.1214 232.112 66.0714C232.072 65.9014 232.042 65.5814 231.982 65.5814C231.482 65.5414 230.972 65.5514 230.472 65.5714C230.362 65.5814 230.262 65.7114 230.042 65.8615ZM325.142 134.101C324.802 133.851 324.472 133.541 324.092 133.361C323.962 133.301 323.692 133.571 323.482 133.691C323.832 134.081 324.182 134.471 324.532 134.851C324.672 134.681 324.812 134.511 325.142 134.101ZM235.222 66.6815C235.322 66.7615 235.422 66.9214 235.522 66.9214C236.122 66.9214 236.712 66.8914 237.312 66.8514C237.332 66.8514 237.342 66.6914 237.362 66.6014C236.762 66.5514 236.152 66.4914 235.552 66.4714C235.442 66.4614 235.332 66.6015 235.222 66.6815ZM195.022 58.2514C194.832 58.1114 194.652 57.8414 194.462 57.8414C193.952 57.8514 193.452 57.9714 192.942 58.0414C193.012 58.2114 193.072 58.5214 193.152 58.5214C193.662 58.5514 194.182 58.5214 194.702 58.4814C194.812 58.4814 194.922 58.3414 195.022 58.2514Z" fill="#1D3D6C"/>
<path d="M565.812 452.242C565.982 451.472 566.162 450.702 566.332 449.942C567.182 450.412 567.932 451.182 568.502 449.462C568.782 448.632 569.182 448.072 568.522 447.332C568.452 447.252 568.452 446.972 568.512 446.932C571.292 445.002 571.802 441.182 574.802 439.402C576.552 438.372 578.702 437.832 579.682 435.692C579.822 435.382 580.672 435.392 581.202 435.272C581.602 435.182 582.312 435.212 582.372 435.032C583.142 432.492 585.782 432.372 587.502 431.142C588.912 430.122 590.352 428.992 592.492 429.032C594.152 429.062 594.822 426.342 596.982 426.452C597.772 426.492 598.572 426.082 599.382 425.972C600.232 425.862 600.572 426.312 600.682 427.172C600.912 429.072 601.252 428.082 601.742 427.232C601.852 427.042 602.852 427.062 603.082 427.302C603.522 427.802 604.122 428.702 603.932 429.132C602.982 431.292 604.772 433.472 603.902 435.392C603.292 436.742 604.592 437.782 603.962 438.802C603.312 439.862 601.812 440.662 601.652 441.722C601.152 444.962 598.872 447.092 597.232 449.582C595.132 452.772 593.122 456.132 589.842 458.332C588.452 459.262 588.192 461.342 586.442 461.702C584.932 462.012 583.912 463.002 582.772 463.822C578.962 466.562 575.252 469.462 570.882 471.322C569.372 471.962 567.832 473.092 566.322 473.082C564.372 473.062 563.222 475.032 561.282 474.622C561.222 474.612 560.892 475.452 560.852 475.912C560.832 476.132 561.302 476.622 561.392 476.582C561.872 476.392 562.752 475.942 562.312 476.892C561.232 479.212 561.842 481.582 561.622 483.922C561.492 485.282 561.852 486.732 560.492 487.812C560.192 488.052 560.412 489.002 560.452 489.622C560.552 491.422 560.692 493.232 560.782 495.032C560.822 495.822 560.512 496.332 559.622 496.482C559.472 496.512 559.252 497.692 559.432 497.832C561.782 499.562 560.932 502.152 560.582 504.102C560.232 506.042 560.702 508.002 560.032 509.912C559.692 510.862 559.782 512.332 560.322 513.142C561.072 514.272 562.302 515.272 563.542 515.812C564.922 516.412 566.062 517.022 567.232 518.052C568.142 518.852 570.052 518.562 570.872 520.052C574.902 521.032 577.772 523.972 581.132 526.082C584.182 528.002 587.432 529.602 590.262 531.892C591.202 532.652 592.452 533.042 593.572 533.582C595.532 534.522 597.462 535.552 599.482 536.362C601.332 537.102 602.642 538.832 604.742 539.062C604.972 539.082 605.142 539.532 605.382 539.582C605.872 539.682 605.772 542.722 606.862 539.912C606.872 539.882 607.102 539.872 607.182 539.932C611.272 542.742 616.032 544.192 620.372 546.472C621.162 546.882 622.302 547.152 621.262 548.562C621.102 548.782 622.272 549.992 622.852 550.772C621.642 551.602 619.732 549.212 619.212 551.862C619.172 552.062 618.452 552.322 618.132 552.232C616.022 551.662 613.872 551.152 611.852 550.332C607.422 548.542 603.072 546.562 598.682 544.682C597.802 544.302 596.802 544.142 596.022 543.632C595.282 543.152 594.972 543.372 594.312 543.792C591.432 545.612 588.512 547.252 585.152 548.272C582.752 548.992 580.482 549.872 577.942 549.862C577.432 549.862 576.922 550.222 576.282 550.472C576.142 549.772 576.192 548.982 575.832 548.462C575.252 547.622 575.622 547.102 576.252 546.812C577.842 546.072 579.092 545.112 579.652 543.352C579.792 542.902 580.392 542.472 580.882 542.262C583.382 541.192 585.922 540.202 588.542 539.142C584.842 537.302 581.102 535.482 577.392 533.582C576.652 533.202 576.142 532.582 575.172 533.222C570.492 536.302 565.012 537.242 559.752 538.722C552.272 540.822 544.802 543.092 537.182 544.552C532.472 545.452 527.892 546.732 523.252 547.802C519.292 548.712 515.332 549.672 511.372 550.572C511.012 550.652 510.482 550.532 510.212 550.302C510.022 550.142 510.022 549.552 510.172 549.262C511.402 546.792 513.312 545.062 515.852 543.882C518.962 542.442 522.262 541.642 525.522 540.712C525.912 540.602 526.342 540.602 526.742 540.512C527.672 540.302 528.242 542.092 529.322 540.962C528.462 540.002 528.752 539.852 529.952 539.622C531.542 539.312 533.062 538.022 534.552 538.102C536.162 538.192 537.502 536.242 539.292 537.702C539.612 537.962 541.062 536.602 542.072 536.282C545.082 535.352 548.142 534.592 551.172 533.702C552.492 533.322 553.762 532.762 555.072 532.372C556.072 532.072 555.792 534.412 557.062 533.472C557.662 533.022 557.952 532.162 558.422 531.522C558.482 531.452 559.022 531.582 559.032 531.652C559.162 532.782 559.852 532.942 560.822 532.852C562.332 532.712 560.312 531.542 561.382 531.172C563.962 530.272 566.492 529.242 569.252 528.182C567.592 526.962 566.122 525.722 564.092 525.042C562.292 524.442 560.772 523.072 559.072 522.142C557.202 521.112 555.452 520.952 553.192 521.672C545.372 524.172 537.742 527.102 530.162 530.232C521.892 533.642 513.692 537.172 505.782 541.332C501.042 543.822 496.092 545.862 491.382 548.392C487.352 550.552 482.952 551.722 478.792 553.522C477.242 554.192 475.892 553.962 474.442 553.852C474.352 551.022 476.842 550.162 478.042 548.452C478.192 548.242 479.272 548.862 479.812 548.712C480.522 548.512 481.282 547.432 481.722 547.582C483.602 548.212 482.322 546.562 482.812 546.262C483.252 545.982 483.832 545.782 484.102 545.382C485.032 544.022 486.912 546.152 487.572 544.432C488.162 542.892 489.602 542.732 490.762 542.062C491.952 541.372 493.042 540.502 494.192 539.732C494.762 539.352 495.462 539.142 495.952 538.682C497.172 537.552 497.092 538.962 497.512 539.412C497.792 538.732 498.052 537.482 498.342 537.472C500.622 537.402 501.742 534.722 504.152 535.002C504.512 535.042 504.962 534.342 505.372 533.982C505.652 534.352 505.942 534.722 506.222 535.092C506.192 534.152 508.632 535.262 507.622 533.402C507.522 533.212 508.092 532.442 508.502 532.232C511.052 530.932 513.862 530.022 516.152 528.382C518.562 526.652 521.432 526.132 523.912 524.642C526.472 523.112 529.412 522.202 532.162 520.972C535.512 519.472 538.792 517.792 542.522 517.432C545.772 514.642 550.362 515.212 554.052 512.652C554.052 510.402 554.052 507.872 554.052 505.342C554.052 503.372 555.342 501.402 554.092 499.422C555.682 497.792 555.032 495.552 555.012 493.812C554.992 491.882 555.432 490.122 555.892 488.432C556.282 486.982 555.242 485.792 555.782 484.512C556.262 483.372 557.522 481.902 557.172 481.182C555.632 477.972 558.282 475.672 558.522 472.912C558.612 471.832 559.082 470.712 558.912 469.692C558.412 466.782 558.322 466.792 559.092 464.472C554.582 463.842 550.662 461.692 546.712 459.662C545.792 459.192 544.882 458.692 544.312 457.572C543.762 456.492 542.482 455.812 541.742 454.802C540.632 453.282 537.942 452.812 538.532 450.132C536.242 449.252 535.572 447.032 534.412 445.202C533.312 443.462 532.232 441.692 531.012 440.022C528.982 437.242 527.332 434.242 525.662 431.252C523.152 426.752 522.812 422.072 524.362 417.242C524.672 416.292 525.182 416.032 526.522 416.432C527.852 416.822 529.582 415.812 531.142 415.452C531.822 415.302 533.052 415.012 533.112 415.172C533.562 416.222 534.342 416.202 535.272 416.422C536.052 416.612 536.712 418.122 537.332 418.062C539.982 417.802 541.082 420.342 543.122 420.912C544.412 421.272 542.862 423.252 544.762 423.022C545.292 422.962 545.922 424.182 546.582 424.732C547.422 425.442 548.452 425.962 549.182 426.762C549.812 427.462 549.942 428.652 550.622 429.262C553.032 431.402 554.312 434.302 556.162 436.792C559.452 441.212 561.242 446.112 562.522 451.342C562.762 452.312 563.592 453.142 564.152 454.032C564.132 454.172 564.162 454.362 564.082 454.432C563.512 455.002 563.402 455.532 564.152 456.032C565.032 456.622 564.932 455.782 565.042 455.382C565.332 454.312 565.562 453.272 565.812 452.242ZM539.402 424.292C539.232 423.742 539.072 423.182 538.902 422.632C538.582 422.932 538.252 423.242 537.932 423.542C536.832 423.492 536.032 423.192 536.082 421.812C536.092 421.502 535.242 420.872 535.202 420.912C533.892 421.962 533.432 421.102 532.772 420.062C531.862 418.642 530.712 420.612 529.542 420.082C529.222 419.942 528.332 420.972 527.772 421.522C527.672 421.612 527.792 422.142 527.962 422.262C530.392 424.072 530.512 426.952 530.942 429.482C531.232 431.192 531.892 432.432 533.062 433.392C536.832 436.502 539.272 440.662 542.122 444.512C543.762 446.732 545.302 449.182 547.422 450.862C550.282 453.132 553.662 454.752 556.932 456.722C557.212 456.022 557.402 455.532 557.602 455.042C557.652 454.912 557.742 454.802 557.822 454.682C557.902 454.572 558.082 454.392 558.052 454.362C557.712 453.912 557.252 453.522 557.002 453.032C556.512 452.062 556.072 451.062 555.722 450.042C553.562 443.802 550.982 437.802 546.252 432.972C545.012 431.702 544.052 430.142 543.012 428.672C542.422 427.832 544.142 424.702 540.872 426.572C540.772 426.222 540.462 425.732 540.592 425.532C542.032 423.322 539.732 424.742 539.402 424.292ZM565.192 466.532C571.392 462.612 577.072 459.352 582.352 455.522C585.262 453.422 588.292 451.142 590.112 447.852C591.122 446.032 592.382 444.402 593.462 442.672C595.102 440.032 596.052 436.972 597.242 434.062C597.362 433.772 597.162 433.172 596.912 432.962C596.702 432.782 596.062 432.792 595.832 432.982C592.702 435.472 588.302 435.602 585.452 438.582C579.362 441.212 575.282 445.982 571.792 451.382C571.422 451.952 571.052 452.862 570.552 452.962C569.422 453.192 569.362 453.822 569.282 454.712C569.222 455.372 569.022 456.092 568.652 456.632C566.812 459.372 565.852 462.402 565.192 466.532Z" fill="#1D3D6C"/>
<path d="M538.732 282.271C539.612 283.401 539.862 283.951 540.292 284.221C541.622 285.071 542.222 286.052 541.292 287.542C542.252 290.892 542.092 294.371 542.472 297.781C542.572 298.711 542.332 299.791 542.712 300.571C543.262 301.691 542.552 302.382 542.402 303.292C542.152 304.762 541.932 306.452 542.422 307.802C543.372 310.452 542.792 312.992 542.302 315.612C542.182 314.322 542.052 313.031 541.852 310.841C541.052 312.951 541.202 314.391 541.402 315.661C541.742 317.831 543.462 320.032 540.752 321.862C540.692 321.902 540.672 322.082 540.702 322.172C542.292 326.912 539.472 331.561 540.392 336.281C538.712 339.471 540.172 343.102 538.822 346.442C538.032 348.392 539.232 350.902 537.892 352.952C538.642 356.122 535.842 358.852 536.792 362.042C535.102 364.962 535.512 368.221 535.152 371.381C534.932 373.341 533.792 375.192 533.302 377.212C532.432 380.802 530.902 384.232 531.012 388.052C531.052 389.462 529.562 390.212 528.192 389.682C527.812 389.532 527.222 389.541 527.062 389.271C525.202 386.101 522.322 383.162 523.522 379.072C524.672 375.162 525.562 371.191 527.142 367.381C528.372 364.401 528.692 361.041 529.392 357.851C529.712 356.381 529.942 354.892 530.252 353.432C531.772 346.352 532.002 339.051 534.232 332.071C535.052 329.521 534.572 326.572 535.322 323.852C536.672 318.942 536.822 313.831 537.782 308.831C538.512 305.031 538.562 301.091 538.672 297.201C538.712 295.611 539.282 294.051 538.942 292.461C538.602 290.851 538.012 289.251 537.952 287.631C537.912 286.021 538.392 284.411 538.732 282.271Z" fill="#1D3D6C"/>
<path d="M559.872 270.642C560.162 271.042 560.652 271.422 560.692 271.852C560.822 273.252 560.792 274.672 560.832 276.082C560.862 277.122 560.442 278.382 562.112 278.592C562.072 280.312 563.842 281.572 562.942 283.692C562.402 284.972 562.532 286.842 563.232 288.482C564.082 290.462 564.122 292.762 565.492 294.572C565.652 294.782 565.692 295.082 565.812 295.332C566.462 296.742 563.712 298.142 565.692 299.442C567.432 300.582 566.392 302.182 566.692 303.542C567.062 305.272 567.372 307.032 567.512 308.792C567.652 310.472 567.562 312.182 567.562 313.872C567.562 314.972 567.562 316.072 567.052 317.232C566.842 316.542 566.642 315.852 566.432 315.152C566.292 315.152 566.142 315.152 566.002 315.152C566.062 316.112 565.742 317.472 566.252 317.952C567.862 319.452 567.712 321.252 567.492 323.012C567.282 324.612 568.832 326.732 566.312 327.772C566.292 327.782 566.382 328.142 566.462 328.322C566.832 329.152 567.572 332.762 567.502 334.022C567.412 335.772 567.112 337.522 567.122 339.262C567.132 340.882 567.452 342.512 567.042 344.222C566.852 343.222 566.662 342.222 566.482 341.232C566.352 341.242 566.222 341.252 566.102 341.252C566.002 342.182 565.902 343.122 565.792 344.122C565.562 344.092 565.302 344.132 565.192 344.032C562.392 341.302 561.242 338.022 561.612 334.082C561.832 331.702 561.862 329.262 561.592 326.892C561.352 324.722 561.662 322.612 561.682 320.482C561.702 318.082 562.082 315.592 561.582 313.302C560.442 308.112 561.082 302.822 560.122 297.592C559.282 293.022 558.542 288.432 557.442 283.912C556.052 278.212 554.432 272.582 552.302 267.112C551.802 265.842 551.152 264.622 550.742 263.322C550.622 262.952 551.012 262.282 551.352 261.932C551.972 261.302 552.032 262.152 552.402 262.362C554.452 263.572 555.862 265.662 558.172 266.482C558.512 266.602 558.932 266.902 559.032 267.212C559.422 268.382 559.692 269.582 560.012 270.782C559.642 271.142 558.512 270.102 558.732 271.432C558.782 271.742 559.302 271.982 559.612 272.252C559.682 271.712 559.772 271.182 559.872 270.642Z" fill="#1D3D6C"/>
<path d="M564.422 387.531C564.052 385.901 563.702 384.311 563.302 382.741C563.242 382.521 562.872 382.381 562.642 382.211C562.472 382.581 562.292 382.951 562.062 383.461C561.712 382.231 561.482 381.081 561.042 380.001C560.062 377.591 560.402 375.311 561.462 373.041C562.172 371.511 562.412 369.911 562.532 368.221C562.802 364.641 564.382 361.391 565.572 358.061C566.012 356.821 566.992 355.761 568.022 354.191C568.532 356.751 568.372 359.171 569.492 360.541C570.442 361.701 571.362 362.551 571.922 364.111C573.222 367.711 572.612 371.251 572.292 374.821C572.172 376.181 572.032 377.601 571.522 378.841C570.582 381.151 569.372 383.351 568.282 385.601C567.492 387.271 565.602 386.621 564.422 387.531Z" fill="#1D3D6C"/>
<path d="M593.042 289.342C592.572 289.962 592.202 290.742 591.592 291.162C591.082 291.502 590.232 291.302 589.612 291.542C588.612 291.942 588.962 291.082 588.712 290.752C586.362 287.582 585.802 283.712 584.582 280.112C582.462 273.852 579.832 267.832 576.032 262.402C573.552 258.862 570.842 255.482 568.072 251.822C571.692 252.172 571.602 252.272 573.832 254.492C574.732 255.392 575.182 257.422 577.252 256.612C577.282 256.602 577.562 257.192 577.702 257.512C578.202 258.642 578.732 259.762 579.162 260.912C579.482 261.782 579.892 262.332 580.952 262.212C581.632 262.132 581.952 262.492 581.522 263.192C581.082 263.892 581.032 264.462 582.032 264.722C583.562 265.122 585.102 265.302 584.002 267.732C583.672 268.472 584.862 269.922 585.392 271.032C586.132 272.572 586.892 274.102 587.642 275.612C587.832 275.242 588.062 274.772 588.332 274.242C588.822 275.242 589.292 276.212 589.782 277.172C589.972 277.542 590.422 277.922 590.382 278.232C590.252 279.152 589.852 280.042 589.692 280.962C589.422 282.542 591.592 279.872 591.332 281.882C591.232 282.602 591.802 283.402 592.062 284.172C592.372 285.072 592.772 285.952 592.942 286.882C593.092 287.702 592.972 288.562 592.972 289.402L593.042 289.342Z" fill="#1D3D6C"/>
<path d="M598.032 339.072C596.722 337.492 595.882 335.912 594.562 335.092C593.582 334.482 593.392 332.062 591.352 333.312C591.302 333.342 590.532 332.612 590.522 332.232C590.452 328.212 589.502 324.322 588.872 320.382C588.522 318.192 588.802 315.882 588.892 313.642C588.922 312.912 590.022 312.602 590.692 313.032C591.382 313.472 592.532 313.762 592.692 314.332C593.382 316.812 595.952 317.822 596.902 320.042C595.742 322.652 598.252 323.442 599.302 325.002C600.222 326.372 601.002 327.872 600.542 329.662C597.412 330.882 599.552 332.752 600.142 334.212C600.522 335.162 600.542 335.682 599.892 336.402C599.332 336.992 598.942 337.732 598.032 339.072Z" fill="#1D3D6C"/>
<path d="M277.892 381.742C278.072 382.242 278.292 382.592 278.312 382.942C278.362 383.882 278.332 384.832 278.332 386.572C277.492 384.042 277.462 384.042 277.892 381.742Z" fill="#1D3D6C"/>
<path d="M592.982 289.402C594.732 290.122 593.472 291.442 593.172 292.532C593.132 291.462 593.092 290.402 593.052 289.332L592.982 289.402Z" fill="#1D3D6C"/>
<path d="M325.942 254.242C325.902 253.872 325.782 253.492 325.832 253.132C325.882 252.822 326.112 252.542 326.272 252.252C326.382 252.482 326.582 252.702 326.582 252.932C326.592 253.432 326.492 253.922 326.442 254.422C326.272 254.352 326.112 254.302 325.942 254.242Z" fill="#1D3D6C"/>
<path d="M17.862 179.852C17.662 180.412 17.452 180.962 17.252 181.522C16.922 181.272 16.592 181.022 16.262 180.772C16.532 180.432 16.842 180.112 17.062 179.742C17.452 179.082 17.682 179.132 17.862 179.852Z" fill="#1D3D6C"/>
<path d="M356.642 190.271C356.212 189.971 355.922 189.761 355.622 189.561C355.902 189.221 356.172 188.891 356.452 188.551C356.692 188.791 357.082 189.001 357.122 189.261C357.162 189.541 356.852 189.861 356.642 190.271Z" fill="#1D3D6C"/>
<path d="M209.782 42.0918C213.452 44.5618 216.802 46.1918 219.262 49.1518C220.552 50.7118 222.512 51.2218 224.562 51.0118C226.322 50.8218 227.842 51.4518 229.212 52.3918C229.592 52.6518 229.752 53.6118 229.602 54.1318C229.462 54.6018 229.072 55.4118 228.072 54.8018C227.662 54.5518 226.802 54.7818 226.252 55.0318C223.342 56.3618 220.792 56.5018 217.652 54.8318C214.962 53.4118 212.702 52.2818 212.062 49.1118C211.932 48.4518 211.502 47.8618 211.212 47.2418C211.202 47.2618 209.952 42.7418 209.782 42.0918Z" fill="#1D3D6C"/>
<path d="M236.092 27.9609C238.792 30.5709 239.192 33.3809 239.422 36.5809C239.692 40.4509 240.252 44.3109 240.142 48.2209C240.112 49.0709 240.222 49.9309 240.072 50.7609C240.002 51.1509 239.482 51.6709 239.112 51.7209C238.672 51.7809 237.902 51.521 237.732 51.171C235.322 46.111 233.182 45.1409 234.812 36.3809C233.322 34.2209 235.062 32.1909 235.102 30.0909C235.112 29.4809 235.642 28.8809 236.092 27.9609Z" fill="#1D3D6C"/>
<path d="M250.672 40.8211C250.032 41.9411 249.592 43.2712 248.702 44.1112C247.722 45.0412 246.302 45.4412 244.872 44.8712C243.142 44.1812 243.212 42.3311 243.102 41.0811C243.022 40.1911 243.872 39.1611 243.092 38.0711C242.982 37.9211 243.252 37.3711 243.472 37.1311C244.532 36.0211 245.612 34.9311 246.742 33.8911C247.412 33.2711 249.382 34.0712 249.482 34.9812C249.702 36.8612 249.862 38.7412 250.052 40.6212C250.252 40.6912 250.462 40.7611 250.672 40.8211Z" fill="#1D3D6C"/>
<path d="M228.012 34.8808C227.892 35.2508 227.492 35.8408 227.652 36.1108C228.232 37.1308 228.832 38.1308 227.672 39.0308C226.362 40.0508 225.382 41.7208 223.422 41.6408C222.502 41.6008 221.592 41.3208 220.682 41.1408C221.242 39.7708 218.912 38.5908 220.612 36.9908C221.762 35.9108 222.362 34.2508 223.272 32.8908C223.652 32.3208 224.142 31.7908 224.662 31.3408C226.042 30.1408 226.952 30.3708 227.662 32.2008C227.962 32.9508 227.892 33.8508 228.012 34.8808Z" fill="#1D3D6C"/>
</svg>
