<svg width="87" height="63" viewBox="0 0 87 63" fill="none" xmlns="http://www.w3.org/2000/svg">
<path d="M81.8036 0.00763676C73.6215 0.444978 57.3588 2.03685 47.3194 7.82494C46.6266 8.22432 46.2339 8.93447 46.2339 9.67696V60.8459C46.2339 62.4701 48.1196 63.4967 49.7098 62.743C60.0389 57.8464 74.9772 56.5105 82.3635 56.1449C84.8853 56.0197 86.8457 54.1157 86.8457 51.8333V4.3248C86.8472 1.83435 84.5538 -0.138613 81.8036 0.00763676ZM40.3721 7.82494C30.3341 2.03685 14.0714 0.446385 5.88933 0.00763676C3.13908 -0.138613 0.845703 1.83435 0.845703 4.3248V51.8347C0.845703 54.1185 2.80612 56.0225 5.32793 56.1463C12.7172 56.5119 27.6629 57.8492 37.9921 62.7486C39.5777 63.5009 41.4575 62.4758 41.4575 60.8558V9.65165C41.4575 8.90775 41.0663 8.22572 40.3721 7.82494Z" fill="#D8B06C"/>
</svg>
