<svg width="82" height="73" viewBox="0 0 82 73" fill="none" xmlns="http://www.w3.org/2000/svg">
<path d="M39.5576 35.9283C40.5419 36.9689 42.145 36.9689 43.1434 35.9283L58.4566 19.8696C62.9001 15.2011 62.647 7.467 57.6691 3.16406C53.3381 -0.59047 46.8838 0.0845019 42.9184 4.24683L41.3435 5.89207L39.7826 4.26089C35.8172 0.0845016 29.3629 -0.59047 25.0319 3.16406C20.0681 7.467 19.8009 15.2011 24.2444 19.8696L39.5576 35.9283ZM80.3366 46.8403C78.6773 45.3357 76.09 45.4342 74.3463 46.8403L61.3533 57.2321C59.7643 58.5117 57.7816 59.2008 55.7286 59.2008H39.0936C37.8562 59.2008 36.8437 58.1883 36.8437 56.9509C36.8437 55.7134 37.8562 54.701 39.0936 54.701H50.1039C52.3397 54.701 54.4209 53.1682 54.7865 50.9605C55.2505 48.1481 53.085 45.7013 50.343 45.7013H27.8442C24.0475 45.7013 20.3774 47.0091 17.4245 49.3996L10.8858 54.701H3.09558C1.85815 54.701 0.845703 55.7134 0.845703 56.9509V70.4503C0.845703 71.6877 1.85815 72.7002 3.09558 72.7002H53.2678C55.3068 72.7002 57.2895 72.0112 58.8925 70.7315L80.1538 53.7166C82.2912 52.0151 82.4599 48.7528 80.3366 46.8403Z" fill="#D8B06C"/>
</svg>
