<svg width="73" height="94" viewBox="0 0 73 94" fill="none" xmlns="http://www.w3.org/2000/svg">
<path d="M23.3457 13.2188C23.3457 5.91814 29.3898 0 36.8457 0C44.3017 0 50.3457 5.91814 50.3457 13.2188C50.3457 20.5192 44.3017 26.4375 36.8457 26.4375C29.3898 26.4375 23.3457 20.5192 23.3457 13.2188ZM71.0883 13.4708C68.7453 11.1765 64.9462 11.1765 62.6032 13.4708L46.3604 29.375H27.3308L11.0882 13.4708C8.74523 11.1765 4.9461 11.1765 2.6031 13.4708C0.259905 15.7652 0.259905 19.485 2.6031 21.7794L20.3457 39.1521V88.125C20.3457 91.3697 23.032 94 26.3457 94H29.3457C32.6594 94 35.3457 91.3697 35.3457 88.125V67.5625H38.3457V88.125C38.3457 91.3697 41.032 94 44.3457 94H47.3457C50.6594 94 53.3457 91.3697 53.3457 88.125V39.1521L71.0883 21.7792C73.4315 19.4848 73.4315 15.7652 71.0883 13.4708Z" fill="#D8B06C"/>
</svg>
