<svg width="229" height="181" viewBox="0 0 229 181" fill="none" xmlns="http://www.w3.org/2000/svg">
<path d="M190.96 68.5352C191.29 69.1552 191.48 69.9852 192 70.4052C196.13 73.6752 197.83 75.6952 198.35 79.6752C198.59 81.5352 198.26 83.6252 197.48 85.4552C197.29 85.8952 196.19 86.4552 196.02 86.3252C194.78 85.3352 194.09 87.7351 192.95 86.7451C192.89 86.6851 192.68 86.6752 192.68 86.6852C191.54 89.8852 188.35 88.7351 186.18 89.7451C185.63 90.0051 185.15 90.0152 185.05 89.2152C185.04 89.1352 184.74 89.0852 184.57 89.0252C184.48 91.0152 182.73 90.5252 181.66 90.7952C180.01 91.2152 178.24 91.5752 176.58 91.4052C173.81 91.1252 173.48 90.9652 170.78 91.8952C176.32 98.6252 178.38 105.615 171.83 113.255C172.75 113.485 173.35 113.785 173.93 113.755C176.58 113.645 179.23 113.245 181.86 113.335C187.24 113.505 192.24 111.845 197.25 110.325C199.28 109.705 201.29 108.595 202.92 107.235C204.47 105.955 206.09 104.995 207.88 104.185C208.27 104.005 208.6 103.705 208.97 103.475C209.67 103.035 210.32 102.405 211.08 102.215C211.97 101.985 212.18 103.745 213.35 103.285C213.73 104.205 214.05 105.155 214.5 106.025C215.05 107.085 216.76 105.685 217.16 107.195C217.19 107.305 217.21 107.405 217.25 107.505C218.58 110.735 220.17 113.885 221.15 117.205C222.03 120.165 223.12 123.155 223.03 126.335C223 127.295 223.48 127.655 224.39 127.755C225.23 127.845 226.05 128.175 226.9 128.225C227.66 128.275 228.08 128.465 228.25 129.265C228.43 130.115 228.29 130.795 227.56 131.265C227.08 131.585 226.54 131.825 226.02 132.075C224.35 132.865 222.34 133.455 223.74 136.015C223.25 138.565 222.95 141.175 222.18 143.625C221.83 144.725 220.62 145.645 219.62 146.405C219.17 146.745 218.14 146.915 217.77 145.855C217.21 144.225 216.26 143.605 214.63 144.645C214.41 144.785 213.99 144.655 213.68 144.575C210.17 143.665 206.64 142.785 203.16 141.785C200.87 141.135 198.56 141.215 196.24 141.205C193.7 141.195 191.14 140.995 188.61 141.165C185.95 141.345 183.33 142.005 180.67 142.215C178.91 142.355 177.25 142.555 175.69 143.445C174.24 144.265 172.31 144.655 171.34 145.845C169 148.715 165.23 149.955 163.34 153.225C162.96 153.875 164.05 154.425 163.44 155.195C162.92 155.865 162.57 156.685 162.22 157.465C161.55 158.945 160.95 160.455 160.29 161.935C159.98 162.635 159.99 163.735 158.68 163.335C158.62 163.315 158.35 163.705 158.3 163.925C157.57 166.935 155.8 168.995 152.99 170.345C151.81 170.915 150.88 172.005 149.84 172.855C148.95 173.595 147.97 174.255 147.19 175.095C146.45 175.905 145.9 176.475 144.74 175.665C144.42 175.445 143.44 175.745 143.05 176.115C140.76 178.275 138.24 179.705 134.95 179.115C131.55 180.865 127.88 179.335 124.35 179.975C122.15 180.365 119.74 179.615 117.43 179.365C115.73 179.185 114.03 178.925 112.33 178.805C104.97 178.285 97.8301 177.005 91.1001 173.725C86.4601 171.465 81.8801 169.095 77.5701 166.275C75.3401 164.815 73.2002 163.025 71.5102 160.985C70.3402 159.575 69.8501 157.515 69.3001 155.675C67.2501 148.765 65.2501 141.845 63.3401 134.895C62.6901 132.525 62.4301 130.045 61.9001 127.635C61.1901 124.375 60.3302 121.155 59.6402 117.895C58.8002 113.905 58.0101 109.895 57.2901 105.885C56.1801 99.7551 55.9201 93.4451 53.9501 87.4951C53.0801 84.8651 51.6302 82.4252 50.3902 79.9152C50.3102 79.7652 49.7502 79.7052 49.5102 79.8052C48.5002 80.2652 47.3001 80.3652 46.2201 79.9152C45.2301 79.4952 44.2602 79.0052 43.0102 78.4152C42.9202 80.6652 42.9201 82.7151 42.7201 84.7351C42.4301 87.7451 42.8202 90.7352 42.9902 93.7252C43.1102 95.8052 42.6201 97.3051 40.5901 98.1251C39.9101 98.3951 39.3001 98.8151 38.2901 99.3751C38.0401 97.6551 37.6702 96.1852 37.6402 94.7052C37.5602 89.5752 37.6301 84.4452 37.6001 79.3052C37.5901 76.8752 37.4501 76.8052 35.0701 76.5252C34.1101 76.4152 33.0402 76.3452 32.2702 75.8552C31.6502 75.4552 31.4002 74.4652 31.0102 73.7252C30.9702 73.6552 31.0602 73.4351 31.1402 73.3851C33.1402 72.1751 35.1301 70.9552 37.1501 69.7852C37.8901 69.3552 38.2101 68.7952 38.1701 67.9352C38.0401 65.1852 37.9501 62.4452 37.8301 59.6952C37.8201 59.3752 37.6801 59.0452 37.6801 58.7252C37.7201 53.8352 37.5801 48.9552 36.9601 44.0952C36.8501 43.2352 37.0001 42.3452 36.9601 41.4752C36.9201 40.3752 37.3501 39.4152 38.2801 39.0452C38.8101 38.8352 39.6201 39.3652 40.3101 39.5352C40.6001 39.6052 40.9201 39.5852 41.3401 39.6152C41.6001 43.3852 41.6301 47.2652 41.9001 51.0952C42.1201 54.2552 42.3301 57.3852 42.3101 60.5652C42.3001 62.6952 42.8202 64.8152 43.1102 66.9752C44.3602 66.2852 45.7201 65.5352 47.0701 64.7752C47.3601 64.6152 47.7002 64.2252 47.8902 64.2852C49.7102 64.9352 50.1601 63.0352 51.3201 62.4752C53.4401 61.4452 55.4602 60.2252 57.5202 59.0852C57.6102 59.0352 57.7401 58.9252 57.8101 58.9452C59.0801 59.4852 59.9901 58.7752 61.0801 58.2452C62.2901 57.6552 63.7402 57.4052 65.1102 57.2752C70.2302 56.7852 75.1701 57.5951 79.9201 59.5751C81.6401 61.9651 84.7402 62.3752 86.7402 64.4452C88.7902 66.5552 90.8201 68.7352 91.9101 71.4052C92.5301 72.9352 93.8001 73.9352 94.2901 75.5352C94.7801 77.1452 95.9302 78.5452 96.7502 80.0552C98.2802 82.8552 99.7401 85.6952 101.33 88.4552C101.6 88.9152 102.41 89.0752 103.16 89.4752C103.4 86.5152 103.69 83.5952 103.87 80.6652C104.05 77.7052 104.38 74.7952 105.36 71.9652C105.63 71.1952 105.44 70.2852 105.55 69.4452C105.86 67.1252 106.27 64.8152 106.52 62.4852C106.65 61.2452 106.06 59.6552 106.64 58.8052C107.42 57.6652 106.93 56.6952 107.1 55.6752C107.22 54.9252 107.13 54.1352 107.32 53.4152C108.11 50.4352 108.94 47.4552 109.82 44.4952C110.03 43.7952 110.56 43.1952 110.87 42.5152C111.11 41.9852 111.52 41.3352 111.39 40.8652C111.08 39.7352 110.98 38.9452 112.46 38.8152C112.57 38.8052 112.73 38.3352 112.7 38.1052C112.38 36.2052 113.23 34.4952 113.94 32.9352C115.54 29.4052 117.63 26.1151 119.35 22.6351C119.93 21.4751 120.61 20.6252 121.8 20.2152C122.65 19.9252 123.47 19.7252 123.21 18.4752C123.17 18.2752 123.93 17.8152 124.38 17.6252C126.17 16.9052 127.97 16.2252 129.78 15.5652C132.02 14.7552 132.02 14.7652 134.72 16.8252C136.44 18.1352 137.39 20.3552 138.1 22.9252C138.79 25.4052 138.76 27.7952 138.39 30.1052C137.99 30.6552 137.56 28.9252 137.41 30.2352C137.18 32.2352 137.2 34.2652 137.1 36.5352C136.72 35.9852 136.5 35.6552 136.27 35.3352C136.06 35.5752 135.65 35.8552 135.68 36.0652C136.23 39.8952 133.92 42.7052 132.28 45.7452C132.14 46.0152 132.13 46.3452 132.07 46.5952C132.77 47.5852 134.41 46.4652 134.82 47.9552C134.84 48.0452 135.37 48.0852 135.62 48.0152C138.41 47.2252 138.92 47.4052 140.13 49.6852C140.67 50.6952 141.17 51.7351 141.73 52.8251C142.44 51.8051 142.89 50.7052 143.71 50.1052C144.63 49.4352 144.76 48.2352 145.76 47.6752C146.76 47.1252 147.7 46.5452 148.37 45.4652C148.98 44.4952 150.04 43.7552 151 43.0552C151.28 42.8552 152.15 43.3552 152.34 43.1552C152.75 42.7152 152.89 42.0252 153.15 41.4452C154.1 42.3852 154.43 41.2052 155.07 41.0052C157.23 40.3352 158.59 38.4752 160.65 37.7052C162.72 36.9252 164.57 35.6852 166.69 34.9252C168.24 34.3752 169.56 33.1552 170.99 32.2452C171.43 31.9652 171.86 31.6152 172.34 31.4552C174.08 30.9052 175.8 30.4952 177.27 29.1752C178.03 28.4852 179.47 28.4252 180.62 28.3052C182.95 28.0452 185.24 27.3052 187.67 27.9852C188.45 28.2052 188.63 28.6252 189.04 29.0852C189.19 29.2552 190.09 28.5752 190.53 28.7052C191.48 28.9752 193.19 27.9952 193.17 30.1052C193.76 29.1352 194.48 29.9752 195.14 29.9152C197.33 29.7452 199.17 30.7052 200.95 31.6752C202.82 32.7052 205.14 32.7152 206.68 34.5252C208.31 36.4352 210.63 37.7552 211.76 40.0752C212.5 41.5852 213.41 43.2352 211.99 44.9252C211.87 45.0652 211.87 45.4552 211.98 45.6152C213.73 48.1652 211.55 50.2452 211.14 52.5252C211 53.2752 210.11 51.0652 210.04 52.7752C210.01 53.4752 209.83 54.2552 209.47 54.8352C209.1 55.4352 208.43 55.8652 207.86 56.3152C207.52 56.5852 206.82 56.7152 206.78 56.9752C206.27 60.1652 203.15 60.7552 201.29 62.5952C200.04 63.8252 198.02 63.9252 196.98 65.5052C196.32 66.5152 194.74 65.0352 194.05 66.7252C193.73 67.5852 192.15 67.8952 190.96 68.5352ZM211.08 108.565C210.24 108.945 209.49 109.145 208.92 109.565C205.25 112.295 201.11 114.145 197.03 116.125C196.26 116.505 195.48 116.995 194.66 117.135C190.72 117.795 186.81 118.825 182.75 118.515C181.56 118.425 180.32 118.335 179.15 118.535C175.68 119.145 172.31 118.405 168.89 118.095C167.2 117.945 165.33 117.615 163.82 118.155C160.23 119.435 156.68 119.765 152.96 119.145C149.85 118.625 146.73 118.305 143.93 116.525C143.08 115.985 143.17 115.085 142.61 114.775C141.94 114.405 140.77 114.815 140.23 114.385C139.13 113.505 137.85 112.405 137.49 111.155C137.17 110.055 139.02 110.385 139.72 109.835C140.76 109.015 141.57 109.025 142.66 109.775C143.62 110.435 144.81 110.735 145.85 111.285C149.25 113.105 152.8 114.155 156.72 113.905C161.08 113.625 164.94 112.315 168.01 109.065C170.14 106.805 170.79 103.155 169.53 100.335C168.34 97.6652 166.41 95.6652 163.92 94.2252C161.14 92.6252 158.45 90.8352 155.27 90.0152C154.57 89.8352 153.91 89.3752 153.32 88.9352C153.02 88.7052 152.72 88.2451 152.72 87.8851C152.71 86.7551 154.15 85.6252 155.52 85.5752C155.84 85.5652 156.31 85.6852 156.45 85.5252C158.04 83.6052 160.18 84.1052 162.08 84.4552C165.42 85.0652 168.77 85.0552 172.12 85.0552C174.09 85.0552 176.05 85.1152 178.02 85.0452C182.8 84.8852 187.43 84.0352 191.74 81.8052C193.04 81.1352 193.43 80.5252 192.73 79.3152C191.67 77.4952 190.81 75.5752 188.79 74.3452C186.95 73.2252 185.27 71.9152 183.2 71.1652C181.41 70.5152 180.88 69.2652 181.17 67.5452C181.39 66.2752 182.41 65.9051 183.36 65.3851C188.17 62.7651 193.57 61.3852 198.07 58.0852C200.71 56.1552 203.36 54.2552 205.51 51.8052C206.7 50.4352 207.54 48.7652 207.44 46.7852C207.37 45.2752 207.43 43.7552 207.43 42.2752C206.79 42.3952 206.34 42.5952 205.91 42.5552C203.8 42.3752 202.55 40.7052 200.99 39.5952C197.69 37.2452 194.19 35.1852 190.09 35.0752C186.74 34.9852 183.27 35.2152 180.04 36.0352C175.69 37.1352 171.47 38.8052 167.29 40.4652C163.14 42.1152 159.81 45.1352 156.15 47.5952C154.9 48.4352 153.73 49.4452 152.68 50.5252C149.05 54.2652 145.43 58.0152 141.95 61.8952C140.08 63.9752 138.36 66.2352 136.82 68.5652C133.49 73.6052 130.21 78.6851 127.09 83.8551C122.99 90.6551 118.63 97.3352 116.29 105.035C115.95 106.165 115.46 107.255 115.15 108.395C114.83 109.535 114.64 110.705 114.39 111.865C114.11 113.125 114.24 114.925 113.45 115.535C112.1 116.575 114.03 117.725 112.93 118.455C112.81 118.535 112.68 118.605 112.47 118.745C111.07 116.555 110.47 114.135 110.45 111.685C110.43 109.255 110.9 106.835 111.15 104.405C110.36 104.325 110.22 105.235 109.24 104.875C106.51 103.875 104.27 102.345 102.54 100.035C101.43 98.5552 100.33 97.0651 99.3602 95.4951C97.6602 92.7351 96.0501 89.9251 94.4301 87.1151C91.8401 82.6451 89.1901 78.2052 86.7101 73.6652C83.8301 68.3952 79.9901 64.4552 73.8501 63.2052C70.9001 62.6052 68.0501 61.8652 64.9401 62.5952C62.9501 63.0652 60.8901 63.2252 59.0401 64.1752C54.4601 66.5252 49.8801 68.8952 45.3201 71.2852C44.6901 71.6152 44.1601 72.1252 43.4201 72.6652C44.5001 73.6052 45.5701 73.9252 46.7101 74.2752C47.8001 74.6052 48.7101 75.4952 49.7901 75.9152C52.6601 77.0452 53.8802 79.8752 55.9802 81.7952C56.2002 81.9952 56.4602 82.5052 56.3602 82.6552C55.5202 83.9752 56.9901 83.9852 57.4201 84.5252C59.8401 87.5752 59.2001 91.5252 60.5301 94.9052C61.0701 96.2952 59.5202 98.3052 61.7602 99.2652C61.8002 99.2851 61.7701 99.4652 61.7801 99.5652C62.0201 101.905 62.2502 104.255 62.5202 106.595C62.6902 108.085 62.1001 109.695 63.6601 110.955C64.2801 111.465 64.5701 112.735 64.5301 113.645C64.3601 118.055 66.6101 121.985 66.9101 126.295C66.9301 126.595 66.9001 126.975 67.0701 127.185C68.5101 128.995 68.2401 130.865 67.3401 132.785C67.3101 132.855 67.5001 133.035 67.5901 133.165C68.1201 132.695 68.9802 131.625 69.0202 133.165C69.0502 134.525 69.4901 135.615 69.8401 136.825C70.3701 138.665 71.1901 140.405 71.3401 142.405C71.4901 144.295 72.2701 146.135 72.7801 147.995C73.6401 151.205 75.2401 154.165 75.8001 157.475C75.8701 157.895 76.4202 158.245 76.7702 158.605C78.8602 160.715 81.5701 161.895 84.1001 163.305C87.7601 165.335 91.5101 167.225 95.2201 169.165C95.3901 169.255 95.6802 169.435 95.7502 169.375C96.9602 168.365 98.3702 168.965 99.6402 168.995C103.58 169.105 107.34 170.145 110.97 171.665C114.03 172.945 117.27 173.465 120.57 173.555C121.89 173.595 123.28 172.945 124.53 173.175C126.42 173.515 128.18 173.415 130.1 173.285C134.66 172.975 138.34 171.025 141.67 168.265C143.23 166.975 145.06 166.125 146.39 164.375C149.2 160.665 152.02 156.925 155.48 153.725C159.46 150.045 163.18 146.075 167.92 143.315C169.03 142.665 170.21 142.095 171.23 141.325C172.8 140.145 177.04 138.395 179.14 138.175C181.43 137.935 183.77 137.855 186.01 137.345C192.12 135.965 198.24 135.815 204.38 136.845C208.29 137.505 212.17 138.385 216.04 139.265C217.19 139.525 217.84 139.085 217.89 138.115C217.98 136.425 218.22 134.685 217.63 132.935C216.3 132.935 215.11 132.935 213.91 132.935C210.85 132.925 207.79 132.915 204.74 132.915C204 132.915 203.44 132.715 203.53 131.815C203.59 131.215 202.97 130.515 204.2 130.165C205.29 129.855 206.38 129.115 207.17 128.295C208.2 127.225 209.4 127.045 210.71 127.025C212.88 127.005 215.04 127.015 217.2 127.015C217.01 125.755 216.87 124.365 216.59 123.015C216.25 121.385 215.52 120.925 213.82 121.135C213.4 121.185 212.99 121.425 212.57 121.435C210 121.535 207.56 122.905 204.9 122.255C204.64 122.195 204.3 122.275 204.05 122.385C201.69 123.385 199.09 123.235 196.67 123.945C196.19 124.085 195.64 123.965 195.12 123.965C195.87 122.845 196.72 122.145 197.69 121.805C199.15 121.285 200.26 119.705 202.09 120.285C203.23 118.975 205.24 119.835 206.39 118.545C208.15 119.075 209.44 117.635 211.02 117.435C211.54 117.365 212.07 117.365 212.59 117.355C214.22 117.315 214.85 116.435 214.21 115.035C213.17 112.905 212.14 110.805 211.08 108.565ZM126.91 70.9352C127.27 70.0052 127.59 69.0552 128 68.1452C128.43 67.1852 129.15 66.3052 129.37 65.3052C129.59 64.3552 129.9 64.0252 130.85 64.0751C132.12 64.1251 131.97 63.4552 131.52 62.6152C131.43 62.4452 131.73 61.8352 131.77 61.8452C133.88 62.2352 133.69 60.2752 134.44 59.2852C134.88 58.7152 135.29 58.0452 135.88 57.6752C137.65 56.5352 138.34 54.6552 137.53 52.8352C137.21 52.1052 136.83 51.6552 135.88 51.6152C133.44 51.5252 131.17 51.9652 129 53.1152C127.6 53.8552 126.37 53.4252 126.25 52.1152C126.06 49.9252 125.66 47.6552 127.04 45.6152C127.59 44.8052 127.95 43.8752 128.51 43.0752C131.11 39.3752 132.86 35.3052 133.82 30.9052C134.44 28.0752 135.06 25.2952 134.02 22.3052C132.64 18.3652 129.58 18.2252 126.78 20.5852C125.48 21.6752 124.46 23.1752 123.56 24.6452C121.18 28.5052 119.4 32.6552 117.5 36.7652C115.59 40.9052 114.31 45.2252 113.12 49.5552C111.34 56.0752 110.47 62.8152 109.62 69.5252C109.45 70.8552 109.07 72.1852 109.09 73.5152C109.14 77.6352 108.11 81.6252 107.84 85.6952C107.64 88.7352 107.77 91.8051 107.83 94.8551C107.84 95.2751 108.21 95.8652 108.58 96.0852C110.12 96.9952 111.72 97.7851 113.32 98.6351C113.62 97.4051 113.75 96.3152 114.14 95.3352C114.64 94.0652 115.69 92.9251 115.86 91.6351C116.05 90.2051 117.61 89.5952 117.42 87.9152C117.3 86.8452 118 85.3052 118.85 84.5952C120.1 83.5552 119.3 82.0752 120.16 81.0852C120.55 80.6352 120.82 80.0552 121.25 79.6652C122.57 78.4652 123.68 77.0452 123.72 75.2952C123.75 74.1552 124.22 73.9751 124.99 73.8851C125.73 73.8051 125.75 73.5052 125.65 72.8652C125.53 72.0552 125.62 71.2052 125.62 70.2852C126.2 70.5852 126.65 70.8052 126.91 70.9352ZM162.24 155.095C157.92 158.315 157.86 158.395 157.94 160.225C159.38 158.505 160.81 156.805 162.24 155.095Z" fill="#1D3D6C"/>
<path d="M31.7302 23.3764C29.2302 21.8864 26.5601 20.9164 25.0601 17.9764C22.6301 13.2064 19.8201 8.63637 17.1601 3.97637C17.0501 3.78637 16.8201 3.62641 16.8001 3.44641C16.7601 2.81641 16.7901 2.17637 16.7901 1.53637C17.4401 1.55637 18.1901 1.37635 18.7201 1.63635C20.2701 2.39635 21.9901 3.0764 23.1701 4.2564C24.4101 5.4964 25.1201 7.26635 26.0301 8.82635C27.2701 10.9464 28.5301 13.0464 29.6901 15.2064C30.5501 16.8064 31.2501 18.4964 32.0501 20.1264C32.5901 21.1764 32.5802 22.1664 31.7302 23.3764Z" fill="#1D3D6C"/>
<path d="M5.80007 25.4148C7.16007 25.1848 8.20009 25.4248 8.82009 26.7648C8.91009 26.9548 9.13011 27.2548 9.21011 27.2348C10.4101 26.8548 11.4201 26.4548 12.6701 27.5648C13.5001 28.3048 14.9902 28.6948 16.1402 28.6248C18.8002 28.4648 21.1401 29.7248 23.7001 29.9448C24.2101 29.9848 24.9501 30.4148 25.1201 30.8448C25.4801 31.7648 24.6401 32.2048 23.9501 32.4848C22.7801 32.9648 21.5801 33.4648 20.3501 33.7248C19.4401 33.9148 18.4102 33.9048 17.5202 33.6748C14.2402 32.8448 10.9601 32.1548 7.5801 31.9148C6.6301 31.8448 5.71007 31.1448 4.80007 30.6848C4.17007 30.3748 3.30006 31.3448 2.79006 30.1848C2.48006 29.4648 2.02012 28.6248 0.85012 29.0948C0.73012 29.1448 0.0101448 28.3248 0.000144823 27.9048C-0.00985518 27.5248 0.500047 26.9048 0.900047 26.7748C2.50005 26.2448 4.16007 25.8648 5.80007 25.4148Z" fill="#1D3D6C"/>
<path d="M10.07 56.4454C8.54003 54.6754 8.61006 53.0454 9.23006 51.1854C10.0701 48.6654 11.9001 46.9053 13.7301 45.2653C16.0301 43.2053 18.64 41.4754 21.18 39.6854C21.9 39.1754 22.6401 38.1153 23.7201 38.8253C24.8901 39.5953 24.2001 40.6054 24.0101 41.6854C23.5101 44.5754 21.78 46.3853 19.57 48.0753C17.18 49.8953 14.9901 51.9853 12.7201 53.9753C11.8501 54.7353 11.02 55.5554 10.07 56.4454Z" fill="#1D3D6C"/>
<path d="M52.96 3.87556C52.92 4.03556 52.85 4.81556 52.55 5.49556C50.98 9.15556 49.3201 12.7756 47.7601 16.4356C47.3401 17.4156 47.15 18.4956 46.8 19.5056C46.48 20.4156 46.16 21.3555 45.66 22.1555C45.45 22.4955 44.7201 22.7155 44.2701 22.6555C43.5201 22.5455 43.6801 21.9056 43.8601 21.3656C43.9301 21.1656 44.11 20.9356 44.07 20.7556C42.84 15.4656 45.9501 11.3655 47.8801 6.95552C48.6901 5.10552 48.97 3.01552 50.33 1.39552C50.6 1.06552 50.7001 0.555556 51.0201 0.305556C51.3101 0.065556 51.8 -0.0244318 52.19 0.00556825C52.37 0.0155682 52.62 0.455539 52.66 0.725539C52.78 1.58554 52.83 2.44556 52.96 3.87556Z" fill="#1D3D6C"/>
<path d="M50.7401 32.045C51.8701 30.505 52.96 28.935 54.15 27.435C54.53 26.955 55.1301 26.555 55.7101 26.365C57.5601 25.745 59.4701 25.295 61.3201 24.675C63.1501 24.075 64.9301 23.355 66.7301 22.685C67.1301 22.535 67.5101 22.265 67.9301 22.205C68.7901 22.075 69.7401 21.945 70.2001 22.955C70.6501 23.955 69.93 24.405 69.28 25.055C67.33 26.995 65.35 28.655 62.41 28.825C61.19 28.895 60.4301 30.505 58.9701 30.135C56.7001 31.895 53.6601 31.145 51.3201 32.665C51.1201 32.455 50.9301 32.245 50.7401 32.045Z" fill="#1D3D6C"/>
<path d="M53.5101 43.3952C54.9401 42.6652 56.1201 41.8452 57.4401 41.4352C58.8201 41.0052 60.4101 40.5452 61.3901 42.3652C61.5201 42.6052 62.1501 42.8552 62.3201 42.7452C63.7101 41.8552 64.75 43.3752 66.03 43.2352C66.3 43.2052 66.9101 43.7952 66.8701 44.0052C66.7701 44.4952 66.4401 45.2452 66.0901 45.3152C64.0501 45.7152 62.1701 47.1952 59.8601 45.8552C58.5201 45.0752 56.8201 44.9452 55.3101 44.4352C54.7301 44.2352 54.2301 43.8152 53.5101 43.3952Z" fill="#1D3D6C"/>
<path d="M68.1001 78.0455C66.9701 77.5055 65.3001 76.3255 64.5001 74.1555C63.6001 71.7355 63.6501 71.3855 65.4801 69.7355C66.8901 68.4655 69.2701 67.8855 70.5201 68.7855C71.4201 69.4355 72.1201 70.4355 72.7501 71.3855C73.6801 72.7655 74.8301 74.2255 73.6201 75.9855C72.5401 77.5655 70.9501 78.3055 68.1001 78.0455Z" fill="#1D3D6C"/>
</svg>
