<svg width="122" height="132" viewBox="0 0 122 132" fill="none" xmlns="http://www.w3.org/2000/svg">
<path d="M94.1352 86.2895C94.1952 87.2495 94.6251 88.5095 94.2051 88.9395C93.5251 89.6495 95.4151 90.9295 93.5751 91.0495C93.5651 91.0495 93.5851 91.4195 93.5851 91.6195C93.5851 93.3095 93.6251 94.9995 93.5551 96.6895C93.4951 98.2095 93.4351 99.7395 93.1651 101.23C92.5451 104.73 91.7752 108.21 91.1152 111.71C91.0152 112.26 91.2352 112.87 91.2352 113.45C91.2352 114.37 91.4251 115.39 91.0951 116.18C90.0551 118.65 90.1152 121.19 90.2352 123.76C90.2852 124.78 90.3052 125.83 90.1552 126.83C90.0652 127.49 89.7651 128.21 89.3451 128.72C88.5251 129.71 87.5651 130.58 86.8451 131.31C86.1051 131.24 85.1851 130.86 84.7151 131.16C82.9551 132.29 81.7351 131.37 80.4551 130.39C80.0451 130.08 79.6352 129.76 79.2752 129.4C74.8652 124.84 70.5251 120.21 66.0451 115.71C62.1651 111.81 58.0751 108.13 54.2151 104.21C52.3951 102.36 50.0151 100.98 49.1851 98.1895C48.7751 96.8195 47.6652 96.7395 46.5252 97.5195C43.7752 99.3895 41.0751 101.36 38.2151 103.05C35.1351 104.87 32.1652 106.88 29.1052 108.72C26.7652 110.13 24.3851 111.48 21.9351 112.69C20.9651 113.17 19.7751 113.27 18.6751 113.35C18.1051 113.39 17.7451 113.21 17.1651 113.76C16.2851 114.6 15.2652 113.72 14.4052 113.2C13.4952 112.64 13.8452 111.88 13.9952 111.04C14.7652 106.59 15.4252 102.13 16.1352 97.6695C16.1952 97.2695 16.3351 96.8795 16.4251 96.4895C17.7151 91.1495 19.1152 85.8295 20.2552 80.4495C20.7752 77.9795 20.4552 75.2995 21.1352 72.8895C22.0252 69.7095 21.0252 67.4295 18.8552 65.3295C18.4952 64.9795 18.1352 64.5095 18.0352 64.0395C17.4852 61.4095 15.5651 59.6495 14.0751 57.6195C11.7951 54.4995 9.46512 51.4095 7.06512 48.3895C5.35512 46.2395 3.5551 44.1495 1.6751 42.1395C0.495103 40.8795 0.345196 39.8495 1.8952 39.4095C3.3452 38.9995 3.93511 37.6195 5.30511 37.2795C6.59511 36.9595 7.81516 36.3995 9.10516 36.0895C12.8552 35.1795 16.5352 33.9895 20.5252 34.4795C23.0052 34.7795 25.5551 34.5795 28.0751 34.5595C31.3451 34.5295 34.5651 34.5995 37.7051 35.8095C38.8051 36.2295 40.1951 36.0795 41.4251 35.9295C42.0451 35.8495 42.6152 35.0795 42.9752 36.2095C43.2652 36.0295 43.7651 35.8895 43.8051 35.6795C44.2051 33.3595 45.3552 31.6295 47.2552 30.1895C48.2052 29.4695 48.7351 28.1695 49.4151 27.0995C50.2251 25.8195 50.8551 24.3995 51.8151 23.2495C56.2951 17.8795 60.6851 12.4295 66.0651 7.86954C68.4551 5.83954 70.4452 3.33953 72.8952 0.769531C73.4052 1.98953 73.0851 3.35953 74.6751 3.65953C75.2851 3.77953 75.5052 5.41953 76.1452 6.13953C76.7452 6.80953 75.9952 8.83953 78.0352 8.13953C78.0752 8.12953 78.3351 8.44953 78.2951 8.54953C77.7751 10.1995 79.0251 11.1995 79.6851 12.4095C81.0051 14.8395 80.4751 17.5695 80.9451 20.1295C81.0851 20.8995 81.2352 21.8795 81.7452 22.3395C82.8452 23.3095 83.1051 24.6095 83.3251 25.8195C84.2651 31.0795 86.6452 35.9295 87.5152 41.1995C87.8452 43.1995 88.1252 45.2095 88.3552 47.2295C88.6252 49.6095 89.3752 50.5195 91.6552 51.2295C92.1152 51.3695 92.4551 51.9095 92.8151 52.2895C92.9351 52.4095 92.9052 52.7595 93.0152 52.7895C93.9052 53.0695 95.0751 51.9795 95.7151 53.1195C96.2751 54.1095 96.7351 54.4695 97.6951 53.6895C97.7951 53.6095 98.1552 53.6695 98.2652 53.7895C100.465 55.9495 103.525 56.0595 106.165 57.1695C107.625 57.7795 109.305 58.1395 109.495 60.2995C109.545 60.8895 110.505 61.6495 111.195 61.8695C113.215 62.5195 114.905 63.6995 116.685 64.7795C117.665 65.3695 118.925 65.4895 120.015 65.9395C120.845 66.2795 121.505 67.0195 120.745 67.8295C120.175 68.4495 119.955 68.8395 120.405 69.5595C120.445 69.6195 119.995 70.0795 119.715 70.2295C118.305 71.0095 117.015 71.7895 116.405 73.4895C116.105 74.3395 115.455 75.1495 114.085 75.0895C112.625 75.0295 112.055 77.0795 110.205 77.0395C109.245 77.0195 108.065 79.0495 107.325 78.8595C105.565 78.4095 105.645 80.1295 104.635 80.4895C102.485 81.2695 100.485 82.3895 98.5651 83.6695C97.1751 84.6095 95.6752 85.3895 94.1352 86.2895Z" fill="#1D3D6C"/>
</svg>
