<svg width="507" height="711" viewBox="0 0 507 711" fill="none" xmlns="http://www.w3.org/2000/svg">
<path d="M18.7287 48.0723C17.5141 48.0603 16.0069 51.7566 16.9048 52.6206C17.4941 53.1887 19.4943 52.9047 20.1718 51.4085C20.8973 49.8124 19.5585 48.0803 18.7287 48.0723Z" fill="#1D3D6C"/>
<path d="M22.6811 56.4896C21.218 56.4296 20.264 58.4777 20.6287 58.9938C21.0857 59.6378 24.1923 58.7057 24.2765 57.7057C24.3246 57.1536 23.4628 56.5256 22.6811 56.4936V56.4896Z" fill="#1D3D6C"/>
<path d="M14.0186 71.0467C14.5718 68.6545 14.3954 66.8864 14.0948 65.6623C13.9304 64.9902 13.6859 64.3182 14.0186 63.6901C14.4876 62.802 15.6902 62.802 17.2094 62.478C21.234 61.6099 22.5448 59.5018 23.7433 60.2778C24.3245 60.6539 24.0921 61.2019 24.9579 63.0821C25.6514 64.5902 26.5773 65.5822 26.4771 65.6583C26.3448 65.7663 25.0782 63.6061 23.6671 63.7621C22.7292 63.8661 22.7692 64.8742 21.5386 65.5062C19.9112 66.3423 18.8088 65.0982 17.1332 65.9623C16.8647 66.1023 15.7743 66.7063 15.3855 67.8584C14.9686 69.0825 15.606 70.1626 14.9686 70.7506C14.692 71.0067 14.3032 71.0467 14.0186 71.0427V71.0467Z" fill="#1D3D6C"/>
<path d="M0.0888875 84.7947C-0.171667 84.3067 0.205135 84.0386 0.393536 82.5705C0.54586 81.3984 0.365476 81.1184 0.293323 78.8823C0.225178 76.7501 0.197118 75.682 0.54586 75.546C1.02688 75.358 1.6442 76.6101 3.83687 78.4782C4.96727 79.4423 5.53648 79.9223 6.06561 79.9943C8.16207 80.2784 9.49691 77.2781 11.0803 77.8222C11.6495 78.0182 12.1506 78.6342 12.5995 79.1863C13.0685 79.7623 13.301 80.0503 13.3611 80.3984C13.6457 82.0825 9.7254 83.9906 9.2083 84.2387C8.65913 84.5067 7.01964 85.2587 4.6987 85.5028C3.29571 85.6508 0.686159 85.9268 0.0888875 84.7947Z" fill="#1D3D6C"/>
<path d="M15.0325 76.8582C14.768 76.9822 14.8161 77.8503 15.1849 78.4743C15.5456 79.0864 16.2631 79.5504 16.5037 79.3824C16.7522 79.2104 16.4876 78.3663 16.1509 77.8143C15.8583 77.3382 15.2971 76.7302 15.0365 76.8542L15.0325 76.8582Z" fill="#1D3D6C"/>
<path d="M3.81688 128.427C3.60042 127.875 4.00128 127.055 4.5785 126.703C4.98337 126.455 5.25995 126.567 6.34627 126.551C8.04188 126.527 8.49484 126.235 8.70328 126.515C9.01996 126.947 8.3826 128.231 7.35642 128.827C6.10175 129.555 4.16963 129.307 3.8249 128.427H3.81688Z" fill="#1D3D6C"/>
<path d="M12.3669 135.366C11.7175 134.618 14.76 131.766 15.1969 128.598C15.221 128.43 15.3051 127.758 15.5777 127.706C15.9425 127.642 16.171 128.782 17.137 129.79C18.1993 130.902 19.0812 130.734 19.2255 131.27C19.6344 132.774 13.2247 136.346 12.3669 135.366Z" fill="#1D3D6C"/>
<path d="M144.452 23.9345C144.224 23.1184 146.284 21.5383 146.885 21.9143C147.35 22.2064 147.378 23.9665 146.276 24.4425C145.563 24.7505 144.588 24.4225 144.452 23.9385V23.9345Z" fill="#1D3D6C"/>
<path d="M147.695 27.9026C147.35 26.8105 149.354 25.8945 151.09 23.7583C151.198 23.6263 151.427 23.3343 151.747 23.3303C152.204 23.3183 152.445 23.8943 152.99 24.4944C153.972 25.5704 154.722 25.3824 154.838 25.8865C155.111 27.0305 151.635 29.7428 148.986 28.8707C148.645 28.7587 147.883 28.5067 147.695 27.9106V27.9026Z" fill="#1D3D6C"/>
<path d="M4.82702 229.391C5.06352 229.115 5.68484 229.179 6.08169 229.391C6.61081 229.675 6.50659 230.115 7.06779 230.679C7.73721 231.351 8.40263 231.259 8.4347 231.587C8.47478 231.987 7.55683 232.631 6.72706 232.535C5.27597 232.367 4.32595 229.971 4.82702 229.387V229.391Z" fill="#1D3D6C"/>
<path d="M2.92678 233.22C2.90674 233.004 3.47595 232.744 3.95297 232.728C4.79476 232.696 5.48824 233.408 5.39604 233.636C5.25173 234 2.96286 233.64 2.92678 233.22Z" fill="#1D3D6C"/>
<path d="M17.7061 225.599C17.9266 224.607 19.2454 224.631 19.53 223.743C19.7865 222.947 18.9047 222.371 19.2253 221.811C19.55 221.251 20.492 221.727 21.1254 221.167C22.0554 220.347 20.8328 218.602 21.7347 217.602C22.4322 216.83 23.5024 217.494 24.8132 216.466C25.4987 215.926 25.3664 215.618 25.8755 215.33C27.3627 214.49 30.6336 215.878 31.2309 218.058C31.4313 218.794 31.2389 219.535 30.8501 221.015C30.5094 222.315 30.3129 223.027 29.7117 223.327C28.8258 223.767 28.0641 222.823 27.3186 223.251C26.3725 223.795 26.9337 225.691 26.1401 226.019C25.4305 226.311 24.6369 224.927 23.8231 225.223C23.1216 225.479 23.3942 226.619 22.2638 227.575C21.9952 227.803 21.4942 228.227 20.933 228.107C20.3678 227.987 20.5161 227.251 19.8707 226.819C19.077 226.291 18.151 226.851 17.7823 226.327C17.6019 226.071 17.678 225.739 17.7061 225.607V225.599Z" fill="#1D3D6C"/>
<path d="M33.2314 225.586C33.2916 224.666 34.5823 223.746 35.7127 223.666C37.3081 223.55 38.4425 225.106 39.0558 224.678C39.5449 224.338 38.9316 223.286 39.5128 222.706C40.2424 221.978 41.93 222.922 42.2466 222.402C42.4591 222.054 41.7376 221.59 41.3367 220.382C40.9198 219.134 41.4048 218.79 41.0842 217.654C40.6031 215.957 39.2643 215.793 39.3605 214.925C39.5128 213.577 42.7838 213.601 43.1085 211.993C43.2808 211.137 42.5633 210.081 41.942 210.021C41.3407 209.961 41.1844 210.873 40.1702 211.133C39.2483 211.369 38.7632 210.781 38.2461 211.133C37.5967 211.573 37.9495 212.769 37.5366 212.901C37.1959 213.013 36.4784 212.361 36.2699 211.585C35.7007 209.477 38.8113 206.045 41.489 206.229C41.8859 206.257 42.1865 206.357 42.5513 206.481C44.4914 207.137 45.5978 208.569 46.0988 209.161C46.5197 209.661 49.3097 212.893 52.6848 213.557C55.2503 214.061 58.4291 213.133 59.0664 211.433C59.5354 210.185 58.4171 209.105 59.1667 208.097C59.804 207.241 60.8182 207.729 61.8003 206.633C62.4617 205.893 62.602 205.001 63.067 205.017C63.4117 205.029 63.4999 205.525 63.8286 205.521C64.3256 205.517 65.0111 204.352 64.6904 203.7C64.2535 202.82 62.2412 203.412 61.9045 202.588C61.7281 202.152 62.0969 201.52 62.5138 201.172C63.7043 200.184 65.4841 201.388 66.1094 200.668C66.827 199.844 64.8908 197.784 65.6044 196.876C66.1134 196.228 67.8331 196.34 68.8954 197.18C70.3384 198.32 69.5407 199.988 70.9197 201.276C72.2665 202.532 73.5533 201.428 74.8721 202.54C76.9004 204.252 75.4213 208.205 77.0487 208.909C78.0027 209.325 79.1492 208.233 79.6823 208.809C80.023 209.177 79.8868 209.977 79.5821 210.477C79.2815 210.969 78.9568 210.929 78.6722 211.285C77.9186 212.225 78.4838 214.617 79.9389 215.529C80.8448 216.097 81.5262 215.733 81.863 216.289C82.34 217.073 81.5784 218.81 80.3958 219.274C79.3616 219.674 78.3074 218.994 78.115 219.326C77.8865 219.718 79.3977 220.63 79.1772 221.398C78.9568 222.174 77.205 221.974 77.0006 222.714C76.7801 223.51 78.6601 224.29 78.4677 225.09C78.3194 225.706 77.0728 225.734 75.2769 226.302C73.3809 226.902 73.0642 227.958 71.9338 227.818C71.2644 227.738 70.4547 227.322 70.3625 226.758C70.2142 225.862 72.006 225.37 71.9338 224.482C71.8697 223.686 70.3825 223.426 68.0335 222.258C66.2016 221.346 65.7487 220.83 64.8948 220.386C61.5317 218.65 55.551 219.946 52.0796 223.37C48.7084 226.694 49.7145 230.046 46.7602 231.155C45.1608 231.755 43.4131 231.119 39.9217 229.838C37.4845 228.946 33.1192 227.35 33.2355 225.594L33.2314 225.586Z" fill="#1D3D6C"/>
<path d="M16.3034 436.194C15.3213 437.77 16.564 440.574 18.1553 440.942C20.1837 441.41 22.8533 437.914 22.1198 436.326C21.4383 434.846 17.4779 434.306 16.3034 436.194Z" fill="#1D3D6C"/>
<path d="M32.0331 401.108C30.8947 401.152 29.3754 406.224 30.9748 407.44C31.6442 407.948 32.8548 407.772 33.4842 407.176C35.1076 405.636 33.1234 401.068 32.0291 401.108H32.0331Z" fill="#1D3D6C"/>
<path d="M39.5768 348.639C39.3523 348.359 38.7791 348.835 37.833 348.639C37.3159 348.531 36.9191 348.247 36.1294 347.671C35.1153 346.939 34.991 346.631 34.6583 346.667C34.1292 346.723 33.9528 347.555 33.3796 348.871C32.2011 351.575 31.1508 352.155 31.5196 353.007C31.9165 353.931 33.4397 353.947 33.4197 354.555C33.4036 355.004 32.5618 355.036 32.2973 355.756C31.9966 356.572 31.6158 356.716 30.9023 356.876C30.5055 356.968 30.1407 357.42 30.2048 357.764C30.3171 358.348 29.2628 362.284 28.5373 362.404C28.0603 362.48 28.0362 362.816 27.1423 363.524C26.2043 364.272 25.6952 364.328 25.7072 364.644C25.7233 365.036 26.525 365.468 27.1784 365.34C27.6474 365.248 27.6594 364.94 28.1845 364.72C28.898 364.424 29.2708 364.824 30.1206 364.72C31.0626 364.608 31.0426 364.068 31.9405 363.832C33.4597 363.432 34.7144 364.652 35.0792 364.22C35.2957 363.964 35.003 363.356 34.7705 362.868C34.2895 361.864 33.7363 361.624 33.8406 361.204C33.9568 360.736 34.6984 360.816 34.8467 360.316C35.0151 359.752 34.1773 359.328 34.3055 358.732C34.4138 358.224 35.0712 358.3 35.6244 357.764C36.6786 356.748 36.3138 354.511 36.0893 353.123C35.8729 351.787 35.5923 351.379 35.8969 350.995C36.4501 350.303 37.801 351.107 38.8793 350.259C39.4926 349.775 39.8053 348.919 39.5768 348.635V348.639Z" fill="#1D3D6C"/>
<path d="M42.8719 345.703C43.6696 345.947 48.7965 351.984 48.9168 352.16C49.0932 352.416 49.6584 351.92 50.2717 352.16C50.6244 352.3 50.7006 352.552 50.893 352.508C51.1335 352.452 51.0974 352.024 51.3179 351.504C51.7428 350.508 52.6287 350.316 52.5204 349.88C52.4603 349.644 52.1436 349.476 51.8991 349.456C51.5544 349.428 51.4702 346.907 52.1717 346.747C52.5004 346.675 52.9854 346.563 53.0616 346.283C53.1939 345.807 52.0074 345.391 52.0555 344.583C52.0715 344.283 52.2479 344.115 52.1316 343.887C51.9873 343.607 51.6466 343.715 51.4742 343.463C51.1976 343.063 51.819 342.439 51.5504 342.071C51.358 341.803 50.897 341.959 50.7767 341.683C50.6725 341.447 50.9611 341.207 50.8529 341.063C50.7407 340.911 50.2837 340.983 49.963 341.219C49.6543 341.447 49.7265 341.643 49.4579 341.839C49.0611 342.127 48.3596 342.075 48.1391 341.763C47.9788 341.535 48.1632 341.299 47.9828 341.067C47.7984 340.827 47.4096 340.831 47.2853 340.835C46.5558 340.847 46.2511 341.407 45.5817 341.803C44.1907 342.627 43.0403 341.691 42.2506 342.575C42.0662 342.783 41.8417 343.155 41.7856 343.619C41.7335 344.063 41.8497 344.403 41.9018 344.547C41.974 344.751 42.2506 345.515 42.8719 345.707V345.703Z" fill="#1D3D6C"/>
<path d="M52.0914 352.332C51.7547 352.5 51.895 352.98 51.5302 353.2C51.1133 353.456 50.6123 353.028 50.4439 353.22C50.2635 353.432 50.6163 354.24 51.2777 354.612C51.3498 354.652 52.1996 355.112 52.8651 354.632C53.4663 354.2 53.5746 353.244 53.1537 352.72C52.9011 352.404 52.4041 352.176 52.0874 352.332H52.0914Z" fill="#1D3D6C"/>
<path d="M67.0835 364.684C66.859 364.396 67.2518 364.056 67.0835 363.448C66.9271 362.872 66.4982 362.892 66.3339 362.364C66.1334 361.72 66.7107 361.48 66.6706 360.664C66.6546 360.36 66.3419 359.84 65.7166 358.808C65.1433 357.868 65.0151 357.76 64.9149 357.34C64.7585 356.676 64.9028 356.204 64.7064 356.128C64.514 356.056 64.1613 356.444 63.9568 356.772C63.4036 357.66 63.7845 358.34 63.3114 358.704C62.8865 359.032 62.1369 358.824 62.0969 358.652C62.0728 358.548 62.3173 358.48 62.5378 358.112C62.65 357.928 62.7422 357.776 62.6941 357.648C62.5779 357.344 61.7922 357.592 61.5838 357.26C61.3753 356.928 62.0327 356.484 61.8924 355.843C61.7922 355.387 61.3272 355.027 60.8863 354.967C60.5375 354.919 60.1166 355.043 60.0846 355.223C60.0485 355.443 60.6057 355.571 60.6017 355.867C60.5937 356.192 59.9323 356.272 59.8801 356.692C59.8481 356.948 60.0766 357.048 60.0084 357.26C59.9202 357.536 59.5033 357.432 59.2348 357.724C58.8419 358.152 59.2749 358.864 58.9261 359.116C58.7377 359.252 58.385 359.204 58.2807 359.04C58.1084 358.776 58.7618 358.388 58.6415 357.776C58.5774 357.46 58.3569 356.932 57.944 356.848C57.3908 356.732 56.7014 357.452 56.6773 358.084C56.6533 358.688 56.1522 358.444 56.1602 357.876C56.1682 357.388 55.6992 357.276 55.7193 356.82C55.7514 356.112 56.8858 355.827 56.8056 355.531C56.7254 355.239 55.4988 355.055 54.8414 355.635C54.3484 356.071 54.4646 356.688 54.1199 356.768C53.6709 356.872 53.3663 355.863 52.7009 355.863C52.2198 355.863 51.6947 356.4 51.6426 356.92C51.5785 357.556 52.2679 357.748 52.316 358.516C52.3601 359.204 47.9427 359.904 47.8465 359.392C47.8105 359.188 47.6461 358.96 47.4336 358.904C46.9366 358.768 46.66 359.704 45.6499 360.14C44.7279 360.54 44.1066 360.124 43.842 360.528C43.5654 360.956 44.2068 361.496 44.0986 362.436C44.0304 363.028 43.4211 363.796 43.4171 363.812C42.9481 364.152 42.6475 364.636 42.6475 365.172C42.6475 365.708 44.4553 367.372 45.1809 367.616C46.0026 367.892 46.7081 368.724 46.7081 369.265C46.7081 369.917 46.9206 371.945 46.4195 372.925C46.1229 373.513 45.9425 373.481 45.6699 374.109C45.4374 374.645 45.2169 375.153 45.4133 375.525C45.7461 376.153 47.2052 376.273 48.2554 375.809C49.0691 375.449 49.2335 374.925 49.8067 374.985C50.3679 375.045 50.44 375.581 51.1736 375.757C51.7548 375.901 52.4523 375.745 52.5405 375.449C52.6447 375.105 51.8591 374.805 51.9192 374.317C51.9833 373.797 52.9534 373.525 52.9013 373.389C52.8652 373.301 51.8992 371.881 52.3842 371.249C53.2139 370.169 53.1779 370.101 53.3903 370.013C54.0718 369.725 54.7452 370.285 54.9897 369.989C55.134 369.813 54.9096 369.609 54.9657 369.137C55.0218 368.652 55.3545 368.052 55.8435 367.9C56.3486 367.744 56.7174 368.16 57.0822 367.924C57.3067 367.78 57.3588 367.5 57.3908 367.356C57.6233 366.392 58.6455 365.628 59.0945 365.296C60.8702 363.972 63.2233 364.676 64.1813 364.96C64.5902 365.084 64.8387 365.216 65.0071 365.448C65.444 366.056 64.983 366.844 65.3157 367.072C65.5682 367.244 65.8729 366.824 66.7107 366.66C67.6286 366.476 67.9894 366.836 68.3622 366.532C68.7791 366.192 68.8432 365.328 68.4905 364.984C68.0936 364.6 67.3601 365.048 67.0715 364.676L67.0835 364.684Z" fill="#1D3D6C"/>
<path d="M44.9442 371.025C44.6716 370.885 44.4351 371.069 43.5693 371.333C42.9399 371.525 42.4349 371.677 42.3106 371.505C42.2264 371.385 42.4108 371.237 42.503 370.769C42.5471 370.541 42.6473 370.057 42.4068 369.725C42.2344 369.485 42.0781 369.589 41.8256 369.337C41.5369 369.053 41.3886 368.569 41.4768 368.157C41.561 367.777 41.8175 367.617 41.7294 367.461C41.6372 367.297 41.3365 367.441 41.108 367.249C40.8234 367.005 40.9557 366.489 40.8555 366.477C40.7433 366.461 40.5388 367.097 40.4867 367.249C40.3384 367.701 40.3224 367.913 40.1981 367.945C40.0177 367.989 39.8734 367.601 39.7331 367.637C39.4445 367.705 39.4084 369.489 39.9656 369.685C40.2141 369.773 40.4266 369.485 40.7392 369.609C40.9236 369.681 41.0279 369.853 41.1842 370.229C41.4888 370.961 41.4488 371.173 41.6291 371.601C41.6732 371.705 42.1182 372.765 42.7155 372.781C43.1243 372.789 43.2245 372.293 43.7216 372.277C44.1545 372.265 44.2788 372.633 44.6516 372.565C44.9723 372.509 45.2929 372.161 45.309 371.753C45.321 371.485 45.2007 371.149 44.9402 371.017L44.9442 371.025Z" fill="#1D3D6C"/>
<path d="M438.887 32.5762C438.618 33.6202 439.829 34.2323 441.256 36.7285C443.184 40.1047 442.041 40.8488 443.432 42.8009C445.745 46.0372 449.185 44.3771 453.614 48.3614C455.153 49.7455 455.185 50.3455 456.432 50.8536C459.819 52.2297 464.818 49.9095 465.014 47.6573C465.183 45.7292 461.735 44.9291 461.94 43.057C462.144 41.1728 465.744 40.9008 469.368 38.3286C470.927 37.2205 472.133 35.9404 473.071 34.6803C472.895 34.6443 472.727 34.6043 472.562 34.5563C467.287 33.0242 464.754 28.4518 462.385 29.4119C461.278 29.8599 461.21 31.108 460.136 31.128C459.022 31.148 458.753 29.8039 456.965 28.8839C455.45 28.1038 454.853 28.6639 453.53 28.0918C452.62 27.6998 452.131 27.0957 451.646 26.2637C450.018 27.6038 448.046 28.8599 445.673 29.7599C442.15 31.096 439.276 31.056 438.887 32.5722V32.5762Z" fill="#1D3D6C"/>
<path d="M405.139 40.021C407.007 42.6772 411.537 40.8451 413.593 43.5693C414.844 45.2254 414.439 47.5856 413.978 50.2778C413.204 54.8022 411.176 56.5583 412.154 58.0424C412.944 59.2385 414.519 58.4865 416.86 59.6705C419.305 60.9106 419.481 62.6908 421.47 65.135C425.037 69.5193 431.319 72.1955 433.86 70.5034C434.533 70.0553 435.299 69.0633 435.203 68.1072C435.091 66.9631 433.684 66.8151 433.475 65.327C433.355 64.4869 433.628 64.0909 433.668 62.6428C433.716 60.9827 433.383 60.7466 433.475 60.0546C433.836 57.3224 439.516 57.0784 439.817 54.8782C440.017 53.4141 437.54 53.1741 436.357 50.5659C434.726 46.9616 438.093 44.4334 436.357 41.2691C435.175 39.109 432.71 38.6529 432.802 36.7648C432.85 35.7567 433.571 35.4447 433.475 34.4646C433.335 33.0565 431.772 32.8045 430.593 31.4924C427.803 28.3881 430.405 22.9237 428.096 21.7156C427.539 21.4236 427.274 21.6836 426.368 21.2356C424.757 20.4435 424.721 19.2074 423.967 18.8394C421.919 17.8393 417.052 24.4238 410.326 31.2044C408.686 32.8565 407.259 34.1966 406.241 35.1247C406.578 36.1567 406.546 36.9888 405.808 37.3368C405.712 37.3848 405.283 36.7048 404.71 35.7567C404.373 37.1568 404.273 38.7889 405.139 40.021Z" fill="#1D3D6C"/>
<path d="M506.531 59.8819C506.631 57.9178 504.346 55.8056 502.037 55.2655C498.778 54.5015 496.962 57.2097 495.03 56.1896C494.012 55.6496 493.631 53.0534 492.914 47.881C492.349 43.8007 492.068 41.7645 492.12 39.4403C492.196 36.2001 492.657 35.8121 492.12 35.088C490.677 33.1398 486.681 35.08 477.846 34.956C475.485 34.924 474.138 34.904 473.068 34.684C472.13 35.9441 470.923 37.2242 469.364 38.3322C465.74 40.9044 462.14 41.1765 461.936 43.0606C461.731 44.9368 465.179 45.7328 465.01 47.661C464.814 49.9131 459.819 52.2333 456.428 50.8572C455.182 50.3492 455.149 49.7491 453.61 48.365C449.181 44.3807 445.741 46.0408 443.429 42.8046C442.038 40.8564 443.18 40.1084 441.252 36.7321C439.825 34.2319 438.614 33.6239 438.883 32.5798C439.276 31.0637 442.146 31.1037 445.669 29.7676C448.042 28.8675 450.015 27.6114 451.642 26.2713C451.213 25.5313 450.792 24.6112 450.091 23.4831C449.642 22.759 447.561 19.5148 444.274 17.2826C441.035 15.0825 439.701 15.9585 438.326 14.1184C436.506 11.6822 438.49 9.67804 437.003 6.33778C435.195 2.28147 430.317 0.857364 429.206 0.533339C425.771 -0.466738 422.877 0.153309 420.484 0.665349C417.565 1.2894 415.369 2.36948 413.741 3.16954C411.929 4.06161 410.759 4.82567 408.851 6.06976C405.183 8.46595 403.327 9.70204 402.373 11.6102C401.567 13.2263 402.165 13.3943 401.447 15.5665C399.792 20.5749 395.984 21.555 396.424 23.7431C396.841 25.8033 400.297 25.2992 402.505 28.7555C403.427 30.1956 405.568 33.0638 406.237 35.124C407.256 34.1919 408.679 32.8558 410.322 31.2037C417.048 24.4232 421.915 17.8387 423.963 18.8387C424.721 19.2068 424.753 20.4429 426.364 21.2349C427.274 21.683 427.539 21.4229 428.092 21.715C430.401 22.9231 427.803 28.3875 430.589 31.4917C431.768 32.7998 433.331 33.0558 433.471 34.4639C433.568 35.444 432.85 35.76 432.798 36.7641C432.706 38.6563 435.167 39.1083 436.353 41.2685C438.089 44.4327 434.722 46.9649 436.353 50.5652C437.536 53.1734 440.009 53.4134 439.813 54.8775C439.516 57.0777 433.832 57.3217 433.471 60.0539C433.379 60.746 433.712 60.982 433.664 62.6421C433.624 64.0902 433.355 64.4863 433.471 65.3263C433.68 66.8144 435.087 66.9624 435.199 68.1065C435.295 69.0626 434.526 70.0547 433.856 70.5027C431.315 72.1948 425.033 69.5186 421.466 65.1343C419.478 62.6901 419.301 60.91 416.856 59.6699C414.511 58.4818 412.94 59.2379 412.15 58.0418C411.172 56.5576 413.2 54.8015 413.974 50.2772C414.435 47.581 414.84 45.2208 413.589 43.5686C411.533 40.8444 407.003 42.6806 405.135 40.0204C404.269 38.7883 404.373 37.1602 404.706 35.756C403.756 34.1919 402.401 31.8838 401.447 30.8597C400.417 29.7516 398.85 28.0675 396.821 27.9594C395.651 27.8954 394.745 28.3835 394.312 28.6195C390.259 30.7957 384.884 33.4199 383.208 34.1599C381.805 34.78 378.454 35.308 371.828 36.3441C373.271 38.7643 374.883 40.1004 376.221 40.8844C378.979 42.5006 381.36 42.2685 383.425 44.7207C384.828 46.3809 384.174 47.0129 385.441 48.173C388.175 50.6732 392.003 48.457 393.51 50.5692C394.585 52.0773 393.121 53.8854 394.665 55.7456C395.47 56.7177 396.42 56.8937 396.392 57.5657C396.348 58.6298 393.919 58.9618 393.895 60.0579C393.879 60.87 395.198 61.27 395.05 61.8781C394.929 62.3781 393.987 62.3021 393.033 62.8381C391.662 63.6022 391.678 64.8263 390.921 65.7143C388.848 68.1385 383.749 64.8263 381.509 66.9624C380.35 68.0665 381.457 69.1986 380.835 74.247C380.282 78.7474 379.18 79.6474 379.969 81.6276C380.731 83.5397 381.91 83.0877 383.906 85.9399C384.507 86.8 386.868 90.1722 385.73 92.2684C385.132 93.3645 383.99 93.3565 384.002 93.9925C384.022 95.0966 387.453 96.1047 390.44 96.3887C393.963 96.7247 393.967 95.7727 395.915 96.2927C398.902 97.0888 400.453 99.737 403.311 104.633C403.788 105.449 404.149 106.145 404.081 107.03C403.916 109.126 401.575 109.434 400.621 111.438C399.25 114.322 401.684 118.782 403.792 121.119C406.025 123.595 408.005 123.815 408.691 126.295C409.224 128.223 408.358 129.283 409.172 130.131C410.691 131.707 415.257 129.599 416.183 129.171C418.656 128.031 418.263 127.551 421.947 125.335C425.915 122.951 428.477 121.691 428.477 121.691C430.461 120.719 431.303 120.423 431.84 119.39C432.469 118.178 432.577 116.142 431.647 114.694C431.082 113.814 430.309 113.43 430.397 112.682C430.461 112.122 430.938 111.974 431.359 111.434C432.545 109.906 430.994 108.166 431.84 106.93C432.794 105.529 435.335 106.966 437.508 105.205C438.626 104.297 438.169 103.745 439.139 102.905C441.617 100.769 445.228 103.797 447.978 101.945C450.123 100.501 448.992 97.9368 451.438 96.6727C452.748 95.9967 453.742 96.3847 455.663 95.2366C456.725 94.6006 456.765 94.2765 457.583 93.7045C460.557 91.6243 463.179 93.7325 464.978 92.0764C466.229 90.9283 465.191 89.7082 466.898 86.0359C467.552 84.6358 467.877 83.9358 468.53 83.3517C470.594 81.5196 472.675 83.0597 476.118 81.6276C477.882 80.8955 480.403 79.2154 480.343 77.4113C480.299 76.0071 478.724 75.6671 478.519 73.767C478.407 72.7469 478.692 71.2788 479.674 70.5067C481.269 69.2506 483.137 71.0868 485.727 70.2187C487.935 69.4786 488.003 67.6665 489.855 66.3824C491.066 65.5463 493.078 64.9183 496.626 65.7304C497.965 64.8543 498.859 64.3662 498.859 64.3662C503.496 61.8421 506.435 61.666 506.523 59.8819H506.531Z" fill="#1D3D6C"/>
<path d="M324.643 73.5388C327.153 73.6948 329.053 74.0188 329.766 75.3269C330.652 76.9511 328.776 78.3712 329.51 80.5673C330.267 82.8435 333.394 84.6677 336.043 84.5277C337.663 84.4436 338.741 83.6436 339.503 84.2716C340.281 84.9117 339.539 86.0518 340.144 86.9558C341.495 88.972 347.043 86.1038 348.598 87.9799C349.881 89.524 346.871 92.3763 348.213 95.2645C348.903 96.7526 349.921 96.4726 353.08 98.5887C357.798 101.749 358.331 104.253 361.149 104.341C362.965 104.397 363.245 103.373 364.865 103.701C366.981 104.133 366.981 105.989 369.731 108.301C372.814 110.894 374.97 110.378 375.624 112.39C376.157 114.042 374.882 114.93 375.624 116.862C376.273 118.546 377.452 118.41 377.8 119.802C378.358 122.019 375.688 123.699 376.393 125.043C376.914 126.043 378.41 125.171 380.109 126.323C382.258 127.783 381.548 130.327 383.825 131.563C385.016 132.211 385.477 131.655 386.13 132.331C387.329 133.567 385.866 135.5 387.028 138.34C387.469 139.416 387.709 139.22 388.182 140.384C389.096 142.648 388.303 143.704 388.824 145.24C389.798 148.133 394.416 149.821 395.867 148.693C396.604 148.117 396.184 147.076 397.274 145.88C398.108 144.964 399.15 144.704 399.45 144.6C403.571 143.204 401.952 132.251 405.215 131.307C406.049 131.067 406.666 131.611 408.033 131.083C408.566 130.879 409.011 130.587 409.376 130.275C409.311 130.227 409.239 130.183 409.183 130.123C408.369 129.279 409.235 128.215 408.702 126.287C408.017 123.807 406.036 123.587 403.804 121.11C401.695 118.77 399.262 114.314 400.633 111.43C401.587 109.426 403.928 109.118 404.092 107.021C404.16 106.137 403.8 105.441 403.323 104.625C400.461 99.7328 398.913 97.0806 395.927 96.2846C393.979 95.7645 393.975 96.7166 390.451 96.3806C387.469 96.0965 384.034 95.0885 384.014 93.9844C384.002 93.3443 385.148 93.3563 385.741 92.2602C386.88 90.1641 384.519 86.7958 383.917 85.9318C381.917 83.0755 380.743 83.5316 379.981 81.6194C379.191 79.6353 380.294 78.7392 380.847 74.2389C381.468 69.1905 380.362 68.0584 381.52 66.9543C383.761 64.8221 388.86 68.1344 390.932 65.7062C391.69 64.8181 391.674 63.594 393.045 62.83C394.003 62.2979 394.941 62.3699 395.061 61.8699C395.209 61.2619 393.891 60.8618 393.907 60.0498C393.931 58.9537 396.36 58.6217 396.404 57.5576C396.432 56.8855 395.478 56.7055 394.676 55.7374C393.133 53.8773 394.6 52.0692 393.522 50.561C392.015 48.4489 388.186 50.665 385.453 48.1648C384.186 47.0088 384.835 46.3767 383.436 44.7126C381.368 42.2604 378.991 42.4964 376.233 40.8763C374.894 40.0922 373.283 38.7561 371.84 36.3359C371.711 36.3559 371.587 36.3759 371.459 36.3959C367.106 37.076 365.386 37.188 362.736 38.3761C360.989 39.1562 359.036 40.3122 357.184 41.4083C354.715 42.8684 354.042 43.4285 352.955 44.0445C348.971 46.3167 346.305 45.5166 342.249 46.4207C338.288 47.3008 335.731 49.2929 330.616 53.2812C325.285 57.4336 322.23 59.8137 320.835 64.0981C319.805 67.2623 320.739 68.2104 319.248 70.5626C318.149 72.2987 316.803 73.0988 315.528 73.8308C319.288 73.3708 322.37 73.3948 324.651 73.5388H324.643Z" fill="#1D3D6C"/>
<path d="M306.841 122.938C308.048 122.806 308.521 121.342 310.044 118.466C312.999 112.886 314.875 109.345 317.344 108.945C320.98 108.357 324.375 114.822 325.605 114.058C326.367 113.586 325.453 110.849 324.964 109.393C323.545 105.157 322.146 100.969 318.306 98.5285C315.007 96.4324 313.211 97.7165 309.98 95.3323C308.449 94.2002 307.395 92.8321 306.661 91.584C306.457 91.864 306.244 92.152 306.028 92.4641C303.859 95.5603 301.59 101.217 302.745 103.069C304.252 105.493 300.937 112.646 298.359 115.566C299.137 116.166 300.023 116.894 300.953 117.77C304.324 120.93 305.306 123.118 306.845 122.946L306.841 122.938Z" fill="#1D3D6C"/>
<path d="M315.484 122.75C316.254 123.414 315.248 124.938 315.227 126.902C315.191 130.987 319.444 134.175 322.27 136.295C328.921 141.28 332.432 140.027 333.542 143.196C334.729 146.584 331.049 148.964 332.645 153.74C333.338 155.813 334.36 156.353 334.244 158.213C334.092 160.681 332.196 161.297 332.26 163.837C332.296 165.265 332.937 166.986 334.18 167.546C334.733 167.794 334.917 167.594 336.485 167.546C339.203 167.462 339.828 168.034 341.159 167.546C342.173 167.174 342.012 166.773 343.207 166.013C345.552 164.521 348.671 164.477 350.956 165.437C352.062 165.901 351.765 166.097 352.619 166.397C356.034 167.598 358.792 163.801 361.137 164.865C362.111 165.305 361.755 166.013 363.186 168.446C365.607 172.558 367.607 172.19 368.693 175.218C369.655 177.894 368.645 179.722 369.976 180.587C370.545 180.955 370.918 180.747 373.435 180.587C377.031 180.359 377.388 180.715 378.366 180.267C379.997 179.522 380.11 177.99 381.376 175.602C383.008 172.526 385.73 170.122 391.173 165.313C393.217 163.505 393.827 163.129 394.248 161.989C395.346 158.993 392.913 156.769 394.248 154.449C395.262 152.684 397.23 152.996 397.771 151.444C398.2 150.212 397.398 148.764 396.416 147.54C396.296 148.016 396.212 148.412 395.847 148.696C394.396 149.824 389.778 148.136 388.804 145.244C388.287 143.704 389.077 142.652 388.163 140.387C387.694 139.223 387.449 139.415 387.008 138.343C385.846 135.503 387.309 133.575 386.11 132.335C385.457 131.659 384.996 132.215 383.805 131.567C381.529 130.331 382.238 127.786 380.09 126.326C378.394 125.174 376.899 126.046 376.374 125.046C375.668 123.702 378.338 122.022 377.781 119.806C377.432 118.418 376.249 118.554 375.604 116.866C374.862 114.933 376.137 114.045 375.604 112.393C374.951 110.381 372.794 110.893 369.711 108.305C366.962 105.989 366.962 104.137 364.845 103.705C363.23 103.377 362.945 104.401 361.129 104.345C358.311 104.257 357.782 101.756 353.06 98.5922C349.901 96.4761 348.883 96.7561 348.194 95.268C346.851 92.3758 349.861 89.5275 348.578 87.9834C347.023 86.1073 341.475 88.9755 340.124 86.9593C339.519 86.0553 340.261 84.9152 339.483 84.2751C338.722 83.6431 337.643 84.4472 336.024 84.5312C333.378 84.6712 330.251 82.843 329.49 80.5708C328.756 78.3747 330.632 76.9546 329.746 75.3304C329.033 74.0223 327.133 73.6983 324.623 73.5423C322.343 73.3983 319.26 73.3783 315.5 73.8343C314.093 74.6424 312.77 75.3625 311.953 77.1626C310.914 79.4428 312.153 80.2508 311.556 83.4951C310.942 86.8273 309.259 88.0274 306.637 91.5837C307.371 92.8318 308.425 94.1999 309.956 95.332C313.183 97.7162 314.983 96.4321 318.282 98.5282C322.122 100.968 323.525 105.157 324.94 109.393C325.429 110.849 326.343 113.585 325.582 114.057C324.355 114.821 320.956 108.357 317.32 108.945C314.851 109.345 312.975 112.885 310.02 118.466C308.934 120.514 308.385 121.842 307.719 122.486C308.144 122.83 308.649 123.134 309.251 123.322C312.005 124.178 314.418 121.846 315.464 122.746L315.484 122.75Z" fill="#1D3D6C"/>
<path d="M489.859 66.383C488.003 67.6631 487.935 69.4792 485.731 70.2192C483.141 71.0873 481.273 69.2512 479.678 70.5073C478.7 71.2793 478.415 72.7474 478.523 73.7675C478.728 75.6677 480.303 76.0037 480.347 77.4118C480.407 79.2159 477.886 80.8961 476.122 81.6281C472.679 83.0602 470.598 81.5201 468.534 83.3523C467.877 83.9363 467.552 84.6364 466.902 86.0365C465.195 89.7087 466.229 90.9248 464.982 92.0769C463.179 93.7331 460.561 91.6289 457.587 93.7051C456.769 94.2771 456.729 94.6011 455.667 95.2372C453.746 96.3853 452.748 95.9972 451.442 96.6733C448.996 97.9374 450.127 100.502 447.982 101.946C445.232 103.798 441.621 100.77 439.143 102.906C438.169 103.746 438.63 104.298 437.512 105.206C435.339 106.966 432.802 105.53 431.844 106.93C431.002 108.166 432.553 109.906 431.363 111.434C430.942 111.974 430.469 112.122 430.401 112.683C430.313 113.431 431.082 113.815 431.651 114.695C432.581 116.147 432.473 118.179 431.844 119.391C431.307 120.423 430.465 120.719 428.481 121.691C428.481 121.691 425.915 122.951 421.951 125.335C418.271 127.548 418.66 128.028 416.187 129.172C415.293 129.584 411.04 131.544 409.364 130.284C408.999 130.592 408.554 130.884 408.021 131.092C406.654 131.616 406.037 131.076 405.203 131.316C401.94 132.26 403.56 143.213 399.439 144.609C399.138 144.713 398.096 144.973 397.262 145.889C396.709 146.493 396.545 147.057 396.42 147.545C397.403 148.769 398.2 150.221 397.775 151.449C397.234 153.002 395.266 152.69 394.252 154.454C392.917 156.774 395.35 159.002 394.252 161.994C393.835 163.134 393.222 163.51 391.177 165.319C385.734 170.127 383.008 172.531 381.38 175.607C380.671 176.947 380.322 178.02 379.865 178.832C380.446 179.34 380.98 179.976 381.316 180.784C382.439 183.492 380.382 185.636 381.637 187.492C382.655 188.996 384.287 188.004 386.567 189.664C389.289 191.645 388.62 194.269 390.476 194.905C392.885 195.733 394.508 191.469 398.545 191.325C400 191.273 402.077 192.549 406.165 195.097C411.456 198.393 411.581 199.081 413.914 199.761C417.092 200.685 417.714 199.661 420.764 200.785C423.666 201.853 423.598 202.965 426.721 204.366C430.144 205.898 434.249 206.366 434.854 205.198C435.391 204.162 432.85 202.453 433.447 201.237C434.161 199.781 438.33 201.141 439.147 199.577C439.785 198.353 437.64 196.725 438.442 195.233C438.839 194.493 439.829 194.025 440.554 194.209C441.328 194.405 441.701 195.321 441.837 195.613C443.168 198.533 448.407 200.349 452.083 201.621C456.508 203.153 456.869 202.093 460.152 203.345C462.541 204.258 464.449 205.57 465.928 206.87C465.624 206.094 465.187 205.578 465.163 204.454C465.119 202.321 466.622 200.765 467.279 199.969C470.061 196.585 467.889 194.201 470.053 186.384C471.685 180.496 472.651 177.011 475.737 174.907C476.868 174.135 478.8 173.203 479.305 171.215C479.537 170.299 479.249 170.031 479.04 167.787C478.776 164.919 478.627 163.338 479.437 162.114C480.459 160.566 481.838 161.366 483.137 160.002C484.793 158.266 483.438 156.034 483.534 149.449C483.59 145.681 484.051 145.309 483.534 143.645C482.568 140.529 480.383 140.005 478.379 137.576C476.996 135.9 476.928 134.808 475.473 120.695C475.096 117.047 474.956 113.375 474.414 109.746C473.717 105.074 473.172 103.598 473.885 101.042C474.519 98.7814 475.505 97.9254 476.002 94.9731C476.419 92.501 475.946 91.7849 476.134 90.0928C476.523 86.6165 478.992 85.4284 483.009 80.8601C488.023 75.1556 486.628 74.2156 490.938 70.1752C492.962 68.2791 495.09 66.751 496.634 65.7389C493.09 64.9228 491.074 65.5549 489.863 66.3909L489.859 66.383Z" fill="#1D3D6C"/>
<path d="M252.662 184.996C253.801 186.28 255.368 185.476 256.887 186.912C257.789 187.764 257.344 188.144 258.422 189.852C259.344 191.312 259.633 190.972 262.138 193.689C263.229 194.869 263.666 195.465 264.7 195.989C265.69 196.489 266.548 196.581 266.876 196.629C269.983 197.089 270.957 200.605 274.433 202.637C278.421 204.969 280.91 202.537 284.678 205.449C286.29 206.694 285.713 207.046 287.368 208.39C292.042 212.186 298.496 210.894 299.919 210.562C302.176 210.042 303.506 209.734 304.4 208.518C306.521 205.641 303.374 201.509 305.17 199.825C305.976 199.069 306.918 199.609 312.983 200.721C318.723 201.773 319.452 201.577 320.667 202.637C322.471 204.217 322.066 205.713 324.383 207.366C325.12 207.894 326.852 209.13 328.48 208.646C330.259 208.114 329.951 206.117 331.811 204.685C334.388 202.697 336.753 205.169 339.88 203.533C342.974 201.913 342.213 198.677 345.644 197.141C347.769 196.193 348.29 197.329 350.254 196.501C354.671 194.641 354.23 187.952 357.425 187.552C358.339 187.44 359.506 187.848 359.858 188.576C360.367 189.624 358.968 190.896 359.474 191.644C359.866 192.228 361.261 192.256 362.292 191.772C364.584 190.688 364.023 187.524 365.879 184.232C366.553 183.04 367.667 181.612 369.635 180.279C368.845 179.327 369.555 177.615 368.697 175.219C367.611 172.191 365.611 172.559 363.189 168.447C361.758 166.018 362.115 165.31 361.141 164.866C358.796 163.806 356.042 167.603 352.623 166.398C351.769 166.098 352.066 165.906 350.959 165.438C348.675 164.478 345.556 164.522 343.211 166.014C342.016 166.774 342.177 167.178 341.163 167.547C339.828 168.035 339.202 167.462 336.489 167.547C334.921 167.595 334.737 167.795 334.184 167.547C332.941 166.986 332.296 165.266 332.264 163.838C332.203 161.298 334.1 160.682 334.248 158.214C334.36 156.354 333.338 155.81 332.648 153.741C331.049 148.965 334.729 146.585 333.546 143.197C332.436 140.024 328.924 141.28 322.274 136.296C319.444 134.176 315.191 130.988 315.231 126.903C315.251 124.939 316.254 123.411 315.488 122.751C314.446 121.851 312.033 124.183 309.275 123.327C308.673 123.139 308.168 122.835 307.743 122.491C307.475 122.751 307.19 122.903 306.841 122.943C305.302 123.115 304.32 120.927 300.949 117.767C300.019 116.895 299.133 116.163 298.355 115.562C298.083 115.871 297.818 116.135 297.566 116.339C295.806 117.771 293.421 117.635 292.675 119.635C292.226 120.847 292.916 121.399 292.411 122.931C291.966 124.283 291.128 124.771 289.505 126.359C286.855 128.952 287.392 129.3 285.805 130.58C283.46 132.472 282.662 131.408 279.195 133.348C277.263 134.432 273.911 136.18 273.775 138.888C273.735 139.704 274.004 140.704 273.378 141.657C272.625 142.805 271.129 143.029 270.737 143.109C267.049 143.853 263.71 151.265 262.014 155.114C255.42 170.051 256.17 169.859 254.017 173.151C252.386 175.651 251.395 176.615 250.249 177.795C251.267 179.067 251.704 180.227 251.897 181.16C252.253 182.916 251.764 183.976 252.666 184.996H252.662Z" fill="#1D3D6C"/>
<path d="M225.192 230.751C227.38 232.287 226.358 234.907 229.096 237.971C229.513 238.44 230.339 239.276 230.567 240.592C230.775 241.788 230.286 242.204 230.375 242.828C230.82 245.912 244.092 244.78 246.128 249.792C246.565 250.864 246.284 251.717 247.218 253.629C248.14 255.521 249.006 255.893 249.203 257.401C249.387 258.825 248.686 259.037 248.818 260.661C248.854 261.125 249.062 262.953 250.353 264.177C251.48 265.242 252.546 265.014 255.155 265.71C257.605 266.362 257.396 266.758 259.637 267.434C264.423 268.878 265.974 267.258 269.754 268.966C271.687 269.838 271.743 270.47 272.957 270.498C276.192 270.582 278.77 266.178 279.235 265.386C281.115 262.173 280.153 261.057 281.988 258.869C284.157 256.277 285.925 257.333 287.272 255.033C288.526 252.889 287.424 251.232 289.192 247.844C289.733 246.808 290.31 246.056 291.016 246.024C291.673 245.992 291.954 246.6 293.224 247.176C294.355 247.684 294.647 247.436 295.241 247.752C297.185 248.788 296.467 252.781 297.257 252.929C298.083 253.085 298.468 248.676 301.193 247.56C303.286 246.708 304.46 248.724 306.861 247.848C309.226 246.984 309.752 244.42 311.567 244.588C312.245 244.652 312.309 245.02 313.199 245.452C315.448 246.544 318.923 246.076 320.306 244.3C321.561 242.692 320.118 241.284 321.172 239.7C322.743 237.343 326.491 239.648 330.584 237.591C334.957 235.391 334.384 230.899 338.461 229.923C340.962 229.323 341.78 230.875 344.033 229.923C346.919 228.707 346.674 225.695 349.316 224.938C351.288 224.374 351.613 225.999 354.599 225.899C357.974 225.783 359.012 223.654 361.995 224.174C363.666 224.466 363.979 225.242 364.877 224.942C367.025 224.218 366.32 219.374 368.048 218.902C369.378 218.542 370.124 221.322 373.042 221.97C375.115 222.43 375.564 221.214 378.037 221.49C381.28 221.854 382.033 224.11 383.705 223.598C385.769 222.966 385.236 219.342 387.93 218.23C389.329 217.654 390.195 218.334 390.908 217.558C391.955 216.422 390.319 214.698 391.293 212.766C392.019 211.325 393.217 211.705 394.464 209.793C395.326 208.473 394.941 208.005 395.715 207.109C397.021 205.589 398.569 206.421 400.036 205.385C402.441 203.681 400.537 199.853 402.822 196.372C403.239 195.736 403.876 194.996 404.882 194.304C401.619 192.284 399.827 191.276 398.533 191.324C394.5 191.464 392.877 195.732 390.463 194.904C388.607 194.268 389.277 191.644 386.555 189.664C384.274 188.004 382.643 188.996 381.625 187.492C380.37 185.635 382.43 183.491 381.304 180.783C380.967 179.975 380.438 179.339 379.853 178.831C379.496 179.467 379.075 179.947 378.358 180.271C377.38 180.719 377.019 180.363 373.427 180.591C370.914 180.751 370.537 180.959 369.968 180.591C369.827 180.499 369.719 180.395 369.623 180.283C367.655 181.615 366.54 183.043 365.867 184.235C364.011 187.528 364.576 190.692 362.279 191.776C361.249 192.26 359.854 192.232 359.461 191.648C358.956 190.9 360.351 189.628 359.846 188.58C359.493 187.852 358.327 187.444 357.413 187.556C354.218 187.952 354.659 194.64 350.242 196.504C348.278 197.332 347.756 196.192 345.632 197.144C342.201 198.68 342.962 201.917 339.868 203.537C336.741 205.173 334.376 202.697 331.799 204.689C329.939 206.125 330.251 208.121 328.467 208.649C326.836 209.133 325.108 207.901 324.371 207.369C322.058 205.717 322.463 204.221 320.655 202.641C319.44 201.581 318.711 201.773 312.97 200.725C306.906 199.617 305.964 199.076 305.158 199.829C303.362 201.513 306.509 205.641 304.388 208.521C303.494 209.737 302.159 210.045 299.907 210.565C298.48 210.893 292.03 212.189 287.356 208.393C285.7 207.049 286.278 206.697 284.666 205.453C280.898 202.541 278.409 204.973 274.42 202.641C270.945 200.609 269.971 197.092 266.864 196.632C266.532 196.584 265.678 196.496 264.688 195.992C263.653 195.468 263.217 194.872 262.126 193.692C259.621 190.98 259.336 191.316 258.41 189.856C257.332 188.148 257.773 187.768 256.875 186.916C255.356 185.479 253.788 186.283 252.65 184.999C251.748 183.979 252.241 182.923 251.88 181.163C251.692 180.231 251.251 179.071 250.233 177.799C249.094 178.967 247.804 180.347 245.575 183.639C240.805 190.684 242.212 191.024 238.34 195.708C237.117 197.188 234.86 199.717 235.566 200.853C236.115 201.737 237.975 200.997 239.334 202.337C240.264 203.257 240.592 204.789 240.127 205.205C239.482 205.781 237.77 203.797 235.866 204.413C235.033 204.685 235.121 205.141 233.982 205.997C232.211 207.325 231.2 206.813 229.324 207.877C227.633 208.837 226.094 210.597 226.45 211.341C226.931 212.341 230.687 211.101 231.012 211.933C231.24 212.529 229.332 213.202 227.741 215.494C226.811 216.834 227.156 217.046 225.661 219.946C224.113 222.946 223.42 223.338 222.983 223.506C221.644 224.022 220.898 223.102 219.908 223.702C218.73 224.418 218.305 226.635 219.014 228.155C219.548 229.287 220.49 229.555 220.983 230.079C223.147 229.743 224.414 230.211 225.184 230.751H225.192Z" fill="#1D3D6C"/>
<path d="M466.085 207.349C466.041 207.173 465.984 207.013 465.924 206.861C464.445 205.561 462.537 204.249 460.148 203.337C456.865 202.085 456.504 203.145 452.079 201.613C448.403 200.341 443.16 198.525 441.833 195.604C441.701 195.312 441.328 194.396 440.55 194.2C439.825 194.016 438.835 194.484 438.438 195.224C437.636 196.716 439.781 198.345 439.143 199.569C438.33 201.133 434.157 199.777 433.443 201.229C432.846 202.445 435.391 204.153 434.85 205.189C434.245 206.357 430.14 205.889 426.717 204.357C423.594 202.957 423.666 201.849 420.76 200.777C417.706 199.653 417.084 200.681 413.91 199.753C411.577 199.073 411.452 198.385 406.161 195.088C405.712 194.808 405.291 194.548 404.89 194.3C403.884 194.992 403.251 195.728 402.83 196.368C400.545 199.849 402.449 203.677 400.044 205.381C398.577 206.421 397.03 205.585 395.723 207.105C394.953 208.001 395.338 208.469 394.472 209.789C393.226 211.702 392.027 211.322 391.301 212.762C390.327 214.694 391.963 216.418 390.917 217.554C390.203 218.326 389.337 217.646 387.938 218.226C385.445 219.254 385.71 222.434 384.126 223.402C385.032 225.383 385.565 227.439 384.639 228.643C384.014 229.455 383.152 229.323 381.565 229.859C378.582 230.863 375.588 233.367 374.329 236.568C374.121 237.096 372.514 241.176 374.458 244.236C376.362 247.232 379.873 246.428 380.863 249.092C381.785 251.573 379.601 254.573 379.2 255.101C377.236 257.685 375.207 257.245 374.013 259.637C373.095 261.477 374.157 262.001 373.5 264.622C372.485 268.674 369.519 269.11 369.595 271.906C369.655 274.246 371.74 274.35 372.028 277.147C372.321 279.971 370.253 280.507 370.557 283.475C370.814 286.007 372.461 287.027 371.776 288.652C371.295 289.784 370.337 289.652 369.856 290.888C369.283 292.356 370.357 293.26 370.305 294.912C370.241 297.016 368.449 297.52 366.781 300.024C365.475 301.985 365.122 304.313 364.412 308.973C363.791 313.061 364.019 314.858 362.428 316.322C361.181 317.466 359.967 317.346 359.802 318.238C359.498 319.87 363.454 320.742 363.835 323.734C363.967 324.754 363.611 325.45 364.092 326.802C364.484 327.903 365.13 328.579 365.31 328.783C367.162 330.923 365.515 336.707 363.647 344.184C361.971 350.884 361.466 353.553 359.486 354.153C358.436 354.473 357.049 354.189 355.577 355.305C354.527 356.105 354.712 356.649 353.786 357.221C351.882 358.401 349.753 356.921 349.112 357.797C348.45 358.697 350.599 360.397 349.945 362.269C349.529 363.453 348.522 363.181 347.705 364.505C346.494 366.462 348.098 368.022 346.935 370.13C346.262 371.354 344.871 372.374 343.732 372.174C342.862 372.022 342.702 371.254 341.94 370.706C339.459 368.918 334.352 372.126 333.871 372.43C331.514 373.942 327.59 377.43 328.299 380.483C328.624 381.879 329.678 382.155 329.582 383.487C329.458 385.143 327.678 386.635 326.187 387.323C324.696 388.011 323.75 387.771 323.497 388.411C323.168 389.247 324.656 389.987 325.161 391.607C325.806 393.672 324.435 395.808 323.561 397.168C320.791 401.476 317.46 401.636 317.54 403.432C317.589 404.516 318.819 404.824 325.417 409.121C327.927 410.753 329.378 411.769 329.771 413.529C330.035 414.713 329.57 415.105 329.771 416.853C329.995 418.785 330.729 419.734 331.498 421.454C333.182 425.222 331.963 425.85 333.162 427.846C335.411 431.579 339.78 429.542 343.792 433.855C345.757 435.963 345.716 437.531 347.508 438.007C349.974 438.667 351.356 436.051 353.786 436.667C355.67 437.143 356.676 439.187 358.331 442.547C360.071 446.08 359.714 447.008 360.893 448.812C363.158 452.284 366.817 450.484 368.898 453.668C370.217 455.684 369.872 457.773 371.203 458.141C372.065 458.381 372.722 457.645 373.957 457.052C377.203 455.5 379.336 457.769 380.615 456.668C382.427 455.116 378.618 450.696 380.551 445.292C381.04 443.923 381.821 442.707 382.663 441.395C384.439 438.627 385.325 438.247 386.443 436.347C387.69 434.227 387.036 433.931 388.363 429.826C389.61 425.974 390.384 425.626 391.758 421.518C393.065 417.617 392.388 417.869 393.294 415.701C395.767 409.793 400.349 408.957 400.208 405.605C400.1 402.972 397.25 402.82 396.685 399.98C395.835 395.688 400.958 388.971 407.636 388.223C411.048 387.839 413.91 389.119 415.99 390.583C416.543 388.883 416.908 387.251 416.255 385.551C415.834 384.459 414.964 383.255 415.461 382.519C415.862 381.927 416.8 382.315 417.445 381.595C418.283 380.659 418.147 379.306 418.107 378.826C417.85 375.798 418.788 372.762 418.636 369.726C418.423 365.485 420.48 363.985 422.203 355.745C425.306 340.936 424.236 335.915 427.623 329.235C428.473 327.562 429.828 325.334 430.132 321.982C430.353 319.566 429.88 318.254 430.264 314.99C430.513 312.889 430.954 311.353 431.323 310.109C434.858 298.124 436.405 296.392 437.007 291.248C437.857 283.963 435.247 283.251 437.139 278.587C439.224 273.45 443.076 272.634 442.955 268.826C442.855 265.57 440.009 265.27 438.594 260.253C438.089 258.461 437.055 254.809 438.726 251.681C440.462 248.432 443.481 248.804 445.469 244.952C446.206 243.524 446.359 242.372 446.659 240.072C447.457 233.987 445.573 232.383 446.792 229.387C447.541 227.547 448.359 227.879 453.666 223.582C457.142 220.77 459.599 218.35 461.595 216.066C466.526 210.421 466.317 208.257 466.089 207.361L466.085 207.349Z" fill="#1D3D6C"/>
<path d="M193.46 309.74C196.294 309.688 196.422 309.052 200.599 308.272C206.44 307.18 211.414 306.248 216.16 308.272C219.764 309.808 220.602 311.924 224.807 312.616C226.783 312.944 227.921 312.692 229.866 312.552C235.029 312.176 236.399 313.248 249.972 314.789C253.38 315.177 255.677 315.377 257.4 313.892C258.755 312.724 259.733 310.536 259 309.292C257.865 307.36 253.784 309.668 250.802 307.312C248.052 305.14 248.333 300.671 248.369 300.091C248.549 297.219 249.808 297.151 250.61 293.955C252.025 288.331 248.686 286.306 250.546 281.942C251.696 279.242 253.588 278.562 253.299 276.382C253.167 275.378 252.686 274.913 251.892 272.101C251.303 270.021 251.391 269.653 251.572 269.417C252.317 268.433 254.49 269.841 256.631 269.161C257.348 268.933 258.21 268.421 259.048 267.241C257.42 266.677 257.364 266.297 255.159 265.709C252.55 265.013 251.484 265.241 250.357 264.177C249.066 262.953 248.858 261.128 248.822 260.66C248.69 259.036 249.391 258.824 249.207 257.4C249.01 255.896 248.144 255.52 247.223 253.628C246.289 251.716 246.569 250.864 246.132 249.792C244.096 244.775 230.824 245.911 230.379 242.827C230.29 242.203 230.78 241.787 230.571 240.591C230.343 239.275 229.517 238.439 229.1 237.971C226.362 234.906 227.384 232.286 225.196 230.75C224.426 230.21 223.159 229.742 220.995 230.078C221.159 230.25 221.271 230.454 221.307 230.726C221.432 231.722 220.277 232.094 218.63 234.09C216.625 236.515 216.878 237.727 215.158 238.739C213.952 239.451 213.619 238.979 212.284 239.531C209.602 240.635 209.723 243.043 206.833 246.555C204.243 249.7 202.05 250.312 202.371 251.304C202.716 252.376 205.686 252.968 207.129 251.8C208.568 250.636 207.578 248.451 209.21 247.151C210.168 246.387 211.691 246.195 212.184 246.755C212.95 247.623 210.701 249.672 211.49 251.404C212.248 253.064 215.222 253.204 215.158 253.48C215.118 253.648 214.024 253.592 212.084 253.48C210.709 253.4 210.328 253.352 209.803 253.58C208.921 253.964 208.861 254.616 208.215 255.228C206.849 256.528 205.157 255.452 202.796 256.152C200.158 256.936 198.334 259.448 198.699 260.108C199.1 260.828 202.062 259.268 202.796 260.24C203.293 260.9 202.327 262.157 200.022 266.045C197.509 270.289 197.376 270.965 195.925 272.641C194.418 274.381 194.146 274.129 192.358 275.938C188.305 280.038 186.104 284.978 186.938 285.698C187.251 285.966 188.177 285.31 188.79 285.83C189.604 286.522 189.083 287.866 189.055 287.942C188.738 288.727 188.101 289.007 187.6 289.395C186.104 290.559 186.646 292.095 185.615 294.671C185.359 295.311 184.24 298.119 181.651 299.815C179.803 301.023 178.588 300.767 178.083 301.928C177.594 303.044 178.192 304.392 179.009 305.884C179.186 306.204 179.35 306.516 179.446 306.776C180.408 307.104 181.667 307.512 183.15 307.928C186.573 308.884 189.909 309.816 193.46 309.748V309.74Z" fill="#1D3D6C"/>
<path d="M164.547 373.006C165.369 372.802 165.946 372.406 167.108 372.43C169.642 372.486 170.399 374.454 171.718 374.218C174.127 373.794 173.863 366.842 176.2 366.422C177.551 366.178 178.032 368.43 179.723 368.466C182.926 368.534 184.261 360.533 188.562 360.157C189.728 360.053 190.061 360.605 191.123 360.221C192.971 359.553 193.044 357.497 195.284 356.133C196.198 355.577 196.928 355.465 197.525 355.301C202.444 353.965 202.608 348.4 205.658 348.144C207.466 347.992 207.611 349.76 210.268 349.996C212.256 350.176 213.018 349.26 216.161 348.272C218.71 347.468 220.923 346.772 223.011 347.184C226.218 347.82 226.19 350.484 230.118 353.705C230.928 354.369 236.733 359.121 243.182 358.305C247.195 357.797 250.045 355.313 251.38 356.581C252.394 357.541 251.42 359.609 252.534 360.289C253.384 360.809 254.045 359.649 256.186 359.521C258.371 359.393 259.124 360.517 261.694 360.161C262.568 360.037 262.435 359.913 263.165 359.841C266.023 359.557 267.338 361.537 268.288 360.993C269.194 360.473 268.187 358.565 268.416 354.285C268.552 351.748 268.985 350.884 268.352 350.068C267.181 348.564 263.995 349.264 263.229 349.428C259.136 350.308 257.749 353.053 256.186 352.369C254.631 351.688 255.272 348.664 253.432 347.96C252.177 347.476 251.031 348.56 250.358 347.96C249.74 347.412 250.157 346.02 250.55 344.764C252.947 337.079 253.115 336.995 253.111 336.071C253.103 332.759 250.939 332.351 251.384 329.427C251.801 326.667 253.757 326.771 254.009 324.186C254.23 321.918 252.795 321.078 251.833 316.582C251.704 315.986 251.612 315.442 251.54 314.958C251.047 314.91 250.526 314.854 249.977 314.794C236.4 313.254 235.029 312.181 229.87 312.557C227.926 312.697 226.787 312.95 224.811 312.621C220.606 311.925 219.768 309.813 216.165 308.277C211.419 306.253 206.444 307.185 200.604 308.277C196.427 309.057 196.298 309.693 193.464 309.745C189.913 309.813 186.578 308.881 183.154 307.925C181.671 307.509 180.413 307.105 179.451 306.773C179.547 307.025 179.575 307.229 179.483 307.333C179.19 307.665 178.2 306.341 174.652 306.673C172.8 306.849 172.768 307.969 169.365 309.837C165.565 311.921 162.607 312.173 162.623 313.266C162.635 314.002 163.97 314.018 164.21 314.982C164.711 317.002 159.384 319.15 159.849 321.182C160.057 322.102 161.184 321.814 161.965 323.03C163.336 325.166 160.767 327.503 161.965 330.155C162.715 331.815 164.062 331.643 164.475 333.055C165.076 335.099 162.771 337.239 161.304 338.992C156.879 344.264 156.137 350.608 155.488 356.137C154.878 361.357 154.497 364.597 156.414 367.746C157.324 369.242 158.538 370.366 158.722 371.386C161.436 373.194 163.292 373.33 164.555 373.014L164.547 373.006Z" fill="#1D3D6C"/>
<path d="M274.116 351.951C275.948 352.503 276.473 353.128 279.303 353.964C282.971 355.052 283.612 354.46 284.586 355.4C286.466 357.216 286.286 361.544 285.163 364.412C284.662 365.692 283.873 366.933 284.201 368.629C284.386 369.577 284.759 369.829 285.26 370.833C286.723 373.765 285.38 375.237 286.51 377.637C287.452 379.638 289.312 380.598 290.447 381.186C291.048 381.498 293.605 382.742 296.788 382.242C298.592 381.958 298.648 381.422 300.536 380.902C302.184 380.446 304.344 380.69 308.605 381.19C315.147 381.958 315.516 382.014 316.386 382.246C320.535 383.35 322.166 383.538 322.631 384.738C322.972 385.626 322.479 386.25 322.968 387.47C323.108 387.818 323.297 388.122 323.505 388.398C323.77 387.782 324.708 388.006 326.183 387.326C327.674 386.642 329.454 385.15 329.578 383.49C329.678 382.158 328.62 381.882 328.295 380.486C327.586 377.433 331.51 373.945 333.867 372.433C334.344 372.125 339.455 368.921 341.936 370.709C342.698 371.261 342.858 372.025 343.728 372.177C344.863 372.377 346.257 371.357 346.931 370.133C348.089 368.025 346.49 366.465 347.701 364.508C348.518 363.184 349.524 363.456 349.941 362.272C350.599 360.4 348.446 358.696 349.108 357.8C349.749 356.928 351.877 358.404 353.782 357.224C354.707 356.652 354.523 356.104 355.573 355.308C357.04 354.192 358.427 354.476 359.482 354.156C361.466 353.552 361.971 350.883 363.642 344.187C365.51 336.71 367.158 330.926 365.306 328.786C365.126 328.578 364.484 327.906 364.087 326.805C363.606 325.457 363.963 324.757 363.831 323.737C363.446 320.745 359.494 319.873 359.798 318.241C359.963 317.349 361.177 317.469 362.424 316.325C364.019 314.861 363.787 313.064 364.408 308.976C365.118 304.32 365.47 301.988 366.777 300.027C368.445 297.523 370.233 297.019 370.301 294.915C370.353 293.259 369.278 292.359 369.852 290.891C370.333 289.655 371.291 289.787 371.772 288.655C372.461 287.03 370.814 286.01 370.553 283.478C370.253 280.51 372.317 279.978 372.024 277.15C371.736 274.353 369.651 274.249 369.591 271.909C369.519 269.113 372.485 268.673 373.495 264.625C374.153 262.005 373.091 261.48 374.009 259.64C375.203 257.244 377.231 257.688 379.196 255.104C379.596 254.576 381.781 251.576 380.859 249.096C379.869 246.431 376.358 247.235 374.454 244.239C372.509 241.179 374.117 237.099 374.325 236.571C375.588 233.37 378.578 230.866 381.561 229.862C383.148 229.326 384.01 229.458 384.635 228.646C385.561 227.442 385.028 225.386 384.122 223.406C383.994 223.482 383.862 223.55 383.705 223.598C382.034 224.11 381.28 221.849 378.037 221.489C375.564 221.213 375.115 222.429 373.043 221.969C370.124 221.321 369.379 218.541 368.048 218.901C366.32 219.369 367.026 224.214 364.877 224.942C363.979 225.246 363.667 224.466 361.995 224.174C359.013 223.654 357.97 225.782 354.599 225.898C351.613 226.002 351.292 224.374 349.316 224.938C346.674 225.694 346.919 228.706 344.033 229.922C341.78 230.874 340.966 229.322 338.461 229.922C334.384 230.898 334.957 235.39 330.584 237.591C326.491 239.651 322.739 237.343 321.172 239.699C320.118 241.283 321.561 242.695 320.306 244.299C318.919 246.075 315.448 246.539 313.199 245.451C312.309 245.019 312.245 244.651 311.568 244.587C309.748 244.419 309.227 246.983 306.862 247.847C304.461 248.723 303.286 246.707 301.194 247.559C298.464 248.675 298.079 253.084 297.257 252.928C296.468 252.78 297.185 248.787 295.241 247.751C294.648 247.435 294.351 247.683 293.225 247.175C291.95 246.603 291.673 245.991 291.016 246.023C290.306 246.059 289.733 246.807 289.192 247.843C287.42 251.236 288.523 252.892 287.272 255.032C285.925 257.332 284.157 256.272 281.989 258.868C280.153 261.06 281.115 262.173 279.235 265.385C278.77 266.177 276.192 270.581 272.957 270.497C271.743 270.465 271.687 269.837 269.755 268.965C265.971 267.257 264.423 268.877 259.637 267.433C259.413 267.365 259.22 267.301 259.044 267.241C258.206 268.421 257.348 268.933 256.627 269.161C254.486 269.841 252.314 268.433 251.568 269.417C251.388 269.653 251.299 270.021 251.889 272.101C252.682 274.913 253.163 275.382 253.296 276.382C253.584 278.562 251.692 279.242 250.542 281.942C248.682 286.31 252.021 288.335 250.606 293.955C249.8 297.147 248.546 297.215 248.365 300.091C248.329 300.671 248.048 305.144 250.798 307.312C253.781 309.668 257.861 307.36 258.996 309.292C259.725 310.54 258.751 312.728 257.396 313.892C255.949 315.137 254.097 315.193 251.532 314.953C251.604 315.437 251.696 315.981 251.824 316.577C252.787 321.077 254.222 321.913 254.001 324.181C253.749 326.765 251.792 326.661 251.376 329.422C250.935 332.35 253.095 332.754 253.103 336.066C253.103 336.99 252.939 337.074 250.542 344.759C250.149 346.015 249.732 347.407 250.349 347.955C251.023 348.555 252.169 347.471 253.424 347.955C255.264 348.663 254.622 351.687 256.178 352.363C257.745 353.048 259.128 350.303 263.221 349.423C263.986 349.259 267.173 348.555 268.344 350.063C268.652 350.463 268.708 350.875 268.668 351.487C271.005 351.251 272.797 351.551 274.108 351.947L274.116 351.951Z" fill="#1D3D6C"/>
<path d="M308.601 381.187C304.34 380.687 302.18 380.443 300.532 380.899C298.648 381.419 298.592 381.959 296.784 382.24C293.601 382.74 291.048 381.495 290.443 381.183C289.308 380.599 287.444 379.635 286.506 377.635C285.376 375.231 286.723 373.763 285.256 370.831C284.755 369.827 284.382 369.575 284.197 368.626C283.865 366.93 284.654 365.686 285.159 364.41C286.286 361.542 286.462 357.214 284.582 355.397C283.608 354.457 282.967 355.045 279.299 353.961C276.469 353.121 275.944 352.501 274.112 351.949C272.801 351.553 271.009 351.249 268.672 351.489C268.628 352.129 268.484 352.985 268.412 354.285C268.183 358.566 269.189 360.478 268.284 360.994C267.333 361.538 266.019 359.558 263.161 359.842C262.431 359.914 262.563 360.038 261.689 360.162C259.12 360.518 258.37 359.394 256.182 359.522C254.045 359.65 253.384 360.806 252.53 360.29C251.42 359.614 252.39 357.546 251.375 356.582C250.041 355.313 247.191 357.798 243.178 358.306C236.728 359.122 230.924 354.365 230.114 353.705C226.182 350.485 226.21 347.821 223.007 347.185C220.919 346.773 218.706 347.469 216.157 348.273C213.014 349.265 212.252 350.177 210.264 349.997C207.602 349.757 207.462 347.989 205.654 348.145C202.604 348.405 202.439 353.965 197.521 355.301C196.924 355.461 196.194 355.573 195.28 356.134C193.039 357.502 192.963 359.554 191.119 360.222C190.057 360.606 189.724 360.054 188.558 360.158C184.257 360.534 182.922 368.534 179.719 368.466C178.027 368.43 177.546 366.178 176.195 366.422C173.858 366.842 174.123 373.795 171.714 374.219C170.395 374.451 169.638 372.487 167.104 372.431C165.942 372.407 165.364 372.803 164.543 373.007C163.28 373.323 161.424 373.187 158.71 371.379C158.754 371.623 158.742 371.859 158.65 372.091C157.997 373.779 154.393 372.735 152.569 375.123C151.547 376.463 151.262 378.647 152.172 379.739C153.599 381.451 157.279 379.659 157.989 380.927C158.754 382.292 154.694 384.744 155.215 388.052C155.399 389.224 155.964 389.272 156.802 390.82C158.418 393.812 157.371 395.593 157.728 401.901C157.953 405.873 158.542 408.25 157.86 408.498C157.047 408.79 155.948 405.497 154.293 405.597C152.97 405.677 151.952 407.874 151.178 410.238C152.93 410.354 154.934 410.806 156.738 412.058C159.544 414.002 159.424 416.182 162.31 417.714C164.607 418.934 168.17 419.398 170.475 417.81C172.584 416.354 171.846 414.406 174.508 412.634C176.212 411.498 177.314 411.766 178.16 410.43C179.021 409.07 178.412 407.954 179.41 406.977C180.176 406.229 180.918 406.509 182.292 406.113C184.489 405.481 184.601 404.185 187.383 402.089C188.297 401.397 189.724 400.669 192.57 399.213C195.04 397.949 196.274 397.321 197.661 396.817C200.323 395.853 200.796 396.125 202.944 395.093C204.528 394.328 204.816 393.916 205.827 393.844C207.574 393.72 207.899 394.872 209.859 395.093C211.996 395.333 212.449 394.064 214.469 394.324C216.116 394.536 216.209 395.433 218.217 396.337C221.572 397.849 224.35 396.709 224.655 397.585C225.047 398.733 220.317 400.837 220.718 402.089C221.119 403.349 226.27 402.341 226.867 404.005C227.172 404.853 225.957 405.465 226.194 406.497C226.623 408.374 230.976 407.921 231.573 409.758C232.11 411.406 228.864 412.606 228.98 415.414C229.064 417.438 230.808 418.214 230.323 419.726C229.858 421.183 227.942 421.403 228.018 422.315C228.094 423.219 229.982 423.099 230.611 424.327C231.529 426.123 228.399 428.147 229.076 430.367C229.28 431.035 229.693 431.275 234.167 433.627C237.999 435.64 238.56 435.92 239.258 435.64C241.158 434.876 240.809 431.247 242.236 431.039C243.234 430.895 243.515 432.651 245.214 433.051C247.054 433.487 247.816 431.683 250.017 431.899C251.997 432.095 252.734 433.683 253.668 433.239C254.53 432.827 254.658 431.099 254.438 429.883C254.069 427.867 252.778 427.491 251.941 425.763C250.574 422.947 251.48 418.75 253.284 417.998C254.55 417.47 255.364 419.006 259.433 420.106C261.176 420.578 263.461 421.198 264.331 420.202C265.189 419.222 263.802 417.666 264.716 416.274C265.357 415.294 266.291 415.686 268.652 414.646C270.147 413.99 272.015 413.166 272.973 411.386C273.687 410.062 273.294 409.326 274.128 408.606C275.118 407.749 276.04 408.486 277.587 408.03C280.369 407.213 280.037 404.053 282.967 402.949C284.73 402.285 285.524 403.169 286.715 402.277C287.917 401.373 287.549 400.133 288.346 397.581C288.679 396.525 290.054 392.136 293.341 390.776C294.832 390.16 295.249 390.772 296.993 390.296C300.32 389.388 301.979 386.28 302.853 385.12C304.208 383.316 307.034 381.755 313.099 381.723C312.061 381.595 310.634 381.427 308.617 381.191L308.601 381.187ZM224.807 382.34C223.985 383.86 224.727 384.976 224.037 385.472C223.055 386.18 221.492 383.936 219.363 384.132C216.413 384.404 215.676 389.06 213.599 388.924C211.631 388.796 211.631 384.572 208.604 383.684C206.628 383.104 204.937 384.416 204.123 383.428C203.61 382.804 203.734 381.619 204.059 380.871C204.5 379.855 205.285 379.667 205.213 379.083C205.125 378.371 203.935 378.407 203.55 377.487C203.217 376.695 203.626 375.559 204.319 374.995C205.313 374.183 206.352 374.991 208.099 374.803C211.422 374.447 212.024 371.067 214.248 371.351C216.032 371.579 216.421 373.851 218.858 374.035C219.76 374.103 219.716 373.795 220.522 373.907C222.117 374.131 222.442 375.367 225.003 377.679C226.414 378.951 227.02 379.211 226.988 379.851C226.943 380.787 225.617 380.855 224.811 382.344L224.807 382.34Z" fill="#1D3D6C"/>
<path d="M164.996 496.603C166.371 496.663 166.799 497.823 168.932 498.039C170.824 498.231 171.481 497.423 172.776 497.943C174.103 498.475 174.055 499.591 175.081 500.531C177.121 502.403 180.072 500.523 184.782 500.723C190.153 500.951 190.245 503.563 193.524 502.927C198.463 501.971 199.245 495.851 203.706 495.835C205.971 495.827 206.949 497.399 208.701 496.699C209.951 496.199 210.436 494.999 211.679 491.522C214.561 483.466 215.343 480.486 217.539 479.826C218.257 479.61 219.063 479.662 220.037 478.961C221.316 478.041 221.732 476.649 221.861 476.277C223.492 471.605 235.622 468.633 240.015 459.5C241.843 455.696 240.468 454.704 242.705 451.639C245.78 447.431 249.592 447.643 250.582 443.875C251.187 441.579 250.237 439.722 251.832 437.738C252.498 436.91 253.235 436.518 253.56 435.438C253.785 434.694 253.708 433.95 253.516 433.282C252.646 433.518 251.889 432.074 250.005 431.89C247.804 431.674 247.042 433.474 245.202 433.042C243.503 432.638 243.222 430.886 242.224 431.03C240.797 431.238 241.146 434.87 239.246 435.63C238.548 435.91 237.987 435.63 234.155 433.618C229.681 431.266 229.268 431.026 229.064 430.358C228.387 428.142 231.521 426.113 230.599 424.317C229.97 423.089 228.082 423.209 228.006 422.305C227.93 421.393 229.846 421.173 230.311 419.717C230.796 418.201 229.052 417.429 228.968 415.405C228.852 412.596 232.098 411.4 231.561 409.748C230.964 407.912 226.611 408.364 226.182 406.488C225.945 405.456 227.16 404.844 226.855 403.996C226.258 402.332 221.107 403.34 220.706 402.08C220.309 400.827 225.039 398.719 224.643 397.575C224.342 396.699 221.564 397.843 218.205 396.327C216.201 395.423 216.108 394.527 214.457 394.315C212.437 394.055 211.984 395.319 209.847 395.083C207.887 394.863 207.562 393.715 205.815 393.835C204.804 393.907 204.52 394.319 202.932 395.083C200.784 396.119 200.311 395.843 197.649 396.807C196.262 397.311 195.028 397.939 192.558 399.203C189.712 400.659 188.285 401.388 187.371 402.08C184.589 404.176 184.477 405.476 182.28 406.104C180.906 406.496 180.164 406.216 179.398 406.968C178.404 407.944 179.009 409.06 178.148 410.42C177.302 411.756 176.204 411.492 174.496 412.624C171.83 414.397 172.572 416.345 170.463 417.801C168.158 419.389 164.595 418.925 162.298 417.705C159.412 416.177 159.532 413.993 156.726 412.048C154.922 410.796 152.918 410.344 151.166 410.228C150.781 411.4 150.457 412.616 150.184 413.632C149.066 417.821 149.843 417.729 148.729 420.757C147.783 423.329 146.568 425.173 147.406 426.429C147.999 427.318 149.13 427.181 149.39 428.014C149.731 429.106 148.136 430.49 147.671 430.914C143.847 434.438 142.119 442.115 142.516 447.007C142.921 451.963 145.538 454.468 143.971 456.372C143.061 457.472 141.963 456.9 139.345 458.352C137.914 459.144 135.593 460.428 134.851 462.836C134.01 465.564 135.365 469.205 137.625 469.961C138.628 470.297 140.031 470.137 140.399 469.433C141.001 468.285 138.391 466.605 138.944 465.212C139.385 464.108 141.55 463.836 143.041 464.156C144.632 464.5 146.617 465.768 146.609 467.189C146.6 469.445 141.59 469.757 141.057 472.729C140.704 474.693 142.508 476.697 143.698 477.609C146.308 479.606 148.2 478.045 150.573 479.722C153.752 481.966 152.517 486.294 154.934 487.106C157.399 487.938 160.346 483.994 161.544 484.862C162.41 485.49 161.532 488.03 161.28 488.818C160.294 491.914 160.394 494.983 161.248 499.051C162.795 497.039 164.042 496.559 164.98 496.599L164.996 496.603Z" fill="#1D3D6C"/>
<path d="M208.605 582.302C208.661 581.222 208.769 579.322 209.47 577.03C211.455 570.521 215.559 569.465 215.331 565.717C215.167 563.021 213.022 563.337 211.679 559.388C210.22 555.1 211.459 550.94 212.256 548.267C213.383 544.483 214.253 544.555 215.427 541.271C217.179 536.367 215.8 534.63 216.293 525.454C216.562 520.445 216.99 513.437 219.56 512.801C220.923 512.465 221.428 514.281 224.458 514.621C226.827 514.885 227.689 513.905 230.03 514.621C231.028 514.925 231.393 515.265 232.624 515.485C232.624 515.485 234.291 515.781 235.795 515.485C238.544 514.941 238.937 511.641 241.944 508.392C244.489 505.64 248.999 502.828 251.644 504.08C253.592 505 253.159 507.476 255.488 508.392C257.22 509.076 259.064 508.344 260.387 507.816C263.81 506.456 263.674 504.672 265.863 504.172C269.298 503.392 274.152 506.756 275.178 510.597C275.667 512.425 275.07 513.541 275.756 513.953C277.455 514.973 281.223 508.076 285.937 508.584C289.016 508.916 290.258 512.165 292.279 511.461C293.606 510.997 294.515 509.084 294.295 507.532C293.97 505.252 291.449 505.356 289.781 502.356C288.611 500.256 289.557 499.68 288.246 496.123C287.108 493.039 286.318 493.251 286.037 491.427C285.452 487.615 288.499 484.003 289.112 483.278C290.96 481.09 292.122 481.13 292.86 479.158C293.634 477.086 292.692 476.122 293.63 474.654C294.952 472.582 297.694 473.138 298.047 471.778C298.492 470.061 294.255 468.665 294.395 466.217C294.503 464.373 296.945 464.385 298.143 461.809C298.945 460.081 298.215 459.273 297.758 453.468C297.494 450.128 297.374 448.436 297.855 447.332C299.137 444.403 301.631 444.94 302.849 441.963C303.418 440.571 303.422 438.991 303.426 435.827C303.426 433.907 303.274 432.835 304.004 431.706C304.633 430.73 305.322 430.638 306.693 429.79C309.7 427.926 309.58 426.374 312.458 424.326C313.424 423.638 313.496 423.77 316.49 422.314C322.451 419.414 323.128 418.421 326.191 417.329C327.113 417.001 328.303 416.649 329.738 416.389C329.662 415.025 330.019 414.601 329.779 413.529C329.386 411.769 327.935 410.753 325.425 409.121C318.827 404.828 317.597 404.516 317.549 403.432C317.468 401.64 320.799 401.476 323.569 397.168C324.443 395.808 325.818 393.672 325.169 391.607C324.664 389.991 323.177 389.247 323.505 388.411C323.505 388.403 323.513 388.403 323.517 388.395C323.305 388.123 323.12 387.819 322.98 387.467C322.491 386.247 322.984 385.623 322.643 384.735C322.182 383.535 320.551 383.347 316.398 382.243C315.797 382.083 315.432 382.007 313.099 381.723C307.034 381.755 304.208 383.315 302.853 385.119C301.983 386.279 300.324 389.387 296.993 390.295C295.253 390.771 294.832 390.155 293.341 390.775C290.054 392.135 288.679 396.524 288.346 397.58C287.545 400.132 287.917 401.372 286.715 402.276C285.528 403.168 284.731 402.284 282.967 402.948C280.037 404.052 280.369 407.213 277.587 408.029C276.04 408.485 275.122 407.749 274.128 408.605C273.298 409.325 273.687 410.061 272.974 411.385C272.016 413.161 270.144 413.985 268.652 414.645C266.291 415.685 265.357 415.293 264.716 416.273C263.802 417.669 265.189 419.222 264.331 420.202C263.461 421.198 261.177 420.578 259.433 420.106C255.364 419.002 254.55 417.469 253.284 417.997C251.476 418.75 250.574 422.946 251.941 425.762C252.779 427.49 254.069 427.87 254.438 429.882C254.659 431.094 254.534 432.827 253.669 433.239C253.62 433.263 253.576 433.275 253.528 433.287C253.721 433.955 253.797 434.699 253.572 435.443C253.248 436.523 252.51 436.915 251.845 437.743C250.253 439.727 251.199 441.583 250.594 443.879C249.604 447.648 245.792 447.436 242.717 451.644C240.48 454.708 241.859 455.7 240.028 459.505C235.634 468.637 223.504 471.61 221.873 476.282C221.745 476.654 221.328 478.046 220.049 478.966C219.075 479.666 218.269 479.614 217.552 479.83C215.355 480.49 214.573 483.47 211.691 491.527C210.449 495.003 209.964 496.203 208.713 496.704C206.961 497.404 205.983 495.831 203.718 495.839C199.257 495.855 198.475 501.976 193.537 502.932C190.258 503.568 190.169 500.956 184.794 500.728C180.084 500.528 177.134 502.408 175.093 500.536C174.067 499.596 174.115 498.48 172.788 497.948C171.498 497.428 170.836 498.236 168.944 498.044C166.812 497.824 166.379 496.667 165.008 496.607C164.074 496.567 162.823 497.048 161.276 499.06C161.897 502.02 162.919 505.508 164.214 509.933C167.092 519.753 168.295 517.073 170.956 526.422C172.905 533.274 174.328 541.983 178.885 543.435C179.511 543.635 180.83 543.899 181.527 545.019C182.365 546.355 181.876 548.187 180.998 550.296C178.356 556.644 175.795 556.82 175.711 559.396C175.566 563.805 182.85 569.309 188.265 571.529C189.54 572.053 192.631 573.177 194.082 576.014C194.21 576.266 195.132 578.106 194.479 578.782C193.521 579.77 189.981 577.45 189.72 577.858C189.464 578.258 192.783 580.566 195.934 583.266C202.572 588.963 204.444 592.971 207.302 592.367C208.468 592.123 209.054 591.267 209.635 590.619C209.013 588.559 208.436 585.694 208.613 582.302H208.605Z" fill="#1D3D6C"/>
<path d="M225 377.675C222.438 375.363 222.113 374.127 220.518 373.903C219.712 373.791 219.752 374.099 218.855 374.031C216.417 373.847 216.029 371.575 214.245 371.347C212.02 371.063 211.419 374.443 208.096 374.799C206.348 374.987 205.31 374.179 204.316 374.991C203.622 375.555 203.213 376.691 203.546 377.483C203.935 378.408 205.125 378.368 205.209 379.08C205.282 379.668 204.496 379.852 204.055 380.868C203.73 381.616 203.602 382.8 204.119 383.424C204.933 384.412 206.625 383.1 208.601 383.68C211.627 384.568 211.627 388.792 213.595 388.92C215.672 389.056 216.409 384.4 219.36 384.128C221.488 383.932 223.051 386.176 224.034 385.468C224.719 384.972 223.981 383.856 224.803 382.336C225.609 380.848 226.936 380.78 226.98 379.844C227.012 379.204 226.407 378.944 224.996 377.671L225 377.675Z" fill="#1D3D6C"/>
<path d="M407.636 388.219C400.958 388.967 395.835 395.684 396.685 399.976C397.246 402.816 400.1 402.968 400.208 405.601C400.349 408.953 395.767 409.789 393.294 415.697C392.384 417.866 393.061 417.609 391.758 421.514C390.383 425.622 389.614 425.97 388.363 429.822C387.032 433.927 387.686 434.223 386.443 436.343C385.329 438.243 384.443 438.623 382.663 441.391C381.821 442.707 381.039 443.924 380.55 445.288C378.618 450.692 382.426 455.112 380.615 456.664C379.332 457.765 377.203 455.496 373.956 457.049C372.722 457.637 372.064 458.377 371.203 458.137C369.872 457.769 370.216 455.68 368.898 453.664C366.817 450.48 363.157 452.28 360.893 448.808C359.714 447.004 360.071 446.08 358.331 442.543C356.676 439.183 355.669 437.139 353.785 436.663C351.36 436.051 349.973 438.663 347.508 438.003C345.716 437.523 345.756 435.959 343.792 433.851C339.78 429.542 335.41 431.575 333.162 427.842C331.959 425.846 333.182 425.222 331.498 421.45C330.728 419.726 329.991 418.782 329.77 416.849C329.75 416.681 329.738 416.529 329.73 416.385C328.295 416.649 327.105 416.997 326.183 417.325C323.116 418.418 322.443 419.41 316.482 422.31C313.484 423.766 313.412 423.634 312.449 424.322C309.575 426.37 309.692 427.918 306.685 429.786C305.314 430.639 304.625 430.73 303.995 431.703C303.266 432.835 303.422 433.903 303.418 435.823C303.414 438.987 303.41 440.567 302.841 441.959C301.622 444.936 299.129 444.396 297.846 447.328C297.365 448.428 297.486 450.12 297.75 453.464C298.207 459.265 298.937 460.073 298.135 461.805C296.94 464.385 294.495 464.373 294.387 466.213C294.247 468.661 298.484 470.058 298.039 471.774C297.686 473.134 294.94 472.578 293.621 474.65C292.683 476.118 293.621 477.082 292.852 479.154C292.118 481.126 290.952 481.086 289.104 483.275C288.494 483.999 285.448 487.607 286.029 491.423C286.31 493.247 287.1 493.035 288.238 496.12C289.549 499.672 288.607 500.252 289.773 502.352C291.441 505.352 293.966 505.248 294.287 507.528C294.435 508.588 294.062 509.813 293.389 510.633C293.766 511.501 294.13 512.545 294.383 513.761C294.716 515.353 294.551 515.769 294.96 516.637C296.063 518.973 298.472 518.497 300.147 520.281C301.638 521.866 301.258 525.194 300.436 531.786C299.698 537.711 299.021 538.427 298.42 538.783C296.039 540.195 292.707 537.215 290.928 538.783C289.721 539.847 290.948 541.487 289.773 542.999C287.913 545.399 283.644 542.823 280.742 545.299C279.523 546.339 280.049 546.991 278.148 551.148C276.321 555.14 275.795 554.632 274.689 557.38C272.937 561.733 274.276 562.973 272.384 567.541C271.037 570.797 270.196 570.561 270.079 572.333C269.831 576.138 273.711 577.27 274.304 581.726C274.765 585.186 272.561 585.514 272.865 588.819C273.39 594.559 280.329 596.695 279.491 600.036C278.982 602.072 276.337 601.56 274.497 604.636C273.298 606.644 272.757 609.648 273.727 612.208C275.355 616.501 280.061 616.485 280.449 620.069C280.682 622.213 279.111 623.249 279.968 625.149C280.662 626.686 282.001 626.694 282.658 628.41C283.311 630.122 282.209 630.71 282.658 632.054C283.7 635.158 290.134 633.578 293.128 637.806C293.814 638.771 294.018 639.619 294.952 639.915C296.263 640.331 297.438 639.171 299.947 637.902C300.648 637.55 301.474 637.178 302.428 636.826C302.372 635.726 302.332 634.586 302.316 633.39C302.18 623.137 303.903 615.329 304.3 613.605C306.689 603.188 308.714 604.964 311.964 592.895C314.863 582.142 314.462 576.25 319.364 572.317C320.503 571.405 322.551 570.121 323.725 567.437C324.896 564.765 323.914 563.649 324.651 559.656C324.924 558.168 325.758 553.94 328.88 550.556C329.269 550.136 330.023 549.368 333.639 547.127C338.389 544.183 340.249 543.543 345.404 540.531C350.094 537.791 351.689 536.491 352.936 534.462C353.994 532.746 353.525 532.578 354.655 530.374C357.477 524.854 361.165 524.39 361.133 521.406C361.109 519.205 359.097 518.841 359.017 515.865C359.005 515.453 358.948 513.269 360.339 511.645C362.123 509.561 364.26 510.773 366.817 509.269C368.914 508.036 368.701 506.5 372.104 498.848C373.624 495.428 374.413 493.671 375.804 491.463C378.43 487.291 379.324 487.647 381.224 484.603C383.962 480.218 382.659 478.59 385.717 470.094C387.108 466.229 387.802 464.301 389.153 462.577C392.913 457.773 396.26 459.061 398.801 454.928C400.954 451.428 401.515 445.692 399.066 442.531C398.12 441.307 397.046 440.887 396.817 439.499C396.48 437.443 398.412 435.823 399.856 434.091C403.571 429.63 401.836 427.042 405.275 419.318C407.604 414.081 408.209 415.697 410.695 410.349C414.154 402.9 412.675 400.424 415.453 392.148C415.629 391.619 415.813 391.099 415.982 390.583C413.901 389.119 411.035 387.839 407.628 388.223L407.636 388.219Z" fill="#1D3D6C"/>
<path d="M433.968 681.794C432.998 680.738 431.852 679.494 431.327 677.705C430.465 674.789 432.096 673.313 431.194 672.033C429.848 670.121 423.839 670.065 421.678 673.485C419.61 676.761 422.127 681.55 424.981 683.114C427.03 684.234 428.012 683.022 430.665 684.17C434.425 685.798 435.287 689.466 436.746 689.05C437.644 688.794 438.197 687.146 437.937 685.886C437.608 684.278 436.141 684.158 433.972 681.798L433.968 681.794Z" fill="#1D3D6C"/>
<path d="M418.371 549.5C417.224 548.228 413.047 549.092 412.554 550.82C411.913 553.084 417.585 556.892 418.635 556.096C418.884 555.908 418.731 555.568 418.635 553.852C418.459 550.692 418.884 550.068 418.371 549.5Z" fill="#1D3D6C"/>
<path d="M294.96 639.914C294.026 639.618 293.818 638.77 293.136 637.806C290.142 633.578 283.708 635.158 282.666 632.054C282.217 630.71 283.319 630.122 282.666 628.409C282.009 626.693 280.67 626.685 279.976 625.149C279.119 623.249 280.69 622.213 280.457 620.069C280.065 616.485 275.359 616.501 273.735 612.208C272.765 609.648 273.302 606.644 274.505 604.636C276.345 601.559 278.99 602.071 279.499 600.035C280.337 596.695 273.398 594.563 272.873 588.818C272.569 585.51 274.777 585.186 274.312 581.726C273.719 577.27 269.839 576.137 270.087 572.333C270.204 570.561 271.045 570.793 272.392 567.541C274.284 562.972 272.945 561.732 274.697 557.38C275.804 554.636 276.329 555.14 278.157 551.148C280.057 546.991 279.531 546.339 280.75 545.299C283.648 542.823 287.921 545.395 289.781 542.999C290.956 541.483 289.725 539.843 290.936 538.783C292.715 537.214 296.047 540.195 298.428 538.783C299.029 538.427 299.706 537.707 300.444 531.786C301.266 525.194 301.647 521.865 300.155 520.281C298.48 518.501 296.071 518.973 294.968 516.637C294.559 515.769 294.724 515.353 294.391 513.761C294.139 512.545 293.774 511.5 293.397 510.632C293.08 511.016 292.699 511.312 292.279 511.46C290.262 512.165 289.016 508.916 285.937 508.584C281.223 508.076 277.455 514.973 275.755 513.953C275.074 513.545 275.667 512.425 275.178 510.596C274.148 506.756 269.294 503.392 265.862 504.172C263.674 504.668 263.81 506.456 260.387 507.816C259.064 508.34 257.22 509.076 255.488 508.392C253.159 507.472 253.592 505 251.644 504.08C248.998 502.828 244.489 505.64 241.943 508.392C238.937 511.641 238.544 514.941 235.794 515.485C234.291 515.781 232.624 515.485 232.624 515.485C231.393 515.265 231.028 514.929 230.03 514.621C227.689 513.905 226.827 514.885 224.458 514.621C221.428 514.281 220.923 512.461 219.56 512.801C216.99 513.437 216.561 520.449 216.293 525.454C215.8 534.63 217.179 536.366 215.427 541.271C214.256 544.555 213.387 544.483 212.256 548.267C211.459 550.94 210.22 555.1 211.679 559.388C213.022 563.336 215.162 563.02 215.331 565.717C215.563 569.461 211.455 570.521 209.47 577.03C208.773 579.322 208.661 581.222 208.604 582.302C208.428 585.694 209.005 588.558 209.627 590.619C210.056 590.143 210.476 589.783 211.126 589.859C213.747 590.175 214.285 596.999 217.207 597.243C218.173 597.323 218.493 596.611 219.456 596.847C221.135 597.263 221.464 599.775 222.362 601.595C223.428 603.756 224.767 603.852 232.539 607.928C240.973 612.348 242.685 613.96 243.775 616.105C244.557 617.645 244.216 617.885 245.23 619.797C247.267 623.641 249.475 624.257 251.311 626.921C253.28 629.778 252.177 631.166 253.428 636.022C254.783 641.298 256.422 640.978 260.038 648.551C263.345 655.484 261.433 654.619 265.061 662.796C266.488 666.008 267.867 668.589 266.913 671.369C266.323 673.077 265.353 673.397 264.796 675.589C264.171 678.049 265.093 678.825 264.796 681.526C264.431 684.846 262.9 684.962 262.68 687.462C262.367 691.042 265.457 691.446 266.644 696.167C267.835 700.907 265.449 703.411 267.702 706.455C267.899 706.72 269.306 708.576 270.608 708.304C271.322 708.156 271.775 707.42 273.911 702.763C274.89 700.635 275.334 699.615 276.028 699.599C276.689 699.579 277.09 700.487 277.615 701.183C279.527 703.719 282.594 702.787 286.073 704.215C291.164 706.307 292.611 711.604 294.135 710.944C294.896 710.616 294.92 709.128 294.928 708.7C294.98 705.763 292.263 705.055 291.625 702.103C291.128 699.811 292.226 697.731 293.477 695.375C294.347 693.73 295.305 692.63 297.177 690.494C301.542 685.526 302.504 685.746 302.993 683.898C303.807 680.802 301.133 680.041 301.406 675.589C301.626 671.985 303.462 671.181 302.861 668.205C302.412 665.984 301.246 665.696 300.877 663.456C300.428 660.72 301.731 658.456 302.2 657.52C304.693 652.535 302.941 646.495 302.444 636.818C301.49 637.17 300.66 637.542 299.963 637.894C297.45 639.162 296.279 640.322 294.968 639.906L294.96 639.914Z" fill="#1D3D6C"/>
<path d="M200.139 618.021C198.688 618.561 198.339 620.573 198.503 621.781C198.567 622.253 198.631 622.734 198.948 622.87C199.413 623.074 199.906 622.314 202.367 619.949C202.852 619.485 203.101 619.257 203.061 618.961C202.969 618.265 201.341 617.573 200.135 618.021H200.139Z" fill="#1D3D6C"/>
</svg>
