<svg width="87" height="48" viewBox="0 0 87 48" fill="none" xmlns="http://www.w3.org/2000/svg">
<g clip-path="url(#clip0_1997_31357)">
<path d="M5.88956 47.9023C32.6811 47.9995 59.4727 48.019 86.2643 47.9606C86.9423 38.4112 87.1361 28.8423 86.8649 19.2734C86.8455 18.5733 86.7874 17.7953 86.2449 17.2897C85.7025 16.784 84.8695 16.7256 84.0947 16.7062C73.7112 16.3561 8.25296 14.3723 2.17013 17.3091C2.17013 17.3091 -4.66822 47.8634 5.88956 47.9023Z" fill="#25559A"/>
<path d="M29.5815 10.6771C29.6203 7.5458 30.8795 4.25893 33.6303 2.37238C36.3037 0.544183 39.8681 0.291346 43.2001 0.116306C49.5348 -0.214326 56.7606 -0.214326 61.1193 3.98665C65.3037 8.01258 65.1099 14.2751 64.645 19.8181C59.1046 20.032 53.5642 20.246 48.0044 20.4794C49.8641 17.8732 50.5615 14.5863 49.9029 11.5328C49.7866 10.9883 49.6123 10.4242 49.1667 10.0353C48.663 9.58794 47.8882 9.47125 47.1908 9.4129C45.2148 9.21841 43.2001 9.14062 41.2048 9.19896C40.7205 9.19896 40.1781 9.25731 39.8294 9.56849C39.5 9.86023 39.4419 10.3076 39.4032 10.716C39.132 13.7695 39.4613 16.7841 39.6163 19.7986C32.0031 20.6544 29.4266 17.7371 29.5428 10.6771H29.5815Z" fill="#25559A"/>
<path d="M11.2168 22.6779C34.2889 22.9308 57.3805 22.5612 80.4332 21.5693" stroke="white" stroke-width="0.87" stroke-miterlimit="10"/>
<path d="M11.2168 27.6564C34.2889 27.9093 57.3805 27.5397 80.4332 26.5479" stroke="white" stroke-width="0.87" stroke-miterlimit="10"/>
</g>
<defs>
<clipPath id="clip0_1997_31357">
<rect width="87" height="48" fill="white"/>
</clipPath>
</defs>
</svg>
