<svg width="54" height="53" viewBox="0 0 54 53" fill="none" xmlns="http://www.w3.org/2000/svg">
<path d="M43.3855 50.6076C43.0227 50.2087 42.6599 49.8099 42.3026 49.4095C41.246 48.2443 40.6849 46.8665 40.8429 45.3074C40.9679 44.0593 40.6705 42.8845 40.5334 41.6782C40.491 41.3246 40.3077 41.2483 40.0028 41.2388C38.7692 41.193 37.5359 41.1699 36.3032 41.084C35.2613 41.0153 34.296 40.6468 33.2539 40.2303C33.419 40.0435 33.4867 39.9056 33.5884 39.8727C34.1033 39.6891 34.5863 39.5597 34.9032 38.9844C35.6222 37.6741 36.9857 36.9894 38.1054 36.0679C38.4908 35.7479 38.9189 35.4793 39.296 35.1501C39.4563 35.0103 39.5911 34.7974 39.654 34.598C40.0947 33.1172 40.4985 31.629 40.9406 30.1535C41.0361 29.8371 41.3349 29.5631 41.3679 29.2521C41.4086 28.9048 41.2339 28.5353 41.1847 28.1778C41.1739 28.0724 41.299 27.845 41.3182 27.8513C41.9161 27.999 41.9722 27.5791 42.0083 27.1931C42.0456 26.7896 42.019 26.3862 42.0386 25.9818C42.0466 25.8599 42.1107 25.6432 42.1515 25.6436C42.3189 25.6387 42.5884 25.6463 42.644 25.7454C43.1699 26.6879 43.7338 27.6203 44.112 28.6194C44.2358 28.9512 44.1876 29.3575 44.4922 29.6694C45.0102 30.192 45.0648 30.8731 45.1562 31.5613C45.2897 32.5805 45.4192 33.6064 45.6829 34.5906C45.8254 35.1226 46.1014 35.5448 46.9529 35.5105C47.7296 35.4791 48.5124 35.3834 49.2012 35.1761C49.8738 34.973 50.2215 35.1422 50.7444 35.6179C50.4642 35.961 50.2196 36.3287 49.9048 36.6297C48.8596 37.634 47.675 38.4874 46.4194 39.2058C45.8896 39.5075 45.7101 39.8578 45.5965 40.3672C45.1471 42.3579 44.7331 44.3505 44.2086 46.3215C43.8402 47.7032 43.7179 49.0702 43.9187 50.4705C43.7436 50.5117 43.5646 50.5597 43.3855 50.6076Z" fill="#1D3D6C"/>
<path d="M6.85796 0C7.38722 0.564342 7.91654 1.08976 8.39288 1.6541C8.66413 1.97843 8.942 2.34171 9.05447 2.7374C9.23971 3.39904 9.28597 4.09309 9.41829 4.77419C9.54399 5.42935 9.27934 6.06507 9.64983 6.78509C9.93431 7.34943 10.0005 8.09538 10.3445 8.71162C10.3975 8.80243 10.4041 8.91272 10.4305 9.01651C10.7415 10.2879 10.7415 10.2749 11.9191 10.1322C12.6072 10.0479 13.3084 9.97003 14.0031 9.96354C14.6845 9.95706 14.9823 10.3657 14.5919 10.8068C13.8311 11.6695 13.3217 12.6231 12.9842 13.7129C12.8916 14.0177 12.4682 14.2578 12.1506 14.4459C11.6809 14.7183 11.1715 14.9129 10.715 15.127C10.5827 17.5076 11.1715 19.9011 10.4636 22.2493C10.404 22.4504 10.4901 22.6904 10.4305 22.8915C10.371 23.1121 10.2387 23.4753 10.1064 23.4948C9.81527 23.5337 9.39187 23.4883 9.21986 23.3002C8.28041 22.3077 7.65847 21.1077 7.51292 19.7844C7.39383 18.7011 6.85797 17.7476 6.7058 16.7356C6.39486 14.6664 4.67471 14.6469 3.292 14.1734C2.49148 13.901 1.59173 13.9334 0.738288 13.7972C0.55966 13.7713 0.301655 13.635 0.255344 13.4923C0.209033 13.3301 0.347966 12.9474 0.42074 12.9474C1.25434 12.915 1.43293 12.0717 1.95558 11.676C2.49808 11.2609 2.96784 10.9884 3.63604 10.8911C5.13784 10.6771 5.45542 10.2944 5.48189 8.81543C5.49512 8.11486 5.62745 7.45969 5.82592 6.7721C6.01778 6.11695 6.49411 5.48126 6.22286 4.70934C6.11039 4.38501 6.99024 4.90395 6.74546 4.10608C6.44774 3.13957 6.54704 2.06278 6.47427 1.0314C6.43457 0.577333 6.48747 0.162167 6.85796 0Z" fill="#1D3D6C"/>
<path d="M3.98274 39.3161C3.74457 38.7452 3.69166 38.2717 3.42041 38.0122C2.69928 37.2987 1.88552 36.6695 1.09824 36.0144C1.05192 35.9755 0.926207 36.0533 0.833585 36.0533C-0.125714 36.0403 -0.0859903 35.9365 0.119101 35.0154C0.403583 33.7375 1.20409 32.6088 1.18424 31.2466C1.17763 30.7796 1.95828 30.2542 2.48755 30.3969C2.99697 30.5396 3.44685 30.9742 3.97612 30.4553C3.99596 30.4358 4.15476 30.5526 4.24077 30.611C5.10744 31.2337 5.98069 31.8499 6.83413 32.4986C6.93998 32.5764 6.98629 32.9202 6.91352 32.998C6.43056 33.4781 7.35679 34.1462 6.58935 34.6586C6.09316 34.9895 5.83519 35.6706 5.48455 36.2025C5.34562 36.41 5.1273 36.6565 5.15376 36.8576C5.27946 37.7917 4.75679 38.4209 3.98274 39.3161Z" fill="#1D3D6C"/>
<path d="M24.7429 44.053C24.5775 44.8379 24.4452 45.6293 24.2467 46.4012C23.9689 47.4715 22.0833 48.1591 20.8858 47.4715C20.4293 47.212 20.1713 46.1806 20.4756 45.7201C20.7601 45.2855 21.1571 44.9287 21.5078 44.5395C21.8981 44.0984 22.2951 43.6638 22.692 43.2292C22.7979 43.106 22.8772 42.9179 23.0096 42.8725C23.4462 42.7233 23.9093 42.5611 24.3526 42.5676C24.4651 42.5676 24.5709 43.2098 24.6569 43.5601C24.6966 43.7157 24.6635 43.8844 24.6635 44.0466C24.69 44.0466 24.7165 44.053 24.7429 44.053Z" fill="#1D3D6C"/>
<path d="M24.8971 30.4091C24.6656 30.1561 24.573 30.0069 24.4407 29.9226C24.0173 29.6567 23.2431 29.4491 23.21 29.1572C23.1108 28.2361 23.2035 27.2696 23.4019 26.3614C23.5012 25.8879 23.951 25.4663 24.2884 25.0641C24.6258 24.6684 25.0493 24.7138 25.3933 25.1095C26.0086 25.8295 26.0681 26.7701 26.2335 27.6134C26.3262 28.0804 25.8696 28.6577 25.6182 29.1702C25.4462 29.5529 25.2015 29.8967 24.8971 30.4091Z" fill="#1D3D6C"/>
</svg>
