<svg width="38" height="16" viewBox="0 0 38 16" fill="none" xmlns="http://www.w3.org/2000/svg">
<g clip-path="url(#clip0_2006_31021)">
<path d="M0.228141 12.197C-0.164286 9.49281 -0.0334767 7.18295 0.228141 4.84492C0.391652 3.26746 0.457057 3.32379 2.38649 3.43647C10.1042 3.91534 17.7238 5.26746 25.4743 5.26746C26.8151 5.26746 28.1559 5.52098 29.5293 5.63365C29.3004 4.90126 28.7772 4.61957 28.0577 4.50689C26.2591 4.19703 24.8529 3.21112 23.3486 2.42239C22.4984 1.99985 22.0732 1.43647 22.4984 0.619569C22.9889 -0.281839 23.8392 -0.0846558 24.6894 0.197034C28.6791 1.57732 32.6034 3.09844 36.2006 5.12661C36.8219 5.49281 37.2798 6.05619 37.6068 6.67591C38.2281 7.859 38.1954 8.42239 36.9528 9.07027C34.1404 10.5632 31.655 12.4506 28.9407 14.0562C28.2867 14.4506 27.7634 14.8449 27.2729 15.352C26.6188 16.0562 25.7686 16.1125 25.0164 15.5491C24.297 15.0139 24.5586 14.3379 25.0491 13.7745C25.6051 13.1548 26.161 12.4224 26.9132 11.9999C28.1231 11.2956 29.0061 10.366 30.1834 9.15478C19.9149 9.57731 10.1369 11.2393 0.228141 12.197Z" fill="#BBD0F7"/>
</g>
<defs>
<clipPath id="clip0_2006_31021">
<rect width="16" height="38" fill="white" transform="matrix(0 -1 1 0 0 16)"/>
</clipPath>
</defs>
</svg>
