<svg width="587" height="23" viewBox="0 0 587 23" fill="none" xmlns="http://www.w3.org/2000/svg">
<path d="M584.431 11.2948C577.841 15.0634 569.367 15.9803 561.938 13.9441C562.71 10.9292 560.726 7.46987 556.333 7.99298C554.249 8.24048 552.126 10.0123 553.51 11.8179C554.382 12.9597 556.087 13.8991 557.93 14.6359C556.999 15.3334 555.8 15.8228 554.629 16.104C550.049 17.2177 544.491 16.7677 539.804 16.3234C534.619 15.8284 529.506 14.7934 524.614 13.2691C524.075 13.1003 523.515 12.926 522.956 12.7291C524.66 11.2048 525.246 9.24732 523.296 6.78364C521.998 5.14681 519.561 3.70123 517.205 4.62932C514.908 5.53493 515.002 7.58237 515.953 9.28107C516.619 10.4735 517.551 11.4748 518.656 12.341C515.98 13.7416 512.226 14.3659 509.729 14.8328C504.584 15.8059 499.292 16.1659 494.026 15.9128C488.927 15.6709 483.369 15.0522 478.676 13.2466C478.21 13.0666 477.757 12.8641 477.338 12.6335C479.262 11.5479 481.052 10.271 482.663 8.79171C482.963 8.52172 482.803 8.12236 482.643 7.83549C481.572 5.89492 479.022 3.41436 476.213 3.33561C473.81 3.26811 472.332 5.47305 472.073 7.22238C471.826 8.91546 472.312 10.3329 473.264 11.5254C462.094 16.8859 447.396 16.014 435.168 13.601C433.024 13.1791 430.189 12.5435 428.252 11.3623C429.909 10.5017 431.646 9.56232 433.044 8.4261C434.176 7.50362 434.056 6.57552 433.41 5.33806C432.365 3.32436 429.543 1.40066 426.82 2.16002C424.151 2.9025 423.159 5.67555 423.479 7.80736C423.605 8.67359 423.911 9.43857 424.337 10.1361C424.198 10.1979 424.058 10.2598 423.931 10.3217C416.562 13.6853 407.962 15.1197 399.634 14.4053C395.947 14.0847 391.44 13.4547 388.125 11.7391C389.623 10.1304 390.874 8.3586 391.78 6.42928C392.685 4.49433 391.021 2.66625 388.638 2.21064C386.348 1.7719 383.812 2.95312 382.687 4.62932C381.042 7.06488 382.221 9.31482 384.397 11.1316C383.752 11.7279 383.066 12.296 382.354 12.836C379.238 15.1703 375.577 16.9421 371.663 18.129C361.978 21.0595 351.28 20.2327 341.442 18.3258C339.438 17.9377 336.589 17.4259 334.459 16.4021C337.308 14.9172 338.979 12.7235 337.168 9.46669C336.123 7.58237 333.773 5.99054 331.383 7.21675C329.173 8.35297 328.528 10.9292 329.067 12.9429C329.307 13.8316 329.719 14.6191 330.272 15.3222C325.912 16.9702 320.307 17.3527 315.787 17.6058C310.062 17.9321 304.231 17.6846 298.606 16.7171C295.511 16.1884 291.636 15.2547 289.08 13.3366C292.908 10.5242 296.223 6.20991 293.474 2.29501C289.766 -2.99234 284.128 1.96315 283.728 6.28866C283.522 8.52172 284.267 10.4848 285.592 12.161C284.76 12.6672 283.881 13.1341 282.963 13.5672C276.898 16.4134 270.062 18.1683 263.152 18.6521C256.589 19.1133 248.628 18.8433 242.617 16.3234C242.59 16.3121 242.563 16.3009 242.537 16.2896C245.545 14.7709 247.183 12.5829 244.241 9.48919C242.637 7.80174 239.881 7.16051 238.07 9.01108C236.313 10.8054 236.839 13.4547 238.303 15.249C236.958 15.6428 235.62 15.9015 234.768 16.0871C226.561 17.8927 206.264 21.0933 200.154 13.4547C204.141 11.1766 207.143 8.02111 205.099 3.79122C204.387 2.32314 202.097 -0.303666 199.901 0.112573C197.218 0.618809 195.907 4.43808 195.747 6.33365C195.574 8.37547 196.08 10.2823 197.058 11.9923C192.452 14.4897 186.594 15.9859 181.541 16.9702C174.385 18.3708 166.937 18.6239 159.668 17.7127C158.33 17.544 156.432 17.3471 154.708 16.8971C156.08 15.8903 156.845 14.5516 156.559 12.7572C156.239 10.7604 154.309 8.46547 151.753 8.28548C148.957 8.08861 147.632 10.6479 147.859 12.6672C148.018 14.0791 148.651 15.2209 149.609 16.149C147.253 16.914 144.544 17.184 142.127 17.4821C137.913 17.9996 133.66 18.2415 129.4 18.2133C121.977 18.1627 114.222 17.4484 107.14 15.5078C106.075 15.2153 104.344 14.6303 103.039 13.8035C103.172 13.7247 103.312 13.6516 103.445 13.5785C104.75 12.8304 107.839 11.6548 108.198 10.3104C109.256 6.3674 101.508 5.85554 99.3646 8.27985C98.2663 9.52294 98.6324 11.1598 99.4511 12.5097C94.6251 15.1872 89.5194 17.5721 83.9078 18.7814C77.4907 20.1652 70.7275 19.6195 65.2358 16.3065C63.8312 15.4628 62.5731 14.4334 61.5613 13.2578C64.1574 11.666 66.627 9.62419 66.8667 6.94114C67.2528 2.6775 59.1849 -2.21611 56.9416 3.36373C55.7966 6.20428 56.5621 9.17983 58.2529 11.8123C54.9179 13.781 51.2767 15.3784 47.4691 16.5821C40.5594 18.7702 32.0522 20.227 24.7032 18.9333C24.0176 18.8152 23.1655 18.6296 22.3601 18.3427C24.1773 16.9252 26.4739 14.7484 26.2209 13.1285C25.948 11.3679 23.1455 10.2598 21.3216 10.5635C18.9651 10.9517 16.8816 12.971 17.1412 15.0465C17.2544 15.9578 17.707 16.7959 18.3527 17.5384C13.3868 20.722 6.6769 21.7007 0.825674 19.7489C-0.905065 19.1696 0.519466 21.577 1.56457 21.9257C7.97496 24.0632 15.3572 23.0226 20.7824 19.4789C21.3416 19.7995 21.9141 20.0752 22.4865 20.2945C29.536 23.0451 39.5077 21.4757 46.5971 19.6195C50.8973 18.4946 55.0045 16.8746 58.8054 14.8384C59.2115 14.6191 59.6375 14.3941 60.0702 14.1522C61.335 15.5303 62.8127 16.7452 64.3172 17.6902C70.2816 21.4532 77.6572 22.567 84.873 21.2114C89.4595 20.3451 93.753 18.6352 97.7936 16.6384C99.0384 16.0253 100.25 15.3784 101.455 14.7147C103.432 16.2896 106.055 17.2515 108.624 17.8927C118.336 20.317 128.854 20.9808 138.919 20.2327C142.014 20.002 148.391 19.7827 152.591 18.084C156.246 19.6927 161.212 20.1202 164.574 20.3676C174.073 21.0651 183.805 19.822 192.625 16.7565C194.455 16.1209 196.652 15.2997 198.729 14.2647C200.606 16.2953 203.202 17.8983 206.091 18.8827C214.086 21.6051 223.785 20.6095 232.012 19.2483C233.996 18.9221 237.544 18.2865 240.546 17.1896C242.583 18.4721 245.113 19.1921 247.549 19.732C251.829 20.677 256.263 21.1495 260.689 21.1158C269.47 21.0539 278.223 19.1077 285.825 15.3728C286.444 15.069 287.09 14.7091 287.742 14.2984C289.946 16.0421 292.795 17.3246 295.604 18.1008C304.351 20.5251 314.369 20.5195 323.375 19.3214C325.732 19.0064 329.393 18.4383 332.455 17.3134C336.476 19.9795 342.986 20.7726 347.346 21.4139C356.819 22.8145 367.003 22.927 375.957 19.5802C380.11 18.0277 383.971 15.7721 387.007 12.9204C389.03 14.0566 391.254 14.8947 392.871 15.3222C400.713 17.3977 409.3 17.3865 417.195 15.5247C420.397 14.7709 423.492 13.691 426.401 12.3354C429.869 14.9059 435.634 15.8396 439.661 16.4921C447.403 17.7521 455.431 18.2865 463.259 17.2177C467.652 16.6159 471.853 15.4347 475.621 13.5953C478.49 15.429 482.524 16.464 485.566 17.049C494.645 18.8039 504.191 18.7308 513.224 16.7846C515.541 16.284 518.802 15.3897 521.232 14.0059C525.386 16.1434 530.804 17.0827 535.098 17.8196C539.551 18.5846 544.085 18.9896 548.631 18.9896C552.232 18.9896 556.519 19.0289 559.575 17.1784C560.214 16.7902 560.726 16.3065 561.119 15.7665C561.845 15.9803 562.524 16.1603 563.123 16.3121C571.124 18.3596 579.871 17.3021 586.787 13.3478C587.732 12.8079 585.536 10.721 584.457 11.3398L584.431 11.2948ZM22.4466 12.9485C22.6197 12.8922 22.9458 12.7854 23.2321 12.7347C22.7595 12.971 22.4133 13.8766 22.0738 14.2872C21.4281 15.0578 20.6826 15.7665 19.8705 16.419C19.7972 16.2109 19.7573 15.9859 19.7706 15.7384C19.8239 14.5459 21.2151 13.3591 22.4533 12.9541L22.4466 12.9485ZM61.9474 3.16124C65.7284 3.05437 63.9111 7.16613 62.6796 8.5161C61.9074 9.36545 60.9489 10.0798 59.9437 10.7379C59.9104 10.6592 59.8638 10.586 59.8306 10.5073C59.0317 8.58922 58.1997 3.26811 61.9474 3.16124ZM101.781 10.1923C102.254 9.59607 103.072 9.25295 103.871 9.06733C104.038 9.02796 105.475 8.80296 105.495 8.94358C105.515 9.10108 103.312 10.2654 103.192 10.3385C102.56 10.7154 101.914 11.0867 101.275 11.4523C101.275 11.0529 101.435 10.631 101.781 10.1923ZM153.87 11.5141C154.901 12.8866 152.844 14.5797 151.453 15.3615C150.854 14.8215 150.481 14.1466 150.475 13.2916C150.468 12.2904 152.006 9.03358 153.87 11.5141ZM198.383 8.70171C198.283 7.01989 198.862 3.70685 200.992 2.84625C201.172 2.7225 201.352 2.60438 201.531 2.48063C201.944 2.87437 202.364 3.26811 202.776 3.66185C203.149 4.33121 203.109 5.44493 202.956 6.14241C202.61 7.70612 201.392 9.02233 200.027 10.0686C199.634 10.3667 199.222 10.6535 198.796 10.9292C198.576 10.2429 198.436 9.50607 198.389 8.70171H198.383ZM239.781 12.0766C240.26 10.6985 242.703 9.16858 242.876 11.6548C242.969 12.9822 241.731 13.9103 240.154 14.5853C239.634 13.8878 239.441 13.0497 239.781 12.071V12.0766ZM286.611 10.0629C285.639 6.94114 287.203 3.19499 290.931 2.16002C292.582 3.70123 291.337 6.3224 290.238 7.94236C289.386 9.19108 288.321 10.2373 287.097 11.1485C286.903 10.8054 286.73 10.451 286.611 10.0629ZM331.73 11.5366C332.109 10.3723 334.412 7.66112 335.085 10.0911C335.604 11.9641 333.747 13.6291 332.049 14.5122C331.51 13.7078 331.337 12.7347 331.73 11.531V11.5366ZM385.682 5.82179C386.055 5.45618 388.837 3.68998 389.337 4.43808C389.796 5.12431 387.013 8.31923 386.527 8.89858C386.241 9.23608 385.948 9.56794 385.642 9.88856C384.604 8.65109 384.357 7.12676 385.689 5.81617L385.682 5.82179ZM426.441 6.47428C426.707 5.86679 427.193 5.07931 427.892 4.74182C428.997 4.20746 428.611 4.25809 429.716 5.3943C431.2 6.91864 430.828 6.06366 430.022 6.89614C429.157 7.79049 427.692 8.58359 426.268 9.25295C425.962 8.4711 425.968 7.55425 426.448 6.47428H426.441ZM474.815 8.09986C475.541 5.5518 478.277 4.98369 479.927 7.12113C478.423 8.45422 476.792 9.59607 475.055 10.5692C474.669 9.85481 474.542 9.03358 474.808 8.09986H474.815ZM518.37 9.62419C517.777 8.57234 517.704 7.43612 519.102 6.83989C521.112 5.97929 522.124 8.3586 521.525 9.65231C521.219 10.316 520.726 10.8898 520.107 11.3904C519.395 10.9179 518.782 10.3498 518.37 9.61857V9.62419ZM559.561 12.0148C559.521 12.386 559.415 12.7291 559.268 13.0497C558.11 12.5997 556.985 12.0766 555.914 11.4691C556.646 9.93918 559.834 9.44982 559.561 12.0204V12.0148Z" fill="#FF9737"/>
</svg>
