<svg width="46" height="47" viewBox="0 0 46 47" fill="none" xmlns="http://www.w3.org/2000/svg">
<circle cx="22.8654" cy="23.1437" r="21.8654" stroke="#1D3D6C" stroke-width="2"/>
<path d="M25.5941 7.89941C25.7055 8.21952 25.8699 8.54517 25.9283 8.88736C26.0026 9.31233 26.1034 9.63243 26.5066 9.88079C26.756 10.0353 26.9788 10.4769 26.9735 10.7804C26.9416 12.0719 27.2918 13.3081 27.3608 14.5831C27.3767 14.8701 27.7163 15.1626 27.2547 15.3778C27.2229 15.3944 27.2017 15.5379 27.2123 15.5434C27.9604 15.9463 27.7428 16.719 27.8542 17.3647C27.9603 17.9773 28.215 18.2754 28.719 18.0657C29.4936 17.7456 30.2736 17.8559 31.0482 17.8173C31.6689 17.7897 32.2684 17.7842 32.8308 17.453C33.1067 17.2874 34.0723 17.5082 34.2474 17.74C34.3058 17.8173 34.3164 17.9829 34.2739 18.0767C34.1678 18.325 34.0564 18.59 33.8866 18.7887C33.5842 19.1419 33.4515 19.5337 33.3242 19.9918C33.1491 20.6376 32.7778 21.2557 32.1729 21.5979C31.5416 21.9511 31.1331 22.492 30.9951 23.1763C30.7564 24.3298 30.1409 25.246 29.4459 26.1181C29.1859 26.4437 29.2549 26.5761 29.4883 26.8631C29.6369 27.0397 29.5042 27.4426 29.6156 27.68C29.7377 27.9339 30.0879 28.0829 30.1887 28.3423C30.3744 28.8335 30.4646 29.3688 30.5813 29.8931C30.8359 31.0577 31.202 32.2057 31.08 33.4364C31.064 33.6296 31.2339 33.8393 31.3134 34.0435C31.393 34.2477 31.5257 34.4519 31.5257 34.6562C31.5204 35.0039 31.5415 35.5061 31.3452 35.6551C31.0534 35.8814 30.6237 35.8152 30.2894 35.4454C30.1356 35.2743 29.7377 35.3515 29.5626 35.186C29.2708 34.9155 29.0479 34.9155 28.7508 35.1197C28.719 35.1418 28.5599 34.9652 28.4591 34.8879C28.1089 34.612 27.7853 34.2753 27.3979 34.0711C26.7613 33.74 26.305 33.326 26.4217 32.5257C25.9973 32.4871 25.7267 32.8072 25.3075 32.3657C24.6496 31.6648 23.7424 31.2177 22.989 30.6989C21.843 32.2498 20.7077 33.8393 19.5139 35.3792C19.1425 35.8593 18.6173 36.2125 18.1663 36.632C17.7047 37.0625 17.1848 37.206 16.564 37.0625C16.4791 36.8196 16.4473 36.5326 16.2987 36.3284C15.731 35.5668 15.7576 34.6782 15.9167 33.8448C16.2934 31.8579 16.5215 29.8711 16.4154 27.8511C16.4048 27.6745 16.4261 27.4592 16.5163 27.3267C16.7603 26.9625 16.4685 26.7914 16.2828 26.6755C15.4657 26.1567 14.6116 25.7041 13.7998 25.1798C12.7653 24.512 11.7572 23.8 10.7438 23.0881C10.5688 22.9666 10.4255 22.768 10.3087 22.5748C10.0965 22.2271 10.0965 21.9014 10.452 21.6255C11.4866 20.8142 12.5583 20.1022 13.8316 19.7159C14.7389 19.4399 15.5931 18.9818 16.4844 18.6617C16.9248 18.5017 17.4341 18.5182 17.8691 18.3471C18.3785 18.1374 19.1425 18.2422 19.2062 17.3426C19.2115 17.2598 19.4503 17.1992 19.5829 17.1274C19.6625 17.0833 19.742 17.0336 19.8216 16.9894C19.2804 16.3161 19.9755 15.8911 20.1983 15.4717C20.9888 13.976 21.8801 12.53 22.7874 11.1005C23.2331 10.3941 23.9705 9.83664 24.2517 9.08604C24.5329 8.36855 24.899 8.06499 25.5941 7.89941Z" fill="#1D3D6C"/>
</svg>
