<svg width="556" height="579" viewBox="0 0 556 579" fill="none" xmlns="http://www.w3.org/2000/svg">
<path d="M372.33 380.917C371.95 380.207 371.59 378.957 371.22 378.957C370.05 378.957 368.86 379.387 367.71 379.737C367.6 379.767 367.52 380.437 367.66 380.687C367.96 381.207 368.41 381.647 368.82 382.157C366.85 383.627 364.81 385.007 362.95 386.607C362.19 387.257 360.87 385.527 360.48 387.477C360.26 388.597 358.82 388.167 357.92 388.437C356.89 388.747 355.95 389.357 354.96 389.797C353.24 390.557 351.55 391.407 349.77 391.987C348.07 392.537 346.23 392.657 344.54 393.207C338.34 395.227 332.12 397.217 326.01 399.477C321.78 401.047 317.34 402.097 313.33 404.107C310.11 405.717 306.73 406.947 303.54 408.567C297.6 411.587 291.28 413.187 284.74 414.277C281.24 414.867 277.72 415.267 274.36 416.987C271.15 418.627 267.36 419.097 263.82 420.107C261.65 420.727 259.51 421.447 257.33 422.007C253.86 422.897 250.35 423.667 246.88 424.547C242.31 425.697 237.56 425.647 232.98 426.707C232.4 426.837 231.76 426.717 231.14 426.717C225.36 426.727 219.57 426.707 213.79 426.777C211.47 426.807 209.18 426.907 207.49 424.727C207.54 424.457 209.4 424.527 208.05 423.647C206.92 422.907 205.22 422.877 205.73 420.827C205.77 420.677 205.5 420.437 205.34 420.267C205.27 420.197 205.12 420.187 205 420.187C202.87 420.137 202.76 417.417 200.66 417.047C198.85 416.727 197.16 415.667 195.46 414.857C195.1 414.687 194.8 414.227 194.65 413.827C194.27 412.837 193.99 411.797 193.67 410.807C192.69 411.087 191.69 411.387 190.52 411.727C190 410.487 190.06 409.077 191.44 408.567C193.76 407.697 193.71 405.767 193.05 404.387C191.77 401.697 191.47 398.657 189.67 396.127C188.53 394.527 187.42 392.347 187.56 390.517C187.73 388.227 187.23 386.047 187.32 383.807C187.41 381.347 187.34 378.887 187.34 376.427C187.34 375.567 187.6 374.587 187.28 373.867C186.27 371.627 186.28 369.227 186.71 367.047C187.4 363.537 187.13 360.027 187.47 356.527C187.54 355.837 187.5 355.257 187.45 354.597C187.32 352.937 186.89 351.157 187.95 349.587C186.88 347.227 188.78 344.737 187.58 342.297C187.14 341.387 187.43 340.137 187.33 339.047C187.19 337.487 186.98 335.937 186.84 334.377C186.8 333.927 186.9 333.467 186.91 333.017C186.95 332.087 187.03 331.157 186.99 330.227C186.91 328.287 186.25 326.207 186.76 324.447C187.53 321.757 187.13 319.127 187.35 316.507C185.6 315.137 184.12 316.797 182.52 316.917C181.04 317.037 180.53 318.947 178.78 319.237C177.51 319.447 176.46 320.887 175.28 321.727C172.45 323.767 169.67 325.907 166.73 327.777C162.8 330.287 158.74 332.597 154.7 334.947C153.36 335.727 151.93 336.337 150.54 337.017C150.21 337.177 149.85 337.277 149.55 337.467C148.34 338.267 147.24 339.437 145.91 339.827C144.62 340.207 143.34 340.547 142.15 341.167C141.83 341.337 141.54 341.567 141.23 341.747C140.55 342.147 140.87 343.547 139.54 343.327C138.67 343.187 137.8 343.357 137.61 344.497C137.43 344.447 137.17 344.447 137.07 344.327C135.89 342.837 134.64 344.107 133.54 344.357C131.18 344.887 130.94 344.847 130.48 342.437C130.41 342.087 130.35 341.737 130.28 341.367C129.17 341.807 128.13 342.207 126.25 342.947C127.22 341.217 127.56 339.667 128.39 339.337C130.08 338.657 129.77 337.447 129.64 336.357C129.42 334.467 128.91 332.617 128.55 330.737C128.41 330.027 128.14 329.247 128.3 328.587C128.79 326.487 128.31 324.417 128.31 322.337C128.32 320.267 128.81 318.207 128.91 316.127C128.98 314.707 129.39 313.237 128.41 311.847C128.08 311.367 128.14 310.307 128.44 309.747C129.16 308.427 128.9 307.367 128.48 305.977C128.11 304.747 128.62 303.157 129.04 301.817C129.94 298.927 130.03 295.927 130.48 292.977C131.01 289.557 131.3 286.057 133.9 283.307C135.13 281.997 136.15 280.557 138.2 280.597C138.54 280.607 138.87 280.387 139.22 280.297C139.63 280.197 140.06 280.127 140.47 280.047C140.38 280.357 140.29 280.667 140.2 280.967C140.64 281.087 141.14 281.397 141.5 281.287C142.28 281.037 143.21 280.747 143.68 280.157C145.29 278.157 147.66 277.547 149.78 276.457C153.2 274.687 156.34 272.557 159.34 270.047C161.39 268.337 163.01 266.107 165.57 264.827C167.89 263.657 169.76 261.587 171.83 259.907C172.49 259.367 173.2 258.887 173.8 258.287C176.04 256.067 178.17 253.717 181.12 252.367C181.54 252.177 181.86 251.727 182.19 251.367C185.24 248.027 188.92 245.427 192.47 242.707C196.92 239.307 200.6 235.167 204.27 231.007C206.04 228.997 207.68 227.127 210.58 226.457C212.62 225.977 214.58 224.727 216.28 223.257C217.3 222.377 218.22 221.007 220.05 221.897C220.3 222.017 221.06 220.847 222.16 220.737C226.91 220.227 231.51 218.727 236.33 218.507C237.83 218.437 239.3 217.517 240.9 217.967C242.29 218.357 243.62 217.767 245.01 217.787C247.14 217.827 249.4 217.057 251.38 217.537C253.46 218.047 255.15 217.197 257.03 217.127C257.89 217.097 258.76 217.177 259.61 217.097C261.03 216.977 262.47 217.407 263.89 216.507C264.6 216.057 265.93 216.107 266.76 216.457C268.71 217.277 270.55 216.617 272.36 216.307C274.54 215.937 276.74 215.917 278.9 215.577C285.36 214.567 292.05 214.817 298.22 212.187C298.44 212.097 298.67 211.937 298.88 211.957C302.43 212.267 305.89 211.437 309.39 211.207C310.94 211.107 312.59 211.587 313.74 209.957C314.4 209.017 315.26 210.927 316.24 209.857C317.01 209.017 318.33 208.697 319.3 207.987C319.85 207.587 320.1 207.697 320.42 208.117C320.94 208.807 321.34 208.797 322.17 208.337C323.23 207.747 324.6 209.167 325.79 208.167C329.02 208.677 332.23 207.697 335.49 208.007C336.47 208.097 337.44 208.097 338.44 208.357C339.71 208.677 341.11 209.127 342.32 208.887C344.84 208.377 347.1 209.287 349.47 209.507C351.74 209.717 354.11 211.077 356.5 209.757C356.88 209.547 357.7 209.527 357.92 209.767C359.21 211.187 360.8 209.757 362.21 210.357C363.61 210.947 365.2 211.117 366.68 211.537C368.02 211.917 369.4 211.807 370.71 211.727C374.16 211.507 377.13 213.777 380.59 213.437C381.1 213.387 381.67 213.897 382.21 214.117C383.42 214.617 384.63 215.487 385.85 215.507C387.71 215.537 388.9 216.387 390.39 217.327C393.08 219.017 396.15 220.107 399.08 221.417C399.39 221.557 399.82 221.507 400.18 221.437C402.58 220.917 402.63 220.857 403.62 221.867C405.01 223.287 406.43 224.527 408.59 224.567C409.1 224.577 409.65 225.057 410.07 225.437C410.39 225.737 410.54 226.227 410.76 226.637C410.77 226.657 411.28 228.627 411.32 228.687C412.28 230.187 411.79 231.337 410.72 232.627C410.24 233.207 410.35 234.467 410.55 235.337C410.72 236.107 411.29 236.867 411.85 237.477C413.54 239.317 413.48 241.667 413.44 243.817C413.39 246.177 412.55 248.517 412.27 250.887C412 253.147 412.03 255.427 411.05 257.557C410.86 257.967 410.97 258.527 411.01 259.017C411.15 260.847 410.54 262.327 409.2 263.587C408.7 264.057 408.42 264.757 408.06 265.377C405.58 269.617 404.56 274.417 402.89 278.967C401.99 281.417 400.64 283.747 400.09 286.267C399.3 289.887 397.88 293.287 396.98 296.847C396.77 297.657 396.52 298.457 396.2 299.227C395.63 300.587 394.72 301.527 393.23 301.997C392 302.387 390.83 303.047 389.72 303.737C389.12 304.107 388.72 304.247 388.12 303.787C387.72 303.477 387.04 303.027 386.74 303.167C385.9 303.557 384.86 304.077 384.53 304.817C384.1 305.807 384.83 307.447 382.76 307.227C382.74 307.507 382.69 307.787 382.7 308.057C382.87 311.437 383.24 314.757 382.32 318.167C381.61 320.807 381.72 323.667 381.46 326.437C381.39 327.157 381.31 327.877 381.15 328.577C380.74 330.377 379.96 332.047 380.59 334.067C380.9 335.057 380.08 336.357 380 337.537C379.88 339.127 380.05 340.737 379.96 342.327C379.89 343.707 379.74 345.057 379.91 346.467C380.03 347.487 379.52 348.567 379.45 349.627C379.4 350.397 379.94 351.397 379.62 351.917C379.3 352.437 378.7 352.367 379.12 353.397C379.6 354.557 379.43 356.037 378.61 357.237C379.57 358.857 377.7 360.397 378.29 361.787C379.14 363.777 377.48 365.247 377.69 367.077C377.89 368.777 377.79 370.517 377.75 372.237C377.68 375.547 375.38 379.697 372.99 380.907C372.82 380.997 372.54 380.917 372.33 380.917ZM299.95 286.977C299.55 288.387 299.14 289.387 299.01 290.427C298.69 292.957 297.07 295.087 296.72 297.497C296.37 299.917 295.66 302.127 294.71 304.317C294.52 304.747 294.42 305.227 294.34 305.687C294.07 307.217 293.89 308.757 293.56 310.267C293.14 312.237 292.44 314.157 292.17 316.137C291.96 317.697 291.62 319.527 293.77 320.347C294.07 320.467 294.16 321.157 294.33 321.597C294.71 322.617 295.07 323.637 295.4 324.557C295.97 324.137 296.63 323.447 296.8 323.557C297.6 324.047 298.03 324.187 298.2 323.047C298.27 322.597 298.74 322.207 298.79 321.767C299.08 318.887 299.36 316.007 299.55 313.127C299.79 309.377 299.76 305.637 300.09 301.877C300.52 297.137 301.38 292.257 299.95 286.977ZM344.16 279.967C342.21 283.477 343.38 287.167 343.39 290.767C344.95 287.297 346.48 283.827 344.16 279.967ZM352.36 308.007C351.52 310.557 350.6 313.087 349.86 315.657C349.51 316.867 349.42 318.207 351.11 318.837C352.34 315.347 352.94 311.887 352.36 308.007Z" fill="#477DCA"/>
<path d="M106.1 55.1672C107.61 55.7072 107.33 56.6672 106.64 57.6772C106.59 57.7572 106.18 57.6772 106.01 57.5672C105.81 57.4272 105.69 57.1672 105.54 56.9672C105.47 57.1872 105.37 57.4072 105.33 57.6372C105.29 57.8772 105.22 58.3072 105.31 58.3472C107.05 59.1672 106.16 60.4972 106.2 61.7872C106.28 64.4872 105.67 66.8872 104.34 69.1972C103.93 69.8972 104.05 70.9172 103.63 71.5972C102.08 74.0572 100.41 76.4473 98.7502 78.8372C98.6102 79.0373 98.0402 79.1572 97.8302 79.0372C97.2902 78.7272 96.8102 78.2072 96.7702 79.3572C96.7202 80.5872 96.3202 81.1073 94.8902 81.3873C92.8102 81.7873 90.8102 82.5172 88.0102 82.3272C88.9802 81.8272 89.3602 81.6372 89.7402 81.4372C89.3602 81.1272 89.0302 80.7073 88.6002 80.5273C87.7402 80.1773 85.2702 79.8972 84.9002 80.0072C83.2102 80.4872 82.4002 81.7173 82.4602 83.6973C82.5702 87.6273 82.4302 88.1572 79.8002 90.4072C78.0102 91.9372 76.5202 93.6473 75.4602 95.7473C73.7102 99.1873 71.0302 100.877 67.0302 100.487C65.3902 100.327 63.7302 100.227 61.9802 100.627C60.7102 100.917 58.8802 100.137 57.7502 99.2572C56.9702 98.6572 56.2002 98.7273 55.6602 98.7473C53.4702 98.8273 51.6002 97.8972 49.6802 97.2072C47.2202 96.3172 44.7002 95.4072 42.5202 94.0172C39.5402 92.1272 37.3202 89.3872 35.3902 86.3672C32.8502 82.3772 31.2002 78.0973 30.1702 73.5273C30.1402 73.4073 30.0502 73.3072 30.0102 73.1972C29.3702 71.7372 31.2802 70.4672 30.1302 68.7772C29.3102 67.5672 30.9202 66.0272 30.4402 64.4272C30.2602 63.8072 31.2702 63.1772 32.2502 63.0172C33.2702 62.8472 33.2402 62.6772 32.2902 61.4372C31.6402 60.5872 31.8802 59.8472 32.9402 59.2472C33.1502 59.1272 33.4502 58.7873 33.4002 58.6573C33.1602 57.9873 32.7402 57.4572 33.6402 56.8172C34.1002 56.4872 34.5402 55.2872 34.3202 54.9972C33.1202 53.4272 34.1602 52.2173 34.8102 51.0072C37.2102 46.5573 40.1102 42.4372 43.4602 38.6472C44.3102 37.6872 45.4302 36.9472 46.4902 36.2072C46.7002 36.0572 47.2302 36.3972 47.6202 36.4672C48.7902 36.6772 48.9402 36.4572 48.9902 34.9672C49.0002 34.5872 49.3002 34.2173 49.4702 33.8373C49.7402 33.9873 50.0402 34.1072 50.2702 34.3072C50.5702 34.5772 50.8102 34.9072 51.0702 35.2172C51.3302 34.8672 51.6702 34.5572 51.8102 34.1672C51.9702 33.7272 51.9402 33.2172 51.9902 32.7372C52.8502 32.8972 53.6402 33.2273 54.3702 33.1172C54.9102 33.0373 55.5902 32.7373 55.3002 31.5873C55.1302 30.9073 57.7502 30.6272 57.6802 30.7572C56.7502 32.5972 57.8002 32.1672 58.6202 31.5572C59.5402 30.8872 60.5002 32.5272 61.5002 31.2172C61.9702 30.5972 63.4302 30.7372 64.7902 30.4672C63.7902 30.1272 63.1402 29.9072 62.4902 29.6872C62.5002 29.5272 62.5102 29.3772 62.5202 29.2172C63.9702 29.2972 65.4102 29.3672 66.8602 29.4472C67.8202 30.9572 69.0902 30.2472 70.3302 29.6972C69.1502 29.6372 67.9802 29.5672 66.8002 29.5072C68.4202 28.1772 70.1702 29.1072 71.8502 29.3072C72.1102 29.3372 70.7002 30.1472 71.9302 30.4172C72.3702 30.5172 72.8602 30.3572 73.3202 30.3172C72.5202 28.6772 73.8702 29.1472 74.5502 29.1372C75.5202 29.1272 76.5302 29.1372 77.4602 29.3772C80.0702 30.0572 82.7402 30.3773 85.1702 31.8373C86.3202 32.5273 84.6302 33.3372 85.7502 33.7372C86.4902 33.9972 87.3902 34.5572 87.6402 35.2072C87.8702 35.7872 87.3602 36.6972 87.0402 37.3972C87.0002 37.4872 86.1302 37.1773 85.6402 37.0873C85.4102 37.0473 85.1602 37.0873 84.9202 37.0873C84.9002 36.9673 84.9202 36.7572 84.8702 36.7372C81.6402 35.5072 78.2802 34.8172 74.8702 34.3572C73.5402 34.1772 72.0202 33.7973 70.8602 34.2273C69.1202 34.8773 67.5602 34.6972 65.9002 34.3172C65.6102 34.2472 65.2902 34.2172 65.0102 34.2772C62.5802 34.8372 60.1602 35.4272 57.0202 36.1772C58.7502 36.3572 59.8502 36.2972 60.8302 36.6172C61.9302 36.9773 62.9202 37.6772 63.9602 38.2273C67.5402 40.1272 71.4502 39.1372 75.2002 39.4572C75.4502 39.4772 75.8102 38.8972 76.0202 38.5372C76.2002 38.2472 76.1402 37.6873 76.3502 37.5873C76.7502 37.3973 77.2702 37.4372 77.7402 37.4272C78.1602 37.4172 78.4402 38.7172 79.0502 37.5372C79.2002 37.2472 79.7602 37.1573 80.1302 36.9773C80.5502 38.8273 81.5702 37.7072 82.4602 37.4872C83.2702 37.2872 84.1102 37.2173 84.9302 37.0873C85.3102 38.1373 84.8502 39.9472 87.0102 39.3972C88.6602 40.7672 91.4302 40.7172 92.0302 43.4272C92.0902 43.7072 92.4402 44.0072 92.7302 44.1372C94.8702 45.1472 95.1802 47.0173 95.4702 49.1173C95.6002 50.0772 95.0502 51.5272 96.5002 52.1472C96.6302 52.1972 96.7302 52.7072 96.6402 52.8172C95.3402 54.2572 97.6802 55.8073 96.4802 57.2273C97.8702 58.6073 95.8402 59.6272 96.1002 60.8872C95.7302 60.8472 95.2502 60.6272 95.0202 60.7872C94.1502 61.3573 93.4702 62.1772 94.1202 63.2372C94.8902 64.4972 94.4102 64.6772 93.2502 64.5172C93.4202 66.0672 91.2902 66.7572 91.7602 68.4272C89.7102 68.7872 90.8402 70.9072 89.8402 71.9872C89.3002 72.5672 89.0902 73.5573 88.2902 74.2272C87.2902 75.0672 86.5602 76.2372 85.1202 77.9772C89.0002 76.3773 92.2802 75.5472 94.6502 72.9372C95.1202 72.4272 95.4102 71.7372 95.7102 71.0972C97.8102 66.7372 99.0702 62.1572 99.4002 57.3272C99.4202 57.0772 99.3502 56.7872 99.4602 56.5972C101 53.8572 99.6102 51.5372 98.3202 49.2872C97.5102 47.8672 96.8702 46.5172 97.1002 44.8572C97.2602 43.6872 98.2002 43.2772 99.1602 44.0272C100.11 44.7672 100.91 45.9172 101.97 46.2572C104.62 47.0872 105.42 48.9273 105.59 51.4073C105.68 52.7073 105.97 53.9872 106.17 55.2772C105.97 55.1972 105.77 55.1072 105.57 55.0272C105.33 54.9272 105.08 54.8272 104.84 54.7172C104.86 55.0272 104.76 55.4773 104.93 55.6173C105.48 56.0573 105.94 55.9372 106.1 55.1672ZM42.7702 64.3772C43.3402 64.4372 44.0102 64.7373 44.2902 63.9072C44.5502 63.1473 44.5702 61.9372 45.0502 61.7072C46.1802 61.1872 46.0002 60.3172 45.9402 59.5672C45.8302 58.2672 45.5002 56.9872 45.2202 55.7072C44.4402 52.1972 45.4402 48.2772 47.3202 45.1272C48.1802 43.6872 50.1502 42.7472 49.7602 40.2572C47.1902 42.7872 45.2702 45.4372 43.5402 48.2872C42.6802 49.7072 42.6302 50.8672 43.3502 52.3472C44.4502 54.6272 44.1002 56.9772 43.3802 59.3772C42.9002 60.9872 42.1502 62.6572 42.8302 64.4372C41.3602 65.3772 41.9102 66.6073 42.5902 67.8372C42.6402 66.6872 42.7002 65.5372 42.7702 64.3772ZM75.6002 81.1572C76.5402 79.7372 77.3102 78.4272 78.2202 77.2172C81.2402 73.2072 85.1502 69.8572 87.1802 65.1172C89.2802 63.5772 89.7402 61.1673 90.4902 58.9073C90.6002 58.5773 90.8302 58.2772 91.0202 57.9672C92.3402 55.7572 92.3302 53.4872 91.6402 51.0372C90.0202 45.3172 85.5102 41.6272 79.0202 41.4472C80.4202 42.3772 81.3402 43.0272 82.2902 43.6072C82.8902 43.9772 84.0402 44.1972 84.1002 44.6072C84.3802 46.3872 86.6402 46.6172 86.8102 48.6272C86.9202 50.0172 89.4402 50.9572 87.8902 52.9572C87.8102 53.0572 88.2802 53.5373 88.4102 53.8673C88.5502 54.2273 88.7202 54.6572 88.6502 55.0072C88.5002 55.7673 87.9402 56.5472 88.0302 57.2472C88.1802 58.2972 86.2802 58.2672 87.0302 59.6072C87.2102 59.9272 85.8302 60.9372 85.9002 61.5372C86.0702 62.9872 84.5802 62.7472 84.2002 63.5972C83.8702 64.3472 82.7502 64.9972 82.8002 65.6272C82.9502 67.4672 80.9702 68.3172 81.0002 69.8272C81.0302 71.5572 78.4702 71.8672 79.1702 73.7672C79.2102 73.8872 78.8902 74.3172 78.7802 74.2972C76.2302 73.9672 75.9502 76.9572 74.0102 77.3172C74.5402 78.6172 75.0102 79.7272 75.6002 81.1572ZM67.0502 88.7172C69.6002 88.7972 71.3602 87.7572 73.0902 86.7072C73.3102 86.5672 73.4702 85.8373 73.3802 85.7773C73.0602 85.5473 72.6202 85.4772 72.2202 85.3772C72.1402 85.3572 72.0302 85.5272 71.9202 85.5672C70.2402 86.1772 70.2402 86.1673 67.3502 85.3073C67.2102 85.2673 66.9202 85.3172 66.8602 85.4272C66.0402 86.9172 64.8602 86.3772 63.8302 85.8572C62.9802 85.4272 62.2902 84.6872 61.4802 84.1572C61.2302 83.9972 60.8302 84.0672 60.5102 84.0372C60.5102 84.4572 60.3202 85.0472 60.5302 85.2872C62.3702 87.3572 64.8602 88.1472 67.0502 88.7172ZM48.6302 86.6872C51.0602 90.4872 54.4702 91.7372 58.2102 92.5472C57.6302 91.7572 57.2602 90.7872 56.5802 90.4372C55.1702 89.7172 54.4202 88.6072 53.8002 87.2572C52.9902 85.4972 52.9302 85.5272 50.8902 86.1272C50.2602 86.3072 49.6202 86.4372 48.6302 86.6872ZM65.2002 68.6372C65.6602 68.5772 66.1602 68.5972 66.5702 68.4172C66.7602 68.3272 66.7702 67.8472 66.8602 67.5372C65.3802 67.6572 64.9902 65.9072 63.7402 65.7372C63.5202 65.7072 62.8902 66.5472 62.9602 66.8972C63.1802 68.0272 63.8602 68.7972 65.2002 68.6372ZM34.1802 74.2272C34.4002 74.2072 34.6102 74.1873 34.8302 74.1673C34.6402 72.3473 34.4602 70.5272 34.2402 68.7172C34.2202 68.5972 33.8602 68.4472 33.6602 68.4372C33.5002 68.4272 33.1802 68.6572 33.2002 68.7372C33.5002 70.5672 33.8402 72.3972 34.1802 74.2272ZM45.3402 82.6472C45.4302 80.8772 45.4902 79.8273 45.5402 78.8873C44.8802 79.3573 43.7402 79.8372 43.7702 80.2272C43.8202 80.9272 44.5802 81.5672 45.3402 82.6472ZM33.7002 64.0472C33.5802 64.0472 33.4502 64.0472 33.3302 64.0472C33.2602 64.4872 33.1402 64.9272 33.1302 65.3672C33.1202 65.5672 33.3002 65.7772 33.4002 65.9872C33.5702 65.7472 33.8602 65.5272 33.8802 65.2772C33.9102 64.8672 33.7702 64.4572 33.7002 64.0472ZM54.1102 69.6972C53.4702 69.3072 53.0902 69.0372 52.6702 68.8472C52.5602 68.7972 52.3302 68.9972 52.1602 69.0772C52.3802 69.4272 52.5802 69.7972 52.8602 70.0972C52.9102 70.1672 53.2502 69.9772 54.1102 69.6972ZM67.9302 78.9973C67.7202 78.7873 67.5402 78.4972 67.2702 78.3772C67.1102 78.2972 66.8402 78.4673 66.6202 78.5273C66.8902 78.8873 67.1702 79.2472 67.4402 79.6072C67.5802 79.4372 67.7102 79.2773 67.9302 78.9973Z" fill="#FF9737"/>
<path d="M30.4801 36.4082C30.9401 38.3782 30.4001 40.1182 29.9001 41.8382C29.3201 43.7982 29.3601 45.9282 28.1901 47.7182C27.1401 49.3182 27.2301 51.1782 27.1001 52.9782C27.0301 53.9582 27.2901 55.0882 26.8801 55.8882C25.6901 58.1882 25.3601 60.6282 24.8501 63.0982C24.5701 64.4382 24.1501 65.5282 24.7401 66.8782C25.0101 67.4882 24.8901 68.3582 24.7101 69.0482C24.4401 70.1182 23.9701 71.1282 23.5801 72.1682C25.2401 72.5682 24.2301 74.3282 25.0801 75.1682C25.2501 75.3382 25.0701 75.8682 25.0301 76.5582C23.9501 76.1082 22.9701 75.4682 21.9301 75.3282C19.3501 74.9782 18.7401 72.8382 18.1701 71.0182C17.4701 68.7682 17.3701 66.3282 17.0201 63.9782C18.7501 61.0382 17.7701 57.6282 18.7001 54.4382C19.7701 50.7582 20.6601 47.0082 22.5601 43.7382C24.4101 40.5882 26.5201 37.3882 30.4801 36.4082Z" fill="#FF9737"/>
<path d="M100.96 82.8789C103.3 83.5289 105.12 84.0389 106.94 84.5489C107.28 84.6489 107.63 84.9089 107.95 84.8689C110.67 84.5089 112.46 85.8689 114.2 87.7889C115.6 89.3389 116.37 91.0689 116.63 92.9989C116.9 95.0189 115.82 96.4889 114.27 97.8389C113.47 98.5389 113.09 98.5589 112.59 97.9089C111.48 96.4589 110.28 95.0389 109.45 93.4389C108.14 90.9289 106.97 88.4289 104.01 87.4389C103.62 87.3089 103.34 86.7689 103.09 86.3689C102.43 85.3589 101.84 84.3289 100.96 82.8789Z" fill="#FF9737"/>
<path d="M30.9901 91.2584C28.2801 89.3384 26.1401 91.3384 23.8601 92.3684C22.4601 92.9984 21.1901 93.9284 19.7601 94.4384C18.6301 94.8384 17.5401 94.2084 16.6801 93.3884C16.5601 93.2784 16.6101 92.8384 16.7401 92.6584C17.5901 91.4084 18.8701 90.5384 19.5001 89.0184C19.8101 88.2684 21.2201 87.9984 22.1201 87.4784C22.8401 87.0584 23.4301 85.9884 24.4301 87.0684C24.4801 87.1284 24.6701 87.0784 24.7901 87.0584C25.6501 86.9184 24.1801 85.6384 25.5301 85.6184C26.1301 85.6084 26.6201 84.8284 27.2901 85.7584C27.6501 86.2684 28.6401 86.2884 29.1101 86.7584C29.8301 87.4784 30.2701 88.4584 31.5501 88.3584C31.7801 88.3384 32.2001 88.7984 32.2901 89.1084C32.4401 89.6584 32.5501 90.3084 32.3901 90.8184C32.2801 91.0484 31.5401 91.0884 30.9901 91.2584Z" fill="#FF9737"/>
<path d="M64.3701 7.66819C65.1601 5.12819 66.6201 2.24819 69.4401 0.278189C70.2301 -0.271811 71.0901 0.0381904 71.6801 0.81819C72.1601 1.44819 73.0801 1.92819 72.3401 2.97819C71.4901 4.18819 70.9201 5.50819 70.9301 7.02819C70.9301 7.76819 70.3001 7.84819 69.9001 8.22819C68.8701 9.19819 67.3001 9.48819 66.6101 10.9082C66.4501 11.2282 65.6901 11.5882 65.4401 11.4582C64.9501 11.2082 64.4501 10.6882 64.2801 10.1782C64.1101 9.63819 64.3001 8.96819 64.3701 7.66819Z" fill="#FF9737"/>
<path d="M11.9101 52.4885C10.7801 53.0485 9.71013 53.2085 9.47013 53.7485C8.72013 55.4685 8.68013 55.6285 7.54013 54.4385C6.44013 53.2985 5.15013 52.4185 4.54013 50.6685C4.10013 49.3885 2.34013 48.5685 1.19013 47.5185C0.800132 47.1585 0.480127 46.7285 0.130127 46.3285C0.720127 45.9885 1.66013 45.2385 1.84013 45.3885C2.95013 46.3285 4.16013 44.7285 5.16013 45.6485C5.99013 46.3985 7.60013 46.0885 7.85013 47.6285C10.8001 47.8785 10.3701 50.7385 11.9101 52.4885Z" fill="#FF9737"/>
<path d="M485.73 422.518C487.71 424.358 488.76 426.748 489.84 429.168C490.33 430.258 490.51 430.748 489.09 430.728C489.11 430.978 489.13 431.228 489.15 431.478C491.78 430.898 491.91 433.518 492.89 434.728C494.14 436.278 494.62 438.438 495.43 440.338C495.52 440.548 495.51 440.818 495.64 440.998C497.33 443.248 497.9 446.088 499.43 448.348C500.25 449.568 500.54 450.608 500.73 451.958C500.89 453.048 501.76 454.008 502.13 455.088C502.51 456.188 502.53 457.408 502.94 458.478C503.37 459.608 504.15 460.468 504.01 461.948C503.88 463.328 504.51 464.958 505.28 466.188C506.05 467.428 506.41 468.698 506.83 470.038C507.6 472.468 507.96 474.988 508.82 477.408C509.95 480.588 509.62 484.118 511.05 487.298C511.51 488.338 511.21 489.718 511.25 490.938C513.07 491.548 510.23 493.148 511.86 493.798C511.24 495.658 510.96 497.738 509.92 499.308C508.92 500.808 507.67 502.588 505.36 502.548C505.27 502.548 505.14 502.808 505.1 502.788C504.35 502.418 503.64 501.828 502.85 501.688C502.09 501.558 501.45 503.048 500.4 501.808C499.65 500.928 498.54 500.368 497.59 499.668C496.8 499.088 496.92 497.628 495.53 497.558C495.34 497.548 495.18 496.858 495 496.478C494.65 496.828 494 497.178 494 497.538C494 500.658 491.47 502.068 489.71 503.968C489.17 504.548 488.39 504.948 487.66 505.278C487.25 505.468 486.67 505.448 486.21 505.348C485.39 505.158 485.16 503.218 483.81 504.548C482.95 503.938 482.09 503.308 481.22 502.708C480.55 502.248 479.84 501.838 479.16 501.388C477.97 500.598 477.12 500.378 476.54 502.178C476.25 503.068 475.25 503.728 474.28 502.498C473.55 501.578 473.08 503.698 472.2 502.698C471.77 502.208 471.04 501.958 470.41 501.658C469.11 501.028 468.14 499.948 467.14 498.988C465.96 497.858 464.71 496.508 464.24 495.008C463.8 493.608 462.79 492.088 463.42 490.528C463.82 489.548 462.26 489.068 463.08 487.998C463.31 487.688 462.61 486.668 462.37 486.048C459.35 489.638 458.38 494.398 455.42 498.028C455.34 500.428 453.41 501.908 452.52 503.908C451.86 505.398 452 505.818 453.94 505.968C456.55 506.178 459.03 506.818 461.46 507.638C462.97 508.148 464.42 508.908 465.81 509.718C466.93 510.368 467.82 511.438 468.96 512.028C472.79 514.008 475.69 517.228 479.24 519.578C479.96 520.058 480.3 521.598 480.9 521.648C482.45 521.788 482.02 523.318 482.93 523.868C483.75 524.368 484.41 525.188 484.99 525.968C485.38 526.508 485.72 527.228 485.73 527.878C485.75 530.158 487.03 531.828 488.22 533.568C488.61 534.138 489.12 534.728 489.25 535.368C490.19 539.938 493.91 542.178 497.06 544.898C499.52 547.018 502.11 549.018 503.19 552.268C503.7 553.808 504.15 555.358 504.53 556.948C505.05 559.108 505.04 561.218 505.19 563.368C505.31 565.118 504.64 566.658 503.91 568.068C502.88 570.058 500.51 570.508 498.79 571.738C498.07 570.268 497.16 572.408 496.47 571.638C495.1 570.108 492.21 572.308 491.48 569.328C490.86 570.808 490.1 572.018 489.85 573.328C489.59 574.668 488.38 575.198 487.71 575.278C484.37 575.648 480.86 576.228 478.38 572.968C478.01 572.478 477.63 571.998 477.38 571.658C474.95 572.168 474.64 574.278 473.48 575.558C472.55 576.578 471.9 577.718 470.31 577.758C469.98 577.768 469.67 578.218 469.34 578.468C468.59 578.468 467.85 578.468 467.1 578.468C466.8 577.778 466.65 576.878 465.51 577.418C465.37 577.488 465.02 577.308 464.88 577.138C464.75 576.978 464.84 576.548 464.72 576.488C461 574.748 459.78 570.878 457.39 568.008C455.95 566.278 454.5 564.478 453.78 562.418C452.96 560.028 451.86 557.688 451.46 555.178C451.12 553.078 449.98 552.118 447.97 551.538C446.34 551.068 444.7 550.188 443.43 549.078C442.22 548.028 440.81 547.518 439.49 546.788C434.74 544.178 429.94 541.648 425.14 539.128C423.28 538.148 421.68 537.638 419.69 539.508C418.09 541.018 415.58 541.518 413.6 542.678C410.08 544.738 406.38 546.268 402.44 547.258C399.51 547.998 396.63 548.888 393.65 549.518C389.34 550.438 385.12 549.958 380.87 550.028C378.19 550.078 375.5 549.488 372.9 548.638C371.68 548.238 370.38 548.108 369.11 547.868C368.76 547.798 368.27 547.878 368.09 547.668C365.78 545.128 361.84 545.548 359.59 542.938C357.59 542.488 355.99 541.318 354.44 540.048C354.19 539.838 353.66 539.578 353.51 539.688C352.19 540.658 350.92 540.868 349.62 539.688C348.7 541.248 347.81 539.828 346.89 539.678C346.28 539.578 345.64 539.608 345.03 539.668C339.87 540.198 334.81 538.768 329.67 538.878C328.91 538.898 328.15 538.288 327.37 538.188C324.08 537.778 320.77 537.228 317.58 536.518C313.93 535.698 309.88 535.598 306.78 532.948C303.92 532.398 301.69 530.278 298.7 529.868C297.32 529.678 296.07 528.478 294.77 527.728C291.81 526.028 289.05 524.048 286.29 522.018C281.94 518.818 278.89 514.238 274.34 511.308C273.48 508.678 270.65 508.078 269.04 506.178C267.36 504.188 265.36 502.478 263.55 500.598C262.75 499.758 262.25 498.548 261.33 497.948C260.3 497.268 260.06 496.098 259.12 495.398C258.13 494.668 257.27 493.728 256.47 492.778C255.01 491.048 253.63 489.238 252.22 487.458C252.02 487.208 251.89 486.858 251.64 486.708C250.21 485.858 248.74 484.198 247.29 486.688C244.11 487.348 241.26 488.928 238.11 489.788C234.31 490.828 230.57 490.048 226.82 490.418C225.58 489.398 224.08 488.578 223.18 487.318C222.13 485.848 221.13 484.048 220.98 482.318C220.68 478.898 218.86 476.198 217.51 473.278C215.66 469.268 214.31 465.158 213.25 460.838C212.44 457.538 211.93 454.178 211.34 450.878C210.82 447.968 210 444.978 210.4 441.888C210.9 437.988 209.11 434.198 209.68 430.268C208.21 428.478 209.73 425.948 208.19 424.168C209.64 422.878 208.09 421.598 208.14 420.308C208.15 420.068 207.56 419.788 207.25 419.538C206.59 420.358 205.67 419.428 205.3 419.628C204.25 420.198 202.85 419.538 202.35 419.958C200.88 421.178 200.33 418.858 198.98 419.448C197.94 419.908 196.53 419.538 195.29 419.538C194.05 419.538 192.78 419.688 191.56 419.508C187.24 418.888 183.86 416.888 182.05 412.708C181.55 411.548 180.89 410.458 180.41 409.288C179.98 408.228 179.55 407.118 179.38 405.998C179.21 404.898 178.02 403.898 178.99 402.668C177.6 400.558 177.96 398.088 177.45 395.818C176.95 393.578 176.18 391.358 175.81 389.058C175.76 388.738 175.39 388.448 175.36 388.128C175.08 384.998 174.86 381.868 174.59 378.738C174.51 377.808 174.89 376.858 174.05 375.938C173.77 375.628 174.6 374.498 174.55 373.758C174.41 371.618 173.99 369.488 173.87 367.348C173.75 365.118 174.19 362.798 173.72 360.658C173.41 359.238 173.38 358.178 173.72 356.748C174.19 354.748 173.92 352.548 173.82 350.438C173.67 347.168 174.55 344.058 175.4 341.008C176.24 337.998 177.02 335.028 176.78 331.908C176.69 330.648 176.18 329.418 175.78 327.858C175.56 328.028 175.26 328.448 175.01 328.418C171.31 327.978 168.18 330.008 164.78 330.788C161.73 331.488 158.81 332.798 155.62 332.968C155.37 332.978 155.06 332.868 154.88 332.988C151.62 335.098 147.56 334.298 144.15 335.928C143.64 336.168 142.92 335.958 142.3 335.958C138.94 335.958 135.58 336.028 132.23 335.928C130.71 335.878 129.2 335.488 127.69 335.208C126.3 334.948 124.94 335.498 123.44 334.628C122.13 333.868 120.23 334.178 118.58 333.888C115.8 333.398 113.07 332.628 110.28 332.228C109.82 332.158 109.36 332.048 108.94 331.868C107.05 331.018 105.26 329.828 103.29 329.338C101.3 328.838 100.15 326.758 97.96 326.868C95.99 324.728 92.99 324.348 90.75 322.658C90.58 322.528 90.2 322.658 90.07 322.528C87.76 319.998 84.32 319.548 81.54 317.888C80.53 317.288 79.64 316.478 78.66 315.838C76.71 314.568 74.5 313.588 72.8 312.048C69.48 309.058 66.36 305.828 63.29 302.568C62.27 301.488 61.84 299.868 60.85 298.758C57.21 294.688 55.16 289.598 51.94 285.268C51.48 284.648 51.46 283.728 51.11 283.008C49.93 280.568 48.9 278.038 46.66 276.248C46.06 275.768 45.77 274.888 45.31 274.218C44.71 273.338 44.18 272.398 43.45 271.638C41.67 269.788 40.34 267.788 40.25 265.108C40.23 264.578 39.73 264.088 39.55 263.548C39.02 262.028 38.28 260.508 38.12 258.938C37.96 257.368 37.19 256.058 36.87 254.578C36.83 254.398 36.71 254.108 36.77 254.068C37.93 253.228 35.97 252.838 36.52 251.948C37.5 250.358 36.34 248.668 36.51 246.988C36.7 245.138 36.43 243.248 36.6 241.398C36.7 240.338 35.49 239.448 36.34 238.368C35.25 237.338 35.94 236.028 35.83 234.858C35.72 233.628 36.15 232.248 35.74 231.158C34.52 227.928 35.35 224.618 35.04 221.368C34.92 220.108 34.18 218.728 34.51 217.638C34.92 216.298 34.06 215.308 34.23 214.068C34.4 212.848 34.88 211.348 33.61 210.268C34.87 209.458 33.44 208.728 33.53 207.918C34.15 202.518 32.86 197.198 32.72 191.818C32.58 186.448 30.5 181.668 26.13 178.168C25.47 177.638 25.14 177.508 24.56 178.498C22.62 181.808 21.23 185.338 20.15 188.988C19.49 191.228 18.13 193.318 18.61 195.828C18.62 195.888 18.11 196.188 18.02 196.118C16.97 195.398 16.18 197.098 15.16 196.408C14.58 196.018 13.52 195.648 13.51 195.248C13.46 193.318 11.73 191.588 13.19 189.408C13.9 188.348 13.54 186.728 14.79 185.568C15.62 184.808 15.7 183.258 16.19 182.098C17.13 179.878 18.12 177.678 19.08 175.458C19.65 174.138 19.57 173.148 18.36 172.718C16.96 172.228 16.29 171.088 15.27 170.268C14.25 169.448 13.34 168.548 12.21 167.798C9.33 165.878 6.75 163.508 4.07 161.288C3.35 160.688 1.1 156.408 0.720001 155.218C0.640001 154.968 0.25 154.818 0 154.618C0 152.628 0 150.638 0 148.648C1.55 148.028 0.890001 145.448 2.97 145.308C4.42 141.668 7.35 140.848 11.39 141.278C9.34 138.518 8.63 135.498 7 132.948C5.79 131.058 5.99 129.048 6 127.028C6 126.778 6.41 126.288 6.55 126.318C7.92 126.598 8.74 125.668 9.25 124.778C9.94 123.578 10.99 124.988 11.8 124.118C12.3 123.588 13.29 124.298 14 124.908C14.53 125.368 15.41 125.428 16.28 125.458C14.67 123.288 14.48 120.688 13.47 118.418C13.2 117.798 13.44 116.948 13.44 116.208C13.88 116.268 14.32 116.348 14.76 116.348C14.81 116.348 14.86 115.928 14.92 115.698C15.04 115.248 15.1 114.778 15.29 114.358C16.5 111.698 17.5 110.998 20.31 111.398C24.15 111.948 27.66 113.568 30.79 115.758C34.47 118.328 37.88 121.268 41.39 124.038C41.8 123.068 42.12 122.208 42.52 121.378C44.43 117.418 45.54 113.178 47.01 109.058C48.59 104.618 49.74 100.038 51.69 95.6977C52.63 93.6177 53.48 91.4677 54.38 89.3577C55.28 87.2477 56.2 85.1477 56.78 82.8777C57.34 80.6877 58.72 78.7277 59.66 76.6277C60.79 74.1177 61.83 71.5577 63.06 68.6777C63.3 69.5877 63.29 70.4177 63.69 70.9177C64.3 71.6777 64.28 72.1677 63.61 72.7777C63.56 72.8277 63.81 73.3277 64.01 73.5277C65.21 74.7677 63.57 76.5677 64.86 77.7977C64.88 77.8177 64.52 78.4577 64.3 78.4877C63.4 78.5977 63.2 78.8177 63.95 79.4777C64.09 79.6077 64.19 79.9477 64.12 80.1277C63.06 83.2877 61.9 86.4277 60.91 89.6077C60.3 91.5877 58.96 93.2877 58.86 95.4977C58.8 96.8677 57.54 97.8277 57.06 99.2177C55.9 102.588 55.09 106.098 53.65 109.358C52.24 112.518 51.18 115.798 49.97 119.028C49.94 119.098 50.06 119.228 50.11 119.338C52.19 119.108 53.52 117.628 54.97 116.368C55.65 115.778 56.1 115.588 56.8 116.298C57.48 116.988 58.85 116.068 59.35 117.318C63.78 117.718 66.59 120.928 69.81 123.408C70.25 123.748 70.62 124.308 70.82 124.838C72.02 128.078 73.07 131.368 74.36 134.568C74.8 135.668 74.37 136.818 75.18 137.998C75.85 138.978 75.57 140.698 75.91 142.108C76.14 143.078 77.27 144.398 76.06 145.558C76.56 146.508 76.78 147.498 76.85 148.608C77.01 151.178 76.3 153.618 75.65 155.988C75.37 156.998 76.86 157.338 75.96 158.088C75.08 158.818 75.37 159.318 75.89 160.218C76.22 160.778 75.48 161.908 75.34 162.808C75.19 163.758 75.2 164.738 75.07 165.688C75.03 166.008 74.53 166.388 74.61 166.588C76.1 170.268 75.05 174.108 75.28 177.858C75.37 179.318 75.56 180.678 76.18 181.978C76.38 182.398 76.74 182.778 76.79 183.208C77.08 185.838 77.31 188.468 77.56 191.108C77.58 191.358 77.46 191.688 77.58 191.838C79.12 193.838 78.6 196.418 79.46 198.528C80.06 199.998 79.29 201.558 80.45 203.008C81.23 203.968 81.2 205.698 81.26 207.098C81.33 208.818 83.23 209.868 82.79 211.698C84.03 212.198 82.65 213.358 83.46 214.198C84.09 214.848 84.02 216.158 84.29 217.168C84.52 218.068 84.73 218.978 85.05 219.838C85.41 220.808 86.1 221.698 86.26 222.678C86.7 225.458 88.03 227.928 88.77 230.598C89.05 231.598 89.35 232.598 89.74 233.548C90.49 235.348 91.06 237.298 92.17 238.858C93.28 240.418 93.88 242.148 94.77 243.768C96.01 246.018 97.67 248.008 99.03 250.198C100.35 252.328 102.26 254.118 103.97 255.998C107.22 259.548 111.31 261.918 115.62 263.878C118.12 265.018 120.82 265.688 123.29 267.008C124.67 267.748 126.46 267.768 128.08 268.008C129.13 268.158 130.26 267.798 131.15 268.748C131.33 268.938 131.88 268.828 132.24 268.768C133.85 268.478 135.58 268.408 137.04 267.768C139.04 266.888 141.01 265.748 142.7 264.358C145.63 261.968 148.34 259.308 151.13 256.748C151.93 256.018 152.51 255.128 153.91 255.298C155.44 255.478 156.55 254.388 157.54 253.328C160.71 249.918 163.87 246.498 167.04 243.088C169.26 240.698 171.79 238.678 174.6 237.018C177.15 235.508 179.03 233.218 181.16 231.228C182.2 230.258 183.38 229.418 184.53 228.578C186.15 227.408 187.91 226.408 189.42 225.108C191.85 223.018 194.78 221.838 197.52 220.298C199.14 219.388 200.89 218.788 202.36 217.538C203.66 216.438 205.83 216.758 206.93 215.118C208.92 215.498 209.89 213.438 211.75 213.168C213.63 212.898 215.12 211.008 217.3 211.328C218.25 209.538 220.25 210.038 221.71 209.358C223.06 208.728 224.56 208.448 225.99 207.988C226.2 207.918 226.36 207.658 226.58 207.608C227.38 207.438 228.65 207.588 228.91 207.138C229.47 206.178 229.76 204.898 229.71 203.768C229.49 198.688 231.19 193.918 232.1 189.048C232.49 186.988 234.05 185.148 235.1 183.228C235.29 182.878 235.99 182.638 235.29 182.178C234.99 181.988 234.6 181.918 234.24 181.838C234 181.788 233.52 181.808 233.51 181.798C233.49 180.558 233.12 179.158 233.58 178.108C235.47 173.738 237.49 169.408 240.62 165.718C241.42 164.768 241.99 163.618 242.85 162.278C240.61 162.728 238.87 163.328 237.05 162.368C236.64 162.158 235.81 162.878 235.26 162.768C234.62 162.638 234.01 162.138 233.53 161.648C233.41 161.518 233.76 160.778 234.04 160.438C234.8 159.508 235.84 158.728 235.07 157.288C235.04 157.228 235.31 156.888 235.47 156.868C237.71 156.548 239.95 156.268 243.03 155.868C239.1 154.658 236.55 152.428 233.57 150.948C232.84 150.578 232.76 150.288 232.73 149.668C232.68 148.848 233.03 148.558 233.81 148.648C234.06 148.678 234.49 148.738 234.53 148.638C235.93 145.628 238.67 146.658 241.02 146.368C242.02 146.248 242.93 145.578 243.93 145.328C244.82 145.108 245.77 145.038 246.69 145.098C247.12 145.128 246.68 147.328 248.01 145.688C248.59 146.508 249.71 146.098 250.23 146.498C251.02 147.108 251.75 147.148 252.6 147.148C253.43 147.148 254.25 147.148 255.51 147.148C253.03 144.678 250.92 142.608 248.85 140.488C247.03 138.628 245.65 136.558 246.2 133.778C246.26 133.468 246.78 133.008 247.08 133.008C249.74 133.078 249.74 133.088 252.29 131.718C252.59 131.558 253.1 131.368 253.29 131.508C255.13 132.868 257.5 131.658 259.46 132.888C260.57 133.588 262.22 133.358 263.57 133.748C264.66 134.068 265.64 134.758 266.7 135.198C269.47 136.338 272.22 137.528 274.83 138.978C275.76 139.488 276.58 140.208 277.34 141.068C277.94 141.738 278.67 143.288 280.22 142.768C282.04 144.088 283.85 145.408 285.67 146.728C285.54 148.238 286.43 147.238 286.98 147.348C289.96 147.958 296.98 151.338 298.71 153.158C299.73 154.228 300.3 155.708 301.14 156.958C302.38 158.788 303.53 160.668 304.66 162.578C305.55 164.088 305.71 165.648 306.13 167.208C306.37 168.118 306.41 169.078 306.62 169.988C306.85 170.998 306.89 172.298 307.54 172.918C308.35 173.678 306.71 174.748 308.08 175.108C307.92 175.528 307.82 176.278 307.58 176.328C306.35 176.588 307.15 178.708 305.54 178.478C303.84 178.238 305.07 179.268 304.91 179.748C304.38 181.408 303.79 183.048 303.61 184.798C303.45 186.348 302.09 187.318 301.7 188.868C301.18 190.958 300.07 192.908 299.12 194.868C298.83 195.458 298.29 196.198 297.74 196.318C296.26 196.658 297.09 197.618 296.95 198.618C298.19 198.618 299.4 198.558 300.6 198.638C301.58 198.698 302.58 199.128 303.53 199.028C304.65 198.908 305.86 197.888 306.8 198.148C308.11 198.498 309.01 198.558 310.3 197.968C311.4 197.468 312.9 198.098 314.08 197.168C314.33 196.978 315.14 197.128 315.41 197.408C316.16 198.168 317.14 198.068 317.83 197.818C320.65 196.818 323.43 196.718 326.24 197.728C327.56 196.268 328.72 198.158 330.05 197.928C331.5 197.678 333.04 197.988 334.51 197.848C337.33 197.578 340.03 198.308 342.78 198.618C343.46 200.128 344.44 198.018 345.45 198.878C346.13 199.458 347.71 198.918 348.52 199.438C349.56 200.108 350.57 200.218 351.61 200.068C352.67 199.918 353.69 201.968 354.73 200.108C355.5 201.298 356.87 200.458 357.72 200.958C358.67 201.508 359.66 201.038 360.61 201.538C361.49 201.998 362.84 201.118 363.64 202.308C364.2 201.468 364.65 202.168 365.26 202.268C367.13 202.588 369.14 201.938 370.91 203.098C372.57 202.108 374.19 203.398 375.9 203.158C378.77 202.758 381.48 203.738 384.12 204.848C385.11 205.268 386.23 205.068 387.27 205.688C388.33 206.318 389.78 206.268 390.86 206.878C392.12 207.588 393.38 207.498 394.68 207.608C395.09 207.638 395.46 208.098 395.87 208.318C396.38 208.588 397 209.138 397.41 209.018C400.24 208.208 402.36 210.658 405.01 210.598C405.4 210.588 405.79 211.078 406.2 211.288C407.75 212.058 409.25 213.248 410.87 213.438C412.85 213.668 413.82 215.278 415.5 215.868C417.1 216.438 418.84 217.008 420.04 218.408C420.18 218.578 420.43 218.748 420.63 218.758C421.78 218.808 423.15 218.388 423.32 220.218C424.56 220.008 425.4 220.658 426.13 221.538C427.7 220.608 428.47 222.308 429.45 222.808C430.54 223.378 431.95 223.878 432.69 224.798C433.82 226.178 435.46 226.668 436.8 227.508C438.3 228.448 439.82 229.278 441.14 230.508C441.69 231.018 442.59 231.168 443.35 231.438C443.68 231.558 444.15 231.428 444.39 231.618C445.53 232.518 446.5 234.078 447.73 234.288C449.45 234.588 449.92 236.118 451.23 236.708C452.49 237.278 453.57 238.248 454.77 238.968C456.77 240.158 458.05 242.518 460.7 242.668C461.94 244.528 463.76 245.698 465.61 246.858C466.71 247.548 467.6 248.698 468.77 249.148C470.47 249.808 470.74 251.778 472.55 252.478C473.95 253.018 474.79 254.938 475.98 256.148C476.78 256.958 477.71 257.648 478.66 258.278C480.2 259.298 481.37 260.658 482.6 261.998C483.91 263.418 485.58 264.518 486.9 265.938C488.29 267.438 490.12 268.518 490.96 270.588C491.25 271.308 492.54 271.568 493.08 272.268C494.02 273.498 495.35 274.328 496.13 275.768C496.92 277.218 498.13 278.458 499.25 279.698C500.42 280.988 501.87 282.048 502.89 283.428C505.56 287.038 508.8 290.138 511.61 293.608C513.47 295.918 515.2 298.328 516.98 300.708C517.33 301.178 517.54 301.788 517.97 302.148C521.62 305.208 523.96 309.308 526.63 313.128C527.92 314.978 529.19 316.808 530.57 318.588C533.22 322.018 536.21 325.208 537.91 329.338C539.18 332.438 541.02 335.278 542.68 338.188C544.15 340.758 544.98 343.688 546.07 346.468C546.2 346.788 546.01 347.348 546.2 347.518C548.42 349.378 548.4 352.358 549.81 354.618C551.22 356.888 552 359.428 553.04 361.858C553.22 362.278 553.58 362.748 553.51 363.138C553.13 365.308 554.61 366.548 555.78 367.958C555.78 369.698 555.78 371.438 555.78 373.178C554.79 374.548 553.5 375.808 552.88 377.328C552.23 378.928 550.84 379.688 549.89 380.918C549.75 381.098 549.53 381.348 549.34 381.358C546.7 381.528 544.03 381.528 541.65 380.218C540.91 379.808 539.96 379.178 540.09 377.918C540.2 376.908 539.5 376.418 538.25 374.848C537.88 374.618 537.79 375.118 537.91 375.558C537.97 375.798 538.37 375.958 538.62 376.148C538.86 375.758 539.34 375.318 539.27 375.008C539.17 374.598 538.63 374.298 538.25 374.848C538.37 376.798 537.89 377.458 537.93 378.078C538.01 379.338 537.6 380.388 537.16 381.508C536.74 382.578 536.81 383.918 536.19 384.818C535.29 386.128 534.04 387.238 532.79 388.258C532.11 388.818 531.13 389.008 530.27 389.338C530.12 389.398 529.77 389.318 529.77 389.278C529.62 387.478 528.3 387.388 526.94 387.168C526.56 387.108 525.93 386.428 525.99 386.148C526.46 383.688 524.1 382.168 523.92 379.888C523.6 381.238 523.44 382.658 522.92 383.938C521.97 386.258 520.9 388.588 518.53 389.878C517.63 390.368 516.64 390.728 515.66 391.048C515.42 391.128 514.79 390.798 514.79 390.668C514.8 389.898 514.57 389.568 513.74 389.568C511.29 389.588 510.2 388.128 509.48 385.948C508.43 382.778 507.27 379.648 506.28 376.448C505.76 374.758 505.98 373.008 505.14 371.328C504.33 369.718 504.37 367.678 503.95 365.328C503.06 366.938 502.27 368.158 501.7 369.478C501.31 370.388 500.82 370.948 499.88 371.288C498.48 371.808 497.19 372.608 495.78 373.078C494.07 373.648 488.12 371.908 488.1 370.588C488.07 368.448 486.02 367.978 485.63 366.318C485.26 364.748 484.72 363.218 484.15 361.718C483.74 360.648 483.22 359.608 482.65 358.608C481.61 356.798 480.5 355.008 479.41 353.258C477.96 350.938 477.01 348.018 474.01 346.958C473.53 345.188 471.97 344.288 470.83 343.058C469.73 341.868 468.47 340.838 467.44 339.598C466.49 338.458 464.92 338.058 464.21 336.538C463.89 335.848 462.72 335.508 461.88 335.128C459.47 334.048 457.33 332.608 455.51 330.698C453.36 328.448 450.64 326.998 448.05 325.338C446.27 324.188 444.42 323.268 442.51 322.468C440.6 321.678 439 320.098 436.76 320.148C434.33 317.848 431.17 316.858 428.27 315.438C423.81 313.258 419.09 311.778 414.31 310.378C411.69 309.608 409.01 308.848 406.45 307.778C405.4 307.338 404.48 306.478 403.13 306.708C402.69 306.788 402.14 306.188 401.63 305.908C401.23 305.688 400.81 305.288 400.4 305.298C397.86 305.368 395.6 304.238 393.19 303.738C391.17 303.318 389.13 302.738 387.25 301.898C385.34 301.048 383.41 300.348 381.39 299.818C381.18 299.768 381.03 299.478 380.61 299.058C380.56 300.108 380.17 301.178 380.55 301.688C381.38 302.818 381.16 303.978 381.23 305.158C381.29 306.098 380.93 307.088 381.89 307.898C382.14 308.108 381.85 309.018 381.72 309.598C381.62 310.038 381.22 310.468 381.25 310.878C381.57 315.658 380.05 320.318 380.41 325.118C380.55 326.978 379.88 328.878 379.75 330.778C379.63 332.638 380.18 334.658 379.62 336.338C378.53 339.618 379.22 342.878 378.98 346.138C378.82 348.288 379.04 350.398 378.32 352.578C377.65 354.598 378.46 356.878 377.88 359.098C377.54 360.378 377.88 362.188 378.59 363.318C379.93 365.428 379.71 367.838 380.36 370.048C380.7 371.198 380.55 372.428 381.66 373.258C381.82 373.378 381.96 373.678 381.94 373.868C381.63 376.898 382.61 379.998 381.46 382.988C381.29 383.418 381.06 384.058 381.24 384.348C382.56 386.398 381.7 388.638 381.95 390.778C382.08 391.868 382.29 392.958 382.29 394.048C382.29 395.118 381.6 396.498 382.06 397.178C382.73 398.178 381.96 399.138 382.58 400.128C382.98 400.778 382.79 402.098 382.26 403.238C381.68 404.468 381.91 406.118 381.98 407.578C382.06 409.288 381.8 410.918 381.19 412.488C380.71 413.718 380.59 414.988 380.4 416.278C379.92 419.528 379.55 422.768 379.72 426.048C378.39 428.188 379.18 430.558 378.98 432.828C378.83 434.608 379.25 436.398 378.31 438.158C377.94 438.858 378.61 440.048 378.6 441.018C378.59 442.078 378.27 443.138 378.24 444.208C378.18 446.938 378.23 449.678 378.22 452.418C378.22 453.198 376 455.478 375.59 455.128C373.96 453.738 374.1 456.138 373.18 456.168C373.24 456.838 373.11 457.608 373.39 458.168C374.07 459.518 375.05 460.708 375.7 462.068C376.44 463.618 376.56 465.668 377.68 466.778C379.04 468.128 378.64 470.378 380.47 471.278C380.77 474.168 382.51 476.238 384.43 478.228C384.66 478.468 384.99 478.888 384.92 479.118C384.39 480.858 386.3 480.458 386.77 481.298C388.37 480.838 388.91 482.258 389.22 483.138C389.6 484.178 390.04 484.308 390.97 484.408C391.4 484.458 391.74 485.278 392.13 485.738C393.19 484.358 393.54 485.918 393.93 486.308C394.37 486.758 394.43 487.568 394.66 488.218C394.95 489.048 395.44 488.968 396.05 488.558C396.26 488.418 396.58 488.358 396.83 488.388C397.97 488.528 398.19 489.888 398.99 490.218C399.92 490.608 401.11 490.078 401.97 491.198C402.49 491.878 405.91 492.238 406.76 492.008C407.43 491.818 410.8 491.738 411.65 491.778C412.52 491.828 412.8 491.538 412.03 490.828C411.98 490.778 412.22 490.208 412.44 490.088C415.67 488.258 417.97 485.208 421.26 483.478C421.76 481.058 424.33 480.258 425.37 478.098C426.33 476.108 428.49 474.818 429.74 472.818C432.1 469.038 434.6 465.348 437.22 461.738C439.33 458.838 441.69 456.118 443.95 453.328C445 452.018 446.06 450.728 447.11 449.418C448.08 448.208 448.86 446.728 450.07 445.848C451.09 445.108 449.71 443.448 451.47 443.268C452.91 443.118 451.95 441.698 452.51 440.878C454.25 438.358 456.3 436.378 459.06 435.078C460.18 434.558 460.96 433.278 460.13 432.458C458.83 431.168 460.42 430.538 460.34 429.598C460.27 428.728 459.85 427.498 461.52 427.548C461.45 427.288 461.37 427.018 461.3 426.758C461.22 426.428 461.02 425.828 461.1 425.788C462.71 424.938 462.32 422.998 463.29 421.808C463.49 421.558 463.6 420.958 463.74 420.968C464.34 420.998 464.93 421.178 465.52 421.308C465.29 420.798 464.72 420.038 464.88 419.818C465.53 418.918 466.39 418.178 467.22 417.428C467.3 417.348 467.71 417.718 467.99 417.768C468.86 417.918 470 418.608 470.06 416.838C470.06 416.698 470.65 416.488 470.97 416.468C471.96 416.418 472.96 416.378 473.95 416.468C474.76 416.548 476.08 415.818 476.1 417.598C476.1 417.718 477.17 417.858 477.75 417.928C478.59 418.028 479.88 417.738 480.2 418.188C481.44 419.888 484.18 419.438 484.94 421.668C484.06 421.688 483.97 422.418 484.3 422.818C484.84 423.518 485.53 423.568 485.73 422.518ZM34.05 142.068C34.52 139.838 36.6 138.218 36.59 135.628C38.63 133.788 37.56 130.678 39.6 128.848C38.77 128.158 38.19 127.508 37.46 127.088C35.33 125.848 33.83 123.678 31.35 122.968C27.29 119.358 24.66 117.908 20.11 116.108C18.83 115.598 18.31 116.358 18.1 116.918C17.74 117.878 17.59 119.038 18.59 119.918C19.77 120.948 20.39 122.298 21.05 123.728C21.81 125.398 22.78 127.008 24.05 128.468C25.97 130.658 27.71 133.098 29.01 135.698C29.83 137.338 30.7 138.788 32 140.038C32.6 140.608 33.18 141.218 33.86 141.798C32.2 142.938 30.97 142.628 29.36 142.198C26.27 141.368 26.14 141.728 25.54 141.028C24.38 139.658 23.27 138.238 22.11 136.868C19.98 134.378 17.15 132.748 14.66 130.708C13.38 129.668 11.82 129.578 10.64 128.588C10.51 128.478 9.86 128.728 9.75 128.948C9.63 129.188 9.87 129.888 9.97 129.888C11.52 129.948 11.85 131.218 12.27 132.258C13.55 135.498 15.35 138.468 17.21 141.368C19.85 145.478 22.26 149.828 26.25 152.878C27.38 153.738 27.63 154.918 27.88 156.408C29.68 151.288 32.45 146.958 34.05 142.068ZM339.23 292.298C340.1 291.788 340.64 291.538 341.1 291.188C341.73 290.708 342.36 290.958 343.03 290.948C343.89 290.928 344.71 290.238 345.59 289.998C346.39 289.788 347.25 289.768 348.09 289.708C351.1 289.488 354.16 290.208 357.13 289.008C357.81 288.738 359.46 289.088 359.48 289.268C359.68 291.248 361.13 290.298 362.02 290.408C363.12 290.548 364.3 290.238 365.36 290.498C366.34 290.738 367.2 290.938 368.11 290.438C369.49 292.138 371.53 290.748 373.25 291.548C374.86 292.298 376.82 292.588 378.74 292.758C380.78 292.938 382.62 294.318 384.79 294.338C384.87 294.338 384.91 294.768 385.03 294.958C385.17 295.158 385.52 295.488 385.56 295.458C388.06 293.718 390.42 296.328 392.86 295.678C393.77 297.008 394.43 295.798 394.66 295.278C396.48 291.258 398.97 287.608 401.18 283.828C403.13 280.478 403.7 276.608 405.91 273.448C405.28 271.248 407.71 269.838 407.4 267.728C408.93 266.078 408.8 263.808 409.39 261.848C410.43 258.408 411.36 254.908 412 251.328C412.3 249.658 412.48 247.898 413.09 246.218C413.76 244.358 414.23 242.228 414 240.308C413.74 238.098 415.83 236.088 414.31 233.908C415.96 231.308 414.03 228.798 414.06 226.238C414.06 226.008 413.47 225.678 413.1 225.548C410.18 224.488 407.33 223.218 404.48 222.048C400.01 220.198 395.41 218.738 390.92 216.968C386.75 215.328 382.64 213.468 378.25 212.428C377.23 212.188 376.22 211.928 375.22 211.638C372.45 210.818 369.75 209.658 366.92 209.208C363.65 208.678 360.35 207.908 357.1 207.788C353.22 207.648 349.57 206.558 345.81 206.018C344.33 205.808 342.74 205.718 341.3 205.268C338.92 204.528 336.47 204.248 334.03 203.938C332.56 203.748 331.05 203.908 329.56 203.908C328.19 203.908 326.82 203.908 325.46 203.908C323.97 203.908 322.33 204.298 321.02 203.808C319.56 203.248 318.4 203.968 317.12 203.978C313.74 204.028 310.28 203.278 306.98 204.658C300.09 204.088 293.28 205.738 286.4 205.418C284.91 205.348 283.23 204.968 281.97 205.518C280.4 206.198 278.91 205.998 277.38 206.168C275.86 206.338 274.36 206.738 272.84 206.878C269.59 207.188 266.33 207.398 263.08 207.638C262.83 207.658 262.46 207.538 262.35 207.658C261.14 209.038 259.55 208.128 258.16 208.388C256.77 208.648 255.38 209.088 253.99 209.098C250.73 209.108 247.85 210.458 244.86 211.408C243.72 211.768 242.67 212.138 241.43 212.168C239.54 212.218 237.64 212.538 235.78 212.898C235.02 213.038 234.36 213.668 233.6 213.908C230.52 214.878 227.62 216.298 224.6 217.408C221.59 218.508 218.41 219.608 215.86 221.428C212.32 223.958 207.82 224.948 204.9 228.408C204.73 228.608 204.18 228.418 203.85 228.548C201.07 229.638 198.12 230.448 195.56 231.928C191.57 234.228 187.64 236.688 184.33 240.008C183.26 241.078 181.95 242.348 180.59 242.568C178.97 242.838 178.19 244.008 177.7 244.868C176.81 246.438 174.82 246.828 174.27 248.588C174.17 248.908 173.81 249.248 173.49 249.368C171.29 250.178 170.01 252.198 168.09 253.408C166.17 254.618 164.49 256.258 162.84 257.848C159.53 261.048 156.3 264.318 153.07 267.598C151.55 269.138 149.81 270.318 147.89 271.298C145.63 272.448 143.25 273.498 141.24 275.028C137.63 277.778 133.54 278.858 129.17 279.258C127.4 279.418 126.95 279.868 126.83 281.688C126.62 284.698 126.56 287.738 126 290.688C125.71 292.218 125.45 293.828 124.68 295.348C123.79 297.088 123.09 299.118 124.41 301.118C124.57 301.368 124.63 301.968 124.48 302.088C123.39 302.978 124.06 304.168 123.84 305.198C123.63 306.218 123.22 307.218 123.13 308.248C122.93 310.638 123.11 312.998 122.48 315.428C121.9 317.638 122.28 320.128 122.39 322.478C122.45 323.748 122.74 325.048 123.14 326.258C123.41 327.068 123.88 328.068 124.55 328.428C125.54 328.958 126.78 329.088 127.93 329.228C130.31 329.518 132.8 328.648 135.09 329.968C135.36 330.128 136.01 330.118 136.15 329.938C137.01 328.788 138.34 329.658 139.21 329.188C140.31 328.598 140.87 330.358 142.09 329.438C142.81 328.898 144.23 329.258 145.34 329.258C146.09 329.258 146.66 328.908 147.32 328.638C149.13 327.888 151.08 327.498 152.99 327.028C155.74 326.348 158.62 326.278 161.27 325.078C161.83 324.828 162.6 325.028 163.27 325.048C163.54 325.058 163.91 325.298 164.04 325.188C166.24 323.458 168.97 323.278 171.49 322.428C174.15 321.538 177.09 322.098 179.61 320.378C180.94 319.468 182.87 321.288 184.53 320.298C184.8 321.278 185.06 322.268 185.36 323.248C185.49 323.688 185.66 324.128 185.89 324.518C186.11 324.868 186.65 325.018 186.1 325.608C185.75 325.978 185.89 326.098 186.5 328.188C186.53 328.298 186.53 328.438 186.5 328.558C186.14 330.268 186.04 332.098 185.35 333.678C184.19 336.328 183.57 339.068 183.62 341.868C183.64 343.038 182.28 344.168 183.48 345.338C182.09 346.538 183.37 348.308 182.7 349.478C182.09 350.538 181.84 351.578 182.11 352.558C182.42 353.668 181.43 354.358 181.67 355.458C181.89 356.478 181.39 357.638 181.32 358.738C181.25 359.848 181.34 360.978 181.29 362.098C181.25 363.058 181.47 364.498 180.96 364.878C179.65 365.838 181.88 366.848 180.68 367.568C181.93 369.718 181.12 372.058 181.26 374.298C181.3 374.918 180.61 375.578 180.61 376.228C180.61 376.868 181.15 377.498 181.28 378.158C181.73 380.388 180.94 382.618 181.89 384.998C182.68 386.978 182.06 389.458 182.7 391.738C183.19 393.518 182.79 395.378 184.18 397.148C185.42 398.708 184.98 401.048 185.07 403.098C185.25 407.228 187.02 410.638 190.29 413.218C190.55 413.418 190.92 413.488 191.26 413.568C193.49 414.108 195.72 414.508 198.04 414.338C199.28 414.248 200.53 414.318 201.77 414.318C203.01 414.318 204.26 414.378 205.5 414.298C206.61 414.228 207.9 413.558 208.76 413.948C210.01 414.508 211.16 414.228 212.34 414.288C214.2 414.378 216.1 414.528 217.92 414.248C219.6 413.988 221.29 413.788 222.98 413.608C224.82 413.408 226.71 413.568 228.57 413.568C228.82 413.568 229.18 413.678 229.3 413.548C230.41 412.398 231.83 412.988 233.11 412.808C234.51 412.608 235.93 411.978 237.27 412.148C239.89 412.468 242.27 411.368 244.79 411.188C245.7 411.128 246.86 410.348 247.83 410.658C248.75 410.948 249.41 409.198 250.25 410.518C251.1 409.608 252.53 410.268 253.2 409.748C254.26 408.928 255.45 409.518 256.28 409.028C257.9 408.068 259.74 408.228 261.39 407.908C264.15 407.368 266.65 405.708 269.64 406.048C270.61 406.158 271.66 405.418 272.68 405.408C273.71 405.398 274.7 403.638 275.76 405.278C276.04 404.808 276.34 403.908 276.6 403.928C279.05 404.058 281.19 403.088 283.48 402.488C286.28 401.748 289.05 400.898 291.84 400.128C294.73 399.328 297.92 399.408 300.32 397.178C300.45 397.058 300.8 397.148 301.05 397.158C303.1 397.218 304.92 396.278 306.86 395.908C308.74 395.548 310.39 394.068 312.47 394.698C313.69 393.308 315.55 393.718 317.03 393.098C318.51 392.478 319.93 391.688 321.39 391.018C321.91 390.778 322.46 390.558 323.02 390.458C325.67 389.998 327.76 387.958 330.52 387.848C332.08 386.148 334.87 386.538 336.21 384.478C337.49 384.678 338.61 384.028 339.42 383.298C340.34 382.478 341.23 382.308 342.36 382.178C343.44 382.048 343.7 380.608 344.82 380.198C346.89 379.448 348.7 378.148 350.61 377.058C356.22 373.858 361.93 370.808 367.69 367.878C370.16 366.618 372.38 365.498 371.58 362.108C371.43 361.488 372.68 360.788 371.55 360.118C372.3 357.908 373.14 355.708 372.5 353.298C373.57 351.598 373 349.798 372.78 348.028C372.75 347.758 372.57 347.488 372.6 347.238C372.72 346.178 372.95 345.128 373.02 344.068C373.1 342.958 372.99 341.828 373.05 340.708C373.1 339.868 373.17 338.998 373.43 338.198C373.7 337.388 373.14 336.668 373.49 335.788C373.87 334.818 373.94 333.598 373.74 332.558C373.18 329.628 375.77 326.748 373.79 323.838C373.75 323.788 373.83 323.588 373.91 323.528C375.03 322.668 374.59 321.418 374.45 320.428C374.28 319.268 374.73 318.198 374.92 317.218C375.34 315.088 375.09 312.988 375.3 310.898C375.4 309.868 376.05 308.838 375.96 307.858C375.79 306.008 375.22 304.198 374.89 302.358C374.73 301.458 374.65 300.508 374.73 299.598C374.83 298.528 374.51 297.668 373.55 297.168C373.38 297.078 368.37 295.658 368.2 295.678C364.54 296.168 361.27 293.978 357.66 294.108C356.57 292.828 354.97 293.948 353.87 293.378C352.48 292.658 351.1 292.708 349.67 292.698C347.68 292.678 345.69 292.648 343.7 292.718C343.08 292.738 342.45 293.238 341.86 293.178C341.12 293.108 340.37 292.698 339.23 292.298ZM273.99 466.878C270.96 462.628 268.21 458.498 265.18 454.588C262.7 451.388 260.75 447.808 257.85 444.918C257.02 444.088 256.42 443.038 255.72 442.078C255.02 441.128 254.38 440.118 253.59 439.248C253.1 438.708 252.91 438.398 253.58 437.898C254.21 437.438 254.77 436.918 255.19 438.098C255.3 438.398 255.48 438.848 255.7 438.898C260.06 439.928 263.11 442.918 266.18 445.848C268.7 448.258 271.25 450.648 272.85 453.888C273.37 454.948 274.61 455.618 275.41 456.568C276.17 457.468 277.26 458.018 277.66 459.368C277.94 460.308 279.19 460.938 279.89 461.798C280.64 462.708 282.02 463.158 282.04 464.628C283.56 464.838 283.42 466.198 283.82 467.188C285.59 467.138 285.08 468.868 285.77 469.678C286.54 470.588 287.4 471.468 287.99 472.488C289.89 475.778 291.75 479.078 294.59 481.678C295.48 482.488 295.8 483.788 296.96 484.378C297.18 484.488 297.29 484.838 297.44 485.078C297.99 484.618 298.53 484.118 299.11 483.698C299.73 483.248 299.86 484.398 300.87 484.068C303.73 483.128 306.58 482.288 309.22 480.788C311.02 479.768 313.4 480.108 314.97 478.468C316.78 478.818 318.15 477.638 319.54 476.918C322.53 475.368 325.71 474.378 328.86 473.288C333.11 471.818 337.06 469.678 341.23 468.018C342.09 466.508 344.03 466.888 345.16 465.768C345.99 464.948 346.99 464.258 348 463.648C350.28 462.278 352.64 461.038 354.92 459.668C356.82 458.528 358.73 457.378 360.5 456.058C362.2 454.798 364.5 454.288 365.86 452.958C367.48 451.368 369.68 451.028 371.27 449.498C371.91 448.878 372.71 448.988 371.98 447.838C371.63 447.288 371.61 446.468 371.6 445.778C371.56 443.168 371.55 440.558 371.6 437.948C371.61 437.258 371.81 436.558 372.02 435.898C372.89 433.278 371.68 430.458 372.81 427.858C371.84 427.068 372.43 426.008 372.35 425.078C372.26 424.018 372.32 423.018 372.97 421.968C373.3 421.438 372.08 419.908 372.42 419.418C373.53 417.788 372.98 416.088 373.04 414.448C373.08 413.298 373.57 411.958 372.38 411.008C374.27 408.758 371.95 405.748 373.76 403.388C374.12 402.918 373.65 401.778 373.51 400.958C373.44 400.528 373.08 399.798 373.19 399.728C374.43 398.928 373.05 397.768 373.33 397.418C374.2 396.358 373.69 395.268 373.79 394.228C373.91 392.998 373.4 391.528 373.92 390.558C374.64 389.188 373.49 388.198 373.81 387.018C374.11 385.898 374.42 384.748 374.54 383.598C374.66 382.368 374.53 381.108 374.6 379.878C374.62 379.578 375.09 379.328 375.16 379.008C375.29 378.418 375.53 377.638 375.27 377.228C374.22 375.568 374.77 373.708 374.45 371.788C373.92 371.788 373.39 371.638 372.99 371.808C370.24 372.998 367.48 374.238 364.98 375.858C361.08 378.378 356.86 380.308 352.82 382.578C351.23 383.468 349.62 384.418 347.94 385.178C346.24 385.958 344.69 387.028 343.06 387.828C340.06 389.308 337.46 391.558 334.16 392.428C333.38 392.628 332.62 392.908 331.88 393.218C328.81 394.518 325.83 396.058 322.68 397.088C319.4 398.158 316.32 399.868 312.83 400.358C311.48 400.548 310.22 401.458 308.88 401.558C307.05 401.688 305.8 403.058 303.92 403.238C301.08 403.518 298.3 404.558 295.52 405.378C294.32 405.738 293.22 406.438 292.02 406.818C290.9 407.168 289.67 406.408 288.5 407.378C287.65 408.088 286.11 407.168 285.17 408.318C284.47 409.178 283.3 408.698 282.36 408.978C278.58 410.088 274.76 411.268 270.92 411.888C267.78 412.398 264.85 414.258 261.51 413.578C259.34 414.928 256.78 414.748 254.44 415.418C252.03 416.108 249.63 416.828 247.07 416.538C245.53 417.868 243.48 416.738 241.91 417.568C240.12 418.508 238.29 417.758 236.5 418.038C236.04 418.108 235.59 418.248 235.13 418.318C234.08 418.478 233.01 418.588 231.96 418.788C230.81 418.998 229.68 419.318 228.53 419.498C228.24 419.548 227.9 419.238 227.57 419.148C227.15 419.048 226.49 418.798 226.34 418.968C225.4 420.018 224.22 419.458 223.19 419.488C219.99 419.568 216.78 419.518 213.14 419.518C214.26 422.798 214.92 425.858 215.18 429.018C215.37 431.328 216.56 433.538 216.39 435.938C216.13 439.648 216.69 443.308 217.22 446.938C217.57 449.348 218.61 451.678 218.62 454.158C218.64 456.568 219.61 458.718 220.2 460.968C220.37 461.638 220.82 462.268 220.85 462.928C220.99 465.938 222.76 468.368 223.62 471.118C225.14 471.768 224.12 473.718 225.36 474.498C224.63 476.258 226.8 476.758 226.98 478.338C227.23 480.588 228.47 482.678 229.85 484.568C229.98 484.738 230.33 484.938 230.47 484.878C233.13 483.658 236.1 483.508 238.81 482.508C241.72 481.428 244.56 480.218 247.33 478.728C249.08 477.788 251.02 476.868 252.99 476.248C254.98 475.628 256.87 474.708 258.8 474.098C261.5 473.258 263.72 471.508 266.35 470.698C269.13 469.858 271.23 467.808 273.99 466.878ZM503.96 497.078C505.59 495.828 505.94 494.258 505.88 492.488C505.82 490.378 506.05 488.238 505.81 486.158C505.61 484.458 505.48 482.618 504.42 481.168C503.26 479.568 502.09 476.618 501.34 474.228C500.35 471.038 499.4 467.808 498.54 464.598C497.9 462.228 496.86 460.048 496.1 457.758C494.83 453.948 493.69 450.068 491.69 446.538C490.95 445.238 489.91 443.978 489.74 442.518C489.41 439.678 486.95 437.968 486.26 435.368C484 434.118 484.47 431.928 484.15 429.878C483.77 427.478 482.76 425.348 480.33 423.938C478.08 422.628 475.61 422.048 473.27 421.168C471.57 420.528 469.58 420.898 468.2 423.108C466.64 425.608 465.54 428.038 465.57 430.988C465.59 432.838 464.78 435.488 463.8 435.768C462.68 436.088 462.59 436.588 462.57 437.518C462.56 438.068 462.34 438.698 462.01 439.128C460.03 441.678 457.7 444.008 456.04 446.748C454.1 449.958 451.11 452.318 449.52 455.898C448.48 458.248 446.58 460.368 445.18 462.678C444.33 464.078 443.52 465.558 442.42 466.738C440.46 468.848 439.99 471.828 437.98 473.868C438.17 475.078 436.89 474.508 436.54 475.068C436.11 475.758 435.73 476.498 435.21 477.128C433.84 478.808 432.53 480.568 430.98 482.078C427.73 485.228 424.88 488.808 421.05 491.358C419.56 492.348 418.41 494.168 416.82 494.618C415.1 495.108 413.71 496.168 412.09 496.768C410.75 497.258 409.5 496.798 408.23 497.338C406.06 498.268 403.74 498.808 401.31 498.648C399.83 498.548 398.31 498.468 396.84 498.668C394.33 499.018 392.38 497.568 390.74 496.328C388.14 494.378 385.79 491.968 384.07 489.098C383.35 487.908 382.71 486.668 381.95 485.508C378.51 480.268 375.78 474.698 373.8 468.738C372.74 465.528 371.28 462.498 369.05 459.888C368.5 459.238 368.22 459.148 367.41 459.768C366.14 460.738 364.6 461.348 363.15 462.058C358.56 464.328 354.57 467.578 350.04 469.988C347.2 471.508 344.29 472.968 341.47 474.558C338.57 476.188 335.28 476.988 332.28 478.468C330.01 479.588 327.62 480.418 325.23 481.258C323.19 481.978 321.12 482.848 319.1 483.528C316.81 484.298 314.81 485.928 312.26 485.998C311.9 486.008 311.51 486.618 311.24 487.028C311.19 487.118 311.63 487.548 311.88 487.788C312.66 488.558 313.03 489.598 314.16 490.208C315.1 490.718 315.59 492.038 316.34 492.958C316.54 493.198 316.97 493.218 317.26 493.408C317.78 493.748 322.09 499.228 322.57 499.948C323.22 500.928 323.92 501.898 324.68 502.798C325.32 503.558 326.26 504.108 326.75 504.938C329.99 510.468 334.52 514.958 338.69 519.728C341.49 522.928 344.84 525.618 347.97 528.498C351.4 531.668 355.57 533.658 359.22 536.468C361.65 538.338 364.8 539.138 367.58 540.528C368.92 541.198 370.32 542.248 371.59 542.488C374.83 543.098 377.99 544.188 381.39 544.178C386.76 544.158 392.12 544.118 397.29 542.568C398.9 542.088 400.59 542.208 402.09 541.578C406.69 539.668 411.26 537.668 415.2 534.508C416 533.868 417.23 532.818 417.85 533.058C419.73 533.758 418.87 531.178 420.2 531.428C421.72 531.718 422.22 530.268 423.12 529.518C423.88 528.878 424.5 528.078 425.25 527.438C426.32 526.528 427.5 525.738 428.57 524.828C429.66 523.898 430.68 522.928 431.9 522.118C433.13 521.298 433.76 519.628 434.89 518.588C437.39 516.288 438.89 513.238 440.92 510.598C442.81 508.138 444.22 505.298 445.78 502.578C447.51 499.568 449.42 496.648 450.94 493.518C452.4 490.518 454.07 487.618 455.53 484.618C456.32 482.988 457.52 481.498 458.15 479.728C458.76 477.988 459.7 476.378 460.48 474.738C462.07 471.408 462.97 467.808 464.81 464.578C465.78 462.868 466.9 461.148 467.64 459.418C468.34 457.788 469.45 456.448 470.08 454.838C470.71 453.228 471.95 452.128 473.08 450.928C473.36 450.638 473.69 450.398 474 450.138C474.19 450.518 474.6 450.948 474.53 451.278C474.06 453.558 473.54 455.828 472.92 458.068C472.82 458.418 472.14 458.608 471.73 458.868C473.12 459.658 471.05 460.088 471.53 460.948C472.05 461.888 471.24 462.748 470.83 463.598C470.48 464.328 470.04 465.018 469.77 465.768C469.18 467.418 468.37 469.008 468.57 470.878C468.74 472.478 468.36 473.788 467.26 475.218C466.48 476.228 465.47 477.638 465.53 479.338C465.55 479.998 464.8 480.588 465.74 481.288C468.09 483.018 468.77 485.538 468.55 488.298C468.41 490.168 469.16 491.758 469.72 493.418C470.15 494.688 470.91 495.788 472.15 496.378C473.3 496.938 474.49 497.628 475.86 496.958C475.92 496.858 476.05 496.758 476.04 496.668C475.95 495.378 476.3 494.078 475.37 492.828C474.87 492.168 475.4 491.128 476.24 490.678C476.55 490.508 477.37 490.588 477.45 490.778C478.3 492.738 480.6 493.288 481.55 495.348C482.22 496.808 483.86 497.998 485.52 498.948C486.89 499.728 487.59 499.088 487.84 498.338C488.5 496.358 489.8 494.718 490.37 492.648C490.8 491.098 491.14 490.148 489.89 488.868C489.02 487.978 488.51 486.668 488.74 485.268C488.9 484.278 489.52 484.128 490.56 484.368C492.3 484.768 493.56 485.788 494.67 487.048C496.02 488.588 497.25 490.228 498.65 491.728C500.31 493.518 502.12 495.238 503.96 497.078ZM496.38 345.038C498.31 346.358 500.62 347.308 501.33 349.758C501.79 351.318 502.86 352.368 503.69 353.648C505.65 356.638 507.23 359.858 508.11 363.368C509.18 367.648 510.29 371.908 511.4 376.178C511.51 376.618 511.82 377.048 511.82 377.488C511.82 379.928 512.92 381.958 513.95 384.078C514.48 385.178 515.13 385.608 516.06 386.178C516.83 386.648 517.28 386.448 517.38 385.948C517.81 383.778 519.72 382.068 519.32 379.648C519.24 379.168 519.1 378.408 519.34 378.198C520.51 377.188 519.51 375.598 520.15 374.818C520.9 373.898 519.92 373.078 520.62 372.218C521.51 371.128 520.02 370.088 520.02 368.888C520.01 365.898 518.94 363.188 517.46 360.638C517.11 360.028 516.8 359.458 517.47 359.138C517.92 358.928 519.13 359.278 519.12 359.338C519.05 360.708 520.4 360.888 521.02 361.048C522.87 361.538 523.23 363.058 523.75 364.408C524.84 367.188 525.68 370.078 526.79 372.848C527.91 375.628 528.19 378.658 529.65 381.378C530.2 382.408 530.12 383.788 531.38 384.448C532.02 383.388 532.7 382.358 533.27 381.258C533.48 380.858 533.45 380.328 533.47 379.858C533.53 378.668 533.54 377.578 534.1 376.378C534.49 375.538 533.44 374.128 533.54 373.018C533.7 371.248 532.83 369.788 532.47 368.198C531.96 365.948 530.86 363.798 531.43 361.098C532.03 361.398 532.45 361.548 532.81 361.788C534.09 362.608 535.26 363.708 536.65 364.218C537.62 364.578 538.56 364.708 538.67 365.868C538.78 366.998 541.48 367.428 539.52 369.078C539.65 369.228 539.77 369.398 539.93 369.528C541.03 370.428 543.04 372.918 543.82 374.258C544.29 375.068 544.79 375.888 545.41 376.578C546.08 377.308 546.92 377.248 547.67 376.598C549.58 374.948 550.19 371.328 549.18 368.858C548.62 367.478 547.83 366.248 547.5 364.678C547.06 362.608 545.82 360.658 544.69 358.788C543.94 357.558 543.12 356.468 543.14 354.928C543.15 354.418 542.63 353.918 542.36 353.408C541.88 352.488 541.36 351.588 540.96 350.628C540.07 348.508 539.39 346.298 538.38 344.238C536.55 340.508 534.44 336.928 532.64 333.188C530.68 329.128 527.84 325.668 525.15 322.138C522.48 318.638 519.68 315.188 517.2 311.568C516.06 309.908 514.44 308.698 513.51 306.798C512.59 304.908 510.95 303.278 509.36 301.818C506.49 299.178 504.98 295.508 502.17 292.828C500.68 291.408 499.27 289.858 498.08 288.188C495.28 284.228 491.64 281.018 488.59 277.278C487.96 276.508 486.69 275.918 486.6 275.148C486.42 273.628 484.71 274.138 484.44 273.088C484.01 271.398 482.2 270.968 481.45 269.868C480.54 268.538 479.58 267.168 478.35 266.408C475.78 264.828 474.04 262.448 471.86 260.518C469.49 258.418 467.33 256.028 464.74 254.248C459.49 250.638 454.43 246.778 449.22 243.118C445.7 240.648 442.17 238.038 437.91 237.148C435.52 236.648 433.52 235.448 431.65 234.268C430.04 233.258 428.41 232.468 426.68 231.788C425.59 231.358 424.5 231.138 423.55 230.258C422.79 229.558 421.49 229.438 420.07 228.938C420.07 232.088 420.07 234.788 420.07 237.498C420.07 238.248 420.29 239.078 420.03 239.718C418.67 243.148 418.66 246.858 418 250.398C417.42 253.518 417.06 256.718 416.29 259.808C415.88 261.478 416.02 263.378 414.82 264.778C413.53 266.278 414.34 268.188 413.59 269.878C413 271.218 412.24 272.568 411.88 274.008C411.43 275.818 410.64 277.488 410.08 279.228C409.51 281.008 408.97 282.748 407.91 284.308C407.71 284.598 407.44 284.888 407.39 285.208C407.09 287.108 406.1 288.688 405 290.188C403.15 292.728 401.25 295.228 399.34 297.788C399.96 297.868 400.6 297.828 401.12 298.048C401.54 298.228 401.79 298.908 402.2 299.018C402.61 299.128 403.22 298.558 403.59 298.688C405.93 299.528 408.47 299.628 410.75 300.348C414.67 301.588 418.62 302.938 422.25 304.968C422.96 305.358 423.67 306.058 424.39 306.058C426.97 306.078 429 307.608 431.28 308.398C433.55 309.188 435.73 310.268 437.88 311.358C440.15 312.508 442.46 313.648 444.51 315.128C446.05 316.238 447.87 316.648 449.41 317.818C451.79 319.638 454.54 320.978 457.13 322.528C457.63 322.828 458.2 323.048 458.61 323.438C460.75 325.518 462.8 327.688 464.97 329.738C467.04 331.688 468.64 334.058 470.91 335.868C471.81 336.578 472.6 337.738 473.61 338.298C474.92 339.018 474.6 341.148 476.43 341.228C477.06 342.858 478.8 343.348 479.84 344.598C482.71 348.038 484.77 352.008 487.18 355.748C488.05 357.098 489.25 358.578 489.31 360.038C489.38 362.068 491.26 363.368 490.94 365.388C492.33 365.818 491.92 367.948 493.83 368.128C495.97 368.338 497.05 366.758 498.56 365.958C499.77 365.308 499.05 363.928 499.12 362.878C499.23 361.268 499.17 359.648 499.14 358.028C499.13 357.438 499.2 356.698 498.88 356.288C497.89 354.968 497.5 353.548 497.63 351.928C497.66 351.608 497.54 351.158 497.31 350.958C495.4 349.228 495.66 347.188 496.38 345.038ZM121.98 278.718C119.74 278.288 117.94 279.028 116.48 277.778C113.58 277.848 111.48 276.018 109.2 274.648C106.85 273.228 104.26 271.958 102.73 269.628C99.73 265.058 96.37 260.708 94.01 255.728C92.58 252.708 91.36 249.498 89.42 246.838C86.5 242.828 85.06 238.178 82.87 233.858C82.36 232.848 82.43 231.568 82.06 230.468C81.69 229.388 80.99 228.418 80.62 227.338C80.24 226.238 80.41 224.818 79.77 223.988C78.89 222.858 79.38 221.648 78.95 220.568C78.53 219.498 77.86 218.488 77.67 217.388C77.5 216.418 77.26 215.448 77.21 214.428C77.08 211.878 75.92 209.498 75.25 207.048C74.49 204.248 74.31 201.338 73.21 198.588C72.31 196.338 72.06 193.828 71.66 191.398C71.41 189.888 71.68 188.378 70.99 186.818C70.41 185.498 71.25 183.698 70.14 182.328C70.36 178.048 68.88 173.878 69.4 169.588C69.49 168.858 69.79 168.138 69.78 167.418C69.77 166.608 69.2 165.678 69.44 164.998C71.13 160.318 71.09 155.308 72.28 150.528C72.83 148.298 72.39 145.828 72.37 143.468C72.35 141.918 71.35 140.598 71.53 138.918C71.62 138.068 70.56 137.138 70.16 136.178C69.59 134.798 69.04 133.388 68.67 131.948C68.05 129.518 66.37 127.698 65.22 125.578C62.23 124.088 59.26 122.558 56.23 121.158C55.92 121.018 55.18 121.588 54.75 121.958C54.11 122.508 54.57 122.958 54.95 123.498C55.61 124.438 56.34 125.428 56.65 126.508C57.1 128.088 57.16 129.778 57.46 131.398C57.63 132.308 58.17 133.188 58.14 134.068C58.09 135.228 58.62 136.248 58.6 137.428C58.58 138.608 59.37 139.798 59.82 140.978C60.74 143.438 62.16 145.768 61.88 148.778C60.5 148.498 58.95 149.318 58.64 147.258C56.6 147.818 56.09 145.988 55.22 144.918C54.25 143.718 52.99 142.728 52.86 140.858C52.79 139.858 51.69 138.818 50.84 138.018C48.74 136.048 46.51 134.218 44.37 132.368C44 132.718 43.43 133.008 43.31 133.418C42.45 136.408 41.85 139.458 40.35 142.268C39.06 144.688 38.45 147.468 37.15 149.878C35.29 153.338 34.59 157.328 32.08 160.468C31.3 164.818 28.74 168.418 27.02 172.318C28.29 173.348 29.37 174.838 30.74 175.188C33.79 175.968 35.1 178.328 36.67 180.538C36.99 180.988 37.28 181.598 37.28 182.138C37.24 185.138 39.54 187.728 38.8 190.848C40.1 191.758 39.42 193.108 39.52 194.268C39.61 195.298 40.33 196.258 39.61 197.418C39.34 197.858 39.81 198.758 39.93 199.448C40 199.868 40.26 200.518 40.08 200.688C39.04 201.638 39.44 202.878 39.63 203.828C39.83 204.788 38.4 205.338 39.3 206.318C40.06 207.138 39.01 208.478 40.07 209.378C40.4 209.658 40.23 210.528 40.29 211.118C40.39 212.278 39.79 213.338 40.2 214.628C40.62 215.988 40.29 217.578 40.29 219.078C40.29 219.578 40.09 220.198 40.32 220.548C41.67 222.588 40.95 224.848 40.93 226.968C40.92 227.768 40.51 228.478 41 229.358C41.43 230.148 41.65 231.108 41.76 232.018C41.89 233.118 41.8 234.248 41.79 235.368C41.77 237.998 42.65 240.468 43.09 243.008C43.59 245.908 45.02 248.628 44.78 251.658L45.66 254.408C45.86 254.948 45.98 255.548 46.29 256.008C47.05 257.148 46.87 258.498 47.26 259.718C47.65 260.918 48.1 262.108 48.58 263.278C49.02 264.338 50.07 265.478 49.9 266.388C49.56 268.158 51.64 268.428 51.55 269.898C51.52 270.398 52.04 270.918 52.24 271.458C52.76 272.858 53.19 274.298 53.76 275.678C54.16 276.628 54.76 277.498 55.23 278.428C55.75 279.448 56.27 280.488 56.72 281.538C57.13 282.488 57.44 283.478 57.8 284.448C59.88 284.248 58.33 286.548 59.58 287.048C59.98 287.208 60.08 288.048 60.4 288.518C61.07 289.498 61.76 290.458 62.51 291.368C63.28 292.308 64.12 293.188 64.94 294.098C64.07 295.748 66.28 295.508 66.58 296.738C66.91 298.108 68.28 299.288 69.33 300.408C71.2 302.398 73.05 304.458 75.15 306.188C77.86 308.418 80.55 310.688 83.85 312.138C86.8 313.438 89.66 315.008 92.4 316.658C95.68 318.638 99.46 319.728 102.39 322.308C104.17 322.278 104.99 324.098 106.68 324.428C108.58 324.798 110.36 325.788 112.26 326.208C113.4 326.458 114.4 327.468 115.66 326.978C115.99 326.848 116.42 326.338 116.38 326.058C116.25 325.148 115.75 324.278 115.71 323.378C115.61 320.768 115.58 318.158 115.7 315.548C115.83 312.908 116.17 310.288 116.42 307.648C116.43 307.528 116.37 307.328 116.43 307.288C118.19 305.928 116.63 303.858 117.59 302.148C118.46 300.598 118.3 298.488 118.67 296.638C119.07 294.658 118.96 292.458 119.67 290.718C121.25 286.868 120.31 282.708 121.98 278.718ZM345.41 533.308C344.95 533.078 344.41 532.948 344.05 532.608C342.87 531.508 341.8 530.298 340.6 529.218C339.54 528.268 337.97 527.658 337.36 526.508C336.56 525.028 334.87 524.818 334.1 523.468C333.8 522.948 333.12 522.648 332.83 522.128C331.16 519.098 328.59 516.758 326.71 513.878C325.47 511.978 323.22 510.558 322.5 508.538C321.64 506.138 319.51 504.928 318.48 502.748C317.77 501.228 316.27 499.998 315.21 498.568C314.58 497.718 314.11 496.698 313.34 496.008C311.45 494.298 310.31 492.058 308.92 489.998C308.53 489.418 308.32 488.508 307.8 488.298C307.33 488.108 306.58 488.768 305.92 488.898C302.84 489.508 299.82 490.348 296.8 491.168C296.25 491.318 295.59 491.998 295.27 491.848C293.24 490.838 290.7 490.458 289.54 488.208C287.96 485.148 285.3 482.918 283.62 479.878C282.52 477.878 280.59 476.268 279.51 474.118C279.36 473.808 278.71 473.418 278.5 473.508C275.6 474.908 272.07 474.758 269.56 477.138C269.07 477.598 268.42 477.978 267.77 478.188C264.27 479.338 261 481.038 257.51 482.218C256.99 482.398 256.12 482.418 255.99 482.748C255.53 483.938 256.88 483.498 257.29 483.958C257.54 484.238 257.93 484.438 258.06 484.758C259.33 487.888 261.73 490.138 264.18 492.248C266.16 493.958 267.04 496.708 269.62 497.778C270.28 500.548 273.47 500.998 274.7 503.418C275.44 504.888 277.3 505.848 278.77 506.878C280.12 507.818 280.52 509.498 282.08 510.378C283.64 511.268 284.72 512.968 286.1 514.218C287.61 515.598 289.18 516.918 290.8 518.168C292.48 519.458 294.16 520.768 295.99 521.838C298.67 523.408 301.39 524.968 304.25 526.178C307.1 527.388 310.28 527.798 312.84 529.738C313.17 529.988 313.77 529.848 314.23 529.968C315.01 530.178 315.75 530.578 316.54 530.678C317.52 530.808 318.76 530.338 319.46 530.798C320.5 531.478 321.51 531.338 322.56 531.478C323.47 531.608 324.34 531.988 325.24 532.188C326.21 532.408 327.42 532.968 328.14 532.618C329.24 532.068 329.7 533.278 330.66 533.008C331.7 532.718 332.89 532.828 333.99 532.978C334.93 533.108 335.72 533.378 336.76 533.028C337.73 532.698 339.33 532.608 339.94 533.178C340.99 534.158 341.81 532.868 342.31 533.238C343.36 534.018 344.33 533.468 345.41 533.308ZM486.99 558.798C489.04 562.208 492.21 563.688 495.3 565.258C496.65 565.948 498.17 565.628 499.37 564.418C500.18 563.598 499.84 562.858 499.44 561.848C498.64 559.818 497.98 557.648 497.74 555.488C497.52 553.478 496.2 552.188 495.04 551.058C494.29 550.328 493.6 549.248 492.37 548.808C491.3 548.428 490.31 547.598 489.53 546.728C488.7 545.808 488.11 544.748 486.92 544.128C485.99 543.648 485.95 543.078 484.92 540.008C484.71 539.368 483.68 538.978 483.54 538.358C482.71 534.798 480.56 531.878 479 528.668C478.38 527.398 477.2 526.198 476.32 525.358C474.41 523.538 472.73 521.438 470.07 520.628C469.69 518.928 467.97 518.488 466.86 517.618C465.78 516.768 464.47 515.938 462.92 515.478C461.66 515.108 460.43 513.848 459 513.288C458.57 513.118 458.16 512.898 457.71 512.798C456.58 512.518 455.44 512.118 454.29 512.088C452.95 512.058 451.74 511.728 450.48 511.368C449.64 511.128 448.02 511.238 447.77 511.728C446.03 515.048 443.32 517.588 441.1 520.518C438.37 524.138 430.93 531.698 427.94 533.638C427.34 534.028 426.68 534.338 425.9 534.758C426.73 535.208 427.22 535.678 427.74 535.718C430.3 535.938 432.5 536.888 434.37 538.648C436.13 538.328 436.87 540.428 438.5 540.378C439.9 540.338 440.9 541.088 442.04 541.768C444.41 543.178 446.83 544.648 449.42 545.518C451.4 546.178 452.77 547.618 454.56 548.418C455.03 548.628 455.15 548.938 454.7 549.498C454.38 549.898 454.47 550.628 454.42 551.218C454.42 551.278 454.75 551.358 454.92 551.428C454.99 551.208 455.05 550.988 455.14 550.778C455.23 550.568 455.34 550.368 455.47 550.108C456.66 551.028 457 552.338 457.41 553.698C458.07 555.898 458.45 558.238 459.68 560.208C461.55 563.178 463.48 566.138 465.62 568.928C466.7 570.338 468.29 571.348 470.26 573.058C469.47 569.338 471.51 566.998 472.03 564.248C472.15 563.598 472.16 563.258 471.9 562.668C471.71 562.218 472.14 561.488 472.29 560.888C472.56 559.828 473.51 559.388 474.33 559.988C476.04 561.238 476.89 563.698 479.52 563.698C479.6 563.698 479.66 564.108 479.76 564.318C480.11 565.038 480.47 565.768 480.84 566.478C482.29 569.258 483.1 569.638 486.23 569.168C486.05 567.638 486.19 565.978 485.59 564.658C485.08 563.538 484.58 562.778 485.58 561.798C484.64 560.348 486.17 559.968 486.99 558.798ZM239.1 204.808C242.5 203.228 246.08 204.128 249.57 203.898C249.91 203.878 250.26 203.778 250.58 203.648C254.26 202.128 258.25 202.458 262.06 201.708C264.63 201.208 267.36 201.378 269.83 200.638C270.96 200.298 271.45 201.518 272.29 200.918C274.05 199.678 276.05 200.358 277.94 200.168C279.22 200.038 280.67 200.718 281.73 199.428C284.15 199.528 286.54 199.438 288.87 198.698C289.19 198.598 289.59 198.708 289.95 198.768C291.51 199.058 291.84 198.688 291.42 197.228C291.22 196.558 291.1 195.858 290.99 195.168C290.63 192.848 291.44 190.658 291.72 188.398C292.02 186.028 292.21 183.638 292.49 181.258C292.6 180.338 292.5 177.018 292.21 176.398C290.91 173.588 289.58 170.778 288.27 167.978C287.83 167.028 287.57 165.708 286.17 167.228C285.93 167.488 285.03 167.528 284.78 167.298C283.39 165.988 281.72 166.858 280.21 166.578C279.29 166.408 278.29 166.978 277.4 166.138C276.99 165.748 276.27 166.498 275.49 165.928C274.83 165.458 273.51 166.008 272.63 165.708C268.74 164.388 264.58 163.498 262.08 159.708C261.59 158.968 261.08 159.058 260.26 159.558C258.3 160.748 256.24 161.808 254.13 162.728C252.86 163.288 252.19 164.188 251.36 165.238C249.36 167.738 248.08 170.658 246.1 173.168C242.57 177.648 240.35 182.958 238.89 188.388C237.77 192.548 236.04 196.708 236.52 201.208C235.14 202.328 236.87 202.638 237.04 203.348C237.34 204.558 237.98 204.888 239.1 204.808ZM21.9 168.708C22.61 167.228 23.14 165.818 23.92 164.568C25.27 162.408 25.85 159.888 27.2 157.748C27.91 156.638 26.63 156.718 26.51 156.148C25.27 157.268 24.2 156.138 23.21 155.738C22.16 155.328 20.89 155.418 20.08 154.258C19.31 153.158 18.1 152.378 17.25 151.318C15.47 149.108 13.01 147.988 10.53 146.878C8.61 146.028 7.24 146.378 5.45 148.108C4.37 149.148 4.13 150.718 4.87 152.398C5.52 153.868 6.3 155.278 6.95 156.738C7.95 159.028 10.69 159.398 11.97 161.368C13.19 161.048 13.69 162.048 14.4 162.688C15.3 163.498 16.08 164.618 17.14 165.038C19.15 165.828 20.47 167.338 21.9 168.708ZM107.01 266.598C108.55 269.928 112 270.698 114.56 272.668C115.35 273.268 116.31 272.958 116.83 273.438C117.94 274.458 119.17 273.828 120.31 274.048C121.45 274.268 122.57 274.598 123.72 274.748C123.98 274.778 124.31 274.258 124.61 273.988C124.39 273.758 124.19 273.348 123.96 273.328C120.05 273.038 116.55 271.398 113.33 269.458C111.31 268.238 109.01 267.868 107.01 266.598ZM49.68 120.098C48.74 122.578 47.4 124.518 46.69 126.858C46.37 127.908 46.34 128.378 47.06 128.948C48.43 130.048 49.85 131.098 51.54 132.398C51.26 130.218 51.45 128.048 50.64 126.358C49.67 124.358 50.49 122.298 49.68 120.098ZM274.16 159.028C272.31 157.488 272.31 157.488 270.87 159.028C271.89 159.028 272.78 159.028 274.16 159.028ZM271.44 143.228C270.54 142.708 270.46 140.898 268.29 141.428C269.54 142.198 269.8 143.518 271.44 143.228ZM391.9 491.788C392.29 490.828 392.51 490.528 392.44 490.438C392.2 490.138 391.87 489.908 391.57 489.658C391.44 489.858 391.18 490.088 391.22 490.248C391.34 490.688 391.58 491.078 391.9 491.788ZM104.95 265.958C105.44 265.758 105.64 265.668 105.84 265.588C105.5 265.188 105.16 264.778 104.81 264.378C104.69 264.568 104.45 264.788 104.49 264.948C104.58 265.298 104.8 265.628 104.95 265.958Z" fill="#1D3D6C"/>
<path d="M43.29 7.6875C43.29 8.1875 43.27 8.6775 43.29 9.1775C43.32 9.8475 43.08 10.4275 44.22 10.7575C46.13 11.3075 47.08 12.7775 47.06 14.9675C47.03 17.6775 47.85 20.2975 49.0201 22.7075C51.64 28.0875 53.16 33.9175 55.83 39.2675C55.5 40.9175 57.31 42.4775 56 44.2075C55.76 44.5275 55.97 45.1775 55.97 45.6775C55.97 46.1475 55.97 46.6175 55.97 47.4475C54.47 46.4275 53.94 45.0075 52.71 44.1675C51.57 43.3975 50.86 41.7775 50.32 40.3975C49.77 38.9975 48.11 38.1175 48.42 36.3375C45.96 34.1675 45.85 30.5275 43.41 28.3475C42.38 24.8875 40.04 22.0575 38.82 18.6975C38.23 17.0575 36.29 16.0875 36.57 14.0375C35.51 13.3675 35.86 12.3075 35.83 11.3675C35.79 10.1475 35.91 9.36751 37.44 10.3375C38.06 10.7275 40.6 9.0075 41.8 7.6975C42.3 7.6875 42.8 7.6875 43.29 7.6875ZM41.68 12.8175C41.46 12.9475 41.24 13.0675 41.03 13.1975C41.08 13.7675 41.01 14.3775 41.21 14.8875C41.37 15.2975 41.87 15.5775 42.21 15.9075C42.4 15.7675 42.58 15.6275 42.7701 15.4975C42.41 14.5975 42.05 13.7075 41.68 12.8175Z" fill="#1D3D6C"/>
<path d="M94 69.2073C95 68.8273 95.75 68.5173 96.51 68.2673C97.38 67.9773 98.14 67.2673 99.22 68.0673C99.75 68.4573 100.54 68.0073 101.16 67.4573C101.42 67.2273 102.64 68.0073 102.84 67.7873C103.95 66.5873 104.56 68.4073 105.36 68.0973C106.2 67.7773 106.92 66.7373 107.76 68.0573C112 67.6773 115.7 69.9773 119.8 70.5173C122.83 70.9173 125.94 71.5973 128.98 72.4073C131.88 73.1773 134.6 74.7073 137.67 74.8573C137.85 74.8673 137.99 75.2473 138.2 75.3473C139.9 76.1773 140.17 77.6673 138.52 78.3373C136.75 79.0473 135.85 80.3773 135.26 81.8273C134.72 83.1873 133.65 83.9073 132.8 84.8873C132.6 85.1173 132.03 85.3473 131.88 85.2373C131.05 84.6373 130.29 83.9773 129.49 85.2473C128.58 84.7573 127.7 84.2073 126.76 83.7973C125.92 83.4273 124.75 83.4673 124.19 82.8873C122.85 81.4873 121.11 81.3173 119.45 80.7673C117.17 80.0173 114.99 78.9273 112.69 78.2573C110.77 77.6973 109.06 76.8673 107.33 75.9073C104.93 74.5873 102.32 73.6673 99.79 72.5773C99.26 72.3473 98.55 72.2773 98.24 71.8873C97.35 70.7673 96.19 70.3373 94.88 70.0473C94.59 69.9973 94.36 69.5673 94 69.2073Z" fill="#1D3D6C"/>
<path d="M3.06997 88.148C2.76997 86.888 3.68997 85.578 1.76997 85.018C0.809971 84.738 0.879977 81.898 1.43998 80.468C1.64998 79.928 1.48997 79.268 2.40997 79.288C3.42997 79.308 4.70998 79.648 4.75998 77.938C5.44998 78.658 6.06997 78.088 6.69997 77.818C7.55997 77.438 8.29997 76.918 9.37997 77.018C10.12 77.078 10.89 76.418 11.67 76.358C14.15 76.168 16.45 75.428 18.72 74.478C19.57 74.128 20.6 74.258 21.53 74.068C22.31 73.908 23.05 73.528 23.83 73.348C28.08 72.398 32.22 70.878 36.68 71.098C37.67 70.168 38.84 70.238 40.05 70.458C40.21 72.228 40.2 72.228 38.83 74.138C37.69 75.718 36.68 77.458 34.28 77.078C34.17 77.058 34.03 77.078 33.93 77.128C29.44 79.948 24.17 80.528 19.31 82.288C17.8 82.838 16.25 83.288 14.72 83.788C13.66 86.118 11.18 85.888 9.32998 86.808C6.34998 88.268 6.34997 88.278 3.06997 88.148ZM5.14998 83.248C5.33998 83.478 5.39997 83.578 5.47997 83.648C5.97997 84.088 6.34998 84.888 7.21998 84.398C7.36998 84.308 7.47998 83.998 7.46998 83.798C7.38998 82.588 6.42997 83.198 5.83997 83.058C5.74997 83.028 5.62998 83.108 5.14998 83.248Z" fill="#1D3D6C"/>
<path d="M101.79 46.4773C101.46 46.0373 100.92 45.6073 100.79 45.0773C100.51 43.9473 99.98 44.0173 99.29 44.6073C98.73 45.0873 98.17 45.2373 97.82 44.5673C97.69 44.3073 98.03 43.4873 98.33 43.3773C99.77 42.8473 100.68 41.9073 101.18 40.4873C101.25 40.2773 101.49 40.0273 101.7 39.9673C104.5 39.2273 106.86 37.3873 109.7 36.8173C111.1 36.5373 111.98 35.9073 112.97 34.8173C114.26 33.4073 116.1 32.2573 117.92 31.6473C120.66 30.7273 123.07 29.0573 125.9 28.4173C126.57 28.2673 127.22 27.9273 127.89 27.8573C129.01 27.7573 129.4 28.3073 129.08 29.4473C128.99 29.7673 128.6 29.9973 128.5 30.3173C128.24 31.1473 128.14 31.9673 129 32.6073C129.49 32.9773 129.93 33.4373 130.32 33.9173C130.9 34.6373 130.63 35.3673 129.64 36.0473C129.34 36.2473 129.03 36.4573 128.81 36.7273C128.28 37.3873 127.89 37.6073 127.14 36.8573C126.92 36.6373 125.32 36.1373 125.32 37.7773C125.32 37.9473 124.58 38.1373 124.17 38.2773C121.43 39.2473 118.57 39.8073 115.83 40.6573C113.9 41.2573 111.87 42.3773 109.99 42.5673C107.88 42.7773 106.34 44.1573 104.31 44.3573C103.41 44.4373 102.65 45.7073 101.79 46.4773Z" fill="#1D3D6C"/>
<path d="M43.36 54.3476C41.84 52.8976 40.76 52.9376 39.31 53.0776C37.1 53.2876 34.8 52.8076 32.58 52.3876C31.91 52.2576 32.13 50.4576 30.64 50.9476C29.47 51.3376 28.97 50.2276 28.18 49.7076C27.43 49.2176 26.12 49.2176 25.73 48.5876C24.4 46.4376 22.02 46.6676 20.16 45.7576C19.75 45.5576 19.19 45.6776 18.8 45.4676C17.93 44.9976 16.99 44.7576 17.07 43.2376C17.12 42.2076 16.4 43.6376 15.69 43.2176C15.69 42.4376 15.51 41.4276 15.75 40.5376C15.92 39.9276 17.14 39.4376 17.1 38.9776C16.92 37.2976 17.98 37.7076 18.92 37.4676C19.99 37.1876 20.62 39.2776 21.86 37.8676C21.98 37.7276 23.25 38.6576 24.03 39.0176C24.97 39.4476 26 39.6776 26.89 40.1776C31.05 42.5276 34.93 45.3376 38.88 48.0176C40.48 49.1076 41.82 50.5976 43.16 52.0176C43.46 52.3376 43.27 53.1376 43.36 54.3476Z" fill="#1D3D6C"/>
<path d="M96.49 109.397C96.04 109.597 95.54 109.987 95.34 109.867C93.77 108.937 92.37 108.757 90.66 109.807C89.49 110.517 87.8 109.867 87.02 109.057C86.19 108.187 85.4 109.467 85.14 108.777C84.92 108.197 84.76 107.287 85.59 106.777C84.82 106.037 86.14 104.807 84.91 104.117C84.14 103.677 84.09 103.037 84.77 102.307C84.98 102.087 84.87 101.477 84.79 101.067C84.13 97.4067 82.38 94.0767 81.46 90.5367C81.07 89.0267 79.99 88.1667 79.41 86.8967C78.88 85.7067 79.4 85.3467 79.99 84.7867C80.6 84.2067 81.03 84.6768 81.53 85.0868C82.53 85.9268 83.58 86.7067 84.64 87.4667C87.17 89.2967 88.14 92.2467 89.43 94.8167C91.12 98.1867 93.41 101.347 94.13 105.167C95.8 105.987 95.31 107.947 96.49 109.397Z" fill="#1D3D6C"/>
<path d="M82.5599 10.7676C83.1499 11.3576 83.7199 11.8476 84.1699 12.4276C84.3299 12.6376 84.2699 13.3576 84.1899 13.3776C82.09 13.9276 83.0699 15.6376 82.8299 16.8876C82.5199 18.4976 82.53 20.2776 81.8 21.6676C80.71 23.7376 80.2199 25.9876 79.3299 28.0976C78.7399 29.4776 78.5199 30.9776 77.4499 32.1776C77.0399 32.6376 77.0399 33.4776 76.8699 34.1576C76.5199 35.5076 76.2199 36.8576 75.8099 38.1876C75.7099 38.4976 75.3399 38.8776 75.0399 38.9276C74.8299 38.9676 74.3299 38.5376 74.2899 38.2776C73.8799 35.4176 70.9899 32.8876 73.1199 29.6676C73.2899 29.4076 73.1399 28.9376 73.1399 28.5676C73.1399 27.4476 73.4099 26.2476 73.0699 25.2376C72.6899 24.0876 74.35 23.2076 73.24 22.1476C74.44 21.3876 73.3499 19.8676 74.0799 19.1776C75.0899 18.2076 74.1799 16.9876 74.8399 16.1176C75.1499 15.7076 75.3699 15.5676 74.9399 15.0176C74.2399 14.1276 74.9999 13.3476 75.2899 12.4476C75.7299 11.1276 76.2199 10.9776 76.9299 11.9176C77.9399 13.2476 78.8899 12.7576 79.9599 12.1776C80.7599 11.7176 81.5799 11.2876 82.5599 10.7676Z" fill="#1D3D6C"/>
<path d="M246.98 351.018C246.98 351.788 246.79 352.588 247.04 353.208C247.25 353.718 248.24 353.918 248.43 354.428C249.19 356.478 249.78 358.588 250.42 360.678C250.47 360.848 250.53 361.148 250.47 361.188C248.96 361.998 249.33 363.458 249.14 364.758C249.04 365.478 246.11 368.978 245.32 369.548C245.13 369.688 244.91 369.778 244.74 369.938C244.2 370.448 243.74 371.078 243.13 371.468C242.85 371.648 242.22 371.238 241.85 371.368C241.21 371.598 240.68 372.158 240.03 372.358C238.84 372.718 237.67 372.768 236.74 371.638C236.11 370.878 235.34 370.228 234.66 369.518C234.55 369.398 234.5 369.178 234.5 368.998C234.5 368.908 234.74 368.818 234.74 368.738C234.61 367.518 234.47 366.298 234.31 365.078C234.21 364.288 234.71 363.788 235.04 363.138C235.96 361.308 236.94 359.608 238.51 358.238C240.05 356.908 240.92 355.068 242.02 353.388C242.59 352.528 243.94 352.168 244.97 351.648C245.45 351.398 246.02 351.308 246.98 351.018ZM244.73 358.318C241.44 360.178 240.95 363.508 239.54 366.258C239.43 366.478 239.62 367.038 239.85 367.198C240.06 367.338 240.71 367.258 240.8 367.088C241.53 365.638 243.51 364.988 243.42 363.028C245.28 361.848 244.66 360.108 244.73 358.318Z" fill="#1D3D6C"/>
<path d="M232 310.598C231.63 309.518 232.67 309.378 233.38 308.778C233.97 308.268 233.9 307.048 234.32 306.258C234.98 305.038 235.73 303.848 236.59 302.758C237.72 301.328 239.72 301.378 241.14 300.268C241.7 299.828 243.93 298.508 243.99 301.278C246.26 301.848 245.4 304.468 246.82 305.598C245.83 306.808 246.86 308.678 246.02 309.538C244.34 311.278 244.06 314.118 241.47 315.128C240.96 315.328 240.76 316.358 240.27 316.518C239.4 316.788 238.46 316.468 237.56 317.218C237.23 317.488 235.93 316.678 235.12 316.258C234.4 315.898 233.68 315.468 233.1 314.928C232.91 314.748 233.35 314.028 233.2 313.678C233.03 313.258 232.39 313.018 232.23 312.598C232.01 312.048 232.07 311.398 232 310.598ZM243.06 305.088C240.56 306.378 238.85 307.238 237.15 308.128C236.68 308.378 236.01 308.598 235.84 308.998C235.44 309.948 235.28 310.998 235.06 312.018C235.02 312.218 235.13 312.588 235.26 312.648C236.11 312.998 236.97 313.438 237.85 313.538C238.8 313.638 239.17 312.858 239.55 312.008C240.49 309.918 241.61 307.908 243.06 305.088Z" fill="#1D3D6C"/>
<path d="M252.18 249.098C251.73 249.888 252.05 251.058 251.95 252.168C251.84 253.478 251.03 254.728 250.46 255.978C250.18 256.608 249.87 257.268 249.4 257.758C248.09 259.138 246.8 260.408 244.65 260.688C243.02 260.898 241.51 261.248 239.92 260.618C239.07 260.278 238.16 260.028 237.26 259.878C236.33 259.718 236.39 259.178 236.69 258.598C236.98 258.028 237.83 257.228 237.71 257.058C236.55 255.498 238.53 256.498 238.56 255.958C238.57 255.738 238.76 255.518 238.75 255.298C238.62 252.668 239 252.218 240.93 250.538C242.89 248.818 245.02 247.358 247.18 245.958C248.05 245.398 249.12 244.428 250.42 245.038C251.58 245.598 252.28 247.148 252.18 249.098ZM248.47 250.888C248.38 250.678 248.33 250.398 248.17 250.288C248 250.168 247.64 250.098 247.5 250.198C246.81 250.648 246.22 251.268 245.5 251.648C244.8 252.018 244 252.348 243.23 252.388C241.4 252.458 244.17 253.938 242.75 253.888C241.3 253.838 241.89 255.368 241.04 255.848C240.64 256.078 241.76 257.648 242.3 257.448C245.47 256.308 247.19 253.798 248.47 250.888Z" fill="#1D3D6C"/>
<path d="M251.65 190.178C253.62 190.808 254.81 190.168 256.19 190.928C256.98 191.358 258.41 190.758 259.53 191.208C260.06 191.418 260.66 191.468 261.2 191.658C261.88 191.898 263.16 191.938 264.55 191.988C268.27 192.128 271.07 190.288 273.7 187.988C274.16 187.588 274.54 187.038 275.07 186.788C275.46 186.608 276.15 186.628 276.47 186.868C276.75 187.078 276.88 187.768 276.78 188.168C276.44 189.508 276.06 190.848 275.52 192.108C273.98 195.758 270.82 197.198 267.21 197.908C266.49 198.048 265.7 197.798 264.98 197.948C260.87 198.798 258.02 196.138 254.97 194.258C253.8 193.538 253.1 192.018 251.65 190.178Z" fill="#1D3D6C"/>
<path d="M267.56 169.307C268.24 171.327 267.42 173.217 268.54 174.867C268.82 175.277 267.99 176.327 267.9 177.107C267.56 179.887 266.88 182.567 265.64 185.087C266.26 186.877 263.9 187.277 263.86 188.837C263.85 189.147 262.9 189.727 262.46 189.657C261.98 189.587 261.26 188.937 261.22 188.497C261.02 185.937 259.94 183.457 261.82 180.827C263.66 178.247 264.57 175.067 265.68 172.057C266.01 171.127 266.81 170.367 267.56 169.307Z" fill="#1D3D6C"/>
<path d="M258.17 175.848C259.4 177.528 256.8 177.638 256.54 178.958C256.39 179.738 255.48 179.858 253.52 180.258C253.04 180.358 252.58 180.788 252.22 181.168C251.65 181.758 250.76 180.198 250.37 181.498C250.04 180.828 249.3 180.038 249.46 179.518C250.31 176.698 251.64 174.068 253.9 172.128C254.3 171.778 255 170.788 256.21 171.588C257.26 172.278 258.35 172.578 258.18 174.108C258.12 174.608 258.17 175.108 258.17 175.848Z" fill="#1D3D6C"/>
<path d="M274.91 178.558C273.9 178.498 273.5 178.568 272.98 177.648C271.72 175.388 272.42 173.578 273.57 171.778C274.15 170.868 275.2 170.258 275.85 169.388C276.48 168.558 277.56 170.078 277.98 168.848C278.73 169.118 279.51 169.328 280.21 169.678C280.43 169.788 280.57 170.318 280.52 170.618C280.34 171.638 280.28 172.778 279.75 173.598C278.72 175.178 277.44 176.608 276.17 178.018C275.84 178.398 275.15 178.468 274.91 178.558Z" fill="#1D3D6C"/>
</svg>
