<svg width="492" height="565" viewBox="0 0 492 565" fill="none" xmlns="http://www.w3.org/2000/svg">
<path d="M61.8901 68.6199C61.8901 67.6899 61.8901 66.7599 61.8901 65.8299C63.3101 65.6999 62.9502 64.5899 62.9802 63.7499C63.0702 61.5899 62.6301 59.2799 63.2601 57.2999C64.5701 53.1999 66.3102 49.2299 67.6602 45.1299C67.8402 44.5899 68.1602 44.0499 68.5402 43.6099C72.5102 39.0199 75.6502 34.0899 76.1702 27.7799C76.3602 25.5299 77.2801 23.3399 77.8901 21.1299C79.1801 16.4899 82.0402 12.8499 86.1802 10.7199C90.1802 8.6599 94.8302 8.12992 99.3002 8.36992C102.82 8.55992 106.57 7.98988 109.87 10.0799C110.66 10.5799 111.79 10.4099 112.85 10.3899C121.21 10.1899 128.07 13.9899 133.79 19.6199C138.81 24.5599 141.97 30.8399 144.62 37.3699C146.45 41.8899 148.56 46.2999 150.57 50.8099C151.42 50.5299 152.37 50.4099 153.09 49.9399C154.46 49.0499 155.66 47.9099 156.99 46.9599C160.9 44.1599 164.79 41.2999 169.76 40.6499C173.73 40.1299 176.59 36.6699 180.75 36.5199C181.47 36.4899 182.13 35.3599 182.85 34.7799C184.83 33.1699 184.83 33.1799 187.73 34.8299C187.13 35.3499 186.51 35.8899 185.12 37.1099C187.42 36.8999 188.73 36.7799 190.05 36.6599C189.62 35.3099 190.47 35.2399 191.45 35.1799C195.11 34.9499 198.77 34.6599 202.44 34.4499C205.27 34.2899 208.05 34.7199 210.36 36.3799C214.1 39.0699 218.38 40.1899 222.75 40.8299C228.79 41.7099 231.14 46.7299 234.56 50.6099C233.2 52.8799 236.47 53.8299 236.04 56.2499C235.69 58.2399 237.18 60.5599 237.81 62.7399C238.06 63.6099 238.41 64.5399 238.35 65.4099C238.06 69.2399 239.03 72.9199 239.89 76.5499C240.29 78.2299 239.49 80.3999 241.41 81.6399C241.41 83.8099 241.41 85.9799 241.41 88.1499C240.74 88.7099 239.52 89.2499 239.51 89.8299C239.44 92.5199 238.14 94.7799 237.23 97.1499C235.91 100.6 234.38 103.97 232.79 107.3C232.03 108.89 230.68 110.23 230.05 111.85C227.93 117.3 225.68 120.64 220.46 125.75C219.31 126.88 218.72 129.04 217.43 129.5C213.8 130.82 211.63 133.69 209.05 136.17C208.43 136.76 207.8 137.82 207.17 137.83C205.55 137.85 204.78 138.88 203.74 139.76C200.65 142.37 197.21 144.48 193.73 146.54C192.59 147.22 192.26 146.9 191.65 146.24C191.16 147 190.74 147.82 190.15 148.49C189.78 148.91 189.11 149.38 188.63 149.32C186.3 149.03 184.7 150.72 182.73 151.33C180.06 152.15 177.34 152.82 174.65 153.59C170.98 154.64 167.39 156.14 163.65 156.7C159.66 157.3 155.92 158.59 152.15 159.8C149.23 160.74 146.4 162.1 143.7 163.58C141 165.05 137.53 164.78 135.32 167.36C135.09 167.63 134.25 167.81 134.14 167.67C132.66 165.8 131.95 167.42 130.99 168.25C130.32 168.83 129.36 169.78 128.78 169.63C125.43 168.74 123.03 172.6 119.69 171.31C117.23 173.61 114.24 171.78 111.52 172.18C109.23 172.52 106.69 171.58 107 168.05C107.07 167.22 106.12 166.22 105.49 165.41C102.6 161.69 98.1802 159.4 95.8702 155.12C95.6102 154.63 94.9302 154.38 94.4702 153.98C93.9002 153.48 93.2301 153.02 92.8401 152.39C90.8301 149.13 89.1801 145.6 86.8301 142.62C85.1601 140.49 85.6802 137.9 84.3002 135.79C82.0102 132.26 81.5702 128.02 80.6002 124.04C79.7102 120.38 79.9702 116.51 78.2902 112.91C76.8502 109.82 76.1101 106.4 75.0601 103.12C74.9701 102.83 74.9102 102.48 74.7202 102.28C71.5802 99.1399 70.4901 94.8399 68.7701 90.9999C65.8501 84.4799 63.1602 77.7599 62.8702 70.4199C62.8202 69.7999 62.2201 69.2199 61.8901 68.6199ZM151.94 139.63C152.21 139.99 152.48 140.35 152.74 140.71C156.24 139.82 159.7 138.78 163.23 138.07C166.81 137.36 169.16 135.05 171.44 132.52C173.79 129.91 176.01 127.16 178.57 124.79C184.08 119.69 189.55 114.59 194.47 108.89C198.46 104.28 201.34 99.1299 203.23 93.3899C203.51 92.5299 203.17 91.4499 203.1 90.2599C200.05 94.0199 197.45 97.6699 194.39 100.9C188.12 107.52 181.75 114.07 175.14 120.36C168.91 126.3 162.3 131.83 154.97 136.45C153.78 137.21 152.95 138.56 151.94 139.63ZM186.79 105.85C188.9 103.16 191.03 101.05 192.45 98.5299C196.79 90.8699 200.88 83.0599 205.02 75.2799C205.43 74.5099 205.9 73.4499 205.69 72.7199C204.69 69.2599 203.62 65.7699 200.91 63.0699C199.32 65.7299 197.85 68.1799 198.34 71.2499C198.4 71.6399 198.12 72.1299 197.88 72.5099C196.6 74.5799 195.33 76.6499 193.98 78.6699C192.66 80.6399 191.93 82.7099 191.97 85.1399C192.03 89.4799 190.4 93.3599 188.56 97.2199C187.36 99.7299 186.12 102.37 186.79 105.85ZM109.45 28.6699C110.41 29.9399 111.19 30.9599 111.95 31.9899C113.85 34.5699 115.17 37.5899 117.85 39.5599C118.61 40.1199 122.34 39.0199 122.23 38.9499C120.38 37.8199 124.7 34.7099 120.76 34.3899C122.02 31.6599 119.14 30.9399 118.28 29.2399C118.01 28.7199 118.74 27.8799 117.42 27.6699C114.69 27.2399 112.04 26.7699 109.45 28.6699ZM102.5 34.8699C102.98 31.9899 104.52 31.3899 106.6 31.4899C107.01 31.5099 107.56 30.8299 107.84 30.3499C107.98 30.0999 107.76 29.4399 107.5 29.2099C105.12 27.1899 100.01 28.9199 99.2402 31.9199C100.12 32.7399 100.98 33.5099 102.5 34.8699Z" fill="#FFE48B"/>
<path d="M0.0200195 412.43C1.50002 411.89 1.01005 410.58 0.930054 409.64C0.580054 405.64 1.81002 401.96 3.27002 398.41C5.23002 393.62 6.88005 388.65 9.80005 384.31C11.17 382.27 12.57 380.24 14.1 378.32C14.97 377.23 14.87 375.63 16.7 374.89C17.97 374.38 18.6101 372.28 19.4901 370.87C20.3001 369.58 20.9401 368.16 21.8701 366.97C22.9101 365.62 24.25 364.51 25.35 363.2C26.45 361.9 27.34 360.43 28.44 359.12C30.19 357.03 31.7201 354.6 33.8701 353.06C38.9601 349.42 42.78 344.33 48.17 341.08C50 339.97 51.68 338.52 53.21 337.01C56.9 333.38 61.74 331.52 65.84 328.53C67.56 327.27 69.3101 326.01 71.1801 325C74.4201 323.24 77.75 321.67 81.05 320.03C86.8101 317.18 92.53 314.26 98.35 311.53C101.51 310.05 104.79 308.77 108.1 307.65C110.1 306.97 110.63 305.47 110.79 303.81C111.22 299.15 111.52 294.48 111.76 289.81C112 285.22 111.52 280.5 112.44 276.06C113.55 270.71 112.79 265.43 113.13 260.13C113.46 254.86 113.3 249.54 113.19 244.25C113.16 242.59 112.46 240.96 112.33 239.29C112.21 237.7 112.47 236.08 112.49 234.48C112.51 232.7 112.16 230.87 112.46 229.14C113.27 224.46 113.2 219.84 112.45 215.15C112.11 213.02 112.2 210.79 112.3 208.62C112.39 206.57 112.84 204.54 112.96 202.5C113.17 199.17 113.41 195.84 113.35 192.48C113.3 189.87 113.48 187.16 114.44 184.63C114.6 184.2 115.03 183.64 114.89 183.37C112.93 179.66 115.33 176.13 115.39 172.51C115.43 170.08 114.87 168.41 113.11 167.02C112.03 166.16 110.81 165.47 109.69 164.67C109.07 164.23 108.22 163.83 107.97 163.21C106.32 159.13 103.22 156.32 99.95 153.61C98.99 152.82 98.17 151.86 97.27 151.01C92.42 146.46 87.78 141.63 82.64 137.44C77.11 132.94 71.7 128.35 66.77 123.21C65.17 121.55 63.91 119.55 62.25 117.96C60.59 116.38 59.7 114.44 59.04 112.41C57.04 106.34 54.06 100.7 51.63 94.83C49.19 88.94 47.97 82.69 47.78 76.31C47.62 71.02 47.65 65.72 47.82 60.43C47.91 57.68 48.3001 54.91 48.8701 52.22C49.9401 47.16 50.9 42.04 52.51 37.15C54.21 31.96 55.39 26.46 58.89 22.02C60.61 19.84 62.02 17.45 64.52 15.84C66.93 14.28 68.76 11.87 71.04 10.09C73.21 8.40997 75.56 6.92 77.97 5.62C80.54 4.24 83.21 2.97998 85.96 2.03998C87.95 1.35998 90.16 1.32997 92.26 0.909973C92.74 0.809973 93.13 0.32 93.56 0C96.68 0 99.8 0 102.91 0C104.1 0.56 109.56 1.79996 111.03 1.89996C115.57 2.20996 119.55 4.13999 123.49 6.17999C123.71 8.57999 125.12 5.69996 125.82 6.70996C126.33 7.43996 127.22 7.92 127.98 8.44C136.25 14.09 143.41 20.95 149.14 29.13C151.57 32.59 153.21 36.66 154.81 40.61C155.7 42.82 155.7 45.3899 156.22 47.7599C156.47 48.91 157.01 50.01 157.35 50.94C159.55 50.34 160.08 46.78 163.13 48.38C163.19 48.41 163.5 48.08 163.63 47.88C166.36 43.89 168.08 42.28 173.92 40.4C178.55 38.91 183.21 37.25 188.27 37.41C190.84 37.49 193.57 37.23 195.96 36.37C197.95 35.65 199.58 36.23 201.22 36.67C204.57 37.57 208 37.94 211.38 39.09C216.3 40.75 219.39 44.18 222.81 47.5C223.03 47.72 223.41 48.04 223.36 48.22C222.5 51.45 225.77 52.82 226.46 55.16C227.65 59.22 230.37 62.85 230.01 67.39C229.91 68.7299 230.41 70.11 230.61 71.47C230.76 72.54 231.12 73.66 230.94 74.67C230.32 78.19 231.31 81.8599 229.57 85.3199C228.78 86.8799 228.89 88.89 228.57 90.69C227.18 98.55 222.89 105.14 219.35 112.08C216.01 118.64 210.96 123.91 205.89 128.9C200.57 134.12 194.35 138.49 187.76 142.27C181.87 145.64 175.55 147.98 169.48 150.92C168.13 151.57 166.56 151.78 165.14 152.32C163.73 152.85 162.1 154.35 161.07 153.99C159.26 153.35 158.67 155.82 157.09 154.97C156.88 154.86 156.31 155.54 155.86 155.75C154.21 156.52 153.05 158.29 150.95 158.15C150.66 158.13 150.24 158.18 150.08 158.37C147.72 161.18 143.98 161.07 141.01 162.62C138.09 164.14 134.72 164.88 131.95 166.61C129.28 168.28 125.84 168.29 123.66 171.13C122.69 172.4 120.41 172.68 118.74 173.4C119.69 176.52 119.49 176.46 118.1 181.33C117.59 183.13 118.12 185.28 118.43 187.24C118.63 188.53 119.09 189.66 117.34 190.18C117.15 190.24 116.97 191.03 117.1 191.34C117.39 192.05 119.1 191.85 118.38 193.28C115.84 192.5 117.44 193.85 117.53 194.71C117.62 195.52 117.05 196.38 116.96 197.23C116.88 198.04 117.07 198.87 117.09 199.69C117.11 200.6 116.74 201.67 117.1 202.39C118.61 205.39 117.7 208.54 117.64 211.55C117.57 215.5 118.07 218.96 118.19 222.92C118.27 225.57 120.73 228.86 117.39 231.28C117.3 231.34 117.27 231.47 117.21 231.57C120.68 233.52 116.87 235.92 117.59 238.05C117.66 238.27 117.17 238.76 117.26 238.87C119.55 241.79 117.5 245.26 118.46 248.37C118.74 249.29 118.5 250.46 118.2 251.43C117.89 252.46 118 252.91 118.93 253.66C120.16 254.65 119.45 254.89 118.18 254.75C117.84 254.71 117.98 255.63 118.97 256.7C119.29 257.04 119.61 257.56 119.61 257.99C119.62 262.65 119.62 267.31 119.46 271.96C119.44 272.66 118.08 273.89 118.14 273.94C120.36 275.86 118.45 278.12 118.66 280.16C118.83 281.84 119.03 283.64 117.24 285.04C116.54 285.59 117.58 285.79 118.19 285.55C118.3 285.92 118.53 286.61 118.51 286.61C116.49 287.34 117.5 288.44 117.81 289.8C118.36 292.13 118.41 294.6 117.3 297.28C116.97 296.27 116.72 295.52 116.46 294.72C113.79 298.47 118.71 300.61 117.56 304.16C122.53 302.13 126.59 300.08 131.14 299.17C133.8 298.63 136.29 297.29 138.87 296.36C145.45 293.98 152.16 292.12 159.05 290.85C164.83 289.78 170.58 288.52 176.35 287.39C177.4 287.18 178.5 287.18 179.58 287.12C182.35 286.96 185.15 287.48 187.85 286.28C188.63 285.93 189.71 286.12 190.63 286.22C194.08 286.61 197.54 286.94 200.96 287.54C204.91 288.24 208.83 289.18 212.73 290.1C213.24 290.22 213.97 290.89 213.97 291.31C213.97 291.76 213.2 292.64 212.84 292.6C210.93 292.41 209.16 294.78 207.2 292.89C203.12 294.67 199.16 291.62 195.05 292.59C193.91 292.86 192.15 293.39 191.53 291.41C191.04 291.7 190.52 292.27 190.08 292.21C189.42 292.12 188.31 291.25 188.28 291.29C186.71 293.66 184.41 291.79 182.52 292.26C179.45 293.02 176.25 293.23 173.1 293.67C171.38 293.91 169.62 293.98 167.96 294.43C166.37 294.86 164.95 296.2 163.21 294.9C161.5 297.49 158.13 295.79 156.27 297.45C154.68 298.86 152.97 297.24 151.39 298.38C150 299.39 148.09 299.68 146.42 300.31C145.28 300.74 144.16 301.25 143 301.62C141.41 302.13 139.37 303.36 138.29 302.8C136.38 301.81 135.63 305.1 134.06 303.42C133.1 304.53 130.23 302.58 130.42 305.69C130.44 305.95 129.33 306.62 128.98 306.49C127.64 306 126.51 305.23 125.61 307.25C125.46 307.59 123.55 306.87 122.97 308.49C122.68 309.32 121.66 309.23 120.58 308.98C117.66 308.32 116.34 309.83 116.26 312.97C116.17 316.47 115.78 319.95 115.61 323.45C115.5 325.59 115.51 327.75 115.56 329.9C115.66 334.39 116.09 338.89 115.88 343.37C115.64 348.49 114.87 353.58 114.32 358.68C113.86 362.87 113.52 367.06 114.02 371.29C114.18 372.62 113.7 374.02 113.61 375.39C113.54 376.43 113.49 377.52 113.71 378.52C113.88 379.27 114.52 379.8 115.49 379.4C118.88 378.01 122.21 376.45 125.69 375.33C130.82 373.68 135.99 372.19 141.33 371.14C146.14 370.19 150.86 370.32 155.63 370.48C160.23 370.63 164.89 370.72 169.41 371.5C173.88 372.27 178.49 373.31 182.53 375.27C186.6 377.24 191.04 378.81 194.32 382.36C195.1 383.2 195.44 384.01 195.89 384.9C196.44 384.55 196.44 382.97 197.7 384.24C201.08 387.62 206.06 388.03 209.87 390.64C210.3 390.94 211.13 391 211.63 390.81C213.64 390.05 215.11 387.87 217.66 388.58C217.45 386.5 219.45 386.53 220.51 385.98C221.86 385.28 222.82 383.6 224.85 384.05C225.32 384.15 226.03 382.44 226.86 381.89C227.28 381.61 228.18 382.08 228.87 382.2C228.89 381.71 228.72 380.94 228.96 380.77C229.51 380.39 230.35 380.02 230.91 380.18C231.81 380.44 231.84 380.11 232.02 379.44C232.25 378.56 233.75 380.35 233.91 378.56C233.97 377.93 235.18 377.37 235.92 376.86C236.69 376.34 237.49 375.83 238.34 375.47C240.68 374.46 243.06 373.51 245.43 372.58C245.61 372.51 245.99 372.75 246.18 372.94C246.98 373.71 247.59 374.21 247.92 372.55C248.05 371.88 248.56 370.89 249.06 370.78C250.14 370.55 251.41 371.11 252.42 370.77C253.3 370.48 253.75 368.93 255.09 369.58C255.76 369.9 256.16 370.13 256.27 369.14C256.38 368.15 256.44 366.86 257.43 368.81C257.46 368.87 258.33 368.73 258.45 368.5C260.05 365.39 263.2 364.97 266.05 364.06C266.73 363.84 267.71 363.77 268.25 364.11C269.97 365.18 270.15 364.28 271.2 362.99C272.18 361.78 274.71 361.84 276.56 361.34C276.64 361.79 276.71 362.24 276.79 362.69C277.16 362.3 277.46 361.75 277.92 361.54C279.15 360.98 280.53 360.7 281.7 360.05C282.68 359.5 283.89 362.04 284.66 359.66C285.05 358.45 286.93 360.92 287.52 358.79C287.69 358.18 288 360.62 289.27 359.39C289.96 358.73 291.1 358.48 292.07 358.19C292.95 357.93 293.88 357.74 294.79 357.72C295.68 357.71 296.62 358.19 297.46 358.05C299.97 357.62 302.49 357.51 305.01 357.59C306.73 357.64 308.58 357.63 310.11 358.27C311.21 358.73 311.21 358.15 311.78 357.75C312.87 356.98 313.09 357.58 312.7 358.62C313.19 358.57 313.72 358.6 314.17 358.43C314.5 358.31 314.9 357.65 314.99 357.7C317.74 359.39 320.66 357.91 323.47 358.18C327.91 358.6 332.36 358.81 336.81 359.15C337.4 359.2 338.12 359.35 338.52 359.73C339.45 360.61 340.15 361.08 340.8 359.51C340.86 359.36 341.37 359.28 341.64 359.34C350.81 361.29 360.27 361.43 369.37 363.79C372.17 364.51 375 365.14 377.81 365.81C377.96 365.85 378.15 365.87 378.23 365.98C378.8 366.76 379.21 368.01 379.95 368.24C380.79 368.51 381.93 367.63 382.91 367.7C383.94 367.77 385 368.25 385.93 368.76C390.78 371.41 395.36 374.49 399.96 377.57C403.1 379.68 405.66 382.4 408.75 384.55C411.18 386.24 413.01 388.84 414.99 391.13C416.9 393.33 418.67 395.66 420.52 397.95C418.77 400.06 416.1 399.13 414.06 399.03C412.2 398.93 409.88 397.36 408.73 395.75C406.14 392.14 402.96 389.29 399.42 386.75C394.83 383.45 390.44 379.78 385.54 377.04C381.59 374.83 377.1 373.44 372.69 372.27C366.88 370.72 360.96 369.49 355.02 368.56C348.95 367.61 342.81 367.21 336.69 366.55C334.12 366.27 331.56 365.89 328.99 365.65C326.64 365.44 324.25 365.52 321.92 365.19C314.74 364.18 307.51 363.04 300.29 363.86C293.39 364.65 286.45 364.97 279.61 366.76C270.26 369.22 261.27 372.62 252.27 376C247.28 377.87 242.62 380.63 237.72 382.77C233.08 384.8 228.33 386.78 224.5 390.04C221.69 392.43 217.95 393.33 215.6 396.25C213.5 395.62 212.86 397.2 212.19 398.58C211.41 400.18 209.57 399.6 208.32 400.8C202.85 406.03 197.3 411.16 192.17 416.73C189.94 416.63 189.89 419.08 188.39 419.96C186.82 420.88 185.62 422.4 184.19 423.58C182.89 424.65 181.47 425.56 180.18 426.63C178.74 427.82 177.31 429.03 176.02 430.37C174.96 431.46 173.98 432.68 173.22 433.99C172.65 434.99 173.4 435.54 175.05 435.41C176.51 435.3 178.45 436.35 178.35 437.77C178.19 439.87 179.66 440.41 180.75 441.4C182.56 443.04 184.72 444.37 185.32 447C185.42 447.43 185.68 448.01 186.03 448.15C188.87 449.36 190.08 451.73 191.02 454.47C191.29 455.27 193.2 454.46 193.49 455.96C193.72 457.15 193.93 458.36 194.3 459.51C194.75 460.9 195.61 461.98 194.63 463.74C194.01 464.85 194.3 467.2 195.14 468.22C196.63 470.04 195.69 471.99 196.25 473.78C196.47 474.49 196.46 475.38 196.22 476.07C196.12 476.38 194.95 476.23 194.68 476.59C193.38 478.31 193.3 480.26 193.93 482.29C194.15 483.01 194.21 483.78 194.35 484.52C193.8 484.62 192.94 484.52 192.74 484.84C191.71 486.5 190.82 488.26 190.81 490.35C199.95 489.25 208.32 485.97 216.86 483.38C219.23 482.66 221.38 481.23 223.71 480.3C225.83 479.45 228.03 478.76 230.24 478.14C236.77 476.3 242.53 472.53 249.08 470.7C251.14 470.13 253.07 469.07 255.02 468.15C256.53 467.44 256.49 467.32 259.21 467.71C259.4 467.74 259.59 467.81 259.78 467.86C260.3 464.74 263.3 464.32 265.36 463.07C268.06 461.43 271.15 460.45 274 459.03C277.53 457.28 280.92 455.25 284.48 453.56C287.38 452.19 290.44 451.13 293.44 449.97C296.87 448.65 300.29 447.3 303.75 446.08C308.3 444.48 312.95 443.15 317.45 441.42C322.98 439.3 328.39 436.87 333.86 434.6C334.55 434.31 335.3 434.15 336.02 433.93C337.34 433.52 338.83 433.38 339.95 432.66C342.85 430.79 346.3 430.26 349.25 428.55C350.16 428.02 351.24 427.62 352.28 427.52C354.76 427.27 357.05 426.78 358.79 424.78C359.03 424.5 359.67 424.56 360.13 424.47C359.88 424.99 359.63 425.5 359.13 426.54C360.5 425.92 361.45 425.48 362.41 425.04C362.35 424.85 362.29 424.67 362.23 424.48C361.49 424.51 360.76 424.55 360.02 424.58C364.99 422.73 369.94 420.86 374.93 419.07C375.63 418.82 376.47 418.98 377.25 418.93C378.31 418.86 379.53 420.2 380.39 418.16C380.77 417.26 383.24 418.66 383.74 416.56C383.78 416.39 384.89 416.22 385.27 416.45C386.66 417.26 387.2 417.24 386.57 415.47C386.56 415.44 386.86 415.22 386.95 415.26C390 416.56 391.93 413.69 394.52 413.13C397.51 412.49 400.18 410.44 403.5 411.14C405.23 409.6 407.13 409.08 409.31 410.13C411.58 406.66 415.22 409.58 417.95 408.28C420.36 409.66 422.73 407.32 425.21 408.2C425.89 408.44 426.96 407.39 427.45 408.8C427.5 408.95 428.03 409.1 428.06 409.07C429.62 406.67 432.07 408.34 434.04 407.79C436.01 407.23 438.13 407.15 440.19 406.94C440.6 406.9 441.08 407.14 441.48 407.36C441.73 407.49 441.87 407.82 442.07 408.06C441.74 408.26 441.43 408.48 441.09 408.64C440.71 408.82 440.29 408.93 439.46 409.21C440.49 409.4 441.2 409.35 441.65 409.67C441.93 409.87 441.98 411.02 441.85 411.07C440.33 411.7 438.75 412.21 436.98 412.82C437.91 413.1 438.68 413.34 439.75 413.66C436.72 415.34 433.89 416.23 430.69 416.12C428.56 416.05 426.41 416.62 424.28 416.59C422.38 416.57 420.49 415.9 418.63 416.96C418.16 417.23 417.41 417.06 416.79 417.01C410.88 416.56 405.27 418.29 399.57 419.35C396.64 419.89 393.63 420.36 391.44 422.83C391.01 423.32 390.04 423.37 389.29 423.55C378.02 426.21 366.95 429.6 356.29 434.03C349.43 436.88 342.67 440.03 335.77 442.81C327.14 446.29 318.32 449.29 309.63 452.64C305.25 454.33 300.97 456.29 296.66 458.17C291.64 460.35 286.61 462.5 281.65 464.81C278.64 466.21 275.8 467.97 272.82 469.44C269.13 471.26 265.42 473.04 261.65 474.68C255.53 477.35 249.35 479.89 243.21 482.5C238.02 484.7 232.87 486.91 227.34 488.29C222.94 489.38 218.8 491.5 214.48 492.95C209.57 494.59 204.6 496.09 199.6 497.43C196.52 498.26 193.34 498.8 190.17 499.26C188.84 499.45 187.72 499.76 187.06 500.93C185.94 502.91 184.84 504.78 182.38 505.47C181.71 505.66 181.54 506.69 182.78 506.93C182.86 506.95 182.98 507.58 182.88 507.65C179.32 510.18 179.67 514.37 178.42 517.9C177.25 521.21 175.96 524.47 175.78 528.03C173.12 530.51 175.13 533.29 176.1 535.21C179.24 541.48 183.81 546.53 191.18 548C197.58 549.28 204 550.16 210.57 549.96C213.77 549.86 216.98 549.69 220.22 550.69C223 551.55 226.06 551.64 229.01 551.74C230.74 551.8 228.97 553.49 229.96 553.36C230.52 553.29 230.95 552.43 231.53 552.06C231.89 551.83 232.45 551.71 232.86 551.8C237.32 552.79 241.89 552.34 246.38 552.9C249.6 553.31 252.93 553.06 256.11 553.65C260.7 554.49 265.44 553.94 269.96 555.34C271.25 555.74 273.38 554.94 274.01 555.67C275.58 557.48 277.17 556.49 278.78 556.48C278.94 556.48 279.17 556.54 279.23 556.46C280.33 555.2 280.23 559.05 281.72 557.03C282 556.65 283.59 557.16 284.56 557.37C285.73 557.62 286.87 558.04 288.04 558.3C289.49 558.62 291.75 557.78 291.27 560.69C292.47 560.17 293.86 563.12 294.94 560.48C295.61 560.79 296.29 561.1 297.39 561.62C296.44 562.14 295.79 562.74 295.07 562.85C293.78 563.05 293.64 563.82 293.68 564.83C292.12 564.83 290.56 564.83 289 564.83C287.64 562.84 285.33 564.1 283.5 563.26C281.22 562.22 278.41 562.2 275.81 562.04C272.71 561.86 269.58 562.05 266.47 561.99C263.52 561.94 260.55 561.97 257.63 561.62C254.67 561.26 251.72 561.66 248.73 561.21C244.43 560.56 240 560.81 235.63 560.61C232.89 560.49 230.06 560.62 227.42 559.98C221.53 558.55 215.59 558.15 209.57 558.22C206.19 558.26 202.8 558.52 199.45 557.4C196.73 556.49 193.85 555.81 191 555.55C188.41 555.32 186.15 554.43 184.19 553C180.73 550.47 177.46 547.68 174.21 544.89C173.31 544.12 172.62 543 172.11 541.91C169.5 536.4 168.39 531.04 169.99 524.63C171.71 517.71 174.41 511.34 177.19 504.92C177.82 503.47 178.73 502.15 179.85 500.17C177.63 500.61 176.17 501.08 174.69 501.17C170.36 501.41 165.99 501.23 161.69 501.71C157.4 502.19 153.1 502.02 148.84 502.04C139.23 502.1 129.62 501.64 120.02 501.1C118.35 501.01 116.76 501.38 115.12 501.23C113.32 501.07 111.5 501.13 109.7 501C107.26 500.82 104.83 500.39 102.39 500.39C101.27 500.39 100.21 500.52 99.03 500.44C93.33 500.04 87.63 500.01 81.91 499.51C75.24 498.92 68.53 498.78 61.92 497.5C49.42 495.09 37.9 490.53 28.06 482.23C27 481.34 25.66 480.65 24.88 479.56C21.68 475.07 18.47 470.57 15.59 465.88C12.48 460.82 9.43003 455.69 6.91003 450.33C4.64003 445.51 2.24003 440.63 1.84003 435.12C1.71003 433.32 1.33 431.55 0 430.16C0.02 424.28 0.0200195 418.35 0.0200195 412.43ZM120.08 162.79C123.02 159.82 125.93 157.87 129.6 156.63C135.8 154.54 141.76 151.72 147.8 149.16C148.63 148.81 149.35 148.18 150.16 147.77C152.61 146.52 154.96 144.85 157.57 144.16C168.36 141.31 178.38 136.94 187.95 131.15C194 127.49 198.71 122.44 203.99 117.99C206.67 115.73 208.9 112.85 210.96 109.98C213.19 106.87 215.39 103.63 216.87 100.14C219.18 94.68 221.11 89.13 221.94 83.08C222.79 76.84 222.98 70.77 221.59 64.74C220.1 58.28 218.02 51.95 211.65 48.36C205.34 44.79 198.79 42.98 191.39 44.5C187.96 45.2 184.55 45.97 181.15 46.75C174.76 48.21 169.09 51.09 164.05 55.2599C162.52 56.5299 161.03 57.89 159.33 58.89C157.58 59.91 155.6 60.54 153.8 61.31C153.08 59.95 152.28 58.63 151.68 57.22C151.14 55.97 151.79 54.29 150.54 53.3C148.98 52.07 150.05 50.4199 149.65 49.0099C148.77 45.9299 147.93 42.84 147.04 39.7599C144.8 32.0299 138.86 26.88 133.73 21.25C131.36 18.65 128.26 16.6999 125.46 14.5099C124.61 13.8399 123.69 12.99 122.71 12.84C121.45 12.64 122.45 10.06 120.3 10.95C119.55 11.26 118.33 10.57 117.38 10.2C115.95 9.64995 114.59 8.54 113.15 8.44C107.77 8.08 102.42 6.79996 97.01 7.51996C93.63 7.96996 90.25 8.61995 86.94 9.44995C85.34 9.84995 83.85 10.82 82.4 11.68C81.08 12.46 79.9501 14.06 78.6201 14.2C76.7101 14.41 76.25 16 75.03 16.79C73.53 17.75 72.19 19 70.94 20.29C67.44 23.91 64.35 27.75 62.61 32.65C61.64 35.38 60.71 38.03 60.35 40.92C60.07 43.2 59.75 45.59 58.79 47.63C57.81 49.72 58.2101 51.74 57.9901 53.8C57.5801 57.7 56.75 61.6 56.76 65.49C56.77 67.05 55.33 68.22 56.08 69.71C57.03 71.59 57.0201 73.58 56.9901 75.6C56.9601 77.46 56.65 79.5 57.26 81.17C59.14 86.35 59.33 91.98 62.44 96.9C65.44 101.64 67.32 107.07 69.77 112.16C70.36 113.38 71.13 114.55 72.01 115.59C73.69 117.57 75.17 120.37 77.34 121.14C80.22 122.16 80.78 124.93 82.95 126.3C84.6 127.34 85.84 129.02 87.47 130.1C91.95 133.07 96.06 136.37 99.46 140.6C101.27 142.86 103.33 145.09 105.72 146.68C110.59 149.92 113.42 154.8 116.79 159.27C117.72 160.51 118.93 161.57 120.08 162.79ZM109.59 314.25C107.86 314.94 106.58 315.35 105.39 315.94C100.42 318.38 95.5001 320.93 90.4901 323.29C89.2201 323.89 87.88 324.99 86.19 323.67C85.42 323.07 84.59 323.66 84.23 324.85C83.95 325.75 82.67 327.22 82.54 327.15C80.7 326.15 79.89 326.92 79.25 328.6C79.17 328.81 77.95 328.75 77.33 328.56C76.3 328.26 75.98 328.52 75.92 329.57C75.8 331.52 75.3301 331.83 73.8701 330.72C72.7401 329.86 72.13 330.4 71.7 331.23C71.54 331.53 72.43 332.37 72.27 332.7C71.96 333.35 71.33 333.92 70.71 334.35C67.17 336.81 63.57 339.2 60.03 341.67C56.9 343.85 53.66 345.92 50.75 348.38C47.88 350.81 45.37 353.66 42.71 356.34C40.09 358.98 37.38 361.54 34.95 364.35C34.05 365.4 33.6001 365.9 32.4301 364.92C32.3001 364.81 31.68 365.28 31.29 365.48C32.86 367.82 30.78 369.3 29.76 370.78C26.29 375.85 22.56 380.74 18.94 385.7C18.58 386.19 18.16 386.66 17.9 387.2C15.19 392.87 12.46 398.53 9.86005 404.25C9.45005 405.15 9.54005 406.3 9.55005 407.34C9.55005 407.92 10.11 408.56 9.98004 409.07C9.18004 412.15 9.80003 415.49 9.03003 418.36C7.94003 422.39 9.24002 426 9.39001 429.79C9.46001 431.53 9.80006 433.32 10.3701 434.95C11.7201 438.79 13.0201 442.66 14.9301 446.28C17.9201 451.94 20.29 458.02 23.86 463.27C27.42 468.5 30.86 473.89 36.46 477.7C41.7 481.27 47.15 484.28 53.05 486.15C60.46 488.49 68.3 488.98 76 490.05C77.66 490.28 79.32 490.93 80.94 490.84C87.5 490.47 94.01 491.97 100.57 491.28C101.9 491.14 103.27 490.96 104.56 491.15C106.02 491.36 107.4 492.61 108.87 491.21C111.01 492.52 113.42 492.1 115.63 491.87C117.92 491.62 119.97 493.04 122.36 492.14C124.29 491.41 126.5 493.85 128.63 492.15C130.94 493.87 133.71 492.65 136.26 493.28C138.77 493.9 141.76 492.62 144.27 493.25C146.57 493.82 148.44 492.07 150.52 492.94C151.67 493.42 152.7 493.25 153.95 493.14C159.13 492.66 164.4 492.29 169.56 492.72C174.45 493.13 179.02 492.02 183.73 491.42C184.59 491.31 184.86 491.3 185.32 490.55C187.92 486.29 189.7 481.6 190.54 476.83C192.56 465.24 188.3 455.28 180.62 446.89C177.31 443.27 172.91 440.65 169.23 437.76C167.63 439.22 166.34 440.46 164.98 441.61C163.01 443.28 160.77 444.53 159.73 447.25C159.29 448.41 157.43 449.44 156.05 449.7C154.73 449.95 153.38 451.76 151.79 450.03C151.09 449.26 148.8 450.8 149.11 448.3C147.11 447.4 145.49 448.42 143.98 449.46C142.34 450.6 140.94 452.09 139.24 453.12C135.79 455.22 132.02 456.76 127.92 456.23C126.1 455.99 123.94 455.86 122.59 453.97C120.96 451.7 120.76 451.27 121.16 448.23C119.21 449.2 117.32 450.17 115.41 451.09C113.63 451.95 111.89 452.93 110.02 453.52C108.3 454.06 106.41 454.04 104.65 454.46C102.46 454.99 101.21 452.99 99.44 452.71C96.78 452.29 96.53 449.9 95.21 448.37C93.76 446.67 96.49 447.18 96.29 446.14C96.12 445.27 96.1 444.37 95.98 443.12C91.26 445.35 86.69 445.22 82.09 444.15C81.2 443.94 80.12 443.84 79.51 443.27C75.68 439.71 70.6701 436.81 71.55 430.34C69.9 425.71 72.41 421.22 72.05 416.63C72.01 416.13 72.59 415.58 72.9 415.06C76 409.91 79.54 405.08 83.48 400.54C84.48 399.39 85.16 397.87 86.33 396.97C92.39 392.29 98.18 387.21 105.29 384.06C106.25 383.64 107.25 382.89 106.17 381.53C105.9 381.2 105.76 380.68 105.74 380.25C105.49 373.43 106.16 366.67 107.08 359.92C107.35 357.95 107.8 355.97 107.77 354C107.74 352.11 108.77 350.52 108.64 348.53C108.37 344.49 108.37 340.36 108.93 336.35C109.96 329.07 109.08 321.83 109.59 314.25ZM102.6 448.64C108.05 445.66 112.69 443.32 117.11 440.63C119.96 438.89 122.6 436.76 125.12 434.57C127.44 432.56 129.6 430.43 132.46 429.11C134.25 428.28 135.79 426.94 137.56 426.05C138.27 425.69 139.29 425.83 140.15 425.92C142.33 426.15 142.56 426.4 141.81 427.94C140.8 430.01 139.24 431.88 138.63 434.05C137.89 436.68 136.57 438.65 134.7 440.57C132.47 442.86 130.63 445.54 128.62 448.05C128.03 448.79 128.19 449.4 128.86 450.05C129.46 450.64 129.81 450.36 130.37 449.98C133.66 447.76 136.96 445.56 140.32 443.44C141.03 443 141.98 442.95 142.82 442.72C142.85 443.16 142.87 443.6 142.9 444.05C143.26 443.64 143.82 443.28 143.95 442.81C144.27 441.67 144.73 441.14 145.87 441.89C146.66 442.41 146.74 441.91 147.04 441.29C147.43 440.5 148.72 442.61 149.06 440.83C149.25 440.99 149.47 441.13 149.64 441.32C150.31 442.05 151 442.77 151.62 443.55C152.26 444.36 152.96 444.33 153.51 443.62C154.35 442.52 155.61 441.35 155.68 440.15C155.77 438.48 156.76 437.79 157.67 436.9C158.73 435.85 159.85 434.85 161.03 433.92C164.98 430.8 167.56 426.39 171.75 423.37C177.1 419.52 181.77 414.75 186.79 410.44C190.66 407.12 194.36 403.5 198.62 400.76C201.92 398.64 204.22 395.49 207.79 393.82C207.33 393.28 207.15 392.88 206.97 392.88C205.91 392.92 204.85 393.09 203.78 393.15C203.27 393.18 202.7 393.16 202.26 392.94C201.54 392.59 200.46 392.15 200.33 391.58C200.08 390.44 200.18 389.99 198.75 390.63C198.06 390.94 196.78 390.13 195.86 389.64C195.44 389.42 196.56 387.75 195.23 388.27C192.75 389.24 192.63 387.83 193.03 386.29C193.35 385.06 192.32 385.46 192.28 385.54C191.41 387.32 190.67 386.85 189.92 385.47C189.38 384.49 187.22 384.89 187.78 382.97C187.38 382.88 186.94 382.64 186.59 382.73C183.76 383.45 181.53 382.39 179.92 380.2C179.18 379.2 179.03 378.66 178.44 380.17C178.37 380.34 177.6 380.36 177.22 380.25C171.93 378.67 166.43 378.79 161.02 378.22C160.48 378.16 159.95 377.13 159.52 377.2C158.64 377.36 157.88 378.06 157 378.32C156.55 378.46 155.7 378.31 155.5 378C155.13 377.41 155.05 377.06 154.25 377.54C152.42 378.65 150.23 378.41 148.24 378.64C140.54 379.55 132.89 381.26 127.35 383.74C127.21 383.8 127.09 383.93 126.95 383.98C124.07 385.02 121.09 385.86 118.32 387.13C113.06 389.55 107.27 390.94 102.86 395.09C101.08 396.76 98.9701 398.09 96.9301 399.46C95.5901 400.36 94.31 401.1 93.14 402.41C91.62 404.11 90.18 405.85 88.84 407.69C87.52 409.49 86.17 411.27 84.9 413.1C83.49 415.13 82.21 417.24 80.78 419.26C79.59 420.94 77.6701 422.43 80.2401 424.54C80.5701 424.81 80.58 425.8 80.39 426.34C79.06 430.19 80.72 432.74 83.56 435.23C85.09 436.57 86.12 436.79 88 436.27C92.13 435.13 96.12 433.79 99.97 431.83C102.6 430.49 105.34 429.47 107.3 427.17C112.07 421.6 117.67 417.01 124 413.36C128.37 410.83 133.04 408.98 138.2 408.82C138.55 408.81 138.92 409.18 139.3 409.39C138.8 410.81 138.68 412.16 136.9 412.55C135.94 412.76 134.96 413.54 134.3 414.32C133.33 415.47 132.76 416.72 131.01 417.26C129.76 417.64 129.07 419.59 127.84 420.37C120.34 425.11 114.01 431.18 108.28 437.86C105.92 440.64 103.53 443.56 102.6 448.64ZM114.81 332.22C114.66 332.22 114.52 332.22 114.37 332.22C114.37 333.65 114.37 335.08 114.37 336.51C114.52 336.51 114.66 336.51 114.81 336.51C114.81 335.08 114.81 333.65 114.81 332.22Z" fill="#1D3D6C"/>
<path d="M491.97 428.331C491.73 428.491 491.28 428.641 491.27 428.821C491.04 432.051 489.93 435.091 489.29 438.221C488.77 440.771 487.94 443.321 487.65 445.811C487.14 450.091 484.82 453.541 483.54 457.441C482.23 461.441 479.28 464.631 476.31 467.451C472.15 471.401 467.77 475.121 463.58 479.071C460.61 481.861 456.82 483.791 453.32 486.001C451.65 487.051 449.83 487.871 448.05 488.741C443.56 490.941 438.96 492.881 434.02 493.861C433.57 493.951 433 493.871 432.67 494.121C428.88 497.011 424.19 497.531 419.85 498.891C415.55 500.241 411.06 501.011 406.73 502.301C404.42 502.991 401.97 502.981 399.81 503.651C397.44 504.391 394.91 504.521 392.72 505.361C388.1 507.131 383.3 507.761 378.53 508.521C373.11 509.381 367.8 511.051 362.23 510.871C360.31 510.811 358.39 510.801 356.47 510.761C354.55 510.721 352.63 512.411 350.7 510.791C347.03 511.071 343.31 511.061 339.72 511.731C337.05 512.231 334.41 511.691 331.73 512.241C329.04 512.801 326.15 512.401 323.35 512.411C322.67 512.411 321.98 512.351 321.3 512.401C319.02 512.581 316.72 513.101 314.48 512.911C312.36 512.731 310.32 511.891 308.22 513.111C307.91 513.291 307.15 512.671 306.58 512.451C305.73 512.121 304.89 511.621 304.01 511.531C300.5 511.161 296.98 510.961 293.47 510.611C292.43 510.511 291.44 510.051 290.4 509.861C288.29 509.461 286.18 509.011 284.05 508.811C282.06 508.631 280.04 508.961 278.18 507.801C277.6 507.441 276.74 507.501 276.01 507.401C272.89 506.951 269.85 506.421 266.81 505.321C263.97 504.291 261.06 503.321 258.16 502.381C256.95 501.991 255.58 501.701 255.51 500.191C255.42 498.401 256.3 496.901 257.77 495.891C261.28 493.471 266.64 493.031 270.61 494.851C272.86 495.891 275.16 496.391 277.63 496.711C281.23 497.181 284.75 498.221 288.3 499.011C289.04 499.171 289.8 499.411 290.55 499.411C295.04 499.411 299.41 500.311 303.79 501.171C303.94 501.201 304.1 501.231 304.25 501.241C313.83 501.881 323.45 503.121 333.01 501.961C340.52 501.041 348.05 501.991 355.48 500.991C360.44 500.321 365.42 500.331 370.4 499.661C377.85 498.661 385.19 497.091 392.46 495.481C405.23 492.641 418.24 490.471 430.42 485.391C438.58 481.981 446.98 479.051 454.42 474.121C456.46 472.771 458.48 471.351 460.33 469.751C463.96 466.611 467.59 463.451 470.97 460.051C474.93 456.071 477.32 451.121 478.88 445.761C479.77 442.701 480.84 439.691 481.61 436.611C482.13 434.541 482.3 432.381 482.6 430.251C482.83 428.581 483.01 426.911 483.22 425.241C483.28 424.791 483.46 424.321 483.4 423.891C482.94 420.261 482.19 416.651 482.03 413.021C481.85 409.041 479.71 405.381 480.25 401.391C480.43 400.101 479.36 400.471 479.11 399.881C478.12 397.471 476.94 395.121 476.13 392.651C473.35 384.151 469.4 376.221 464.78 368.611C462.87 365.471 460.46 362.641 458.36 359.621C457.41 358.251 456.82 356.621 455.8 355.321C453.06 351.801 450.29 348.281 447.32 344.951C442.66 339.721 437.86 334.601 433.02 329.521C431.91 328.361 430.46 327.491 429.07 326.641C427.35 325.591 426.54 323.651 424.55 322.721C422.52 321.781 420.95 319.871 419.09 318.511C417.37 317.251 415.54 316.131 413.75 314.961C411.81 313.691 409.88 312.411 407.92 311.161C406.11 310.001 404.26 308.921 402.48 307.731C397.27 304.261 391.98 300.891 386.9 297.231C381.43 293.291 375.5 290.351 369.2 288.061C364.47 286.341 359.78 284.501 355.05 282.801C353.03 282.081 350.91 281.641 348.88 280.951C343.17 279.021 337.48 277.031 331.58 274.991C331.45 276.151 331.18 277.261 331.24 278.351C331.6 284.861 329.25 290.641 326.98 296.581C324.97 301.841 322.07 306.261 318.12 310.121C317.92 310.321 316.27 314.741 316.12 315.051C315.22 316.791 314.32 318.531 313.33 320.211C310.73 324.661 306.26 326.851 302.11 329.411C301.49 329.791 300.51 330.291 300 330.061C297.53 328.981 296.02 330.711 294.35 331.801C287.51 336.261 280.46 340.221 272.3 341.761C271.39 341.931 270.49 342.191 269.57 342.241C266.86 342.381 264.14 342.621 261.44 342.461C257.53 342.231 253.46 342.271 249.77 341.171C242.33 338.951 234.92 336.311 230.94 328.681C229.7 326.301 228.37 324.021 227.33 321.491C224.93 315.631 225.01 309.611 225.58 303.681C226.06 298.741 226.14 293.581 227.52 288.881C228.67 284.991 230.33 281.011 232.75 277.531C234.67 274.771 236.47 271.921 238.3 269.101C238.45 268.861 238.44 268.521 238.5 268.221C234.81 265.491 231.9 262.051 229.84 258.001C229.19 256.731 229.44 254.991 229.34 253.471C229.33 253.301 229.76 252.911 229.81 252.941C232.16 254.221 232.71 251.841 233.85 250.881C236.26 248.861 237.79 248.231 242.23 247.791C242.56 247.761 242.89 247.001 243.07 246.521C243.13 246.351 242.77 246.011 242.58 245.761C240.38 242.781 240.58 239.291 240.37 235.861C240.14 232.191 240.91 228.831 243.11 225.851C243.51 225.311 244.09 224.661 244.67 224.551C247.07 224.091 249.53 223.931 251.92 223.431C252.91 223.231 253.81 222.521 254.7 221.961C257.52 220.181 259.68 217.481 263.22 216.691C266.54 215.961 270.5 216.801 272.53 219.481C274.43 222.001 276.2 224.631 278.14 227.371C280.13 225.261 281.31 222.831 283.35 220.951C286.5 218.031 290.2 217.361 294.11 217.011C296.12 216.831 298.22 217.301 300.17 216.921C303.78 216.201 306.6 218.501 309.87 219.021C311.26 219.241 311.77 221.001 313.21 221.731C314.48 222.381 315.43 224.411 315.73 225.981C315.98 227.281 315.36 228.971 314.63 230.191C312.51 233.761 312.97 237.411 314.51 240.781C317.29 246.881 320.35 252.881 323.65 258.721C324.67 260.521 325.63 262.301 326.41 264.201C327.16 266.041 329.24 267.131 329.33 269.331C329.42 271.601 330.62 267.191 331.02 269.661C331.49 272.541 332.15 269.331 332.83 269.541C334.43 270.021 336.07 270.371 337.67 270.851C339.14 271.291 340.61 271.741 342.02 272.341C342.6 272.591 342.97 273.291 343.51 273.681C344.1 274.101 344.91 274.821 345.41 274.671C349.48 273.521 352.56 276.451 356.15 277.151C356.79 279.221 359.21 276.921 359.97 278.701C363.96 278.601 367.07 280.941 370.51 282.411C371.33 282.761 372.4 282.531 373.2 282.901C373.97 283.251 374.72 283.931 375.15 284.651C375.81 285.771 376.35 286.491 377.54 285.291C379.57 286.721 382.8 286.351 383.7 289.501C383.82 289.901 384.75 290.471 385.06 290.351C387.22 289.481 387.74 290.851 388.3 292.421C388.47 292.881 389.04 293.471 389.48 293.521C393.74 294.061 393.77 294.051 395.77 297.921C396.05 298.461 396.3 298.471 397.57 298.131C397.89 298.041 398.5 298.011 398.55 298.121C399.72 301.041 402.83 301.351 405.07 302.521C408.69 304.411 411.9 306.781 415.13 309.161C415.99 309.801 416.21 311.861 416.95 311.991C418.41 312.241 419.26 312.871 419.76 314.041C420.26 315.211 420.83 314.571 421.52 314.401C421.85 314.321 422.58 314.621 422.64 314.871C423.35 317.921 426.44 318.801 428.08 320.981C429 322.211 430.02 322.921 431.63 321.931C432.11 321.631 432.45 321.941 432.49 322.841C432.57 324.751 432.77 324.681 435.77 325.701C436.2 325.851 436.27 327.021 436.54 327.701C436.86 328.511 437.12 329.861 437.91 327.931C438.35 328.131 439.07 328.241 439.18 328.561C440.19 331.441 440.14 331.541 442.57 331.971C443.96 332.221 444.65 332.571 443.82 334.051C443.77 334.151 444.37 334.751 444.39 334.731C445.54 333.921 446.27 334.521 447.09 335.351C449.33 337.671 451.67 339.891 453.91 342.211C454.29 342.611 454.23 343.441 454.61 343.841C455.69 344.971 455.38 346.961 456.35 347.701C457.74 348.751 458.22 349.941 458.68 351.431C458.88 352.081 459.65 352.741 460.32 353.021C463.95 354.511 465.77 357.701 467.79 360.721C469.65 363.501 471.44 366.331 473.34 369.081C474.08 370.151 474.51 370.961 472.85 371.441C472.98 371.791 473.1 372.421 473.25 372.431C474.38 372.511 475.14 372.561 475.31 374.141C475.42 375.091 477 375.791 477.46 376.811C480 382.401 482.39 388.061 484.83 393.701C485.01 394.121 485.15 394.551 485.32 394.971C485.77 396.101 483.5 396.951 484.99 398.191C486.92 396.851 486.47 399.021 486.77 399.571C488.92 403.541 489.36 408.031 490.05 412.371C490.74 416.701 490.69 421.131 491.06 425.521C491.11 426.171 491.65 426.781 491.97 427.411C491.97 427.711 491.97 428.021 491.97 428.331ZM313.91 292.651C312.76 292.651 311.36 293.051 310.37 292.581C305.41 290.241 299.58 290.351 294.96 287.051C294.25 286.541 293.24 286.201 292.38 286.211C286.36 286.281 280.99 283.931 276.13 280.971C270.01 277.251 263.49 274.051 258.2 269.041C257.21 268.101 256.04 267.311 254.86 266.601C253.78 265.961 252.66 265.601 251.62 266.931C249.45 269.701 247.12 272.351 244.96 275.131C242.98 277.681 241.3 280.481 239.17 282.881C237.25 285.051 236.6 287.711 235.76 290.251C234.59 293.811 234.94 297.831 232.53 301.041C232.38 301.241 232.35 301.591 232.36 301.861C232.52 304.161 233.06 306.501 232.8 308.751C232.52 311.221 232.72 313.441 233.76 315.651C233.82 315.781 233.78 315.961 233.79 316.111C234.17 319.881 235.87 323.121 237.86 326.231C240.04 329.641 243.66 331.141 247.02 333.011C249.92 334.621 253.22 334.351 256.27 335.011C259.86 335.781 263.8 334.861 267.59 334.761C273.37 334.611 281.28 331.711 285.86 328.081C287.01 327.171 288.07 325.741 289.95 326.591C290.12 326.671 290.69 326.151 290.91 325.801C292.76 322.771 294.57 321.771 297.6 322.101C297.82 322.121 298.19 321.831 298.3 321.591C298.55 321.071 298.59 320.061 298.88 320.001C301.65 319.391 302.6 316.451 305.01 315.331C306.05 314.851 307.02 313.721 307.53 312.661C309.51 308.581 311.16 304.351 312.53 300.031C312.9 298.881 313.09 297.671 313.31 296.481C313.55 295.331 313.69 294.151 313.91 292.651ZM310.21 282.651C310.09 282.711 309.9 282.751 309.85 282.851C309.55 283.471 309.28 284.101 309 284.731C309.39 284.831 309.79 284.921 310.18 285.021C310.29 284.351 310.41 283.681 310.49 283.001C310.5 282.891 310.31 282.761 310.21 282.651Z" fill="#1D3D6C"/>
<path d="M146.2 110.379C145.44 117.989 144.76 125.099 144.01 132.199C143.79 134.319 143.4 136.439 143 138.539C142.94 138.859 142.42 139.249 142.05 139.329C141.66 139.409 140.96 139.269 140.82 138.999C139.27 135.939 135.76 133.529 137.53 129.349C137.79 121.039 139.55 113.019 142.17 105.159C143.37 101.559 144.4 97.909 145.5 94.269C145.68 93.689 145.9 93.0991 145.93 92.4991C145.99 91.1491 146.39 89.589 144.05 89.659C143.49 89.679 142.9 88.779 142.33 88.299C142.8 87.789 143.2 87.179 143.75 86.789C145.4 85.639 146.95 84.239 149.11 84.089C149.58 84.059 150.42 83.909 150.47 84.049C151.17 85.889 152.04 85.919 153.57 84.779C154.98 83.729 156.14 85.049 157.05 85.919C157.86 86.689 158.52 87.759 158.89 88.819C159.29 89.959 159.27 91.2691 160.34 89.1791C160.68 89.9091 161.51 90.9291 161.28 91.3091C160.49 92.6091 161.15 93.4691 161.9 94.1891C163.09 95.3291 163.89 96.309 163.11 98.149C162.87 98.709 164.01 99.829 164.45 100.719C164.51 100.839 164.13 101.169 163.95 101.409C163.72 101.019 163.49 100.629 163.23 100.169C162.84 101.889 162.45 103.489 162.13 105.109C161.74 107.079 160.96 108.489 158.95 109.539C156.54 110.799 154.42 112.459 151.53 112.659C148.45 112.879 148.45 112.999 146.2 110.379ZM151.02 89.7491C151.02 90.5491 151.2 91.179 150.99 91.609C149.88 93.859 148.91 96.059 150.26 98.599C150.45 98.949 150.12 99.969 149.76 100.149C147.68 101.239 147.3 102.579 148.48 104.649C148.79 105.199 148.16 106.279 147.92 107.269C148.74 106.969 149.31 106.809 149.84 106.549C151.35 105.809 152.83 105.029 154.32 104.269C158.29 102.249 158.28 102.259 157.17 97.579C157.06 97.139 157.2 96.6291 157.08 96.1891C156.25 93.1491 154.89 90.5291 151.02 89.7491Z" fill="#1D3D6C"/>
<path d="M182.96 101.529C185.37 103.339 187.07 104.989 189.08 106.019C190.89 106.949 193.04 107.549 194.75 105.329C195.07 104.909 196.15 104.849 196.8 104.989C197.08 105.049 197.39 106.059 197.31 106.579C197.05 108.229 196.64 109.859 196.23 111.489C196.17 111.719 195.73 112.079 195.58 112.029C193.47 111.369 192.48 113.699 190.65 113.819C188.76 113.939 187.31 112.909 185.72 112.229C183.92 111.459 181.99 110.979 181.11 108.819C180.73 107.869 179.66 107.219 179.05 106.339C178.18 105.089 177.72 103.359 176.58 102.559C175.55 101.839 173.83 102.089 172.42 101.929C171.96 101.879 171.47 101.929 171.03 101.789C170.21 101.529 170 100.009 170.72 99.4791C171.08 99.2091 171.53 98.9591 171.96 98.9091C174.51 98.5991 176.11 97.6391 175.98 94.6391C175.92 93.3791 176.78 92.0791 177.21 90.7891C177.59 89.6591 178.96 88.7791 178.06 87.2691C177.97 87.1191 178.76 86.2891 179.26 85.9491C181.54 84.4191 183.73 82.6291 186.22 81.5991C187.75 80.9591 189.93 80.0191 191.52 82.2391C192.01 82.9291 193.07 83.1791 193.83 83.6991C197.66 86.3391 197.99 90.8791 194.43 94.0091C191.83 96.2891 190.03 99.6091 186.26 100.429C185.39 100.609 184.56 100.989 182.96 101.529ZM190.81 88.0491C190.82 85.9091 189.74 85.2191 188.48 85.8391C187.25 86.4391 185.85 86.9191 184.9 87.8391C183.62 89.0791 182.63 90.6491 181.66 92.1691C180.95 93.2891 181.5 94.2391 182.53 94.9091C183.78 95.7291 183.88 94.5091 184.51 93.9291C185.84 92.6992 187.5 91.8492 188.84 90.6292C189.78 89.7792 190.42 88.5791 190.81 88.0491Z" fill="#1D3D6C"/>
<path d="M90.5701 47.829C90.2601 50.689 92.0302 53.7691 89.4302 56.4091C89.3602 56.4791 89.3202 56.699 89.3702 56.759C91.6202 59.449 89.6302 62.3391 89.7302 65.1291C89.8302 67.7291 89.3102 70.2691 87.8402 72.5391C87.5802 72.9291 87.5301 73.7391 87.7601 74.0991C88.0201 74.4991 88.7802 74.8591 89.2402 74.7791C93.7302 73.9691 96.7502 75.569 98.4102 79.639C99.0402 81.179 100.05 82.569 100.55 84.139C100.93 85.309 101.12 86.7591 100.76 87.8791C100.3 89.3391 100.35 90.529 101.09 91.769C101.67 92.729 102.08 93.6691 101.32 94.7791C101.09 95.1091 101.09 95.6791 101.16 96.1191C101.36 97.3791 102.92 98.539 101.44 99.899C101.28 100.049 100.64 100.019 100.59 99.9191C99.7702 98.0391 96.7402 98.979 96.3502 96.3391C95.9702 93.7691 95.5801 91.3691 95.8101 88.6691C96.0601 85.6591 95.2801 82.3391 93.6301 79.4791C92.9101 78.2291 92.2102 78.5591 91.4302 79.2191C88.8402 81.4191 86.7602 83.9591 86.0502 87.4091C85.7702 88.7591 85.4802 90.1191 85.0502 91.4291C84.9002 91.8791 84.3302 92.4691 83.9302 92.4891C83.4502 92.5091 82.7502 92.1091 82.4902 91.6791C80.2802 87.9591 79.8201 82.9891 81.0101 78.4091C82.6601 72.0891 84.0301 65.709 85.7501 59.399C86.5801 56.369 86.7402 53.0991 87.9602 50.1191C88.3402 49.1991 88.9801 48.3991 89.5001 47.5391C89.8601 47.6191 90.2201 47.729 90.5701 47.829Z" fill="#1D3D6C"/>
<path d="M129.63 95.5195C130.35 99.9495 127.97 103.19 125.19 106.05C124.44 106.82 122.52 107.15 121.4 107.23C116.25 107.56 111.6 104.01 110.03 99.4695C109.52 98.0095 109.25 96.8695 110.39 95.6595C110.63 95.4095 110.77 94.9395 110.74 94.5895C110.44 91.3395 111.41 88.2095 113.47 86.1595C113.79 85.8395 114.58 85.4395 114.58 85.4495C116.72 88.7195 118.52 85.1095 120.45 84.9895C122.28 84.8795 123.95 85.1595 125.69 85.3895C125.16 87.9495 128.23 86.9995 128.65 88.3395C129.26 90.2695 129.43 92.3495 129.75 94.3695C129.82 94.7295 129.68 95.1395 129.63 95.5195ZM124.67 95.1395C124.99 93.1295 124.01 91.7395 122.7 90.5395C122.31 90.1795 121.59 89.8095 121.16 89.9395C118.07 90.8595 115.36 95.4695 115.96 97.7595C116.34 99.1995 117.93 100.969 119.31 101.149C121.34 101.409 122.56 100.869 123.41 99.0095C123.98 97.7795 124.26 96.4295 124.67 95.1395Z" fill="#1D3D6C"/>
<path d="M249.11 315.999C251.44 316.499 253.77 316.989 256.11 317.489L262.37 318.779C264.01 317.369 265.97 319.359 267.84 318.109C269.56 316.959 271.96 316.849 273.75 315.759C275.41 314.749 277.43 314.559 278.9 313.029C280.18 311.709 282.15 312.429 282.37 314.139C282.57 315.669 282.49 317.249 282.36 318.789C282.32 319.289 281.79 319.829 281.36 320.209C280.07 321.309 278.7 322.299 277.4 323.379C273.8 326.369 267.04 327.729 262.35 326.479C258.69 325.499 254.98 324.699 252.37 321.579C251.12 320.089 249.84 318.629 248.57 317.159C248.74 316.779 248.92 316.389 249.11 315.999Z" fill="#1D3D6C"/>
<path d="M270.3 286.741C270.64 291.711 267.56 295.191 265.21 298.891C262.86 302.601 260.13 306.071 257.59 309.651C257.33 310.021 257.31 310.651 256.98 310.861C256.25 311.341 255.41 311.791 254.58 311.891C254.33 311.921 253.66 310.701 253.68 310.061C253.77 307.561 252.23 305.341 253.29 302.531C254.15 300.261 255.07 297.911 256.41 296.111C259.3 292.231 262.84 288.821 266.13 285.231C266.65 284.661 267.21 284.101 267.85 283.671C269.06 282.861 270.22 283.491 270.3 284.971C270.33 285.601 270.3 286.221 270.3 286.741Z" fill="#1D3D6C"/>
<path d="M282.93 306.289C280.7 305.429 278.41 304.559 275.98 303.629C276.29 302.649 276.94 301.699 276.75 300.969C275.89 297.609 278.22 295.489 279.68 293.089C280.25 292.149 281.34 291.379 282.36 290.879C283.64 290.259 284.03 292.029 284.75 292.229C287.79 293.069 287.74 295.029 287.22 297.429C286.8 299.349 286.82 301.429 286.05 303.179C285.5 304.459 283.97 305.309 282.93 306.289Z" fill="#1D3D6C"/>
<path d="M256.27 289.1C255.83 288.59 255.38 288.08 254.94 287.57C254.3 288.39 253.57 289.15 253.04 290.04C251.92 291.94 251.6 292.17 250.11 290.93C248.04 289.22 246.34 287.21 246.83 284.17C246.95 283.43 247.04 282.49 246.69 281.91C245.89 280.57 246.99 280.27 247.67 279.84C248.41 279.37 249.33 279.2 250.1 278.76C250.86 278.33 251.6 277.22 252.23 277.31C253.38 277.46 254.84 278 255.45 278.88C256.14 279.87 256.67 281.78 256.17 282.65C254.78 285.03 255.96 286.73 256.27 289.1Z" fill="#1D3D6C"/>
</svg>
