<svg width="280" height="292" viewBox="0 0 280 292" fill="none" xmlns="http://www.w3.org/2000/svg">
<path d="M187.558 191.803C187.367 191.441 187.186 190.818 186.995 190.818C186.402 190.818 185.809 191.039 185.225 191.21C185.165 191.23 185.125 191.562 185.195 191.692C185.346 191.954 185.577 192.175 185.778 192.437C184.783 193.181 183.757 193.874 182.822 194.679C182.44 195.011 181.776 194.136 181.575 195.121C181.465 195.685 180.741 195.473 180.288 195.604C179.765 195.765 179.293 196.067 178.8 196.288C177.935 196.67 177.08 197.102 176.185 197.394C175.331 197.676 174.406 197.736 173.551 198.007C170.434 199.023 167.296 200.029 164.219 201.165C162.087 201.959 159.855 202.482 157.834 203.498C156.215 204.312 154.515 204.926 152.907 205.74C149.92 207.259 146.732 208.063 143.444 208.616C141.684 208.918 139.905 209.119 138.215 209.984C136.596 210.808 134.686 211.05 132.906 211.552C131.81 211.864 130.734 212.226 129.638 212.508C127.888 212.96 126.118 213.342 124.379 213.785C122.076 214.368 119.683 214.338 117.38 214.871C117.088 214.941 116.766 214.881 116.455 214.881C113.549 214.891 110.632 214.871 107.716 214.911C106.55 214.931 105.394 214.981 104.549 213.875C104.579 213.734 105.514 213.775 104.83 213.332C104.257 212.96 103.403 212.94 103.664 211.914C103.684 211.834 103.543 211.713 103.463 211.633C103.423 211.593 103.352 211.593 103.292 211.593C102.216 211.562 102.166 210.195 101.11 210.014C100.195 209.853 99.3501 209.32 98.4953 208.908C98.3143 208.817 98.1635 208.586 98.083 208.385C97.892 207.882 97.7512 207.359 97.5903 206.866C97.0976 207.007 96.5948 207.158 96.0016 207.329C95.7401 206.706 95.7702 205.992 96.4641 205.74C97.6305 205.298 97.6104 204.332 97.2785 203.639C96.635 202.281 96.4842 200.753 95.5792 199.476C95.006 198.671 94.4428 197.575 94.5132 196.65C94.6037 195.493 94.3423 194.397 94.3926 193.271C94.4428 192.034 94.4026 190.797 94.4026 189.551C94.4026 189.118 94.5333 188.625 94.3724 188.263C93.8596 187.137 93.8697 185.931 94.0809 184.824C94.4328 183.055 94.2921 181.285 94.463 179.525C94.5032 179.173 94.4831 178.882 94.453 178.55C94.3826 177.715 94.1714 176.82 94.7043 176.026C94.1613 174.839 95.1266 173.582 94.5132 172.355C94.292 171.893 94.4328 171.269 94.3825 170.716C94.3121 169.932 94.2015 169.148 94.1311 168.363C94.111 168.132 94.1613 167.901 94.1714 167.679C94.1915 167.207 94.2317 166.744 94.2116 166.272C94.1714 165.296 93.8396 164.251 94.091 163.366C94.4831 162.008 94.2819 160.691 94.3926 159.363C93.5077 158.67 92.7636 159.514 91.9592 159.575C91.2151 159.635 90.9536 160.6 90.0788 160.741C89.4352 160.852 88.9123 161.576 88.319 161.998C86.8911 163.024 85.4934 164.1 84.0152 165.045C82.0342 166.312 79.9929 167.468 77.9616 168.655C77.2879 169.047 76.564 169.359 75.8701 169.701C75.6992 169.781 75.5182 169.831 75.3673 169.932C74.7539 170.334 74.2008 170.927 73.5371 171.119C72.8835 171.31 72.2399 171.481 71.6467 171.792C71.4858 171.883 71.335 171.993 71.1841 172.084C70.8422 172.285 71.0032 172.989 70.3294 172.878C69.887 172.808 69.4546 172.898 69.3541 173.472C69.2636 173.451 69.1328 173.451 69.0825 173.381C68.4893 172.627 67.8557 173.27 67.3027 173.401C66.1161 173.673 65.9954 173.653 65.7641 172.436C65.7239 172.255 65.6938 172.084 65.6636 171.893C65.1005 172.114 64.5776 172.315 63.6323 172.687C64.1251 171.812 64.2959 171.038 64.7082 170.867C65.563 170.525 65.4021 169.912 65.3417 169.369C65.2311 168.414 64.9698 167.488 64.7887 166.543C64.7184 166.181 64.5776 165.789 64.658 165.457C64.9094 164.401 64.6681 163.356 64.6681 162.31C64.6781 161.264 64.9194 160.228 64.9697 159.182C65.0099 158.469 65.211 157.724 64.7183 157.031C64.5473 156.789 64.5775 156.256 64.7284 155.975C65.0904 155.311 64.9597 154.778 64.7485 154.074C64.5574 153.451 64.8189 152.656 65.0301 151.983C65.4826 150.525 65.5328 149.016 65.7541 147.528C66.0256 145.808 66.1663 144.039 67.4735 142.661C68.097 141.997 68.6098 141.273 69.6355 141.293C69.8065 141.303 69.9774 141.183 70.1484 141.143C70.3595 141.092 70.5707 141.052 70.7819 141.012C70.7316 141.173 70.6914 141.324 70.6411 141.474C70.8623 141.535 71.1137 141.696 71.2947 141.635C71.6869 141.505 72.1595 141.364 72.3908 141.062C73.2053 140.057 74.3919 139.745 75.4578 139.202C77.1773 138.307 78.7561 137.241 80.2745 135.974C81.3102 135.109 82.1247 133.993 83.4119 133.349C84.5783 132.756 85.5236 131.72 86.5593 130.876C86.8911 130.604 87.2531 130.363 87.5548 130.061C88.681 128.945 89.7569 127.759 91.2451 127.085C91.4563 126.984 91.6172 126.763 91.7882 126.582C93.3267 124.903 95.177 123.595 96.9669 122.218C99.2093 120.508 101.06 118.417 102.91 116.325C103.805 115.31 104.629 114.374 106.087 114.033C107.113 113.791 108.098 113.158 108.953 112.424C109.466 111.981 109.929 111.287 110.854 111.74C110.984 111.8 111.367 111.207 111.92 111.157C114.313 110.895 116.626 110.141 119.059 110.03C119.813 109.99 120.557 109.528 121.362 109.759C122.066 109.96 122.729 109.658 123.433 109.668C124.509 109.689 125.646 109.296 126.641 109.538C127.687 109.799 128.542 109.367 129.487 109.326C129.919 109.316 130.362 109.357 130.784 109.316C131.498 109.256 132.222 109.477 132.936 109.015C133.298 108.783 133.962 108.814 134.384 108.985C135.369 109.397 136.295 109.065 137.2 108.904C138.296 108.713 139.402 108.703 140.488 108.532C143.736 108.019 147.104 108.15 150.212 106.823C150.322 106.772 150.443 106.692 150.543 106.702C152.333 106.863 154.073 106.441 155.833 106.32C156.617 106.27 157.442 106.511 158.025 105.686C158.357 105.214 158.789 106.179 159.282 105.636C159.674 105.214 160.338 105.053 160.82 104.691C161.102 104.49 161.222 104.54 161.383 104.761C161.645 105.113 161.846 105.103 162.268 104.872C162.801 104.57 163.495 105.294 164.088 104.781C165.717 105.043 167.326 104.54 168.975 104.701C169.468 104.741 169.961 104.741 170.464 104.882C171.107 105.043 171.811 105.274 172.415 105.153C173.682 104.892 174.818 105.354 176.014 105.465C177.161 105.576 178.347 106.26 179.554 105.596C179.745 105.485 180.157 105.475 180.268 105.606C180.922 106.32 181.716 105.596 182.43 105.908C183.134 106.209 183.938 106.29 184.682 106.501C185.356 106.692 186.05 106.642 186.714 106.601C188.453 106.491 189.941 107.637 191.691 107.466C191.953 107.446 192.234 107.697 192.506 107.808C193.119 108.059 193.722 108.502 194.336 108.512C195.271 108.532 195.874 108.954 196.618 109.427C197.976 110.282 199.514 110.825 200.993 111.488C201.154 111.559 201.365 111.539 201.546 111.499C202.752 111.237 202.783 111.207 203.275 111.72C203.979 112.434 204.693 113.057 205.779 113.077C206.041 113.087 206.312 113.329 206.523 113.52C206.684 113.671 206.765 113.922 206.875 114.123C206.875 114.133 207.137 115.129 207.157 115.159C207.639 115.913 207.398 116.496 206.855 117.14C206.614 117.431 206.664 118.065 206.765 118.507C206.855 118.899 207.137 119.282 207.418 119.583C208.273 120.508 208.243 121.695 208.223 122.771C208.193 123.957 207.77 125.134 207.629 126.331C207.489 127.467 207.509 128.613 207.016 129.689C206.915 129.9 206.976 130.182 206.996 130.423C207.066 131.348 206.755 132.093 206.081 132.726C205.829 132.967 205.689 133.319 205.508 133.631C204.261 135.763 203.748 138.186 202.903 140.479C202.451 141.716 201.767 142.882 201.495 144.159C201.093 145.979 200.379 147.699 199.927 149.489C199.816 149.901 199.696 150.303 199.535 150.685C199.243 151.369 198.791 151.842 198.036 152.083C197.413 152.284 196.83 152.616 196.267 152.958C195.965 153.149 195.764 153.219 195.462 152.978C195.261 152.817 194.919 152.596 194.768 152.666C194.346 152.868 193.823 153.129 193.652 153.501C193.431 154.004 193.803 154.828 192.757 154.718C192.747 154.859 192.717 154.999 192.727 155.14C192.817 156.84 192.998 158.519 192.536 160.228C192.174 161.556 192.234 162.994 192.103 164.391C192.063 164.753 192.023 165.115 191.943 165.467C191.731 166.372 191.339 167.217 191.661 168.233C191.822 168.735 191.4 169.389 191.359 169.982C191.299 170.787 191.39 171.591 191.339 172.396C191.299 173.089 191.229 173.773 191.309 174.477C191.369 174.99 191.108 175.533 191.078 176.066C191.048 176.458 191.329 176.961 191.168 177.222C191.007 177.484 190.706 177.454 190.917 177.966C191.158 178.55 191.078 179.294 190.655 179.897C191.138 180.712 190.193 181.486 190.495 182.19C190.927 183.195 190.082 183.929 190.193 184.855C190.293 185.709 190.243 186.584 190.223 187.449C190.183 189.118 189.026 191.21 187.83 191.813C187.81 191.843 187.669 191.803 187.558 191.803ZM151.117 144.501C150.915 145.215 150.704 145.718 150.644 146.241C150.483 147.518 149.669 148.584 149.488 149.801C149.307 151.017 148.955 152.133 148.472 153.24C148.371 153.461 148.321 153.702 148.281 153.933C148.14 154.708 148.05 155.482 147.889 156.236C147.678 157.232 147.326 158.197 147.185 159.193C147.074 159.977 146.903 160.902 147.989 161.314C148.14 161.375 148.19 161.727 148.271 161.948C148.462 162.461 148.643 162.973 148.814 163.436C149.105 163.225 149.437 162.873 149.518 162.933C149.92 163.185 150.141 163.255 150.222 162.672C150.262 162.441 150.493 162.249 150.523 162.028C150.674 160.58 150.815 159.132 150.905 157.674C151.026 155.784 151.016 153.903 151.177 152.013C151.398 149.62 151.831 147.166 151.117 144.501ZM173.38 140.972C172.394 142.741 172.988 144.602 172.988 146.412C173.772 144.662 174.546 142.912 173.38 140.972ZM177.503 155.09C177.08 156.377 176.618 157.644 176.246 158.941C176.065 159.555 176.024 160.228 176.879 160.54C177.493 158.79 177.794 157.041 177.503 155.09Z" fill="#477DCA"/>
<path d="M53.5061 27.7742C54.2704 28.0457 54.1295 28.5284 53.7775 29.0412C53.7474 29.0814 53.5463 29.0412 53.4558 28.9809C53.3552 28.9105 53.2949 28.7798 53.2145 28.6792C53.1743 28.7898 53.124 28.9004 53.1039 29.0211C53.0838 29.1418 53.0435 29.363 53.0938 29.3831C53.9687 29.7954 53.5262 30.4691 53.5463 31.1127C53.5865 32.4702 53.2748 33.6769 52.6112 34.8433C52.4 35.1953 52.4603 35.7081 52.2492 36.05C51.4648 37.2868 50.6301 38.4935 49.7955 39.7002C49.7251 39.8008 49.4336 39.8611 49.333 39.8008C49.0615 39.6399 48.8201 39.3784 48.8 39.9617C48.7699 40.5851 48.5688 40.8466 47.8549 40.9873C46.8091 41.1884 45.8034 41.5605 44.3856 41.4599C44.8783 41.2086 45.0694 41.108 45.2604 41.0075C45.0694 40.8466 44.8985 40.6354 44.6873 40.5449C44.2549 40.3639 43.008 40.2231 42.827 40.2835C41.9723 40.5248 41.57 41.1482 41.6001 42.1437C41.6605 44.1247 41.5801 44.3862 40.2628 45.5224C39.3578 46.2967 38.6136 47.1514 38.0807 48.2073C37.1958 49.9369 35.8483 50.7916 33.8372 50.5905C33.0126 50.5101 32.178 50.4598 31.2931 50.6609C30.6495 50.8117 29.7345 50.4095 29.1613 49.967C28.7691 49.6654 28.377 49.6955 28.1055 49.7056C26.9994 49.7458 26.0642 49.2732 25.0989 48.9313C23.862 48.4788 22.5949 48.0263 21.4888 47.3224C19.9905 46.3671 18.8744 44.9895 17.899 43.4711C16.6219 41.4599 15.7873 39.308 15.2745 37.0053C15.2544 36.945 15.2141 36.8947 15.194 36.8343C14.8722 36.1003 15.8376 35.4567 15.2543 34.612C14.8421 33.9986 15.6566 33.2244 15.4153 32.4199C15.3248 32.1082 15.8375 31.7864 16.3302 31.706C16.8431 31.6155 16.8331 31.535 16.3504 30.9116C16.0185 30.4792 16.1393 30.1071 16.6823 29.8054C16.7929 29.7451 16.9437 29.5742 16.9136 29.5038C16.7929 29.1619 16.5817 28.9004 17.0342 28.5786C17.2655 28.4077 17.4867 27.8044 17.3761 27.6636C16.7727 26.8692 17.2956 26.2658 17.6275 25.6524C18.8341 23.41 20.2922 21.3386 21.9815 19.428C22.4139 18.9453 22.9771 18.5733 23.51 18.2012C23.6206 18.1207 23.8821 18.3018 24.0832 18.3319C24.6765 18.4425 24.7469 18.3219 24.777 17.5777C24.7871 17.3867 24.9379 17.1956 25.0184 17.0046C25.1591 17.085 25.31 17.1454 25.4206 17.2459C25.5714 17.3867 25.6921 17.5476 25.8229 17.7085C25.9536 17.5275 26.1245 17.3766 26.1949 17.1755C26.2754 16.9543 26.2653 16.6929 26.2854 16.4515C26.7178 16.532 27.1201 16.7029 27.4821 16.6426C27.7536 16.6024 28.0954 16.4515 27.9547 15.8683C27.8642 15.5264 29.1914 15.3856 29.1512 15.446C28.6786 16.3711 29.2116 16.1599 29.6239 15.8482C30.0865 15.5063 30.5691 16.3409 31.0719 15.6772C31.3132 15.3655 32.0473 15.4359 32.7311 15.2951C32.2283 15.1242 31.8964 15.0136 31.5747 14.9029C31.5847 14.8225 31.5847 14.7421 31.5948 14.6616C32.3289 14.7018 33.0529 14.7421 33.7769 14.7823C34.2596 15.5465 34.9031 15.1845 35.5266 14.913C34.9333 14.8828 34.34 14.8426 33.7467 14.8124C34.5612 14.1387 35.4462 14.6113 36.2908 14.7119C36.4216 14.732 35.7075 15.1342 36.331 15.275C36.5522 15.3253 36.8037 15.2448 37.0349 15.2247C36.6327 14.4002 37.3165 14.6314 37.6584 14.6314C38.1511 14.6214 38.6539 14.6314 39.1265 14.7521C40.4438 15.094 41.7812 15.2549 43.008 15.989C43.5912 16.3409 42.7365 16.7431 43.2996 16.9442C43.6717 17.075 44.1241 17.3565 44.2548 17.6884C44.3755 17.98 44.1141 18.4425 43.9532 18.7945C43.9331 18.8448 43.4906 18.6839 43.2493 18.6336C43.1286 18.6135 43.008 18.6336 42.8873 18.6336C42.8772 18.5733 42.8873 18.4626 42.8571 18.4526C41.2281 17.8291 39.5387 17.4872 37.8192 17.256C37.1455 17.1655 36.3812 16.9744 35.798 17.1856C34.9232 17.5174 34.1388 17.4269 33.3042 17.2258C33.1534 17.1856 32.9925 17.1755 32.8518 17.2057C31.625 17.4873 30.4082 17.7889 28.8295 18.161C29.7043 18.2515 30.2574 18.2213 30.7502 18.3822C31.3032 18.5632 31.8059 18.9152 32.3288 19.1967C34.1288 20.152 36.0997 19.6593 37.9902 19.8202C38.1209 19.8302 38.3019 19.5386 38.4025 19.3576C38.493 19.2068 38.4628 18.9252 38.5734 18.8749C38.7745 18.7744 39.036 18.7945 39.2773 18.7945C39.4885 18.7844 39.6293 19.4481 39.941 18.8548C40.0215 18.704 40.303 18.6637 40.484 18.5732C40.6951 19.5084 41.208 18.9453 41.6605 18.8347C42.0728 18.7341 42.4951 18.6939 42.9074 18.6336C43.0985 19.1666 42.8672 20.0715 43.9532 19.8C44.7879 20.4939 46.1756 20.4637 46.4772 21.8313C46.5074 21.9721 46.6884 22.1229 46.8292 22.1933C47.9051 22.7061 48.066 23.6413 48.2068 24.6972C48.2772 25.1798 47.9956 25.9139 48.7297 26.2256C48.8001 26.2457 48.8503 26.5072 48.8 26.5675C48.1464 27.2915 49.323 28.0759 48.7196 28.7898C49.4235 29.4836 48.3978 29.9965 48.5285 30.63C48.3374 30.6099 48.0962 30.4993 47.9856 30.5797C47.5431 30.8713 47.2012 31.2836 47.533 31.8166C47.9252 32.4501 47.6839 32.5406 47.0906 32.4601C47.1811 33.2445 46.1052 33.5864 46.3364 34.431C45.3007 34.6121 45.8738 35.6779 45.371 36.221C45.0995 36.5126 44.989 37.0153 44.5868 37.3472C44.084 37.7695 43.7118 38.3628 42.9878 39.2377C44.9386 38.4332 46.5978 38.0108 47.7844 36.7036C48.0257 36.4422 48.1665 36.1003 48.3174 35.7785C49.3732 33.5864 50.0067 31.2736 50.1776 28.8401C50.1877 28.7094 50.1475 28.5686 50.2078 28.468C50.9821 27.0904 50.2882 25.924 49.6346 24.7877C49.2223 24.0737 48.9006 23.3899 49.0212 22.5553C49.1017 21.962 49.5743 21.7609 50.057 22.133C50.5397 22.505 50.9419 23.0882 51.4749 23.2592C52.8123 23.6815 53.2144 24.6067 53.2949 25.8536C53.3452 26.5072 53.486 27.1508 53.5865 27.8044C53.486 27.7641 53.3854 27.7139 53.2848 27.6736C53.1641 27.6234 53.0334 27.5731 52.9128 27.5127C52.9228 27.6736 52.8726 27.8949 52.953 27.9653C53.1944 28.2267 53.4257 28.1664 53.5061 27.7742ZM21.6195 32.4199C21.9112 32.4501 22.243 32.6009 22.3838 32.1786C22.5145 31.7964 22.5246 31.1831 22.7659 31.0725C23.3391 30.811 23.2486 30.3686 23.2185 29.9965C23.1581 29.3429 22.9971 28.6993 22.8564 28.0558C22.4642 26.286 22.967 24.315 23.9123 22.7262C24.3447 22.0022 25.3401 21.5296 25.139 20.2727C23.8418 21.5497 22.8765 22.8771 22.0117 24.3151C21.5793 25.029 21.5492 25.6122 21.9112 26.3564C22.4643 27.5027 22.2933 28.6893 21.9313 29.8959C21.69 30.7104 21.3078 31.5451 21.6497 32.44C20.9056 32.9126 21.1872 33.5361 21.5291 34.1495C21.5492 33.5763 21.5793 33.0031 21.6195 32.4199ZM38.1511 40.8667C38.6237 40.1527 39.0158 39.489 39.4683 38.8857C40.9867 36.8645 42.9576 35.1752 43.9833 32.792C45.0392 32.0177 45.2705 30.8009 45.6526 29.6646C45.7129 29.4937 45.8236 29.3429 45.9241 29.1921C46.5878 28.0759 46.5877 26.9396 46.2358 25.7027C45.4213 22.8268 43.1487 20.9665 39.8807 20.876C40.5846 21.3486 41.0471 21.6704 41.5298 21.962C41.8315 22.1531 42.4147 22.2637 42.4449 22.4648C42.5857 23.3598 43.722 23.4804 43.8125 24.486C43.8728 25.1899 45.1397 25.6625 44.3554 26.6681C44.3152 26.7184 44.5565 26.9597 44.6168 27.1306C44.6872 27.3116 44.7777 27.5329 44.7375 27.7038C44.6571 28.0859 44.3756 28.4781 44.4258 28.83C44.5063 29.363 43.5409 29.3429 43.9231 30.0166C44.0136 30.1775 43.3196 30.6903 43.3498 30.992C43.4403 31.7261 42.6862 31.6054 42.4951 32.0277C42.3242 32.4098 41.7611 32.7316 41.7913 33.0534C41.8717 33.9785 40.8661 34.4109 40.8862 35.1651C40.9063 36.0399 39.6091 36.1908 39.9611 37.1461C39.9812 37.2064 39.8203 37.4276 39.76 37.4176C38.4729 37.2466 38.3321 38.755 37.3567 38.936C37.6181 39.5896 37.8494 40.1427 38.1511 40.8667ZM33.8473 44.6677C35.1344 44.7079 36.0193 44.185 36.8841 43.6521C36.9947 43.5817 37.0752 43.2096 37.0349 43.1795C36.8741 43.0588 36.6528 43.0286 36.4516 42.9784C36.4114 42.9683 36.3511 43.0588 36.3008 43.0789C35.4561 43.3907 35.4562 43.3806 33.9981 42.9482C33.9277 42.9281 33.7769 42.9482 33.7467 43.0085C33.3344 43.7627 32.7411 43.4912 32.2182 43.2298C31.7859 43.0085 31.4439 42.6365 31.0316 42.375C30.9009 42.2946 30.6998 42.3247 30.5389 42.3147C30.5389 42.5259 30.4384 42.8275 30.549 42.9482C31.4841 43.9839 32.7411 44.3861 33.8473 44.6677ZM24.5659 43.6521C25.7927 45.5626 27.5021 46.1962 29.3925 46.5984C29.1009 46.1962 28.9099 45.7135 28.568 45.5325C27.8541 45.1705 27.482 44.6074 27.1703 43.9336C26.758 43.0487 26.7279 43.0588 25.7022 43.3605C25.3905 43.461 25.0687 43.5214 24.5659 43.6521ZM32.912 34.5618C33.1433 34.5316 33.3948 34.5417 33.6059 34.4511C33.7065 34.4009 33.7065 34.1595 33.7568 34.0087C33.0127 34.069 32.8115 33.1841 32.188 33.1037C32.0774 33.0936 31.7556 33.516 31.7959 33.6869C31.8964 34.25 32.2383 34.6422 32.912 34.5618ZM17.2957 37.3774C17.4063 37.3673 17.5169 37.3572 17.6275 37.3472C17.5269 36.4321 17.4364 35.517 17.3257 34.602C17.3157 34.5416 17.1348 34.4612 17.0342 34.4612C16.9538 34.4512 16.7929 34.5718 16.803 34.612C16.9538 35.5372 17.1247 36.4522 17.2957 37.3774ZM22.9067 41.6108C22.957 40.7158 22.9871 40.1929 23.0072 39.7203C22.6754 39.9616 22.1022 40.203 22.1123 40.394C22.1424 40.746 22.5246 41.0678 22.9067 41.6108ZM17.0543 32.249C16.994 32.249 16.9236 32.249 16.8632 32.249C16.823 32.4702 16.7627 32.6914 16.7627 32.9126C16.7526 33.0132 16.8532 33.1238 16.9035 33.2244C16.994 33.1037 17.1348 32.9931 17.1448 32.8624C17.1549 32.6613 17.0845 32.4601 17.0543 32.249ZM27.3312 35.0947C27.0094 34.8936 26.8184 34.7629 26.6072 34.6623C26.5469 34.6422 26.4363 34.7428 26.3458 34.783C26.4564 34.964 26.5569 35.145 26.6977 35.2958C26.7178 35.326 26.8888 35.2355 27.3312 35.0947ZM34.2896 39.7807C34.179 39.6701 34.0886 39.5292 33.9579 39.4689C33.8774 39.4287 33.7367 39.5192 33.6261 39.5494C33.7668 39.7304 33.9075 39.9114 34.0383 40.0924C34.1086 40.0019 34.179 39.9214 34.2896 39.7807Z" fill="#FF9737"/>
<path d="M15.4259 18.332C15.6571 19.3275 15.3856 20.2024 15.1342 21.0672C14.8426 22.0526 14.8627 23.1286 14.2694 24.0235C13.7365 24.828 13.7867 25.7632 13.7163 26.6682C13.6761 27.1609 13.8169 27.7341 13.6057 28.1363C13.0024 29.2927 12.8415 30.5195 12.58 31.7664C12.4393 32.4401 12.2282 32.9932 12.5198 33.6669C12.6605 33.9786 12.6002 34.411 12.4996 34.763C12.3589 35.306 12.1275 35.8088 11.9264 36.3317C12.761 36.5328 12.2582 37.4177 12.6806 37.84C12.7711 37.9305 12.6706 38.192 12.6505 38.5439C12.1075 38.3126 11.6147 37.9909 11.0918 37.9205C9.79464 37.7395 9.48291 36.6635 9.20135 35.7484C8.8494 34.6122 8.79917 33.3854 8.61816 32.1988C9.49301 30.7206 9.00024 29.0011 9.46281 27.3922C10.0058 25.542 10.4483 23.6515 11.4036 22.0023C12.3689 20.4337 13.4348 18.8248 15.4259 18.332Z" fill="#FF9737"/>
<path d="M50.9219 41.7324C52.0984 42.0643 53.0134 42.3157 53.9285 42.5771C54.0995 42.6274 54.2805 42.7581 54.4414 42.738C55.8089 42.557 56.7139 43.2408 57.5888 44.2061C58.2927 44.9905 58.6848 45.8553 58.8155 46.8307C58.9563 47.8463 58.4033 48.5904 57.629 49.2641C57.2268 49.6161 57.0358 49.6261 56.7844 49.3044C56.2213 48.5703 55.6179 47.8563 55.2056 47.0519C54.5419 45.7849 53.9587 44.5279 52.4705 44.0352C52.2694 43.9648 52.1286 43.6933 52.008 43.4922C51.656 42.9793 51.3643 42.4665 50.9219 41.7324Z" fill="#FF9737"/>
<path d="M15.6867 45.9572C14.3191 44.9919 13.2432 45.9974 12.0968 46.5203C11.3929 46.8421 10.7493 47.3047 10.0354 47.5661C9.4622 47.7672 8.91928 47.4454 8.48689 47.0332C8.42655 46.9728 8.44669 46.7516 8.51708 46.6611C8.94948 46.0276 9.59292 45.5952 9.90465 44.831C10.0655 44.4489 10.7695 44.3181 11.222 44.0567C11.584 43.8455 11.8857 43.3025 12.3885 43.8455C12.4187 43.8757 12.5091 43.8455 12.5694 43.8355C13.0018 43.7651 12.2577 43.1215 12.9415 43.1115C13.2431 43.1014 13.4945 42.7092 13.8264 43.1818C14.0074 43.4433 14.5102 43.4533 14.7415 43.6846C15.1035 44.0466 15.3247 44.5394 15.9682 44.4891C16.0889 44.479 16.3001 44.7103 16.3403 44.8712C16.4207 45.1528 16.4711 45.4745 16.3906 45.736C16.3303 45.8466 15.9582 45.8667 15.6867 45.9572Z" fill="#FF9737"/>
<path d="M32.4897 3.86271C32.8919 2.58564 33.6259 1.13761 35.0437 0.1421C35.446 -0.139459 35.8785 0.0214361 36.1701 0.413607C36.4114 0.735388 36.8739 0.976726 36.5019 1.49962C36.0695 2.11302 35.788 2.77669 35.788 3.54092C35.788 3.91298 35.4662 3.95321 35.2651 4.14426C34.7422 4.63699 33.9578 4.77777 33.6058 5.49172C33.5254 5.65261 33.1433 5.83361 33.0126 5.77328C32.7612 5.64255 32.5097 5.38109 32.4293 5.1297C32.3589 4.8582 32.4595 4.51633 32.4897 3.86271Z" fill="#FF9737"/>
<path d="M6.07398 26.4285C5.50081 26.71 4.96789 26.7904 4.84722 27.0619C4.4651 27.9267 4.4449 28.0072 3.87172 27.4139C3.31866 26.8407 2.66505 26.3983 2.36338 25.5134C2.14215 24.8698 1.25732 24.4575 0.674093 23.9246C0.47298 23.7436 0.31206 23.5224 0.141113 23.3212C0.442783 23.1503 0.915385 22.7682 1.00589 22.8486C1.569 23.3212 2.17238 22.5168 2.67516 22.9794C3.0975 23.3615 3.90193 23.2006 4.03265 23.9749C5.52089 24.1056 5.29969 25.5536 6.07398 26.4285Z" fill="#FF9737"/>
<path d="M244.664 212.75C245.66 213.675 246.193 214.882 246.736 216.098C246.987 216.651 247.078 216.893 246.354 216.883C246.364 217.013 246.374 217.134 246.384 217.265C247.711 216.973 247.772 218.29 248.264 218.904C248.898 219.688 249.139 220.774 249.541 221.729C249.592 221.84 249.582 221.971 249.652 222.061C250.507 223.198 250.788 224.625 251.563 225.762C251.975 226.375 252.126 226.898 252.216 227.582C252.297 228.135 252.739 228.618 252.92 229.161C253.111 229.714 253.121 230.327 253.332 230.87C253.554 231.443 253.946 231.876 253.875 232.62C253.805 233.314 254.127 234.138 254.519 234.751C254.911 235.375 255.092 236.018 255.303 236.692C255.695 237.919 255.876 239.186 256.309 240.403C256.882 242.002 256.711 243.781 257.435 245.38C257.666 245.903 257.515 246.597 257.536 247.21C258.451 247.522 257.023 248.327 257.847 248.648C257.536 249.584 257.395 250.629 256.872 251.424C256.369 252.178 255.736 253.073 254.579 253.053C254.529 253.053 254.469 253.184 254.449 253.173C254.066 252.982 253.714 252.691 253.312 252.62C252.93 252.55 252.608 253.304 252.075 252.681C251.693 252.238 251.14 251.957 250.658 251.605C250.255 251.313 250.316 250.579 249.622 250.539C249.521 250.529 249.441 250.187 249.35 249.996C249.169 250.177 248.848 250.348 248.848 250.529C248.848 252.098 247.57 252.811 246.686 253.767C246.414 254.058 246.022 254.259 245.65 254.43C245.439 254.531 245.147 254.521 244.916 254.471C244.503 254.37 244.383 253.395 243.709 254.068C243.277 253.757 242.844 253.445 242.402 253.143C242.06 252.912 241.708 252.701 241.366 252.48C240.763 252.077 240.34 251.967 240.049 252.882C239.898 253.334 239.395 253.666 238.913 253.043C238.541 252.58 238.309 253.646 237.867 253.143C237.646 252.892 237.283 252.771 236.962 252.62C236.308 252.299 235.815 251.756 235.313 251.273C234.719 250.7 234.086 250.026 233.855 249.272C233.633 248.568 233.12 247.804 233.442 247.019C233.643 246.527 232.859 246.285 233.271 245.742C233.392 245.581 233.03 245.069 232.909 244.757C231.391 246.567 230.898 248.96 229.41 250.79C229.37 251.997 228.394 252.741 227.952 253.747C227.62 254.501 227.69 254.712 228.666 254.782C229.983 254.893 231.23 255.215 232.457 255.627C233.221 255.888 233.945 256.271 234.649 256.673C235.212 257.005 235.665 257.538 236.238 257.839C238.168 258.835 239.627 260.454 241.416 261.64C241.778 261.882 241.949 262.656 242.251 262.686C243.035 262.757 242.814 263.531 243.277 263.802C243.689 264.054 244.021 264.466 244.312 264.858C244.514 265.13 244.685 265.492 244.685 265.824C244.695 266.97 245.338 267.815 245.941 268.689C246.143 268.981 246.394 269.273 246.464 269.594C246.937 271.897 248.807 273.023 250.396 274.391C251.633 275.457 252.94 276.462 253.483 278.101C253.745 278.876 253.966 279.66 254.157 280.454C254.418 281.54 254.418 282.606 254.489 283.682C254.549 284.567 254.207 285.342 253.845 286.045C253.322 287.051 252.136 287.272 251.271 287.896C250.909 287.152 250.446 288.238 250.105 287.845C249.411 287.071 247.963 288.187 247.591 286.679C247.279 287.423 246.897 288.036 246.766 288.69C246.635 289.364 246.022 289.635 245.69 289.676C244.011 289.867 242.241 290.158 240.994 288.509C240.803 288.258 240.612 288.016 240.491 287.845C239.264 288.107 239.114 289.163 238.53 289.806C238.058 290.319 237.736 290.892 236.932 290.912C236.761 290.922 236.61 291.144 236.439 291.274C236.057 291.274 235.685 291.274 235.313 291.274C235.162 290.922 235.081 290.47 234.508 290.741C234.438 290.772 234.257 290.681 234.186 290.601C234.116 290.52 234.166 290.299 234.106 290.269C232.236 289.394 231.622 287.443 230.415 285.995C229.691 285.12 228.957 284.215 228.595 283.18C228.183 281.973 227.63 280.796 227.429 279.529C227.258 278.474 226.685 277.991 225.669 277.699C224.845 277.458 224.02 277.015 223.387 276.462C222.773 275.929 222.069 275.678 221.406 275.306C219.012 273.989 216.599 272.722 214.176 271.445C213.24 270.952 212.436 270.69 211.43 271.636C210.626 272.4 209.359 272.651 208.363 273.235C206.594 274.27 204.723 275.045 202.742 275.537C201.264 275.909 199.816 276.362 198.318 276.674C196.146 277.136 194.024 276.895 191.882 276.935C190.535 276.955 189.177 276.663 187.87 276.231C187.257 276.03 186.603 275.96 185.959 275.839C185.778 275.799 185.537 275.849 185.447 275.738C184.28 274.461 182.299 274.672 181.163 273.355C180.157 273.124 179.353 272.541 178.569 271.897C178.438 271.786 178.176 271.656 178.096 271.716C177.432 272.209 176.789 272.309 176.135 271.716C175.672 272.5 175.22 271.786 174.757 271.706C174.446 271.656 174.124 271.666 173.822 271.696C171.228 271.967 168.674 271.244 166.089 271.294C165.707 271.304 165.325 270.992 164.933 270.942C163.274 270.731 161.615 270.459 160.006 270.097C158.166 269.685 156.124 269.635 154.566 268.297C153.128 268.016 152.001 266.95 150.493 266.749C149.799 266.648 149.166 266.045 148.512 265.673C147.024 264.818 145.636 263.822 144.238 262.797C142.046 261.188 140.508 258.875 138.225 257.407C137.793 256.08 136.365 255.778 135.56 254.823C134.716 253.817 133.71 252.962 132.795 252.017C132.393 251.595 132.142 250.981 131.679 250.68C131.156 250.338 131.035 249.744 130.563 249.393C130.06 249.02 129.628 248.548 129.225 248.075C128.491 247.2 127.797 246.295 127.083 245.4C126.983 245.27 126.913 245.099 126.792 245.018C126.068 244.586 125.334 243.751 124.6 245.008C123.001 245.34 121.563 246.134 119.974 246.567C118.064 247.09 116.173 246.698 114.293 246.889C113.669 246.376 112.915 245.964 112.463 245.33C111.93 244.586 111.427 243.681 111.356 242.816C111.206 241.097 110.291 239.739 109.607 238.261C108.672 236.24 107.998 234.168 107.465 231.996C107.053 230.337 106.801 228.638 106.5 226.978C106.238 225.51 105.826 224.012 106.027 222.453C106.278 220.493 105.373 218.582 105.665 216.601C104.921 215.696 105.695 214.429 104.911 213.534C105.645 212.88 104.86 212.237 104.881 211.593C104.891 211.473 104.589 211.332 104.428 211.201C104.096 211.613 103.634 211.141 103.443 211.251C102.91 211.543 102.206 211.201 101.954 211.422C101.21 212.036 100.939 210.869 100.255 211.161C99.7321 211.392 99.0181 211.211 98.3946 211.211C97.7712 211.211 97.1276 211.292 96.5142 211.191C94.3422 210.879 92.6329 209.874 91.7278 207.772C91.4765 207.189 91.1445 206.636 90.9032 206.053C90.682 205.52 90.4708 204.957 90.3803 204.393C90.2898 203.84 89.6966 203.338 90.1792 202.714C89.4753 201.648 89.6563 200.411 89.4049 199.265C89.1535 198.139 88.7614 197.023 88.5804 195.856C88.5503 195.695 88.3691 195.544 88.349 195.384C88.2083 193.805 88.0978 192.236 87.957 190.657C87.9167 190.185 88.1078 189.712 87.6854 189.25C87.5447 189.089 87.967 188.526 87.9368 188.154C87.8665 187.078 87.6552 186.002 87.5949 184.926C87.5345 183.799 87.7558 182.633 87.5145 181.557C87.3536 180.843 87.3435 180.31 87.5145 179.586C87.7558 178.581 87.6151 177.474 87.5648 176.409C87.4843 174.759 87.9368 173.201 88.3591 171.662C88.7814 170.144 89.1737 168.656 89.053 167.077C89.0027 166.443 88.7513 165.82 88.5502 165.036C88.4396 165.126 88.2888 165.337 88.158 165.317C86.2977 165.096 84.719 166.122 83.0095 166.514C81.471 166.866 80.0029 167.529 78.394 167.61C78.2633 167.62 78.1125 167.56 78.022 167.62C76.3829 168.686 74.3315 168.284 72.6221 169.098C72.3606 169.219 71.9986 169.108 71.6869 169.108C69.9975 169.108 68.3081 169.148 66.6188 169.098C65.8545 169.068 65.0903 168.877 64.3361 168.736C63.6322 168.605 62.9484 168.887 62.1942 168.444C61.5306 168.062 60.5754 168.213 59.7508 168.072C58.3531 167.821 56.9754 167.439 55.5676 167.238C55.3363 167.198 55.1051 167.147 54.8939 167.057C53.9387 166.624 53.0436 166.031 52.0481 165.78C51.0426 165.528 50.4695 164.483 49.3633 164.533C48.3678 163.457 46.8594 163.266 45.7331 162.411C45.6426 162.341 45.4516 162.411 45.3913 162.341C44.2248 161.064 42.4952 160.842 41.0975 160.008C40.5846 159.706 40.1423 159.294 39.6495 158.972C38.6641 158.328 37.5579 157.836 36.7032 157.061C35.0339 155.553 33.4652 153.934 31.9167 152.285C31.4038 151.742 31.1826 150.927 30.6899 150.364C28.8598 148.313 27.8241 145.749 26.2051 143.567C25.9738 143.255 25.9637 142.792 25.7827 142.43C25.1894 141.204 24.6666 139.927 23.5403 139.022C23.2387 138.78 23.0878 138.338 22.8565 137.996C22.5548 137.553 22.2834 137.081 21.9214 136.699C21.0264 135.764 20.3527 134.758 20.3125 133.411C20.3025 133.139 20.051 132.898 19.9605 132.626C19.689 131.862 19.3169 131.098 19.2365 130.303C19.156 129.509 18.7639 128.855 18.603 128.111C18.5829 128.021 18.5226 127.87 18.5528 127.85C19.136 127.427 18.1505 127.226 18.422 126.784C18.9148 125.979 18.3315 125.135 18.412 124.29C18.5125 123.355 18.3717 122.41 18.4622 121.474C18.5125 120.942 17.8991 120.489 18.3315 119.946C17.7784 119.423 18.1305 118.769 18.0701 118.176C18.0098 117.553 18.231 116.859 18.0198 116.316C17.4064 114.687 17.8187 113.028 17.6679 111.389C17.6075 110.755 17.2355 110.061 17.3963 109.508C17.6075 108.834 17.1651 108.332 17.2556 107.708C17.3461 107.095 17.5873 106.341 16.9438 105.798C17.5773 105.385 16.8533 105.023 16.9036 104.611C17.2154 101.896 16.5617 99.2112 16.4913 96.5062C16.4209 93.8013 15.3751 91.398 13.1729 89.6282C12.8411 89.3567 12.6702 89.2963 12.3786 89.7991C11.4032 91.4684 10.6992 93.2482 10.1562 95.0783C9.82436 96.2046 9.14068 97.2604 9.38201 98.5274C9.38201 98.5576 9.13057 98.7084 9.08029 98.6783C8.54734 98.3162 8.15512 99.171 7.64228 98.8291C7.35066 98.628 6.81776 98.447 6.8077 98.2459C6.77754 97.2705 5.91271 96.4057 6.64678 95.3096C7.00878 94.7767 6.82783 93.9622 7.45128 93.3789C7.87362 92.9968 7.91379 92.2125 8.15513 91.6293C8.62774 90.5131 9.1306 89.4069 9.61327 88.2908C9.90489 87.6271 9.86468 87.1243 9.25128 86.9131C8.54739 86.6618 8.20545 86.0886 7.69261 85.6763C7.17977 85.264 6.71718 84.8115 6.15406 84.4294C4.70605 83.4641 3.40891 82.2674 2.05139 81.1512C1.68939 80.8496 0.553047 78.6976 0.361989 78.0943C0.321766 77.9636 0.120668 77.8932 0 77.7927C0 76.7871 0 75.7916 0 74.786C0.784342 74.4743 0.452495 73.1771 1.49828 73.1067C2.23235 71.2766 3.70057 70.8643 5.74187 71.0755C4.70613 69.6878 4.35411 68.1694 3.52955 66.8823C2.91615 65.927 3.01671 64.9214 3.02676 63.9058C3.02676 63.7751 3.23796 63.5337 3.30835 63.5438C4.00219 63.6845 4.41445 63.2119 4.66584 62.7695C5.01779 62.1661 5.54071 62.8801 5.953 62.4377C6.20439 62.1662 6.70715 62.5282 7.05909 62.8399C7.3306 63.0712 7.77306 63.1013 8.20545 63.1214C7.39095 62.0254 7.30041 60.7181 6.78757 59.5718C6.64679 59.2601 6.76744 58.8277 6.76744 58.4556C6.98867 58.4858 7.20992 58.526 7.43115 58.526C7.46132 58.526 7.48151 58.3148 7.51167 58.1942C7.57201 57.9629 7.60212 57.7316 7.70267 57.5204C8.31607 56.183 8.81886 55.8311 10.2267 56.0322C12.1573 56.3137 13.9271 57.1283 15.5059 58.2243C17.3561 59.5215 19.0756 60.9997 20.8454 62.3974C21.0565 61.9047 21.2175 61.4723 21.4186 61.06C22.384 59.069 22.937 56.9272 23.6811 54.8557C24.4755 52.6233 25.0587 50.3105 26.0341 48.1284C26.5067 47.0827 26.9391 45.9966 27.3916 44.9408C27.8441 43.8749 28.3068 42.8191 28.5984 41.6828C28.8799 40.5766 29.5737 39.5912 30.0463 38.5353C30.6195 37.2683 31.1425 35.9812 31.7559 34.5332C31.8765 34.9958 31.8765 35.408 32.0776 35.6594C32.3893 36.0415 32.3792 36.2929 32.0373 36.5946C32.0072 36.6147 32.138 36.8762 32.2385 36.9767C32.8419 37.6002 32.0172 38.5052 32.6708 39.1286C32.6809 39.1387 32.5 39.4605 32.3894 39.4806C31.9369 39.5409 31.8363 39.6515 32.2083 39.9834C32.2787 40.0537 32.3289 40.2247 32.2988 40.3152C31.7658 41.904 31.1826 43.4827 30.6798 45.0916C30.3681 46.0872 29.6944 46.9419 29.6441 48.0581C29.6139 48.7519 28.9805 49.2346 28.7392 49.9284C28.1559 51.6278 27.7436 53.3976 27.0196 55.0367C26.3056 56.6255 25.7727 58.2746 25.1694 59.9036C25.1492 59.9438 25.2196 60.0042 25.2397 60.0645C26.2855 59.9438 26.9593 59.1997 27.6833 58.5662C28.0252 58.2646 28.2565 58.1741 28.6084 58.526C28.9503 58.8779 29.6441 58.4053 29.8955 59.0388C32.1278 59.24 33.5458 60.8589 35.1647 62.1058C35.386 62.2768 35.5769 62.5583 35.6775 62.8298C36.2808 64.4588 36.8138 66.118 37.4573 67.7269C37.6786 68.28 37.4674 68.8632 37.8697 69.4565C38.2116 69.9492 38.0708 70.814 38.2417 71.528C38.3624 72.0207 38.9255 72.6844 38.3221 73.2676C38.5735 73.7503 38.6841 74.243 38.7244 74.8061C38.8048 76.1033 38.4428 77.3301 38.1211 78.5267C37.9803 79.0396 38.7345 79.2105 38.282 79.5826C37.8395 79.9546 37.9803 80.206 38.2417 80.6585C38.4127 80.9401 38.0305 81.5132 37.9601 81.9657C37.8797 82.4484 37.8897 82.9411 37.8193 83.4138C37.7992 83.5747 37.5478 83.7657 37.5881 83.8663C38.3422 85.7165 37.8094 87.6572 37.9301 89.5377C37.9703 90.2717 38.0708 90.9555 38.3825 91.6091C38.4831 91.8203 38.664 92.0113 38.6942 92.2326C38.845 93.5599 38.9556 94.8772 39.0864 96.2146C39.0964 96.3454 39.0361 96.5062 39.0964 96.5867C39.8707 97.5923 39.6093 98.8894 40.0417 99.9553C40.3434 100.699 39.9512 101.484 40.5445 102.208C40.9367 102.69 40.9265 103.565 40.9567 104.269C40.9969 105.134 41.9522 105.667 41.731 106.582C42.3545 106.833 41.6607 107.417 42.073 107.839C42.3948 108.171 42.3545 108.824 42.4952 109.337C42.6059 109.79 42.7165 110.252 42.8774 110.685C43.0584 111.177 43.4103 111.62 43.4907 112.113C43.712 113.51 44.3857 114.757 44.7578 116.105C44.8985 116.608 45.0494 117.11 45.2505 117.593C45.6326 118.498 45.9142 119.483 46.4774 120.268C47.0405 121.052 47.3421 121.927 47.7845 122.741C48.408 123.878 49.2426 124.873 49.9264 125.979C50.5901 127.055 51.5554 127.95 52.4101 128.896C54.0492 130.685 56.1107 131.872 58.2726 132.868C59.5296 133.441 60.8871 133.783 62.134 134.446C62.8278 134.818 63.7329 134.828 64.5474 134.949C65.0803 135.029 65.6433 134.838 66.0958 135.321C66.1864 135.422 66.468 135.361 66.649 135.331C67.4635 135.18 68.3283 135.15 69.0623 134.828C70.0679 134.386 71.0634 133.813 71.9081 133.109C73.3862 131.902 74.7437 130.565 76.1515 129.278C76.5537 128.906 76.8454 128.463 77.5493 128.544C78.3235 128.634 78.8767 128.081 79.3795 127.548C80.9783 125.829 82.5671 124.109 84.166 122.39C85.2821 121.183 86.5591 120.167 87.977 119.333C89.2641 118.568 90.2094 117.422 91.2753 116.416C91.7982 115.924 92.3915 115.501 92.9747 115.079C93.7892 114.486 94.6741 113.983 95.4383 113.329C96.6651 112.274 98.1333 111.68 99.521 110.906C100.335 110.443 101.22 110.142 101.954 109.518C102.608 108.965 103.704 109.126 104.257 108.302C105.263 108.493 105.745 107.457 106.681 107.316C107.626 107.175 108.38 106.23 109.476 106.391C109.959 105.486 110.964 105.737 111.698 105.395C112.382 105.074 113.136 104.933 113.85 104.702C113.961 104.661 114.041 104.531 114.152 104.511C114.554 104.42 115.198 104.5 115.328 104.269C115.61 103.787 115.761 103.143 115.731 102.57C115.62 100.016 116.475 97.6124 116.937 95.1588C117.138 94.123 117.923 93.1979 118.446 92.2326C118.546 92.0516 118.898 91.9309 118.546 91.6996C118.395 91.5991 118.194 91.5689 118.013 91.5287C117.893 91.4985 117.651 91.5086 117.641 91.5086C117.631 90.8851 117.44 90.1812 117.681 89.6483C118.637 87.4461 119.652 85.264 121.231 83.4138C121.633 82.9311 121.925 82.3579 122.357 81.6842C121.231 81.9155 120.356 82.2172 119.441 81.7345C119.23 81.6239 118.818 81.9959 118.536 81.9356C118.214 81.8652 117.903 81.6138 117.661 81.3725C117.601 81.3021 117.782 80.93 117.923 80.7591C118.305 80.2865 118.828 79.8943 118.446 79.1703C118.426 79.1401 118.566 78.9692 118.647 78.9591C119.773 78.7982 120.899 78.6574 122.458 78.4563C120.477 77.8429 119.2 76.7268 117.692 75.9826C117.319 75.7916 117.279 75.6508 117.269 75.3391C117.239 74.9268 117.42 74.7759 117.812 74.8262C117.943 74.8363 118.154 74.8765 118.174 74.8162C118.878 73.2978 120.256 73.8207 121.442 73.6698C121.945 73.6095 122.408 73.2676 122.91 73.1469C123.363 73.0363 123.835 72.9961 124.298 73.0263C124.519 73.0464 124.288 74.1525 124.962 73.3279C125.253 73.7402 125.816 73.5391 126.078 73.7402C126.48 74.0519 126.842 74.072 127.275 74.072C127.697 74.072 128.109 74.072 128.743 74.072C127.496 72.8251 126.43 71.7894 125.394 70.7135C124.479 69.7783 123.785 68.7325 124.057 67.3348C124.087 67.1739 124.348 66.9426 124.499 66.9426C125.837 66.9828 125.837 66.9828 127.124 66.289C127.275 66.2085 127.536 66.108 127.627 66.1784C128.552 66.8622 129.748 66.2588 130.734 66.8722C131.297 67.2241 132.121 67.1135 132.805 67.3046C133.358 67.4655 133.851 67.8174 134.384 68.0386C135.782 68.6118 137.159 69.2152 138.477 69.9392C138.949 70.2006 139.362 70.5626 139.744 70.995C140.045 71.3369 140.417 72.1112 141.192 71.8498C142.107 72.5134 143.022 73.1771 143.937 73.8408C143.866 74.605 144.319 74.1022 144.6 74.1525C146.099 74.4642 149.638 76.1636 150.503 77.0787C151.016 77.6217 151.308 78.3658 151.73 78.9893C152.353 79.9144 152.937 80.8596 153.5 81.8149C153.952 82.5791 154.033 83.3635 154.244 84.1478C154.364 84.6104 154.385 85.0931 154.495 85.5456C154.616 86.0584 154.636 86.712 154.958 87.0237C155.37 87.4059 154.535 87.9489 155.229 88.1299C155.149 88.341 155.099 88.7231 154.978 88.7433C154.354 88.874 154.757 89.9399 153.952 89.8293C153.097 89.7086 153.711 90.2315 153.63 90.4728C153.359 91.3074 153.067 92.132 152.977 93.0169C152.896 93.8013 152.213 94.2839 152.011 95.0683C151.75 96.1241 151.187 97.0995 150.714 98.085C150.563 98.3866 150.292 98.7587 150.02 98.819C149.276 98.99 149.689 99.4727 149.618 99.9754C150.242 99.9754 150.855 99.9453 151.458 99.9855C151.951 100.016 152.454 100.237 152.937 100.187C153.5 100.126 154.113 99.6134 154.586 99.7441C155.249 99.9252 155.702 99.9553 156.345 99.6537C156.898 99.4023 157.653 99.724 158.246 99.2514C158.377 99.1509 158.779 99.2313 158.92 99.3721C159.302 99.7542 159.795 99.704 160.136 99.5833C161.554 99.0805 162.952 99.0302 164.37 99.533C165.034 98.7989 165.617 99.7542 166.29 99.6336C167.025 99.5028 167.799 99.6637 168.533 99.5933C169.951 99.4525 171.308 99.8246 172.696 99.9855C173.038 100.75 173.531 99.6838 174.043 100.116C174.385 100.408 175.18 100.136 175.592 100.398C176.115 100.74 176.628 100.79 177.151 100.72C177.684 100.639 178.196 101.675 178.719 100.74C179.111 101.343 179.795 100.921 180.228 101.172C180.71 101.454 181.203 101.212 181.686 101.464C182.128 101.695 182.812 101.253 183.214 101.856C183.496 101.434 183.727 101.785 184.029 101.836C184.974 101.997 185.98 101.665 186.875 102.258C187.709 101.755 188.524 102.409 189.388 102.288C190.836 102.087 192.194 102.58 193.531 103.143C194.034 103.354 194.597 103.254 195.12 103.565C195.653 103.887 196.387 103.857 196.93 104.169C197.564 104.531 198.197 104.48 198.851 104.541C199.062 104.551 199.243 104.792 199.454 104.903C199.715 105.043 200.027 105.315 200.228 105.255C201.656 104.842 202.722 106.079 204.06 106.049C204.261 106.039 204.452 106.29 204.663 106.401C205.447 106.793 206.201 107.386 207.016 107.487C208.011 107.608 208.504 108.412 209.349 108.714C210.153 109.005 211.028 109.287 211.632 109.991C211.702 110.081 211.833 110.162 211.933 110.172C212.516 110.202 213.2 109.981 213.291 110.906C213.914 110.795 214.336 111.127 214.709 111.57C215.503 111.097 215.885 111.962 216.378 112.213C216.931 112.505 217.635 112.756 218.007 113.219C218.58 113.913 219.404 114.164 220.078 114.586C220.832 115.059 221.597 115.481 222.26 116.095C222.542 116.356 222.994 116.427 223.376 116.567C223.547 116.628 223.779 116.567 223.899 116.658C224.473 117.11 224.965 117.895 225.579 118.005C226.444 118.156 226.685 118.93 227.338 119.222C227.972 119.514 228.515 119.996 229.118 120.358C230.124 120.962 230.767 122.148 232.105 122.219C232.728 123.154 233.643 123.747 234.579 124.33C235.132 124.682 235.584 125.255 236.167 125.487C237.022 125.818 237.163 126.814 238.068 127.166C238.772 127.437 239.194 128.403 239.797 129.016C240.2 129.428 240.672 129.77 241.145 130.092C241.919 130.605 242.512 131.289 243.126 131.963C243.79 132.676 244.624 133.23 245.288 133.943C245.992 134.698 246.907 135.241 247.329 136.286C247.48 136.648 248.123 136.779 248.395 137.131C248.868 137.755 249.541 138.167 249.934 138.891C250.336 139.625 250.939 140.248 251.502 140.872C252.095 141.525 252.82 142.058 253.332 142.752C254.68 144.572 256.309 146.131 257.727 147.881C258.662 149.047 259.537 150.254 260.432 151.46C260.613 151.702 260.713 152.003 260.934 152.184C262.775 153.723 263.951 155.794 265.299 157.715C265.952 158.65 266.586 159.565 267.28 160.46C268.617 162.19 270.115 163.799 270.98 165.87C271.624 167.429 272.549 168.857 273.383 170.325C274.127 171.622 274.54 173.09 275.093 174.498C275.163 174.659 275.063 174.94 275.163 175.031C276.279 175.966 276.269 177.464 276.983 178.611C277.697 179.757 278.089 181.034 278.612 182.261C278.703 182.472 278.884 182.713 278.854 182.904C278.663 184.001 279.407 184.624 280 185.328C280 186.203 280 187.078 280 187.952C279.497 188.646 278.854 189.28 278.542 190.044C278.21 190.848 277.516 191.231 277.033 191.854C276.963 191.945 276.853 192.075 276.752 192.075C275.425 192.166 274.077 192.166 272.881 191.502C272.508 191.291 272.026 190.979 272.096 190.346C272.157 189.833 271.795 189.591 271.171 188.797C270.98 188.676 270.94 188.938 271 189.159C271.03 189.28 271.231 189.36 271.362 189.461C271.483 189.26 271.724 189.038 271.694 188.888C271.644 188.676 271.372 188.526 271.181 188.807C271.241 189.793 271 190.124 271.02 190.436C271.06 191.07 270.849 191.603 270.628 192.166C270.417 192.709 270.447 193.382 270.135 193.835C269.683 194.499 269.049 195.052 268.426 195.565C268.084 195.846 267.591 195.947 267.159 196.108C267.078 196.138 266.908 196.098 266.908 196.077C266.827 195.172 266.163 195.122 265.48 195.012C265.288 194.981 264.967 194.639 264.997 194.499C265.238 193.262 264.042 192.498 263.951 191.351C263.79 192.035 263.71 192.749 263.448 193.393C262.966 194.559 262.433 195.736 261.236 196.379C260.784 196.63 260.281 196.811 259.788 196.972C259.667 197.013 259.346 196.842 259.346 196.781C259.356 196.389 259.235 196.228 258.813 196.228C257.576 196.238 257.033 195.504 256.671 194.408C256.138 192.809 255.555 191.241 255.062 189.622C254.8 188.767 254.911 187.892 254.489 187.047C254.077 186.233 254.097 185.207 253.885 184.031C253.433 184.845 253.041 185.459 252.749 186.122C252.548 186.585 252.307 186.866 251.834 187.037C251.13 187.299 250.477 187.701 249.773 187.942C248.908 188.234 245.911 187.349 245.901 186.685C245.881 185.609 244.855 185.368 244.654 184.534C244.463 183.739 244.192 182.975 243.91 182.221C243.699 181.678 243.438 181.155 243.156 180.652C242.633 179.737 242.07 178.842 241.527 177.957C240.793 176.791 240.32 175.323 238.812 174.79C238.571 173.895 237.786 173.442 237.213 172.829C236.66 172.225 236.027 171.713 235.504 171.089C235.021 170.516 234.237 170.315 233.875 169.551C233.714 169.199 233.12 169.028 232.698 168.837C231.481 168.294 230.405 167.57 229.49 166.604C228.404 165.468 227.037 164.744 225.729 163.909C224.835 163.326 223.899 162.864 222.944 162.461C221.979 162.059 221.174 161.265 220.048 161.295C218.821 160.138 217.233 159.636 215.774 158.922C213.532 157.826 211.149 157.082 208.746 156.378C207.428 155.985 206.081 155.603 204.784 155.07C204.251 154.849 203.788 154.417 203.114 154.527C202.893 154.568 202.612 154.266 202.36 154.125C202.159 154.015 201.948 153.813 201.737 153.813C200.46 153.854 199.323 153.281 198.107 153.029C197.091 152.818 196.065 152.526 195.12 152.104C194.155 151.672 193.189 151.32 192.174 151.058C192.063 151.028 191.993 150.887 191.782 150.676C191.752 151.209 191.56 151.742 191.751 152.003C192.174 152.577 192.063 153.16 192.093 153.753C192.124 154.226 191.942 154.729 192.425 155.131C192.556 155.241 192.405 155.694 192.335 155.985C192.284 156.207 192.083 156.428 192.093 156.629C192.254 159.032 191.49 161.385 191.671 163.799C191.741 164.734 191.4 165.689 191.339 166.644C191.279 167.58 191.56 168.595 191.269 169.44C190.716 171.089 191.068 172.728 190.947 174.377C190.867 175.463 190.977 176.519 190.615 177.615C190.273 178.631 190.686 179.777 190.394 180.893C190.223 181.537 190.394 182.452 190.756 183.015C191.43 184.081 191.319 185.288 191.651 186.404C191.822 186.987 191.751 187.6 192.304 188.023C192.385 188.083 192.455 188.234 192.445 188.335C192.284 189.863 192.787 191.422 192.204 192.93C192.113 193.151 192.003 193.473 192.093 193.614C192.757 194.649 192.325 195.776 192.455 196.852C192.526 197.405 192.626 197.948 192.626 198.501C192.626 199.044 192.274 199.738 192.506 200.08C192.848 200.582 192.455 201.065 192.767 201.568C192.968 201.9 192.878 202.563 192.606 203.136C192.315 203.76 192.425 204.585 192.465 205.319C192.506 206.183 192.375 206.998 192.063 207.792C191.822 208.416 191.761 209.049 191.661 209.703C191.42 211.342 191.229 212.971 191.319 214.62C190.645 215.696 191.048 216.893 190.947 218.039C190.867 218.934 191.088 219.839 190.605 220.724C190.414 221.076 190.756 221.679 190.756 222.162C190.746 222.695 190.585 223.228 190.575 223.771C190.545 225.148 190.565 226.526 190.565 227.904C190.565 228.296 189.449 229.442 189.238 229.271C188.413 228.567 188.483 229.784 188.021 229.794C188.051 230.136 187.991 230.518 188.131 230.8C188.473 231.483 188.966 232.077 189.298 232.76C189.67 233.545 189.73 234.57 190.293 235.134C190.977 235.817 190.776 236.944 191.701 237.396C191.852 238.854 192.727 239.89 193.692 240.896C193.813 241.016 193.974 241.227 193.944 241.348C193.672 242.223 194.637 242.022 194.879 242.444C195.683 242.213 195.955 242.927 196.116 243.369C196.307 243.892 196.528 243.962 197.001 244.013C197.222 244.043 197.393 244.455 197.584 244.686C198.117 243.993 198.298 244.777 198.489 244.978C198.71 245.209 198.74 245.612 198.861 245.943C199.012 246.366 199.253 246.326 199.565 246.114C199.675 246.044 199.836 246.014 199.957 246.024C200.53 246.094 200.641 246.778 201.043 246.949C201.516 247.15 202.109 246.879 202.541 247.442C202.803 247.784 204.522 247.965 204.955 247.854C205.296 247.753 206.986 247.713 207.418 247.733C207.861 247.764 208.001 247.613 207.609 247.251C207.579 247.231 207.71 246.939 207.82 246.879C209.449 245.953 210.606 244.425 212.265 243.55C212.516 242.333 213.814 241.931 214.336 240.845C214.819 239.84 215.905 239.196 216.539 238.191C217.725 236.29 218.982 234.43 220.31 232.61C221.375 231.152 222.562 229.784 223.698 228.376C224.231 227.713 224.764 227.069 225.287 226.405C225.78 225.792 226.172 225.048 226.775 224.605C227.288 224.233 226.594 223.399 227.479 223.308C228.203 223.228 227.721 222.514 228.002 222.101C228.877 220.834 229.913 219.839 231.3 219.185C231.863 218.924 232.256 218.28 231.843 217.868C231.19 217.214 231.994 216.903 231.954 216.43C231.914 215.988 231.703 215.374 232.547 215.394C232.507 215.264 232.467 215.123 232.437 214.992C232.396 214.821 232.296 214.52 232.336 214.499C233.151 214.067 232.949 213.092 233.442 212.498C233.543 212.368 233.603 212.066 233.673 212.076C233.975 212.096 234.277 212.187 234.568 212.247C234.448 211.985 234.166 211.603 234.247 211.493C234.579 211.04 235.011 210.668 235.423 210.286C235.463 210.246 235.675 210.437 235.815 210.457C236.258 210.537 236.831 210.879 236.861 209.984C236.861 209.914 237.163 209.803 237.324 209.793C237.826 209.763 238.329 209.743 238.822 209.793C239.234 209.834 239.898 209.461 239.908 210.367C239.908 210.427 240.451 210.497 240.743 210.537C241.165 210.588 241.819 210.437 241.979 210.668C242.603 211.523 243.981 211.302 244.363 212.418C243.92 212.428 243.87 212.8 244.041 213.001C244.212 213.252 244.564 213.283 244.664 212.75ZM17.2254 71.538C17.4667 70.4118 18.5125 69.5973 18.5024 68.3001C19.5281 67.375 18.9952 65.8063 20.0209 64.8913C19.5985 64.5393 19.307 64.2175 18.945 64.0063C17.869 63.3829 17.1148 62.2868 15.8679 61.9349C13.8266 60.1148 12.4992 59.3908 10.2065 58.4757C9.56296 58.2143 9.3015 58.6065 9.19089 58.888C9.00989 59.3707 8.92944 59.9539 9.44228 60.3964C10.0356 60.9193 10.3473 61.593 10.6791 62.317C11.0612 63.1616 11.554 63.9661 12.1875 64.7002C13.1528 65.8063 14.0276 67.0331 14.6812 68.3403C15.0935 69.1649 15.536 69.8989 16.1896 70.5224C16.4913 70.814 16.7829 71.1157 17.1248 71.4073C16.2902 71.9805 15.6668 71.8297 14.8623 71.6084C13.3037 71.1861 13.2433 71.3671 12.9416 71.0151C12.3584 70.3213 11.7953 69.6073 11.2121 68.9236C10.1361 67.6666 8.7183 66.8521 7.46135 65.8264C6.81778 65.3035 6.03343 65.2532 5.44015 64.7605C5.36976 64.7002 5.04803 64.8309 4.98769 64.9415C4.92736 65.0622 5.04801 65.4141 5.09829 65.4141C5.88263 65.4443 6.04355 66.0879 6.25472 66.6108C6.89828 68.2398 7.80326 69.7381 8.73843 71.1961C10.0658 73.2676 11.2825 75.4598 13.2937 76.9882C13.8669 77.4206 13.9875 78.0139 14.1182 78.7681C15.0232 76.1837 16.4209 74.0017 17.2254 71.538ZM170.896 147.187C171.339 146.925 171.61 146.805 171.841 146.624C172.163 146.382 172.475 146.503 172.817 146.503C173.249 146.493 173.661 146.141 174.104 146.02C174.506 145.91 174.938 145.9 175.361 145.869C176.879 145.759 178.418 146.121 179.916 145.518C180.258 145.377 181.092 145.558 181.102 145.648C181.203 146.644 181.937 146.171 182.38 146.221C182.933 146.292 183.526 146.131 184.059 146.272C184.552 146.392 184.984 146.493 185.447 146.242C186.14 147.096 187.166 146.402 188.031 146.805C188.845 147.187 189.831 147.328 190.796 147.418C191.822 147.509 192.747 148.202 193.843 148.212C193.883 148.212 193.903 148.434 193.964 148.524C194.034 148.625 194.215 148.796 194.235 148.776C195.492 147.901 196.679 149.218 197.916 148.886C198.378 149.56 198.71 148.947 198.821 148.685C199.736 146.664 200.993 144.824 202.099 142.923C203.084 141.234 203.366 139.283 204.482 137.694C204.16 136.588 205.387 135.874 205.236 134.818C206.01 133.984 205.94 132.847 206.242 131.862C206.765 130.132 207.237 128.363 207.559 126.563C207.71 125.718 207.8 124.833 208.112 123.988C208.454 123.053 208.685 121.977 208.575 121.012C208.444 119.896 209.5 118.89 208.736 117.794C209.57 116.487 208.595 115.22 208.605 113.933C208.605 113.812 208.303 113.651 208.122 113.581C206.654 113.048 205.216 112.404 203.778 111.821C201.526 110.886 199.213 110.152 196.95 109.267C194.849 108.442 192.777 107.507 190.575 106.984C190.062 106.864 189.549 106.733 189.046 106.582C187.649 106.17 186.291 105.587 184.863 105.355C183.214 105.084 181.555 104.702 179.916 104.641C177.965 104.571 176.125 104.018 174.234 103.746C173.49 103.636 172.686 103.595 171.962 103.364C170.765 102.992 169.528 102.851 168.302 102.69C167.557 102.59 166.803 102.67 166.049 102.67C165.355 102.67 164.672 102.67 163.988 102.67C163.234 102.67 162.409 102.871 161.755 102.62C161.021 102.339 160.438 102.701 159.795 102.711C158.095 102.741 156.346 102.359 154.686 103.052C151.217 102.761 147.788 103.595 144.319 103.435C143.565 103.394 142.72 103.203 142.087 103.485C141.292 103.827 140.548 103.726 139.774 103.817C139.009 103.907 138.255 104.108 137.491 104.179C135.852 104.34 134.213 104.44 132.574 104.561C132.443 104.571 132.262 104.511 132.202 104.571C131.588 105.265 130.794 104.812 130.09 104.943C129.386 105.074 128.692 105.295 127.989 105.305C126.349 105.315 124.901 105.989 123.393 106.471C122.82 106.652 122.287 106.843 121.663 106.854C120.708 106.884 119.753 107.045 118.818 107.226C118.436 107.296 118.104 107.618 117.722 107.738C116.173 108.231 114.715 108.945 113.187 109.498C111.668 110.051 110.069 110.604 108.782 111.519C107.002 112.796 104.73 113.289 103.262 115.039C103.171 115.139 102.9 115.039 102.729 115.109C101.331 115.662 99.8427 116.064 98.5556 116.809C96.5444 117.965 94.5635 119.202 92.9043 120.881C92.3613 121.424 91.7077 122.058 91.0239 122.168C90.2094 122.309 89.8172 122.892 89.5659 123.325C89.1133 124.119 88.1177 124.31 87.8362 125.195C87.7859 125.356 87.605 125.527 87.4441 125.587C86.338 125.999 85.6944 127.015 84.729 127.618C83.7637 128.232 82.919 129.056 82.0844 129.851C80.4151 131.46 78.7962 133.109 77.1671 134.758C76.4029 135.532 75.5281 136.126 74.5628 136.618C73.4265 137.202 72.2299 137.724 71.2143 138.499C69.3942 139.886 67.3327 140.429 65.1406 140.63C64.2457 140.711 64.0244 140.942 63.9641 141.857C63.8534 143.376 63.8234 144.904 63.5418 146.392C63.391 147.167 63.2602 147.971 62.8781 148.735C62.4256 149.61 62.0736 150.636 62.7373 151.641C62.8177 151.772 62.8479 152.074 62.7776 152.134C62.2245 152.587 62.5663 153.18 62.4557 153.703C62.3451 154.216 62.144 154.718 62.0937 155.241C61.9932 156.448 62.0837 157.635 61.7619 158.861C61.4703 159.978 61.6613 161.224 61.7116 162.411C61.7418 163.055 61.8926 163.708 62.0937 164.312C62.2345 164.724 62.4659 165.227 62.8078 165.408C63.3105 165.679 63.9339 165.739 64.5071 165.81C65.7037 165.961 66.9606 165.518 68.117 166.182C68.2578 166.262 68.5796 166.262 68.65 166.162C69.0824 165.579 69.7562 166.021 70.1886 165.78C70.7416 165.478 71.0231 166.373 71.6365 165.91C71.9985 165.639 72.7125 165.82 73.2756 165.82C73.6577 165.82 73.9393 165.639 74.2711 165.508C75.1862 165.126 76.1617 164.935 77.127 164.694C78.5147 164.352 79.9626 164.312 81.3 163.708C81.5816 163.578 81.9737 163.678 82.3056 163.698C82.4464 163.698 82.6274 163.829 82.6978 163.769C83.8039 162.894 85.1816 162.803 86.4486 162.381C87.786 161.928 89.2642 162.21 90.5412 161.345C91.215 160.883 92.1803 161.808 93.0149 161.305C93.1557 161.798 93.2864 162.3 93.4373 162.793C93.5076 163.014 93.5881 163.236 93.7088 163.437C93.8194 163.618 94.0909 163.688 93.8194 163.99C93.6384 164.181 93.7087 164.241 94.0204 165.287C94.0406 165.347 94.0406 165.418 94.0204 165.478C93.8394 166.343 93.7892 167.258 93.4373 168.052C92.854 169.39 92.5423 170.767 92.5624 172.175C92.5725 172.768 91.8886 173.332 92.492 173.925C91.7881 174.528 92.4317 175.423 92.0999 176.006C91.7882 176.539 91.6675 177.062 91.7982 177.555C91.9591 178.118 91.4563 178.46 91.577 179.013C91.6876 179.526 91.4362 180.109 91.3959 180.662C91.3557 181.225 91.406 181.788 91.3758 182.351C91.3557 182.834 91.4664 183.558 91.2049 183.749C90.5413 184.232 91.6675 184.745 91.0641 185.107C91.6976 186.193 91.2853 187.369 91.3557 188.495C91.3758 188.807 91.0239 189.139 91.0239 189.471C91.0239 189.793 91.2953 190.114 91.3657 190.446C91.597 191.572 91.1948 192.689 91.6775 193.895C92.0797 194.891 91.7681 196.138 92.0898 197.294C92.3412 198.189 92.1401 199.124 92.8339 200.019C93.4574 200.804 93.2361 201.98 93.2864 203.016C93.3769 205.097 94.2718 206.817 95.9109 208.114C96.0416 208.215 96.2327 208.255 96.4036 208.295C97.5299 208.567 98.6461 208.768 99.8125 208.687C100.436 208.637 101.069 208.677 101.693 208.677C102.316 208.677 102.95 208.707 103.573 208.667C104.136 208.627 104.78 208.295 105.212 208.486C105.846 208.768 106.419 208.627 107.012 208.657C107.948 208.697 108.903 208.778 109.818 208.637C110.663 208.506 111.517 208.406 112.362 208.315C113.287 208.215 114.242 208.295 115.178 208.295C115.308 208.295 115.489 208.355 115.55 208.285C116.113 207.702 116.827 208.003 117.47 207.913C118.174 207.812 118.888 207.491 119.562 207.581C120.879 207.742 122.076 207.189 123.353 207.098C123.815 207.068 124.399 206.676 124.881 206.827C125.344 206.978 125.676 206.093 126.098 206.757C126.53 206.294 127.244 206.626 127.586 206.364C128.119 205.952 128.723 206.244 129.135 206.002C129.949 205.52 130.874 205.6 131.709 205.439C133.097 205.168 134.354 204.333 135.862 204.504C136.355 204.564 136.878 204.182 137.391 204.182C137.913 204.172 138.406 203.287 138.939 204.112C139.08 203.871 139.231 203.418 139.362 203.428C140.598 203.498 141.674 203.006 142.831 202.704C144.238 202.332 145.636 201.9 147.044 201.518C148.502 201.115 150.101 201.156 151.318 200.029C151.388 199.969 151.559 200.009 151.69 200.019C152.725 200.049 153.64 199.577 154.616 199.386C155.561 199.205 156.396 198.461 157.442 198.772C158.055 198.068 158.99 198.28 159.734 197.968C160.478 197.656 161.192 197.254 161.926 196.922C162.188 196.801 162.469 196.691 162.751 196.641C164.088 196.409 165.134 195.384 166.532 195.323C167.316 194.469 168.724 194.66 169.398 193.624C170.041 193.724 170.604 193.393 171.017 193.031C171.479 192.618 171.932 192.528 172.495 192.467C173.038 192.397 173.169 191.673 173.732 191.472C174.777 191.09 175.683 190.436 176.648 189.893C179.474 188.284 182.349 186.746 185.246 185.268C186.492 184.634 187.609 184.071 187.206 182.361C187.126 182.05 187.759 181.698 187.186 181.356C187.568 180.24 187.991 179.134 187.669 177.917C188.212 177.062 187.92 176.157 187.81 175.262C187.79 175.121 187.699 174.991 187.719 174.86C187.779 174.327 187.9 173.794 187.93 173.261C187.971 172.698 187.91 172.135 187.95 171.572C187.981 171.149 188.011 170.707 188.141 170.305C188.282 169.892 187.991 169.53 188.172 169.088C188.363 168.595 188.403 167.982 188.302 167.459C188.021 165.981 189.328 164.533 188.333 163.065C188.312 163.034 188.353 162.934 188.393 162.904C188.956 162.471 188.735 161.838 188.664 161.345C188.574 160.762 188.805 160.219 188.906 159.726C189.117 158.65 188.996 157.594 189.097 156.549C189.147 156.026 189.479 155.513 189.429 155.02C189.338 154.085 189.057 153.18 188.886 152.255C188.805 151.802 188.765 151.32 188.805 150.867C188.855 150.324 188.695 149.892 188.212 149.64C188.121 149.59 185.607 148.876 185.517 148.886C183.677 149.138 182.028 148.031 180.208 148.092C179.655 147.448 178.85 148.011 178.297 147.72C177.593 147.358 176.899 147.378 176.185 147.378C175.18 147.368 174.184 147.348 173.179 147.388C172.867 147.398 172.545 147.649 172.254 147.619C171.841 147.589 171.469 147.388 170.896 147.187ZM138.044 235.093C136.516 232.952 135.138 230.87 133.61 228.909C132.363 227.3 131.377 225.49 129.919 224.042C129.497 223.62 129.195 223.097 128.843 222.614C128.491 222.132 128.17 221.629 127.767 221.186C127.516 220.915 127.425 220.754 127.757 220.503C128.079 220.271 128.361 220.01 128.572 220.603C128.632 220.754 128.723 220.985 128.833 221.005C131.025 221.528 132.564 223.027 134.112 224.505C135.379 225.721 136.667 226.918 137.471 228.557C137.732 229.09 138.356 229.432 138.758 229.905C139.14 230.357 139.693 230.639 139.894 231.312C140.035 231.785 140.669 232.107 141.021 232.539C141.403 233.002 142.097 233.223 142.107 233.967C142.871 234.078 142.801 234.762 143.002 235.254C143.897 235.234 143.635 236.099 143.987 236.511C144.379 236.974 144.812 237.416 145.103 237.929C146.059 239.588 146.994 241.247 148.422 242.555C148.874 242.967 149.035 243.621 149.618 243.912C149.729 243.973 149.789 244.143 149.86 244.264C150.141 244.033 150.413 243.781 150.704 243.57C151.016 243.339 151.086 243.922 151.589 243.761C153.027 243.289 154.465 242.866 155.792 242.112C156.697 241.599 157.894 241.77 158.688 240.946C159.604 241.127 160.287 240.523 160.991 240.161C162.499 239.377 164.098 238.884 165.687 238.331C167.829 237.587 169.82 236.511 171.912 235.677C172.344 234.912 173.319 235.103 173.893 234.54C174.315 234.128 174.818 233.776 175.32 233.474C176.467 232.781 177.653 232.157 178.81 231.473C179.765 230.9 180.73 230.317 181.615 229.653C182.47 229.02 183.626 228.758 184.31 228.095C185.125 227.29 186.231 227.119 187.035 226.355C187.357 226.043 187.759 226.094 187.397 225.52C187.216 225.239 187.206 224.827 187.206 224.485C187.186 223.167 187.176 221.86 187.206 220.543C187.216 220.191 187.317 219.839 187.417 219.507C187.86 218.19 187.247 216.772 187.82 215.455C187.327 215.052 187.629 214.52 187.588 214.057C187.538 213.524 187.568 213.021 187.9 212.488C188.071 212.217 187.448 211.453 187.619 211.201C188.182 210.377 187.9 209.522 187.93 208.697C187.95 208.114 188.202 207.44 187.598 206.968C188.554 205.831 187.377 204.323 188.292 203.126C188.473 202.885 188.232 202.312 188.162 201.9C188.121 201.678 187.94 201.316 188.001 201.276C188.624 200.874 187.93 200.291 188.071 200.11C188.514 199.577 188.252 199.024 188.302 198.501C188.363 197.877 188.101 197.143 188.373 196.651C188.735 195.957 188.152 195.464 188.312 194.871C188.463 194.308 188.624 193.724 188.684 193.151C188.745 192.528 188.674 191.894 188.715 191.281C188.725 191.13 188.966 190.999 188.996 190.838C189.067 190.537 189.187 190.145 189.057 189.943C188.524 189.109 188.805 188.174 188.644 187.208C188.373 187.208 188.111 187.128 187.91 187.218C186.522 187.822 185.135 188.445 183.878 189.26C181.917 190.527 179.785 191.502 177.754 192.648C176.95 193.101 176.145 193.574 175.3 193.956C174.446 194.348 173.661 194.891 172.847 195.293C171.338 196.037 170.031 197.173 168.362 197.606C167.97 197.706 167.588 197.847 167.216 198.008C165.667 198.662 164.169 199.436 162.58 199.959C160.931 200.502 159.382 201.357 157.623 201.608C156.939 201.709 156.305 202.161 155.632 202.211C154.706 202.282 154.083 202.966 153.138 203.056C151.71 203.197 150.312 203.72 148.904 204.132C148.301 204.313 147.748 204.665 147.145 204.856C146.581 205.037 145.958 204.645 145.375 205.138C144.942 205.5 144.168 205.027 143.695 205.61C143.343 206.043 142.75 205.801 142.278 205.942C140.377 206.505 138.446 207.098 136.516 207.41C134.937 207.672 133.459 208.607 131.78 208.265C130.683 208.949 129.396 208.858 128.22 209.19C127.003 209.542 125.796 209.904 124.509 209.753C123.735 210.427 122.699 209.854 121.915 210.276C121.01 210.749 120.095 210.377 119.19 210.517C118.959 210.558 118.727 210.628 118.496 210.658C117.963 210.739 117.43 210.799 116.897 210.899C116.314 211.01 115.751 211.171 115.168 211.261C115.017 211.292 114.846 211.131 114.685 211.08C114.474 211.03 114.142 210.899 114.061 210.99C113.589 211.523 112.995 211.241 112.473 211.251C110.864 211.292 109.245 211.272 107.415 211.272C107.978 212.921 108.31 214.459 108.44 216.058C108.541 217.224 109.134 218.331 109.054 219.547C108.923 221.418 109.204 223.258 109.476 225.088C109.657 226.305 110.18 227.471 110.18 228.728C110.19 229.945 110.683 231.021 110.974 232.157C111.065 232.499 111.286 232.811 111.306 233.143C111.377 234.661 112.272 235.878 112.704 237.265C113.468 237.597 112.955 238.573 113.579 238.965C113.207 239.85 114.303 240.101 114.393 240.896C114.524 242.032 115.147 243.078 115.841 244.033C115.912 244.123 116.083 244.224 116.153 244.194C117.49 243.58 118.989 243.5 120.356 242.997C121.824 242.454 123.252 241.841 124.65 241.097C125.535 240.624 126.51 240.161 127.496 239.85C128.501 239.538 129.447 239.075 130.422 238.764C131.78 238.341 132.896 237.456 134.223 237.054C135.601 236.592 136.656 235.556 138.044 235.093ZM253.845 250.298C254.67 249.664 254.841 248.88 254.811 247.985C254.78 246.919 254.901 245.843 254.77 244.797C254.67 243.942 254.599 243.017 254.066 242.283C253.483 241.479 252.89 239.99 252.518 238.784C252.015 237.175 251.542 235.556 251.11 233.937C250.788 232.74 250.265 231.644 249.883 230.488C249.24 228.567 248.667 226.616 247.661 224.837C247.289 224.183 246.766 223.549 246.676 222.815C246.505 221.388 245.268 220.523 244.926 219.215C243.79 218.582 244.021 217.486 243.86 216.45C243.669 215.243 243.156 214.168 241.939 213.464C240.803 212.8 239.566 212.508 238.38 212.066C237.525 211.744 236.519 211.925 235.825 213.041C235.041 214.298 234.488 215.525 234.498 217.013C234.508 217.948 234.096 219.276 233.603 219.417C233.04 219.577 232.99 219.829 232.98 220.302C232.97 220.583 232.859 220.895 232.698 221.116C231.703 222.403 230.526 223.57 229.691 224.957C228.716 226.576 227.208 227.763 226.413 229.563C225.89 230.749 224.935 231.815 224.231 232.982C223.799 233.686 223.397 234.43 222.844 235.023C221.858 236.089 221.617 237.587 220.611 238.613C220.712 239.226 220.058 238.935 219.887 239.216C219.666 239.568 219.475 239.94 219.213 240.252C218.52 241.097 217.866 241.982 217.082 242.746C215.443 244.335 214.015 246.134 212.084 247.422C211.33 247.924 210.757 248.839 209.952 249.061C209.087 249.312 208.384 249.845 207.569 250.147C206.895 250.398 206.262 250.167 205.628 250.438C204.532 250.911 203.366 251.182 202.139 251.102C201.395 251.052 200.631 251.011 199.886 251.112C198.619 251.293 197.644 250.559 196.819 249.936C195.512 248.95 194.326 247.743 193.461 246.295C193.099 245.692 192.777 245.069 192.395 244.485C190.665 241.851 189.288 239.045 188.292 236.039C187.759 234.42 187.025 232.901 185.899 231.584C185.617 231.252 185.477 231.212 185.075 231.524C184.431 232.016 183.657 232.318 182.933 232.68C180.62 233.826 178.609 235.455 176.336 236.672C174.908 237.436 173.44 238.17 172.022 238.975C170.564 239.799 168.905 240.202 167.397 240.946C166.25 241.509 165.054 241.931 163.847 242.354C162.821 242.716 161.775 243.158 160.76 243.5C159.603 243.892 158.598 244.707 157.311 244.747C157.13 244.757 156.929 245.059 156.798 245.27C156.768 245.32 156.999 245.531 157.12 245.652C157.512 246.044 157.703 246.567 158.266 246.869C158.739 247.13 158.99 247.794 159.362 248.256C159.463 248.377 159.684 248.387 159.825 248.488C160.086 248.658 162.258 251.414 162.499 251.776C162.831 252.268 163.183 252.761 163.565 253.214C163.887 253.596 164.36 253.877 164.611 254.29C166.24 257.075 168.523 259.338 170.625 261.741C172.032 263.35 173.722 264.707 175.3 266.155C177.03 267.754 179.132 268.75 180.962 270.168C182.189 271.113 183.767 271.515 185.175 272.209C185.849 272.551 186.553 273.074 187.196 273.194C188.825 273.506 190.414 274.049 192.134 274.049C194.839 274.039 197.533 274.019 200.138 273.235C200.952 272.993 201.797 273.054 202.551 272.732C204.864 271.766 207.167 270.761 209.148 269.172C209.55 268.85 210.173 268.317 210.485 268.438C211.43 268.79 210.998 267.493 211.672 267.613C212.436 267.764 212.687 267.03 213.14 266.648C213.522 266.326 213.834 265.924 214.216 265.602C214.759 265.14 215.352 264.748 215.885 264.285C216.438 263.812 216.951 263.33 217.564 262.917C218.188 262.505 218.499 261.66 219.073 261.138C220.33 259.981 221.084 258.443 222.109 257.115C223.065 255.878 223.769 254.451 224.553 253.073C225.428 251.554 226.383 250.086 227.147 248.508C227.881 246.999 228.726 245.541 229.46 244.023C229.862 243.198 230.466 242.454 230.777 241.559C231.089 240.684 231.562 239.87 231.954 239.045C232.758 237.366 233.211 235.556 234.136 233.927C234.629 233.062 235.192 232.197 235.564 231.333C235.916 230.508 236.479 229.834 236.791 229.03C237.112 228.215 237.736 227.662 238.299 227.059C238.44 226.908 238.611 226.787 238.762 226.657C238.862 226.848 239.063 227.069 239.033 227.23C238.792 228.376 238.53 229.523 238.219 230.649C238.168 230.83 237.827 230.92 237.615 231.051C238.319 231.453 237.273 231.664 237.515 232.097C237.776 232.569 237.364 233.002 237.163 233.434C236.982 233.806 236.761 234.148 236.63 234.53C236.328 235.365 235.926 236.159 236.027 237.105C236.117 237.909 235.916 238.573 235.363 239.287C234.971 239.799 234.458 240.503 234.488 241.358C234.498 241.69 234.116 241.992 234.599 242.343C235.785 243.218 236.127 244.485 236.017 245.873C235.946 246.818 236.328 247.613 236.61 248.447C236.831 249.091 237.213 249.644 237.837 249.936C238.42 250.217 239.013 250.569 239.707 250.227C239.737 250.177 239.808 250.127 239.797 250.076C239.747 249.423 239.928 248.769 239.455 248.146C239.204 247.814 239.476 247.291 239.898 247.06C240.059 246.969 240.471 247.009 240.511 247.11C240.944 248.095 242.1 248.377 242.573 249.413C242.915 250.147 243.739 250.75 244.574 251.223C245.268 251.615 245.62 251.293 245.74 250.911C246.072 249.915 246.726 249.091 247.017 248.045C247.239 247.261 247.41 246.788 246.776 246.145C246.334 245.692 246.082 245.038 246.193 244.335C246.273 243.832 246.585 243.761 247.108 243.882C247.983 244.083 248.616 244.596 249.179 245.229C249.863 246.004 250.477 246.828 251.18 247.583C252.005 248.508 252.91 249.372 253.845 250.298ZM250.024 173.734C250.999 174.397 252.156 174.88 252.518 176.107C252.749 176.891 253.292 177.424 253.704 178.068C254.69 179.576 255.484 181.195 255.927 182.965C256.47 185.117 257.023 187.269 257.586 189.411C257.646 189.632 257.797 189.853 257.797 190.074C257.797 191.301 258.35 192.327 258.873 193.393C259.145 193.946 259.466 194.167 259.939 194.448C260.331 194.69 260.552 194.589 260.603 194.328C260.824 193.232 261.779 192.377 261.578 191.16C261.538 190.919 261.467 190.537 261.588 190.426C262.181 189.913 261.679 189.119 262 188.727C262.382 188.264 261.88 187.852 262.242 187.419C262.694 186.866 261.94 186.344 261.94 185.74C261.93 184.232 261.397 182.874 260.653 181.587C260.472 181.275 260.321 180.994 260.663 180.833C260.894 180.722 261.498 180.903 261.498 180.934C261.467 181.627 262.141 181.718 262.453 181.798C263.388 182.05 263.569 182.814 263.83 183.488C264.383 184.885 264.806 186.344 265.359 187.741C265.922 189.139 266.063 190.667 266.797 192.035C267.078 192.558 267.038 193.252 267.672 193.584C267.994 193.051 268.335 192.528 268.627 191.975C268.738 191.774 268.717 191.502 268.728 191.271C268.758 190.667 268.768 190.124 269.049 189.521C269.25 189.099 268.717 188.385 268.768 187.832C268.848 186.937 268.406 186.203 268.225 185.408C267.963 184.272 267.41 183.196 267.702 181.829C268.004 181.979 268.215 182.06 268.396 182.18C269.039 182.593 269.633 183.146 270.326 183.407C270.819 183.588 271.292 183.659 271.342 184.242C271.402 184.815 272.76 185.026 271.774 185.861C271.845 185.941 271.905 186.022 271.986 186.092C272.539 186.545 273.554 187.802 273.946 188.475C274.188 188.888 274.439 189.3 274.751 189.642C275.093 190.014 275.515 189.984 275.887 189.652C276.852 188.817 277.154 186.997 276.651 185.75C276.37 185.056 275.968 184.433 275.807 183.649C275.586 182.603 274.962 181.627 274.389 180.682C274.007 180.059 273.595 179.516 273.605 178.741C273.615 178.48 273.343 178.229 273.212 177.977C272.971 177.515 272.71 177.062 272.508 176.579C272.056 175.514 271.714 174.397 271.211 173.362C270.286 171.481 269.23 169.681 268.325 167.801C267.34 165.76 265.912 164.01 264.555 162.24C263.207 160.48 261.799 158.741 260.552 156.921C259.979 156.086 259.165 155.473 258.692 154.517C258.229 153.562 257.405 152.748 256.6 152.013C255.152 150.686 254.398 148.836 252.98 147.488C252.226 146.774 251.522 145.99 250.919 145.156C249.511 143.165 247.681 141.546 246.143 139.665C245.821 139.273 245.187 138.981 245.137 138.589C245.046 137.825 244.182 138.076 244.051 137.553C243.83 136.699 242.925 136.488 242.543 135.934C242.08 135.261 241.597 134.577 240.984 134.195C239.687 133.4 238.812 132.204 237.716 131.228C236.519 130.173 235.433 128.966 234.126 128.071C231.481 126.251 228.937 124.31 226.313 122.47C224.543 121.223 222.763 119.916 220.621 119.463C219.415 119.212 218.409 118.609 217.474 118.015C216.659 117.502 215.845 117.11 214.97 116.768C214.417 116.547 213.874 116.437 213.391 115.994C213.009 115.642 212.356 115.582 211.642 115.33C211.642 116.919 211.642 118.277 211.642 119.644C211.642 120.026 211.752 120.439 211.621 120.761C210.938 122.49 210.928 124.36 210.596 126.14C210.304 127.709 210.123 129.318 209.731 130.877C209.52 131.721 209.59 132.676 208.987 133.38C208.333 134.135 208.746 135.1 208.363 135.945C208.062 136.618 207.68 137.302 207.499 138.026C207.267 138.941 206.875 139.776 206.594 140.651C206.302 141.546 206.03 142.42 205.498 143.205C205.397 143.356 205.256 143.496 205.236 143.657C205.085 144.613 204.582 145.407 204.029 146.161C203.094 147.438 202.139 148.695 201.184 149.992C201.495 150.033 201.817 150.012 202.079 150.123C202.29 150.214 202.42 150.555 202.622 150.616C202.833 150.676 203.135 150.384 203.326 150.445C204.502 150.867 205.779 150.917 206.936 151.279C208.906 151.903 210.897 152.587 212.728 153.602C213.09 153.803 213.441 154.155 213.803 154.155C215.101 154.165 216.126 154.94 217.273 155.332C218.419 155.734 219.515 156.277 220.591 156.82C221.737 157.403 222.894 157.977 223.93 158.721C224.704 159.284 225.619 159.485 226.393 160.078C227.59 160.993 228.977 161.667 230.285 162.451C230.536 162.602 230.828 162.713 231.029 162.914C232.105 163.96 233.141 165.056 234.227 166.081C235.272 167.067 236.077 168.253 237.213 169.168C237.666 169.53 238.068 170.114 238.571 170.395C239.234 170.757 239.073 171.833 239.988 171.873C240.31 172.698 241.185 172.939 241.708 173.573C243.156 175.302 244.192 177.303 245.408 179.184C245.851 179.868 246.454 180.612 246.484 181.346C246.515 182.372 247.47 183.025 247.309 184.041C248.013 184.262 247.802 185.328 248.767 185.418C249.843 185.529 250.386 184.725 251.15 184.322C251.764 183.991 251.402 183.297 251.432 182.774C251.492 181.959 251.462 181.145 251.442 180.33C251.432 180.029 251.472 179.657 251.311 179.455C250.808 178.792 250.617 178.078 250.678 177.263C250.698 177.102 250.627 176.871 250.517 176.771C249.531 175.845 249.662 174.82 250.024 173.734ZM61.5005 140.349C60.3742 140.128 59.4692 140.51 58.7352 139.876C57.2771 139.906 56.2212 138.991 55.0648 138.298C53.8782 137.584 52.5811 136.94 51.8068 135.774C50.2984 133.471 48.6091 131.279 47.4125 128.775C46.6885 127.256 46.075 125.637 45.0996 124.3C43.6315 122.279 42.9076 119.936 41.8015 117.764C41.54 117.251 41.5802 116.607 41.3891 116.054C41.1981 115.511 40.8462 115.019 40.6652 114.476C40.4741 113.923 40.5545 113.209 40.2327 112.786C39.7903 112.213 40.0316 111.61 39.8204 111.067C39.6092 110.524 39.2674 110.021 39.1769 109.468C39.0864 108.975 38.9657 108.493 38.9456 107.98C38.8752 106.693 38.292 105.496 37.9601 104.259C37.578 102.851 37.4875 101.383 36.9344 99.9955C36.4819 98.8593 36.3513 97.6023 36.1502 96.3755C36.0195 95.6113 36.1601 94.8571 35.8082 94.0728C35.5166 93.4091 35.939 92.5041 35.3759 91.8102C35.4865 89.6583 34.7424 87.5567 35.0038 85.3947C35.0541 85.0227 35.2049 84.6607 35.1948 84.2987C35.1848 83.8864 34.9033 83.4238 35.024 83.0819C35.8787 80.7289 35.8585 78.2049 36.4518 75.7916C36.7333 74.6654 36.5122 73.4285 36.5021 72.2319C36.492 71.4475 35.9892 70.7839 36.0797 69.9392C36.1199 69.5068 35.5871 69.0442 35.3859 68.5616C35.0943 67.8677 34.8228 67.1538 34.6318 66.4298C34.32 65.203 33.4754 64.2879 32.8922 63.222C31.3838 62.4678 29.8956 61.7036 28.3671 60.9997C28.2062 60.9293 27.8342 61.2209 27.623 61.4019C27.3012 61.6835 27.5325 61.9047 27.7235 62.1762C28.0554 62.6488 28.4274 63.1516 28.5782 63.6946C28.8095 64.489 28.8397 65.3437 28.9906 66.1582C29.0811 66.6208 29.3525 67.0632 29.3324 67.5057C29.3022 68.0889 29.5737 68.6018 29.5637 69.1951C29.5536 69.7884 29.9558 70.3917 30.1771 70.985C30.6396 72.2218 31.3536 73.3983 31.2128 74.9167C30.519 74.7759 29.7346 75.1882 29.5838 74.1525C28.5581 74.4341 28.2967 73.5089 27.8643 72.976C27.3716 72.3726 26.738 71.8699 26.6777 70.9347C26.6375 70.4319 26.0844 69.909 25.6621 69.5068C24.6062 68.5113 23.48 67.5962 22.404 66.661C22.213 66.842 21.9314 66.9828 21.8711 67.194C21.4387 68.7023 21.137 70.2308 20.3828 71.6486C19.7292 72.8654 19.4276 74.2631 18.774 75.4799C17.8388 77.2195 17.4868 79.2306 16.2198 80.8094C15.8276 83.0015 14.5405 84.8115 13.6757 86.7724C14.3192 87.2952 14.8624 88.0394 15.5461 88.2204C17.0847 88.6125 17.7382 89.7991 18.5326 90.9153C18.6935 91.1466 18.8443 91.4482 18.8443 91.7198C18.8242 93.2281 19.9806 94.5353 19.6085 96.104C20.2622 96.5666 19.9203 97.2403 19.9705 97.8235C20.0208 98.3464 20.3829 98.8291 20.0209 99.4123C19.8801 99.6336 20.1214 100.086 20.1818 100.438C20.212 100.649 20.3527 100.981 20.2622 101.061C19.7393 101.544 19.9404 102.168 20.0309 102.64C20.1315 103.123 19.4074 103.404 19.8599 103.897C20.242 104.309 19.7091 104.983 20.2521 105.436C20.4231 105.576 20.3325 106.019 20.3627 106.31C20.413 106.894 20.1114 107.427 20.3125 108.08C20.5237 108.764 20.3627 109.569 20.3627 110.323C20.3627 110.574 20.2622 110.886 20.3828 111.067C21.0666 112.093 20.7047 113.229 20.6946 114.295C20.6846 114.697 20.4834 115.059 20.7348 115.501C20.956 115.904 21.0666 116.386 21.1169 116.839C21.1873 117.392 21.137 117.965 21.137 118.528C21.127 119.855 21.5694 121.092 21.7907 122.379C22.0421 123.838 22.766 125.205 22.6454 126.734L23.0879 128.121C23.1884 128.393 23.2487 128.694 23.4096 128.926C23.7917 129.499 23.7012 130.183 23.9023 130.796C24.1034 131.399 24.3247 132.003 24.566 132.586C24.7873 133.119 25.3202 133.692 25.2297 134.155C25.0588 135.05 26.1045 135.18 26.0643 135.924C26.0543 136.176 26.3157 136.437 26.4162 136.709C26.6777 137.413 26.8989 138.137 27.1805 138.831C27.3816 139.313 27.6833 139.746 27.9246 140.218C28.186 140.731 28.4475 141.254 28.6788 141.787C28.8899 142.27 29.0408 142.762 29.2218 143.255C30.2676 143.154 29.4933 144.311 30.1168 144.562C30.3179 144.643 30.3681 145.065 30.529 145.306C30.8709 145.799 31.2128 146.282 31.5949 146.744C31.9871 147.217 32.4094 147.659 32.8217 148.122C32.3792 148.957 33.4955 148.836 33.6463 149.449C33.8173 150.143 34.5011 150.736 35.034 151.3C35.9792 152.305 36.9043 153.341 37.9601 154.206C39.3277 155.332 40.6751 156.468 42.3444 157.202C43.8326 157.856 45.2706 158.65 46.6482 159.475C48.2974 160.47 50.2079 161.023 51.6761 162.321C52.571 162.3 52.9833 163.226 53.8381 163.386C54.7933 163.578 55.6883 164.07 56.6436 164.281C57.2168 164.412 57.7195 164.915 58.353 164.674C58.524 164.603 58.7351 164.352 58.715 164.211C58.6446 163.748 58.3933 163.316 58.3732 162.864C58.3229 161.546 58.3028 160.239 58.3631 158.922C58.4335 157.594 58.6044 156.277 58.7251 154.94C58.7351 154.879 58.6949 154.779 58.7352 154.759C59.6201 154.075 58.8357 153.029 59.3183 152.174C59.7608 151.39 59.6804 150.334 59.8614 149.399C60.0625 148.404 60.0122 147.297 60.3642 146.423C61.1385 144.452 60.6558 142.35 61.5005 140.349ZM174.003 268.538C173.772 268.418 173.5 268.358 173.319 268.187C172.726 267.633 172.183 267.02 171.58 266.477C171.047 265.994 170.252 265.693 169.951 265.11C169.549 264.365 168.694 264.255 168.312 263.581C168.161 263.32 167.819 263.169 167.668 262.907C166.823 261.379 165.536 260.202 164.591 258.754C163.968 257.799 162.831 257.085 162.469 256.069C162.037 254.863 160.961 254.249 160.448 253.153C160.086 252.389 159.332 251.766 158.799 251.052C158.477 250.619 158.246 250.106 157.854 249.765C156.898 248.9 156.325 247.774 155.632 246.738C155.43 246.446 155.33 245.984 155.068 245.883C154.827 245.783 154.455 246.124 154.123 246.185C152.575 246.496 151.056 246.919 149.528 247.331C149.246 247.412 148.914 247.753 148.753 247.673C147.728 247.16 146.451 246.969 145.867 245.843C145.073 244.304 143.736 243.178 142.891 241.65C142.338 240.644 141.363 239.83 140.82 238.754C140.739 238.593 140.417 238.402 140.307 238.442C138.849 239.146 137.069 239.075 135.802 240.272C135.55 240.503 135.229 240.694 134.897 240.805C133.137 241.388 131.488 242.243 129.728 242.836C129.467 242.927 129.024 242.937 128.964 243.108C128.733 243.711 129.416 243.49 129.618 243.721C129.748 243.862 129.939 243.962 130.01 244.123C130.653 245.702 131.86 246.828 133.087 247.894C134.082 248.759 134.525 250.137 135.822 250.68C136.154 252.077 137.763 252.299 138.376 253.515C138.748 254.259 139.683 254.742 140.427 255.255C141.111 255.728 141.312 256.572 142.097 257.015C142.881 257.467 143.424 258.322 144.118 258.945C144.882 259.639 145.666 260.303 146.481 260.936C147.326 261.59 148.17 262.244 149.095 262.787C150.443 263.581 151.81 264.365 153.258 264.969C154.696 265.582 156.295 265.783 157.582 266.759C157.753 266.889 158.055 266.819 158.286 266.879C158.678 266.99 159.05 267.191 159.453 267.241C159.945 267.312 160.569 267.07 160.921 267.302C161.444 267.644 161.957 267.573 162.479 267.644C162.942 267.714 163.374 267.905 163.827 268.006C164.32 268.116 164.923 268.398 165.285 268.227C165.838 267.945 166.069 268.559 166.552 268.428C167.075 268.277 167.678 268.337 168.231 268.408C168.704 268.478 169.106 268.609 169.629 268.438C170.122 268.267 170.926 268.227 171.228 268.518C171.761 269.011 172.173 268.357 172.425 268.549C172.978 268.9 173.46 268.619 174.003 268.538ZM245.298 281.37C246.334 283.089 247.922 283.833 249.481 284.618C250.165 284.969 250.929 284.809 251.532 284.195C251.945 283.783 251.774 283.411 251.573 282.898C251.17 281.872 250.839 280.786 250.718 279.7C250.607 278.685 249.944 278.041 249.36 277.468C248.978 277.096 248.636 276.553 248.013 276.332C247.47 276.141 246.977 275.718 246.585 275.286C246.163 274.823 245.871 274.29 245.268 273.979C244.795 273.737 244.775 273.446 244.262 271.907C244.152 271.585 243.639 271.384 243.568 271.073C243.146 269.283 242.07 267.815 241.286 266.196C240.974 265.552 240.381 264.949 239.938 264.526C238.973 263.611 238.128 262.555 236.791 262.143C236.6 261.288 235.735 261.067 235.172 260.625C234.629 260.192 233.965 259.78 233.191 259.549C232.557 259.358 231.934 258.724 231.22 258.443C230.999 258.352 230.798 258.242 230.566 258.191C229.993 258.05 229.42 257.849 228.847 257.829C228.173 257.819 227.56 257.648 226.926 257.467C226.504 257.347 225.689 257.397 225.559 257.648C224.684 259.317 223.316 260.595 222.2 262.073C220.822 263.893 217.082 267.704 215.573 268.679C215.272 268.88 214.94 269.031 214.548 269.242C214.97 269.474 215.211 269.705 215.473 269.725C216.76 269.836 217.866 270.318 218.811 271.203C219.696 271.042 220.068 272.098 220.893 272.078C221.597 272.058 222.099 272.44 222.673 272.782C223.869 273.496 225.086 274.23 226.393 274.672C227.389 275.004 228.083 275.728 228.978 276.131C229.219 276.241 229.279 276.392 229.048 276.674C228.887 276.875 228.927 277.247 228.907 277.538C228.907 277.568 229.078 277.609 229.159 277.649C229.199 277.538 229.229 277.428 229.269 277.317C229.319 277.207 229.37 277.106 229.44 276.975C230.043 277.438 230.214 278.101 230.415 278.785C230.747 279.891 230.938 281.068 231.562 282.063C232.507 283.562 233.472 285.05 234.548 286.458C235.091 287.172 235.896 287.674 236.881 288.539C236.479 286.669 237.515 285.492 237.776 284.105C237.837 283.773 237.847 283.602 237.706 283.31C237.605 283.079 237.827 282.717 237.907 282.415C238.048 281.882 238.52 281.661 238.933 281.963C239.797 282.596 240.22 283.833 241.547 283.833C241.587 283.833 241.618 284.044 241.668 284.145C241.849 284.507 242.03 284.879 242.211 285.231C242.945 286.629 243.347 286.82 244.926 286.588C244.835 285.814 244.906 284.979 244.604 284.316C244.343 283.753 244.091 283.371 244.594 282.878C244.111 282.154 244.886 281.963 245.298 281.37ZM120.477 103.133C122.186 102.339 123.996 102.791 125.746 102.67C125.917 102.66 126.098 102.61 126.259 102.54C128.109 101.775 130.12 101.936 132.041 101.564C133.338 101.313 134.706 101.393 135.953 101.021C136.526 100.85 136.767 101.464 137.189 101.162C138.074 100.539 139.08 100.88 140.035 100.78C140.679 100.709 141.413 101.061 141.946 100.408C143.162 100.458 144.369 100.418 145.546 100.036C145.707 99.9855 145.908 100.046 146.089 100.076C146.873 100.227 147.044 100.036 146.833 99.3017C146.732 98.9598 146.672 98.6079 146.612 98.266C146.431 97.0995 146.843 95.9934 146.984 94.8571C147.134 93.6605 147.235 92.4638 147.376 91.2572C147.436 90.7946 147.376 89.1254 147.235 88.8136C146.581 87.3958 145.908 85.988 145.254 84.5702C145.033 84.0875 144.902 83.4238 144.198 84.188C144.078 84.3188 143.625 84.3389 143.494 84.2283C142.79 83.5646 141.956 84.0071 141.192 83.8663C140.729 83.7758 140.226 84.0674 139.774 83.6451C139.563 83.4439 139.201 83.826 138.808 83.5344C138.477 83.2931 137.813 83.5747 137.37 83.4238C135.41 82.7602 133.318 82.3077 132.061 80.4071C131.81 80.0351 131.558 80.0753 131.146 80.3267C130.161 80.93 129.125 81.463 128.059 81.9255C127.415 82.2071 127.084 82.6596 126.661 83.1925C125.656 84.4495 125.012 85.9176 124.017 87.1846C122.237 89.4371 121.121 92.1119 120.386 94.847C119.823 96.9386 118.948 99.0403 119.19 101.303C118.496 101.866 119.371 102.027 119.451 102.379C119.592 103.002 119.914 103.173 120.477 103.133ZM11.1116 84.9523C11.4736 84.2082 11.735 83.4942 12.1272 82.8707C12.811 81.7847 13.1026 80.5177 13.7763 79.4317C14.1383 78.8686 13.4846 78.9088 13.4243 78.6273C12.8008 79.1904 12.2579 78.6172 11.7652 78.4161C11.2322 78.2049 10.5987 78.2552 10.1864 77.672C9.79422 77.1189 9.19096 76.7268 8.75857 76.1938C7.86361 75.0776 6.62666 74.5145 5.37975 73.9614C4.41441 73.5291 3.72065 73.7101 2.8257 74.5849C2.28269 75.1078 2.16199 75.9022 2.53405 76.7469C2.86588 77.491 3.25809 78.1949 3.57987 78.9289C4.08266 80.0853 5.46029 80.2664 6.10386 81.2619C6.71725 81.101 6.96861 81.6037 7.33062 81.9255C7.78312 82.3378 8.17529 82.9009 8.70824 83.1121C9.72386 83.5043 10.3875 84.2584 11.1116 84.9523ZM53.9587 134.245C54.733 135.924 56.4727 136.307 57.7598 137.302C58.162 137.604 58.6447 137.453 58.9061 137.694C59.4693 138.207 60.0827 137.895 60.6558 138.006C61.229 138.117 61.7921 138.288 62.3753 138.358C62.506 138.368 62.6769 138.107 62.8278 137.976C62.7171 137.855 62.6166 137.654 62.496 137.644C60.5251 137.493 58.7654 136.669 57.1464 135.693C56.1308 135.07 54.9743 134.879 53.9587 134.245ZM25.099 60.4768C24.6264 61.7237 23.9527 62.6991 23.5907 63.8857C23.4298 64.4186 23.4096 64.6499 23.7817 64.9415C24.4755 65.4946 25.1894 66.0275 26.0341 66.6812C25.8933 65.5851 25.9839 64.489 25.5817 63.6443C25.0889 62.6186 25.5012 61.5829 25.099 60.4768ZM138.125 80.0753C137.189 79.301 137.189 79.301 136.465 80.0753C136.988 80.0753 137.431 80.0753 138.125 80.0753ZM136.757 72.1212C136.305 71.8598 136.264 70.9447 135.168 71.2162C135.802 71.5984 135.932 72.262 136.757 72.1212ZM197.413 247.633C197.614 247.15 197.725 246.999 197.684 246.949C197.564 246.798 197.393 246.677 197.242 246.557C197.171 246.657 197.041 246.778 197.061 246.859C197.131 247.08 197.252 247.271 197.413 247.633ZM52.923 133.923C53.1743 133.823 53.275 133.773 53.3755 133.732C53.2046 133.531 53.0336 133.32 52.8526 133.119C52.7923 133.219 52.6716 133.33 52.6917 133.411C52.742 133.592 52.8526 133.752 52.923 133.923Z" fill="white"/>
<path d="M21.8813 3.87305C21.8813 4.12444 21.8712 4.37583 21.8813 4.62722C21.8913 4.96911 21.7706 5.26074 22.3538 5.42163C23.3192 5.70319 23.7918 6.43723 23.7818 7.54336C23.7617 8.91093 24.184 10.2282 24.7672 11.445C26.0845 14.1499 26.8488 17.0862 28.1962 19.7811C28.0253 20.6157 28.9403 21.4001 28.2867 22.2649C28.166 22.4258 28.2666 22.7576 28.2666 23.009C28.2666 23.2503 28.2666 23.4816 28.2666 23.9039C27.5124 23.3911 27.2409 22.6771 26.6275 22.2548C26.0543 21.8626 25.6924 21.0481 25.4209 20.3543C25.1393 19.6504 24.3047 19.2079 24.4656 18.313C23.2288 17.2169 23.1684 15.3868 21.9416 14.2907C21.4187 12.5511 20.2422 11.1232 19.6288 9.43383C19.3271 8.60926 18.3517 8.11655 18.4925 7.09087C17.9595 6.74898 18.1305 6.21603 18.1204 5.74342C18.1003 5.13002 18.1607 4.73783 18.935 5.2205C19.2467 5.42162 20.5237 4.5468 21.1271 3.89318C21.3785 3.87307 21.6299 3.87305 21.8813 3.87305ZM21.0668 6.45736C20.9562 6.52775 20.8455 6.58809 20.7349 6.64842C20.755 6.94003 20.7249 7.24171 20.8255 7.50316C20.9059 7.71433 21.1573 7.85508 21.3283 8.01597C21.4288 7.94559 21.5192 7.8752 21.6097 7.80481C21.4388 7.35231 21.2579 6.89981 21.0668 6.45736Z" fill="white"/>
<path d="M47.4121 34.8441C47.9149 34.653 48.297 34.4921 48.6791 34.3714C49.1216 34.2206 49.5037 33.8687 50.0467 34.2709C50.3182 34.472 50.7103 34.2407 51.0221 33.9592C51.1528 33.8385 51.7663 34.2407 51.8668 34.1301C52.4299 33.5267 52.7316 34.4418 53.1338 34.291C53.5562 34.1301 53.9181 33.6072 54.3405 34.2709C56.4723 34.0798 58.3427 35.2362 60.4041 35.5077C61.9325 35.7089 63.4911 36.0507 65.0296 36.463C66.4877 36.8552 67.8553 37.6194 69.4038 37.6999C69.4943 37.7099 69.5647 37.901 69.6754 37.9513C70.5301 38.3736 70.6709 39.1177 69.8363 39.4596C68.9413 39.8216 68.4888 40.4853 68.1972 41.2193C67.9257 41.9031 67.3827 42.2651 66.9604 42.7579C66.8598 42.8785 66.5681 42.9891 66.4977 42.9389C66.0754 42.6372 65.6933 42.3054 65.2911 42.9489C64.8285 42.6975 64.3861 42.426 63.9135 42.2148C63.4911 42.0238 62.8978 42.0439 62.6163 41.7523C61.9425 41.0484 61.0677 40.9579 60.2331 40.6864C59.0867 40.3043 57.9907 39.7613 56.8242 39.4194C55.8589 39.1378 54.9941 38.7155 54.1293 38.2328C52.9227 37.5691 51.6053 37.1066 50.3283 36.5535C50.0568 36.4328 49.7048 36.4027 49.5439 36.2015C49.0914 35.6384 48.5082 35.4172 47.8546 35.2764C47.7138 35.2463 47.5931 35.0251 47.4121 34.8441Z" fill="white"/>
<path d="M1.62914 44.3873C1.4783 43.7538 1.94096 43.0901 0.975616 42.8086C0.492945 42.6678 0.523067 41.2399 0.804626 40.5159C0.915238 40.2444 0.834783 39.9126 1.29734 39.9226C1.81018 39.9327 2.4538 40.1036 2.48397 39.2388C2.83591 39.6008 3.14761 39.3193 3.45934 39.1785C3.89173 38.9874 4.26375 38.726 4.80676 38.7763C5.17882 38.8064 5.57102 38.4746 5.96319 38.4444C7.21009 38.3439 8.36652 37.9718 9.51287 37.4992C9.94526 37.3182 10.458 37.3886 10.9306 37.288C11.3228 37.2076 11.6949 37.0165 12.0871 36.926C14.2289 36.4433 16.3105 35.6791 18.5529 35.7897C19.0557 35.3171 19.6388 35.3573 20.2522 35.468C20.3327 36.3629 20.3327 36.3629 19.6389 37.3182C19.0657 38.1126 18.5528 38.9874 17.3461 38.7964C17.2858 38.7863 17.2155 38.7964 17.1652 38.8265C14.9027 40.2444 12.2479 40.536 9.8044 41.4209C9.04017 41.7024 8.26595 41.9237 7.49167 42.1751C6.95872 43.3516 5.71174 43.2309 4.77656 43.6935C3.27827 44.4477 3.27827 44.4477 1.62914 44.3873ZM2.67496 41.9237C2.77552 42.0443 2.80573 42.0946 2.84595 42.1248C3.09735 42.346 3.2884 42.7483 3.72079 42.5069C3.80124 42.4566 3.85152 42.3058 3.85152 42.2052C3.8113 41.5918 3.32856 41.9036 3.02689 41.8332C2.97661 41.803 2.9163 41.8432 2.67496 41.9237Z" fill="white"/>
<path d="M51.3341 23.4016C51.1632 23.1804 50.8917 22.9592 50.8313 22.6977C50.6905 22.1245 50.419 22.1648 50.0772 22.4564C49.7956 22.6977 49.514 22.7782 49.333 22.4363C49.2627 22.3056 49.4437 21.8933 49.5945 21.8329C50.3185 21.5614 50.781 21.0888 51.0324 20.3749C51.0726 20.2642 51.1933 20.1436 51.2939 20.1134C52.7016 19.7413 53.8882 18.8162 55.3262 18.5246C56.0301 18.3838 56.4725 18.0621 56.9753 17.5191C57.6289 16.8051 58.554 16.2319 59.4691 15.9202C60.8467 15.4576 62.0635 14.613 63.4914 14.2912C63.8333 14.2107 64.155 14.0398 64.4969 14.0096C65.0601 13.9594 65.2611 14.2409 65.1003 14.8141C65.05 14.975 64.859 15.0956 64.8087 15.2565C64.678 15.6789 64.6277 16.0911 65.0601 16.4129C65.3115 16.604 65.5326 16.8353 65.7237 17.0766C66.0153 17.4386 65.8846 17.8107 65.3818 18.1526C65.231 18.2531 65.0701 18.3637 64.9595 18.4945C64.688 18.8263 64.4969 18.9369 64.1148 18.5649C64.0042 18.4542 63.1997 18.2028 63.1997 19.0274C63.1997 19.1179 62.8277 19.2084 62.6165 19.2788C61.2389 19.7715 59.801 20.0531 58.4133 20.4754C57.4379 20.7771 56.4223 21.3402 55.477 21.4408C54.4111 21.5514 53.6369 22.2452 52.6213 22.3458C52.1487 22.3759 51.7665 23.0195 51.3341 23.4016Z" fill="white"/>
<path d="M21.9111 27.3623C21.1469 26.6282 20.6038 26.6483 19.8698 26.7187C18.7536 26.8293 17.5972 26.5779 16.481 26.3668C16.1391 26.2964 16.2498 25.3914 15.5056 25.6427C14.9124 25.8439 14.661 25.2807 14.2688 25.0193C13.8867 24.7679 13.2331 24.7679 13.032 24.4562C12.3583 23.3702 11.1616 23.4909 10.2264 23.0283C10.0153 22.9277 9.73364 22.988 9.54259 22.8774C9.10014 22.6361 8.62753 22.5154 8.66775 21.7512C8.69792 21.2283 8.32592 21.9523 7.97397 21.7412C7.97397 21.349 7.8835 20.8362 8.00416 20.3937C8.09466 20.082 8.70799 19.8406 8.68788 19.6093C8.59738 18.7647 9.13036 18.9658 9.60298 18.8451C10.146 18.7044 10.4577 19.7602 11.0811 19.0462C11.1415 18.9758 11.785 19.4485 12.1772 19.6295C12.6498 19.8507 13.1727 19.9613 13.6152 20.2127C15.7068 21.3993 17.6676 22.8071 19.6486 24.1646C20.453 24.7177 21.1268 25.4618 21.8005 26.1757C21.9614 26.3567 21.8709 26.7589 21.9111 27.3623Z" fill="white"/>
<path d="M48.6694 55.0863C48.4381 55.1868 48.1868 55.3879 48.0862 55.3276C47.2918 54.855 46.5879 54.7645 45.7331 55.2974C45.1398 55.6594 44.2952 55.3276 43.9031 54.9153C43.4807 54.4729 43.0886 55.1265 42.9579 54.7745C42.8473 54.4829 42.7668 54.0203 43.1891 53.769C42.797 53.3969 43.4706 52.7735 42.8472 52.4316C42.455 52.2103 42.4349 51.8886 42.7768 51.5165C42.8874 51.4059 42.8271 51.0942 42.7869 50.8931C42.4551 49.0529 41.5701 47.3736 41.1076 45.5937C40.9064 44.8295 40.3634 44.3971 40.0718 43.7636C39.8003 43.1603 40.0618 42.9793 40.3634 42.6977C40.6752 42.4061 40.8864 42.6474 41.1377 42.8485C41.6405 43.2709 42.1735 43.663 42.7065 44.0451C43.9836 44.9703 44.4661 46.4484 45.1198 47.7456C45.9745 49.445 47.1209 51.0338 47.4829 52.9545C48.3176 53.3667 48.0761 54.3522 48.6694 55.0863Z" fill="white"/>
<path d="M41.651 5.41992C41.9527 5.72159 42.2342 5.96291 42.4655 6.25453C42.5459 6.36514 42.5158 6.72716 42.4755 6.73721C41.4197 7.01877 41.9125 7.87351 41.7918 8.50702C41.6309 9.32153 41.641 10.2165 41.2689 10.9103C40.7158 11.9561 40.4745 13.0823 40.022 14.1482C39.7203 14.8421 39.6097 15.5963 39.0767 16.1996C38.8655 16.4309 38.8656 16.8532 38.7852 17.1951C38.6042 17.8789 38.4533 18.5526 38.2522 19.2264C38.2019 19.3872 38.0109 19.5783 37.86 19.5984C37.7494 19.6185 37.498 19.3973 37.4779 19.2666C37.2667 17.8286 35.8188 16.5515 36.8847 14.9326C36.9752 14.8018 36.8947 14.5605 36.8947 14.3795C36.8947 13.8164 37.0355 13.2131 36.8545 12.7002C36.6634 12.117 37.498 11.6745 36.9449 11.1416C37.5483 10.7595 37.0053 9.99526 37.3673 9.64331C37.8801 9.15058 37.4176 8.53719 37.7494 8.1048C37.9103 7.89363 38.021 7.82322 37.7998 7.55172C37.4478 7.09921 37.8299 6.70703 37.9807 6.25453C38.2019 5.59085 38.4534 5.51042 38.8053 5.98304C39.3182 6.65677 39.7907 6.40538 40.3337 6.11377C40.746 5.9026 41.1583 5.68137 41.651 5.41992Z" fill="white"/>
<path d="M124.438 176.75C124.438 177.142 124.338 177.544 124.469 177.856C124.579 178.118 125.072 178.218 125.172 178.47C125.555 179.505 125.856 180.561 126.178 181.617C126.208 181.707 126.238 181.858 126.208 181.878C125.444 182.291 125.635 183.025 125.535 183.678C125.484 184.04 124.006 185.8 123.614 186.092C123.513 186.162 123.403 186.212 123.322 186.293C123.051 186.554 122.82 186.866 122.508 187.067C122.367 187.158 122.045 186.946 121.864 187.017C121.542 187.137 121.271 187.419 120.949 187.52C120.346 187.701 119.763 187.731 119.29 187.158C118.968 186.776 118.586 186.444 118.244 186.092C118.184 186.031 118.164 185.921 118.164 185.83C118.164 185.78 118.284 185.74 118.284 185.7C118.214 185.086 118.144 184.473 118.063 183.859C118.013 183.457 118.264 183.206 118.435 182.884C118.898 181.959 119.39 181.104 120.185 180.42C120.959 179.747 121.402 178.821 121.955 177.977C122.246 177.544 122.92 177.363 123.443 177.102C123.674 176.941 123.956 176.891 124.438 176.75ZM123.312 180.42C121.653 181.355 121.412 183.035 120.698 184.422C120.637 184.533 120.738 184.815 120.859 184.895C120.969 184.965 121.291 184.925 121.341 184.835C121.713 184.101 122.709 183.779 122.659 182.793C123.584 182.2 123.272 181.325 123.312 180.42Z" fill="white"/>
<path d="M116.897 156.398C116.706 155.855 117.239 155.785 117.591 155.483C117.893 155.222 117.852 154.608 118.064 154.216C118.395 153.603 118.778 153 119.21 152.457C119.783 151.733 120.789 151.763 121.503 151.2C121.784 150.978 122.91 150.315 122.941 151.712C124.087 152.004 123.655 153.321 124.369 153.885C123.866 154.498 124.389 155.433 123.966 155.865C123.122 156.74 122.981 158.168 121.674 158.681C121.412 158.782 121.312 159.304 121.07 159.385C120.628 159.526 120.155 159.365 119.703 159.737C119.532 159.878 118.878 159.465 118.476 159.254C118.114 159.073 117.752 158.852 117.46 158.58C117.36 158.49 117.591 158.128 117.511 157.947C117.42 157.736 117.098 157.615 117.018 157.404C116.907 157.132 116.937 156.801 116.897 156.398ZM122.468 153.623C121.211 154.277 120.346 154.709 119.492 155.151C119.25 155.282 118.918 155.393 118.828 155.594C118.627 156.077 118.546 156.6 118.436 157.112C118.416 157.213 118.476 157.404 118.536 157.434C118.969 157.615 119.401 157.836 119.843 157.887C120.326 157.937 120.507 157.545 120.698 157.112C121.171 156.057 121.744 155.041 122.468 153.623Z" fill="white"/>
<path d="M127.063 125.424C126.832 125.826 126.993 126.409 126.943 126.973C126.882 127.636 126.48 128.26 126.188 128.893C126.048 129.215 125.887 129.547 125.656 129.788C124.992 130.482 124.348 131.126 123.262 131.266C122.438 131.377 121.684 131.548 120.879 131.226C120.447 131.055 119.994 130.924 119.542 130.854C119.069 130.774 119.099 130.502 119.25 130.211C119.401 129.919 119.823 129.517 119.763 129.436C119.18 128.652 120.175 129.155 120.195 128.883C120.205 128.773 120.296 128.662 120.296 128.551C120.225 127.224 120.427 127.003 121.392 126.158C122.377 125.293 123.453 124.559 124.539 123.855C124.982 123.574 125.515 123.081 126.168 123.393C126.762 123.664 127.114 124.449 127.063 125.424ZM125.193 126.329C125.143 126.218 125.123 126.078 125.042 126.027C124.952 125.967 124.771 125.927 124.7 125.977C124.348 126.208 124.057 126.52 123.695 126.711C123.343 126.902 122.94 127.063 122.548 127.083C121.623 127.123 123.021 127.868 122.307 127.837C121.573 127.817 121.875 128.581 121.442 128.823C121.241 128.943 121.804 129.728 122.076 129.627C123.685 129.054 124.549 127.797 125.193 126.329Z" fill="white"/>
<path d="M126.792 95.7613C127.787 96.083 128.38 95.7512 129.074 96.1434C129.476 96.3646 130.19 96.0529 130.753 96.2841C131.025 96.3948 131.327 96.4149 131.598 96.5154C131.94 96.6361 132.584 96.6562 133.287 96.6864C135.158 96.7568 136.566 95.8317 137.893 94.6753C138.124 94.4741 138.315 94.1926 138.587 94.0719C138.788 93.9814 139.13 93.9915 139.291 94.1121C139.431 94.2228 139.502 94.5646 139.452 94.7658C139.281 95.4395 139.09 96.1132 138.818 96.7467C138.044 98.5869 136.455 99.3109 134.635 99.6629C134.273 99.7333 133.871 99.6126 133.509 99.683C131.437 100.115 129.999 98.7679 128.471 97.8227C127.877 97.4506 127.526 96.6864 126.792 95.7613Z" fill="white"/>
<path d="M134.806 85.2539C135.148 86.2695 134.736 87.2248 135.299 88.0494C135.439 88.2605 135.017 88.7834 134.977 89.1756C134.806 90.5733 134.464 91.9208 133.841 93.1979C134.152 94.1029 132.966 94.304 132.946 95.0883C132.936 95.2492 132.463 95.5408 132.242 95.5006C132 95.4604 131.638 95.1386 131.618 94.9174C131.518 93.6303 130.975 92.3834 131.92 91.056C132.845 89.7588 133.308 88.16 133.861 86.6416C134.022 86.1689 134.424 85.7869 134.806 85.2539Z" fill="white"/>
<path d="M130.08 88.5396C130.703 89.3843 129.386 89.4446 129.255 90.1083C129.175 90.5004 128.722 90.5608 127.737 90.7619C127.496 90.8122 127.264 91.0334 127.083 91.2244C126.792 91.5261 126.349 90.7317 126.148 91.3954C125.977 91.0535 125.605 90.6613 125.686 90.3999C126.118 88.9821 126.782 87.6547 127.918 86.6793C128.119 86.4983 128.471 86.0056 129.084 86.4078C129.617 86.7597 130.16 86.9106 130.08 87.6748C130.05 87.9161 130.08 88.1675 130.08 88.5396Z" fill="white"/>
<path d="M138.506 89.9088C137.994 89.8787 137.792 89.9189 137.531 89.4463C136.898 88.31 137.25 87.3949 137.833 86.4899C138.124 86.0273 138.657 85.7257 138.979 85.2832C139.301 84.8609 139.844 85.6352 140.055 85.0117C140.437 85.1525 140.829 85.2531 141.181 85.4341C141.292 85.4944 141.362 85.7559 141.342 85.9067C141.252 86.4195 141.222 86.9927 140.95 87.405C140.427 88.1994 139.784 88.9234 139.15 89.6273C138.979 89.8284 138.627 89.8686 138.506 89.9088Z" fill="white"/>
</svg>
