<?xml version="1.0" encoding="UTF-8"?>
<svg id="BACKGROUND" xmlns="http://www.w3.org/2000/svg" viewBox="0 0 453.69 477.98">
  <defs>
    <style>
      .cls-1 {
        fill: #fff;
      }

      .cls-2 {
        fill: #ff9737;
      }

      .cls-3 {
        fill: #477dca;
      }
    </style>
  </defs>
  <path class="cls-3" d="m312.73,290.81c-.19-.36-.37-.98-.56-.98-.59,0-1.18.22-1.76.39-.06.02-.1.35-.03.48.15.26.38.48.58.74-.99.74-2.01,1.43-2.94,2.23-.38.33-1.04-.54-1.24.44-.11.56-.83.35-1.28.48-.52.16-.99.46-1.48.68-.86.38-1.71.81-2.6,1.1-.85.28-1.77.34-2.62.61-3.1,1.01-6.22,2.01-9.28,3.14-2.12.79-4.34,1.31-6.35,2.32-1.61.81-3.3,1.42-4.9,2.23-2.97,1.51-6.14,2.31-9.41,2.86-1.75.3-3.52.5-5.2,1.36-1.61.82-3.51,1.06-5.28,1.56-1.09.31-2.16.67-3.25.95-1.74.45-3.5.83-5.23,1.27-2.29.58-4.67.55-6.96,1.08-.29.07-.61,0-.92,0-2.89,0-5.79,0-8.69.03-1.16.02-2.31.07-3.15-1.03.03-.14.96-.1.28-.54-.57-.37-1.42-.39-1.16-1.41.02-.08-.12-.2-.2-.28-.04-.04-.11-.04-.17-.04-1.07-.03-1.12-1.39-2.17-1.57-.91-.16-1.75-.69-2.6-1.1-.18-.09-.33-.32-.41-.52-.19-.5-.33-1.02-.49-1.51-.49.14-.99.29-1.58.46-.26-.62-.23-1.33.46-1.58,1.16-.44,1.14-1.4.81-2.09-.64-1.35-.79-2.87-1.69-4.14-.57-.8-1.13-1.89-1.06-2.81.09-1.15-.17-2.24-.12-3.36.05-1.23.01-2.46.01-3.7,0-.43.13-.92-.03-1.28-.51-1.12-.5-2.32-.29-3.42.35-1.76.21-3.52.38-5.27.04-.35.02-.64-.01-.97-.07-.83-.28-1.72.25-2.51-.54-1.18.42-2.43-.19-3.65-.22-.46-.08-1.08-.13-1.63-.07-.78-.18-1.56-.25-2.34-.02-.23.03-.46.04-.68.02-.47.06-.93.04-1.4-.04-.97-.37-2.01-.12-2.89.39-1.35.19-2.66.3-3.98-.88-.69-1.62.15-2.42.21-.74.06-1,1.02-1.87,1.16-.64.11-1.16.83-1.75,1.25-1.42,1.02-2.81,2.09-4.28,3.03-1.97,1.26-4,2.41-6.02,3.59-.67.39-1.39.7-2.08,1.04-.17.08-.35.13-.5.23-.61.4-1.16.99-1.82,1.18-.65.19-1.29.36-1.88.67-.16.09-.31.2-.46.29-.34.2-.18.9-.85.79-.44-.07-.87.02-.97.59-.09-.03-.22-.03-.27-.09-.59-.75-1.22-.11-1.77.02-1.18.27-1.3.25-1.53-.96-.04-.18-.07-.35-.1-.54-.56.22-1.08.42-2.02.79.49-.87.66-1.64,1.07-1.81.85-.34.69-.95.63-1.49-.11-.95-.37-1.87-.55-2.81-.07-.36-.21-.75-.13-1.08.25-1.05,0-2.09,0-3.13,0-1.04.25-2.07.3-3.11.04-.71.24-1.45-.25-2.14-.17-.24-.14-.77.02-1.05.36-.66.23-1.19.02-1.89-.19-.62.07-1.41.28-2.08.45-1.45.5-2.95.72-4.43.27-1.71.41-3.47,1.71-4.84.62-.66,1.13-1.38,2.15-1.36.17,0,.34-.11.51-.15.21-.05.42-.09.63-.13-.05.16-.09.31-.14.46.22.06.47.22.65.16.39-.13.86-.27,1.09-.57.81-1,1.99-1.31,3.05-1.85,1.71-.89,3.28-1.95,4.79-3.21,1.03-.86,1.84-1.97,3.12-2.61,1.16-.59,2.1-1.62,3.13-2.46.33-.27.69-.51.99-.81,1.12-1.11,2.19-2.29,3.67-2.96.21-.1.37-.32.54-.5,1.53-1.67,3.37-2.97,5.15-4.34,2.23-1.7,4.07-3.78,5.91-5.86.89-1.01,1.71-1.94,3.16-2.28,1.02-.24,2-.87,2.85-1.6.51-.44.97-1.13,1.89-.68.13.06.51-.53,1.06-.58,2.38-.26,4.68-1.01,7.1-1.12.75-.04,1.49-.5,2.29-.27.7.2,1.36-.1,2.06-.09,1.07.02,2.2-.37,3.19-.13,1.04.26,1.89-.17,2.83-.21.43-.02.87.03,1.29-.02.71-.06,1.43.16,2.14-.3.36-.23,1.02-.2,1.44-.03.98.41,1.9.08,2.8-.08,1.09-.19,2.19-.2,3.27-.37,3.23-.51,6.58-.38,9.67-1.7.11-.05.23-.13.33-.12,1.78.16,3.51-.26,5.26-.38.78-.05,1.6.19,2.18-.63.33-.47.76.49,1.25-.05.39-.42,1.05-.58,1.53-.94.28-.2.4-.15.56.07.26.35.46.34.88.11.53-.3,1.22.42,1.81-.09,1.62.26,3.22-.24,4.86-.08.49.05.98.05,1.48.18.64.16,1.34.39,1.94.27,1.26-.26,2.39.2,3.58.31,1.14.11,2.32.79,3.52.13.19-.11.6-.12.71,0,.65.71,1.44,0,2.15.3.7.3,1.5.38,2.24.59.67.19,1.36.14,2.02.1,1.73-.11,3.21,1.03,4.95.86.26-.03.54.23.81.34.61.25,1.21.69,1.82.7.93.02,1.53.44,2.27.91,1.35.85,2.88,1.39,4.35,2.05.16.07.37.05.55.01,1.2-.26,1.23-.29,1.72.22.7.71,1.41,1.33,2.49,1.35.26,0,.53.25.74.44.16.15.24.4.35.6,0,.01.26,1,.28,1.03.48.75.24,1.33-.3,1.97-.24.29-.19.92-.09,1.36.09.39.37.77.65,1.07.85.92.82,2.1.8,3.17-.03,1.18-.45,2.35-.59,3.54-.14,1.13-.12,2.27-.61,3.34-.1.21-.04.49-.02.73.07.92-.24,1.66-.91,2.29-.25.24-.39.59-.57.9-1.24,2.12-1.75,4.53-2.59,6.81-.45,1.23-1.13,2.39-1.4,3.66-.4,1.81-1.11,3.52-1.56,5.3-.11.41-.23.81-.39,1.19-.29.68-.74,1.15-1.49,1.39-.62.2-1.2.53-1.76.87-.3.19-.5.26-.8.03-.2-.16-.54-.38-.69-.31-.42.2-.94.46-1.11.83-.22.5.15,1.32-.89,1.21-.01.14-.04.28-.03.42.09,1.69.27,3.35-.19,5.06-.36,1.32-.3,2.75-.43,4.14-.04.36-.08.72-.16,1.07-.21.9-.6,1.74-.28,2.75.16.5-.26,1.15-.3,1.74-.06.8.03,1.6-.02,2.4-.04.69-.11,1.37-.03,2.07.06.51-.2,1.05-.23,1.58-.03.39.25.89.09,1.15-.16.26-.46.23-.25.74.24.58.16,1.32-.26,1.92.48.81-.46,1.58-.16,2.28.43,1-.41,1.73-.3,2.65.1.85.05,1.72.03,2.58-.04,1.66-1.19,3.74-2.38,4.34-.09.05-.23,0-.33,0Zm-36.24-47.04c-.2.71-.41,1.21-.47,1.73-.16,1.27-.97,2.33-1.15,3.54-.18,1.21-.53,2.32-1.01,3.42-.1.22-.15.46-.19.69-.14.77-.23,1.54-.39,2.29-.21.99-.56,1.95-.7,2.94-.11.78-.28,1.7.8,2.11.15.06.2.41.28.63.19.51.37,1.02.54,1.48.29-.21.62-.56.7-.5.4.25.62.32.7-.26.04-.23.27-.42.3-.64.15-1.44.29-2.88.38-4.33.12-1.88.11-3.75.27-5.63.22-2.37.65-4.82-.07-7.46Zm22.14-3.51c-.98,1.76-.39,3.61-.39,5.41.78-1.74,1.55-3.48.39-5.41Zm4.11,14.04c-.42,1.28-.88,2.54-1.25,3.83-.18.61-.22,1.28.63,1.59.62-1.75.92-3.48.63-5.42Z"/>
  <path class="cls-2" d="m179.42,127.69c.76.27.62.75.27,1.26-.03.04-.23,0-.32-.06-.1-.07-.16-.2-.24-.3-.04.11-.09.22-.11.34-.02.12-.06.34-.01.36.87.41.43,1.08.45,1.72.04,1.35-.27,2.55-.93,3.71-.21.35-.15.86-.36,1.2-.78,1.23-1.61,2.43-2.44,3.63-.07.1-.36.16-.46.1-.27-.16-.51-.42-.53.16-.03.62-.23.88-.94,1.02-1.04.2-2.04.57-3.45.47.49-.25.68-.35.87-.45-.19-.16-.36-.37-.57-.46-.43-.18-1.67-.32-1.85-.26-.85.24-1.25.86-1.22,1.85.06,1.97-.02,2.23-1.33,3.36-.9.77-1.64,1.62-2.17,2.67-.88,1.72-2.22,2.57-4.22,2.37-.82-.08-1.65-.13-2.53.07-.64.15-1.55-.25-2.12-.69-.39-.3-.78-.27-1.05-.26-1.1.04-2.03-.43-2.99-.77-1.23-.45-2.49-.9-3.59-1.6-1.49-.95-2.6-2.32-3.57-3.83-1.27-2-2.1-4.14-2.61-6.43-.02-.06-.06-.11-.08-.17-.32-.73.64-1.37.06-2.21-.41-.61.4-1.38.16-2.18-.09-.31.42-.63.91-.71.51-.09.5-.17.02-.79-.33-.43-.21-.8.33-1.1.11-.06.26-.23.23-.3-.12-.34-.33-.6.12-.92.23-.17.45-.77.34-.91-.6-.79-.08-1.39.25-2,1.2-2.23,2.65-4.29,4.33-6.19.43-.48.99-.85,1.52-1.22.11-.08.37.1.57.13.59.11.66,0,.69-.75,0-.19.16-.38.24-.57.14.08.29.14.4.24.15.14.27.3.4.46.13-.18.3-.33.37-.53.08-.22.07-.48.09-.72.43.08.83.25,1.19.19.27-.04.61-.19.47-.77-.09-.34,1.23-.48,1.19-.42-.47.92.06.71.47.4.46-.34.94.49,1.44-.17.24-.31.97-.24,1.65-.38-.5-.17-.83-.28-1.15-.39,0-.08.01-.16.02-.24.73.04,1.45.08,2.17.12.48.76,1.12.4,1.74.13-.59-.03-1.18-.07-1.77-.1.81-.67,1.69-.2,2.53-.1.13.02-.58.42.04.56.22.05.47-.03.7-.05-.4-.82.28-.59.62-.59.49,0,.99,0,1.46.12,1.31.34,2.64.5,3.86,1.23.58.35-.27.75.29.95.37.13.82.41.95.74.12.29-.14.75-.3,1.1-.02.05-.46-.11-.7-.16-.12-.02-.24,0-.36,0-.01-.06,0-.17-.03-.18-1.62-.62-3.3-.96-5.01-1.19-.67-.09-1.43-.28-2.01-.07-.87.33-1.65.24-2.48.05-.15-.04-.31-.05-.45-.02-1.22.28-2.43.58-4,.95.87.09,1.42.06,1.91.22.55.18,1.05.53,1.57.81,1.79.95,3.75.46,5.63.62.13.01.31-.28.41-.46.09-.15.06-.43.17-.48.2-.1.46-.08.7-.08.21,0,.35.65.66.06.08-.15.36-.19.54-.28.21.93.72.37,1.17.26.41-.1.83-.14,1.24-.2.19.53-.04,1.43,1.04,1.16.83.69,2.21.66,2.51,2.02.03.14.21.29.35.36,1.07.51,1.23,1.44,1.37,2.49.07.48-.21,1.21.52,1.52.07.03.12.28.07.34-.65.72.52,1.5-.08,2.21.7.69-.32,1.2-.19,1.83-.19-.02-.43-.13-.54-.05-.44.29-.78.7-.45,1.23.39.63.15.72-.44.64.09.78-.98,1.12-.75,1.96-1.03.18-.46,1.24-.96,1.78-.27.29-.38.79-.78,1.12-.5.42-.87,1.01-1.59,1.88,1.94-.8,3.59-1.22,4.77-2.52.24-.26.38-.6.53-.92,1.05-2.18,1.68-4.48,1.85-6.9.01-.13-.03-.27.03-.37.77-1.37.08-2.53-.57-3.66-.41-.71-.73-1.39-.61-2.22.08-.59.55-.79,1.03-.42.48.37.88.95,1.41,1.12,1.33.42,1.73,1.34,1.81,2.58.05.65.19,1.29.29,1.94-.1-.04-.2-.09-.3-.13-.12-.05-.25-.1-.37-.16.01.16-.04.38.05.45.28.22.51.16.59-.23Zm-31.71,4.61c.29.03.62.18.76-.24.13-.38.14-.99.38-1.1.57-.26.48-.7.45-1.07-.06-.65-.22-1.29-.36-1.93-.39-1.76.11-3.72,1.05-5.3.43-.72,1.42-1.19,1.22-2.44-1.29,1.27-2.25,2.59-3.11,4.02-.43.71-.46,1.29-.1,2.03.55,1.14.38,2.32.02,3.52-.24.81-.62,1.64-.28,2.53-.74.47-.46,1.09-.12,1.7.03-.58.06-1.15.09-1.73Zm16.44,8.4c.47-.71.86-1.37,1.31-1.97,1.51-2.01,3.47-3.69,4.49-6.06,1.05-.77,1.28-1.98,1.66-3.11.06-.17.17-.32.27-.47.66-1.11.66-2.24.31-3.47-.81-2.86-3.07-4.71-6.32-4.8.7.47,1.16.79,1.64,1.08.3.19.88.3.91.5.14.89,1.27,1.01,1.36,2.01.06.7,1.32,1.17.54,2.17-.04.05.2.29.26.46.07.18.16.4.12.57-.08.38-.36.77-.31,1.12.08.53-.88.51-.5,1.18.09.16-.6.67-.57.97.09.73-.66.61-.85,1.03-.17.38-.73.7-.7,1.02.08.92-.92,1.35-.9,2.1.02.87-1.27,1.02-.92,1.97.02.06-.14.28-.2.27-1.28-.17-1.42,1.33-2.39,1.51.27.65.5,1.21.8,1.92Zm-4.28,3.79c1.28.04,2.16-.48,3.02-1.01.11-.07.19-.44.15-.47-.16-.12-.38-.15-.58-.2-.04-.01-.1.08-.15.1-.84.31-.84.3-2.29-.13-.07-.02-.22,0-.25.06-.41.75-1,.48-1.52.22-.43-.22-.77-.59-1.18-.85-.13-.08-.33-.05-.49-.06,0,.21-.1.51.01.63.92,1.04,2.17,1.43,3.26,1.72Zm-9.22-1.02c1.22,1.9,2.92,2.53,4.8,2.93-.29-.4-.48-.88-.82-1.06-.71-.36-1.08-.92-1.39-1.59-.41-.88-.44-.87-1.46-.57-.32.09-.64.16-1.13.28Zm8.3-9.04c.23-.03.48-.02.69-.11.1-.05.1-.29.15-.44-.74.06-.94-.82-1.56-.9-.11-.02-.43.41-.39.58.11.57.45.95,1.12.87Zm-15.53,2.8c.11-.01.22-.02.33-.03-.1-.91-.19-1.82-.3-2.73-.01-.06-.19-.14-.29-.14-.08,0-.24.11-.23.15.15.92.32,1.83.49,2.75Zm5.59,4.22c.05-.89.08-1.41.1-1.88-.33.24-.9.48-.89.67.03.35.41.67.79,1.21Zm-5.83-9.31h-.19c-.04.22-.1.44-.1.66,0,.1.09.21.14.31.09-.12.23-.23.24-.36.02-.21-.06-.41-.09-.62Zm10.22,2.83c-.32-.2-.51-.33-.72-.43-.06-.03-.17.08-.26.12.11.18.21.36.35.51.03.04.2-.06.63-.2Zm6.92,4.66c-.11-.11-.2-.25-.33-.31-.08-.04-.22.05-.33.08.14.18.28.36.41.54.07-.09.14-.17.25-.31Z"/>
  <path class="cls-2" d="m141.55,118.3c.23.99-.04,1.86-.29,2.72-.29.98-.27,2.05-.86,2.94-.53.8-.48,1.73-.55,2.63-.04.49.1,1.06-.11,1.46-.6,1.15-.76,2.37-1.02,3.61-.14.67-.35,1.22-.06,1.89.14.31.08.74-.02,1.09-.14.54-.37,1.04-.57,1.56.83.2.33,1.08.75,1.5.09.09,0,.35-.03.7-.54-.23-1.03-.55-1.55-.62-1.29-.18-1.6-1.25-1.88-2.16-.35-1.13-.4-2.35-.58-3.53.87-1.47.38-3.18.84-4.78.54-1.84.98-3.72,1.93-5.36.93-1.58,1.98-3.18,3.97-3.67Z"/>
  <path class="cls-2" d="m176.84,141.57c1.17.33,2.08.58,2.99.84.17.05.35.18.51.16,1.36-.18,2.26.5,3.13,1.46.7.78,1.09,1.64,1.22,2.61.14,1.01-.41,1.75-1.18,2.42-.4.35-.59.36-.84.04-.56-.73-1.16-1.44-1.57-2.24-.66-1.26-1.24-2.51-2.72-3-.2-.07-.34-.34-.46-.54-.33-.51-.63-1.02-1.07-1.75Z"/>
  <path class="cls-2" d="m141.81,145.76c-1.36-.96-2.43.04-3.57.56-.7.32-1.34.78-2.05,1.04-.57.2-1.11-.12-1.54-.53-.06-.06-.04-.28.03-.37.43-.63,1.07-1.06,1.38-1.82.16-.38.86-.51,1.31-.77.36-.21.66-.75,1.16-.21.03.03.12,0,.18,0,.43-.07-.31-.71.37-.72.3,0,.55-.4.88.07.18.26.68.27.91.5.36.36.58.85,1.22.8.12-.01.33.22.37.38.08.28.13.6.05.86-.06.12-.43.14-.7.22Z"/>
  <path class="cls-2" d="m158.52,103.9c.4-1.27,1.13-2.71,2.54-3.7.4-.28.83-.12,1.12.27.24.32.7.56.33,1.08-.43.61-.71,1.27-.71,2.03,0,.37-.32.41-.52.6-.52.49-1.3.63-1.65,1.34-.08.16-.46.34-.59.28-.25-.13-.5-.39-.58-.64-.09-.27,0-.61.05-1.26Z"/>
  <path class="cls-2" d="m132.25,126.35c-.57.28-1.1.36-1.22.63-.38.86-.4.94-.97.35-.55-.57-1.2-1.01-1.5-1.89-.22-.64-1.1-1.05-1.68-1.58-.2-.18-.36-.4-.53-.6.3-.17.77-.55.86-.47.56.47,1.16-.33,1.66.13.42.38,1.22.22,1.35.99,1.48.13,1.26,1.56,2.03,2.43Z"/>
  <path class="cls-1" d="m369.52,311.64c.99.92,1.52,2.12,2.06,3.33.25.55.34.79-.38.78.01.13.02.25.03.38,1.32-.29,1.38,1.02,1.87,1.63.63.78.87,1.86,1.27,2.81.05.11.04.24.11.33.85,1.13,1.13,2.55,1.9,3.68.41.61.56,1.13.65,1.81.08.55.52,1.03.7,1.57.19.55.2,1.16.41,1.7.22.57.61,1,.54,1.74-.07.69.25,1.51.64,2.12.39.62.57,1.26.78,1.93.39,1.22.57,2.48,1,3.69.57,1.59.4,3.36,1.12,4.95.23.52.08,1.21.1,1.82.91.31-.51,1.11.31,1.43-.31.93-.45,1.97-.97,2.76-.5.75-1.13,1.64-2.28,1.62-.05,0-.11.13-.13.12-.38-.19-.73-.48-1.13-.55-.38-.07-.7.68-1.23.06-.38-.44-.93-.72-1.41-1.07-.4-.29-.34-1.02-1.03-1.06-.1,0-.18-.35-.27-.54-.18.18-.5.35-.5.53,0,1.56-1.27,2.27-2.15,3.22-.27.29-.66.49-1.03.66-.21.1-.5.09-.73.04-.41-.1-.53-1.07-1.2-.4-.43-.31-.86-.62-1.3-.92-.34-.23-.69-.44-1.03-.66-.6-.4-1.02-.51-1.31.4-.15.45-.65.78-1.13.16-.37-.46-.6.6-1.04.1-.22-.25-.58-.37-.9-.52-.65-.32-1.14-.86-1.64-1.34-.59-.57-1.22-1.24-1.45-1.99-.22-.7-.73-1.46-.41-2.24.2-.49-.58-.73-.17-1.27.12-.16-.24-.67-.36-.98-1.51,1.8-2,4.18-3.48,6-.04,1.2-1.01,1.94-1.45,2.94-.33.75-.26.96.71,1.03,1.31.11,2.55.43,3.77.84.76.26,1.48.64,2.18,1.04.56.33,1.01.86,1.58,1.16,1.92.99,3.37,2.6,5.15,3.78.36.24.53,1.01.83,1.04.78.07.56.84,1.02,1.11.41.25.74.66,1.03,1.05.2.27.37.63.37.96.01,1.14.65,1.98,1.25,2.85.2.29.45.58.52.9.47,2.29,2.33,3.41,3.91,4.77,1.23,1.06,2.53,2.06,3.07,3.69.26.77.48,1.55.67,2.34.26,1.08.26,2.14.33,3.21.06.88-.28,1.65-.64,2.35-.52,1-1.7,1.22-2.56,1.84-.36-.74-.82.34-1.16-.05-.69-.77-2.13.34-2.5-1.16-.31.74-.69,1.35-.82,2-.13.67-.74.94-1.07.98-1.67.19-3.43.48-4.67-1.16-.19-.25-.38-.49-.5-.66-1.22.26-1.37,1.31-1.95,1.95-.47.51-.79,1.08-1.59,1.1-.17,0-.32.23-.49.36h-1.12c-.15-.35-.23-.8-.8-.53-.07.04-.25-.06-.32-.14-.07-.08-.02-.3-.08-.33-1.86-.87-2.47-2.81-3.67-4.25-.72-.87-1.45-1.77-1.81-2.8-.41-1.2-.96-2.37-1.16-3.63-.17-1.05-.74-1.53-1.75-1.82-.82-.24-1.64-.68-2.27-1.23-.61-.53-1.31-.78-1.97-1.15-2.38-1.31-4.78-2.57-7.19-3.84-.93-.49-1.73-.75-2.73.19-.8.76-2.06,1.01-3.05,1.59-1.76,1.03-3.62,1.8-5.59,2.29-1.47.37-2.91.82-4.4,1.13-2.16.46-4.27.22-6.4.26-1.34.03-2.69-.27-3.99-.7-.61-.2-1.26-.27-1.9-.39-.18-.04-.42,0-.51-.1-1.16-1.27-3.13-1.06-4.26-2.37-1-.23-1.8-.81-2.58-1.45-.13-.11-.39-.24-.47-.18-.66.49-1.3.59-1.95,0-.46.78-.91.07-1.37,0-.31-.05-.63-.04-.93,0-2.58.27-5.12-.45-7.69-.4-.38.01-.76-.3-1.15-.35-1.65-.21-3.3-.48-4.9-.84-1.83-.41-3.86-.46-5.41-1.79-1.43-.28-2.55-1.34-4.05-1.54-.69-.1-1.32-.7-1.97-1.07-1.48-.85-2.86-1.84-4.25-2.86-2.18-1.6-3.71-3.9-5.98-5.36-.43-1.32-1.85-1.62-2.65-2.57-.84-1-1.84-1.85-2.75-2.79-.4-.42-.65-1.03-1.11-1.33-.52-.34-.64-.93-1.11-1.28-.5-.37-.93-.84-1.33-1.31-.73-.87-1.42-1.77-2.13-2.66-.1-.13-.17-.3-.29-.38-.72-.43-1.45-1.26-2.18-.01-1.59.33-3.02,1.12-4.6,1.55-1.9.52-3.78.13-5.65.32-.62-.51-1.37-.92-1.82-1.55-.53-.74-1.03-1.64-1.1-2.5-.15-1.71-1.06-3.06-1.74-4.53-.93-2.01-1.6-4.07-2.13-6.23-.41-1.65-.66-3.33-.96-4.99-.26-1.46-.67-2.95-.47-4.5.25-1.95-.65-3.85-.36-5.82-.74-.9.03-2.16-.75-3.05.73-.65-.05-1.29-.03-1.93,0-.12-.29-.26-.45-.39-.33.41-.79-.06-.98.05-.53.29-1.23-.05-1.48.17-.74.61-1.01-.55-1.69-.26-.52.23-1.23.05-1.85.05s-1.26.08-1.87-.02c-2.16-.31-3.86-1.31-4.76-3.41-.25-.58-.58-1.13-.82-1.71-.22-.53-.43-1.09-.52-1.65-.09-.55-.68-1.05-.2-1.67-.7-1.06-.52-2.29-.77-3.43-.25-1.12-.64-2.23-.82-3.39-.03-.16-.21-.31-.23-.47-.14-1.57-.25-3.13-.39-4.7-.04-.47.15-.94-.27-1.4-.14-.16.28-.72.25-1.09-.07-1.07-.28-2.14-.34-3.21-.06-1.12.16-2.28-.08-3.35-.16-.71-.17-1.24,0-1.96.24-1,.1-2.1.05-3.16-.08-1.64.37-3.19.79-4.72.42-1.51.81-2.99.69-4.56-.05-.63-.3-1.25-.5-2.03-.11.09-.26.3-.39.28-1.85-.22-3.42.8-5.12,1.19-1.53.35-2.99,1.01-4.59,1.09-.13,0-.28-.05-.37.01-1.63,1.06-3.67.66-5.37,1.47-.26.12-.62.02-.93.02-1.68,0-3.37.04-5.04-.02-.76-.03-1.52-.22-2.27-.36-.7-.13-1.38.15-2.13-.29-.66-.38-1.61-.23-2.43-.37-1.39-.25-2.76-.63-4.16-.83-.23-.04-.46-.09-.67-.18-.95-.43-1.84-1.02-2.83-1.27-1-.25-1.57-1.29-2.67-1.24-.99-1.07-2.49-1.26-3.61-2.11-.09-.07-.28,0-.34-.07-1.16-1.27-2.88-1.49-4.27-2.32-.51-.3-.95-.71-1.44-1.03-.98-.64-2.08-1.13-2.93-1.9-1.66-1.5-3.22-3.11-4.76-4.75-.51-.54-.73-1.35-1.22-1.91-1.82-2.04-2.85-4.59-4.46-6.76-.23-.31-.24-.77-.42-1.13-.59-1.22-1.11-2.49-2.23-3.39-.3-.24-.45-.68-.68-1.02-.3-.44-.57-.91-.93-1.29-.89-.93-1.56-1.93-1.6-3.27-.01-.27-.26-.51-.35-.78-.27-.76-.64-1.52-.72-2.31-.08-.79-.47-1.44-.63-2.18-.02-.09-.08-.24-.05-.26.58-.42-.4-.62-.13-1.06.49-.8-.09-1.64,0-2.48.1-.93-.04-1.87.05-2.8.05-.53-.56-.98-.13-1.52-.55-.52-.2-1.17-.26-1.76-.06-.62.16-1.31-.05-1.85-.61-1.62-.2-3.27-.35-4.9-.06-.63-.43-1.32-.27-1.87.21-.67-.23-1.17-.14-1.79.09-.61.33-1.36-.31-1.9.63-.41-.09-.77-.04-1.18.31-2.7-.34-5.37-.41-8.06-.07-2.69-1.11-5.08-3.3-6.84-.33-.27-.5-.33-.79.17-.97,1.66-1.67,3.43-2.21,5.25-.33,1.12-1.01,2.17-.77,3.43,0,.03-.25.18-.3.15-.53-.36-.92.49-1.43.15-.29-.2-.82-.38-.83-.58-.03-.97-.89-1.83-.16-2.92.36-.53.18-1.34.8-1.92.42-.38.46-1.16.7-1.74.47-1.11.97-2.21,1.45-3.32.29-.66.25-1.16-.36-1.37-.7-.25-1.04-.82-1.55-1.23-.51-.41-.97-.86-1.53-1.24-1.44-.96-2.73-2.15-4.08-3.26-.36-.3-1.49-2.44-1.68-3.04-.04-.13-.24-.2-.36-.3v-2.99c.78-.31.45-1.6,1.49-1.67.73-1.82,2.19-2.23,4.22-2.02-1.03-1.38-1.38-2.89-2.2-4.17-.61-.95-.51-1.95-.5-2.96,0-.13.21-.37.28-.36.69.14,1.1-.33,1.35-.77.35-.6.87.11,1.28-.33.25-.27.75.09,1.1.4.27.23.71.26,1.14.28-.81-1.09-.9-2.39-1.41-3.53-.14-.31-.02-.74-.02-1.11.22.03.44.07.66.07.03,0,.05-.21.08-.33.06-.23.09-.46.19-.67.61-1.33,1.11-1.68,2.51-1.48,1.92.28,3.68,1.09,5.25,2.18,1.84,1.29,3.55,2.76,5.31,4.15.21-.49.37-.92.57-1.33.96-1.98,1.51-4.11,2.25-6.17.79-2.22,1.37-4.52,2.34-6.69.47-1.04.9-2.12,1.35-3.17.45-1.06.91-2.11,1.2-3.24.28-1.1.97-2.08,1.44-3.13.57-1.26,1.09-2.54,1.7-3.98.12.46.12.87.32,1.12.31.38.3.63-.04.93-.03.03.1.28.2.38.6.62-.22,1.52.43,2.14.01.01-.17.33-.28.35-.45.06-.55.17-.18.5.07.07.12.24.09.33-.53,1.58-1.11,3.15-1.61,4.75-.31.99-.98,1.84-1.03,2.95-.03.69-.66,1.17-.9,1.86-.58,1.69-.99,3.45-1.71,5.08-.71,1.58-1.24,3.22-1.84,4.84-.02.04.05.1.07.16,1.04-.12,1.71-.86,2.43-1.49.34-.3.57-.39.92-.04.34.35,1.03-.12,1.28.51,2.22.2,3.63,1.81,5.24,3.05.22.17.41.45.51.72.6,1.62,1.13,3.27,1.77,4.87.22.55,0,1.13.41,1.72.34.49.2,1.35.37,2.06.12.49.68,1.15.08,1.73.25.48.36.97.4,1.53.08,1.29-.28,2.51-.6,3.7-.14.51.61.68.16,1.05-.44.37-.3.62-.04,1.07.17.28-.21.85-.28,1.3-.08.48-.07.97-.14,1.44-.02.16-.27.35-.23.45.75,1.84.22,3.77.34,5.64.05.73.14,1.41.45,2.06.1.21.28.4.31.62.15,1.32.26,2.63.39,3.96.01.13-.05.29.01.37.77,1,.51,2.29.94,3.35.3.74-.09,1.52.5,2.24.39.48.38,1.35.41,2.05.04.86.99,1.39.77,2.3.62.25-.07.83.34,1.25.32.33.28.98.42,1.49.12.45.22.91.38,1.34.18.49.53.93.61,1.42.22,1.39.89,2.63,1.26,3.97.14.5.29,1,.49,1.48.38.9.66,1.88,1.22,2.66s.86,1.65,1.3,2.46c.62,1.13,1.45,2.12,2.13,3.22.66,1.07,1.62,1.96,2.47,2.9,1.63,1.78,3.68,2.96,5.83,3.95,1.25.57,2.6.91,3.84,1.57.69.37,1.59.38,2.4.5.53.08,1.09-.11,1.54.37.09.1.37.04.55.01.81-.15,1.67-.18,2.4-.5,1-.44,1.99-1.01,2.83-1.71,1.47-1.2,2.82-2.53,4.22-3.81.4-.37.69-.81,1.39-.73.77.09,1.32-.46,1.82-.99,1.59-1.71,3.17-3.42,4.76-5.13,1.11-1.2,2.38-2.21,3.79-3.04,1.28-.76,2.22-1.9,3.28-2.9.52-.49,1.11-.91,1.69-1.33.81-.59,1.69-1.09,2.45-1.74,1.22-1.05,2.68-1.64,4.06-2.41.81-.46,1.69-.76,2.42-1.38.65-.55,1.74-.39,2.29-1.21,1,.19,1.48-.84,2.41-.98.94-.14,1.69-1.08,2.78-.92.48-.9,1.48-.65,2.21-.99.68-.32,1.43-.46,2.14-.69.11-.04.19-.17.3-.19.4-.09,1.04-.01,1.17-.24.28-.48.43-1.12.4-1.69-.11-2.54.74-4.93,1.2-7.37.2-1.03.98-1.95,1.5-2.91.1-.18.45-.3.1-.53-.15-.1-.35-.13-.53-.17-.12-.03-.36-.02-.37-.02-.01-.62-.2-1.32.04-1.85.95-2.19,1.96-4.36,3.53-6.2.4-.48.69-1.05,1.12-1.72-1.12.23-1.99.53-2.9.05-.21-.11-.62.26-.9.2-.32-.07-.63-.32-.87-.56-.06-.07.12-.44.26-.61.38-.47.9-.86.52-1.58-.02-.03.12-.2.2-.21,1.12-.16,2.24-.3,3.79-.5-1.97-.61-3.24-1.72-4.74-2.46-.37-.19-.41-.33-.42-.64-.03-.41.15-.56.54-.51.13.02.34.05.36,0,.7-1.51,2.07-.99,3.25-1.14.5-.06.96-.4,1.46-.52.45-.11.92-.15,1.38-.12.22.02,0,1.12.66.3.29.41.85.21,1.11.41.4.31.76.33,1.19.33h1.46c-1.24-1.24-2.3-2.27-3.33-3.33-.91-.93-1.6-1.97-1.33-3.36.03-.16.29-.39.44-.39,1.33.04,1.33.04,2.61-.65.15-.08.41-.18.5-.11.92.68,2.11.08,3.09.69.56.35,1.38.24,2.06.43.55.16,1.04.51,1.57.73,1.39.57,2.76,1.17,4.07,1.89.47.26.88.62,1.26,1.05.3.34.67,1.11,1.44.85.91.66,1.82,1.32,2.73,1.98-.07.76.38.26.66.31,1.49.31,5.01,2,5.87,2.91.51.54.8,1.28,1.22,1.9.62.92,1.2,1.86,1.76,2.81.45.76.53,1.54.74,2.32.12.46.14.94.25,1.39.12.51.14,1.16.46,1.47.41.38-.42.92.27,1.1-.08.21-.13.59-.25.61-.62.13-.22,1.19-1.02,1.08-.85-.12-.24.4-.32.64-.27.83-.56,1.65-.65,2.53-.08.78-.76,1.26-.96,2.04-.26,1.05-.82,2.02-1.29,3-.15.3-.42.67-.69.73-.74.17-.33.65-.4,1.15.62,0,1.23-.03,1.83.01.49.03.99.25,1.47.2.56-.06,1.17-.57,1.64-.44.66.18,1.11.21,1.75-.09.55-.25,1.3.07,1.89-.4.13-.1.53-.02.67.12.38.38.87.33,1.21.21,1.41-.5,2.8-.55,4.21-.05.66-.73,1.24.22,1.91.1.73-.13,1.5.03,2.23-.04,1.41-.14,2.76.23,4.14.39.34.76.83-.3,1.34.13.34.29,1.13.02,1.54.28.52.34,1.03.39,1.55.32.53-.08,1.04.95,1.56.02.39.6,1.07.18,1.5.43.48.28.97.04,1.45.29.44.23,1.12-.21,1.52.39.28-.42.51-.07.81-.02.94.16,1.94-.17,2.83.42.83-.5,1.64.15,2.5.03,1.44-.2,2.79.29,4.12.85.5.21,1.06.11,1.58.42.53.32,1.26.29,1.8.6.63.36,1.26.31,1.91.37.21.02.39.25.6.36.26.14.57.41.77.35,1.42-.41,2.48.82,3.81.79.2,0,.39.24.6.35.78.39,1.53.98,2.34,1.08.99.12,1.48.92,2.32,1.22.8.29,1.67.57,2.27,1.27.07.09.2.17.3.18.58.03,1.26-.19,1.35.73.62-.11,1.04.22,1.41.66.79-.47,1.17.39,1.66.64.55.29,1.25.54,1.62,1,.57.69,1.39.94,2.06,1.36.75.47,1.51.89,2.17,1.5.28.26.73.33,1.11.47.17.06.4,0,.52.09.57.45,1.06,1.23,1.67,1.34.86.15,1.1.92,1.75,1.21.63.29,1.17.77,1.77,1.13,1,.6,1.64,1.78,2.97,1.85.62.93,1.53,1.52,2.46,2.1.55.35,1,.92,1.58,1.15.85.33.99,1.32,1.89,1.67.7.27,1.12,1.23,1.72,1.84.4.41.87.75,1.34,1.07.77.51,1.36,1.19,1.97,1.86.66.71,1.49,1.26,2.15,1.97.7.75,1.61,1.29,2.03,2.33.15.36.79.49,1.06.84.47.62,1.14,1.03,1.53,1.75.4.73,1,1.35,1.56,1.97.59.65,1.31,1.18,1.82,1.87,1.34,1.81,2.96,3.36,4.37,5.1.93,1.16,1.8,2.36,2.69,3.56.18.24.28.54.5.72,1.83,1.53,3,3.59,4.34,5.5.65.93,1.28,1.84,1.97,2.73,1.33,1.72,2.82,3.31,3.68,5.38.64,1.55,1.56,2.97,2.39,4.43.74,1.29,1.15,2.75,1.7,4.15.07.16-.03.44.07.53,1.11.93,1.1,2.42,1.81,3.56.71,1.14,1.1,2.41,1.62,3.63.09.21.27.45.24.64-.19,1.09.55,1.71,1.14,2.41v2.61c-.5.69-1.14,1.32-1.45,2.08-.33.8-1.02,1.18-1.5,1.8-.07.09-.18.22-.28.22-1.32.09-2.66.09-3.85-.57-.37-.21-.85-.52-.78-1.15.06-.51-.3-.75-.92-1.54-.19-.12-.23.14-.17.36.03.12.23.2.36.3.12-.2.36-.42.33-.57-.05-.21-.32-.36-.51-.08.06.98-.18,1.31-.16,1.62.04.63-.17,1.16-.39,1.72-.21.54-.18,1.21-.49,1.66-.45.66-1.08,1.21-1.7,1.72-.34.28-.83.38-1.26.54-.08.03-.25-.01-.25-.03-.08-.9-.74-.95-1.42-1.06-.19-.03-.51-.37-.48-.51.24-1.23-.95-1.99-1.04-3.13-.16.68-.24,1.39-.5,2.03-.48,1.16-1.01,2.33-2.2,2.97-.45.25-.95.43-1.44.59-.12.04-.44-.13-.44-.19,0-.39-.11-.55-.53-.55-1.23.01-1.77-.72-2.13-1.81-.53-1.59-1.11-3.15-1.6-4.76-.26-.85-.15-1.72-.57-2.56-.41-.81-.39-1.83-.6-3-.45.81-.84,1.42-1.13,2.08-.2.46-.44.74-.91.91-.7.26-1.35.66-2.05.9-.86.29-3.84-.59-3.85-1.25-.02-1.07-1.04-1.31-1.24-2.14-.19-.79-.46-1.55-.74-2.3-.21-.54-.47-1.06-.75-1.56-.52-.91-1.08-1.8-1.62-2.68-.73-1.16-1.2-2.62-2.7-3.15-.24-.89-1.02-1.34-1.59-1.95-.55-.6-1.18-1.11-1.7-1.73-.48-.57-1.26-.77-1.62-1.53-.16-.35-.75-.52-1.17-.71-1.21-.54-2.28-1.26-3.19-2.22-1.08-1.13-2.44-1.85-3.74-2.68-.89-.58-1.82-1.04-2.77-1.44-.96-.4-1.76-1.19-2.88-1.16-1.22-1.15-2.8-1.65-4.25-2.36-2.23-1.09-4.6-1.83-6.99-2.53-1.31-.39-2.65-.77-3.94-1.3-.53-.22-.99-.65-1.66-.54-.22.04-.5-.26-.75-.4-.2-.11-.41-.31-.62-.31-1.27.04-2.4-.53-3.61-.78-1.01-.21-2.03-.5-2.97-.92-.96-.43-1.92-.78-2.93-1.04-.11-.03-.18-.17-.39-.38-.03.53-.22,1.06-.03,1.32.42.57.31,1.15.34,1.74.03.47-.15.97.33,1.37.13.11-.02.56-.09.85-.05.22-.25.44-.24.64.16,2.39-.6,4.73-.42,7.13.07.93-.27,1.88-.33,2.83-.06.93.22,1.94-.07,2.78-.55,1.64-.2,3.27-.32,4.91-.08,1.08.03,2.13-.33,3.22-.34,1.01.07,2.15-.22,3.26-.17.64,0,1.55.36,2.11.67,1.06.56,2.26.89,3.37.17.58.1,1.19.65,1.61.08.06.15.21.14.31-.16,1.52.34,3.07-.24,4.57-.09.22-.2.54-.11.68.66,1.03.23,2.15.36,3.22.07.55.17,1.09.17,1.64s-.35,1.23-.12,1.57c.34.5-.05.98.26,1.48.2.33.11.99-.16,1.56-.29.62-.18,1.44-.14,2.17.04.86-.09,1.67-.4,2.46-.24.62-.3,1.25-.4,1.9-.24,1.63-.43,3.25-.34,4.89-.67,1.07-.27,2.26-.37,3.4-.08.89.14,1.79-.34,2.67-.19.35.15.95.15,1.43,0,.53-.17,1.06-.18,1.6-.03,1.37,0,2.74-.01,4.11,0,.39-1.11,1.53-1.32,1.36-.82-.7-.75.51-1.21.52.03.34-.04.72.11,1,.34.68.83,1.27,1.16,1.95.37.78.43,1.8.99,2.36.68.68.48,1.8,1.4,2.25.15,1.45,1.02,2.48,1.98,3.48.12.12.28.33.25.45-.27.87.69.67.93,1.09.8-.23,1.07.48,1.23.92.19.52.41.59.88.64.22.03.39.44.58.67.53-.69.71.09.9.29.22.23.25.63.37.96.15.42.39.38.7.17.11-.07.27-.1.39-.09.57.07.68.75,1.08.92.47.2,1.06-.07,1.49.49.26.34,1.97.52,2.4.41.34-.1,2.02-.14,2.45-.12.44.03.58-.12.19-.48-.03-.03.1-.31.21-.37,1.62-.92,2.77-2.44,4.42-3.31.25-1.21,1.54-1.61,2.06-2.69.48-1,1.56-1.64,2.19-2.64,1.18-1.89,2.43-3.74,3.75-5.55,1.06-1.45,2.24-2.81,3.37-4.21.53-.66,1.06-1.3,1.58-1.96.49-.61.88-1.35,1.48-1.79.51-.37-.18-1.2.7-1.29.72-.08.24-.79.52-1.2.87-1.26,1.9-2.25,3.28-2.9.56-.26.95-.9.54-1.31-.65-.65.15-.96.11-1.43-.04-.44-.25-1.05.59-1.03-.04-.13-.08-.27-.11-.4-.04-.17-.14-.47-.1-.49.81-.43.61-1.4,1.1-1.99.1-.13.16-.43.23-.42.3.02.6.11.89.17-.12-.26-.4-.64-.32-.75.33-.45.76-.82,1.17-1.2.04-.04.25.15.39.17.44.08,1.01.42,1.04-.47,0-.07.3-.18.46-.19.5-.03,1-.05,1.49,0,.41.04,1.07-.33,1.08.57,0,.06.54.13.83.17.42.05,1.07-.1,1.23.13.62.85,1.99.63,2.37,1.74-.44.01-.49.38-.32.58.27.35.62.38.72-.15Zm-226.18-140.43c.24-1.12,1.28-1.93,1.27-3.22,1.02-.92.49-2.48,1.51-3.4-.42-.35-.71-.67-1.07-.88-1.07-.62-1.82-1.71-3.06-2.06-2.03-1.81-3.35-2.53-5.63-3.44-.64-.26-.9.13-1.01.41-.18.48-.26,1.06.25,1.5.59.52.9,1.19,1.23,1.91.38.84.87,1.64,1.5,2.37.96,1.1,1.83,2.32,2.48,3.62.41.82.85,1.55,1.5,2.17.3.29.59.59.93.88-.83.57-1.45.42-2.25.2-1.55-.42-1.61-.24-1.91-.59-.58-.69-1.14-1.4-1.72-2.08-1.07-1.25-2.48-2.06-3.73-3.08-.64-.52-1.42-.57-2.01-1.06-.07-.06-.39.07-.45.18-.06.12.06.47.11.47.78.03.94.67,1.15,1.19.64,1.62,1.54,3.11,2.47,4.56,1.32,2.06,2.53,4.24,4.53,5.76.57.43.69,1.02.82,1.77.9-2.56,2.29-4.73,3.09-7.18Zm152.82,75.23c.44-.26.71-.38.94-.56.32-.24.63-.12.97-.12.43-.01.84-.36,1.28-.48.4-.11.83-.12,1.25-.15,1.51-.11,3.04.25,4.53-.35.34-.14,1.17.04,1.18.13.1.99.83.52,1.27.57.55.07,1.14-.09,1.67.05.49.12.92.22,1.38-.03.69.85,1.71.16,2.57.56.81.38,1.79.52,2.75.61,1.02.09,1.94.78,3.03.79.04,0,.06.22.12.31.07.1.25.27.27.25,1.25-.87,2.43.44,3.66.11.46.67.79.06.9-.2.91-2.01,2.16-3.84,3.26-5.73.98-1.68,1.26-3.62,2.37-5.2-.32-1.1.9-1.81.75-2.86.77-.83.7-1.96,1-2.94.52-1.72.99-3.48,1.31-5.27.15-.84.24-1.72.55-2.56.34-.93.57-2,.46-2.96-.13-1.11.92-2.11.16-3.2.83-1.3-.14-2.56-.13-3.84,0-.12-.3-.28-.48-.35-1.46-.53-2.89-1.17-4.32-1.75-2.24-.93-4.54-1.66-6.79-2.54-2.09-.82-4.15-1.75-6.34-2.27-.51-.12-1.02-.25-1.52-.4-1.39-.41-2.74-.99-4.16-1.22-1.64-.27-3.29-.65-4.92-.71-1.94-.07-3.77-.62-5.65-.89-.74-.11-1.54-.15-2.26-.38-1.19-.37-2.42-.51-3.64-.67-.74-.1-1.49-.02-2.24-.02h-2.05c-.75,0-1.57.2-2.22-.05-.73-.28-1.31.08-1.95.09-1.69.03-3.43-.35-5.08.34-3.45-.29-6.86.54-10.31.38-.75-.04-1.59-.23-2.22.05-.79.34-1.53.24-2.3.33-.76.09-1.51.29-2.27.36-1.63.16-3.26.26-4.89.38-.13.01-.31-.05-.37.01-.61.69-1.4.24-2.1.37-.7.13-1.39.35-2.09.36-1.63,0-3.07.68-4.57,1.16-.57.18-1.1.37-1.72.38-.95.03-1.9.19-2.83.37-.38.07-.71.39-1.09.51-1.54.49-2.99,1.2-4.51,1.75-1.51.55-3.1,1.1-4.38,2.01-1.77,1.27-4.03,1.76-5.49,3.5-.09.1-.36,0-.53.07-1.39.55-2.87.95-4.15,1.69-2,1.15-3.97,2.38-5.62,4.05-.54.54-1.19,1.17-1.87,1.28-.81.14-1.2.72-1.45,1.15-.45.79-1.44.98-1.72,1.86-.05.16-.23.33-.39.39-1.1.41-1.74,1.42-2.7,2.02-.96.61-1.8,1.43-2.63,2.22-1.66,1.6-3.27,3.24-4.89,4.88-.76.77-1.63,1.36-2.59,1.85-1.13.58-2.32,1.1-3.33,1.87-1.81,1.38-3.86,1.92-6.04,2.12-.89.08-1.11.31-1.17,1.22-.11,1.51-.14,3.03-.42,4.51-.15.77-.28,1.57-.66,2.33-.45.87-.8,1.89-.14,2.89.08.13.11.43.04.49-.55.45-.21,1.04-.32,1.56-.11.51-.31,1.01-.36,1.53-.1,1.2-.01,2.38-.33,3.6-.29,1.11-.1,2.35-.05,3.53.03.64.18,1.29.38,1.89.14.41.37.91.71,1.09.5.27,1.12.33,1.69.4,1.19.15,2.44-.29,3.59.37.14.08.46.08.53-.02.43-.58,1.1-.14,1.53-.38.55-.3.83.59,1.44.13.36-.27,1.07-.09,1.63-.09.38,0,.66-.18.99-.31.91-.38,1.88-.57,2.84-.81,1.38-.34,2.82-.38,4.15-.98.28-.13.67-.03,1-.02.14,0,.32.13.39.07,1.1-.87,2.47-.96,3.73-1.38,1.33-.45,2.8-.17,4.07-1.03.67-.46,1.63.46,2.46-.04.14.49.27.99.42,1.48.07.22.15.44.27.64.11.18.38.25.11.55-.18.19-.11.25.2,1.29.02.06.02.13,0,.19-.18.86-.23,1.77-.58,2.56-.58,1.33-.89,2.7-.87,4.1.01.59-.67,1.15-.07,1.74-.7.6-.06,1.49-.39,2.07-.31.53-.43,1.05-.3,1.54.16.56-.34.9-.22,1.45.11.51-.14,1.09-.18,1.64-.04.56.01,1.12-.02,1.68-.02.48.09,1.2-.17,1.39-.66.48.46.99-.14,1.35.63,1.08.22,2.25.29,3.37.02.31-.33.64-.33.97s.27.64.34.97c.23,1.12-.17,2.23.31,3.43.4.99.09,2.23.41,3.38.25.89.05,1.82.74,2.71.62.78.4,1.95.45,2.98.09,2.07.98,3.78,2.61,5.07.13.1.32.14.49.18,1.12.27,2.23.47,3.4.39.62-.05,1.25-.01,1.87-.01s1.25.03,1.87-.01c.56-.04,1.2-.37,1.63-.18.63.28,1.2.14,1.79.17.93.05,1.88.12,2.79-.02.84-.13,1.69-.23,2.53-.32.92-.1,1.87-.02,2.8-.02.13,0,.31.06.37-.01.56-.58,1.27-.28,1.91-.37.7-.1,1.41-.42,2.08-.33,1.31.16,2.5-.39,3.77-.48.46-.03,1.04-.42,1.52-.27.46.15.79-.73,1.21-.07.43-.46,1.14-.13,1.48-.39.53-.41,1.13-.12,1.54-.36.81-.48,1.73-.4,2.56-.56,1.38-.27,2.63-1.1,4.13-.93.49.06,1.01-.32,1.52-.32.52,0,1.01-.89,1.54-.07.14-.24.29-.69.42-.68,1.23.07,2.3-.42,3.45-.72,1.4-.37,2.79-.8,4.19-1.18,1.45-.4,3.04-.36,4.25-1.48.07-.06.24-.02.37-.01,1.03.03,1.94-.44,2.91-.63.94-.18,1.77-.92,2.81-.61.61-.7,1.54-.49,2.28-.8s1.45-.71,2.18-1.04c.26-.12.54-.23.82-.28,1.33-.23,2.37-1.25,3.76-1.31.78-.85,2.18-.66,2.85-1.69.64.1,1.2-.23,1.61-.59.46-.41.91-.5,1.47-.56.54-.07.67-.79,1.23-.99,1.04-.38,1.94-1.03,2.9-1.57,2.81-1.6,5.67-3.13,8.55-4.6,1.24-.63,2.35-1.19,1.95-2.89-.08-.31.55-.66-.02-1,.38-1.11.8-2.21.48-3.42.54-.85.25-1.75.14-2.64-.02-.14-.11-.27-.09-.4.06-.53.18-1.06.21-1.59.04-.56-.02-1.12.02-1.68.03-.42.06-.86.19-1.26.14-.41-.15-.77.03-1.21.19-.49.23-1.1.13-1.62-.28-1.47,1.02-2.91.03-4.37-.02-.03.02-.13.06-.16.56-.43.34-1.06.27-1.55-.09-.58.14-1.12.24-1.61.21-1.07.09-2.12.19-3.16.05-.52.38-1.03.33-1.52-.09-.93-.37-1.83-.54-2.75-.08-.45-.12-.93-.08-1.38.05-.54-.11-.97-.59-1.22-.09-.05-2.59-.76-2.68-.75-1.83.25-3.47-.85-5.28-.79-.55-.64-1.35-.08-1.9-.37-.7-.36-1.39-.34-2.1-.34-1-.01-1.99-.03-2.99.01-.31.01-.63.26-.92.23-.37-.04-.75-.24-1.32-.44Zm-32.67,87.42c-1.52-2.13-2.89-4.2-4.41-6.15-1.24-1.6-2.22-3.4-3.67-4.84-.42-.42-.72-.94-1.07-1.42-.35-.48-.67-.98-1.07-1.42-.25-.27-.34-.43,0-.68.32-.23.6-.49.81.1.06.15.15.38.26.4,2.18.52,3.71,2.01,5.25,3.48,1.26,1.21,2.54,2.4,3.34,4.03.26.53.88.87,1.28,1.34.38.45.93.73,1.13,1.4.14.47.77.79,1.12,1.22.38.46,1.07.68,1.08,1.42.76.11.69.79.89,1.28.89-.03.63.84.98,1.25.39.46.82.9,1.11,1.41.95,1.65,1.88,3.3,3.3,4.6.45.41.61,1.06,1.19,1.35.11.06.17.23.24.35.28-.23.55-.48.84-.69.31-.23.38.35.88.19,1.43-.47,2.86-.89,4.18-1.64.9-.51,2.09-.34,2.88-1.16.91.18,1.59-.42,2.29-.78,1.5-.78,3.09-1.27,4.67-1.82,2.13-.74,4.11-1.81,6.19-2.64.43-.76,1.4-.57,1.97-1.13.42-.41.92-.76,1.42-1.06,1.14-.69,2.32-1.31,3.47-1.99.95-.57,1.91-1.15,2.79-1.81.85-.63,2-.89,2.68-1.55.81-.8,1.91-.97,2.71-1.73.32-.31.72-.26.36-.83-.18-.28-.19-.69-.19-1.03-.02-1.31-.03-2.61,0-3.92,0-.35.11-.7.21-1.03.44-1.31-.17-2.72.4-4.03-.49-.4-.19-.93-.23-1.39-.05-.53-.02-1.03.31-1.56.17-.27-.45-1.03-.28-1.28.56-.82.28-1.67.31-2.49.02-.58.27-1.25-.33-1.72.95-1.13-.22-2.63.69-3.82.18-.24-.06-.81-.13-1.22-.04-.22-.22-.58-.16-.62.62-.4-.07-.98.07-1.16.44-.53.18-1.08.23-1.6.06-.62-.2-1.35.07-1.84.36-.69-.22-1.18-.06-1.77.15-.56.31-1.14.37-1.71.06-.62,0-1.25.03-1.86.01-.15.25-.28.28-.44.07-.3.19-.69.06-.89-.53-.83-.25-1.76-.41-2.72-.27,0-.53-.08-.73.01-1.38.6-2.76,1.22-4.01,2.03-1.95,1.26-4.07,2.23-6.09,3.37-.8.45-1.6.92-2.44,1.3-.85.39-1.63.93-2.44,1.33-1.5.74-2.8,1.87-4.46,2.3-.39.1-.77.24-1.14.4-1.54.65-3.03,1.42-4.61,1.94-1.64.54-3.18,1.39-4.93,1.64-.68.1-1.31.55-1.98.6-.92.07-1.54.75-2.48.84-1.42.14-2.81.66-4.21,1.07-.6.18-1.15.53-1.75.72-.56.18-1.18-.21-1.76.28-.43.36-1.2-.11-1.67.47-.35.43-.94.19-1.41.33-1.89.56-3.81,1.15-5.73,1.46-1.57.26-3.04,1.19-4.71.85-1.09.68-2.37.59-3.54.92-1.21.35-2.41.71-3.69.56-.77.67-1.8.1-2.58.52-.9.47-1.81.1-2.71.24-.23.04-.46.11-.69.14-.53.08-1.06.14-1.59.24-.58.11-1.14.27-1.72.36-.15.03-.32-.13-.48-.18-.21-.05-.54-.18-.62-.09-.47.53-1.06.25-1.58.26-1.6.04-3.21.02-5.03.02.56,1.64.89,3.17,1.02,4.76.1,1.16.69,2.26.61,3.47-.13,1.86.15,3.69.42,5.51.18,1.21.7,2.37.7,3.62.01,1.21.5,2.28.79,3.41.09.34.31.65.33.98.07,1.51.96,2.72,1.39,4.1.76.33.25,1.3.87,1.69-.37.88.72,1.13.81,1.92.13,1.13.75,2.17,1.44,3.12.07.09.24.19.31.16,1.33-.61,2.82-.69,4.18-1.19,1.46-.54,2.88-1.15,4.27-1.89.88-.47,1.85-.93,2.83-1.24,1-.31,1.94-.77,2.91-1.08,1.35-.42,2.46-1.3,3.78-1.7,1.39-.42,2.44-1.45,3.83-1.91Zm115.16,15.12c.82-.63.99-1.41.96-2.3-.03-1.06.09-2.13-.04-3.17-.1-.85-.17-1.77-.7-2.5-.58-.8-1.17-2.28-1.54-3.48-.5-1.6-.97-3.21-1.4-4.82-.32-1.19-.84-2.28-1.22-3.43-.64-1.91-1.21-3.85-2.21-5.62-.37-.65-.89-1.28-.98-2.01-.17-1.42-1.4-2.28-1.74-3.58-1.13-.63-.9-1.72-1.06-2.75-.19-1.2-.7-2.27-1.91-2.97-1.13-.66-2.36-.95-3.54-1.39-.85-.32-1.85-.14-2.54.97-.78,1.25-1.33,2.47-1.32,3.95.01.93-.4,2.25-.89,2.39-.56.16-.61.41-.62.88,0,.28-.12.59-.28.81-.99,1.28-2.16,2.44-2.99,3.82-.97,1.61-2.47,2.79-3.26,4.58-.52,1.18-1.47,2.24-2.17,3.4-.43.7-.83,1.44-1.38,2.03-.98,1.06-1.22,2.55-2.22,3.57.1.61-.55.32-.72.6-.22.35-.41.72-.67,1.03-.69.84-1.34,1.72-2.12,2.48-1.63,1.58-3.05,3.37-4.97,4.65-.75.5-1.32,1.41-2.12,1.63-.86.25-1.56.78-2.37,1.08-.67.25-1.3.02-1.93.29-1.09.47-2.25.74-3.47.66-.74-.05-1.5-.09-2.24.01-1.26.18-2.23-.55-3.05-1.17-1.3-.98-2.48-2.18-3.34-3.62-.36-.6-.68-1.22-1.06-1.8-1.72-2.62-3.09-5.41-4.08-8.4-.53-1.61-1.26-3.12-2.38-4.43-.28-.33-.42-.37-.82-.06-.64.49-1.41.79-2.13,1.15-2.3,1.14-4.3,2.76-6.56,3.97-1.42.76-2.88,1.49-4.29,2.29-1.45.82-3.1,1.22-4.6,1.96-1.14.56-2.33.98-3.53,1.4-1.02.36-2.06.8-3.07,1.14-1.15.39-2.15,1.2-3.43,1.24-.18,0-.38.31-.51.52-.03.05.2.26.32.38.39.39.58.91,1.14,1.21.47.26.72.92,1.09,1.38.1.12.32.13.46.23.26.17,2.42,2.91,2.66,3.27.33.49.68.98,1.06,1.43.32.38.79.66,1.04,1.07,1.62,2.77,3.89,5.02,5.98,7.41,1.4,1.6,3.08,2.95,4.65,4.39,1.72,1.59,3.81,2.58,5.63,3.99,1.22.94,2.79,1.34,4.19,2.03.67.34,1.37.86,2.01.98,1.62.31,3.2.85,4.91.85,2.69,0,5.37-.03,7.96-.81.81-.24,1.65-.18,2.4-.5,2.3-.96,4.59-1.96,6.56-3.54.4-.32,1.02-.85,1.33-.73.94.35.51-.94,1.18-.82.76.15,1.01-.58,1.46-.96.38-.32.69-.72,1.07-1.04.54-.46,1.13-.85,1.66-1.31.55-.47,1.06-.95,1.67-1.36.62-.41.93-1.25,1.5-1.77,1.25-1.15,2-2.68,3.02-4,.95-1.23,1.65-2.65,2.43-4.02.87-1.51,1.82-2.97,2.58-4.54.73-1.5,1.57-2.95,2.3-4.46.4-.82,1-1.56,1.31-2.45.31-.87.78-1.68,1.17-2.5.8-1.67,1.25-3.47,2.17-5.09.49-.86,1.05-1.72,1.42-2.58.35-.82.91-1.49,1.22-2.29.32-.81.94-1.36,1.5-1.96.14-.15.31-.27.46-.4.1.19.3.41.27.57-.24,1.14-.5,2.28-.81,3.4-.05.18-.39.27-.6.4.7.4-.34.61-.1,1.04.26.47-.15.9-.35,1.33-.18.37-.4.71-.53,1.09-.3.83-.7,1.62-.6,2.56.09.8-.11,1.46-.66,2.17-.39.51-.9,1.21-.87,2.06.01.33-.37.63.11.98,1.18.87,1.52,2.13,1.41,3.51-.07.94.31,1.73.59,2.56.22.64.6,1.19,1.22,1.48.58.28,1.17.63,1.86.29.03-.05.1-.1.09-.15-.05-.65.13-1.3-.34-1.92-.25-.33.02-.85.44-1.08.16-.09.57-.05.61.05.43.98,1.58,1.26,2.05,2.29.34.73,1.16,1.33,1.99,1.8.69.39,1.04.07,1.16-.31.33-.99.98-1.81,1.27-2.85.22-.78.39-1.25-.24-1.89-.44-.45-.69-1.1-.58-1.8.08-.5.39-.57.91-.45.87.2,1.5.71,2.06,1.34.68.77,1.29,1.59,1.99,2.34.83.9,1.74,1.76,2.66,2.68Zm-3.8-76.13c.97.66,2.12,1.14,2.48,2.36.23.78.77,1.31,1.18,1.95.98,1.5,1.77,3.11,2.21,4.87.54,2.14,1.09,4.28,1.65,6.41.06.22.21.44.21.66,0,1.22.55,2.24,1.07,3.3.27.55.59.77,1.06,1.05.39.24.61.14.66-.12.22-1.09,1.17-1.94.97-3.15-.04-.24-.11-.62.01-.73.59-.51.09-1.3.41-1.69.38-.46-.12-.87.24-1.3.45-.55-.3-1.07-.3-1.67,0-1.5-.54-2.85-1.28-4.13-.18-.31-.33-.59,0-.75.23-.11.83.07.83.1-.04.69.64.78.95.86.93.25,1.11,1.01,1.37,1.68.55,1.39.97,2.84,1.52,4.23.56,1.39.7,2.91,1.43,4.27.28.52.24,1.21.87,1.54.32-.53.66-1.05.95-1.6.11-.2.09-.47.1-.7.03-.6.04-1.14.32-1.74.2-.42-.33-1.13-.28-1.68.08-.89-.36-1.62-.54-2.41-.26-1.13-.81-2.2-.52-3.56.3.15.51.23.69.35.64.41,1.23.96,1.92,1.22.49.18.96.25,1.01.83.06.57,1.41.78.43,1.61.07.08.13.16.21.23.55.45,1.56,1.7,1.95,2.37.24.41.49.82.8,1.16.34.37.76.34,1.13.01.96-.83,1.26-2.64.76-3.88-.28-.69-.68-1.31-.84-2.09-.22-1.04-.84-2.01-1.41-2.95-.38-.62-.79-1.16-.78-1.93,0-.26-.26-.51-.39-.76-.24-.46-.5-.91-.7-1.39-.45-1.06-.79-2.17-1.29-3.2-.92-1.87-1.97-3.66-2.87-5.53-.98-2.03-2.4-3.77-3.75-5.53-1.34-1.75-2.74-3.48-3.98-5.29-.57-.83-1.38-1.44-1.85-2.39-.46-.95-1.28-1.76-2.08-2.49-1.44-1.32-2.19-3.16-3.6-4.5-.75-.71-1.45-1.49-2.05-2.32-1.4-1.98-3.22-3.59-4.75-5.46-.32-.39-.95-.68-1-1.07-.09-.76-.95-.51-1.08-1.03-.22-.85-1.12-1.06-1.5-1.61-.46-.67-.94-1.35-1.55-1.73-1.29-.79-2.16-1.98-3.25-2.95-1.19-1.05-2.27-2.25-3.57-3.14-2.63-1.81-5.16-3.74-7.77-5.57-1.76-1.24-3.53-2.54-5.66-2.99-1.2-.25-2.2-.85-3.13-1.44-.81-.51-1.62-.9-2.49-1.24-.55-.22-1.09-.33-1.57-.77-.38-.35-1.03-.41-1.74-.66v4.29c0,.38.11.79-.02,1.11-.68,1.72-.69,3.58-1.02,5.35-.29,1.56-.47,3.16-.86,4.71-.21.84-.14,1.79-.74,2.49-.65.75-.24,1.71-.62,2.55-.3.67-.68,1.35-.86,2.07-.23.91-.62,1.74-.9,2.61-.29.89-.56,1.76-1.09,2.54-.1.15-.24.29-.26.45-.15.95-.65,1.74-1.2,2.49-.93,1.27-1.88,2.52-2.83,3.81.31.04.63.02.89.13.21.09.34.43.54.49.21.06.51-.23.7-.17,1.17.42,2.44.47,3.59.83,1.96.62,3.94,1.3,5.76,2.31.36.2.71.55,1.07.55,1.29.01,2.31.78,3.45,1.17,1.14.4,2.23.94,3.3,1.48,1.14.58,2.29,1.15,3.32,1.89.77.56,1.68.76,2.45,1.35,1.19.91,2.57,1.58,3.87,2.36.25.15.54.26.74.46,1.07,1.04,2.1,2.13,3.18,3.15,1.04.98,1.84,2.16,2.97,3.07.45.36.85.94,1.35,1.22.66.36.5,1.43,1.41,1.47.32.82,1.19,1.06,1.71,1.69,1.44,1.72,2.47,3.71,3.68,5.58.44.68,1.04,1.42,1.07,2.15.04,1.02.98,1.67.82,2.68.7.22.49,1.28,1.45,1.37,1.07.11,1.61-.69,2.37-1.09.61-.33.25-1.02.28-1.54.06-.81.03-1.62.01-2.43,0-.3.03-.67-.13-.87-.5-.66-.69-1.37-.63-2.18.02-.16-.05-.39-.16-.49-.96-.87-.83-1.89-.47-2.96Zm-187.48-33.21c-1.12-.22-2.02.16-2.75-.47-1.45.04-2.5-.88-3.65-1.57-1.18-.71-2.47-1.35-3.24-2.51-1.5-2.29-3.18-4.47-4.37-6.96-.72-1.51-1.33-3.12-2.3-4.45-1.46-2.01-2.18-4.34-3.28-6.5-.26-.51-.22-1.15-.41-1.7-.19-.54-.54-1.03-.72-1.57-.19-.55-.11-1.26-.43-1.68-.44-.57-.2-1.17-.41-1.71-.21-.54-.55-1.04-.64-1.59-.09-.49-.21-.97-.23-1.48-.07-1.28-.65-2.47-.98-3.7-.38-1.4-.47-2.86-1.02-4.24-.45-1.13-.58-2.38-.78-3.6-.13-.76.01-1.51-.34-2.29-.29-.66.13-1.56-.43-2.25.11-2.14-.63-4.23-.37-6.38.05-.37.2-.73.19-1.09,0-.41-.29-.87-.17-1.21.85-2.34.83-4.85,1.42-7.25.28-1.12.06-2.35.05-3.54-.01-.78-.51-1.44-.42-2.28.05-.43-.49-.89-.69-1.37-.29-.69-.56-1.4-.75-2.12-.31-1.22-1.15-2.13-1.73-3.19-1.5-.75-2.98-1.51-4.5-2.21-.16-.07-.53.22-.74.4-.32.28-.09.5.1.77.33.47.7.97.85,1.51.23.79.26,1.64.41,2.45.09.46.36.9.34,1.34-.03.58.24,1.09.23,1.68-.01.59.39,1.19.61,1.78.46,1.23,1.17,2.4,1.03,3.91-.69-.14-1.47.27-1.62-.76-1.02.28-1.28-.64-1.71-1.17-.49-.6-1.12-1.1-1.18-2.03-.04-.5-.59-1.02-1.01-1.42-1.05-.99-2.17-1.9-3.24-2.83-.19.18-.47.32-.53.53-.43,1.5-.73,3.02-1.48,4.43-.65,1.21-.95,2.6-1.6,3.81-.93,1.73-1.28,3.73-2.54,5.3-.39,2.18-1.67,3.98-2.53,5.93.64.52,1.18,1.26,1.86,1.44,1.53.39,2.18,1.57,2.97,2.68.16.23.31.53.31.8-.02,1.5,1.13,2.8.76,4.36.65.46.31,1.13.36,1.71.05.52.41,1,.05,1.58-.14.22.1.67.16,1.02.04.21.17.54.08.62-.52.48-.32,1.1-.23,1.57.1.48-.62.76-.17,1.25.38.41-.15,1.08.39,1.53.17.14.08.58.11.87.05.58-.25,1.11-.05,1.76.21.68.05,1.48.05,2.23,0,.25-.1.56.02.74.68,1.02.32,2.15.31,3.21,0,.4-.21.76.04,1.2.22.4.33.88.38,1.33.07.55.02,1.12.02,1.68-.01,1.32.43,2.55.65,3.83.25,1.45.97,2.81.85,4.33l.44,1.38c.1.27.16.57.32.8.38.57.29,1.25.49,1.86.2.6.42,1.2.66,1.78.22.53.75,1.1.66,1.56-.17.89.87,1.02.83,1.76-.02.25.25.51.35.78.26.7.48,1.42.76,2.11.2.48.5.91.74,1.38.26.51.52,1.03.75,1.56.21.48.36.97.54,1.46,1.04-.1.27,1.05.89,1.3.2.08.25.5.41.74.34.49.68.97,1.06,1.43.39.47.81.91,1.22,1.37-.44.83.67.71.82,1.32.17.69.85,1.28,1.38,1.84.94,1,1.86,2.03,2.91,2.89,1.36,1.12,2.7,2.25,4.36,2.98,1.48.65,2.91,1.44,4.28,2.26,1.64.99,3.54,1.54,5,2.83.89-.02,1.3.9,2.15,1.06.95.19,1.84.68,2.79.89.57.13,1.07.63,1.7.39.17-.07.38-.32.36-.46-.07-.46-.32-.89-.34-1.34-.05-1.31-.07-2.61,0-3.92.07-1.32.24-2.63.36-3.96,0-.06-.03-.16,0-.18.88-.68.1-1.72.58-2.57.44-.78.36-1.83.54-2.76.2-.99.15-2.09.5-2.96.79-1.93.32-4.01,1.16-6.01Zm111.88,127.48c-.23-.12-.5-.18-.68-.35-.59-.55-1.13-1.16-1.73-1.7-.53-.48-1.32-.78-1.62-1.36-.4-.74-1.25-.85-1.63-1.52-.15-.26-.49-.41-.64-.67-.84-1.52-2.12-2.69-3.06-4.13-.62-.95-1.75-1.66-2.11-2.67-.43-1.2-1.5-1.81-2.01-2.9-.36-.76-1.11-1.38-1.64-2.09-.32-.43-.55-.94-.94-1.28-.95-.86-1.52-1.98-2.21-3.01-.2-.29-.3-.75-.56-.85-.24-.1-.61.24-.94.3-1.54.31-3.05.73-4.57,1.14-.28.08-.61.42-.77.34-1.02-.51-2.29-.7-2.87-1.82-.79-1.53-2.12-2.65-2.96-4.17-.55-1-1.52-1.81-2.06-2.88-.08-.16-.4-.35-.51-.31-1.45.7-3.22.63-4.48,1.82-.25.23-.57.42-.9.53-1.75.58-3.39,1.43-5.14,2.02-.26.09-.7.1-.76.27-.23.6.45.38.65.61.13.14.32.24.39.4.64,1.57,1.84,2.69,3.06,3.75.99.86,1.43,2.23,2.72,2.77.33,1.39,1.93,1.61,2.54,2.82.37.74,1.3,1.22,2.04,1.73.68.47.88,1.31,1.66,1.75.78.45,1.32,1.3,2.01,1.92.76.69,1.54,1.35,2.35,1.98.84.65,1.68,1.3,2.6,1.84,1.34.79,2.7,1.57,4.14,2.17,1.43.61,3.02.81,4.3,1.78.17.13.47.06.7.12.39.11.76.31,1.16.36.49.07,1.11-.17,1.46.06.52.34,1.03.27,1.55.34.46.07.89.26,1.34.36.49.11,1.09.39,1.45.22.55-.28.78.33,1.26.2.52-.15,1.12-.09,1.67-.02.47.07.87.2,1.39.03.49-.17,1.29-.21,1.59.08.53.49.94-.16,1.19.03.53.39,1.01.12,1.55.04Zm70.9,12.76c1.03,1.71,2.61,2.45,4.16,3.23.68.35,1.44.19,2.04-.42.41-.41.24-.78.04-1.29-.4-1.02-.73-2.1-.85-3.18-.11-1.01-.77-1.65-1.35-2.22-.38-.37-.72-.91-1.34-1.13-.54-.19-1.03-.61-1.42-1.04-.42-.46-.71-.99-1.31-1.3-.47-.24-.49-.53-1-2.06-.11-.32-.62-.52-.69-.83-.42-1.78-1.49-3.24-2.27-4.85-.31-.64-.9-1.24-1.34-1.66-.96-.91-1.8-1.96-3.13-2.37-.19-.85-1.05-1.07-1.61-1.51-.54-.43-1.2-.84-1.97-1.07-.63-.19-1.25-.82-1.96-1.1-.22-.09-.42-.2-.65-.25-.57-.14-1.14-.34-1.71-.36-.67-.02-1.28-.18-1.91-.36-.42-.12-1.23-.07-1.36.18-.87,1.66-2.23,2.93-3.34,4.4-1.37,1.81-5.09,5.6-6.59,6.57-.3.2-.63.35-1.02.56.42.23.66.46.92.48,1.28.11,2.38.59,3.32,1.47.88-.16,1.25.89,2.07.87.7-.02,1.2.36,1.77.7,1.19.71,2.4,1.44,3.7,1.88.99.33,1.68,1.05,2.57,1.45.24.11.3.26.07.54-.16.2-.12.57-.14.86,0,.03.17.07.25.11.04-.11.07-.22.11-.33.05-.11.1-.21.17-.34.6.46.77,1.12.97,1.8.33,1.1.52,2.27,1.14,3.26.94,1.49,1.9,2.97,2.97,4.37.54.71,1.34,1.21,2.32,2.07-.4-1.86.63-3.03.89-4.41.06-.33.07-.5-.07-.79-.1-.23.12-.59.2-.89.14-.53.61-.75,1.02-.45.86.63,1.28,1.86,2.6,1.86.04,0,.07.21.12.31.18.36.36.73.54,1.08.73,1.39,1.13,1.58,2.7,1.35-.09-.77-.02-1.6-.32-2.26-.26-.56-.51-.94,0-1.43-.47-.73.3-.92.71-1.5Zm-124.13-177.26c1.7-.79,3.5-.34,5.24-.46.17-.01.35-.06.51-.13,1.84-.76,3.84-.6,5.75-.97,1.29-.25,2.65-.17,3.89-.54.57-.17.81.44,1.23.14.88-.62,1.88-.28,2.83-.38.64-.07,1.37.28,1.9-.37,1.21.05,2.41,0,3.58-.37.16-.05.36,0,.54.04.78.15.95-.04.74-.77-.1-.34-.16-.69-.22-1.03-.18-1.16.23-2.26.37-3.39.15-1.19.25-2.38.39-3.58.06-.46,0-2.12-.14-2.43-.65-1.41-1.32-2.81-1.97-4.22-.22-.48-.35-1.14-1.05-.38-.12.13-.57.15-.7.04-.7-.66-1.53-.22-2.29-.36-.46-.09-.96.2-1.41-.22-.21-.2-.57.18-.96-.11-.33-.24-.99.04-1.43-.11-1.95-.66-4.03-1.11-5.28-3-.25-.37-.5-.33-.91-.08-.98.6-2.01,1.13-3.07,1.59-.64.28-.97.73-1.39,1.26-1,1.25-1.64,2.71-2.63,3.97-1.77,2.24-2.88,4.9-3.61,7.62-.56,2.08-1.43,4.17-1.19,6.42-.69.56.18.72.26,1.07.15.61.47.77,1.03.73Zm-108.76-18.08c.36-.74.62-1.45,1.01-2.07.68-1.08.97-2.34,1.64-3.42.36-.56-.29-.52-.35-.8-.62.56-1.16,0-1.65-.21-.53-.21-1.16-.16-1.57-.74-.39-.55-.99-.94-1.42-1.47-.89-1.11-2.12-1.67-3.37-2.22-.96-.43-1.65-.25-2.54.62-.54.52-.66,1.31-.29,2.15.33.74.72,1.44,1.04,2.17.5,1.15,1.87,1.33,2.51,2.32.61-.16.86.34,1.22.66.45.41.84.97,1.37,1.18,1.01.4,1.67,1.15,2.38,1.84Zm42.62,49.02c.77,1.67,2.5,2.05,3.78,3.04.4.3.88.15,1.14.39.56.51,1.17.2,1.74.31s1.13.28,1.71.35c.13.02.3-.25.45-.38-.11-.12-.21-.32-.33-.33-1.96-.15-3.71-.97-5.32-1.94-1.01-.61-2.16-.8-3.16-1.43Zm-28.71-73.36c-.47,1.24-1.14,2.21-1.5,3.39-.16.53-.18.76.19,1.05.69.55,1.4,1.08,2.24,1.73-.14-1.09-.05-2.18-.45-3.02-.49-1-.08-2.03-.48-3.13Zm112.41,19.49q-.93-.77-1.65,0h1.65Zm-1.36-7.91c-.45-.26-.49-1.17-1.58-.9.63.39.76,1.05,1.58.9Zm60.32,174.54c.2-.48.31-.63.27-.68-.12-.15-.29-.27-.44-.39-.07.1-.2.22-.18.3.06.22.18.42.34.77Zm-143.69-113.08c.25-.1.35-.15.45-.19-.17-.2-.34-.41-.52-.61-.06.1-.18.21-.16.29.05.18.16.34.23.51Z"/>
  <path class="cls-1" d="m147.97,103.91c0,.25-.01.5,0,.75.02.34-.11.63.47.79.96.28,1.43,1.01,1.42,2.11-.02,1.36.4,2.67.98,3.88,1.31,2.69,2.07,5.61,3.41,8.29-.17.83.74,1.61.09,2.47-.12.16-.02.49-.02.74v.89c-.75-.51-1.02-1.22-1.63-1.64-.57-.39-.93-1.2-1.2-1.89-.28-.7-1.11-1.14-.95-2.03-1.23-1.09-1.29-2.91-2.51-4-.52-1.73-1.69-3.15-2.3-4.83-.3-.82-1.27-1.31-1.13-2.33-.53-.34-.36-.87-.37-1.34-.02-.61.04-1,.81-.52.31.2,1.58-.67,2.18-1.32.25,0,.5,0,.75,0Zm-.81,2.57c-.11.07-.22.13-.33.19.03.29-.01.59.09.85.08.21.33.35.5.51.1-.07.19-.14.28-.21-.18-.45-.36-.9-.55-1.34Z"/>
  <path class="cls-1" d="m173.36,134.72c.5-.19.88-.35,1.26-.47.44-.15.82-.5,1.36-.1.27.2.66-.03.97-.31.13-.12.74.28.84.17.56-.6.86.31,1.26.16.42-.16.78-.68,1.2-.02,2.12-.19,3.98.96,6.03,1.23,1.52.2,3.07.54,4.6.95,1.45.39,2.81,1.15,4.35,1.23.09,0,.16.2.27.25.85.42.99,1.16.16,1.5-.89.36-1.34,1.02-1.63,1.75-.27.68-.81,1.04-1.23,1.53-.1.12-.39.23-.46.18-.42-.3-.8-.63-1.2,0-.46-.25-.9-.52-1.37-.73-.42-.19-1.01-.17-1.29-.46-.67-.7-1.54-.79-2.37-1.06-1.14-.38-2.23-.92-3.39-1.26-.96-.28-1.82-.7-2.68-1.18-1.2-.66-2.51-1.12-3.78-1.67-.27-.12-.62-.15-.78-.35-.45-.56-1.03-.78-1.68-.92-.15-.03-.26-.24-.44-.42Z"/>
  <path class="cls-1" d="m127.83,144.2c-.15-.63.31-1.29-.65-1.57-.48-.14-.45-1.56-.17-2.28.11-.27.03-.6.49-.59.51.01,1.15.18,1.18-.68.35.36.66.08.97-.06.43-.19.8-.45,1.34-.4.37.03.76-.3,1.15-.33,1.24-.1,2.39-.47,3.53-.94.43-.18.94-.11,1.41-.21.39-.08.76-.27,1.15-.36,2.13-.48,4.2-1.24,6.43-1.13.5-.47,1.08-.43,1.69-.32.08.89.08.89-.61,1.84-.57.79-1.08,1.66-2.28,1.47-.06-.01-.13,0-.18.03-2.25,1.41-4.89,1.7-7.32,2.58-.76.28-1.53.5-2.3.75-.53,1.17-1.77,1.05-2.7,1.51-1.49.73-1.49.74-3.13.67Zm1.04-2.45c.1.12.13.17.17.2.25.22.44.62.87.38.08-.05.13-.2.13-.3-.04-.61-.52-.3-.82-.37-.05-.02-.11.03-.35.1Z"/>
  <path class="cls-1" d="m177.26,123.34c-.17-.22-.44-.44-.5-.7-.14-.57-.41-.53-.75-.24-.28.24-.56.32-.74-.02-.07-.13.11-.54.26-.6.72-.27,1.18-.74,1.43-1.45.04-.11.16-.23.26-.26,1.4-.37,2.58-1.29,4.01-1.58.7-.14,1.14-.46,1.64-1,.65-.71,1.57-1.28,2.48-1.59,1.37-.46,2.58-1.3,4-1.62.34-.08.66-.25,1-.28.56-.05.76.23.6.8-.05.16-.24.28-.29.44-.13.42-.18.83.25,1.15.25.19.47.42.66.66.29.36.16.73-.34,1.07-.15.1-.31.21-.42.34-.27.33-.46.44-.84.07-.11-.11-.91-.36-.91.46,0,.09-.37.18-.58.25-1.37.49-2.8.77-4.18,1.19-.97.3-1.98.86-2.92.96-1.06.11-1.83.8-2.84.9-.45.04-.83.68-1.26,1.06Z"/>
  <path class="cls-1" d="m148,127.28c-.76-.73-1.3-.71-2.03-.64-1.11.11-2.26-.14-3.37-.35-.34-.07-.23-.97-.97-.72-.59.2-.84-.36-1.23-.62-.38-.25-1.03-.25-1.23-.56-.67-1.08-1.86-.96-2.79-1.42-.21-.1-.49-.04-.68-.15-.44-.24-.91-.36-.87-1.12.03-.52-.34.2-.69-.01,0-.39-.09-.9.03-1.34.09-.31.7-.55.68-.78-.09-.84.44-.64.91-.76.54-.14.85.91,1.47.2.06-.07.7.4,1.09.58.47.22.99.33,1.43.58,2.08,1.18,4.03,2.58,6,3.93.8.55,1.47,1.29,2.14,2,.15.16.06.56.1,1.17Z"/>
  <path class="cls-1" d="m174.61,154.84c-.23.1-.48.3-.58.24-.79-.47-1.49-.56-2.34-.03-.59.36-1.43.03-1.82-.38-.42-.44-.81.21-.94-.14-.11-.29-.19-.75.23-1-.39-.37.28-.99-.34-1.33-.39-.22-.41-.54-.07-.91.11-.11.05-.42.01-.62-.33-1.83-1.21-3.5-1.67-5.27-.2-.76-.74-1.19-1.03-1.82-.27-.6,0-.78.29-1.06.31-.29.52-.06.77.15.5.42,1.03.81,1.56,1.19,1.27.92,1.75,2.39,2.4,3.68.85,1.69,1.99,3.27,2.35,5.18.84.41.59,1.39,1.18,2.12Z"/>
  <path class="cls-1" d="m167.63,105.46c.3.3.58.54.81.83.08.11.05.47.01.48-1.05.28-.56,1.13-.68,1.76-.16.81-.15,1.7-.52,2.39-.55,1.04-.79,2.16-1.24,3.22-.3.69-.41,1.44-.94,2.04-.21.23-.21.65-.29.99-.18.68-.33,1.35-.53,2.02-.05.16-.24.35-.39.37-.11.02-.36-.2-.38-.33-.21-1.43-1.65-2.7-.59-4.31.09-.13.01-.37.01-.55,0-.56.14-1.16-.04-1.67-.19-.58.64-1.02.09-1.55.6-.38.06-1.14.42-1.49.51-.49.05-1.1.38-1.53.16-.21.27-.28.05-.55-.35-.45.03-.84.18-1.29.22-.66.47-.74.82-.27.51.67.98.42,1.52.13.4-.23.81-.45,1.3-.71Z"/>
  <path class="cls-1" d="m249.96,275.83c0,.39-.1.79.03,1.1.11.26.6.36.7.61.38,1.03.68,2.08,1,3.13.03.09.06.24.03.26-.76.41-.57,1.14-.67,1.79-.05.36-1.52,2.11-1.91,2.4-.1.07-.21.12-.29.2-.27.26-.5.57-.81.77-.14.09-.46-.12-.64-.05-.32.12-.59.4-.91.5-.6.18-1.18.21-1.65-.36-.32-.38-.7-.71-1.04-1.06-.06-.06-.08-.17-.08-.26,0-.05.12-.09.12-.13-.07-.61-.14-1.22-.22-1.83-.05-.4.2-.65.37-.97.46-.92.95-1.77,1.74-2.45.77-.67,1.21-1.59,1.76-2.43.29-.43.96-.61,1.48-.87.24-.13.53-.17,1.01-.32Zm-1.13,3.66c-1.65.93-1.89,2.6-2.6,3.98-.06.11.04.39.16.47.11.07.43.03.48-.06.37-.73,1.36-1.05,1.31-2.03.93-.59.62-1.46.66-2.36Z"/>
  <path class="cls-1" d="m242.46,255.59c-.19-.54.34-.61.69-.91.3-.26.26-.87.47-1.26.33-.61.71-1.21,1.14-1.75.57-.72,1.57-.69,2.28-1.25.28-.22,1.4-.88,1.43.51,1.14.29.71,1.6,1.42,2.16-.5.61.02,1.54-.4,1.97-.84.87-.98,2.29-2.28,2.8-.26.1-.36.62-.6.7-.44.14-.91-.03-1.36.35-.17.14-.82-.27-1.22-.48-.36-.18-.72-.4-1.01-.67-.1-.09.13-.45.05-.63-.09-.21-.41-.33-.49-.54-.11-.28-.08-.6-.12-1Zm5.54-2.76c-1.25.65-2.11,1.08-2.96,1.52-.24.13-.57.24-.66.44-.2.48-.28,1-.39,1.51-.02.1.04.29.1.32.43.18.86.4,1.3.45.48.05.66-.34.85-.77.47-1.05,1.03-2.05,1.76-3.47Z"/>
  <path class="cls-1" d="m252.57,224.8c-.23.4-.07.98-.12,1.54-.06.66-.46,1.28-.75,1.91-.14.32-.3.65-.53.89-.66.69-1.3,1.33-2.38,1.47-.82.11-1.57.28-2.37-.04-.43-.17-.88-.3-1.33-.37-.47-.08-.44-.35-.29-.64.15-.29.57-.69.51-.77-.58-.78.41-.28.43-.55,0-.11.1-.22.1-.33-.07-1.32.13-1.54,1.09-2.38.98-.86,2.05-1.59,3.13-2.29.44-.28.97-.77,1.62-.46.58.28.93,1.06.88,2.03Zm-1.86.9c-.05-.11-.07-.25-.15-.3-.09-.06-.27-.1-.34-.05-.35.23-.64.54-1,.73-.35.19-.75.35-1.14.37-.92.04.47.78-.24.75-.73-.03-.43.74-.86.98-.2.12.36.9.63.8,1.59-.57,2.45-1.83,3.09-3.28Z"/>
  <path class="cls-1" d="m252.3,195.29c.99.32,1.58,0,2.27.38.4.22,1.11-.09,1.67.14.27.11.57.13.84.23.34.12.98.14,1.68.17,1.86.07,3.26-.85,4.58-2,.23-.2.42-.48.69-.6.2-.09.54-.08.7.04.14.11.21.45.16.65-.17.67-.36,1.34-.63,1.97-.77,1.83-2.35,2.55-4.16,2.9-.36.07-.76-.06-1.12.02-2.06.43-3.49-.91-5.01-1.85-.59-.36-.94-1.12-1.66-2.04Z"/>
  <path class="cls-1" d="m260.27,184.84c.34,1.01-.07,1.96.49,2.78.14.21-.28.73-.32,1.12-.17,1.39-.51,2.73-1.13,4,.31.9-.87,1.1-.89,1.88,0,.16-.48.45-.7.41-.24-.04-.6-.36-.62-.58-.1-1.28-.64-2.52.3-3.84.92-1.29,1.38-2.88,1.93-4.39.17-.47.57-.85.94-1.38Z"/>
  <path class="cls-1" d="m255.57,188.12c.62.84-.69.9-.82,1.56-.08.39-.53.45-1.51.65-.24.05-.47.27-.65.46-.29.3-.73-.49-.93.17-.17-.34-.54-.73-.46-.99.43-1.41,1.09-2.73,2.22-3.7.2-.18.55-.67,1.16-.27.53.35,1.07.5.99,1.26-.03.25,0,.5,0,.87Z"/>
  <path class="cls-1" d="m263.95,189.48c-.51-.03-.71,0-.97-.46-.63-1.13-.28-2.04.3-2.94.29-.46.82-.76,1.14-1.2.32-.42.86.35,1.07-.27.38.14.77.24,1.12.42.11.06.18.32.16.47-.09.51-.12,1.08-.39,1.49-.52.79-1.16,1.51-1.79,2.21-.17.19-.51.23-.63.27Z"/>
</svg>