<svg width="259" height="103" viewBox="0 0 259 103" fill="none" xmlns="http://www.w3.org/2000/svg">
<path d="M181.233 58.55C181.913 57.8 182.603 57.32 182.843 56.67C183.083 56.02 182.813 55.21 182.873 54.47C182.943 53.65 185.003 49.67 185.593 49.63C187.013 49.54 187.853 48.61 188.863 47.88C192.693 45.11 196.623 42.54 200.893 40.42C205.283 38.24 209.353 35.42 213.553 32.86C216.703 30.95 219.803 28.96 222.503 26.42C222.593 26.34 223.063 26.46 223.093 26.56C223.473 27.76 223.963 26.58 223.943 26.52C223.653 25.45 224.423 24.91 225.083 24.46C226.223 23.69 227.423 22.98 228.663 22.39C229.803 21.85 230.693 20.65 232.183 20.95C232.883 19.64 234.573 20.05 235.503 19C235.943 18.5 237.213 19.54 237.653 18.2C237.883 17.51 238.853 17.58 239.433 16.95C240.453 15.85 242.033 15.23 243.423 14.51C245.303 13.55 247.233 12.68 249.163 11.82C249.583 11.63 250.083 11.58 250.553 11.54C250.893 11.51 251.383 11.75 251.573 11.6C252.463 10.88 253.153 9.67999 254.573 10.76C254.683 10.84 255.233 10.4 255.523 10.14C255.873 9.82 256.103 9.35 256.493 9.11C257.143 8.7 257.873 8.41 258.723 8C258.723 8.44 258.703 8.72999 258.723 9.00999C258.793 9.96999 257.173 9.14 257.313 10.38C257.353 10.74 256.493 11.44 255.933 11.59C252.853 12.46 250.693 14.77 248.143 16.45C245.423 18.24 242.833 20.24 240.093 22.01C238.023 23.36 236.053 24.77 234.123 26.35C231.883 28.18 229.063 29.31 226.503 30.76C224.003 32.18 221.483 33.58 219.013 35.06C215.483 37.17 211.893 39.21 208.503 41.54C205.003 43.94 202.053 47.08 198.363 49.28C196.163 50.59 194.223 52.32 192.183 53.88C191.633 54.3 190.683 54.8 190.703 55.22C190.743 55.88 191.793 56.49 190.333 56.93C189.433 57.2 188.943 58.22 187.753 58.22C186.943 58.22 186.143 59.21 185.323 59.22C184.103 59.29 182.843 58.86 181.233 58.55Z" fill="#1D3D6C"/>
<path d="M162.703 68.2308C162.253 69.6508 161.093 69.9808 160.263 70.7108C160.263 69.7008 160.263 68.6408 160.263 67.4508C159.933 67.4508 159.383 67.5408 158.873 67.4308C158.273 67.2908 157.553 67.1008 157.183 66.6808C156.753 66.1908 157.163 65.5908 157.563 65.0908C158.403 64.0508 159.383 63.1008 159.883 61.8108C159.973 61.5708 160.283 61.3008 160.533 61.2508C163.003 60.7408 163.373 58.4908 164.323 56.7208C164.453 56.4808 164.353 56.1208 164.403 55.8308C164.573 54.9008 165.263 54.5408 166.093 54.3808C166.903 54.2208 167.583 54.3708 167.973 55.2108C168.423 56.1508 169.133 56.7608 170.133 57.1408C170.923 57.4408 171.473 58.1008 172.043 58.8308C173.233 60.3608 173.553 61.5308 172.303 63.3208C171.003 65.1708 170.363 67.4208 170.373 69.7908C170.383 71.9208 169.923 72.3208 167.513 72.7908C166.373 73.0108 166.373 73.0108 165.863 72.3508C164.923 71.1108 163.973 69.8808 162.703 68.2308Z" fill="#1D3D6C"/>
<path d="M140.12 16.873C140.6 17.163 140.93 17.383 141.29 17.563C142.54 18.163 142.6 18.443 141.96 19.463C140.22 22.233 137.44 23.583 134.6 24.733C129.07 26.973 124.24 30.183 120.01 34.393C118.98 35.413 117.65 36.183 116.37 36.913C109.55 40.793 102.39 44.053 95.64 48.083C91.59 50.503 87.2201 52.363 83.0301 54.543C81.2801 55.453 79.5701 56.473 77.9201 57.563C74.1101 60.053 70.33 62.583 66.14 64.413C62.37 66.063 59.1101 68.503 56.0501 71.203C52.9101 73.983 49.87 76.8731 46.7 79.633C45.45 80.723 44.02 81.633 42.62 82.543C42.15 82.843 41.51 82.9731 40.94 82.993C39.33 83.063 37.71 83.063 36.1 83.043C34.7 83.033 33.61 81.783 34.11 80.483C35.13 77.863 36.47 75.383 38.22 73.163C38.45 72.873 39.1 72.923 39.56 72.813C39.63 73.343 39.85 73.903 39.75 74.403C39.63 75.003 38.52 75.313 39.12 76.163C39.43 76.593 40.6701 75.813 41.1601 74.813C41.4101 74.293 41.39 73.573 41.75 73.193C42.05 72.883 42.83 73.073 43.23 72.793C44.37 71.993 45.55 71.193 46.45 70.153C47.03 69.493 48.46 69.503 48.18 68.123C50.09 68.503 51.11 66.503 52.7 66.393C53.62 66.323 53.65 65.623 54.19 65.343C56.81 63.963 59.4601 62.603 61.7901 60.693C62.5101 60.103 63.4401 59.173 64.6701 59.8531C65.0201 58.7331 66 58.523 66.93 58.153C67.94 57.753 68.88 57.183 69.84 56.673C71.05 56.033 72.27 55.393 73.47 54.733C76.18 53.253 78.87 51.743 81.59 50.283C84.1 48.933 86.6801 47.693 89.1601 46.273C93.2801 43.923 97.15 41.043 101.47 39.173C107.36 36.623 112.29 32.493 118.13 29.923C120.11 29.053 121.81 27.563 123.7 26.453C126.45 24.823 129.28 23.313 132.01 21.643C132.82 21.153 133.88 21.683 134.6 20.553C135.11 19.743 136.43 19.473 137.34 18.883C138.23 18.283 139.09 17.613 140.12 16.873Z" fill="#1D3D6C"/>
<path d="M0.359985 83.0731C2.55999 82.2431 4.63004 80.9731 7.17004 81.0631C7.77004 81.0831 8.59998 80.3031 8.97998 79.6831C10.76 76.8231 13.4299 74.6431 14.9399 71.5731C15.4999 70.4231 16.9699 70.6431 17.5699 71.8331C17.8299 72.3531 17.84 73.0331 18.17 73.4831C18.68 74.1831 18.43 75.6431 20 75.3931C20.15 75.3731 20.55 75.9931 20.61 76.3531C20.91 78.2231 21.13 80.1031 21.39 82.0531C22.74 82.4331 24.13 82.8331 25.46 83.2031C25.7 85.7531 23.44 86.2831 22.25 87.6131C21.87 88.0431 21.23 88.2231 20.8 88.6131C16.86 92.1731 16.62 92.3531 17.15 97.9831C17.31 99.6431 16.94 100.563 15.86 101.503C15.73 101.623 15.7 101.863 15.63 102.023C13.7 101.643 13.64 99.5931 12.55 98.4331C11.55 97.3731 10.78 95.8431 10.95 94.0931C11.03 93.2231 10.29 92.9231 9.44995 93.4131C8.18995 94.1431 7.00998 95.0231 5.72998 95.7231C4.87998 96.1931 3.95002 96.6931 3.02002 96.7531C2.11002 96.8131 1.17 96.3231 0 96.0131C0.35 95.4431 0.610044 94.9731 0.920044 94.5231C1.68004 93.4331 2.47003 92.5131 2.66003 90.9831C2.85003 89.4931 3.41993 87.6431 5.42993 86.9831C4.24993 86.4431 3.18003 85.6331 2.03003 85.5031C0.480029 85.3131 -0.0500146 84.6931 0.359985 83.0731Z" fill="#1D3D6C"/>
<path d="M149.64 16.2632C150.26 15.7832 150.79 15.5931 150.84 15.3131C151.28 12.9631 152.97 11.7131 154.96 11.0331C156.53 10.5031 157.92 9.96315 158.84 8.53315C158.94 8.38315 159.27 8.24315 159.42 8.29315C160.62 8.74315 160.94 7.59315 161.6 7.10315C161.89 6.89315 162 6.20315 162.24 6.17315C163.24 6.05315 164.19 6.08315 164.81 5.00315C165.23 4.26315 166.46 4.55315 166.9 3.60315C167.13 3.11315 167.63 3.30314 168.15 3.34314C168.81 3.40314 169.89 3.49315 170 2.20315C170.02 2.02315 170.97 1.92315 171.49 1.77315C172.22 1.55315 172.96 1.36315 173.67 1.07315C174.4 0.773148 175.06 0.323149 175.8 0.0431493C176.11 -0.0768507 176.52 0.0831521 177.37 0.163152C176.6 1.04315 176.19 1.72315 175.59 2.14315C174.22 3.11315 172.8 4.00315 171.34 4.82315C170.15 5.49315 168.87 6.00314 167.63 6.59314C166.43 7.17314 165.6 8.25315 164.31 8.82315C162.74 9.51315 161.36 10.7431 160.04 11.8931C157.18 14.3631 153.98 15.9432 149.64 16.2632Z" fill="#1D3D6C"/>
</svg>
