<svg width="46" height="78" viewBox="0 0 46 78" fill="none" xmlns="http://www.w3.org/2000/svg">
<path d="M19.8652 51.4899C18.2952 53.9499 15.9552 55.3099 14.8452 57.7799C13.6852 60.3599 11.7352 62.4499 9.69518 64.2399C8.40518 65.3799 6.16519 65.4499 4.20519 66.0399C3.43519 64.1599 3.05524 62.4399 3.13524 60.5899C3.22524 58.6099 3.56523 56.6899 3.24523 54.6199C3.02523 53.1999 3.73515 51.2899 4.66515 50.0899C7.75515 46.0699 11.1253 42.2599 14.4053 38.3799C14.5853 38.1599 14.9252 38.0699 15.2952 37.8599C13.6352 34.9699 11.0352 32.9199 8.75524 30.6099C6.38524 28.2099 3.84516 25.9599 1.30516 23.7399C0.0651631 22.6599 -0.274803 21.4499 0.215197 19.7299C2.4852 19.8899 4.75523 19.9799 6.87523 21.0399C7.05523 21.1299 7.22515 21.2799 7.41515 21.3299C12.0651 22.5099 12.8752 23.0099 16.0152 26.4499C16.6152 27.1099 17.4152 27.5899 18.3252 28.3199C18.3252 24.6399 18.3752 21.2399 18.3152 17.8499C18.2352 12.7499 18.0752 7.6399 17.9552 2.5399C17.9452 2.2399 17.9152 1.84991 18.0752 1.63991C18.4952 1.06991 18.9652 0.219903 19.5052 0.149903C20.0452 0.0699034 20.9652 0.659906 21.2452 1.19991C23.1152 4.71991 25.3952 8.04991 25.3852 12.3599C25.3752 16.3299 25.7952 20.2999 26.0652 24.8499C27.8952 22.8899 29.3652 21.1899 30.9752 19.6199C33.3652 17.2899 35.7752 14.9799 38.3052 12.7899C39.8752 11.4299 41.7952 11.2799 43.8752 12.0299C43.3852 14.7999 42.9453 17.4299 42.0253 20.0699C40.5353 24.3299 37.4353 27.3299 34.8953 30.7699C33.0353 33.2799 30.8852 35.5699 28.9752 37.8099C31.1252 39.5599 33.4652 41.2199 35.4952 43.1799C37.9652 45.5699 40.2452 48.1399 43.0652 50.1699C43.6352 50.5799 43.7852 52.0399 44.2052 52.0699C45.1052 52.1399 46.2952 52.2599 45.7952 53.0999C44.9852 54.4699 45.8053 56.7099 43.5353 57.3199C41.9653 57.7399 40.3253 57.8099 38.7853 58.3899C38.4953 58.4999 37.9552 58.2999 37.6752 58.0599C35.4352 56.2199 33.2452 54.3199 31.0152 52.4699C30.2652 51.8399 29.4552 51.2799 28.3953 50.4799C28.4452 59.4599 29.7553 68.0899 28.7853 77.1899C26.1853 75.4699 23.8652 74.2799 23.8052 71.0199C23.7852 70.1399 23.0352 69.1699 22.3852 68.4499C21.3552 67.2999 21.0152 66.0599 20.9552 64.5499C20.8452 61.8099 20.5153 59.0799 20.2853 56.3499C20.1253 54.8699 20.0152 53.3999 19.8652 51.4899Z" fill="#1D3D6C"/>
</svg>
