<svg width="115" height="136" viewBox="0 0 115 136" fill="none" xmlns="http://www.w3.org/2000/svg">
<path d="M78.3408 4.12094C78.4611 3.96232 78.565 3.83108 78.7893 3.5412C78.8221 3.97329 78.8877 4.27412 78.8604 4.56401C78.7072 6.37444 78.5377 8.18483 78.3736 9.98979C77.6735 10.3836 78.6362 10.7118 78.4064 11.1658C78.2095 11.565 78.226 12.0847 78.2041 12.5496C78.1002 14.8413 77.8868 17.1222 77.5204 19.392C77.1484 21.7002 76.946 24.0302 76.6671 26.3493C76.6452 26.5189 76.6179 26.6885 76.6234 26.858C76.7382 29.9265 76.4866 31.0204 75.5185 34.2146C75.256 35.0897 75.6169 36.1563 75.7099 37.4307C76.0053 36.758 76.1147 36.129 76.3335 36.0852C77.411 35.8774 77.7719 34.953 78.4338 34.3021C79.1284 33.6184 80.0527 33.1699 80.8786 32.6175C81.5678 32.1581 82.0765 31.3267 83.1485 31.715C83.6517 31.8955 83.4002 30.7141 84.2698 30.9657C84.598 31.0587 85.1778 30.3093 85.6317 29.9265C85.9435 29.6639 86.846 30.0905 86.5615 29.1333C87.6883 28.384 88.7713 27.5417 89.9637 26.9018C91.2709 26.1962 92.5781 25.5617 93.6337 24.4624C94.0494 24.0303 94.7386 23.8662 95.4551 23.4997C95.838 24.1287 96.3193 24.6811 96.5272 25.321C96.735 25.961 96.9593 26.9018 96.653 27.3448C95.8161 28.5591 95.9802 30.0851 95.1324 31.2829C94.5964 32.0322 94.1917 32.9457 93.9948 33.8427C93.6885 35.2265 93.2563 36.5501 92.4468 37.6769C91.6647 38.7708 91.2982 40.0561 90.4833 41.161C89.4495 42.5667 88.7986 44.2567 88.0055 45.832C87.6555 46.5212 87.8415 46.6962 88.7056 46.6962C91.4568 46.6962 94.2135 46.7837 96.9647 46.7017C98.075 46.6689 99.1799 46.6962 100.268 46.6634C101.647 46.6196 102.943 46.9478 104.288 47.0025C106.126 47.0845 107.953 47.3908 109.785 47.5986C109.906 47.6096 110.042 47.5604 110.141 47.6041C111.552 48.2331 113.056 48.5942 114.511 49.0919C115.113 49.2943 115.162 49.8959 114.642 50.3718C114.128 50.8421 113.554 51.2414 112.985 51.6462C112.651 51.8813 112.301 52.1056 111.924 52.2697C111.273 52.5541 112.684 52.7729 111.929 53.0682C111.547 53.2159 111.213 53.4785 110.857 53.6972C110.502 53.916 110.163 54.1567 109.796 54.3536C108.659 54.9662 107.472 55.4858 106.383 56.1805C104.496 57.3783 102.593 58.5762 100.843 59.96C98.3649 61.9181 95.5919 63.3894 92.9774 65.1232C91.0029 66.4304 88.9572 67.6338 86.9116 68.8316C84.9754 69.9693 83.0009 71.0358 81.0482 72.1407C80.5833 72.4032 80.1567 72.7314 79.6754 72.9611C79.1175 73.2236 78.9643 73.6284 78.8768 74.2191C78.5104 76.7406 78.5377 79.273 78.5487 81.8109C78.5596 84.1847 78.1548 86.4929 77.6516 88.8011C77.3672 90.1192 77.2907 91.4866 77.1102 92.8267C77.0062 93.5815 76.9187 94.3418 76.771 95.0911C76.1694 98.0994 76.2787 101.129 76.5194 104.149C76.5686 104.8 76.3936 105.139 75.9943 105.533C75.2013 105.068 74.2933 104.723 73.6424 104.11C72.7946 103.306 72.0399 102.355 71.4327 101.359C69.6004 98.3345 67.8775 95.2442 66.067 92.2086C64.8583 90.1794 63.4799 88.2432 62.7798 85.9405C62.6759 85.6068 62.4516 85.3115 62.1617 84.7755C61.8445 85.8311 61.6203 86.7117 61.3085 87.5649C61.035 88.3197 60.6631 88.987 60.1161 89.6488C58.9511 91.049 57.9119 92.5915 57.0587 94.205C55.2263 97.6782 52.8526 100.779 50.6428 103.996C49.4669 105.702 48.2581 107.381 47.0602 109.077C44.8013 112.266 42.5369 115.449 40.2889 118.643C39.8787 119.228 39.4794 119.825 39.1293 120.443C38.7793 121.066 38.4511 121.662 37.7674 122.029C37.4283 122.209 37.1986 122.609 36.9579 122.942C35.3718 125.146 33.8457 127.389 32.2048 129.549C31.0781 131.032 30.0881 132.673 28.3105 133.548C28.0042 133.695 27.7034 133.991 27.5448 134.292C27.0471 135.238 26.1992 135.139 25.3788 135.063C24.81 135.014 24.3834 134.828 24.728 134.04C24.903 133.641 24.8866 133.034 24.7115 132.634C24.1317 131.316 24.6623 130.085 24.8264 128.816C25.1983 126.022 26.3196 123.352 26.1938 120.47C26.1774 120.136 26.4126 119.803 26.4509 119.458C26.4837 119.185 26.5001 118.785 26.3415 118.632C25.2311 117.544 26.1664 116.554 26.4563 115.547C26.8228 114.257 27.419 112.993 27.5831 111.68C27.9823 108.47 28.1082 105.232 28.6278 102.016C28.9614 99.9644 29.6014 98.0119 29.935 95.9936C30.3288 93.6143 31.1602 91.3499 31.5485 88.9761C31.5868 88.7518 31.5212 88.5166 31.5048 88.2759C29.667 89.2988 27.9331 90.4036 26.0844 91.2514C23.6887 92.3508 21.1891 93.2369 18.7442 94.2378C17.8362 94.6097 16.8681 94.8614 16.4306 95.9717C16.168 96.6335 15.1288 96.546 14.735 95.906C14.5436 95.5888 14.1881 95.1622 14.2811 94.9215C14.653 93.937 13.7833 93.029 14.3303 91.9898C15.9657 88.8721 17.4205 85.6615 19.2857 82.6587C21.304 79.4043 23.1746 76.0569 25.1546 72.6767C24.8921 72.5017 24.6076 72.3978 24.449 72.1954C22.8136 70.0951 20.3961 69.5317 18.0441 68.6784C15.6703 67.8197 13.1981 67.3657 10.8352 66.5453C9.29277 66.0093 7.76673 65.3912 6.21883 64.8333C4.90066 64.3575 3.60439 63.8105 2.13855 64.0293C1.70098 64.0949 1.23061 63.9856 0.782099 63.9145C0.038236 63.7996 -0.251636 63.1651 0.251566 62.64C1.56427 61.2617 2.95352 60.0639 4.8077 59.32C6.69471 58.5597 8.53799 57.6299 10.3101 56.5688C12.3229 55.3709 14.3849 54.2661 16.6821 53.566C19.942 52.565 23.0652 51.143 26.3141 50.1092C27.7144 49.6662 29.0817 49.0755 30.6078 48.8841C31.8822 48.7254 33.0855 47.9488 34.2888 47.451C33.977 44.7108 32.9816 42.1565 32.0517 39.5858C31.7126 38.6395 31.6142 37.6659 31.5649 36.6431C31.4555 34.2256 31.0891 31.8189 30.8211 29.4123C29.8311 28.2965 30.5476 26.4423 29.1364 25.4797C29.0489 25.4195 29.1802 24.9272 29.3169 24.703C29.3826 24.5936 29.7107 24.5717 29.8912 24.6209C30.6241 24.8178 31.3406 25.1078 32.079 25.2718C34.5185 25.8133 36.307 27.4761 38.298 28.7888C40.6006 30.3094 42.433 32.4151 44.7958 33.8755C46.2835 34.7998 47.5689 36.0469 49.0566 37.2393C49.4614 36.7689 50.0029 36.397 50.1615 35.8993C50.4459 35.0187 51.3757 34.7069 51.6984 33.8755C51.7859 33.6403 52.4204 33.6567 52.6009 33.4106C52.7595 33.1918 52.59 32.7597 52.6611 32.4425C52.7212 32.169 52.8853 31.89 53.0658 31.6712C54.0558 30.457 54.6247 28.8654 56.189 28.1543C56.3367 28.0887 56.5226 27.8918 56.5226 27.7551C56.5117 26.7541 57.2227 26.1962 57.8846 25.7094C58.4206 25.3156 58.2455 24.2818 59.2191 24.3037C59.2683 24.3037 59.2629 23.5818 59.4105 23.2481C59.5309 22.9746 59.9028 22.827 60.0505 22.5589C60.6357 21.4924 61.1061 20.4148 62.4407 19.9335C62.8783 19.7749 63.026 18.7959 63.2776 18.1778C63.3979 17.8825 63.376 17.4995 63.551 17.2534C64.5465 15.8532 65.5966 14.4858 66.603 13.0911C66.9367 12.6262 67.1172 12.03 67.8173 11.9479C67.9103 11.937 68.0634 11.8331 68.0634 11.7784C68.0033 11.0564 68.5174 10.6407 68.862 10.1156C69.1355 9.69449 69.13 9.05996 69.8356 9.03261C69.759 7.88947 70.656 7.22769 71.1811 6.40178C71.7937 5.43366 72.6251 4.62966 73.3744 3.76547C74.2112 2.80282 74.9223 1.71981 75.885 0.861088C76.0928 0.675122 76.2405 0.40711 76.4647 0.243022C77.0281 -0.156257 77.3289 -0.0796751 77.504 0.593084C77.8485 1.75264 78.0783 2.93404 78.3408 4.12094ZM50.9382 97.4922C52.1962 96.0319 53.476 94.6317 54.2254 92.8431C54.6301 91.8804 55.2701 91.0108 55.8772 90.152C57.179 88.3252 58.6011 86.5968 59.5911 84.5512C59.8864 83.9441 60.6795 83.4518 61.3523 83.1947C61.9649 82.9596 62.3477 82.604 62.7032 82.1281C62.8947 81.8711 63.108 81.625 63.3432 81.3296C63.6768 81.6906 63.8683 82.057 64.1636 82.1938C65.0442 82.6095 65.4873 83.2768 65.717 84.2011C65.8428 84.7098 66.1272 85.1911 66.4116 85.6396C66.8875 86.3835 67.5001 87.0508 67.9212 87.8275C69.7918 91.2733 71.6187 94.7465 73.451 98.1923C73.4729 98.0501 73.4783 97.8696 73.5221 97.7001C74.5722 93.8331 75.1247 89.8676 75.606 85.9076C75.9342 83.2002 75.9561 80.4545 76.0819 77.7197C76.142 76.3632 76.1146 75.0067 76.1639 73.6503C76.1748 73.3166 76.3553 72.983 76.4538 72.6548C76.6397 72.715 76.8312 72.7752 77.0172 72.8353C77.0281 72.4798 77.05 72.1243 77.0445 71.7688C77.0391 71.5336 77.05 71.2765 76.9625 71.0741C76.7765 70.653 77.1265 70.6311 77.3234 70.4396C77.5586 70.2099 77.7009 69.8872 77.9142 69.5481C77.9907 69.7395 78.0673 69.8872 78.1111 70.0404C78.483 71.2765 79.1448 71.4734 80.0473 70.6913C80.4138 70.374 80.3427 69.477 81.0811 69.7232C82.2352 70.106 81.5296 68.7988 82.0984 68.7058C82.3664 68.6621 82.6618 68.5417 82.897 68.6128C83.2525 68.7222 83.4057 68.7003 83.5424 68.3229C83.6573 68.0057 83.8377 67.6283 84.1057 67.4697C85.4184 66.6875 86.764 65.9656 88.104 65.2272C88.3064 65.1178 88.5853 65.0904 88.7221 64.9318C89.9473 63.5097 91.7905 63.012 93.2345 61.9235C93.3822 61.8141 93.8634 61.9125 93.8689 61.8852C93.9181 61.3 94.4049 61.1632 94.7823 60.8788C95.5864 60.2772 96.4068 59.681 97.1069 58.9645C100.148 55.8577 103.605 53.3417 107.663 51.2578C105.191 50.8695 102.894 50.3608 100.569 50.1858C98.1024 50.0053 95.6247 49.9834 93.1524 49.8467C90.6364 49.71 88.0876 49.9616 85.5716 50.1803C84.8441 50.246 84.3464 50.2569 83.9362 49.6115C83.8213 49.4365 83.5533 49.3544 83.5095 49.3325C83.969 48.2386 84.4229 47.1775 84.8605 46.1164C85.7138 44.0489 86.7202 42.0635 87.8141 40.1108C89.3729 37.3323 90.7075 34.4334 92.064 31.5509C92.5781 30.4625 92.8899 29.2811 93.4095 27.8152C91.7631 28.7614 90.4395 29.4889 89.1487 30.271C87.5789 31.2228 86.0967 32.3221 84.4777 33.1808C81.5897 34.7178 78.9424 36.5228 76.8476 39.0661C76.2076 39.8483 75.5787 40.6414 74.9114 41.3962C74.3918 41.9814 73.9159 41.9103 73.533 41.2157C72.7837 39.8483 72.5813 38.3934 72.9587 36.8783C73.6752 34.0177 74.2386 31.1407 74.255 28.1653C74.2714 25.7422 74.4684 23.3247 74.5832 20.9016C74.5942 20.7212 74.5668 20.5352 74.6105 20.3656C75.1247 18.5333 75.327 16.6682 75.2997 14.7703C75.2942 14.4147 75.3653 14.0592 75.4091 13.7091C75.6114 12.0136 75.8084 10.318 76.0108 8.62787C76.1092 7.80743 76.2131 6.99247 76.317 6.17751C76.3936 5.57038 76.4702 4.95783 76.1748 4.16474C75.6279 4.9086 75.2231 5.47739 74.7965 6.02982C73.4783 7.75821 72.0562 9.42643 70.842 11.2259C68.4682 14.7483 66.1491 18.3091 63.9175 21.9245C61.5875 25.6985 58.8308 29.1607 56.271 32.7706C54.8434 34.7834 53.0932 36.5556 52.2673 38.9732C52.0485 39.6241 51.4796 40.1546 51.0749 40.7398C50.971 40.6961 50.8616 40.6578 50.7577 40.614C50.9054 39.8921 51.053 39.1646 51.2062 38.4426C50.7741 38.7981 50.3092 39.2083 50.3256 39.5966C50.3748 40.7015 49.6747 40.8875 48.8488 41.057C48.5316 40.3843 48.1596 39.7225 47.8971 39.0169C47.3556 37.5675 46.0429 36.9877 44.8834 36.2329C43.8058 36.6595 44.2106 35.8774 44.1559 35.3906C44.1231 35.0733 44.0684 34.674 43.5379 34.7014C43.0729 34.7233 42.6026 34.6631 42.0994 34.6358C42.3127 34.0833 42.3455 33.3887 41.7383 33.5199C40.6772 33.7442 40.2287 33.066 39.6271 32.5409C39.4192 32.3604 39.2934 32.076 39.0692 31.9338C38.0464 31.272 36.9852 30.6649 35.9624 29.9976C35.1475 29.467 34.3708 28.8763 33.43 28.209C33.9004 31.0258 34.71 33.5418 34.8631 36.1836C34.9123 37.0041 35.4975 37.7972 35.8531 38.5957C35.9898 38.902 36.214 39.1755 36.3125 39.4873C36.6516 40.5703 36.9415 41.6642 37.2806 42.7471C37.6143 43.8137 37.9042 44.9131 38.9653 45.4929C38.8012 46.0398 38.6918 46.4938 38.5168 46.9259C38.4621 47.0626 38.2542 47.2103 38.1065 47.2158C37.9753 47.2213 37.7674 47.0736 37.7127 46.9423C37.483 46.4118 37.3025 45.8594 37.0782 45.2522C37.0345 45.482 36.9689 45.6515 36.9744 45.821C36.9908 46.7618 36.9962 46.7618 38.2105 47.7792C38.4894 48.0144 38.4839 48.6981 38.2433 48.9879C37.8276 49.4857 37.215 49.513 36.679 49.7537C35.1256 50.4483 33.6379 51.307 32.0736 51.9743C30.2303 52.7565 28.2613 53.2761 26.4672 54.1513C24.3997 55.1577 22.2229 55.8413 20.0898 56.6508C18.5692 57.2306 17.0705 57.9471 15.4898 58.2862C14.0787 58.5871 13.0175 59.9271 11.4204 59.5716C11.3493 59.5552 11.2235 59.7958 11.1142 59.9107C10.9391 60.0912 10.7696 60.392 10.5781 60.4084C9.33108 60.5233 8.49967 61.3875 7.06117 62.0712C8.69111 62.6072 9.96006 62.8971 11.1087 63.4386C12.7769 64.2262 14.7678 64.1059 16.2556 65.353C16.3157 65.4077 16.4852 65.4131 16.5509 65.3639C17.1854 64.9482 17.7105 65.4514 18.241 65.6045C20.0952 66.146 21.8838 66.9993 23.7708 67.322C26.2923 67.7541 28.3871 69.1981 30.9523 69.7778C30.6187 70.281 30.3069 70.642 30.1264 71.0522C29.9405 71.4789 29.9787 72.0204 29.738 72.3978C28.8192 73.8308 27.9167 75.3459 26.4891 76.2976C25.5921 76.8938 25.4937 78.3322 24.1536 78.3651C24.1317 78.3651 24.0771 78.4909 24.0935 78.5182C24.5474 79.2019 23.6012 79.4973 23.6559 80.17C23.6996 80.7115 23.2348 81.3789 22.83 81.8383C22.3596 82.3743 22.4307 83.1017 22.097 83.5885C21.0633 85.0981 20.3687 86.75 19.6412 88.4073C19.3294 89.1238 18.9685 89.8622 17.9457 89.9114C18.2082 90.4693 18.4489 90.9998 18.7114 91.5194C18.7497 91.596 18.8973 91.6234 19.0122 91.6835C19.1982 91.3226 18.963 90.8959 19.6522 90.6115C22.0205 89.6215 24.3068 88.4346 26.5821 87.2422C27.4463 86.7883 28.1902 86.2084 28.8137 85.3333C29.2841 84.6715 30.5312 84.7044 31.2258 83.9605C31.554 83.6104 32.4784 83.3971 32.4565 83.2221C32.358 82.5548 32.7573 82.4071 33.162 82.2047C33.8238 81.8765 34.5294 81.6249 35.1529 81.2366C35.6014 80.9576 35.7492 81.2968 35.7273 81.5046C35.5796 82.8173 35.5085 84.1683 35.1366 85.4208C34.8467 86.3999 34.8412 87.3735 34.688 88.3416C34.4966 89.523 34.7537 90.7264 34.3763 91.8859C34.1083 92.6954 33.8184 93.5049 33.6543 94.3363C33.1839 96.6499 32.5877 98.9362 32.1119 101.244C31.5649 103.886 31.4555 106.61 31.1602 109.301C31.0125 110.63 31.0836 111.976 31.0344 113.299C30.9524 115.514 30.3944 117.719 30.0279 119.923C29.7107 121.843 29.3333 123.752 29.0872 125.677C28.9833 126.508 28.9942 127.301 28.3652 127.974C28.223 128.122 28.3925 128.559 28.4472 129.287C29.8803 127.34 31.1 125.726 32.2705 124.085C33.7363 122.029 34.967 119.775 36.6461 117.921C39.009 115.307 41.0163 112.462 43.0073 109.585C44.1504 107.934 44.9162 106.03 46.4039 104.608C46.6446 104.378 46.732 103.979 46.9071 103.673C47.1094 103.317 47.2572 102.831 47.5689 102.65C48.4933 102.114 48.8215 101.168 49.0731 100.309C49.5106 98.8213 50.3475 97.5415 50.9163 96.1303C51.0148 95.8897 51.2336 95.6927 51.3976 95.4794C51.4852 95.5177 51.5672 95.5614 51.6547 95.6052C51.4359 96.2069 51.1843 96.8523 50.9382 97.4922ZM28.2339 51.1594C27.4791 51.5313 26.9158 51.8048 26.3579 52.0783C27.6651 52.8714 27.6651 52.8713 28.2339 51.1594ZM64.0761 85.3881C63.83 84.6661 64.1035 83.7143 63.1682 83.1017C62.9275 84.1628 63.7315 84.6879 64.0761 85.3881ZM19.3295 55.6608C19.3021 55.6006 19.2693 55.535 19.2419 55.4749C18.777 55.6499 18.3012 55.803 17.8636 56.0273C17.7706 56.0765 17.798 56.4157 17.8308 56.6071C17.8418 56.6563 18.159 56.7329 18.2301 56.6673C18.613 56.3555 18.963 55.9999 19.3295 55.6608Z" fill="#1D3D6C"/>
<path d="M46.5734 83.2048C46.5734 83.7189 46.7102 84.2767 46.5516 84.7307C45.9499 86.4701 45.5616 88.286 44.7029 89.9378C44.4075 90.5066 44.0191 91.0536 44.3418 91.7701C44.413 91.9287 44.2981 92.2186 44.1996 92.41C43.598 93.5696 42.8924 94.6909 42.3838 95.8942C42.0775 96.6161 41.5359 97.3436 41.8641 98.2516C41.9297 98.4321 41.8423 98.7055 41.7493 98.9024C41.2023 100.073 40.628 101.227 40.081 102.398C39.9935 102.589 39.9607 102.841 39.9881 103.054C40.0865 103.792 40.2451 104.536 39.2333 104.793C39.1676 104.81 39.102 105.006 39.1129 105.11C39.277 106.418 37.9753 107.282 38.0737 108.578C38.0847 108.737 37.9698 108.912 37.8604 109.234C37.215 108.244 36.7337 107.369 37.1877 106.264C37.7018 105.006 38.2761 103.77 38.73 102.491C39.3153 100.844 39.6325 99.0829 40.3819 97.5241C41.3062 95.6043 41.6618 93.504 42.6353 91.5951C43.6964 89.5057 44.3637 87.2194 45.2279 85.0316C45.485 84.3862 45.8241 83.7735 46.1249 83.1445C46.2726 83.1609 46.4257 83.1829 46.5734 83.2048Z" fill="#1D3D6C"/>
<path d="M60.0886 65.3702C60.0667 65.8242 60.1488 66.1962 59.7385 66.6228C59.1588 67.2245 58.8524 68.0886 58.2617 68.6684C57.5944 69.3193 56.7521 69.8827 55.7512 69.8389C53.2352 69.7295 50.834 69.3029 49.133 67.1533C48.8048 66.7377 48.3836 66.3876 48.0062 66.0047C47.5523 65.5344 47.6671 65.0257 47.957 64.5389C48.0281 64.4186 48.3399 64.2873 48.3399 64.2928C48.7173 64.8397 49.4667 64.3147 49.6909 64.61C50.1613 65.2336 50.8832 65.1077 51.4138 65.4468C51.9553 65.7914 52.4913 66.1688 52.9562 66.6064C54.0009 67.5964 55.155 67.2573 56.2216 66.8142C56.8834 66.5407 57.6437 66.2673 57.8242 65.2609C57.9336 64.6374 58.5188 64.0576 58.9892 63.5434C59.3393 63.1606 59.7878 63.3466 59.8862 63.8607C59.9792 64.353 60.023 64.867 60.0886 65.3702Z" fill="#1D3D6C"/>
<path d="M57.3485 49.9551C58.3822 51.3553 57.9938 52.5641 57.5289 53.7674C57.064 54.9761 56.61 56.185 56.0685 57.3609C55.8552 57.8258 56.3585 58.1375 56.0576 58.679C55.6037 59.4885 55.7623 60.5278 54.9528 61.3209C54.3293 61.9335 54.0777 62.9289 53.5252 64.0228C53.0986 62.8523 52.6883 61.9335 52.4422 60.9708C52.3383 60.5661 52.5078 60.0465 52.6555 59.6199C53.2736 57.8586 54.2089 56.2178 54.5863 54.3526C54.7176 53.6908 55.1278 52.9852 55.6146 52.5148C56.3366 51.8202 56.7742 50.956 57.3485 49.9551Z" fill="#1D3D6C"/>
<path d="M69.0531 22.4707C69.4688 23.8764 69.1078 24.932 68.7195 25.9931C67.8662 28.3231 67.0623 30.6696 66.1762 32.9887C65.8097 33.9513 65.7222 34.9249 65.5964 35.9259C65.5307 36.4509 65.1479 37.2878 64.7924 37.3534C64.054 37.4902 64.1579 36.5385 63.868 36.079C63.4796 35.461 63.5891 34.7663 63.8352 34.0881C64.776 31.49 65.6839 28.881 66.6411 26.2885C67.0075 25.3039 67.4232 24.3303 67.9209 23.406C68.1233 23.0505 68.5991 22.8372 69.0531 22.4707Z" fill="#1D3D6C"/>
<path d="M65.1593 52.981C65.7226 52.9263 66.1438 53.1341 66.4337 53.8124C66.9588 55.043 67.0463 56.2518 66.4829 57.4551C66.0126 58.4505 64.7764 58.7295 64.0161 57.9583C63.502 57.4332 63.0152 56.9792 62.3425 56.6182C61.3251 56.0658 61.5111 54.9281 62.1182 54.3374C62.9113 53.5717 63.8794 52.981 65.1593 52.981Z" fill="#1D3D6C"/>
<path d="M48.8378 50.8253C50.1122 50.8308 51.4578 51.87 51.6 52.8217C51.6437 53.128 50.6646 54.7087 50.2763 54.7798C49.5926 54.9056 48.8378 55.4635 48.2307 54.5282C48.0228 54.211 47.536 54.0907 47.2735 53.8008C46.9617 53.4562 46.639 53.046 46.557 52.6193C46.5132 52.4006 47.1149 52.1216 47.2079 51.8044C47.4923 50.8198 48.1924 50.7433 48.8378 50.8253Z" fill="#1D3D6C"/>
</svg>
