<svg width="201" height="350" viewBox="0 0 201 350" fill="none" xmlns="http://www.w3.org/2000/svg">
<path d="M200.089 180.659C199.539 182.859 197.069 184.159 197.499 186.879C195.159 186.309 194.159 184.469 192.839 183.109C191.719 181.949 192.239 183.929 191.379 183.419C190.249 181.749 188.839 179.919 188.889 177.409C188.899 177.039 188.689 176.369 188.509 176.339C185.789 175.909 187.089 173.899 186.969 172.479C186.919 171.889 187.089 171.269 187.179 170.489C187.899 170.539 188.629 170.589 189.709 170.669C189.289 169.939 189.089 169.499 188.809 169.119C188.049 168.059 188.209 166.969 189.319 166.569C190.689 166.069 190.849 163.709 192.969 164.419C194.389 164.899 194.729 166.239 195.619 167.129C195.829 167.339 195.979 167.709 196.229 167.779C199.349 168.739 198.899 171.569 199.459 173.869C199.709 174.879 198.859 176.119 200.079 176.939C200.089 178.189 200.089 179.429 200.089 180.659Z" fill="#1D3D6C"/>
<path d="M1.39001 87.1297C4.01001 86.5897 6.63997 86.5297 9.21997 86.2697C11.31 86.0597 13.57 86.9997 15.7 87.6297C20.24 88.9697 24.77 90.3797 29.25 91.9097C30.21 92.2397 30.7099 92.2397 31.3199 91.4797C35.5199 86.2897 39.74 81.1097 43.97 75.9397C45.11 74.5497 46.25 73.1897 46.8 71.3997C46.97 70.8397 47.78 70.4597 48.3 70.0197C49.03 69.3997 49.69 69.5697 49.95 70.4297C50.76 73.1297 52.62 75.5596 52.76 78.3296C52.85 80.1096 53.85 82.1397 52.47 83.9297C52.32 84.1197 52.3601 84.5197 52.4301 84.7997C53.5001 89.2597 53.1101 93.7197 52.55 98.1997C52.2701 100.42 52.02 102.68 52.11 104.9C52.16 106.14 53.11 107.36 51.86 108.53C51.84 108.55 52.43 109.46 52.87 109.72C57.08 112.15 61.24 114.72 65.59 116.88C70.29 119.21 74.69 122.03 79.26 124.58C80.64 125.35 81.2499 127.53 80.4399 128.84C80.1899 129.24 79.44 129.51 78.91 129.53C77.01 129.6 75.79 130.29 74.5 131.91C73.46 133.23 71.22 133.78 69.4 134.29C62.92 136.09 57.01 139.14 51.16 142.34C50.36 142.78 49.52 143.15 48.71 143.57C46.38 144.76 44.5401 146.31 43.6801 148.98C42.2101 153.58 40.54 158.12 38.9 162.66C38.38 164.1 37.75 165.52 37.02 166.87C35.99 168.76 34.05 168.88 33.11 167.03C31.67 164.17 30.3699 161.24 29.5699 158.11C29.1999 156.64 28.7699 155.19 28.3199 153.75C26.8599 149.11 25.38 144.48 23.89 139.85C23.24 137.82 22.8 137.74 20.79 138.79C16.83 140.86 12.84 142.87 8.85999 144.9C6.36999 146.17 3.89 146.72 1.37 144.91C1.08 144.7 0.6 144.74 0 144.63C0.88 142.32 1.68 140.14 2.12 137.8C2.45 136.01 3.88003 134.41 4.91003 132.78C5.80003 131.36 6.6 130.04 5.75 128.25C5.52 127.77 5.82001 126.87 6.14001 126.32C7.24001 124.38 8.53996 122.55 9.57996 120.58C10.02 119.75 10.35 118.58 10.12 117.73C8.89999 113.14 7.51 108.58 6.13 104.03C4.78 99.5696 3.34001 95.1397 2.01001 90.6797C1.67001 89.4997 1.59001 88.2697 1.39001 87.1297Z" fill="#1D3D6C"/>
<path d="M134.1 0C135.8 2.14 137.431 3.96 138.791 5.96C141.221 9.52 143.48 13.19 145.82 16.81C146.41 17.72 146.77 18.7 148.2 18.93C149.16 19.09 149.89 20.32 150.84 20.88C153.01 22.16 155.32 23.2 157.44 24.55C159.37 25.78 161.121 27.3 163.151 28.84C160.131 30.99 157.51 33.17 153.99 33.77C153.66 33.83 153.171 34.17 153.131 34.44C152.89 36.14 151.421 36.3 150.261 36.86C149.441 37.26 148.661 37.75 147.811 38.04C145.871 38.72 145.45 40.33 145.09 42.07C144.4 45.45 143.611 48.81 142.911 52.19C142.671 53.34 142.281 54.41 142.511 55.71C142.861 57.65 141.44 59.13 138.94 60.06C138.09 59.06 137.431 57.85 136.421 57.17C133.551 55.22 132.001 52.49 131.061 49.28C130.461 47.24 129.421 45.25 129.261 43.19C129.111 41.21 127.98 40.89 126.63 40.6C123.28 39.87 119.901 39.23 116.541 38.55C116.241 38.49 115.921 38.47 115.641 38.36C112.441 37.11 110.971 35.35 114.051 32.39C116.261 30.27 118.641 28.32 120.921 26.27C123.651 23.8 126.94 21.77 128.22 18.09C129.41 14.65 130.341 11.13 131.281 7.61C131.731 5.91 131.81 4.11 132.32 2.43C132.54 1.59 133.37 0.94 134.1 0Z" fill="#1D3D6C"/>
<path d="M72.4688 337.59C73.2387 336.01 73.4288 334.28 74.9688 333.23C75.3387 332.98 75.6188 332.38 75.6788 331.91C75.8988 330.16 77.1688 329.35 78.4888 328.56C78.9188 328.31 79.5588 328.18 79.7688 327.81C80.9388 325.73 83.0388 325.81 85.0488 325.24C84.4988 327.04 84.5188 328.57 85.7488 329.83C86.1088 330.2 86.3888 330.9 87.2288 330.44C87.4788 330.3 88.2188 330.59 88.4088 330.88C89.8288 333.17 91.1588 335.52 92.5288 337.85C92.5788 337.94 92.6987 338.04 92.6887 338.11C92.4287 339.04 93.8988 340.03 92.8088 340.76C92.1788 341.18 90.9988 341.21 90.2588 340.92C88.9888 340.42 88.3588 340.42 88.1688 341.96C88.0988 342.52 87.6987 343.07 87.3387 343.55C86.6787 344.43 80.8688 348.75 79.9088 349C79.5588 349.09 78.8188 348.83 78.7488 348.59C78.5288 347.82 78.4088 346.97 78.5088 346.19C78.7588 344.01 78.7788 344.04 77.1588 342.01C76.8188 341.58 76.7888 340.9 76.6088 340.34C76.3588 339.57 76.3088 338.51 75.7688 338.11C75.2288 337.7 74.1988 337.94 73.3788 337.87C73.1188 337.82 72.8688 337.71 72.4688 337.59Z" fill="#1D3D6C"/>
<path d="M137.49 222.781C137.8 222.781 138.24 222.651 138.39 222.801C140.1 224.561 142.699 225.561 143.219 228.341C143.329 228.931 143.369 229.601 143.189 230.151C142.619 231.981 142.03 233.821 141.25 235.571C140.75 236.701 139.92 237.891 138.43 237.471C137.46 237.201 138.179 239.751 136.839 238.251C136.549 239.131 135.29 237.811 135.13 239.001C135.12 239.071 134.97 239.201 134.92 239.191C133.23 238.671 131.5 238.261 129.89 237.541C129.03 237.161 128.5 236.101 127.66 235.611C126.76 235.091 129.29 234.871 127.64 234.311C126.49 233.921 127.549 232.251 127.099 231.861C126.219 231.091 126.23 230.601 126.31 229.491C126.37 228.621 126.89 227.831 126.79 226.851C126.74 226.301 128.179 225.331 129.109 225.011C131.829 224.071 134.63 223.361 137.4 222.561C137.44 222.641 137.47 222.711 137.49 222.781Z" fill="#1D3D6C"/>
</svg>
