<svg width="793" height="3" viewBox="0 0 793 3" fill="none" xmlns="http://www.w3.org/2000/svg">
<path d="M27.0767 0.719727C25.5601 0.769727 24.0434 0.789727 22.5213 0.759727C22.149 0.759727 21.7219 0.949726 21.3989 1.30973C21.3332 1.37973 21.1854 1.53973 21.2073 1.70973C21.2292 1.87973 21.4208 1.87973 21.481 1.88973C22.9977 1.91973 24.5198 1.90973 26.0364 1.84973C26.4142 1.83973 26.8303 1.66973 27.1589 1.29973C27.2246 1.22973 27.3724 1.06973 27.3505 0.899727C27.3286 0.729727 27.137 0.719727 27.0767 0.719727Z" fill="#1D3D6C"/>
<path d="M9.40304 0.640275C6.96656 0.590275 4.53008 0.560275 2.09359 0.570275C1.72128 0.570275 1.28873 0.750275 0.971169 1.12028C0.735734 1.40028 0.735734 1.70028 1.0533 1.69028C3.48978 1.69028 5.92626 1.71028 8.36275 1.76028C8.73506 1.76028 9.17308 1.58028 9.48517 1.21028C9.72608 0.930275 9.72061 0.640275 9.40304 0.640275Z" fill="#1D3D6C"/>
<path d="M125.331 0.450183C121.679 0.210183 118.027 0.340183 114.38 0.490183C114.046 0.500183 113.521 0.690183 113.329 1.26018C113.137 1.83018 113.493 2.02018 113.745 2.01018C117.397 1.86018 121.049 1.73018 124.696 1.97018C125.019 1.99018 125.561 1.75018 125.747 1.20018C125.944 0.630183 125.577 0.460183 125.331 0.450183Z" fill="#1D3D6C"/>
<path d="M105.521 0.340403C102.367 0.310403 99.2136 0.430403 96.0599 0.330403C95.7204 0.320403 95.1948 0.540403 95.0141 1.1304C94.8334 1.7204 95.1674 1.9904 95.4467 2.0004C98.6004 2.1104 101.754 1.9804 104.908 2.0104C105.247 2.0104 105.767 1.8104 105.954 1.2104C106.14 0.610403 105.8 0.340403 105.521 0.340403Z" fill="#1D3D6C"/>
<path d="M85.3936 0.399465C82.9571 0.479465 80.5151 0.469465 78.0786 0.369465C77.7282 0.359465 77.2245 0.579465 77.0329 1.17947C76.8412 1.77947 77.1917 2.07947 77.4709 2.08947C79.9074 2.18947 82.3493 2.19947 84.7858 2.11947C85.1362 2.10947 85.6345 1.92947 85.8316 1.30947C86.0123 0.739465 85.6783 0.389465 85.3936 0.399465Z" fill="#1D3D6C"/>
<path d="M66.7621 0.279922C64.03 0.229922 61.3033 0.179922 58.5712 0.169922C58.1988 0.169922 57.7115 0.349922 57.5363 1.02992C57.3776 1.62992 57.6732 2.14992 58.0072 2.14992C60.7394 2.14992 63.466 2.21992 66.1982 2.25992C66.565 2.25992 67.0578 2.07992 67.233 1.39992C67.3918 0.799922 67.0961 0.279922 66.7621 0.279922Z" fill="#1D3D6C"/>
<path d="M46.3125 0.639648C44.6151 0.489648 42.9069 0.519648 41.2095 0.729648C40.8646 0.769648 40.3992 0.959648 40.1473 1.42965C39.8955 1.89965 40.3718 1.94965 40.5251 1.92965C42.1075 1.72965 43.6953 1.70965 45.2831 1.84965C45.6554 1.87965 46.0935 1.67965 46.4055 1.29965C46.4767 1.20965 46.6191 1.04965 46.5917 0.849648C46.5643 0.649648 46.3891 0.639648 46.3125 0.629648V0.639648Z" fill="#1D3D6C"/>
<path d="M160.433 0.839844C158.916 0.889844 157.399 0.909844 155.877 0.879844C155.505 0.879844 155.078 1.06984 154.755 1.42984C154.689 1.49984 154.541 1.65984 154.563 1.82984C154.585 1.99984 154.777 1.99984 154.837 2.00984C156.354 2.03984 157.876 2.02984 159.392 1.96984C159.77 1.95984 160.186 1.78984 160.515 1.41984C160.581 1.34984 160.728 1.18984 160.706 1.01984C160.685 0.849844 160.493 0.839844 160.433 0.839844Z" fill="#1D3D6C"/>
<path d="M142.759 0.770158C140.322 0.720158 137.886 0.690158 135.449 0.700158C135.077 0.700158 134.644 0.880158 134.327 1.25016C134.091 1.53016 134.091 1.83016 134.409 1.82016C136.845 1.82016 139.282 1.84016 141.718 1.89016C142.091 1.89016 142.529 1.71016 142.841 1.34016C143.082 1.06016 143.076 0.770158 142.759 0.770158Z" fill="#1D3D6C"/>
<path d="M258.68 0.479681C255.033 0.259681 251.381 0.409681 247.735 0.569681C247.401 0.589681 246.875 0.769681 246.683 1.33968C246.492 1.90968 246.848 2.09968 247.1 2.08968C250.746 1.91968 254.398 1.77968 258.045 1.99968C258.368 2.01968 258.91 1.77968 259.096 1.22968C259.293 0.659681 258.926 0.489681 258.68 0.479681Z" fill="#1D3D6C"/>
<path d="M238.876 0.459543C235.722 0.429543 232.568 0.549543 229.414 0.449543C229.075 0.439543 228.549 0.659543 228.369 1.24954C228.188 1.83954 228.522 2.10954 228.801 2.11954C231.955 2.22954 235.109 2.09954 238.262 2.12954C238.602 2.12954 239.122 1.92954 239.308 1.32954C239.494 0.729543 239.155 0.459543 238.876 0.459543Z" fill="#1D3D6C"/>
<path d="M218.749 0.520559C216.313 0.600559 213.871 0.590559 211.434 0.490559C211.084 0.480559 210.58 0.700559 210.388 1.30056C210.197 1.90056 210.547 2.20056 210.826 2.21056C213.263 2.31056 215.705 2.32056 218.141 2.24056C218.492 2.23056 218.99 2.05056 219.187 1.43056C219.368 0.860559 219.034 0.510559 218.749 0.520559Z" fill="#1D3D6C"/>
<path d="M200.117 0.409805C197.385 0.359805 194.658 0.309805 191.926 0.299805C191.554 0.299805 191.067 0.479805 190.891 1.1598C190.733 1.7598 191.028 2.2798 191.362 2.2798C194.094 2.2798 196.821 2.3498 199.553 2.3898C199.92 2.3898 200.413 2.2098 200.588 1.5298C200.747 0.929805 200.451 0.409805 200.117 0.409805Z" fill="#1D3D6C"/>
<path d="M179.666 0.759766C177.969 0.609766 176.26 0.639766 174.563 0.849766C174.218 0.889766 173.753 1.07977 173.501 1.54977C173.249 2.01977 173.725 2.06977 173.879 2.04977C175.461 1.84977 177.049 1.82977 178.637 1.96977C179.009 1.99977 179.447 1.79977 179.759 1.41977C179.83 1.32977 179.973 1.16977 179.945 0.969766C179.918 0.769766 179.743 0.759766 179.666 0.749766V0.759766Z" fill="#1D3D6C"/>
<path d="M293.787 0.549805C292.271 0.599805 290.754 0.619805 289.232 0.589805C288.859 0.589805 288.432 0.779805 288.109 1.1398C288.044 1.2098 287.896 1.3698 287.918 1.5398C287.94 1.7098 288.131 1.7098 288.191 1.7198C289.708 1.7498 291.23 1.7398 292.747 1.6798C293.125 1.6698 293.541 1.4998 293.869 1.1298C293.935 1.0598 294.083 0.899805 294.061 0.729805C294.039 0.559805 293.847 0.549805 293.787 0.549805Z" fill="#1D3D6C"/>
<path d="M276.113 0.470354C273.677 0.420354 271.241 0.390354 268.804 0.400354C268.432 0.400354 267.999 0.580353 267.682 0.950354C267.446 1.23035 267.446 1.53035 267.764 1.52035C270.2 1.52035 272.637 1.54035 275.073 1.59035C275.446 1.59035 275.884 1.41035 276.196 1.04035C276.437 0.760353 276.431 0.470354 276.113 0.470354Z" fill="#1D3D6C"/>
<path d="M392.035 0.269519C388.383 0.0295188 384.731 0.159519 381.085 0.309519C380.751 0.319519 380.225 0.509519 380.033 1.07952C379.842 1.64952 380.198 1.83952 380.45 1.82952C384.102 1.67952 387.754 1.54952 391.4 1.78952C391.723 1.80952 392.265 1.56952 392.451 1.01952C392.648 0.449519 392.282 0.279519 392.035 0.269519Z" fill="#1D3D6C"/>
<path d="M372.231 0.170481C369.077 0.140481 365.923 0.260481 362.769 0.160481C362.43 0.150481 361.904 0.370481 361.724 0.960481C361.543 1.55048 361.877 1.82048 362.156 1.83048C365.31 1.94048 368.464 1.81048 371.617 1.84048C371.957 1.84048 372.477 1.64048 372.663 1.04048C372.849 0.440481 372.51 0.170481 372.231 0.170481Z" fill="#1D3D6C"/>
<path d="M352.104 0.229543C349.668 0.309543 347.226 0.299543 344.789 0.199543C344.439 0.189543 343.935 0.409543 343.743 1.00954C343.552 1.60954 343.902 1.90954 344.181 1.91954C346.618 2.01954 349.06 2.02954 351.496 1.94954C351.847 1.93954 352.345 1.75954 352.542 1.13954C352.723 0.569543 352.389 0.219543 352.104 0.229543Z" fill="#1D3D6C"/>
<path d="M333.472 0.11C330.739 0.06 328.013 0.01 325.281 0C324.908 0 324.421 0.18 324.246 0.86C324.087 1.46 324.383 1.98 324.717 1.98C327.449 1.98 330.175 2.05 332.908 2.09C333.274 2.09 333.767 1.91 333.942 1.23C334.101 0.63 333.806 0.11 333.472 0.11Z" fill="#1D3D6C"/>
<path d="M313.017 0.469727C311.319 0.319727 309.611 0.349727 307.914 0.559727C307.569 0.599727 307.103 0.789727 306.851 1.25973C306.6 1.72973 307.076 1.77973 307.229 1.75973C308.812 1.55973 310.399 1.53973 311.987 1.67973C312.36 1.70973 312.798 1.50973 313.11 1.12973C313.181 1.03973 313.323 0.879727 313.296 0.679727C313.268 0.479727 313.093 0.469727 313.017 0.459727V0.469727Z" fill="#1D3D6C"/>
<path d="M427.142 0.669922C425.625 0.719922 424.108 0.739922 422.586 0.709922C422.214 0.709922 421.787 0.899922 421.464 1.25992C421.398 1.32992 421.25 1.48992 421.272 1.65992C421.294 1.82992 421.486 1.82992 421.546 1.83992C423.063 1.86992 424.585 1.85992 426.101 1.79992C426.479 1.78992 426.895 1.61992 427.224 1.24992C427.29 1.17992 427.437 1.01992 427.415 0.849922C427.394 0.679922 427.202 0.669922 427.142 0.669922Z" fill="#1D3D6C"/>
<path d="M409.468 0.589494C407.032 0.539494 404.596 0.509494 402.159 0.519494C401.787 0.519494 401.354 0.699494 401.037 1.06949C400.801 1.34949 400.801 1.64949 401.119 1.63949C403.555 1.63949 405.992 1.65949 408.428 1.70949C408.8 1.70949 409.239 1.52949 409.551 1.15949C409.792 0.879494 409.786 0.589494 409.468 0.589494Z" fill="#1D3D6C"/>
<path d="M525.39 0.299993C521.744 0.0799935 518.092 0.229993 514.445 0.389993C514.111 0.409993 513.585 0.589993 513.394 1.15999C513.202 1.72999 513.558 1.91999 513.81 1.90999C517.456 1.73999 521.108 1.59999 524.755 1.81999C525.078 1.83999 525.62 1.59999 525.806 1.04999C526.003 0.479993 525.636 0.309993 525.39 0.299993Z" fill="#1D3D6C"/>
<path d="M505.587 0.289622C502.433 0.259622 499.279 0.379622 496.125 0.279622C495.786 0.269622 495.26 0.489622 495.08 1.07962C494.899 1.66962 495.233 1.93962 495.512 1.94962C498.666 2.05962 501.82 1.92962 504.973 1.95962C505.313 1.95962 505.833 1.75962 506.019 1.15962C506.205 0.559621 505.866 0.289622 505.587 0.289622Z" fill="#1D3D6C"/>
<path d="M485.459 0.349661C483.022 0.42966 480.581 0.419661 478.144 0.31966C477.794 0.30966 477.29 0.52966 477.098 1.12966C476.907 1.72966 477.257 2.02966 477.536 2.03966C479.973 2.13966 482.415 2.14966 484.851 2.06966C485.202 2.05966 485.7 1.87966 485.897 1.25966C486.078 0.68966 485.744 0.339661 485.459 0.349661Z" fill="#1D3D6C"/>
<path d="M466.826 0.239883C464.094 0.189883 461.367 0.139883 458.635 0.129883C458.263 0.129883 457.776 0.309883 457.6 0.989883C457.442 1.58988 457.737 2.10988 458.071 2.10988C460.803 2.10988 463.53 2.17988 466.262 2.21988C466.629 2.21988 467.122 2.03988 467.297 1.35988C467.456 0.759883 467.16 0.239883 466.826 0.239883Z" fill="#1D3D6C"/>
<path d="M446.371 0.589844C444.674 0.439844 442.965 0.469844 441.268 0.679844C440.923 0.719844 440.458 0.909844 440.206 1.37984C439.954 1.84984 440.43 1.89984 440.584 1.87984C442.166 1.67984 443.754 1.65984 445.342 1.79984C445.714 1.82984 446.152 1.62984 446.464 1.24984C446.535 1.15984 446.678 0.999844 446.65 0.799844C446.623 0.599844 446.448 0.589844 446.371 0.579844V0.589844Z" fill="#1D3D6C"/>
<path d="M560.491 0.769531C558.975 0.819531 557.458 0.839531 555.936 0.809531C555.564 0.809531 555.137 0.999531 554.813 1.35953C554.748 1.42953 554.6 1.58953 554.622 1.75953C554.644 1.92953 554.835 1.92953 554.896 1.93953C556.412 1.96953 557.934 1.95953 559.451 1.89953C559.829 1.88953 560.245 1.71953 560.573 1.34953C560.639 1.27953 560.787 1.11953 560.765 0.949531C560.743 0.779531 560.552 0.769531 560.491 0.769531Z" fill="#1D3D6C"/>
<path d="M542.823 0.699846C540.386 0.649846 537.95 0.619846 535.514 0.629846C535.141 0.629846 534.709 0.809846 534.391 1.17985C534.156 1.45985 534.156 1.75985 534.473 1.74985C536.91 1.74985 539.346 1.76985 541.783 1.81985C542.155 1.81985 542.593 1.63985 542.905 1.26985C543.146 0.989846 543.141 0.699846 542.823 0.699846Z" fill="#1D3D6C"/>
<path d="M658.745 0.499987C655.093 0.259988 651.441 0.389988 647.794 0.539988C647.46 0.549988 646.935 0.739987 646.743 1.30999C646.551 1.87999 646.907 2.06999 647.159 2.05999C650.811 1.90999 654.463 1.77999 658.11 2.01999C658.433 2.03999 658.975 1.79999 659.161 1.24999C659.358 0.679987 658.991 0.509988 658.745 0.499987Z" fill="#1D3D6C"/>
<path d="M638.941 0.399973C635.787 0.369973 632.633 0.489973 629.48 0.389973C629.14 0.379973 628.615 0.599973 628.434 1.18997C628.253 1.77997 628.587 2.04997 628.867 2.05997C632.02 2.16997 635.174 2.03997 638.328 2.06997C638.667 2.06997 639.187 1.86997 639.374 1.26997C639.56 0.669973 639.22 0.399973 638.941 0.399973Z" fill="#1D3D6C"/>
<path d="M618.808 0.460012C616.372 0.540012 613.93 0.530012 611.493 0.430012C611.143 0.420012 610.639 0.640012 610.447 1.24001C610.256 1.84001 610.606 2.14001 610.885 2.15001C613.322 2.25001 615.764 2.26001 618.2 2.18001C618.551 2.17001 619.049 1.99001 619.246 1.37001C619.427 0.800012 619.093 0.450012 618.808 0.460012Z" fill="#1D3D6C"/>
<path d="M600.177 0.340469C597.445 0.290469 594.718 0.240469 591.986 0.230469C591.613 0.230469 591.126 0.410469 590.951 1.09047C590.792 1.69047 591.088 2.21047 591.422 2.21047C594.154 2.21047 596.881 2.28047 599.613 2.32047C599.98 2.32047 600.472 2.14047 600.648 1.46047C600.806 0.860469 600.511 0.340469 600.177 0.340469Z" fill="#1D3D6C"/>
<path d="M579.727 0.700195C578.029 0.550195 576.321 0.580195 574.624 0.790195C574.279 0.830195 573.813 1.0202 573.561 1.4902C573.31 1.9602 573.786 2.0102 573.939 1.9902C575.522 1.7902 577.109 1.7702 578.697 1.9102C579.07 1.9402 579.508 1.7402 579.82 1.3602C579.891 1.2702 580.033 1.1102 580.006 0.910195C579.978 0.710195 579.803 0.700195 579.727 0.690195V0.700195Z" fill="#1D3D6C"/>
<path d="M693.847 0.900391C692.331 0.950391 690.814 0.970391 689.292 0.940391C688.919 0.940391 688.492 1.13039 688.169 1.49039C688.104 1.56039 687.956 1.72039 687.978 1.89039C688 2.06039 688.191 2.06039 688.252 2.07039C689.768 2.10039 691.29 2.09039 692.807 2.03039C693.185 2.02039 693.601 1.85039 693.929 1.48039C693.995 1.41039 694.143 1.25039 694.121 1.08039C694.099 0.910391 693.907 0.900391 693.847 0.900391Z" fill="#1D3D6C"/>
<path d="M676.173 0.819963C673.736 0.769963 671.3 0.739963 668.863 0.749963C668.491 0.749963 668.058 0.929963 667.741 1.29996C667.505 1.57996 667.505 1.87996 667.823 1.86996C670.259 1.86996 672.696 1.88996 675.132 1.93996C675.505 1.93996 675.943 1.75996 676.255 1.38996C676.496 1.10996 676.49 0.819963 676.173 0.819963Z" fill="#1D3D6C"/>
<path d="M792.094 0.429876C788.448 0.209876 784.796 0.359876 781.149 0.519876C780.815 0.539876 780.29 0.719876 780.098 1.28988C779.906 1.85988 780.262 2.04988 780.514 2.03988C784.161 1.86988 787.813 1.72988 791.459 1.94988C791.782 1.96988 792.324 1.72988 792.51 1.17988C792.707 0.609876 792.341 0.439876 792.094 0.429876Z" fill="#1D3D6C"/>
<path d="M772.291 0.52009C769.137 0.49009 765.983 0.61009 762.829 0.51009C762.49 0.50009 761.964 0.72009 761.784 1.31009C761.603 1.90009 761.937 2.17009 762.216 2.18009C765.37 2.29009 768.524 2.16009 771.677 2.19009C772.017 2.19009 772.537 1.99009 772.723 1.39009C772.909 0.79009 772.57 0.52009 772.291 0.52009Z" fill="#1D3D6C"/>
<path d="M752.164 0.580129C749.728 0.660129 747.286 0.650129 744.849 0.550129C744.499 0.540129 743.995 0.760129 743.803 1.36013C743.612 1.96013 743.962 2.26013 744.241 2.27013C746.678 2.37013 749.12 2.38013 751.556 2.30013C751.907 2.29013 752.405 2.11013 752.602 1.49013C752.783 0.920129 752.449 0.570129 752.164 0.580129Z" fill="#1D3D6C"/>
<path d="M733.531 0.459609C730.799 0.409609 728.072 0.359609 725.34 0.349609C724.968 0.349609 724.481 0.529609 724.305 1.20961C724.147 1.80961 724.442 2.32961 724.776 2.32961C727.508 2.32961 730.235 2.39961 732.967 2.43961C733.334 2.43961 733.827 2.25961 734.002 1.57961C734.161 0.979609 733.865 0.459609 733.531 0.459609Z" fill="#1D3D6C"/>
<path d="M713.081 0.820312C711.384 0.670312 709.675 0.700313 707.978 0.910313C707.633 0.950313 707.168 1.14031 706.916 1.61031C706.664 2.08031 707.14 2.13031 707.294 2.11031C708.876 1.91031 710.464 1.89031 712.052 2.03031C712.424 2.06031 712.862 1.86031 713.174 1.48031C713.245 1.39031 713.388 1.23031 713.36 1.03031C713.333 0.830312 713.158 0.820312 713.081 0.810312V0.820312Z" fill="#1D3D6C"/>
</svg>
