<?xml version="1.0" encoding="utf-8"?>
<!-- Generator: Adobe Illustrator 27.7.0, SVG Export Plug-In . SVG Version: 6.00 Build 0)  -->
<svg version="1.1" id="圖層_1" xmlns="http://www.w3.org/2000/svg" xmlns:xlink="http://www.w3.org/1999/xlink" x="0px" y="0px"
	 viewBox="0 0 769 80" style="enable-background:new 0 0 769 80;" xml:space="preserve">
<style type="text/css">
	.st0{clip-path:url(#SVGID_00000067221824600642017180000000143803390395301797_);}
	.st1{fill:#1D3D6C;}
	.st2{fill:#FFFFFF;}
</style>
<g>
	<defs>
		<rect id="SVGID_1_" width="769" height="81.5"/>
	</defs>
	<clipPath id="SVGID_00000085962211474764256080000007865594810329287824_">
		<use xlink:href="#SVGID_1_"  style="overflow:visible;"/>
	</clipPath>
	<g style="clip-path:url(#SVGID_00000085962211474764256080000007865594810329287824_);">
		<path class="st1" d="M0,0h769v50c0,16.6-13.4,30-30,30H30C13.4,80,0,66.6,0,50V0z"/>
		<path class="st2" d="M677.6,14.9c0.7-0.4,1.2,0.2,1.6,0.6c1.1,1.1,1.6,2.5,1.5,4c0,0.5,0.4,0.9,0.1,1.5c0,0.1,0.2,0.3,0.4,0.4
			c0.3,0.3,0.3-0.2,0.4-0.2c0.3-0.1,0.7-0.1,1-0.4c0.2-0.2,0.7,0,1,0.1c0.4,0.1,0.4-0.1,0.3-0.4c0.4,0,0.8,0,1.2,0.1
			c0.3,0.1,0.4,0.6,0.8,0.5c0,0,0.2,0.2,0.2,0.4c0,0.4-0.2,0.8-0.1,1.1c0.4,1.2-0.3,1.8-1.1,2.2s-1.6,0.8-2.5,1.2
			c-1,0.5-1.1,0.6-0.7,1.7c0.1,0.4,0.2,0.8,0.5,1.1c0.1,0.1-0.2,0.7,0.4,0.8c0,0,0.1,0.2,0.1,0.2c-0.2,0.3-0.3,0.6,0.2,0.8
			c0.1,0-0.1,0.5-0.1,0.8c0,0.1,0.1,0.2,0.1,0.2c0.1-0.1,0.2-0.2,0.3-0.4c0,0.5,0.1,1,0,1.3c-0.3,0.6-0.1,1.1,0.1,1.6
			c0.2,0.8,0.6,1.6,0.3,2.4c0.3,0-0.1,0.8,0.5,0.4c0,0,0.1,0.1,0.1,0.1c-0.5,0.3-0.1,0.7-0.1,1.1c0,0.5,0,0.9-0.1,1.3
			c0.1,0.1,0.1,0.1,0.2,0.1c0.2,0.1,0-0.5,0.3-0.2c0.3,0.3-0.5,0.4-0.1,0.8c0.2,0.2,0.1,0.6,0,0.9c-0.2,0.6-0.2,1.2,0.3,1.6
			c0.1,0.1,0.1,0.2,0.1,0.4c0.1,0.5-0.3,1-0.3,1.5c0,0.5,0.6,0.8,0.4,1.5c-0.2,0.5,0.1,1.2,0.2,1.7c0,0.2,0.1,0.5,0,0.6
			c-0.4,0.9-0.1,1.8-0.2,2.7c0,0.1,0,0.4-0.1,0.4c-0.6,0.1-0.5,0.7-0.4,1c0.3,0.7,0.1,1.4,0.1,2.1c-0.1-0.2-0.2-0.5-0.3-1
			c0,0.5-0.2,0.8-0.1,1c0.3,0.6,0,1.2,0.2,1.8c0,0.1-0.1,0.4-0.2,0.5c0,0.1-0.1,0.1-0.2,0.1c1,0.6,0.1,1.4,0.1,2
			c0,0.7-0.2,1.5-0.4,2.2c-0.1,0.4,0.1,1-0.5,1.2c-0.1,0-0.1,0.5,0,0.7c0,0.3,0.1,0.6,0.2,1c-0.2-0.1-0.3-0.1-0.6-0.2
			c0.2,0.5,0.3,0.8,0.4,1.1c0,0.1,0.1,0.1,0.2,0.1c0.1,0,0.1-0.1,0.1-0.2c-0.1-0.3-0.1-0.6-0.2-0.8c0.5-0.6,0.9-1.2,1.1-2
			c0.1-0.7,0.5-1.3,0.8-2c0.4-0.9,0.6-2,1.3-2.7c0.4-0.3,0.1-0.9,0.6-1.3c0.6-0.5,0.9-1.4,1.4-1.9c0.6-0.6,1.3-1.1,1.9-1.6
			c0.2-0.2,0.5-0.2,0.8-0.2c0.4-0.1,0.7,1.1,1.2,0.1c0,0.1,0.1,0.2,0.1,0.3c0,0.2-0.1,0.3-0.1,0.6c0.2,0,0.4,0,0.6,0.1
			c0.3,0.1,0.6,0.2,0.4,0.7c-0.1,0.2,0.1,0.6,0.1,0.8c0,0.2,0.1,0.5,0,0.6c-0.1,0.2-0.3,0.2-0.5,0.4c0.1,0.1,0.3,0.3,0.4,0.4
			c0,0.1,0,0.3,0,0.4c-0.3,1-0.5,2-0.9,3c-0.7,1.7-1.6,3.3-2.7,4.8c-0.6,1-1.3,1.9-2,2.8c-1,1.3-2.1,2.5-3.1,3.7
			c-0.3,0.3-0.5,0.7-0.8,0.9c-0.3,0.2,0,0.9-0.7,0.6c0,0-0.1,0.1-0.1,0.1c0.3,0.5,0,1-0.2,1.4c-0.1,0.1,0,0.4,0.1,0.5
			c0,0.1,0.3,0,0.4-0.1c0.4-0.4,0.5,0.1,0.7,0.1c0.3,0,0.6-0.1,0.8-0.1c0.2,0,0.4,0.2,0.5,0.1c0.9-0.5,1.9,0,2.9-0.2
			c0.8-0.1,1.7-0.1,2.5-0.2c0.8,0,1.6,0.3,2.3-0.1c0.9,0.4,1.8,0.2,2.8,0.2c0.6,0,1.2,0,1.8-0.1c1-0.2,2.1,0.1,3.1,0
			c1-0.1,2.1,0,3.2,0.1c0.8,0,1.5-0.2,1.9-1c0.1-0.2,0.2-0.3,0.4-0.5c1.1-1.3,2.2-2.7,3.3-4.1c1.2-1.6,2.2-3.3,2.9-5.3
			c0.6-1.7,1.2-3.3,1.8-5c0.6-1.8,1-3.6,1.4-5.4c0.2-1.1,0.5-2.1,0.7-3.2c0-0.2,0-0.5,0.1-0.8c-0.6,0-1.2-0.1-1.8-0.2
			c-0.9-0.1-1.6-0.8-2.2-1.5c-0.2-0.2,0.6-0.2,0.1-0.5c-0.2-0.1-0.3-0.4-0.4-0.7c0-0.2,0.1-0.5,0.1-0.7c0.1-1.2,0-2.3,0.3-3.5
			c0-0.2,0-0.3,0-0.5c-0.3-1.1-0.2-2.3-0.3-3.4c0-0.8,0.2-1,0.9-0.7c0.5,0.2,1,0.5,1.6,0.4c0.3,0,0.7,0.5,1.1,0.8
			c0.6-0.4,0.4-1.2,0.4-1.9c0-0.3-0.1-0.4,0.2-0.6c0.1,0,0.1-0.3,0-0.4c-0.2-0.4-0.1-0.6,0.1-0.9c0.1-0.1,0.1-0.3,0.1-0.4
			c-0.3-0.7,0.1-1.3,0.3-2.1c0.9,0.6,1.3,1.5,1.8,2.3c0.5,0.8,0.8,1.8,1.4,2.9c0.3-0.8,0.6-1.4,0.5-2.1c-0.1-0.5,0.2-1,0.5-1.4
			c1.2,0.8,1.5,2,1.7,3.2c0.2,0.8,0.2,1.7,0.3,2.5c0.1,1-0.2,1.8-0.5,2.7c-0.5,1.5-1.1,2.9-2.1,4.2c-0.5,0.7-1.1,1.4-2,1.9
			c-0.4,0.2-0.5,0.5-0.6,0.9c-0.2,1.6-0.5,3.2-0.8,4.8c0,0.1,0,0.3-0.1,0.3c-0.7,0.3-0.4,0.9-0.4,1.4c0,0.2-0.1,0.5-0.1,0.7
			c-0.2,0.7-0.5,1.3-0.6,2c-0.1,0.4-0.5-0.2-0.5,0.2c0,0.2,0.2,0.4,0.2,0.6c0,0.1,0,0.3,0,0.4c-0.5,1.4-0.7,2.8-1.4,4.1
			c-0.2,0.3-0.2,0.6-0.3,1c0,0.1,0.1,0.3,0.1,0.4c0.2-0.1,0.3-0.1,0.5-0.2c0.1-0.2,0.2-0.3,0.3-0.5c0.3-0.7,0.9-1.4,1.7-2.1
			c0.1-0.1,0.2-0.1,0.2-0.2c0.1-1.2,1.2-1.7,1.8-2.6c0.5-0.8,1.2-1.3,1.9-1.9c0.1-0.1,0.3-0.1,0.4,0c0.2,0.1,0.3,0.1,0.3-0.2
			c0.1-0.5,0.3-0.9,1-0.9c0.2,0,0.5-0.5,0.6-0.8c0.3-0.5,0.6-0.3,1-0.1V57c-0.3,0.5-0.5,1.7-0.5,2.1c0,0.4-0.2,0.8-0.4,1.2
			c-1,1.8-2,3.6-3.1,5.4c-1.5,2.4-3,4.8-4.6,7.2c-0.5,0.8-1.3,1.6-2,2.2c-0.8,0.6-1.4,1.4-1.8,2.2c-0.3,0.6-0.9,1-1.5,1.1
			c-0.6,0.1-0.4,0.2-0.1,0.4c-0.2,0.1-0.4,0.3-0.6,0.4c-0.3,0.2-0.8,0.3-0.5,0.8c0,0.1-0.2,0.4-0.3,0.5c-0.4,0.2-0.8,0.4-1.1,0.5
			c-0.2,0.1,0,0.6-0.5,0.5c-0.3-0.1-0.6,0-0.9,0H588.5c0.3-0.5,0.5-0.9,0.7-1.3c1.6-2.4,3.2-4.8,5.1-7c1.1-1.3,2.1-2.7,3.2-4
			c1.4-1.8,2.9-3.5,4.4-5.2c0.5,0.4,0.7,1.2,1.5,0.8c0.5,0.3,1.1,0.5,1.5,0.9c1.1,1.2,2.3,2.2,3.5,3.3c0.8,0.8,1.7,1.5,2.6,2.4
			c0.1-0.5,0.1-0.8,0.2-1.1c0.2-0.7,0.4-1.4,0.8-2c0.4-0.6,0.2-1.5,0.9-1.9c0,0,0.1-0.2,0.1-0.2c-0.1-0.8,0.4-1.2,0.9-1.6
			c0.2,0.4,0.7,0.6,0.8,1.1c0,0.1,0.3,0.3,0.5,0.3c0.6,0,0.9,0.4,1.3,0.8c0.7,0.8,1.5,1.5,2.3,2.4c0.3-0.2,0.7-0.5,1-0.8
			c1-0.9,1.9-1.9,2.9-2.8c0,0,0.1,0,0.1-0.1c0.6-1.1,1.7-1.6,2.9-1.9c0,0,0,0,0,0.1c-0.1,0.6,0.2,1.1,0.9,1.4
			c0.1,0.1,0.2,0.1,0.3,0.2c1.3,1.6,2.9,2.9,4.5,4.2c1.1,0.9,1.8,2,2.8,2.9c0.5,0.4,0.9,0.8,1.5,1c0-1.7,0.4-3.3,0.8-4.9
			c0.4-1.4,0.5-2.8,0.9-4.2c0.2-0.8,0.3-1.7,0.2-2.5c-0.1-0.7,0.2-1,0.5-1.6c0.2,0.2,0.3,0.5,0.5,0.6c0.2,0.1,0,0.8,0.6,0.5
			c0.1,0.3,0.3,0.7,0.4,0.8c1,0.1,1,1.1,1.5,1.6c0.5,0.6,0.8,1.4,1.1,2.1c0.4,0.7,0.7,1.4,1.2,2.1c0.5,0.7,0.9,1.5,1.3,2.3
			c0.1,0.1,0.2,0.2,0.4,0.4c0.4-1.3,0.8-2.5,1-3.7c0.1-0.5-0.1-1,0.3-1.4c-0.1-0.1-0.2-0.1-0.3-0.2c0.4-0.4,0.7-0.4,1.2,0
			c2.2,1.7,3.9,3.7,5.4,5.9c0.6,0.9,1.2,1.8,1.9,2.6c0.3,0.4,0.6,0.7,1,1c0.3,0.2,0.6,0.3,0.9,0.3c0.5,0,0.9-0.5,1.5-0.2
			c0.5,0.3,1.1-0.1,1.6,0c1.4,0.2,2.8-0.3,4.2,0.2c0.9-0.4,1.9-0.1,2.8-0.2c0.6,0,1.1,0,1.8,0c-1.3-0.8-1.5-0.9-2.5-2.2
			c-0.4-0.5-0.9-0.9-1.3-1.3c-1.6-1.3-3-2.7-4.2-4.3c-0.7-0.8-1.5-1.5-2.3-2.2c0.4-0.4,0.4-0.9,1-0.6c0.1,0.1,0.2,0,0.3-0.1
			c0.9-0.2,1.7-0.2,2.5,0.4c0.5,0.3,1.1,0.4,1.6,0.7c1.1,0.7,2.2,1.5,3.3,2.3c0.6,0.5,1.2,1,2,1.6c-0.3-0.8-0.5-1.4-0.8-1.9
			c-1.3-2.8-2.1-5.7-2.9-8.6c-0.4-1.3-0.7-2.7-0.8-4.1c-0.1-1-0.4-1.9-0.5-2.8c-0.1-0.9-0.4-1.8-0.5-2.7c0-0.3-0.2-0.6-0.3-1
			c-0.4,0.6-0.8,1.2-1.2,1.8c-0.8,1.1-2,1.7-3.4,2c-0.6,0.1-1.9,0-2.4-0.3c-0.2-0.1-0.4-0.4-0.4-0.6c-0.2-0.7-0.6-1.2-1.2-1.5
			c0.1-0.2,0.3-0.3,0.3-0.4c0-0.1-0.3-0.4-0.3-0.4c0.3-0.4,0-0.8,0-1.2c0-0.5,0.1-0.9,0.3-1.3c0.4-0.9,0.8-1.8,1.2-2.8
			c0.1-0.1,0.1-0.3,0.1-0.4c-1,0.2-1.9,0.4-2.9,0.6c-0.5-0.5-1.2-0.1-1.7-0.4c-0.7-0.5-1.5-1.1-2-1.9c0.2-0.5-0.2-0.9-0.4-1.3
			c-0.7-2.2,0.1-3.3,1.2-4.7c0.4-0.5,0.9-0.9,1.5-1.2c0.6-0.3,2.1-0.3,2.7,0c0.3,0.1,0.6,0.1,0.8,0.2c0.2,0,0.5,0.1,0.7,0.2
			c-0.3-1.4-0.7-2.7-1-4c-0.1-0.4-0.1-0.8,0-1.1c0.2-0.7,0.4-1.5,0.6-2.2c0.2-0.6,0.4-0.7,1.1-0.7c0.2,0,0.4,0.2,0.5,0.1
			c0.4-0.3,0.6-0.1,0.8,0.3c0.1,0.3,0.3,0.4,0.5,0c0,0,0.2,0,0.3,0.1c0.3,0.3,0.3,0.3,0.8,0.1c0.1,0,0.2,0,0.2,0
			c1,1,1.9,2.1,2.5,3.4c0.2,0.5,0.5,1,0.6,1.6c0.1,0.4,0.3,0.9,0.4,1.4c0.1,0.6,0.2,1.2,0.3,1.9c0.2-0.1,0.3-0.1,0.3-0.2
			c0.7-1.2,2-1.7,2.9-2.7c0.4-0.4,1.1,0,1.5-0.5c0,0,0.6,0.3,0.6,0.4c-0.1,0.7,0.7,1,0.7,1.6c0,0.8,0.1,1.6,0.1,2.4
			c0,0.2-0.2,0.5-0.3,0.7c-0.8,1.6-1.6,3.1-2.5,4.8c0.1,0.1,0.3,0.3,0.5,0.3c2.2,0.2,3.3,1.7,4,3.5c0.3,1,0.2,2.1-0.2,3.1
			c-0.1,0.2-0.4,0.3-0.6,0.3c-0.5,0.1-1.1,0-1.6,0.4c-0.1,0.1-0.4,0.1-0.5,0c-1-0.2-2-0.8-3.1-0.7c-0.2,0-0.4-0.2-0.8-0.4
			c0,0.5-0.1,1,0,1.3c0.2,0.4,0.2,0.7-0.1,1c0,0,0.1,0.3,0.2,0.4c0.1-0.1,0.2-0.2,0.4-0.2c-0.1,0.2-0.1,0.4-0.1,0.6
			c-0.2,0.3-0.1,1.1,0.2,1.3c0.3,0.2,0.4,0.4,0.3,0.8c-0.1,0.2,0,0.7,0.2,0.9c0.5,0.6,0.6,1.3,0.7,2c0.4,1.4,0.7,2.9,1.1,4.3
			c0.2,0.6,0.5,1.1,0.7,1.6c0.1,0.4,0.1,0.8,0.3,1.2c0.7,1.3,1.4,2.7,2,4.1c0.7,1.4,1.3,2.7,1.9,4.2c0.4,1,0.9,1.9,1.3,2.8
			c0.1,0.2,0.7,0.5,0.8,0.4c1.1-0.5,2.1,0.1,3.1,0c0.3,0,0.6,0,0.8-0.1c0.1,0,0.4-0.1,0.4-0.3c0.2-0.7,0.5-1.3,0.6-2
			c0.1-0.4-0.2-0.8-0.4-1.2c-0.2-0.3-0.1-0.9-0.7-0.7c-0.6-0.6-1.3-1.1-1.6-2c-0.4-1.2-0.9-2.3-1.3-3.4c-0.4-1.1-0.7-2.2-1-3.3
			c0-0.1,0-0.3,0-0.4c-0.8-1.8-0.8-3.6-0.7-5.5c0-1,0.4-1.2,1.3-0.7c0.3,0.2,0.5-0.2,0.9,0.1c1.2,1,1.8,2.3,2.4,3.6
			c0.8,1.8,1.2,3.7,1.7,5.5c0.2,0.8,0.2,1.6,0.3,2.4c0,0.2,0.1,0.4,0.3,0.5c0.1-0.5,0.3-1.1,0.4-1.6c0.2-1.2,0.4-2.5,0.5-3.8
			c0.1-0.9,0.3-1.8,0.5-2.7c0.1-0.8,0.2-1.6,0.3-2.4c0.1-0.6,0.2-1.2,0.2-1.7c0.1-0.6,0.2-1.2,0.2-1.8c0-0.1,0-0.2,0-0.3
			c0-1.9,0.4-3.8,0.3-5.7c-0.1-1.9,0-3.9,0-5.8c0-1.2-0.3-2.3-0.5-3.5c0-0.2,0-0.5,0-0.8c0.1-1.5-0.3-3.1-0.6-4.6
			c-0.2-1.1-0.6-2.2-1-3.5c-0.2,0.5-0.2,0.7-0.4,0.9c-0.6,0.7-1.3,1.4-2.2,1.8c-0.3,0.1-0.6,0.1-0.9,0.1c-0.5,0.1-0.4-0.4-0.6-0.6
			c-0.2-0.1-0.3-0.4-0.5-0.4c-1,0-1.2-0.9-1.3-1.6c-0.2-1.1-0.2-2.2,0.1-3.4c-0.7,0-1.4,0-2.1,0c-1.2,0-2.1-0.5-3-1.3
			c-0.5-0.4-0.7-1.1-0.5-1.9c0.1-0.5,0.6,0,0.6-0.4c0-0.4,0.2-0.8,0.4-1c0.2-0.2,0.6-0.4,0.8-0.5c0.3-0.2,0.6-0.4,0.9-0.5
			c0.3-0.1,0.7,0,1.1,0c0-0.2,0-0.5,0-0.9c0.1-1,0-2.1,0.9-2.8c0.1,0,0.1-0.1,0.1-0.2c0-1.2,1.1-1.5,1.8-2.2
			c0.2-0.2,0.6-0.2,0.8-0.1C677.4,14.5,677.5,14.8,677.6,14.9c-0.4-0.1-0.6,0.1-0.8,0.5c0.5,0.3,1,0.5,1.6,0.9
			c-0.1-0.4-0.2-0.7-0.3-0.9C678,15.2,677.7,15.1,677.6,14.9L677.6,14.9z M690.9,53c-0.3,0.4-0.7,0.7-1,1.2
			c-0.6,0.8-1.1,1.7-1.6,2.6c-0.2,0.4-0.4,0.8-0.5,1.2c0.7,0.1,0.7-0.6,1-0.9c0.7-0.6,1.2-1.3,1.9-2c0.1,0.1,0.2,0.2,0.5,0.5
			C690.8,54.6,692.1,53.9,690.9,53L690.9,53z M673.5,60.8c-0.3-1.5-1.2-2.5-1.1-3.8c0-0.1-0.1-0.2-0.2-0.2c-0.1,0-0.2,0.1-0.2,0.1
			c-0.1,1-0.4,2,0.5,2.8C672.7,60,673,60.3,673.5,60.8L673.5,60.8z M674.1,7.9c-0.2-0.6-0.6-0.8-1.1-0.7
			C673.3,7.4,673.7,7.6,674.1,7.9z"/>
	</g>
</g>
</svg>
