<svg width="409" height="202" viewBox="0 0 409 202" fill="none" xmlns="http://www.w3.org/2000/svg">
<path d="M268.502 1.77298C270.652 0.702978 272.012 2.273 273.172 3.483C276.372 6.823 278.082 10.923 277.792 15.573C277.702 17.083 279.072 18.443 278.072 20.003C277.982 20.143 278.802 20.933 279.282 21.333C280.252 22.143 280.062 20.823 280.502 20.613C281.492 20.153 282.622 20.213 283.552 19.293C284.022 18.823 285.502 19.223 286.472 19.463C287.742 19.773 287.692 19.253 287.362 18.373C288.592 18.453 289.852 18.413 291.052 18.663C291.952 18.853 292.232 20.383 293.562 20.023C293.652 20.003 294.122 20.733 294.122 21.113C294.122 22.193 293.602 23.413 293.942 24.333C295.262 27.873 292.882 29.593 290.602 31.083C288.312 32.583 285.692 33.593 283.212 34.803C280.072 36.343 279.872 36.593 281.122 39.793C281.552 40.893 281.572 42.203 282.692 43.163C283.102 43.513 282.102 45.253 283.772 45.613C283.882 45.633 284.042 46.163 283.952 46.283C283.232 47.283 283.072 48.013 284.442 48.683C284.662 48.793 284.172 50.263 284.102 51.113C284.082 51.343 284.402 51.603 284.562 51.853C284.792 51.553 285.012 51.243 285.522 50.573C285.522 52.193 285.932 53.643 285.432 54.643C284.552 56.393 285.102 57.813 285.602 59.393C286.342 61.753 287.362 64.083 286.652 66.653C287.542 66.643 286.442 68.953 288.182 67.983C288.222 67.963 288.422 68.253 288.552 68.393C287.102 69.303 288.242 70.553 288.142 71.633C288.002 73.013 287.992 74.413 287.932 75.683C288.222 75.843 288.292 75.893 288.372 75.933C288.892 76.153 288.442 74.373 289.362 75.443C290.152 76.353 287.792 76.653 288.932 77.883C289.412 78.413 289.342 79.793 289.052 80.623C288.412 82.483 288.472 84.083 289.862 85.563C290.092 85.803 290.072 86.283 290.152 86.663C290.482 88.313 289.232 89.723 289.332 91.283C289.432 92.803 291.072 93.803 290.462 95.813C289.992 97.363 290.752 99.283 290.932 101.053C291.002 101.693 291.182 102.423 290.962 102.973C289.892 105.633 290.702 108.383 290.472 111.063C290.432 111.493 290.312 112.243 290.102 112.293C288.182 112.723 288.542 114.343 288.892 115.313C289.682 117.493 289.192 119.603 289.102 121.753C288.882 121.073 288.652 120.393 288.142 118.863C288.012 120.473 287.672 121.353 287.942 121.923C288.762 123.633 287.912 125.503 288.622 127.213C288.782 127.593 288.272 128.293 287.992 128.803C287.892 128.983 287.592 129.063 287.382 129.183C290.282 130.993 287.642 133.273 287.762 135.303C287.892 137.523 287.252 139.833 286.642 142.023C286.312 143.213 286.972 144.943 285.072 145.593C284.812 145.683 284.872 147.013 284.972 147.743C285.102 148.723 285.402 149.673 285.622 150.643C285.142 150.433 284.672 150.223 283.912 149.883C284.402 151.283 284.732 152.313 285.122 153.323C285.172 153.463 285.562 153.563 285.762 153.523C285.932 153.483 286.192 153.183 286.172 153.053C286.002 152.223 285.772 151.403 285.562 150.583C287.152 148.823 288.332 146.943 288.782 144.483C289.152 142.433 290.182 140.483 291.072 138.563C292.332 135.823 292.752 132.673 295.142 130.473C296.252 129.453 295.532 127.673 296.912 126.413C298.652 124.823 299.532 122.323 301.152 120.553C302.862 118.693 304.952 117.153 306.992 115.633C307.622 115.163 308.632 115.193 309.482 115.013C310.682 114.753 311.502 118.253 312.982 115.383C313.112 115.673 313.352 115.963 313.332 116.243C313.312 116.743 313.132 117.233 312.972 117.913C313.612 117.973 314.252 117.933 314.832 118.103C315.872 118.403 316.702 118.753 315.912 120.223C315.582 120.833 316.162 121.913 316.262 122.783C316.332 123.383 316.482 124.123 316.212 124.583C315.922 125.073 315.192 125.303 314.652 125.653C315.022 126.063 315.482 126.423 315.742 126.903C315.902 127.203 315.862 127.683 315.762 128.043C314.932 131.073 314.292 134.193 313.152 137.103C311.122 142.263 308.212 146.983 305.132 151.573C303.222 154.423 301.162 157.183 299.012 159.853C295.952 163.653 292.762 167.353 289.622 171.083C288.822 172.033 288.122 173.133 287.142 173.813C286.352 174.353 287.152 176.513 285.182 175.703C285.162 175.693 284.962 175.953 284.982 176.003C285.972 177.623 284.932 178.853 284.322 180.233C284.132 180.653 284.462 181.383 284.742 181.863C284.822 182.003 285.712 181.923 285.952 181.683C286.992 180.593 287.452 182.063 288.182 182.083C289.012 182.113 289.852 181.863 290.682 181.853C291.162 181.853 291.772 182.353 292.102 182.183C294.902 180.783 297.832 182.203 300.692 181.713C303.192 181.293 305.802 181.293 308.312 181.183C310.602 181.083 312.992 181.993 315.342 181.013C318.042 182.163 320.862 181.633 323.632 181.583C325.472 181.553 327.402 181.643 329.132 181.393C332.272 180.943 335.312 181.753 338.432 181.393C341.552 181.033 344.762 181.523 347.932 181.623C350.412 181.703 352.432 180.873 353.732 178.623C354.052 178.073 354.472 177.583 354.872 177.093C358.152 173.033 361.572 169.083 364.682 164.893C368.292 160.023 371.402 154.933 373.482 149.073C375.242 144.103 377.252 139.173 379.002 134.173C380.842 128.913 382.072 123.483 383.262 118.043C383.962 114.843 384.722 111.653 385.402 108.443C385.562 107.703 385.532 106.923 385.602 105.903C383.732 105.943 382.002 105.543 380.192 105.403C377.382 105.183 375.352 102.963 373.572 100.783C373.112 100.213 375.412 100.293 373.842 99.373C373.252 99.023 372.862 98.043 372.732 97.293C372.612 96.603 373.042 95.843 373.092 95.103C373.302 91.603 372.962 88.073 373.892 84.623C374.022 84.153 373.942 83.583 373.822 83.093C372.992 79.703 373.272 76.233 373.052 72.803C372.902 70.543 373.752 69.763 375.732 70.573C377.322 71.223 378.782 71.963 380.702 71.863C381.712 71.813 382.802 73.343 383.972 74.243C385.642 72.903 385.172 70.653 385.232 68.663C385.252 67.873 384.892 67.303 385.822 66.833C386.022 66.733 386.052 65.893 385.882 65.513C385.412 64.433 385.582 63.553 386.292 62.653C386.542 62.333 386.712 61.713 386.582 61.363C385.792 59.213 386.832 57.393 387.612 55.153C390.222 56.983 391.532 59.763 393.112 62.173C394.712 64.603 395.672 67.463 397.202 70.763C398.192 68.243 399.032 66.493 398.782 64.403C398.582 62.743 399.402 61.483 400.402 60.283C403.862 62.683 404.842 66.283 405.602 69.893C406.122 72.353 406.092 74.913 406.472 77.413C406.912 80.333 405.852 82.913 404.892 85.533C403.292 89.933 401.492 94.253 398.712 98.053C397.102 100.263 395.362 102.383 392.782 103.643C391.712 104.163 391.182 105.093 390.982 106.403C390.252 111.213 389.362 115.993 388.512 120.783C388.452 121.153 388.392 121.723 388.162 121.833C386.042 122.823 386.872 124.493 387.032 126.083C387.112 126.803 386.852 127.573 386.632 128.293C386.022 130.333 385.232 132.323 384.762 134.393C384.472 135.673 383.312 133.863 383.312 134.933C383.312 135.503 383.812 136.063 383.972 136.653C384.062 137.003 383.992 137.433 383.882 137.783C382.522 141.923 381.692 146.243 379.572 150.123C379.092 151.003 378.852 152.043 378.662 153.043C378.592 153.433 378.952 153.903 379.122 154.333C379.582 154.153 380.152 154.073 380.462 153.753C380.892 153.313 381.162 152.703 381.432 152.123C382.982 148.853 382.982 148.853 386.452 145.823C386.642 145.663 386.952 145.503 386.972 145.313C387.322 141.773 390.672 140.253 392.282 137.523C393.622 135.253 395.992 133.583 397.962 131.713C398.232 131.463 398.932 131.403 399.292 131.563C399.932 131.853 400.142 131.773 400.272 131.093C400.572 129.513 401.192 128.473 403.162 128.473C403.812 128.473 404.542 127.073 405.082 126.223C405.952 124.833 406.942 125.223 408.012 125.843C408.012 126.613 408.012 127.393 408.012 128.163C407.212 129.803 406.562 133.143 406.412 134.463C406.272 135.683 405.922 136.963 405.322 138.033C402.292 143.453 399.272 148.883 396.022 154.173C391.572 161.423 387.042 168.633 382.302 175.693C380.642 178.163 378.522 180.463 376.192 182.303C373.802 184.193 372.042 186.403 370.662 189.023C369.662 190.913 368.062 192.133 366.012 192.413C364.082 192.673 364.732 193.003 365.812 193.593C365.232 194.003 364.692 194.483 364.072 194.813C363.062 195.353 361.772 195.613 362.712 197.293C362.842 197.533 362.242 198.433 361.792 198.693C360.712 199.323 359.512 199.733 358.382 200.273C357.702 200.593 358.282 202.113 356.842 201.843C355.972 201.683 355.042 201.843 354.142 201.843C237.532 201.843 120.912 201.843 4.30212 201.843C3.15212 201.843 2.01211 201.843 0.412109 201.843C1.25211 200.303 1.79212 199.053 2.55212 197.953C7.47212 190.783 12.1921 183.473 17.9021 176.853C21.2621 172.953 24.2421 168.743 27.5121 164.773C31.8521 159.523 36.3021 154.363 40.7121 149.173C42.2021 150.493 42.8621 152.743 45.2321 151.513C46.7621 152.373 48.6121 152.923 49.7621 154.143C53.0621 157.643 56.6621 160.803 60.2721 163.963C62.8221 166.203 65.2421 168.593 68.1621 171.323C68.4621 169.823 68.5521 168.893 68.8421 168.023C69.5221 165.993 70.0421 163.863 71.1021 162.043C72.1621 160.223 71.6821 157.693 73.7821 156.403C73.9421 156.303 74.0521 155.923 74.0121 155.713C73.6021 153.403 75.1421 152.183 76.6921 150.913C77.4121 152.073 78.8621 152.653 79.0321 154.283C79.0721 154.643 80.0221 155.153 80.5721 155.173C82.3021 155.223 83.3121 156.263 84.3721 157.423C86.5321 159.793 88.7921 162.063 91.3121 164.683C92.1721 164.003 93.2821 163.253 94.2421 162.343C97.1621 159.553 100.022 156.713 102.912 153.883C103.002 153.793 103.132 153.723 103.192 153.623C105.032 150.193 108.272 148.883 111.822 148.033C111.822 148.033 111.952 148.153 111.942 148.253C111.672 151.083 111.672 151.083 114.622 152.523C114.952 152.683 115.312 152.853 115.532 153.113C119.512 157.853 124.302 161.753 129.072 165.613C132.252 168.193 134.442 171.613 137.522 174.233C138.862 175.373 140.072 176.653 142.162 177.103C142.052 171.923 143.242 167.103 144.702 162.433C146.002 158.293 146.352 154.023 147.342 149.853C147.922 147.383 148.202 144.713 147.902 142.213C147.662 140.233 148.452 139.103 149.562 137.533C150.102 138.253 150.412 139.013 150.972 139.333C151.692 139.743 150.982 141.853 152.782 140.843C153.202 141.623 153.572 143.043 154.062 143.093C157.092 143.383 157.122 146.323 158.492 147.973C160.002 149.773 160.752 152.203 161.892 154.323C163.032 156.433 163.992 158.603 165.532 160.543C167.152 162.583 168.202 165.083 169.542 167.363C169.792 167.783 170.222 168.103 170.682 168.583C171.752 164.783 172.942 161.173 173.732 157.473C174.032 156.073 173.432 154.483 174.522 153.183C174.202 152.983 173.882 152.783 173.562 152.583C174.732 151.483 175.692 151.443 177.122 152.533C183.662 157.513 188.872 163.663 193.442 170.423C195.242 173.083 197.142 175.683 199.102 178.223C199.962 179.343 200.972 180.393 202.102 181.223C202.882 181.793 203.962 182.183 204.922 182.223C206.442 182.293 207.712 180.753 209.532 181.733C210.982 182.513 212.692 181.373 214.312 181.653C218.542 182.393 222.892 180.733 227.092 182.253C229.802 180.953 232.672 181.873 235.462 181.663C237.112 181.533 238.772 181.643 240.892 181.643C236.952 179.393 236.462 178.823 233.462 174.923C232.312 173.433 230.872 172.113 229.402 170.913C224.702 167.093 220.502 162.813 216.662 158.113C214.642 155.643 212.002 153.673 209.602 151.443C210.672 150.353 210.752 148.683 212.472 149.633C212.712 149.773 213.172 149.533 213.532 149.443C216.252 148.773 218.742 148.903 221.132 150.743C222.482 151.783 224.442 151.993 225.882 152.953C229.232 155.173 232.462 157.583 235.682 159.993C237.562 161.403 239.342 162.953 241.702 164.883C240.792 162.533 240.222 160.753 239.422 159.083C235.502 150.813 232.982 142.073 230.622 133.263C229.542 129.223 228.522 125.203 228.212 120.983C228.002 118.123 226.962 115.353 226.582 112.443C226.232 109.733 225.542 107.013 225.132 104.273C224.982 103.283 224.592 102.333 224.262 101.203C222.942 103.113 221.802 104.923 220.502 106.603C217.932 109.973 214.372 111.773 210.312 112.683C208.392 113.113 204.472 112.663 203.092 111.703C202.522 111.303 201.962 110.603 201.802 109.943C201.282 107.843 199.952 106.443 198.212 105.443C198.642 104.943 199.242 104.553 199.232 104.183C199.222 103.783 198.302 103.113 198.362 103.033C199.302 101.853 198.382 100.683 198.462 99.553C198.562 98.193 198.852 96.783 199.362 95.523C200.492 92.713 201.822 89.983 203.052 87.213C203.242 86.793 203.342 86.343 203.452 86.033C200.492 86.603 197.692 87.143 194.882 87.693C193.412 86.213 191.182 87.483 189.852 86.563C187.632 85.023 185.422 83.303 183.902 80.943C184.382 79.413 183.262 78.313 182.842 77.023C180.712 70.423 183.022 67.053 186.582 62.943C187.942 61.383 189.302 60.123 191.222 59.313C193.072 58.533 197.472 58.463 199.442 59.373C200.222 59.733 201.132 59.793 201.982 59.983C202.672 60.133 203.372 60.283 204.152 60.453C203.142 56.343 202.102 52.353 201.212 48.333C200.972 47.233 200.962 45.983 201.202 44.883C201.672 42.673 202.312 40.483 203.022 38.333C203.612 36.563 204.332 36.153 206.222 36.213C206.702 36.233 207.352 36.693 207.622 36.513C208.842 35.663 209.432 36.133 209.982 37.293C210.372 38.123 210.962 38.563 211.432 37.263C211.452 37.213 212.062 37.243 212.252 37.413C213.202 38.263 213.182 38.273 214.672 37.763C214.882 37.693 215.232 37.623 215.342 37.733C218.312 40.803 221.122 44.013 222.812 48.003C223.482 49.603 224.382 51.043 224.662 52.913C224.862 54.263 225.682 55.743 225.992 57.223C226.362 59.013 226.512 60.853 226.782 62.923C227.252 62.663 227.642 62.573 227.762 62.353C229.762 58.673 233.802 57.153 236.472 54.153C237.572 52.913 239.842 54.023 241.102 52.523C241.172 52.433 242.862 53.273 242.842 53.613C242.702 55.673 244.902 56.613 244.952 58.543C245.012 60.983 245.262 63.423 245.272 65.863C245.272 66.563 244.802 67.303 244.462 67.973C242.022 72.693 239.562 77.403 237.022 82.273C237.382 82.493 237.882 83.063 238.432 83.113C245.062 83.663 248.452 88.143 250.422 93.673C251.462 96.603 251.172 100.023 249.682 103.013C249.442 103.493 248.502 103.773 247.852 103.853C246.192 104.063 244.452 103.723 243.082 105.153C242.802 105.443 241.962 105.363 241.432 105.233C238.342 104.493 235.472 102.773 232.092 103.223C231.502 103.303 230.792 102.513 229.852 101.953C229.852 103.393 229.482 104.803 229.942 105.853C230.522 107.173 230.442 107.993 229.502 108.943C229.412 109.033 229.892 109.683 230.112 110.063C230.482 109.823 230.852 109.593 231.222 109.353C231.082 109.923 231.052 110.543 230.792 111.053C230.272 112.053 230.472 114.203 231.482 114.893C232.462 115.573 232.752 116.043 232.252 117.293C231.952 118.053 232.372 119.413 232.942 120.133C234.352 121.923 234.602 124.073 235.172 126.103C236.362 130.353 237.262 134.693 238.462 138.933C238.942 140.623 240.092 142.133 240.582 143.823C240.922 145.003 240.952 146.153 241.622 147.373C243.832 151.353 245.712 155.513 247.642 159.643C249.582 163.783 251.532 167.923 253.272 172.153C254.462 175.043 256.092 177.713 257.112 180.693C257.352 181.383 259.132 182.283 259.672 182.013C262.872 180.443 266.002 182.393 269.122 181.893C269.942 181.763 270.792 181.803 271.592 181.623C272.042 181.523 272.682 181.213 272.812 180.843C273.532 178.823 274.372 176.793 274.652 174.693C274.792 173.613 273.922 172.353 273.372 171.243C272.902 170.293 273.012 168.663 271.172 169.063C269.382 167.193 267.142 165.763 266.252 163.073C265.112 159.613 263.602 156.273 262.392 152.833C261.262 149.613 260.312 146.333 259.302 143.073C259.192 142.713 259.302 142.263 259.152 141.933C256.682 136.643 256.752 131.053 257.052 125.413C257.212 122.353 258.112 121.773 261.012 123.293C261.922 123.773 262.582 122.783 263.672 123.623C267.412 126.473 269.002 130.543 270.882 134.533C273.372 139.833 274.532 145.543 276.112 151.113C276.762 153.423 276.782 155.903 277.132 158.293C277.212 158.843 277.422 159.383 278.162 159.893C278.582 158.283 279.122 156.703 279.382 155.063C279.992 151.303 280.422 147.523 280.992 143.763C281.402 141.023 281.952 138.293 282.372 135.553C282.742 133.163 283.012 130.763 283.332 128.363C283.572 126.613 283.842 124.873 284.082 123.123C284.322 121.363 284.562 119.603 284.792 117.843C284.822 117.593 284.832 117.333 284.822 117.073C284.762 111.313 285.942 105.623 285.672 99.833C285.402 94.043 285.822 88.223 285.612 82.433C285.482 78.893 284.722 75.373 284.272 71.843C284.172 71.083 284.132 70.303 284.182 69.543C284.532 64.873 283.342 60.383 282.452 55.873C281.802 52.573 280.692 49.353 279.552 45.243C278.982 46.663 278.852 47.473 278.402 48.003C276.502 50.233 274.412 52.293 271.642 53.433C270.852 53.753 269.882 53.603 269.002 53.743C267.642 53.953 267.902 52.573 267.282 52.063C266.782 51.653 266.332 50.853 265.842 50.843C262.722 50.753 262.102 48.143 261.772 46.133C261.242 42.893 261.262 39.513 262.122 35.953C260.012 35.953 257.842 35.913 255.672 35.963C252.132 36.033 249.232 34.313 246.772 32.173C245.282 30.873 244.742 28.783 245.172 26.393C245.452 24.843 246.862 26.303 247.002 25.073C247.122 23.993 247.592 22.813 248.272 21.963C248.862 21.233 249.952 20.893 250.842 20.413C251.742 19.923 252.622 19.293 253.582 19.053C254.522 18.823 255.572 19.003 256.952 19.003C256.952 18.393 256.892 17.413 256.962 16.443C257.172 13.433 256.992 10.293 259.622 8.043C259.802 7.893 259.982 7.61297 259.982 7.39297C259.992 3.75297 263.372 2.86299 265.372 0.882994C265.882 0.372994 267.042 0.372982 267.892 0.432982C268.162 0.452982 268.372 1.39299 268.612 1.91299C267.482 1.72299 266.772 2.18297 266.272 3.36297C267.792 4.17297 269.202 4.91298 271.112 5.93298C270.712 4.76298 270.582 3.92298 270.152 3.27298C269.772 2.63298 269.072 2.25298 268.502 1.77298ZM309.162 119.633C308.332 120.563 307.392 121.423 306.692 122.453C305.282 124.523 303.962 126.653 302.682 128.813C302.142 129.733 301.802 130.763 301.362 131.743C303.092 132.053 303.032 130.233 303.882 129.503C305.572 128.053 306.952 126.243 308.462 124.573C308.702 124.853 308.952 125.123 309.602 125.873C308.832 123.513 311.952 121.683 309.162 119.633ZM266.382 138.623C265.542 134.883 263.302 132.533 263.612 129.403C263.622 129.283 263.342 129.033 263.192 129.033C262.982 129.023 262.592 129.173 262.572 129.293C262.322 131.643 261.602 134.083 263.682 136.053C264.412 136.743 265.132 137.433 266.382 138.623ZM267.742 8.68298C266.822 6.62298 266.822 6.623 264.982 6.953C265.852 7.493 266.712 8.04298 267.742 8.68298Z" fill="#1D3D6C"/>
</svg>
