<svg width="31" height="31" viewBox="0 0 31 31" fill="none" xmlns="http://www.w3.org/2000/svg">
<path d="M0.260518 17.7461C0.641722 16.9043 1.16161 16.1601 1.61436 15.388C1.9813 14.7627 2.71034 14.3303 3.32458 13.8694C4.63302 12.8862 5.95935 11.9205 7.30962 10.9938C7.59958 10.7957 7.70166 10.6566 7.60984 10.3281C6.98983 8.07526 6.37676 5.81895 5.76857 3.56196C5.60561 2.95439 5.45121 2.35306 5.05392 1.82606C4.9292 1.66177 4.9864 1.35702 4.9673 1.12042C4.93984 0.787795 5.12298 0.639722 5.4209 0.747065C6.35494 1.08582 7.42651 1.07603 8.24368 1.61581C8.7688 1.96266 9.55089 2.10859 9.77872 2.8665C9.80219 2.94793 9.92425 3.02035 10.0183 3.05938C11.5064 3.69351 12.6965 4.73384 13.8576 5.82563C14.4324 6.36736 15.0248 6.9091 15.6752 7.34789C16.0384 7.59305 16.5797 7.58364 16.6575 8.17585C16.6591 8.18559 17.0387 8.21157 17.2025 8.14348C18.7539 7.47991 20.3349 6.8595 21.838 6.10057C23.4609 5.27978 25.1621 4.64482 26.8212 3.90616C27.3221 3.68311 28.0673 3.96888 28.2749 4.46793C28.3377 4.62106 28.2614 4.8861 28.1589 5.03773C27.7909 5.58095 27.7383 6.06454 27.9361 6.7619C28.0995 7.32702 27.7988 8.06512 27.5724 8.67802C26.7617 10.8569 26.4234 13.1384 26.14 15.4345C26.1019 15.749 26.0357 16.06 25.9899 16.3731C25.8529 17.2699 25.9186 18.1057 26.5031 18.9028C27.5125 20.2728 28.464 21.6859 29.4217 23.0908C29.7255 23.5363 30.0011 24.0082 30.2364 24.4934C30.5641 25.1748 30.2022 25.7396 29.4836 25.6146C28.3754 25.4177 27.2758 25.1672 26.2214 24.7359C25.7273 24.5317 25.2267 24.3484 24.7249 24.1727C23.1059 23.6095 21.4856 23.0538 19.8633 22.501C19.1526 22.2578 19.04 22.3634 18.9285 23.142C18.7093 24.6762 18.4669 26.2062 18.2322 27.7376C18.0854 28.6957 17.7356 29.5006 16.7058 29.8235C16.5868 29.8603 16.5002 30.0022 16.3463 30.1462C15.8684 29.4187 15.4111 28.7407 14.8348 28.1294C14.3925 27.6636 14.229 26.9315 13.9753 26.3044C13.7527 25.7601 13.5403 25.2617 12.8571 25.1242C12.6735 25.0879 12.4786 24.8164 12.3873 24.6125C12.0596 23.9011 11.804 23.1571 11.4555 22.4562C11.3091 22.1604 11.0434 21.8241 10.7544 21.7105C9.19863 21.0909 7.61664 20.5249 6.03955 19.9582C4.4942 19.402 2.93902 18.8771 1.39775 18.3153C0.9924 18.1633 0.625899 17.9286 0.260518 17.7461Z" fill="#EBC483"/>
</svg>
