<svg width="201" height="178" viewBox="0 0 201 178" fill="none" xmlns="http://www.w3.org/2000/svg">
<path d="M60.8992 177.97C59.2392 176.54 57.4392 175.25 55.9692 173.65C54.7692 172.36 53.9592 170.71 52.8992 169.1C51.9692 169.88 50.9192 170.84 49.7792 171.69C48.3892 172.72 47.0892 173.8 45.1892 174.1C43.8892 174.3 42.7591 175.49 41.5091 176.13C39.9991 176.9 37.8692 176.06 37.2992 174.54C37.2292 174.35 37.0591 174.11 37.1191 173.96C38.4691 170.43 37.4892 166.36 39.7992 163.03C40.7192 161.71 41.0292 160.41 39.0392 159.24C37.7792 158.5 37.1792 156.7 36.1592 155.49C35.5892 154.82 34.6492 154.48 34.0692 153.82C33.2892 152.94 32.5692 151.95 32.0792 150.89C31.5892 149.83 33.5592 149.26 32.9092 148.02C33.2892 147.99 33.8491 147.79 33.9991 147.96C34.8491 148.89 35.7492 148.5 36.7192 148.28C39.3392 147.69 41.9492 147.52 44.6592 148.8C44.7692 146.59 46.2892 144.7 45.6492 142.4C47.0092 140.63 47.3992 138.55 47.5692 136.39C47.5892 136.12 47.9491 135.87 47.9791 135.59C48.1191 134.45 48.9191 133.99 49.8591 134C50.9091 134.01 51.6292 134.8 51.5692 135.81C51.4792 137.26 52.9092 136.92 53.3192 137.56C53.8392 138.37 54.1492 138.79 55.2892 138.99C56.9992 139.3 57.3092 141.28 57.9392 142.71C58.6592 144.34 59.2491 146.04 60.0091 148.01C62.9691 144.88 65.5992 142.02 68.3192 139.25C69.4492 138.1 69.7891 138.24 70.1191 139.75C70.2191 140.22 70.2991 140.72 70.2491 141.19C69.4791 147.99 69.9492 148.18 66.5191 153.66C66.0891 154.34 65.7891 155.11 65.3591 155.99C66.8491 156.7 68.4292 157.29 69.8192 158.18C71.1592 159.04 72.4292 160.1 73.4692 161.3C74.2292 162.19 73.6391 163.58 72.4991 163.57C70.5791 163.55 68.7292 164.95 66.6492 163.43C65.6692 162.71 63.8791 163.09 62.1091 162.94C62.4391 166.64 61.5892 170.38 62.6592 174.12C63.0692 175.55 62.7392 176.94 61.5292 177.98C61.3092 177.97 61.1092 177.97 60.8992 177.97Z" fill="#D8B06C"/>
<path d="M197.045 64.937C198.125 64.737 199.136 64.547 198.496 65.697C197.536 67.417 196.415 69.087 195.135 70.597C190.875 75.647 186.525 80.617 182.195 85.607C180.605 87.447 178.995 89.277 177.345 91.057C176.485 91.987 176.135 92.737 176.945 93.997C178.275 96.027 177.875 98.507 178.005 100.747C178.295 105.617 178.235 110.507 178.105 115.387C178.065 117.077 177.405 118.767 177.005 120.447C176.815 121.247 176.295 122.067 176.405 122.807C176.695 124.577 175.505 125.467 174.585 126.557C173.735 127.557 173.146 127.767 172.485 126.257C172.155 125.507 170.695 125.637 170.425 124.357C170.365 124.087 168.295 123.757 168.025 124.117C167.215 125.197 166.635 124.847 165.735 124.407C163.615 123.357 161.485 122.407 159.475 121.087C157.315 119.667 154.815 118.777 152.445 117.707C150.135 116.657 147.795 115.647 145.465 114.637C144.625 114.267 143.775 113.867 142.895 113.627C137.895 112.267 139.165 112.037 136.305 115.527C133.715 118.687 131.195 121.917 128.395 124.897C125.845 127.607 122.555 129.287 118.955 130.247C117.575 130.617 116.416 130.967 116.246 132.667C116.216 133.017 115.595 133.537 115.225 133.547C114.855 133.557 114.285 133.097 114.135 132.727C113.205 130.227 111.585 127.957 111.955 125.017C112.075 124.027 111.165 122.947 110.905 121.867C109.825 117.337 109.355 112.697 109.655 108.077C109.925 103.947 110.776 99.847 111.366 95.737C111.576 94.267 112.105 92.657 109.895 92.197C108.115 89.387 106.325 86.577 104.575 83.747C102.315 80.097 100.225 76.347 97.8155 72.807C95.6055 69.567 94.8154 66.097 95.0354 62.277C95.0854 61.337 95.3855 60.927 96.3455 61.177C97.4255 61.457 98.0255 61.267 98.1855 59.937C98.3255 58.767 99.1855 58.297 100.465 57.917C103.365 57.067 106.055 55.507 108.955 54.637C112.435 53.587 116.035 52.927 119.605 52.157C123.565 51.297 127.535 50.457 131.515 49.737C132.565 49.547 133.115 49.147 133.515 48.177C134.695 45.357 135.905 42.547 137.275 39.827C138.035 38.317 138.965 36.817 140.135 35.627C141.135 34.607 141.835 33.677 141.765 32.227C141.715 31.047 141.836 29.957 143.496 30.037C143.626 30.047 144.035 29.127 143.895 28.827C143.365 27.667 143.945 26.897 144.565 26.027C145.745 24.377 146.785 22.627 148.015 21.017C148.405 20.507 149.165 20.107 149.815 20.007C150.255 19.937 150.845 20.407 151.275 20.747C152.395 21.617 153.365 22.747 154.595 23.407C155.555 23.927 156.615 24.867 157.965 23.997C158.725 23.517 159.315 23.857 159.585 24.737C160.075 26.357 160.805 27.947 161.035 29.597C161.385 32.057 161.865 34.407 163.075 36.617C163.985 38.297 164.715 40.087 165.525 41.827C165.605 42.007 165.755 42.227 165.715 42.397C164.965 45.277 167.505 47.087 168.075 49.587C168.785 52.737 170.985 53.487 174.475 53.057C175.945 52.877 177.505 53.147 178.985 53.427C183.175 54.217 187.345 55.127 191.525 55.967C192.625 56.187 193.725 56.427 194.845 56.477C196.925 56.577 198.475 57.937 200.295 58.647C200.445 58.707 200.435 59.137 200.505 59.397C199.655 59.537 199.515 60.077 199.725 60.807C197.735 61.347 197.965 63.347 197.045 64.937Z" fill="#D8B06C"/>
<path d="M63.47 0.505789C63.41 2.63579 63.1199 4.36579 64.7 5.95579C65.35 6.60579 65.33 8.29579 65.09 9.38579C64.24 13.2558 63.16 17.0658 61.46 20.6858C60.82 22.0458 60.69 23.6458 60.33 25.1358C60.16 25.8258 60.1399 26.5958 59.8099 27.1858C58.6599 29.2258 59.19 30.8658 60.8 32.3458C61.8601 33.3158 62.8599 34.3558 63.9399 35.3058C67.7299 38.6458 71.38 42.1258 74.36 46.4858C73.76 46.8858 73.24 47.4558 72.63 47.6058C69.36 48.3958 66.06 49.0158 62.79 49.8158C60.4 50.3958 58.02 51.0558 55.71 51.8858C54.93 52.1658 53.8399 53.0458 53.8099 53.6958C53.7099 56.0058 52.02 57.3158 50.95 59.0058C47.75 64.0858 44.48 69.1258 41.25 74.1858C41.14 74.3558 41.15 74.5858 41.05 74.7558C40.1301 76.2558 38.56 77.2058 37.04 77.1858C36.21 77.1758 35.31 75.4858 34.59 74.4458C32.72 71.7758 31.55 68.7458 30.84 65.6158C30.19 62.7758 28.57 60.4358 27.51 57.8158C27.13 56.8958 26.6999 56.6258 25.4299 56.9158C22.7299 57.5258 20.02 58.0958 17.13 57.9458C14.24 57.7958 11.29 58.5758 8.37 58.9558C6.67 59.1758 4.92002 59.7158 3.27002 59.5058C2.12002 59.3658 1.09 58.2058 0 57.4958C1.4 57.2758 0.50002 55.9758 1.02002 55.3258C3.03002 52.7858 4.62998 49.9558 6.47998 47.2958C8.17998 44.8558 9.98003 42.4758 11.66 40.0258C12.15 39.3058 12.6 38.4458 12.72 37.6058C13.28 33.4058 13.14 29.1358 13.96 24.9458C14.79 20.7158 15.41 16.4458 16.05 12.1858C16.19 11.2158 16.1199 10.1858 15.9399 9.21579C15.7599 8.21579 15.91 7.43579 16.61 6.68579C17.26 5.98579 17.41 6.53579 18.04 6.78579C20.46 7.76579 23.06 8.31579 25.61 8.93579C27.7 9.44579 29.8499 9.73579 31.9299 10.2658C34.3899 10.8858 36.83 11.5658 38.73 13.4458C38.96 13.6758 39.48 13.8858 39.74 13.7858C41.28 13.1958 43.41 14.4658 44.45 12.6458C45.6 10.6158 47.58 9.69579 49.27 8.40579C52.02 6.31579 54.64 3.99579 57.98 2.76579C58.49 2.57579 58.84 1.94579 59.28 1.54579C59.86 1.00579 60.3799 0.21579 61.0599 0.0457901C61.7499 -0.14421 62.59 0.305789 63.47 0.505789Z" fill="#D8B06C"/>
</svg>
