<svg width="141" height="142" viewBox="0 0 141 142" fill="none" xmlns="http://www.w3.org/2000/svg">
<path d="M33.5446 110.086C26.7312 119.162 20.55 127.606 14.0527 135.912C12.5951 137.796 10.1016 139.185 7.13386 141.564C6.92313 134.055 4.20127 127.702 6.8002 121.143C10.0664 112.919 13.1044 104.641 16.5111 96.4585C17.6701 93.6944 17.5296 91.5079 14.597 89.6377C10.3474 86.9149 6.08022 84.2059 1.84816 81.4693C0.496015 80.5892 -1.33027 79.7366 1.46183 78.4165C1.84816 78.224 1.67254 77.0826 1.49694 76.4225C0.618916 72.8058 0.583834 72.8746 4.93881 73.1634C9.97864 73.4934 15.0184 73.6859 19.9529 73.9335C23.9918 65.1737 27.6092 56.3453 32.1749 47.8331C34.9319 42.69 37.4958 37.6432 37.9699 32.0325C38.005 31.5237 38.7074 31.0562 39.445 30.1211C43.3082 35.4567 47.0135 40.2697 44.9765 46.5817C44.0106 49.5658 43.3083 52.8386 47.751 55.0801C48.6642 55.5339 48.8046 57.1566 48.9451 58.2705C49.63 63.7023 50.1743 69.1617 50.8065 74.5936C50.8416 74.9511 51.228 75.2949 51.8075 76.23C56.7244 72.077 60.9213 67.3602 68.2966 65.9576C70.1581 67.7865 68.6303 69.3405 67.4537 70.7844C63.45 75.7074 60.6403 81.263 54.6522 85.1547C51.5265 87.19 51.5089 90.1878 51.5265 93.1719C51.5441 96.0735 51.1226 98.975 50.8943 101.863C50.7889 103.045 50.4378 104.242 50.5958 105.397C51.3685 111.214 52.2992 117.017 53.1245 122.834C53.1772 123.178 52.8962 123.563 52.6503 124.278C44.1862 121.638 38.602 116.591 33.5446 110.086ZM42.2546 64.2112C41.5698 63.6886 41.2537 63.4548 40.9376 63.2211C40.4108 63.8124 39.8664 64.4037 39.4098 65.0362C39.3747 65.0912 40.2176 65.6551 40.2703 65.6138C40.9727 65.2013 41.5873 64.7062 42.2546 64.2112Z" fill="#D8B06C"/>
<path d="M112.243 53.8093C109.333 60.3922 106.726 66.4893 103.896 72.5587C103.264 73.9326 101.89 75.1891 100.372 77.1175C99.0388 72.6754 96.284 69.3533 96.8997 64.9948C97.6768 59.5293 98.2991 54.0701 99.1727 48.6051C99.473 46.7576 99.0342 45.4776 96.86 44.8655C93.7072 43.971 90.5453 43.0878 87.4016 42.1821C86.3962 41.8893 85.092 41.6942 86.6673 40.4275C86.8837 40.2464 86.5892 39.5958 86.3716 39.2322C85.2329 37.2258 85.2214 37.2729 88.0532 36.6975C91.3296 36.0292 94.5841 35.2788 97.78 34.5794C98.9658 28.6614 99.871 22.7747 101.433 16.9139C102.376 13.3731 103.211 9.92282 102.619 6.49501C102.56 6.1855 102.935 5.78607 103.257 5.10172C106.58 7.62091 109.718 9.85556 109.422 13.97C109.281 15.9156 109.354 17.9882 112.553 18.5625C113.21 18.6764 113.558 19.6201 113.826 20.2604C115.131 23.3826 116.35 26.5454 117.621 29.6766C117.701 29.8839 118.003 30.0226 118.523 30.4808C121.005 27.1598 122.937 23.626 127.431 21.5233C128.914 22.2947 128.184 23.4838 127.662 24.5469C125.887 28.1706 124.976 31.9665 121.766 35.3156C120.092 37.0661 120.559 38.8571 121.046 40.6339C121.521 42.3616 121.714 44.1645 122.029 45.9261C122.15 46.6496 122.116 47.4235 122.402 48.0853C123.824 51.4221 125.345 54.7236 126.802 58.0513C126.89 58.2473 126.772 58.5253 126.729 58.994C120.893 58.8722 116.516 56.8206 112.243 53.8093ZM110.494 24.9522C109.973 24.7581 109.733 24.6729 109.494 24.5877C109.251 25.0308 108.997 25.477 108.806 25.9326C108.793 25.9715 109.422 26.1631 109.449 26.1294C109.832 25.7628 110.146 25.362 110.494 24.9522Z" fill="#D8B06C"/>
</svg>
