<svg width="81" height="114" viewBox="0 0 81 114" fill="none" xmlns="http://www.w3.org/2000/svg">
<path d="M40.7379 0.0299988C41.3379 1.99 43.3379 3.31 43.2779 5.61C43.2679 6.01 45.058 5.41 44.178 6.73C43.488 7.76 45.4679 7.54 44.9979 8.71C44.7579 9.31 45.5979 10.32 45.8779 11.17C45.9879 11.51 45.8979 11.91 45.8979 12.28C45.9179 13.38 45.1179 14.72 47.0379 15.22C47.3979 15.31 47.2879 16.77 47.6079 17.5C48.2079 18.9 48.9579 20.25 49.6579 21.61C50.1679 22.6 50.8679 23.51 50.2279 24.74C50.0979 24.98 50.3679 25.48 50.5379 25.82C51.0079 26.8 51.4879 27.77 52.0179 28.72C52.4079 29.42 52.798 30.15 53.328 30.75C54.178 31.7 55.1379 32.54 56.4879 33.85C59.0379 33.14 62.1379 32.28 65.2379 31.41C66.4979 31.06 67.7379 30.6 69.0179 30.32C71.8679 29.69 74.728 29.14 77.588 28.56C78.788 28.32 79.898 29.42 79.328 30.54C78.278 32.61 77.798 34.94 76.058 36.74C74.608 38.24 73.6979 40.26 72.5179 42.03C70.2679 45.41 68.1479 48.9 65.6679 52.11C64.5979 53.49 64.248 55 63.698 56.5C63.578 56.83 63.5279 57.8 64.5179 57.21C64.6479 57.46 64.8779 57.72 64.8779 57.97C64.8979 61.09 66.9879 63.47 67.8479 66.29C68.7379 69.19 69.868 72.01 70.958 74.85C71.358 75.89 71.9479 76.86 72.4179 77.87C72.5779 78.22 72.7279 78.93 72.6679 78.96C70.5879 79.86 73.3179 81.16 72.4079 82.13C72.3979 82.15 72.7179 82.63 72.8679 82.62C74.1079 82.54 73.9979 83.56 74.2779 84.26C75.1579 86.48 76.218 88.58 77.448 90.66C79.188 93.58 80.7579 96.73 80.9179 100.42C78.8479 101.35 76.818 101.59 74.708 100.84C74.318 100.7 73.9179 100.58 73.5179 100.52C69.9279 99.94 66.938 97.98 63.688 96.55C58.788 94.39 54.6379 91.1 49.9879 88.6C47.2279 87.12 44.498 85.61 41.578 84.02C39.948 85.9 38.2779 87.7 36.7579 89.61C34.1579 92.86 31.368 96.02 29.198 99.54C27.198 102.78 25.0879 105.84 22.2679 108.39C20.4579 110.03 18.588 111.61 16.688 113.14C15.428 114.16 14.5079 113.73 13.9779 112.2C12.7979 108.8 12.148 105.31 12.448 101.73C12.678 99.02 13.328 96.34 13.578 93.63C13.888 90.33 13.9379 87.01 14.1679 83.7C14.2579 82.38 14.568 81.07 14.698 79.74C14.778 78.86 14.6879 77.97 14.7279 77.09C14.8779 73.62 15.078 70.15 15.188 66.68C15.208 66.19 14.948 65.5 14.578 65.22C13.178 64.19 11.6279 63.37 10.2379 62.34C7.36789 60.2 4.5079 58.03 1.7479 55.74C-0.712097 53.69 -0.462058 52.72 1.78794 50.6C3.98794 48.53 6.71789 47.92 9.35789 46.96C12.9279 45.65 16.508 44.35 20.088 43.04C21.288 42.6 22.928 42.51 23.578 41.65C24.848 39.98 25.6679 37.93 26.4879 35.95C28.2379 31.74 29.8579 27.48 31.5379 23.24C32.3879 21.09 33.2879 18.97 34.1379 16.82C35.7279 12.77 37.3379 8.74 38.8479 4.66C39.4079 3.15 39.7179 1.56 40.1479 0C40.3279 0.03 40.5279 0.0299988 40.7379 0.0299988Z" fill="#EBC483"/>
</svg>
