<svg width="121" height="117" viewBox="0 0 121 117" fill="none" xmlns="http://www.w3.org/2000/svg">
<path d="M72.5299 30.7094C70.6387 31.9421 68.7394 33.1676 66.84 34.4003C67.1607 35.2553 67.432 35.9821 67.7691 36.8727C65.2942 36.3098 64.102 38.1196 62.293 38.654C61.8572 38.7823 61.2159 38.6326 60.9363 38.8606C57.3349 41.7748 52.3439 42.0954 48.2409 44.0406C45.6919 45.2448 43.3074 46.6983 40.8736 48.0236C41.3094 50.6955 43.7103 52.4768 44.5326 54.992C45.289 57.3362 47.024 59.4381 48.3725 61.7181C43.3979 62.6943 39.9938 60.7562 36.6719 57.8064C32.5114 66.663 26.3117 74.237 23.7134 83.0936C22.5129 82.3384 21.5591 81.7398 20.3669 80.9988C20.1449 82.146 19.9722 83.0295 19.7831 84.0128C18.78 84.0128 17.8755 84.0128 16.5353 84.0128C16.0748 81.8325 15.5979 79.5453 15.1046 77.1869C14.4632 77.0087 13.7479 76.8163 13.0654 76.624C12.9421 76.3461 12.827 76.111 12.7447 75.8616C11.8896 73.3678 14.8332 70.988 13.0654 68.4158C12.9832 68.2947 14.2412 67.6605 14.5372 67.1261C16.3873 63.7844 18.1386 60.4071 20.0874 56.7163C15.9433 57.4858 12.3665 58.7256 8.52664 59.1673C4.05365 59.6803 4.08654 59.8727 0 58.013C0.493345 56.9656 0.970235 55.9183 1.48002 54.878C1.76781 54.2866 1.93224 53.3532 2.4338 53.1751C4.90875 52.2987 4.75252 50.097 4.53874 48.7788C4.30029 47.2897 5.15545 46.5772 5.6488 45.4015C6.26548 45.5939 6.81636 45.7578 7.63861 46.0143C8.08262 42.1524 12.5145 42.3805 15.1046 40.6063C16.5682 41.3829 17.3822 40.307 18.4593 39.794C19.6516 39.2169 20.9836 38.8749 22.2252 38.3619C23.0392 38.027 23.7874 37.5781 24.8152 37.0579C20.6711 30.4672 19.2076 23.0499 14.0439 16.4377C15.5239 16.4377 16.4612 16.2026 17.0862 16.4876C18.5662 17.1645 19.8983 18.0908 21.7483 19.1809C22.1348 20.1713 22.7185 21.6391 23.4997 23.6413C23.7463 21.9526 23.9272 20.7342 24.1245 19.3662C26.1555 20.4563 28.0631 21.1974 29.5431 22.3516C31.0807 23.5558 32.2154 25.1518 33.6543 26.7193C35.7182 23.7909 38.0533 21.1332 39.558 18.162C41.0216 15.2763 41.6301 12.0629 43.2663 9.11308C43.2088 9.6546 43.143 10.2032 43.0526 11.0012C43.8255 11.1295 44.8039 11.2934 45.7413 11.4573C46.21 12.241 46.6704 13.0034 47.1309 13.7729C47.246 14.7633 47.3529 15.7609 47.4927 16.9864C50.5103 14.9771 49.9429 11.9916 51.2339 9.64747C50.3047 10.1462 49.5811 10.7661 49.2194 11.5143C48.8082 12.3693 48.6931 13.3312 47.3858 13.5521C47.6736 12.2624 47.8215 10.93 48.282 9.6831C49.1125 7.43155 50.0745 5.2085 51.1023 3.01395C51.5956 1.9523 52.3603 0.990397 52.9935 0C55.2629 0.847894 54.6462 2.40119 54.6791 3.62671C54.7613 7.33892 55.0573 11.1224 51.9492 14.3928C52.4179 15.2906 52.9195 16.2382 53.2977 16.9508C52.7386 17.8414 52.4261 18.7321 51.7601 19.3021C50.3787 20.4777 52.1794 21.9882 50.8638 23.3349C49.9923 24.2184 50.3376 25.9356 49.9018 27.2181C49.4414 28.5648 48.7013 29.833 47.9695 31.3578C50.8967 32.0276 53.1332 30.8235 55.419 30.3959C59.1274 29.6977 62.737 28.5933 66.4206 27.7739C67.2182 27.5957 68.2543 27.7596 69.0272 28.066C70.2688 28.5505 71.3788 29.2773 72.5463 29.9043C72.5299 30.1679 72.5299 30.4387 72.5299 30.7094Z" fill="#D8B06C"/>
<path d="M98.1143 75.5484C97.2066 76.5215 96.2936 77.4909 95.3814 78.4648C95.6552 78.9803 95.8871 79.4186 96.1739 79.9553C94.7411 79.8371 94.2852 81.1111 93.3444 81.6296C93.1177 81.7542 92.746 81.7212 92.617 81.8943C90.9523 84.11 88.2267 84.8028 86.1754 86.4477C84.9006 87.4669 83.7448 88.6295 82.5473 89.7149C83.0893 91.3811 84.6184 92.2857 85.3565 93.8139C86.0391 95.2392 87.2357 96.4139 88.2386 97.7403C85.5959 98.8507 83.4941 97.9439 81.3239 96.382C80.0189 102.453 77.4412 107.902 77.0007 113.82C76.2514 113.455 75.6563 113.165 74.9131 112.808C74.9194 113.563 74.9234 114.145 74.9294 114.792C74.3744 114.89 73.8739 114.979 73.1323 115.11C72.632 113.76 72.1106 112.344 71.5721 110.884C71.1972 110.833 70.7797 110.78 70.3804 110.723C70.2809 110.558 70.1907 110.419 70.1171 110.267C69.3632 108.756 70.724 106.946 69.4562 105.474C69.3971 105.404 70.0218 104.876 70.1254 104.505C70.7729 102.187 71.3617 99.8563 72.0244 97.3054C69.818 98.2025 67.9785 99.3449 65.9035 100.003C63.4862 100.768 63.5261 100.888 61.0555 100.098C61.2105 99.3796 61.3565 98.6632 61.5214 97.9481C61.6141 97.5417 61.6 96.9287 61.8575 96.7658C63.1283 95.9635 62.7939 94.5707 62.5272 93.7485C62.2276 92.8195 62.6206 92.2802 62.7612 91.4801C63.1241 91.5429 63.4473 91.5939 63.9312 91.6776C63.7421 89.1644 66.22 88.8771 67.4534 87.4894C68.3507 87.8431 68.68 87.0754 69.2183 86.6421C69.813 86.1565 70.5115 85.8076 71.1408 85.3582C71.5535 85.0645 71.917 84.7042 72.4271 84.2712C69.392 80.4611 67.747 75.8604 64.1454 72.1363C64.9643 71.9917 65.4565 71.7497 65.8343 71.8709C66.7295 72.1592 67.5709 72.6214 68.7173 73.1378C69.0426 73.7334 69.5309 74.6151 70.1886 75.8192C70.1349 74.7152 70.0978 73.9183 70.053 73.0241C71.2995 73.5228 72.4385 73.8103 73.3874 74.4039C74.3738 75.0237 75.1813 75.9336 76.154 76.7955C76.9663 74.7209 77.9592 72.7931 78.4572 70.7458C78.9422 68.7573 78.917 66.6427 79.4903 64.5963C79.5194 64.9482 79.5448 65.3055 79.5846 65.8247C80.0267 65.8312 80.5866 65.8404 81.1237 65.8536C81.4713 66.3091 81.8119 66.7517 82.1533 67.1988C82.3285 67.821 82.5 68.4485 82.7153 69.2186C84.1588 67.6387 83.5088 65.7848 83.9591 64.1595C83.5012 64.5693 83.1706 65.0364 83.0546 65.5502C82.9234 66.1372 82.968 66.7636 82.2695 67.0326C82.2835 66.1797 82.2154 65.3132 82.3298 64.4707C82.5358 62.9496 82.8178 61.4339 83.1394 59.9299C83.2929 59.2028 83.6077 58.5129 83.8466 57.8176C85.1977 58.1381 85.0314 59.1918 85.1876 59.9723C85.651 62.3384 86.2408 64.7291 84.8893 67.1244C85.2497 67.6528 85.6339 68.2098 85.9234 68.6285C85.7143 69.2528 85.6417 69.8529 85.3374 70.2825C84.7054 71.1694 85.8718 71.9595 85.2955 72.9493C84.9127 73.5995 85.2971 74.6639 85.2004 75.5268C85.0972 76.433 84.8306 77.3164 84.5973 78.3631C86.2924 78.5054 87.3944 77.5167 88.611 77.02C90.5843 76.211 92.4573 75.152 94.4033 74.268C94.8246 74.0761 95.4163 74.0797 95.8785 74.2001C96.6201 74.3886 97.3161 74.745 98.0327 75.0319C98.0533 75.2021 98.0838 75.3752 98.1143 75.5484Z" fill="#D8B06C"/>
<path d="M104.467 5.11286C103.977 5.98367 103.963 6.9874 103.875 7.95742C103.602 11.0327 103.389 14.1205 103.107 17.2017C102.989 18.4948 102.783 19.7727 102.57 21.0433C102.481 21.5938 102.429 22.1012 102.579 22.6484C102.821 23.5174 102.588 24.34 102.413 25.1151C101.668 25.5616 100.942 25.9302 100.249 26.415C98.4932 27.6483 96.6045 27.9301 94.6699 27.9144C94.0752 27.9097 93.4805 27.9049 92.8654 27.8982C92.8548 28.4896 92.8465 28.9614 92.8449 29.4339C92.8432 30.1792 93.0795 30.5817 93.624 30.708C95.9008 31.2629 98.0607 32.279 100.12 33.718C100.295 33.8416 100.46 34.0108 100.618 34.186C101.041 34.6532 101.422 35.1363 101.975 35.4166C102.575 35.7214 102.95 36.5435 103.257 37.3656C104.071 39.5351 104.079 41.8789 104.182 44.2122C104.266 46.0042 104.37 47.7917 104.446 49.5831C104.48 50.3985 104.675 51.0831 105.258 51.606C105.522 49.8344 105.796 48.1039 106.038 46.3634C106.27 44.6421 106.444 42.8951 106.696 41.1824C106.889 39.9031 107.175 38.6596 107.414 37.3916C107.483 37.0255 107.586 36.6628 107.607 36.2855C107.647 35.4906 107.852 34.9514 108.453 34.6971C108.799 34.5512 109.109 34.242 109.424 33.9731C110.478 33.0575 111.689 32.8761 112.88 32.5928C114.566 32.1915 116.265 31.8779 117.954 31.5301C118.537 31.4139 118.717 30.9388 118.421 30.2443C118.229 29.7929 117.945 29.5722 117.562 29.4816C116.439 29.219 115.326 28.924 114.205 28.6416C112.695 28.2613 111.292 27.552 110.007 26.3617C109.572 25.9598 109.048 25.7423 108.629 25.3219C107.242 23.9353 106.475 21.9567 105.913 19.8117C105.701 18.9989 105.538 18.1643 105.369 17.329C105.147 16.1957 104.96 15.0459 104.731 13.912C104.419 12.3504 104.545 10.7652 104.514 9.19125C104.493 8.02429 104.541 6.85075 104.547 5.67984C104.548 5.48689 104.501 5.2893 104.475 5.0937L104.467 5.11286Z" fill="#D8B06C"/>
</svg>
