<svg width="23" height="26" viewBox="0 0 23 26" fill="none" xmlns="http://www.w3.org/2000/svg">
<path d="M13.7516 0.87646C14.1945 1.96317 14.6486 2.91175 14.9665 3.8971C15.5361 5.65224 16.0203 7.42918 16.5445 9.19658C16.677 9.6411 16.704 10.0834 17.2756 10.3652C17.6587 10.5566 17.8095 11.1485 18.1376 11.4997C18.8871 12.3023 19.7258 13.0267 20.4453 13.8508C21.1003 14.6014 21.6429 15.4451 22.3005 16.3338C20.759 16.8002 19.3818 17.3315 17.8268 17.1075C17.6805 17.088 17.4315 17.1601 17.3805 17.2636C17.0641 17.9165 16.4262 17.7864 15.8678 17.8585C15.4726 17.9111 15.0827 18.0053 14.6888 18.0097C13.7875 18.0269 13.4068 18.6197 13.035 19.2728C12.3165 20.5427 11.5586 21.7914 10.8359 23.06C10.5893 23.4914 10.2897 23.8707 10.2215 24.4247C10.1226 25.2523 9.33831 25.6604 8.17 25.7043C7.93965 25.1891 7.81581 24.6145 7.47767 24.2071C6.51906 23.0421 6.21396 21.7376 6.22602 20.3205C6.23258 19.4196 6.04791 18.4806 6.24187 17.6298C6.4299 16.8126 5.99569 16.5343 5.46525 16.2389C4.15027 15.5018 2.8113 14.7969 1.48579 14.0786C1.36735 14.0147 1.23542 13.9644 1.13172 13.883C-0.0542952 12.9563 -0.448759 12.0531 1.22063 11.2684C2.41798 10.707 3.6652 10.2365 4.88309 9.71255C6.3433 9.07895 7.98298 8.69661 8.98738 7.38391C9.92353 6.15596 10.7606 4.8614 11.6019 3.56816C12.0065 2.94306 12.2683 2.22873 12.6956 1.61961C12.8945 1.31043 13.3257 1.15845 13.7516 0.87646Z" fill="#EBC483"/>
</svg>
