<svg width="119" height="95" viewBox="0 0 119 95" fill="none" xmlns="http://www.w3.org/2000/svg">
<path d="M11.6327 51.1758C9.26992 54.3232 7.12638 57.2513 4.87322 60.1316C4.36778 60.785 3.50305 61.2666 2.4739 62.0916C2.40082 59.4879 1.45693 57.2847 2.35819 55.01C3.49087 52.1582 4.54437 49.2874 5.72576 46.45C6.12768 45.4914 6.07896 44.7332 5.06199 44.0847C3.5883 43.1404 2.10851 42.201 0.640911 41.252C0.172009 40.9468 -0.461314 40.6511 0.506939 40.1933C0.640911 40.1266 0.580007 39.7307 0.519111 39.5018C0.214629 38.2476 0.202464 38.2715 1.71269 38.3716C3.46042 38.4861 5.20814 38.5528 6.91932 38.6387C8.31994 35.601 9.5744 32.5394 11.1577 29.5875C12.1138 27.804 13.0029 26.0538 13.1673 24.1082C13.1795 23.9317 13.4231 23.7696 13.6788 23.4453C15.0185 25.2956 16.3035 26.9647 15.5971 29.1536C15.2621 30.1884 15.0186 31.3234 16.5592 32.1007C16.8759 32.258 16.9246 32.8208 16.9733 33.207C17.2108 35.0907 17.3996 36.9839 17.6188 38.8676C17.631 38.9916 17.765 39.1108 17.9659 39.4351C19.671 37.9949 21.1264 36.3592 23.6841 35.8728C24.3296 36.507 23.7998 37.0459 23.3918 37.5466C22.0033 39.2539 21.029 41.1805 18.9525 42.53C17.8685 43.2358 17.8624 44.2754 17.8685 45.3102C17.8746 46.3164 17.7284 47.3227 17.6493 48.3241C17.6127 48.7342 17.4909 49.1491 17.5457 49.5497C17.8137 51.5669 18.1364 53.5793 18.4227 55.5965C18.4409 55.7157 18.3435 55.8493 18.2582 56.0972C15.323 55.1816 13.3865 53.4315 11.6327 51.1758ZM14.6532 35.2672C14.4157 35.0859 14.3061 35.0049 14.1964 34.9238C14.0138 35.1289 13.825 35.3339 13.6667 35.5533C13.6545 35.5723 13.9468 35.7679 13.965 35.7536C14.2086 35.6105 14.4218 35.4388 14.6532 35.2672Z" fill="#D8B06C"/>
<path d="M38.8517 31.6599C37.8426 33.9428 36.9386 36.0572 35.957 38.1619C35.7379 38.6384 35.2616 39.0741 34.735 39.7428C34.2728 38.2024 33.3174 37.0503 33.531 35.5389C33.8005 33.6435 34.0163 31.7504 34.3192 29.8552C34.4233 29.2145 34.2712 28.7707 33.5172 28.5584C32.4238 28.2482 31.3274 27.9419 30.2372 27.6278C29.8885 27.5263 29.4362 27.4587 29.9825 27.0194C30.0576 26.9566 29.9555 26.7309 29.88 26.6049C29.4851 25.9091 29.4811 25.9254 30.4631 25.7259C31.5994 25.4941 32.728 25.2339 33.8362 24.9914C34.2474 22.9391 34.5614 20.8977 35.1031 18.8653C35.4301 17.6374 35.7195 16.4409 35.5142 15.2522C35.4939 15.1448 35.6238 15.0063 35.7357 14.769C36.8879 15.6426 37.9761 16.4176 37.8736 17.8444C37.8244 18.5191 37.8497 19.2378 38.9593 19.437C39.187 19.4765 39.3079 19.8037 39.4007 20.0258C39.8532 21.1085 40.276 22.2053 40.7168 23.2912C40.7444 23.363 40.8491 23.4111 41.0294 23.57C41.8903 22.4184 42.5603 21.1929 44.1187 20.4637C44.6328 20.7312 44.3799 21.1436 44.1988 21.5123C43.5831 22.7689 43.2673 24.0852 42.1543 25.2467C41.5736 25.8537 41.7356 26.4748 41.9046 27.091C42.069 27.6901 42.1361 28.3153 42.2453 28.9262C42.2873 29.1771 42.2756 29.4455 42.3746 29.675C42.8679 30.8321 43.3955 31.977 43.9004 33.131C43.9311 33.199 43.8901 33.2954 43.8751 33.4579C41.8515 33.4157 40.3335 32.7042 38.8517 31.6599ZM38.2453 21.6528C38.0645 21.5855 37.9814 21.556 37.8984 21.5264C37.8142 21.6801 37.7262 21.8348 37.6599 21.9928C37.6552 22.0063 37.8734 22.0727 37.8828 22.0611C38.0157 21.9339 38.1247 21.7949 38.2453 21.6528Z" fill="#D8B06C"/>
<path d="M80.1023 0.34375C80.5982 0.92823 81.0866 1.51272 81.59 2.08989C81.7328 2.25793 81.9432 2.54289 82.0784 2.52097C83.0026 2.37485 83.1679 3.06161 83.476 3.61687C84.3175 5.14382 85.2041 6.64883 85.9931 8.1977C86.8346 9.85616 87.5635 11.5658 88.3675 13.2389C89.0136 14.5832 89.8702 15.8471 90.0054 17.3887C91.403 19.3321 91.7937 21.7065 92.8757 23.7887C93.5069 25.0088 93.9051 26.3458 94.4536 27.6171C94.6865 28.1577 95.0397 28.6545 95.3252 29.1513C97.0158 28.6107 98.5111 27.8289 100.119 27.2737C101.547 26.7769 102.847 25.9294 104.252 25.3522C105.604 24.797 106.776 23.7522 108.444 23.9933C108.925 24.0663 109.286 23.0289 110.022 23.5988C110.541 22.3275 111.232 23.9421 111.803 23.5038C111.848 23.6426 111.976 23.8472 111.923 23.9129C111.525 24.3951 111.743 24.6581 112.201 24.9138C112.299 24.965 112.329 25.3595 112.284 25.3814C111.367 25.7979 111.78 26.5358 112.126 26.8646C113.118 27.7997 112.652 28.5741 112.314 29.6189C111.427 32.3733 109.917 34.8646 109.023 37.597C108.302 39.7815 107.377 41.8711 105.957 43.7049C105.506 44.2894 105.807 44.6692 106.092 44.9615C108.001 46.9341 109.218 49.2867 110.308 51.7342C110.503 52.1725 110.751 52.6182 111.082 52.9543C111.563 53.4438 112.043 53.8894 112.073 54.6346C112.081 54.8538 112.231 55.1022 112.389 55.2776C113.832 56.8556 114.696 58.8064 115.943 60.5014C116.747 61.5973 117.153 63 118.558 63.7087C118.903 63.884 119.031 64.7681 118.994 65.3087C118.949 65.8567 118.1 66.1708 117.296 66.0612C116.995 66.0247 116.702 65.9078 116.409 65.8201C115.056 65.4256 113.689 65.053 112.344 64.622C111.54 64.3662 110.728 64.5343 110.037 64.7827C108.858 65.2064 107.806 64.8046 106.731 64.5854C105.897 64.41 105.108 64.0448 104.312 63.7525C103.673 63.5187 103.087 63.8621 103.117 64.5123C103.147 65.1991 103.327 65.8859 103.335 66.5726C103.342 67.106 103.681 67.7854 102.801 68.0996C102.659 68.1507 102.599 68.9982 102.734 69.0713C103.44 69.4512 103.042 69.9626 102.989 70.4083C102.764 72.2786 102.516 74.149 102.26 76.0193C102.14 76.896 102.471 77.7289 102.268 78.6567C101.765 80.9362 101.471 83.2669 101.103 85.5755C100.983 86.3135 100.908 87.0513 100.795 87.7892C100.675 88.5637 100.547 89.3381 100.382 90.098C100.292 90.4998 100.111 90.8797 99.9687 91.2669C99.8936 91.4788 99.8034 91.6833 99.7208 91.8952L99.2474 93.5172C98.8191 93.6779 98.3834 93.8459 97.8724 94.0359C97.8349 93.6852 97.8799 93.2614 97.7296 92.9108C97.6244 92.655 97.1661 92.5382 97.0609 92.2824C96.9331 91.961 97.121 91.4934 96.9557 91.2231C96.7528 90.8943 96.2945 90.7263 95.994 90.4413C94.9721 89.4842 94.2958 88.2861 93.6346 87.0806C92.8156 85.6048 92.0042 84.129 91.2077 82.6532C89.9303 80.286 88.6529 77.9116 87.3906 75.5298C87.1953 75.1572 87.0225 74.77 86.8722 74.3754C86.0382 72.1836 84.7834 70.211 83.6713 68.1507C82.7622 66.4703 81.3946 65.0676 80.9213 62.8977C79.4786 64.5123 78.2839 65.7982 77.1418 67.1279C75.7968 68.6914 74.4444 70.2402 72.9416 71.6722C71.8521 72.7097 70.8603 73.8494 69.7558 74.8942C68.5761 76.0047 67.1636 76.7061 65.8411 77.5828C65.1724 78.0285 64.3985 78.3572 63.587 78.138C62.9558 77.97 62.3923 77.5901 61.8138 77.3052C62.0016 76.8668 62.8131 77.4951 62.6403 76.4357C62.4749 75.4202 62.1217 74.2586 62.7679 73.1115C63.2789 72.1983 63.2263 71.0001 63.6621 70.0357C64.5938 67.99 64.7291 65.7544 65.4278 63.6576C66.3971 60.7717 67.2762 57.8566 68.1704 54.9488C68.5311 53.7798 68.809 52.5963 69.1546 51.3177C67.1485 50.6602 65.1273 49.9807 63.1061 49.3305C61.0774 48.6803 59.0336 48.0592 56.9974 47.4163C56.2986 47.1971 55.6148 46.8464 54.9085 46.788C54.0444 46.7149 53.4659 46.5396 53.3607 45.5971C53.3307 45.3122 53.1277 45.0492 53 44.7788C53.3757 44.6327 54.0294 44.545 54.0896 44.3186C54.4878 42.8281 55.8027 42.1925 56.8997 41.44C58.1019 40.6217 59.4619 40.0226 60.7918 39.3943C63.3841 38.1669 65.9913 36.9833 68.5986 35.7852C68.7715 35.7048 68.9218 35.5806 69.0946 35.5368C70.3419 35.2372 71.5966 34.9596 72.8139 34.6746C72.7462 34.1121 72.6861 33.6518 72.626 33.1915C72.7237 33.1769 72.8514 33.1258 72.9191 33.1696C73.0167 33.228 73.0694 33.3523 73.2196 33.5641C73.2722 33.1258 73.4676 32.702 73.3324 32.4682C72.8515 31.65 73.0243 30.9047 73.2572 30.0645C73.6329 28.6837 73.9785 27.2737 74.0687 25.8563C74.2265 23.3358 75.1657 20.9759 75.5489 18.5065C75.8419 16.6142 76.4205 14.7731 76.7211 12.8809C77.2095 9.82696 77.6603 6.76573 78.5094 3.77758C78.6221 3.38305 78.6972 2.89354 78.5619 2.52824C78.3966 2.07526 78.4117 1.81227 78.7498 1.45428C79.0278 1.16204 79.1556 0.723676 79.3509 0.358376C79.5989 0.343764 79.8543 0.34375 80.1023 0.34375ZM73.6855 46.3423C74.3843 45.8455 74.0386 45.2318 73.7456 44.6327C73.7456 45.2245 73.7456 45.809 73.7456 46.4008C73.6103 46.62 73.4075 46.8245 73.3549 47.0656C73.3098 47.2702 73.43 47.504 73.4751 47.7305C73.5427 47.7232 73.6103 47.7158 73.678 47.7012C73.6855 47.241 73.6855 46.7953 73.6855 46.3423ZM83.8291 12.7932C84.0019 12.0918 83.6488 11.5366 83.2731 10.9959C83.2355 10.9375 83.0252 10.9302 82.935 10.974C82.8524 11.0178 82.7546 11.2078 82.7922 11.2589C83.1378 11.7703 83.5136 12.2598 83.8817 12.7566C83.6488 14.3128 84.5279 15.6425 84.821 17.0964C84.9863 17.9147 85.2342 18.711 85.4521 19.522C86.8121 20.0626 86.752 21.4581 87.2554 22.481C87.9993 23.9714 88.7357 25.5202 89.0512 27.1276C89.3743 28.786 90.0129 29.955 91.8087 30.5248C91.2001 29.0855 90.6291 27.7194 90.043 26.3531C89.502 25.0819 88.8333 23.8545 88.405 22.554C87.3455 19.3101 85.715 16.3074 84.3776 13.1804C84.3025 13.0051 84.0169 12.9174 83.8291 12.7932ZM83.6262 49.7981C82.98 50.7698 82.9425 50.894 83.3482 51.5296C83.6412 51.9898 83.9719 52.4209 84.3175 52.8447C85.5347 54.3789 86.9473 55.3871 89.0662 54.4593C89.224 54.3862 89.4419 54.452 89.6222 54.4155C91.2226 54.0648 92.9133 53.8821 93.9727 52.4136C94.108 52.2237 94.3259 51.9899 94.5363 51.9533C95.5807 51.7561 95.4078 50.7551 95.8436 50.156C95.8887 50.0903 95.8512 49.8711 95.7836 49.8346C95.6408 49.7542 95.4304 49.6812 95.3027 49.7323C95.0171 49.8419 94.7241 49.9953 94.5137 50.1999C93.8825 50.8428 93.0861 51.0036 92.2296 51.23C91.6435 51.3835 90.9296 51.0547 90.5915 51.42C89.9153 52.1433 89.0512 52.0191 88.2773 52.2967C87.4883 52.5817 87.0526 52.3844 86.6994 51.873C86.196 51.1351 85.5273 50.704 84.7158 50.3972C84.3326 50.2583 83.9869 50.0026 83.6262 49.7981ZM86.1734 35.4199C86.2936 36.1212 86.4364 36.6838 86.474 37.261C86.5867 38.7003 86.9098 40.0957 87.5259 41.4035C87.8415 42.0756 87.9167 42.7551 88.0143 43.4784C88.2548 45.3122 88.931 46.9633 90.5765 48.3003C90.7643 47.8766 91.0048 47.599 90.9747 47.3579C90.8169 46.0574 90.614 44.7642 90.3811 43.4784C89.9378 41.0747 88.8709 38.8683 87.9918 36.6034C87.6912 35.829 87.0675 35.5879 86.1734 35.4199ZM80.1023 40.3295C79.8543 41.6227 80.9212 42.5067 81.5599 43.5734C82.161 43.5076 82.5593 43.9898 83.0627 44.1213C83.8667 44.3259 84.6781 43.5514 84.5654 42.7624C84.4903 42.2363 84.4227 41.6884 84.1973 41.2135C83.6863 40.1322 83.0928 39.0583 82.0483 38.3642C81.1392 37.7578 80.245 38.2034 80.0948 39.292C80.0647 39.5843 80.1023 39.8911 80.1023 40.3295ZM94.0854 36.5084C92.748 36.5231 92.1919 37.0491 92.53 38.0062C92.9658 39.2336 93.5895 40.3952 94.7992 41.0674C95.0998 41.2354 95.6408 41.1624 95.9865 41.0163C96.257 40.8994 96.6401 40.4171 96.5725 40.2491C96.1817 39.2701 96.2795 38.1304 95.4229 37.2829C94.9796 36.8591 94.7467 36.2673 94.0854 36.5084ZM81.2294 6.9703C81.0265 8.35113 81.1016 8.47532 82.4991 9.4251C82.0107 8.47532 81.6201 7.72281 81.2294 6.9703ZM66.7051 71.2485C66.5323 71.906 66.3671 72.5709 66.1342 73.4549C67.3063 72.527 67.3062 72.527 66.7051 71.2485Z" fill="#D8B06C"/>
</svg>
