<svg width="55" height="47" viewBox="0 0 55 47" fill="none" xmlns="http://www.w3.org/2000/svg">
<path d="M25.7789 23.1002C25.7954 23.3595 25.9141 23.6999 25.7982 23.816C25.6104 24.0078 26.1322 24.3536 25.6242 24.386C25.6215 24.386 25.627 24.4859 25.627 24.5399C25.627 24.9964 25.638 25.4529 25.6187 25.9094C25.6021 26.32 25.5856 26.7333 25.511 27.1357C25.3399 28.0811 25.1273 29.0211 24.9451 29.9665C24.9175 30.1151 24.9782 30.2799 24.9782 30.4365C24.9782 30.6851 25.0307 30.9606 24.9396 31.174C24.6524 31.8411 24.669 32.5272 24.7021 33.2214C24.7159 33.497 24.7215 33.7806 24.6801 34.0507C24.6552 34.229 24.5724 34.4234 24.4564 34.5612C24.23 34.8286 23.965 35.0636 23.7662 35.2608C23.5619 35.2419 23.3079 35.1392 23.1782 35.2203C22.6923 35.5255 22.3554 35.277 22.002 35.0123C21.8889 34.9286 21.7757 34.8421 21.6763 34.7449C20.4588 33.5132 19.2605 32.2625 18.0237 31.047C16.9525 29.9936 15.8233 28.9995 14.7577 27.9407C14.2552 27.441 13.5981 27.0682 13.369 26.3146C13.2558 25.9445 12.9493 25.9229 12.6346 26.1336C11.8754 26.6387 11.1299 27.1709 10.3403 27.6274C9.49002 28.119 8.67006 28.6619 7.82525 29.1589C7.17921 29.5398 6.52213 29.9044 5.84573 30.2313C5.57793 30.3609 5.24939 30.3879 4.9457 30.4095C4.78833 30.4203 4.68894 30.3717 4.52881 30.5203C4.28586 30.7472 4.00429 30.5095 3.76686 30.369C3.51562 30.2178 3.61224 30.0125 3.65365 29.7856C3.86624 28.5836 4.04845 27.3788 4.24447 26.1741C4.26104 26.0661 4.29967 25.9607 4.32451 25.8554C4.68066 24.413 5.06719 22.976 5.38193 21.5228C5.52549 20.8556 5.43715 20.1317 5.62488 19.4807C5.87059 18.6217 5.5945 18.0059 4.99541 17.4386C4.89602 17.3441 4.79664 17.2171 4.76903 17.0902C4.61719 16.3798 4.08709 15.9044 3.67573 15.356C3.04626 14.5133 2.40299 13.6786 1.74039 12.8629C1.26829 12.2821 0.771338 11.7176 0.252304 11.1747C-0.0734729 10.8343 -0.11486 10.5561 0.313067 10.4372C0.713386 10.3265 0.87625 9.95373 1.25448 9.86189C1.61063 9.77546 1.94746 9.6242 2.30361 9.54046C3.33891 9.29466 4.35491 8.97322 5.45648 9.10558C6.14116 9.18661 6.84515 9.13258 7.54087 9.12718C8.44366 9.11908 9.33265 9.13799 10.1995 9.46482C10.5032 9.57827 10.887 9.53776 11.2266 9.49724C11.3977 9.47563 11.5551 9.26764 11.6545 9.57287C11.7346 9.52425 11.8726 9.48644 11.8836 9.42971C11.9941 8.80305 12.3116 8.33575 12.8361 7.94678C13.0984 7.7523 13.2447 7.40115 13.4325 7.11213C13.6561 6.76638 13.83 6.38281 14.0951 6.07218C15.3319 4.62166 16.5439 3.14954 18.0292 1.91782C18.6891 1.36948 19.2385 0.694195 19.9149 0C20.0557 0.32954 19.9673 0.699597 20.4063 0.780632C20.5747 0.813046 20.6355 1.25603 20.8122 1.45052C20.9778 1.63149 20.7707 2.17983 21.334 1.99075C21.345 1.98804 21.4167 2.07448 21.4057 2.10149C21.2621 2.54718 21.6072 2.8173 21.7895 3.14414C22.1539 3.80052 22.0076 4.53793 22.1373 5.22942C22.176 5.43741 22.2174 5.70213 22.3582 5.82638C22.6619 6.08839 22.7337 6.43954 22.7944 6.76638C23.0539 8.18718 23.711 9.49724 23.9512 10.9207C24.0423 11.461 24.1196 12.0039 24.1831 12.5495C24.2576 13.1924 24.4647 13.4382 25.0942 13.63C25.2212 13.6678 25.315 13.8137 25.4144 13.9163C25.4475 13.9487 25.4393 14.0433 25.4697 14.0514C25.7154 14.127 26.0384 13.8326 26.2151 14.1405C26.3697 14.4079 26.4967 14.5052 26.7617 14.2945C26.7893 14.2729 26.8887 14.2891 26.9191 14.3215C27.5265 14.9049 28.3712 14.9347 29.1001 15.2345C29.5032 15.3992 29.967 15.4965 30.0195 16.0799C30.0333 16.2393 30.2983 16.4446 30.4888 16.504C31.0465 16.6796 31.5131 16.9983 32.0045 17.2901C32.2751 17.4494 32.6229 17.4818 32.9239 17.6034C33.153 17.6952 33.3352 17.8951 33.1254 18.1139C32.968 18.2814 32.9073 18.3867 33.0315 18.5812C33.0426 18.5974 32.9183 18.7217 32.841 18.7622C32.4518 18.9729 32.0956 19.1836 31.9272 19.6428C31.8444 19.8724 31.6649 20.0911 31.2867 20.0749C30.8836 20.0587 30.7262 20.6125 30.2155 20.6017C29.9504 20.5963 29.6247 21.1446 29.4204 21.0933C28.9345 20.9717 28.9566 21.4363 28.6777 21.5336C28.0841 21.7442 27.532 22.0468 27.0019 22.3925C26.6181 22.6464 26.204 22.8571 25.7789 23.1002Z" fill="#EBC483"/>
<path d="M46.0762 40.9267C46.3943 40.2147 46.4728 39.4351 47.1091 38.9619C47.262 38.8493 47.3777 38.5789 47.4025 38.3671C47.4934 37.5785 48.0181 37.2135 48.5635 36.8575C48.7411 36.7448 49.0056 36.6862 49.0923 36.5195C49.5757 35.5821 50.4434 35.6182 51.2739 35.3613C51.0466 36.1725 51.0549 36.862 51.5631 37.4298C51.7118 37.5965 51.8275 37.912 52.1746 37.7047C52.2778 37.6416 52.5836 37.7723 52.6621 37.9029C53.2488 38.9349 53.7983 39.9939 54.3644 41.0439C54.385 41.0845 54.4346 41.1295 54.4304 41.1611C54.323 41.5802 54.9304 42.0263 54.4801 42.3553C54.2198 42.5445 53.7322 42.5581 53.4265 42.4274C52.9017 42.202 52.6415 42.202 52.563 42.896C52.534 43.1484 52.3687 43.3962 52.22 43.6126C51.9473 44.0091 49.5468 45.9559 49.1502 46.0685C49.0056 46.1091 48.6998 45.9919 48.6709 45.8838C48.58 45.5368 48.5304 45.1537 48.5717 44.8022C48.675 43.8198 48.6833 43.8334 48.014 42.9186C47.8735 42.7248 47.8611 42.4183 47.7867 42.166C47.6834 41.819 47.6628 41.3413 47.4397 41.1611C47.2165 40.9763 46.791 41.0845 46.4522 41.0529C46.3447 41.0304 46.2414 40.9808 46.0762 40.9267Z" fill="#EBC483"/>
</svg>
