<svg width="58" height="61" viewBox="0 0 58 61" fill="none" xmlns="http://www.w3.org/2000/svg">
<path d="M55.4376 19.5934C55.827 19.9762 56.2032 20.3722 56.6124 20.7287C56.7114 20.8145 58.0513 21.7979 57.9985 21.8243C57.6751 21.9827 57.2923 22.2798 57.0019 22.2071C55.7808 21.9167 55.2065 22.7814 54.5399 23.4744C53.6818 24.3721 54.6389 24.0949 55.0217 24.2467C55.1207 24.2863 55.1537 24.8275 55.1009 24.8473C53.8667 25.3225 52.6258 25.7912 51.3717 26.1938C50.243 26.5568 49.2926 27.7383 47.8669 26.9462C47.6953 26.8472 47.2267 27.3951 46.857 27.5073C45.9726 27.7779 44.7053 28.4379 44.2367 28.0881C43.1938 27.2961 42.4612 28.0485 41.7549 28.2399C39.5966 28.8406 37.1809 28.5303 35.2535 30.1078C34.9037 30.3916 34.1513 30.2794 34.3427 31.0121C34.4417 31.3817 34.9829 31.9955 35.1347 31.9427C37.029 31.2893 37.2138 32.7942 37.7155 33.8965C38.3425 35.2825 39.2798 36.629 39.5174 38.0811C39.8606 40.18 41.6955 41.6189 41.7285 43.8036C41.7351 44.0413 42.3819 44.2723 42.7384 44.5033C41.9529 44.9983 42.5404 45.3217 42.8902 45.6716C43.2796 46.061 43.7614 46.3976 44.0188 46.8596C44.1641 47.1236 43.9462 47.5923 43.8934 47.9685C43.5568 47.8101 43.174 47.7045 42.9034 47.4669C42.7054 47.2953 42.6526 46.952 42.5338 46.688C42.2235 46.9982 41.7747 47.2557 41.6295 47.6319C41.2335 48.6219 41.2401 48.6879 40.8771 48.2589C40.4019 47.7045 40.0124 47.084 39.59 46.4834C39.1214 45.8102 38.798 45.8234 38.2699 46.5692C38.1181 46.787 37.9993 47.0246 37.8673 47.2557C37.7815 47.0708 37.6561 46.8926 37.6165 46.7012C37.5241 46.292 37.4713 45.8828 37.4053 45.4669C37.0951 45.599 36.7914 45.7838 36.468 45.8234C36.336 45.8432 36.1182 45.566 36.0126 45.3811C34.6661 43.0974 33.1084 40.9193 32.3031 38.3385C32.0325 37.4805 31.1943 36.7544 31.0689 35.8964C30.8973 34.7083 30.3692 34.1803 29.2736 34.0417C29.4056 33.7314 29.531 33.4212 29.663 33.111C29.1547 33.012 28.6399 32.8206 28.1449 32.8602C27.9997 32.8734 27.8281 33.507 27.7951 33.8635C27.7687 34.1605 27.9403 34.4773 28.0261 34.7875C27.7027 34.6093 27.333 34.4773 27.0624 34.2397C26.871 34.0747 26.7984 33.7644 26.673 33.5202C26.5806 33.6984 26.4156 33.8767 26.4024 34.0615C26.3694 34.6093 26.3562 35.1637 26.3958 35.7116C26.475 36.8864 26.2968 37.7841 24.8975 38.1339C24.2177 38.3055 23.815 38.9326 23.683 39.8302C23.5378 40.7939 22.6732 41.6453 22.5082 42.609C22.4224 43.1106 21.3135 43.3944 22.1452 44.1799C22.33 44.3515 21.9801 45.2425 21.7029 45.7046C21.4323 46.16 20.9043 46.4636 20.5743 46.8992C20.2046 47.3877 20.0528 48.2457 19.604 48.4173C18.8845 48.6879 18.9043 50.6813 17.5314 49.3678C17.406 49.612 17.109 49.9882 17.175 50.074C18.2443 51.4073 16.7856 51.7703 16.284 52.4898C16.1322 52.305 15.9606 52.1333 15.8352 51.9353C15.7296 51.7637 15.6636 51.5657 15.5844 51.3809C15.4458 51.4865 15.2081 51.5789 15.1883 51.7043C15.1289 52.0211 15.1817 52.3644 15.1685 52.6878C15.1223 53.5788 15.5513 54.7273 13.9936 54.8197C13.9276 54.8263 13.8617 55.4005 13.8551 55.7108C13.8287 57.2091 13.2412 56.2058 12.8254 55.9484C12.7264 56.4368 11.4327 56.45 12.2907 57.3741C12.5283 57.6315 12.4954 58.1661 12.5152 58.5819C12.5218 58.7601 12.3634 58.9516 12.2776 59.1364C12.1389 58.912 12.0267 58.6743 11.8617 58.4763C11.7231 58.3179 11.5185 58.2123 11.3469 58.0869C11.3007 58.2915 11.2809 58.4961 11.2083 58.6875C10.9707 59.2948 11.8023 60.5885 10.5614 60.4498C9.34035 60.3112 9.94102 59.2882 10.2248 58.4961C10.3436 58.1661 10.0664 57.6513 9.88161 57.2619C9.53179 56.5226 9.11594 55.8164 8.74632 55.0903C8.4691 54.5491 8.38992 54.0937 9.18857 53.9155C9.44599 53.8561 9.88819 53.559 9.86179 53.46C9.53177 52.1466 10.3898 51.5459 11.1555 50.7011C11.8683 49.9222 12.0531 48.6813 12.5482 47.6781C12.7858 47.1963 14.1257 48.6087 13.9277 46.886C13.8682 46.3778 14.7527 45.7772 15.1619 45.1831C15.69 44.4175 16.1718 43.6188 16.68 42.8466C17.1354 42.1535 17.5777 40.9193 18.0859 40.8929C19.3796 40.8203 18.9175 39.4738 19.6766 39.1966C21.5907 38.5101 21.8349 36.2132 23.5312 35.2495C24.1517 34.8997 23.32 33.2496 24.9239 33.2232C25.2011 33.2166 25.7094 32.3916 25.683 31.9757C25.6302 31.1837 24.8447 31.4675 24.3761 31.5071C22.1518 31.6853 19.934 31.9295 17.7163 32.1473C17.6173 32.1605 17.5116 32.1803 17.4126 32.2134C16.8252 32.418 16.8516 33.5136 15.7559 33.144C15.1223 32.9262 14.2642 33.2958 13.5316 33.474C12.8386 33.639 12.1257 33.8172 11.4987 34.1407C9.36018 35.2297 6.918 35.2165 4.70027 36.0548C3.83562 36.3848 2.71358 36.2462 1.76313 36.0548C1.22849 35.9492 0.799466 35.2165 0.317637 36.1076C0.20543 35.8238 -0.0783948 35.4277 0.0206111 35.2759C0.291227 34.8403 0.693861 34.4707 1.10309 34.1407C1.3275 33.9625 1.92152 33.8437 1.91492 33.8239C1.46609 32.3388 3.06999 32.3388 3.52542 31.5467C4.00065 30.7217 4.30428 29.7976 5.55835 30.1474C5.60456 30.1606 5.84217 29.8438 5.80917 29.7382C5.71017 29.4412 4.94448 29.2168 5.69033 28.8868C5.87514 28.8075 6.3108 29.2102 6.58801 29.4478C6.77283 29.6062 6.8718 29.8636 7.01041 30.0814C7.08961 29.8966 7.25465 29.6986 7.24145 29.5204C7.14904 28.6227 7.30084 28.0155 8.4229 28.1805C9.55157 28.3455 10.4954 28.1145 11.3271 27.1706C11.7363 26.702 12.6142 26.5436 13.3072 26.4776C13.6702 26.4446 14.1653 26.8406 14.4491 27.1706C14.9375 27.7449 16.0794 27.8109 16.4226 27.1442C16.482 27.032 16.0926 26.6954 15.9078 26.4644C17.8021 26.7086 19.0034 24.7879 20.8647 24.8737C21.3795 24.9001 21.9075 24.6757 22.429 24.5701C22.3432 25.2235 22.627 25.8308 23.2606 25.5007C23.8745 25.1839 23.9206 24.0619 24.9173 24.0553C24.8645 23.679 24.9041 23.25 24.7325 22.9398C23.6764 20.9531 22.4488 19.0522 21.5115 17.0126C20.3234 14.4319 19.0033 11.8907 18.2311 9.13837C18.1057 8.69614 18.2311 8.19451 18.1189 7.74568C17.9473 7.05924 17.7097 6.3794 17.4192 5.72596C17.1684 5.16493 16.7856 4.6699 16.515 4.12206C16.4292 3.94385 16.416 3.65344 16.5018 3.48183C16.7658 2.92739 17.0958 2.40596 17.406 1.87793C17.9803 2.23435 18.6535 2.49177 19.1089 2.96039C20.066 3.95705 20.7459 5.29033 21.8415 6.06258C23.0362 6.90083 23.6434 7.75888 23.8084 9.21097C23.9206 10.168 24.3893 11.2901 25.0757 11.9369C26.2044 13.0062 26.5872 14.4187 27.3528 15.6464C27.5112 15.9038 27.7687 16.3724 27.6829 16.4648C25.914 18.3195 28.1581 18.3723 28.871 18.9268C29.7092 19.5802 30.0128 20.4184 30.4815 21.2699C30.7257 21.7055 30.7323 23.0718 31.5111 22.6296C32.4352 22.1015 34.5407 22.5306 34.1843 21.0257C33.7817 19.3294 35.973 20.0488 35.742 18.6099C35.61 17.7981 36.435 16.6958 37.0819 15.9434C37.7485 15.1711 38.7253 14.6629 39.5702 14.0425L41.5767 11.2967C41.6229 9.13837 42.5536 11.6531 42.8968 11.0459C42.8374 11.9105 43.2664 12.8742 41.8077 13.2372C41.2005 13.389 41.7153 14.7157 41.0025 15.4879C40.4744 16.0622 40.514 17.3493 40.6131 18.2865C40.7649 19.6726 39.3326 19.732 38.9563 20.6165C38.8771 20.8013 38.8837 21.0653 38.9563 21.2567C38.9959 21.3689 39.359 21.4943 39.3722 21.4745C40.0256 20.5703 41.1873 21.3359 41.7417 20.8871C42.5272 20.2534 43.1938 21.1115 43.4974 20.8937C44.5205 20.1412 46.0848 20.6495 46.8306 19.3624C46.8966 19.2502 47.3917 19.2106 47.4775 19.3162C47.6887 19.5604 47.8207 19.9036 47.8999 20.227C47.9461 20.4382 47.8405 20.6891 47.8075 20.9201C48.1045 20.8673 48.6457 20.8541 48.6589 20.7617C48.8306 19.5208 49.8338 19.2304 50.7183 18.6825C51.7677 18.0357 51.3321 18.8937 51.4971 19.237C51.5499 19.3426 52.0713 19.369 52.1043 19.2964C52.7116 17.9895 53.6224 18.841 54.3881 18.9994C54.7709 19.039 55.0943 19.3756 55.4376 19.5934ZM41.2203 21.3557C40.8771 21.6197 40.6197 21.8177 40.3688 22.0091C40.6659 22.2996 40.9761 22.8342 41.2599 22.821C41.5701 22.8078 41.8605 22.293 42.1575 21.9893C41.8803 21.8045 41.6097 21.6197 41.2203 21.3557ZM31.4781 23.4414C31.1019 23.5932 30.7322 23.7384 30.3626 23.8836C30.6398 23.9959 30.9171 24.2005 31.1877 24.1873C31.5771 24.1675 31.9533 23.9893 32.3427 23.8836C32.0787 23.7516 31.8147 23.613 31.4781 23.4414ZM21.0165 25.9166C20.9505 25.811 20.8053 25.5404 20.7723 25.5536C20.4356 25.6856 20.0594 25.811 19.835 26.0618C19.7492 26.1542 20.0198 26.5766 20.1254 26.8472C20.4159 26.5436 20.7063 26.24 21.0165 25.9166Z" fill="#D8B06C"/>
<path d="M53.4641 2.28703C53.8469 3.3893 53.101 3.72592 52.2364 3.99654C50.5929 4.49817 50.3355 6.39248 49.0154 7.20433C48.6722 7.41554 48.0649 7.77856 47.9461 7.67296C47.4247 7.19773 46.9033 6.93371 46.2036 7.05252L47.4379 4.41236C48.2563 3.73252 49.1276 3.11208 49.8669 2.35964C50.4675 1.7458 51.7084 1.81181 51.748 0.557731C51.7546 0.346519 52.4278 -0.0693077 52.6126 0.00989711C52.9624 0.161706 53.2924 0.570932 53.4244 0.947155C53.5697 1.34318 53.4641 1.81841 53.4641 2.28703Z" fill="#D8B06C"/>
<path d="M42.9034 11.012C43.5437 8.75466 44.5997 7.48738 46.2036 7.05176C46.2036 7.8174 46.1904 8.58305 46.2102 9.3487C46.2432 10.5896 45.7482 10.649 44.8506 10.0153C44.712 9.91633 44.3556 9.98893 44.1774 10.1011C43.7219 10.3652 43.3193 10.7018 42.9034 11.012Z" fill="#D8B06C"/>
<path d="M56.7511 19.5924C56.4211 19.5924 56.0911 19.6188 55.7677 19.5792C55.6423 19.5594 55.464 19.3812 55.4574 19.2624C55.4376 19.038 57.2527 18.51 57.4838 18.675C57.662 18.8004 57.8006 18.9786 57.9524 19.1304C57.7742 19.2822 57.6092 19.4868 57.4046 19.5726C57.2131 19.6518 56.9755 19.5924 56.7511 19.5924Z" fill="#D8B06C"/>
</svg>
