<svg width="31" height="33" viewBox="0 0 31 33" fill="none" xmlns="http://www.w3.org/2000/svg">
<path d="M24.9694 20.635C25.0186 20.8647 25.1693 21.1533 25.0817 21.2724C24.9405 21.4687 25.4499 21.7089 25.003 21.805C25.0006 21.8053 25.0187 21.8939 25.0259 21.9422C25.0866 22.3504 25.1571 22.757 25.2006 23.1677C25.2405 23.537 25.2807 23.9086 25.268 24.2783C25.2416 25.1461 25.1778 26.0146 25.1416 26.8839C25.1368 27.0204 25.2127 27.1597 25.2335 27.2997C25.2665 27.5219 25.3498 27.7613 25.2972 27.9641C25.1309 28.5985 25.2368 29.2097 25.3585 29.826C25.4074 30.0705 25.45 30.3233 25.4491 30.5703C25.4508 30.7329 25.403 30.9178 25.3183 31.0562C25.1528 31.3252 24.9486 31.5703 24.7983 31.7729C24.6143 31.7829 24.375 31.7247 24.2705 31.8143C23.8795 32.1514 23.5473 31.9737 23.1982 31.7837C23.0865 31.7238 22.9745 31.6615 22.8733 31.5876C21.628 30.6472 20.3974 29.6874 19.1372 28.764C18.0456 27.9637 16.9105 27.2242 15.8231 26.4183C15.3104 26.0379 14.6771 25.7914 14.3734 25.1479C14.2237 24.832 13.9486 24.8531 13.6971 25.0831C13.0898 25.635 12.4984 26.2091 11.8577 26.7216C11.1677 27.2734 10.5116 27.8671 9.82722 28.423C9.304 28.8488 8.76881 29.2617 8.21143 29.6432C7.99079 29.7945 7.70255 29.862 7.43567 29.9215C7.29732 29.9519 7.20257 29.9216 7.08008 30.0755C6.89444 30.3105 6.61273 30.1352 6.38315 30.0409C6.13988 29.9389 6.19841 29.7426 6.20503 29.5343C6.23407 28.4315 6.23578 27.3304 6.24975 26.2275C6.2501 26.1287 6.27041 26.0294 6.27847 25.9319C6.40307 24.5953 6.55539 23.2595 6.64177 21.9187C6.6806 21.3033 6.50589 20.6678 6.58611 20.061C6.69018 19.2606 6.36307 18.7464 5.7555 18.3184C5.65465 18.247 5.5495 18.1466 5.5081 18.0368C5.27878 17.4217 4.74471 17.0667 4.30642 16.6308C3.63525 15.9605 2.95289 15.2992 2.25589 14.6575C1.75933 14.2006 1.24286 13.7615 0.70964 13.3447C0.375019 13.0834 0.301271 12.8402 0.665585 12.6774C1.00645 12.5255 1.10157 12.1707 1.42533 12.0387C1.73019 11.9143 2.00928 11.7346 2.3145 11.6127C3.20146 11.2562 4.0612 10.8346 5.05728 10.8075C5.67624 10.7895 6.29439 10.6482 6.91166 10.5515C7.7125 10.425 8.50467 10.3245 9.31816 10.5022C9.603 10.5635 9.93848 10.4766 10.2347 10.3955C10.3839 10.3536 10.4961 10.1469 10.6249 10.4066C10.6896 10.3526 10.8072 10.3005 10.8094 10.2484C10.8242 9.67352 11.0441 9.2138 11.4584 8.79677C11.6655 8.58825 11.7488 8.25499 11.8771 7.9718C12.0298 7.63315 12.1333 7.26726 12.3274 6.95453C13.2332 5.49436 14.1141 4.01814 15.2697 2.72076C15.783 2.14338 16.1812 1.46708 16.6898 0.757102C16.8586 1.03313 16.8293 1.37564 17.23 1.39011C17.3839 1.39685 17.4968 1.78487 17.6796 1.93541C17.8508 2.07533 17.7398 2.5929 18.2149 2.34947C18.2244 2.3456 18.2996 2.4134 18.2934 2.43901C18.2251 2.85643 18.5676 3.05234 18.7729 3.32048C19.1838 3.85918 19.1519 4.53778 19.3591 5.13886C19.4211 5.3197 19.493 5.5509 19.6346 5.64339C19.9392 5.83752 20.0497 6.14198 20.1471 6.42617C20.5665 7.66214 21.3243 8.74659 21.7269 9.98753C21.8796 10.4585 22.0204 10.9337 22.1494 11.4131C22.3011 11.978 22.5177 12.1704 23.1023 12.2587C23.2201 12.2758 23.3229 12.3938 23.4248 12.4724C23.4586 12.497 23.4638 12.5826 23.4918 12.5859C23.7202 12.621 23.9679 12.3152 24.1658 12.5671C24.3387 12.7858 24.4644 12.8559 24.6718 12.6326C24.6935 12.6096 24.7839 12.611 24.8152 12.6359C25.4323 13.0773 26.1867 12.9923 26.8739 13.1641C27.2539 13.2582 27.6788 13.2838 27.803 13.7985C27.8364 13.9392 28.0991 14.0877 28.2762 14.1157C28.795 14.199 29.2518 14.4223 29.7271 14.6183C29.9886 14.725 30.3019 14.708 30.5854 14.777C30.8011 14.8288 30.9896 14.9834 30.8323 15.2068C30.7147 15.3773 30.6748 15.4795 30.811 15.6369C30.823 15.65 30.7291 15.7775 30.6658 15.8239C30.3481 16.0637 30.0597 16.2991 29.9712 16.7319C29.9281 16.9481 29.7978 17.1674 29.4597 17.2028C29.0995 17.2416 29.0333 17.7574 28.5782 17.8152C28.342 17.8454 28.1256 18.3787 27.9373 18.3598C27.4895 18.3153 27.5709 18.7277 27.3361 18.8515C26.8369 19.1183 26.3866 19.4617 25.9617 19.8408C25.6546 20.1185 25.3148 20.3615 24.9694 20.635Z" fill="#F2DFBF"/>
</svg>
