<svg width="123" height="125" viewBox="0 0 123 125" fill="none" xmlns="http://www.w3.org/2000/svg">
<g clip-path="url(#clip0_3127_24291)">
<rect width="122.72" height="124.4" fill="white"/>
<path d="M98.1199 47.3696C99.2099 65.4796 88.8499 81.8896 78.0299 95.5496C71.1599 104.68 64.3199 113.93 58.0699 123.42C56.0999 125.36 53.5099 124.12 52.7299 122.14C51.1699 118.19 49.4199 114.31 46.8599 110.91C-23.2101 17.8296 84.4399 -25.5504 98.1199 47.3696ZM79.6999 71.0396C90.0799 60.4296 89.5799 41.0296 82.0599 28.9296C70.0599 18.0796 49.4399 15.4896 39.2399 30.1496C19.7899 55.2896 54.1699 98.6096 79.6999 71.0396Z" fill="#EBC483"/>
<path d="M76.74 44.3299C77.09 44.2699 77.42 44.1999 77.21 44.5799C76.9 45.1399 76.54 45.6799 76.12 46.1699C74.74 47.8099 73.33 49.4099 71.93 51.0299C71.42 51.6299 70.89 52.2199 70.36 52.7899C70.08 53.0899 69.97 53.3299 70.23 53.7399C70.66 54.3999 70.53 55.1999 70.57 55.9299C70.66 57.5099 70.64 59.0899 70.6 60.6699C70.59 61.2199 70.37 61.7599 70.24 62.3099C70.18 62.5699 70.01 62.8299 70.05 63.0699C70.14 63.6399 69.76 63.9299 69.46 64.2799C69.18 64.5999 68.99 64.6699 68.78 64.1799C68.67 63.9399 68.2 63.9799 68.11 63.5599C68.09 63.4699 67.42 63.3699 67.33 63.4799C67.07 63.8299 66.88 63.7199 66.59 63.5699C65.9 63.2299 65.21 62.9199 64.56 62.4999C63.86 62.0399 63.05 61.7499 62.28 61.4099C61.53 61.0699 60.77 60.7399 60.02 60.4199C59.75 60.2999 59.47 60.1699 59.19 60.0899C57.57 59.6499 57.98 59.5799 57.06 60.7099C56.22 61.7299 55.41 62.7799 54.5 63.7399C53.67 64.6199 52.61 65.1599 51.44 65.4699C50.99 65.5899 50.62 65.6999 50.56 66.2499C50.56 66.3599 50.35 66.5299 50.23 66.5299C50.11 66.5299 49.93 66.3799 49.88 66.2599C49.58 65.4499 49.05 64.7199 49.17 63.7599C49.21 63.4399 48.91 63.0899 48.83 62.7399C48.48 61.2699 48.33 59.7699 48.43 58.2699C48.52 56.9299 48.79 55.6099 48.98 54.2699C49.05 53.7899 49.22 53.2699 48.5 53.1199C47.92 52.2099 47.34 51.2999 46.78 50.3799C46.05 49.1999 45.37 47.9799 44.59 46.8399C43.87 45.7899 43.62 44.6699 43.69 43.4299C43.71 43.1299 43.8 42.9899 44.11 43.0699C44.46 43.1599 44.65 43.0999 44.71 42.6699C44.76 42.2899 45.03 42.1399 45.45 42.0199C46.39 41.7399 47.26 41.2399 48.2 40.9599C49.33 40.6199 50.49 40.4099 51.65 40.1599C52.93 39.8799 54.22 39.6099 55.51 39.3799C55.85 39.3199 56.03 39.1899 56.16 38.8699C56.54 37.9599 56.93 37.0499 57.38 36.1699C57.63 35.6799 57.93 35.1999 58.31 34.8099C58.63 34.4799 58.86 34.1799 58.84 33.7099C58.82 33.3299 58.86 32.9699 59.4 32.9999C59.44 32.9999 59.57 32.7099 59.53 32.6099C59.36 32.2299 59.55 31.9899 59.75 31.6999C60.13 31.1699 60.47 30.5999 60.87 30.0799C61 29.9099 61.24 29.7899 61.45 29.7499C61.59 29.7299 61.78 29.8799 61.92 29.9899C62.28 30.2699 62.6 30.6399 62.99 30.8499C63.3 31.0199 63.64 31.3199 64.08 31.0399C64.33 30.8799 64.52 30.9899 64.6 31.2799C64.76 31.7999 65 32.3199 65.07 32.8499C65.18 33.6499 65.34 34.4099 65.73 35.1199C66.02 35.6599 66.26 36.2399 66.52 36.8099C66.55 36.8699 66.59 36.9399 66.58 36.9899C66.34 37.9199 67.16 38.5099 67.34 39.3199C67.57 40.3399 68.28 40.5799 69.41 40.4399C69.89 40.3799 70.39 40.4699 70.87 40.5599C72.23 40.8199 73.58 41.1099 74.93 41.3799C75.29 41.4499 75.64 41.5299 76.01 41.5499C76.68 41.5799 77.19 42.0199 77.77 42.2499C77.82 42.2699 77.82 42.4099 77.84 42.4899C77.56 42.5399 77.52 42.7099 77.59 42.9499C76.95 43.1199 77.02 43.7699 76.72 44.2899L76.74 44.3299Z" fill="#EBC483"/>
<path d="M14.9999 9.17969C17.6999 10.7397 19.2499 13.2997 20.0199 16.3397C20.2199 17.1097 19.3299 18.0797 18.6599 17.7097C15.9099 16.1897 14.1899 13.6497 13.0099 10.8497C12.6399 9.96969 13.6799 9.18969 14.9999 9.17969Z" fill="#EBC483"/>
<path d="M10.5599 35.3298C6.3599 37.7698 3.3599 37.6198 0.549896 35.4298C-0.0901045 34.9298 -0.240104 33.7598 0.469895 33.4298C3.8799 31.8698 6.5199 34.2598 10.5599 35.3298Z" fill="#EBC483"/>
<path d="M11.5699 54.5C11.6299 55.03 11.7299 55.26 11.6599 55.38C9.8299 58.1 7.3899 59.66 4.0099 59.21C3.2399 59.11 2.3399 58.26 2.8999 57.6C5.1899 54.94 8.3999 54.82 11.5699 54.5Z" fill="#EBC483"/>
<path d="M99.44 12.0196C98.34 11.8396 97.84 11.0396 98.25 10.1596C99.75 6.98958 101.29 3.82958 103.05 0.799581C103.6 -0.140419 105.48 -0.400419 105.76 0.799581C106.55 4.11958 103.75 6.36958 102.59 9.12958C102.01 10.4996 101.39 12.0596 99.43 12.0096L99.44 12.0196Z" fill="#EBC483"/>
<path d="M122.72 23.019C121.82 24.229 121.63 24.779 121.31 24.869C117.61 25.909 114.03 28.109 110.01 26.229C109.77 26.119 109.75 24.679 109.96 24.589C113.76 22.919 117.66 21.839 122.72 23.029V23.019Z" fill="#EBC483"/>
<path d="M114.69 41.8906C117.1 42.8106 119.65 43.8206 120.27 46.7606C120.54 48.0306 119.32 48.8406 118.11 48.2506C115.79 47.1106 113.03 46.2206 112.3 43.3806C111.91 41.8806 113.52 41.9906 114.69 41.8906Z" fill="#EBC483"/>
</g>
<defs>
<clipPath id="clip0_3127_24291">
<rect width="122.72" height="124.4" fill="white"/>
</clipPath>
</defs>
</svg>
