<svg width="123" height="125" viewBox="0 0 123 125" fill="none" xmlns="http://www.w3.org/2000/svg">
<path d="M98.1202 47.3755C99.2102 65.4855 88.8502 81.8955 78.0302 95.5555C71.1602 104.685 64.3202 113.935 58.0702 123.425C56.1002 125.365 53.5102 124.125 52.7302 122.145C51.1702 118.195 49.4202 114.315 46.8602 110.915C-23.2098 17.8355 84.4402 -25.5445 98.1202 47.3755ZM79.7002 71.0455C90.0802 60.4355 89.5802 41.0355 82.0602 28.9355C70.0602 18.0855 49.4402 15.4955 39.2402 30.1555C19.7902 55.2955 54.1702 98.6155 79.7002 71.0455Z" fill="#EBC483"/>
<path d="M76.7402 44.3357C77.0902 44.2757 77.4202 44.2057 77.2103 44.5857C76.9002 45.1457 76.5403 45.6857 76.1203 46.1757C74.7403 47.8157 73.3303 49.4157 71.9303 51.0357C71.4203 51.6357 70.8903 52.2257 70.3603 52.7957C70.0803 53.0957 69.9703 53.3357 70.2303 53.7457C70.6603 54.4057 70.5303 55.2057 70.5703 55.9357C70.6603 57.5157 70.6403 59.0957 70.6003 60.6757C70.5903 61.2257 70.3702 61.7657 70.2402 62.3157C70.1803 62.5757 70.0103 62.8357 70.0503 63.0757C70.1403 63.6457 69.7603 63.9357 69.4603 64.2857C69.1803 64.6057 68.9902 64.6757 68.7803 64.1857C68.6702 63.9457 68.2003 63.9857 68.1103 63.5657C68.0903 63.4757 67.4203 63.3757 67.3303 63.4857C67.0703 63.8357 66.8802 63.7257 66.5902 63.5757C65.9002 63.2357 65.2102 62.9257 64.5602 62.5057C63.8602 62.0457 63.0503 61.7557 62.2803 61.4157C61.5303 61.0757 60.7703 60.7457 60.0203 60.4257C59.7503 60.3057 59.4703 60.1757 59.1903 60.0957C57.5703 59.6557 57.9803 59.5857 57.0603 60.7157C56.2203 61.7357 55.4103 62.7857 54.5003 63.7457C53.6703 64.6257 52.6103 65.1657 51.4403 65.4757C50.9903 65.5957 50.6203 65.7057 50.5603 66.2557C50.5603 66.3657 50.3503 66.5357 50.2303 66.5357C50.1103 66.5357 49.9303 66.3857 49.8803 66.2657C49.5803 65.4557 49.0503 64.7257 49.1702 63.7657C49.2102 63.4457 48.9103 63.0957 48.8303 62.7457C48.4803 61.2757 48.3303 59.7757 48.4303 58.2757C48.5203 56.9357 48.7903 55.6157 48.9803 54.2757C49.0503 53.7957 49.2203 53.2757 48.5003 53.1257C47.9203 52.2157 47.3403 51.3057 46.7803 50.3857C46.0503 49.2057 45.3703 47.9857 44.5903 46.8457C43.8703 45.7957 43.6203 44.6757 43.6903 43.4357C43.7103 43.1357 43.8003 42.9957 44.1103 43.0757C44.4603 43.1657 44.6503 43.1057 44.7103 42.6757C44.7603 42.2957 45.0303 42.1457 45.4503 42.0257C46.3903 41.7457 47.2603 41.2457 48.2003 40.9657C49.3303 40.6257 50.4903 40.4157 51.6503 40.1657C52.9303 39.8857 54.2203 39.6157 55.5103 39.3857C55.8503 39.3257 56.0303 39.1957 56.1603 38.8757C56.5403 37.9657 56.9303 37.0557 57.3803 36.1757C57.6303 35.6857 57.9303 35.2057 58.3103 34.8157C58.6303 34.4857 58.8603 34.1857 58.8403 33.7157C58.8203 33.3357 58.8603 32.9757 59.4003 33.0057C59.4403 33.0057 59.5703 32.7157 59.5303 32.6157C59.3603 32.2357 59.5503 31.9957 59.7503 31.7057C60.1303 31.1757 60.4703 30.6057 60.8703 30.0857C61.0002 29.9157 61.2403 29.7957 61.4503 29.7557C61.5903 29.7357 61.7803 29.8857 61.9202 29.9957C62.2803 30.2757 62.6003 30.6457 62.9903 30.8557C63.3003 31.0257 63.6403 31.3257 64.0803 31.0457C64.3303 30.8857 64.5203 30.9957 64.6003 31.2857C64.7603 31.8057 65.0003 32.3257 65.0703 32.8557C65.1803 33.6557 65.3403 34.4157 65.7303 35.1257C66.0203 35.6657 66.2602 36.2457 66.5202 36.8157C66.5502 36.8757 66.5903 36.9457 66.5803 36.9957C66.3403 37.9257 67.1602 38.5157 67.3402 39.3257C67.5702 40.3457 68.2803 40.5857 69.4103 40.4457C69.8903 40.3857 70.3903 40.4757 70.8703 40.5657C72.2303 40.8257 73.5803 41.1157 74.9303 41.3857C75.2903 41.4557 75.6403 41.5357 76.0103 41.5557C76.6803 41.5857 77.1902 42.0257 77.7702 42.2557C77.8202 42.2757 77.8202 42.4157 77.8402 42.4957C77.5602 42.5457 77.5202 42.7157 77.5902 42.9557C76.9502 43.1257 77.0203 43.7757 76.7203 44.2957L76.7402 44.3357Z" fill="#EBC483"/>
<path d="M15.0002 9.18555C17.7002 10.7455 19.2502 13.3055 20.0202 16.3455C20.2202 17.1155 19.3302 18.0855 18.6602 17.7155C15.9102 16.1955 14.1902 13.6555 13.0102 10.8555C12.6402 9.97555 13.6802 9.19555 15.0002 9.18555Z" fill="#EBC483"/>
<path d="M10.5599 35.3357C6.3599 37.7757 3.3599 37.6257 0.549896 35.4357C-0.0901045 34.9357 -0.240104 33.7657 0.469895 33.4357C3.8799 31.8757 6.5199 34.2657 10.5599 35.3357Z" fill="#EBC483"/>
<path d="M11.5701 54.5059C11.6301 55.0359 11.7301 55.2659 11.6601 55.3859C9.83014 58.1059 7.39014 59.6659 4.01014 59.2159C3.24014 59.1159 2.34014 58.2659 2.90014 57.6059C5.19014 54.9459 8.40014 54.8259 11.5701 54.5059Z" fill="#EBC483"/>
<path d="M99.4402 12.0254C98.3402 11.8454 97.8402 11.0454 98.2502 10.1654C99.7502 6.99544 101.29 3.83544 103.05 0.80544C103.6 -0.13456 105.48 -0.39456 105.76 0.80544C106.55 4.12544 103.75 6.37544 102.59 9.13544C102.01 10.5054 101.39 12.0654 99.4302 12.0154L99.4402 12.0254Z" fill="#EBC483"/>
<path d="M122.72 23.0268C121.82 24.2368 121.63 24.7868 121.31 24.8768C117.61 25.9168 114.03 28.1168 110.01 26.2368C109.77 26.1268 109.75 24.6868 109.96 24.5968C113.76 22.9268 117.66 21.8468 122.72 23.0368V23.0268Z" fill="#EBC483"/>
<path d="M114.69 41.8965C117.1 42.8165 119.65 43.8265 120.27 46.7665C120.54 48.0365 119.32 48.8465 118.11 48.2565C115.79 47.1165 113.03 46.2265 112.3 43.3865C111.91 41.8865 113.52 41.9965 114.69 41.8965Z" fill="#EBC483"/>
</svg>
