<svg width="169" height="167" viewBox="0 0 169 167" fill="none" xmlns="http://www.w3.org/2000/svg">
<path d="M24.0357 36.63C23.6057 35.18 23.1857 34.07 22.9657 32.93C22.7657 31.89 21.9256 30.61 23.6856 29.98C23.7956 29.94 23.7556 29.3 23.6856 28.96C23.5056 28.13 22.9157 27.21 23.1257 26.51C23.5757 25.04 23.3657 23.79 22.6257 22.55C21.8257 21.21 23.3557 20.39 23.2657 19.16C24.7357 19.71 26.1557 20.18 27.3857 18.8C27.3957 18.79 31.7357 19.31 31.7557 19.32C34.2257 20.5 37.1456 20.59 39.3156 22.56C39.6356 22.85 40.6357 23.05 41.1657 23.09C44.8457 23.38 47.6957 25.44 50.6057 27.3C53.8257 29.36 56.8557 31.74 60.2257 33.56C61.3557 34.17 61.0257 35.44 61.6457 36.07C62.2957 36.73 63.7257 35.48 64.5257 36.65C64.9257 37.24 65.2557 37.88 65.6457 38.47C65.7957 38.71 66.0257 38.91 66.2157 39.12C68.3857 37.15 68.6857 39.95 69.7457 40.59C73.6157 42.94 76.4156 46.53 79.6856 49.59C80.8656 50.7 82.1356 51.73 83.4356 52.68C83.7856 52.93 84.4256 52.78 84.9356 52.81C84.9556 52.43 85.0057 52.04 84.9857 51.66C84.9557 51.15 84.6557 50.53 84.8457 50.14C85.9557 47.94 87.1757 45.79 88.3557 43.62C92.7257 35.54 98.4457 28.33 103.366 20.59C105.036 17.96 107.116 15.53 108.736 12.82C109.006 12.38 109.726 12.22 110.206 11.88C110.586 11.62 111.246 11.25 111.206 11C110.776 7.74 113.636 6.27 114.966 4C115.766 2.63 116.886 1.45 117.996 0C119.596 0.15 120.996 0.789995 121.386 2.87C121.466 3.28 122.036 3.57996 122.336 3.95996C122.666 4.37996 123.106 4.80998 123.206 5.28998C123.756 8.12998 124.206 11 124.716 13.85C124.936 15.09 125.216 16.31 125.516 17.8C130.846 13.95 135.456 9.77997 139.426 4.96997C140.746 3.36997 142.176 3.54999 143.746 3.92999C144.326 4.06999 145.126 4.58 145.246 5.06C145.756 7.17 147.676 8.47996 148.076 10.71C148.796 14.72 149.576 18.73 150.156 22.77C150.446 24.79 150.966 26.77 151.356 28.78C152.276 33.52 152.886 38.34 154.156 42.98C155.406 47.53 155.716 52.27 157.346 56.76C158.446 59.79 159.186 63.0299 159.496 66.2399C159.626 67.5799 159.336 68.9399 159.836 70.3599C160.426 72.0399 161.276 73.62 161.186 75.58C161.106 77.37 161.516 79.2499 162.026 80.9899C162.956 84.2199 162.896 87.55 163.386 90.82C163.716 93.04 164.146 95.2899 164.946 97.3699C166.646 101.76 166.956 106.39 167.626 110.95C167.956 113.19 168.486 115.43 168.426 117.74C168.396 118.94 168.406 119.73 166.796 119.89C165.186 120.05 165.136 120.46 165.186 122.45C165.196 122.84 165.076 123.44 164.816 123.59C162.476 124.9 160.976 127.14 159.026 128.87C157.096 130.58 155.456 132.63 153.656 134.49C153.086 135.08 152.466 135.62 151.806 136.1C149.466 137.8 147.096 139.45 144.756 141.14C143.976 141.71 143.206 142.3 142.486 142.95C139.836 145.33 136.896 147.32 134.096 149.49C129.876 152.76 124.696 154.44 120.686 157.99C117.696 158.93 115.706 161.63 112.586 162.49C111.336 162.83 109.806 163.86 109.146 164.9C107.906 166.87 106.276 166.83 104.496 166.7C103.766 166.65 102.996 166.33 102.356 165.95C99.3957 164.18 96.2157 163.03 92.8357 162.36C87.5657 161.31 83.0857 158.03 77.7257 157.06C75.5057 156.66 73.5057 155.13 71.3757 154.17C70.4957 153.77 69.5657 153.49 68.6457 153.2C63.0157 151.44 57.3457 149.78 51.7457 147.92C44.8957 145.65 38.0556 143.35 31.3156 140.78C27.5256 139.34 23.8357 137.52 20.3257 135.49C18.6757 134.53 16.6356 133.52 16.1956 131.2C16.0956 130.68 15.8256 130.17 15.8056 129.65C15.6856 124.24 14.5557 118.99 13.3657 113.74C12.6057 110.38 12.3357 106.91 11.8257 103.49C11.6957 102.65 11.4657 101.82 11.3257 100.98C10.8457 98.23 10.4857 95.45 9.88571 92.72C8.80571 87.8 7.49566 82.9299 6.45566 77.9999C5.70566 74.4399 5.24571 70.81 4.63571 67.22C4.28571 65.14 3.83571 63.0799 3.50571 60.9999C3.17571 58.8899 2.91575 56.78 2.67575 54.66C2.25575 50.91 1.78571 47.17 1.50571 43.41C1.31571 40.81 1.25569 38.23 0.115691 35.8C-0.134309 35.27 0.0956906 34.51 0.115691 33.86C0.135691 33.03 0.61571 32.71 1.38571 32.79C1.88571 32.84 2.4657 33.15 2.8757 33C7.6057 31.24 11.8257 33.23 16.1357 34.69C18.0657 35.34 20.0257 35.92 21.9957 36.47C22.5857 36.63 23.2457 36.57 24.0357 36.63ZM104.916 159.5C107.626 157.74 110.026 156.14 112.466 154.59C116.206 152.23 119.796 149.56 123.766 147.67C127.286 146 130.296 143.7 133.416 141.52C136.046 139.68 138.576 137.68 141.096 135.68C143.726 133.59 146.436 131.57 148.846 129.24C152.696 125.52 156.326 121.57 160.546 118.22C161.286 117.64 161.766 116.7 162.246 115.86C162.416 115.57 162.326 115.07 162.226 114.7C161.166 110.86 159.886 107.07 159.916 103.01C159.916 102.49 159.656 101.98 159.526 101.46C158.106 95.7 156.436 89.9199 156.216 83.9999C156.036 79.0799 154.316 74.52 153.956 69.66C153.716 66.44 152.666 63.2099 151.916 60.0099C150.026 51.9699 147.906 43.99 146.806 35.78C146.476 33.33 145.896 30.92 145.406 28.5C144.826 25.67 144.116 22.86 143.626 20.01C143.086 16.87 142.736 13.7 142.226 10.01C139.236 14.55 135.406 17.45 131.736 20.4C129.026 22.58 126.616 24.89 124.446 27.58C122.286 30.26 119.976 32.84 117.596 35.33C113.856 39.26 110.006 43.08 106.206 46.94C101.856 51.36 97.4156 55.69 93.1956 60.23C91.4156 62.15 89.7257 64.21 90.7957 67.41C91.6257 69.91 92.1656 72.66 92.3257 75.22C92.6357 80.1 93.2557 84.94 93.7557 89.8C94.0257 92.44 94.1857 95.09 94.4557 97.73C94.6457 99.56 94.9857 101.37 95.1657 103.2C95.4357 105.97 95.4957 108.76 95.8957 111.51C96.4157 115.11 97.1657 118.67 97.8357 122.25C98.2057 124.25 98.6657 126.23 98.9557 128.24C99.4957 131.97 99.8457 135.72 100.426 139.45C101.186 144.33 101.926 149.21 103.006 154.02C103.436 155.94 103.086 158.28 104.916 159.5ZM95.7457 155.67C95.5357 153.59 95.4157 151.64 95.1257 149.71C94.7557 147.28 94.1757 144.88 93.7957 142.46C93.2657 139.04 92.8457 135.6 92.3557 132.18C92.2057 131.11 91.9556 130.06 91.8156 128.99C91.4656 126.32 91.2456 123.64 90.8156 120.98C89.8556 115.03 88.4057 109.16 88.4757 103.05C88.5057 100.12 88.1856 97.1799 87.8156 94.2599C87.2756 89.99 86.5557 85.7499 85.9258 81.4899C85.6858 79.8899 85.2056 78.27 85.3156 76.69C85.6056 72.29 84.2757 68.1 83.9157 63.79C83.8457 62.91 83.2057 61.9899 82.6057 61.2599C81.6357 60.0799 80.5357 59.01 79.3957 57.99C78.8557 57.51 78.1357 57.17 77.4456 56.96C73.9557 55.91 70.4356 54.94 66.9356 53.9C61.2756 52.22 55.6357 50.5 49.9857 48.81C48.5557 48.38 47.1057 48.02 45.6657 47.6C42.0657 46.56 38.4957 45.44 34.8757 44.49C30.5157 43.34 26.1057 42.4 21.7557 41.23C16.7557 39.87 11.7957 38.35 6.66574 36.86C6.38574 39.92 7.09571 42.62 7.75571 45.33C8.0057 46.37 8.48563 47.48 8.30563 48.46C7.89563 50.68 8.49569 52.81 8.61569 54.96C8.82569 58.68 10.0857 62.25 10.4657 65.95C10.6057 67.25 10.3557 68.69 10.8357 69.82C11.7357 71.92 11.9957 74.14 12.5357 76.31C13.6057 80.58 14.7057 84.84 15.6657 89.14C16.4857 92.79 17.1357 96.48 17.8257 100.16C18.2157 102.26 18.4257 104.4 18.9157 106.48C19.7257 109.94 19.8057 113.53 20.9257 116.95C21.3857 118.34 21.4857 119.84 22.0057 121.3C22.6857 123.19 22.7657 125.3 22.9857 127.33C23.1257 128.54 23.3357 129.8 24.4757 130.29C28.7357 132.13 33.0957 133.76 37.3457 135.62C39.8157 136.71 42.4257 137.28 44.9657 138.12C51.6457 140.32 58.2757 142.66 64.9157 144.94C65.3257 145.08 65.7257 145.35 66.1357 145.36C68.9157 145.42 71.2957 146.74 73.7557 147.75C76.4457 148.85 78.9857 150.45 81.7657 151.14C86.4657 152.31 90.5257 155.15 95.7457 155.67ZM118.446 7.95001C117.546 8.76001 116.986 9.09998 116.646 9.59998C113.016 14.93 109.096 20.1 105.926 25.69C103.486 30 100.366 33.81 97.7257 37.96C94.3157 43.32 91.4157 48.94 88.1557 54.36C87.6657 55.17 88.0557 55.62 88.7057 55.86C89.0857 56 89.6957 55.92 90.0157 55.69C90.5057 55.33 90.7757 54.66 91.2557 54.29C95.4957 51 98.8557 46.89 102.206 42.76C102.546 42.34 102.786 41.77 103.226 41.51C107.256 39.07 109.736 35.03 113.036 31.85C116.096 28.9 118.486 25.26 121.126 21.97C119.786 19.31 119.436 16.59 119.306 13.77C119.216 11.99 118.796 10.23 118.446 7.95001ZM27.1657 22.87C27.5657 26.41 27.9257 29.5 28.2457 32.6C28.4057 34.15 28.4657 35.7 28.5757 37.25C29.9857 37.53 31.4156 37.74 32.8056 38.12C33.7156 38.36 34.5356 39.09 35.4356 39.17C39.9556 39.59 44.1657 41.25 48.5457 42.24C54.3057 43.54 59.9857 45.19 65.5057 47.36C66.4457 47.73 67.5857 47.59 68.6357 47.69C65.3757 44.72 62.0757 42.12 58.6357 39.74C53.1357 35.93 47.5457 32.25 41.9857 28.53C41.5357 28.23 41.0556 27.96 40.5556 27.77C36.1656 26.14 31.7557 24.54 27.1657 22.87Z" fill="#1D3D6C"/>
<path d="M55.4258 118.6C55.3358 117.9 55.3757 117.38 55.1857 116.95C54.9357 116.39 54.6057 115.61 54.1357 115.45C49.9257 114.06 47.6957 110.35 45.0657 107.34C41.2457 102.96 38.0357 98.0403 34.7457 93.2303C33.3457 91.1803 31.5357 89.2002 31.7457 86.3902C31.7557 86.2202 31.7658 85.9802 31.6658 85.8802C29.2358 83.3302 30.2557 80.3902 30.9457 77.6302C31.2457 76.4202 32.4157 75.4203 33.1857 74.3303C33.6857 74.8503 34.0757 74.9102 34.2657 74.5002C34.3857 74.2402 34.4457 73.8202 34.6357 73.7502C37.5857 72.6102 40.3756 71.0402 43.5556 73.7002C45.8156 75.5902 48.7657 76.6602 50.5157 79.2402C51.7157 81.0102 53.1957 82.5902 53.8757 84.6902C53.9957 85.0702 54.4157 85.3503 54.7157 85.7103C55.9057 83.8503 56.9657 81.9802 58.2257 80.2702C59.6157 78.3902 60.9857 76.3902 62.7657 74.9402C64.7557 73.3202 67.1657 72.0502 69.9557 73.4302C70.2457 73.5702 70.6557 73.6203 70.8157 73.8503C72.0357 75.6503 73.2957 77.4303 74.3457 79.3303C75.0157 80.5403 75.3056 81.9502 75.8056 83.2502C77.1956 86.8702 76.7057 90.3303 75.2557 93.8503C73.6657 97.7303 71.1357 100.81 68.0857 103.62C65.5257 105.98 63.8456 109.07 62.1856 112.12C60.6957 114.93 58.7958 117.32 55.4258 118.6ZM43.1557 95.0002C44.4757 96.9302 45.5857 98.5602 46.7057 100.18C46.9257 100.08 47.1357 99.9902 47.3557 99.8902C47.0757 98.8102 46.8957 97.6802 46.4757 96.6602C46.2157 96.0302 45.6657 95.4202 45.0857 95.0402C44.7157 94.8102 44.0657 95.0002 43.1557 95.0002ZM43.4457 78.4703C43.2457 78.6403 43.0557 78.8103 42.8557 78.9803C43.5657 79.5903 44.2857 80.2003 45.0157 80.8303C45.0857 80.5903 45.2458 80.3003 45.1758 80.2203C44.6258 79.6103 44.0257 79.0503 43.4457 78.4703Z" fill="#1D3D6C"/>
</svg>
