<svg width="44" height="57" viewBox="0 0 44 57" fill="none" xmlns="http://www.w3.org/2000/svg">
<path d="M24.037 34.9554C22.7563 38.855 21.7396 42.25 20.5254 45.5794C19.3785 48.739 18.049 51.8287 16.7721 54.9355C16.5622 55.4504 16.2577 55.9472 15.9096 56.3796C15.4587 56.9469 15.0002 56.7824 14.5517 56.2336C14.0419 55.603 15.0523 54.4117 13.7286 54.1599C13.645 53.3856 13.471 52.6081 13.4993 51.834C13.5236 51.2277 13.7393 50.6086 13.9676 50.0341C15.1389 47.0406 16.3481 44.0684 17.5329 41.0776C18.0197 39.8429 18.4862 38.6044 18.9338 37.3553C19.1418 36.7769 19.2903 36.1802 19.4659 35.5886C19.1536 35.5011 18.9787 35.3906 18.8928 35.4374C15.412 37.5491 11.8874 39.5963 8.47635 41.8196C6.77484 42.9285 5.30287 44.376 3.68878 45.6139C3.35387 45.8662 2.83889 45.8876 2.4085 46.0164C2.31475 45.6263 2.06024 45.1987 2.15172 44.865C2.55372 43.3403 3.05702 41.835 3.54363 40.2703C2.45742 40.499 1.38694 40.8291 0.295454 41.3799C0.786552 40.6376 1.27212 39.8873 1.7809 39.1625C1.87808 39.0194 2.15032 38.8395 2.25451 38.8804C3.56102 39.48 3.70489 38.3557 4.04741 37.5852C4.35961 37.8202 4.77258 37.7091 4.97205 37.5434C5.57176 37.0395 6.40555 36.7768 6.5645 35.8309C6.59157 35.6886 6.71861 35.7198 7.35486 36.3113C7.4677 36.4171 7.75455 36.5278 7.75713 36.5143C8.28494 35.6526 9.26722 35.4181 10.0245 34.8951C10.9199 34.2718 11.9203 33.795 12.5279 32.8081C12.6995 32.5317 13.0601 32.2914 13.3789 32.1975C15.7946 31.4913 17.1486 29.3402 19.2553 28.161C18.4181 26.6393 17.6956 25.287 16.9436 23.9431C14.0109 18.7223 11.0689 13.5138 8.14295 8.29434C7.67308 7.45356 7.68914 7.44256 8.33225 6.19553C9.42676 6.91638 10.5425 7.59913 11.5997 8.36906C12.1588 8.77739 12.7376 9.26671 13.0879 9.85301C14.3906 12.0179 15.6048 14.2433 16.8511 16.4467C16.6013 17.9441 18.0222 18.5304 18.6297 19.5308C19.9568 21.7144 20.7344 24.2851 22.8319 26.0605C24.9073 20.8163 26.9127 15.6079 29.0237 10.4337C30.0826 7.84723 32.2842 3.00626 34.7133 0.905178C34.8997 2.02209 35.0687 3.0093 35.2324 3.98846C34.2058 4.56564 34.7084 5.7497 34.2195 6.59068C33.7412 7.41262 33.7184 8.48972 33.407 9.42767C32.8666 11.0173 32.2533 12.586 31.6737 14.1611C31.5749 14.4232 31.594 14.7639 31.4244 14.9564C29.5517 17.1493 29.8302 20.3202 27.9093 22.546C27.2538 23.3062 27.2169 24.6404 26.9958 25.729C26.9533 25.9526 27.0482 26.6308 27.7322 26.1991C29.3857 25.1584 31.0788 24.1673 32.7542 23.1587C34.8964 21.8668 37.0319 20.5736 39.1728 19.2885C39.8207 18.8991 40.4783 18.5327 41.2002 18.1222C41.1795 18.5256 41.1726 18.8192 41.1577 19.1183C41.4745 18.9609 41.809 18.8209 42.104 18.6312C42.2797 18.5172 42.402 18.3157 42.5436 18.1601C42.6934 18.329 42.9117 18.4689 42.993 18.6669C43.3085 19.4362 43.1555 20.1304 42.5307 20.6927C41.0735 21.9886 39.6775 23.3311 37.9246 24.2687C34.9557 25.8598 32.0564 27.5625 29.1232 29.2236C29.0601 29.2607 28.9971 29.2979 28.9463 29.3444C26.1433 31.8659 26.078 31.1793 28.2445 34.0634C28.9594 35.014 29.5363 36.0647 30.1682 37.0838C32.9024 41.5084 35.63 45.9317 38.3642 50.3564C38.5146 50.5956 38.7795 50.8216 38.7965 51.0636C38.8201 51.4543 38.7743 51.9161 38.576 52.2225C38.4682 52.3845 37.9514 52.3424 37.6407 52.2833C35.5999 51.9021 34.2499 50.5006 33.168 48.9044C31.1092 45.8583 29.1792 42.7243 27.1848 39.6342C26.2649 38.2162 25.3034 36.8325 24.037 34.9554Z" fill="#FF9737"/>
</svg>
