<svg width="77" height="82" viewBox="0 0 77 82" fill="none" xmlns="http://www.w3.org/2000/svg">
<path d="M0.381483 12.4562C1.13883 12.8365 1.73109 13.0835 2.54184 12.9205C3.18753 12.7871 3.974 13.202 4.65852 13.4736C7.08592 14.4466 9.61527 14.9702 12.1835 15.3554C12.3194 15.3752 12.4651 15.3208 12.5864 15.306C13.6885 11.3696 14.7857 7.46286 15.8586 3.5561C15.9896 3.08195 16.145 2.50408 15.9945 2.08427C15.7032 1.27921 15.9896 0.735914 16.5722 0C16.9606 0.518597 17.3101 0.977928 17.6451 1.4422C17.9073 1.79781 18.15 2.16329 18.4122 2.5189C18.4947 2.63744 18.6549 2.72634 18.684 2.84982C19.0142 4.3167 19.4705 5.77865 19.5967 7.2653C19.7424 8.97914 20.0094 10.6485 20.4269 12.308C20.6697 13.2711 20.7085 14.2836 20.8493 15.2714C20.9707 16.1111 21.3299 16.4667 22.029 16.1358C24.0631 15.1727 26.4177 15.4196 28.3936 14.3083C28.515 14.2392 28.7043 14.1849 28.816 14.2293C30.0103 14.7133 31.0249 13.9922 32.1027 13.7255C32.4377 13.6416 32.7727 13.4341 33.0979 13.4588C33.4038 13.4786 33.8164 13.6564 33.9524 13.8984C34.0689 14.1058 33.9572 14.6788 33.7728 14.7874C33.0882 15.1825 33.1659 15.9975 32.729 16.5161C32.6222 16.6396 32.7581 16.9458 32.7144 17.1532C32.6416 17.5187 32.6318 18.0175 32.394 18.22C30.7239 19.6474 29.5345 21.4847 28.1557 23.164C27.1459 24.3938 26.1022 25.6631 24.8448 26.5917C23.5194 27.5647 23.6311 28.7303 23.8981 29.97C24.4855 32.6815 25.1749 35.3732 25.806 38.0749C26.1556 39.5763 26.5925 41.0778 26.7575 42.604C26.8644 43.5868 26.8255 44.5697 27.0683 45.5624C27.2188 46.1699 26.7721 46.8021 26.1022 47.1923C23.7719 45.8193 21.8203 44.056 20.4221 41.6162C19.5385 40.0703 18.3588 38.6972 17.1985 37.092C15.5916 39.2998 14.0138 41.2754 12.6544 43.3992C11.8874 44.6043 11.4844 46.0514 10.9115 47.3899C10.5862 48.1505 10.1979 48.8518 9.25606 49C9.11041 48.5012 8.93077 47.9875 8.81425 47.459C8.73658 47.1133 8.11514 47.7109 8.24622 47.0639C8.31419 46.7231 8.24136 46.3527 8.24136 45.9971C8.24136 43.7597 8.17828 41.5223 8.27538 39.2899C8.33364 37.907 8.62009 36.5339 8.83855 35.1658C9.01333 34.0743 9.24148 32.9926 9.4211 31.9011C9.45023 31.7184 9.38225 31.4912 9.28516 31.3282C7.64909 28.5772 6.58592 25.51 4.70226 22.8973C3.77499 21.6082 2.86231 20.2895 2.10496 18.8917C1.34761 17.5088 0.731002 16.0321 0.172701 14.5504C-0.128296 13.7305 -0.0214645 13.686 0.381483 12.4562Z" fill="#FF9737"/>
<path d="M63.9513 69.3247C63.1648 70.5379 61.9926 71.2087 61.4366 72.4269C60.8555 73.6994 59.8786 74.7302 58.8567 75.613C58.2105 76.1753 57.0884 76.2098 56.1066 76.5008C55.7208 75.5736 55.5305 74.7252 55.5706 73.8128C55.6157 72.8363 55.786 71.8893 55.6257 70.8684C55.5155 70.168 55.8711 69.226 56.337 68.6342C57.8849 66.6515 59.5731 64.7724 61.2162 62.8588C61.3064 62.7503 61.4766 62.7059 61.662 62.6023C60.8304 61.177 59.528 60.1659 58.3859 59.0266C57.1986 57.8429 55.9262 56.7332 54.6538 55.6383C54.0326 55.1056 53.8623 54.5088 54.1078 53.6605C55.2449 53.7394 56.3821 53.7838 57.4441 54.3066C57.5343 54.351 57.6194 54.425 57.7146 54.4497C60.0439 55.0316 60.4497 55.2782 62.0227 56.9749C62.3233 57.3004 62.724 57.5371 63.1798 57.8972C63.1798 56.0822 63.2049 54.4053 63.1748 52.7333C63.1348 50.218 63.0546 47.6977 62.9945 45.1824C62.9895 45.0344 62.9745 44.8421 63.0546 44.7385C63.265 44.4574 63.5005 44.0381 63.771 44.0036C64.0415 43.9642 64.5024 44.2551 64.6426 44.5215C65.5794 46.2576 66.7215 47.8999 66.7165 50.0256C66.7115 51.9836 66.9219 53.9417 67.0571 56.1857C67.9739 55.2191 68.7103 54.3806 69.5168 53.6063C70.714 52.4571 71.9213 51.3178 73.1887 50.2377C73.9751 49.5669 74.937 49.493 75.9789 49.8629C75.7335 51.229 75.5131 52.5262 75.0522 53.8282C74.3058 55.9293 72.7529 57.4089 71.4805 59.1055C70.5487 60.3434 69.4717 61.4729 68.5149 62.5776C69.5919 63.4408 70.7641 64.2595 71.781 65.2261C73.0184 66.4049 74.1605 67.6724 75.5731 68.6736C75.8587 68.8759 75.9338 69.5959 76.1442 69.6107C76.5951 69.6453 77.1912 69.7044 76.9407 70.1187C76.5349 70.7944 76.9458 71.8992 75.8086 72.2C75.0222 72.4072 74.2006 72.4417 73.4292 72.7278C73.2839 72.782 73.0133 72.6834 72.8731 72.565C71.7509 71.6575 70.6539 70.7204 69.5368 69.808C69.1611 69.4973 68.7554 69.2211 68.2244 68.8265C68.2494 73.2555 68.9057 77.5118 68.4197 82C67.1173 81.1517 65.9551 80.5648 65.925 78.9569C65.915 78.5229 65.5393 78.0445 65.2137 77.6894C64.6977 77.1222 64.5274 76.5107 64.4973 75.7659C64.4422 74.4145 64.277 73.0681 64.1617 71.7216C64.0816 70.9917 64.0265 70.2667 63.9513 69.3247Z" fill="#FF9737"/>
</svg>
