<svg width="54" height="89" viewBox="0 0 54 89" fill="none" xmlns="http://www.w3.org/2000/svg">
<path d="M47.6257 2.44101C48.4527 1.74841 49.7562 1.76529 49.9524 0.109807C49.9594 0.0253431 50.5481 0.0337854 50.8635 0C50.7934 0.295622 50.6603 0.599688 50.6813 0.89531C50.6953 1.14025 50.8565 1.41898 51.0247 1.57946C51.1859 1.72305 51.6204 1.77373 51.6204 1.79062C51.3611 3.42076 51.1579 5.07625 50.7514 6.64727C50.5341 7.50035 49.9595 8.21829 49.546 8.99535C48.8732 10.2623 47.2753 10.7353 47.2963 12.5766C47.3173 14.1392 46.5815 15.1274 45.7685 16.1156C45.6914 16.2085 45.7335 16.6309 45.8106 16.6731C45.9998 16.7829 46.3081 16.8843 46.4553 16.7744C48.3405 15.4315 50.3659 14.8909 52.5315 15.1105C52.7347 15.1274 52.931 15.2963 53.1342 15.3977C52.9169 15.5835 52.7067 15.7778 52.4824 15.9467C52.3002 16.0818 52.0619 16.1325 51.9147 16.3099C51.7956 16.4535 51.8377 21.0652 51.8237 21.4706C51.8096 21.8507 51.6624 22.2308 51.5783 22.6024C49.8683 21.6987 49.1535 23.8694 48.0672 24.5535C46.5044 25.5502 44.8014 25.9725 43.2666 26.9185C42.79 27.2141 42.1873 27.2901 41.7949 27.6956C41.2412 28.2615 40.9188 28.8696 41.949 29.5115C42.8321 30.0605 43.603 30.939 44.2898 31.8258C44.6262 32.2566 44.7383 33.0083 44.8224 33.6418C45.0256 35.1452 45.6774 33.7685 45.7615 33.853C46.5394 34.6131 47.9621 35.0354 47.1211 36.8598C47.9971 37.6623 49.5389 38.4055 49.602 39.2839C49.7141 40.9732 50.5131 41.7418 51.291 42.7132C51.9358 43.524 52.5525 44.394 53.2813 45.0781C54.0733 45.813 53.842 46.7759 53.9752 47.705C54.1714 49.107 53.1552 48.7101 52.6927 49.1155C51.4312 50.2219 50.6813 50.2051 49.5249 49.0226C49.0834 48.5665 48.747 47.9414 48.2635 47.5698C47.9621 47.3418 47.4855 47.46 47.0861 47.4262C47.2332 47.7218 47.3664 48.0344 47.5346 48.3131C47.6747 48.5327 47.885 48.6932 48.0181 48.9212C48.1093 49.0817 48.1794 49.4618 48.1443 49.4871C47.9551 49.6054 47.6047 49.7827 47.5416 49.6983C46.3362 48.0175 44.2267 48.1779 43.0213 46.4042C42.79 46.0664 42.3135 45.9312 41.9701 45.3062C40.4212 42.5189 38.7252 39.833 36.8891 37.316C36.4265 36.6825 36.819 34.9594 35.5785 35.4409C35.116 35.6182 34.8567 36.6234 34.5203 37.2568C34.0998 38.0339 33.5461 38.7518 33.3078 39.6049C32.5439 42.3331 30.918 44.4109 29.5094 46.5393C26.5099 51.0497 23.5454 55.5769 20.9103 60.4167C18.9059 61.1093 18.9129 64.2344 17.0347 65.0875C16.411 67.4947 15.0514 69.26 13.5937 70.9831C13.1101 71.5574 13.1592 72.6385 12.136 72.7483C11.5893 72.8075 11.0847 73.4832 10.5661 73.8802C11.1267 74.3532 11.2459 74.8008 10.6222 75.4005C10.4189 75.5948 10.4399 76.1353 10.3558 76.5154C10.0265 76.3465 9.69709 76.186 9.3677 76.0171C9.27659 76.3972 9.29059 76.9039 9.08735 77.1236C8.07116 78.2554 8.71594 80.5274 7.13908 81.22C5.80752 81.8028 5.4571 83.509 4.46193 84.455C4.20263 84.7084 3.96434 85.0631 3.66298 85.1729C3.24249 85.3249 2.77295 85.2996 2.32442 85.3503C2.38049 85.8486 2.59773 86.4399 2.44355 86.8115C2.29638 87.1578 1.46237 87.2507 1.45537 87.4872C1.41332 88.4586 0.999846 88.8133 0.376113 88.5092C0.130824 88.391 -0.093426 87.4619 0.0397306 87.0733C0.943794 84.4212 0.873724 81.2876 3.07431 79.2605C4.05547 78.3567 2.76592 78.6692 2.47859 78.4074C2.10715 78.0696 2.65381 76.9884 3.2425 76.8448C4.27972 76.5914 4.77029 75.789 4.93849 74.463C5.01558 73.8464 5.38002 73.2889 5.61129 72.6977C5.73744 72.3767 5.8706 72.0473 6.00375 71.7263C6.10888 72.098 6.17893 72.4865 6.3261 72.8328C6.4032 73.0186 6.61347 73.2636 6.74663 73.2467C7.01294 73.2129 7.36334 72.2416 7.87494 70.5945C7.95203 70.3496 8.21132 70.0624 8.42156 70.0117C9.85124 69.6992 9.69007 67.2329 11.1968 67.0217C11.2319 67.0133 11.2179 66.498 11.2179 66.2193C11.274 63.7361 11.274 63.7361 12.6195 62.3847C13.1522 62.258 13.9581 62.807 14.0212 61.5401C15.3808 61.0248 14.5188 59.6903 14.701 58.7528C14.8832 57.7983 14.8061 57.773 16.3479 57.1649C16.5231 57.0973 16.7404 57.0213 16.8385 56.8608C18.2471 54.538 20.2585 52.6376 20.3496 49.4027C20.3636 48.9043 20.5809 48.3975 20.7771 47.933C21.1415 47.0715 22.4451 46.7843 22.0876 45.5596C21.6812 44.1913 23.0828 44.1828 23.0338 43.4564C22.9357 41.9699 24.3233 42.4091 24.4705 41.6996C24.6807 40.6607 24.6877 40.0272 25.5287 41.1675C25.5497 41.1928 25.76 41.0999 25.76 41.0661C25.6338 38.9207 26.7832 38.017 28.1848 37.2484C28.4862 37.0879 28.6824 36.37 28.7315 35.8801C28.8156 34.9341 28.5913 33.9205 29.4253 33.2448C29.5374 33.1519 29.4533 32.7127 29.4533 32.4339C29.208 32.4339 28.9207 32.3326 28.7315 32.4509C25.9632 34.2415 22.6904 34.5962 20.0903 36.8767C19.7749 37.1555 19.1302 37.2061 18.7728 37.0034C18.1 36.6318 17.4622 35.7112 17.4272 37.5525C17.4272 37.6707 16.8525 37.8312 16.5301 37.8819C16.1867 37.941 15.8293 37.941 15.4789 37.8819C14.4837 37.7214 14.2104 40.3397 12.8859 38.8447C11.9257 39.4444 10.9656 40.0441 9.99842 40.6269C9.61296 40.8634 9.22751 41.1506 8.81402 41.2519C7.79082 41.4884 6.67653 41.9868 5.73042 41.7249C4.4339 41.3533 3.92229 42.7385 2.96917 42.9243C2.4856 43.0172 1.95298 42.6625 1.44138 42.5105C2.76594 42.1135 0.936784 40.7114 2.00905 40.0864C2.9902 39.512 3.89424 38.7096 4.74925 37.8819C5.78647 36.8767 6.74663 35.7618 7.71377 34.6638C7.91701 34.4357 7.99407 34.0557 8.12723 33.7431C8.22534 34.1148 8.25339 34.5624 8.44261 34.8412C8.62482 35.103 8.99628 35.3648 9.24857 35.3142C9.46583 35.2804 9.79519 34.8074 9.79519 34.5371C9.76716 32.5691 10.2367 32.0708 11.5052 33.5911C12.6476 32.8901 14.4347 33.4644 15.0093 31.9272C15.577 30.4153 16.0395 30.466 16.9857 31.0994C17.0277 31.1332 17.4692 30.6095 17.5043 30.3055C17.5954 29.5706 17.6584 29.5875 18.2822 29.8578C19.5226 30.3984 19.4666 30.1788 20.4687 28.329C20.9593 27.4253 21.9195 26.8932 22.6904 26.2259C22.7464 26.1752 23.1109 26.4371 23.1179 26.5638C23.209 29.0048 24.7788 27.1634 25.5077 27.7462C25.5287 27.7631 25.7389 27.4253 25.8651 27.2564C25.6689 27.1466 25.4797 27.0199 25.2764 26.9354C25.1713 26.8932 25.0381 26.9523 24.926 26.9269C24.6036 26.8509 24.2883 26.7496 23.9659 26.6651C24.2813 26.4624 24.5966 26.2766 24.905 26.0654C25.4726 25.6769 26.0263 25.263 26.6009 24.8745C27.0705 24.562 27.5611 24.2748 28.0446 23.9792C27.6101 23.2697 27.2387 22.4926 26.7271 21.876C25.5848 20.4908 21.5971 13.9111 21.2046 12.281C21.0434 11.6137 21.3308 10.786 21.4149 10.0343C22.3119 10.4312 22.8866 8.3112 24.106 9.78931C25.1362 11.0394 26.629 12.1712 28.0307 12.433C29.5164 12.7033 27.1546 14.7051 28.8296 14.2574C30.028 13.9365 30.9601 14.8402 31.9903 15.2541C32.1234 15.3048 32.1655 15.7102 32.2426 15.9467C31.3035 17.6698 31.3035 17.94 32.3057 18.962C32.4178 19.0719 32.7192 19.1394 32.7472 19.0887C32.8523 18.886 32.9154 18.6326 32.9294 18.3877C32.9574 17.8556 32.9364 17.3234 32.9364 16.7829C33.9316 17.391 34.6955 18.1512 35.0809 19.5448C35.3543 20.5415 36.2723 20.5837 36.3775 19.4942C36.5527 17.6867 38.1085 18.6918 38.543 17.6275C39.342 17.6022 40.5053 17.8809 39.2649 16.2508C39.1037 16.0396 39.2438 15.4906 39.2438 15.0936C39.0967 13.5986 39.7064 12.678 40.8767 12.5935C42.3975 12.4837 42.8251 11.5124 42.748 9.89911C42.7129 9.07137 42.6148 8.18452 43.7361 8.25209C43.8482 8.26054 44.1286 7.11182 44.1216 6.49524C44.1145 4.71306 44.8715 4.04579 46.2451 4.11336C47.3664 4.38365 47.8359 3.82621 47.6257 2.44101ZM30.4065 33.8107C30.827 33.1266 31.1914 32.586 31.4857 32.0032C31.5488 31.8681 31.3595 31.5471 31.2895 31.3191C30.897 31.8258 30.4765 32.3073 30.1261 32.8478C30.056 32.9492 30.2453 33.2955 30.4065 33.8107ZM42.79 31.9441C42.6218 31.6653 42.4116 31.2261 42.1172 30.8883C41.956 30.7025 41.6547 30.694 41.4164 30.6096C41.3813 30.863 41.2482 31.1839 41.3323 31.3528C41.5495 31.792 41.8439 32.189 42.1522 32.5607C42.2293 32.6536 42.4676 32.5945 42.6078 32.5353C42.6709 32.51 42.6849 32.3073 42.79 31.9441Z" fill="#FF9737"/>
</svg>
