<?xml version="1.0" encoding="utf-8"?>
<!-- Generator: Adobe Illustrator 27.7.0, SVG Export Plug-In . SVG Version: 6.00 Build 0)  -->
<svg version="1.1" id="圖層_1" xmlns="http://www.w3.org/2000/svg" xmlns:xlink="http://www.w3.org/1999/xlink" x="0px" y="0px"
	 viewBox="0 0 769.3 148" style="enable-background:new 0 0 769.3 148;" xml:space="preserve">
<style type="text/css">
	.st0{clip-path:url(#SVGID_00000142146856725669242440000006566054452940910779_);}
	.st1{fill:#1D3D6C;}
	.st2{fill:#FFFFFF;}
</style>
<g>
	<defs>
		<rect id="SVGID_1_" width="769.3" height="148"/>
	</defs>
	<clipPath id="SVGID_00000173841343889621599720000009128592785591375752_">
		<use xlink:href="#SVGID_1_"  style="overflow:visible;"/>
	</clipPath>
	<g style="clip-path:url(#SVGID_00000173841343889621599720000009128592785591375752_);">
		<path class="st1" d="M745.3,107.9L412.2,4.2c-17.9-5.6-36.8-5.6-54.7,0L24,107.9C9.8,112.3,0,127,0,143.8v4.2h769.3v-4.2
			C769.3,127,759.4,112.3,745.3,107.9L745.3,107.9z"/>
		<path class="st2" d="M376.4,47h-9.9c-2.7,0-4.8,2.2-4.8,4.8v9.9c0,2.7,2.2,4.8,4.8,4.8h9.9c2.7,0,4.8-2.2,4.8-4.8v-9.9
			C381.2,49.2,379,47,376.4,47z"/>
		<path class="st2" d="M402.8,47h-9.9c-2.7,0-4.8,2.2-4.8,4.8v9.9c0,2.7,2.2,4.8,4.8,4.8h9.9c2.7,0,4.8-2.2,4.8-4.8v-9.9
			C407.6,49.2,405.5,47,402.8,47z"/>
		<path class="st2" d="M376.4,73.5h-9.9c-2.7,0-4.8,2.2-4.8,4.8v9.9c0,2.7,2.2,4.8,4.8,4.8h9.9c2.7,0,4.8-2.2,4.8-4.8v-9.9
			C381.2,75.6,379,73.5,376.4,73.5z"/>
		<path class="st2" d="M402.8,73.5h-9.9c-2.7,0-4.8,2.2-4.8,4.8v9.9c0,2.7,2.2,4.8,4.8,4.8h9.9c2.7,0,4.8-2.2,4.8-4.8v-9.9
			C407.6,75.6,405.5,73.5,402.8,73.5z"/>
	</g>
</g>
</svg>
