<svg width="86" height="49" viewBox="0 0 86 49" fill="none" xmlns="http://www.w3.org/2000/svg">
<path d="M15.5852 20.9017C15.7127 21.1703 15.891 21.4438 15.9807 21.7363C16.0884 22.1074 16.206 22.377 16.5961 22.5589C16.839 22.6751 17.077 23.0432 17.104 23.3118C17.1882 24.4491 17.6167 25.5116 17.7994 26.6289C17.8344 26.8766 18.1788 27.1033 17.77 27.3354C17.7411 27.3483 17.7342 27.4797 17.7451 27.4886C18.4677 27.7778 18.3367 28.4744 18.4933 29.0315C18.6468 29.5588 18.9027 29.8044 19.3513 29.5684C20.0297 29.2187 20.7551 29.2362 21.4586 29.1353C22.0237 29.0584 22.5699 28.9934 23.0583 28.6528C23.2921 28.4786 24.1976 28.5885 24.3768 28.7715C24.4335 28.8362 24.4575 28.9745 24.4267 29.068C24.3492 29.2969 24.2727 29.5358 24.1315 29.7309C23.884 30.0673 23.7996 30.4276 23.7202 30.8376C23.6181 31.4207 23.3348 32.002 22.8076 32.3565C22.2616 32.723 21.9315 33.2386 21.8731 33.8575C21.7563 34.8944 21.2702 35.7574 20.7105 36.5876C20.5007 36.9001 20.5724 37.0135 20.8163 37.2403C20.9716 37.3855 20.8772 37.7467 21.0077 37.9447C21.1392 38.1525 21.4716 38.2598 21.5941 38.4787C21.8063 38.8895 21.9339 39.3591 22.0894 39.8058C22.4213 40.8076 22.8616 41.7884 22.8613 42.884C22.8683 43.0541 23.0365 43.2282 23.1242 43.4003C23.2119 43.5724 23.3592 43.7384 23.3772 43.9175C23.4083 44.226 23.4622 44.6628 23.2962 44.8101C23.0475 45.0361 22.6534 45.0155 22.312 44.7181C22.1577 44.5829 21.7966 44.6896 21.6224 44.5563C21.3297 44.3446 21.1307 44.3646 20.8701 44.5717C20.8423 44.5946 20.677 44.4504 20.5804 44.3897C20.238 44.183 19.9095 43.9145 19.5333 43.7714C18.9173 43.5419 18.4623 43.2158 18.5007 42.4983C18.1097 42.5075 17.889 42.8111 17.4619 42.4621C16.793 41.9063 15.9271 41.5913 15.1945 41.2027C14.2769 42.6718 13.3832 44.1788 12.4248 45.6421C12.1296 46.1039 11.673 46.4614 11.3021 46.8706C10.9222 47.2907 10.4577 47.4681 9.86758 47.3967C9.76697 47.1958 9.71112 46.9401 9.56376 46.774C8.97933 46.1594 8.92015 45.3714 8.99535 44.6201C9.1675 42.8339 9.20036 41.0617 8.92176 39.2907C8.8958 39.1325 8.89666 38.9415 8.96525 38.824C9.15213 38.4836 8.87845 38.3604 8.68835 38.2689C7.89609 37.8863 7.06999 37.5673 6.27773 37.1847C5.27346 36.6927 4.2851 36.1589 3.29673 35.6251C3.12652 35.5317 2.9802 35.3755 2.85375 35.2174C2.62373 34.929 2.59472 34.6404 2.89905 34.3686C3.77224 33.5572 4.69422 32.8313 5.82433 32.3759C6.6361 32.0531 7.37117 31.5671 8.15904 31.2064C8.55297 31.0261 9.01163 30.9901 9.40457 30.7998C9.8532 30.5637 10.5597 30.5932 10.5394 29.7912C10.5324 29.7215 10.7452 29.6398 10.8686 29.5671C10.9342 29.5203 11.0099 29.4725 11.0755 29.4257C10.518 28.8787 11.1177 28.4466 11.2897 28.0574C11.8839 26.671 12.5717 25.3154 13.2705 23.9687C13.6154 23.3008 14.2429 22.7452 14.4356 22.0625C14.6522 21.4176 14.9634 21.115 15.5852 20.9017Z" fill="white"/>
<path d="M58.5327 12.6228C59.0123 12.5946 59.4819 12.5675 59.9375 12.3006C60.2499 12.1084 60.6509 12.1987 61.0388 11.9587C61.5412 11.6569 62.1548 11.163 62.8774 11.5527C62.9302 11.5775 63.0506 11.5755 63.0586 11.5546C63.2404 11.0639 63.7849 11.381 64.0216 11.1361C64.3209 10.8146 64.7468 10.8521 65.0453 10.8221C65.8393 10.7222 66.5634 10.4282 67.3305 10.2606C68.413 10.0312 69.5124 9.87037 70.6098 9.68966C71.027 10.0397 71.0366 9.43567 71.3132 9.38776C71.7271 9.30593 72.1551 9.46392 72.5579 9.27265C72.9131 9.10628 73.2672 8.92994 73.6462 8.80137C74.0163 8.68375 74.3924 8.62586 74.7774 8.55699C75.2411 8.47016 75.3267 8.52185 75.8713 9.03996C75.9818 9.1394 76.1559 9.17213 76.356 9.26257C75.5962 10.1028 74.5895 10.4855 73.6006 10.8462C72.9321 11.0944 72.2038 11.248 71.4964 11.3091C70.8198 11.3771 70.2977 11.8819 69.6051 11.8912C69.2131 11.8905 68.8221 12.1006 68.4221 12.1208C67.3226 12.1811 66.3249 12.6533 65.2543 12.8011C63.5599 13.0419 62.038 13.8985 60.3496 14.1989C59.5397 14.3406 58.7777 14.759 58.0048 15.0679C55.3655 16.1072 52.8039 17.3196 50.2175 18.4842C48.4 19.3001 46.5337 20.0305 44.7431 20.9141C43.2768 21.6244 41.8235 22.3635 40.4688 23.2837C39.4164 24.0127 38.2715 24.6203 37.2301 25.3582C35.4935 26.5781 34.0276 28.0923 32.5518 29.6076C32.0963 30.0755 31.6618 30.5514 31.1944 31.0004C31.0024 31.1906 30.7318 31.2982 30.4941 31.4326C30.3608 31.5063 30.0872 31.5841 30.0932 31.6438C30.1473 32.2816 29.4557 32.3009 29.2839 32.7906C29.0248 32.1131 29.0248 32.1131 28.5005 32.2964C27.9409 31.5286 28.0709 30.9225 28.6993 30.1759C30.2804 28.3083 31.9182 26.5054 33.7213 24.8467C34.6691 23.9775 35.4944 22.99 36.5637 22.2292C36.8451 22.03 37.2034 22.0945 37.3277 21.9312C37.4679 21.7262 37.4687 21.4346 37.7542 21.2752C38.6326 20.815 39.2003 19.964 40.0199 19.4192C40.8494 18.8735 41.6531 18.27 42.5056 17.7521C43.3948 17.2004 44.3209 16.7153 45.2241 16.2024C46.375 15.554 47.504 14.8876 48.6679 14.2681C49.6119 13.7611 50.5937 13.3307 51.5397 12.8436C52.3803 12.4073 53.2069 11.9322 54.0455 11.476C54.7408 11.0945 55.4371 10.723 56.1215 10.3326C56.6726 10.0158 57.1878 9.6424 57.7389 9.32567C59.9611 8.03686 62.1713 6.72915 64.4184 5.48809C65.237 5.0339 66.1653 4.76968 67.0328 4.40104C68.7209 3.6986 70.4071 2.97624 72.1053 2.2728C72.5878 2.07352 73.0872 1.94291 73.5846 1.79239C74.0432 1.65581 74.5207 1.40679 74.9665 1.44237C75.5148 1.49778 75.9356 1.28459 76.4012 1.11717C76.9019 1.59948 77.1484 0.951579 77.5204 0.853858C77.6776 0.81795 77.795 0.68555 77.9502 0.629742C78.4715 0.416514 79.0437 0.610238 79.5838 0.28456C79.9907 0.0325897 80.6048 0.242199 81.1201 0.0697705C81.2464 0.0269136 81.555 0.196881 81.5879 0.324227C81.6627 0.56797 81.7315 0.953011 81.5963 1.10732C80.9062 1.94055 80.2549 2.86034 78.9883 2.85706C78.8778 2.85812 78.7914 3.09795 78.6591 3.1816C78.0165 3.58794 77.3909 4.06293 76.6975 4.36381C75.5714 4.85897 74.6793 5.58186 73.9754 6.57729C73.8173 6.80425 73.6393 7.0332 73.4115 7.16666C71.5713 8.25626 69.5726 8.96982 67.5072 9.51923C64.5902 10.295 61.6473 11.0131 58.9047 12.3241C58.7794 12.3769 58.7028 12.5152 58.6024 12.6158C58.4432 12.6318 58.292 12.6269 58.1457 12.6718C58.0771 12.6887 58.0383 12.8032 57.9856 12.8788C58.11 12.9166 58.2812 13.0199 58.3469 12.9731C58.4225 12.9253 58.4651 12.7502 58.5327 12.6228ZM67.3496 6.85164C67.3964 6.91729 67.4442 6.99288 67.491 7.05853C68.2828 6.73769 69.0587 6.35813 69.8675 6.10593C71.0454 5.72617 72.1387 5.20418 73.0945 4.41458C72.1035 4.45394 70.5565 5.06176 68.0666 6.28704C67.809 6.4235 67.5922 6.66643 67.3496 6.85164Z" fill="white"/>
</svg>
