<svg width="155" height="87" viewBox="0 0 155 87" fill="none" xmlns="http://www.w3.org/2000/svg">
<path d="M116.676 14.9834C116.816 15.2034 116.976 15.3634 117.006 15.5434C117.146 16.2534 116.996 17.3034 117.406 17.6334C118.206 18.2534 118.676 16.9634 119.256 16.8334C120.406 16.5634 121.376 16.1434 122.426 15.6634C123.486 15.1834 124.336 14.4034 125.366 14.0034C126.656 13.5034 127.936 13.1534 128.476 11.7034C128.506 11.6234 128.625 11.5034 128.695 11.5134C129.325 11.5434 130.056 11.8234 130.546 11.5934C131.106 11.3334 131.386 10.5334 131.916 10.1334C132.166 9.94344 133.146 11.4234 133.036 9.70343C133.026 9.59343 134.035 9.32343 134.585 9.28343C135.296 9.23343 134.486 7.82344 135.386 8.32344C136.266 8.81344 136.335 8.34343 136.555 7.78343C136.585 7.71343 136.756 7.62343 136.796 7.64343C138.556 8.82343 139.255 7.22343 140.215 6.33344C141.025 5.58344 141.695 5.08344 143.085 5.30344C144.135 5.46344 145.395 4.32344 146.555 3.74344C148.595 2.73344 150.616 1.68343 152.666 0.70343C153.156 0.46343 153.755 0.443438 154.555 0.273438C153.645 3.52344 151.266 4.93343 148.776 6.14343C146.046 7.46343 143.236 8.61343 140.465 9.86343C139.936 10.1034 139.265 10.3034 138.955 10.7334C137.315 13.0134 134.426 13.4334 132.476 15.2234C131.286 14.8634 131.176 16.6834 130.536 16.4634C129.046 15.9434 128.776 16.8634 128.176 17.7734C127.436 18.8934 126.246 19.5534 124.916 19.7134C123.986 19.8234 123.155 19.7534 123.945 21.0334C123.975 21.0734 123.625 21.3434 123.455 21.5034C121.095 23.8234 118.215 25.3934 115.476 27.1934C114.096 28.1034 112.526 28.1734 111.126 28.9034C107.706 30.6834 104.185 32.2634 100.705 33.9334C100.165 34.1934 99.6455 34.5534 99.0755 34.7134C97.9655 35.0234 98.7555 34.0034 98.4555 33.7834C98.3255 33.6934 97.8255 33.8334 97.7255 34.0034C96.4055 36.2734 94.3755 37.5034 92.0155 38.5534C89.6455 39.6134 87.3655 41.0534 85.3455 42.6934C84.5455 43.3434 83.4055 41.9834 82.9655 43.5434C82.7855 44.2034 81.5955 44.5334 80.9455 45.1034C78.2255 47.5234 74.8756 48.7634 71.6656 50.3034C69.9456 51.1334 68.2155 52.0734 66.9355 53.6034C66.6155 53.9834 66.2555 54.3734 65.8355 54.6334C63.8055 55.8934 61.7556 57.1434 59.6756 58.3234C59.2156 58.5834 58.5355 58.4634 58.0655 58.7234C57.6255 58.9634 57.3555 59.5134 56.9555 59.8534C56.4655 60.2834 56.0856 60.1334 55.7956 59.5434C55.7356 59.4134 55.3656 59.3434 55.1656 59.3834C54.3856 59.5334 54.5256 60.6234 54.0256 60.7634C53.5156 60.9134 52.8755 60.3834 52.5155 61.3034C52.3655 61.6734 52.0055 63.1934 51.2555 61.5534C51.1655 61.6034 51.0155 61.6534 51.0055 61.7134C50.8455 63.2034 49.3756 63.2934 48.5256 64.0334C47.6256 64.8234 46.6655 65.5334 45.7255 66.2734C44.7055 67.0734 43.6955 67.8934 42.6355 68.6334C41.6755 69.2934 40.6455 69.8534 39.6455 70.4534C39.2355 70.6934 38.8356 71.1034 38.4156 71.1334C36.9056 71.2434 35.7155 71.6234 35.7355 73.4634C35.7355 73.6434 35.6455 73.8834 35.5055 74.0034C34.0455 75.3034 32.5555 76.5834 31.0955 77.8934C30.7655 78.1834 30.5355 78.5834 30.2655 78.9334C29.7155 79.6334 29.9556 81.4534 28.1656 80.3934C28.1056 80.3534 27.7155 80.6434 27.7355 80.7534C27.8955 82.0734 26.1955 81.1534 26.0755 82.1634C26.0355 82.5134 25.7555 82.8234 25.5855 83.1634L19.9256 85.2334C19.2656 85.3834 18.4855 85.3534 17.9755 85.7134C17.0355 86.3834 16.1956 86.2834 15.1656 86.0434C13.4656 85.6534 11.4755 86.3234 10.1455 84.6234C9.01555 85.5734 8.45558 84.4534 7.67558 83.9934C7.44558 83.8634 6.94551 84.1134 6.60551 84.2734C5.84551 84.6434 5.23547 84.3834 4.68546 83.8734C4.28546 83.4934 4.06558 82.9834 4.67558 82.6734C5.13558 82.4334 5.76546 82.2634 5.30546 81.7234C4.91546 81.2634 4.20557 81.3534 3.79557 81.9834C3.68557 82.1434 3.58558 82.3134 3.42558 82.5634C2.54558 80.6434 1.64551 78.7934 0.855509 76.9034C0.645509 76.3934 0.715533 75.7234 0.755533 75.1434C0.805533 74.5134 0.975499 73.8934 1.0955 73.2634L2.31547 70.1634C2.80547 69.2434 3.29556 68.3234 3.78556 67.4034C5.31556 64.5434 7.99557 62.6334 9.91557 60.0934C10.0656 59.8934 10.5656 59.9334 10.9156 59.9134C11.3656 59.8934 11.8256 59.9234 12.2856 59.9234C13.4756 59.9334 13.0956 58.5834 13.7956 58.1734C14.2256 59.2734 14.8056 58.7934 15.6556 58.6034C16.8856 58.3434 17.5355 57.5234 18.3355 56.8034C20.9155 54.4534 23.4356 52.0534 26.0456 49.7334C27.5156 48.4234 29.2255 47.6134 31.2155 47.2234C32.3655 46.9934 33.3855 46.0834 34.4655 45.4934C35.0755 45.1634 35.7355 44.5734 36.3255 44.6134C37.2255 44.6834 38.2655 42.8434 39.0555 44.7334C39.0655 44.7534 39.3655 44.6034 39.5155 44.6334C40.5455 44.8534 41.3255 42.8434 42.4855 44.3034C43.5855 42.9534 45.1355 43.3834 46.5555 43.2434C48.0255 43.0934 49.5155 42.9434 50.9555 42.6134C51.9855 42.3734 52.9656 41.8634 53.9256 41.3834C55.6656 40.5134 57.2856 39.2534 59.4256 40.0734C59.5456 40.1234 59.8556 39.9834 59.9156 39.8534C60.0856 39.5034 60.1656 39.1134 60.2756 38.7434C60.5056 38.9834 60.7355 39.2134 60.9655 39.4534C61.0755 39.0834 61.1255 38.6734 61.3155 38.3434C62.0855 36.9634 63.4356 36.8834 64.7956 36.8534C65.0156 36.8434 65.4055 36.9034 65.4455 36.8134C66.0055 35.4334 66.9056 34.8434 68.4056 35.3234C68.5956 35.3834 69.1255 35.0634 69.1055 34.9834C68.8255 33.3734 70.3256 33.7034 71.0256 33.2134C72.0855 32.4734 73.2455 31.8834 74.3055 31.1434C75.0455 30.6334 75.9255 30.6834 76.7355 30.2134C79.0355 28.9134 81.5155 27.6534 84.0855 27.1434C86.9355 26.5834 88.9855 24.9434 91.1355 23.3734C93.9455 21.3334 96.6555 19.1534 100.366 19.0434C100.556 19.0334 100.755 18.9734 100.945 18.9034C102.265 18.3934 103.525 17.7034 105.065 18.3034C105.565 18.5034 106.306 18.1934 106.906 18.0134C110.106 17.0634 113.286 16.0434 116.676 14.9834ZM16.4355 74.9134C17.6255 76.8234 18.6455 78.4634 19.7255 80.1934C20.1055 79.7834 20.4855 79.5334 20.6155 79.1834C21.3155 77.2434 21.9255 75.2734 22.6255 73.3334C23.0355 72.1934 23.8255 71.3634 24.7455 70.5334C26.5155 68.9434 28.6255 67.6134 29.7455 65.2134C27.7155 64.8234 25.8255 64.9734 24.1355 65.8534C23.2855 66.2934 22.8155 65.7534 22.2555 65.5634C22.0555 65.4934 21.9455 64.4734 22.1455 64.0534C22.8855 62.4534 22.5755 61.1034 21.5655 59.7434C20.4755 60.8134 19.2556 61.6634 18.5356 62.8234C17.5656 64.3934 16.4355 66.1734 14.8755 66.5634C12.9455 67.0534 11.6455 68.0234 10.3455 69.2734C10.2355 69.3834 9.95553 69.3334 9.75553 69.3134C8.64553 69.1834 8.4255 70.1134 8.2255 70.8134C8.1655 71.0134 8.98551 71.5934 9.48551 71.8034C10.7155 72.3134 11.9855 72.7134 12.9655 73.0534C12.4455 74.2534 12.1655 75.4334 11.4955 76.3034C10.8955 77.0734 11.0856 77.8134 11.0456 78.5734C11.0256 78.8934 11.3155 79.5034 11.4755 79.5134C11.9055 79.5334 12.4755 79.4134 12.7455 79.1234C14.0255 77.7334 15.2455 76.2834 16.4355 74.9134ZM58.8055 52.0734C58.7355 51.9334 58.6655 51.7934 58.5955 51.6534C55.2655 52.6834 51.9655 53.8434 48.5855 54.6934C47.3555 55.0034 46.6355 55.6234 46.0055 56.5234C45.8155 56.7934 45.8455 57.2234 45.7655 57.5734C46.1055 57.5434 46.4556 57.4234 46.7756 57.5034C47.6456 57.7134 48.2956 57.3134 49.0356 56.9634C52.0356 55.5534 54.7956 53.6234 58.0356 52.7234C58.3356 52.6434 58.5555 52.2934 58.8055 52.0734ZM72.7856 46.3134C73.5556 45.7934 74.3255 45.2634 75.1155 44.7234C73.6355 44.0234 73.0256 45.0034 72.7856 46.3134Z" fill="#1D3D6C"/>
</svg>
