<svg width="168" height="82" viewBox="0 0 168 82" fill="none" xmlns="http://www.w3.org/2000/svg">
<path d="M29.0828 28.9863C29.2928 29.5663 29.6028 30.1564 29.7128 30.7764C29.8528 31.5464 30.0427 32.1264 30.8027 32.5764C31.2727 32.8564 31.6927 33.6564 31.6827 34.2064C31.6227 36.5464 32.2827 38.7863 32.4127 41.0963C32.4427 41.6163 33.0828 42.1463 32.2128 42.5363C32.1528 42.5663 32.1128 42.8264 32.1328 42.8364C33.5428 43.5664 33.1328 44.9664 33.3428 46.1364C33.5428 47.2464 34.0228 47.7864 34.9728 47.4064C36.4328 46.8264 37.9028 47.0264 39.3628 46.9564C40.5328 46.9064 41.6628 46.8963 42.7228 46.2963C43.2428 45.9963 45.0628 46.3963 45.3928 46.8163C45.5028 46.9563 45.5227 47.2563 45.4427 47.4263C45.2427 47.8763 45.0328 48.3564 44.7128 48.7164C44.1428 49.3564 43.8927 50.0664 43.6527 50.8964C43.3227 52.0664 42.6228 53.1863 41.4828 53.8063C40.2928 54.4463 39.5228 55.4263 39.2628 56.6663C38.8128 58.7563 37.6528 60.4163 36.3428 61.9963C35.8528 62.5863 35.9827 62.8263 36.4227 63.3463C36.7027 63.6663 36.4527 64.3964 36.6627 64.8264C36.8927 65.2864 37.5528 65.5564 37.7428 66.0264C38.0928 66.9164 38.2628 67.8864 38.4828 68.8364C38.9628 70.9464 39.6527 73.0263 39.4227 75.2563C39.3927 75.6063 39.7128 75.9863 39.8628 76.3563C40.0128 76.7263 40.2628 77.0964 40.2628 77.4664C40.2528 78.0964 40.2927 79.0064 39.9227 79.2764C39.3727 79.6864 38.5627 79.5664 37.9327 78.8964C37.6427 78.5864 36.8927 78.7263 36.5627 78.4263C36.0127 77.9363 35.5927 77.9363 35.0327 78.3063C34.9727 78.3463 34.6728 78.0264 34.4828 77.8864C33.8228 77.3864 33.2128 76.7764 32.4828 76.4064C31.2828 75.8064 30.4228 75.0563 30.6428 73.6063C29.8428 73.5363 29.3327 74.1163 28.5427 73.3163C27.3027 72.0463 25.5927 71.2363 24.1727 70.2963C22.0127 73.1063 19.8728 75.9864 17.6228 78.7764C16.9228 79.6464 15.9328 80.2863 15.0828 81.0463C14.2128 81.8263 13.2327 82.0864 12.0627 81.8264C11.9027 81.3864 11.8427 80.8663 11.5627 80.4963C10.4927 79.1163 10.5428 77.5063 10.8428 75.9963C11.5528 72.3963 11.9827 68.7964 11.7827 65.1364C11.7627 64.8164 11.8028 64.4263 11.9728 64.1863C12.4328 63.5263 11.8827 63.2163 11.5327 63.0063C9.99271 62.0663 8.38278 61.2463 6.85278 60.2963C4.90278 59.0863 3.00277 57.7963 1.09277 56.5063C0.762767 56.2863 0.492699 55.9264 0.272699 55.5764C-0.127301 54.9464 -0.127282 54.3563 0.542718 53.8563C2.49272 52.3863 4.51271 51.0964 6.91271 50.3964C8.62271 49.8964 10.2327 49.0663 11.9127 48.4863C12.7427 48.1963 13.7027 48.2263 14.5227 47.9163C15.4827 47.5363 16.9227 47.7263 17.0427 46.0963C17.0527 45.9463 17.5028 45.8364 17.7528 45.7064C17.9028 45.6264 18.0528 45.5364 18.2028 45.4564C17.1828 44.2364 18.4927 43.4664 18.9127 42.7064C20.4027 39.9964 22.0827 37.3763 23.7927 34.7863C24.6327 33.5063 26.0227 32.4964 26.5527 31.1364C27.0827 29.8364 27.7728 29.2863 29.0828 28.9863Z" fill="#1D3D6C"/>
<path d="M118.263 20.9158C119.253 20.9658 120.203 21.0058 121.183 20.5558C121.863 20.2358 122.663 20.4858 123.503 20.0858C124.593 19.5658 125.933 18.6958 127.323 19.6358C127.423 19.7058 127.673 19.7258 127.693 19.6858C128.163 18.7258 129.213 19.4858 129.733 19.0358C130.413 18.4458 131.273 18.6158 131.883 18.6058C133.513 18.5658 135.053 18.1158 136.643 17.9358C138.893 17.6858 141.173 17.5958 143.433 17.4358C144.213 18.2358 144.363 17.0158 144.923 16.9558C145.783 16.8758 146.623 17.2758 147.473 16.9758C148.233 16.7058 148.993 16.4158 149.783 16.2458C150.553 16.0758 151.343 16.0458 152.133 15.9758C153.103 15.8958 153.263 16.0258 154.263 17.1758C154.463 17.4058 154.813 17.5058 155.203 17.7358C153.493 19.2958 151.353 19.8558 149.263 20.3958C147.853 20.7658 146.343 20.9258 144.883 20.9158C143.483 20.9058 142.333 21.8458 140.903 21.7058C140.103 21.6258 139.263 21.9758 138.453 21.9358C136.203 21.8358 134.063 22.5858 131.863 22.6758C128.353 22.8258 125.093 24.2458 121.593 24.5158C119.923 24.6458 118.283 25.3358 116.643 25.7958C111.053 27.3658 105.583 29.3258 100.073 31.1558C96.2028 32.4458 92.2627 33.5558 88.4327 34.9758C85.3027 36.1258 82.1828 37.3258 79.2328 38.9358C76.9328 40.1958 74.4928 41.2158 72.2128 42.4958C68.4328 44.6158 65.1327 47.4158 61.8227 50.1958C60.8027 51.0458 59.8128 51.9458 58.7628 52.7558C58.3228 53.0958 57.7628 53.2658 57.2428 53.4958C56.9528 53.6258 56.3928 53.7158 56.3928 53.8358C56.3628 55.1358 54.9528 55.0358 54.5028 56.0058C54.1128 54.5658 54.1128 54.5658 53.0028 54.8458C52.0128 53.1758 52.4128 51.9558 53.8328 50.5758C57.4328 47.0858 61.1327 43.7558 65.1627 40.7458C67.2727 39.1758 69.1628 37.3358 71.4828 36.0058C72.0928 35.6558 72.8228 35.8658 73.0928 35.5558C73.4228 35.1658 73.4728 34.5658 74.0928 34.3158C75.9828 33.5558 77.3128 31.9358 79.0928 31.0058C80.9028 30.0558 82.6528 29.0058 84.4928 28.1158C86.4128 27.1758 88.3928 26.3758 90.3528 25.5158C92.8228 24.4258 95.2727 23.3058 97.7727 22.2758C99.7927 21.4458 101.883 20.7658 103.923 19.9558C105.733 19.2358 107.503 18.4358 109.303 17.6758C110.793 17.0458 112.293 16.4358 113.763 15.7758C114.943 15.2458 116.073 14.5958 117.253 14.0558C122.043 11.8858 126.813 9.67579 131.643 7.61579C133.413 6.86579 135.343 6.51581 137.193 5.94581C140.783 4.85581 144.353 3.72583 147.953 2.65583C148.973 2.35583 150.023 2.18579 151.073 1.98579C152.033 1.80579 153.053 1.3858 153.953 1.5658C155.063 1.7858 155.963 1.44582 156.943 1.20582C157.873 2.29582 158.503 1.02582 159.283 0.895821C159.603 0.845821 159.883 0.615826 160.203 0.525826C161.303 0.195826 162.433 0.71578 163.603 0.16578C164.493 -0.25422 165.693 0.285784 166.773 0.0457844C167.033 -0.0142156 167.623 0.385831 167.683 0.655831C167.793 1.17583 167.843 1.95581 167.543 2.25581C165.973 3.81581 164.453 5.54577 161.873 5.28577C161.653 5.26577 161.423 5.7358 161.143 5.8758C159.743 6.5758 158.383 7.4058 156.913 7.8758C154.513 8.6458 152.553 9.94581 150.923 11.8258C150.563 12.2458 150.143 12.6758 149.653 12.9058C145.673 14.7558 141.473 15.7958 137.143 16.4958C131.043 17.4858 124.903 18.3358 119.053 20.4558C118.793 20.5458 118.603 20.8058 118.373 20.9958C118.053 20.9958 117.733 20.9558 117.423 21.0158C117.283 21.0458 117.173 21.2658 117.053 21.3958C117.303 21.4958 117.633 21.7458 117.773 21.6658C117.973 21.5158 118.093 21.1658 118.263 20.9158ZM137.403 10.9758C137.483 11.1258 137.563 11.2858 137.643 11.4358C139.323 10.9358 140.973 10.3358 142.683 9.97578C145.163 9.44578 147.493 8.5958 149.603 7.1858C147.583 7.0558 144.303 7.97583 138.983 9.96583C138.413 10.1858 137.933 10.6358 137.403 10.9758Z" fill="#1D3D6C"/>
</svg>
