<svg width="82" height="47" viewBox="0 0 82 47" fill="none" xmlns="http://www.w3.org/2000/svg">
<path d="M64.48 7.76172C64.7 7.89172 64.8499 7.99171 65.0199 8.08171C65.5899 8.36171 65.62 8.48171 65.33 8.95171C64.53 10.2217 63.25 10.8517 61.94 11.3717C59.4 12.4017 57.17 13.8817 55.23 15.8117C54.76 16.2817 54.1399 16.6317 53.5599 16.9717C50.4199 18.7517 47.1299 20.2517 44.0199 22.1117C42.1599 23.2217 40.15 24.0817 38.22 25.0817C37.42 25.5017 36.6299 25.9717 35.8699 26.4717C34.1199 27.6217 32.38 28.7817 30.45 29.6217C28.72 30.3817 27.2199 31.5017 25.8099 32.7417C24.3699 34.0217 22.9699 35.3517 21.5099 36.6217C20.9399 37.1217 20.2799 37.5417 19.6299 37.9617C19.4099 38.1017 19.12 38.1617 18.86 38.1717C18.12 38.2017 17.3699 38.2017 16.6299 38.1917C15.9899 38.1917 15.48 37.6117 15.71 37.0117C16.18 35.8017 16.8 34.6617 17.6 33.6417C17.71 33.5117 18 33.5317 18.22 33.4817C18.25 33.7217 18.3499 33.9817 18.3099 34.2117C18.2499 34.4917 17.7399 34.6317 18.0199 35.0217C18.1599 35.2217 18.73 34.8617 18.96 34.4017C19.07 34.1617 19.07 33.8317 19.23 33.6517C19.37 33.5117 19.7299 33.5917 19.9099 33.4717C20.4299 33.1017 20.9799 32.7317 21.3899 32.2617C21.6599 31.9617 22.31 31.9617 22.19 31.3317C23.07 31.5017 23.5399 30.5817 24.2699 30.5317C24.6899 30.5017 24.71 30.1817 24.96 30.0517C26.17 29.4217 27.38 28.7917 28.46 27.9117C28.79 27.6417 29.2199 27.2117 29.7799 27.5217C29.9399 27.0017 30.39 26.9117 30.82 26.7417C31.28 26.5617 31.7199 26.2917 32.1599 26.0617C32.7199 25.7717 33.28 25.4717 33.83 25.1717C35.08 24.4917 36.31 23.7917 37.57 23.1217C38.72 22.5017 39.9099 21.9317 41.0499 21.2817C42.9499 20.2017 44.73 18.8717 46.71 18.0117C49.42 16.8417 51.6899 14.9417 54.3699 13.7517C55.2799 13.3517 56.0599 12.6617 56.9299 12.1517C58.1999 11.4017 59.4999 10.7117 60.7499 9.94171C61.1199 9.71171 61.61 9.96171 61.94 9.44171C62.17 9.07171 62.78 8.94171 63.2 8.67171C63.61 8.41171 64.01 8.10172 64.48 7.76172Z" fill="white"/>
<path d="M0.190063 38.2112C1.20006 37.8312 2.15007 37.2412 3.32007 37.2912C3.60007 37.3012 3.98002 36.9412 4.15002 36.6612C4.97002 35.3412 6.20001 34.3412 6.89001 32.9312C7.15001 32.4012 7.8201 32.5012 8.1001 33.0512C8.2201 33.2912 8.22 33.6012 8.38 33.8112C8.61 34.1312 8.50009 34.8012 9.22009 34.6912C9.29009 34.6812 9.47 34.9712 9.5 35.1312C9.64 35.9912 9.74011 36.8512 9.86011 37.7512C10.4801 37.9212 11.1201 38.1112 11.7301 38.2812C11.8401 39.4512 10.8 39.7012 10.25 40.3112C10.08 40.5112 9.78008 40.5912 9.58008 40.7712C7.77008 42.4112 7.66002 42.4912 7.90002 45.0812C7.97002 45.8412 7.80006 46.2712 7.31006 46.7012C7.25006 46.7612 7.24007 46.8712 7.20007 46.9412C6.31007 46.7712 6.28003 45.8212 5.78003 45.2912C5.32003 44.8012 4.97004 44.1012 5.04004 43.2912C5.08004 42.8912 4.7401 42.7512 4.3501 42.9812C3.7701 43.3212 3.23001 43.7212 2.64001 44.0412C2.25001 44.2612 1.82001 44.4912 1.39001 44.5112C0.970015 44.5412 0.54 44.3112 0 44.1712C0.16 43.9112 0.280044 43.6912 0.420044 43.4812C0.770044 42.9812 1.13009 42.5612 1.22009 41.8512C1.31009 41.1612 1.56999 40.3112 2.48999 40.0112C1.94999 39.7612 1.46005 39.3912 0.930054 39.3312C0.250054 39.2412 6.34789e-05 38.9512 0.190063 38.2112Z" fill="white"/>
<path d="M68.8604 7.48158C69.1504 7.26158 69.3903 7.17158 69.4103 7.04158C69.6103 5.96158 70.3903 5.38158 71.3103 5.07158C72.0303 4.83158 72.6703 4.58157 73.0903 3.92157C73.1403 3.85157 73.2904 3.79157 73.3604 3.81157C73.9104 4.02157 74.0604 3.49158 74.3604 3.26158C74.4904 3.16158 74.5403 2.85157 74.6503 2.83157C75.1103 2.77157 75.5503 2.79158 75.8303 2.29158C76.0203 1.95158 76.5903 2.08158 76.7903 1.65158C76.9003 1.42158 77.1302 1.51157 77.3702 1.53157C77.6702 1.56157 78.1703 1.60158 78.2203 1.01158C78.2303 0.931581 78.6703 0.881569 78.9103 0.811569C79.2503 0.711569 79.5903 0.621576 79.9103 0.491576C80.2503 0.351576 80.5503 0.141575 80.8903 0.0215753C81.0303 -0.0384247 81.2204 0.0415728 81.6104 0.0815728C81.2604 0.481573 81.0703 0.801576 80.7903 0.991576C80.1603 1.44158 79.5103 1.85157 78.8403 2.22157C78.2903 2.53157 77.7002 2.76157 77.1302 3.03157C76.5802 3.30157 76.2003 3.79157 75.6003 4.06157C74.8803 4.38157 74.2403 4.94157 73.6403 5.47157C72.3303 6.60157 70.8604 7.33158 68.8604 7.48158Z" fill="white"/>
</svg>
