<svg width="178" height="103" viewBox="0 0 178 103" fill="none" xmlns="http://www.w3.org/2000/svg">
<path d="M140.12 16.873C140.6 17.163 140.93 17.383 141.29 17.563C142.54 18.163 142.6 18.443 141.96 19.463C140.22 22.233 137.44 23.583 134.6 24.733C129.07 26.973 124.24 30.183 120.01 34.393C118.98 35.413 117.65 36.183 116.37 36.913C109.55 40.793 102.39 44.053 95.64 48.083C91.59 50.503 87.2201 52.363 83.0301 54.543C81.2801 55.453 79.5701 56.473 77.9201 57.563C74.1101 60.053 70.33 62.583 66.14 64.413C62.37 66.063 59.1101 68.503 56.0501 71.203C52.9101 73.983 49.87 76.8731 46.7 79.633C45.45 80.723 44.02 81.633 42.62 82.543C42.15 82.843 41.51 82.9731 40.94 82.993C39.33 83.063 37.71 83.063 36.1 83.043C34.7 83.033 33.61 81.783 34.11 80.483C35.13 77.863 36.47 75.383 38.22 73.163C38.45 72.873 39.1 72.923 39.56 72.813C39.63 73.343 39.85 73.903 39.75 74.403C39.63 75.003 38.52 75.313 39.12 76.163C39.43 76.593 40.6701 75.813 41.1601 74.813C41.4101 74.293 41.39 73.573 41.75 73.193C42.05 72.883 42.83 73.073 43.23 72.793C44.37 71.993 45.55 71.193 46.45 70.153C47.03 69.493 48.46 69.503 48.18 68.123C50.09 68.503 51.11 66.503 52.7 66.393C53.62 66.323 53.65 65.623 54.19 65.343C56.81 63.963 59.4601 62.603 61.7901 60.693C62.5101 60.103 63.4401 59.173 64.6701 59.8531C65.0201 58.7331 66 58.523 66.93 58.153C67.94 57.753 68.88 57.183 69.84 56.673C71.05 56.033 72.27 55.393 73.47 54.733C76.18 53.253 78.87 51.743 81.59 50.283C84.1 48.933 86.6801 47.693 89.1601 46.273C93.2801 43.923 97.15 41.043 101.47 39.173C107.36 36.623 112.29 32.493 118.13 29.923C120.11 29.053 121.81 27.563 123.7 26.453C126.45 24.823 129.28 23.313 132.01 21.643C132.82 21.153 133.88 21.683 134.6 20.553C135.11 19.743 136.43 19.473 137.34 18.883C138.23 18.283 139.09 17.613 140.12 16.873Z" fill="#D8B06C"/>
<path d="M0.359985 83.0731C2.55999 82.2431 4.63004 80.9731 7.17004 81.0631C7.77004 81.0831 8.59998 80.3031 8.97998 79.6831C10.76 76.8231 13.4299 74.6431 14.9399 71.5731C15.4999 70.4231 16.9699 70.6431 17.5699 71.8331C17.8299 72.3531 17.84 73.0331 18.17 73.4831C18.68 74.1831 18.43 75.6431 20 75.3931C20.15 75.3731 20.55 75.9931 20.61 76.3531C20.91 78.2231 21.13 80.1031 21.39 82.0531C22.74 82.4331 24.13 82.8331 25.46 83.2031C25.7 85.7531 23.44 86.2831 22.25 87.6131C21.87 88.0431 21.23 88.2231 20.8 88.6131C16.86 92.1731 16.62 92.3531 17.15 97.9831C17.31 99.6431 16.94 100.563 15.86 101.503C15.73 101.623 15.7 101.863 15.63 102.023C13.7 101.643 13.64 99.5931 12.55 98.4331C11.55 97.3731 10.78 95.8431 10.95 94.0931C11.03 93.2231 10.29 92.9231 9.44995 93.4131C8.18995 94.1431 7.00998 95.0231 5.72998 95.7231C4.87998 96.1931 3.95002 96.6931 3.02002 96.7531C2.11002 96.8131 1.17 96.3231 0 96.0131C0.35 95.4431 0.610044 94.9731 0.920044 94.5231C1.68004 93.4331 2.47003 92.5131 2.66003 90.9831C2.85003 89.4931 3.41993 87.6431 5.42993 86.9831C4.24993 86.4431 3.18003 85.6331 2.03003 85.5031C0.480029 85.3131 -0.0500146 84.6931 0.359985 83.0731Z" fill="#D8B06C"/>
<path d="M149.64 16.2632C150.26 15.7832 150.79 15.5931 150.84 15.3131C151.28 12.9631 152.97 11.7131 154.96 11.0331C156.53 10.5031 157.92 9.96315 158.84 8.53315C158.94 8.38315 159.27 8.24315 159.42 8.29315C160.62 8.74315 160.94 7.59315 161.6 7.10315C161.89 6.89315 162 6.20315 162.24 6.17315C163.24 6.05315 164.19 6.08315 164.81 5.00315C165.23 4.26315 166.46 4.55315 166.9 3.60315C167.13 3.11315 167.63 3.30314 168.15 3.34314C168.81 3.40314 169.89 3.49315 170 2.20315C170.02 2.02315 170.97 1.92315 171.49 1.77315C172.22 1.55315 172.96 1.36315 173.67 1.07315C174.4 0.773148 175.06 0.323149 175.8 0.0431493C176.11 -0.0768507 176.52 0.0831521 177.37 0.163152C176.6 1.04315 176.19 1.72315 175.59 2.14315C174.22 3.11315 172.8 4.00315 171.34 4.82315C170.15 5.49315 168.87 6.00314 167.63 6.59314C166.43 7.17314 165.6 8.25315 164.31 8.82315C162.74 9.51315 161.36 10.7431 160.04 11.8931C157.18 14.3631 153.98 15.9432 149.64 16.2632Z" fill="#D8B06C"/>
</svg>
