<svg width="271" height="204" viewBox="0 0 271 204" fill="none" xmlns="http://www.w3.org/2000/svg">
<path d="M143.165 162.359C142.266 162.945 141.364 163.527 140.461 164.113C140.614 164.519 140.743 164.864 140.903 165.287C139.727 165.02 139.161 165.88 138.301 166.134C138.094 166.195 137.789 166.123 137.656 166.232C135.945 167.616 133.574 167.769 131.624 168.693C130.413 169.265 129.28 169.956 128.124 170.585C128.331 171.855 129.472 172.701 129.862 173.896C130.222 175.01 131.046 176.009 131.687 177.092C129.323 177.556 127.706 176.635 126.127 175.234C124.151 179.442 121.205 183.041 119.97 187.249C119.4 186.89 118.947 186.605 118.38 186.253C118.275 186.798 118.193 187.218 118.103 187.685C117.626 187.685 117.196 187.685 116.56 187.685C116.341 186.649 116.114 185.563 115.88 184.442C115.575 184.357 115.235 184.266 114.911 184.175C114.852 184.043 114.798 183.931 114.759 183.812C114.352 182.628 115.751 181.497 114.911 180.275C114.872 180.217 115.47 179.916 115.61 179.662C116.489 178.074 117.322 176.469 118.247 174.716C116.278 175.081 114.579 175.67 112.754 175.88C110.629 176.124 110.645 176.215 108.703 175.332C108.938 174.834 109.164 174.337 109.406 173.842C109.543 173.561 109.621 173.118 109.86 173.033C111.035 172.617 110.961 171.571 110.86 170.944C110.746 170.237 111.153 169.898 111.387 169.34C111.68 169.431 111.942 169.509 112.333 169.631C112.543 167.796 114.649 167.904 115.88 167.061C116.575 167.43 116.962 166.919 117.474 166.675C118.04 166.401 118.673 166.239 119.263 165.995C119.65 165.836 120.005 165.622 120.494 165.375C118.525 162.244 117.829 158.72 115.376 155.578C116.079 155.578 116.525 155.466 116.821 155.602C117.525 155.923 118.158 156.363 119.037 156.881C119.22 157.352 119.498 158.049 119.869 159C119.986 158.198 120.072 157.619 120.166 156.969C121.131 157.487 122.037 157.839 122.74 158.388C123.471 158.96 124.01 159.718 124.694 160.463C125.674 159.072 126.784 157.809 127.499 156.397C128.194 155.026 128.483 153.499 129.261 152.098C129.233 152.355 129.202 152.616 129.159 152.995C129.526 153.056 129.991 153.134 130.437 153.211C130.659 153.584 130.878 153.946 131.097 154.312C131.152 154.782 131.202 155.256 131.269 155.838C132.703 154.884 132.433 153.465 133.046 152.351C132.605 152.588 132.261 152.883 132.089 153.238C131.894 153.645 131.839 154.102 131.218 154.207C131.355 153.594 131.425 152.961 131.644 152.368C132.038 151.299 132.496 150.242 132.984 149.2C133.218 148.695 133.582 148.238 133.882 147.768C134.961 148.17 134.668 148.908 134.683 149.491C134.722 151.255 134.863 153.052 133.386 154.606C133.609 155.033 133.847 155.483 134.027 155.822C133.761 156.245 133.613 156.668 133.296 156.939C132.64 157.497 133.496 158.215 132.871 158.855C132.456 159.275 132.621 160.091 132.413 160.7C132.195 161.34 131.843 161.942 131.495 162.667C132.886 162.985 133.949 162.413 135.035 162.21C136.797 161.878 138.512 161.353 140.262 160.964C140.641 160.879 141.133 160.957 141.501 161.103C142.091 161.333 142.618 161.678 143.173 161.976C143.165 162.102 143.165 162.23 143.165 162.359Z" fill="#D8B06C"/>
<path d="M155.321 183.663C154.89 184.126 154.456 184.586 154.023 185.049C154.153 185.294 154.263 185.502 154.399 185.757C153.718 185.701 153.502 186.306 153.055 186.553C152.947 186.612 152.77 186.596 152.709 186.679C151.918 187.731 150.623 188.06 149.648 188.842C149.043 189.326 148.494 189.879 147.925 190.394C148.182 191.186 148.909 191.616 149.259 192.342C149.584 193.019 150.152 193.577 150.629 194.208C149.373 194.735 148.374 194.304 147.343 193.562C146.723 196.447 145.498 199.036 145.289 201.848C144.933 201.674 144.65 201.537 144.297 201.367C144.3 201.726 144.302 202.002 144.305 202.31C144.041 202.356 143.803 202.398 143.451 202.46C143.213 201.819 142.966 201.146 142.71 200.453C142.532 200.428 142.333 200.403 142.144 200.376C142.096 200.298 142.053 200.232 142.018 200.16C141.66 199.441 142.307 198.582 141.704 197.882C141.676 197.849 141.973 197.598 142.022 197.422C142.33 196.321 142.61 195.213 142.925 194.001C141.876 194.427 141.002 194.97 140.016 195.283C138.868 195.646 138.887 195.703 137.713 195.328C137.787 194.986 137.856 194.646 137.934 194.306C137.978 194.113 137.972 193.822 138.094 193.745C138.698 193.363 138.539 192.702 138.412 192.311C138.27 191.869 138.457 191.613 138.523 191.233C138.696 191.263 138.849 191.287 139.079 191.327C138.989 190.133 140.167 189.996 140.753 189.337C141.179 189.505 141.336 189.14 141.591 188.934C141.874 188.704 142.206 188.538 142.505 188.324C142.701 188.185 142.874 188.014 143.116 187.808C141.674 185.998 140.892 183.812 139.181 182.042C139.57 181.973 139.804 181.858 139.984 181.916C140.409 182.053 140.809 182.273 141.353 182.518C141.508 182.801 141.74 183.22 142.052 183.792C142.027 183.267 142.009 182.889 141.988 182.464C142.58 182.701 143.121 182.837 143.572 183.12C144.041 183.414 144.425 183.846 144.887 184.256C145.273 183.27 145.745 182.354 145.981 181.381C146.212 180.437 146.2 179.432 146.472 178.46C146.486 178.627 146.498 178.797 146.517 179.043C146.727 179.046 146.993 179.051 147.248 179.057C147.413 179.273 147.575 179.484 147.737 179.696C147.821 179.992 147.902 180.29 148.004 180.656C148.69 179.905 148.381 179.024 148.595 178.252C148.378 178.447 148.221 178.669 148.166 178.913C148.103 179.192 148.124 179.489 147.793 179.617C147.799 179.212 147.767 178.8 147.821 178.4C147.919 177.677 148.053 176.957 148.206 176.242C148.279 175.897 148.428 175.569 148.542 175.239C149.184 175.391 149.105 175.892 149.179 176.262C149.399 177.387 149.679 178.523 149.037 179.661C149.209 179.912 149.391 180.176 149.529 180.375C149.429 180.672 149.395 180.957 149.25 181.161C148.95 181.583 149.504 181.958 149.23 182.428C149.048 182.737 149.231 183.243 149.185 183.653C149.136 184.084 149.009 184.503 148.899 185.001C149.704 185.068 150.228 184.599 150.806 184.363C151.743 183.978 152.633 183.475 153.558 183.055C153.758 182.964 154.039 182.965 154.259 183.023C154.611 183.112 154.942 183.282 155.282 183.418C155.292 183.499 155.307 183.581 155.321 183.663Z" fill="#D8B06C"/>
<path d="M158.034 150.442C157.803 150.832 157.808 151.297 157.776 151.744C157.679 153.161 157.611 154.585 157.51 156.005C157.467 156.601 157.381 157.187 157.292 157.77C157.254 158.022 157.234 158.256 157.315 158.513C157.445 158.922 157.34 159.297 157.263 159.652C156.901 159.839 156.548 159.99 156.211 160.197C155.361 160.722 154.432 160.803 153.478 160.745C153.185 160.727 152.891 160.709 152.588 160.69C152.59 160.964 152.591 161.182 152.596 161.401C152.605 161.746 152.726 161.938 152.996 162.011C154.126 162.328 155.203 162.855 156.237 163.576C156.325 163.638 156.408 163.72 156.488 163.805C156.702 164.033 156.896 164.267 157.172 164.411C157.472 164.568 157.667 164.958 157.828 165.347C158.256 166.373 158.288 167.459 158.368 168.542C158.43 169.375 158.503 170.205 158.563 171.037C158.59 171.415 158.694 171.738 158.988 171.995C159.096 171.181 159.211 170.387 159.309 169.587C159.403 168.796 159.467 167.992 159.571 167.205C159.65 166.618 159.776 166.049 159.879 165.468C159.908 165.301 159.955 165.135 159.961 164.961C159.971 164.594 160.065 164.35 160.358 164.248C160.527 164.189 160.677 164.054 160.829 163.938C161.338 163.542 161.933 163.489 162.517 163.389C163.343 163.248 164.178 163.147 165.006 163.03C165.293 162.992 165.375 162.776 165.221 162.447C165.121 162.233 164.978 162.123 164.788 162.071C164.231 161.92 163.679 161.754 163.122 161.594C162.373 161.378 161.672 161.013 161.024 160.428C160.805 160.231 160.544 160.116 160.331 159.91C159.631 159.232 159.229 158.295 158.925 157.287C158.811 156.905 158.72 156.514 158.627 156.123C158.503 155.592 158.397 155.055 158.271 154.524C158.098 153.792 158.141 153.062 158.106 152.332C158.082 151.791 158.091 151.249 158.08 150.706C158.078 150.617 158.053 150.524 158.038 150.433L158.034 150.442Z" fill="#D8B06C"/>
<path d="M257.393 95.018C258.192 94.6094 257.731 93.4121 258.634 93.0605C258.852 92.9749 258.966 92.4523 259.303 92.8942C260.097 93.9347 260.187 93.1365 260.781 92.5806C261.817 91.6065 263.209 91.0079 264.478 90.2951C264.582 90.2334 264.915 90.5992 265.043 90.5422C265.338 90.4092 265.575 90.1383 265.837 89.9245C265.271 89.5682 265.884 89.3544 265.913 89.0835C265.979 88.3708 266.107 88.2093 266.616 88.8032C267.181 89.4684 267.424 89.3876 267.386 88.4944C267.376 88.2996 267.576 87.9147 267.618 87.9194C268.868 88.1713 269.115 87.1735 269.59 86.418C269.728 86.2042 270.08 86.0997 270.35 85.9999C270.56 85.9239 270.873 86.0141 271.006 85.8906C271.382 85.5342 271.69 85.1066 272.023 84.7075C272.094 85.2967 272.166 85.8906 272.237 86.4798C272.332 86.4798 272.427 86.475 272.522 86.475C272.546 85.8763 272.531 85.2682 272.622 84.679C272.655 84.4652 273.035 84.0946 273.087 84.1231C274.218 84.717 274.432 84.1706 274.551 83.1443C274.593 82.8022 275.259 82.5314 275.653 82.2463C275.672 82.232 275.891 82.4031 275.91 82.5124C275.986 82.8592 275.872 83.4294 276.489 82.8355C276.627 82.7024 276.912 82.6692 277.126 82.6787C277.976 82.7119 278.575 82.5219 278.813 81.5383C278.927 81.0679 279.183 81.3198 279.255 81.7094C279.392 82.4458 279.806 82.3366 280.191 81.9232C281.155 80.8969 281.435 80.7211 283.531 80.4027C283.821 80.4312 283.654 80.3077 283.488 80.3077C283.341 80.3077 283.06 80.4645 283.065 80.5073C283.113 80.7448 283.232 80.9682 283.322 81.1962C283.531 80.9872 283.74 80.7781 283.526 80.398C283.198 79.9656 283.346 79.633 283.521 79.3194C283.597 79.1816 283.745 79.0866 283.863 78.9726C283.868 78.9678 285.412 78.868 285.417 78.8633C285.246 79.5142 285.674 79.8753 286.087 80.2459C286.424 80.5453 286.348 80.6355 285.916 80.7828C285.227 81.0204 284.619 81.5193 283.92 81.6809C282.847 81.9279 282.457 83.0588 281.298 83.3296C280.314 83.5624 279.288 84.2086 278.423 84.9926C277.867 85.4962 277.302 86.0902 276.399 86.2945C275.663 86.4608 275.04 87.2115 274.408 87.7484C274.137 87.9765 273.42 86.8551 273.482 88.0952C273.491 88.3043 272.783 88.5371 272.413 88.7794C272.284 88.865 272.199 89.074 272.07 89.0978C271.329 89.2356 270.583 89.3354 269.837 89.4446C270.45 90.737 269.106 90.3664 268.683 90.7038C268.132 91.1456 267.31 91.654 266.725 91.5353C266.136 91.4212 265.59 91.445 265.604 91.8489C265.618 92.3335 266.088 92.7136 265.148 92.6613C264.734 92.6376 264.269 92.8276 263.898 93.0415C263.565 93.2315 263.361 93.6354 263.033 93.8349C262.91 93.911 262.444 93.5546 262.406 93.6069C262.183 93.8872 262.093 94.2768 261.86 94.5476C261.679 94.7615 261.342 95.0133 261.114 94.98C260.216 94.8517 259.783 95.3126 259.432 96.0348C259.175 96.5575 258.857 96.3294 258.605 95.9826C258.301 95.5644 257.897 95.3934 257.389 95.4789C257.393 95.3364 257.393 95.1796 257.393 95.018ZM265.091 91.7206C264.915 91.4592 264.839 91.3405 264.758 91.2217C264.554 91.4925 264.345 91.7586 264.14 92.0294C264.273 92.0769 264.444 92.2005 264.53 92.1577C264.739 92.0484 264.915 91.8631 265.091 91.7206Z" fill="#D8B06C"/>
<path d="M231.047 108.261C231.275 108.517 231.48 108.75 231.684 108.978C231.955 109.282 232.135 109.335 232.226 108.836C232.259 108.65 232.468 108.327 232.544 108.342C233.356 108.494 233.043 107.714 233.318 107.429C233.836 106.902 234.079 108.161 234.658 107.567C235.176 107.035 235.87 106.683 236.45 106.199C236.806 105.899 237.082 105.828 237.447 106.161C237.528 106.237 237.756 106.151 237.913 106.142C237.295 104.417 239.315 105.381 239.557 104.536C239.861 104.731 240.279 105.443 240.289 104.369C240.293 104.051 240.213 103.714 240.303 103.424C240.488 102.835 240.683 103.357 240.897 103.443C241.087 103.519 241.353 103.562 241.524 103.486C241.8 103.362 242.094 102.735 242.175 103.59C242.218 104.037 242.185 104.488 242.185 105.187C242.702 104.479 242.978 103.947 243.396 103.595C243.643 103.391 244.042 103.552 244.27 103.961C244.441 104.265 244.655 104.355 244.152 104.545C243.767 104.693 243.22 105.039 243.178 105.353C243.03 106.432 242.503 105.434 242.408 105.534C241.976 105.98 241.039 105.914 241.068 106.821C240.232 106.251 239.942 106.698 239.799 107.482C239.776 107.61 239.605 107.833 239.567 107.819C239.229 107.705 238.84 107.363 238.597 107.448C238.089 107.629 239.267 108.109 238.531 108.418C238.193 108.56 237.889 108.779 237.547 108.907C237.134 109.059 236.663 109.088 236.283 109.292C235.951 109.472 235.737 109.872 235.409 110.062C235.281 110.133 234.977 109.9 234.753 109.81C234.696 110.1 234.692 110.423 234.563 110.679C234.402 111.012 234.183 111.497 233.908 111.563C232.34 111.938 231.138 112.931 229.836 113.768C229.655 113.886 229.441 113.982 229.232 114.015C227.522 114.271 227.512 114.252 226.714 114.998C225.997 115.668 224.908 115.63 224.172 116.357C223.944 116.581 222.908 116.695 223.526 115.583C223.664 115.336 222.305 114.946 222.856 114.157C223.127 113.763 223.749 113.63 224.129 113.288C224.547 112.908 225.284 112.58 224.699 111.791C225.008 111.582 225.317 111.378 225.626 111.169C225.759 111.397 225.878 111.639 226.035 111.848C226.329 112.247 226.671 112.233 226.971 111.862C227.047 111.767 226.947 111.544 226.994 111.402C227.066 111.192 227.968 110.665 228.482 110.342C228.714 110.195 229.921 110.404 228.938 109.491C228.828 109.392 229.565 109.149 229.821 109.51C229.94 109.677 229.945 109.929 230.002 110.142C230.102 109.99 230.221 109.853 230.306 109.691C230.548 109.249 230.776 108.793 231.047 108.261Z" fill="#D8B06C"/>
<path d="M202.297 127.65C202.126 126.03 202.378 125.522 204.008 125.493C205.205 125.469 205.695 124.072 206.897 124.376C206.944 124.158 206.973 123.935 207.039 123.725C207.277 122.961 208.122 122.642 208.716 123.06C209.078 123.312 209.548 123.45 209.833 123.763C209.995 123.939 209.976 124.41 209.852 124.662C209.776 124.818 209.363 124.88 209.106 124.866C208.902 124.856 208.469 124.3 208.522 124.752C208.669 125.997 207.676 126.282 207.053 126.31C205.975 126.358 205.828 127.403 205.039 127.721C204.378 127.987 203.495 127.949 203.181 128.981C203 129.579 202.483 129.033 202.074 128.838C201.632 128.629 201.024 128.676 201.718 129.399C201.741 129.427 201.604 129.698 201.556 129.693C201.337 129.669 201 129.65 200.938 129.517C200.549 128.695 201.356 128.149 201.475 127.432C201.589 127.479 201.741 127.493 201.803 127.579C201.941 127.764 202.036 127.983 202.145 128.187C202.207 127.964 202.269 127.75 202.297 127.65Z" fill="#D8B06C"/>
<path d="M250.57 97.3271C250.698 97.8831 250.76 98.3249 250.907 98.7383C251.121 99.3417 251.401 99.9262 251.653 100.52C251.04 100.743 250.418 100.952 249.814 101.2C249.344 101.39 248.859 101.58 248.446 101.869C248.289 101.979 249.363 102.558 248.284 102.62C247.804 102.649 247.443 102.672 247.358 101.946C247.306 101.513 246.906 101.789 246.949 102.155C247.082 103.29 246.208 103.599 245.452 103.813C245.072 103.922 244.526 103.556 244.098 103.328C243.519 103.019 243.566 102.435 243.652 101.893C243.666 101.803 243.951 101.651 244.008 101.684C245.243 102.497 245.381 101.385 245.78 100.705C245.856 100.572 245.999 100.392 246.108 100.392C246.227 100.392 246.422 100.558 246.455 100.686C246.531 100.986 246.507 101.337 246.94 100.962C247.462 100.511 247.557 99.6506 248.37 99.4748C248.365 98.4817 248.736 98.9379 249.078 99.2895C249.244 98.9711 249.368 98.6148 249.586 98.3344C249.852 97.9876 250.194 97.7025 250.57 97.3271Z" fill="#D8B06C"/>
<path d="M257.394 95.018C257.394 95.1748 257.394 95.3363 257.394 95.4931C257.779 96.3912 257.542 97.2559 256.724 97.3509C256.107 97.427 255.936 97.6408 255.917 98.1587C255.641 98.1207 255.309 97.9639 255.099 98.0636C254.767 98.2252 254.477 98.8096 254.239 98.7669C253.36 98.6196 252.985 99.2325 252.477 99.6839C252.249 99.8834 252.206 99.7599 252.035 99.1755C251.945 98.8666 251.602 98.6386 251.488 98.3297C251.422 98.1539 251.545 97.8641 251.664 97.6835C251.731 97.5885 252.021 97.541 252.135 97.6075C252.439 97.7786 252.695 98.0256 252.98 98.2347C252.985 98.2395 253.128 98.1064 253.113 98.0732C252.762 97.1371 254.178 97.6645 254.106 96.8568C254.068 96.4719 254.501 96.0586 254.529 95.6452C254.639 94.1105 255.252 95.9398 255.499 95.4836C255.128 96.2201 255.247 96.6953 255.879 96.8996C255.997 96.9376 256.159 96.852 256.297 96.8235C256.235 96.662 256.159 96.5052 256.121 96.3389C256.059 96.0586 256.021 95.7687 255.974 95.4836C256.131 95.3744 256.378 95.2936 256.43 95.1463C256.549 94.8232 256.568 94.4621 256.625 94.1152C256.881 94.4288 257.138 94.7234 257.394 95.018Z" fill="#D8B06C"/>
<path d="M220.338 117.825C220.272 118.162 220.533 118.813 219.977 118.732C219.184 118.618 218.162 117.663 218.404 119.516C217.426 119.507 217.15 120.913 216.062 120.671C216.01 120.224 216.086 119.706 215.877 119.355C215.687 119.032 215.606 118.908 215.92 118.666C216.143 118.495 216.238 118.238 216.604 118.552C216.865 118.78 216.922 118.666 217.112 118.148C217.202 117.901 217.383 117.573 217.597 117.506C218.305 117.283 219.089 117.255 219.516 116.504C219.792 116.784 220.063 117.065 220.338 117.345C220.338 117.506 220.338 117.663 220.338 117.825Z" fill="#D8B06C"/>
<path d="M172.353 148.941C172.353 149.254 172.372 149.397 172.348 149.402C171.602 149.615 170.861 149.924 170.1 149.991C169.426 150.052 169.402 149.934 169.564 150.423C169.635 150.637 170.153 151.05 169.72 151.017C168.642 150.936 168.238 151.72 167.601 152.243C167.501 152.324 167.174 152.319 167.131 152.248C166.946 151.953 166.76 151.62 166.713 151.283C166.694 151.145 167.017 150.955 167.183 150.789C168.361 149.554 169.136 149.211 170.794 149.183C171.26 149.173 171.288 149.169 171.227 148.779C171.179 148.504 171.046 148.242 170.951 147.971C171.06 147.938 171.231 147.843 171.274 147.886C171.687 148.261 172.082 148.665 172.353 148.941Z" fill="#D8B06C"/>
<path d="M181.97 141.61C181.353 142.028 181.671 143.092 180.63 143.03C180.322 143.011 179.922 143.292 179.68 143.543C179.067 144.171 179.177 143.729 178.944 143.249C178.72 142.788 178.169 142.797 178.05 143.534C178.031 143.672 177.917 143.795 177.846 143.924C177.756 143.819 177.59 143.71 177.594 143.615C177.628 143.135 177.304 142.427 178.293 142.503C178.521 142.522 178.773 142.284 179.001 142.147C179.267 141.985 178.402 140.878 179.623 141.415C179.808 141.496 180.246 140.868 180.621 140.707C180.821 140.621 181.191 140.769 181.41 140.921C181.643 141.082 181.78 141.367 181.97 141.61Z" fill="#D8B06C"/>
<path d="M213.686 120.2C214.123 119.336 214.793 119.416 215.054 120.153C215.297 120.823 215.672 120.623 216.062 120.676C215.644 121.545 214.651 121.54 213.957 121.987C213.173 122.486 213.22 121.664 213.211 121.151C213.548 121.084 214.057 121.365 214.133 120.794C214.156 120.619 213.843 120.4 213.686 120.2Z" fill="#D8B06C"/>
<path d="M220.338 117.825C220.338 117.668 220.338 117.506 220.338 117.35C221.255 117.083 220.604 116.319 220.823 115.839C220.899 115.677 221.108 115.482 221.26 115.473C221.421 115.468 221.678 115.63 221.744 115.786C221.92 116.176 222.025 116.599 222.134 117.012C222.367 117.896 222.224 118.124 221.526 117.35C221.245 117.796 220.823 117.891 220.338 117.825Z" fill="#D8B06C"/>
<path d="M210.825 122.434C210.996 122.249 210.512 121.603 211.229 121.807C211.752 121.954 212.265 122.197 212.716 122.491C212.883 122.601 211.742 123.551 211.291 123.518C210.531 123.456 210.958 122.824 210.825 122.434Z" fill="#D8B06C"/>
<path d="M163.801 152.994C163.801 153.883 163.953 154.434 163.772 154.586C163.34 154.942 162.751 155.113 162.219 155.346C162.181 155.365 162.043 155.28 162.043 155.242C162.043 155.128 162.052 154.99 162.124 154.909C162.561 154.386 163.022 153.878 163.801 152.994Z" fill="#D8B06C"/>
<path d="M166.176 150.7C166.176 151.379 166.2 152.063 166.147 152.743C166.143 152.838 165.758 152.99 165.582 152.957C165.439 152.928 165.211 152.624 165.249 152.505C165.43 151.888 165.677 151.289 165.905 150.686C165.995 150.686 166.086 150.69 166.176 150.7Z" fill="#D8B06C"/>
<path d="M188.118 137.767C188.09 137.439 187.981 137.064 188.061 136.741C188.104 136.57 188.579 136.323 188.689 136.389C188.969 136.555 189.154 136.883 189.378 137.145C188.997 137.33 188.617 137.52 188.118 137.767Z" fill="#D8B06C"/>
<path d="M192.376 134.615C192.177 134.815 191.93 135.071 191.673 135.319C191.645 135.342 191.535 135.338 191.521 135.314C191.459 135.19 191.331 135.01 191.374 134.934C191.55 134.625 191.782 134.34 192.001 134.055C192.02 134.031 192.139 134.036 192.153 134.059C192.215 134.188 192.258 134.321 192.376 134.615Z" fill="#D8B06C"/>
<path d="M187.192 138.812C186.902 138.95 186.641 139.125 186.356 139.183C186.166 139.221 185.942 139.092 185.733 139.04C186.109 138.779 186.484 138.522 186.855 138.261C186.931 138.389 187.007 138.513 187.192 138.812Z" fill="#D8B06C"/>
<path d="M184.911 139.353C184.674 139.695 184.536 139.89 184.403 140.084C184.189 139.714 183.97 139.343 183.776 138.958C183.766 138.944 184.051 138.711 184.103 138.74C184.36 138.887 184.579 139.091 184.911 139.353Z" fill="#D8B06C"/>
<path d="M172.928 147.227C173.118 147.407 173.265 147.483 173.294 147.588C173.332 147.725 173.332 147.949 173.251 148.025C172.98 148.277 172.657 148.481 172.358 148.704C172.358 148.623 172.334 148.538 172.363 148.471C172.534 148.068 172.719 147.673 172.928 147.227Z" fill="#D8B06C"/>
<path d="M196.699 132.954C196.49 132.502 196.338 132.251 196.267 131.975C196.243 131.875 196.409 131.723 196.49 131.6C196.68 131.761 196.889 131.904 197.041 132.094C197.084 132.151 196.951 132.346 196.699 132.954Z" fill="#D8B06C"/>
<path d="M147.451 165.886C147.684 166.109 147.902 166.318 148.121 166.527C147.926 166.603 147.622 166.798 147.556 166.736C147.375 166.575 147.29 166.299 147.19 166.062C147.18 166.038 147.375 165.933 147.451 165.886Z" fill="#D8B06C"/>
<path d="M167.91 60.1059C167.687 59.8018 167.487 59.4787 167.231 59.2031C166.927 58.8705 166.95 58.6614 167.416 58.6947C168.262 58.7565 168.632 58.3478 168.884 57.5781C169.117 56.8702 169.483 57.8727 169.616 57.6399C169.792 57.3358 169.63 56.8036 169.839 56.5613C170.243 56.0909 170.799 56.1384 171.265 56.5756C171.787 57.065 172.091 56.6468 172.41 56.3142C172.785 55.9199 172.514 55.8534 172.158 55.8296C171.673 55.7963 171.635 55.5445 172.001 55.3212C172.623 54.9411 173.545 54.7985 173.887 54.2616C174.353 53.5347 174.529 53.0643 175.289 53.9005C175.337 53.9528 175.869 53.739 175.954 53.5489C176.073 53.2876 175.907 52.9027 176.002 52.6177C176.116 52.2756 176.339 51.7529 176.581 51.7149C177.232 51.6056 176.786 52.2185 176.933 52.4704C177.08 52.7269 177.228 52.993 177.427 53.2068C177.489 53.2733 177.845 53.2163 177.86 53.1546C178.097 52.2993 178.297 51.4393 178.525 50.508C178.976 51.1922 179.033 52.0998 180.088 52.0475C180.402 52.0332 180.829 52.4751 181.019 52.3753C181.285 52.2328 181.423 51.7814 181.537 51.4393C181.732 50.8501 181.95 50.3322 182.616 50.1042C182.82 50.0329 183.096 49.705 183.077 49.515C182.972 48.3889 184.041 48.5029 184.26 48.769C184.863 49.515 185.172 48.6692 185.595 48.655C186.108 48.6312 186.051 48.1846 185.785 47.7997C185.695 47.6714 185.718 47.4719 185.69 47.3008C185.842 47.2913 186.013 47.2391 186.151 47.2818C186.388 47.3531 186.711 47.6287 186.821 47.5574C187.628 47.0062 188.208 45.8232 189.467 46.7449C189.857 46.2318 190.28 45.7329 190.612 45.1817C190.665 45.0962 190.27 44.7636 190.113 44.526C190.018 44.3787 189.985 44.1934 189.923 44.0271C190.137 44.0319 190.403 43.9559 190.555 44.0556C190.807 44.2219 191.007 44.4833 191.182 44.7351C191.301 44.9109 191.334 45.1437 191.406 45.3528C191.491 45.1675 191.601 44.9869 191.658 44.7874C191.7 44.6401 191.653 44.4738 191.667 44.317C191.753 43.4522 191.762 43.438 192.717 43.8228C193.126 43.9891 193.435 44.0889 193.572 43.5235C193.648 43.2051 193.767 42.8963 193.867 42.5875C193.924 42.882 194.005 43.1719 194.033 43.4665C194.062 43.7611 194.038 44.0556 194.038 44.4357C194.851 44.1554 195.245 42.73 196.186 43.9416C196.352 43.7753 196.647 43.6233 196.67 43.4332C196.813 42.3309 197.82 42.1361 198.514 41.6277C198.804 41.4139 199.379 41.3473 199.45 41.105C199.735 40.15 200.362 40.1547 201.184 40.112C202.087 40.0692 201.156 39.5466 201.222 39.4943C201.488 39.2757 201.526 38.5108 202.144 38.9954C202.51 39.2852 203.047 39.3232 203.023 38.8861C202.966 37.8788 203.37 37.722 204.239 37.7505C205.161 37.779 205.841 36.7622 206.881 37.0331C206.981 37.0568 207.171 36.7242 207.318 36.5532C206.796 36.1018 206.758 35.7882 207.57 35.888C207.912 35.9307 208.278 36.3489 208.539 36.2776C208.782 36.2063 208.824 35.5886 209.09 35.4176C209.865 34.9282 210.844 34.7191 211.186 33.7023C211.21 33.6358 211.286 33.5598 211.352 33.536C212.535 33.1037 212.535 33.1037 212.673 32.2199C212.683 32.1676 212.778 32.1344 212.835 32.0916C212.906 32.2199 213.01 32.3387 213.044 32.4765C213.139 32.8661 212.811 33.6121 213.585 33.4648C214.502 33.2842 213.424 32.8756 213.547 32.8043C214.046 32.5097 214.602 32.3102 215.139 32.0726C215.562 32.8471 216.047 32.2009 216.393 32.0441C217.32 31.626 217.619 30.1103 219.078 30.5237C219.192 30.5569 219.477 29.944 219.705 29.6494C219.795 29.5306 220.042 29.3596 220.061 29.3738C220.969 30.2481 221.216 29.3263 221.601 28.8084C221.715 28.6564 221.796 28.4901 221.895 28.3285C223.302 29.4973 223.269 27.9579 223.706 27.3497C224.062 26.8556 224.357 26.8556 224.751 27.307C224.808 27.3735 225.283 27.2499 225.34 27.1216C225.744 26.1999 227.06 27.0931 227.374 26.0668C227.507 26.1381 227.692 26.1809 227.763 26.2902C227.877 26.4707 227.911 27.1121 228.158 26.6228C228.562 25.834 228.994 25.2971 229.807 24.8837C230.149 24.7127 230.125 23.8194 230.296 23.1447C230.752 23.0925 230.833 23.7387 231.208 23.8479C231.451 23.9192 231.793 23.9002 231.997 23.7719C232.178 23.6579 232.235 23.3395 232.349 23.1115C232.406 23.3253 232.425 23.5676 232.543 23.7387C232.596 23.8147 232.938 23.8099 233.009 23.7292C233.351 23.33 233.612 22.8644 233.964 22.4748C234.13 22.2895 234.624 22.0994 234.643 22.1279C235.066 22.7599 235.675 22.3512 235.622 22.0424C235.475 21.1491 237.1 21.0541 236.43 20.0373C236.421 20.0231 236.72 19.719 236.815 19.7475C237.442 19.9375 238.055 20.1941 238.677 20.4079C238.829 20.4602 239.01 20.4317 239.181 20.4412C239.181 20.2036 239.181 19.966 239.181 19.7285C240.255 19.814 241.238 19.4196 242.098 18.897C243.172 18.2508 244.346 17.9229 245.477 17.4573C246.071 17.215 246.313 17.3718 246.318 18.018C246.322 18.2555 246.498 18.4884 246.593 18.7212C246.76 18.5549 246.94 18.4028 247.083 18.2223C247.168 18.113 247.197 17.961 247.249 17.8279C247.715 17.6474 248.451 18.2698 248.674 17.3528C249.791 17.5808 249.781 16.5593 250.071 15.9891C250.385 15.3714 250.908 14.7443 251.644 14.4924C252.053 14.3546 252.475 14.1741 252.813 13.908C253.297 13.5231 253.711 13.048 254.157 12.6156C254.737 13.4614 255.013 12.6489 255.312 12.3638C255.706 11.9837 255.797 12.4161 255.987 12.5539C256.576 12.9862 256.985 12.8865 257.232 12.2403C257.431 11.7176 257.555 11.6606 258.234 11.6416C258.334 11.6368 258.534 11.3423 258.505 11.2995C258.358 11.0762 257.93 10.8244 258.543 10.7246C259.232 10.6105 260.135 11.0002 260.277 9.82656C260.277 9.8123 260.695 9.79805 260.885 9.86932C261.099 9.94534 261.237 10.4632 261.503 9.92159C261.779 9.36567 261.731 8.6197 262.453 8.33462C262.501 8.6197 262.553 8.90954 262.601 9.19462C262.819 9.03783 263.109 8.91904 263.233 8.70998C263.37 8.47241 263.351 8.14931 263.404 7.85948C264.525 7.15152 264.696 7.15627 264.801 8.13506C264.896 9.00932 265.033 8.69097 265.532 8.38213C267.191 7.36058 267.214 7.40334 268.15 7.38909C268.15 7.86423 268.15 8.33937 268.15 8.81451C267.081 10.2114 265.162 11.385 262.681 12.1357C262.002 12.34 261.28 12.4351 261.004 13.2666C260.957 13.4091 260.657 13.4899 260.463 13.5612C260.13 13.6799 260.116 12.9482 259.56 13.3141C258.838 13.7892 257.659 13.8035 257.222 14.4069C256.657 15.1956 255.208 14.5019 255.189 15.8371C254.751 15.552 254.376 15.8418 253.958 15.8988C253.036 16.0319 252.257 16.2267 251.92 17.2055C251.696 17.1105 251.292 16.9109 251.273 16.9442C250.76 17.7661 249.24 17.2625 249.107 18.5786C249.102 18.6166 248.898 18.6452 248.784 18.6642C247.781 18.859 247.8 18.8827 247.235 19.4101C247.054 19.5764 246.603 19.7522 246.517 19.6715C246.189 19.3531 246.037 19.3341 245.629 19.6382C245.225 19.9375 245.04 21.1064 244.142 20.2321C243.481 21.8571 241.196 21.2537 240.502 22.8786C240.435 23.0354 239.913 22.9452 239.661 23.0782C238.744 23.5534 237.57 23.5534 236.953 24.5702C236.653 25.0595 236.378 24.8742 236.116 24.5274C235.884 25.0833 234.886 24.6319 234.857 25.5774C234.838 26.1714 234.506 25.682 234.292 25.5679C233.912 25.3636 233.551 25.3066 233.47 25.9005L232.144 26.5372C231.65 27.1834 230.762 26.8461 230.13 27.4875C229.398 28.2335 228.234 28.5613 227.246 29.0507C226.941 29.2028 226.932 29.1695 226.813 28.6706C226.747 28.3855 226.656 28.1099 226.576 27.8249C226.248 27.9912 225.915 28.148 225.606 28.3475C225.568 28.3713 225.682 28.7561 225.711 28.7561C226.248 28.7229 226.509 29.046 226.31 29.4641C226.067 29.9677 225.887 29.3976 225.673 29.3073C225.635 29.293 225.526 29.3358 225.511 29.3691C225.388 29.7967 225.283 30.2243 225.169 30.6519C224.822 30.4096 224.409 29.7919 224.062 30.3954C223.673 31.0653 222.508 30.8372 222.537 31.854C222.371 31.8493 222.204 31.854 222.038 31.835C221.767 31.8113 221.33 31.6592 221.259 31.7638C221.021 32.1154 221.107 32.9896 220.389 32.1059C220.052 32.4432 219.762 32.8471 219.368 33.0942C219.007 33.3222 218.997 34.0777 218.189 33.7403C217.481 33.441 217.923 34.5718 217.367 34.6621C217.244 34.6811 217.154 34.8664 217.03 34.8949C215.377 35.3083 215.391 35.3178 214.93 35.9735C214.555 36.5104 214.26 37.3799 213.395 36.4914C213.172 36.7907 212.963 37.1091 212.721 37.3894C212.469 37.6793 212.169 38.0641 212.084 37.2706C212.041 36.862 211.704 36.6767 211.651 37.1756C211.509 38.5155 209.76 38.3825 209.57 39.6083C209.461 39.4753 209.357 39.3375 209.243 39.2092C209.133 39.0857 209.014 38.9716 208.9 38.8529C208.62 39.1332 208.321 39.3993 208.064 39.6939C207.537 40.302 206.976 40.6584 206.083 40.7107C205.527 40.7439 204.966 41.3948 204.491 41.8557C204.021 42.3214 203.593 42.6255 202.866 42.5684C202.115 42.5114 201.531 42.9391 201.151 43.6233C201.099 43.7183 200.804 43.8086 200.738 43.7563C200.015 43.1814 199.521 43.533 198.918 44.0271C198.362 44.4833 197.635 44.7256 196.979 45.0582C197.103 46.3791 195.834 45.6949 195.302 46.1367C194.874 46.4931 194.584 46.9587 194.162 47.2581C193.815 47.5051 192.969 46.9967 193.074 47.9898C193.078 48.0421 192.964 48.1608 192.926 48.1513C192.541 48.0753 191.928 47.7902 191.824 47.9185C191.572 48.2321 191.591 48.7548 191.425 49.1634C191.344 49.3629 191.125 49.5435 190.931 49.6575C190.532 49.8856 189.852 48.7215 189.553 50.0186C189.448 50.4748 188.512 50.9832 187.923 51.0259C187.187 51.083 186.821 51.4821 186.35 51.8717C185.832 52.2993 185.229 52.6272 184.716 53.069C184.326 53.4016 184.046 53.663 183.547 53.2116C183.086 52.7982 183.205 53.3256 183.096 53.5347C183.005 53.701 182.796 53.9243 182.654 53.9148C182.345 53.8958 181.922 53.5727 181.765 53.682C181.499 53.8673 181.418 54.3044 181.228 54.618C181.171 54.713 181.014 54.751 180.9 54.8176C180.843 54.6845 180.767 54.5515 180.739 54.4089C180.71 54.2569 180.796 54.0383 180.72 53.948C180.558 53.7532 180.278 53.4539 180.126 53.4919C179.527 53.6487 180.164 53.929 180.116 54.0526C180.002 54.3662 179.67 54.599 179.551 54.9126C179.485 55.0836 179.679 55.3497 179.755 55.573C179.413 55.6586 179.066 55.7441 178.724 55.8344C177.289 56.2097 177.285 56.2097 176.505 56.9747C176.102 57.3691 175.755 57.9867 175.104 57.2693C175.056 57.217 174.705 57.3215 174.705 57.3643C174.652 58.4951 173.816 58.1578 173.175 58.2101C172.372 58.2718 172.956 58.5474 173.018 58.8562C173.099 59.2649 172.695 59.3741 172.196 58.9275C171.773 58.5522 171.702 59.1223 171.531 59.0843C170.623 58.8657 170.98 60.2436 170.081 60.1534C169.535 60.0964 168.951 60.429 168.38 60.5905C168.228 60.4194 168.072 60.2627 167.91 60.1059ZM244.018 19.757C244.222 19.7095 244.541 19.7 244.773 19.5574C244.987 19.4244 245.187 19.1583 245.23 18.9207C245.253 18.7972 244.94 18.6024 244.778 18.4408C244.65 18.5976 244.541 18.7687 244.393 18.9065C244.251 19.0395 244.07 19.1298 243.913 19.2486C243.78 19.3484 243.662 19.4624 243.538 19.5717C243.671 19.6239 243.799 19.6762 244.018 19.757Z" fill="#D8B06C"/>
<path d="M167.91 60.1039C168.067 60.2607 168.228 60.4223 168.385 60.5791C168.228 60.8119 167.943 61.0495 167.943 61.2823C167.948 62.3941 167.535 61.7194 167.116 61.5579C166.793 61.4296 166.38 61.5341 165.682 61.5341C165.715 61.5341 165.862 61.5341 166.009 61.5341C165.805 61.249 165.601 60.964 165.392 60.6789C165.282 60.7882 165.059 60.9307 165.078 61.0067C165.135 61.2253 165.287 61.4201 165.682 61.5341C165.392 62.2278 164.812 62.9595 164.142 63.5915C163.957 63.7673 163.472 63.5867 163.163 63.6865C162.607 63.8576 161.828 64.461 161.581 64.2852C160.35 63.3872 160.954 65.0026 160.374 65.0929C159.842 65.1784 159.372 65.6963 158.887 66.048C158.431 66.3806 157.78 67.1313 157.58 67.022C156.654 66.5278 157.1 68.2051 156.183 67.7822C155.889 67.6492 155.195 68.628 154.715 68.5995C153.87 68.5472 153.813 69.0936 153.418 69.5212C153.076 69.8966 152.354 70.0059 151.784 70.0629C151.157 70.1294 151.066 71.8969 150.059 70.5903C149.398 71.0939 148.629 71.5026 148.106 72.125C147.531 72.8092 147.384 71.7876 146.999 71.9872C146.999 71.8304 146.999 71.6689 146.999 71.5121C147.156 71.3885 147.427 71.284 147.455 71.1319C147.617 70.3337 147.009 69.2694 148.363 68.8845C148.5 68.8465 148.396 68.0055 148.443 67.5399C148.448 67.4971 148.771 67.4021 148.871 67.4639C149.261 67.6967 150.62 67.8107 150.62 67.6064C150.615 66.3188 151.864 67.0457 152.302 66.4756C152.748 65.8912 153.917 66.7607 154.064 65.9197C154.221 65.0169 155.148 65.454 155.371 64.8268C155.609 64.1711 156.022 64.7081 156.364 64.7651C156.421 64.3945 156.473 64.0191 156.53 63.6485C156.697 63.677 156.939 63.639 157.02 63.7388C157.481 64.2709 157.87 64.6605 158.037 63.563C158.26 63.658 158.483 63.7483 158.706 63.8433C158.816 63.5725 158.878 63.2589 159.063 63.0546C159.153 62.95 159.471 63.0498 159.685 63.0546C159.614 63.2209 159.514 63.3824 159.481 63.5582C159.462 63.658 159.509 63.8481 159.581 63.8766C159.714 63.9336 159.956 63.9716 160.027 63.8956C160.165 63.7483 160.308 63.5107 160.293 63.3254C160.213 62.4179 160.417 62.0663 161.496 61.9285C162.522 61.8002 163.643 61.1873 164.389 60.4508C165.43 59.4293 166.328 59.4293 167.44 60.0992C167.558 60.1657 167.753 60.1039 167.91 60.1039ZM150.263 69.0128C149.655 68.761 149.46 68.628 149.408 68.6707C149.218 68.8228 149.075 69.0318 148.914 69.2219C149.042 69.3027 149.189 69.469 149.289 69.4452C149.555 69.3739 149.807 69.2219 150.263 69.0128Z" fill="#D8B06C"/>
<path d="M109.002 93.8358C109.093 92.8808 108.014 92.0493 108.855 90.8377C109.097 91.3984 109.321 91.8307 109.473 92.2869C109.725 93.0423 109.872 92.9473 110.556 92.591C111.364 92.1728 109.953 91.6834 110.746 91.3508C111.297 91.1228 111.411 90.6571 110.927 90.1535C110.865 90.087 111.064 89.7686 111.145 89.5643C112.571 90.8092 112.67 89.1462 113.283 88.595C113.473 88.424 113.682 88.1959 113.915 88.1484C115.35 87.8491 115.35 87.8633 115.664 86.1481C115.688 86.0103 115.811 85.8962 115.887 85.7679C115.968 85.9675 116.02 86.1861 116.144 86.3524C116.22 86.4569 116.414 86.4712 116.557 86.5234C116.557 85.174 117.83 85.5019 118.505 85.041C118.543 85.0172 118.51 84.8889 118.51 84.8129C118.667 84.6561 118.828 84.4946 118.985 84.3378C119.275 84.39 119.574 84.4233 119.855 84.5088C119.983 84.5468 120.078 84.6941 120.192 84.7939C120.467 84.3615 120.729 83.9149 121.023 83.492C121.232 83.1927 121.703 84.4281 121.85 83.3685C121.874 83.2022 122.083 82.9409 122.225 82.9266C124.231 82.7603 124.649 82.67 125.741 81.582C126.326 80.9975 127.442 81.5772 127.751 80.5557C127.998 80.7077 128.241 80.8598 128.488 81.007C128.212 81.677 127.979 82.3754 127.642 83.0121C127.466 83.3447 127.115 83.5871 126.825 83.8531C126.255 84.3758 125.48 83.0739 125.243 83.8104C125.043 84.4328 124.801 84.8984 124.387 85.3546C123.765 86.034 123.741 85.5636 123.703 85.0315C123.698 84.9887 123.494 84.9602 123.385 84.9222C123.375 85.8915 122.301 85.787 121.893 86.3809C121.769 86.5614 122.13 87.6828 121.251 86.837C121.028 87.1316 120.824 87.4452 120.581 87.7208C120.325 88.0154 120.054 88.3147 119.745 88.5475C119.394 88.8088 118.99 88.9989 118.614 89.2222C118.424 89.3315 118.206 89.5786 118.054 89.5406C116.913 89.2602 116.4 90.125 115.673 90.6856C115.279 90.985 114.618 90.8044 114.067 90.9327C113.63 91.0325 114.034 92.6575 113.06 91.4696C112.514 91.8545 111.939 92.2061 111.426 92.629C110.946 93.0281 110.456 93.4557 110.1 93.9641C109.572 94.7053 109.387 93.6315 109.002 93.8358Z" fill="#D8B06C"/>
<path d="M147.009 71.5078C147.009 71.6645 147.009 71.8261 147.009 71.9829C146.853 72.2347 146.567 72.477 146.558 72.7336C146.529 73.6316 146.282 73.337 145.812 72.9902C145.674 72.8904 145.171 73.4178 144.871 73.3798C144.315 73.3085 145.076 74.9003 144.03 73.9927C143.797 74.2731 143.612 74.6484 143.318 74.81C142.88 75.0523 142.343 75.1188 141.873 75.3136C141.165 75.613 140.429 75.8315 140.106 76.7105C139.906 77.2522 139.431 77.3472 137.825 77.7653C137.64 77.8129 137.469 77.9744 137.326 78.1122C136.932 78.4876 136.575 79.0055 136 78.3308C135.981 78.307 135.749 78.4638 135.616 78.5398L134.209 79.837C133.435 79.6611 132.969 80.3168 132.337 80.5116C132.209 80.5497 131.957 80.3501 131.824 80.2028C131.43 79.7752 131.434 79.7609 131.344 79.9415C131.026 80.5972 130.503 81.2339 130.436 81.9181C130.322 83.0964 129.239 81.2766 129.253 82.3837C128.778 82.1319 128.926 81.842 129.168 81.4999C129.249 81.3859 129.192 81.1768 129.201 81.0105C128.964 81.0105 128.726 81.0105 128.493 81.0105C128.769 79.9177 128.764 79.9272 129.657 80.027C129.862 80.0508 130.27 79.9415 130.27 79.9225C130.189 79.0482 131.149 79.2335 131.42 78.7726C131.705 78.2975 131.876 77.7606 132.095 77.2474C132.513 77.8034 132.836 77.6513 133.435 77.3472C134.005 77.0526 134.276 76.8673 134.209 76.2401C134.2 76.1356 134.423 76.0073 134.537 75.8885C134.737 76.1356 134.993 76.3874 135.193 75.9551C135.706 74.829 136.395 74.0355 137.792 74.3016C137.82 74.3063 137.929 73.9167 137.991 73.7076C138.072 73.4321 137.046 73.2183 137.882 72.9902C138.224 72.8952 138.557 72.1397 139.179 72.8667C139.778 73.5651 139.916 73.4463 140.918 72.6243C141.331 72.2822 141.593 72.4533 141.854 73.1232C141.954 73.3798 142.191 73.6174 142.424 73.7884C142.804 74.0688 143.194 73.8644 143.218 73.4131C143.232 73.1802 143.313 72.8049 143.203 72.7289C142.61 72.3155 142.876 72.0399 143.265 71.6978C143.66 71.3557 143.945 71.503 144.249 71.8166C144.344 71.9116 144.51 71.9354 145.123 72.1207C145.46 72.1017 145.413 72.0019 145.351 71.9971C145.118 71.9781 144.814 71.8974 144.662 72.0114C144.448 72.1729 144.344 72.4818 144.197 72.7289C144.325 72.8001 144.501 72.9617 144.572 72.9284C144.928 72.7336 145.256 72.4913 145.123 72.1254C144.805 71.6741 144.909 71.3129 145.133 71.0516C145.441 70.6905 145.879 70.1108 146.183 70.1536C146.777 70.2296 147.138 70.795 147.009 71.5078Z" fill="#D8B06C"/>
<path d="M90.9471 104.288C90.7999 104.839 91.4603 105.856 90.1061 105.727C89.9208 105.708 89.5692 105.851 89.5407 105.979C89.2366 107.281 88.0773 107.552 87.1318 108.108C86.8182 108.293 86.6329 108.697 86.3906 109.001C86.1292 108.645 85.9439 108.583 85.5353 108.939C84.9129 109.476 84.604 110.517 83.5825 110.446C82.6322 110.379 82.4564 111.786 81.3636 111.472C81.145 111.41 80.7744 112.199 80.3848 112.327C79.9477 112.474 79.463 112.318 79.4773 113.059C79.4773 113.163 78.6505 113.211 78.2847 113.42C78.0851 113.534 78.0471 113.928 77.9378 114.199C77.7715 114.076 77.6052 113.952 77.4389 113.833C77.3296 114.076 77.2774 114.404 77.0921 114.537C76.8688 114.693 76.5267 114.665 76.2416 114.746C75.7522 114.888 75.2723 115.059 74.7876 115.216C74.6308 115.059 74.4693 114.898 74.3125 114.741C74.4788 114.175 74.6023 113.596 74.8447 113.064C74.9017 112.94 75.3768 112.916 75.6191 112.988C75.8472 113.054 76.1323 113.572 76.1893 112.959C76.3223 111.538 77.0541 110.906 78.4462 110.93C78.6505 110.935 78.9831 110.83 79.0354 110.697C79.1684 110.355 79.1732 109.961 79.2254 109.59C79.4488 109.685 79.8099 109.909 79.8716 109.847C80.1235 109.59 80.266 109.224 80.4893 108.935C80.6081 108.778 80.8267 108.569 80.974 108.588C82.6084 108.811 83.4922 107.386 84.7846 106.882C85.0126 105.708 86.1672 105.632 86.9417 105.314C87.6354 105.029 87.6782 105.01 87.1603 104.563C87.4359 104.316 87.8777 103.808 87.9538 103.86C88.9563 104.506 89.3744 103.67 89.9208 103.162C90.1869 102.915 90.4387 102.649 90.9281 102.159C90.9281 102.919 90.9281 103.371 90.9281 103.822C90.9471 103.969 90.9471 104.126 90.9471 104.288Z" fill="#D8B06C"/>
<path d="M57.0225 126.264C57.2695 125.794 57.4548 125.309 57.7589 124.915C58.0345 124.554 58.3671 123.936 58.9135 124.687C59.3459 124.316 59.631 123.551 60.415 124.135C60.4482 123.922 60.586 123.603 60.5005 123.513C60.0253 123.033 59.9446 122.8 60.7666 122.8C61.0374 122.8 61.3937 122.681 61.5648 122.487C62.1065 121.874 62.6006 121.555 63.2658 122.325C63.3181 122.387 63.6554 122.197 63.8597 122.121C63.7504 121.878 63.6649 121.441 63.5271 121.422C62.3773 121.27 63.223 120.852 63.4511 120.672C63.6602 120.505 64.1543 120.358 64.2683 120.467C64.8955 121.075 65.4467 120.42 66.0216 120.439C66.2592 120.448 66.492 120.439 66.7296 120.439C66.6203 120.629 66.5158 120.824 66.397 121.009C66.2354 121.261 66.0644 121.503 65.8981 121.745C65.3327 121.028 65.1949 121.869 64.905 122.045C64.5819 122.244 64.3634 122.639 64.0308 122.791C63.6174 122.976 62.9332 122.496 62.8667 123.489C62.8477 123.798 62.0922 124.093 61.6408 124.325C61.2322 124.535 61.0754 125.708 60.3104 124.72C59.9208 125.109 59.593 125.608 59.1273 125.86C58.5999 126.145 58.1295 126.383 57.987 127.024C57.9775 127.077 57.6354 127.143 57.5736 127.081C57.3788 126.886 57.26 126.635 57.0225 126.264Z" fill="#D8B06C"/>
<path d="M268.156 7.36959C268.156 7.13678 268.142 6.89921 268.18 6.67114C268.184 6.64738 268.527 6.59987 268.636 6.67589C269.486 7.25556 270.047 6.47158 270.451 6.09622C271.135 5.45953 271.206 5.26948 271.349 5.62583C271.662 6.39081 271.7 6.87545 272.1 5.64959C272.19 5.37876 273.211 4.97489 273.392 6.06296C273.487 6.63788 273.995 6.35755 274.333 6.41931C274.005 6.66639 273.677 6.90871 273.354 7.16053C272.717 7.65468 271.396 6.89921 271.259 8.30562C270.318 8.45291 269.629 9.00408 268.954 9.63601C268.565 10.0019 268.294 9.71678 268.156 8.79501C268.807 8.31987 268.807 7.84948 268.156 7.36959Z" fill="#D8B06C"/>
<path d="M74.3225 114.736C74.4793 114.893 74.6408 115.055 74.7976 115.211C74.446 116.2 73.51 116.319 72.6975 116.651C72.0941 116.898 71.5619 117.331 70.9537 117.573C70.3408 117.815 70.4976 118.865 69.5948 118.766C69.3335 118.737 69.0579 118.88 68.7871 118.941C68.8916 118.637 68.9059 118.238 69.115 118.048C69.5141 117.677 70.0272 117.421 70.4881 117.112C70.8967 116.841 71.9658 116.917 71.0725 115.938C70.968 115.824 72.4457 114.779 72.7593 114.86C72.8353 114.879 72.8448 115.121 72.9018 115.259C72.9588 115.392 73.0301 115.52 73.0966 115.649C73.1869 115.554 73.358 115.463 73.3627 115.368C73.3865 114.689 73.377 114.009 73.377 113.254C74.2512 113.582 73.3342 114.66 74.3225 114.736Z" fill="#D8B06C"/>
<path d="M90.9473 104.289C90.9473 104.132 90.9473 103.971 90.9473 103.814C91.5032 103.648 92.0211 103.31 91.869 102.707C91.603 101.657 93.2707 102.046 92.9714 101.072C93.2945 101.524 94.1497 101.148 94.297 102.023C94.2115 102.042 94.1355 101.928 94.0499 101.918C93.6746 101.88 93.285 101.875 93.3277 102.426C93.3372 102.555 93.437 102.673 93.4988 102.797C93.7648 102.583 94.0262 102.369 94.297 102.018C94.7484 101.904 95.2235 101.904 95.6987 101.904C94.8957 102.626 94.0879 103.343 93.2945 104.075C92.9001 104.436 92.5722 105.063 92.1446 105.135C91.8025 105.201 91.3511 104.598 90.9473 104.289Z" fill="#D8B06C"/>
<path d="M56.7517 124.771C56.6519 125.936 57.0178 126.591 56.4143 127.209C56.1863 127.442 56.172 127.508 55.7349 127.29C55.6399 127.242 55.3405 127.371 55.3358 127.432C55.3025 127.898 55.293 128.373 55.3215 128.839C55.3548 129.366 55.0982 129.452 54.6278 129.49C54.2905 129.518 53.9531 129.751 53.6538 129.946C53.1216 130.297 52.5657 130.117 52.4754 129.494C52.4327 129.195 52.4564 129.048 52.9458 129.171C53.6395 129.347 53.6965 129.162 53.516 128.373C53.4495 128.083 53.3877 127.77 53.4209 127.48C53.4922 126.895 53.725 127.199 53.9721 127.399C54.3285 127.689 54.5708 127.651 54.8559 127.195C55.3215 126.472 55.9154 125.831 56.7517 124.771Z" fill="#D8B06C"/>
<path d="M107.383 92.3047C107.492 92.6563 107.582 92.7988 107.568 92.9366C107.502 93.6303 107.872 93.9724 108.533 93.8489C108.671 93.8251 108.842 93.9914 108.998 94.0675C108.875 94.305 108.713 94.7612 108.637 94.7517C107.449 94.5378 106.727 95.1888 106.167 96.063C105.996 96.3291 106.152 97.0133 105.615 96.3481C105.44 96.1248 104.066 96.4717 105.15 95.5404C104.865 93.7349 106.642 93.4925 107.383 92.3047Z" fill="#D8B06C"/>
<path d="M50.7268 132.204C50.4987 132.522 50.4037 132.736 50.2421 132.869C49.2063 133.733 47.8189 134.175 47.1395 135.477C47.13 135.496 46.7926 135.401 46.6738 135.292C46.5456 135.173 46.3983 134.85 46.4315 134.826C47.0492 134.332 47.3438 133.486 48.2133 133.258C48.8737 133.087 49.2063 132.641 49.1683 131.904C49.1588 131.733 49.6007 131.367 49.6625 131.401C50.0331 131.605 50.3467 131.899 50.7268 132.204Z" fill="#D8B06C"/>
<path d="M97.1233 101.437C97.1091 101.979 97.2659 102.768 96.3489 101.927C96.2301 101.817 95.9212 101.913 95.6979 101.913C95.5316 101.665 95.3986 101.385 95.1895 101.181C94.8949 100.891 94.6574 100.682 95.1277 100.326C95.5031 100.04 95.8072 99.6651 96.1398 99.3325C96.3061 99.1615 95.8785 98.4108 96.6434 98.8194C96.1968 99.304 97.57 99.6034 96.7765 100.136C96.5817 100.264 96.3631 100.435 96.2823 100.639C95.9022 101.566 96.5959 101.423 97.1233 101.437Z" fill="#D8B06C"/>
<path d="M247.249 17.8215C247.092 17.6219 246.76 17.3131 246.803 17.2418C247.045 16.8617 247.615 16.5576 247.644 16.1965C247.748 14.7236 248.57 15.9067 248.746 15.9732C249.72 16.339 248.974 16.7334 248.679 17.1183C248.641 17.1658 248.675 17.2703 248.675 17.3463C248.209 17.5269 247.473 16.9045 247.249 17.8215Z" fill="#D8B06C"/>
<path d="M66.6816 118.515C66.9762 118.671 67.2851 118.947 67.6224 118.995C68.1831 119.075 68.2449 119.379 68.0833 119.779C67.898 120.22 66.9952 120.615 66.7244 120.444C66.4488 120.268 66.102 119.075 66.273 118.771C66.33 118.657 66.5106 118.614 66.6816 118.515Z" fill="#D8B06C"/>
<path d="M103.41 96.2023C103.405 96.1928 103.524 96.6204 103.709 96.6537C104.346 96.7677 104.261 96.934 103.885 97.2951C103.591 97.5802 103.277 97.8653 102.935 97.4852C102.602 97.1146 102.369 96.6442 102.113 96.2071C102.046 96.0978 102.004 95.8507 102.042 95.827C102.417 95.6179 102.802 95.4278 103.201 95.271C103.315 95.2283 103.481 95.3186 103.624 95.3518C103.586 95.5276 103.538 95.6987 103.41 96.2023Z" fill="#D8B06C"/>
<path d="M99.9751 97.1035C99.9751 98.0253 99.9941 98.852 99.9513 99.6693C99.9466 99.7928 99.6615 99.9448 99.4809 100.002C99.0961 100.121 98.9678 99.9496 99.0153 99.5505C99.1246 98.719 98.6732 97.7069 99.9751 97.1035Z" fill="#D8B06C"/>
<path d="M51.5587 129.75C51.8865 130.258 52.1383 130.658 52.3949 131.052C52.1764 131.156 51.9625 131.342 51.744 131.346C51.1596 131.361 50.884 130.933 51.055 130.306C51.1025 130.14 51.3116 130.021 51.5587 129.75Z" fill="#D8B06C"/>
<path d="M99.0236 100.012C98.6055 100.777 98.1684 101.508 97.123 101.437C97.4509 100.553 97.793 99.6885 99.0236 100.012Z" fill="#D8B06C"/>
<path d="M101.875 96.211C101.424 96.7717 101.343 97.4226 101.4 98.1116C101.11 98.0593 100.82 98.0071 100.535 97.9595C100.644 97.7932 100.806 97.6412 100.849 97.4654C100.915 97.1756 100.868 96.8572 100.934 96.5674C101.058 95.9972 101.538 96.2728 101.875 96.211Z" fill="#D8B06C"/>
<path d="M43.0388 138.251C42.8487 137.957 42.6207 137.738 42.6634 137.643C42.8202 137.296 43.0673 136.992 43.2764 136.669C43.4902 136.964 43.7943 137.234 43.8703 137.562C43.8988 137.69 43.4284 137.938 43.0388 138.251Z" fill="#D8B06C"/>
<path d="M102.527 98.1971C102.322 98.5582 102.194 98.7863 102.07 99.0143C101.847 98.715 101.624 98.4109 101.405 98.1116C101.595 98.0023 101.785 97.8075 101.975 97.8027C102.132 97.8027 102.294 98.0261 102.527 98.1971Z" fill="#D8B06C"/>
<path d="M46.5883 133.743C46.5265 133.629 46.3697 133.439 46.3127 133.216C46.2937 133.14 46.5122 132.997 46.6263 132.888C46.8306 133.173 47.0349 133.458 47.244 133.743C47.0919 133.743 46.9446 133.743 46.5883 133.743Z" fill="#D8B06C"/>
<path d="M238.859 19.9092C238.55 19.6669 238.407 19.5529 238.265 19.4436C238.474 19.2345 238.683 19.0255 238.892 18.8164C238.987 18.9732 239.148 19.1252 239.153 19.282C239.158 19.4436 239.011 19.6099 238.859 19.9092Z" fill="#D8B06C"/>
<path d="M188.722 45.3522C188.897 45.2097 189.073 45.0244 189.282 44.9151C189.368 44.8723 189.539 44.9959 189.672 45.0434C189.468 45.3142 189.259 45.5803 189.054 45.8511C188.974 45.7323 188.893 45.6136 188.722 45.3522Z" fill="#D8B06C"/>
<path d="M118.98 84.3325C118.823 84.4893 118.662 84.6508 118.505 84.8076C117.835 84.6793 117.864 84.2422 118.249 83.9239C118.5 83.7196 118.966 83.7766 118.98 84.3325Z" fill="#D8B06C"/>
<path d="M40.7533 144.294C41.0336 144.569 41.3044 144.854 41.599 145.111C41.6703 145.173 42.6348 145.881 42.5968 145.9C42.364 146.014 42.0884 146.228 41.8794 146.175C41.0004 145.966 40.587 146.589 40.1071 147.088C39.4894 147.734 40.1784 147.534 40.454 147.644C40.5252 147.672 40.549 148.062 40.511 148.076C39.6225 148.418 38.7292 148.755 37.8264 149.045C37.0139 149.306 36.3297 150.157 35.3034 149.587C35.1799 149.516 34.8426 149.91 34.5765 149.991C33.9398 150.186 33.0275 150.661 32.6902 150.409C31.9394 149.839 31.412 150.38 30.9036 150.518C29.3499 150.95 27.6109 150.727 26.2235 151.863C25.9717 152.067 25.43 151.986 25.5678 152.514C25.6391 152.78 26.0287 153.222 26.138 153.184C27.5016 152.713 27.6347 153.797 27.9958 154.59C28.4472 155.588 29.1218 156.557 29.2929 157.602C29.54 159.113 30.8609 160.149 30.8846 161.722C30.8894 161.893 31.355 162.059 31.6116 162.226C31.0462 162.582 31.4691 162.815 31.7209 163.067C32.0012 163.347 32.348 163.589 32.5333 163.922C32.6379 164.112 32.4811 164.449 32.4431 164.72C32.2008 164.606 31.9252 164.53 31.7304 164.359C31.5878 164.235 31.5498 163.988 31.4643 163.798C31.241 164.022 30.9179 164.207 30.8133 164.478C30.5283 165.19 30.533 165.238 30.2717 164.929C29.9296 164.53 29.6493 164.083 29.3452 163.651C29.0078 163.166 28.775 163.176 28.3949 163.713C28.2856 163.87 28.2001 164.041 28.105 164.207C28.0433 164.074 27.953 163.946 27.9245 163.808C27.858 163.513 27.82 163.219 27.7725 162.919C27.5492 163.014 27.3306 163.147 27.0977 163.176C27.0027 163.19 26.8459 162.991 26.7699 162.857C25.8006 161.213 24.6793 159.646 24.0996 157.788C23.9048 157.17 23.3014 156.647 23.2111 156.03C23.0876 155.174 22.7075 154.794 21.9187 154.695C22.0138 154.471 22.104 154.248 22.1991 154.025C21.8332 153.953 21.4626 153.816 21.1062 153.844C21.0017 153.854 20.8782 154.31 20.8544 154.566C20.8354 154.78 20.959 155.008 21.0207 155.231C20.7879 155.103 20.5218 155.008 20.327 154.837C20.1892 154.718 20.137 154.495 20.0467 154.319C19.9802 154.448 19.8614 154.576 19.8519 154.709C19.8281 155.103 19.8186 155.502 19.8471 155.897C19.9042 156.742 19.7759 157.389 18.7686 157.64C18.2792 157.764 17.9893 158.215 17.8943 158.862C17.7898 159.555 17.1673 160.168 17.0486 160.862C16.9868 161.223 16.1886 161.427 16.7872 161.993C16.9203 162.116 16.6684 162.758 16.4689 163.09C16.2741 163.418 15.894 163.637 15.6564 163.95C15.3903 164.302 15.281 164.92 14.9579 165.043C14.44 165.238 14.4543 166.673 13.466 165.727C13.3757 165.903 13.1619 166.174 13.2094 166.236C13.9791 167.196 12.9291 167.457 12.568 167.975C12.4587 167.842 12.3352 167.718 12.2449 167.576C12.1689 167.452 12.1214 167.31 12.0643 167.177C11.9646 167.253 11.7935 167.319 11.7792 167.409C11.7365 167.637 11.7745 167.884 11.765 168.117C11.7317 168.759 12.0406 169.585 10.9192 169.652C10.8717 169.657 10.8242 170.07 10.8195 170.293C10.8005 171.372 10.3776 170.65 10.0783 170.464C10.007 170.816 9.07569 170.826 9.69337 171.491C9.86442 171.676 9.84068 172.061 9.85493 172.36C9.85969 172.489 9.74566 172.626 9.68389 172.759C9.58411 172.598 9.50334 172.427 9.38455 172.284C9.28477 172.17 9.13746 172.094 9.01393 172.004C8.98067 172.151 8.96643 172.299 8.91417 172.436C8.74312 172.873 9.34177 173.805 8.44851 173.705C7.5695 173.605 8.0019 172.869 8.20621 172.299C8.29174 172.061 8.09217 171.69 7.95913 171.41C7.70731 170.878 7.40795 170.369 7.14188 169.847C6.94232 169.457 6.88532 169.129 7.46024 169.001C7.64554 168.958 7.96387 168.744 7.94486 168.673C7.70729 167.728 8.32499 167.295 8.87615 166.687C9.3893 166.126 9.52233 165.233 9.87869 164.511C10.0497 164.164 11.0143 165.181 10.8717 163.941C10.829 163.575 11.4657 163.143 11.7603 162.715C12.1404 162.164 12.4872 161.589 12.8531 161.033C13.1809 160.534 13.4993 159.646 13.8651 159.627C14.7964 159.574 14.4638 158.605 15.0102 158.405C16.3881 157.911 16.5639 156.258 17.785 155.564C18.2317 155.312 17.633 154.124 18.7876 154.105C18.9871 154.101 19.353 153.507 19.334 153.207C19.296 152.637 18.7306 152.842 18.3932 152.87C16.792 152.998 15.1955 153.174 13.599 153.331C13.5278 153.34 13.4517 153.355 13.3805 153.378C12.9576 153.526 12.9766 154.314 12.1879 154.048C11.7317 153.892 11.114 154.158 10.5866 154.286C10.0877 154.405 9.57461 154.533 9.12323 154.766C7.58378 155.55 5.82574 155.54 4.22927 156.144C3.60683 156.381 2.79912 156.282 2.11492 156.144C1.73005 156.068 1.42121 155.54 1.07436 156.182C0.993585 155.977 0.789269 155.692 0.86054 155.583C1.05535 155.269 1.34519 155.003 1.63978 154.766C1.80132 154.638 2.22894 154.552 2.22419 154.538C1.90109 153.469 3.05569 153.469 3.38353 152.899C3.72563 152.305 3.94421 151.639 4.84697 151.891C4.88023 151.901 5.05128 151.673 5.02753 151.597C4.95626 151.383 4.40507 151.221 4.94198 150.984C5.07501 150.927 5.38863 151.217 5.58819 151.388C5.72123 151.502 5.79248 151.687 5.89226 151.844C5.94927 151.711 6.06807 151.568 6.05857 151.44C5.99205 150.794 6.10132 150.357 6.90906 150.475C7.72155 150.594 8.40101 150.428 8.99969 149.748C9.29428 149.411 9.92621 149.297 10.4251 149.249C10.6864 149.226 11.0428 149.511 11.2471 149.748C11.5987 150.162 12.4207 150.209 12.6678 149.729C12.7105 149.649 12.4302 149.406 12.2972 149.24C13.6608 149.416 14.5256 148.033 15.8655 148.095C16.2361 148.114 16.6162 147.952 16.9915 147.876C16.9298 148.347 17.1341 148.784 17.5902 148.546C18.0321 148.318 18.0653 147.51 18.7828 147.506C18.7448 147.235 18.7733 146.926 18.6498 146.703C17.8896 145.273 17.0058 143.904 16.3311 142.436C15.4758 140.578 14.5255 138.749 13.9696 136.768C13.8794 136.449 13.9696 136.088 13.8889 135.765C13.7653 135.271 13.5943 134.781 13.3852 134.311C13.2047 133.907 12.9291 133.551 12.7343 133.156C12.6725 133.028 12.663 132.819 12.7248 132.696C12.9148 132.296 13.1524 131.921 13.3757 131.541C13.7891 131.798 14.2737 131.983 14.6016 132.32C15.2905 133.038 15.7799 133.997 16.5687 134.553C17.4287 135.157 17.8658 135.775 17.9846 136.82C18.0653 137.509 18.4027 138.317 18.8969 138.782C19.7093 139.552 19.9849 140.569 20.5361 141.452C20.6501 141.638 20.8354 141.975 20.7736 142.042C19.5003 143.377 21.1158 143.415 21.6289 143.814C22.2323 144.284 22.4509 144.888 22.7883 145.501C22.9641 145.814 22.9688 146.798 23.5295 146.479C24.1947 146.099 25.7104 146.408 25.4538 145.325C25.1639 144.104 26.7414 144.622 26.5751 143.586C26.4801 143.001 27.074 142.208 27.5397 141.666C28.0195 141.11 28.7227 140.744 29.3309 140.298L30.7754 138.321C30.8086 136.768 31.4786 138.578 31.7256 138.141C31.6829 138.763 31.9917 139.457 30.9416 139.718C30.5045 139.827 30.8751 140.782 30.362 141.338C29.9818 141.752 30.0104 142.678 30.0816 143.353C30.1909 144.351 29.1599 144.394 28.889 145.03C28.832 145.163 28.8368 145.353 28.889 145.491C28.9175 145.572 29.1789 145.662 29.1884 145.648C29.6588 144.997 30.495 145.548 30.8941 145.225C31.4596 144.769 31.9394 145.387 32.158 145.23C32.8945 144.688 34.0205 145.054 34.5574 144.127C34.605 144.047 34.9613 144.018 35.0231 144.094C35.1752 144.27 35.2702 144.517 35.3272 144.75C35.3604 144.902 35.2844 145.083 35.2607 145.249C35.4745 145.211 35.8641 145.201 35.8736 145.135C35.9971 144.242 36.7193 144.032 37.356 143.638C38.1115 143.172 37.7979 143.79 37.9167 144.037C37.9547 144.113 38.3301 144.132 38.3538 144.08C38.7909 143.139 39.4466 143.752 39.9978 143.866C40.2734 143.895 40.5062 144.137 40.7533 144.294ZM30.5188 145.562C30.2717 145.752 30.0864 145.895 29.9058 146.033C30.1197 146.242 30.343 146.627 30.5473 146.617C30.7706 146.608 30.9796 146.237 31.1935 146.019C30.9939 145.885 30.7991 145.752 30.5188 145.562ZM23.5057 147.064C23.2349 147.173 22.9688 147.278 22.7027 147.382C22.9023 147.463 23.1018 147.61 23.2966 147.601C23.577 147.586 23.8478 147.458 24.1281 147.382C23.9381 147.287 23.748 147.187 23.5057 147.064ZM15.9747 148.846C15.9272 148.77 15.8227 148.575 15.7989 148.584C15.5566 148.679 15.2858 148.77 15.1242 148.95C15.0625 149.017 15.2573 149.321 15.3333 149.516C15.5424 149.297 15.7514 149.078 15.9747 148.846Z" fill="#D8B06C"/>
<path d="M39.333 131.835C39.6086 132.628 39.0717 132.871 38.4492 133.065C37.2661 133.427 37.0808 134.79 36.1305 135.375C35.8835 135.527 35.4463 135.788 35.3608 135.712C34.9855 135.37 34.6101 135.18 34.1064 135.265L34.995 133.365C35.5841 132.875 36.2113 132.429 36.7435 131.887C37.1759 131.445 38.0691 131.493 38.0976 130.59C38.1024 130.438 38.587 130.139 38.7201 130.196C38.9719 130.305 39.2094 130.599 39.3045 130.87C39.409 131.155 39.333 131.497 39.333 131.835Z" fill="#D8B06C"/>
<path d="M31.7305 138.116C32.1914 136.491 32.9516 135.579 34.1062 135.266C34.1062 135.817 34.0967 136.368 34.1109 136.919C34.1347 137.812 33.7783 137.855 33.1321 137.399C33.0324 137.328 32.7758 137.38 32.6475 137.461C32.3197 137.651 32.0298 137.893 31.7305 138.116Z" fill="#D8B06C"/>
<path d="M41.7 144.293C41.4624 144.293 41.2248 144.312 40.992 144.284C40.9017 144.27 40.7734 144.141 40.7687 144.056C40.7544 143.894 42.0611 143.514 42.2274 143.633C42.3556 143.723 42.4554 143.852 42.5647 143.961C42.4364 144.07 42.3176 144.217 42.1703 144.279C42.0325 144.336 41.8615 144.293 41.7 144.293Z" fill="#D8B06C"/>
</svg>
