<svg width="119" height="138" viewBox="0 0 119 138" fill="none" xmlns="http://www.w3.org/2000/svg">
<path d="M36.712 3.99319C37.0386 4.56389 37.3589 5.13348 37.6929 5.69906C37.787 5.86316 37.92 6.13677 38.0363 6.13803C38.8305 6.1498 38.8655 6.75886 39.0396 7.277C39.5136 8.70103 40.0285 10.113 40.4552 11.548C40.9094 13.084 41.2618 14.6469 41.6824 16.1899C42.0205 17.4296 42.5465 18.6319 42.4281 19.9643C43.3041 21.8248 43.2742 23.904 43.8657 25.8362C44.2099 26.968 44.342 28.165 44.6094 29.3282C44.7229 29.8228 44.9434 30.2978 45.1074 30.7628C46.6013 30.5516 47.968 30.1064 49.395 29.8706C50.6625 29.6579 51.8759 29.1279 53.1366 28.8435C54.3501 28.57 55.4864 27.8532 56.844 28.3042C57.2348 28.4373 57.6919 27.6071 58.2217 28.2008C58.8457 27.1949 59.181 28.6714 59.7239 28.3823C59.7408 28.5072 59.8168 28.7002 59.763 28.7484C59.3578 29.1003 59.5004 29.3563 59.845 29.6415C59.919 29.6995 59.8848 30.0398 59.8439 30.0518C59.0154 30.2713 59.25 30.9605 59.4894 31.2913C60.1778 32.2336 59.6723 32.8243 59.2329 33.664C58.0785 35.8785 56.4425 37.7771 55.2852 39.9717C54.3545 41.7253 53.2686 43.3682 51.8066 44.7203C51.3422 45.1515 51.5363 45.5192 51.731 45.8101C53.0296 47.7707 53.6935 49.953 54.2364 52.1974C54.3339 52.5994 54.4742 53.0153 54.7 53.3502C55.0283 53.8378 55.3632 54.2881 55.2764 54.927C55.2498 55.1147 55.3381 55.3483 55.4436 55.5209C56.4122 57.077 56.8414 58.8652 57.6291 60.4921C58.1364 61.5436 58.2648 62.7977 59.3325 63.608C59.595 63.8083 59.5691 64.5797 59.4565 65.0345C59.3366 65.4944 58.58 65.6368 57.9246 65.425C57.679 65.3496 57.4516 65.2069 57.2199 65.0891C56.149 64.5539 55.0623 64.0352 54.0032 63.4701C53.3698 63.1339 52.6664 63.1574 52.0515 63.267C51.0022 63.454 50.1835 62.9569 49.3186 62.6119C48.648 62.3398 48.0436 61.9125 47.422 61.5464C46.9234 61.2532 46.3822 61.4592 46.3096 62.0173C46.2317 62.6064 46.2792 63.2177 46.1824 63.8035C46.1086 64.2587 46.2891 64.887 45.5074 65.0249C45.3804 65.0474 45.203 65.7601 45.305 65.8423C45.8382 66.2698 45.4286 66.6465 45.3178 67.0182C44.8486 68.5774 44.3607 70.1333 43.8664 71.6881C43.6343 72.4168 43.7856 73.1746 43.4768 73.9347C42.7139 75.8013 42.1191 77.7424 41.4649 79.6538C41.2536 80.2643 41.0801 80.8815 40.8751 81.4931C40.6584 82.1347 40.4354 82.7753 40.1832 83.3979C40.0476 83.7267 39.8398 84.0236 39.6624 84.3322C39.5678 84.5015 39.4618 84.6624 39.3609 84.8306L38.7219 86.1418C38.3399 86.2155 37.9505 86.2944 37.4951 86.3808C37.5163 86.0767 37.6176 85.7226 37.5446 85.4019C37.4951 85.1687 37.1297 85.0016 37.0802 84.7684C37.0217 84.4759 37.2489 84.1055 37.1513 83.851C37.0311 83.5412 36.6734 83.3306 36.4651 83.0437C35.7549 82.0783 35.3697 80.9585 34.9982 79.8347C34.5354 78.4575 34.0789 77.0815 33.6349 75.7076C32.9229 73.504 32.212 71.2942 31.5148 69.0804C31.4075 68.7344 31.3212 68.3793 31.2549 68.0212C30.887 66.0322 30.1346 64.1679 29.5147 62.2499C29.0073 60.6852 28.0752 59.2895 28.0054 57.3723C26.5575 58.5344 25.3662 59.4532 24.2122 60.417C22.8537 61.55 21.491 62.6694 20.0204 63.6672C18.9542 64.3899 17.9544 65.2142 16.8746 65.941C15.7222 66.7126 14.4365 67.1017 13.1999 67.6533C12.5742 67.9342 11.8782 68.1001 11.233 67.7939C10.7309 67.5578 10.317 67.1513 9.87634 66.8235C10.0991 66.478 10.6828 67.1325 10.6975 66.2051C10.7118 65.3161 10.5911 64.275 11.3032 63.3936C11.8673 62.6914 12.0032 61.6635 12.5122 60.9066C13.5978 59.3022 14.0464 57.4187 14.9451 55.7364C16.1883 53.4222 17.3605 51.0698 18.5442 48.7259C19.021 47.7838 19.431 46.817 19.9117 45.7794C18.3341 44.924 16.7472 44.0477 15.1559 43.1963C13.5583 42.3438 11.9438 41.5139 10.3389 40.6665C9.78788 40.3769 9.26916 39.9776 8.68776 39.8238C7.9767 39.6343 7.51962 39.3998 7.57321 38.5818C7.59088 38.3348 7.46078 38.081 7.39462 37.832C7.73048 37.763 8.28992 37.7846 8.37415 37.6007C8.93066 36.3904 10.1248 36.043 11.1544 35.5639C12.2818 35.0444 13.5081 34.7347 14.7138 34.3957C17.0641 33.7326 19.4204 33.109 21.7789 32.4731C21.9354 32.4301 22.0796 32.3465 22.2306 32.3347C23.3178 32.2634 24.408 32.2119 25.4679 32.1486C25.4958 31.6597 25.5147 31.259 25.5336 30.8582C25.6174 30.8602 25.7318 30.8355 25.7817 30.8827C25.8546 30.9469 25.8799 31.0604 25.9736 31.263C26.0834 30.8975 26.3103 30.5655 26.2324 30.3465C25.9534 29.579 26.2097 28.9699 26.5304 28.2889C27.0517 27.1686 27.5521 26.0191 27.8402 24.8256C28.3505 22.7029 29.4896 20.8321 30.1805 18.7861C30.7094 17.2182 31.4693 15.7359 32.0045 14.1691C32.8711 11.641 33.7074 9.10107 34.8654 6.68206C35.0188 6.36276 35.1551 5.95705 35.0969 5.62611C35.0268 5.21609 35.0788 4.9944 35.4151 4.73942C35.6913 4.53157 35.8638 4.17717 36.0819 3.89494C36.2913 3.91903 36.5048 3.95666 36.712 3.99319ZM24.4446 42.2109C25.1031 41.8909 24.9064 41.3175 24.7514 40.7642C24.6626 41.2681 24.5748 41.7657 24.486 42.2696C24.3401 42.4362 24.1399 42.5805 24.0598 42.778C23.9914 42.9456 24.0567 43.1623 24.0604 43.3618C24.118 43.3655 24.1756 43.3693 24.2343 43.3668C24.3097 42.976 24.3766 42.5966 24.4446 42.2109ZM37.9571 15.1418C38.2068 14.5701 37.9951 14.0453 37.7623 13.5296C37.7397 13.4743 37.565 13.4371 37.4831 13.4612C37.4074 13.4863 37.2973 13.6336 37.321 13.6827C37.533 14.169 37.7735 14.6411 38.0066 15.1184C37.5783 16.409 38.1133 17.6706 38.1399 18.9516C38.1552 19.6727 38.2428 20.3872 38.3031 21.1098C39.3583 21.7705 39.0986 22.9497 39.3657 23.8947C39.7636 25.2733 40.1463 26.7005 40.1687 28.1154C40.1897 29.5751 40.5479 30.6644 41.9629 31.4142C41.6704 30.0991 41.3983 28.8518 41.1137 27.6022C40.8525 26.4402 40.478 25.2966 40.3153 24.1263C39.917 21.2084 39.0054 18.4116 38.3573 15.5522C38.3208 15.3919 38.0954 15.2752 37.9571 15.1418ZM32.2322 46.6178C31.5464 47.3499 31.4963 47.4501 31.74 48.051C31.9157 48.4861 32.1273 48.9018 32.3525 49.3135C33.1393 50.7991 34.1682 51.8656 36.0781 51.3879C36.2209 51.3489 36.3931 51.437 36.5492 51.4325C37.9392 51.3697 39.3793 51.4633 40.485 50.3691C40.6266 50.2273 40.8437 50.0603 41.025 50.0602C41.9273 50.0462 41.9332 49.1685 42.3873 48.7227C42.4348 48.6733 42.4364 48.4812 42.3853 48.4401C42.2781 48.3507 42.1133 48.2575 41.9989 48.2822C41.7438 48.3334 41.4759 48.4209 41.2694 48.564C40.6455 49.0184 39.9559 49.0379 39.2061 49.1046C38.6934 49.1488 38.1462 48.7638 37.8089 49.025C37.1352 49.5411 36.4319 49.3081 35.7435 49.4304C35.0415 49.5568 34.707 49.3246 34.4887 48.8372C34.1788 48.1347 33.6847 47.6692 33.0527 47.2884C32.7533 47.1137 32.5029 46.8451 32.2322 46.6178ZM36.5191 34.7515C36.5143 35.3663 36.5492 35.8664 36.4939 36.3633C36.372 37.6053 36.4325 38.841 36.751 40.0452C36.9138 40.664 36.8746 41.2536 36.8476 41.8838C36.7732 43.4805 37.0904 44.9859 38.2646 46.3667C38.4852 46.0336 38.7278 45.8326 38.7389 45.6229C38.8023 44.4925 38.8269 43.3616 38.8253 42.2325C38.8157 40.1207 38.2555 38.0849 37.8609 36.0271C37.726 35.3234 37.2411 35.0263 36.5191 34.7515ZM30.7091 38.0371C30.3078 39.1015 31.0666 40.0114 31.4401 41.0136C31.9523 41.0462 32.2126 41.5154 32.6135 41.7016C33.2546 41.9942 34.049 41.4544 34.0732 40.766C34.0894 40.307 34.1152 39.8306 33.9981 39.393C33.7335 38.3971 33.3988 37.3953 32.6302 36.6505C31.9616 36.0003 31.1476 36.2479 30.8586 37.1526C30.7896 37.397 30.7749 37.6638 30.7091 38.0371ZM42.967 36.844C41.8472 36.6594 41.3036 37.0254 41.4424 37.8901C41.6223 38.9993 41.9691 40.0802 42.879 40.8307C43.1049 41.018 43.568 41.0356 43.8787 40.9621C44.1223 40.9024 44.5148 40.5483 44.4836 40.3953C44.304 39.5042 44.5568 38.5482 43.9683 37.7005C43.6615 37.2744 43.5557 36.7362 42.967 36.844ZM36.6589 9.80109C36.2821 10.9468 36.3262 11.0636 37.3514 12.0782C37.0859 11.1976 36.8724 10.4994 36.6589 9.80109ZM14.8728 62.3876C14.6297 62.9219 14.3918 63.4636 14.0645 64.1819C15.1832 63.5647 15.1832 63.5647 14.8728 62.3876Z" fill="#D8B06C"/>
<path d="M93.4615 76.248C93.7771 76.6286 94.0879 77.0091 94.4082 77.3849C94.4991 77.4943 94.633 77.6798 94.719 77.6656C95.3072 77.5704 95.4124 78.0176 95.6084 78.3791C96.1439 79.3732 96.7081 80.3531 97.2102 81.3615C97.7457 82.4413 98.2095 83.5544 98.7212 84.6436C99.1324 85.5189 99.6774 86.3418 99.7635 87.3455C100.653 88.6107 100.902 90.1567 101.59 91.5123C101.992 92.3067 102.245 93.1772 102.594 94.0048C102.742 94.3568 102.967 94.6803 103.149 95.0037C104.225 94.6517 105.176 94.1428 106.199 93.7813C107.108 93.4578 107.935 92.9061 108.829 92.5303C109.69 92.1688 110.436 91.4885 111.497 91.6455C111.803 91.6931 112.033 91.0176 112.501 91.3887C112.831 90.561 113.271 91.6122 113.635 91.3268C113.663 91.4172 113.745 91.5504 113.711 91.5932C113.458 91.9071 113.596 92.0784 113.888 92.2449C113.95 92.2782 113.969 92.535 113.941 92.5493C113.357 92.8204 113.62 93.3009 113.84 93.5149C114.471 94.1238 114.175 94.628 113.96 95.3082C113.396 97.1015 112.435 98.7235 111.866 100.502C111.406 101.925 110.818 103.285 109.915 104.479C109.628 104.86 109.819 105.107 110.001 105.297C111.215 106.582 111.99 108.113 112.683 109.707C112.807 109.992 112.965 110.282 113.176 110.501C113.482 110.82 113.788 111.11 113.807 111.595C113.812 111.738 113.907 111.9 114.008 112.014C114.926 113.041 115.476 114.311 116.269 115.415C116.781 116.128 117.039 117.042 117.933 117.503C118.153 117.617 118.234 118.193 118.211 118.545C118.182 118.901 117.642 119.106 117.13 119.035C116.939 119.011 116.752 118.935 116.566 118.878C115.705 118.621 114.835 118.378 113.979 118.098C113.467 117.931 112.951 118.04 112.511 118.202C111.76 118.478 111.091 118.216 110.407 118.074C109.876 117.96 109.374 117.722 108.868 117.532C108.461 117.379 108.088 117.603 108.107 118.026C108.126 118.473 108.241 118.92 108.246 119.368C108.251 119.715 108.466 120.157 107.906 120.362C107.816 120.395 107.777 120.947 107.863 120.994C108.313 121.242 108.059 121.575 108.026 121.865C107.883 123.083 107.725 124.3 107.562 125.518C107.486 126.089 107.696 126.631 107.567 127.235C107.247 128.719 107.06 130.237 106.826 131.74C106.749 132.22 106.701 132.701 106.63 133.181C106.553 133.685 106.472 134.19 106.367 134.684C106.309 134.946 106.195 135.193 106.104 135.445C106.056 135.583 105.999 135.716 105.946 135.854L105.645 136.91C105.372 137.015 105.095 137.124 104.77 137.248C104.746 137.02 104.775 136.744 104.679 136.516C104.612 136.349 104.32 136.273 104.253 136.106C104.172 135.897 104.292 135.593 104.186 135.417C104.057 135.203 103.766 135.093 103.574 134.908C102.924 134.285 102.494 133.505 102.073 132.72C101.552 131.759 101.035 130.798 100.529 129.837C99.7157 128.296 98.9028 126.75 98.0995 125.199C97.9752 124.957 97.8653 124.705 97.7696 124.448C97.2389 123.021 96.4404 121.736 95.7327 120.395C95.1542 119.301 94.2839 118.388 93.9827 116.975C93.0646 118.026 92.3044 118.863 91.5776 119.729C90.7217 120.747 89.861 121.755 88.9047 122.688C88.2114 123.363 87.5803 124.105 86.8774 124.785C86.1267 125.509 85.2278 125.965 84.3862 126.536C83.9607 126.826 83.4682 127.04 82.9518 126.897C82.5501 126.788 82.1915 126.541 81.8234 126.355C81.9429 126.07 82.4593 126.479 82.3493 125.789C82.2441 125.128 82.0193 124.372 82.4306 123.625C82.7557 123.03 82.7223 122.25 82.9996 121.622C83.5925 120.29 83.6785 118.835 84.1232 117.47C84.74 115.591 85.2995 113.693 85.8685 111.8C86.098 111.039 86.2749 110.268 86.4948 109.436C85.2182 109.007 83.932 108.565 82.6458 108.142C81.3547 107.718 80.0542 107.314 78.7584 106.896C78.3137 106.753 77.8786 106.524 77.4291 106.486C76.8792 106.439 76.5111 106.325 76.4442 105.711C76.425 105.526 76.2959 105.354 76.2146 105.178C76.4537 105.083 76.8697 105.026 76.908 104.879C77.1614 103.908 77.9981 103.494 78.6962 103.005C79.4613 102.472 80.3267 102.082 81.173 101.673C82.8226 100.874 84.4818 100.103 86.141 99.3228C86.251 99.2705 86.3466 99.1897 86.4566 99.1611C87.2503 98.9661 88.0488 98.7853 88.8234 98.5998C88.7804 98.2335 88.7421 97.9339 88.7039 97.6342C88.766 97.6247 88.8473 97.5914 88.8904 97.6199C88.9525 97.658 88.986 97.7389 89.0816 97.8768C89.1151 97.5914 89.2394 97.3155 89.1534 97.1633C88.8474 96.6306 88.9573 96.1453 89.1056 95.5983C89.3446 94.6993 89.5646 93.7813 89.622 92.8585C89.7224 91.2174 90.32 89.681 90.5639 88.0732C90.7504 86.8413 91.1186 85.6426 91.3098 84.4106C91.6206 82.4223 91.9075 80.4292 92.4478 78.4837C92.5196 78.2268 92.5673 77.9081 92.4813 77.6703C92.3761 77.3754 92.3857 77.2042 92.6008 76.9711C92.7777 76.7808 92.859 76.4954 92.9834 76.2576C93.1412 76.2481 93.3037 76.248 93.4615 76.248ZM89.3781 106.196C89.8228 105.873 89.6028 105.473 89.4163 105.083C89.4163 105.468 89.4163 105.849 89.4163 106.234C89.3303 106.377 89.2012 106.51 89.1677 106.667C89.139 106.8 89.2155 106.953 89.2442 107.1C89.2872 107.095 89.3303 107.091 89.3733 107.081C89.3781 106.781 89.3781 106.491 89.3781 106.196ZM95.8331 84.3535C95.9431 83.8968 95.7184 83.5353 95.4793 83.1833C95.4554 83.1453 95.3215 83.1405 95.2641 83.1691C95.2116 83.1976 95.1494 83.3213 95.1733 83.3546C95.3932 83.6875 95.6323 84.0062 95.8666 84.3297C95.7184 85.3429 96.2778 86.2086 96.4643 87.1552C96.5695 87.6879 96.7273 88.2064 96.8659 88.7344C97.7314 89.0864 97.6932 89.995 98.0135 90.6609C98.4869 91.6313 98.9555 92.6397 99.1563 93.6861C99.3619 94.7659 99.7683 95.527 100.911 95.898C100.524 94.9609 100.16 94.0714 99.7874 93.1819C99.4432 92.3543 99.0176 91.5551 98.745 90.7084C98.0708 88.5965 97.0333 86.6415 96.1822 84.6056C96.1343 84.4914 95.9527 84.4344 95.8331 84.3535ZM95.704 108.446C95.2928 109.079 95.2689 109.16 95.5271 109.574C95.7136 109.873 95.924 110.154 96.1439 110.43C96.9185 111.429 97.8174 112.085 99.1658 111.481C99.2662 111.433 99.4049 111.476 99.5196 111.452C100.538 111.224 101.614 111.105 102.288 110.149C102.374 110.025 102.513 109.873 102.647 109.849C103.311 109.721 103.201 109.069 103.479 108.679C103.507 108.636 103.484 108.494 103.441 108.47C103.35 108.418 103.216 108.37 103.134 108.403C102.953 108.475 102.766 108.575 102.632 108.708C102.231 109.126 101.724 109.231 101.179 109.379C100.806 109.478 100.352 109.264 100.136 109.502C99.7061 109.973 99.1563 109.892 98.6638 110.073C98.1617 110.259 97.8844 110.13 97.6597 109.797C97.3393 109.317 96.9138 109.036 96.3974 108.836C96.1535 108.746 95.9335 108.579 95.704 108.446ZM97.3249 99.085C97.4014 99.5416 97.4923 99.9079 97.5162 100.284C97.5879 101.221 97.7936 102.129 98.1856 102.981C98.3865 103.418 98.4343 103.861 98.4964 104.332C98.6495 105.526 99.0798 106.601 100.127 107.471C100.246 107.195 100.399 107.014 100.38 106.857C100.28 106.011 100.151 105.169 100.003 104.332C99.7205 102.767 99.0415 101.33 98.4821 99.8556C98.2908 99.3514 97.8939 99.1944 97.3249 99.085ZM93.4615 102.282C93.3037 103.123 93.9827 103.699 94.3891 104.394C94.7716 104.351 95.025 104.665 95.3454 104.75C95.857 104.883 96.3734 104.379 96.3017 103.865C96.2539 103.523 96.2109 103.166 96.0674 102.857C95.7423 102.153 95.3645 101.454 94.6999 101.002C94.1213 100.607 93.5524 100.897 93.4567 101.606C93.4376 101.796 93.4615 101.996 93.4615 102.282ZM102.36 99.7937C101.509 99.8033 101.155 100.146 101.37 100.769C101.647 101.568 102.044 102.324 102.814 102.762C103.005 102.871 103.35 102.824 103.57 102.729C103.742 102.653 103.986 102.339 103.943 102.229C103.694 101.592 103.756 100.85 103.211 100.298C102.929 100.022 102.781 99.6368 102.36 99.7937ZM94.1787 80.5624C94.0496 81.4614 94.0974 81.5423 94.9868 82.1606C94.676 81.5423 94.4274 81.0523 94.1787 80.5624ZM84.9361 122.412C84.8261 122.84 84.7209 123.273 84.5727 123.848C85.3186 123.244 85.3186 123.244 84.9361 122.412Z" fill="#FFE48B"/>
</svg>
