<svg width="88" height="129" viewBox="0 0 88 129" fill="none" xmlns="http://www.w3.org/2000/svg">
<path d="M36.0701 0C36.7301 0.8 37.3801 1.60001 38.05 2.39001C38.24 2.62001 38.5201 3.01004 38.7001 2.98004C39.9301 2.78004 40.1501 3.72004 40.5601 4.48004C41.6801 6.57004 42.86 8.63 43.91 10.75C45.03 13.02 46.0001 15.36 47.0701 17.65C47.9301 19.49 49.07 21.22 49.25 23.33C51.11 25.99 51.6301 29.24 53.0701 32.09C53.9101 33.76 54.44 35.59 55.17 37.33C55.48 38.07 55.9501 38.75 56.3301 39.43C58.5801 38.69 60.5701 37.62 62.7101 36.86C64.6101 36.18 66.3401 35.02 68.2101 34.23C70.0101 33.47 71.57 32.04 73.79 32.37C74.43 32.47 74.91 31.05 75.89 31.83C76.58 30.09 77.5 32.3 78.26 31.7C78.32 31.89 78.49 32.17 78.42 32.26C77.89 32.92 78.18 33.28 78.79 33.63C78.92 33.7 78.96 34.24 78.9 34.27C77.68 34.84 78.2301 35.85 78.6901 36.3C80.0101 37.58 79.3901 38.64 78.9401 40.07C77.7601 43.84 75.7501 47.25 74.5601 50.99C73.6001 53.98 72.3701 56.84 70.4801 59.35C69.8801 60.15 70.28 60.67 70.66 61.07C73.2 63.77 74.82 66.99 76.27 70.34C76.53 70.94 76.86 71.55 77.3 72.01C77.94 72.68 78.58 73.29 78.62 74.31C78.63 74.61 78.83 74.95 79.04 75.19C80.96 77.35 82.11 80.02 83.77 82.34C84.84 83.84 85.38 85.76 87.25 86.73C87.71 86.97 87.8801 88.18 87.8301 88.92C87.7701 89.67 86.6401 90.1 85.5701 89.95C85.1701 89.9 84.78 89.74 84.39 89.62C82.59 89.08 80.7701 88.57 78.9801 87.98C77.9101 87.63 76.83 87.86 75.91 88.2C74.34 88.78 72.94 88.23 71.51 87.93C70.4 87.69 69.35 87.19 68.29 86.79C67.44 86.47 66.6601 86.94 66.7001 87.83C66.7401 88.77 66.98 89.71 66.99 90.65C67 91.38 67.45 92.31 66.28 92.74C66.09 92.81 66.0101 93.97 66.1901 94.07C67.1301 94.59 66.6 95.29 66.53 95.9C66.23 98.46 65.9001 101.02 65.5601 103.58C65.4001 104.78 65.8401 105.92 65.5701 107.19C64.9001 110.31 64.51 113.5 64.02 116.66C63.86 117.67 63.76 118.68 63.61 119.69C63.45 120.75 63.2801 121.81 63.0601 122.85C62.9401 123.4 62.7 123.92 62.51 124.45C62.41 124.74 62.2901 125.02 62.1801 125.31L61.55 127.53C60.98 127.75 60.4001 127.98 59.7201 128.24C59.6701 127.76 59.73 127.18 59.53 126.7C59.39 126.35 58.78 126.19 58.64 125.84C58.47 125.4 58.72 124.76 58.5 124.39C58.23 123.94 57.6201 123.71 57.2201 123.32C55.8601 122.01 54.9601 120.37 54.0801 118.72C52.9901 116.7 51.9101 114.68 50.8501 112.66C49.1501 109.42 47.45 106.17 45.77 102.91C45.51 102.4 45.2801 101.87 45.0801 101.33C43.9701 98.33 42.3001 95.63 40.8201 92.81C39.6101 90.51 37.79 88.59 37.16 85.62C35.24 87.83 33.65 89.59 32.13 91.41C30.34 93.55 28.54 95.67 26.54 97.63C25.09 99.05 23.77 100.61 22.3 102.04C20.73 103.56 18.8501 104.52 17.0901 105.72C16.2001 106.33 15.1701 106.78 14.0901 106.48C13.2501 106.25 12.5001 105.73 11.7301 105.34C11.9801 104.74 13.0601 105.6 12.8301 104.15C12.6101 102.76 12.14 101.17 13 99.6C13.68 98.35 13.6101 96.71 14.1901 95.39C15.4301 92.59 15.61 89.53 16.54 86.66C17.83 82.71 19.0001 78.72 20.1901 74.74C20.6701 73.14 21.04 71.52 21.5 69.77C18.83 68.87 16.1401 67.94 13.4501 67.05C10.7501 66.16 8.03007 65.31 5.32007 64.43C4.39007 64.13 3.48004 63.65 2.54004 63.57C1.39004 63.47 0.620103 63.23 0.480103 61.94C0.440103 61.55 0.17 61.19 0 60.82C0.5 60.62 1.37007 60.5 1.45007 60.19C1.98007 58.15 3.73006 57.28 5.19006 56.25C6.79006 55.13 8.59999 54.31 10.37 53.45C13.82 51.77 17.29 50.15 20.76 48.51C20.99 48.4 21.19 48.23 21.42 48.17C23.08 47.76 24.75 47.38 26.37 46.99C26.28 46.22 26.2 45.59 26.12 44.96C26.25 44.94 26.42 44.87 26.51 44.93C26.64 45.01 26.71 45.18 26.91 45.47C26.98 44.87 27.2401 44.29 27.0601 43.97C26.4201 42.85 26.6501 41.83 26.9601 40.68C27.4601 38.79 27.92 36.86 28.04 34.92C28.25 31.47 29.5 28.24 30.01 24.86C30.4 22.27 31.1701 19.75 31.5701 17.16C32.2201 12.98 32.8201 8.79001 33.9501 4.70001C34.1001 4.16001 34.2 3.48999 34.02 2.98999C33.8 2.36999 33.82 2.01002 34.27 1.52002C34.64 1.12002 34.8101 0.52002 35.0701 0.0200195C35.4001 1.95317e-05 35.7401 0 36.0701 0ZM27.53 62.96C28.46 62.28 28 61.44 27.61 60.62C27.61 61.43 27.61 62.23 27.61 63.04C27.43 63.34 27.1601 63.62 27.0901 63.95C27.0301 64.23 27.19 64.55 27.25 64.86C27.34 64.85 27.43 64.84 27.52 64.82C27.53 64.19 27.53 63.58 27.53 62.96ZM41.03 17.04C41.26 16.08 40.79 15.32 40.29 14.58C40.24 14.5 39.9601 14.49 39.8401 14.55C39.7301 14.61 39.6 14.87 39.65 14.94C40.11 15.64 40.6101 16.31 41.1001 16.99C40.7901 19.12 41.9601 20.94 42.3501 22.93C42.5701 24.05 42.9001 25.14 43.1901 26.25C45.0001 26.99 44.9201 28.9 45.5901 30.3C46.5801 32.34 47.5601 34.46 47.9801 36.66C48.4101 38.93 49.26 40.53 51.65 41.31C50.84 39.34 50.08 37.47 49.3 35.6C48.58 33.86 47.69 32.18 47.12 30.4C45.71 25.96 43.54 21.85 41.76 17.57C41.66 17.33 41.28 17.21 41.03 17.04ZM40.76 67.69C39.9 69.02 39.85 69.19 40.39 70.06C40.78 70.69 41.2201 71.28 41.6801 71.86C43.3001 73.96 45.18 75.34 48 74.07C48.21 73.97 48.5 74.06 48.74 74.01C50.87 73.53 53.12 73.28 54.53 71.27C54.71 71.01 55 70.69 55.28 70.64C56.67 70.37 56.44 69 57.02 68.18C57.08 68.09 57.0301 67.79 56.9401 67.74C56.7501 67.63 56.47 67.53 56.3 67.6C55.92 67.75 55.53 67.96 55.25 68.24C54.41 69.12 53.3501 69.34 52.2101 69.65C51.4301 69.86 50.48 69.41 50.03 69.91C49.13 70.9 47.9801 70.73 46.9501 71.11C45.9001 71.5 45.3201 71.23 44.8501 70.53C44.1801 69.52 43.2901 68.93 42.2101 68.51C41.7001 68.32 41.24 67.97 40.76 67.69ZM44.15 48.01C44.31 48.97 44.5 49.74 44.55 50.53C44.7001 52.5 45.1301 54.41 45.9501 56.2C46.3701 57.12 46.4701 58.05 46.6001 59.04C46.9201 61.55 47.82 63.81 50.01 65.64C50.26 65.06 50.58 64.68 50.54 64.35C50.33 62.57 50.06 60.8 49.75 59.04C49.16 55.75 47.7401 52.73 46.5701 49.63C46.1701 48.57 45.34 48.24 44.15 48.01ZM36.0701 54.73C35.7401 56.5 37.16 57.71 38.01 59.17C38.81 59.08 39.34 59.74 40.01 59.92C41.08 60.2 42.16 59.14 42.01 58.06C41.91 57.34 41.82 56.59 41.52 55.94C40.84 54.46 40.05 52.99 38.66 52.04C37.45 51.21 36.2601 51.82 36.0601 53.31C36.0201 53.71 36.0701 54.13 36.0701 54.73ZM54.6801 49.5C52.9001 49.52 52.16 50.24 52.61 51.55C53.19 53.23 54.02 54.82 55.63 55.74C56.03 55.97 56.7501 55.87 57.2101 55.67C57.5701 55.51 58.08 54.85 57.99 54.62C57.47 53.28 57.6001 51.72 56.4601 50.56C55.8701 49.98 55.5601 49.17 54.6801 49.5ZM37.5701 9.07001C37.3001 10.96 37.4 11.13 39.26 12.43C38.61 11.13 38.0901 10.1 37.5701 9.07001ZM18.24 97.05C18.01 97.9501 17.7901 98.86 17.4801 100.07C19.0401 98.8 19.04 98.8 18.24 97.05Z" fill="#FFE48B"/>
</svg>
