<svg width="78" height="84" viewBox="0 0 78 84" fill="none" xmlns="http://www.w3.org/2000/svg">
<path d="M57.78 83.8003C57.34 82.9303 56.9 82.0603 56.47 81.1903C55.19 78.6503 54.86 75.9703 55.85 73.3103C56.64 71.1803 56.67 68.9803 56.99 66.8003C57.08 66.1603 56.8 65.9403 56.28 65.7803C54.18 65.1203 52.07 64.5003 49.99 63.7703C48.23 63.1603 46.74 62.0603 45.14 60.8403C45.51 60.5903 45.69 60.3803 45.88 60.3703C46.85 60.2903 47.74 60.2903 48.55 59.4303C50.39 57.4703 53.05 56.9103 55.4 55.8203C56.21 55.4403 57.07 55.1703 57.87 54.7703C58.21 54.6003 58.54 54.2903 58.74 53.9703C60.18 51.5803 61.56 49.1603 63 46.7803C63.31 46.2703 63.95 45.9303 64.15 45.4003C64.38 44.8103 64.25 44.0803 64.33 43.4303C64.36 43.2403 64.68 42.9003 64.71 42.9203C65.67 43.4603 65.96 42.7503 66.2 42.0903C66.45 41.4003 66.5901 40.6803 66.8101 39.9803C66.8801 39.7703 67.09 39.4203 67.16 39.4403C67.45 39.5103 67.91 39.6502 67.96 39.8502C68.43 41.7502 68.97 43.6503 69.16 45.5803C69.22 46.2203 68.95 46.9102 69.33 47.6002C69.98 48.7602 69.76 49.9803 69.6 51.2303C69.36 53.0803 69.11 54.9403 69.11 56.7903C69.11 57.7903 69.39 58.6603 70.87 59.0003C72.22 59.3103 73.61 59.5103 74.89 59.4703C76.14 59.4303 76.66 59.8903 77.34 60.9703C76.7 61.4403 76.1101 61.9702 75.4301 62.3502C73.1701 63.6202 70.74 64.5603 68.25 65.2303C67.2 65.5103 66.73 66.0403 66.3 66.8803C64.61 70.1603 62.98 73.4603 61.17 76.6703C59.9 78.9203 59.06 81.2603 58.76 83.8103C58.44 83.8003 58.11 83.8003 57.78 83.8003Z" fill="#1D3D6C"/>
<path d="M10.3699 0C11.1699 0.87 11.97 1.67999 12.69 2.54999C13.1 3.04999 13.52 3.61003 13.69 4.22003C13.97 5.24003 14.0399 6.30999 14.2399 7.35999C14.4299 8.36999 14.0299 9.35002 14.5899 10.46C15.0199 11.33 15.12 12.48 15.64 13.43C15.72 13.57 15.73 13.74 15.77 13.9C16.24 15.86 16.24 15.84 18.02 15.62C19.06 15.49 20.12 15.37 21.17 15.36C22.2 15.35 22.65 15.98 22.06 16.66C20.91 17.99 20.1399 19.46 19.6299 21.14C19.4899 21.61 18.8499 21.98 18.3699 22.27C17.6599 22.69 16.8899 22.99 16.1999 23.32C15.9999 26.99 16.8899 30.68 15.8199 34.3C15.7299 34.61 15.86 34.98 15.77 35.29C15.68 35.63 15.48 36.19 15.28 36.22C14.84 36.28 14.2 36.21 13.94 35.92C12.52 34.39 11.5799 32.54 11.3599 30.5C11.1799 28.83 10.37 27.36 10.14 25.8C9.66996 22.61 7.06992 22.58 4.97992 21.85C3.76992 21.43 2.40994 21.48 1.11994 21.27C0.849939 21.23 0.459958 21.02 0.389958 20.8C0.319958 20.55 0.529958 19.96 0.639958 19.96C1.89996 19.91 2.1699 18.61 2.9599 18C3.7799 17.36 4.48994 16.94 5.49994 16.79C7.76994 16.46 8.24998 15.87 8.28998 13.59C8.30998 12.51 8.51 11.5 8.81 10.44C9.1 9.43 9.81998 8.45001 9.40998 7.26001C9.23998 6.76001 10.5699 7.56002 10.1999 6.33002C9.7499 4.84002 9.89998 3.18003 9.78998 1.59003C9.72998 0.890027 9.80994 0.25 10.3699 0Z" fill="#1D3D6C"/>
<path d="M6.01999 60.611C5.65999 59.731 5.58001 59.001 5.17001 58.601C4.08001 57.501 2.85 56.531 1.66 55.521C1.59 55.461 1.39998 55.581 1.25998 55.581C-0.19002 55.561 -0.129976 55.401 0.180024 53.981C0.610024 52.011 1.82001 50.271 1.79001 48.171C1.78001 47.451 2.95998 46.641 3.75998 46.861C4.52998 47.081 5.20998 47.751 6.00998 46.951C6.03998 46.921 6.28 47.101 6.41 47.191C7.72 48.151 9.03993 49.101 10.3299 50.101C10.4899 50.221 10.5599 50.751 10.4499 50.871C9.71992 51.611 11.1199 52.641 9.95993 53.431C9.20993 53.941 8.82001 54.991 8.29001 55.811C8.08001 56.131 7.75001 56.511 7.79001 56.821C7.98001 58.261 7.18999 59.231 6.01999 60.611Z" fill="#1D3D6C"/>
<path d="M37.4 67.9094C37.15 69.1194 36.95 70.3395 36.65 71.5295C36.23 73.1795 33.38 74.2394 31.57 73.1794C30.88 72.7794 30.49 71.1894 30.95 70.4794C31.38 69.8094 31.98 69.2594 32.51 68.6594C33.1 67.9794 33.7001 67.3095 34.3001 66.6395C34.4601 66.4495 34.58 66.1595 34.78 66.0895C35.44 65.8595 36.1401 65.6094 36.8101 65.6194C36.9801 65.6194 37.14 66.6095 37.27 67.1495C37.33 67.3895 37.28 67.6495 37.28 67.8995C37.32 67.8995 37.36 67.9094 37.4 67.9094Z" fill="#1D3D6C"/>
<path d="M37.63 46.8808C37.28 46.4908 37.14 46.2608 36.94 46.1308C36.3 45.7208 35.1299 45.4008 35.0799 44.9508C34.9299 43.5308 35.07 42.0408 35.37 40.6408C35.52 39.9108 36.1999 39.2608 36.7099 38.6408C37.2199 38.0308 37.86 38.1008 38.38 38.7108C39.31 39.8208 39.4 41.2708 39.65 42.5708C39.79 43.2908 39.1 44.1808 38.72 44.9708C38.46 45.5608 38.09 46.0908 37.63 46.8808Z" fill="#1D3D6C"/>
</svg>
