<svg width="237" height="186" viewBox="0 0 237 186" fill="none" xmlns="http://www.w3.org/2000/svg">
<path d="M15.2007 181.052C15.804 180.986 16.0051 180.611 15.9127 180.057C15.766 179.155 16.1301 178.72 16.9942 178.356C19.6843 177.22 22.3636 176.057 25.1516 175.171C28.32 174.166 31.4938 173.171 34.6405 172.084C36.1241 171.574 37.5371 170.856 38.9882 170.242C40.2218 169.72 41.4446 169.166 42.7055 168.715C43.1022 168.574 43.6566 168.59 44.037 168.764C45.363 169.378 46.6728 169.438 48.026 168.916C49.5586 168.329 51.0857 167.731 52.6291 167.172C54.8791 166.356 57.1399 165.568 59.4007 164.775C62.6561 163.628 65.9277 162.536 69.1559 161.329C71.7265 160.373 74.1992 159.134 76.797 158.275C80.5686 157.036 84.1827 155.422 87.8348 153.895C90.5738 152.748 93.2912 151.552 95.9922 150.319C96.4541 150.107 96.753 150.156 97.1117 150.406C97.2584 150.509 97.4215 150.585 97.5574 150.694C98.6443 151.607 99.7964 151.503 101.025 150.998C103.622 149.933 106.236 148.906 108.851 147.879C110.704 147.15 112.606 146.525 114.421 145.71C119.877 143.248 125.508 141.281 131.23 139.569C131.812 139.395 132.48 139.525 133.105 139.46C135.73 139.189 138.361 138.933 140.795 137.803C141.431 137.504 142.04 137.145 142.665 136.814C143.078 136.596 143.475 136.238 143.909 136.178C145.203 135.998 145.882 135.058 146.708 134.232C148.241 132.71 148.621 130.651 149.382 128.776C149.594 128.254 149.523 127.607 149.518 127.02C149.513 126.743 149.279 126.455 149.306 126.189C149.322 126.037 149.801 125.923 149.806 125.776C149.822 125.466 150.176 124.923 149.436 124.874C149.415 124.874 149.36 124.542 149.404 124.39C149.594 123.673 149.947 122.993 149.502 122.222C148.572 120.607 148.507 118.738 148.029 116.988C147.491 115.01 146.85 113.081 146.121 111.157C144.888 107.907 142.67 105.472 140.143 103.249C137.899 101.276 134.366 100.2 131.393 100.526C130.263 100.651 129.296 101.211 128.508 101.999C127.894 102.613 127.513 103.63 126.807 103.923C126.176 104.184 127.29 105.331 126.138 104.901C125.986 105.445 125.823 105.983 125.682 106.526C125.535 107.086 125.372 107.64 125.269 108.211C125.182 108.689 124.79 109.211 125.356 109.657L125.258 111.722C124.79 112.379 124.725 113.053 124.932 113.858C125.1 114.504 124.953 115.233 124.959 115.923C124.964 116.216 124.926 116.548 125.04 116.803C125.285 117.358 125.872 117.89 125.834 118.396C125.785 119.021 125.682 119.493 126.198 119.977C126.361 120.129 126.279 120.531 126.339 120.809C126.535 121.738 126.584 122.743 127.676 123.194C127.845 123.265 128.008 123.607 127.986 123.803C127.904 124.564 127.894 125.27 128.671 125.711C128.91 127.721 130.399 129.145 131.149 130.928C131.584 131.955 132.546 132.705 133.535 133.325C134.018 133.629 134.442 134.036 135.024 134.504C133.377 134.955 131.926 134.656 130.611 134.21C129.801 133.939 129.105 133.058 128.567 132.303C127.453 130.716 126.388 129.08 125.47 127.368C124.698 125.933 124.258 124.319 123.508 122.874C122.758 121.423 122.361 119.879 122.019 118.33C121.671 116.765 121.117 115.178 121.709 113.515C121.861 113.091 121.763 112.575 121.758 112.102C121.72 109.706 122.22 107.461 123.578 105.439C123.948 104.89 124.274 104.429 125.051 104.32C125.54 104.249 126.198 104.01 126.404 103.157C124.845 103.266 123.345 103.363 122.312 104.494C121.85 104.999 120.932 105.266 120.997 106.222C121.002 106.32 120.709 106.553 120.655 106.526C119.758 106.075 119.339 107.515 118.448 107.081C118.41 107.064 118.258 107.293 118.155 107.401C117.769 107.809 117.475 108.184 116.731 108.075C116.253 108.005 115.6 108.434 115.176 108.809C114.095 109.765 112.356 109.82 111.709 111.352C111.677 111.423 111.492 111.515 111.465 111.494C110.633 110.809 110.334 112.227 109.617 111.961C108.09 112.831 106.568 113.711 105.041 114.57C104.28 114.999 103.476 115.347 102.737 115.809C100.106 117.45 97.4704 119.086 94.8944 120.809C93.5248 121.727 92.0303 122.412 90.6119 123.232C89.8347 123.678 89.1662 124.124 88.9108 125.107C88.7749 125.629 88.2315 126.048 87.8728 126.51C87.5956 126.863 87.525 127.004 88.1228 127.069C88.3347 127.091 88.0195 127.895 87.5848 127.798C86.8076 127.618 86.3674 128.031 85.8348 128.439C84.4055 129.537 82.8947 130.509 81.2751 131.319C80.8241 131.542 80.4056 131.901 80.085 132.292C79.8458 132.58 79.748 132.325 79.5795 132.33C79.1937 132.335 78.7752 132.401 78.4328 132.569C77.2318 133.172 76.0525 133.814 74.8894 134.482C74.6666 134.613 74.5362 134.917 74.3731 135.145C74.1395 135.482 73.9329 135.558 73.4384 135.585C72.1232 135.651 71.2482 136.743 70.2157 137.455C70.6722 138.498 69.9928 138.096 69.4657 138.134C68.8787 138.178 68.2646 138.406 67.7429 138.699C65.2375 140.112 62.7702 141.591 60.2702 143.009C59.0529 143.699 57.792 144.313 56.5366 144.933C53.9171 146.221 51.5803 147.998 48.8629 149.145C46.6021 150.096 44.4772 151.378 42.3359 152.596C41.8196 152.889 41.5533 153.607 41.0479 153.944C39.7273 154.829 39.4121 156.253 38.9175 157.59C38.7817 157.965 38.7382 158.378 38.6621 158.753C38.4121 158.808 38.3523 158.02 38.086 158.596C37.8414 159.128 37.7002 159.438 37.086 159.036C36.9447 158.943 36.6241 159.036 36.423 159.123C35.6785 159.449 34.9393 159.791 34.2111 160.155C33.972 160.275 33.6242 160.411 33.9014 160.813C33.9122 160.829 33.7817 160.938 33.722 161.003C32.9068 160.172 32.6405 160.911 32.2981 161.487C32.2927 161.492 32.1079 161.367 31.9992 161.34C31.8036 161.286 31.559 161.166 31.4014 161.237C28.1189 162.65 24.8581 164.112 21.5701 165.503C18.3474 166.867 15.0975 168.161 11.7715 169.525C11.978 168.47 10.8911 168.269 10.4781 167.579C10.3476 167.682 10.1737 167.758 10.0921 167.894C9.6302 168.666 9.44547 168.807 8.77701 168.4C7.46182 167.606 6.35855 167.628 5.34227 168.889C5.1575 169.117 4.73361 169.199 4.40753 169.258C3.30431 169.454 2.60864 170.014 2.01083 171.03C1.41302 172.046 0.842422 173.03 0.554382 174.177C0.39679 174.796 0.190262 175.4 4.57764e-05 176.014C0.809799 176.443 -0.0869293 177.117 0.250015 177.688C0.565231 178.22 0.554367 178.938 0.804367 179.524C1.16304 180.378 1.65762 181.171 2.04347 182.014C2.69563 183.427 3.98366 184.079 5.24449 184.785C5.72818 185.057 6.13577 185.296 6.6738 184.905C6.7988 184.812 7.10857 184.856 7.27161 184.948C8.44548 185.59 9.7226 184.872 10.9128 185.242C12.3367 184.6 13.9508 184.307 15.0812 183.122C15.6572 182.519 15.5431 181.758 15.2714 181.03C15.0105 180.921 14.4616 181.035 14.7061 180.486C14.842 180.182 15.1627 179.965 15.6735 179.416C15.429 180.209 15.3148 180.633 15.2007 181.052ZM118.443 109.765C118.356 111.792 118.258 113.651 118.204 115.515C118.187 116.037 118.111 116.868 118.377 117.026C119.448 117.662 117.921 117.923 118.263 118.39C118.367 118.531 118.443 118.695 118.513 118.858C118.622 119.118 118.79 119.39 118.796 119.662C118.872 122.254 120.339 124.385 121.236 126.683C122.008 128.662 123.356 130.417 124.459 132.265C125.024 133.21 125.568 134.178 126.214 135.064C126.904 136.004 127.709 136.862 128.578 137.89C128.095 138.036 127.725 138.161 127.35 138.259C126.959 138.362 126.47 138.335 126.182 138.564C125.372 139.194 124.366 139.064 123.475 139.4C121.915 139.998 120.274 140.395 118.671 140.879C118.432 141.688 117.666 140.939 117.204 141.395C116.78 141.813 116.079 141.971 115.486 142.194C113.079 143.091 110.66 143.966 108.253 144.862C106.753 145.422 105.264 146.014 103.764 146.569C102.503 147.036 101.188 147.384 99.9757 147.96C99.3888 148.237 99.0084 148.145 98.5519 147.884C98.0954 147.618 97.59 147.4 97.2204 147.047C96.0683 145.96 94.8998 144.879 93.8727 143.678C92.6933 142.297 91.6282 140.819 90.5901 139.324C90.2749 138.868 90.139 138.237 90.063 137.672C89.8619 136.172 89.8293 134.645 89.5467 133.162C89.3075 131.917 89.4869 130.732 89.7097 129.547C90.0086 127.939 90.9597 126.705 92.302 125.787C93.9813 124.635 95.628 123.428 97.3617 122.363C100.487 120.439 103.671 118.613 106.818 116.733C108.666 115.629 110.481 114.488 112.329 113.379C114.312 112.184 116.312 111.021 118.443 109.765ZM86.1283 131.781C85.9652 134.949 86.8348 137.982 88.0195 140.765C89.2369 143.623 91.4107 146.014 93.8998 148.199C92.0303 148.639 90.4488 149.628 88.7423 150.253C86.9815 150.9 85.2479 151.623 83.4925 152.291C81.9871 152.868 80.3567 153.161 78.9545 153.889C76.8187 154.992 74.5362 155.661 72.3297 156.536C70.9765 157.074 69.6722 157.905 68.27 158.117C65.4821 158.541 63.2104 160.259 60.4605 160.802C57.966 161.297 55.5856 162.384 53.1617 163.215C52.9498 163.286 52.7595 163.422 52.553 163.519C51.5639 163.976 50.5042 164.269 49.5694 164.873C49.2107 165.106 48.5477 164.922 48.2434 165.182C47.6564 165.677 47.0151 166.047 46.3738 165.688C45.7543 165.34 45.2543 164.721 44.7978 164.144C44.4445 163.693 44.2924 163.085 43.9554 162.617C43.0098 161.308 42.4338 159.9 42.2762 158.27C42.1186 156.672 42.4609 155.954 43.8739 155.34C45.325 154.715 46.7489 154.025 48.1782 153.351C52.4172 151.357 56.504 149.09 60.4659 146.585C65.3027 143.525 70.1287 140.449 75.0036 137.449C76.7698 136.363 78.6448 135.46 80.5632 134.645C82.4382 133.846 84.199 132.786 86.1283 131.781ZM132.883 103.195C133.948 103.494 135.094 103.63 136.056 104.13C138.279 105.287 140.073 106.994 141.611 108.977C143.627 111.581 144.393 114.695 145.252 117.765C145.725 119.45 146.023 121.178 146.442 122.879C147.273 126.276 146.616 129.352 144.48 132.107C143.491 133.384 142.866 133.558 141.317 133.091C140.882 132.96 140.453 132.787 140.007 132.705C136.545 132.064 133.823 130.45 132.372 127.069C132.029 126.27 131.643 125.444 131.095 124.781C128.899 122.14 128.464 118.885 127.812 115.7C127.709 115.184 127.535 114.678 127.508 114.157C127.453 113.233 127.399 112.374 127.926 111.445C128.633 110.189 129.198 108.831 129.317 107.303C129.383 106.472 129.91 105.668 130.285 104.88C130.779 103.82 131.633 103.276 132.883 103.195ZM41.6076 165.807C38.3523 167.133 35.1622 168.432 31.972 169.737C31.6079 169.883 31.271 170.068 31.4177 170.568C31.0481 170.476 30.6841 170.367 30.3091 170.291C30.2058 170.269 30.0862 170.356 29.9667 170.378C28.82 170.606 27.6732 170.829 26.5319 171.063C25.3526 171.302 24.4016 172.112 23.1625 172.296C22.2821 172.427 21.4886 173.09 20.6245 173.438C19.38 173.938 18.0757 174.296 16.8529 174.84C14.8638 175.726 12.891 176.644 10.6194 177.068C10.3965 176.59 10.0379 176.09 9.94003 175.541C9.86938 175.133 9.27698 174.758 9.77153 174.264C10.2824 173.747 10.4563 172.84 11.4019 172.851C12.9888 172.867 14.3312 172.03 15.7279 171.492C18.6028 170.383 21.4016 169.074 24.2168 167.813C26.7222 166.693 29.2058 165.536 31.7003 164.4C34.2437 163.242 36.7871 162.085 39.336 160.922C39.6621 161.574 40.0805 162.34 40.4501 163.134C40.8468 163.981 41.1946 164.851 41.6076 165.807ZM13.0595 180.046C12.3693 181.111 11.3584 181.323 10.3041 181.356C9.07045 181.394 7.84764 181.394 6.62485 181.052C6.07594 180.899 5.61946 180.812 5.36403 180.28C4.74992 179.014 4.07599 177.774 3.55969 176.476C3.39122 176.046 3.51079 175.4 3.70644 174.949C4.38577 173.383 5.26074 172.008 6.75526 170.976C7.66286 170.351 8.24983 170.22 8.96721 170.802C8.4944 171.296 8.09764 172.036 7.52158 172.231C6.90202 172.443 6.89661 172.753 6.85312 173.193C6.58139 175.883 7.8857 178.041 9.28239 180.144C9.62477 180.66 10.1247 180.921 10.7606 180.329C11.3747 179.753 12.1791 179.899 13.0595 180.046ZM87.0033 131.384C86.9054 132.189 86.8293 132.83 86.7261 133.667C86.3565 132.335 86.3511 132.335 87.0033 131.384Z" fill="#1D3D6C"/>
<path d="M192.756 104.587C192.24 103.294 191.533 102.451 190.43 102.054C189.593 101.75 188.751 101.522 187.957 101.076C187.425 100.777 186.702 100.832 186.071 100.679C185.572 100.56 185.267 100.397 185.251 99.685C185.218 98.1904 185.039 96.7068 185.789 95.3209C185.164 94.7394 186.158 93.8699 185.43 93.3101C185.539 92.3591 185.213 91.3265 186.115 90.6308C185.571 90.0874 185.028 90.2504 184.778 90.5493C184.093 91.3754 182.995 91.7286 182.528 92.8753C182.262 93.5275 181.816 94.3101 180.968 94.7122C180.572 94.9025 180.403 95.6036 180.175 96.0927C179.876 96.7231 179.74 96.7937 179.218 96.4676C178.458 95.9948 177.577 95.6307 176.979 95.0057C176.561 94.571 175.99 95.0818 175.68 94.4948C175.436 94.0275 174.985 93.6634 174.583 93.2993C174.441 93.1688 174.333 92.9079 173.969 93.0655C173.556 93.2394 173.387 93.6145 173.485 93.8482C173.778 94.5601 173.68 95.1905 173.409 95.8644C173.349 96.0166 173.452 96.2503 173.507 96.4405C174.208 98.8154 174.887 101.196 175.632 103.56C175.767 103.989 175.778 104.342 175.572 104.674C174.898 105.761 174.202 106.837 173.485 107.897C173.023 108.581 172.849 109.451 172.099 109.962C171.974 110.049 172.104 110.5 172.121 110.864C173.05 110.75 174.023 110.755 174.909 110.484C175.534 110.293 176.055 109.744 176.599 109.321C177.648 108.505 178.68 107.668 179.909 106.696C179.996 107.359 180.066 107.766 180.099 108.179C180.246 110.163 180.376 112.147 180.539 114.13C180.561 114.391 180.724 114.647 180.822 114.902C181.126 114.777 181.637 114.706 181.697 114.511C181.881 113.88 182.582 113.712 182.767 113.157C182.957 112.598 183.099 112.011 183.197 111.424C183.561 109.283 184.365 107.266 184.908 105.174C184.968 104.957 185.283 104.669 185.506 104.652C186.539 104.565 187.571 104.533 188.609 104.527C189.919 104.516 191.218 104.56 192.756 104.587Z" fill="#1D3D6C"/>
<path d="M232.706 116.047C232.549 115.835 232.413 115.656 232.277 115.476C232.462 115.362 232.636 115.172 232.831 115.145C234.092 114.998 235.358 114.895 236.782 114.759C236.494 114.221 236.32 113.596 236.125 113.591C235.353 113.569 234.761 112.813 233.929 113.112C233.793 113.161 233.565 112.944 233.375 112.846C233.598 112.726 233.82 112.612 234.217 112.4C233.712 112.4 233.369 112.368 233.038 112.411C232.69 112.455 232.337 112.542 232.005 112.661C230.755 113.107 229.239 112.732 228.212 113.873C228.147 113.944 227.989 113.982 227.891 113.971C225.478 113.596 223.147 114.389 220.761 114.455C219.565 114.487 218.37 114.873 217.185 115.139C215.136 115.596 213.087 116.052 211.049 116.552C209.185 117.009 207.337 117.542 205.473 118.014C204.875 118.167 204.245 118.188 203.658 118.362C203.066 118.536 202.544 118.993 201.865 118.737C199.022 120.253 195.74 120.156 192.772 121.243C192.061 121.503 191.218 121.221 190.452 121.58C189.773 121.895 189.023 122.134 188.283 122.237C187.186 122.389 186.245 122.797 185.419 123.514C185.197 123.704 184.963 123.895 184.713 124.047C184.523 124.166 184.028 123.992 184.322 124.509C184.131 124.547 183.936 124.628 183.751 124.607C183.463 124.574 183.186 124.433 182.898 124.4C182.534 124.357 182.371 124.541 182.468 124.916C182.305 124.927 182.11 125.003 181.99 124.938C181.153 124.482 180.398 125.014 179.604 125.074C178.925 125.123 179.593 125.732 179.267 125.732C179.039 125.732 178.816 125.449 178.572 125.362C178.441 125.319 178.257 125.427 178.093 125.465C175.501 126.085 172.773 126.003 170.251 127.02C169.507 127.318 168.67 127.411 167.871 127.574C167.355 127.683 167.023 127.884 167.105 128.498C167.17 128.976 167.099 129.297 167.838 129.465C169.599 129.856 171.295 129.786 172.947 129.188C174.224 128.726 175.528 128.514 176.854 128.264C179.414 127.786 181.936 127.117 184.463 126.465C185.648 126.161 186.783 125.645 187.968 125.346C189.093 125.063 190.273 124.987 191.408 124.737C194.006 124.172 196.588 123.547 199.18 122.976C201.403 122.487 203.577 121.715 205.783 121.286C208.652 120.721 211.397 119.71 214.283 119.254C216.212 118.944 218.109 118.438 220.071 118.302C220.413 118.281 220.755 118.188 221.092 118.101C222.712 117.694 224.359 117.46 226.016 117.237C227.581 117.025 229.125 116.667 230.679 116.384C231.304 116.27 231.94 116.172 232.706 116.047Z" fill="#1D3D6C"/>
<path d="M206.979 78.6517C207.946 78.8039 208.544 78.1409 209.256 77.7877C210.082 77.3855 210.327 76.554 210.723 75.8094C211.712 76.4127 211.924 77.5268 212.544 78.3474C212.783 78.6626 212.957 79.0322 213.223 79.3148C213.571 79.6789 213.968 79.5485 214.082 79.0757C214.104 78.9887 214.104 78.9018 214.104 78.8094C214.109 78.0811 215.098 77.6192 214.511 76.641C214.174 76.0758 214.419 75.1736 214.337 74.4345C214.294 74.054 214.125 73.6845 214 73.3095C213.788 72.6574 213.799 72.5867 214.408 72.315C215.044 72.0324 215.707 71.8041 216.343 71.5324C216.642 71.4019 216.919 71.2118 217.25 71.0215C216.805 70.44 216.125 70.2933 215.924 69.6194C215.854 69.3911 215.359 69.2661 215.038 69.1411C212.941 68.3151 212.816 68.1901 212.218 66.0162C212.038 65.364 211.913 64.701 211.701 64.0597C211.571 63.6684 212.31 63.5652 211.919 63.0652C211.734 62.8315 211.886 62.3369 211.886 61.875C211.729 61.8913 211.484 61.8424 211.365 61.9402C210.653 62.5272 209.935 63.125 209.712 64.0869C209.549 64.8097 209.397 65.538 209.294 66.2662C209.185 67.0488 209.212 67.0543 208.289 66.8151C207.789 67.2934 207.441 66.5434 206.87 66.6684C205.914 66.8803 205.549 67.1412 205.843 68.0379C206.153 68.9781 206.354 69.9509 207.169 70.6628C207.783 71.2063 207.816 71.9617 207.647 72.7443C207.386 73.978 207.131 75.2117 206.946 76.4562C206.892 76.8149 207.126 77.2062 207.136 77.5866C207.164 77.9235 207.049 78.255 206.979 78.6517Z" fill="#1D3D6C"/>
<path d="M186.789 60C186.159 60.0543 185.718 59.962 185.566 60.1304C184.36 61.4782 182.588 61.8967 181.181 62.8858C180.354 63.4673 179.349 63.9347 178.941 65.0434C178.844 65.3097 178.268 65.3585 178.018 65.614C177.496 66.1411 177.039 66.739 176.566 67.2988C176.268 67.2172 176.637 66.2825 175.99 66.7987C174.213 68.2226 172.556 69.815 170.719 71.1519C169.246 72.228 167.811 73.3529 166.208 74.2714C164.817 75.0703 163.692 76.3366 162.447 77.4017C162.224 77.592 162.029 77.831 161.779 77.9723C160.415 78.7712 159.186 79.6843 158.703 81.2983C158.6 81.2603 158.496 81.1788 158.398 81.1897C158.197 81.206 157.937 81.2005 157.801 81.3201C156.116 82.8309 154.187 84.032 152.496 85.5483C150.812 87.0591 148.98 88.4069 147.214 89.8253C146.622 90.3036 146.029 90.7873 145.437 91.2655C144.709 91.8525 143.986 92.4503 143.247 93.0263C142.877 93.3089 142.817 93.798 143.111 94.097C143.665 94.6567 144.698 94.1622 145.1 95.0263C145.154 94.9284 145.225 94.8307 145.263 94.7274C145.301 94.6187 145.312 94.4991 145.334 94.385C145.404 94.4013 145.497 94.4013 145.551 94.4393C146.654 95.2545 147.41 94.3524 148.165 93.8307C149.17 93.135 150.089 92.3144 151.024 91.5209C152.583 90.1949 154.127 88.8525 155.67 87.5047C157.795 85.6515 159.936 83.8146 162.023 81.9233C164.056 80.081 166.034 78.1735 168.05 76.3148C168.246 76.1355 168.621 76.1572 168.833 75.9887C170.3 74.8149 171.98 73.9562 173.371 72.641C175.931 70.2226 178.643 67.9672 181.278 65.6303C182.583 64.4727 183.898 63.326 185.142 62.1086C185.724 61.5597 186.142 60.8532 186.789 60Z" fill="#1D3D6C"/>
<path d="M96.487 131.596C95.5251 132.824 94.824 133.666 95.0957 134.911C95.1283 135.058 95.1555 135.335 95.1012 135.357C94.036 135.813 94.4653 136.34 94.9707 136.932C95.0686 137.047 94.9109 137.362 94.8838 137.59C94.8457 137.873 94.6827 138.248 94.8077 138.427C95.449 139.367 95.0631 140.65 95.9272 141.514C96.199 141.786 96.3022 142.242 96.6555 141.623C96.8348 141.824 97.1011 142.003 97.1772 142.237C97.3022 142.606 97.3565 142.84 97.8674 142.78C98.5358 142.699 98.5195 142.72 98.4543 141.889C98.3674 140.835 98.0522 139.878 97.6717 138.9C97.1283 137.498 96.6446 136.052 96.3402 134.579C96.1663 133.775 96.4055 132.873 96.487 131.596Z" fill="#1D3D6C"/>
<path d="M101.487 131.84C101.275 132.101 100.883 132.351 100.878 132.617C100.845 133.427 100.334 134.057 100.247 134.862C100.057 136.606 100.383 138.269 100.682 139.965C100.775 140.492 101.845 139.905 101.291 140.633C100.851 141.215 102.237 141.095 101.595 141.644C101.965 141.823 102.394 141.894 102.405 142.475C102.41 142.682 102.834 142.856 102.889 143.084C103.03 143.682 103.313 143.312 103.47 143.171C103.845 142.845 103.976 142.475 103.78 141.927C103.204 140.285 102.704 138.622 102.188 136.965C101.737 135.519 101.318 134.068 101.775 132.53C101.818 132.383 101.731 132.193 101.688 132.03C101.671 131.987 101.606 131.954 101.487 131.84Z" fill="#1D3D6C"/>
<path d="M107.34 141.769C108.867 141.687 108.47 140.437 108.661 139.698C108.796 139.166 108.481 138.443 108.193 137.889C107.427 136.405 106.737 134.948 107.454 133.231C107.519 133.073 107.4 132.671 107.286 132.633C106.802 132.47 107.025 132.981 106.873 133.139C106.53 133.503 106.199 133.932 105.769 134.133C105.508 134.258 105.335 134.4 105.492 134.535C106.074 135.03 105.487 135.557 105.595 136.079C105.71 136.611 105.454 137.215 105.427 137.791C105.411 138.128 105.449 138.514 105.601 138.796C106.166 139.818 106.78 140.812 107.34 141.769Z" fill="#1D3D6C"/>
<path d="M82.7698 145.046C82.3024 144.742 82.0633 144.448 81.835 144.459C80.8731 144.508 79.9166 144.709 78.9546 144.742C78.0905 144.769 78.4492 145.774 77.8623 145.959C77.3188 146.128 76.7536 146.226 76.2156 146.405C76.1286 146.432 76.1395 146.736 76.0852 146.899C76.0417 147.035 75.9602 147.16 75.8949 147.291C74.6558 146.334 73.9113 147.785 72.895 147.954C72.3298 148.046 71.819 148.617 71.3353 149.035C71.0201 149.307 70.8733 149.329 70.7864 148.899C70.6777 148.943 70.4875 148.97 70.4712 149.03C70.4005 149.399 70.3136 149.785 69.8299 149.628C69.1397 149.399 68.6451 149.725 68.0691 150.013C66.7648 150.671 65.4224 151.242 64.0855 151.829C63.5529 152.062 62.8953 152.128 62.955 152.943C62.8409 152.943 62.6453 152.986 62.6181 152.937C62.3464 152.437 62.1181 152.758 62.0149 153.008C61.841 153.448 61.7105 153.785 61.1779 153.377C61.0638 153.291 60.754 153.274 60.6943 153.35C59.8845 154.35 58.5584 154.247 57.553 154.85C56.6128 155.416 55.5368 155.752 54.5368 156.182C54.7596 156.519 54.9226 157.035 55.1726 157.079C55.6726 157.165 55.9389 157.546 56.2976 157.698C56.7378 157.883 57.3682 157.687 57.9008 157.568C58.5149 157.426 59.1888 157.307 59.6997 156.97C61.1942 155.992 62.8083 155.242 64.3952 154.459C67.118 153.111 69.944 151.981 72.6994 150.698C74.4384 149.888 76.1558 149.019 77.8297 148.084C79.4329 147.177 80.9709 146.155 82.7698 145.046Z" fill="#1D3D6C"/>
<path d="M97.6576 0C97.9806 0.386775 98.2988 0.773557 98.6268 1.1555C98.7198 1.26669 98.8569 1.45526 98.945 1.44076C99.5472 1.34406 99.6549 1.79852 99.8556 2.16596C100.404 3.17641 100.981 4.17233 101.495 5.19729C102.044 6.29476 102.519 7.42609 103.042 8.53323C103.463 9.42281 104.021 10.2592 104.11 11.2793C105.02 12.5654 105.275 14.1366 105.98 15.5145C106.391 16.3219 106.65 17.2067 107.008 18.0479C107.159 18.4057 107.39 18.7344 107.576 19.0632C108.677 18.7054 109.651 18.1881 110.699 17.8207C111.629 17.4919 112.476 16.9311 113.391 16.5491C114.272 16.1817 115.036 15.4903 116.123 15.6499C116.436 15.6982 116.671 15.0117 117.151 15.3888C117.489 14.5476 117.939 15.616 118.311 15.326C118.34 15.4178 118.424 15.5532 118.389 15.5967C118.13 15.9158 118.272 16.0898 118.57 16.259C118.634 16.2929 118.654 16.554 118.624 16.5685C118.027 16.8441 118.296 17.3324 118.522 17.5499C119.168 18.1688 118.864 18.6812 118.644 19.3726C118.066 21.1953 117.082 22.8439 116.5 24.6521C116.03 26.0976 115.428 27.4804 114.502 28.6939C114.209 29.0807 114.405 29.332 114.591 29.5254C115.834 30.8308 116.627 32.3876 117.337 34.0072C117.464 34.2973 117.626 34.5922 117.841 34.8146C118.154 35.1385 118.468 35.4334 118.487 35.9265C118.492 36.0716 118.59 36.236 118.693 36.352C119.633 37.3963 120.196 38.6872 121.008 39.8088C121.532 40.534 121.796 41.4623 122.712 41.9312C122.937 42.0473 123.02 42.6323 122.996 42.99C122.967 43.3526 122.413 43.5605 121.89 43.488C121.694 43.4638 121.503 43.3865 121.312 43.3284C120.431 43.0674 119.54 42.8208 118.664 42.5356C118.14 42.3664 117.611 42.4776 117.161 42.6419C116.392 42.9223 115.707 42.6564 115.007 42.5114C114.463 42.3954 113.949 42.1536 113.43 41.9603C113.014 41.8055 112.632 42.0328 112.652 42.4631C112.672 42.9175 112.789 43.372 112.794 43.8264C112.799 44.1794 113.019 44.629 112.446 44.8369C112.353 44.8707 112.314 45.4315 112.402 45.4799C112.862 45.7313 112.603 46.0697 112.569 46.3646C112.422 47.6023 112.26 48.84 112.094 50.0777C112.016 50.6578 112.231 51.209 112.099 51.823C111.771 53.3314 111.58 54.8737 111.34 56.4015C111.262 56.8898 111.213 57.378 111.139 57.8663C111.061 58.3788 110.978 58.8913 110.87 59.3941C110.811 59.66 110.694 59.9114 110.601 60.1677C110.552 60.3079 110.493 60.4432 110.439 60.5834L110.131 61.6568C109.852 61.7631 109.568 61.8743 109.235 62C109.211 61.7679 109.24 61.4875 109.142 61.2555C109.073 61.0863 108.775 61.0089 108.706 60.8397C108.623 60.627 108.745 60.3175 108.638 60.1387C108.506 59.9211 108.207 59.8099 108.011 59.6213C107.345 58.988 106.905 58.1951 106.474 57.3974C105.94 56.4208 105.412 55.4442 104.893 54.4676C104.061 52.9011 103.228 51.3299 102.406 49.7538C102.279 49.5072 102.166 49.2509 102.068 48.9899C101.525 47.5395 100.707 46.2341 99.9828 44.8707C99.3905 43.7587 98.4995 42.8305 98.1911 41.3946C97.2512 42.463 96.4728 43.314 95.7288 44.1939C94.8525 45.2285 93.9713 46.2534 92.9923 47.201C92.2824 47.8876 91.6363 48.6418 90.9166 49.3331C90.1481 50.068 89.2278 50.5321 88.3662 51.1123C87.9305 51.4072 87.4263 51.6248 86.8976 51.4797C86.4864 51.3686 86.1192 51.1171 85.7423 50.9286C85.8647 50.6385 86.3934 51.0543 86.2808 50.3533C86.1731 49.6812 85.943 48.9125 86.364 48.1535C86.6968 47.5491 86.6626 46.7562 86.9465 46.1181C87.5536 44.7644 87.6417 43.285 88.0969 41.8974C88.7284 39.9877 89.3012 38.0586 89.8837 36.1344C90.1187 35.3609 90.2998 34.5777 90.525 33.7316C89.2179 33.2965 87.9011 32.8469 86.5843 32.4166C85.2625 31.9863 83.931 31.5753 82.6044 31.1499C82.1491 31.0048 81.7036 30.7728 81.2434 30.7341C80.6805 30.6858 80.3036 30.5697 80.235 29.946C80.2154 29.7575 80.0832 29.5834 80 29.4046C80.2448 29.3079 80.6707 29.2498 80.7099 29.1C80.9693 28.1137 81.826 27.6931 82.5407 27.1951C83.324 26.6536 84.21 26.2572 85.0765 25.8414C86.7654 25.0292 88.4641 24.246 90.1627 23.4531C90.2753 23.3999 90.3733 23.3177 90.4859 23.2887C91.2985 23.0905 92.116 22.9067 92.909 22.7182C92.865 22.3459 92.8258 22.0413 92.7866 21.7368C92.8503 21.7271 92.9335 21.6932 92.9776 21.7222C93.0412 21.7609 93.0755 21.8431 93.1734 21.9833C93.2077 21.6932 93.335 21.4128 93.2468 21.2581C92.9335 20.7166 93.0461 20.2235 93.1979 19.6675C93.4427 18.7537 93.6678 17.8207 93.7266 16.8827C93.8294 15.2148 94.4413 13.6532 94.6909 12.0191C94.8819 10.7669 95.2588 9.54852 95.4546 8.29634C95.7728 6.27544 96.0666 4.24969 96.6197 2.27231C96.6932 2.01123 96.7421 1.6873 96.654 1.44557C96.5463 1.14582 96.5561 0.971781 96.7764 0.734882C96.9575 0.541494 97.0407 0.251413 97.168 0.00967881C97.3296 9.44296e-06 97.496 0 97.6576 0ZM93.4769 30.4392C93.9322 30.1104 93.707 29.7043 93.516 29.3079C93.516 29.6995 93.516 30.0863 93.516 30.4779C93.4279 30.6229 93.2958 30.7583 93.2615 30.9178C93.2322 31.0532 93.3105 31.2079 93.3398 31.3578C93.3839 31.353 93.4279 31.3481 93.472 31.3384C93.4769 31.0338 93.4769 30.7389 93.4769 30.4392ZM100.086 8.23832C100.198 7.77419 99.9681 7.40675 99.7234 7.04898C99.6989 7.0103 99.5619 7.00548 99.5031 7.03449C99.4493 7.0635 99.3856 7.18918 99.4101 7.22302C99.6353 7.56145 99.8801 7.88537 100.12 8.21413C99.9682 9.24391 100.541 10.1238 100.732 11.0859C100.84 11.6274 101.001 12.1544 101.143 12.691C102.029 13.0488 101.99 13.9723 102.318 14.6491C102.803 15.6354 103.282 16.6603 103.488 17.724C103.698 18.8214 104.114 19.595 105.284 19.9721C104.888 19.0197 104.516 18.1156 104.134 17.2115C103.782 16.3703 103.346 15.558 103.067 14.6975C102.377 12.5509 101.314 10.5638 100.443 8.49455C100.394 8.37851 100.208 8.32051 100.086 8.23832ZM99.9534 32.726C99.5324 33.369 99.508 33.4512 99.7723 33.8718C99.9632 34.1764 100.179 34.4617 100.404 34.7421C101.197 35.7574 102.117 36.4245 103.498 35.8105C103.6 35.7622 103.742 35.8057 103.86 35.7815C104.903 35.5494 106.004 35.4286 106.694 34.4568C106.782 34.3311 106.924 34.1764 107.061 34.1522C107.742 34.0217 107.629 33.3593 107.913 32.9629C107.943 32.9194 107.918 32.7743 107.874 32.7502C107.781 32.697 107.644 32.6486 107.561 32.6825C107.375 32.755 107.184 32.8565 107.047 32.9919C106.636 33.4173 106.117 33.5237 105.559 33.6736C105.177 33.7751 104.712 33.5576 104.491 33.7993C104.051 34.2779 103.488 34.1958 102.984 34.3795C102.47 34.568 102.186 34.4375 101.956 34.099C101.628 33.6107 101.192 33.3255 100.663 33.1224C100.414 33.0306 100.188 32.8614 99.9534 32.726ZM101.613 23.2113C101.691 23.6755 101.784 24.0477 101.809 24.4297C101.882 25.3821 102.093 26.3055 102.494 27.1709C102.7 27.6157 102.749 28.0654 102.812 28.544C102.969 29.7575 103.41 30.8501 104.482 31.7349C104.604 31.4545 104.761 31.2708 104.741 31.1112C104.638 30.2506 104.506 29.3949 104.354 28.544C104.066 26.9534 103.37 25.4933 102.798 23.9945C102.602 23.4821 102.196 23.3225 101.613 23.2113ZM97.6576 26.4603C97.496 27.316 98.1911 27.901 98.6072 28.6069C98.9988 28.5633 99.2583 28.8824 99.5863 28.9695C100.11 29.1048 100.639 28.5923 100.565 28.0702C100.516 27.7221 100.472 27.3595 100.325 27.0452C99.9926 26.3297 99.6059 25.619 98.9254 25.1597C98.3331 24.7584 97.7506 25.0533 97.6527 25.7737C97.6331 25.9671 97.6576 26.1702 97.6576 26.4603ZM106.768 23.9317C105.896 23.9414 105.534 24.2895 105.754 24.9228C106.038 25.7351 106.445 26.5037 107.233 26.9485C107.429 27.0597 107.781 27.0114 108.006 26.9147C108.183 26.8374 108.432 26.5182 108.388 26.407C108.134 25.7592 108.197 25.005 107.639 24.4442C107.35 24.1638 107.199 23.7721 106.768 23.9317ZM98.3919 4.38506C98.2597 5.29882 98.3086 5.381 99.2191 6.00951C98.9009 5.381 98.6464 4.88304 98.3919 4.38506ZM88.9291 46.9206C88.8165 47.3558 88.7089 47.7957 88.5571 48.3807C89.3208 47.7667 89.3207 47.7667 88.9291 46.9206Z" fill="#1D3D6C"/>
</svg>
