<svg width="436" height="231" viewBox="0 0 436 231" fill="none" xmlns="http://www.w3.org/2000/svg">
<path d="M407.72 222.739C406.61 222.619 406.24 221.929 406.41 220.909C406.68 219.249 406.01 218.449 404.42 217.779C399.47 215.689 394.54 213.549 389.41 211.919C383.58 210.069 377.74 208.239 371.95 206.239C369.22 205.299 366.62 203.979 363.95 202.849C361.68 201.889 359.43 200.869 357.11 200.039C356.38 199.779 355.36 199.809 354.66 200.129C352.22 201.259 349.81 201.369 347.32 200.409C344.5 199.329 341.69 198.229 338.85 197.199C334.71 195.699 330.55 194.249 326.39 192.789C320.4 190.679 314.38 188.669 308.44 186.449C303.71 184.689 299.16 182.409 294.38 180.829C287.44 178.549 280.79 175.579 274.07 172.769C269.03 170.659 264.03 168.459 259.06 166.189C258.21 165.799 257.66 165.889 257 166.349C256.73 166.539 256.43 166.679 256.18 166.879C254.18 168.559 252.06 168.369 249.8 167.439C245.02 165.479 240.21 163.589 235.4 161.699C231.99 160.359 228.49 159.209 225.15 157.709C215.11 153.179 204.75 149.559 194.22 146.409C193.15 146.089 191.92 146.329 190.77 146.209C185.94 145.709 181.1 145.239 176.62 143.159C175.45 142.609 174.33 141.949 173.18 141.339C172.42 140.939 171.69 140.279 170.89 140.169C168.51 139.839 167.26 138.109 165.74 136.589C162.92 133.789 162.22 129.999 160.82 126.549C160.43 125.589 160.56 124.399 160.57 123.319C160.58 122.809 161.01 122.279 160.96 121.789C160.93 121.509 160.05 121.299 160.04 121.029C160.01 120.459 159.36 119.459 160.72 119.369C160.76 119.369 160.86 118.759 160.78 118.479C160.43 117.159 159.78 115.909 160.6 114.489C162.31 111.519 162.43 108.079 163.31 104.859C164.3 101.219 165.48 97.6691 166.82 94.1291C169.09 88.1491 173.17 83.6691 177.82 79.5791C181.95 75.9491 188.45 73.9691 193.92 74.5691C196 74.7991 197.78 75.8291 199.23 77.2791C200.36 78.4091 201.06 80.2791 202.36 80.8191C203.52 81.2991 201.47 83.4091 203.59 82.6191C203.87 83.6191 204.17 84.6091 204.43 85.6091C204.7 86.6391 205 87.6591 205.19 88.7091C205.35 89.5891 206.07 90.5491 205.03 91.3691L205.21 95.1691C206.07 96.3792 206.19 97.6191 205.81 99.0991C205.5 100.289 205.77 101.629 205.76 102.899C205.75 103.439 205.82 104.049 205.61 104.519C205.16 105.539 204.08 106.519 204.15 107.449C204.24 108.599 204.43 109.469 203.48 110.359C203.18 110.639 203.33 111.379 203.22 111.889C202.86 113.599 202.77 115.449 200.76 116.279C200.45 116.409 200.15 117.039 200.19 117.399C200.34 118.799 200.36 120.099 198.93 120.909C198.49 124.609 195.75 127.229 194.37 130.509C193.57 132.399 191.8 133.779 189.98 134.919C189.09 135.479 188.31 136.229 187.24 137.089C190.27 137.919 192.94 137.369 195.36 136.549C196.85 136.049 198.13 134.429 199.12 133.039C201.17 130.119 203.13 127.109 204.82 123.959C206.24 121.319 207.05 118.349 208.43 115.689C209.81 113.019 210.54 110.179 211.17 107.329C211.81 104.449 212.83 101.529 211.74 98.4691C211.46 97.6891 211.64 96.7391 211.65 95.8691C211.72 91.4591 210.8 87.3291 208.3 83.6091C207.62 82.5991 207.02 81.7492 205.59 81.5492C204.69 81.4192 203.48 80.9791 203.1 79.4091C205.97 79.6091 208.73 79.7891 210.63 81.8691C211.48 82.7991 213.17 83.2892 213.05 85.0492C213.04 85.2292 213.58 85.6591 213.68 85.6091C215.33 84.7791 216.1 87.4291 217.74 86.6291C217.81 86.5991 218.09 87.0191 218.28 87.2191C218.99 87.9691 219.53 88.6591 220.9 88.4591C221.78 88.3291 222.98 89.119 223.76 89.809C225.75 91.569 228.95 91.6691 230.14 94.4891C230.2 94.6191 230.54 94.7891 230.59 94.7491C232.12 93.4891 232.67 96.0991 233.99 95.6091C236.8 97.2091 239.6 98.8291 242.41 100.409C243.81 101.199 245.29 101.839 246.65 102.689C251.49 105.709 256.34 108.719 261.08 111.889C263.6 113.579 266.35 114.839 268.96 116.349C270.39 117.169 271.62 117.989 272.09 119.799C272.34 120.759 273.34 121.529 274 122.379C274.51 123.029 274.64 123.289 273.54 123.409C273.15 123.449 273.73 124.929 274.53 124.749C275.96 124.419 276.77 125.179 277.75 125.929C280.38 127.949 283.16 129.739 286.14 131.229C286.97 131.639 287.74 132.299 288.33 133.019C288.77 133.549 288.95 133.079 289.26 133.089C289.97 133.099 290.74 133.219 291.37 133.529C293.58 134.639 295.75 135.819 297.89 137.049C298.3 137.289 298.54 137.849 298.84 138.269C299.27 138.889 299.65 139.029 300.56 139.079C302.98 139.199 304.59 141.209 306.49 142.519C305.65 144.439 306.9 143.699 307.87 143.769C308.95 143.849 310.08 144.269 311.04 144.809C315.65 147.409 320.19 150.129 324.79 152.739C327.03 154.009 329.35 155.139 331.66 156.279C336.48 158.649 340.78 161.919 345.78 164.029C349.94 165.779 353.85 168.139 357.79 170.379C358.74 170.919 359.23 172.239 360.16 172.859C362.59 174.489 363.17 177.109 364.08 179.569C364.33 180.259 364.41 181.019 364.55 181.709C365.01 181.809 365.12 180.359 365.61 181.419C366.06 182.399 366.32 182.969 367.45 182.229C367.71 182.059 368.3 182.229 368.67 182.389C370.04 182.989 371.4 183.619 372.74 184.289C373.18 184.509 373.82 184.759 373.31 185.499C373.29 185.529 373.53 185.729 373.64 185.849C375.14 184.319 375.63 185.679 376.26 186.739C376.27 186.749 376.61 186.519 376.81 186.469C377.17 186.369 377.62 186.149 377.91 186.279C383.95 188.879 389.95 191.569 396 194.129C401.93 196.639 407.91 199.019 414.03 201.529C413.65 199.589 415.65 199.219 416.41 197.949C416.65 198.139 416.97 198.279 417.12 198.529C417.97 199.949 418.31 200.209 419.54 199.459C421.96 197.999 423.99 198.039 425.86 200.359C426.2 200.779 426.98 200.929 427.58 201.039C429.61 201.399 430.89 202.429 431.99 204.299C433.09 206.169 434.14 207.979 434.67 210.089C434.96 211.229 435.34 212.339 435.69 213.469C434.2 214.259 435.85 215.499 435.23 216.549C434.65 217.529 434.67 218.849 434.21 219.929C433.55 221.499 432.64 222.959 431.93 224.509C430.73 227.109 428.36 228.309 426.04 229.609C425.15 230.109 424.4 230.549 423.41 229.829C423.18 229.659 422.61 229.739 422.31 229.909C420.15 231.089 417.8 229.769 415.61 230.449C412.99 229.269 410.02 228.729 407.94 226.549C406.88 225.439 407.09 224.039 407.59 222.699C408.07 222.499 409.08 222.709 408.63 221.699C408.38 221.139 407.79 220.739 406.85 219.729C407.3 221.189 407.51 221.969 407.72 222.739ZM217.75 91.5691C217.91 95.2991 218.09 98.7191 218.19 102.149C218.22 103.109 218.36 104.639 217.87 104.929C215.9 106.099 218.71 106.579 218.08 107.439C217.89 107.699 217.75 107.999 217.62 108.299C217.42 108.779 217.11 109.279 217.1 109.779C216.96 114.549 214.26 118.469 212.61 122.699C211.19 126.339 208.71 129.569 206.68 132.969C205.64 134.709 204.64 136.489 203.45 138.119C202.18 139.849 200.7 141.429 199.1 143.319C199.99 143.589 200.67 143.819 201.36 143.999C202.08 144.189 202.98 144.139 203.51 144.559C205 145.719 206.85 145.479 208.49 146.099C211.36 147.199 214.38 147.929 217.33 148.819C217.77 150.309 219.18 148.929 220.03 149.769C220.81 150.539 222.1 150.829 223.19 151.239C227.62 152.889 232.07 154.499 236.5 156.149C239.26 157.179 242 158.269 244.76 159.289C247.08 160.149 249.5 160.789 251.73 161.849C252.81 162.359 253.51 162.189 254.35 161.709C255.19 161.219 256.12 160.819 256.8 160.169C258.92 158.169 261.07 156.179 262.96 153.969C265.13 151.429 267.09 148.709 269 145.959C269.58 145.119 269.83 143.959 269.97 142.919C270.34 140.159 270.4 137.349 270.92 134.619C271.36 132.329 271.03 130.149 270.62 127.969C270.07 125.009 268.32 122.739 265.85 121.049C262.76 118.929 259.73 116.709 256.54 114.749C250.79 111.209 244.93 107.849 239.14 104.389C235.74 102.359 232.4 100.259 229 98.2191C225.35 96.0191 221.67 93.8791 217.75 91.5691ZM277.21 132.079C277.51 137.909 275.91 143.489 273.73 148.609C271.49 153.869 267.49 158.269 262.91 162.289C266.35 163.099 269.26 164.919 272.4 166.069C275.64 167.259 278.83 168.589 282.06 169.819C284.83 170.879 287.83 171.419 290.41 172.759C294.34 174.789 298.54 176.019 302.6 177.629C305.09 178.619 307.49 180.149 310.07 180.539C315.2 181.319 319.38 184.479 324.44 185.479C329.03 186.389 333.41 188.389 337.87 189.919C338.26 190.049 338.61 190.299 338.99 190.479C340.81 191.319 342.76 191.859 344.48 192.969C345.14 193.399 346.36 193.059 346.92 193.539C348 194.449 349.18 195.129 350.36 194.469C351.5 193.829 352.42 192.689 353.26 191.629C353.91 190.799 354.19 189.679 354.81 188.819C356.55 186.409 357.61 183.819 357.9 180.819C358.19 177.879 357.56 176.559 354.96 175.429C352.29 174.279 349.67 173.009 347.04 171.769C339.24 168.099 331.72 163.929 324.43 159.319C315.53 153.689 306.65 148.029 297.68 142.509C294.43 140.509 290.98 138.849 287.45 137.349C284 135.879 280.76 133.929 277.21 132.079ZM191.18 79.4791C189.22 80.0291 187.11 80.2791 185.34 81.1991C181.25 83.3291 177.95 86.4691 175.12 90.1191C171.41 94.9091 170 100.639 168.42 106.289C167.55 109.389 167 112.569 166.23 115.699C164.7 121.949 165.91 127.609 169.84 132.679C171.66 135.029 172.81 135.349 175.66 134.489C176.46 134.249 177.25 133.929 178.07 133.779C184.44 132.599 189.45 129.629 192.12 123.409C192.75 121.939 193.46 120.419 194.47 119.199C198.51 114.339 199.31 108.349 200.51 102.489C200.7 101.539 201.02 100.609 201.07 99.6491C201.17 97.9491 201.27 96.3691 200.3 94.6591C199 92.3491 197.96 89.8491 197.74 87.0391C197.62 85.5091 196.65 84.0291 195.96 82.5791C195.05 80.6291 193.48 79.6291 191.18 79.4791ZM359.13 194.689C365.12 197.129 370.99 199.519 376.86 201.919C377.53 202.189 378.15 202.529 377.88 203.449C378.56 203.279 379.23 203.079 379.92 202.939C380.11 202.899 380.33 203.059 380.55 203.099C382.66 203.519 384.77 203.929 386.87 204.359C389.04 204.799 390.79 206.289 393.07 206.629C394.69 206.869 396.15 208.089 397.74 208.729C400.03 209.649 402.43 210.309 404.68 211.309C408.34 212.939 411.97 214.629 416.15 215.409C416.56 214.529 417.22 213.609 417.4 212.599C417.53 211.849 418.62 211.159 417.71 210.249C416.77 209.299 416.45 207.629 414.71 207.649C411.79 207.679 409.32 206.139 406.75 205.149C401.46 203.109 396.31 200.699 391.13 198.379C386.52 196.319 381.95 194.189 377.36 192.099C372.68 189.969 368 187.839 363.31 185.699C362.71 186.899 361.94 188.309 361.26 189.769C360.53 191.329 359.89 192.929 359.13 194.689ZM411.66 220.889C412.93 222.849 414.79 223.239 416.73 223.299C419 223.369 421.25 223.369 423.5 222.739C424.51 222.459 425.35 222.299 425.82 221.319C426.95 218.989 428.19 216.709 429.14 214.319C429.45 213.529 429.23 212.339 428.87 211.509C427.62 208.629 426.01 206.099 423.26 204.199C421.59 203.049 420.51 202.809 419.19 203.879C420.06 204.789 420.79 206.149 421.85 206.509C422.99 206.899 423 207.469 423.08 208.279C423.58 213.229 421.18 217.199 418.61 221.069C417.98 222.019 417.06 222.499 415.89 221.409C414.76 220.349 413.28 220.619 411.66 220.889ZM275.6 131.349C275.78 132.829 275.92 134.009 276.11 135.549C276.79 133.099 276.8 133.099 275.6 131.349Z" fill="#1D3D6C"/>
<path d="M81.01 82.0408C81.96 79.6608 83.26 78.1108 85.29 77.3808C86.83 76.8208 88.38 76.4007 89.84 75.5807C90.82 75.0307 92.15 75.1307 93.31 74.8507C94.23 74.6307 94.79 74.3308 94.82 73.0208C94.88 70.2708 95.21 67.5407 93.83 64.9907C94.98 63.9207 93.15 62.3208 94.49 61.2908C94.29 59.5408 94.89 57.6407 93.23 56.3607C94.23 55.3607 95.23 55.6607 95.69 56.2107C96.95 57.7307 98.97 58.3807 99.83 60.4907C100.32 61.6907 101.14 63.1307 102.7 63.8707C103.43 64.2207 103.74 65.5108 104.16 66.4108C104.71 67.5708 104.96 67.7007 105.92 67.1007C107.32 66.2307 108.94 65.5608 110.04 64.4108C110.81 63.6108 111.86 64.5507 112.43 63.4707C112.88 62.6107 113.71 61.9408 114.45 61.2708C114.71 61.0308 114.91 60.5507 115.58 60.8407C116.34 61.1607 116.65 61.8508 116.47 62.2808C115.93 63.5908 116.11 64.7507 116.61 65.9907C116.72 66.2707 116.53 66.7008 116.43 67.0508C115.14 71.4208 113.89 75.8008 112.52 80.1508C112.27 80.9408 112.25 81.5907 112.63 82.2007C113.87 84.2007 115.15 86.1808 116.47 88.1308C117.32 89.3908 117.64 90.9908 119.02 91.9308C119.25 92.0908 119.01 92.9207 118.98 93.5907C117.27 93.3807 115.48 93.3908 113.85 92.8908C112.7 92.5408 111.74 91.5307 110.74 90.7507C108.81 89.2507 106.91 87.7108 104.65 85.9208C104.49 87.1408 104.36 87.8908 104.3 88.6508C104.03 92.3008 103.79 95.9507 103.49 99.6007C103.45 100.081 103.15 100.551 102.97 101.021C102.41 100.791 101.47 100.661 101.36 100.301C101.02 99.1408 99.73 98.8307 99.39 97.8107C99.04 96.7807 98.78 95.7007 98.6 94.6207C97.93 90.6807 96.45 86.9707 95.45 83.1207C95.34 82.7207 94.76 82.1908 94.35 82.1608C92.45 82.0008 90.55 81.9408 88.64 81.9308C86.23 81.9108 83.84 81.9908 81.01 82.0408Z" fill="#1D3D6C"/>
<path d="M7.5 103.13C7.79 102.74 8.04004 102.41 8.29004 102.08C7.95004 101.87 7.63002 101.52 7.27002 101.47C4.95002 101.2 2.62 101.01 0 100.76C0.53 99.7701 0.850022 98.62 1.21002 98.61C2.63002 98.57 3.72 97.18 5.25 97.73C5.5 97.82 5.92002 97.4201 6.27002 97.2401C5.86002 97.0201 5.45003 96.8101 4.72003 96.4201C5.65003 96.4201 6.28001 96.36 6.89001 96.44C7.53001 96.52 8.18004 96.6801 8.79004 96.9001C11.09 97.7201 13.88 97.0301 15.77 99.1301C15.89 99.2601 16.18 99.33 16.36 99.31C20.8 98.62 25.09 100.08 29.48 100.2C31.68 100.26 33.88 100.97 36.06 101.46C39.83 102.3 43.6 103.14 47.35 104.06C50.78 104.9 54.18 105.88 57.61 106.75C58.71 107.03 59.87 107.07 60.95 107.39C62.04 107.71 63 108.55 64.25 108.08C69.48 110.87 75.52 110.69 80.98 112.69C82.29 113.17 83.84 112.65 85.25 113.31C86.5 113.89 87.88 114.33 89.24 114.52C91.26 114.8 92.99 115.55 94.51 116.87C94.92 117.22 95.35 117.57 95.81 117.85C96.16 118.07 97.07 117.75 96.53 118.7C96.88 118.77 97.24 118.92 97.58 118.88C98.11 118.82 98.62 118.56 99.15 118.5C99.82 118.42 100.12 118.76 99.94 119.45C100.24 119.47 100.6 119.61 100.82 119.49C102.36 118.65 103.75 119.63 105.21 119.74C106.46 119.83 105.23 120.95 105.83 120.95C106.25 120.95 106.66 120.43 107.11 120.27C107.35 120.19 107.69 120.39 107.99 120.46C112.76 121.6 117.78 121.45 122.42 123.32C123.79 123.87 125.33 124.04 126.8 124.34C127.75 124.54 128.36 124.91 128.21 126.04C128.09 126.92 128.22 127.51 126.86 127.82C123.62 128.54 120.5 128.41 117.46 127.31C115.11 126.46 112.71 126.07 110.27 125.61C105.56 124.73 100.92 123.5 96.27 122.3C94.09 121.74 92 120.79 89.82 120.24C87.75 119.72 85.58 119.58 83.49 119.12C78.71 118.08 73.96 116.93 69.19 115.88C65.1 114.98 61.1 113.56 57.04 112.77C51.76 111.73 46.71 109.87 41.4 109.03C37.85 108.46 34.36 107.53 30.75 107.28C30.12 107.24 29.49 107.07 28.87 106.91C25.89 106.16 22.86 105.73 19.81 105.32C16.93 104.93 14.09 104.27 11.23 103.75C10.08 103.54 8.91 103.36 7.5 103.13Z" fill="#1D3D6C"/>
<path d="M54.84 34.3192C53.06 34.5992 51.96 33.3792 50.65 32.7292C49.13 31.9892 48.68 30.4592 47.95 29.0892C46.13 30.1992 45.74 32.2493 44.6 33.7593C44.16 34.3393 43.84 35.0193 43.35 35.5393C42.71 36.2093 41.98 35.9692 41.77 35.0992C41.73 34.9392 41.73 34.7793 41.73 34.6093C41.72 33.2693 39.9 32.4193 40.98 30.6193C41.6 29.5793 41.1499 27.9192 41.2999 26.5592C41.3799 25.8592 41.69 25.1793 41.92 24.4893C42.31 23.2893 42.29 23.1593 41.17 22.6593C40 22.1393 38.78 21.7192 37.61 21.2192C37.06 20.9792 36.5499 20.6293 35.9399 20.2793C36.7599 19.2093 38.0099 18.9392 38.3799 17.6992C38.5099 17.2792 39.4199 17.0492 40.0099 16.8192C43.8699 15.2992 44.1 15.0692 45.2 11.0692C45.53 9.86921 45.76 8.64924 46.15 7.46924C46.39 6.74924 45.0299 6.55928 45.7499 5.63928C46.0899 5.20928 45.8099 4.29922 45.8099 3.44922C46.0999 3.47922 46.55 3.38921 46.77 3.56921C48.08 4.64921 49.3999 5.74929 49.8099 7.51929C50.1099 8.84929 50.39 10.1893 50.58 11.5293C50.78 12.9693 50.7299 12.9793 52.4299 12.5393C53.3499 13.4193 53.99 12.0393 55.04 12.2693C56.8 12.6593 57.4699 13.1393 56.9299 14.7893C56.3599 16.5193 55.9899 18.3093 54.4899 19.6193C53.3599 20.6193 53.3 22.0092 53.61 23.4492C54.09 25.7192 54.56 27.9893 54.9 30.2793C55 30.9393 54.5699 31.6593 54.5499 32.3593C54.4999 32.9793 54.71 33.5892 54.84 34.3192Z" fill="#1D3D6C"/>
<path d="M91.99 0C93.15 0.1 93.96 -0.0700098 94.24 0.23999C96.46 2.71999 99.72 3.48994 102.31 5.30994C103.83 6.37994 105.68 7.24003 106.43 9.28003C106.61 9.77003 107.67 9.85996 108.13 10.33C109.09 11.3 109.93 12.4001 110.8 13.4301C111.35 13.2801 110.67 11.56 111.86 12.51C115.13 15.13 118.18 18.06 121.56 20.52C124.27 22.5 126.91 24.57 129.86 26.26C132.42 27.73 134.49 30.06 136.78 32.02C137.19 32.37 137.55 32.8099 138.01 33.0699C140.52 34.5399 142.78 36.2199 143.67 39.1899C143.86 39.1199 144.05 38.97 144.23 38.99C144.6 39.02 145.08 39.01 145.33 39.23C148.43 42.01 151.98 44.22 155.09 47.01C158.19 49.79 161.56 52.27 164.81 54.88C165.9 55.76 166.99 56.65 168.08 57.53C169.42 58.61 170.75 59.71 172.11 60.77C172.79 61.29 172.9 62.19 172.36 62.74C171.34 63.77 169.44 62.86 168.7 64.45C168.6 64.27 168.47 64.09 168.4 63.9C168.33 63.7 168.31 63.48 168.27 63.27C168.14 63.3 167.97 63.3 167.87 63.37C165.84 64.87 164.45 63.21 163.06 62.25C161.21 60.97 159.52 59.46 157.8 58C154.93 55.56 152.09 53.09 149.25 50.61C145.34 47.2 141.4 43.82 137.56 40.34C133.82 36.95 130.18 33.44 126.47 30.02C126.11 29.69 125.42 29.73 125.03 29.42C122.33 27.26 119.24 25.68 116.68 23.26C111.97 18.81 106.98 14.66 102.13 10.36C99.73 8.22999 97.31 6.12 95.02 3.88C93.95 2.87 93.18 1.57 91.99 0Z" fill="#1D3D6C"/>
<path d="M258.15 131.74C259.92 134 261.21 135.55 260.71 137.84C260.65 138.11 260.6 138.62 260.7 138.66C262.66 139.5 261.87 140.47 260.94 141.56C260.76 141.77 261.05 142.35 261.1 142.77C261.17 143.29 261.47 143.98 261.24 144.31C260.06 146.04 260.77 148.4 259.18 149.99C258.68 150.49 258.49 151.33 257.84 150.19C257.51 150.56 257.02 150.89 256.88 151.32C256.65 152 256.55 152.43 255.61 152.32C254.38 152.17 254.41 152.21 254.53 150.68C254.69 148.74 255.27 146.98 255.97 145.18C256.97 142.6 257.86 139.94 258.42 137.23C258.74 135.75 258.3 134.09 258.15 131.74Z" fill="#1D3D6C"/>
<path d="M248.95 132.189C249.34 132.669 250.06 133.13 250.07 133.62C250.13 135.11 251.07 136.27 251.23 137.75C251.58 140.96 250.98 144.02 250.43 147.14C250.26 148.11 248.29 147.03 249.31 148.37C250.12 149.44 247.57 149.219 248.75 150.229C248.07 150.559 247.28 150.69 247.26 151.76C247.25 152.14 246.47 152.46 246.37 152.88C246.11 153.98 245.59 153.3 245.3 153.04C244.61 152.44 244.37 151.76 244.73 150.75C245.79 147.73 246.71 144.67 247.66 141.62C248.49 138.96 249.26 136.289 248.42 133.459C248.34 133.189 248.5 132.84 248.58 132.54C248.61 132.46 248.73 132.399 248.95 132.189Z" fill="#1D3D6C"/>
<path d="M238.18 150.46C235.37 150.31 236.1 148.01 235.75 146.65C235.5 145.67 236.08 144.34 236.61 143.32C238.02 140.59 239.29 137.91 237.97 134.75C237.85 134.46 238.07 133.72 238.28 133.65C239.17 133.35 238.76 134.29 239.04 134.58C239.67 135.25 240.28 136.04 241.07 136.41C241.55 136.64 241.87 136.9 241.58 137.15C240.51 138.06 241.59 139.03 241.39 139.99C241.18 140.97 241.65 142.08 241.7 143.14C241.73 143.76 241.66 144.47 241.38 144.99C240.34 146.87 239.21 148.7 238.18 150.46Z" fill="#1D3D6C"/>
<path d="M283.39 156.491C284.25 155.931 284.69 155.391 285.11 155.411C286.88 155.501 288.64 155.871 290.41 155.931C292 155.981 291.34 157.831 292.42 158.171C293.42 158.481 294.46 158.661 295.45 158.991C295.61 159.041 295.59 159.601 295.69 159.901C295.77 160.151 295.92 160.381 296.04 160.621C298.32 158.861 299.69 161.531 301.56 161.841C302.6 162.011 303.54 163.061 304.43 163.831C305.01 164.331 305.28 164.371 305.44 163.581C305.64 163.661 305.99 163.711 306.02 163.821C306.15 164.501 306.31 165.211 307.2 164.921C308.47 164.501 309.38 165.101 310.44 165.631C312.84 166.841 315.31 167.891 317.77 168.971C318.75 169.401 319.96 169.521 319.85 171.021C320.06 171.021 320.42 171.101 320.47 171.011C320.97 170.091 321.39 170.681 321.58 171.141C321.9 171.951 322.14 172.571 323.12 171.821C323.33 171.661 323.9 171.631 324.01 171.771C325.5 173.611 327.94 173.421 329.79 174.531C331.52 175.571 333.5 176.191 335.34 176.981C334.93 177.601 334.63 178.551 334.17 178.631C333.25 178.791 332.76 179.491 332.1 179.771C331.29 180.111 330.13 179.751 329.15 179.531C328.02 179.271 326.78 179.051 325.84 178.431C323.09 176.631 320.12 175.251 317.2 173.811C312.19 171.331 306.99 169.251 301.92 166.891C298.72 165.401 295.56 163.801 292.48 162.081C289.53 160.411 286.7 158.531 283.39 156.491Z" fill="#1D3D6C"/>
</svg>
