<?xml version="1.0" encoding="utf-8"?>
<!-- Generator: Adobe Illustrator 27.7.0, SVG Export Plug-In . SVG Version: 6.00 Build 0)  -->
<svg version="1.1" id="圖層_1" xmlns="http://www.w3.org/2000/svg" xmlns:xlink="http://www.w3.org/1999/xlink" x="0px" y="0px"
	 viewBox="0 0 436 231" style="enable-background:new 0 0 436 231;" xml:space="preserve">
<style type="text/css">
	.st0{fill:#FFFFFF;}
</style>
<path class="st0" d="M407.7,222.7c-1.1-0.1-1.5-0.8-1.3-1.8c0.3-1.7-0.4-2.5-2-3.1c-5-2.1-9.9-4.2-15-5.9
	c-5.8-1.9-11.7-3.7-17.5-5.7c-2.7-0.9-5.3-2.3-8-3.4c-2.3-1-4.5-2-6.8-2.8c-0.7-0.3-1.8-0.2-2.4,0.1c-2.4,1.1-4.9,1.2-7.3,0.3
	c-2.8-1.1-5.6-2.2-8.5-3.2c-4.1-1.5-8.3-3-12.5-4.4c-6-2.1-12-4.1-18-6.3c-4.7-1.8-9.3-4-14.1-5.6c-6.9-2.3-13.6-5.2-20.3-8.1
	c-5-2.1-10-4.3-15-6.6c-0.9-0.4-1.4-0.3-2.1,0.2c-0.3,0.2-0.6,0.3-0.8,0.5c-2,1.7-4.1,1.5-6.4,0.6c-4.8-2-9.6-3.8-14.4-5.7
	c-3.4-1.3-6.9-2.5-10.2-4c-10-4.5-20.4-8.1-30.9-11.3c-1.1-0.3-2.3-0.1-3.4-0.2c-4.8-0.5-9.7-1-14.2-3.1c-1.2-0.6-2.3-1.2-3.4-1.8
	c-0.8-0.4-1.5-1.1-2.3-1.2c-2.4-0.3-3.6-2.1-5.1-3.6c-2.8-2.8-3.5-6.6-4.9-10c-0.4-1-0.3-2.2-0.2-3.2c0-0.5,0.4-1,0.4-1.5
	c0-0.3-0.9-0.5-0.9-0.8c0-0.6-0.7-1.6,0.7-1.7c0,0,0.1-0.6,0.1-0.9c-0.4-1.3-1-2.6-0.2-4c1.7-3,1.8-6.4,2.7-9.6
	c1-3.6,2.2-7.2,3.5-10.7c2.3-6,6.3-10.5,11-14.5c4.1-3.6,10.6-5.6,16.1-5c2.1,0.2,3.9,1.3,5.3,2.7c1.1,1.1,1.8,3,3.1,3.5
	c1.2,0.5-0.9,2.6,1.2,1.8c0.3,1,0.6,2,0.8,3c0.3,1,0.6,2.1,0.8,3.1c0.2,0.9,0.9,1.8-0.2,2.7l0.2,3.8c0.9,1.2,1,2.5,0.6,3.9
	c-0.3,1.2,0,2.5-0.1,3.8c0,0.5,0.1,1.2-0.1,1.6c-0.4,1-1.5,2-1.5,2.9c0.1,1.2,0.3,2-0.7,2.9c-0.3,0.3-0.1,1-0.3,1.5
	c-0.4,1.7-0.4,3.6-2.5,4.4c-0.3,0.1-0.6,0.8-0.6,1.1c0.1,1.4,0.2,2.7-1.3,3.5c-0.4,3.7-3.2,6.3-4.6,9.6c-0.8,1.9-2.6,3.3-4.4,4.4
	c-0.9,0.6-1.7,1.3-2.7,2.2c3,0.8,5.7,0.3,8.1-0.5c1.5-0.5,2.8-2.1,3.8-3.5c2.1-2.9,4-5.9,5.7-9.1c1.4-2.6,2.2-5.6,3.6-8.3
	c1.4-2.7,2.1-5.5,2.7-8.4c0.6-2.9,1.7-5.8,0.6-8.9c-0.3-0.8-0.1-1.7-0.1-2.6c0.1-4.4-0.8-8.5-3.3-12.3c-0.7-1-1.3-1.9-2.7-2.1
	c-0.9-0.1-2.1-0.6-2.5-2.1c2.9,0.2,5.6,0.4,7.5,2.5c0.8,0.9,2.5,1.4,2.4,3.2c0,0.2,0.5,0.6,0.6,0.6c1.7-0.8,2.4,1.8,4.1,1
	c0.1,0,0.3,0.4,0.5,0.6c0.7,0.8,1.2,1.4,2.6,1.2c0.9-0.1,2.1,0.7,2.9,1.3c2,1.8,5.2,1.9,6.4,4.7c0.1,0.1,0.4,0.3,0.4,0.3
	c1.5-1.3,2.1,1.3,3.4,0.9c2.8,1.6,5.6,3.2,8.4,4.8c1.4,0.8,2.9,1.4,4.2,2.3c4.8,3,9.7,6,14.4,9.2c2.5,1.7,5.3,2.9,7.9,4.5
	c1.4,0.8,2.7,1.6,3.1,3.5c0.2,1,1.2,1.7,1.9,2.6c0.5,0.7,0.6,0.9-0.5,1c-0.4,0,0.2,1.5,1,1.3c1.4-0.3,2.2,0.4,3.2,1.2
	c2.6,2,5.4,3.8,8.4,5.3c0.8,0.4,1.6,1.1,2.2,1.8c0.4,0.5,0.6,0.1,0.9,0.1c0.7,0,1.5,0.1,2.1,0.4c2.2,1.1,4.4,2.3,6.5,3.5
	c0.4,0.2,0.6,0.8,0.9,1.2c0.4,0.6,0.8,0.8,1.7,0.8c2.4,0.1,4,2.1,5.9,3.4c-0.8,1.9,0.4,1.2,1.4,1.2c1.1,0.1,2.2,0.5,3.2,1
	c4.6,2.6,9.1,5.3,13.8,7.9c2.2,1.3,4.6,2.4,6.9,3.5c4.8,2.4,9.1,5.6,14.1,7.8c4.2,1.8,8.1,4.1,12,6.3c0.9,0.5,1.4,1.9,2.4,2.5
	c2.4,1.6,3,4.2,3.9,6.7c0.2,0.7,0.3,1.4,0.5,2.1c0.5,0.1,0.6-1.4,1.1-0.3c0.5,1,0.7,1.5,1.8,0.8c0.3-0.2,0.8,0,1.2,0.2
	c1.4,0.6,2.7,1.2,4.1,1.9c0.4,0.2,1.1,0.5,0.6,1.2c0,0,0.2,0.2,0.3,0.4c1.5-1.5,2-0.2,2.6,0.9c0,0,0.3-0.2,0.5-0.3
	c0.4-0.1,0.8-0.3,1.1-0.2c6,2.6,12,5.3,18.1,7.8c5.9,2.5,11.9,4.9,18,7.4c-0.4-1.9,1.6-2.3,2.4-3.6c0.2,0.2,0.6,0.3,0.7,0.6
	c0.9,1.4,1.2,1.7,2.4,0.9c2.4-1.5,4.4-1.4,6.3,0.9c0.3,0.4,1.1,0.6,1.7,0.7c2,0.4,3.3,1.4,4.4,3.3c1.1,1.9,2.2,3.7,2.7,5.8
	c0.3,1.1,0.7,2.2,1,3.4c-1.5,0.8,0.2,2-0.5,3.1c-0.6,1-0.6,2.3-1,3.4c-0.7,1.6-1.6,3-2.3,4.6c-1.2,2.6-3.6,3.8-5.9,5.1
	c-0.9,0.5-1.6,0.9-2.6,0.2c-0.2-0.2-0.8-0.1-1.1,0.1c-2.2,1.2-4.5-0.1-6.7,0.5c-2.6-1.2-5.6-1.7-7.7-3.9c-1.1-1.1-0.9-2.5-0.4-3.8
	c0.5-0.2,1.5,0,1-1c-0.2-0.6-0.8-1-1.8-2C407.3,221.2,407.5,222,407.7,222.7z M217.8,91.6c0.2,3.7,0.3,7.2,0.4,10.6
	c0,1,0.2,2.5-0.3,2.8c-2,1.2,0.8,1.7,0.2,2.5c-0.2,0.3-0.3,0.6-0.5,0.9c-0.2,0.5-0.5,1-0.5,1.5c-0.1,4.8-2.8,8.7-4.5,12.9
	c-1.4,3.6-3.9,6.9-5.9,10.3c-1,1.7-2,3.5-3.2,5.2c-1.3,1.7-2.8,3.3-4.3,5.2c0.9,0.3,1.6,0.5,2.3,0.7c0.7,0.2,1.6,0.1,2.1,0.6
	c1.5,1.2,3.3,0.9,5,1.5c2.9,1.1,5.9,1.8,8.8,2.7c0.4,1.5,1.8,0.1,2.7,0.9c0.8,0.8,2.1,1.1,3.2,1.5c4.4,1.7,8.9,3.3,13.3,4.9
	c2.8,1,5.5,2.1,8.3,3.1c2.3,0.9,4.7,1.5,7,2.6c1.1,0.5,1.8,0.3,2.6-0.1c0.8-0.5,1.8-0.9,2.4-1.5c2.1-2,4.3-4,6.2-6.2
	c2.2-2.5,4.1-5.3,6-8c0.6-0.8,0.8-2,1-3c0.4-2.8,0.4-5.6,1-8.3c0.4-2.3,0.1-4.5-0.3-6.7c-0.5-3-2.3-5.2-4.8-6.9
	c-3.1-2.1-6.1-4.3-9.3-6.3c-5.8-3.5-11.6-6.9-17.4-10.4c-3.4-2-6.7-4.1-10.1-6.2C225.4,96,221.7,93.9,217.8,91.6z M277.2,132.1
	c0.3,5.8-1.3,11.4-3.5,16.5c-2.2,5.3-6.2,9.7-10.8,13.7c3.4,0.8,6.4,2.6,9.5,3.8c3.2,1.2,6.4,2.5,9.7,3.8c2.8,1.1,5.8,1.6,8.4,2.9
	c3.9,2,8.1,3.3,12.2,4.9c2.5,1,4.9,2.5,7.5,2.9c5.1,0.8,9.3,3.9,14.4,4.9c4.6,0.9,9,2.9,13.4,4.4c0.4,0.1,0.7,0.4,1.1,0.6
	c1.8,0.8,3.8,1.4,5.5,2.5c0.7,0.4,1.9,0.1,2.4,0.6c1.1,0.9,2.3,1.6,3.4,0.9c1.1-0.6,2.1-1.8,2.9-2.8c0.6-0.8,0.9-1.9,1.5-2.8
	c1.7-2.4,2.8-5,3.1-8c0.3-2.9-0.3-4.3-2.9-5.4c-2.7-1.1-5.3-2.4-7.9-3.7c-7.8-3.7-15.3-7.8-22.6-12.4c-8.9-5.6-17.8-11.3-26.8-16.8
	c-3.2-2-6.7-3.7-10.2-5.2C284,135.9,280.8,133.9,277.2,132.1z M191.2,79.5c-2,0.5-4.1,0.8-5.8,1.7c-4.1,2.1-7.4,5.3-10.2,8.9
	c-3.7,4.8-5.1,10.5-6.7,16.2c-0.9,3.1-1.4,6.3-2.2,9.4c-1.5,6.2-0.3,11.9,3.6,17c1.8,2.4,3,2.7,5.8,1.8c0.8-0.2,1.6-0.6,2.4-0.7
	c6.4-1.2,11.4-4.2,14-10.4c0.6-1.5,1.3-3,2.4-4.2c4-4.9,4.8-10.8,6-16.7c0.2-0.9,0.5-1.9,0.6-2.8c0.1-1.7,0.2-3.3-0.8-5
	c-1.3-2.3-2.3-4.8-2.6-7.6c-0.1-1.5-1.1-3-1.8-4.5C195.1,80.6,193.5,79.6,191.2,79.5z M359.1,194.7c6,2.4,11.9,4.8,17.7,7.2
	c0.7,0.3,1.3,0.6,1,1.5c0.7-0.2,1.4-0.4,2-0.5c0.2,0,0.4,0.1,0.6,0.2c2.1,0.4,4.2,0.8,6.3,1.3c2.2,0.4,3.9,1.9,6.2,2.3
	c1.6,0.2,3.1,1.5,4.7,2.1c2.3,0.9,4.7,1.6,6.9,2.6c3.7,1.6,7.3,3.3,11.5,4.1c0.4-0.9,1.1-1.8,1.2-2.8c0.1-0.8,1.2-1.4,0.3-2.4
	c-0.9-0.9-1.3-2.6-3-2.6c-2.9,0-5.4-1.5-8-2.5c-5.3-2-10.4-4.4-15.6-6.8c-4.6-2.1-9.2-4.2-13.8-6.3c-4.7-2.1-9.4-4.3-14-6.4
	c-0.6,1.2-1.4,2.6-2,4.1C360.5,191.3,359.9,192.9,359.1,194.7z M411.7,220.9c1.3,2,3.1,2.3,5.1,2.4c2.3,0.1,4.5,0.1,6.8-0.6
	c1-0.3,1.9-0.4,2.3-1.4c1.1-2.3,2.4-4.6,3.3-7c0.3-0.8,0.1-2-0.3-2.8c-1.2-2.9-2.9-5.4-5.6-7.3c-1.7-1.2-2.8-1.4-4.1-0.3
	c0.9,0.9,1.6,2.3,2.7,2.6c1.1,0.4,1.1,1,1.2,1.8c0.5,4.9-1.9,8.9-4.5,12.8c-0.6,0.9-1.5,1.4-2.7,0.3
	C414.8,220.3,413.3,220.6,411.7,220.9z M275.6,131.3c0.2,1.5,0.3,2.7,0.5,4.2C276.8,133.1,276.8,133.1,275.6,131.3z"/>
<path class="st0" d="M81,82c0.9-2.4,2.2-3.9,4.3-4.7c1.5-0.6,3.1-1,4.5-1.8c1-0.6,2.3-0.5,3.5-0.7c0.9-0.2,1.5-0.5,1.5-1.8
	c0.1-2.8,0.4-5.5-1-8c1.2-1.1-0.7-2.7,0.7-3.7c-0.2-1.8,0.4-3.7-1.3-4.9c1-1,2-0.7,2.5-0.1c1.3,1.5,3.3,2.2,4.1,4.3
	c0.5,1.2,1.3,2.6,2.9,3.4c0.7,0.4,1,1.6,1.5,2.5c0.5,1.2,0.8,1.3,1.8,0.7c1.4-0.9,3-1.5,4.1-2.7c0.8-0.8,1.8,0.1,2.4-0.9
	c0.4-0.9,1.3-1.5,2-2.2c0.3-0.2,0.5-0.7,1.1-0.4c0.8,0.3,1.1,1,0.9,1.4c-0.5,1.3-0.4,2.5,0.1,3.7c0.1,0.3-0.1,0.7-0.2,1.1
	c-1.3,4.4-2.5,8.8-3.9,13.1c-0.2,0.8-0.3,1.4,0.1,2c1.2,2,2.5,4,3.8,5.9c0.8,1.3,1.2,2.9,2.5,3.8c0.2,0.2,0,1,0,1.7
	c-1.7-0.2-3.5-0.2-5.1-0.7c-1.2-0.3-2.1-1.4-3.1-2.1c-1.9-1.5-3.8-3-6.1-4.8c-0.2,1.2-0.3,2-0.3,2.7c-0.3,3.6-0.5,7.3-0.8,10.9
	c0,0.5-0.3,1-0.5,1.4c-0.6-0.2-1.5-0.4-1.6-0.7c-0.3-1.2-1.6-1.5-2-2.5c-0.3-1-0.6-2.1-0.8-3.2c-0.7-3.9-2.2-7.6-3.2-11.5
	c-0.1-0.4-0.7-0.9-1.1-1c-1.9-0.2-3.8-0.2-5.7-0.2C86.2,81.9,83.8,82,81,82z"/>
<path class="st0" d="M7.5,103.1c0.3-0.4,0.5-0.7,0.8-1c-0.3-0.2-0.7-0.6-1-0.6C5,101.2,2.6,101,0,100.8c0.5-1,0.9-2.1,1.2-2.2
	c1.4,0,2.5-1.4,4-0.9c0.2,0.1,0.7-0.3,1-0.5c-0.4-0.2-0.8-0.4-1.5-0.8c0.9,0,1.6-0.1,2.2,0c0.6,0.1,1.3,0.2,1.9,0.5
	c2.3,0.8,5.1,0.1,7,2.2c0.1,0.1,0.4,0.2,0.6,0.2c4.4-0.7,8.7,0.8,13.1,0.9c2.2,0.1,4.4,0.8,6.6,1.3c3.8,0.8,7.5,1.7,11.3,2.6
	c3.4,0.8,6.8,1.8,10.3,2.7c1.1,0.3,2.3,0.3,3.3,0.6c1.1,0.3,2,1.2,3.3,0.7c5.2,2.8,11.3,2.6,16.7,4.6c1.3,0.5,2.9,0,4.3,0.6
	c1.2,0.6,2.6,1,4,1.2c2,0.3,3.8,1,5.3,2.4c0.4,0.3,0.8,0.7,1.3,1c0.4,0.2,1.3-0.1,0.7,0.8c0.3,0.1,0.7,0.2,1.1,0.2
	c0.5-0.1,1-0.3,1.6-0.4c0.7-0.1,1,0.3,0.8,0.9c0.3,0,0.7,0.2,0.9,0c1.5-0.8,2.9,0.1,4.4,0.2c1.2,0.1,0,1.2,0.6,1.2
	c0.4,0,0.8-0.5,1.3-0.7c0.2-0.1,0.6,0.1,0.9,0.2c4.8,1.1,9.8,1,14.4,2.9c1.4,0.6,2.9,0.7,4.4,1c0.9,0.2,1.6,0.6,1.4,1.7
	c-0.1,0.9,0,1.5-1.4,1.8c-3.2,0.7-6.4,0.6-9.4-0.5c-2.3-0.8-4.8-1.2-7.2-1.7c-4.7-0.9-9.3-2.1-14-3.3c-2.2-0.6-4.3-1.5-6.4-2.1
	c-2.1-0.5-4.2-0.7-6.3-1.1c-4.8-1-9.5-2.2-14.3-3.2c-4.1-0.9-8.1-2.3-12.2-3.1c-5.3-1-10.3-2.9-15.6-3.7c-3.6-0.6-7-1.5-10.7-1.8
	c-0.6,0-1.3-0.2-1.9-0.4c-3-0.8-6-1.2-9.1-1.6c-2.9-0.4-5.7-1.1-8.6-1.6C10.1,103.5,8.9,103.4,7.5,103.1z"/>
<path class="st0" d="M54.8,34.3c-1.8,0.3-2.9-0.9-4.2-1.6c-1.5-0.7-2-2.3-2.7-3.6c-1.8,1.1-2.2,3.2-3.4,4.7
	c-0.4,0.6-0.8,1.3-1.2,1.8c-0.6,0.7-1.4,0.4-1.6-0.4c0-0.2,0-0.3,0-0.5c0-1.3-1.8-2.2-0.8-4c0.6-1,0.2-2.7,0.3-4.1
	c0.1-0.7,0.4-1.4,0.6-2.1c0.4-1.2,0.4-1.3-0.8-1.8c-1.2-0.5-2.4-0.9-3.6-1.4c-0.5-0.2-1.1-0.6-1.7-0.9c0.8-1.1,2.1-1.3,2.4-2.6
	c0.1-0.4,1-0.6,1.6-0.9c3.9-1.5,4.1-1.8,5.2-5.8c0.3-1.2,0.6-2.4,1-3.6c0.2-0.7-1.1-0.9-0.4-1.8c0.3-0.4,0.1-1.3,0.1-2.2
	c0.3,0,0.7-0.1,1,0.1c1.3,1.1,2.6,2.2,3,4c0.3,1.3,0.6,2.7,0.8,4c0.2,1.4,0.1,1.4,1.8,1c0.9,0.9,1.6-0.5,2.6-0.3
	c1.8,0.4,2.4,0.9,1.9,2.5c-0.6,1.7-0.9,3.5-2.4,4.8c-1.1,1-1.2,2.4-0.9,3.8c0.5,2.3,1,4.5,1.3,6.8c0.1,0.7-0.3,1.4-0.4,2.1
	C54.5,33,54.7,33.6,54.8,34.3z"/>
<path class="st0" d="M92,0c1.2,0.1,2-0.1,2.2,0.2c2.2,2.5,5.5,3.2,8.1,5.1c1.5,1.1,3.4,1.9,4.1,4c0.2,0.5,1.2,0.6,1.7,1
	c1,1,1.8,2.1,2.7,3.1c0.5-0.2-0.1-1.9,1.1-0.9c3.3,2.6,6.3,5.5,9.7,8c2.7,2,5.4,4,8.3,5.7c2.6,1.5,4.6,3.8,6.9,5.8
	c0.4,0.3,0.8,0.8,1.2,1c2.5,1.5,4.8,3.1,5.7,6.1c0.2-0.1,0.4-0.2,0.6-0.2c0.4,0,0.9,0,1.1,0.2c3.1,2.8,6.6,5,9.8,7.8
	c3.1,2.8,6.5,5.3,9.7,7.9c1.1,0.9,2.2,1.8,3.3,2.6c1.3,1.1,2.7,2.2,4,3.2c0.7,0.5,0.8,1.4,0.2,2c-1,1-2.9,0.1-3.7,1.7
	c-0.1-0.2-0.2-0.4-0.3-0.5c-0.1-0.2-0.1-0.4-0.1-0.6c-0.1,0-0.3,0-0.4,0.1c-2,1.5-3.4-0.2-4.8-1.1c-1.8-1.3-3.5-2.8-5.3-4.2
	c-2.9-2.4-5.7-4.9-8.6-7.4c-3.9-3.4-7.9-6.8-11.7-10.3c-3.7-3.4-7.4-6.9-11.1-10.3c-0.4-0.3-1.1-0.3-1.4-0.6
	c-2.7-2.2-5.8-3.7-8.3-6.2c-4.7-4.5-9.7-8.6-14.6-12.9c-2.4-2.1-4.8-4.2-7.1-6.5C93.9,2.9,93.2,1.6,92,0z"/>
<path class="st0" d="M258.1,131.7c1.8,2.3,3.1,3.8,2.6,6.1c-0.1,0.3-0.1,0.8,0,0.8c2,0.8,1.2,1.8,0.2,2.9c-0.2,0.2,0.1,0.8,0.2,1.2
	c0.1,0.5,0.4,1.2,0.1,1.5c-1.2,1.7-0.5,4.1-2.1,5.7c-0.5,0.5-0.7,1.3-1.3,0.2c-0.3,0.4-0.8,0.7-1,1.1c-0.2,0.7-0.3,1.1-1.3,1
	c-1.2-0.2-1.2-0.1-1.1-1.6c0.2-1.9,0.7-3.7,1.4-5.5c1-2.6,1.9-5.2,2.5-7.9C258.7,135.8,258.3,134.1,258.1,131.7z"/>
<path class="st0" d="M248.9,132.2c0.4,0.5,1.1,0.9,1.1,1.4c0.1,1.5,1,2.7,1.2,4.1c0.4,3.2-0.2,6.3-0.8,9.4c-0.2,1-2.1-0.1-1.1,1.2
	c0.8,1.1-1.7,0.8-0.6,1.9c-0.7,0.3-1.5,0.5-1.5,1.5c0,0.4-0.8,0.7-0.9,1.1c-0.3,1.1-0.8,0.4-1.1,0.2c-0.7-0.6-0.9-1.3-0.6-2.3
	c1.1-3,2-6.1,2.9-9.1c0.8-2.7,1.6-5.3,0.8-8.2c-0.1-0.3,0.1-0.6,0.2-0.9C248.6,132.5,248.7,132.4,248.9,132.2z"/>
<path class="st0" d="M238.2,150.5c-2.8-0.2-2.1-2.5-2.4-3.8c-0.2-1,0.3-2.3,0.9-3.3c1.4-2.7,2.7-5.4,1.4-8.6c-0.1-0.3,0.1-1,0.3-1.1
	c0.9-0.3,0.5,0.6,0.8,0.9c0.6,0.7,1.2,1.5,2,1.8c0.5,0.2,0.8,0.5,0.5,0.7c-1.1,0.9,0,1.9-0.2,2.8c-0.2,1,0.3,2.1,0.3,3.1
	c0,0.6,0,1.3-0.3,1.9C240.3,146.9,239.2,148.7,238.2,150.5z"/>
<path class="st0" d="M283.4,156.5c0.9-0.6,1.3-1.1,1.7-1.1c1.8,0.1,3.5,0.5,5.3,0.5c1.6,0.1,0.9,1.9,2,2.2c1,0.3,2,0.5,3,0.8
	c0.2,0.1,0.1,0.6,0.2,0.9c0.1,0.2,0.2,0.5,0.4,0.7c2.3-1.8,3.6,0.9,5.5,1.2c1,0.2,2,1.2,2.9,2c0.6,0.5,0.9,0.5,1-0.2
	c0.2,0.1,0.5,0.1,0.6,0.2c0.1,0.7,0.3,1.4,1.2,1.1c1.3-0.4,2.2,0.2,3.2,0.7c2.4,1.2,4.9,2.3,7.3,3.3c1,0.4,2.2,0.6,2.1,2.1
	c0.2,0,0.6,0.1,0.6,0c0.5-0.9,0.9-0.3,1.1,0.1c0.3,0.8,0.6,1.4,1.5,0.7c0.2-0.2,0.8-0.2,0.9-0.1c1.5,1.8,3.9,1.7,5.8,2.8
	c1.7,1,3.7,1.7,5.5,2.4c-0.4,0.6-0.7,1.6-1.2,1.6c-0.9,0.2-1.4,0.9-2.1,1.1c-0.8,0.3-2,0-3-0.2c-1.1-0.3-2.4-0.5-3.3-1.1
	c-2.8-1.8-5.7-3.2-8.6-4.6c-5-2.5-10.2-4.6-15.3-6.9c-3.2-1.5-6.4-3.1-9.4-4.8C289.5,160.4,286.7,158.5,283.4,156.5z"/>
</svg>
