<svg width="261" height="392" viewBox="0 0 261 392" fill="none" xmlns="http://www.w3.org/2000/svg">
<path d="M0 90.3604C1.13604 90.5948 2.22701 90.5407 2.71389 89.2964C3.94009 86.1588 6.69 84.4187 8.98913 82.2458C12.9202 78.5221 16.7881 74.7353 20.7733 71.0747C22.7839 69.2264 25.065 67.6666 27.1117 65.8453C29.6092 63.6183 32.3862 61.7339 35.0279 59.7233C38.8508 56.8021 42.4663 53.439 47.0645 51.5997C48.0293 51.212 49.0301 50.6079 49.2645 49.4448C49.7334 47.0645 51.0497 45.0629 52.0415 42.9081C52.6275 41.6368 52.9431 40.2483 53.421 38.9229C53.6284 38.3369 53.8358 37.7057 54.2144 37.2279C56.3513 34.523 56.9103 31.1059 58.3889 28.1125C59.8405 25.1822 61.4274 22.3241 62.9691 19.4389C64.556 16.4636 66.188 13.5153 67.7568 10.5399C69.1633 7.87115 70.4346 5.1302 71.9132 2.5155C72.4091 1.64093 73.3558 1.01883 74.3927 0C74.573 1.23522 75.8262 1.4606 75.4926 2.73188C75.3574 3.26384 77.3229 4.52612 78.0442 4.32777C78.7294 4.13843 78.9639 4.39989 79.3336 4.83267C81.9302 7.86211 83.9318 11.2793 85.7531 14.7866C87.7006 18.5463 89.4046 22.4504 91.0996 26.3363C92.0824 28.5904 92.5874 31.0698 93.7505 33.2067C95.3734 36.2001 96.3291 39.4278 97.6544 42.5204C98.3126 44.0622 98.9979 44.9367 100.954 44.8917C102.848 44.8556 104.759 45.64 106.671 45.9826C111.557 46.8752 116.444 47.7318 121.331 48.5883C124.469 49.1383 127.633 49.553 130.744 50.2112C132.998 50.6891 135.189 51.4554 137.416 52.0956C139.643 52.7357 141.87 53.3579 144.097 54.0071C145.395 54.3858 146.648 54.8275 147.568 56.2431C146.657 57.1988 145.819 58.3438 144.719 59.1372C144.025 59.6421 143.899 60.2643 144.169 60.67C144.89 61.7429 144.385 62.2028 143.655 62.9872C141.843 64.9166 140.211 67.0174 138.498 69.0371C138.101 69.5059 137.596 69.8846 137.182 70.3444C136.785 70.7772 136.235 71.21 136.1 71.7329C135.477 74.1312 133.602 75.7361 132.493 77.9811C132.223 77.4942 132.051 77.1967 131.772 76.6738C131.619 77.8549 131.51 78.8467 131.366 79.8385C131.339 80.0008 131.186 80.145 131.123 80.3073C130.654 81.5155 129.31 82.1106 128.914 83.3999C128.878 83.5261 127.841 83.2286 127.66 83.454C127.399 83.7785 127.516 84.3917 127.408 84.8695C127.381 84.9867 127.128 85.0859 126.966 85.14C125.433 85.6629 125.01 87.1687 124.676 88.3678C124.117 90.3333 123.702 92.4522 125.244 94.3546C125.551 94.7333 125.469 95.5447 125.361 96.1127C125.154 97.1405 124.874 98.1414 125.487 99.2864C125.713 98.8627 125.875 98.5741 126.227 97.9159C126.065 98.9889 125.884 99.6741 125.884 100.359C125.875 101.036 126.046 101.712 126.146 102.379C126.218 102.857 126.38 103.335 126.353 103.804C126.308 104.552 125.767 105.408 127.02 105.706C127.11 105.724 127.219 105.994 127.201 106.139C126.849 109.592 128.616 112.811 128.373 116.255C128.328 116.868 128.544 117.49 128.553 118.112C128.562 118.779 129.662 119.834 127.958 119.943C127.976 120.195 127.904 120.592 128.039 120.682C129.121 121.448 128.896 122.566 128.896 123.612C128.896 125.307 128.932 127.011 128.778 128.688C128.706 129.482 129.941 130.239 128.67 131.159C128.255 131.456 128.607 132.818 128.598 133.692C128.598 133.864 128.481 134.035 128.463 134.206C128.355 135.27 129.509 136.127 128.598 137.461C128.084 138.209 128.76 139.679 128.643 140.806C128.526 141.978 128.977 143.186 128.373 144.313C128.337 144.385 128.282 144.512 128.31 144.539C129.644 145.909 128.697 147.487 128.652 148.957C128.607 150.201 129.094 151.166 129.77 152.04C130.401 152.861 130.131 153.573 129.698 154.222C128.995 155.286 125.938 156.07 124.811 155.439C122.296 154.033 119.492 153.69 116.742 153.104C109.195 151.508 101.649 149.912 94.571 146.712C91.4153 145.287 88.1874 144.178 84.8154 143.331C82.0113 142.627 79.2704 141.545 76.8541 139.886C76.214 139.445 75.8623 139.715 75.5197 140.121C74.2214 141.654 72.9861 143.249 71.6608 144.764C70.2542 146.369 69.1993 148.19 68.0272 149.948C67.1707 151.238 66.0527 152.392 64.9167 153.456C61.4094 156.738 57.8839 160.056 53.448 162.084C52.2668 162.625 50.9596 162.977 49.8055 163.572C48.5613 164.212 47.4523 164.996 45.9917 165.204C45.1982 165.321 44.4859 166.069 43.7826 166.601C42.4753 167.584 41.0868 168.278 39.4098 167.891C38.986 167.792 38.436 167.485 38.2737 167.124C37.841 166.178 37.5254 165.159 37.282 164.14C37.1377 163.545 37.255 162.887 36.2992 162.896C36.1369 162.896 35.9025 162.238 35.8123 161.859C35.0189 158.406 34.469 154.907 34.0542 151.4C33.7747 149.011 33.6395 146.612 33.4952 144.214C33.2788 140.671 33.1254 137.118 32.9361 133.575C32.6566 128.156 32.3141 122.747 32.1067 117.328C31.9444 113.153 31.9263 108.979 31.8452 104.804C31.8091 102.803 31.8092 102.794 29.9789 102.262C28.96 101.964 27.9051 101.766 26.8953 101.432C26.3363 101.243 25.5429 100.99 25.3536 100.549C24.488 98.511 22.9011 98.8807 21.1069 99.0971C21.4224 99.3405 21.5848 99.4848 21.7651 99.611C21.8373 99.6561 21.9273 99.6651 22.0175 99.6922C21.8372 99.7372 21.6208 99.8725 21.4675 99.8184C19.8717 99.3225 18.2759 98.7995 16.689 98.2766C16.6079 98.2496 16.5446 98.1684 16.4815 98.1053C15.2012 96.7889 14.3989 96.3201 12.6227 96.9061C11.685 97.2127 11.171 97.0233 10.8735 96.4553C10.2874 95.3193 9.33172 95.3373 8.28584 95.0398C5.83343 94.3365 3.48926 93.2816 1.118 92.3259C0.991773 92.2718 1.17211 91.6677 1.01884 91.4694C0.802446 91.1989 0.396673 91.0817 0.07209 90.9014C-3.96204e-05 90.721 0 90.5407 0 90.3604ZM56.9463 46.3343C55.7651 48.0113 55.7652 48.0113 58.0192 48.9039C57.9381 47.8219 57.4963 47.0105 56.8832 46.2712C58.0463 45.5048 58.0463 45.5047 57.6405 43.7556C57.3881 44.6933 57.1717 45.5138 56.9463 46.3343ZM41.8262 59.1372C40.7532 58.8397 40.1942 60.661 38.9951 59.8135C38.3189 60.5438 37.1558 60.9585 37.4263 62.2929C36.4615 62.7708 35.4697 63.7085 34.541 63.6364C32.6025 63.4921 33.2246 65.2142 32.4943 65.8904C32.0435 66.3052 31.6649 66.8191 31.178 67.1797C30.1592 67.9191 29.2755 68.7576 28.7706 69.9838C31.6017 67.8289 34.6402 65.9716 37.1106 63.411C37.345 63.1675 37.4804 62.8158 37.6607 62.5183C38.959 61.9773 40.7172 60.634 41.9344 59.2725C43.8188 58.5151 45.2794 57.1898 47.0195 55.5488C46.2802 55.6029 45.8654 55.5037 45.649 55.666C44.2966 56.7209 42.6557 57.4873 41.8262 59.1372ZM95.4094 57.4152C96.6807 54.4038 96.8611 54.3316 96.1488 52.3661C95.5627 50.7612 95.3914 48.6695 93.0833 48.2006C92.8218 48.1465 92.4431 47.1727 92.5964 46.9203C93.1644 45.9826 92.7046 45.1892 92.4161 44.4048C91.0366 40.6 89.657 36.8041 88.1694 33.0354C87.4481 31.2051 87.0243 29.2035 85.4916 27.7248C85.4465 28.6084 85.5457 29.4559 85.7441 30.2764C86.1318 31.8993 86.5105 33.5313 87.0154 35.1181C87.8268 37.7148 88.6834 40.3024 89.6211 42.854C90.4055 44.9908 91.5054 47.0195 92.1275 49.2014C92.6144 50.8965 93.8767 52.285 93.7234 54.2866C93.6422 55.2243 94.7332 56.2521 95.4094 57.4152ZM73.509 137.614C71.5705 139.986 69.7403 142.231 67.8919 144.458C66.0797 146.639 64.2314 148.794 62.4462 150.994C60.67 153.185 58.2266 154.808 56.8471 157.378C57.4963 157.188 58.0102 156.882 58.4701 156.494C61.4184 153.952 64.2314 151.31 66.8912 148.434C69.3075 145.819 71.2551 142.898 73.5001 140.184C74.1312 139.418 74.5819 138.75 73.509 137.614ZM35.7402 104.741C36.0829 107.572 35.3255 109.898 36.3984 112.071C36.5697 112.423 36.3623 112.955 36.3804 113.397C36.4254 114.362 36.4975 115.317 36.5606 116.282C36.6598 116.282 36.75 116.282 36.8492 116.282C37.2008 111.494 37.5524 106.707 37.9221 101.784C37.0205 101.441 36.0377 101.513 34.9918 102.099C36.4074 103.046 36.5427 103.199 35.596 104.047C34.6673 104.886 35.055 105.661 35.1271 106.851C35.3435 106.103 35.4607 105.706 35.7402 104.741ZM59.2184 146.117C61.0486 144.061 62.915 142.032 64.6732 139.913C65.097 139.399 65.7461 138.651 64.8986 137.831C64.574 137.524 64.4117 137.055 64.042 136.451C61.9863 139.607 60.0028 142.519 59.2184 146.117ZM44.0171 159.019C43.2958 157.964 42.5474 157.026 41.9974 155.989C41.7089 155.439 41.4384 155.025 40.8704 155.277C40.5729 155.403 40.3114 155.917 40.2843 156.278C40.113 158.144 40.7713 159.803 41.5917 161.588C42.1327 160.948 42.5024 160.461 42.9261 160.02C43.3228 159.587 43.7916 159.208 44.0171 159.019ZM96.0856 58.4069C96.0856 58.9209 95.9504 59.4889 96.1037 59.9487C97.2577 63.2847 98.4659 66.5936 99.6831 69.9116C99.7552 70.101 100.044 70.2182 100.558 70.6329C99.8453 66.0436 97.8889 62.2839 96.0856 58.4069ZM123.558 79.0541C126.614 76.2951 126.578 75.141 123.558 73.4189C123.558 75.2222 123.558 76.9623 123.558 79.0541ZM50.5088 61.0577C50.608 61.1479 50.7071 61.229 50.8063 61.3192C51.3833 60.9045 52.2218 60.6069 52.5013 60.0389C53.0603 58.9028 53.6554 57.6496 52.862 56.216C52.5915 56.5947 52.2668 56.9193 52.0955 57.298C51.5365 58.5422 51.0407 59.8044 50.5088 61.0577ZM58.3709 41.781C58.5151 41.9253 58.6594 42.0606 58.8036 42.2048C59.2995 41.7991 60.0028 41.5016 60.2552 40.9786C60.697 40.059 60.8864 39.0131 61.1388 38.0213C61.1568 37.9492 60.9045 37.7598 60.7602 37.7238C60.625 37.6967 60.3635 37.7598 60.3184 37.859C59.6512 39.1483 59.0201 40.4647 58.3709 41.781ZM124.054 85.708C125.019 85.1129 126.209 84.9416 125.956 83.481C125.505 84.3195 123.847 84.0851 124.054 85.708ZM28.8609 101.099C28.4281 100.386 27.7879 99.6921 26.697 100.341C27.4814 100.612 28.1666 100.855 28.8609 101.099ZM38.0303 126.344C37.877 126.362 37.7147 126.389 37.5614 126.407C37.5975 126.975 37.6335 127.534 37.6696 128.102C37.8229 128.093 37.9671 128.084 38.1204 128.075C38.0934 127.498 38.0573 126.921 38.0303 126.344ZM86.8982 127.778C86.6908 127.94 86.4743 128.075 86.4924 128.102C86.6817 128.508 86.9072 128.905 87.1416 129.292C87.1506 129.301 87.4931 129.13 87.4841 129.112C87.3128 128.679 87.1146 128.246 86.8982 127.778ZM61.815 35.5689C61.6527 35.5058 61.4904 35.4427 61.3371 35.3796C61.1568 35.9025 60.9675 36.4254 60.7872 36.9484C60.9044 36.9935 61.0306 37.0386 61.1478 37.0836C61.3732 36.5787 61.5986 36.0738 61.815 35.5689ZM37.3721 129.401C37.1738 129.238 36.9484 129.049 36.723 128.869C36.6599 129.013 36.4975 129.22 36.5516 129.283C36.7229 129.518 36.9574 129.698 37.1648 129.896C37.2098 129.77 37.2639 129.644 37.3721 129.401Z" fill="#EBC483"/>
<path d="M82.3805 78.541C83.1018 80.0377 83.228 81.5525 83.2821 83.2475C83.3452 85.3843 82.7952 87.3228 82.5247 89.3514C82.3534 90.6678 82.128 91.9842 81.9657 93.3096C81.9026 93.8054 81.8125 94.3374 81.9297 94.8063C82.2993 96.3661 82.3354 96.357 81.0461 97.2677C80.7576 97.4751 80.478 97.7005 80.0542 98.016C78.6207 96.4743 77.3495 95.1308 77.8904 92.5792C78.6478 88.9908 78.9453 85.3032 79.333 81.6516C79.5223 79.7402 80.9649 79.2353 82.3805 78.541Z" fill="#F5F4EF"/>
<path d="M66.1695 98.2031C68.4145 99.0236 70.6686 99.8531 72.562 101.386C73.9234 102.495 75.4652 102.612 77.0701 102.369C77.6561 102.278 78.3053 101.837 78.5758 102.621C78.7561 103.135 78.7741 103.946 78.4765 104.325C77.2774 105.858 75.8618 107.102 73.734 107.255C69.4964 107.571 67.1613 105.741 66.3949 101.756C66.1515 100.601 65.4121 99.4834 66.1695 98.2031Z" fill="#F5F4EF"/>
<path d="M71.8411 85.2123C71.2911 86.3663 71.6969 88.1876 69.6502 88.5572C69.4428 88.5933 69.2715 88.8458 69.0822 88.9991C67.297 90.3876 66.2781 90.3334 64.8535 88.6925C64.2314 87.9802 63.2396 87.3852 64.4208 86.177C64.8535 85.7262 64.4659 84.5721 64.6913 83.8057C65.2232 81.9664 66.9904 81.209 68.2707 80.0459C68.46 79.8746 69.0641 79.8836 69.2624 80.055C70.2723 80.9205 71.832 81.4074 71.4984 83.2737C71.3993 83.8237 71.6968 84.4549 71.8411 85.2123Z" fill="#F5F4EF"/>
<path d="M91.3423 82.0858C91.3513 80.2194 93.1456 77.6047 94.8947 76.9556C95.0751 76.8924 95.3455 76.9916 95.5529 77.0728C97.1848 77.7129 98.2037 78.8039 98.1496 80.6702C98.1405 80.8956 98.2938 81.3194 98.2848 81.3194C97.0316 81.635 98.4741 82.6538 97.7528 83.2489C97.1938 83.7177 97.0315 84.6284 96.6438 85.3136C96.4725 85.6111 96.175 85.8636 95.8955 86.071C95.616 86.2784 95.2824 86.4677 94.9488 86.5398C94.5611 86.6209 93.939 86.7472 93.7677 86.5488C92.6407 85.2505 91.3423 84.0062 91.3423 82.0858Z" fill="#F5F4EF"/>
<path d="M151.86 358.522C151.074 364.438 150.533 369.562 149.685 374.646C148.889 379.469 147.806 384.242 146.806 389.025C146.642 389.818 146.336 390.61 145.948 391.322C145.447 392.254 144.733 392.144 143.926 391.482C143.007 390.72 144.151 388.745 142.149 388.745C141.812 387.662 141.343 386.599 141.169 385.486C141.036 384.613 141.179 383.671 141.353 382.788C142.231 378.196 143.17 373.623 144.069 369.03C144.437 367.135 144.774 365.24 145.08 363.335C145.223 362.452 145.274 361.56 145.366 360.667C144.886 360.627 144.6 360.517 144.488 360.607C139.995 364.568 135.42 368.449 131.06 372.55C128.885 374.596 127.139 377.063 125.127 379.269C124.708 379.72 123.963 379.89 123.37 380.191C123.125 379.66 122.635 379.118 122.676 378.617C122.839 376.331 123.156 374.044 123.432 371.678C121.91 372.299 120.44 373.062 119 374.145C119.511 372.951 120.011 371.748 120.552 370.575C120.654 370.344 121.001 370.013 121.165 370.043C123.238 370.545 123.136 368.9 123.422 367.707C123.942 367.958 124.514 367.687 124.759 367.396C125.494 366.514 126.638 365.912 126.607 364.518C126.607 364.307 126.801 364.318 127.894 364.989C128.088 365.11 128.537 365.19 128.537 365.17C129.068 363.796 130.437 363.194 131.397 362.242C132.53 361.109 133.858 360.156 134.47 358.582C134.644 358.141 135.103 357.699 135.542 357.479C138.871 355.814 140.25 352.375 142.997 350.119C141.353 348.173 139.923 346.438 138.453 344.724C132.724 338.065 126.985 331.427 121.267 324.769C120.348 323.696 120.368 323.676 120.961 321.72C122.758 322.452 124.575 323.124 126.332 323.937C127.261 324.368 128.241 324.909 128.915 325.651C131.417 328.389 133.807 331.237 136.237 334.044C136.288 336.25 138.524 336.702 139.688 337.965C142.231 340.723 144.079 344.182 147.633 346.148C149.205 338.095 150.686 330.114 152.33 322.152C153.157 318.171 155.026 310.66 157.987 307C158.569 308.544 159.09 309.908 159.601 311.262C158.263 312.365 159.325 313.919 158.845 315.253C158.375 316.556 158.641 318.1 158.447 319.524C158.1 321.941 157.64 324.348 157.232 326.754C157.16 327.155 157.283 327.637 157.089 327.958C154.965 331.598 156.251 336.05 154.066 339.75C153.321 341.013 153.637 342.929 153.617 344.543C153.617 344.874 153.943 345.817 154.822 345.014C156.946 343.079 159.141 341.204 161.306 339.309C164.073 336.882 166.83 334.455 169.598 332.039C170.435 331.307 171.293 330.605 172.232 329.823C172.314 330.404 172.385 330.825 172.447 331.257C172.865 330.946 173.315 330.655 173.692 330.304C173.917 330.093 174.04 329.773 174.203 329.512C174.468 329.712 174.826 329.853 174.999 330.114C175.673 331.126 175.643 332.159 174.887 333.132C173.121 335.378 171.456 337.674 169.159 339.489C165.268 342.568 161.51 345.787 157.691 348.955C157.609 349.025 157.528 349.096 157.466 349.176C154.076 353.538 153.79 352.575 157.752 356.105C159.059 357.268 160.193 358.612 161.398 359.895C166.616 365.471 171.824 371.046 177.042 376.621C177.328 376.922 177.777 377.173 177.869 377.514C178.012 378.065 178.073 378.737 177.869 379.229C177.756 379.489 176.991 379.569 176.521 379.569C173.437 379.579 171.078 377.945 169.056 375.96C165.207 372.169 161.52 368.218 157.752 364.348C156.016 362.573 154.229 360.858 151.86 358.522Z" fill="#D8B06C"/>
<path d="M234.93 179.979C236.106 182.044 237.266 183.825 238.168 185.723C239.782 189.103 241.234 192.554 242.762 195.973C243.148 196.832 243.325 197.721 244.529 198.113C245.335 198.382 245.799 199.535 246.542 200.144C248.242 201.537 250.094 202.744 251.741 204.189C253.24 205.507 254.544 207.047 256.087 208.644C253.188 210.07 250.63 211.577 247.51 211.608C247.217 211.614 246.748 211.838 246.677 212.064C246.239 213.486 244.948 213.421 243.871 213.742C243.109 213.972 242.369 214.284 241.596 214.416C239.829 214.732 239.247 216.053 238.7 217.493C237.646 220.291 236.507 223.058 235.444 225.855C235.08 226.807 234.598 227.669 234.62 228.813C234.659 230.522 233.232 231.594 230.948 232.047C230.35 231.075 229.945 229.949 229.165 229.229C226.953 227.166 225.986 224.617 225.61 221.741C225.37 219.913 224.742 218.067 224.884 216.282C225.024 214.567 224.092 214.138 222.966 213.705C220.173 212.621 217.343 211.61 214.535 210.568C214.284 210.476 214.01 210.415 213.784 210.282C211.191 208.774 210.162 207.066 213.222 204.955C215.418 203.443 217.737 202.1 219.984 200.658C222.676 198.918 225.792 197.631 227.396 194.657C228.891 191.876 230.172 188.99 231.462 186.106C232.081 184.713 232.394 183.183 233.063 181.815C233.367 181.127 234.172 180.684 234.93 179.979Z" fill="#F2DFBF"/>
</svg>
