<svg width="98" height="176" viewBox="0 0 98 176" fill="none" xmlns="http://www.w3.org/2000/svg">
<path d="M76.8314 86.1177C76.6227 85.2732 76.4588 84.4436 76.2005 83.6488C76.0863 83.2912 75.7832 82.9981 75.5647 82.6703C75.3312 82.8441 74.9934 82.9633 74.8792 83.1968C74.5215 83.9419 74.1639 82.9137 73.8012 83.2415C73.4535 83.5545 73.0313 83.783 72.6637 84.076C72.2861 84.3741 71.6255 84.9901 71.6007 84.9652C70.6718 84.0264 70.2594 84.9901 69.6286 85.3725C69.4001 85.5116 68.8139 85.2086 68.4761 84.9752C68.337 84.8808 68.3321 84.3791 68.4513 84.1704C68.8388 83.4949 69.3902 82.9087 69.7379 82.2133C70.1154 81.4582 70.3141 80.574 71.397 81.4582C71.4069 81.4681 71.7398 81.2098 71.7249 81.1055C71.6354 80.425 71.9335 80.2064 72.5644 79.958C73.2747 79.6848 73.9503 79.1533 74.452 78.5721C74.9487 77.9959 75.1822 78.3883 75.5746 78.5821C75.7137 78.6516 76.1856 78.4231 76.1757 78.3635C76.0813 77.4296 77.2536 76.9925 76.8214 75.7158C76.2899 74.1461 76.6675 74.012 75.3262 73.6345C74.8841 73.5103 74.3824 73.411 74.0546 73.1278C72.4749 71.7667 70.4383 71.4588 68.6103 70.664C66.5786 69.7798 64.3631 69.3327 62.4407 68.1753C61.5764 68.7167 62.2966 66.8788 61.2535 67.4202C60.6127 67.753 60.3544 66.7894 59.8825 66.4714C59.798 66.4168 59.798 66.1585 59.8378 66.0144C59.8676 65.9052 60.0464 65.7412 60.1209 65.7561C60.4686 65.8406 60.8064 65.9797 61.1492 66.1039C61.0498 65.8704 60.9455 65.6369 60.866 65.3985C60.8561 65.3637 60.9753 65.2345 61.0299 65.2345C62.7735 65.2743 64.5817 64.7974 66.206 65.8555C66.3501 65.9499 66.5538 65.9449 66.7276 65.9896C66.7425 65.8306 66.8071 65.6568 66.7624 65.5177C66.6879 65.2644 66.5488 65.0309 66.4345 64.7924C66.6581 64.7924 66.9362 64.703 67.1002 64.8024C68.4563 65.622 70.0607 65.6319 71.4914 66.1933C71.7745 66.3075 72.0726 66.3969 72.3358 66.546C72.922 66.8788 73.4883 67.2414 74.0645 67.5941C74.9735 66.7297 74.9686 68.1455 75.4703 68.1604C76.2651 68.1852 76.3495 68.369 75.7534 68.8856C75.9372 68.98 76.1409 69.1886 76.2949 69.1539C76.8165 69.0396 77.502 68.5478 77.8 68.7267C79.0767 69.5115 79.0568 68.677 79.2008 67.8226C79.3946 66.6751 79.5585 65.5127 80.4775 64.6186C80.7557 64.3454 80.3086 63.8884 80.6215 63.3519C81.3567 62.1051 81.3915 60.4807 82.6631 59.4922C81.8683 58.7968 82.7675 58.3248 82.9165 57.7735C83.0754 57.1873 83.4033 56.6508 83.592 56.0696C83.9547 54.9718 83.6815 53.566 85.1369 53.0047C85.2214 52.9749 85.1369 52.5378 85.1518 52.2894C85.1916 51.6536 85.6933 51.6287 85.9764 51.9168C86.7315 52.6769 87.9584 53.3077 87.1388 54.7384C87.9336 55.3444 86.9947 55.9554 87.1438 56.5614C87.2878 57.1575 87.5958 57.7486 87.6057 58.3447C87.6157 59.0302 87.7448 59.6959 87.2779 60.441C86.5129 61.658 87.0047 63.4363 85.6635 64.4894C85.584 64.554 85.6386 64.8074 85.6535 64.9713C85.7877 66.4416 85.2561 67.7183 84.6948 69.0446C84.218 70.1672 84.2577 71.4737 83.6765 72.5963C83.6268 72.6956 83.746 72.8844 83.7907 73.0334C83.91 72.9987 84.0888 72.9987 84.1335 72.9242C84.6253 72.0896 85.1469 71.3346 86.3092 71.6674C86.7364 70.6739 87.869 70.5845 88.5198 69.9685C91.1326 67.5096 92.2553 66.7148 95.2208 65.8306C95.5189 65.7412 95.8517 65.7065 96.1646 65.7164C96.5223 65.7313 97.2624 65.6021 97.0141 66.1535C96.7607 66.7248 98.0473 67.0824 96.9495 67.758C95.9312 68.3889 95.2804 69.6059 94.4509 70.5497C94.123 70.9223 93.7306 71.2352 93.4077 71.6127C93.055 72.0201 92.7371 72.3082 92.3496 71.6674C92.1162 72.0648 91.9473 72.5317 91.6294 72.8496C91.3115 73.1675 90.8048 73.2868 90.467 73.5898C90.2683 73.7686 90.2484 74.1362 90.1441 74.4193C90.3776 74.3349 90.6061 74.2008 90.8495 74.1759C91.376 74.1213 92.6527 75.1048 92.5732 75.5867C92.4887 76.0983 92.2155 76.605 91.9125 77.0372C91.7684 77.2409 91.5648 77.9115 91.0531 77.3303C90.9985 77.2657 90.7799 77.2458 90.7154 77.3005C90.2335 77.7028 89.7715 78.13 89.3046 78.5473C88.0677 77.6333 86.4881 78.6466 85.3406 77.9611C84.4117 77.4097 83.8702 77.7724 83.1947 78.13C82.4843 78.5125 82.1068 79.0391 82.6482 79.8339C81.7442 80.6286 82.385 81.6867 82.1714 82.5957C81.769 84.3443 81.8783 86.1971 81.0934 87.8563C80.9792 88.0997 80.5321 88.1941 80.239 88.353C80.0055 87.588 78.5551 88.6809 78.6892 87.3396C78.724 87.0118 78.7786 86.6492 78.6743 86.3561C78.5253 85.9289 78.2421 85.5414 78.0136 85.1391C77.6609 85.4272 77.3033 85.7252 76.8314 86.1177Z" fill="#FFE48B"/>
<path d="M50.5556 14.7457C50.8487 15.0338 51.1318 15.3318 51.4398 15.6001C51.5143 15.6647 52.5227 16.4048 52.483 16.4247C52.2396 16.5439 51.9515 16.7674 51.7329 16.7128C50.8139 16.4942 50.3817 17.145 49.88 17.6665C49.2343 18.3421 49.9546 18.1335 50.2427 18.2477C50.3172 18.2775 50.342 18.6849 50.3023 18.6998C49.3734 19.0574 48.4395 19.4101 47.4957 19.7131C46.6462 19.9863 45.9309 20.8755 44.858 20.2794C44.7288 20.2049 44.3761 20.6172 44.098 20.7016C43.4323 20.9053 42.4786 21.4021 42.1259 21.1388C41.341 20.5427 40.7896 21.109 40.2581 21.253C38.6338 21.7051 36.8157 21.4716 35.3652 22.6588C35.1019 22.8724 34.5356 22.788 34.6797 23.3394C34.7542 23.6175 35.1615 24.0795 35.2758 24.0398C36.7014 23.548 36.8405 24.6806 37.218 25.5101C37.6899 26.5533 38.3953 27.5666 38.5741 28.6595C38.8324 30.2391 40.2134 31.322 40.2383 32.9662C40.2432 33.1451 40.73 33.3189 40.9983 33.4928C40.4071 33.8654 40.8493 34.1088 41.1125 34.372C41.4056 34.6651 41.7682 34.9185 41.9619 35.2662C42.0712 35.4649 41.9073 35.8176 41.8676 36.1007C41.6142 35.9815 41.3261 35.902 41.1224 35.7232C40.9734 35.594 40.9337 35.3357 40.8443 35.137C40.6108 35.3705 40.273 35.5642 40.1637 35.8474C39.8657 36.5925 39.8707 36.6422 39.5975 36.3193C39.2398 35.902 38.9467 35.4351 38.6288 34.983C38.2761 34.4764 38.0327 34.4863 37.6353 35.0476C37.5211 35.2115 37.4316 35.3904 37.3323 35.5642C37.2677 35.4251 37.1733 35.291 37.1435 35.147C37.074 34.839 37.0343 34.531 36.9846 34.218C36.7511 34.3174 36.5226 34.4565 36.2792 34.4863C36.1798 34.5012 36.0159 34.2926 35.9364 34.1535C34.9231 32.4347 33.7508 30.7955 33.1447 28.8532C32.9411 28.2074 32.3102 27.661 32.2158 27.0153C32.0867 26.1211 31.6893 25.7237 30.8647 25.6194C30.964 25.3859 31.0584 25.1525 31.1578 24.919C30.7753 24.8445 30.3878 24.7004 30.0153 24.7302C29.906 24.7402 29.7768 25.217 29.752 25.4853C29.7321 25.7088 29.8613 25.9473 29.9258 26.1807C29.6824 26.0466 29.4043 25.9473 29.2006 25.7684C29.0565 25.6442 29.0019 25.4108 28.9075 25.227C28.838 25.3611 28.7138 25.4952 28.7038 25.6343C28.679 26.0466 28.6691 26.4639 28.6989 26.8762C28.7585 27.7604 28.6244 28.4359 27.5713 28.6992C27.0596 28.8284 26.7566 29.3003 26.6573 29.9759C26.548 30.7011 25.8973 31.3419 25.7731 32.0671C25.7085 32.4447 24.874 32.6583 25.4999 33.2494C25.639 33.3785 25.3757 34.0492 25.167 34.3969C24.9634 34.7396 24.566 34.9681 24.3176 35.296C24.0394 35.6636 23.9252 36.3093 23.5874 36.4385C23.0459 36.6422 23.0608 38.1423 22.0276 37.1538C21.9332 37.3376 21.7097 37.6207 21.7594 37.6853C22.5641 38.6887 21.4663 38.9619 21.0888 39.5034C20.9745 39.3643 20.8454 39.2352 20.751 39.0861C20.6715 38.957 20.6218 38.808 20.5622 38.6689C20.4579 38.7483 20.2791 38.8179 20.2642 38.9123C20.2195 39.1507 20.2592 39.409 20.2493 39.6524C20.2145 40.323 20.5374 41.1874 19.3651 41.2569C19.3154 41.2619 19.2657 41.694 19.2608 41.9275C19.2409 43.0551 18.7988 42.3001 18.4858 42.1063C18.4113 42.4739 17.4377 42.4839 18.0835 43.1793C18.2623 43.373 18.2375 43.7754 18.2524 44.0883C18.2573 44.2225 18.1381 44.3665 18.0735 44.5056C17.9692 44.3367 17.8848 44.1579 17.7606 44.0089C17.6563 43.8896 17.5023 43.8102 17.3731 43.7158C17.3383 43.8698 17.3235 44.0238 17.2688 44.1678C17.09 44.6248 17.7159 45.5984 16.782 45.4941C15.863 45.3898 16.3151 44.6199 16.5287 44.0238C16.6181 43.7754 16.4094 43.3879 16.2704 43.0949C16.0071 42.5385 15.6941 42.007 15.4159 41.4606C15.2073 41.0532 15.1477 40.7105 15.7488 40.5764C15.9425 40.5317 16.2753 40.3081 16.2554 40.2336C16.0071 39.2451 16.6529 38.7931 17.2291 38.1572C17.7656 37.5711 17.9046 36.6372 18.2772 35.8821C18.456 35.5195 19.4644 36.5825 19.3154 35.286C19.2707 34.9036 19.9363 34.4515 20.2443 34.0044C20.6417 33.4282 21.0043 32.8272 21.3868 32.246C21.7296 31.7244 22.0624 30.7955 22.4449 30.7756C23.4185 30.721 23.0708 29.7076 23.642 29.499C25.0826 28.9824 25.2664 27.2537 26.543 26.5285C27.01 26.2652 26.3841 25.0233 27.5911 25.0034C27.7998 24.9985 28.1823 24.3776 28.1624 24.0646C28.1227 23.4685 27.5316 23.6821 27.1789 23.7119C25.5048 23.846 23.8358 24.0298 22.1667 24.1938C22.0922 24.2037 22.0127 24.2186 21.9382 24.2434C21.4961 24.3974 21.516 25.222 20.6914 24.9438C20.2145 24.7799 19.5687 25.0581 19.0173 25.1922C18.4958 25.3164 17.9593 25.4505 17.4874 25.6939C15.8779 26.5135 14.04 26.5036 12.3709 27.1345C11.7202 27.3829 10.8757 27.2785 10.1604 27.1345C9.75806 27.055 9.43517 26.5036 9.07255 27.1742C8.9881 26.9606 8.7745 26.6626 8.84901 26.5483C9.05267 26.2205 9.35569 25.9423 9.66368 25.6939C9.83257 25.5598 10.2796 25.4704 10.2747 25.4555C9.93687 24.3378 11.144 24.3378 11.4867 23.7417C11.8444 23.1208 12.0729 22.4254 13.0167 22.6886C13.0515 22.6986 13.2303 22.4601 13.2055 22.3806C13.1309 22.1571 12.5547 21.9882 13.116 21.7398C13.2551 21.6802 13.583 21.9832 13.7916 22.1621C13.9307 22.2813 14.0052 22.475 14.1095 22.6389C14.1691 22.4999 14.2933 22.3508 14.2834 22.2167C14.2138 21.5411 14.3281 21.0841 15.1725 21.2083C16.022 21.3325 16.7323 21.1587 17.3582 20.4483C17.6662 20.0956 18.3269 19.9764 18.8485 19.9267C19.1217 19.9019 19.4942 20.1999 19.7078 20.4483C20.0754 20.8805 20.9348 20.9301 21.1931 20.4284C21.2378 20.344 20.9447 20.0907 20.8056 19.9168C22.2313 20.1006 23.1354 18.6551 24.5362 18.7196C24.9236 18.7395 25.321 18.5706 25.7135 18.4911C25.6489 18.9829 25.8625 19.4399 26.3394 19.1915C26.8013 18.9531 26.8361 18.1086 27.5862 18.1037C27.5464 17.8205 27.5763 17.4976 27.4471 17.2642C26.6523 15.769 25.7284 14.3384 25.023 12.8034C24.1288 10.8612 23.1353 8.94869 22.5542 6.87727C22.4598 6.54445 22.5542 6.16692 22.4697 5.82914C22.3406 5.31252 22.1617 4.80088 21.9432 4.3091C21.7544 3.88687 21.4663 3.51431 21.2626 3.10201C21.1981 2.96789 21.1881 2.74933 21.2527 2.62017C21.4514 2.20291 21.6998 1.81048 21.9332 1.41309C22.3654 1.68133 22.8721 1.87506 23.2148 2.22775C23.9351 2.97783 24.4468 3.98125 25.2714 4.56244C26.1705 5.19331 26.6275 5.83907 26.7516 6.93191C26.8361 7.65219 27.1888 8.49665 27.7054 8.98346C28.5548 9.78819 28.8429 10.8512 29.4192 11.7752C29.5384 11.9689 29.7321 12.3216 29.6675 12.3911C28.3363 13.787 30.0252 13.8267 30.5617 14.244C31.1926 14.7358 31.4211 15.3666 31.7737 16.0074C31.9575 16.3353 31.9625 17.3635 32.5487 17.0307C33.2441 16.6333 34.8287 16.9562 34.5605 15.8236C34.2575 14.547 35.9066 15.0884 35.7328 14.0055C35.6334 13.3945 36.2544 12.565 36.7412 11.9987C37.2429 11.4175 37.9781 11.035 38.6139 10.5681L40.124 8.50162C40.1588 6.87727 40.8592 8.76986 41.1175 8.31286C41.0728 8.96359 41.3957 9.68884 40.2979 9.96205C39.8409 10.0763 40.2283 11.0748 39.6918 11.6559C39.2944 12.0881 39.3242 13.0568 39.3988 13.7621C39.513 14.8053 38.4351 14.85 38.1519 15.5156C38.0923 15.6547 38.0973 15.8534 38.1519 15.9975C38.1817 16.0819 38.4549 16.1763 38.4649 16.1614C38.9566 15.4809 39.8309 16.0571 40.2482 15.7193C40.8393 15.2424 41.341 15.8882 41.5695 15.7243C42.3395 15.158 43.5168 15.5405 44.0781 14.5718C44.1277 14.4874 44.5003 14.4576 44.5649 14.5371C44.7239 14.7209 44.8232 14.9792 44.8828 15.2226C44.9176 15.3815 44.8381 15.5703 44.8133 15.7441C45.0368 15.7044 45.4441 15.6945 45.4541 15.6249C45.5832 14.691 46.3383 14.4725 47.0039 14.0602C47.7937 13.5734 47.4659 14.2191 47.5901 14.4774C47.6298 14.5569 48.0222 14.5768 48.047 14.5222C48.5041 13.5386 49.1896 14.1794 49.7658 14.2986C50.0539 14.3284 50.2973 14.5818 50.5556 14.7457ZM39.8557 16.072C39.5974 16.2707 39.4037 16.4197 39.215 16.5638C39.4385 16.7823 39.672 17.1847 39.8856 17.1748C40.119 17.1648 40.3376 16.7774 40.5611 16.5489C40.3525 16.4098 40.1488 16.2707 39.8557 16.072ZM32.5238 17.6417C32.2407 17.756 31.9625 17.8652 31.6843 17.9745C31.8929 18.059 32.1016 18.213 32.3052 18.203C32.5983 18.1881 32.8815 18.054 33.1745 17.9745C32.9758 17.8752 32.7771 17.7709 32.5238 17.6417ZM24.6504 19.5045C24.6008 19.425 24.4915 19.2214 24.4666 19.2313C24.2133 19.3306 23.9302 19.425 23.7613 19.6138C23.6967 19.6833 23.9004 20.0012 23.9798 20.2049C24.1984 19.9764 24.417 19.7479 24.6504 19.5045Z" fill="#F2DFBF"/>
<path d="M49.0701 1.72121C49.3582 2.55078 48.7969 2.80412 48.1462 3.00778C46.9093 3.38531 46.7156 4.81096 45.7221 5.42196C45.4638 5.58091 45.0068 5.85412 44.9174 5.77464C44.5249 5.41699 44.1325 5.21829 43.606 5.30771L44.5349 3.32073C45.1508 2.80908 45.8066 2.34214 46.3629 1.77586C46.8149 1.31389 47.7488 1.36356 47.7786 0.419747C47.7836 0.260789 48.2903 -0.0521607 48.4293 0.00744853C48.6926 0.1217 48.941 0.429682 49.0403 0.712826C49.1496 1.01087 49.0701 1.36853 49.0701 1.72121Z" fill="#F2DFBF"/>
<path d="M41.1221 8.28808C41.6039 6.58922 42.3987 5.63547 43.6058 5.30762C43.6058 5.88384 43.5959 6.46006 43.6108 7.03629C43.6356 7.97016 43.263 8.01487 42.5875 7.538C42.4832 7.46348 42.2149 7.51813 42.0808 7.60257C41.7381 7.80127 41.435 8.05461 41.1221 8.28808Z" fill="#F2DFBF"/>
<path d="M51.5441 14.7454C51.2957 14.7454 51.0473 14.7652 50.8039 14.7354C50.7095 14.7205 50.5754 14.5864 50.5704 14.497C50.5555 14.3281 51.9216 13.9307 52.0954 14.0549C52.2296 14.1493 52.3339 14.2834 52.4481 14.3976C52.314 14.5119 52.1898 14.6659 52.0358 14.7305C51.8918 14.7901 51.713 14.7454 51.5441 14.7454Z" fill="#F2DFBF"/>
<path d="M33.757 124.325C34.3432 123.918 35.2672 123.928 35.4062 122.954C35.4112 122.905 35.8285 122.91 36.052 122.89C36.0023 123.064 35.908 123.242 35.9229 123.416C35.9328 123.56 36.0471 123.724 36.1663 123.819C36.2805 123.903 36.5885 123.933 36.5885 123.943C36.4047 124.901 36.2606 125.875 35.9725 126.799C35.8185 127.301 35.4112 127.723 35.1182 128.18C34.6413 128.925 33.5087 129.203 33.5236 130.286C33.5385 131.205 33.0169 131.786 32.4407 132.368C32.3861 132.422 32.4159 132.671 32.4705 132.695C32.6046 132.76 32.8232 132.82 32.9275 132.755C34.2637 131.965 35.6993 131.647 37.2343 131.776C37.3783 131.786 37.5174 131.886 37.6615 131.945C37.5075 132.055 37.3585 132.169 37.1995 132.268C37.0704 132.348 36.9014 132.377 36.7971 132.482C36.7127 132.566 36.7425 135.278 36.7326 135.517C36.7226 135.74 36.6183 135.964 36.5587 136.183C35.3466 135.651 34.84 136.928 34.07 137.33C32.9623 137.916 31.7552 138.165 30.6673 138.721C30.3295 138.895 29.9023 138.939 29.6242 139.178C29.2317 139.511 29.0032 139.868 29.7334 140.246C30.3593 140.569 30.9058 141.085 31.3926 141.607C31.631 141.86 31.7105 142.302 31.7701 142.675C31.9141 143.559 32.3761 142.749 32.4357 142.799C32.9871 143.246 33.9955 143.495 33.3994 144.568C34.0203 145.039 35.1132 145.477 35.1579 145.993C35.2373 146.987 35.8037 147.439 36.355 148.01C36.812 148.487 37.2492 148.999 37.7658 149.401C38.3271 149.833 38.1632 150.399 38.2575 150.946C38.3966 151.77 37.6764 151.537 37.3485 151.775C36.4544 152.426 35.9229 152.416 35.1032 151.721C34.7903 151.452 34.5519 151.085 34.2091 150.866C33.9955 150.732 33.6577 150.802 33.3746 150.782C33.4789 150.956 33.5732 151.139 33.6925 151.303C33.7918 151.433 33.9408 151.527 34.0352 151.661C34.0998 151.755 34.1495 151.979 34.1247 151.994C33.9905 152.063 33.7421 152.168 33.6974 152.118C32.843 151.13 31.3479 151.224 30.4935 150.181C30.3295 149.982 29.9918 149.903 29.7484 149.535C28.6505 147.896 27.4484 146.316 26.147 144.836C25.8191 144.463 26.0973 143.45 25.218 143.733C24.8902 143.837 24.7064 144.428 24.468 144.801C24.1699 145.258 23.7775 145.68 23.6086 146.182C23.0671 147.786 21.9147 149.008 20.9162 150.26C18.7902 152.913 16.6889 155.575 14.8212 158.422C13.4005 158.829 13.4055 160.667 12.0742 161.169C11.6321 162.584 10.6684 163.623 9.63517 164.636C9.29242 164.974 9.32721 165.61 8.60196 165.674C8.2145 165.709 7.85682 166.106 7.48923 166.34C7.88663 166.618 7.97108 166.881 7.52898 167.234C7.38492 167.348 7.39982 167.666 7.34022 167.89C7.10675 167.79 6.87329 167.696 6.63982 167.597C6.57524 167.82 6.58517 168.118 6.44111 168.247C5.72083 168.913 6.17785 170.249 5.06018 170.657C4.11636 170.999 3.86799 172.003 3.16261 172.559C2.97882 172.708 2.80992 172.917 2.59632 172.981C2.29827 173.071 1.96547 173.056 1.64755 173.086C1.68729 173.379 1.84127 173.726 1.73199 173.945C1.62767 174.149 1.03653 174.203 1.03156 174.342C1.00176 174.914 0.70869 175.122 0.266588 174.943C0.092728 174.874 -0.0662203 174.327 0.028161 174.099C0.668961 172.539 0.619295 170.696 2.17907 169.504C2.87451 168.973 1.96048 169.156 1.75682 169.002C1.49355 168.804 1.88102 168.168 2.29828 168.083C3.03346 167.934 3.38118 167.462 3.5004 166.683C3.55504 166.32 3.81335 165.992 3.97728 165.644C4.06669 165.456 4.16107 165.262 4.25546 165.073C4.32997 165.292 4.37962 165.52 4.48394 165.724C4.53858 165.833 4.68762 165.977 4.782 165.967C4.97077 165.947 5.21913 165.376 5.58175 164.408C5.63639 164.263 5.82017 164.095 5.9692 164.065C6.98255 163.881 6.86831 162.43 7.93631 162.306C7.96115 162.301 7.95123 161.998 7.95123 161.834C7.99097 160.374 7.99097 160.374 8.94472 159.579C9.32224 159.505 9.8935 159.828 9.93821 159.082C10.9019 158.779 10.2909 157.995 10.42 157.443C10.5492 156.882 10.4945 156.867 11.5874 156.509C11.7116 156.47 11.8656 156.425 11.9351 156.33C12.9336 154.964 14.3592 153.847 14.4238 151.944C14.4337 151.651 14.5877 151.353 14.7268 151.08C14.9851 150.573 15.909 150.404 15.6557 149.684C15.3676 148.879 16.3611 148.874 16.3263 148.447C16.2568 147.573 17.2403 147.831 17.3446 147.414C17.4937 146.803 17.4986 146.43 18.0947 147.101C18.1096 147.116 18.2587 147.061 18.2587 147.041C18.1693 145.78 18.9839 145.248 19.9774 144.796C20.191 144.702 20.3301 144.279 20.3649 143.991C20.4245 143.435 20.2655 142.839 20.8566 142.441C20.9361 142.387 20.8765 142.129 20.8765 141.965C20.7026 141.965 20.499 141.905 20.3649 141.975C18.4027 143.028 16.0829 143.236 14.24 144.577C14.0165 144.741 13.5595 144.771 13.3061 144.652C12.8292 144.433 12.3772 143.892 12.3524 144.975C12.3524 145.044 11.945 145.139 11.7165 145.169C11.4731 145.203 11.2198 145.203 10.9714 145.169C10.266 145.074 10.0723 146.614 9.13348 145.735C8.45294 146.088 7.77238 146.44 7.08687 146.783C6.81366 146.922 6.54045 147.091 6.24737 147.151C5.52213 147.29 4.73232 147.583 4.06172 147.429C3.14274 147.21 2.78012 148.025 2.10455 148.134C1.76179 148.189 1.38427 147.98 1.02165 147.891C1.96049 147.657 0.663992 146.833 1.42401 146.465C2.11945 146.127 2.76024 145.655 3.36626 145.169C4.10145 144.577 4.78201 143.922 5.46751 143.276C5.61157 143.142 5.66619 142.918 5.76057 142.735C5.83012 142.953 5.84999 143.216 5.98411 143.38C6.11327 143.534 6.37655 143.688 6.55538 143.659C6.70937 143.639 6.94283 143.36 6.94283 143.202C6.92296 142.044 7.25578 141.751 8.15488 142.645C8.96457 142.233 10.2313 142.571 10.6386 141.667C11.041 140.777 11.3688 140.807 12.0394 141.18C12.0692 141.2 12.3822 140.892 12.407 140.713C12.4716 140.281 12.5163 140.291 12.9584 140.45C13.8376 140.767 13.7979 140.638 14.5082 139.55C14.8559 139.019 15.5365 138.706 16.0829 138.314C16.1227 138.284 16.381 138.438 16.3859 138.512C16.4505 139.948 17.5632 138.865 18.0798 139.208C18.0947 139.218 18.2437 139.019 18.3332 138.92C18.1941 138.855 18.06 138.78 17.9159 138.731C17.8414 138.706 17.747 138.741 17.6675 138.726C17.439 138.681 17.2155 138.622 16.987 138.572C17.2105 138.453 17.4341 138.343 17.6526 138.219C18.055 137.991 18.4474 137.747 18.8547 137.519C19.1876 137.335 19.5353 137.166 19.878 136.992C19.57 136.575 19.3068 136.118 18.9442 135.755C18.1345 134.941 15.308 131.071 15.0298 130.112C14.9156 129.72 15.1192 129.233 15.1788 128.791C15.8147 129.024 16.222 127.778 17.0863 128.647C17.8165 129.382 18.8746 130.048 19.8681 130.202C20.9212 130.361 19.2472 131.538 20.4344 131.275C21.2838 131.086 21.9445 131.617 22.6747 131.861C22.7691 131.891 22.7989 132.129 22.8535 132.268C22.1879 133.282 22.1879 133.44 22.8982 134.042C22.9777 134.106 23.1913 134.146 23.2112 134.116C23.2857 133.997 23.3304 133.848 23.3403 133.704C23.3602 133.391 23.3453 133.078 23.3453 132.76C24.0507 133.118 24.5921 133.565 24.8654 134.384C25.0591 134.97 25.7098 134.995 25.7843 134.355C25.9085 133.291 27.0113 133.883 27.3193 133.257C27.8856 133.242 28.7101 133.406 27.8309 132.447C27.7166 132.323 27.816 132 27.816 131.766C27.7117 130.887 28.1438 130.346 28.9734 130.296C30.0513 130.232 30.3544 129.66 30.2997 128.711C30.2749 128.225 30.2053 127.703 31.0001 127.743C31.0796 127.748 31.2783 127.072 31.2733 126.71C31.2684 125.661 31.8049 125.269 32.7785 125.309C33.5733 125.468 33.9061 125.14 33.757 124.325ZM21.5521 142.774C21.8501 142.372 22.1084 142.054 22.3171 141.711C22.3618 141.632 22.2276 141.443 22.1779 141.309C21.8998 141.607 21.6017 141.89 21.3534 142.208C21.3037 142.268 21.4378 142.471 21.5521 142.774ZM30.3295 141.677C30.2103 141.513 30.0613 141.254 29.8526 141.056C29.7384 140.946 29.5248 140.941 29.3559 140.892C29.3311 141.041 29.2367 141.229 29.2963 141.329C29.4503 141.587 29.6589 141.821 29.8775 142.039C29.9321 142.094 30.101 142.059 30.2004 142.024C30.2451 142.009 30.255 141.89 30.3295 141.677Z" fill="#EBC483"/>
<path d="M9.91274 159.092C9.86804 159.837 9.29678 159.514 8.91926 159.589C8.91926 159.266 8.90933 158.943 8.92423 158.625C8.93913 158.307 8.98385 157.94 9.40111 158.347C9.60975 158.551 9.74385 158.839 9.91274 159.092Z" fill="#EBC483"/>
</svg>
