<svg width="117" height="118" viewBox="0 0 117 118" fill="none" xmlns="http://www.w3.org/2000/svg">
<path d="M27.7963 91.2219C22.1504 98.7426 17.0284 105.739 11.6445 112.622C10.4368 114.183 8.37051 115.334 5.91136 117.305C5.73675 111.083 3.48132 105.819 5.63489 100.383C8.3414 93.5693 10.8587 86.7095 13.6817 79.9294C14.642 77.639 14.5256 75.8273 12.0956 74.2775C8.57422 72.0213 5.03828 69.7765 1.53145 67.5089C0.411015 66.7796 -1.10231 66.0731 1.21133 64.9792C1.53145 64.8197 1.38592 63.8739 1.24041 63.3269C0.512855 60.33 0.483785 60.387 4.09247 60.6263C8.26865 60.8998 12.4448 61.0593 16.5337 61.2644C19.8804 54.0058 22.878 46.6902 26.6613 39.6367C28.9458 35.375 31.0703 31.193 31.4632 26.5438C31.4923 26.1222 32.0743 25.7348 32.6855 24.96C35.8867 29.3812 38.957 33.3695 37.2691 38.5998C36.4688 41.0725 35.8867 43.7845 39.5682 45.6419C40.3248 46.0179 40.4412 47.3625 40.5576 48.2855C41.1251 52.7866 41.5762 57.3104 42.1001 61.8114C42.1292 62.1077 42.4493 62.3925 42.9295 63.1674C47.0038 59.7261 50.4815 55.8176 56.593 54.6553C58.1354 56.1709 56.8694 57.4585 55.8945 58.655C52.5769 62.7344 50.2487 67.338 45.2868 70.5628C42.6967 72.2492 42.6821 74.7333 42.6967 77.2061C42.7112 79.6104 42.362 82.0147 42.1728 84.4077C42.0855 85.3876 41.7945 86.379 41.9254 87.3362C42.5657 92.1563 43.3369 96.965 44.0208 101.785C44.0645 102.07 43.8316 102.389 43.6279 102.982C36.6143 100.794 31.987 96.6117 27.7963 91.2219ZM35.0137 53.2082C34.4462 52.7752 34.1842 52.5815 33.9223 52.3877C33.4858 52.8777 33.0347 53.3677 32.6564 53.8919C32.6273 53.9374 33.3257 54.4046 33.3694 54.3705C33.9514 54.0286 34.4607 53.6184 35.0137 53.2082Z" fill="#EBC483"/>
<path d="M93.0083 44.5887C90.5969 50.0435 88.437 55.0958 86.0913 60.1251C85.5678 61.2636 84.4298 62.3047 83.1713 63.9027C82.0668 60.2218 79.7841 57.469 80.2943 53.8574C80.9383 49.3285 81.4539 44.8049 82.1778 40.2764C82.4266 38.7454 82.0631 37.6848 80.2614 37.1776C77.6488 36.4364 75.0288 35.7045 72.4238 34.954C71.5907 34.7113 70.51 34.5498 71.8154 33.5001C71.9947 33.35 71.7507 32.8109 71.5703 32.5096C70.6267 30.8471 70.6172 30.886 72.9638 30.4093C75.6788 29.8555 78.3755 29.2337 81.0238 28.6542C82.0063 23.7503 82.7564 18.8724 84.051 14.0159C84.8323 11.0819 85.5239 8.22284 85.0334 5.38244C84.9847 5.12597 85.2952 4.79499 85.5625 4.22791C88.3157 6.3154 90.916 8.1671 90.6709 11.5764C90.5535 13.1887 90.614 14.9061 93.2653 15.382C93.8093 15.4764 94.0983 16.2584 94.32 16.7889C95.4012 19.3761 96.4116 21.9969 97.4649 24.5915C97.5308 24.7632 97.7811 24.8782 98.2119 25.2579C100.269 22.506 101.87 19.5778 105.594 17.8354C106.822 18.4746 106.218 19.4599 105.785 20.3409C104.314 23.3436 103.559 26.489 100.9 29.2642C99.5121 30.7147 99.8992 32.1988 100.303 33.6712C100.696 35.1027 100.856 36.5967 101.117 38.0564C101.218 38.6559 101.19 39.2972 101.426 39.8456C102.605 42.6106 103.865 45.3463 105.072 48.1038C105.145 48.2662 105.047 48.4965 105.012 48.8849C100.176 48.784 96.549 47.084 93.0083 44.5887ZM91.5592 20.6767C91.1271 20.5159 90.9287 20.4453 90.7302 20.3747C90.5292 20.7419 90.3188 21.1115 90.1605 21.4891C90.1491 21.5213 90.6704 21.6801 90.6929 21.6522C91.0107 21.3484 91.271 21.0163 91.5592 20.6767Z" fill="#F2DFBF"/>
</svg>
