<svg width="308" height="186" viewBox="0 0 308 186" fill="none" xmlns="http://www.w3.org/2000/svg">
<path d="M0.291992 86.15C0.291992 85.09 0.291992 84.02 0.291992 82.96C2.29199 82.25 0.801989 80.49 1.38199 79.39C1.96199 78.3 3.392 77.29 3.332 76.32C3.182 73.73 4.862 72.46 6.392 71.11C8.852 68.94 11.452 66.92 14.022 64.88C15.792 63.47 17.492 61.92 19.432 60.79C20.712 60.05 22.412 60.06 23.842 59.53C25.282 58.99 26.572 58.03 28.022 57.53C29.632 56.98 31.342 56.72 33.022 56.4C34.472 56.13 36.392 55.28 37.292 55.89C39.202 57.17 40.132 55.13 41.682 55.25C44.132 55.45 46.492 56.26 48.882 56.31C55.212 56.45 61.162 57.84 66.882 60.53C68.872 61.47 71.042 62.07 73.182 62.62C73.892 62.8 75.202 62.61 75.492 62.13C76.172 61 77.152 59.05 76.682 58.39C73.922 54.54 79.102 52.06 78.122 48.62C78.092 48.51 78.902 48.03 79.372 47.94C80.052 47.8 81.222 48.11 81.412 47.78C82.742 45.52 83.592 45.48 84.362 48.1C84.542 48.73 85.092 49.25 85.572 49.96C86.652 49.21 87.572 48.04 88.542 47.99C92.782 47.8 97.142 47.35 101.252 48.09C107.052 49.15 112.852 49.71 118.702 50C120.112 50.07 121.652 49.72 122.922 50.16C130.302 52.66 138.072 51.9 145.622 53.09C150.962 53.93 156.002 55.19 160.682 57.88C162.502 58.93 164.352 59.75 166.602 59.57C169.922 59.3 173.032 60.42 176.122 61.53C177.292 61.95 177.892 62.06 177.572 63.96C177.032 67.08 179.192 68.38 182.272 67.56C184.402 66.99 186.532 66.43 188.692 65.98C195.702 64.53 202.802 63.4 209.722 61.61C214.182 60.46 218.802 59.98 223.152 58.48C231.362 55.64 239.952 53.94 247.852 50.14C248.912 49.63 250.672 49.98 251.262 49.24C253.002 47.07 254.022 49.31 255.572 50.14C255.572 44.99 255.562 40.41 255.582 35.83C255.582 34.77 255.222 33.28 255.772 32.73C258.282 30.23 257.452 26.4 259.692 23.76C260.842 22.41 261.652 20.36 261.732 18.58C261.882 15.37 263.182 13.01 264.972 10.4C267.562 6.64 270.292 3.51 274.742 2.06C275.572 1.79 276.142 0.71 276.832 0C277.892 0 278.962 0 280.022 0C279.792 0.47 279.562 0.939996 279.332 1.41C279.822 1.54 280.552 1.95 280.782 1.76C281.882 0.850002 282.922 0.759998 284.122 1.49C285.852 2.53 287.512 3.8 289.382 4.45C291.562 5.2 292.412 7.09 293.892 8.45C296.992 11.31 299.282 14.58 300.202 18.68C301.022 22.33 301.622 26.03 302.362 29.69C303.032 33.02 304.172 36.31 304.372 39.66C304.572 42.98 305.202 46.16 306.332 49.18C306.822 50.5 305.432 52.52 307.682 53.18C307.682 57.43 307.682 61.69 307.682 65.94C306.212 66.36 306.622 67.6 306.632 68.56C306.672 74.65 303.662 80.36 304.422 86.54C302.672 90.99 300.932 95.44 299.152 99.88C299.022 100.2 298.412 100.65 298.382 100.62C296.352 98.92 295.682 101.12 294.542 101.94C294.252 102.14 293.992 102.39 293.722 102.61L286.132 102.33C283.802 101.03 281.412 99.76 280.062 97.32C278.482 94.45 275.632 93.22 273.082 91.58C272.002 90.88 269.982 91.23 270.022 89.3C270.072 86.87 267.412 87.55 266.702 86.09C266.402 85.47 266.172 84.81 265.822 84.23C265.212 83.19 264.642 82.08 263.852 81.18C261.402 78.37 259.762 75.22 259.572 71.39C257.312 72.61 255.182 73.42 252.652 73.54C249.962 73.67 247.272 74.5 244.662 75.29C235.532 78.06 226.532 81.16 217.692 84.84C209.812 88.12 201.762 90.96 194.132 95.12C195.622 97.78 197.082 100.36 197.392 103.61C197.592 105.67 199.322 107.56 200.302 109.57C203.372 115.87 205.042 122.78 208.722 128.82C209.232 129.65 208.872 131.04 209.422 131.82C210.242 133.01 210.612 134.21 211.042 135.56C211.752 137.79 212.432 140.29 213.602 142.1C215.312 144.75 215.862 147.38 216.552 150.29C216.992 152.14 216.962 154.04 217.502 155.87C219.022 160.98 221.162 166 220.492 171.55C220.432 172.03 220.512 172.68 220.792 173.03C222.312 174.95 221.262 177.14 221.512 179.18C221.692 180.63 220.712 181.78 219.472 181.79C216.832 181.82 217.412 183.6 217.292 185.08C216.942 185.08 216.582 185.08 216.232 185.08C215.832 183 214.372 182.75 212.642 183.04C210.452 183.41 208.252 183.8 206.082 184.25C205.872 184.29 205.762 184.79 205.602 185.08C197.092 185.08 188.582 185.08 180.072 185.08C178.032 183.6 175.752 183.6 173.692 185.08C163.762 185.08 153.842 185.08 143.912 185.08C143.562 184.75 143.222 184.14 142.872 184.14C134.292 184.06 125.702 184.04 117.122 184.06C116.832 184.06 116.542 184.72 116.252 185.08C112.352 185.08 108.452 185.08 104.552 185.08C105.032 182.38 102.392 182.95 101.262 181.93C98.822 183.88 95.742 182.18 93.192 183.34C90.472 184.58 87.442 184.51 84.972 183.67C81.762 182.59 78.602 182.69 75.622 183.17C73.362 183.53 72.152 182.84 70.822 181.59C70.352 181.15 70.222 180.1 69.742 179.94C67.722 179.28 68.792 178.32 69.652 178C71.132 177.46 71.132 176.87 70.572 175.58C69.212 172.45 69.282 169.11 69.572 165.79C69.672 164.63 70.282 163.52 70.492 162.35C70.702 161.15 70.312 159.68 70.882 158.75C72.132 156.72 69.082 157.88 69.402 156.3C70.092 152.86 68.342 149.31 69.792 145.77C70.422 144.24 71.082 141.89 70.372 140.8C67.982 137.11 71.342 133.58 70.082 129.88C69.372 127.81 70.042 124.97 70.842 122.76C71.672 120.48 71.472 118.41 71.502 116.48C68.932 115.88 66.792 115.34 64.642 114.87C54.642 112.67 44.872 109.8 35.362 105.92C31.942 104.53 28.472 103.11 24.922 101.94C19.262 100.07 13.912 97.31 8.76199 94.17C5.29199 92.06 3.15199 88.77 0.291992 86.15ZM71.182 100.86C73.632 97.27 72.322 93.29 72.552 89.51C72.592 88.95 71.932 88.33 71.582 87.76C69.642 84.61 67.282 81.93 63.962 80.11C60.962 78.46 58.642 75.84 55.402 74.4C51.112 72.49 46.342 74.48 42.152 72.35C41.922 72.23 41.502 72.49 41.162 72.55C37.802 73.18 34.432 73.78 31.082 74.45C27.922 75.09 24.782 75.81 21.152 76.61C22.312 77.83 23.102 78.51 23.712 79.32C24.442 80.29 25.032 81.36 25.642 82.4C26.422 83.73 26.952 85.27 27.972 86.37C29.662 88.19 31.402 90.38 33.582 91.26C37.982 93.04 42.672 94.14 47.292 95.33C51.082 96.31 54.952 96.98 58.772 97.86C62.932 98.82 67.052 99.86 71.182 100.86ZM288.612 32.74C288.152 29.52 287.512 26.97 287.492 24.42C287.452 19.98 284.542 17.54 281.582 15.1C281.172 14.76 280.092 14.8 279.632 15.11C279.202 15.4 278.812 16.5 279.032 16.9C280.302 19.17 280.042 21.59 280.002 24.01C279.992 24.8 281.062 28.06 281.172 28.79C281.442 30.48 281.412 32.22 281.682 33.92C281.812 34.74 282.202 35.6 282.712 36.26C284.052 38.02 286.772 37.63 287.712 35.55C288.202 34.47 288.442 33.29 288.612 32.74ZM278.922 72.13C279.722 75.76 280.622 79.81 284.382 82.43C285.312 83.08 286.122 82.93 286.612 82.11C287.522 80.59 288.312 78.95 287.562 77.11C286.542 74.6 285.272 72.16 284.492 69.58C283.972 67.86 282.912 67.9 281.702 68.02C279.652 68.23 278.912 69.27 278.922 72.13ZM290.712 54.72C290.712 55.57 290.592 56.47 290.742 57.33C291.002 58.87 293.022 60.58 294.402 60.6C296.082 60.62 297.972 58.77 298.082 56.83C298.142 55.79 298.012 54.73 297.862 53.7C297.682 52.52 297.312 51.36 297.132 50.18C296.732 47.48 295.862 46.61 293.562 46.74C292.122 46.82 290.282 48.67 290.852 50.39C291.412 52.04 290.102 53.27 290.712 54.72ZM269.322 40.29C269.362 41.24 269.292 41.79 269.432 42.29C270.182 45.1 270.862 47.94 271.832 50.67C272.192 51.68 273.242 52.47 274.062 53.27C274.702 53.88 275.572 54.32 276.202 53.31C276.512 52.82 276.592 52.08 276.532 51.47C276.372 49.96 276.292 48.39 275.782 46.98C275.342 45.77 277.612 44.45 275.262 43.22C274.292 42.71 274.272 40.48 273.682 39.08C273.402 38.41 272.842 37.45 272.312 37.39C271.602 37.3 270.602 37.76 270.082 38.32C269.562 38.89 269.472 39.86 269.322 40.29ZM169.242 71.43C168.542 71.03 167.802 70.63 167.092 70.2C164.602 68.67 161.592 69.76 159.132 68.73C157.712 68.13 157.042 68.47 155.912 69.02C155.062 69.44 154.122 69.66 154.592 70.7C154.942 71.47 155.452 72.61 156.922 71.66C158.262 70.79 159.342 71.11 160.122 72.87C160.872 74.56 162.222 75.99 163.452 77.73C165.542 75.7 168.032 74.32 169.242 71.43Z" fill="#1D3D6C"/>
</svg>
