<svg width="280" height="245" viewBox="0 0 280 245" fill="none" xmlns="http://www.w3.org/2000/svg">
<path d="M118.011 117.566C118.245 114.908 117.31 112.601 114.837 111.676C112.491 110.8 110.018 111.131 108.353 113.487C107.487 112.873 106.815 112.299 106.065 111.87C102.044 109.563 97.8089 111.676 97.4876 116.261C97.2734 119.367 96.1733 122.103 94.6934 124.781C94.1676 125.735 93.4374 126.348 92.5514 126.484C90.8476 126.747 89.6306 127.643 88.5499 128.86C88.0729 129.395 87.6153 129.697 86.9143 129.074C86.593 128.792 86.038 128.733 85.5707 128.694C85.1326 128.646 84.5387 128.587 84.2563 128.831C82.5914 130.242 80.43 130.194 78.5315 130.914C77.665 131.245 76.6816 131.352 75.7567 131.411C74.0918 131.528 74.0919 131.479 72.7093 132.657C73.089 132.998 73.8582 133.455 73.79 133.689C73.5953 134.419 72.7191 134.624 72.1933 134.322C70.5284 133.368 68.7857 134.39 67.1305 133.913C66.9748 133.864 66.8093 133.903 66.6437 133.884C64.9789 133.601 63.4406 133.173 62.2625 131.752C61.0163 130.252 59.5364 128.957 58.1636 127.565C56.8785 126.27 55.5738 124.975 54.2692 123.7C51.5431 121.052 48.7488 118.472 45.9643 115.872C45.682 115.609 45.312 115.444 44.9518 115.278C43.9587 114.811 43.2966 113.973 43.1019 112.971C42.9364 112.104 43.1408 111.169 43.2479 110.264C43.2674 110.079 43.5497 109.816 43.7542 109.777C44.6791 109.582 45.2341 108.998 45.7209 108.239C46.1882 107.509 46.675 106.759 47.2982 106.175C48.7196 104.822 49.8685 103.225 52.2344 103.05C53.8895 102.933 55.4667 101.862 57.1024 101.307C59.994 100.304 62.8564 99.2428 65.9038 98.7365C67.2279 98.5223 68.5033 98.0452 69.8177 97.8018C71.8331 97.4221 73.8971 97.2371 75.893 96.7601C78.6678 96.1078 81.5594 96.1954 84.3147 95.3776C85.337 95.0757 86.408 95.6502 87.4984 95.3678C88.4915 95.1049 89.5333 94.881 90.5458 94.9102C91.6168 94.9394 92.6391 94.4916 93.7392 94.7544C94.2747 94.8907 95.0147 94.6376 95.521 94.326C97.77 92.9533 100.36 92.9338 102.813 92.4567C105.851 91.8726 108.908 91.2787 112.053 91.4052C112.725 91.4344 113.426 91.1132 114.088 90.899C114.263 90.8503 114.438 90.5971 114.497 90.4122C114.925 88.981 115.217 87.4816 116.356 86.3717C116.278 84.8237 117.359 83.7429 117.933 82.4578C119.355 79.2838 120.854 76.1585 122.626 73.1598C123.756 71.2515 124.515 69.1388 125.43 67.1137C126.044 65.7604 126.404 64.2026 127.329 63.1219C128.186 62.1191 127.932 60.8534 128.702 59.8895C129.373 59.0425 129.704 57.9326 130.24 56.959C131.729 54.2621 133.268 51.5944 134.738 48.8975C135.157 48.1381 135.419 47.3008 135.78 46.5024C137.347 43.0461 139.421 39.8722 141.3 36.5814C142.322 34.7997 143.237 32.9693 144.513 31.3044C146.645 28.5199 148.66 25.6672 151.659 23.7005C152.409 23.204 153.012 22.4154 153.519 21.6462C153.889 21.0815 154.074 20.6629 154.901 20.8771C155.086 20.9257 155.505 20.0398 155.826 19.5822C156.186 19.0662 156.547 18.5501 156.907 18.0244C157.219 17.5668 157.52 17.1092 157.822 16.6419C157.871 16.5737 157.939 16.5153 157.997 16.4764C159.078 15.7754 159.409 13.8574 161.327 14.4123C161.356 14.422 161.736 13.5361 162.34 13.9839C162.885 14.3831 162.914 14.8504 162.495 15.4346C161.97 16.1551 163.274 17.3331 161.931 17.8978C163.284 19.0369 161.755 20.215 161.979 21.2276C162.223 22.3083 161.941 23.6713 163.099 24.4989C163.644 24.8786 163.683 25.5601 163.868 26.1832C165.28 30.9636 166.127 35.8609 167.286 40.6997C167.626 42.1504 167.967 43.6205 168.201 45.0907C168.444 46.5803 168.843 48.031 168.746 49.5888C168.688 50.5916 169.067 51.6139 169.184 52.6361C169.301 53.6584 168.98 54.7099 169.632 55.6933C169.856 56.0341 169.72 56.6572 169.671 57.1342C169.515 58.5557 170.08 60.0356 169.301 61.4084C170.06 62.6935 169.661 64.115 169.632 65.4488C169.603 66.6756 169.905 67.6784 170.713 68.506C171.608 69.4309 172.465 70.2487 172.855 71.6312C173.205 72.8677 174.286 73.9095 175.094 75.0097C175.668 75.7886 176.613 76.3922 176.194 77.5897C177.742 79.6635 178.394 82.3215 180.546 84.035C181.442 84.7555 182.026 85.8751 182.776 86.8293C183.778 86.1964 184.996 85.953 186.329 86.0309C187.381 86.0991 188.442 86.0017 189.494 86.0601C190.136 86.0991 191.022 85.6415 191.285 86.7319C191.957 86.6638 192.755 86.3522 193.281 86.5956C194.274 87.0824 195.16 86.1672 196.212 86.7319C197.049 87.1798 198.246 87.0337 199.288 87.0045C201.469 86.9364 203.533 87.4524 205.617 87.9879C207.155 88.3773 208.732 88.5526 210.27 88.9517C211.429 89.2536 212.86 88.28 213.756 89.7209C214.934 89.9254 216.102 90.1882 217.29 90.3245C217.894 90.3927 218.536 90.2953 219.12 90.1493C220.075 89.9156 220.98 89.6235 221.798 90.49C221.944 90.6458 222.314 90.5679 222.577 90.6166C223.94 90.8892 224.66 92.0868 224.553 93.5958C224.524 93.9366 224.836 94.1216 224.281 94.3942C223.755 94.6473 222.918 94.9394 223.19 95.913C223.2 95.9617 222.801 96.2246 222.596 96.2343C221.934 96.244 221.35 95.3483 220.62 96.0688C221.039 96.3317 221.146 96.5946 220.931 96.7893C220.815 96.8964 220.62 96.9645 220.581 97.0911C220.26 98.24 218.858 97.87 218.342 98.6878C217.874 99.4278 217.504 100.226 217.056 100.966C216.94 101.161 216.735 101.385 216.521 101.453C213.785 102.3 211.926 104.5 209.569 105.922C208.547 106.535 207.525 107.148 206.473 107.781C205.928 106.925 206.96 105.445 205.587 104.617C204.01 106.087 202.404 107.557 200.826 109.066C200.349 109.514 200.252 110.011 200.885 110.439C201.08 110.576 201.391 110.634 201.469 110.819C201.654 111.228 201.966 111.939 201.81 112.075C201.391 112.455 200.865 113.156 200.213 112.805C199.493 112.406 199.006 112.406 198.227 112.766C197.711 113.01 196.874 112.61 196.192 112.455C195.238 112.231 195.764 111.374 195.53 110.838C195.481 110.722 195.306 110.644 195.014 110.42C192.463 113.058 190.253 115.872 190.789 119.844C191.042 121.714 191.567 123.612 192.307 125.345C192.921 126.757 192.638 127.623 191.558 128.49C191.11 128.84 190.759 129.308 190.321 129.668C188.004 131.586 187.731 133.981 188.666 136.649C189.114 137.914 189.61 139.18 190.097 140.436C190.321 141.02 190.253 141.342 189.649 141.809C188.53 142.675 187.322 143.406 186.446 144.662C184.148 147.972 186.018 151.233 188.306 152.47C189.552 153.142 190.944 153.58 192.317 153.96C194.245 154.485 194.391 154.505 193.855 156.325C193.641 157.075 194.196 157.903 193.32 158.652C192.901 159.013 193.203 160.191 193.096 160.989C192.969 161.846 192.726 162.693 192.56 163.54C192.405 164.309 192.356 165.117 192.152 165.877C191.83 167.094 191.382 168.281 191.051 169.489C190.107 172.925 189.309 176.372 188.627 179.877C188.238 181.912 187.79 183.898 187.644 185.972C187.527 187.617 187.118 189.253 186.777 190.889C186.271 193.352 186.31 195.844 186.232 198.337C186.203 199.417 185.784 200.488 185.434 201.54C185.2 202.251 185.122 202.173 183.769 202.124C183.535 202.114 183.224 202.64 183.048 202.981C182.951 203.175 183.068 203.468 183.087 203.721C182.854 203.565 182.513 203.458 182.415 203.234C182.24 202.835 182.201 202.377 182.133 201.949C182.104 201.764 182.211 201.472 182.123 201.394C181.783 201.092 181.296 200.917 181.023 200.576C180.809 200.313 180.838 199.855 180.741 199.427C180.342 199.875 180.254 201.033 179.456 199.855C179.329 199.68 179.134 199.495 178.94 199.417C177.46 198.882 176.476 197.762 175.503 196.623C174.919 195.932 174.237 195.503 173.244 195.387C172.085 195.25 171.112 194.267 169.817 194.491C169.681 194.51 169.466 194.423 169.398 194.316C168.532 193.03 166.809 193.235 165.796 192.242C165.124 191.589 164.413 190.937 163.917 190.168C163.469 189.467 162.973 188.99 162.242 188.552C160.48 187.491 158.844 186.205 157.092 185.096C156.109 184.463 154.969 184.171 153.967 183.47C150.968 181.386 147.823 179.517 144.747 177.56C142.936 176.401 141.066 176.81 139.947 178.641C139.83 178.835 139.83 179.205 139.664 179.273C138.233 179.887 137.668 181.444 136.578 182.262C134.894 183.528 133.365 185.164 131.184 185.738C130.756 185.855 130.386 186.235 130.016 186.536C128.293 187.938 126.56 189.331 124.865 190.762C124.369 191.181 123.921 191.658 123.502 192.154C122.11 193.819 120.883 195.62 119.345 197.12C117.739 198.697 116.113 200.284 115.003 202.182C113.737 204.344 111.917 205.97 110.476 207.946C109.911 208.725 109.122 209.338 108.421 210.03C108.168 210.293 107.808 210.497 107.642 210.799C106.455 212.882 104.566 214.372 103.174 216.28C101.47 218.597 99.6588 220.837 97.9258 223.134C97.254 224.02 96.699 224.984 96.0564 225.899C94.8102 227.652 94.2942 229.726 93.4472 231.663C93.2524 232.101 92.717 232.501 92.2496 232.686C91.6655 232.9 90.9937 232.9 90.3511 232.929C90.2635 232.939 90.1369 232.588 90.0687 232.384C89.7572 231.4 88.7252 230.534 89.5333 229.346C89.5917 229.258 89.5041 229.034 89.4359 228.898C88.1605 226.415 88.1605 226.415 88.1605 224.595C88.1605 221.177 88.1605 217.76 88.1605 214.343C88.1605 213.174 87.9073 212.191 87.2453 211.11C86.4469 209.806 86.1841 208.17 85.7459 206.661C85.6778 206.408 85.9698 206.067 85.9796 205.765C86.0088 203.195 86.0478 200.615 86.0283 198.045C86.0185 197.412 85.6972 196.789 85.7459 196.175C85.8822 194.51 86.1062 192.865 86.3496 191.21C86.5053 190.197 86.8072 189.204 86.9337 188.192C87.3232 185.3 88.5694 182.603 88.696 179.634C88.7446 178.319 89.2801 177.024 89.6793 175.739C90.3316 173.626 91.091 171.523 91.1105 169.274C91.1203 168.719 91.5194 168.739 91.9089 168.603C92.7072 168.32 93.7198 168.525 94.2553 167.639C94.5376 167.181 94.8394 166.724 94.9952 166.208C95.3749 164.961 96.1051 164.007 97.1956 163.326C98.2665 162.654 99.3083 161.924 100.408 161.301C101.012 160.96 101.694 160.668 102.375 160.561C103.037 160.454 103.738 160.639 104.429 160.648C104.877 160.648 105.432 160.697 105.754 160.473C107.428 159.237 109.035 157.922 110.67 156.627C111.235 156.179 111.868 155.809 112.374 155.293C113.153 154.505 113.912 153.677 114.565 152.781C115.665 151.263 116.746 149.734 117.982 148.313C118.381 147.845 118.81 147.232 118.858 146.648C119.004 144.652 119.53 142.753 119.91 140.806C120.046 140.095 119.988 139.336 119.91 138.616C119.715 136.785 120.28 135.14 121.088 133.553C121.526 132.696 122.003 131.849 122.373 130.963C122.616 130.388 122.763 129.756 122.87 129.133C123.132 127.643 123.269 126.124 123.59 124.644C124.155 122.074 122.626 119.182 120.124 118.277C119.462 118.024 118.79 117.819 118.011 117.566ZM107.779 190.509C108.918 188.951 109.921 187.461 111.05 186.079C111.683 185.31 111.965 184.229 113.134 183.869C113.552 183.742 113.922 183.061 114.068 182.564C114.555 180.977 116.366 180.451 116.882 178.923C118.586 177.988 119.326 176.255 120.329 174.736C121.078 173.607 121.828 172.468 122.694 171.426C124.612 169.109 126.618 166.84 128.556 164.533C128.818 164.221 128.896 163.764 129.062 163.365C126.044 162.712 123.814 163.618 122.354 166.178C121.322 167.98 120.397 169.849 119.374 171.66C118.391 173.403 117.447 175.184 116.288 176.81C114.019 180.023 111.595 183.129 109.278 186.313C108.421 187.51 107.409 188.717 107.779 190.509ZM180.867 141.186C182.484 140.66 181.89 139.521 182.172 138.742C182.883 136.834 183.555 134.877 183.876 132.871C184.402 129.6 185.628 126.514 186.086 123.242C186.32 121.529 187.099 119.796 186.018 118.072C185.677 117.537 185.92 117.011 186.281 116.515C186.359 116.407 186.222 116.008 186.076 115.921C185.93 115.823 185.57 115.882 185.443 116.008C185.181 116.291 184.986 116.641 184.83 117.001C184.032 118.793 183.253 120.594 182.493 122.405C182.377 122.687 182.445 123.038 182.415 123.359C182.347 124.216 182.26 125.053 182.036 125.92C181.578 127.672 181.578 129.551 181.452 131.382C181.354 132.832 181.383 134.283 181.296 135.734C181.189 137.496 181.023 139.248 180.867 141.186ZM162.32 147.894C162.067 147.417 161.843 146.93 161.551 146.502C161.483 146.395 161.123 146.326 161.035 146.404C160.655 146.735 160.324 147.115 160.003 147.505C159.945 147.573 160.022 147.826 160.11 147.923C160.616 148.576 160.616 148.566 160.48 148.877C159.993 150.036 159.224 151.107 159.458 152.48C159.506 152.762 159.36 153.112 159.224 153.375C159.039 153.736 158.767 154.174 159.292 154.33C159.545 154.398 160.061 154.076 160.246 153.784C160.977 152.655 161.678 151.506 162.281 150.309C162.651 149.569 161.347 148.741 162.32 147.894ZM171.871 178.475C172.884 179.75 173.877 180.997 175.123 182.574C174.967 180.792 175.698 179.38 175.016 178.105C173.965 178.222 172.971 178.339 171.871 178.475Z" fill="#D8B06C"/>
<path d="M47.9696 215.695C47.7944 215.792 47.6386 215.948 47.5217 215.919C46.3145 215.597 45.6135 216.367 45.5551 217.292C45.4967 218.119 45.0877 218.236 44.5717 218.616C42.6342 220.066 41.4854 222.169 40.395 224.263C39.9763 225.061 39.7719 225.986 39.5771 226.872C39.2072 228.537 38.808 230.202 38.6132 231.886C38.4769 233.006 37.2989 233.707 37.591 234.924C36.6758 236.676 36.4811 238.75 35.1959 240.405C35.4588 240.687 35.78 241.028 36.15 241.427C35.0304 241.953 34.2028 240.999 33.2389 240.95L32.1582 240.162C31.9635 239.986 31.7883 239.684 31.5643 239.646C29.7729 239.285 29.5198 239.061 29.1985 237.328C29.0232 236.413 28.9648 235.459 28.6727 234.592C28.5072 234.096 27.9814 233.726 27.5336 233.22C25.9661 234.505 24.9827 236.345 23.2887 237.435C23.0842 237.572 23.0842 238 22.8797 238.146C21.4193 239.159 19.9687 240.21 18.4304 241.106C16.785 242.07 14.9156 242.605 13.3871 243.813C13.0852 244.046 12.3453 244.144 12.1116 243.939C11.6346 243.53 11.4983 243.822 11.1867 244.046C11.0601 244.134 10.3007 244.397 10.6902 243.569C10.8654 243.189 10.9628 242.605 10.7972 242.255C10.067 240.668 10.4176 239.207 11.1186 237.747C11.6735 236.579 12.6179 235.537 12.4329 234.096C13.4358 233.239 13.4455 231.866 14.1173 230.854C14.3704 230.474 14.3217 230.338 14.0296 230.143C13.8739 230.046 13.6694 229.929 13.5136 229.948C13.2994 229.978 12.9781 230.289 12.9295 230.25C12.0727 229.452 10.9336 229.987 9.98917 229.578C8.65533 229.014 7.19491 228.722 6.09474 227.66C5.90001 227.466 5.53979 227.436 5.25745 227.31C4.91668 227.154 4.58563 226.95 4.2254 226.823C3.16416 226.482 2.53133 225.713 2.07373 224.759C2.75526 224.126 3.33942 223.26 4.13777 222.938C4.84851 222.656 3.53414 221.653 4.68299 221.877C5.60792 220.874 7.0586 220.777 8.06141 219.911C8.27561 219.726 12.6082 218.44 12.8613 218.421C14.3412 218.324 15.5679 217.272 17.1354 217.34C17.5152 217.35 18.0409 216.483 18.333 215.938C19.5111 213.718 20.4554 211.411 21.3609 209.055C22.4903 206.124 24.1162 203.408 25.9174 200.847C26.2776 200.321 27.1636 200.107 27.4265 199.27C27.5141 199.007 28.0593 198.783 28.4098 198.783C28.5851 198.783 28.7116 199.358 28.9356 199.601C31.1554 201.986 32.1193 204.995 33.1416 207.964C33.2779 208.383 33.2487 209.026 33.0053 209.357C32.6353 209.882 32.6645 209.96 33.2584 210.028C33.4044 210.048 33.6186 210.33 33.6284 210.505C33.6771 210.992 33.5797 211.508 33.6673 211.985C33.7452 212.423 33.901 212.92 34.2028 213.222C34.4365 213.446 35.0596 213.582 35.2835 213.436C35.8872 213.037 36.0819 214.332 36.7244 213.66C36.9386 213.436 37.5228 213.971 37.9609 213.485C38.3114 213.105 38.5159 214.137 39.1292 213.718C39.5284 213.436 40.1905 213.504 40.7357 213.475C41.2907 213.436 41.797 213.193 42.2838 213.076C43.3645 212.803 44.562 212.92 45.7011 213.008C46.1684 213.037 45.7887 214.166 46.7331 214.03C46.9473 214.001 47.8138 214.604 46.9571 215.198C47.2881 215.354 47.6191 215.52 47.9696 215.695ZM33.8523 236.734C34.4754 235.878 34.3294 234.729 35.0596 234.232C36.1792 233.483 35.2543 232.451 35.634 231.681C35.7898 231.36 36.4324 231.195 36.4713 230.912C36.5297 230.513 36.15 230.055 36.1403 229.617C36.1305 229.384 36.52 229.131 36.7244 228.887C36.8413 228.761 36.9581 228.653 37.075 228.537C35.7801 227.602 37.1041 226.658 37.1528 225.742C37.221 224.545 37.4352 223.123 38.1459 222.257C39.4992 220.602 40.2294 218.47 42.0209 217.175C42.4006 216.892 42.7803 216.61 43.16 216.337C42.8971 216.074 42.8484 215.987 42.7803 215.958C42.089 215.705 41.5925 216.376 41.0181 216.396C39.6647 216.444 38.4477 217.175 37.0263 216.98C36.2279 216.863 35.3322 217.467 34.5338 217.35C34.0373 217.282 33.677 217.253 33.2 217.389C32.6548 217.554 32.0024 217.525 32.1582 216.59C32.2556 215.987 32.0219 215.549 31.5935 215.081C31.1944 214.643 30.6686 213.991 30.7368 213.504C30.9315 212.092 30.1526 210.866 30.1818 209.512C30.2402 207.215 29.0621 205.248 28.5461 203.018C28.2541 203.31 28.0204 203.457 27.9133 203.671C26.375 206.65 24.8172 209.649 23.4736 212.696C22.4611 214.994 21.1759 217.165 20.2899 219.521C20.0855 220.086 19.6863 220.563 19.0048 219.969C16.9699 221.196 14.6041 221.283 12.4037 221.906C10.661 222.403 8.98636 223.162 7.29228 223.863C6.80548 224.058 6.87363 224.477 7.22413 224.827C7.39937 225.002 7.56488 225.285 7.7596 225.314C10.291 225.694 12.5692 227.281 15.2953 226.833C16.2397 226.677 17.2425 226.804 18.2551 226.804C18.294 227.144 18.4109 227.417 18.3233 227.592C17.9435 228.342 17.4081 229.023 17.1062 229.802C16.8044 230.591 16.8336 231.496 16.5416 232.285C15.5972 234.729 14.5651 237.134 13.5428 239.626C13.796 239.597 14.088 239.665 14.2341 239.548C15.3635 238.584 16.6584 237.893 17.9241 237.143C19.1411 236.423 20.2705 235.488 21.2246 234.446C21.6043 234.028 21.838 233.551 22.4027 233.181C23.7755 232.266 24.973 231.068 26.2484 229.978C26.2971 228.8 27.1052 229.208 27.6017 229.442C28.4488 229.841 29.2082 230.318 30.2207 230.309C30.766 230.299 31.1554 230.776 31.2041 231.467C31.243 231.983 31.7883 232.782 31.6227 232.947C30.4739 234.047 32.2945 233.512 32.1972 234.076C32.1193 234.544 31.8759 235.206 32.8884 235.284C33.2389 235.293 33.5115 236.179 33.8523 236.734Z" fill="white"/>
<path d="M263.672 71.1625C261.959 72.6424 260.46 74.3073 258.61 75.388C257.402 76.089 255.699 75.9137 254.121 76.1474C253.868 75.3783 253.654 74.7357 253.45 74.0736C253.274 73.4895 252.807 72.5353 253.002 72.3698C253.858 71.6201 252.612 71.1625 252.924 70.481C253.401 69.449 253.596 68.2806 254.092 67.2681C254.326 66.791 254.598 66.5282 254.141 66.0414C253.81 65.6909 253.907 65.0872 253.07 65.0677C252.34 65.058 251.648 64.503 250.801 64.6004C250.48 64.6393 250.11 64.3181 249.769 64.1526C248.046 63.3055 247.988 63.1011 249.623 62.2053C250.412 61.7769 250.256 60.521 251.356 60.5502C251.317 60.4334 251.308 60.297 251.239 60.2094C250.694 59.5182 250.918 59.3332 251.726 59.1579C252.768 58.9243 253.304 57.6002 254.589 57.7073C254.686 57.717 254.793 57.3568 254.939 57.201C255.251 56.8699 255.543 56.3637 255.913 56.2858C257.13 56.0619 258.191 55.7308 258.542 54.3775C258.775 54.4749 259.009 54.582 259.447 54.7767C258.736 51.9435 261.209 50.561 262.027 48.4288C263.088 48.2146 263.254 47.1436 263.78 46.4718C264.85 45.1088 265.435 44.9627 266.457 46.3355C267.275 47.4357 268.044 48.643 268.219 50.0352C268.297 50.6876 269.465 51.3886 268.278 52.0798C269.076 52.5861 268.599 53.4234 268.803 54.0952C269.28 53.9978 269.757 53.8615 270.235 53.7933C270.77 53.7252 271.179 52.7905 271.899 53.6279C272.045 53.8031 272.824 53.365 273.331 53.3065C273.895 53.2384 274.489 53.3552 275.054 53.2773C275.58 53.1994 276.125 52.7516 276.573 52.8587C277.147 52.995 277.566 53.141 278.169 52.8489C278.637 52.625 279.299 52.8003 280 52.8003C279.571 54.2704 278.851 55.6724 279.133 57.2302C279.279 58.0285 278.822 58.7782 278.403 59.119C276.845 60.3652 276.359 62.5656 274.314 63.3931C273.769 63.6073 273.253 64.6783 273.272 65.3404C273.34 67.2097 271.929 68.709 272.192 70.6076C272.289 71.2988 271.121 71.4838 271.189 72.4185C271.218 72.9442 270.721 73.5187 270.459 74.0639C270.264 74.4631 270.936 74.9207 270.283 75.3296C269.933 75.5438 269.865 76.2448 269.514 76.4297C269.212 76.5758 268.589 76.79 268.287 76.1182C268.034 75.5632 267.645 75.0667 267.314 74.5507C267.197 74.3754 267.08 74.0444 266.953 74.0444C265.269 74.0249 264.773 72.6619 264.072 71.5325C263.955 71.3962 263.809 71.2988 263.672 71.1625ZM261.365 56.9771C260.138 57.6099 258.98 58.0772 257.987 58.7588C256.779 59.5961 255.183 59.8005 254.258 61.1052C253.79 61.7769 253.81 61.8548 254.598 62.2053C255.436 62.5753 256.263 63.0037 256.984 63.5586C257.276 63.7826 257.159 64.4933 257.422 64.8243C258.551 66.275 257.432 67.4531 257.032 68.709C256.701 69.7216 256.263 70.6952 255.952 71.7078C255.884 71.9414 256.088 72.2822 256.244 72.5256C256.273 72.5743 256.692 72.4574 256.867 72.3309C257.685 71.7077 258.512 71.1041 259.272 70.4128C260.07 69.7021 260.683 68.5046 261.569 68.2612C262.728 67.9496 262.767 66.8202 263.702 66.3529C264.704 65.8661 264.977 65.5838 265.279 66.5963C265.766 68.2125 267.002 69.4879 267.294 71.1917C267.324 71.3378 267.635 71.5325 267.801 71.5228C267.956 71.513 268.2 71.2891 268.248 71.1236C268.346 70.6563 268.239 70.1208 268.424 69.7118C268.774 68.9427 269.134 68.232 269.339 67.3654C269.553 66.4405 269.826 65.5448 269.738 64.6004C269.689 64.0357 270.05 63.7534 270.283 63.3347C271.393 61.3875 273.194 60.1023 274.664 58.5056C275.268 57.8533 275.969 57.2789 275.92 56.2371C274.674 56.3832 273.389 55.9937 272.162 56.7142C271.744 56.9673 270.828 56.9771 270.507 56.6947C269.689 55.9645 269.134 56.3053 268.394 56.7337C267.421 57.2984 267.382 57.2302 266.759 55.984C266.73 55.9158 266.622 55.8087 266.593 55.8185C266.36 55.8964 266.126 56.0035 265.892 56.1008C265.863 55.7795 265.951 55.2927 265.785 55.1856C264.948 54.6015 266.106 53.9686 265.775 53.6279C265.133 52.9853 265.328 52.2745 265.328 51.5833C265.328 51.1841 265.62 50.7752 265.571 50.3955C265.513 49.8795 265.259 49.3829 265.123 48.9837C264.432 50.0936 263.536 51.1841 263.03 52.44C262.407 53.9686 260.752 55.1369 261.365 56.9771Z" fill="white"/>
<path d="M0.0584141 11.9287C0.467329 11.9287 1.0807 12.0942 1.24622 11.8994C1.62592 11.4516 1.84985 10.8382 2.00563 10.2638C2.14194 9.73804 1.98618 9.1052 2.1809 8.59893C2.90137 6.75881 3.7484 4.97709 4.4786 3.13697C5.14066 1.50131 6.68869 1.02425 8.03227 0.255099C8.11989 0.206419 8.33409 0.216144 8.37304 0.274561C8.89878 1.07292 9.65821 1.1703 10.515 1.08267C10.6318 1.07294 10.8655 1.20923 10.8947 1.31633C11.3133 2.86437 13.1145 3.00067 13.8642 4.23715C14.5847 5.43469 15.3538 6.65169 16.3274 7.63504C16.9992 8.31656 16.6 9.33887 17.4763 9.93277C18.1578 10.3904 18.4986 11.325 19.0925 11.9287C19.628 12.4739 20.0564 12.9996 19.8616 13.944C20.7963 12.7075 22.062 12.211 23.2985 11.9773C24.5252 11.7437 25.4307 10.6435 26.8424 10.8966C27.4655 11.0037 28.1762 10.5169 28.8578 10.478C29.919 10.4001 31.0094 10.3612 32.0609 10.4877C32.9664 10.5851 33.6868 11.2666 34.5923 11.5392C35.2251 11.7339 35.7217 12.7075 36.0527 13.428C36.2961 13.9538 36.5201 13.9927 36.929 13.8175C37.2795 13.6714 37.63 13.4962 37.9415 13.2917C38.331 13.0289 38.6523 12.6005 39.0806 12.4642C39.8887 12.2013 40.7455 12.0357 41.5828 11.9579C42.5662 11.8702 43.5495 11.9287 44.5426 11.9481C44.6789 11.9481 44.8444 12.0455 44.9418 12.1623C45.3604 12.6394 45.7596 13.1262 46.3924 12.4447C46.5774 12.6394 46.7527 12.8341 46.9571 13.0094C47.074 13.1165 47.2297 13.2625 47.3563 13.2528C48.1449 13.2138 49.3911 13.6812 49.3619 14.1582C49.3327 14.5185 48.5246 15.0539 49.1575 15.2876C49.9364 15.5894 50.1992 16.0276 50.54 16.6994C50.9879 17.5853 51.3578 17.5172 52.3898 16.6604C52.7793 16.3391 55.6904 15.862 56.2551 16.0568C56.4693 16.1249 56.6737 16.3781 56.8587 16.3586C58.767 16.1444 59.9451 17.3419 61.1621 18.4908C61.5807 18.89 61.9799 19.3086 62.5543 19.883C62.973 19.2502 63.304 18.5881 63.8005 18.0721C64.2776 17.5756 64.8715 17.1277 65.5044 16.8551C66.8966 16.2515 68.1818 15.2973 69.8272 15.3655C70.275 15.385 70.7326 15.1903 71.1805 15.0832C73.4685 14.5185 75.5131 15.0539 77.3629 16.4365C77.7816 16.7578 78.2197 17.1083 77.5966 17.6535C78.0055 17.8579 78.4144 18.0624 78.8817 18.2961C79.0959 16.7188 79.3004 15.0831 79.5243 13.4475C79.5633 13.1359 79.534 12.6297 79.6801 12.5518C80.2156 12.3181 79.7288 11.4029 80.644 11.3834C81.5007 11.3542 80.1182 10.7409 80.7316 10.4488C81.1795 10.2346 80.8289 9.18308 81.7539 9.43622C81.676 9.20255 81.4521 8.85207 81.5397 8.75471C82.1044 8.11213 82.5425 7.23587 83.6622 7.46954C84.0711 7.55716 84.3339 7.46952 84.4897 6.90483C84.8499 5.55151 84.9084 5.57099 86.213 5.51258C86.5927 5.50284 86.9821 5.51258 87.4397 5.51258C87.2645 5.08419 87.0406 4.67529 87.0893 4.64608C87.5955 4.28585 88.1407 3.99376 88.6275 3.64327C89.1922 3.32198 88.6957 5.03553 89.2896 4.07166C89.6596 3.47775 90.2048 3.3609 90.5261 3.22459C91.5094 2.82541 92.6194 2.69887 93.7001 2.55283C94.7029 2.41652 95.7738 2.76702 96.7182 2.06603C97.059 1.80315 97.575 2.96173 98.0229 2.04653C98.6265 2.90331 99.5222 2.51388 100.282 2.51388C101.031 2.50414 101.654 2.75728 102.297 3.02989C102.784 3.23435 103.319 3.34143 103.816 3.53615C104.234 3.70167 104.653 3.90613 105.043 4.14953C106.97 5.33733 108.002 7.43058 109.774 8.82284C110.874 8.79363 111.176 7.20666 112.423 7.37217C113.114 6.34988 114.457 6.60302 115.275 5.94097C116.151 5.2497 117.037 4.92842 118.108 5.00631C119.588 3.61405 121.701 3.70168 123.346 2.78649C124.252 2.28021 125.352 3.10777 126.053 2.1439C129.13 1.64736 132.05 0.235634 135.263 0.566661C139.275 -0.455628 143.354 0.245369 147.395 0.109064C148.543 0.0701194 149.712 -0.163562 150.929 0.488755C151.902 1.0145 153.334 0.118801 154.385 1.05346C156.576 0.712702 158.503 2.04654 160.636 2.05628C161.736 2.05628 162.466 3.28302 163.673 3.0591C164.043 3.6822 164.657 3.47776 165.212 3.52644C165.591 3.56538 166.166 3.54591 166.312 3.76984C167.12 4.95764 168.512 4.4416 169.573 4.8992C170.226 5.18155 171.034 5.34706 171.706 5.68782C173.205 6.4375 174.646 7.32349 176.135 8.10238C177.654 8.891 178.706 10.3806 180.4 10.9161C180.984 12.1623 182.347 12.6199 183.194 13.6422C184.051 14.684 185.278 15.4239 186.193 16.3586C187.059 17.2348 187.79 18.3545 188.734 19.1918C189.649 20.0096 190.146 21.1877 191.294 21.8205C192.375 22.4144 193.446 23.1057 194.342 23.943C194.634 24.2253 196.124 24.4298 194.994 25.4618C195.121 25.5495 195.257 25.715 195.364 25.7052C196.688 25.5495 197.253 26.6594 197.847 27.409C198.996 28.8597 199.814 30.5635 200.933 32.0239C202.033 33.4454 202.734 35.1298 203.951 36.4733C204.438 36.9991 204.458 37.924 204.867 38.5374C206.424 40.8546 206.794 43.6683 208.138 46.0731C208.42 46.5891 208.411 47.2804 208.508 47.8937C208.79 49.6657 209.822 51.1359 210.436 52.7715C210.884 53.9398 211.253 55.0887 210.981 56.3544C210.952 56.5102 211.01 56.7146 211.078 56.8801C211.633 58.2335 212.324 59.5381 212.276 61.0861C212.256 61.6703 212.461 62.3324 212.763 62.8386C213.434 63.968 213.464 65.0877 212.938 66.2268C212.655 66.8207 213.172 66.5578 213.318 66.7039C213.512 66.8888 213.736 67.3756 213.707 67.3951C213.084 67.8138 213.493 68.0669 213.756 68.4953C214.174 69.206 214.447 70.0141 214.71 70.8125C214.905 71.3966 214.038 71.9127 214.681 72.6623C215.08 73.1297 215.06 73.967 215.216 74.6388C215.372 75.3203 214.866 76.1284 215.596 76.7028C214.788 77.6764 215.644 78.134 216.151 78.7863C216.462 79.1855 216.569 79.7697 216.676 80.2857C216.793 80.8212 216.608 81.6585 216.91 81.8824C217.621 82.4081 218.526 82.8171 219.393 82.9631C221.457 83.3039 223.375 84.1217 225.4 84.5696C226.14 84.7351 226.851 85.1829 227.581 85.2219C229.178 85.2998 230.395 86.5655 232.021 86.4778C232.352 86.4584 232.731 86.731 233.043 86.9549C233.491 87.2859 234.075 87.6072 234.27 88.0746C234.425 88.4543 234.172 89.0774 233.948 89.5058C233.578 90.2262 233.053 90.8688 233.9 91.6185C233.968 91.6866 233.685 92.3487 233.637 92.3389C232.702 92.1929 233.033 93.1373 232.673 93.4878C231.651 94.4906 230.911 95.7953 229.81 96.7007C228.788 97.5575 227.961 98.5603 227.114 99.5339C225.517 101.384 224.232 103.497 222.567 105.268C221.136 106.787 220.435 108.803 218.867 110.166C218.127 110.818 218.147 112.201 216.813 112.249C216.91 113.476 215.937 114.05 215.245 114.81C214.554 115.589 213.931 116.416 213.21 117.166C212.802 117.594 212.227 117.857 211.789 118.266C211.078 118.938 210.961 119.415 211.623 120.087C212.169 120.632 212.256 121.158 212.247 121.83C212.227 124.049 212.276 126.279 212.227 128.489C212.198 129.91 211.653 131.264 211.701 132.734C211.75 134.058 211.419 135.392 211.253 136.726C211.234 136.882 211.234 137.086 211.137 137.164C209.91 138.186 209.764 139.724 209.297 141.097C208.829 142.47 207.885 143.619 207.593 145.089C207.427 145.946 206.901 146.978 206.2 147.406C205.412 147.893 205.159 148.672 204.565 149.227C203.65 150.093 202.803 151.086 202.121 152.148C201.566 153.024 201.138 153.89 200.038 154.221C199.755 154.309 199.609 154.835 199.405 155.156C199.648 155.292 199.94 155.37 200.135 155.555C200.281 155.701 200.369 155.964 200.388 156.178C200.417 156.753 200.417 157.327 200.398 157.902C200.388 158.389 200.476 159.187 200.271 159.284C199.395 159.664 200.904 160.287 200.076 160.589C199.96 160.638 199.892 161.027 199.921 161.241C200.281 163.685 199.473 166.031 199.375 168.436C199.327 169.478 198.704 170.471 198.519 171.522C198.217 173.207 197.74 174.842 197.35 176.488C196.747 179.107 196.62 181.843 195.53 184.355C195.189 185.143 195.9 186.166 195.004 186.847C195.306 188.648 194.371 190.225 193.904 191.832C193.3 193.828 193.135 195.989 192.307 197.82C191.041 200.614 190.827 203.768 189.114 206.387C188.851 206.777 188.851 207.429 188.383 207.799C187.76 208.286 187.488 208.87 187.556 209.688C187.634 210.584 186.173 210.895 186.563 212.005C186.573 212.034 186.222 212.287 186.018 212.307C185.122 212.375 184.275 212.073 183.408 211.888C182.503 211.703 182.133 211.041 181.646 210.418C181.111 209.727 180.643 208.724 179.923 208.471C178.161 207.838 177.722 205.901 176.223 205.092C172.475 199.816 172.377 200.195 167.86 196.301C167.354 194.938 165.903 194.724 164.939 193.906C163.995 193.107 162.982 192.163 161.853 191.881C160.684 191.589 159.944 190.664 158.698 190.469C157.491 190.284 156.488 189.077 155.281 188.677C153.976 188.259 153.051 187.314 151.893 186.721C148.952 185.211 146.557 182.807 143.393 181.619C142.38 181.239 141.757 181.122 140.823 181.784C137.055 184.452 133.248 187.061 130.132 190.527C129.461 191.267 128.886 192.319 127.591 192.114C127.455 193.468 126.063 193.565 125.333 194.334C124.563 195.132 123.629 195.746 122.762 196.447C120.815 198.063 118.926 199.757 116.901 201.286C114.496 203.097 112.695 205.647 109.852 206.894C109.784 206.923 109.735 207.02 109.677 207.059C108.927 207.478 109.171 208.685 108.012 208.928C107.243 209.094 106.532 209.785 105.919 210.36C105.111 211.119 104.419 211.995 103.689 212.842C103.592 212.959 103.543 213.242 103.495 213.232C102.589 213.164 101.985 213.641 101.46 214.293C101.002 214.858 100.34 215.15 99.863 215.792C99.1717 216.717 97.8476 217.194 97.2148 218.139C96.358 219.434 95.3065 220.378 94.0505 221.225C92.7946 222.082 92.1617 223.688 90.5845 224.175C90.0198 225.782 88.1992 225.606 87.1574 226.561C86.8556 226.843 86.3882 226.619 86.4077 226.035C86.4467 224.847 85.3757 226.931 85.4244 225.704C85.4536 225.12 85.4925 224.526 84.626 224.594C84.665 224.302 84.8305 223.854 84.7136 223.757C84.4605 223.542 83.9348 223.747 83.9153 223.104C83.9055 222.744 83.5551 222.394 83.5648 222.033C83.6037 220.349 82.2699 219.035 82.3186 217.36C81.5397 217.058 82.6204 216.688 82.2894 216.299C82.0654 216.036 82.007 215.588 81.9778 215.208C81.9097 214.429 82.0265 213.689 81.53 212.911C81.1503 212.307 81.7733 211.343 81.0821 210.623C80.8679 210.408 80.9945 209.853 80.9847 209.445C80.975 208.948 80.9945 208.461 80.975 207.965C80.9555 207.488 81.0918 206.748 80.8387 206.572C80.1864 206.115 81.1794 205.764 80.8095 205.492C80.0987 204.966 81.1503 204.8 81.0139 204.333C80.8776 203.885 81.1697 203.233 80.9458 202.882C80.4006 202.065 80.6537 201.179 80.4492 200.351C80.2545 199.582 80.605 198.686 80.2935 198.131C79.7774 197.226 80.4493 196.135 79.943 195.58C79.1057 194.646 80.3908 193.779 79.6509 192.854C79.1057 192.182 79.7093 191.034 79.0764 190.138C78.8233 189.778 80.0987 188.97 79.0278 188.366C80.0793 186.536 79.2809 184.549 79.5146 182.641C79.6314 181.716 79.3588 180.791 79.9527 179.847C80.2935 179.321 80.3129 178.182 79.9527 177.715C79.1154 176.614 79.8164 175.826 80.1377 174.92C80.2156 174.706 80.459 174.541 80.4784 174.336C80.5077 174.034 80.4979 173.606 80.3227 173.44C80.1279 173.265 79.6314 173.207 79.4172 173.333C77.7816 174.356 75.922 174.813 74.15 175.524C72.8746 176.04 71.4629 176.293 70.3043 176.945C69.0386 177.656 67.51 177.306 66.3903 178.25C65.1636 177.637 64.1608 178.494 63.0509 178.727C61.8241 178.98 60.539 179.01 59.3122 179.263C58.582 179.418 57.7934 180.158 57.219 179.993C56.4109 179.779 55.7196 180.09 55.2328 180.314C54.5221 180.635 53.8795 180.655 53.1785 180.733C52.0101 180.859 50.8418 181.035 49.6832 181.22C48.5149 181.414 47.3174 180.82 46.1393 181.638C45.7596 181.901 44.8541 181.288 44.1726 181.229C41.6802 181.025 39.2754 180.597 36.8511 179.847C31.7883 178.289 31.1652 177.763 27.7284 175.621C26.0732 174.589 24.4473 173.567 22.8701 172.399C22.1593 171.873 21.5362 171.269 20.8937 170.695C19.7351 169.653 18.6738 168.495 17.5639 167.394C15.6362 165.476 13.835 163.442 12.3356 161.173C11.4107 161.183 11.4399 160.258 10.9823 159.791C10.5636 159.352 10.1937 158.836 9.85291 158.311C8.75273 156.636 8.70406 154.669 8.00306 152.897C7.5552 151.787 7.69152 150.434 6.95158 149.392C6.5524 148.837 7.77912 148.721 7.14628 147.961C6.73736 147.474 7.04894 146.403 6.95158 145.595C6.86395 144.914 6.73736 144.203 6.44528 143.59C6.02663 142.694 7.72073 141.886 6.49398 141.019C6.48424 140.036 6.47452 139.053 6.47452 138.069C6.46478 137.086 6.47452 136.103 6.47452 135.11C6.47452 134.126 6.47452 133.143 6.47452 132.15C6.47452 131.157 6.50372 130.173 6.46477 129.19C6.42583 127.992 7.17549 126.951 7.00024 125.695C6.84447 124.614 6.78606 123.475 7.43838 122.433C7.58442 122.2 7.41891 121.781 7.46759 121.46C7.66231 120.281 7.10736 119.084 7.80836 117.896C8.36331 116.961 7.60387 115.715 8.3925 114.674C8.71379 114.255 8.38277 113.388 8.46066 112.746C8.52881 112.22 8.8209 111.743 8.928 111.217C9.12272 110.224 9.32718 109.221 9.4148 108.219C9.49269 107.235 9.40507 106.252 9.44401 105.259C9.46348 104.889 9.65819 104.529 9.76529 104.159C10.1742 102.766 10.4176 101.296 11.031 100.001C11.6249 98.7356 12.0727 97.4796 12.4427 96.136C12.8322 94.7632 13.3092 93.3807 13.8545 92.0371C14.3997 90.7033 14.8086 89.3013 15.3635 87.9772C15.6654 87.2762 16.2982 86.7115 16.5221 85.991C16.8532 84.9493 18.041 84.4138 18.002 83.1286C17.9826 82.4568 19.5111 82.7684 19.3748 81.493C19.3067 80.8991 20.1147 80.1981 20.5431 79.5555C20.9326 78.9713 21.3902 78.4358 21.7504 77.8322C22.1398 77.1799 22.3151 76.3328 22.8311 75.8363C24.0092 74.7069 24.5641 73.2854 25.2943 71.9127C25.8104 70.9293 25.7519 70.1309 25.4501 69.2157C25.0217 67.8819 25.0023 67.4925 25.3917 65.6816C26.0246 66.3728 26.6379 66.9667 27.1637 67.6385C27.7186 68.3395 27.962 68.3882 28.4586 67.6677C29.5198 66.1392 30.766 64.6885 31.5352 63.0139C32.1193 61.7287 33.3655 61.1056 33.9497 59.8302C34.3878 58.876 35.4978 58.1556 36.1598 57.2988C37.3671 55.7605 38.7788 54.4753 40.1029 53.0831C41.3686 51.7492 42.5369 50.3375 43.7637 48.9842C45.0975 47.5238 46.704 46.3067 48.2326 45.0313C49.6638 43.8338 51.3968 43.0744 52.8572 41.8671C53.8308 41.059 55.0965 40.5333 56.3135 40.1244C57.4721 39.7349 58.6696 39.4526 59.7309 38.8392C60.2956 38.5179 60.7337 38.4595 61.2497 38.8684C61.8339 39.326 61.8826 39.7739 61.2984 40.2412C60.685 40.728 60.0716 41.2245 59.3998 41.6237C58.8546 41.945 60.3637 42.3539 59.3025 42.5681C58.8546 42.6557 58.4554 42.8894 58.027 43.0452C57.8129 43.1231 57.5013 43.0744 57.365 43.2204C55.8072 44.9437 53.3927 45.4597 51.8446 47.2025C51.3384 47.7672 50.3453 47.4848 49.7903 48.2442C49.3912 48.7797 48.9725 49.3931 48.1255 49.5489C47.6581 49.6365 47.1518 50.2499 46.9571 50.7367C46.7916 51.1456 46.7429 51.3209 46.2659 51.4766C45.5357 51.72 45.0196 52.4015 44.416 52.8786C43.7053 53.4238 43.199 54.008 42.7803 54.7869C42.2741 55.7216 41.096 56.0136 40.5313 57.0164C39.8693 58.1848 38.3796 58.73 37.9513 60.1515C36.4714 60.5604 36.6272 62.2642 35.6146 63.1307C34.9428 63.6954 34.3002 64.4646 33.8232 65.2726C33.3461 66.0613 32.9372 66.8888 32.4114 67.6483C31.8273 68.4856 31.1847 69.2937 30.4934 70.0531C30.0358 70.5593 29.9871 71.0559 30.2987 71.5719C30.8244 72.4287 31.3697 73.2562 32.022 74.0546C32.9566 75.184 33.8037 76.4302 34.7578 77.5985C35.673 78.7182 36.2572 80.1104 36.9484 81.3761C37.6981 82.7489 39.3532 83.3136 39.6843 84.9201C41.0279 85.7476 41.8359 87.1107 42.9556 88.1719C44.6983 89.8368 46.4314 91.5211 48.3299 92.9913C49.2646 93.7117 50.5108 94.0817 51.5428 94.7535C51.7375 94.8703 52.1952 94.5685 52.5359 94.4517C54.7655 93.6825 56.8003 92.4363 59.098 91.8229C61.5223 91.1706 63.7616 89.9147 66.254 89.4474C67.0524 88.4056 68.357 89.3013 69.3696 88.5808C70.1193 88.0551 71.3363 88.2401 72.3001 87.948C75.4254 87.0231 78.7065 86.8089 81.7831 85.806C82.8151 85.4653 83.9542 85.9326 84.8305 85.1537C85.0739 85.5432 85.2297 85.3387 85.5412 85.1635C86.3591 84.6961 87.2353 84.443 88.2284 84.4722C88.978 84.4917 89.7375 84.1704 90.4871 84.0243C91.1687 83.888 91.821 83.9951 92.5609 83.6544C93.5735 83.1773 94.8586 83.6154 96.0172 83.0897C96.9129 82.6807 97.9937 82.6418 98.9965 82.5639C99.9409 82.4958 100.905 82.6224 101.752 82.0479C102.93 82.5931 104.108 81.9506 105.286 82.009C106.114 82.0479 106.961 81.7266 107.798 81.5416C107.895 81.5222 107.963 81.3469 108.041 81.2398C106.785 80.3344 108.616 80.0131 108.421 79.7307C107.691 78.6695 109.424 78.7085 109.161 77.7641C109.025 77.2773 109.687 76.5568 109.998 75.9434C110.339 75.2619 110.69 74.5803 111.069 73.9183C111.186 73.7138 111.371 73.451 111.576 73.4023C112.939 73.0226 113.221 72.0782 113.055 70.8319C113.026 70.6372 113.309 70.3841 113.27 70.1991C113.104 69.4884 115.139 70.2088 114.039 68.9723C114.545 68.69 115.158 68.6413 115.08 67.6969C115.032 67.1225 115.684 66.4994 115.996 65.8958C116.278 65.3506 116.424 64.7274 116.794 64.2601C118.118 62.5368 118.235 60.1515 119.919 58.6326C119.91 57.6493 120.328 56.8315 120.942 56.0915C120.494 54.8064 122.451 54.3682 122.013 53.0831C123.161 53.0539 122.762 52.1679 122.947 51.535C123.132 50.8827 123.804 50.3278 123.843 49.7047C123.892 48.955 124.573 49.1302 124.7 48.8479C125.206 47.7672 126.15 46.9007 126.55 45.9076C127.007 44.7685 127.776 43.9409 128.38 42.9673C129.811 40.6598 131.408 38.4595 132.956 36.2202C133.54 35.3829 134.202 34.604 134.757 33.757C135.273 32.9489 135.302 31.7611 136.588 31.5761C136.675 31.5663 136.685 31.1477 136.772 30.9432C136.928 30.5927 137.055 30.1935 137.318 29.9501C137.464 29.8236 137.892 30.0767 138.155 30.0086C138.359 29.9599 138.515 29.6873 138.681 29.512C137.882 28.9668 138.632 28.3632 138.807 28.0029C139.041 27.4869 139.723 27.1656 140.219 26.7762C140.336 26.6788 140.56 26.6788 140.618 26.5815C140.988 25.9973 141.348 25.4131 141.67 24.7998C142.419 23.3685 143.734 22.2781 144.143 20.6425C144.892 20.4088 145.175 19.9707 145.184 19.1236C145.194 18.481 145.837 19.8441 146.119 19.036C146.255 18.6758 146.45 18.3253 146.703 18.0527C146.986 17.7508 147.433 18.705 147.735 17.9845C148.173 18.1987 148.319 18.3642 148.699 17.6535C149.118 16.8648 150.218 16.3391 151.123 15.9497C152.039 15.5699 153.002 16.047 153.811 16.5144C154.268 16.7772 154.56 17.118 155.028 16.6117C155.086 16.5436 155.31 16.5144 155.359 16.563C155.719 16.8941 156.04 17.2835 156.42 17.5951C156.858 17.9553 157.053 18.2669 156.469 18.6466C156.751 18.7634 157.033 18.8802 157.306 18.9971C157.209 19.1723 157.014 19.4644 157.053 19.5033C157.228 19.6688 157.52 19.7078 157.676 19.883C157.978 20.2238 158.786 20.4867 157.948 21.1098C157.88 21.1585 157.987 21.6939 158.104 21.7329C159.691 22.2586 159.448 23.8262 159.847 24.9361C160.363 26.3673 160.402 27.9348 161.181 29.3173C161.473 29.8236 161.239 30.7485 161.599 31.0795C162.154 31.5663 160.889 32.1018 161.784 32.355C161.775 34.8084 163.138 36.9504 163.352 39.3552C164.063 39.7252 163.352 40.4456 163.8 41.0006C164.189 41.4874 164.141 42.315 164.345 42.977C164.579 43.6975 164.812 44.4374 165.182 45.0897C165.543 45.7421 165.066 46.482 165.65 47.1441C166.068 47.6114 166.078 48.4292 166.321 49.0718C166.623 49.8507 167.081 50.5906 167.285 51.389C167.84 53.638 168.23 55.926 168.804 58.1653C169.291 60.0346 169.174 62.0208 170.021 63.8317C170.274 64.3769 170.158 65.0779 170.284 65.701C170.391 66.2268 170.644 66.7039 170.751 67.2296C170.946 68.2227 171.092 69.2255 171.258 70.2283C171.423 71.2311 171.433 72.2826 171.783 73.2173C172.368 74.7556 172.377 76.401 172.893 77.8517C173.565 77.7738 174.529 77.3649 174.996 77.6764C175.824 78.2314 176.612 77.618 177.43 78.0172C178.219 78.3969 179.232 78.1438 180.176 78.5235C181.033 78.8642 182.123 78.5916 183.106 78.5916C184.09 78.5916 185.073 78.5916 186.066 78.5916C187.059 78.5916 188.043 78.5721 189.026 78.6013C189.795 78.6306 190.632 78.3677 191.275 79.0492C191.986 77.8517 192.628 79.2829 193.359 79.1271C194.147 78.9519 195.062 78.8837 195.802 79.1271C197.964 79.8378 200.291 79.5944 202.433 80.3733C202.754 80.4902 203.241 80.052 203.63 80.091C205.12 80.2273 206.658 80.2662 208.06 80.7238C208.693 80.9283 209.277 80.9672 209.89 81.0646C210.952 81.2203 212.013 81.3859 213.074 81.5416C212.665 79.906 212.363 78.3482 211.4 77.0338C211.273 76.8586 211.234 76.5957 211.224 76.3718C211.205 75.7195 211.195 75.0574 211.224 74.4051C211.253 73.8404 211.234 73.3049 210.757 72.896C211.672 72.3508 210.65 71.8542 210.65 71.3187C210.64 69.8681 210.017 68.4271 209.852 67.0154C209.657 65.2824 209.16 63.6662 208.771 62.0111C208.518 60.9596 208.157 59.9665 207.787 58.9637C206.911 56.6075 206.035 54.2319 205.461 51.7979C205.178 50.6296 204.331 49.8215 204.117 48.6337C203.912 47.4654 203.28 46.3652 202.764 45.2553C202.287 44.2135 201.771 43.1912 201.196 42.2079C199.979 40.1341 198.723 38.0993 197.243 36.1715C195.598 34.0198 194.05 31.7513 192.55 29.4828C191.772 28.295 190.642 27.4285 189.99 26.1239C189.513 25.1503 188.627 24.3811 187.945 23.5146C187.312 22.6968 186.203 22.2781 186.018 21.1098C184.606 20.7885 184.265 19.4157 183.418 18.5297C182.6 17.6729 181.889 16.5144 180.38 16.933C178.628 16.0081 176.817 15.1708 175.133 14.1388C173.624 13.2236 172.153 12.25 170.547 11.4905C169.924 11.1887 169.359 10.7506 168.814 10.3222C166.38 8.38472 163.216 7.8687 160.675 6.14542C159.555 6.24278 158.523 5.77547 157.442 5.61969C156.741 5.52233 156.089 5.46391 155.407 5.13288C154.736 4.80186 153.918 4.77264 153.168 4.60713C152.418 4.44161 151.542 4.46109 150.929 4.06191C150.169 3.57511 149.332 3.84771 148.65 3.56536C147.716 3.17592 146.976 2.94226 146.051 3.57511C145.71 3.80877 144.999 3.78931 144.61 3.58485C142.994 2.72808 141.28 3.20514 139.615 3.15646C138.622 3.12725 137.62 3.57511 136.617 3.57511C135.643 3.58484 134.757 3.81852 133.861 4.10086C133.375 4.25664 132.635 4.63633 132.43 4.45135C131.729 3.8185 131.388 4.86027 130.765 4.63634C130.259 4.45135 129.626 4.58766 129.052 4.60713C128.224 4.61686 127.29 4.37345 127.007 5.6002C126.959 5.81439 126.52 6.04807 126.248 6.06754C124.524 6.22332 123.113 7.26507 121.487 7.70319C118.303 8.55023 115.606 10.3027 113.007 12.25C112.52 12.6102 112.218 12.9704 112.822 13.6325C113.776 14.6742 114.117 16.0762 114.409 17.4004C114.691 18.6855 115.509 19.8051 115.46 21.1779C115.45 21.3921 115.509 21.6647 115.645 21.8303C117.31 23.9819 116.775 26.523 116.979 28.9473C117.047 29.7262 115.538 28.7818 116.229 29.8723C116.463 30.2325 116.473 30.8069 116.424 31.2548C116.366 31.7805 116.005 32.2673 115.976 32.7833C115.918 34.1367 114.526 35.0811 114.895 36.5317C114.058 37.1938 113.795 38.1966 113.309 39.0826C112.754 40.0951 112.179 41.1564 111.371 41.9645C110.563 42.7726 109.541 43.4638 108.479 43.8727C106.99 44.4374 105.578 45.8589 103.738 44.6321C103.456 44.4472 102.842 44.6419 103.465 45.2066C103.514 45.2455 103.436 45.4305 103.417 45.5473C102.725 45.08 102.131 46.4918 101.323 45.635C101.168 45.4695 100.34 46.0828 99.8532 46.0439C98.6849 45.9563 97.5361 45.6934 96.3872 45.5084C96.1341 44.603 95.5499 45.9076 95.1313 45.3039C94.8781 44.9437 94.1187 44.9729 94.1479 44.2622C94.0311 44.2719 93.885 44.2524 93.8071 44.3109C92.6875 45.0411 91.8794 44.5251 91.0908 43.678C89.8835 42.3734 87.9752 41.76 87.3132 39.8907C87.284 39.8225 87.1963 39.7738 87.1379 39.7154C86.875 39.3552 85.8722 40.1925 86.1156 39.2092C86.3104 38.4011 85.3952 38.4011 85.4341 37.9824C85.5023 37.1062 84.5968 37.369 84.4118 36.9504C84.2658 36.6291 84.3826 36.1812 84.3826 35.7723C87.099 37.2035 89.2215 39.3163 91.9086 40.4846C92.8725 40.9032 93.5735 41.8379 94.8879 41.7113C95.8225 41.6237 96.8156 42.276 97.8866 42.1495C98.6655 42.0521 99.4833 42.0131 100.145 42.6265C101.791 41.76 103.689 42.2468 105.403 41.614C107.399 40.8935 108.781 39.4331 109.979 37.8753C110.836 36.7654 111.537 35.4608 112.111 34.088C112.676 32.7347 112.598 31.1866 113.484 29.9696C113.094 28.1003 114.156 26.2991 113.581 24.3422C113.318 23.4464 112.335 23.3004 112.306 22.4339C111.352 22.2392 110.612 21.7037 109.901 21.0611C109.667 20.8469 109.141 20.8956 108.752 20.9053C106.883 20.9637 105.296 20.3212 103.709 19.3378C102.638 18.6758 101.284 18.4713 100.048 18.0721C99.9506 18.0429 99.717 18.1208 99.717 18.1403C99.7364 19.0263 98.8602 19.2697 98.4902 19.8636C97.906 20.769 97.6724 21.9179 96.7377 22.5897C95.9394 23.1641 95.7349 24.3032 94.7418 24.6829C94.7905 25.6955 93.4372 25.6176 93.3885 26.0363C93.2619 27.1559 91.4705 26.7664 91.7723 28.0613C90.9739 28.5287 90.195 28.996 89.387 29.4536C88.5886 29.9015 87.7805 30.3298 86.9627 30.768C86.8264 30.8361 86.6414 30.7972 86.5148 30.8653C83.779 32.2576 83.779 32.2576 81.1697 32.2576C81.121 32.1408 81.0042 31.9558 81.0334 31.9168C82.0946 30.7193 81.9681 29.6386 80.8971 28.48C80.4492 27.9932 80.2642 27.2727 79.9235 26.6788C79.8261 26.5133 79.5633 26.3478 79.3978 26.3575C79.242 26.3673 79.057 26.6009 78.9596 26.7762C78.356 27.9348 77.7621 29.0739 77.0124 30.1741C74.8023 33.3773 71.8523 34.9058 67.9871 34.7111C67.6853 34.7014 67.4029 34.5456 67.1011 34.4774C66.7311 34.3801 66.7603 33.4941 66.0301 34.0101C65.8159 34.1659 65.2512 33.7375 64.8618 33.757C63.7226 33.8154 62.9632 33.1436 62.0967 32.5497C62.4959 32.3258 62.8075 32.1505 63.1287 31.9752C62.4375 32.2089 63.1385 30.0962 61.902 31.245C61.7852 30.9627 61.6683 30.6804 61.4736 30.2033C60.6169 31.3132 59.5264 31.9558 58.3094 32.4426C56.5082 33.1728 54.6292 33.3578 52.7209 33.2117C52.5651 33.202 52.5067 32.6276 52.3022 32.5399C50.5497 31.7416 49.3717 30.4856 48.8265 28.6163C48.7875 28.4703 48.291 28.334 48.0476 28.3924C47.0253 28.6358 47.035 28.665 46.8403 27.5453C46.8306 27.4772 46.7235 27.4285 46.6748 27.3701C45.6914 29.0155 45.7109 28.9279 43.7929 28.4703C42.2157 28.1003 40.7066 27.6719 39.2364 26.932C38.0291 26.3186 37.075 25.6273 36.374 24.4979C36.1598 24.1572 35.8288 23.8748 35.5075 23.6217C34.7773 23.057 34.31 22.356 34.3586 21.3045C33.57 23.1057 32.0999 24.0403 30.5713 24.8387C28.3807 25.9876 26.0538 26.6983 23.5419 26.3186C22.7727 26.2017 21.7796 26.2212 21.6433 25.0626C21.3999 25.1113 21.1565 25.1697 20.8839 25.2379C20.2024 23.8456 19.6474 22.2781 19.0925 20.6911C18.6446 19.3962 18.7712 18.4616 19.1996 17.3419C19.2969 17.0693 19.7253 17.0109 19.4917 16.417C18.6933 14.3822 18.8199 14.0316 16.5903 15.0053C15.1883 15.6089 13.8934 16.4657 12.2383 15.5408C11.6736 15.2195 10.7876 15.531 10.0476 15.4823C7.89597 15.3363 5.72483 15.2487 3.60236 14.9566C2.73585 14.8398 1.9083 14.2945 1.11967 13.8564C0.95416 13.759 1.03203 13.2625 0.983354 12.951C0.876257 12.2986 0.350499 12.6102 0 12.5323C0.0584165 12.25 0.0584141 12.0844 0.0584141 11.9287ZM47.2882 16.9817C47.3855 16.9135 47.4829 16.8454 47.5705 16.787C47.3563 16.3878 47.1519 15.9886 46.9085 15.6089C46.8598 15.5407 46.6943 15.5407 46.5677 15.5018C46.5287 15.6478 46.4022 15.8523 46.4509 15.9302C46.6943 16.3002 46.9961 16.6312 47.6581 16.8551C47.8139 17.488 46.6358 17.7898 47.3466 18.705C47.6289 19.0652 47.1226 20.0583 46.9182 21.0027C48.5928 19.6396 47.6971 18.189 47.2882 16.9817ZM99.6585 5.94097C98.7239 5.37627 98.7239 5.37627 97.2635 5.94097C98.1884 5.94097 98.9673 5.94097 99.8046 5.82414C99.7754 5.9215 99.7364 5.99939 99.6975 6.09675C101.265 7.08009 102.842 8.06343 104.41 9.04678C104.186 8.08291 103.806 7.11905 103.115 6.74908C102.141 6.21359 100.924 6.10648 99.6585 5.94097ZM183.457 206.251C183.681 205.725 183.944 205.18 184.148 204.615C184.606 203.369 185.083 202.152 186.095 201.227C186.641 198.735 187.916 196.554 189.055 194.324C188.841 193.127 189.97 192.397 190.077 191.296C190.311 188.901 191.285 186.682 191.762 184.335C192.2 182.222 192.599 180.08 192.959 177.958C193.105 177.101 193.32 176.293 193.592 175.485C193.709 175.125 194.001 174.774 193.991 174.424C193.982 172.438 195.257 170.685 194.994 168.66C196.075 166.616 195.871 164.279 196.396 162.098C196.795 160.433 196.328 158.593 196.941 156.889C197.029 156.646 196.873 156.315 196.825 156.042C195.121 156.042 193.553 155.984 191.986 156.052C190.37 156.12 189.075 155.03 187.459 154.952C186.777 154.922 186.164 153.813 185.492 153.228C184.508 152.372 184.285 151.077 183.603 150.064C182.941 149.091 182.99 148.02 183.184 147.056C183.418 145.878 184.557 145.079 184.849 143.794C184.986 143.181 185.764 142.645 186.368 142.236C187.059 141.769 187.867 141.496 188.588 141.156C187.897 139.87 187.02 138.79 186.719 137.563C186.388 136.219 185.57 135.012 185.599 133.571C185.677 129.784 186.874 127.408 189.639 125.15C189.893 124.945 190.525 125.198 191.139 125.247C191.002 124.604 190.905 124.001 190.74 123.407C190.194 121.46 189.406 119.571 189.552 117.478C189.659 116.066 190.243 114.722 190.136 113.262C190.116 112.921 190.409 112.561 190.535 112.201C190.817 111.441 191.82 110.487 192.619 110.098C193.067 109.883 193.427 109.494 193.845 109.163C193.982 109.552 194.079 109.844 194.206 110.224C194.4 109.805 194.556 109.474 194.673 109.212C195.072 109.689 195.384 110.234 195.861 110.565C196.036 110.691 197.526 111.052 196.445 109.805C197.292 108.54 196.124 107.284 196.445 106.018C196.562 105.57 196.64 105.113 196.727 104.655C197.078 102.942 198.83 103.039 199.882 102.231C199.95 102.182 200.223 102.28 200.291 102.377C200.446 102.63 200.534 102.922 200.651 103.195C200.914 102.912 201.031 102.796 201.547 103.039C202.783 103.613 203.581 104.577 204.321 105.6C205.324 106.953 206.454 108.257 206.892 109.961C208.586 111.227 208.917 113.213 209.491 115.18C216.521 107.245 222.625 98.755 228.613 90.0218C226.432 89.5739 224.504 88.8632 222.45 88.9021C218.478 87.3054 214.223 86.8868 210.085 86.03C208.118 85.6211 206.2 84.6572 204.097 84.9493C201.634 83.7225 198.85 83.8296 196.27 83.0312C195.218 82.71 193.982 83.041 192.833 82.9631C191.664 82.8755 190.506 82.5639 189.338 82.5055C187.614 82.4276 185.881 82.4568 184.158 82.4958C183.671 82.5055 183.155 82.8755 182.717 82.7781C180.818 82.34 178.969 82.2718 177.06 82.8171C176.71 82.9144 176.213 82.6418 175.795 82.9728C175.727 83.0313 175.415 82.9436 175.376 82.856C175.045 82.0966 174.626 83.1968 174.315 82.8073C173.74 82.0674 173.39 82.8171 172.913 82.9631C172.338 83.1384 171.657 82.9729 171.472 82.3887C171.258 81.6974 170.674 81.5708 170.265 81.1814C169.661 80.5972 168.979 80.1397 168.746 79.0979C168.308 77.102 167.675 75.145 167.831 73.081C168.025 70.6372 167.032 68.3785 166.76 66.0126C166.711 65.5647 166.253 65.0585 166.341 64.484C166.477 63.5786 166.234 62.7413 165.796 62.0013C165.582 61.6508 165.251 61.4366 165.767 61.1153C165.075 59.7426 165.426 58.0777 164.55 56.7536C164.433 56.5783 164.374 56.3057 164.374 56.0915C164.403 54.2611 163.556 52.645 163.148 50.9217C162.69 48.9842 161.249 47.3485 161.405 45.2358C160.305 44.5348 161.122 43.3275 160.626 42.3442C159.915 40.9519 159.857 39.2189 159.428 37.6708C158.864 35.6165 158.133 33.5914 157.579 31.5274C156.809 28.626 155.651 25.8999 154.005 23.388C153.207 22.1613 152.448 20.9053 151.62 19.6981C151.338 19.2794 150.938 19.0263 150.539 19.737C150.052 20.6133 149.566 21.5576 148.855 22.2392C145.477 25.4715 142.546 29.0642 139.791 32.8028C138.934 33.9517 137.882 34.9545 137.035 36.1131C136.188 37.2619 135.215 38.3134 134.338 39.4234C132.479 41.7795 130.941 44.3985 129.373 46.9688C127.708 49.7047 126.16 52.5378 124.554 55.3126C123.2 57.6493 122.227 60.1417 121.097 62.5466C119.744 65.4284 118.293 68.2811 117.135 71.2603C116.862 71.9711 116.444 72.6234 116.093 73.2952C115.743 73.967 115.071 74.668 115.119 75.33C115.188 76.3329 114.409 76.5762 113.98 77.0533C113.445 77.6667 114.117 78.3677 113.542 78.9616C112.646 79.8962 113.046 81.6585 111.546 82.2718C111.79 83.7712 110.543 84.1606 109.599 84.8032C109.94 84.9395 110.232 85.0369 110.524 85.1537C108.528 86.8965 108.528 86.8965 106.425 86.9549C106.094 86.9646 105.685 86.8283 105.451 86.9841C104.312 87.7338 103.008 87.8701 101.723 88.133C100.457 88.3958 99.2107 89.0579 97.8574 88.5516C97.3706 89.2331 96.4067 88.6198 96.0951 88.9898C95.5596 89.6323 94.9268 88.8048 94.3719 89.3792C94.0506 89.7102 93.1159 89.4181 92.4636 89.4474C92.2494 89.4571 92.0352 89.5836 91.8113 89.6615C91.305 89.8368 90.5845 89.8562 90.3411 90.2165C89.7277 91.1317 89.3383 89.6226 88.7152 90.2068C88.3939 90.5086 87.654 90.4015 87.099 90.421C86.4467 90.4502 85.5607 90.1581 85.1712 90.4794C84.1684 91.2972 83.0488 90.567 82.1433 90.9662C81.1405 91.414 80.1474 91.3946 79.1154 91.414C78.541 91.4238 77.9568 91.3654 77.3921 91.4238C76.808 91.4919 75.883 91.969 75.7175 91.7645C75.0555 90.9662 74.6952 92.3876 74.3252 91.8814C73.7313 91.083 73.264 91.9398 72.7383 91.93C72.0665 91.93 71.4044 92.2903 70.7229 92.3682C68.9899 92.5726 67.2471 92.7089 65.5044 92.8744C65.2707 92.8939 65.0175 92.8842 64.8034 92.9718C64.2387 93.186 63.6934 93.4878 63.1093 93.6436C62.603 93.7799 62.3012 94.4128 61.5418 94.072C61.201 93.9259 60.5584 94.5588 60.023 94.7632C58.952 95.1527 58.0076 95.8634 56.8392 96.0095C56.4303 96.0581 55.2912 97.0317 54.8044 97.5283C54.4247 97.9177 54.0937 98.2877 53.4122 98.3559C52.3509 98.4532 51.2994 98.7745 50.2869 99.1153C47.8237 99.9331 45.5064 101.082 43.199 102.25C42.3812 102.669 41.612 103.185 40.8137 103.643C40.0835 104.061 39.3435 104.46 38.6036 104.869C39.2364 105.327 39.5674 106.038 40.0835 106.593C40.3853 106.924 40.6287 107.352 40.7845 107.78C42.2643 111.714 45.448 114.255 48.3202 117.039C49.0504 117.74 49.8682 118.256 50.3842 119.22C50.9294 120.243 51.7765 121.148 52.5846 122.005C53.1687 122.618 53.9671 123.037 54.6194 123.602C55.2425 124.137 55.7001 125.033 56.3914 125.266C57.3747 125.597 57.5987 126.396 58.0952 127.038C58.2315 127.214 58.4554 127.34 58.6599 127.428C59.945 127.992 61.1036 128.762 62.1843 129.648C62.7782 130.134 63.4598 130.787 64.1316 130.816C65.2999 130.874 66.5266 131.235 67.7047 130.582C68.1428 130.339 68.8244 130.329 69.3307 130.465C69.6617 130.553 69.798 130.65 70.2264 130.553C72.2417 130.105 74.3934 130.777 76.3893 129.901C77.1585 130.563 77.9081 130.018 78.6968 129.93C80.79 129.706 82.747 129.015 84.7526 128.45C86.0962 128.07 87.3229 127.535 88.5983 126.999C90.419 126.23 90.4774 126.386 90.9934 125.52C91.3147 124.984 91.6847 124.487 92.0352 123.981C92.7751 122.891 93.7 121.868 94.1674 120.671C94.401 120.087 94.625 119.571 94.9657 119.026C95.9491 117.478 96.3969 115.608 97.7016 114.245C97.9937 112.093 99.7462 111.412 101.401 110.701C102.18 110.37 102.686 110.857 102.901 111.646C103.076 111.324 103.251 111.022 103.426 110.721C104.244 111.577 105.286 110.964 106.201 111.169C106.844 111.315 106.23 111.587 106.269 111.753C106.328 112.074 106.63 112.337 106.824 112.629C107.165 112.308 107.496 111.753 107.613 112.804C107.652 113.155 109.044 113.447 109.025 113.359C108.801 112.425 110.612 112.687 110.066 111.568C110.057 111.538 110.68 111.139 110.709 111.169C111.108 111.636 111.361 111.558 111.809 111.139C112.646 110.37 113.854 110.565 114.857 110.205C115.081 110.127 115.772 110.565 115.772 110.769C115.782 111.977 116.814 111.461 117.33 111.772C117.748 112.833 116.823 114.255 118.284 115.102C118.381 114.43 118.469 113.788 118.566 113.145C118.917 115.277 118.946 117.4 118.907 119.512C118.897 120.213 119.121 120.661 119.822 120.992C119.793 119.629 120.981 119.542 121.711 119.084C122.344 118.685 122.889 119.279 123.376 119.756C123.57 119.95 123.95 119.931 124.242 120.028C124.456 120.097 124.807 120.194 124.817 120.311C124.875 120.875 124.719 121.499 124.885 122.024C125.011 122.423 125.508 122.716 125.819 123.066C125.858 123.115 125.829 123.222 125.829 123.309C125.839 124.108 125.576 124.741 124.894 126.172C124.602 126.785 124.534 127.506 124.349 128.168C123.639 130.66 123.093 131.663 121.604 133.415C121.428 133.62 121.389 134 121.399 134.311C121.409 134.827 121.224 135.178 120.922 135.616C120.455 136.288 120.172 137.115 119.919 137.904C119.773 138.391 119.851 138.907 120.62 138.8C121.185 138.731 121.759 138.702 122.139 139.306C122.791 140.348 123.327 141.438 123.823 142.558C123.892 142.713 123.677 143.181 123.638 143.171C122.363 142.996 123.707 144.349 122.908 144.417C123.453 144.953 123.561 145.459 122.879 145.985C122.811 146.033 122.928 146.452 123.054 146.618C123.561 147.231 123.561 147.455 122.675 147.728C122.003 147.932 123.259 148.467 122.84 148.779C121.818 149.538 122.003 150.94 121.039 151.768C120.095 152.596 119.209 153.598 118.605 154.689C117.67 156.373 116.288 157.678 114.847 158.749C113.464 159.771 111.955 160.745 110.368 161.563C108.801 162.371 106.892 162.38 105.568 163.695C105.49 163.773 105.15 163.743 105.072 163.656C104.4 162.828 103.757 164.074 102.998 163.646C102.385 163.305 101.83 164.775 100.934 164.035C100.885 163.997 100.515 164.415 100.262 164.571C99.532 164.99 98.8504 165.574 97.8963 165.428C96.8351 165.252 95.6765 165.837 94.7029 164.736C94.1187 164.074 93.0964 164.298 92.4051 165.058C90.5553 167.054 88.4328 168.66 86.0475 169.965C85.1907 170.432 84.6163 171.25 84.8402 172.408C84.9473 172.954 84.9668 173.596 84.7818 174.103C84.1295 175.904 83.8374 177.744 83.8666 179.642C83.8958 181.697 83.9153 183.761 83.8569 185.805C83.8179 187.061 83.925 188.278 83.4674 189.583C82.9417 191.063 84.1977 192.65 83.8764 194.285C84.8305 195.064 84.1879 196.126 84.3632 197.041C84.5384 197.956 84.7136 198.871 84.8597 199.796C85.1128 201.441 84.3242 203.194 85.3465 204.781C85.4049 204.878 85.3465 205.112 85.2686 205.229C84.6844 206.037 84.8208 206.728 85.2686 207.614C85.6288 208.344 85.3173 209.376 85.5315 210.223C85.9014 211.655 86.4175 213.037 86.3688 214.566C86.3298 215.744 86.9237 216.824 86.9627 218.041C86.9919 218.781 87.5955 219.512 88.0434 220.456C91.6165 216.98 95.0047 213.68 98.3831 210.389C98.4999 210.272 98.5973 210.136 98.7336 210.048C101.528 208.101 104.215 206.017 106.649 203.632C107.029 203.262 107.603 203.097 107.983 202.736C108.353 202.376 108.509 201.753 108.918 201.49C109.589 201.071 110.203 200.633 110.806 200.117C111.439 199.572 112.033 198.793 112.802 198.501C113.708 198.16 113.883 196.807 115.119 196.982C115.324 197.012 115.606 196.612 115.84 196.379C118.264 193.954 121.039 191.968 123.746 189.885C126.715 187.587 129.412 184.939 132.245 182.466C132.956 181.843 133.696 181.239 134.494 180.743C135.886 179.905 137.259 179.029 138.544 178.046C139.236 177.52 139.849 177.306 140.696 177.208C141.407 177.131 142.069 176.303 142.789 177.199C143.967 176.488 144.454 178.279 145.525 177.958C147.667 179.01 149.556 180.489 151.62 181.687C152.944 182.456 154.297 183.303 155.475 184.248C156.79 185.299 158.581 185.348 159.691 186.643C162.447 187.314 164.754 188.804 166.984 190.488C167.538 190.907 168.249 190.995 168.804 191.628C169.836 192.815 171.014 193.935 172.309 194.811C174.461 196.281 176.135 198.151 177.683 200.205C179.446 202.435 180.75 205.054 183.457 206.251ZM107.973 139.851C106.016 139.208 105.899 137.797 106.24 136.58C106.542 135.518 107.311 134.506 108.109 133.678C109.589 132.121 110.417 130.173 111.566 128.431C112.432 127.116 112.977 125.568 113.562 124.088C114.175 122.531 115.47 121.167 115.061 119.279C116.005 118.227 115.46 116.952 115.528 115.783C115.577 114.829 114.691 113.71 114.058 113.603C112.958 113.408 112.13 113.632 111.595 114.79C111.4 115.209 111.235 115.618 111.079 116.056C110.592 117.409 110.125 118.831 109.336 120.009C108.109 121.82 107.272 123.757 106.668 125.821C106.493 126.396 106.299 127.136 105.86 127.428C105.072 127.963 105.374 129.472 104.011 129.394C103.417 128.421 103.816 127.36 103.748 126.337C103.738 126.104 104.079 125.812 104.312 125.607C104.828 125.159 104.858 124.604 104.546 124.108C104.371 123.806 104.39 123.728 104.488 123.378C104.848 122.131 104.682 120.729 105.656 119.649C105.802 119.483 105.724 118.996 105.598 118.714C104.945 117.283 104.682 115.764 104.634 114.089C103.923 114.089 103.271 114.138 102.638 114.08C102.063 114.011 101.693 114.274 101.401 114.683C100.35 116.134 99.2983 117.585 98.2857 119.064C98.0326 119.425 97.945 119.902 97.7795 120.33C97.244 121.674 96.9519 123.202 96.1049 124.303C94.8587 125.919 93.5735 127.467 92.6583 129.307C92.4538 129.725 91.9865 130.29 91.636 130.31C90.7013 130.349 89.7764 130.65 89.3383 131.274C88.6276 132.296 87.5079 131.536 86.7095 132.218C86.2033 132.646 85.1518 132.354 84.4508 132.656C81.8805 133.756 79.1543 134.204 76.4282 134.292C71.9107 134.438 67.3834 134.34 62.8561 134.321C62.2428 134.321 61.5223 134.594 61.0744 133.883C60.5974 134.447 59.8088 134.545 59.3512 134.282C58.2705 133.669 57.1703 133.912 56.0798 133.824C55.4665 133.776 54.8726 133.25 54.2689 133.834C53.198 133.084 51.6305 133.415 50.7737 132.052C50.4719 131.575 49.4106 131.614 49.4398 130.66C50.1311 130.563 50.8223 130.456 51.5136 130.378C51.7473 130.349 52.0199 130.349 52.2146 130.446C53.8989 131.283 55.6028 130.728 57.4818 130.767C56.9561 130.241 56.664 129.716 56.2356 129.579C55.3399 129.278 54.8531 128.518 54.1813 127.983C53.4998 127.447 53.1785 126.444 52.127 126.405C51.9128 125.49 51.2994 124.955 50.4232 124.682C50.2869 123.582 49.2548 123.183 48.6609 122.453C48.0086 121.654 47.0642 121.099 46.7527 120.028C45.5357 119.98 45.7304 118.597 44.8931 118.091C44.0071 117.546 43.3548 116.621 42.5954 115.871C40.9694 114.255 39.3825 112.6 38.5841 110.38C37.4547 109.63 37.5521 108.141 36.6466 107.216C36.2669 106.836 36.2669 106.077 36.1209 105.483C35.9846 104.918 35.7801 104.344 35.819 103.789C35.8677 103.117 36.1403 102.455 36.3059 101.783C36.7245 101.958 37.221 102.864 37.5521 101.851C37.961 100.624 39.0222 100.245 39.9569 99.7968C41.7191 98.9497 43.5787 98.2877 45.7109 97.4115C44.9418 97.3141 44.2602 97.3628 44.2115 97.1973C43.9 96.2334 43.0724 96.1165 42.3325 95.7855C42.0015 95.6297 41.6899 95.2695 41.5341 94.9287C40.7455 93.1665 39.0514 92.0274 38.4186 90.0899C38.0097 88.8242 37.0263 87.6072 36.0235 86.6726C33.2585 84.1022 31.5644 80.8796 29.9677 77.5693C29.4322 76.4594 28.6436 75.6513 27.6407 74.9503C26.9203 76.1771 26.4529 77.4622 25.5864 78.3579C24.5836 79.3802 24.6713 80.8212 23.7853 81.8337C22.9188 82.8171 22.8895 84.3164 21.7991 85.2024C21.9938 86.3221 21.2149 87.1107 20.7768 87.9772C20.3289 88.8534 20.436 90.0607 19.3651 90.6059C19.5598 91.7353 18.4791 92.4169 18.372 93.4002C18.0896 95.9511 16.7558 98.1806 16.1716 100.644C15.5193 103.389 13.6889 105.814 13.8934 108.822C13.9129 109.153 13.5818 109.504 13.4261 109.844C12.2772 112.395 12.4622 115.199 11.9462 117.857C12.4719 118.49 11.2355 118.938 11.8294 119.736C12.1896 120.223 11.9949 121.167 11.9267 121.888C11.8585 122.569 11.5665 123.222 11.4594 123.903C11.3426 124.614 11.4594 125.315 11.9462 125.919C10.6513 126.805 12.8224 128.158 11.5275 129.044C12.4038 131.225 11.7417 133.493 11.9267 135.713C11.9949 136.609 11.9949 137.524 11.917 138.43C11.8488 139.189 11.7709 140.026 11.4107 140.669C10.8071 141.74 10.9823 142.84 10.9628 143.94C10.9434 145.293 11.0213 146.598 11.401 147.942C12.0436 150.22 12.0922 152.673 13.3871 154.776C13.6208 155.156 13.4942 155.867 13.7766 156.062C14.6139 156.636 14.6918 157.911 15.8114 158.165C15.8309 159.313 16.7753 159.985 17.4276 160.628C18.5765 161.777 19.0146 163.636 20.8157 164.162C20.9521 164.201 21.1468 164.376 21.1565 164.503C21.2636 166.061 22.8214 166.401 23.61 167.385C24.6031 168.621 25.9467 169.536 27.1929 170.51C28.663 171.659 30.5713 172.175 31.8175 173.655C31.9052 173.752 32.0999 173.781 32.2459 173.791C33.3753 173.859 34.3002 174.511 35.1473 175.105C36.1111 175.767 37.2016 175.719 38.2141 176.069C40.2003 176.741 42.2449 177.286 44.3771 177.267C46.0225 177.257 47.6679 177.267 49.3133 177.257C49.8001 177.257 50.4621 177.403 50.725 177.15C51.3968 176.517 52.1173 176.897 52.7988 176.761C53.5485 176.605 54.3176 176.274 55.0576 176.313C56.2064 176.371 57.4331 176.293 58.2607 175.709C59.3025 174.979 60.3929 175.339 61.4444 175.018C63.3722 174.424 65.4557 174.249 67.4516 173.801C68.9509 173.46 70.5087 173.411 71.8328 172.447C72.5046 171.961 73.3029 171.63 74.0818 171.347C76.6619 170.432 79.1933 169.39 81.7247 168.349C82.4938 168.027 83.078 167.151 83.8471 166.937C85.6483 166.45 86.9237 165.155 88.3744 164.182C89.9809 163.101 91.4607 161.845 93.3495 161.27C93.6708 161.173 94.0311 161.222 94.3719 161.193C94.2745 159.937 95.6375 160.17 96.1243 159.45C96.8935 160.55 97.614 161.816 99.2009 160.491C99.347 160.375 99.6877 160.501 99.9311 160.472C101.508 160.316 103.086 160.151 104.663 159.966C104.877 159.937 105.082 159.683 105.276 159.703C106.406 159.791 107 158.768 107.983 158.466C111.459 157.405 112.861 156.286 115.499 153.462C117.349 151.486 118.829 149.276 120.406 147.114C121.166 146.072 120.932 144.865 121.487 143.843C121.536 143.745 121.204 143.424 121.039 143.21C120.873 142.996 120.659 142.811 120.542 142.577C120.406 142.314 120.387 141.788 120.25 141.759C119.89 141.701 119.423 141.74 119.111 141.925C117.33 142.986 117.018 143.2 115.616 145.605C114.555 147.416 112.559 148.107 111.244 149.577C111.128 149.714 110.339 149.548 110.203 149.314C109.716 148.516 110.787 147.65 110.193 146.764C110.125 146.657 110.29 146.316 110.427 146.141C110.933 145.44 111.478 144.768 111.984 144.067C112.861 142.869 113.854 141.74 114.574 140.445C115.986 137.914 117.145 135.256 118.605 132.753C119.15 131.819 119.462 130.787 120.046 129.891C120.718 128.849 121.166 127.739 121.584 126.581C122.129 125.062 122.791 123.602 122.353 121.927C122.042 121.956 121.828 121.907 121.73 121.995C118.683 124.721 116.21 127.895 114.224 131.459C113.591 132.598 113.065 133.824 112.276 134.837C110.904 136.599 109.414 138.186 107.973 139.851ZM195.218 144.602C193.972 144.602 193.086 144.602 192.21 144.602C191.596 143.395 190.409 145.605 189.824 144.203C188.802 145.245 187.108 145.683 186.758 147.309C186.602 148.039 186.514 149.11 186.913 149.568C188.082 150.901 188.929 152.868 191.256 152.586C195.169 153.871 196.318 152.722 198.986 151.31C199.268 151.164 199.541 150.619 199.677 150.668C200.057 150.804 200.291 151.505 200.495 150.454C200.67 149.509 201.001 148.341 201.673 147.805C202.423 147.221 202.803 146.433 203.377 145.771C204.029 145.04 204.477 144.106 204.876 143.2C206.191 140.202 208.42 137.563 208.411 134.048C208.411 133.873 208.975 133.698 209.287 133.523C208.187 133.094 209.316 132.393 209.112 131.79C208.829 130.991 208.625 129.94 208.917 129.209C209.53 127.632 209.647 126.182 208.878 124.672C209.861 124.195 208.43 123.611 208.936 123.134C209.754 122.384 209.131 121.421 209.355 120.593C209.55 119.892 208.722 119.357 209.287 118.5C209.852 117.624 208.605 116.962 208.43 116.222C207.924 114.099 206.648 112.58 205.178 111.159C204.701 110.691 204.39 110.253 204.36 109.504C204.341 108.881 203.981 108.189 203.562 107.703C203.065 107.118 202.374 106.661 201.712 106.242C201.07 105.843 200.378 105.512 199.668 105.239C199.512 105.181 199.064 105.453 199.015 105.648C198.908 106.028 198.811 106.612 199.015 106.846C199.58 107.479 199.395 108.189 199.492 108.881C199.59 109.64 199.979 110.399 199.94 111.139C199.784 113.651 200.748 115.852 201.722 118.062C202.296 119.386 203.056 120.671 203.358 122.053C203.572 123.037 203.805 124.02 204.205 124.916C204.467 125.51 204.321 125.743 203.99 126.133C203.455 126.766 203.289 125.685 202.822 125.909C202.725 125.958 202.442 125.675 202.277 125.51C201.235 124.429 200.135 123.475 199.609 121.927C198.937 119.921 197.866 118.052 197.029 116.095C196.182 114.138 194.848 112.746 192.541 111.957C193.3 113.184 193.213 114.313 193.008 115.336C192.443 118.169 192.356 119.619 193.164 121.8C193.612 123.008 193.865 124.312 194.712 125.354C194.848 125.529 195.014 125.743 195.033 125.958C195.14 127.038 195.724 127.837 196.445 128.586C196.756 128.908 196.864 129.414 197.175 129.755C197.428 130.047 197.584 130.261 197.175 130.456C196.864 130.611 196.309 130.835 196.192 130.719C195.033 129.502 193.135 129.599 192.015 128.177C191.256 127.223 189.883 127.944 189.61 129.239C189.493 129.833 189.445 130.543 189.084 130.981C188.432 131.799 188.413 132.763 188.676 133.493C189.698 136.395 190.788 139.306 193.105 141.506C193.641 142.012 194.206 142.509 194.653 143.083C194.897 143.444 194.965 143.94 195.218 144.602ZM92.1325 20.1751C92.9504 19.0263 93.8558 17.7898 94.9463 16.2612C93.8266 16.8356 92.9406 15.0929 92.0547 16.4365C91.5484 17.1861 91.0713 18.0429 90.9447 18.9094C90.8961 19.2697 91.7431 19.7857 92.1325 20.1751ZM71.9302 27.2435C72.1736 27.1851 72.3683 27.1948 72.4559 27.1072C73.303 26.3088 74.2863 25.7344 75.3183 25.2184C75.4741 25.1503 75.6007 24.7997 75.552 24.6148C75.4157 24.0111 74.2668 23.427 73.8384 23.7969C72.9038 24.6148 71.9789 25.4813 71.6381 26.747C71.5992 26.893 71.8328 27.0975 71.9302 27.2435ZM32.6354 17.6827C32.7717 17.7314 32.9177 17.78 33.054 17.8385C33.0832 17.4588 32.9469 16.9233 33.1514 16.7286C34.2126 15.7063 33.2877 14.8495 32.9372 14.0024C32.7619 13.5838 32.168 12.912 32.0707 14.168C32.0609 14.3043 31.5449 14.4016 31.2723 14.5087C31.5254 14.684 31.8565 14.8008 32.022 15.0345C32.2849 15.3947 32.5185 15.8231 32.6062 16.2515C32.7035 16.7091 32.6354 17.2056 32.6354 17.6827ZM9.47322 6.34989C8.79169 5.86309 8.18804 5.42497 7.57467 5.01606C7.47731 4.95764 7.20471 5.00631 7.15603 5.09393C7.03919 5.27892 6.91264 5.59047 6.99053 5.72677C7.6039 6.70038 8.49961 6.60303 9.47322 6.34989ZM75.7954 23.3393C76.0875 22.9402 76.3406 22.6286 76.5451 22.2781C76.5937 22.2002 76.4477 22.0152 76.399 21.8789C76.1167 22.1807 75.8343 22.4631 75.5812 22.7941C75.5423 22.8525 75.6786 23.0473 75.7954 23.3393ZM95.7057 5.91176C95.7057 5.77545 95.7154 5.62942 95.7154 5.49312C95.102 5.53206 94.4984 5.58074 93.885 5.61969C93.8948 5.71705 93.8948 5.81441 93.8948 5.9215C94.5081 5.91177 95.1021 5.91176 95.7057 5.91176ZM153.557 17.5853C153.402 17.449 153.334 17.3517 153.275 17.3517C152.895 17.3906 152.525 17.4587 152.146 17.5269C152.136 17.5269 152.146 17.6827 152.165 17.6827C152.545 17.7411 152.925 17.7995 153.304 17.8385C153.363 17.8385 153.421 17.7314 153.557 17.5853ZM40.9207 16.8356C41.096 17.1083 41.1836 17.2348 41.2615 17.3614C41.4757 17.0791 41.6899 16.8064 41.9041 16.5241C41.7678 16.4754 41.5828 16.3488 41.5049 16.3878C41.2907 16.4852 41.1057 16.6799 40.9207 16.8356Z" fill="white"/>
<path d="M189.532 30.584C189.6 32.0347 189.756 33.3393 188.928 34.5563C188.763 34.7997 188.597 35.121 188.607 35.3936C188.705 37.7205 187.108 39.2394 185.949 40.9529C185.375 41.7999 184.596 42.5107 184.07 43.3869C183.622 44.1366 182.863 44.5747 182.454 45.3828C182.006 46.2786 181.081 46.8627 180.507 47.7682C179.854 48.8197 178.667 49.5499 177.713 50.4164C177.177 50.9032 176.593 51.3316 176.087 51.8281C174.422 53.4638 174.422 53.4735 171.316 54.34C171.316 52.7628 171.559 51.39 172.708 50.2411C173.38 49.5693 174.159 49.0144 174.49 48.0213C174.626 47.6027 175.103 47.1159 175.512 46.999C176.885 46.5999 177.469 45.3341 178.413 44.4871C178.939 44.01 178.998 43.1727 179.962 42.9099C180.487 42.7638 180.77 41.8194 181.208 41.2742C182.697 39.4341 184.226 37.6232 185.696 35.7733C186.222 35.1113 186.748 34.4103 187.088 33.6411C187.614 32.4631 188.354 31.4894 189.532 30.584Z" fill="white"/>
<path d="M100.291 33.883C100.223 34.2627 100.243 34.9345 100.067 34.9832C98.8991 35.3337 98.9186 36.8914 97.5556 37.1348C95.842 37.4561 95.842 37.6995 93.8948 36.833C93.3204 36.5799 91.8015 37.0277 92.2786 35.3823C92.3273 35.2363 91.4413 34.8371 91.0129 34.5256C90.234 33.9706 90.1464 33.2112 90.7598 32.5102C91.0519 32.1792 91.3829 31.926 91.7626 32.3349C92.4247 33.0359 93.3593 33.2599 94.109 33.7564C95.0534 34.3892 95.9783 34.0387 96.9033 34.0972C97.1759 34.1166 97.7795 33.5033 97.7211 33.367C97.3901 32.4907 98.4318 31.6729 97.7892 30.7966C97.7211 30.6993 97.8866 30.2806 98.0326 30.2124C98.1884 30.1443 98.5779 30.2222 98.6655 30.3682C99.3567 31.4684 100.593 32.3252 100.291 33.883Z" fill="white"/>
<path d="M108.995 24.1855C109.482 24.8963 109.979 25.5778 110.427 26.308C110.641 26.6683 109.959 27.1648 110.563 27.5153C109.531 28.0703 109.881 29.2191 109.463 29.998C109.025 30.8353 108.129 31.4195 107.311 32.2373C107.068 31.9258 106.863 31.546 106.552 31.3416C106.367 31.2247 105.968 31.4876 105.705 31.4097C105.13 31.2345 104.585 30.9424 104.02 30.7379C103.602 30.5919 103.164 30.5043 102.735 30.3875C103.066 30.1246 103.29 29.9006 102.813 29.5112C102.19 28.9854 101.625 28.3915 101.08 27.7782C100.895 27.564 100.856 27.233 100.749 26.9506C101.197 26.9117 102.015 26.7948 102.024 26.8338C102.278 28.08 103.602 27.8755 104.283 28.5181C105.364 29.5501 106.571 28.966 107.72 28.6544C107.905 28.6058 108.1 28.2066 108.11 27.9632C108.139 27.3985 108.246 26.9409 108.567 26.4151C108.869 25.9088 109.463 25.13 108.197 24.4095C108.47 24.3511 108.733 24.2634 108.995 24.1855Z" fill="white"/>
<path d="M107.457 37.4762C107.009 37.9436 106.746 38.2259 106.483 38.4985C105.919 37.9241 105.111 38.2746 104.517 38.0215C103.981 37.7975 103.524 37.2036 103.232 36.6584C102.716 35.7335 102.268 34.7696 102.005 33.7181C101.907 33.3579 101.489 32.9879 101.956 32.725C102.239 32.5693 102.813 32.6082 103.076 32.8029C103.728 33.2994 104.371 33.8641 104.809 34.5359C105.315 35.3343 106.922 35.4706 106.328 36.9699C106.328 36.9894 106.912 37.2426 107.457 37.4762Z" fill="white"/>
<path d="M132.061 102.211C132.275 102.425 132.518 102.562 132.606 102.776C133.024 103.779 132.508 105.112 133.355 105.891C134.329 106.797 133.239 108.16 134.261 108.948C134.115 109.133 133.881 109.299 133.842 109.513C133.813 109.698 133.667 110.224 134.241 109.961C134.378 109.903 134.475 109.776 134.806 109.503C134.806 110.068 134.826 110.448 134.796 110.828C134.748 111.499 134.894 112.025 135.429 112.561C136.004 113.145 136.325 113.982 136.782 114.693C137.863 116.358 138.525 116.436 140.249 115.326C142.001 114.186 142.897 112.444 143.666 110.623C144.231 109.299 144.513 107.829 145.214 106.592C145.701 105.726 145.886 104.772 145.574 104.1C145.272 103.467 145.487 103.136 145.681 102.747C146.353 101.403 146.762 101.393 147.638 102.62C149.264 104.889 149.585 106.553 148.602 108.89C147.891 110.574 146.937 112.142 146.207 113.817C145.321 115.871 143.685 117.273 142.186 118.801C140.521 118.996 138.954 120.155 137.191 119.22C136.977 119.103 136.636 119.191 136.354 119.21C136.179 119.22 136.004 119.278 135.828 119.327C136.023 118.13 134.534 118.577 134.212 117.565C133.735 116.066 132.265 114.849 131.973 113.349C131.71 111.996 131.291 110.584 131.34 109.153C131.36 108.501 131.35 107.839 131.35 107.186C131.35 106.534 131.525 105.804 131.301 105.239C131.048 104.587 132.187 104.256 131.515 103.564C131.379 103.409 131.856 102.688 132.061 102.211Z" fill="white"/>
<path d="M162.602 98.8611C163.566 100.302 165.124 101.412 164.9 103.369C165.991 104.625 165.708 106.494 166.867 107.731C167.139 108.013 167.334 108.373 167.607 108.646C168.269 109.308 168.668 109.318 169.457 108.782C169.904 108.48 170.644 108.286 170.761 107.886C171.102 106.767 172.183 106.358 172.718 105.482C173.156 104.771 173.711 103.982 173.721 103.213C173.741 101.753 174.724 100.604 174.782 99.1921C174.792 98.9974 175.104 98.8319 175.152 98.6177C175.328 97.9849 175.522 97.352 176.301 97.3131C176.768 97.2839 177.596 98.3938 177.732 99.0558C178.2 101.529 178.268 101.558 177.713 103.067C177.265 104.274 177.08 105.589 176.116 106.611C175.61 107.146 175.376 107.925 175.055 108.626C174.753 109.259 174.013 109.24 173.604 109.941C172.611 111.625 170.644 112.053 168.863 112.608C167.5 111.791 165.299 112.404 164.725 110.213C163.323 109.065 163.274 107.419 162.836 105.813C162.194 103.466 162.671 101.198 162.602 98.8611Z" fill="white"/>
<path d="M155.699 107.09C156.556 108.102 156.293 109.495 157.335 110.283C157.549 110.449 157.491 111.033 157.481 111.432C157.452 112.26 157.423 113.048 158.221 113.613C158.377 113.72 158.445 114.012 158.474 114.236C158.649 116.057 158.795 117.877 158.98 119.698C159.029 120.156 159.175 120.604 159.282 121.051C159.35 121.353 159.36 121.674 159.477 121.957C159.925 123.018 158.464 123.826 159.243 125.111C159.759 125.958 159.458 127.321 159.438 128.461C159.438 128.821 159.234 129.191 159.049 129.522C158.98 129.639 158.649 129.755 158.552 129.697C157.569 129.084 156.459 128.568 155.69 127.75C155.242 127.282 154.852 126.474 154.979 125.588C155.115 124.702 155.164 123.748 154.969 122.891C154.774 122.074 155.125 121.246 154.95 120.594C154.268 118.111 154.628 115.619 154.521 113.136C153.353 111.705 154.375 110.274 154.57 108.862C154.677 108.239 155.3 107.703 155.699 107.09Z" fill="white"/>
<path d="M160.772 136.755C161.336 138.264 160.762 139.433 159.934 140.358C159.019 141.38 157.695 142.052 156.342 142.159C154.93 142.276 153.441 142.529 152.029 141.935C151.532 141.721 151.045 142.684 150.461 141.896C150.111 141.429 149.468 141.166 148.952 140.835C148.631 140.62 148.271 140.474 147.969 140.241C147.667 140.007 147.278 139.734 147.151 139.403C146.664 138.04 146.236 136.658 145.876 135.256C145.778 134.905 146.012 134.457 146.158 134.068C146.567 132.997 146.615 131.722 147.725 131.021C147.91 130.904 148.154 130.884 148.621 130.738C148.621 131.488 148.631 132.121 148.611 132.744C148.602 133.24 148.602 133.698 149.069 134.049C149.303 134.224 149.507 134.526 149.595 134.808C150.335 137.408 151.357 138.138 153.859 138.293C155.904 138.42 157.647 137.563 159.506 137.008C159.925 136.891 160.382 136.833 160.772 136.755Z" fill="white"/>
</svg>
