<svg width="175" height="84" viewBox="0 0 175 84" fill="none" xmlns="http://www.w3.org/2000/svg">
<path d="M174.126 42.2059C173.657 42.5584 173.187 42.9089 172.716 43.2615C172.795 43.506 172.863 43.7139 172.946 43.9686C172.333 43.8076 172.037 44.3252 171.589 44.478C171.481 44.5147 171.322 44.4719 171.253 44.5371C170.36 45.3706 169.123 45.4623 168.106 46.0186C167.475 46.363 166.884 46.7787 166.28 47.1578C166.388 47.922 166.983 48.4314 167.187 49.1508C167.375 49.8212 167.805 50.4224 168.139 51.0745C166.906 51.3537 166.062 50.7994 165.239 49.9557C164.208 52.4887 162.671 54.6549 162.027 57.1879C161.73 56.9719 161.494 56.8008 161.198 56.5888C161.143 56.9169 161.1 57.1696 161.053 57.4508C160.805 57.4508 160.581 57.4508 160.248 57.4508C160.134 56.8273 160.016 56.1731 159.894 55.4986C159.735 55.4476 159.558 55.3926 159.388 55.3376C159.358 55.2581 159.329 55.1909 159.309 55.1196C159.097 54.4063 159.827 53.7257 159.388 52.99C159.368 52.9554 159.68 52.774 159.753 52.6212C160.212 51.6654 160.646 50.6995 161.129 49.6439C160.102 49.864 159.215 50.2186 158.264 50.3449C157.155 50.4917 157.163 50.5467 156.15 50.0148C156.273 49.7152 156.391 49.4157 156.517 49.1182C156.589 48.949 156.629 48.6821 156.754 48.6311C157.367 48.3805 157.328 47.7508 157.275 47.3738C157.216 46.9479 157.428 46.7441 157.55 46.4079C157.703 46.4629 157.84 46.5098 158.044 46.5831C158.154 45.4786 159.252 45.5438 159.894 45.0364C160.257 45.2585 160.458 44.9508 160.725 44.8041C161.021 44.639 161.351 44.5412 161.659 44.3945C161.86 44.2987 162.046 44.1703 162.301 44.0216C161.273 42.1366 160.911 40.0152 159.631 38.1241C159.998 38.1241 160.23 38.0569 160.385 38.1384C160.752 38.332 161.082 38.5969 161.54 38.9087C161.636 39.1919 161.781 39.6117 161.974 40.1844C162.036 39.7014 162.08 39.3529 162.129 38.9617C162.633 39.2734 163.105 39.4854 163.472 39.8155C163.853 40.1599 164.135 40.6164 164.491 41.0647C165.003 40.2271 165.581 39.467 165.954 38.6173C166.317 37.7919 166.468 36.8729 166.873 36.0292C166.859 36.1841 166.843 36.341 166.82 36.5693C167.012 36.6059 167.254 36.6528 167.487 36.6997C167.603 36.9238 167.717 37.1419 167.831 37.362C167.86 37.6452 167.886 37.9305 167.921 38.281C168.669 37.7064 168.528 36.8525 168.848 36.1821C168.618 36.3247 168.438 36.502 168.349 36.716C168.247 36.9605 168.218 37.2356 167.894 37.2988C167.966 36.9299 168.002 36.5489 168.116 36.1923C168.322 35.5483 168.561 34.9125 168.815 34.2849C168.938 33.9812 169.127 33.7061 169.284 33.4229C169.847 33.6654 169.694 34.1096 169.702 34.4601C169.722 35.5218 169.796 36.6039 169.025 37.5393C169.142 37.796 169.266 38.0671 169.36 38.2708C169.221 38.5256 169.144 38.7803 168.978 38.9433C168.636 39.2796 169.082 39.7116 168.756 40.0967C168.54 40.3494 168.626 40.8405 168.518 41.2073C168.404 41.5925 168.22 41.9552 168.039 42.3913C168.765 42.5829 169.319 42.2385 169.885 42.1162C170.804 41.9165 171.699 41.6006 172.612 41.3663C172.81 41.3153 173.066 41.3622 173.258 41.4498C173.566 41.5884 173.841 41.7963 174.13 41.9756C174.126 42.051 174.126 42.1284 174.126 42.2059Z" fill="white"/>
<path d="M63.2836 71.7211C63.7666 71.8963 64.1497 72.1755 64.3494 72.6768C64.4207 72.8582 64.4696 73.1435 64.814 72.9764C64.8385 72.9641 65.0688 73.2494 65.1116 73.4186C65.3663 74.4212 65.566 75.436 65.8431 76.4305C65.9409 76.7789 66.2079 77.0826 66.4158 77.4392C66.0795 77.8957 65.9511 78.4764 65.9409 79.1815C65.6883 79.0226 65.4722 78.8881 65.3418 78.8045C65.0953 79.1387 64.8446 79.4526 64.6225 79.7847C63.8909 80.8892 63.6667 81.0665 62.6438 81.2846C62.55 81.3049 62.4013 81.3539 62.3625 81.3131C61.7675 80.6488 60.8892 80.8444 60.1637 80.6712C59.3547 80.4756 58.4866 80.3696 57.6409 80.3023C56.7585 80.231 55.8537 80.2147 54.9795 80.3268C53.1964 80.553 51.3909 80.3675 49.616 80.7099C49.1513 80.7996 48.6521 80.7038 48.1752 80.7445C47.4538 80.8077 46.6957 80.8036 46.0253 81.0339C45.2306 81.3049 44.4195 81.3763 43.6186 81.417C42.3593 81.4822 41.1243 81.7084 39.8833 81.8307C38.7156 81.9448 37.5398 82.1445 36.3518 82.1506C35.6711 82.1547 34.9762 82.2607 34.316 82.4339C33.3174 82.6947 32.2985 82.9169 31.3611 83.3733C31.3102 83.3978 31.2939 83.4956 31.2592 83.5588C31.1818 83.5588 31.1044 83.5588 31.0269 83.5588C31.0779 83.353 31.1268 83.1471 31.2001 82.8476C31.0004 82.9128 30.8415 82.9678 30.5868 83.0514C30.5868 82.8313 30.5868 82.6275 30.5868 82.4257C31.2144 82.6234 31.8359 82.8048 32.2741 82.0712C32.2863 82.0508 32.4534 82.1466 32.5512 82.1486C32.6429 82.1506 32.7346 82.1017 32.8202 82.0752C32.6511 81.8287 32.5003 81.6086 32.4289 81.5047C31.6587 81.5311 31.2185 82.0121 30.6255 82.061C30.5868 82.0651 30.5664 82.2648 30.5378 82.3728C30.3606 82.4339 30.1833 82.495 29.9428 82.5766C29.7737 82.3585 29.576 82.1038 29.3253 81.7818C29.3253 81.8226 29.305 81.7533 29.3294 81.7064C29.6086 81.1399 29.9693 80.6141 30.1323 79.9865C30.1955 79.7481 30.3565 79.4628 30.5603 79.3425C31.2898 78.9085 31.9521 78.3297 32.8487 78.2278C33.6944 78.1321 34.3751 77.7958 34.587 76.8238C35.6304 76.7423 36.6411 76.7076 37.6397 76.5731C38.3468 76.4773 39.0539 76.3021 39.7305 76.0698C41.265 75.542 42.7566 74.8695 44.3135 74.4253C45.6544 74.0421 46.9179 73.4247 48.2975 73.1761C48.4462 73.1496 48.6011 73.1455 48.7519 73.1292C49.4733 73.0457 50.1274 72.8663 50.7286 72.3793C51.4643 71.7822 52.2794 71.2666 53.2066 70.9793C53.769 70.8061 54.2887 70.4169 54.9428 70.7511C55.0814 70.8224 55.4421 70.7001 55.544 70.5554C55.8435 70.1356 56.082 70.5677 56.4406 70.5514C56.5405 70.3109 56.6566 70.0337 56.7972 69.6975C56.8054 69.6975 56.9175 69.6792 57.0295 69.6771C57.5268 69.6649 58.0057 69.6832 58.4947 69.4448C58.9145 69.239 59.4321 69.2349 59.8519 69.1514C60.019 69.3572 59.7358 69.6425 60.1026 69.614C60.3879 69.5895 60.6732 69.5487 60.9585 69.5406C61.5128 69.5243 62.0446 69.5671 62.4685 70.0195C62.5439 70.101 62.8007 70.0113 63.0574 69.9971C63.0574 70.4902 63.0574 70.9874 63.0574 71.4847C62.8761 71.3461 62.6764 71.2279 62.5194 71.0669C62.1363 70.6757 61.6962 70.6329 61.205 70.7939C61.1582 70.6655 61.1419 70.4535 61.0624 70.425C60.6874 70.2946 60.3003 70.1927 59.909 70.1234C59.2793 70.0113 58.6659 70.0093 58.077 70.586C58.6089 70.9345 59.155 70.6736 59.5626 70.8591C60.1515 71.1281 60.663 70.9671 61.203 70.7959C61.5535 70.9732 61.9285 71.1138 62.2505 71.3339C62.5928 71.5682 62.8862 71.8759 63.2897 72.2305C63.2836 71.9452 63.2836 71.8331 63.2836 71.7211ZM39.6571 78.3562C39.9628 78.7882 40.3316 78.7006 40.7168 78.6252C41.2874 78.5131 41.8926 78.5131 42.4306 78.3216C42.9788 78.1259 43.4597 77.7388 44.0935 77.8386C45.5281 77.1559 47.0544 76.6709 48.3973 75.7967C48.6561 75.6276 49.0698 75.491 49.6078 75.4421C49.1737 75.3056 48.9781 75.1813 48.7988 75.1996C48.5033 75.2302 48.1813 75.2974 47.9307 75.4503C46.8078 76.135 45.3508 76.0351 44.3523 76.9909C43.9345 76.889 43.5412 77.2252 43.205 77.1743C42.72 77.1009 42.4856 77.4861 42.0719 77.5533C41.2609 77.6837 40.3887 77.8284 39.6571 78.3562ZM53.7772 75.2037C53.8261 75.1405 53.875 75.0774 53.9239 75.0142C54.1297 75.0774 54.3355 75.1405 54.5414 75.2057C54.7227 75.0427 54.951 74.9204 55.0488 74.7309C55.1976 74.4416 55.6112 74.8675 55.6927 74.4517C55.6988 74.4191 56.1186 74.5373 56.2511 74.4456C56.6138 74.197 56.9256 73.873 57.3984 73.4552C56.9969 73.3982 56.7524 73.3065 56.5282 73.3411C55.2526 73.549 54.2051 74.1929 53.2983 75.0855C53.3513 75.2771 53.4002 75.4544 53.4471 75.6316C53.3961 75.6561 53.3472 75.6785 53.2963 75.703C53.1944 75.5685 53.0925 75.4319 52.9519 75.2465C52.8296 75.5175 52.7236 75.758 52.5728 76.0942C53.2922 76.188 53.6977 75.7743 54.2235 75.5766C54.0319 75.4177 53.9035 75.3097 53.7772 75.2037ZM30.925 79.4505C30.5745 79.8459 30.5745 79.8459 31.0555 80.5632C31.3143 80.0435 32.1314 79.9702 32.0193 79.1245C31.73 79.4098 31.4834 79.6543 31.2103 79.9233C31.0779 79.7053 31.0004 79.5769 30.925 79.4505ZM63.1715 79.1306C63.1715 79.4077 63.1715 79.6034 63.1715 79.8989C63.5037 79.7175 63.7707 79.5728 64.0356 79.4281C64.0213 79.3609 64.0071 79.2916 63.9908 79.2243C63.7218 79.1958 63.4548 79.1652 63.1715 79.1306ZM41.8029 79.206C41.3302 79.206 40.8574 79.206 40.3255 79.206C40.8635 79.7786 41.3526 79.1978 41.8029 79.206ZM61.4435 76.4407C61.2315 75.9985 60.8973 76.0983 60.5183 76.1533C60.7302 76.6607 61.0278 76.6852 61.4435 76.4407Z" fill="white"/>
<path d="M34.7312 18.5421C34.8433 18.5604 34.9554 18.5808 35.0675 18.5991C35.0471 18.86 34.9289 19.1636 35.0308 19.349C35.2081 19.6751 35.0471 19.9726 34.8861 20.0582C34.234 20.4087 34.6456 20.8795 34.4989 21.2768C34.5825 21.3054 34.666 21.3339 34.7496 21.3624C34.8474 21.2279 34.9717 21.1036 35.0369 20.9549C35.3324 20.2885 35.8153 19.8239 36.4837 19.5426C36.9056 19.3653 37.3152 19.1534 37.7472 19.0026C38.6826 18.6704 39.1635 17.8533 39.7096 17.1339C39.9745 16.7855 40.2619 16.5185 40.6083 16.274C41.0036 15.9927 41.4275 15.7686 41.6802 15.2795C41.7943 15.0594 42.2915 15.1613 42.4974 14.7436C42.642 14.4522 43.0985 14.2952 43.4368 14.122C43.7751 13.9509 44.1419 13.8367 44.4985 13.6982C44.7512 13.8164 44.9917 13.9284 45.2933 14.0711C45.5521 13.8123 45.9229 13.7797 46.3122 13.7919C46.7136 13.8041 47.1171 13.7939 47.5756 13.7939C47.6204 14.2158 47.4228 14.6009 46.9765 14.8577C47.1538 15.0513 47.2577 15.1613 47.3576 15.2714C48.3235 14.6437 49.2915 15.1145 49.375 16.2149C49.4056 16.6265 49.4912 17.032 49.5645 17.5313C48.4397 17.4987 47.922 18.4443 47.1681 19.025C46.9072 19.2268 46.7055 19.2472 46.41 19.0271C45.8801 19.995 44.8205 19.9441 43.9911 20.3822C43.8036 20.6084 43.61 20.7857 43.2432 20.9406C42.2202 21.3726 41.183 21.6518 40.0907 21.8291C39.3897 21.9432 38.7172 22.255 38.0468 22.5138C37.6433 22.6687 37.2948 22.8154 36.8587 22.5423C36.6651 22.4221 36.335 22.5219 36.0721 22.5219C35.8581 22.795 35.6462 23.066 35.4404 23.3269C35.1653 23.2719 34.9248 23.225 34.6477 23.17C34.4378 23.7446 34.1566 24.2398 34.45 24.8471C34.5315 25.0142 34.4724 25.3199 34.3664 25.4951C33.9304 26.2206 33.586 26.9603 33.5513 27.8284C33.5411 28.0811 33.4678 28.4255 33.2925 28.56C32.8218 28.9248 32.7973 29.4668 32.6058 29.9437C32.457 30.3105 32.2532 30.5713 31.7315 30.5143C31.7947 31.1134 31.6011 31.6473 31.1202 32.114C30.9062 32.3218 30.9001 32.7375 30.784 33.0534C30.7208 33.2266 30.6291 33.3896 30.5435 33.573C29.8853 33.4141 29.9036 32.4584 29.0803 32.5012C29.0029 32.6988 28.9132 32.925 28.8175 33.1736C28.6972 33.1308 28.5362 33.1227 28.4975 33.0493C28.2713 32.6132 28.0736 32.1629 27.8678 31.7166C28.2428 31.3213 28.0818 30.8505 27.9208 30.4756C27.7211 30.015 27.8067 29.5708 27.768 29.1163C27.7293 28.6354 27.7639 28.1137 27.8515 27.6899C27.9799 27.0581 27.7313 26.4631 27.8332 25.9251C28.0084 24.9857 27.4908 24.0585 27.8984 23.1537C27.5662 22.8765 27.8291 22.5016 27.7456 22.2C27.336 20.7225 27.9106 19.1636 27.3482 17.7066C27.501 16.6632 27.2463 15.6321 27.285 14.5826C27.3461 12.9686 27.2259 11.3486 27.2361 9.73256C27.2402 9.07027 27.3808 8.41001 27.4623 7.72327C27.3767 7.74161 27.2789 7.76198 27.124 7.79663C27.124 6.76141 27.124 5.73028 27.124 4.67061C27.825 4.22636 28.4649 3.70264 29.1965 3.40308C29.6937 3.1993 30.3316 3.22783 30.8858 3.30323C31.8212 3.43161 32.7342 3.79842 33.6654 3.83917C34.2136 3.86363 34.7638 3.95329 35.31 3.93495C35.5586 3.9268 35.8255 3.80861 36.0415 3.67207C36.8995 3.12797 37.8267 2.84268 38.8354 2.73875C39.2063 2.70207 39.569 2.48402 39.9175 2.31081C40.6817 1.9277 41.56 2.01125 42.3506 1.7178C42.4974 1.66278 42.6787 1.65463 42.8173 1.53847C43.0048 1.37952 43.1454 1.06977 43.4674 1.35099C43.5061 1.38564 43.6447 1.36933 43.6813 1.32858C44.4251 0.491031 45.5643 0.609224 46.4711 0.171092C46.5404 0.138487 46.5995 0.0834661 46.6708 0.0549366C46.7401 0.026407 46.84 -0.0184242 46.8889 0.00806751C47.6918 0.458426 48.5354 -0.0163869 49.3424 0.122185C50.1229 0.256681 50.8871 0.488993 51.6594 0.672397C51.7695 0.698888 51.904 0.721306 52.0038 0.684625C52.8149 0.385065 53.5342 0.870065 54.3025 0.941389C54.5654 1.34488 55.0381 0.784478 55.3316 1.17982C55.5904 1.52828 55.9572 1.24095 56.273 1.2654C56.5176 1.28578 56.8783 1.40194 56.9598 1.58127C57.1147 1.91547 57.3409 1.65055 57.5222 1.74429C58.2416 2.1111 58.9243 2.54516 59.6864 2.84676C60.1041 3.01182 60.3976 3.52739 60.7114 3.91254C60.9437 4.19783 60.9886 4.63596 61.4185 4.76435C61.4797 4.78269 61.5714 4.91718 61.5612 4.92941C61.2148 5.37162 61.7038 5.66099 61.7833 6.01353C61.8669 6.39461 62.2316 6.72066 62.2846 7.09562C62.3315 7.43389 62.1094 7.81293 62.3295 8.16344C62.4599 8.37333 62.6555 8.5547 62.7452 8.77886C62.8185 8.9643 62.7554 9.19865 62.79 9.40447C62.8491 9.76109 62.7655 10.0138 62.2846 10.0403C62.5393 10.5293 62.949 10.9491 62.9 11.3058C62.8267 11.8274 63.2098 12.1535 63.1324 12.7119C63.0671 12.8239 62.8348 13.044 62.8308 13.2682C62.8165 14.3462 62.3356 15.2591 61.8913 16.1904C61.5958 16.812 61.5755 17.4722 61.549 18.1528C61.5266 18.6847 61.5714 19.2207 61.4532 19.7709C61.2576 20.692 61.2698 21.6559 61.172 22.5994C61.1088 23.2046 61.0782 23.8261 60.903 24.4008C60.74 24.9388 60.4017 25.4238 60.151 25.9373C60.0226 26.2043 59.8168 26.4835 59.8209 26.7545C59.8331 27.4616 59.4826 28.0098 59.1525 28.5661C58.6267 29.4546 58.1071 30.3492 57.512 31.1908C56.8334 32.1486 56.2282 33.1512 55.5822 34.1273C55.3173 34.5288 54.9362 34.861 54.5715 35.185C54.4084 35.3297 54.1659 35.4051 53.9459 35.458C53.0207 35.6781 52.982 35.6863 52.4317 36.1448C52.0996 36.051 51.8123 35.833 51.3782 36.0735C50.9747 36.2976 50.4225 36.3812 49.9558 36.3282C49.2527 36.2508 48.6557 36.4484 48.0382 36.6991C47.7977 36.7969 47.5206 36.8478 47.2598 36.8478C46.2898 36.8478 45.3218 36.8315 44.3946 36.4769C44.2234 36.4117 44.0217 36.4117 43.8321 36.4097C42.2773 36.3954 40.7672 36.0836 39.2572 35.7596C39.1839 35.7433 39.1023 35.7128 39.0331 35.727C37.2398 36.0877 35.5097 35.238 33.6532 35.5294C33.5595 34.4656 34.3461 34.0519 35.0084 33.4508C34.5702 33.4059 34.236 33.3733 33.8916 33.3387C34.018 33.0779 33.7021 32.5867 34.3053 32.6621C35.1306 31.5923 36.4124 31.6229 37.5495 31.2927C38.0936 31.1358 38.6092 30.8729 39.2144 30.6284C39.5283 31.1501 40.0785 31.091 40.6144 31.093C41.2665 31.093 41.941 31.0034 42.4505 31.4496C42.9498 31.1766 43.4185 30.9218 43.877 30.6712C44.415 30.9218 44.8796 30.9157 45.3992 30.5693C45.7599 30.3288 46.2531 30.284 46.6892 30.1597C47.4228 29.9498 48.1401 29.7379 48.5477 28.9879C48.7229 28.666 48.996 28.397 49.2589 28.0628C49.3322 29.5932 49.3322 29.5932 49.695 30.0598C49.86 29.4648 50.2187 28.831 50.1637 28.236C50.0373 26.8808 50.9482 25.8191 51.0175 24.5292C51.0583 23.7446 51.3028 22.9682 51.4577 22.1898C51.6207 21.3706 51.7776 20.5493 51.9549 19.7342C52.0038 19.5121 52.0751 19.2696 52.2137 19.1025C52.4725 18.7907 52.5398 18.4483 52.6233 18.0652C52.7863 17.3234 53.3039 16.5919 53.2469 15.8888C53.1898 15.1756 53.0085 14.4297 53.1246 13.7328C53.3019 12.6854 52.9188 11.8213 52.5112 10.939C52.1892 10.242 51.7633 9.58176 51.8938 8.75848C51.9427 8.44669 51.7205 8.29589 51.5534 8.08192C50.9013 7.24234 50.0027 6.6962 49.159 5.98704C48.9858 6.10116 48.8003 6.22343 48.6068 6.35181C47.8018 6.05021 47.0315 5.76492 46.0697 5.91775C45.1975 6.05633 44.2601 6.02372 43.3512 6.01761C42.9762 6.01353 42.6013 6.12765 42.2263 6.18879C41.2523 6.35181 40.2802 6.51891 39.3041 6.67175C39.2022 6.68805 39.0188 6.6473 38.9903 6.58412C38.7518 6.03391 38.4401 6.29271 38.0631 6.42517C37.1705 6.74103 36.5041 7.39314 35.7481 7.90259C35.4037 8.1349 35.3059 8.53228 35.1612 8.94596C34.7903 9.99748 35.3507 10.9777 35.1816 11.9905C35.0736 12.6303 35.1021 13.2967 34.9431 13.9203C34.7455 14.6906 34.8229 15.469 34.7373 16.2393C34.717 16.4248 34.7027 16.6999 34.8087 16.7957C35.5137 17.4233 34.9778 17.9756 34.7475 18.5502C34.3379 18.6277 34.2646 19.0006 34.126 19.2981C34.0812 19.3939 34.1871 19.5569 34.2258 19.6894C34.2809 19.6873 34.3379 19.6853 34.3929 19.6832C34.5091 19.3103 34.6212 18.9272 34.7312 18.5421ZM32.6934 9.61029C32.671 9.80796 32.7117 10.0668 32.6119 10.2542C32.1737 11.0714 32.1717 11.9456 32.1962 12.8321C32.2084 13.2947 32.1962 13.7593 32.1676 14.2219C32.1513 14.4766 31.972 14.766 32.0454 14.9759C32.404 15.9846 31.8171 16.9403 31.9414 17.9266C31.5828 18.5176 31.8497 19.1493 31.8762 19.7485C31.9027 20.3476 31.9965 20.9365 31.809 21.5254C32.2206 21.6131 32.3021 21.3461 32.4122 21.0975C32.8911 20.0175 32.4224 18.8212 32.836 17.7351C32.4468 17.189 32.8259 16.6367 32.8157 16.0885C32.8034 15.4813 32.6934 14.876 32.6914 14.2688C32.6893 13.8938 32.7851 13.5127 32.8829 13.1459C33.1825 12.0353 33.2497 10.8962 33.3496 9.76109C33.3557 9.69792 33.2905 9.62659 33.2681 9.58176C33.0867 9.59195 32.9176 9.6001 32.6934 9.61029ZM55.9918 29.316C55.9918 29.7745 55.9918 30.1862 55.9918 30.6202C56.1324 30.5876 56.1854 30.5897 56.2017 30.5673C56.2425 30.5082 56.2934 30.4389 56.2975 30.3696C56.3586 29.3405 56.5054 28.3379 57.0923 27.4514C57.1738 27.3271 57.2553 27.1661 57.2471 27.0276C57.2125 26.3979 57.4407 25.8334 57.5915 25.2445C57.6567 24.9897 57.7973 24.5801 57.292 24.3906C57.1962 24.7574 57.1045 25.1181 57.0087 25.4788C56.9109 25.8436 56.8294 26.2145 56.703 26.569C56.5645 26.9562 55.8757 27.1295 56.2567 27.7225C55.6637 27.9079 55.9653 28.5417 55.68 28.8861C55.6434 28.9309 55.676 29.0307 55.676 29.1C55.8084 29.1917 55.9327 29.2753 55.9918 29.316ZM39.1818 18.8579C38.6377 19.2084 38.2872 19.4326 37.9408 19.6568C37.5944 19.8809 37.25 20.1071 36.9178 20.3231C36.7466 20.1968 36.6101 20.099 36.3187 19.885C36.4165 20.2416 36.4634 20.4067 36.5184 20.6105C36.2005 20.8917 35.8704 21.1851 35.5158 21.501C35.6442 21.5193 35.7542 21.556 35.8622 21.5458C36.3615 21.503 36.6447 20.9019 37.2092 21.016C37.5006 20.5126 38.1568 20.5514 38.5053 20.1499C38.76 19.8544 39.1023 19.5834 39.1818 18.8579ZM53.0186 6.97742C53.8562 7.63971 53.9194 8.77274 54.869 9.22718C54.9994 7.53578 54.7447 7.20973 53.0186 6.97742ZM53.9703 32.5175C54.0131 32.5643 54.0539 32.6092 54.0966 32.656C54.1822 32.599 54.2739 32.548 54.3555 32.4849C54.7977 32.1343 54.7732 31.4272 55.356 31.1847C55.2419 30.8587 55.8125 30.4898 55.2439 30.1597C54.818 30.9463 54.3942 31.7329 53.9703 32.5175ZM59.9534 6.07874C59.8841 5.37365 59.4031 5.04149 59.0424 4.65023C58.3985 3.95533 58.3883 3.96348 57.6058 3.87178C58.4107 4.62985 59.1403 5.31456 59.9534 6.07874ZM61.6305 9.6164C61.2942 10.4682 61.1292 11.3384 61.6305 12.3777C61.6305 11.3343 61.6305 10.4764 61.6305 9.6164ZM28.956 29.6156C28.956 30.2188 28.9418 30.6284 28.9662 31.036C28.9723 31.1379 29.1109 31.2296 29.2291 31.3763C29.5083 30.3207 29.5083 30.3207 28.956 29.6156ZM41.2543 5.66506C40.3556 5.47147 40.3006 5.49592 39.8665 6.11746C40.4127 5.94017 40.8325 5.8016 41.2543 5.66506ZM41.2319 19.4448C40.3291 19.5752 40.3291 19.5752 39.8971 20.3415C40.4534 19.9685 40.8426 19.7057 41.2319 19.4448ZM42.5972 5.32475C42.1672 5.12096 41.8208 5.29418 41.2523 5.57336C41.9207 5.80975 42.2487 5.5163 42.5972 5.32475Z" fill="white"/>
<path d="M53.0769 54.2932C53.1136 54.3972 53.1523 54.5011 53.2094 54.6621C52.8079 54.7212 52.3943 54.7803 51.9174 54.8496C51.8176 54.5052 51.7014 54.1119 51.5608 53.6289C51.3876 53.6636 51.0595 53.6493 51.0147 53.7553C50.8679 54.0996 51.0901 54.3258 51.5486 54.4114C51.359 54.6376 51.2449 54.8903 51.1288 54.8924C50.5908 54.8964 50.2484 55.2449 49.8938 55.5445C49.6513 55.7503 49.417 55.8338 49.1073 55.8155C48.445 55.7768 47.9579 56.2516 47.3669 56.435C47.1835 56.4921 47.5993 56.7855 47.2508 56.8405C47.1081 56.8629 46.9675 56.9078 46.8575 56.9343C46.8575 57.8472 46.8575 58.7031 46.8575 59.6792C47.4627 59.3593 47.9803 59.4938 48.5428 59.6058C49.0298 59.7037 49.5841 59.4632 50.1078 59.3715C50.5358 58.6909 51.2021 58.9374 51.7707 59.0088C52.327 59.0801 52.863 59.3104 53.4234 59.4754C52.9791 59.6527 53.0912 60.1499 53.1483 60.3252C53.2522 60.6349 53.6251 60.8571 53.9267 61.1587C54.1937 62.1042 53.8615 63.0681 53.6068 64.0075C53.4906 64.4355 53.7413 64.5476 53.89 64.7982C53.6577 65.2099 53.4234 65.6256 53.1829 66.0515C53.1157 65.9394 53.0586 65.8457 52.9689 65.6928C52.7122 65.8803 52.4595 66.0637 52.1884 66.2614C52.0601 66.0922 51.9276 65.917 51.7931 65.7397C51.5791 66.0291 51.4243 66.4427 51.1451 66.567C50.5969 66.8075 49.9835 66.9114 49.3864 67.0215C48.3084 67.2192 47.2223 67.3781 46.1993 67.5452C45.8121 68.6436 46.2074 69.7012 46.0322 70.8852C45.8039 70.661 45.6796 70.5388 45.5349 70.3982C45.3352 71.0278 45.1376 71.6535 44.9745 72.1711C44.6363 72.2383 44.353 72.2118 44.1941 72.3402C43.7518 72.6927 43.2628 72.7824 42.7187 72.87C42.1155 72.9699 41.4185 72.8191 40.9213 73.2695C40.526 73.6281 40.0756 73.4223 39.664 73.4814C39.3828 73.5221 39.0567 73.243 38.8692 73.1614C38.9854 72.4564 39.0771 71.8715 39.179 71.2907C39.2381 70.9565 39.3114 70.6244 39.3807 70.2922C39.4928 69.7379 39.6069 69.1857 39.7496 68.4908C38.7307 68.6416 37.8055 68.3726 37.023 69.0308C36.7519 69.259 36.4096 69.2468 36.1793 69.0145C35.9062 68.7414 35.6535 68.8392 35.356 68.8841C34.7039 68.9798 34.0457 69.0349 33.3916 69.1103C32.9432 69.1612 32.878 69.1388 32.2443 68.6171C32.4806 68.2584 32.609 67.8305 32.124 67.5941C31.8204 67.4474 31.7694 67.2599 31.7267 66.9848C31.6451 66.4774 31.5005 65.9761 31.4393 65.4666C31.4108 65.2364 31.5188 64.9918 31.5514 64.8227C31.9101 64.6169 32.1485 65.0672 32.446 64.788C32.6213 64.623 32.9127 64.5761 33.0859 64.409C33.901 63.6305 34.8995 63.1476 35.892 62.6646C36.0937 62.5668 36.1304 62.0247 36.5787 62.3936C36.6704 62.469 37.0494 62.1837 37.3021 62.0757C37.3918 62.037 37.5222 62.0675 37.5895 62.0125C37.8503 61.8047 38.0949 61.5764 38.3455 61.3543C38.7694 61.7068 38.8835 61.1342 39.1484 61.0873C39.7149 60.9875 39.8107 60.5595 39.8311 60.152C39.8779 59.235 39.8453 58.3118 39.8453 57.3826C38.9772 57.5721 38.1845 57.727 37.3551 57.5395C37.027 57.4641 36.6419 57.4722 36.3219 57.5721C35.0809 57.9573 33.9092 57.835 32.77 57.2399C32.9127 56.7162 32.9493 56.7529 33.1654 56.5491C33.3569 56.3677 33.469 56.1028 33.6014 55.895C33.4364 55.6851 33.3182 55.5343 33.2408 55.4365C33.3263 54.3707 34.2739 54.0772 34.9036 53.525C34.9362 53.5637 35.0198 53.6636 35.1319 53.7981C35.2399 53.6534 35.3479 53.5413 35.4131 53.4088C35.5598 53.1113 35.7106 53.0441 36.0978 53.0604C36.6358 53.0828 37.1799 52.7812 37.7321 52.6874C38.0663 52.6324 37.6567 52.2371 38.0826 52.1759C38.6614 52.0904 39.2075 51.7847 39.829 51.5503C39.6212 51.1387 39.6008 50.6618 39.9146 50.2257C40.1001 49.969 39.9656 49.7652 39.9207 49.5023C39.8209 48.9012 39.8616 48.2715 39.8759 47.6561C39.8881 47.1099 39.9065 46.576 39.2116 46.1318C39.6742 46.0217 39.9432 45.9585 40.2121 45.8933C40.2774 45.4104 40.7257 45.2636 41.0517 45.0721C41.3167 44.9152 41.443 44.8968 41.3819 44.5158C41.3411 44.2651 41.6753 43.9554 41.8424 43.668C42.2051 43.719 42.6249 43.9085 42.8899 43.7801C43.2485 43.6049 43.6479 43.4765 43.9719 43.2075C44.6974 42.6063 45.4636 42.4902 46.2013 43.128C46.4927 42.9589 46.7474 42.8121 46.9757 42.6797C47.098 42.7673 47.1937 42.7999 47.208 42.8529C47.532 44.1673 48.18 45.4287 47.8744 46.8491C47.8479 46.9734 47.8866 47.1242 47.9314 47.2505C48.0333 47.5379 48.1576 47.817 48.2758 48.1105C49.0563 48.084 49.0563 48.084 49.2479 47.8924C49.3661 48.0738 49.4822 48.2531 49.5943 48.4264C49.6799 48.4264 49.7532 48.4467 49.8083 48.4223C50.1384 48.2857 50.3911 47.8986 50.8516 48.2001C50.9372 48.2572 51.2409 47.9821 51.4548 47.8558C51.6932 48.0779 51.9378 48.3061 52.2557 48.6036C52.2761 48.3265 52.2842 48.2063 52.3026 47.9515C52.5288 48.1879 52.6796 48.3408 52.8222 48.4997C52.9465 48.6383 53.0341 48.8604 53.1849 48.9175C54.1468 49.272 54.5788 50.2298 55.3634 50.78C55.773 51.0674 56.205 51.3262 56.2213 51.9375C56.2233 52.0251 56.6268 52.1026 56.8795 52.1984C56.7674 52.4266 56.6166 52.6446 56.5575 52.8851C56.4882 53.1724 56.4964 53.4801 56.2906 53.7981C56.258 53.6615 56.2254 53.527 56.1602 53.2601C55.989 53.5392 55.8667 53.7369 55.7526 53.9203C55.3573 54.0691 54.9456 54.224 54.4851 54.3972C54.4036 54.3421 54.2528 54.2403 54.0999 54.1363C54.0103 54.2708 53.9308 54.3931 53.8533 54.5072C53.5803 54.4277 53.3276 54.3605 53.0769 54.2932C53.2094 54.0895 53.3398 53.8857 53.5253 53.5983C53.1218 53.6941 52.8181 53.7675 52.49 53.847C52.49 53.6371 52.5104 53.4088 52.488 53.4048C52.1558 53.3416 51.9541 53.5555 51.9541 53.8347C51.9541 54.0915 52.0641 54.3625 52.4758 54.1526C52.6164 54.0793 52.8731 54.2382 53.0769 54.2932ZM48.1332 55.5057C48.8484 55.0269 49.8042 55.2266 50.2525 54.4094C50.1384 54.2015 50.0304 54.0059 49.9224 53.8103C49.4802 53.8592 48.9666 53.6146 48.7058 54.1934C48.826 54.2667 48.9463 54.3401 49.0848 54.4237C48.7384 54.7721 48.3838 54.9922 47.8907 54.8027C47.8744 54.7966 47.8132 54.9066 47.7236 55.0309C47.8255 55.1512 47.9437 55.2857 48.1332 55.5057ZM38.5187 53.9733C38.8224 53.9733 39.1341 53.9407 39.4337 53.9815C39.7883 54.0304 40.0389 53.9427 40.1958 53.6167C39.395 53.1949 39.3074 53.2132 38.5187 53.9733ZM49.8286 64.5313C50.5765 65.2527 51.0962 64.6637 51.6566 64.3886C50.9882 63.7406 50.5032 64.625 49.8286 64.5313Z" fill="white"/>
<path d="M19.179 60.6117C19.7374 60.3733 19.8576 59.6193 20.5159 59.4746C20.577 59.4603 20.5688 59.1282 20.5933 58.9427C21.1048 58.7369 21.1252 58.2784 21.2862 57.7343C20.7787 58.095 20.4731 58.4027 20.579 58.9285C20.4547 58.849 20.3284 58.7695 20.1022 58.6269C20.7787 57.6997 21.3677 56.7602 22.0891 55.9369C22.8043 55.1198 23.3342 54.2741 23.7173 53.1818C24.1126 52.0488 24.3857 50.9137 24.3042 49.7073C24.2981 49.6299 24.296 49.5484 24.3144 49.477C24.6098 48.3379 24.8972 47.1988 25.209 46.0657C25.3598 45.5176 25.5574 44.9836 25.7306 44.4518C26.0404 44.4518 26.452 44.57 26.5723 44.4314C27.2162 43.6978 28.1821 43.8119 28.9504 43.4329C29.303 43.6835 29.4904 43.4023 29.7024 43.1985C29.953 42.958 30.1853 42.6952 30.4543 42.4792C30.6194 42.3467 30.8415 42.2815 31.0514 42.1816C31.2776 43.0783 31.4997 43.2739 32.2456 42.9988C32.9099 42.7543 33.2217 43.2963 33.7678 43.4777C33.346 43.9281 33.0709 44.4029 33.6089 44.9327C33.9329 45.2526 33.8982 45.7132 33.7678 46.0209C33.3297 47.0541 33.346 48.2116 32.7041 49.2081C32.2211 49.9559 32.0479 50.9056 31.7402 51.7655C31.7015 51.8715 31.6954 52.0651 31.6403 52.0773C30.8782 52.2546 30.9699 52.7233 31.1594 53.2878C31.2002 53.41 31.0331 53.6913 30.8904 53.7687C30.5664 53.946 30.2893 54.0805 30.5093 54.5247C30.5297 54.5634 30.3341 54.7285 30.222 54.81C29.9877 54.9792 29.8267 55.13 29.9795 55.4744C30.0508 55.6374 29.9775 55.9308 29.8654 56.0959C29.5475 56.5626 29.631 57.2208 29.0706 57.5937C28.8832 57.718 28.983 58.2784 28.7976 58.3986C28.4899 58.5963 28.6101 58.7451 28.5734 58.9957C28.5143 59.389 28.2066 59.817 27.8846 60.0819C27.5402 60.3631 27.2488 60.5669 27.2855 61.0743C27.2957 61.2149 27.0185 61.3759 26.7475 61.6571C26.6477 61.0315 26.8841 60.4813 26.3135 60.0574C26.2686 60.5424 25.8692 60.8175 26.073 61.4003C26.2136 61.8038 25.9854 62.3377 25.9018 62.9593C25.6695 62.5578 25.5248 62.3051 25.3536 62.0097C25.3088 62.1258 25.2232 62.2297 25.2477 62.297C25.6145 63.3098 25.2803 63.9639 24.4061 64.6058C23.6745 65.1438 23.1711 65.9916 22.5537 66.7191C22.515 66.6681 22.4538 66.5866 22.4008 66.5132C22.0911 66.823 21.8017 67.1715 21.4533 67.4466C20.9764 67.8215 20.4547 68.1394 19.9514 68.4797C19.8597 68.5429 19.715 68.6672 19.6702 68.6387C19.2748 68.3982 19.177 68.71 19.0058 68.9484C18.8489 69.1645 18.6451 69.3479 18.4434 69.5659C18.0664 69.3091 17.7587 69.3091 17.4041 69.6189C17.1005 69.8858 16.7011 70.0509 16.3302 70.2302C15.8533 70.4605 15.3622 70.6582 14.8548 70.8803C14.7509 70.6765 14.6123 70.4096 14.4554 70.1018C14.1334 70.1976 13.789 70.2465 13.5017 70.3994C13.1349 70.595 12.819 70.8803 12.4726 71.1126C12.3829 71.1737 12.2586 71.1982 12.1486 71.2125C11.2417 71.3164 10.3329 71.4122 9.37304 71.5181C9.3119 70.5991 9.98439 70.1141 10.3879 69.5333C10.7037 69.0768 11.2091 68.7304 11.6778 68.4003C13.035 67.4445 14.1517 66.2789 15.0769 64.8952C15.7351 63.9109 16.5176 63.0082 17.3226 61.9689C17.2859 62.3214 17.2574 62.5802 17.2248 62.9022C17.6384 62.7922 17.8728 62.5415 18.0582 62.1971C18.2742 61.7957 18.5249 61.4126 18.7613 61.0213C18.8917 60.8827 19.0364 60.7462 19.179 60.6117ZM16.9925 67.2632C17.0944 67.2346 17.2166 67.2346 17.292 67.1755C17.9115 66.6885 18.529 66.2055 19.1709 65.745C19.7924 65.3007 20.3854 64.8382 21.0722 64.4897C21.331 64.3572 21.5307 64.0943 21.7345 63.8702C22.2663 63.2833 22.5557 62.4906 23.2873 62.0606C23.4157 61.9852 23.4401 61.7305 23.5135 61.5573C21.0885 63.2099 18.9814 65.1438 16.9925 67.2632ZM29.1012 48.4479C28.926 48.5539 28.7996 48.5845 28.7527 48.664C28.1699 49.6258 27.6971 50.6427 27.3059 51.6962C27.1612 52.0855 26.9819 52.4625 26.88 52.8619C26.7964 53.194 26.776 53.5588 27.2223 53.7891C27.7787 52.9536 27.85 51.843 28.6549 51.1501C28.6794 51.1277 28.6835 51.0808 28.6957 51.0462C28.8404 50.6182 29.1562 50.1556 29.0829 49.7685C28.9993 49.3385 29.144 48.9309 29.1012 48.4479ZM25.8651 47.3985C26.4948 46.9359 26.8087 46.5263 26.988 45.9496C27.1367 45.4748 27.3324 44.9429 27.9132 44.7167C28.0538 44.6617 28.0986 44.3641 28.1903 44.1726C28.0415 44.1155 27.9437 44.0442 27.905 44.0687C27.2244 44.5068 26.4235 44.8247 26.3522 45.8253C26.3318 46.1085 26.1178 46.3734 26.0159 46.6547C25.9589 46.8218 25.9446 47.0052 25.8651 47.3985ZM31.4304 47.0806C31.4467 46.8034 31.461 46.5283 31.4834 46.1595C31.0269 46.4631 30.8802 46.7219 31.4304 47.0806ZM25.4331 48.774C25.9446 48.6456 26.0445 48.2768 25.9528 47.8121C25.7796 48.1321 25.6063 48.4541 25.4331 48.774Z" fill="white"/>
<path d="M19.1792 60.61C19.0366 60.7445 18.8919 60.879 18.7492 61.0155C18.6066 61.0013 18.4639 60.987 18.2744 60.9687C18.3804 60.4246 18.7778 60.2106 19.1792 59.7256C19.1792 60.1658 19.1792 60.3879 19.1792 60.61Z" fill="white"/>
<path d="M102.277 56.9298C102.287 57.4005 102.197 57.7918 101.873 58.2034C101.633 58.5091 101.457 58.9411 101.325 59.3711C101.054 60.2433 101.015 61.2724 100.08 61.8287C99.9861 61.8837 99.9841 62.0957 99.9413 62.2363C99.8965 62.3769 99.8761 62.6296 99.8068 62.6438C99.1404 62.7804 99.0324 63.3163 98.9489 63.838C98.8979 64.1579 98.2519 63.9358 98.47 64.429C98.1806 64.5553 98.2336 64.8549 98.1195 65.0648C98.0685 65.1565 97.7404 65.0953 97.5183 65.1055C97.6569 65.5742 97.0843 65.9797 97.3349 66.5157C97.3594 66.5687 97.1474 66.7317 97.0476 66.8458C96.6237 67.3247 95.9553 67.6752 96.1795 68.5005C96.1856 68.525 96.0694 68.6045 96.0022 68.6228C95.7047 68.6962 95.4092 68.6636 95.4031 69.1689C95.399 69.4298 94.9894 69.6478 94.6063 69.7314C94.0662 69.8496 93.4732 69.9759 93.2837 70.6402C92.705 70.7849 92.7356 71.2964 92.6989 71.7998C92.3361 71.7203 92.0488 71.6571 91.7472 71.5919C91.523 71.8568 91.627 72.3826 91.1175 72.4356C90.2453 71.6143 90.0905 71.2149 90.3248 70.198C90.4022 69.8679 90.5245 69.5296 90.7059 69.2443C91.4008 68.148 91.5984 66.8356 92.2852 65.7311C92.4747 65.4275 92.4482 64.9955 92.5583 64.6348C92.7009 64.1702 92.8334 63.6933 93.0555 63.2654C93.3082 62.7804 93.62 62.3443 93.351 61.7594C93.3306 61.7146 93.512 61.578 93.5996 61.4843C93.4957 61.3946 93.3245 61.3233 93.298 61.2153C93.1696 60.712 93.4406 60.335 93.7769 60.0069C93.8727 59.9131 94.0255 59.8765 94.1416 59.8214C94.0785 59.4424 93.7687 59.1164 94.2028 58.8372C94.2843 58.7862 94.376 58.611 94.3454 58.5498C94.0031 57.8529 94.6287 57.3068 94.6185 56.6649C94.6083 55.97 94.6165 55.2751 94.6165 54.6759C94.6857 54.5455 94.7041 54.5129 94.7224 54.4783C95.2237 53.5755 95.2319 53.5755 95.1728 53.3371C95.3358 53.2821 95.5029 53.227 95.7556 53.1415C95.6415 52.9825 95.5437 52.848 95.4377 52.7033C95.4459 52.6544 95.4377 52.5423 95.4683 52.5301C96.2039 52.253 96.0898 51.5153 96.2182 50.9814C96.4199 50.1397 96.6094 49.2859 96.7643 48.4341C96.8968 47.6984 97.1332 46.9567 96.9742 46.1639C96.8356 45.4772 97.0537 44.8068 97.3125 44.1506C97.7853 42.9462 98.2132 41.7256 98.6493 40.507C98.7899 40.1157 98.9183 39.7163 98.9957 39.3087C99.0222 39.1681 98.8837 38.9928 98.8164 38.8359C98.7797 38.7524 98.686 38.6688 98.6962 38.5955C98.9652 36.5943 99.0182 34.5545 99.7579 32.6389C100.143 31.6383 100.51 30.6296 100.917 29.6392C101.527 28.1557 101.847 26.5907 102.283 25.0582C102.407 24.6262 102.54 24.1962 102.678 23.7275C102.395 23.5034 102.505 23.0774 102.395 22.676C102.548 22.6251 102.884 22.5986 102.917 22.4844C103.122 21.7651 103.811 21.5735 104.278 21.1436C104.74 20.7177 105.081 20.1776 105.778 19.9963C106.128 19.9046 106.385 19.4644 106.672 19.1934C107.846 19.5846 108.991 19.8883 110.206 19.8455C110.587 19.8312 111.005 19.8557 111.349 20.0003C111.675 20.1369 111.926 20.4548 112.209 20.6952C112.032 21.0152 111.895 21.2617 111.663 21.6795C112.246 21.492 112.58 22.0993 113.069 21.7243C113.12 21.6856 113.254 21.6693 113.285 21.7019C113.642 22.083 113.992 22.4681 114.322 22.8716C114.369 22.9287 114.296 23.0856 114.275 23.2181C114.108 23.0978 113.964 22.9919 113.815 22.8839C113.76 22.9287 113.674 22.9654 113.668 23.0122C113.611 23.428 113.56 23.8437 113.532 24.2614C113.527 24.3266 113.662 24.3918 113.699 24.4713C113.754 24.5895 113.839 24.8116 113.805 24.8361C113.652 24.9421 113.462 24.991 113.205 25.0929C113.15 25.3659 113.047 25.747 113.552 25.9386C113.332 26.1974 113.419 26.7944 112.731 26.6212C112.855 27.7807 112.274 28.7426 111.812 29.7452C111.604 30.1935 111.414 30.652 111.247 31.1187C111.176 31.3184 111.109 31.5792 111.178 31.7586C111.292 32.0479 111.314 32.2517 111.078 32.484C111.005 32.5574 111.033 32.7388 111.023 32.8712C111.007 33.0546 111.047 33.3705 110.976 33.399C110.422 33.613 110.768 33.937 110.829 34.2345C110.85 34.3364 110.809 34.4526 110.789 34.6197C110.685 34.4526 110.611 34.3344 110.491 34.1388C110.371 34.2631 110.267 34.3711 110.171 34.4709C110.332 34.691 110.444 34.8459 110.558 35.0008C109.906 35.4165 110.112 36.0788 110.132 36.6371C109.894 36.6188 109.619 36.5332 109.566 36.6066C109.356 36.9 109.682 36.9571 109.89 37.0793C109.605 37.2485 109.354 37.3993 109.103 37.5501C109.079 37.6214 109.038 37.6907 109.03 37.762C108.985 38.2796 108.91 38.7972 108.922 39.3148C108.926 39.5247 108.979 39.6735 108.747 39.7693C108.682 39.7957 108.606 39.8548 108.58 39.916C108.402 40.348 108.044 40.7372 108.233 41.265C107.406 41.1061 107.593 41.8682 107.461 42.2167C106.497 44.7415 105.576 47.2827 104.685 49.832C104.219 51.1648 103.84 52.5281 103.416 53.8751C103.389 53.9607 103.296 54.0279 103.234 54.1013C103.2 53.9872 103.165 53.873 103.1 53.6631C102.774 54.085 102.507 54.3906 102.562 54.841C102.546 54.9164 102.531 54.9918 102.519 55.0672C102.44 55.3708 102.358 55.6745 102.279 55.9781C102.197 56.4325 101.698 56.779 101.851 57.2375C101.987 57.1376 102.132 57.0337 102.277 56.9298ZM102.055 40.0016C101.836 40.0016 101.618 40.0016 101.284 40.0016C101.653 40.2889 102.002 40.4499 101.706 40.8676C101.541 40.7474 101.376 40.6272 101.142 40.458C101.105 40.8901 101.076 41.2202 101.052 41.5157C100.816 41.6013 100.655 41.6604 100.526 41.7072C100.565 41.8947 100.661 42.0638 100.616 42.1841C100.314 43.0094 100.337 43.8938 100.053 44.7354C99.7823 45.5424 99.6499 46.4676 99.7436 47.3092C99.8496 48.2588 99.6152 49.0984 99.3259 49.9319C99.1506 50.4393 99.1139 50.8652 99.334 51.2748C99.5297 51.2748 99.6988 51.2789 99.8659 51.2707C99.8863 51.2707 99.9046 51.2116 99.925 51.1811C99.872 50.9671 99.8211 50.7531 99.764 50.5208C99.9067 50.5412 100.002 50.5555 100.19 50.582C100.133 50.2722 100.082 49.993 100.025 49.6914C100.308 49.3796 100.917 49.1922 100.528 48.5299C100.465 48.4219 100.612 48.1855 100.675 48.0143C100.82 47.6271 100.972 47.242 101.14 46.8079C100.518 46.6265 100.97 46.0947 100.775 45.7523C100.758 45.7217 100.956 45.6015 100.987 45.5037C101.023 45.3875 101.011 45.2408 100.972 45.1226C100.946 45.0452 100.834 44.9983 100.761 44.9392C101.358 44.4746 100.907 43.8408 101.019 43.3273C101.19 43.2091 101.345 43.1011 101.48 43.0074C101.435 42.6406 101.396 42.3104 101.36 41.9986C102.057 41.6441 102.297 41.1509 102.065 40.4438C102.018 40.3032 102.042 40.1381 102.032 39.9832C102.432 39.2904 102.401 39.003 101.855 38.2674C101.922 38.8461 101.987 39.4228 102.055 40.0016ZM97.3899 63.785C96.856 64.4514 96.4811 65.024 96.0042 65.4947C95.2217 66.2671 95.1565 67.3757 94.6226 68.258C94.5594 68.364 94.6613 68.5678 94.7122 68.8857C95.2523 67.9503 95.7576 67.1882 96.1469 66.371C96.5279 65.562 97.3655 64.9731 97.3899 63.785ZM102.281 38.031C102.868 37.599 102.898 37.116 102.988 36.6677C103.078 36.2235 103.102 35.7568 103.259 35.339C103.432 34.8826 103.563 34.4668 103.318 33.939C102.798 35.231 102.478 36.4843 102.281 38.031ZM101.853 48.9211C102.165 49.3939 101.135 49.9319 101.969 50.421C102.069 49.885 102.489 49.398 101.853 48.9211ZM93.3693 68.5331C93.1737 68.6636 93.0025 68.7756 92.7783 68.9264C93.0942 69.0344 93.3489 69.1241 93.6444 69.226C93.6444 69.0385 93.6709 68.9489 93.6383 68.8959C93.5649 68.7654 93.461 68.6534 93.3693 68.5331Z" fill="white"/>
<path d="M107.946 59.9665C107.718 60.2054 107.175 60.2793 106.981 60.0617C106.762 59.8127 106.637 59.4839 106.415 59.0922C106.725 59.1004 106.962 59.1059 107.276 59.1139C107.457 58.0774 106.513 57.5006 106.121 56.6047C106.366 56.0753 106.633 55.4919 106.952 54.8C107.296 55.133 107.628 55.3075 108.069 55.3117C108.426 55.3157 108.837 55.4662 109.126 55.6794C109.958 56.2981 110.742 56.9822 111.546 57.6389C111.724 57.7838 111.904 57.9285 112.093 58.0606C112.492 58.336 112.898 58.603 113.38 58.9277C113.518 58.8377 113.732 58.6993 113.962 58.5501C114.065 58.6576 114.168 58.765 114.266 58.8686C114.005 59.2662 113.763 59.6384 113.508 60.0295C113.633 60.089 113.798 60.1692 113.963 60.2494C114.138 59.9026 114.314 59.5559 114.529 59.1299C115.211 59.4455 115.763 59.822 116.327 60.198C116.867 60.5587 117.458 60.8458 118.115 61.2155C117.335 61.3696 116.741 60.9623 116.107 60.8364C115.671 60.7503 115.296 60.4126 114.795 60.4723C114.691 60.4852 114.559 60.2628 114.281 59.994C114.375 60.3548 114.366 60.594 114.471 60.6687C114.992 61.0344 115.633 61.26 115.86 61.9452C116.292 62.0601 116.735 62.2988 117.151 62.2593C117.738 62.2018 118.306 61.9391 118.883 61.7637C119.08 61.9749 119.28 62.1861 119.507 62.4286C119.73 62.2613 119.907 62.1267 120.103 61.979C120.196 62.0176 120.296 62.0681 120.4 62.1021C120.85 62.2548 121.28 62.4207 121.768 62.4901C122.707 62.6225 123.63 62.878 124.546 63.1379C125.949 63.5365 127.414 63.5448 128.826 63.8554C130.384 64.198 131.988 63.9918 133.533 64.3248C135.478 64.7435 137.431 64.6131 139.386 64.5051C139.915 64.4767 140.4 64.4708 140.913 64.7961C141.371 65.0851 141.995 65.1157 142.571 65.2647C142.687 65.1268 142.807 64.9887 142.971 64.7955C142.676 64.5418 142.43 64.3328 142.173 64.112C142.926 63.851 143.619 63.5663 144.336 63.3742C144.848 63.2385 145.28 63.1024 145.729 62.733C146.13 62.4025 146.859 62.3752 147.442 62.7238C147.725 62.8923 148.03 63.1027 148.339 63.1253C148.874 63.166 149.03 63.4159 149.148 63.9041C149.43 65.056 149.385 65.8618 148.842 66.7395C148.961 66.8095 149.079 66.8796 149.203 66.9534C149.11 67.1637 149.02 67.3759 148.928 67.5862C148.843 67.7839 148.8 68.0041 148.468 67.8888C148.416 67.8708 148.223 68.2693 148.038 68.5654C148.448 68.6914 148.719 68.7769 148.972 68.8551C149.001 68.97 149.05 69.0494 149.03 69.1033C148.739 69.8837 148.44 70.6583 148.067 71.6322C147.242 72.1943 146.256 72.9311 145.203 73.5547C144.734 73.8312 144.123 74.0224 143.589 73.9918C142.818 73.9477 142.283 74.2415 141.762 74.7122C141.593 74.8627 141.403 75.0204 141.194 75.0891C139.496 75.6525 137.816 76.2988 135.981 76.2748C135.558 76.2697 135.204 76.1881 134.799 75.9925C134.054 75.6329 133.207 75.4862 132.402 75.2456C131.891 75.0916 131.343 75.0066 130.879 74.7607C129.578 74.0676 128.099 73.7051 126.974 72.6714C126.866 72.5703 126.56 72.719 126.376 72.6601C124.929 72.2083 123.471 71.8101 122.173 70.9578C121.479 70.5001 120.778 70.0712 120.104 69.5737C119.479 69.1128 118.891 68.6074 118.274 68.14C117.883 67.8438 117.471 67.5771 117.061 67.3103C115.101 66.0274 113.283 64.5522 111.394 63.1722C110.997 62.8823 110.684 62.4764 110.32 62.1382C109.547 61.421 108.761 60.7104 107.946 59.9665ZM140.24 67.2423C140.279 67.3017 140.311 67.4083 140.358 67.4164C140.874 67.4947 141.392 67.5872 141.911 67.6144C142.304 67.6351 142.622 67.4614 142.822 66.9688C141.888 66.9729 141.025 66.782 140.221 67.2676C139.971 66.6243 139.337 66.7288 138.863 66.6547C137.636 66.4662 136.389 66.4133 135.159 66.2371C134.855 66.194 134.764 66.241 134.693 66.487C137.965 67.4548 138.571 67.378 140.24 67.2423ZM129.287 70.713C128.904 70.2655 128.41 70.182 127.933 70.0468C127.46 69.9135 127.011 69.6546 126.533 69.5929C126.069 69.5326 125.602 69.1828 125.114 69.5112C124.843 68.8178 124.291 69.4531 123.926 69.1985C124.428 69.7671 124.427 69.8038 124.929 69.8052C125.282 69.8054 125.477 69.9576 125.708 70.1918C126.267 70.7639 126.966 71.1051 127.883 71.3649C127.572 70.9324 127.35 70.6264 126.99 70.1309C127.802 70.5629 128.389 70.8725 129.014 71.2049C129.114 71.0249 129.203 70.8658 129.287 70.713Z" fill="white"/>
<path d="M123.759 21.3594C125.68 21.9198 127.582 22.2682 128.931 23.8313C129.334 24.2979 129.768 24.7483 130.235 25.1497C130.704 25.5553 130.889 26.079 131.015 26.6434C131.156 27.2731 131.274 27.9069 131.423 28.6466C131.282 28.7669 131.068 28.934 130.879 29.1235C130.773 29.2294 130.602 29.4292 130.636 29.4903C131.005 30.1526 130.314 30.393 130.117 30.819C129.895 31.3019 129.615 31.7645 129.32 32.2108C128.882 32.8731 128.385 33.4946 127.957 34.163C127.174 35.3837 126.52 36.692 125.489 37.7435C125.338 37.8984 125.234 38.0981 125.102 38.2876C125.047 38.1103 124.992 37.935 124.861 37.5193C124.869 38.4017 124.058 38.7114 124.197 39.4451C124.211 39.5164 123.993 39.657 123.861 39.7222C123.765 39.7711 123.632 39.7405 123.52 39.765C123.412 39.7874 123.31 39.8363 123.17 39.8873C123.233 40.1135 123.29 40.3213 123.361 40.576C123.056 40.4762 122.809 40.3702 122.571 40.6963C121.584 42.0474 120.27 43.16 119.644 44.7699C119.606 44.8718 119.565 44.9961 119.485 45.0531C118.817 45.53 118.617 46.339 118.096 46.9707C117.937 46.9198 117.659 46.9178 117.596 46.7996C116.969 45.6319 116.137 44.4805 116.486 43.0622C116.753 41.9781 116.632 40.7819 117.36 39.8221C117.604 38.4343 118.572 37.2625 118.566 35.7994C119.11 35.184 119.023 34.3627 119.257 33.6475C119.669 32.384 119.968 31.0798 120.429 29.8347C120.859 28.669 120.953 27.4137 121.542 26.2848C122.118 25.1803 122.454 23.9576 123.125 22.8837C123.384 22.4679 123.51 21.9707 123.759 21.3594ZM124.992 27.5299C124.934 27.5156 124.879 27.5014 124.822 27.4871C124.077 29.0257 123.314 30.5561 122.595 32.1048C122.34 32.653 122.002 33.2603 122.037 33.8207C122.073 34.4361 121.307 34.8131 121.682 35.4591C121.719 35.5222 121.309 35.2451 121.328 35.5895C121.34 35.8075 121.456 36.0174 121.499 36.2375C121.527 36.3863 121.521 36.5452 121.509 36.7001C121.489 36.9406 121.448 37.179 121.407 37.4765C121.546 37.395 121.702 37.3563 121.717 37.285C121.904 36.4189 122.318 35.6506 122.693 34.862C123.084 34.0387 123.439 33.1951 123.781 32.3494C124.05 31.683 124.405 31.0411 124.58 30.3523C124.759 29.6431 124.851 28.9054 125.024 28.1902C125.073 27.9864 125.006 27.752 124.992 27.5299ZM127.474 27.6522C127.93 27.0571 128.336 26.5273 128.753 25.9832C128.495 25.8324 128.329 25.7346 128.134 25.6205C127.865 25.7957 127.582 25.9812 127.404 26.0973C127.235 27.0694 127.09 27.911 126.942 28.7709C127.626 28.2533 127.626 28.2533 127.474 27.6522ZM118.481 42.1859C118.422 42.1696 118.362 42.1533 118.303 42.137C118.214 42.2919 118.098 42.4366 118.038 42.6037C117.924 42.9236 117.851 43.2578 117.745 43.5798C117.69 43.7428 117.282 43.3597 117.413 43.7224C117.537 44.0668 117.714 44.4663 118.199 44.6863C118.301 43.7999 118.391 42.9929 118.481 42.1859ZM126.514 24.7605C126.357 25.2231 126.269 25.4839 126.169 25.7794C126.449 25.7794 126.626 25.7794 126.803 25.7794C126.724 25.4921 126.652 25.2455 126.514 24.7605Z" fill="white"/>
<path d="M81.3529 30.6771C81.7665 30.8075 82.0009 30.8808 82.2332 30.9542C82.2678 30.8992 82.3045 30.8462 82.3392 30.7912C81.844 30.3388 81.3508 29.8864 80.8516 29.4279C81.3916 28.6841 81.4405 28.68 82.1578 29.1996C82.4614 29.4197 82.763 29.6745 83.2073 29.4809C83.3397 29.4238 83.5945 29.4747 83.7045 29.5746C84.1834 30.0066 84.7071 30.2532 85.3694 30.245C85.5569 30.243 85.8075 30.4101 85.9298 30.5752C86.7286 31.6532 87.5152 32.7393 88.2733 33.8479C88.5077 34.1903 88.636 34.606 88.8072 34.9891C88.8684 35.1277 88.8867 35.2948 88.9723 35.415C90.0666 36.9373 90.3621 38.7876 91.0427 40.4769C91.2282 40.9375 91.4421 41.3899 91.5929 41.8606C91.7641 42.3986 91.9781 42.9549 91.976 43.5011C91.974 43.7578 91.8477 44.1776 91.4727 44.414C90.7207 44.8909 89.8628 45.2577 89.494 46.2032C89.3534 46.5619 88.9988 46.835 88.5708 47.3526C88.6625 46.8818 88.6992 46.6964 88.7359 46.5109C88.6911 46.4967 88.6462 46.4804 88.6034 46.4661C88.4139 46.7596 88.2835 47.161 88.0145 47.3138C87.7863 47.4422 87.395 47.2812 86.9793 47.2364C87.0282 47.4341 87.069 47.6012 87.1138 47.7866C86.7307 48.0169 86.3802 48.129 85.8565 47.9476C85.3898 47.7866 85.1493 47.5686 84.9761 47.1569C84.8885 46.947 84.7438 46.7596 84.6175 46.566C83.9735 45.5797 83.6841 44.5424 83.6699 43.3258C83.6312 40.3078 83.2643 37.3163 82.3555 34.4124C82.1863 33.8724 82.1313 33.2895 82.0885 32.723C82.0294 31.9262 81.9133 31.4963 81.3529 30.6771ZM89.9036 42.9549C89.763 42.4781 89.5836 42.0828 89.5388 41.6732C89.4125 40.479 89.064 39.3684 88.4893 38.3148C88.3283 38.0193 88.2305 37.6831 88.1327 37.357C87.9819 36.8598 87.8861 36.7477 87.0873 36.3646C87.4297 36.8129 87.6579 37.1981 87.4378 37.6627C87.772 39.0627 88.1103 40.4627 88.4343 41.8647C88.4893 42.1052 88.5199 42.3028 88.7848 42.4455C89.1292 42.635 89.3085 43.1465 89.9036 42.9549Z" fill="white"/>
<path d="M102.271 55.9812C102.35 55.6776 102.431 55.3739 102.511 55.0703C102.645 55.0887 102.78 55.105 103.006 55.1355C102.825 55.6226 102.67 56.0403 102.513 56.4581C102.431 56.2971 102.352 56.1381 102.271 55.9812Z" fill="white"/>
<path d="M5.01303 17.8979C3.99481 19.6299 3.07106 21.2413 2.10008 22.8263C1.88226 23.1859 1.50961 23.4509 1.06611 23.9049C1.03462 22.4721 0.627853 21.2596 1.01625 20.0078C1.50436 18.4385 1.95837 16.8587 2.46748 15.2973C2.64068 14.7698 2.61969 14.3525 2.18143 13.9956C1.54635 13.476 0.908649 12.959 0.276196 12.4368C0.0741262 12.2688 -0.1988 12.1061 0.218462 11.8542C0.276196 11.8174 0.24995 11.5996 0.223707 11.4737C0.092493 10.7835 0.0872503 10.7966 0.738073 10.8517C1.49124 10.9147 2.24441 10.9514 2.98183 10.9987C3.58542 9.327 4.12602 7.64221 4.80834 6.01778C5.22035 5.03629 5.6035 4.07318 5.67435 3.00247C5.6796 2.90537 5.78457 2.81615 5.89479 2.6377C6.47214 3.65592 7.02586 4.57442 6.72144 5.77897C6.57711 6.34844 6.47214 6.97301 7.13608 7.40077C7.27255 7.48738 7.29354 7.79704 7.31453 8.00961C7.41688 9.0462 7.49823 10.088 7.59271 11.1246C7.59796 11.1929 7.65569 11.2585 7.74229 11.4369C8.47709 10.6444 9.10429 9.74426 10.2065 9.47659C10.4847 9.82562 10.2564 10.1222 10.0805 10.3977C9.48219 11.3372 9.06231 12.3974 8.16743 13.1401C7.7003 13.5285 7.69768 14.1006 7.7003 14.67C7.70293 15.2238 7.63994 15.7775 7.60583 16.3286C7.59008 16.5543 7.5376 16.7826 7.56122 17.003C7.67669 18.1131 7.81577 19.2206 7.93912 20.3306C7.94699 20.3962 7.90499 20.4697 7.86825 20.6062C6.60335 20.1023 5.76882 19.1392 5.01303 17.8979ZM6.31468 9.1433C6.21233 9.04358 6.1651 8.99897 6.11786 8.95435C6.03913 9.0672 5.95778 9.18004 5.88955 9.30075C5.8843 9.31125 6.01026 9.41885 6.01814 9.41098C6.12311 9.33225 6.21496 9.23778 6.31468 9.1433Z" fill="white"/>
</svg>
