<svg width="175" height="84" viewBox="0 0 175 84" fill="none" xmlns="http://www.w3.org/2000/svg">
<path d="M174.126 42.2049C173.657 42.5574 173.186 42.9079 172.715 43.2605C172.795 43.505 172.862 43.7129 172.946 43.9676C172.332 43.8066 172.037 44.3242 171.588 44.4771C171.48 44.5138 171.321 44.471 171.252 44.5362C170.36 45.3696 169.123 45.4613 168.106 46.0177C167.474 46.3621 166.883 46.7778 166.28 47.1568C166.388 47.921 166.983 48.4304 167.187 49.1498C167.374 49.8202 167.804 50.4214 168.138 51.0735C166.906 51.3527 166.062 50.7984 165.239 49.9547C164.207 52.4878 162.671 54.654 162.027 57.187C161.729 56.971 161.493 56.7998 161.198 56.5879C161.143 56.9159 161.1 57.1686 161.053 57.4499C160.804 57.4499 160.58 57.4499 160.248 57.4499C160.134 56.8263 160.016 56.1721 159.893 55.4976C159.734 55.4467 159.557 55.3916 159.388 55.3366C159.357 55.2571 159.329 55.1899 159.309 55.1186C159.097 54.4053 159.826 53.7247 159.388 52.9891C159.368 52.9544 159.679 52.773 159.753 52.6202C160.211 51.6645 160.645 50.6985 161.128 49.6429C160.101 49.863 159.215 50.2176 158.263 50.344C157.155 50.4907 157.163 50.5457 156.15 50.0138C156.272 49.7143 156.39 49.4147 156.517 49.1172C156.588 48.9481 156.629 48.6811 156.753 48.6302C157.366 48.3795 157.328 47.7498 157.275 47.3728C157.216 46.9469 157.428 46.7431 157.55 46.4069C157.703 46.4619 157.839 46.5088 158.043 46.5821C158.153 45.4776 159.251 45.5428 159.893 45.0354C160.256 45.2576 160.458 44.9498 160.725 44.8031C161.02 44.6381 161.35 44.5402 161.658 44.3935C161.86 44.2977 162.045 44.1694 162.3 44.0206C161.273 42.1356 160.91 40.0142 159.631 38.1231C159.997 38.1231 160.23 38.0559 160.384 38.1374C160.751 38.331 161.081 38.5959 161.54 38.9077C161.636 39.191 161.78 39.6107 161.974 40.1834C162.035 39.7004 162.08 39.3519 162.129 38.9607C162.632 39.2725 163.105 39.4844 163.472 39.8145C163.853 40.1589 164.134 40.6154 164.491 41.0637C165.002 40.2262 165.581 39.4661 165.954 38.6163C166.317 37.791 166.467 36.8719 166.873 36.0283C166.859 36.1831 166.842 36.34 166.82 36.5683C167.011 36.605 167.254 36.6518 167.486 36.6987C167.602 36.9229 167.717 37.1409 167.831 37.361C167.859 37.6442 167.886 37.9295 167.92 38.28C168.668 37.7054 168.528 36.8515 168.848 36.1811C168.617 36.3237 168.438 36.501 168.348 36.715C168.246 36.9595 168.218 37.2346 167.894 37.2978C167.965 36.929 168.002 36.5479 168.116 36.1913C168.322 35.5473 168.56 34.9115 168.815 34.2839C168.937 33.9802 169.127 33.7051 169.284 33.4219C169.846 33.6644 169.693 34.1086 169.701 34.4591C169.722 35.5208 169.795 36.6029 169.025 37.5383C169.141 37.795 169.265 38.0661 169.359 38.2699C169.221 38.5246 169.143 38.7793 168.978 38.9423C168.636 39.2786 169.082 39.7106 168.756 40.0957C168.54 40.3484 168.625 40.8396 168.517 41.2064C168.403 41.5915 168.22 41.9542 168.039 42.3903C168.764 42.5819 169.318 42.2375 169.885 42.1152C170.804 41.9155 171.698 41.5997 172.611 41.3653C172.809 41.3144 173.066 41.3612 173.257 41.4489C173.565 41.5874 173.84 41.7953 174.13 41.9746C174.126 42.05 174.126 42.1275 174.126 42.2049Z" fill="#1D3D6C"/>
<path d="M63.2841 71.7201C63.7671 71.8953 64.1502 72.1745 64.3499 72.6758C64.4212 72.8572 64.4701 73.1425 64.8145 72.9754C64.839 72.9632 65.0692 73.2485 65.112 73.4176C65.3668 74.4202 65.5665 75.435 65.8436 76.4295C65.9414 76.778 66.2084 77.0816 66.4163 77.4382C66.08 77.8947 65.9516 78.4755 65.9414 79.1806C65.6887 79.0216 65.4727 78.8871 65.3423 78.8036C65.0957 79.1378 64.8451 79.4516 64.623 79.7838C63.8914 80.8883 63.6672 81.0655 62.6442 81.2836C62.5505 81.304 62.4017 81.3529 62.363 81.3121C61.768 80.6478 60.8897 80.8434 60.1642 80.6702C59.3552 80.4746 58.4871 80.3686 57.6414 80.3014C56.759 80.23 55.8542 80.2137 54.98 80.3258C53.1969 80.552 51.3914 80.3666 49.6164 80.7089C49.1518 80.7986 48.6525 80.7028 48.1757 80.7436C47.4543 80.8067 46.6962 80.8027 46.0258 81.0329C45.231 81.304 44.42 81.3753 43.6191 81.4161C42.3597 81.4813 41.1248 81.7075 39.8838 81.8297C38.7161 81.9438 37.5403 82.1436 36.3522 82.1497C35.6716 82.1537 34.9767 82.2597 34.3165 82.4329C33.3179 82.6938 32.299 82.9159 31.3616 83.3724C31.3107 83.3968 31.2944 83.4946 31.2597 83.5578C31.1823 83.5578 31.1049 83.5578 31.0274 83.5578C31.0784 83.352 31.1273 83.1462 31.2006 82.8466C31.0009 82.9118 30.842 82.9668 30.5872 83.0504C30.5872 82.8303 30.5872 82.6265 30.5872 82.4248C31.2149 82.6224 31.8364 82.8038 32.2746 82.0702C32.2868 82.0498 32.4539 82.1456 32.5517 82.1476C32.6434 82.1497 32.7351 82.1008 32.8207 82.0743C32.6516 81.8277 32.5008 81.6076 32.4294 81.5037C31.6591 81.5302 31.219 82.0111 30.626 82.06C30.5872 82.0641 30.5669 82.2638 30.5383 82.3718C30.361 82.4329 30.1838 82.4941 29.9433 82.5756C29.7742 82.3575 29.5765 82.1028 29.3258 81.7808C29.3258 81.8216 29.3055 81.7523 29.3299 81.7054C29.6091 81.1389 29.9698 80.6132 30.1328 79.9855C30.196 79.7471 30.357 79.4618 30.5608 79.3415C31.2903 78.9075 31.9526 78.3287 32.8492 78.2269C33.6949 78.1311 34.3756 77.7948 34.5875 76.8228C35.6309 76.7413 36.6416 76.7066 37.6402 76.5721C38.3473 76.4764 39.0544 76.3011 39.731 76.0688C41.2654 75.541 42.7571 74.8685 44.314 74.4243C45.6549 74.0412 46.9184 73.4237 48.298 73.1751C48.4467 73.1486 48.6016 73.1445 48.7524 73.1282C49.4738 73.0447 50.1279 72.8653 50.7291 72.3783C51.4647 71.7812 52.2799 71.2657 53.2071 70.9783C53.7695 70.8051 54.2892 70.4159 54.9433 70.7501C55.0819 70.8214 55.4426 70.6991 55.5445 70.5545C55.844 70.1347 56.0825 70.5667 56.4411 70.5504C56.541 70.3099 56.6571 70.0328 56.7977 69.6965C56.8059 69.6965 56.918 69.6782 57.03 69.6762C57.5273 69.6639 58.0062 69.6823 58.4952 69.4438C58.915 69.238 59.4326 69.2339 59.8524 69.1504C60.0195 69.3562 59.7363 69.6415 60.1031 69.613C60.3884 69.5885 60.6737 69.5478 60.959 69.5396C61.5133 69.5233 62.0451 69.5661 62.469 70.0185C62.5444 70.1 62.8012 70.0104 63.0579 69.9961C63.0579 70.4892 63.0579 70.9865 63.0579 71.4837C62.8766 71.3451 62.6768 71.2269 62.5199 71.0659C62.1368 70.6747 61.6967 70.6319 61.2055 70.7929C61.1587 70.6645 61.1424 70.4526 61.0629 70.424C60.6879 70.2936 60.3007 70.1917 59.9095 70.1224C59.2798 70.0104 58.6664 70.0083 58.0775 70.585C58.6094 70.9335 59.1555 70.6726 59.5631 70.8581C60.152 71.1271 60.6635 70.9661 61.2035 70.7949C61.554 70.9722 61.929 71.1128 62.2509 71.3329C62.5933 71.5672 62.8867 71.875 63.2902 72.2295C63.2841 71.9442 63.2841 71.8322 63.2841 71.7201ZM39.6576 78.3552C39.9633 78.7873 40.3321 78.6996 40.7173 78.6242C41.2879 78.5122 41.8931 78.5122 42.4311 78.3206C42.9792 78.125 43.4602 77.7378 44.0939 77.8376C45.5286 77.155 47.0549 76.67 48.3978 75.7957C48.6566 75.6266 49.0703 75.4901 49.6083 75.4412C49.1742 75.3046 48.9786 75.1803 48.7993 75.1986C48.5038 75.2292 48.1818 75.2965 47.9312 75.4493C46.8083 76.134 45.3513 76.0342 44.3527 76.9899C43.935 76.888 43.5417 77.2242 43.2054 77.1733C42.7204 77.0999 42.4861 77.4851 42.0724 77.5523C41.2614 77.6828 40.3892 77.8274 39.6576 78.3552ZM53.7777 75.2027C53.8266 75.1396 53.8755 75.0764 53.9244 75.0132C54.1302 75.0764 54.336 75.1396 54.5419 75.2048C54.7232 75.0417 54.9515 74.9195 55.0493 74.73C55.198 74.4406 55.6117 74.8665 55.6932 74.4508C55.6993 74.4182 56.1191 74.5364 56.2516 74.4447C56.6143 74.196 56.9261 73.872 57.3989 73.4543C56.9974 73.3972 56.7529 73.3055 56.5287 73.3402C55.2531 73.548 54.2056 74.192 53.2988 75.0845C53.3518 75.2761 53.4007 75.4534 53.4475 75.6307C53.3966 75.6551 53.3477 75.6775 53.2967 75.702C53.1949 75.5675 53.093 75.431 52.9524 75.2455C52.8301 75.5166 52.7241 75.757 52.5733 76.0933C53.2927 76.187 53.6982 75.7733 54.224 75.5756C54.0324 75.4167 53.904 75.3087 53.7777 75.2027ZM30.9255 79.4496C30.575 79.8449 30.575 79.8449 31.0559 80.5622C31.3147 80.0426 32.1319 79.9692 32.0198 79.1235C31.7305 79.4088 31.4839 79.6533 31.2108 79.9223C31.0784 79.7043 31.0009 79.5759 30.9255 79.4496ZM63.172 79.1296C63.172 79.4068 63.172 79.6024 63.172 79.8979C63.5042 79.7165 63.7712 79.5718 64.0361 79.4271C64.0218 79.3599 64.0075 79.2906 63.9912 79.2234C63.7222 79.1948 63.4553 79.1643 63.172 79.1296ZM41.8034 79.205C41.3307 79.205 40.8579 79.205 40.326 79.205C40.864 79.7776 41.3531 79.1969 41.8034 79.205ZM61.444 76.4397C61.232 75.9975 60.8978 76.0973 60.5188 76.1524C60.7307 76.6598 61.0282 76.6842 61.444 76.4397Z" fill="#1D3D6C"/>
<path d="M34.7312 18.5421C34.8433 18.5604 34.9554 18.5808 35.0675 18.5991C35.0471 18.86 34.9289 19.1636 35.0308 19.349C35.2081 19.6751 35.0471 19.9726 34.8861 20.0582C34.234 20.4087 34.6456 20.8795 34.4989 21.2768C34.5825 21.3054 34.666 21.3339 34.7496 21.3624C34.8474 21.2279 34.9717 21.1036 35.0369 20.9549C35.3324 20.2885 35.8153 19.8239 36.4837 19.5426C36.9056 19.3653 37.3152 19.1534 37.7472 19.0026C38.6826 18.6704 39.1635 17.8533 39.7096 17.1339C39.9745 16.7855 40.2619 16.5185 40.6083 16.274C41.0036 15.9927 41.4275 15.7686 41.6802 15.2795C41.7943 15.0594 42.2915 15.1613 42.4974 14.7436C42.642 14.4522 43.0985 14.2952 43.4368 14.122C43.7751 13.9509 44.1419 13.8367 44.4985 13.6982C44.7512 13.8164 44.9917 13.9284 45.2933 14.0711C45.5521 13.8123 45.9229 13.7797 46.3122 13.7919C46.7136 13.8041 47.1171 13.7939 47.5756 13.7939C47.6204 14.2158 47.4228 14.6009 46.9765 14.8577C47.1538 15.0513 47.2577 15.1613 47.3576 15.2714C48.3235 14.6437 49.2915 15.1145 49.375 16.2149C49.4056 16.6265 49.4912 17.032 49.5645 17.5313C48.4397 17.4987 47.922 18.4443 47.1681 19.025C46.9072 19.2268 46.7055 19.2472 46.41 19.0271C45.8801 19.995 44.8205 19.9441 43.9911 20.3822C43.8036 20.6084 43.61 20.7857 43.2432 20.9406C42.2202 21.3726 41.183 21.6518 40.0907 21.8291C39.3897 21.9432 38.7172 22.255 38.0468 22.5138C37.6433 22.6687 37.2948 22.8154 36.8587 22.5423C36.6651 22.4221 36.335 22.5219 36.0721 22.5219C35.8581 22.795 35.6462 23.066 35.4404 23.3269C35.1653 23.2719 34.9248 23.225 34.6477 23.17C34.4378 23.7446 34.1566 24.2398 34.45 24.8471C34.5315 25.0142 34.4724 25.3199 34.3664 25.4951C33.9304 26.2206 33.586 26.9603 33.5513 27.8284C33.5411 28.0811 33.4678 28.4255 33.2925 28.56C32.8218 28.9248 32.7973 29.4668 32.6058 29.9437C32.457 30.3105 32.2532 30.5713 31.7315 30.5143C31.7947 31.1134 31.6011 31.6473 31.1202 32.114C30.9062 32.3218 30.9001 32.7375 30.784 33.0534C30.7208 33.2266 30.6291 33.3896 30.5435 33.573C29.8853 33.4141 29.9036 32.4584 29.0803 32.5012C29.0029 32.6988 28.9132 32.925 28.8175 33.1736C28.6972 33.1308 28.5362 33.1227 28.4975 33.0493C28.2713 32.6132 28.0736 32.1629 27.8678 31.7166C28.2428 31.3213 28.0818 30.8505 27.9208 30.4756C27.7211 30.015 27.8067 29.5708 27.768 29.1163C27.7293 28.6354 27.7639 28.1137 27.8515 27.6899C27.9799 27.0581 27.7313 26.4631 27.8332 25.9251C28.0084 24.9857 27.4908 24.0585 27.8984 23.1537C27.5662 22.8765 27.8291 22.5016 27.7456 22.2C27.336 20.7225 27.9106 19.1636 27.3482 17.7066C27.501 16.6632 27.2463 15.6321 27.285 14.5826C27.3461 12.9686 27.2259 11.3486 27.2361 9.73256C27.2402 9.07027 27.3808 8.41001 27.4623 7.72327C27.3767 7.74161 27.2789 7.76198 27.124 7.79663C27.124 6.76141 27.124 5.73028 27.124 4.67061C27.825 4.22636 28.4649 3.70264 29.1965 3.40308C29.6937 3.1993 30.3316 3.22783 30.8858 3.30323C31.8212 3.43161 32.7342 3.79842 33.6654 3.83917C34.2136 3.86363 34.7638 3.95329 35.31 3.93495C35.5586 3.9268 35.8255 3.80861 36.0415 3.67207C36.8995 3.12797 37.8267 2.84268 38.8354 2.73875C39.2063 2.70207 39.569 2.48402 39.9175 2.31081C40.6817 1.9277 41.56 2.01125 42.3506 1.7178C42.4974 1.66278 42.6787 1.65463 42.8173 1.53847C43.0048 1.37952 43.1454 1.06977 43.4674 1.35099C43.5061 1.38564 43.6447 1.36933 43.6813 1.32858C44.4251 0.491031 45.5643 0.609224 46.4711 0.171092C46.5404 0.138487 46.5995 0.0834661 46.6708 0.0549366C46.7401 0.026407 46.84 -0.0184242 46.8889 0.00806751C47.6918 0.458426 48.5354 -0.0163869 49.3424 0.122185C50.1229 0.256681 50.8871 0.488993 51.6594 0.672397C51.7695 0.698888 51.904 0.721306 52.0038 0.684625C52.8149 0.385065 53.5342 0.870065 54.3025 0.941389C54.5654 1.34488 55.0381 0.784478 55.3316 1.17982C55.5904 1.52828 55.9572 1.24095 56.273 1.2654C56.5176 1.28578 56.8783 1.40194 56.9598 1.58127C57.1147 1.91547 57.3409 1.65055 57.5222 1.74429C58.2416 2.1111 58.9243 2.54516 59.6864 2.84676C60.1041 3.01182 60.3976 3.52739 60.7114 3.91254C60.9437 4.19783 60.9886 4.63596 61.4185 4.76435C61.4797 4.78269 61.5714 4.91718 61.5612 4.92941C61.2148 5.37162 61.7038 5.66099 61.7833 6.01353C61.8669 6.39461 62.2316 6.72066 62.2846 7.09562C62.3315 7.43389 62.1094 7.81293 62.3295 8.16344C62.4599 8.37333 62.6555 8.5547 62.7452 8.77886C62.8185 8.9643 62.7554 9.19865 62.79 9.40447C62.8491 9.76109 62.7655 10.0138 62.2846 10.0403C62.5393 10.5293 62.949 10.9491 62.9 11.3058C62.8267 11.8274 63.2098 12.1535 63.1324 12.7119C63.0671 12.8239 62.8348 13.044 62.8308 13.2682C62.8165 14.3462 62.3356 15.2591 61.8913 16.1904C61.5958 16.812 61.5755 17.4722 61.549 18.1528C61.5266 18.6847 61.5714 19.2207 61.4532 19.7709C61.2576 20.692 61.2698 21.6559 61.172 22.5994C61.1088 23.2046 61.0782 23.8261 60.903 24.4008C60.74 24.9388 60.4017 25.4238 60.151 25.9373C60.0226 26.2043 59.8168 26.4835 59.8209 26.7545C59.8331 27.4616 59.4826 28.0098 59.1525 28.5661C58.6267 29.4546 58.1071 30.3492 57.512 31.1908C56.8334 32.1486 56.2282 33.1512 55.5822 34.1273C55.3173 34.5288 54.9362 34.861 54.5715 35.185C54.4084 35.3297 54.1659 35.4051 53.9459 35.458C53.0207 35.6781 52.982 35.6863 52.4317 36.1448C52.0996 36.051 51.8123 35.833 51.3782 36.0735C50.9747 36.2976 50.4225 36.3812 49.9558 36.3282C49.2527 36.2508 48.6557 36.4484 48.0382 36.6991C47.7977 36.7969 47.5206 36.8478 47.2598 36.8478C46.2898 36.8478 45.3218 36.8315 44.3946 36.4769C44.2234 36.4117 44.0217 36.4117 43.8321 36.4097C42.2773 36.3954 40.7672 36.0836 39.2572 35.7596C39.1839 35.7433 39.1023 35.7128 39.0331 35.727C37.2398 36.0877 35.5097 35.238 33.6532 35.5294C33.5595 34.4656 34.3461 34.0519 35.0084 33.4508C34.5702 33.4059 34.236 33.3733 33.8916 33.3387C34.018 33.0779 33.7021 32.5867 34.3053 32.6621C35.1306 31.5923 36.4124 31.6229 37.5495 31.2927C38.0936 31.1358 38.6092 30.8729 39.2144 30.6284C39.5283 31.1501 40.0785 31.091 40.6144 31.093C41.2665 31.093 41.941 31.0034 42.4505 31.4496C42.9498 31.1766 43.4185 30.9218 43.877 30.6712C44.415 30.9218 44.8796 30.9157 45.3992 30.5693C45.7599 30.3288 46.2531 30.284 46.6892 30.1597C47.4228 29.9498 48.1401 29.7379 48.5477 28.9879C48.7229 28.666 48.996 28.397 49.2589 28.0628C49.3322 29.5932 49.3322 29.5932 49.695 30.0598C49.86 29.4648 50.2187 28.831 50.1637 28.236C50.0373 26.8808 50.9482 25.8191 51.0175 24.5292C51.0583 23.7446 51.3028 22.9682 51.4577 22.1898C51.6207 21.3706 51.7776 20.5493 51.9549 19.7342C52.0038 19.5121 52.0751 19.2696 52.2137 19.1025C52.4725 18.7907 52.5398 18.4483 52.6233 18.0652C52.7863 17.3234 53.3039 16.5919 53.2469 15.8888C53.1898 15.1756 53.0085 14.4297 53.1246 13.7328C53.3019 12.6854 52.9188 11.8213 52.5112 10.939C52.1892 10.242 51.7633 9.58176 51.8938 8.75848C51.9427 8.44669 51.7205 8.29589 51.5534 8.08192C50.9013 7.24234 50.0027 6.6962 49.159 5.98704C48.9858 6.10116 48.8003 6.22343 48.6068 6.35181C47.8018 6.05021 47.0315 5.76492 46.0697 5.91775C45.1975 6.05633 44.2601 6.02372 43.3512 6.01761C42.9762 6.01353 42.6013 6.12765 42.2263 6.18879C41.2523 6.35181 40.2802 6.51891 39.3041 6.67175C39.2022 6.68805 39.0188 6.6473 38.9903 6.58412C38.7518 6.03391 38.4401 6.29271 38.0631 6.42517C37.1705 6.74103 36.5041 7.39314 35.7481 7.90259C35.4037 8.1349 35.3059 8.53228 35.1612 8.94596C34.7903 9.99748 35.3507 10.9777 35.1816 11.9905C35.0736 12.6303 35.1021 13.2967 34.9431 13.9203C34.7455 14.6906 34.8229 15.469 34.7373 16.2393C34.717 16.4248 34.7027 16.6999 34.8087 16.7957C35.5137 17.4233 34.9778 17.9756 34.7475 18.5502C34.3379 18.6277 34.2646 19.0006 34.126 19.2981C34.0812 19.3939 34.1871 19.5569 34.2258 19.6894C34.2809 19.6873 34.3379 19.6853 34.3929 19.6832C34.5091 19.3103 34.6212 18.9272 34.7312 18.5421ZM32.6934 9.61029C32.671 9.80796 32.7117 10.0668 32.6119 10.2542C32.1737 11.0714 32.1717 11.9456 32.1962 12.8321C32.2084 13.2947 32.1962 13.7593 32.1676 14.2219C32.1513 14.4766 31.972 14.766 32.0454 14.9759C32.404 15.9846 31.8171 16.9403 31.9414 17.9266C31.5828 18.5176 31.8497 19.1493 31.8762 19.7485C31.9027 20.3476 31.9965 20.9365 31.809 21.5254C32.2206 21.6131 32.3021 21.3461 32.4122 21.0975C32.8911 20.0175 32.4224 18.8212 32.836 17.7351C32.4468 17.189 32.8259 16.6367 32.8157 16.0885C32.8034 15.4813 32.6934 14.876 32.6914 14.2688C32.6893 13.8938 32.7851 13.5127 32.8829 13.1459C33.1825 12.0353 33.2497 10.8962 33.3496 9.76109C33.3557 9.69792 33.2905 9.62659 33.2681 9.58176C33.0867 9.59195 32.9176 9.6001 32.6934 9.61029ZM55.9918 29.316C55.9918 29.7745 55.9918 30.1862 55.9918 30.6202C56.1324 30.5876 56.1854 30.5897 56.2017 30.5673C56.2425 30.5082 56.2934 30.4389 56.2975 30.3696C56.3586 29.3405 56.5054 28.3379 57.0923 27.4514C57.1738 27.3271 57.2553 27.1661 57.2471 27.0276C57.2125 26.3979 57.4407 25.8334 57.5915 25.2445C57.6567 24.9897 57.7973 24.5801 57.292 24.3906C57.1962 24.7574 57.1045 25.1181 57.0087 25.4788C56.9109 25.8436 56.8294 26.2145 56.703 26.569C56.5645 26.9562 55.8757 27.1295 56.2567 27.7225C55.6637 27.9079 55.9653 28.5417 55.68 28.8861C55.6434 28.9309 55.676 29.0307 55.676 29.1C55.8084 29.1917 55.9327 29.2753 55.9918 29.316ZM39.1818 18.8579C38.6377 19.2084 38.2872 19.4326 37.9408 19.6568C37.5944 19.8809 37.25 20.1071 36.9178 20.3231C36.7466 20.1968 36.6101 20.099 36.3187 19.885C36.4165 20.2416 36.4634 20.4067 36.5184 20.6105C36.2005 20.8917 35.8704 21.1851 35.5158 21.501C35.6442 21.5193 35.7542 21.556 35.8622 21.5458C36.3615 21.503 36.6447 20.9019 37.2092 21.016C37.5006 20.5126 38.1568 20.5514 38.5053 20.1499C38.76 19.8544 39.1023 19.5834 39.1818 18.8579ZM53.0186 6.97742C53.8562 7.63971 53.9194 8.77274 54.869 9.22718C54.9994 7.53578 54.7447 7.20973 53.0186 6.97742ZM53.9703 32.5175C54.0131 32.5643 54.0539 32.6092 54.0966 32.656C54.1822 32.599 54.2739 32.548 54.3555 32.4849C54.7977 32.1343 54.7732 31.4272 55.356 31.1847C55.2419 30.8587 55.8125 30.4898 55.2439 30.1597C54.818 30.9463 54.3942 31.7329 53.9703 32.5175ZM59.9534 6.07874C59.8841 5.37365 59.4031 5.04149 59.0424 4.65023C58.3985 3.95533 58.3883 3.96348 57.6058 3.87178C58.4107 4.62985 59.1403 5.31456 59.9534 6.07874ZM61.6305 9.6164C61.2942 10.4682 61.1292 11.3384 61.6305 12.3777C61.6305 11.3343 61.6305 10.4764 61.6305 9.6164ZM28.956 29.6156C28.956 30.2188 28.9418 30.6284 28.9662 31.036C28.9723 31.1379 29.1109 31.2296 29.2291 31.3763C29.5083 30.3207 29.5083 30.3207 28.956 29.6156ZM41.2543 5.66506C40.3556 5.47147 40.3006 5.49592 39.8665 6.11746C40.4127 5.94017 40.8325 5.8016 41.2543 5.66506ZM41.2319 19.4448C40.3291 19.5752 40.3291 19.5752 39.8971 20.3415C40.4534 19.9685 40.8426 19.7057 41.2319 19.4448ZM42.5972 5.32475C42.1672 5.12096 41.8208 5.29418 41.2523 5.57336C41.9207 5.80975 42.2487 5.5163 42.5972 5.32475Z" fill="#1D3D6C"/>
<path d="M53.0764 54.2932C53.1131 54.3972 53.1518 54.5011 53.2089 54.6621C52.8074 54.7212 52.3938 54.7803 51.9169 54.8496C51.8171 54.5052 51.7009 54.1119 51.5603 53.6289C51.3871 53.6636 51.059 53.6493 51.0142 53.7553C50.8674 54.0996 51.0896 54.3258 51.5481 54.4114C51.3586 54.6376 51.2444 54.8903 51.1283 54.8924C50.5903 54.8964 50.2479 55.2449 49.8934 55.5445C49.6509 55.7503 49.4165 55.8338 49.1068 55.8155C48.4445 55.7768 47.9574 56.2516 47.3665 56.435C47.1831 56.4921 47.5988 56.7855 47.2503 56.8405C47.1077 56.8629 46.967 56.9078 46.857 56.9343C46.857 57.8472 46.857 58.7031 46.857 59.6792C47.4622 59.3593 47.9798 59.4938 48.5423 59.6058C49.0293 59.7037 49.5836 59.4632 50.1073 59.3715C50.5353 58.6909 51.2016 58.9374 51.7702 59.0088C52.3265 59.0801 52.8625 59.3104 53.4229 59.4754C52.9786 59.6527 53.0907 60.1499 53.1478 60.3252C53.2517 60.6349 53.6246 60.8571 53.9262 61.1587C54.1932 62.1042 53.861 63.0681 53.6063 64.0075C53.4901 64.4355 53.7408 64.5476 53.8895 64.7982C53.6572 65.2099 53.4229 65.6256 53.1824 66.0515C53.1152 65.9394 53.0581 65.8457 52.9684 65.6928C52.7117 65.8803 52.459 66.0637 52.188 66.2614C52.0596 66.0922 51.9271 65.917 51.7926 65.7397C51.5786 66.0291 51.4238 66.4427 51.1446 66.567C50.5964 66.8075 49.983 66.9114 49.3859 67.0215C48.3079 67.2192 47.2218 67.3781 46.1988 67.5452C45.8116 68.6436 46.2069 69.7012 46.0317 70.8852C45.8035 70.661 45.6791 70.5388 45.5345 70.3982C45.3348 71.0278 45.1371 71.6535 44.9741 72.1711C44.6358 72.2383 44.3525 72.2118 44.1936 72.3402C43.7514 72.6927 43.2623 72.7824 42.7182 72.87C42.115 72.9699 41.4181 72.8191 40.9208 73.2695C40.5255 73.6281 40.0751 73.4223 39.6635 73.4814C39.3823 73.5221 39.0562 73.243 38.8687 73.1614C38.9849 72.4564 39.0766 71.8715 39.1785 71.2907C39.2376 70.9565 39.3109 70.6244 39.3802 70.2922C39.4923 69.7379 39.6064 69.1857 39.7491 68.4908C38.7302 68.6416 37.805 68.3726 37.0225 69.0308C36.7514 69.259 36.4091 69.2468 36.1788 69.0145C35.9057 68.7414 35.6531 68.8392 35.3555 68.8841C34.7034 68.9798 34.0452 69.0349 33.3911 69.1103C32.9427 69.1612 32.8775 69.1388 32.2438 68.6171C32.4802 68.2584 32.6085 67.8305 32.1235 67.5941C31.8199 67.4474 31.769 67.2599 31.7262 66.9848C31.6447 66.4774 31.5 65.9761 31.4388 65.4666C31.4103 65.2364 31.5183 64.9918 31.5509 64.8227C31.9096 64.6169 32.148 65.0672 32.4455 64.788C32.6208 64.623 32.9122 64.5761 33.0854 64.409C33.9005 63.6305 34.8991 63.1476 35.8915 62.6646C36.0932 62.5668 36.1299 62.0247 36.5782 62.3936C36.6699 62.469 37.049 62.1837 37.3017 62.0757C37.3913 62.037 37.5217 62.0675 37.589 62.0125C37.8498 61.8047 38.0944 61.5764 38.345 61.3543C38.7689 61.7068 38.883 61.1342 39.1479 61.0873C39.7144 60.9875 39.8102 60.5595 39.8306 60.152C39.8775 59.235 39.8449 58.3118 39.8449 57.3826C38.9767 57.5721 38.184 57.727 37.3546 57.5395C37.0265 57.4641 36.6414 57.4722 36.3215 57.5721C35.0804 57.9573 33.9087 57.835 32.7695 57.2399C32.9122 56.7162 32.9489 56.7529 33.1649 56.5491C33.3564 56.3677 33.4685 56.1028 33.601 55.895C33.4359 55.6851 33.3177 55.5343 33.2403 55.4365C33.3259 54.3707 34.2734 54.0772 34.9031 53.525C34.9357 53.5637 35.0193 53.6636 35.1314 53.7981C35.2394 53.6534 35.3474 53.5413 35.4126 53.4088C35.5593 53.1113 35.7101 53.0441 36.0973 53.0604C36.6353 53.0828 37.1794 52.7812 37.7316 52.6874C38.0658 52.6324 37.6562 52.2371 38.0821 52.1759C38.6609 52.0904 39.207 51.7847 39.8286 51.5503C39.6207 51.1387 39.6003 50.6618 39.9141 50.2257C40.0996 49.969 39.9651 49.7652 39.9203 49.5023C39.8204 48.9012 39.8612 48.2715 39.8754 47.6561C39.8876 47.1099 39.906 46.576 39.2111 46.1318C39.6737 46.0217 39.9427 45.9585 40.2117 45.8933C40.2769 45.4104 40.7252 45.2636 41.0512 45.0721C41.3162 44.9152 41.4425 44.8968 41.3814 44.5158C41.3406 44.2651 41.6748 43.9554 41.8419 43.668C42.2047 43.719 42.6244 43.9085 42.8894 43.7801C43.248 43.6049 43.6474 43.4765 43.9714 43.2075C44.6969 42.6063 45.4631 42.4902 46.2008 43.128C46.4922 42.9589 46.747 42.8121 46.9752 42.6797C47.0975 42.7673 47.1932 42.7999 47.2075 42.8529C47.5315 44.1673 48.1796 45.4287 47.8739 46.8491C47.8474 46.9734 47.8861 47.1242 47.9309 47.2505C48.0328 47.5379 48.1571 47.817 48.2753 48.1105C49.0558 48.084 49.0558 48.084 49.2474 47.8924C49.3656 48.0738 49.4817 48.2531 49.5938 48.4264C49.6794 48.4264 49.7528 48.4467 49.8078 48.4223C50.1379 48.2857 50.3906 47.8986 50.8511 48.2001C50.9367 48.2572 51.2404 47.9821 51.4543 47.8558C51.6928 48.0779 51.9373 48.3061 52.2552 48.6036C52.2756 48.3265 52.2837 48.2063 52.3021 47.9515C52.5283 48.1879 52.6791 48.3408 52.8217 48.4997C52.946 48.6383 53.0336 48.8604 53.1844 48.9175C54.1463 49.272 54.5783 50.2298 55.3629 50.78C55.7725 51.0674 56.2045 51.3262 56.2208 51.9375C56.2228 52.0251 56.6263 52.1026 56.879 52.1984C56.7669 52.4266 56.6161 52.6446 56.557 52.8851C56.4878 53.1724 56.4959 53.4801 56.2901 53.7981C56.2575 53.6615 56.2249 53.527 56.1597 53.2601C55.9885 53.5392 55.8662 53.7369 55.7521 53.9203C55.3568 54.0691 54.9451 54.224 54.4846 54.3972C54.4031 54.3421 54.2523 54.2403 54.0994 54.1363C54.0098 54.2708 53.9303 54.3931 53.8529 54.5072C53.5798 54.4277 53.3271 54.3605 53.0764 54.2932C53.2089 54.0895 53.3393 53.8857 53.5248 53.5983C53.1213 53.6941 52.8176 53.7675 52.4895 53.847C52.4895 53.6371 52.5099 53.4088 52.4875 53.4048C52.1553 53.3416 51.9536 53.5555 51.9536 53.8347C51.9536 54.0915 52.0636 54.3625 52.4753 54.1526C52.6159 54.0793 52.8727 54.2382 53.0764 54.2932ZM48.1327 55.5057C48.848 55.0269 49.8037 55.2266 50.252 54.4094C50.1379 54.2015 50.0299 54.0059 49.9219 53.8103C49.4797 53.8592 48.9662 53.6146 48.7053 54.1934C48.8255 54.2667 48.9458 54.3401 49.0843 54.4237C48.7379 54.7721 48.3833 54.9922 47.8902 54.8027C47.8739 54.7966 47.8127 54.9066 47.7231 55.0309C47.825 55.1512 47.9432 55.2857 48.1327 55.5057ZM38.5182 53.9733C38.8219 53.9733 39.1337 53.9407 39.4332 53.9815C39.7878 54.0304 40.0384 53.9427 40.1954 53.6167C39.3945 53.1949 39.3069 53.2132 38.5182 53.9733ZM49.8281 64.5313C50.576 65.2527 51.0957 64.6637 51.6561 64.3886C50.9877 63.7406 50.5027 64.625 49.8281 64.5313Z" fill="#1D3D6C"/>
<path d="M19.179 60.6117C19.7374 60.3733 19.8576 59.6193 20.5159 59.4746C20.577 59.4603 20.5688 59.1282 20.5933 58.9427C21.1048 58.7369 21.1252 58.2784 21.2862 57.7343C20.7787 58.095 20.4731 58.4027 20.579 58.9285C20.4547 58.849 20.3284 58.7695 20.1022 58.6269C20.7787 57.6997 21.3677 56.7602 22.0891 55.9369C22.8043 55.1198 23.3342 54.2741 23.7173 53.1818C24.1126 52.0488 24.3857 50.9137 24.3042 49.7073C24.2981 49.6299 24.296 49.5484 24.3144 49.477C24.6098 48.3379 24.8972 47.1988 25.209 46.0657C25.3598 45.5176 25.5574 44.9836 25.7306 44.4518C26.0404 44.4518 26.452 44.57 26.5723 44.4314C27.2162 43.6978 28.1821 43.8119 28.9504 43.4329C29.303 43.6835 29.4904 43.4023 29.7024 43.1985C29.953 42.958 30.1853 42.6952 30.4543 42.4792C30.6194 42.3467 30.8415 42.2815 31.0514 42.1816C31.2776 43.0783 31.4997 43.2739 32.2456 42.9988C32.9099 42.7543 33.2217 43.2963 33.7678 43.4777C33.346 43.9281 33.0709 44.4029 33.6089 44.9327C33.9329 45.2526 33.8982 45.7132 33.7678 46.0209C33.3297 47.0541 33.346 48.2116 32.7041 49.2081C32.2211 49.9559 32.0479 50.9056 31.7402 51.7655C31.7015 51.8715 31.6954 52.0651 31.6403 52.0773C30.8782 52.2546 30.9699 52.7233 31.1594 53.2878C31.2002 53.41 31.0331 53.6913 30.8904 53.7687C30.5664 53.946 30.2893 54.0805 30.5093 54.5247C30.5297 54.5634 30.3341 54.7285 30.222 54.81C29.9877 54.9792 29.8267 55.13 29.9795 55.4744C30.0508 55.6374 29.9775 55.9308 29.8654 56.0959C29.5475 56.5626 29.631 57.2208 29.0706 57.5937C28.8832 57.718 28.983 58.2784 28.7976 58.3986C28.4899 58.5963 28.6101 58.7451 28.5734 58.9957C28.5143 59.389 28.2066 59.817 27.8846 60.0819C27.5402 60.3631 27.2488 60.5669 27.2855 61.0743C27.2957 61.2149 27.0185 61.3759 26.7475 61.6571C26.6477 61.0315 26.8841 60.4813 26.3135 60.0574C26.2686 60.5424 25.8692 60.8175 26.073 61.4003C26.2136 61.8038 25.9854 62.3377 25.9018 62.9593C25.6695 62.5578 25.5248 62.3051 25.3536 62.0097C25.3088 62.1258 25.2232 62.2297 25.2477 62.297C25.6145 63.3098 25.2803 63.9639 24.4061 64.6058C23.6745 65.1438 23.1711 65.9916 22.5537 66.7191C22.515 66.6681 22.4538 66.5866 22.4008 66.5132C22.0911 66.823 21.8017 67.1715 21.4533 67.4466C20.9764 67.8215 20.4547 68.1394 19.9514 68.4797C19.8597 68.5429 19.715 68.6672 19.6702 68.6387C19.2748 68.3982 19.177 68.71 19.0058 68.9484C18.8489 69.1645 18.6451 69.3479 18.4434 69.5659C18.0664 69.3091 17.7587 69.3091 17.4041 69.6189C17.1005 69.8858 16.7011 70.0509 16.3302 70.2302C15.8533 70.4605 15.3622 70.6582 14.8548 70.8803C14.7509 70.6765 14.6123 70.4096 14.4554 70.1018C14.1334 70.1976 13.789 70.2465 13.5017 70.3994C13.1349 70.595 12.819 70.8803 12.4726 71.1126C12.3829 71.1737 12.2586 71.1982 12.1486 71.2125C11.2417 71.3164 10.3329 71.4122 9.37304 71.5181C9.3119 70.5991 9.98439 70.1141 10.3879 69.5333C10.7037 69.0768 11.2091 68.7304 11.6778 68.4003C13.035 67.4445 14.1517 66.2789 15.0769 64.8952C15.7351 63.9109 16.5176 63.0082 17.3226 61.9689C17.2859 62.3214 17.2574 62.5802 17.2248 62.9022C17.6384 62.7922 17.8728 62.5415 18.0582 62.1971C18.2742 61.7957 18.5249 61.4126 18.7613 61.0213C18.8917 60.8827 19.0364 60.7462 19.179 60.6117ZM16.9925 67.2632C17.0944 67.2346 17.2166 67.2346 17.292 67.1755C17.9115 66.6885 18.529 66.2055 19.1709 65.745C19.7924 65.3007 20.3854 64.8382 21.0722 64.4897C21.331 64.3572 21.5307 64.0943 21.7345 63.8702C22.2663 63.2833 22.5557 62.4906 23.2873 62.0606C23.4157 61.9852 23.4401 61.7305 23.5135 61.5573C21.0885 63.2099 18.9814 65.1438 16.9925 67.2632ZM29.1012 48.4479C28.926 48.5539 28.7996 48.5845 28.7527 48.664C28.1699 49.6258 27.6971 50.6427 27.3059 51.6962C27.1612 52.0855 26.9819 52.4625 26.88 52.8619C26.7964 53.194 26.776 53.5588 27.2223 53.7891C27.7787 52.9536 27.85 51.843 28.6549 51.1501C28.6794 51.1277 28.6835 51.0808 28.6957 51.0462C28.8404 50.6182 29.1562 50.1556 29.0829 49.7685C28.9993 49.3385 29.144 48.9309 29.1012 48.4479ZM25.8651 47.3985C26.4948 46.9359 26.8087 46.5263 26.988 45.9496C27.1367 45.4748 27.3324 44.9429 27.9132 44.7167C28.0538 44.6617 28.0986 44.3641 28.1903 44.1726C28.0415 44.1155 27.9437 44.0442 27.905 44.0687C27.2244 44.5068 26.4235 44.8247 26.3522 45.8253C26.3318 46.1085 26.1178 46.3734 26.0159 46.6547C25.9589 46.8218 25.9446 47.0052 25.8651 47.3985ZM31.4304 47.0806C31.4467 46.8034 31.461 46.5283 31.4834 46.1595C31.0269 46.4631 30.8802 46.7219 31.4304 47.0806ZM25.4331 48.774C25.9446 48.6456 26.0445 48.2768 25.9528 47.8121C25.7796 48.1321 25.6063 48.4541 25.4331 48.774Z" fill="#1D3D6C"/>
<path d="M19.1797 60.609C19.037 60.7435 18.8924 60.878 18.7497 61.0146C18.6071 61.0003 18.4644 60.986 18.2749 60.9677C18.3809 60.4236 18.7782 60.2096 19.1797 59.7246C19.1797 60.1648 19.1797 60.3869 19.1797 60.609Z" fill="#1D3D6C"/>
<path d="M102.277 56.9298C102.287 57.4005 102.198 57.7918 101.874 58.2034C101.633 58.5091 101.458 58.9411 101.325 59.3711C101.054 60.2433 101.016 61.2724 100.08 61.8287C99.9866 61.8837 99.9846 62.0957 99.9418 62.2363C99.8969 62.3769 99.8766 62.6296 99.8073 62.6438C99.1409 62.7804 99.0329 63.3163 98.9494 63.838C98.8984 64.1579 98.2524 63.9358 98.4705 64.429C98.1811 64.5553 98.2341 64.8549 98.12 65.0648C98.069 65.1565 97.7409 65.0953 97.5188 65.1055C97.6574 65.5742 97.0848 65.9797 97.3354 66.5157C97.3599 66.5687 97.1479 66.7317 97.0481 66.8458C96.6242 67.3247 95.9558 67.6752 96.18 68.5005C96.1861 68.525 96.0699 68.6045 96.0027 68.6228C95.7051 68.6962 95.4097 68.6636 95.4035 69.1689C95.3995 69.4298 94.9899 69.6478 94.6068 69.7314C94.0667 69.8496 93.4737 69.9759 93.2842 70.6402C92.7055 70.7849 92.736 71.2964 92.6994 71.7998C92.3366 71.7203 92.0493 71.6571 91.7477 71.5919C91.5235 71.8568 91.6275 72.3826 91.118 72.4356C90.2458 71.6143 90.0909 71.2149 90.3253 70.198C90.4027 69.8679 90.525 69.5296 90.7064 69.2443C91.4013 68.148 91.5989 66.8356 92.2857 65.7311C92.4752 65.4275 92.4487 64.9955 92.5588 64.6348C92.7014 64.1702 92.8339 63.6933 93.056 63.2654C93.3087 62.7804 93.6204 62.3443 93.3515 61.7594C93.3311 61.7146 93.5124 61.578 93.6001 61.4843C93.4961 61.3946 93.325 61.3233 93.2985 61.2153C93.1701 60.712 93.4411 60.335 93.7774 60.0069C93.8731 59.9131 94.026 59.8765 94.1421 59.8214C94.079 59.4424 93.7692 59.1164 94.2033 58.8372C94.2848 58.7862 94.3765 58.611 94.3459 58.5498C94.0036 57.8529 94.6292 57.3068 94.619 56.6649C94.6088 55.97 94.6169 55.2751 94.6169 54.6759C94.6862 54.5455 94.7046 54.5129 94.7229 54.4783C95.2242 53.5755 95.2324 53.5755 95.1733 53.3371C95.3363 53.2821 95.5034 53.227 95.7561 53.1415C95.642 52.9825 95.5442 52.848 95.4382 52.7033C95.4463 52.6544 95.4382 52.5423 95.4688 52.5301C96.2044 52.253 96.0903 51.5153 96.2187 50.9814C96.4204 50.1397 96.6099 49.2859 96.7648 48.4341C96.8973 47.6984 97.1337 46.9567 96.9747 46.1639C96.8361 45.4772 97.0542 44.8068 97.313 44.1506C97.7858 42.9462 98.2137 41.7256 98.6498 40.507C98.7904 40.1157 98.9188 39.7163 98.9962 39.3087C99.0227 39.1681 98.8841 38.9928 98.8169 38.8359C98.7802 38.7524 98.6865 38.6688 98.6967 38.5955C98.9657 36.5943 99.0186 34.5545 99.7584 32.6389C100.144 31.6383 100.51 30.6296 100.918 29.6392C101.527 28.1557 101.847 26.5907 102.283 25.0582C102.408 24.6262 102.54 24.1962 102.679 23.7275C102.395 23.5034 102.505 23.0774 102.395 22.676C102.548 22.6251 102.884 22.5986 102.917 22.4844C103.123 21.7651 103.812 21.5735 104.278 21.1436C104.741 20.7177 105.081 20.1776 105.778 19.9963C106.129 19.9046 106.385 19.4644 106.673 19.1934C107.846 19.5846 108.992 19.8883 110.206 19.8455C110.587 19.8312 111.005 19.8557 111.35 20.0003C111.676 20.1369 111.926 20.4548 112.209 20.6952C112.032 21.0152 111.896 21.2617 111.663 21.6795C112.246 21.492 112.58 22.0993 113.069 21.7243C113.12 21.6856 113.255 21.6693 113.285 21.7019C113.642 22.083 113.993 22.4681 114.323 22.8716C114.37 22.9287 114.296 23.0856 114.276 23.2181C114.109 23.0978 113.964 22.9919 113.815 22.8839C113.76 22.9287 113.675 22.9654 113.669 23.0122C113.611 23.428 113.561 23.8437 113.532 24.2614C113.528 24.3266 113.662 24.3918 113.699 24.4713C113.754 24.5895 113.84 24.8116 113.805 24.8361C113.652 24.9421 113.463 24.991 113.206 25.0929C113.151 25.3659 113.047 25.747 113.552 25.9386C113.332 26.1974 113.42 26.7944 112.731 26.6212C112.855 27.7807 112.275 28.7426 111.812 29.7452C111.604 30.1935 111.415 30.652 111.248 31.1187C111.176 31.3184 111.109 31.5792 111.178 31.7586C111.292 32.0479 111.315 32.2517 111.078 32.484C111.005 32.5574 111.034 32.7388 111.023 32.8712C111.007 33.0546 111.048 33.3705 110.977 33.399C110.422 33.613 110.769 33.937 110.83 34.2345C110.85 34.3364 110.809 34.4526 110.789 34.6197C110.685 34.4526 110.612 34.3344 110.492 34.1388C110.371 34.2631 110.267 34.3711 110.172 34.4709C110.333 34.691 110.445 34.8459 110.559 35.0008C109.907 35.4165 110.113 36.0788 110.133 36.6371C109.895 36.6188 109.619 36.5332 109.566 36.6066C109.357 36.9 109.683 36.9571 109.89 37.0793C109.605 37.2485 109.354 37.3993 109.104 37.5501C109.079 37.6214 109.039 37.6907 109.03 37.762C108.986 38.2796 108.91 38.7972 108.922 39.3148C108.927 39.5247 108.98 39.6735 108.747 39.7693C108.682 39.7957 108.607 39.8548 108.58 39.916C108.403 40.348 108.044 40.7372 108.234 41.265C107.406 41.1061 107.594 41.8682 107.461 42.2167C106.497 44.7415 105.576 47.2827 104.686 49.832C104.219 51.1648 103.84 52.5281 103.416 53.8751C103.39 53.9607 103.296 54.0279 103.235 54.1013C103.2 53.9872 103.166 53.873 103.1 53.6631C102.774 54.085 102.507 54.3906 102.562 54.841C102.546 54.9164 102.532 54.9918 102.52 55.0672C102.44 55.3708 102.359 55.6745 102.279 55.9781C102.198 56.4325 101.698 56.779 101.851 57.2375C101.988 57.1376 102.132 57.0337 102.277 56.9298ZM102.055 40.0016C101.837 40.0016 101.619 40.0016 101.285 40.0016C101.654 40.2889 102.002 40.4499 101.707 40.8676C101.541 40.7474 101.376 40.6272 101.142 40.458C101.105 40.8901 101.077 41.2202 101.052 41.5157C100.816 41.6013 100.655 41.6604 100.527 41.7072C100.565 41.8947 100.661 42.0638 100.616 42.1841C100.315 43.0094 100.337 43.8938 100.054 44.7354C99.7828 45.5424 99.6504 46.4676 99.7441 47.3092C99.8501 48.2588 99.6157 49.0984 99.3264 49.9319C99.1511 50.4393 99.1144 50.8652 99.3345 51.2748C99.5301 51.2748 99.6993 51.2789 99.8664 51.2707C99.8868 51.2707 99.9051 51.2116 99.9255 51.1811C99.8725 50.9671 99.8215 50.7531 99.7645 50.5208C99.9071 50.5412 100.003 50.5555 100.19 50.582C100.133 50.2722 100.082 49.993 100.025 49.6914C100.309 49.3796 100.918 49.1922 100.529 48.5299C100.466 48.4219 100.612 48.1855 100.675 48.0143C100.82 47.6271 100.973 47.242 101.14 46.8079C100.518 46.6265 100.971 46.0947 100.775 45.7523C100.759 45.7217 100.957 45.6015 100.987 45.5037C101.024 45.3875 101.012 45.2408 100.973 45.1226C100.946 45.0452 100.834 44.9983 100.761 44.9392C101.358 44.4746 100.908 43.8408 101.02 43.3273C101.191 43.2091 101.346 43.1011 101.48 43.0074C101.436 42.6406 101.397 42.3104 101.36 41.9986C102.057 41.6441 102.298 41.1509 102.065 40.4438C102.018 40.3032 102.043 40.1381 102.033 39.9832C102.432 39.2904 102.401 39.003 101.855 38.2674C101.923 38.8461 101.988 39.4228 102.055 40.0016ZM97.3904 63.785C96.8565 64.4514 96.4816 65.024 96.0047 65.4947C95.2222 66.2671 95.157 67.3757 94.6231 68.258C94.5599 68.364 94.6618 68.5678 94.7127 68.8857C95.2528 67.9503 95.7581 67.1882 96.1474 66.371C96.5284 65.562 97.366 64.9731 97.3904 63.785ZM102.281 38.031C102.868 37.599 102.899 37.116 102.988 36.6677C103.078 36.2235 103.102 35.7568 103.259 35.339C103.433 34.8826 103.563 34.4668 103.318 33.939C102.799 35.231 102.479 36.4843 102.281 38.031ZM101.853 48.9211C102.165 49.3939 101.136 49.9319 101.969 50.421C102.069 49.885 102.489 49.398 101.853 48.9211ZM93.3698 68.5331C93.1742 68.6636 93.003 68.7756 92.7788 68.9264C93.0947 69.0344 93.3494 69.1241 93.6449 69.226C93.6449 69.0385 93.6714 68.9489 93.6388 68.8959C93.5654 68.7654 93.4615 68.6534 93.3698 68.5331Z" fill="#1D3D6C"/>
<path d="M107.946 59.9665C107.719 60.2054 107.175 60.2793 106.982 60.0617C106.762 59.8127 106.637 59.4839 106.415 59.0922C106.726 59.1004 106.962 59.1059 107.277 59.1139C107.458 58.0774 106.513 57.5006 106.121 56.6047C106.366 56.0753 106.633 55.4919 106.953 54.8C107.296 55.133 107.629 55.3075 108.069 55.3117C108.427 55.3157 108.837 55.4662 109.127 55.6794C109.959 56.2981 110.743 56.9822 111.546 57.6389C111.724 57.7838 111.904 57.9285 112.094 58.0606C112.492 58.336 112.898 58.603 113.38 58.9277C113.519 58.8377 113.733 58.6993 113.963 58.5501C114.065 58.6576 114.168 58.765 114.267 58.8686C114.006 59.2662 113.764 59.6384 113.508 60.0295C113.633 60.089 113.798 60.1692 113.963 60.2494C114.139 59.9026 114.315 59.5559 114.53 59.1299C115.211 59.4455 115.763 59.822 116.327 60.198C116.868 60.5587 117.458 60.8458 118.116 61.2155C117.335 61.3696 116.742 60.9623 116.107 60.8364C115.671 60.7503 115.296 60.4126 114.795 60.4723C114.692 60.4852 114.559 60.2628 114.282 59.994C114.376 60.3548 114.366 60.594 114.472 60.6687C114.992 61.0344 115.633 61.26 115.86 61.9452C116.292 62.0601 116.736 62.2988 117.152 62.2593C117.739 62.2018 118.306 61.9391 118.884 61.7637C119.081 61.9749 119.28 62.1861 119.508 62.4286C119.731 62.2613 119.908 62.1267 120.103 61.979C120.197 62.0176 120.297 62.0681 120.4 62.1021C120.85 62.2548 121.28 62.4207 121.769 62.4901C122.707 62.6225 123.631 62.878 124.546 63.1379C125.95 63.5365 127.415 63.5448 128.826 63.8554C130.384 64.198 131.989 63.9918 133.534 64.3248C135.479 64.7435 137.431 64.6131 139.387 64.5051C139.916 64.4767 140.401 64.4708 140.914 64.7961C141.372 65.0851 141.995 65.1157 142.571 65.2647C142.687 65.1268 142.807 64.9887 142.972 64.7955C142.677 64.5418 142.43 64.3328 142.173 64.112C142.926 63.851 143.619 63.5663 144.337 63.3742C144.849 63.2385 145.281 63.1024 145.729 62.733C146.13 62.4025 146.859 62.3752 147.442 62.7238C147.725 62.8923 148.031 63.1027 148.34 63.1253C148.874 63.166 149.031 63.4159 149.149 63.9041C149.43 65.056 149.385 65.8618 148.842 66.7395C148.962 66.8095 149.079 66.8796 149.203 66.9534C149.111 67.1637 149.02 67.3759 148.928 67.5862C148.843 67.7839 148.8 68.0041 148.469 67.8888C148.417 67.8708 148.223 68.2693 148.039 68.5654C148.448 68.6914 148.72 68.7769 148.972 68.8551C149.002 68.97 149.05 69.0494 149.03 69.1033C148.74 69.8837 148.441 70.6583 148.067 71.6322C147.242 72.1943 146.256 72.9311 145.204 73.5547C144.735 73.8312 144.123 74.0224 143.59 73.9918C142.819 73.9477 142.283 74.2415 141.762 74.7122C141.594 74.8627 141.403 75.0204 141.194 75.0891C139.496 75.6525 137.816 76.2988 135.981 76.2748C135.559 76.2697 135.204 76.1881 134.799 75.9925C134.055 75.6329 133.207 75.4862 132.403 75.2456C131.892 75.0916 131.343 75.0066 130.879 74.7607C129.579 74.0676 128.099 73.7051 126.975 72.6714C126.866 72.5703 126.561 72.719 126.377 72.6601C124.93 72.2083 123.471 71.8101 122.174 70.9578C121.479 70.5001 120.778 70.0712 120.105 69.5737C119.48 69.1128 118.892 68.6074 118.274 68.14C117.883 67.8438 117.471 67.5771 117.061 67.3103C115.101 66.0274 113.283 64.5522 111.394 63.1722C110.997 62.8823 110.685 62.4764 110.321 62.1382C109.547 61.421 108.762 60.7104 107.946 59.9665ZM140.24 67.2423C140.28 67.3017 140.311 67.4083 140.359 67.4164C140.874 67.4947 141.393 67.5872 141.912 67.6144C142.305 67.6351 142.623 67.4614 142.823 66.9688C141.889 66.9729 141.025 66.782 140.221 67.2676C139.971 66.6243 139.338 66.7288 138.863 66.6547C137.636 66.4662 136.39 66.4133 135.16 66.2371C134.856 66.194 134.764 66.241 134.694 66.487C137.965 67.4548 138.572 67.378 140.24 67.2423ZM129.288 70.713C128.904 70.2655 128.411 70.182 127.933 70.0468C127.46 69.9135 127.012 69.6546 126.534 69.5929C126.07 69.5326 125.603 69.1828 125.114 69.5112C124.844 68.8178 124.291 69.4531 123.927 69.1985C124.428 69.7671 124.428 69.8038 124.93 69.8052C125.283 69.8054 125.477 69.9576 125.708 70.1918C126.267 70.7639 126.966 71.1051 127.884 71.3649C127.572 70.9324 127.35 70.6264 126.991 70.1309C127.802 70.5629 128.39 70.8725 129.015 71.2049C129.115 71.0249 129.203 70.8658 129.288 70.713Z" fill="#1D3D6C"/>
<path d="M123.759 21.3594C125.68 21.9198 127.582 22.2682 128.931 23.8313C129.334 24.2979 129.768 24.7483 130.235 25.1497C130.704 25.5553 130.889 26.079 131.015 26.6434C131.156 27.2731 131.274 27.9069 131.423 28.6466C131.282 28.7669 131.068 28.934 130.879 29.1235C130.773 29.2294 130.602 29.4292 130.636 29.4903C131.005 30.1526 130.314 30.393 130.117 30.819C129.895 31.3019 129.615 31.7645 129.32 32.2108C128.882 32.8731 128.385 33.4946 127.957 34.163C127.174 35.3837 126.52 36.692 125.489 37.7435C125.338 37.8984 125.234 38.0981 125.102 38.2876C125.047 38.1103 124.992 37.935 124.861 37.5193C124.869 38.4017 124.058 38.7114 124.197 39.4451C124.211 39.5164 123.993 39.657 123.861 39.7222C123.765 39.7711 123.632 39.7405 123.52 39.765C123.412 39.7874 123.31 39.8363 123.17 39.8873C123.233 40.1135 123.29 40.3213 123.361 40.576C123.056 40.4762 122.809 40.3702 122.571 40.6963C121.584 42.0474 120.27 43.16 119.644 44.7699C119.606 44.8718 119.565 44.9961 119.485 45.0531C118.817 45.53 118.617 46.339 118.096 46.9707C117.937 46.9198 117.659 46.9178 117.596 46.7996C116.969 45.6319 116.137 44.4805 116.486 43.0622C116.753 41.9781 116.632 40.7819 117.36 39.8221C117.604 38.4343 118.572 37.2625 118.566 35.7994C119.11 35.184 119.023 34.3627 119.257 33.6475C119.669 32.384 119.968 31.0798 120.429 29.8347C120.859 28.669 120.953 27.4137 121.542 26.2848C122.118 25.1803 122.454 23.9576 123.125 22.8837C123.384 22.4679 123.51 21.9707 123.759 21.3594ZM124.992 27.5299C124.934 27.5156 124.879 27.5014 124.822 27.4871C124.077 29.0257 123.314 30.5561 122.595 32.1048C122.34 32.653 122.002 33.2603 122.037 33.8207C122.073 34.4361 121.307 34.8131 121.682 35.4591C121.719 35.5222 121.309 35.2451 121.328 35.5895C121.34 35.8075 121.456 36.0174 121.499 36.2375C121.527 36.3863 121.521 36.5452 121.509 36.7001C121.489 36.9406 121.448 37.179 121.407 37.4765C121.546 37.395 121.702 37.3563 121.717 37.285C121.904 36.4189 122.318 35.6506 122.693 34.862C123.084 34.0387 123.439 33.1951 123.781 32.3494C124.05 31.683 124.405 31.0411 124.58 30.3523C124.759 29.6431 124.851 28.9054 125.024 28.1902C125.073 27.9864 125.006 27.752 124.992 27.5299ZM127.474 27.6522C127.93 27.0571 128.336 26.5273 128.753 25.9832C128.495 25.8324 128.329 25.7346 128.134 25.6205C127.865 25.7957 127.582 25.9812 127.404 26.0973C127.235 27.0694 127.09 27.911 126.942 28.7709C127.626 28.2533 127.626 28.2533 127.474 27.6522ZM118.481 42.1859C118.422 42.1696 118.362 42.1533 118.303 42.137C118.214 42.2919 118.098 42.4366 118.038 42.6037C117.924 42.9236 117.851 43.2578 117.745 43.5798C117.69 43.7428 117.282 43.3597 117.413 43.7224C117.537 44.0668 117.714 44.4663 118.199 44.6863C118.301 43.7999 118.391 42.9929 118.481 42.1859ZM126.514 24.7605C126.357 25.2231 126.269 25.4839 126.169 25.7794C126.449 25.7794 126.626 25.7794 126.803 25.7794C126.724 25.4921 126.652 25.2455 126.514 24.7605Z" fill="#1D3D6C"/>
<path d="M81.3529 30.6771C81.7665 30.8075 82.0009 30.8808 82.2332 30.9542C82.2678 30.8992 82.3045 30.8462 82.3392 30.7912C81.844 30.3388 81.3508 29.8864 80.8516 29.4279C81.3916 28.6841 81.4405 28.68 82.1578 29.1996C82.4614 29.4197 82.763 29.6745 83.2073 29.4809C83.3397 29.4238 83.5945 29.4747 83.7045 29.5746C84.1834 30.0066 84.7071 30.2532 85.3694 30.245C85.5569 30.243 85.8075 30.4101 85.9298 30.5752C86.7286 31.6532 87.5152 32.7393 88.2733 33.8479C88.5077 34.1903 88.636 34.606 88.8072 34.9891C88.8684 35.1277 88.8867 35.2948 88.9723 35.415C90.0666 36.9373 90.3621 38.7876 91.0427 40.4769C91.2282 40.9375 91.4421 41.3899 91.5929 41.8606C91.7641 42.3986 91.9781 42.9549 91.976 43.5011C91.974 43.7578 91.8477 44.1776 91.4727 44.414C90.7207 44.8909 89.8628 45.2577 89.494 46.2032C89.3534 46.5619 88.9988 46.835 88.5708 47.3526C88.6625 46.8818 88.6992 46.6964 88.7359 46.5109C88.6911 46.4967 88.6462 46.4804 88.6034 46.4661C88.4139 46.7596 88.2835 47.161 88.0145 47.3138C87.7863 47.4422 87.395 47.2812 86.9793 47.2364C87.0282 47.4341 87.069 47.6012 87.1138 47.7866C86.7307 48.0169 86.3802 48.129 85.8565 47.9476C85.3898 47.7866 85.1493 47.5686 84.9761 47.1569C84.8885 46.947 84.7438 46.7596 84.6175 46.566C83.9735 45.5797 83.6841 44.5424 83.6699 43.3258C83.6312 40.3078 83.2643 37.3163 82.3555 34.4124C82.1863 33.8724 82.1313 33.2895 82.0885 32.723C82.0294 31.9262 81.9133 31.4963 81.3529 30.6771ZM89.9036 42.9549C89.763 42.4781 89.5836 42.0828 89.5388 41.6732C89.4125 40.479 89.064 39.3684 88.4893 38.3148C88.3283 38.0193 88.2305 37.6831 88.1327 37.357C87.9819 36.8598 87.8861 36.7477 87.0873 36.3646C87.4297 36.8129 87.6579 37.1981 87.4378 37.6627C87.772 39.0627 88.1103 40.4627 88.4343 41.8647C88.4893 42.1052 88.5199 42.3028 88.7848 42.4455C89.1292 42.635 89.3085 43.1465 89.9036 42.9549Z" fill="#1D3D6C"/>
<path d="M102.271 55.9812C102.35 55.6776 102.431 55.3739 102.511 55.0703C102.645 55.0887 102.78 55.105 103.006 55.1355C102.825 55.6226 102.67 56.0403 102.513 56.4581C102.431 56.2971 102.352 56.1381 102.271 55.9812Z" fill="#1D3D6C"/>
<path d="M5.01303 17.8989C3.99481 19.6309 3.07106 21.2422 2.10008 22.8273C1.88226 23.1868 1.50961 23.4519 1.06611 23.9059C1.03462 22.473 0.627853 21.2606 1.01625 20.0088C1.50436 18.4395 1.95837 16.8597 2.46748 15.2982C2.64068 14.7707 2.61969 14.3535 2.18143 13.9966C1.54635 13.477 0.908649 12.96 0.276196 12.4378C0.0741262 12.2698 -0.1988 12.1071 0.218462 11.8552C0.276196 11.8184 0.24995 11.6006 0.223707 11.4746C0.092493 10.7845 0.0872503 10.7976 0.738073 10.8527C1.49124 10.9157 2.24441 10.9524 2.98183 10.9996C3.58542 9.32797 4.12602 7.64319 4.80834 6.01875C5.22035 5.03727 5.6035 4.07415 5.67435 3.00344C5.6796 2.90634 5.78457 2.81712 5.89479 2.63867C6.47214 3.6569 7.02586 4.5754 6.72144 5.77994C6.57711 6.34941 6.47214 6.97399 7.13608 7.40175C7.27255 7.48835 7.29354 7.79802 7.31453 8.01059C7.41688 9.04718 7.49823 10.089 7.59271 11.1256C7.59796 11.1938 7.65569 11.2595 7.74229 11.4379C8.47709 10.6454 9.10429 9.74524 10.2065 9.47756C10.4847 9.82659 10.2564 10.1231 10.0805 10.3987C9.48219 11.3382 9.06231 12.3984 8.16743 13.1411C7.7003 13.5295 7.69768 14.1016 7.7003 14.671C7.70293 15.2248 7.63994 15.7785 7.60583 16.3296C7.59008 16.5553 7.5376 16.7836 7.56122 17.004C7.67669 18.1141 7.81577 19.2215 7.93912 20.3316C7.94699 20.3972 7.90499 20.4707 7.86825 20.6072C6.60335 20.1033 5.76882 19.1402 5.01303 17.8989ZM6.31468 9.14428C6.21233 9.04456 6.1651 8.99994 6.11786 8.95533C6.03913 9.06818 5.95778 9.18101 5.88955 9.30173C5.8843 9.31223 6.01026 9.41983 6.01814 9.41195C6.12311 9.33323 6.21496 9.23875 6.31468 9.14428Z" fill="#1D3D6C"/>
</svg>
