<svg width="503" height="365" viewBox="0 0 503 365" fill="none" xmlns="http://www.w3.org/2000/svg">
<path d="M16.0799 215.711C14.3799 212.991 12.7799 210.281 12.0999 207.041C11.7499 205.351 11.6099 203.701 11.6499 202.031C11.7399 198.211 11.9799 196.501 13.3399 194.301C14.9899 191.641 16.5599 188.871 19.0299 186.841C21.1799 185.071 23.1699 182.771 25.6599 181.831C29.0199 180.551 31.3899 177.571 34.9999 176.911C35.5699 176.811 36.1399 176.481 36.6299 176.141C37.8099 175.341 37.9599 174.651 37.3199 173.341C37.0099 172.691 36.6399 172.071 36.3599 171.411C35.9799 170.541 35.1899 169.521 35.3999 168.811C35.7399 167.631 36.5199 166.071 37.5099 165.681C40.3499 164.551 43.2599 162.641 46.4799 164.201C47.5699 164.731 48.2099 164.191 49.3899 163.981C48.5199 163.631 47.9299 163.391 47.2899 163.131C47.4499 162.961 47.5799 162.711 47.7099 162.711C49.9699 162.711 51.8199 163.881 53.7199 164.881C54.9899 165.541 56.3199 166.131 57.4499 166.991C58.5299 167.811 60.1499 167.811 60.6999 169.611C60.9699 170.501 62.5499 170.971 63.4799 171.691C64.8099 172.721 66.0299 173.891 67.3999 174.861C68.2599 175.481 69.2299 176.061 70.2399 176.311C75.1099 177.511 80.1399 178.271 83.9299 182.091C84.2499 182.421 85.4399 182.361 85.8499 182.031C86.6899 181.331 87.3599 181.121 87.7999 182.201C88.2999 183.421 89.5799 182.931 90.2799 183.601C90.9499 184.241 91.5399 184.971 92.2199 185.611C92.3899 185.771 92.7499 185.711 93.0199 185.771C93.6899 185.911 94.6399 185.821 94.9699 186.231C96.9099 188.681 99.3099 190.811 100.88 193.471C101.98 195.331 103.11 197.331 103.29 199.751C103.43 201.731 104.42 203.631 104.27 205.731C104.17 207.161 104.11 208.641 104.37 210.041C104.61 211.371 104.24 212.501 104.09 213.741C103.8 216.121 102.61 218.311 102.79 220.751C102.8 220.941 102.74 221.291 102.7 221.291C100.72 221.341 101.99 223.691 100.96 223.971C99.2799 224.411 99.1199 226.001 98.1299 226.891C97.1899 227.721 95.9899 228.251 94.9999 229.031C93.4799 230.231 91.7299 230.341 89.2399 230.551C89.9099 229.861 90.1699 229.601 90.4299 229.331C90.6799 229.061 90.6799 229.061 90.0999 228.101C90.0399 228.011 89.9099 227.921 89.9199 227.851C90.1999 226.031 89.5399 224.141 90.3399 222.341C90.7799 221.351 90.9599 220.211 91.5599 219.351C94.7399 214.831 94.7699 209.541 95.3099 204.391C95.3799 203.731 94.9799 203.021 94.8099 202.321C94.6899 201.821 94.5999 201.311 94.4899 200.811C94.1999 201.101 93.7599 201.701 93.6399 201.651C92.3399 201.041 91.0899 200.341 89.8299 199.641C89.0299 199.191 88.2599 198.691 87.2699 198.361C89.2799 202.161 88.8599 206.301 89.2699 210.241C89.4499 211.951 88.4399 213.971 87.4699 215.551C86.3799 217.341 85.6399 219.341 84.2599 221.001C83.6399 221.741 83.2199 223.251 83.5599 224.061C84.1699 225.511 83.3299 226.761 82.7799 227.231C81.2199 228.541 80.6899 230.441 79.4899 231.871C77.4099 234.341 74.4899 235.701 71.2899 235.491C69.5299 235.381 67.5399 235.791 65.9099 234.581C65.4799 234.261 64.8099 233.941 64.7399 233.541C64.6799 233.181 65.2999 232.711 65.6199 232.291C65.8199 232.031 66.0299 231.791 66.2399 231.541C65.9099 231.271 65.6099 230.811 65.2399 230.751C63.7999 230.511 62.3399 230.401 60.9599 230.251C60.2599 231.981 59.6099 233.511 59.0099 235.051C58.0299 237.581 55.9399 239.051 53.8599 240.551C53.6699 240.681 50.6399 241.151 50.2099 241.241C49.4199 241.411 48.6599 241.681 47.8899 241.901C45.3699 242.591 45.1099 242.121 41.6699 241.681C38.5699 241.281 36.0799 239.381 33.0499 239.011C31.9099 238.871 31.7499 237.071 30.3799 237.041C28.5499 234.541 26.5199 232.171 24.9599 229.511C24.0299 227.931 23.8499 225.911 23.3199 224.091C22.7799 222.231 22.2499 220.601 20.0799 219.671C18.4199 218.961 16.7799 217.621 16.0399 215.671C16.3399 215.251 16.6899 214.851 16.9299 214.401C17.0099 214.261 16.8299 213.981 16.7799 213.761C16.5899 213.941 16.2899 214.091 16.2299 214.301C16.0999 214.741 16.1099 215.231 16.0799 215.711ZM65.2399 223.211C67.9199 224.021 69.8199 222.181 72.0499 222.001C73.3499 221.891 74.4799 221.151 74.8599 220.011C75.2399 218.891 75.1999 217.551 75.0499 216.351C74.9099 215.221 74.0899 215.141 72.7899 215.851C71.9999 216.281 70.9899 217.031 70.3199 216.831C69.0299 216.441 68.1699 217.391 68.1099 217.881C67.8199 220.031 65.4899 220.961 65.2399 223.211ZM72.4599 201.011C72.6299 201.461 72.8099 201.921 72.9899 202.381C73.3499 200.221 74.9199 202.861 75.6599 201.681C76.3399 200.591 77.3499 199.711 78.0799 198.651C78.2699 198.371 78.1199 197.671 77.8999 197.311C77.3399 196.421 76.6199 195.631 76.0099 194.771C75.1699 193.591 73.8399 193.921 72.7099 193.591C72.0399 193.401 71.4499 192.961 70.7799 192.771C70.5399 192.701 70.0199 192.931 69.9299 193.151C69.8299 193.381 70.1299 194.041 70.1899 194.041C71.9499 193.791 71.1899 195.171 71.4199 195.901C71.5199 196.231 71.4899 196.751 71.6999 196.891C73.3699 197.961 73.5399 199.321 72.4599 201.011ZM31.4799 209.111C28.6899 210.761 30.8799 212.571 30.9199 214.221C31.0899 212.631 31.2699 211.041 31.4799 209.111ZM68.2599 232.771C69.7599 234.161 69.7899 234.231 70.4999 233.891C71.0599 233.621 72.0299 233.051 71.9699 232.821C71.6999 231.691 70.9699 232.451 70.3499 232.601C69.7899 232.731 69.1999 232.701 68.2599 232.771ZM85.0599 183.421C85.8099 184.561 86.5499 185.711 87.4499 187.091C88.0099 184.901 86.9399 183.921 85.0599 183.421ZM76.5199 232.311C76.1699 232.111 75.9899 231.961 75.7799 231.901C74.6599 231.591 73.9599 232.091 73.6299 233.131C73.5699 233.301 73.6899 233.661 73.8299 233.741C75.0399 234.421 74.9099 232.841 75.6299 232.641C75.8899 232.571 76.1499 232.451 76.5199 232.311ZM33.1599 216.921C33.4099 216.571 33.7099 216.321 33.6999 216.091C33.6899 215.851 33.3799 215.631 33.1899 215.401C32.9299 215.651 32.6099 215.871 32.4599 216.171C32.4199 216.261 32.8399 216.581 33.1599 216.921ZM52.0999 164.991C51.7299 164.851 51.3799 164.711 51.0099 164.611C50.9799 164.601 50.7599 165.021 50.8099 165.071C51.0999 165.361 51.4299 165.601 51.7499 165.851C51.8299 165.631 51.9199 165.431 52.0999 164.991ZM40.5599 168.781C40.5499 168.901 40.5299 169.011 40.5199 169.131C40.9299 169.231 41.3399 169.401 41.7599 169.421C41.9799 169.431 42.2099 169.191 42.4299 169.071C42.2299 168.971 42.0499 168.801 41.8399 168.781C41.4199 168.731 40.9899 168.771 40.5599 168.781ZM18.8699 216.131C18.5199 215.871 18.1799 215.621 17.8499 215.361C17.7599 215.561 17.5399 215.861 17.5899 215.931C17.8499 216.221 18.1899 216.451 18.4899 216.691C18.5899 216.541 18.6899 216.391 18.8699 216.131Z" fill="#FF9737"/>
<path d="M454.13 75.95C451.12 77.5399 447.9 78.26 444.51 78.4C441.02 78.55 437.53 78.8 433.36 79.05C438.21 82.78 442.49 85.97 446.65 89.31C448.16 90.52 449.41 92.07 450.76 93.48C451.39 94.14 452.08 94.77 452.57 95.53C453.11 96.38 455.04 96.25 454.51 97.56C453.91 99.04 455.77 98.58 455.68 99.6C455.62 100.28 458.07 99.88 456.72 101.52C456.7 101.55 457.2 102.2 457.52 102.26C457.99 102.36 457.98 100.37 458.88 101.85C459.16 102.31 458.96 103.03 459.09 103.61C459.16 103.93 459.4 104.39 459.65 104.46C461.91 105.08 462.9 107.09 464.32 108.63C465.81 110.24 466.91 112.07 467.79 114.1C468.26 115.19 469.36 116.01 470.19 116.94C470.45 117.23 470.82 117.45 471.01 117.77C473.53 122.07 476.18 126.31 478.48 130.72C480.3 134.22 482.95 137.3 483.91 141.25C487.14 143.13 487.52 146.86 489.3 149.68C491.07 152.48 492.68 155.46 493.77 158.56C495.43 163.27 496.56 168.18 497.98 172.98C498.44 174.54 499.12 176.05 499.72 177.57C499.81 177.8 500.08 177.99 500.12 178.22C500.67 181.36 501.19 184.51 501.72 187.65C500.38 189.64 502.25 191.51 501.94 193.54C501.65 195.43 501.99 197.43 502.15 199.37C502.77 206.62 503.27 213.87 501.74 221.07C501.49 222.24 501.22 223.19 501.72 224.39C502.04 225.16 502.11 226.37 501.72 227.05C500.21 229.72 499.49 232.57 498.83 235.54C498.09 238.87 497.07 242.26 495.46 245.24C493.65 248.61 493.21 252.99 489.17 254.94C487.91 257.58 484.59 258.2 483.36 260.86C478.87 263.17 475.27 267.21 469.79 267.57C465.94 267.83 462.15 267.43 458.53 266.3C454.5 265.05 450.58 263.39 447.07 260.93C445.81 260.05 444.43 259.35 442.8 258.38C443.37 262.81 442.25 266.67 440.68 270.43C440.68 270.31 440.71 270.18 440.68 270.06C440.6 269.71 440.5 269.37 440.41 269.02C440.34 269.1 440.18 269.22 440.2 269.26C440.38 269.62 440.6 269.97 440.8 270.32C440.58 271.68 441.17 273.22 439.9 274.34C439.91 274.22 439.96 274.1 439.93 273.99C439.86 273.66 439.76 273.34 439.67 273.02C439.59 273.08 439.44 273.17 439.45 273.18C439.62 273.54 439.81 273.89 440 274.25C440.28 276.35 437.93 277.62 437.98 279.18C438.04 281.05 437.81 282.52 436.98 284.14C436.35 285.37 436.35 286.93 435.73 288.16C435.31 288.99 435.74 290.84 433.74 290.42C433.59 290.39 433.09 291.01 433.11 291.29C433.49 295.01 431.08 297.5 429.22 300.21C427.68 302.45 425.96 304.56 424.35 306.76C424 307.23 423.81 307.82 423.4 308.67C428.94 309.26 434.15 309.78 439.34 310.38C440.34 310.49 441.31 310.87 442.27 311.2C444.66 312.01 447.24 311.01 449.6 311.91C451.95 312.81 454.55 312.98 456.61 314.81C457.43 315.54 459.32 314.69 460.07 316.26C461.41 315.58 462.14 316.99 463.21 317.17C467.49 317.92 470.87 320.69 474.75 322.32C476.49 323.05 477.86 324.99 479.06 326.63C480.42 328.49 481.4 330.63 482.53 332.66C482.72 333 482.91 333.39 482.92 333.76C482.95 334.66 483.14 335.71 482.76 336.42C482.53 336.84 481.32 336.79 480.55 336.82C478.31 336.92 476.16 337.2 474.38 338.77C474.12 339 473.54 339.27 473.35 339.15C470.43 337.23 467.58 339.62 464.64 339.25C461.82 338.89 458.91 339.34 456.05 339.3C454.47 339.27 452.62 340.11 451.44 338.24C450.54 340.28 449.03 337.06 447.84 338.67C447.53 339.1 445.93 338.52 444.93 338.5C442.74 338.45 440.39 338.97 438.41 338.33C435.38 337.35 432.41 338.05 429.43 337.75C428.44 337.65 428.54 337.17 428.74 336.52C428.27 336.55 427.47 336.44 427.38 336.64C426.74 338.08 425.51 337.6 424.41 337.88C421.14 338.71 417.8 337.13 414.59 338.33C414.36 338.42 414.02 338.45 413.82 338.34C411.41 337.12 408.88 338.54 406.4 337.99C405.44 337.78 404.53 338.19 405.12 336.68C405.12 336.67 404.6 336.46 404.32 336.34C404.12 338.21 402.32 337.56 401.33 338.2C399.87 339.13 399.62 339.89 400.49 341.99C400.87 342.89 400.21 343.44 399.66 343.24C397.41 342.43 395.83 342.86 394.62 345.03C394.37 345.48 393.22 345.52 392.47 345.57C386 346.03 379.52 346.4 373.05 346.91C371.04 347.07 369.21 346.15 367.08 346.59C363.66 347.3 360.04 346.4 356.6 347.24C354.82 347.68 353.2 346.66 351.38 347.26C349.65 347.84 347.7 347.84 345.83 347.92C343.88 348.01 341.87 347.58 339.98 347.91C332.15 349.28 324.2 348.41 316.35 349.43C310.34 350.21 304.24 350.48 298.24 351.25C293.21 351.9 288.25 351.94 283.24 351.81C281.59 351.77 279.87 351.51 278.32 350.96C275.86 350.09 274.04 348.41 272.91 345.92C271.85 343.58 271.73 343.77 269.35 344.24C264.82 345.12 260.4 346.79 255.68 346.34C253.24 346.1 250.79 345.86 248.4 345.35C245.51 344.74 242.64 343.98 239.85 343.03C238.75 342.66 237.9 342.53 236.96 343.16C235.71 344.01 233.87 342.93 232.84 344.45C231.4 344.03 229.94 343.65 228.51 343.17C226.72 342.57 224.96 341.89 222.81 341.11C223.53 343.88 224.14 346.35 224.82 348.79C225.65 351.8 224.41 354.09 221.4 354.87C219.92 355.25 218.42 355.56 216.89 355.91C216.06 353.98 216.05 353.96 214.42 354.54C213.71 354.79 213.03 355.12 212.52 355.33C212.39 357.59 213.29 359.56 211.51 361.88C209.79 364.11 210.34 364.67 207.98 364.33C206.19 364.07 204.45 364.23 202.7 364.41C198.32 364.88 195.12 362.8 192.02 360.03C186.35 354.98 182.42 348.66 178.29 342.43C176.23 339.33 173.65 336.57 171.43 333.57C169.44 330.87 167.53 328.11 165.75 325.27C160.53 316.93 156.8 307.86 152.85 298.9C148.83 289.79 146.17 280.24 144 270.58C142.71 264.82 141.92 258.89 142.17 252.9C142.22 251.74 142.41 250.38 141.9 249.46C140.34 246.6 141.05 243.74 141.45 240.85C141.91 237.54 142.73 234.26 142.88 230.95C143.02 227.94 143.78 225.1 144.25 222.17C144.6 220 144.48 217.73 144.97 215.6C146.36 209.58 147.98 203.61 149.47 197.61C150.87 191.99 153.29 186.73 155.09 181.25C158.4 171.21 163.01 161.7 167.41 152.14C171.26 143.77 176.25 135.97 181.19 128.15C187.91 117.51 196.55 108.62 205.6 100.1C208.76 97.12 212.6 94.8 216.32 92.49C220.92 89.64 225.7 87.07 230.45 84.46C235.55 81.66 240.85 79.31 246.37 77.4C249.6 76.28 252.86 75.24 255.95 73.65C259.83 71.65 263.8 69.58 267.99 68.53C271.67 67.6 275.23 66.2999 278.99 65.6299C279.37 61.5099 279.72 57.54 280.12 53.58C280.81 46.75 281.62 39.91 283.51 33.3C284.31 30.51 284.53 27.56 285.77 24.89C286.97 22.31 287.99 19.62 289.5 17.23C291.44 14.14 292.71 10.55 296.21 8.53998C298.58 7.17998 300.34 5.00996 303.05 3.89996C306.59 2.45996 310.09 2.00997 313.77 2.46997C314.85 2.60997 315.86 3.45998 316.92 3.47998C317.88 3.49998 318.84 2.56998 319.81 2.53998C321.94 2.46998 323.39 1.34 324.8 0C326.89 0 328.98 0 331.07 0C331.47 0.28 331.84 0.729998 332.28 0.809998C338.26 1.96 343.43 4.69999 348.17 8.48999C350.1 10.03 351.84 11.86 354.23 12.9C355.2 13.32 356.58 14.0699 356.64 15.6899C356.65 15.9099 357.8 15.95 358.22 16.31C358.75 16.76 358.94 17.63 359.49 18.02C362.55 20.25 364.14 23.5699 365.95 26.6899C366.33 27.3399 366.2 28.19 367.14 28.62C367.66 28.86 368.13 29.52 368.34 30.09C369.88 34.31 371.56 38.4999 372.78 42.8199C373.77 46.3299 374.24 50 374.84 53.62C375.01 54.62 375.07 55.78 374.72 56.68C374.36 57.59 374.69 57.94 375.08 58.65C375.68 59.73 374.86 59.48 374.22 59.22C374.05 59.15 373.81 59.24 373.61 59.25C373.65 59.48 373.61 59.85 373.75 59.93C374.52 60.38 375.29 60.99 376.13 61.12C378.54 61.49 380.98 61.67 383.41 61.91C384.16 61.99 385 61.81 385.25 62.9C385.29 63.06 385.93 63.23 386.23 63.15C390.95 61.89 396.13 62.83 401.51 64.9C402.7 65.36 403.88 65.85 405.07 66.34C406.54 66.95 407.87 66.62 409.1 65.71C413.2 62.68 417.79 60.8 422.67 59.36C427.07 58.06 431.55 56.82 435.35 54.03C435.87 53.65 436.44 53.34 436.93 52.92C437.79 52.19 437.94 51.14 436.92 50.66C433.35 48.98 433.1 44.81 430.51 42.42C430.27 42.2 430.35 41.49 430.48 41.06C431.69 36.94 434.72 34.49 438.48 32.98C440.2 32.29 441.73 31.59 443.04 30.23C444.08 29.15 445.3 28.03 447.12 28.68C447.34 28.76 447.73 28.45 448.02 28.28C450.93 26.48 453.98 25.7 457.42 26.49C458.64 26.77 459.99 26.62 461.27 26.53C462.24 26.46 463.4 27.59 464.23 26.08C464.32 25.92 465.43 26.21 465.99 26.45C467.51 27.1 469.16 27.62 470.45 28.59C471.59 29.44 472.66 29.81 474.02 29.77C474.65 29.75 475.56 29.73 475.87 30.11C477.33 31.86 479.58 32.4499 481.21 33.8799C482.29 34.8299 483.07 36.0299 483.75 37.4399C484.65 39.2999 485.76 41.37 487.92 42.43C488.9 42.91 489.05 44.02 487.97 44.55C485.57 45.73 485.75 48.25 484.85 50.18C484.51 50.9 484.66 51.6899 483.48 51.1299C483.32 51.0499 482.74 51.7499 482.41 52.1299C481.67 52.9899 480.96 53.89 480.24 54.77C478.94 53.85 478.43 55.5899 477.46 55.5699C476.96 55.5599 476.48 55.05 475.99 54.77C476.23 54.75 476.47 54.75 476.71 54.7C476.94 54.65 477.16 54.54 477.38 54.46C477.08 54.4 476.76 54.2699 476.48 54.3199C476.33 54.3499 476.23 54.6899 476.1 54.8799C475.71 54.9199 475.19 54.81 474.97 55.02C474.31 55.62 473.9 56.6 473.16 56.97C472.52 57.28 471.42 56.66 470.79 56.98C469.75 57.5 467.67 57.07 468.18 59.45C468.51 60.9799 466.73 62.54 468.16 64.22C468.37 64.46 467.72 65.59 467.29 66.18C466.82 66.81 465.48 66.93 466.22 68.23C466.25 68.28 465.77 68.78 465.67 68.73C463.74 67.85 463.86 69.42 463.54 70.47C463.53 70.7 463.51 70.94 463.49 71.17C461.53 73.55 460.45 74 457.69 73.65C456.96 73.56 456.85 73.75 456.75 74.65C456.63 75.81 455.25 76.05 454.1 76.04C453.7 75.8 453.32 75.44 452.89 75.35C452.47 75.27 451.99 75.47 451.53 75.55C451.55 75.67 451.56 75.8 451.58 75.92C452.39 75.95 453.26 75.95 454.13 75.95ZM354.47 30.64C354.35 30.04 354.83 29.14 353.69 29.04C353.35 27.82 353.21 26.49 352.64 25.39C349.26 18.89 344.67 13.46 338.48 9.42999C336.77 8.31999 335.04 7.41996 333.11 7.07996C335.15 9.27996 337.1 11.4099 339.08 13.5099C339.33 13.7799 339.7 13.94 340.04 14.11C344.57 16.4 347.5 20.29 350.3 24.33C351.4 25.91 352.63 27.4 353.81 28.92C354.07 29.45 354.34 29.99 354.6 30.52C354.74 30.89 354.87 31.25 355.01 31.62C355.05 31.52 355.15 31.3699 355.11 31.3199C354.91 31.0999 354.68 30.87 354.47 30.64ZM349.01 109.8C348.99 109.43 348.97 109.06 348.95 108.68C349.37 108.07 349.8 107.46 350.22 106.85C351.17 108.07 351.46 107.69 352.23 106.47C353.39 104.64 355.57 103.89 358.26 103.29C359.18 103.09 359.98 102.38 360.83 101.89C361.22 101.67 361.84 101.17 361.95 101.27C363.28 102.43 363.62 100.92 364.38 100.48C365.2 100.01 366.27 101.52 367.09 100.25C367.77 101.27 368.06 101.26 368.58 100.23C369.13 100.33 369.78 100.65 370.22 100.47C370.72 100.26 371.01 99.57 371.48 99.2C371.56 99.14 372.22 99.97 372.41 99.89C372.94 99.67 373.36 98.8699 373.82 98.8799C376.69 98.9299 379.73 97.75 382.35 99.98C382.67 100.25 383.31 100.17 383.81 100.19C384.92 100.23 386.11 99.82 387.08 99.93C388.49 100.08 389.79 101.15 391.16 101.76C391.84 102.06 392.76 102.57 393.27 102.33C395.53 101.3 396.48 102.89 397.62 104.21C397.43 104.62 396.97 105.25 397.09 105.4C397.68 106.11 398.17 105.68 398.55 105.06C401.2 106.55 400.88 109.97 402.94 111.85C402.4 113.64 404.01 115.48 402.8 117.29C402.6 117.59 402.7 118.22 402.86 118.61C403.23 119.54 403.72 120.42 404.17 121.34C406.79 119.54 406.79 119.54 409.48 121.74C409.66 121.89 409.93 122.12 410.1 122.07C412.44 121.51 413.41 123.51 414.86 124.59C413.88 125.11 413.65 125.62 414.87 126.12C415.13 127.1 415.31 128.11 415.67 129.04C415.88 129.58 416.38 130.02 416.76 130.5C417.02 129.97 417.28 129.43 417.61 128.75C417.98 130.27 418.16 131.77 418.72 133.1C419.54 135.06 418.83 136.95 418.67 138.82C418.53 140.47 415.98 141.42 416.88 143.63C416.9 143.67 416.22 144.18 415.93 144.13C414.3 143.83 413.69 145.22 412.72 145.98C412.25 146.35 412 146.99 411.53 147.35C410.23 148.33 410.07 149.01 411.25 149.51C412.15 149.89 413.19 150.05 414.18 150.09C418.98 150.28 423.46 151.8 427.84 153.55C430.93 154.78 433.85 156.42 436.87 157.82C444.13 161.19 450.9 165.42 457.66 169.64C459.91 171.04 461.83 172.92 463.66 174.97C467.02 178.74 470.91 182.04 474.58 185.54C474.98 185.93 475.37 186.33 475.77 186.72C475.3 187.14 474.85 187.9 474.36 187.92C472.38 188.02 470.32 189.14 468.43 187.97C466.46 186.76 464.56 185.39 462.82 183.87C458.28 179.9 454.26 175.31 448.9 172.32C446.98 171.25 445.22 169.88 443.25 168.94C441.26 168 439.45 166.53 437.16 166.19C437.3 168.02 437.62 169.55 437.5 171.05C437.22 174.58 436.9 178.12 436.28 181.59C435.84 184.05 435.85 186.68 434.37 188.89C434.27 188.47 434.18 188.04 434.08 187.62C434.02 187.72 433.88 187.87 433.91 187.93C434.07 188.23 434.28 188.52 434.47 188.81C433.66 194.17 431.99 199.27 429.58 204.11C428.91 205.45 428.43 207.06 426.46 207.1C426.38 207.1 426.31 207.7 426.23 208.01C427.97 207.65 427.78 208.2 426.78 209.16C426.32 209.6 425.93 210.11 425.44 210.51C424.3 211.43 424.35 212.65 425.21 213.46C427.38 215.48 427.96 218.36 429.49 220.72C432.28 225.03 434.4 229.75 436.5 234.38C438.03 237.75 439.47 241.15 441.39 244.33C442.92 246.87 444.32 249.56 446.25 251.77C447.84 253.59 449.84 255.13 451.67 256.72C454.76 259.4 458.76 260.87 462.85 261.52C466.32 262.07 469.7 261.92 472.65 259.31C474.97 257.26 477.72 255.72 480.18 253.82C485.66 249.59 489.21 243.95 491.59 237.54C492.71 234.53 493.59 231.43 494.83 228.48C495.63 226.57 495.99 224.73 495.3 222.82C494.91 221.74 495.2 220.87 495.35 219.84C495.72 217.32 495.87 214.74 495.89 212.19C495.91 209.09 495.37 205.96 495.64 202.9C496.1 197.73 495.06 192.69 494.54 187.65C494.08 183.16 493.13 178.62 491.79 174.17C489.4 166.26 486.54 158.56 482.86 151.21C479.69 144.89 475.85 138.9 472.16 132.85C468.53 126.88 464.86 120.93 460.94 115.15C458.18 111.07 455.23 107.06 451.93 103.41C445.83 96.66 439.22 90.42 431.88 85C428.31 82.36 424.56 81.18 420.04 82.79C417.17 83.81 413.98 84.52 410.97 84.42C408.56 84.34 406.2 84.5699 404 85.0699C400.62 85.8399 397.35 85.23 394.05 85.15C393.19 85.13 392.5 84.85 391.56 85.27C390.25 85.87 389.37 85.07 389.86 83.83C390.46 82.29 391.07 80.52 392.24 79.48C393.5 78.37 393.99 77 394.71 75.68C395.54 74.15 397.21 74.38 398.49 73.78C398.59 73.73 398.64 73.57 398.7 73.45C399.12 72.6 399.66 71.96 400.76 71.99C400.97 72 401.36 71.5 401.36 71.24C401.36 70.97 401.02 70.51 400.76 70.46C398.12 69.91 395.48 69.32 392.82 68.96C389.75 68.55 386.57 68.69 383.58 67.99C379.42 67.01 375.28 67.59 371.14 67.37C369.84 67.3 368.87 67.8 368.5 69.17C368.37 69.66 368.23 70.22 367.91 70.58C367.03 71.55 367.13 70.04 366.42 70.03C366.15 70.93 365.81 71.8999 365.59 72.8799C365.14 74.8899 363.84 76.2799 362.33 77.5099C361.99 77.7899 361.36 77.7599 361.11 78.0699C357.99 81.9199 356.78 82.62 352.88 83.11C349.83 83.5 346.82 84.25 343.76 84.46C341.26 84.63 338.72 85.23 336.19 84.58C334.6 84.18 334.2 83.1 334.98 81.55C335.21 81.1 335.26 80.57 335.45 79.85C333.84 80.4 332.65 81.0999 331.41 81.1899C325.33 81.6399 319.29 82.78 313.15 82.3C309.76 82.04 306.59 80.88 303.67 79.29C299.42 76.97 296.34 73.38 294.29 69.12C292.57 69.9 291.06 70.62 289.52 71.27C288.96 71.5 288.22 71.8099 287.74 71.6299C284.83 70.5399 282.03 70.84 279.25 72.03C279.14 72.08 278.99 72.02 278.86 72.05C276 72.77 273.1 73.39 270.28 74.24C265.73 75.62 261.32 77.23 257.03 79.43C252.16 81.93 246.8 83.53 241.56 85.23C239.78 85.81 238.2 86.58 236.63 87.5C235.98 87.88 235.05 88.54 234.58 88.33C232.37 87.33 231.53 88.71 230.63 90.22C230.37 90.65 230.01 91.2099 229.59 91.3199C226.33 92.1199 224.23 94.8 221.4 96.3C219.06 97.54 216.94 99.2 214.67 100.58C211.21 102.68 208.5 105.6 205.63 108.39C200.94 112.94 196.25 117.48 192.41 122.79C191.07 124.63 189.98 126.65 188.67 128.52C185.95 132.4 183 136.14 180.47 140.13C178.7 142.92 177.69 146.2 175.91 148.98C173.68 152.44 172.9 156.54 170.48 159.94C168.81 162.29 168.11 165.33 167.19 167.56C166.38 168.71 166.4 165.89 165.68 167.84C165.3 168.85 164.07 169.81 165.7 170.79L165.62 170.72C164.82 173.07 164.03 175.42 163.21 177.77C160.89 184.44 158.52 191.1 156.24 197.79C155.54 199.83 155.09 201.96 154.51 204.04C154.41 204.38 154.15 204.98 154.02 204.97C152.76 204.83 152.2 204.9 152.92 206.42C153.25 207.12 153.12 208.31 152.73 209.02C152.28 209.84 151.9 210.41 152.22 211.45C152.47 212.26 152.18 213.24 152.11 214.14C152.1 214.26 152.01 214.42 151.92 214.47C151.25 214.85 149.83 215.19 150.78 216.1C152.31 217.56 150.02 217.23 150.17 217.83C151.51 223.03 149.9 228.08 149.34 233.17C149.06 235.7 147.73 238.18 147.75 240.67C147.79 245.38 146.11 250.19 148.26 254.82C148.41 260.72 149.94 266.38 151.18 272.1C152.34 277.43 154.36 282.44 156.04 287.59C157.97 293.5 160.35 299.19 163 304.78C164.71 308.38 166.46 311.97 168.31 315.5C169.37 317.53 170.46 319.58 172.41 321.23C173.83 319.53 175.04 317.83 176.5 316.4C179.73 313.23 183.09 310.18 186.41 307.1C188.41 305.25 190.5 303.5 192.44 301.6C196.44 297.69 200.88 294.38 205.82 291.76C209.8 289.65 213.84 287.67 217.84 285.61C219.75 284.62 219.93 284.21 219.3 281.9C217.9 276.81 217.37 271.57 216.63 266.38C215.86 260.94 215.88 255.37 214.9 249.97C214.14 245.76 213.96 241.62 214.25 237.42C214.36 235.89 214.83 234.39 214.98 232.87C215.32 229.52 215.31 226.12 215.89 222.82C216.81 217.57 217.59 212.3 218.06 206.99C218.19 205.56 218.03 204.11 218.21 202.69C218.37 201.39 219.41 200.42 219.1 198.8C218.89 197.66 220.07 196.28 220.57 194.98C223.31 187.8 226.82 181 230.59 174.32C230.81 173.93 231.23 173.67 231.56 173.34C231.93 173.91 232.3 174.48 232.67 175.05C233.56 173.85 233.87 172.08 235.84 171.97C237.02 174.85 234.12 177.08 234.55 179.85C234.6 180.2 234.49 180.78 234.25 180.92C233.72 181.25 233.06 181.38 232.45 181.58C233.59 183.23 231.76 183.68 231.22 184.66C230.43 186.09 230.85 188.01 229.43 189.19C229.52 189.29 229.59 189.43 229.7 189.47C231.24 190.05 230.33 190.92 229.88 191.59C228.5 193.68 228.23 196.11 227.63 198.44C227.01 200.82 226.7 203.36 225.61 205.5C225.12 206.45 225 207.5 224.45 208.38C224.19 208.57 223.93 208.75 223.68 208.94C223.94 209.25 224.2 209.56 224.46 209.88C223.95 212.13 223.44 214.39 222.93 216.64C222.79 217.24 222.54 217.84 222.53 218.45C222.47 220.84 222.57 223.24 222.46 225.63C222.36 227.92 222.88 230.24 222.11 232.52C221.98 232.92 222.63 233.58 223.27 234.75C224.13 231.41 227.02 230.14 227.81 227.38C230.43 226.17 230.99 223.63 231.79 221.23C231.9 220.89 232.28 220.63 232.51 220.32C235.94 215.73 239.92 211.57 242.94 206.66C243.48 205.78 244.53 204.95 244.57 204.07C244.63 202.53 247.12 203.54 246.61 201.8C249.41 198.49 252.21 195.17 255 191.86C255.13 192.04 255.23 192.35 255.38 192.37C255.66 192.41 255.96 192.28 256.25 192.22C256.04 192.12 255.85 191.98 255.63 191.94C255.41 191.89 255.17 191.93 254.94 191.93C255.89 191.21 257.36 190.68 257.7 189.75C258.52 187.5 260.61 186.45 261.85 184.64C262.11 184.26 263.45 184.23 263.44 184.12C263.23 181.73 265.08 180.64 266.46 179.37C271.71 174.55 277.15 169.93 282.33 165.03C286.94 160.67 292.24 157.25 297.32 153.54C298.56 152.64 300 152 301.38 151.29C302.64 150.65 303.93 150.06 305.21 149.48C306.45 148.91 307.66 147.43 309.01 149.32C309.78 147.75 311 147.25 312.65 147.83C312.66 147.83 312.79 147.62 312.77 147.54C312.15 145.42 313.82 146.02 314.81 145.81L318.32 144.86C318.65 143.44 319.18 142.99 320.25 144.37C320.38 144.54 320.88 144.43 321.21 144.45C320.46 142.28 322.6 142.46 323.45 142.15C325.94 141.22 328.6 140.78 331.16 140.03C333.97 139.2 336.74 138.38 339.69 139.41C340.51 139.7 341.89 140.2 342.19 139.87C344.12 137.74 346.12 138.64 348.22 139.33C349.32 139.69 350.07 138.91 349.68 137.83C348.56 134.69 347.49 131.52 346.16 128.46C345.08 125.99 344.11 123.5 343.5 120.88C343.28 119.95 342.6 119.17 343.86 118.2C344.62 117.62 344.69 116.16 345.07 115.09C346.27 114.56 345.77 114.06 345.05 113.56C345.87 112.66 347.34 112.3 347.38 110.75C348.48 111.32 349.02 110.98 349.01 109.8ZM222.04 266.37C222.56 267.76 223.4 269.12 223.54 270.55C223.93 274.52 224.34 278.44 225.88 282.19C226.4 283.46 226.39 284.94 226.68 286.31C227.14 288.43 227.62 290.55 228.14 292.66C229.29 297.36 231.61 301.78 231.48 306.8C231.46 307.53 231.92 308.27 232.15 309.01C232.72 310.84 233.3 312.67 233.85 314.51C234.07 315.22 234.18 315.97 234.44 316.67C235.02 318.23 235.65 319.77 236.27 321.32C236.07 321.43 235.74 321.51 235.71 321.66C235.66 321.94 235.78 322.25 235.83 322.55C235.92 322.34 236.03 322.14 236.09 321.92C236.15 321.7 236.14 321.46 236.16 321.22C238.4 324.64 241.19 331.87 241.64 335.77C241.78 336.95 241.97 337.65 243.38 337.8C246.43 338.12 249.47 339.03 252.51 339C257.3 338.94 262.09 338.36 266.86 337.89C269.89 337.59 270.88 336.5 270.7 333.43C270.39 328.2 271.65 323.14 272.45 318.08C273.42 312 274.82 306 275.47 299.85C275.73 297.43 276.24 295.04 276.68 292.65C277.83 286.33 279.62 280.17 281.84 274.17C284.38 267.29 287.12 260.45 290.18 253.78C292.98 247.69 296.47 241.94 300.29 236.41C304.49 230.33 308.74 224.32 314.32 219.36C315.66 218.17 317.16 217.65 318.71 217.07C319 216.96 319.62 217.1 319.74 217.32C319.96 217.72 320.13 218.37 319.95 218.73C319.14 220.3 318.29 221.86 317.29 223.31C314.87 226.81 312.3 230.21 309.88 233.72C307.69 236.9 305.77 240.29 303.46 243.38C299.51 248.68 296.65 254.53 294.19 260.6C292.55 264.64 291.21 268.81 289.37 272.75C288.55 274.5 287.96 276.25 287.47 278.07C286.71 280.92 285.98 283.78 285.21 286.63C284.32 289.95 283.38 293.27 282.52 296.6C282.38 297.13 282.59 297.75 282.65 298.46C284.8 297.61 286.3 295.52 288.73 296.68C288.89 296.76 289.38 296.48 289.5 296.25C289.96 295.39 290.84 295.36 291.54 294.96C294.53 293.27 297.87 293.94 300.99 293.24C304.43 292.46 308.03 292.44 311.55 291.98C317 291.26 322.47 290.93 327.97 291.16C329.67 291.23 331.45 291.35 333.08 290.97C334.84 290.56 336.6 290.23 338.39 290.18C339.62 290.15 340.93 290.75 342.08 290.51C345.23 289.85 348.34 290 351.49 290.3C354 290.54 354.63 290.09 355.34 287.79C356.1 285.34 356.86 282.88 357.71 280.46C359.91 274.18 362.26 267.94 364.36 261.63C367.2 253.1 369.65 244.46 371.19 235.59C371.74 232.44 372.54 229.33 373.08 226.17C374.05 220.61 377.17 215.49 376.52 209.59C376.47 209.14 376.94 208.65 377.02 208.16C377.15 207.32 377.17 206.46 377.26 205.3C374.27 205.6 371.67 205.08 368.91 205.88C366.2 206.66 362.93 206.38 360.7 204.62C358.59 202.96 356.96 200.44 355.73 198C355.05 196.65 354.02 194.19 357.07 193.39C357.38 193.31 357.4 192.43 357.73 192.09C359.24 190.51 360.72 188.89 362.38 187.48C363.44 186.59 364.8 186.06 366.51 185.09C364.54 185.09 363.03 184.76 361.73 185.15C358.37 186.16 354.98 185.75 351.64 185.61C349.36 185.52 346.82 184.99 346.66 181.71C346.63 180.99 346.03 180.31 345.74 179.59C345.56 179.14 345.23 178.55 345.38 178.21C346.23 176.23 345.64 173.37 348.72 172.67C349.12 172.58 349.33 171.67 349.63 171.15C349.22 170.89 348.84 170.74 348.57 170.48C347.55 169.53 346.43 168.64 345.6 167.54C344.61 166.23 345.94 165.18 346.32 164.03C346.42 163.71 346.21 163.3 346.27 162.96C346.64 161.02 347.2 159.26 348.92 157.95C350.84 156.49 352.54 154.76 354.25 153.23C353.83 152.1 353.16 151.04 353.07 149.93C352.82 147.11 350.85 146.18 348.62 145.82C344.3 145.12 339.84 144.82 335.61 145.87C326.39 148.15 317.3 150.87 308.69 155.02C304.25 157.16 300.06 159.55 296.14 162.63C292 165.88 287.39 168.5 283.55 172.22C277.72 177.88 271.43 183.09 265.76 188.89C261.08 193.67 256.89 198.95 252.69 204.17C247.94 210.09 243.38 216.17 238.83 222.24C236.13 225.84 233.34 229.37 231.14 233.36C229.15 236.95 226.56 240.21 224.23 243.62C224.7 244.92 222.91 245.24 223.04 246.33C223.13 247.06 223.62 247.75 223.66 248.47C223.74 249.69 223.72 250.94 223.52 252.14C223.39 252.92 222.86 253.64 222.41 254.59C221.74 253.77 221.32 253.25 220.67 252.46C220.89 254.28 221.11 255.75 221.22 257.22C221.34 258.81 220.95 260.34 221.86 261.99C222.52 263.17 222.1 264.95 222.16 266.46C221.96 266.72 221.76 266.98 221.59 267.26C221.56 267.31 221.67 267.46 221.72 267.56C221.81 267.17 221.92 266.77 222.04 266.37ZM363.62 285.15C369.37 285.84 374.88 283.64 380.51 284.38C384.26 283.05 388.14 284 391.95 283.78C396.71 283.5 401.47 283.9 406.25 284.33C413.01 284.93 419.83 284.88 426.53 286.22C428.99 286.71 430.03 285.98 431.29 283.8C432.99 280.86 433.95 277.67 434.67 274.4C435.66 269.92 436.94 265.47 437.49 260.94C438.14 255.51 437.96 250.05 434.2 245.46C433.88 245.07 433.71 244.56 433.5 244.09C431.19 238.92 428.97 233.71 426.55 228.6C424.7 224.69 422.6 220.9 420.49 216.84C419.47 217.54 418.71 218.23 417.82 218.65C416.64 219.21 415.43 218.51 415.73 217.38C416.26 215.4 414.71 213.33 416.17 211.41C416.47 211.02 416.38 210.11 416.14 209.58C414.19 205.34 410.27 203.28 405.24 203.7C404.73 203.74 404.2 203.68 403.7 203.58C396.1 202.09 388.68 203.2 381.51 204.79C382.22 208.81 382.29 212.6 381.76 216.3C381.21 220.1 380.04 223.8 379.14 227.55C378.78 229.05 378.19 230.55 378.13 232.07C377.92 237.41 376.36 242.49 375.09 247.58C373.22 255.08 371.55 262.65 368.7 269.9C366.77 274.81 365.35 279.91 363.62 285.15ZM344.03 318.6C344.41 317.42 345.04 316.32 345.06 315.22C345.11 312.25 346.45 309.8 347.74 307.27C349.36 304.09 350.87 300.84 352.4 297.68C351.85 297.32 351.64 297.07 351.43 297.06C346.41 296.95 341.38 296.71 336.37 296.83C331.67 296.95 326.98 297.62 322.28 297.75C316.56 297.91 310.83 297.61 305.15 298.53C302.24 299 299.29 299.26 296.38 299.77C293.23 300.32 290.12 301.19 286.96 301.68C282.19 302.43 281.82 302.65 280.96 307.16C280.81 307.92 280.77 308.71 280.75 309.49C280.72 310.86 281.12 312.37 280.68 313.59C279.75 316.15 279.31 318.78 278.74 321.41C277.36 327.79 276.73 334.19 277.77 340.68C278.27 343.82 280.39 345.25 283.79 344.87C284.69 344.77 285.61 344.89 286.52 344.88C290.82 344.83 295.13 344.86 299.24 343.3C299.73 343.12 300.23 342.86 300.73 342.85C303.03 342.8 305.33 342.79 307.63 342.85C309.87 342.91 312.07 342.8 314.32 342.52C321.66 341.59 329.09 341.55 336.47 340.99C343.59 340.45 350.75 340.36 357.9 340.17C363.24 340.03 368.59 340.04 373.94 339.99C374.59 339.98 375.35 340.23 375.87 339.98C378.38 338.75 380.96 339.57 383.51 339.49C386.42 339.4 389.32 338.87 392.23 338.57C393.41 338.45 393.64 337.78 393.71 336.72C393.78 335.57 393.33 334.85 392.66 333.96C389.71 330.06 385.43 328.14 381.24 326.12C379.19 325.13 377.01 324.17 374.79 323.8C367.79 322.62 360.8 321.33 353.64 321.19C351.36 321.14 349.1 321.45 346.83 321.3C345.51 321.21 345.06 320.93 345.6 319.36C346.15 317.72 344.59 319.18 344.03 318.6ZM426.89 292.71C424.07 292.27 421.68 291.71 419.27 291.56C413.19 291.19 407.1 291.04 401.02 290.73C397.41 290.55 393.8 290 390.2 290.03C384.12 290.09 378.05 290.45 371.98 290.76C368.96 290.92 365.94 291.2 362.93 291.55C362.25 291.63 361.29 292.04 361.05 292.57C359.86 295.2 358.57 297.85 357.87 300.63C356.99 304.17 355.7 307.47 353.86 310.59C352.41 313.05 352.71 313.8 355.38 314.25C357.32 314.58 359.37 314.48 360.87 316.1C360.97 316.21 361.35 316.26 361.4 316.2C363.03 313.78 364.89 316.41 366.61 315.95C367.15 317.81 368.83 316.16 369.78 316.92C369.87 317 370.6 315.63 371.27 316.93C371.39 317.16 372.67 316.6 373.32 316.77C376.41 317.55 379.64 318.08 382.49 319.4C388.08 321.99 393.63 324.83 397.63 329.77C398.61 330.98 399.49 331.59 401.12 331.54C405.58 331.42 410.04 331.54 414.51 331.54C422.99 331.54 431.47 331.52 439.95 331.51C440.73 331.51 441.54 331.42 442.29 331.59C447.15 332.7 452.12 332.8 457.04 332.96C461.78 333.11 466.55 332.53 471.31 332.26C472.27 332.21 473.23 332.14 474.89 332.04C472.55 330.01 470.91 328.05 468.83 326.89C464.6 324.53 460.18 322.54 455.63 320.74C449.67 318.39 443.53 317.3 437.28 316.67C433.49 316.29 429.74 315.8 425.98 315.27C423.08 314.86 420.04 313.68 416.94 315.03C415.6 315.62 414.75 314.77 414.85 313.18C415.02 310.59 415.65 308.1 417.3 305.99C419.22 303.54 421.21 301.15 423.05 298.64C424.38 296.81 425.53 294.82 426.89 292.71ZM395.36 167.89C393.79 168.86 392.44 170.16 390.88 170.5C389.4 170.82 387.84 172.21 386.17 170.95C381.93 171.04 377.59 169.19 373.45 171.55C373.24 171.67 372.94 171.62 372.68 171.62C368.82 171.59 365.25 173.15 361.51 173.69C358.87 174.07 356.65 175.29 354.28 176.24C353.22 176.67 352.19 177.27 351.29 177.98C350.9 178.28 350.6 179.21 350.79 179.59C351.01 180.01 351.8 180.22 352.38 180.34C352.7 180.41 353.09 180.04 353.46 179.98C356.24 179.54 359.02 178.98 361.83 178.79C362.89 178.72 363.97 178.9 365.1 178.79C370.01 178.34 374.95 178.02 379.83 179.35C380.81 179.62 382.08 179.14 382.89 179.6C383.75 180.09 384.04 180.2 385.16 179.94C387.02 179.51 389.17 180.16 391.16 180.56C392.17 180.76 392.29 181.94 391.47 182.56C390.76 183.1 390 183.59 389.28 184.12C387.02 185.77 384.61 186.96 381.73 187.14C379.2 187.31 376.65 187.5 374.32 188.77C373.94 188.98 373.31 188.71 372.8 188.7C372.34 188.69 371.83 188.58 371.44 188.75C370.27 189.24 369.17 189.87 368.01 190.38C365.32 191.57 363.25 193.53 361.38 195.71C360.37 196.89 361 199.86 362.37 200.05C364.04 200.28 365.79 202.55 367.51 200.1C367.61 199.95 367.99 199.99 368.25 199.96C371.2 199.66 374.15 199.41 377.09 199.07C381.31 198.58 385.53 198.05 389.73 197.47C390.86 197.32 391.95 196.81 393.07 196.73C394.63 196.61 396.21 196.64 397.76 196.76C399.28 196.88 400.83 197.06 402.29 197.48C403.73 197.9 405.77 196.45 406.61 198.8C408.45 197.81 409.49 198.98 410.48 200.25C413.5 198.72 413.82 204.49 416.95 202.64C417.06 202.87 417.17 203.11 417.3 203.33C417.63 203.88 417.97 204.42 418.32 204.95C419.14 206.2 421.04 206.2 421.73 204.85C424.41 199.56 426.82 194.15 428.22 188.36C429.28 183.99 430.01 179.52 431.39 175.25C432.7 171.19 431.61 167.33 431.29 163.39C431.25 162.92 430.6 162.33 430.1 162.11C427.41 160.9 424.69 159.78 421.97 158.65C421.76 158.56 421.4 158.48 421.29 158.58C419.45 160.29 418.12 158.8 416.62 157.95C415.63 157.39 414.51 157.01 413.42 156.64C410.39 155.61 407.38 154.59 404.16 154.13C401.31 153.72 398.56 152.66 395.66 153.81C395.34 153.94 394.94 153.99 394.6 153.93C390.12 153.11 385.71 154.23 381.3 154.61C379.88 154.73 378.63 154.21 377.25 154.46C372.71 155.31 368.15 156.02 363.59 156.77C363.01 156.86 362.83 156.98 362.86 157.69C362.89 158.33 362.34 159 362.12 159.49C360.84 159.14 359.6 158.34 358.73 158.64C355.27 159.82 352.37 161.8 351.33 165.89C355.64 166.58 359.75 165.91 363.39 164.34C368.63 162.08 373.89 163.11 379.12 163.24C383 163.34 386.77 164.78 390.69 165.11C392.49 165.26 394.34 165.58 395.36 167.89ZM235.29 337.76C233.05 331.52 230.89 325.79 228.95 319.98C227.45 315.49 226.23 310.91 224.89 306.37C224.75 305.88 224.55 305.38 224.54 304.88C224.39 299.91 222.6 295.31 221.39 290.57C221.16 289.68 220.8 289.31 220 288.99C218.88 288.54 218.63 289.33 218.31 289.98C217.6 291.44 216.1 292.3 214.88 292.08C213.35 291.81 212.59 292.43 212.05 293.38C211.41 294.5 210.75 295.09 209.4 294.97C208.83 294.92 207.86 295.12 207.69 295.5C206.37 298.32 203.34 299.05 201.31 300.98C200.09 302.14 199.02 303.57 197.59 304.37C194.98 305.82 192.83 307.91 191.09 310.09C189.52 312.05 187.65 313.6 185.96 315.36C183.42 318.01 180.65 320.45 178.13 323.12C173.78 327.74 175.09 327.15 178.39 331.2C181.34 334.82 185.12 337.79 186.43 342.55C186.49 342.76 186.63 343.12 186.72 343.12C189.11 343.08 188.88 345.37 189.85 346.58C191.39 348.51 193.29 350.22 194.48 352.34C196.81 356.53 200.81 357.31 204.88 358.08C206.16 358.32 206.67 357.45 206.17 356.06C205.64 354.61 205.01 353.21 204.4 351.79C201.59 345.27 197.31 339.59 193.8 333.46C193.26 332.52 193.49 332 193.97 331.49C194.35 331.09 195.19 330.65 195.56 330.82C197.62 331.72 199.94 332.26 201.44 334.13C203.21 336.34 205.15 338.47 206.61 340.88C208.65 344.22 212 346.06 214.74 348.58C215.7 349.46 217.19 349.76 218.55 350.37C217.47 346.71 216.43 343.33 215.49 339.92C214.98 338.07 214.85 336.09 214.15 334.33C212.54 330.3 210.92 326.25 208.23 322.74C207.51 321.81 208 321.1 209.3 320.88C212.36 320.37 215.24 321.1 216.85 323.68C219.01 327.14 221.81 329.98 224.52 332.91C227.31 335.92 230.79 337.68 235.29 337.76ZM445.28 52.99C443.95 53.32 442.27 53.27 442.85 55.33C441.37 55.69 442.22 57.3199 441.54 57.8799C440.6 58.6599 439.26 58.93 438.19 59.59C435.43 61.29 432.17 61.98 429.58 64.11C427.71 65.65 425.47 66.77 423.29 67.87C422.27 68.38 421.37 69.45 419.75 68.55C419.06 68.17 417.52 69.36 416.35 69.77C416.01 69.89 415.51 69.8699 415.2 69.7C413.32 68.7 411.77 70.16 410.56 70.85C406.83 73 403.42 75.69 399.88 78.17C403.37 78.4 406.6 77.89 409.85 77.6C415.35 77.1 420.74 76.17 426.04 74.53C432.31 72.58 438.76 71.71 445.36 72.05C446.48 72.11 447.62 71.7 448.77 71.59C451.51 71.33 453.84 69.91 456.36 69.02C461.43 67.23 463.13 65.03 463.45 59.71C463.59 57.39 464.25 55.66 466.55 54.37C468.21 53.44 469.65 52.1799 471.57 51.5699C474.01 50.7999 476.39 49.77 478.69 48.65C480.97 47.53 481.57 45.93 480.32 43.96C479.22 42.24 477.87 40.55 476.28 39.31C474.2 37.7 471.55 36.79 469.54 35.11C467.56 33.45 465.53 33.6 463.34 33.81C462.85 33.86 462.37 34.18 461.9 34.15C456.5 33.78 451.3 34.9899 446.08 36.0699C445.38 36.2099 444.43 36.66 444.19 37.22C443.27 39.42 441.2 40.63 439.92 42.53C439.16 43.65 439.64 44.4 440.09 44.78C442.69 46.96 443.63 50.1 445.28 52.99ZM294.27 37C292.5 40.51 290.94 47.4299 291.38 49.8799C292.07 53.6799 292.75 57.49 293.55 61.27C294.37 65.15 294.74 65.78 297.57 68.34C299.18 69.8 301.09 70.96 302.58 72.54C303.94 73.99 304.86 75.8299 307.29 75.7C307.52 75.6899 307.76 77.32 308.08 77.35C308.89 77.42 309.73 76.91 310.57 76.85C311.02 76.82 311.49 77.34 311.98 77.43C313.09 77.64 314.49 78.21 315.28 77.77C316.5 77.08 317.29 76.5699 318.22 77.9399C318.71 76.3499 320.09 76.89 321.17 76.74C325.13 76.2 329.1 75.72 333.05 75.14C334.33 74.95 335.23 74.46 335.81 72.93C337.36 68.89 337.44 64.9 336.62 60.73C335.67 55.93 334.98 51.09 334.07 46.28C333.62 43.92 332.93 41.62 332.33 39.23C325.88 42.25 304.83 40.91 294.27 37ZM394.32 129.56C393.24 129.87 392.22 130.02 391.32 130.45C385.81 133.06 379.8 132.4 374.01 133.17C373.88 133.19 373.74 133.21 373.62 133.16C371.25 132.23 368.75 132.69 366.33 132.38C363.98 132.08 361.45 132.13 359.52 130.19C359.02 129.69 357.99 129.62 357.18 129.56C355.89 129.46 354.58 129.53 353.45 129.53C353.45 130.58 353.45 131.55 353.45 132.52C353.45 132.92 353.31 133.42 353.49 133.69C355.84 137.15 355.84 137.14 355.64 139.83C355.62 140.08 355.83 140.36 355.94 140.62C357.59 139.93 357.52 141.12 357.71 142.17C357.82 142.78 358.03 143.63 358.47 143.89C360.2 144.9 359.82 146.56 359.99 148.06C360.1 149.02 360.16 149.99 360.24 150.92C371.08 148.68 381.93 148.7 392.95 147.85C391.17 146.31 390.35 145.02 390.7 143.53C391.8 138.94 393.06 134.4 394.32 129.56ZM355.99 124.51C355.85 123.58 355.53 122.87 355.74 122.43C356.05 121.82 356.3 120 357.59 121.83C358.14 122.61 358.81 122.09 359.19 121.62C359.83 120.84 360.13 119.66 360.9 119.14C363.28 117.52 365.6 115.51 368.9 116.61C369.25 116.73 369.98 116.48 370.19 116.17C371.22 114.6 373.31 116.03 374.34 114.61C377.97 115.09 381.6 115.64 385.24 116.02C386.67 116.17 387.24 117.46 388.5 117.95C390.05 118.55 392.14 118.49 393.07 119.47C394.49 120.96 394.9 119.94 395.57 119.17C396.87 117.7 397.06 115.87 396.79 114.04C396.22 110.16 391.47 105.57 387.59 105.04C383.61 104.5 379.62 104.21 375.58 104.18C368.2 104.14 361.3 105.42 354.99 109.52C351.75 111.63 350.31 114.95 348.41 117.99C348.11 118.48 348.28 119.26 348.24 119.91C348.18 121.1 348.7 121.86 349.85 122.27C351.8 122.93 353.72 123.67 355.99 124.51ZM397 148.26C397.94 148.38 398.69 148.37 399.38 148.59C401.45 149.25 402.93 148.71 404.33 146.96C406.07 144.77 408.17 142.87 410.1 140.83C412.79 138 413.31 133.82 411.47 130.12C409.9 126.99 406.19 125.07 402.46 125.38C401.37 125.47 400.83 125.83 400.72 126.97C400.53 128.95 400.29 130.93 399.93 132.88C399.71 134.09 399.1 135.23 398.89 136.44C398.2 140.33 397.63 144.23 397 148.26ZM300.74 25.84C301.28 27.15 301.33 27.79 301.65 27.98C304.48 29.62 305.29 29.76 308.1 29.23C305.8 28.17 303.7 27.21 300.74 25.84ZM434.12 40.3799C436.57 41.4499 437.07 39.47 437.95 38.3C436.8 38.93 435.65 39.5499 434.12 40.3799ZM364.82 36.77C365.05 36.6 365.27 36.4299 365.5 36.2599C364.97 35.1899 364.74 33.9199 362.85 32.7599C363.74 34.57 364.28 35.67 364.82 36.77ZM304.35 7.93994C304.51 8.02994 304.66 8.11996 304.82 8.20996C305 7.88996 305.24 7.59995 305.36 7.25995C305.51 6.82995 306.92 7.16999 306.05 6.17999C305.36 5.38999 304.97 6.16 304.68 6.62C304.46 6.98 304.45 7.48994 304.35 7.93994ZM296.03 14.14C295.99 13.87 295.97 13.68 295.94 13.5C295.72 13.59 295.42 13.62 295.3 13.79C295.18 13.95 295.25 14.25 295.23 14.48C295.5 14.36 295.77 14.25 296.03 14.14ZM417.46 135.98C417.55 135.98 417.65 135.98 417.74 135.98C417.74 135.42 417.74 134.87 417.74 134.31C417.65 134.31 417.55 134.31 417.46 134.31C417.46 134.87 417.46 135.43 417.46 135.98ZM293.77 17.65C293.84 17.45 293.94 17.25 293.97 17.04C293.98 16.96 293.84 16.86 293.78 16.77C293.71 16.98 293.61 17.18 293.58 17.39C293.56 17.46 293.7 17.56 293.77 17.65ZM348.76 140.55C348.51 140.5 348.3 140.46 348.09 140.42C348.08 140.57 348.04 140.73 348.07 140.87C348.08 140.91 348.31 140.96 348.39 140.92C348.53 140.84 348.63 140.69 348.76 140.55ZM415.27 151.46C415.39 151.62 415.5 151.88 415.62 151.89C415.83 151.91 416.05 151.76 416.27 151.68C416.16 151.53 416.06 151.26 415.94 151.25C415.73 151.24 415.51 151.38 415.27 151.46ZM398.78 131.22C398.69 131.46 398.58 131.67 398.54 131.89C398.53 131.97 398.67 132.07 398.75 132.17C398.85 132.02 399.03 131.87 399.04 131.71C399.05 131.56 398.88 131.4 398.78 131.22ZM224.87 233.86C224.79 233.95 224.63 234.06 224.63 234.14C224.65 234.37 224.75 234.6 224.82 234.83C224.9 234.74 225.06 234.65 225.05 234.57C225.02 234.32 224.93 234.09 224.87 233.86ZM372.48 253.33C372.4 253.13 372.33 252.93 372.25 252.73C372.17 252.78 372.04 252.83 372.03 252.89C372.01 253.09 372.04 253.3 372.05 253.5C372.2 253.45 372.34 253.39 372.48 253.33ZM441.38 263.53C441.31 263.32 441.24 263.1 441.18 262.89C441.1 262.98 440.95 263.08 440.96 263.17C440.98 263.39 441.07 263.6 441.14 263.81C441.21 263.72 441.29 263.62 441.38 263.53ZM309.45 5.79999C309.22 5.75999 309 5.68994 308.77 5.68994C308.67 5.68994 308.57 5.81995 308.47 5.88995C308.79 5.92995 309.11 5.96995 309.43 6.00995C309.43 5.93995 309.44 5.86999 309.45 5.79999ZM429.49 310.68C429.27 310.61 429.08 310.52 428.88 310.49C428.8 310.48 428.7 310.6 428.61 310.66C428.75 310.76 428.89 310.94 429.03 310.94C429.18 310.96 429.33 310.79 429.49 310.68ZM364.43 316.84C364.45 316.92 364.46 317.05 364.51 317.08C364.62 317.13 364.75 317.13 364.87 317.14C364.84 317.01 364.81 316.88 364.78 316.75C364.67 316.78 364.55 316.81 364.43 316.84ZM380.82 320.09C380.73 320.02 380.63 319.88 380.56 319.89C380.35 319.93 380.16 320.02 379.95 320.1C380.04 320.16 380.14 320.28 380.22 320.27C380.43 320.24 380.62 320.16 380.82 320.09ZM296.96 33.22C296.76 33.14 296.56 33.03 296.35 32.98C296.28 32.97 296.18 33.1199 296.09 33.1899C296.21 33.3199 296.35 33.56 296.46 33.55C296.64 33.53 296.8 33.34 296.96 33.22ZM386.14 344.29C386.08 344.55 386.03 344.78 385.98 345.01C386.15 345.02 386.33 345.05 386.5 345.02C386.54 345.01 386.6 344.76 386.55 344.67C386.45 344.52 386.29 344.42 386.14 344.29Z" fill="#1D3D6C"/>
<path d="M463.42 71.1902C463.45 70.9602 463.46 70.7202 463.47 70.4902C463.88 70.6202 464.29 70.7602 464.69 70.8902C464.27 70.9902 463.84 71.0902 463.42 71.1902Z" fill="#1D3D6C"/>
<path d="M459.99 25.5803C459.76 25.6503 459.54 25.7503 459.31 25.7903C459.25 25.8003 459.16 25.6203 459.08 25.5303C459.3 25.4603 459.52 25.3703 459.75 25.3403C459.82 25.3303 459.91 25.5003 459.99 25.5803Z" fill="#1D3D6C"/>
<path d="M347.41 110.93C347.25 109.72 347.73 108.949 348.95 108.689C348.97 109.059 348.99 109.43 349.01 109.81C348.48 110.18 347.95 110.56 347.41 110.93Z" fill="#1D3D6C"/>
<path d="M165.73 170.89C165.72 170.65 165.66 170.39 165.71 170.17C165.76 169.94 165.92 169.73 166.03 169.52C166.1 169.83 166.23 170.15 166.2 170.45C166.18 170.6 165.84 170.7 165.64 170.83L165.73 170.89Z" fill="#1D3D6C"/>
<path d="M414.82 126.24C414.83 125.69 414.84 125.13 414.85 124.58C415.55 125.14 415.77 125.7 414.82 126.24Z" fill="#1D3D6C"/>
<path d="M345.18 113.561C345.17 114.121 345.17 114.681 345.16 115.241C344.28 114.671 344.34 114.111 345.18 113.561Z" fill="#1D3D6C"/>
<path d="M224.4 210.08C224.4 209.52 224.4 208.96 224.4 208.4C225.45 208.96 225.44 209.52 224.4 210.08Z" fill="#1D3D6C"/>
<path d="M368.69 100.36C368.13 100.36 367.57 100.35 367.02 100.35C367.58 99.4596 368.14 99.0896 368.69 100.36Z" fill="#1D3D6C"/>
<path d="M316.07 71.2105C314.78 71.2105 313.48 71.2905 312.19 71.1905C310.8 71.0805 309.97 70.1706 309.89 68.6806C309.87 68.3006 310.22 67.6506 310.55 67.5406C314.76 66.1006 318.84 64.3406 322.9 62.5406C324.61 61.7806 326.24 62.6806 326.24 64.4706C326.25 67.4506 324.54 68.8206 321.58 70.3106C319.66 71.2606 317.92 71.1505 316.07 71.2105Z" fill="#1D3D6C"/>
<path d="M309.17 47.1504C311.4 49.2104 311.7 51.7104 311.39 54.3704C311.15 56.4204 310.95 58.4804 310.5 60.4804C310.37 61.0704 309.48 61.7704 308.85 61.8704C308.41 61.9404 307.71 61.1404 307.33 60.6004C305.17 57.5004 306.28 54.2504 307.18 51.1304C307.56 49.7804 306.96 47.8204 309.17 47.1504Z" fill="#1D3D6C"/>
<path d="M296.67 49.361C296.99 48.881 297.63 47.841 298.36 46.871C298.48 46.711 299.03 46.821 299.36 46.901C302.18 47.531 303.94 49.391 304.32 52.101C304.57 53.861 303.4 55.381 301.62 55.621C298.73 56.001 297.2 54.791 296.87 51.841C296.81 51.261 296.78 50.691 296.67 49.361Z" fill="#1D3D6C"/>
<path d="M324.02 50.8507C323.97 53.1507 322.96 54.6407 321.65 55.9007C321.33 56.2107 320.46 56.2307 319.98 56.0307C318 55.2007 317.42 53.2807 316.95 51.4507C316.36 49.2007 318.92 48.7707 319.67 47.2407C319.92 46.7207 322.66 47.8307 323.13 48.7007C323.55 49.4807 323.82 50.3407 324.02 50.8507Z" fill="#1D3D6C"/>
<path d="M53.49 359.231C53.29 358.991 52.9999 358.501 52.8899 358.531C51.0199 359.151 49.99 357.131 48.16 357.141C46.55 357.151 44.85 356.191 43.34 355.381C41.82 354.581 40.43 353.491 39.05 352.441C37.22 351.041 35.2299 349.751 33.7499 348.031C32.9899 347.141 32.94 345.401 33.02 344.081C33.23 340.721 33.1199 337.401 32.6099 334.081C33.8999 331.681 32.2899 329.381 32.2199 327.031C32.0899 322.621 31.5799 318.221 32.2899 313.841C32.8499 310.361 33.24 306.831 33.06 303.371C32.68 295.931 34.26 288.621 34.07 281.211C33.95 276.391 34.65 271.551 33.67 266.741C33.51 265.961 33.75 265.111 33.77 264.291C33.79 263.401 33.77 262.661 33.19 261.741C32.64 260.871 33.03 259.311 33.24 258.101C33.37 257.341 34.13 256.691 34.28 255.931C34.57 254.471 35.0599 253.481 36.5799 252.781C37.6599 252.281 38.45 251.521 39.84 251.681C40.53 251.761 41.84 251.931 42.1 250.581C44.66 249.351 47.1399 247.551 50.1399 248.131C51.6099 248.421 52.97 248.581 54.44 248.391C55.23 248.291 55.9999 248.551 56.6699 247.771C56.9699 247.431 57.75 247.391 58.3 247.431C59.89 247.541 61.4799 247.731 63.0599 247.951C64.0099 248.081 65.2599 247.601 65.66 249.111C65.7 249.251 66.25 249.361 66.54 249.321C70.69 248.721 74.0599 250.601 76.7499 253.301C78.0699 254.621 79.88 255.861 80.4 257.921C80.66 258.921 81.0999 259.921 81.1399 260.931C81.1999 262.611 81.1099 264.311 80.8899 265.971C80.6899 267.521 81.05 268.931 81.35 270.421C81.76 272.491 82.72 274.621 81.52 276.791C81.17 277.421 81.4499 277.981 82.0299 278.591C82.6099 279.201 83.0699 280.261 83.0299 281.091C82.8399 284.721 83.65 288.231 84.1 291.791C84.16 292.251 84.01 292.751 84.13 293.181C84.41 294.261 83.3999 295.171 83.9999 296.401C84.4699 297.351 84.1899 298.651 84.3099 299.781C84.8299 304.611 85.42 309.441 85.88 314.281C86.27 318.411 86.48 322.561 86.82 326.701C86.96 328.411 87.2299 330.111 87.41 331.821C87.8899 336.311 88.4799 340.801 87.9399 345.341C87.7799 346.681 87.59 347.611 85.91 347.391C85.59 347.351 85.1199 347.941 84.8099 348.311C83.3999 349.971 82.6199 352.041 80.8099 353.491C77.3399 356.261 73.2699 357.421 69.1399 358.491C66.6999 359.121 64.23 359.721 61.65 359.451C61.51 359.441 61.34 359.751 61.18 359.901C60.48 359.841 59.78 359.771 59.08 359.711C58.24 358.631 57.3299 358.291 56.2799 359.461C55.3599 359.401 54.42 359.311 53.49 359.231ZM57.6999 269.981C56.3799 269.721 54.84 270.081 53.9 268.681C53.83 268.571 53.4499 268.511 53.3599 268.591C51.4699 270.181 49.3899 269.031 47.4199 268.971C44.8899 268.891 42.37 268.551 39.84 268.321C40.33 273.051 40.31 277.801 40.05 282.581C39.88 285.721 39.84 288.901 39.95 292.021C40.1 296.521 40.3899 300.991 39.9299 305.491C39.7999 306.771 39.5299 308.101 39.7599 309.331C40.5499 313.551 40.08 317.751 39.96 321.961C39.93 323.001 39.92 324.051 40.07 325.081C40.6 328.721 41.11 332.391 40.6899 336.041C40.3799 338.791 40.83 341.371 41.53 343.911C42.3 346.691 43.6199 349.101 46.4199 350.601C49.1899 352.091 52.56 351.551 55.12 353.491C56.78 352.621 58.06 354.541 59.73 354.081C61.27 353.661 62.91 353.231 64.46 353.371C66.12 353.531 67.2999 352.521 68.77 352.291C72.59 351.681 74.3799 350.831 76.8399 349.161C79.7099 347.211 80.5599 343.951 82.2499 341.241C82.4399 340.931 82.2499 340.361 82.1999 339.921C81.7299 334.871 81.2199 329.831 80.7799 324.781C80.3899 320.231 80.03 315.671 79.73 311.121C79.44 306.671 79.3 302.201 78.99 297.751C78.58 291.771 77.82 285.801 77.71 279.821C77.64 276.021 76.52 272.481 76.21 268.811C75.04 268.801 73.9799 268.571 73.0799 268.841C70.5499 269.601 68.1 270.641 65.43 269.371C65.14 269.231 64.5999 269.601 64.1699 269.751C63.6399 269.941 62.8499 270.451 62.6399 270.281C61.0399 268.931 59.3699 270.041 57.7499 269.981C57.7999 269.671 57.85 269.371 57.9 269.061C57.77 269.071 57.65 269.081 57.52 269.081C57.57 269.391 57.6299 269.681 57.6999 269.981ZM58.38 265.611C58.82 265.571 59.17 265.561 59.51 265.521C63.86 265.031 68.21 264.591 72.54 264.041C75.48 263.661 75.4599 263.601 75.1699 260.371C75.1299 259.911 75.24 259.441 75.32 258.981C75.49 257.991 74.9 257.511 74.16 257.051C68.27 253.371 61.72 252.081 54.93 252.101C49.45 252.121 44.4599 254.441 39.3999 256.281C38.8799 256.471 38.3999 256.871 37.9699 257.241C36.9299 258.141 36.75 258.951 37.6 259.931C39.61 262.251 41.91 264.031 45.3 263.401C45.93 263.281 46.73 263.151 47.24 263.421C50.8 265.271 54.94 263.851 58.38 265.611ZM63.74 248.851C63.8 248.931 63.87 249.091 63.93 249.091C64.13 249.091 64.3299 249.021 64.5299 248.981C64.3499 248.881 64.18 248.771 63.99 248.711C63.92 248.681 63.81 248.801 63.74 248.851ZM39.41 278.341C39.37 278.151 39.34 277.951 39.3 277.761C39.24 277.841 39.12 277.921 39.12 278.001C39.12 278.191 39.17 278.371 39.2 278.561C39.27 278.491 39.34 278.421 39.41 278.341Z" fill="#1D3D6C"/>
<path d="M0.0700073 152.461C2.25001 150.791 3.15 150.681 4.76 152.441C5.29 153.021 5.87 152.911 6.26 153.191C7.37 153.991 8.62001 154.911 9.17001 156.091C11.19 160.381 14.46 163.721 17.33 167.361C18.76 169.181 20.15 171.031 21.67 173.001C20.1 173.311 19 175.011 17.73 172.961C17.26 172.191 16.05 174.451 15.11 172.991C11.71 172.761 9.82 170.681 8.36 167.821C5.93 163.081 3.32 158.431 0.760002 153.751C0.620002 153.491 0.26 153.351 0 153.151C0.03 152.931 0.0500073 152.701 0.0700073 152.461Z" fill="#1D3D6C"/>
<path d="M54.0501 240.749C52.2401 240.609 50.5301 239.539 48.6801 240.129C46.7201 238.479 43.7601 237.959 42.6701 235.389C41.9801 233.769 40.7901 232.539 40.0701 230.989C39.8301 230.469 39.3201 230.009 39.2401 229.479C38.6301 225.769 36.9901 222.279 37.0201 218.409C37.0601 212.419 37.1701 206.489 39.9801 200.969C40.5501 199.849 40.8801 198.599 41.2001 197.379C42.1701 193.679 44.4901 191.069 47.7201 189.179C49.9401 187.879 52.1401 186.559 54.4001 185.339C56.1501 184.389 56.1101 184.539 57.9101 185.949C60.9301 188.309 62.2001 191.759 63.5901 195.069C65.6701 200.029 67.4101 205.129 69.3801 210.129C70.2601 212.359 71.4201 214.469 72.3101 216.689C72.91 218.169 73.2501 219.759 73.7101 221.299C73.9201 222.009 74.1001 222.659 72.9601 222.629C72.8901 222.629 72.6601 223.339 72.7601 223.639C72.9601 224.259 73.7001 224.939 73.5601 225.389C73.0101 227.169 72.1601 228.769 71.8801 230.729C71.6401 232.409 70.4701 234.529 69.0701 235.329C67.0701 236.469 65.7301 238.569 63.0101 238.899C61.1001 239.129 59.2801 240.509 57.1301 240.509C56.1101 240.499 55.0801 240.659 54.0501 240.749ZM54.9701 190.939C53.9701 192.299 53.0401 193.619 52.0701 194.889C50.7501 196.619 49.3201 198.269 48.0801 200.049C45.5701 203.669 44.0701 207.779 42.8401 211.959C42.1901 214.169 41.6001 216.519 41.6601 218.789C41.7501 222.249 42.3701 225.739 45.0101 228.359C46.8101 230.139 48.5601 232.129 50.7001 233.379C52.3801 234.359 54.4801 235.629 56.5501 234.949C60.1501 233.779 64.0001 232.889 65.9401 228.909C66.4301 227.909 66.7101 227.229 66.5201 226.079C66.3001 224.649 66.2101 222.849 66.9001 221.719C67.9601 219.989 67.3501 218.699 66.7701 217.249C66.4701 216.499 66.0001 215.819 65.6601 215.089C63.4501 210.269 60.1301 205.969 59.1501 200.559C58.8101 198.699 57.4901 196.989 57.3001 195.139C57.1101 193.179 56.2001 192.009 54.9701 190.939Z" fill="#1D3D6C"/>
<path d="M94.87 131.76C97.69 134.15 98.22 136.54 97.37 139.48C96.57 142.26 95.92 145.06 94.47 147.61C93.28 149.68 92.1 151.76 90.99 153.88C89.72 156.32 88.59 158.82 87.31 161.25C86.49 162.8 85.62 164.35 84.56 165.74C84.06 166.4 83.05 166.64 82.3 167.13C81.57 167.6 81.09 167.11 80.98 166.61C80.31 163.54 79.83 160.48 81.61 157.53C83.75 153.99 85.83 150.41 87.86 146.79C88.58 145.5 89.04 144.06 89.67 142.71C91.31 139.2 93 135.69 94.87 131.76Z" fill="#1D3D6C"/>
<path d="M56.5301 132.939C59.5001 136.459 61.1301 140.49 61.5101 145.12C61.8301 149 62.4201 152.859 62.9801 156.719C63.1201 157.669 62.6801 157.839 62.0101 158.199C61.2901 158.589 60.6301 158.799 60.2501 158.029C59.3501 156.239 57.3901 155.419 56.4301 153.789C55.3401 151.929 54.5401 149.88 53.7301 147.87C53.4901 147.27 53.47 146.449 53.67 145.829C54.51 143.129 54.6901 140.45 54.4101 137.62C54.1501 134.98 54.5501 134.579 56.5301 132.939Z" fill="#1D3D6C"/>
<path d="M24.86 129.66C26.62 131.36 28.07 132.67 29.39 134.1C29.63 134.36 29.24 135.12 29.36 135.6C29.41 135.83 30.22 135.89 30.26 136.1C30.7 138.45 31.25 140.81 31.35 143.18C31.4 144.31 33.54 143.57 32.56 144.76C31.84 145.64 32.36 146.32 32.5 146.96C32.74 148.07 33.33 149.1 33.77 150.16C35.59 150 34.5 151.65 35.06 152.36C35.72 153.2 35.64 154.58 36.15 155.59C36.6 156.5 37.5 157.19 38.03 158.08C38.28 158.49 38.36 159.47 38.15 159.61C37.57 159.99 36.29 160.38 36.16 160.18C35.23 158.81 33.25 160.2 32.41 158.53C31.72 157.15 30.56 156.01 29.71 154.69C29.5 154.37 29.67 153.79 29.72 153.34C29.89 151.54 28.46 149.88 29.25 148.01C29.32 147.85 29.21 147.46 29.07 147.38C26.84 146.09 27.63 143.42 26.45 141.71C25.65 140.54 27.28 139.23 26.29 138.62C24.81 137.71 25.93 136.26 25.14 135.2C24.51 134.35 24.44 133.03 24.28 131.9C24.21 131.4 24.54 130.84 24.86 129.66Z" fill="#1D3D6C"/>
<path d="M54.9401 209.961C54.0501 212.521 55.2701 214.361 56.7201 216.281C58.3601 218.451 59.9001 220.711 60.2601 223.621C60.3601 224.401 61.8501 225.141 60.9001 226.191C59.7101 227.501 59.0401 229.261 56.8601 229.741C55.4801 230.051 53.9501 229.171 52.7401 230.321C51.7501 229.401 50.3601 228.661 49.8501 227.521C48.1301 223.651 47.4201 219.621 49.3701 215.541C49.7101 214.821 50.0201 214.081 50.3201 213.351C51.5801 210.351 51.5801 210.351 54.9401 209.961Z" fill="#1D3D6C"/>
</svg>
