<svg width="573" height="445" viewBox="0 0 573 445" fill="none" xmlns="http://www.w3.org/2000/svg">
<path d="M53.7875 444.34C53.7775 443.31 52.9874 443.61 52.4474 443.6C45.6374 443.48 39.2974 441.61 33.3374 438.41C32.1074 437.75 30.6375 437.81 29.4775 436.9C28.1975 435.9 26.7575 435.09 25.3775 434.21C24.0075 433.33 22.4974 432.6 21.2774 431.54C17.8674 428.59 14.2275 425.84 11.3775 422.34C8.85748 419.25 5.87746 416.54 4.35746 412.58C3.27746 409.76 2.26746 406.93 1.66746 404.02C1.21746 401.84 0.317483 399.76 0.127483 397.57C-0.0725166 395.35 0.237466 393.08 0.0474663 390.86C-0.252534 387.3 0.927439 384.12 1.95744 380.82C3.11744 377.07 4.71749 373.5 6.06749 369.83C6.22749 369.4 6.55744 369.04 6.76744 368.63C7.53744 367.08 8.31745 365.54 9.02745 363.97C9.38745 363.17 12.9075 356.7 13.3575 356.06C14.3575 354.62 15.2475 353.1 16.2875 351.68C17.3475 350.23 18.8075 349.17 19.7975 347.55C21.1775 345.31 23.2075 343.47 24.9775 341.47C25.4675 340.91 26.1274 340.47 26.5174 339.86C26.7574 339.48 26.4474 338.72 26.7174 338.41C27.1474 337.9 28.2075 337.74 28.3775 337.23C28.9475 335.48 31.1474 335.39 31.7074 333.43C32.1274 331.97 33.9075 331.03 34.8175 329.53C35.7575 327.98 37.2674 326.72 38.7074 325.55C41.5274 323.26 44.2675 320.78 47.7475 319.48C51.2175 318.18 54.3675 316.24 57.7275 314.75C62.9775 312.41 68.3274 310.32 73.5174 307.86C76.6774 308.03 79.0674 305.25 82.2674 305.56C83.9074 304.08 86.1574 304.14 88.0774 303.39C90.7574 302.34 93.6974 302.04 96.4574 301.11C98.1074 300.56 99.9575 300.55 101.547 299.88C103.247 299.16 105.237 300.33 106.707 298.84C109.637 299.17 112.387 297.81 115.357 298.04C119.107 298.32 122.897 296.47 126.577 297.46C129.637 298.28 132.617 297.87 135.617 298.1C136.777 297.07 138.237 297.93 139.577 297.46C140.907 296.99 142.527 297.33 144.017 297.36C145.557 297.39 147.187 296.99 148.557 298.1C149.887 297.42 151.167 297.79 152.557 298.04C154.297 298.35 156.177 297.81 157.827 298.85C161.877 298.26 165.797 299.88 169.947 299.57C169.777 298.85 169.597 298.15 169.447 297.44C169.147 296.06 169.877 294.64 168.797 293.2C168.107 292.28 168.657 290.77 168.127 289.41C167.607 288.08 167.747 286.2 168.397 284.45C169.197 282.29 169.217 279.83 169.577 277.5C168.087 277.11 166.857 276.78 165.617 276.47C164.347 276.16 163.057 276.79 161.687 276C160.967 275.59 159.527 276.28 158.467 276.63C156.187 277.39 152.167 279.96 150.467 281.62C149.487 282.58 148.577 283.6 147.547 284.5C146.847 285.12 146.017 286 145.227 286.02C142.767 286.09 140.877 287.62 138.637 288.18C137.707 288.41 136.627 288.59 135.757 288.32C134.837 288.04 134.317 289.55 133.287 288.53C132.487 287.74 131.227 290.29 130.257 288.4C129.017 288.4 127.767 288.4 126.527 288.39C125.407 288.39 124.287 288.39 123.167 288.39C121.927 288.39 120.677 288.39 119.437 288.39C118.197 288.39 116.927 288.23 115.707 288.42C112.467 288.92 109.627 287.7 106.777 286.53C104.847 285.74 102.817 285.21 100.887 284.53C97.6574 283.4 94.3875 282.18 91.4675 280.25C90.0375 279.3 88.3674 278.73 86.8374 277.93C84.5874 276.76 82.1175 276.08 79.9675 274.7C79.4975 274.4 78.8475 274.18 78.3175 274.24C76.4275 274.45 74.3775 273.47 72.6575 274.95C71.6475 274.39 70.5674 273.92 69.6474 273.24C68.6774 272.53 68.7674 272.46 69.8274 271.19C70.1074 270.85 70.1975 270.35 70.3675 269.93C70.7175 269.08 70.9474 268.15 71.4574 267.41C72.0174 266.6 72.9274 266.05 73.5174 265.26C75.7374 262.3 78.8275 260.63 81.9975 258.88C83.9575 257.79 86.0574 257.75 88.0174 257.24C89.9274 256.74 92.3874 256.25 94.3974 257.75C98.4474 257.45 101.707 259.97 105.437 260.83C106.297 261.03 107.157 261.63 107.807 262.26C108.917 263.35 110.437 263.5 111.687 263.66C113.927 263.94 116.107 264.26 118.207 265.12C118.637 265.29 119.277 265.43 119.617 265.23C122.567 263.53 126.057 263.52 129.127 262.05C132.137 260.61 135.537 260.09 138.777 259.23C142.167 258.33 145.547 258.72 148.927 258.52C150.197 258.44 151.447 257.96 152.727 257.83C153.957 257.71 155.207 257.83 156.457 257.8C160.097 257.72 163.437 258.54 166.427 260.77C168.787 262.53 171.277 264.12 173.767 265.82C175.787 263.39 178.407 261.2 180.537 258.47C182.307 256.2 185.067 254.7 187.427 252.91C187.767 252.65 188.317 252.66 188.777 252.59C191.897 252.13 194.907 251.01 198.007 250.61C201.207 250.2 204.547 249.66 207.737 250.97C209.967 250.48 211.347 252.45 213.297 252.89C215.167 253.32 216.827 254.6 218.697 255.11C220.037 255.48 220.137 256.94 221.467 257.33C222.777 257.72 223.897 258.79 225.427 258.54C226.227 258.41 226.727 258.92 227.377 259.25C230.207 260.69 233.077 261.97 234.627 265.08C235.307 266.44 237.187 267 237.487 268.75C240.217 271.14 239.757 275.05 241.767 277.81C242.097 278.26 241.987 279.44 241.617 279.9C241.027 280.61 241.327 280.86 241.797 281.27C242.497 281.88 243.107 282.52 242.027 283.33C241.977 286.91 239.367 290.19 240.407 293.8C241.527 297.69 240.827 301.57 241.067 305.45C241.127 306.41 241.287 307.62 240.807 308.29C240.247 309.07 241.317 309.8 240.417 310.57C239.877 311.03 240.707 312.41 239.797 313.27C239.497 313.55 239.587 314.45 239.777 314.95C239.867 315.18 240.887 314.99 241.057 315.26C241.747 316.35 242.757 315.12 243.647 315.77C244.307 316.25 245.657 316.24 246.487 315.91C247.647 315.46 248.397 317.03 249.707 316.11C250.537 315.53 251.757 316.94 253.057 316.78C254.187 316.64 255.537 316.28 256.467 317.47C258.617 317.19 260.837 318.05 262.967 316.95C263.377 316.74 264.347 317.63 264.767 317.42C267.437 316.09 270.677 317.33 273.227 315.28C275.637 313.35 278.787 313.01 281.667 312.32C286.677 311.11 291.477 309.64 295.717 306.56C296.897 305.71 298.457 305.39 299.817 304.79C303.497 303.16 307.527 302.37 310.807 299.73C312.297 298.54 314.237 297.81 315.947 296.87C319.027 295.19 321.897 293.18 324.757 291.24C327.387 289.46 330.377 288.04 332.487 285.45C333.637 284.03 334.367 282.12 336.357 281.51C336.927 279.48 338.918 278.62 340.038 277.06C342.288 273.91 344.677 270.81 346.547 267.44C347.487 265.75 347.977 263.69 349.307 262.29C350.977 260.53 351.307 257.96 353.227 256.41C353.477 256.21 353.697 255.82 353.717 255.51C353.847 253.21 355.477 251.66 356.747 250.07C358.087 248.39 358.857 246.71 358.987 244.62C359.027 243.95 359.548 243.29 359.538 242.63C359.508 240.66 361.427 239.34 361.207 237.34C360.997 235.5 362.057 233.95 362.408 232.26C362.788 230.43 363.177 228.55 363.557 226.73C364.317 223.06 364.667 219.31 365.677 215.7C366.877 211.39 369.247 207.99 373.247 205.86C374.487 205.2 374.877 205.43 376.137 206.97C375.807 205.31 375.557 203.62 375.117 201.98C374.537 199.87 373.237 197.78 373.307 195.72C373.367 193.88 371.687 193.32 371.617 191.86C371.617 191.81 371.117 191.68 370.927 191.76C368.497 192.8 366.327 191.79 364.107 190.97C363.137 190.61 362.397 189.7 361.187 189.85C360.837 189.89 360.217 189.45 360.067 189.09C359.267 187.18 357.647 185.78 357.267 183.5C356.917 181.43 355.307 179.61 354.538 177.58C353.728 175.42 352.937 173.27 351.877 171.22C351.617 170.72 351.557 170.09 351.517 169.51C351.417 168.09 351.777 166.62 350.797 165.32C350.557 165 350.567 164.06 350.797 163.9C352.217 162.95 350.297 161.81 351.197 160.51C352.317 158.9 352.797 156.61 352.917 154.58C353.107 151.48 355.347 150.01 357.167 148.14C357.377 147.92 357.877 148.01 358.137 147.81C358.877 147.26 359.747 146.01 360.227 146.16C362.587 146.88 365.307 146.71 367.187 148.76C368.797 150.51 370.377 150.87 372.417 149.96C373.597 149.43 374.687 148.87 376.067 148.79C376.997 148.73 378.057 148.02 378.757 147.3C380.067 145.96 381.647 144.92 382.847 143.48C383.977 142.13 385.158 140.84 385.897 139.15C386.507 137.78 387.587 136.6 388.517 135.39C389.967 133.49 391.157 131.54 391.107 128.98C391.077 127.6 391.617 126.21 391.788 124.81C391.958 123.4 392.007 122.04 392.427 120.61C393.127 118.24 393.267 115.63 393.237 113.12C393.207 110.27 394.087 107.66 395.627 105.54C397.117 103.49 398.797 101.43 401.397 100.32C405.207 98.6801 409.177 97.4902 413.027 95.9902C413.517 95.8002 414.207 95.9901 414.767 96.1301C417.577 96.8601 420.097 98.3001 422.607 99.6901C423.337 100.09 423.607 101.61 424.277 101.77C425.408 102.04 425.817 102.91 426.577 103.47C430.717 106.5 432.147 111.26 434.197 115.6C434.437 116.11 434.377 116.81 434.307 117.41C433.967 120.16 435.127 123.04 433.577 125.68C434.337 126.72 433.857 127.68 433.697 128.81C433.427 130.7 433.157 132.43 432.367 134.26C431.707 135.79 431.407 137.55 430.637 139.14C429.947 140.55 429.188 141.84 428.027 142.91C427.327 143.56 426.447 144.27 426.197 145.12C425.517 147.39 423.548 148.61 421.908 149.49C418.888 151.11 416.197 153.52 412.647 154.11C410.117 156.44 406.388 156.82 404.038 159.43C400.988 160.13 399.348 163.36 396.158 163.81C394.617 165.51 392.367 166.21 390.677 167.65C389.397 168.74 388.137 169.75 386.667 170.59C385.737 171.12 385.117 172.22 384.417 173.11C383.917 173.75 383.677 174.67 383.057 175.13C380.597 176.99 380.077 179.67 379.937 182.42C379.867 183.94 379.507 185.3 378.557 186.32C377.247 187.73 377.448 189.16 378.027 190.65C379.107 193.44 379.527 196.47 381.177 199.04C381.237 199.14 381.387 199.25 381.367 199.33C380.547 202.46 382.677 205.08 382.937 208.03C383.027 209.1 384.017 210.07 384.307 211.17C384.787 212.98 385.037 214.85 385.437 216.94C387.937 215.59 390.537 214.69 393.267 214.24C397.247 213.58 401.177 212.29 405.307 213.41C405.947 213.58 406.747 213.03 407.457 213.09C408.237 213.16 409.007 213.77 409.757 213.74C410.797 213.69 411.657 214.13 411.867 214.88C412.447 216.9 414.067 217.56 415.677 218.26C418.807 219.61 421.537 221.38 423.167 224.5C425.447 225.39 425.347 228.19 427.197 229.54C427.957 230.1 428.077 231.61 428.377 232.72C428.927 234.74 429.427 236.77 429.887 238.81C430.157 240.01 432.307 240.78 430.747 242.41C431.737 243.53 431.337 244.89 431.367 246.16C431.407 247.9 431.557 249.67 431.307 251.37C431.157 252.42 432.967 252.92 431.717 254.31C431.077 255.02 431.427 256.64 431.387 257.85C431.347 258.97 431.567 260.13 431.337 261.2C430.837 263.58 430.107 265.91 429.517 268.27C428.777 271.19 427.577 273.92 426.487 276.71C425.497 279.25 424.417 281.89 424.007 284.61C423.767 286.22 422.767 287.34 422.317 288.79C421.637 290.98 421.427 290.9 422.817 292.15C423.747 292.99 424.467 293.53 426.047 293.05C427.197 292.7 428.877 293.77 430.187 294.45C430.527 294.63 430.727 295.95 430.437 296.32C429.857 297.06 429.317 298.46 427.867 297.52C425.017 298.93 425.027 298.9 421.267 298.13C420.547 297.98 419.777 298.14 419.038 298.1C417.978 298.05 417.377 298.7 417.247 299.55C416.937 301.56 415.287 302.98 414.977 304.96C414.677 306.87 413.027 308.08 412.477 309.89C411.487 313.09 409.267 315.75 408.267 318.96C408.197 319.18 408.167 319.5 408.017 319.59C405.967 320.82 405.907 323.21 404.917 325.04C403.987 326.75 402.177 328.05 402.297 330.29C401.067 330.86 401.047 332.27 400.357 333.13C397.767 336.36 396.477 340.47 393.337 343.3C393.117 344.93 390.957 344.82 390.587 346.6C390.307 347.97 389.547 349.41 388.357 350.53C387.237 351.58 386.387 352.93 385.427 354.14C384.457 355.36 383.377 356.5 382.557 357.81C381.557 359.42 380.127 360.79 379.317 362.38C378.687 363.63 376.777 363.19 376.837 365.04C376.887 366.45 375.597 367.25 374.217 367.58C374.337 369.63 372.627 370.75 371.597 372.05C370.497 373.44 369.207 374.66 368.457 376.32C366.217 376.18 366.817 379.57 364.587 379.44C364.247 381.2 362.747 381.69 361.417 382.43C360.307 383.05 359.527 384.09 358.337 384.72C356.577 385.65 355.047 387.05 353.487 388.32C350.427 390.82 347.347 393.29 344.327 395.85C341.297 398.42 338.307 401.08 335.147 403.43C332.077 405.72 328.857 407.92 325.597 410C323.037 411.63 320.417 413.17 317.957 414.93C316.777 415.77 315.737 416.69 314.207 416.71C311.917 419.48 307.917 419.04 305.387 421.41C305.007 421.76 304.317 421.81 303.747 421.92C303.047 422.06 302.147 421.89 301.667 422.27C300.147 423.5 300.317 422 299.797 421.35C299.087 420.43 298.897 420.1 300.267 419.61C301.217 419.27 301.917 418.19 302.707 417.41C305.197 414.94 310.437 411.41 314.597 409.2C315.837 408.54 316.747 407.15 318.027 406.66C321.297 405.4 323.607 402.74 326.577 401.15C328.177 400.29 329.347 398.98 330.837 398.02C332.087 397.22 333.687 396.39 334.387 394.8C337.417 393.37 338.937 390.05 342.297 388.84C344.207 388.15 345.747 386.25 347.288 384.72C348.828 383.18 350.628 382.05 352.408 380.85C354.188 379.65 355.827 378.23 357.457 376.82C358.997 375.47 360.517 374.1 362.097 372.79C364.097 371.13 365.527 368.79 367.227 366.77C369.447 364.12 370.907 360.91 373.497 358.53C374.257 357.83 374.907 356.9 375.337 355.95C376.217 354.03 378.177 353.09 379.217 351.29C380.267 349.45 381.847 347.92 382.947 346.11C386.167 340.79 390.797 336.42 393.347 330.65C398.387 324.58 400.457 316.89 404.507 310.27C405.767 308.21 407.048 306.06 407.908 303.86C408.918 301.28 410.297 298.88 411.507 296.09C408.837 295.22 406.367 293.91 403.827 293.76C401.667 293.63 400.227 292.11 398.117 292C396.237 291.9 394.437 290.76 392.557 290.23C389.997 289.51 387.457 288.56 385.127 287.47C382.857 286.4 380.408 285.6 378.267 284.18C376.257 282.85 373.707 282.21 371.947 280.64C368.637 277.68 364.688 275.61 361.408 272.6C358.997 270.39 356.037 268.78 353.387 266.95C351.087 270.64 348.697 274.5 346.297 278.35C344.587 279.1 343.957 280.71 343.177 282.22C341.057 282.27 341.077 284.89 339.337 285.4C337.837 288.79 334.097 289.9 331.927 292.65C331.147 293.64 329.997 294.51 328.827 295.01C326.277 296.09 324.378 298.07 322.158 299.59C319.358 301.51 316.707 303.61 313.617 305.11C310.817 306.47 308.147 308.1 305.377 309.55C304.257 310.14 303.107 310.59 301.807 310.9C300.077 311.31 298.457 312.47 296.977 313.57C295.797 314.44 294.577 314.89 293.227 315.37C291.887 315.85 290.057 315.83 289.257 317.48C286.717 317.85 284.697 319.83 281.977 319.77C280.967 319.75 279.857 320.05 278.957 320.52C278.187 320.92 277.337 320.98 276.677 321.31C275.887 321.71 275.067 322.29 274.357 321.9C273.467 321.41 273.097 323.45 272.207 322.18C272.137 322.08 271.267 322.5 270.777 322.72C270.227 322.96 269.747 323.82 269.097 322.78C268.987 322.61 268.317 322.59 268.047 322.74C265.507 324.15 262.777 323.29 260.137 323.43C257.407 323.57 254.537 323.98 251.967 323.34C248.427 322.45 244.697 323.01 241.247 321.33C239.527 320.49 237.257 320.84 235.267 320.46C231.597 319.76 227.757 319.49 224.327 318.06C222.627 317.35 220.827 318 219.217 316.84C217.907 315.9 216.027 316.14 214.367 315.94C211.837 315.64 209.247 315.13 206.927 314.14C205.457 313.51 203.667 314.57 202.537 313.03C200.157 312.78 197.777 312.36 195.387 312.32C191.907 312.26 188.637 311.19 185.297 310.5C182.457 309.91 179.717 308.85 176.787 308.53C175.507 308.39 174.147 308.28 173.017 307.75C171.377 306.97 170.017 306.62 168.327 307.7C167.807 308.03 166.617 307.13 165.717 307.09C163.357 306.99 160.987 307.15 158.637 307.03C156.367 306.91 154.127 306.46 151.857 306.34C149.627 306.22 147.227 306.81 145.187 306.17C143.087 305.51 141.357 306.6 139.417 306.36C137.337 306.11 134.887 305.65 133.157 306.46C130.717 307.6 127.997 305.95 125.867 307.78C123.757 305.74 121.287 307.65 118.937 307.17C114.397 306.24 109.887 307.57 105.517 308.84C104.687 309.08 103.907 309.16 103.107 309.29C102.377 309.41 101.407 309.95 100.977 309.66C99.9775 308.99 99.6275 310.15 98.8075 310.15C97.2275 310.15 95.5475 310.6 94.1075 311.28C92.5275 312.02 90.8674 311.02 89.1974 312.13C88.0774 312.88 86.0574 312.27 84.4474 312.28C82.7774 312.29 81.1775 312.53 79.5075 312.93C75.8775 313.8 72.8474 316.18 69.1374 316.76C67.0174 318.99 63.9774 319.3 61.3874 320.56C60.1874 321.14 59.1575 322.16 57.9775 322.91C56.8375 323.63 54.7475 323.32 54.5575 325.37C52.4175 326.34 50.4775 327.61 48.6075 329.03C46.4775 330.64 43.6175 331.37 42.6575 334.29C41.0275 334.52 39.9975 335.72 38.7275 336.56C37.7275 337.22 37.2675 338.5 35.9875 338.73C36.1875 340.14 34.3275 339.93 34.0675 341.25C33.8875 342.16 32.5375 342.8 31.8175 343.66C28.9475 347.06 26.1875 350.56 23.2375 353.89C21.5775 355.76 20.4575 358.03 18.6775 359.79C18.3675 360.1 18.3174 360.65 18.0274 361C17.0674 362.19 17.0574 363.8 15.8874 365.02C14.9474 366 15.1374 368.04 14.2174 369.09C13.0774 370.4 13.0874 372.2 11.8274 373.38C11.1674 374 12.0575 375.08 11.3575 375.92C10.7075 376.7 10.2275 377.68 9.85746 378.64C9.48746 379.61 9.34743 380.67 9.07743 381.68C8.92743 382.24 8.74746 382.78 8.53746 383.32C7.11746 387.06 6.43746 390.92 6.85746 394.92C6.96746 395.95 7.21746 397 7.60746 397.96C8.50746 400.17 8.34746 402.57 8.91746 404.85C9.34746 406.59 10.0875 408.13 10.7275 409.72C11.1575 410.78 12.1074 411.61 12.0874 412.9C12.0874 413.21 12.2875 413.66 12.5375 413.81C15.1175 415.31 16.0774 418.55 18.9574 419.76C19.3674 419.93 19.4374 420.78 19.8374 421.11C22.3274 423.17 24.8574 425.17 27.3974 427.16C27.6474 427.36 28.1575 427.26 28.3775 427.47C32.4575 431.46 37.8474 432.75 42.9574 434.62C43.9374 434.98 45.0175 435.05 45.9875 435.4C47.0575 435.8 48.1874 436.92 49.0774 436.73C50.2274 436.49 51.1974 436.79 52.2174 436.9C54.6074 437.14 57.1174 436.15 59.3974 437.56C61.6574 436.12 64.1475 437.08 66.5275 436.9C68.8774 436.72 71.2475 436.86 73.6075 436.86C74.5175 436.86 75.4375 435.85 76.3475 436.86C77.1475 435.49 78.3075 436.76 79.2875 436.47C80.3075 436.17 81.4275 436.18 82.5075 436.13C83.6275 436.08 84.8275 436.39 85.8475 436.07C88.7075 435.18 91.7075 435.87 94.4775 435.24C97.0275 434.66 99.6775 435.28 101.967 434.46C104.437 433.58 106.817 434.29 109.177 433.87C111.817 433.39 114.497 432.96 117.057 432.17C119.617 431.38 122.227 430.84 124.807 430.19C126.417 429.78 126.197 429.89 126.297 427.89C126.387 426.24 125.737 424.83 125.397 423.36C124.647 420.12 124.477 417.77 125.347 414.22C125.517 413.52 125.417 412.76 125.467 412.03C125.687 409.02 124.897 405.94 126.187 403C126.367 402.58 126.107 401.98 126.237 401.53C126.477 400.72 125.067 400.14 126.127 399.07C126.627 398.57 126.117 397.15 126.247 396.17C126.347 395.38 126.817 394.65 126.937 393.86C127.077 392.89 126.647 391.61 127.127 390.98C127.857 390.03 127.287 388.9 127.767 388.25C129.057 386.51 129.117 384.53 129.437 382.57C129.467 382.37 129.767 382.22 129.947 382.04C126.717 380.88 123.357 380.86 119.977 380.87C118.467 380.88 116.947 380.41 115.437 380.17C114.017 379.94 112.557 380.59 111.137 379.71C110.537 379.34 109.757 380.74 108.747 379.65C108.277 379.14 106.887 379.45 105.907 379.42C104.917 379.39 103.917 379.41 102.927 379.41C100.567 379.41 97.9675 380.02 95.9075 379.24C93.8375 378.45 91.5175 379.5 89.7475 377.92C87.3975 378.45 85.2475 377.21 82.9675 377.17C81.4174 377.14 79.9174 377.24 78.3874 376.5C77.1774 375.91 75.4775 376.97 74.2275 375.71C74.0475 375.52 73.5074 375.65 73.1374 375.69C71.0674 375.91 69.1475 375.31 67.2575 374.58C68.9875 371.41 71.6974 370.39 75.3974 371.51C75.8374 371.64 76.2774 371.96 76.6974 371.94C81.5974 371.67 86.3875 373.11 91.3175 372.79C93.6475 372.64 96.0775 373.14 98.3675 373.73C99.0975 373.92 99.2575 373.75 99.7375 373.53C99.9775 373.42 100.487 374.15 100.887 374.18C106.047 374.47 111.207 374.69 116.367 374.97C117.527 375.03 118.857 374.47 119.807 375.65C120.977 374.37 122.057 375.29 123.287 375.63C124.447 375.95 125.757 375.7 126.997 375.7C128.487 375.7 129.997 375.81 131.467 375.66C132.587 375.55 134.287 376.57 134.587 374.38C134.847 374.53 135.107 374.7 135.377 374.81C136.687 375.37 137.977 375.8 139.487 375.73C142.837 375.59 146.197 375.76 149.557 375.66C151.457 375.6 153.307 375.72 155.267 375.11C156.897 374.6 158.957 374.63 160.947 375.54C162.207 376.11 164.397 375.62 165.727 374.85C167.617 373.75 169.297 374.46 171.007 374.72C172.397 374.93 173.387 374.97 174.627 374.01C176.117 372.86 177.567 371.6 179.117 370.59C180.237 369.86 180.027 368.77 179.767 368.61C177.477 367.15 179.057 364.4 177.657 362.72C178.467 361.71 176.497 360.96 177.417 359.88C178.367 358.76 176.817 357.85 176.977 356.95C177.357 354.83 178.717 353.38 180.797 352.57C183.367 351.56 185.997 351.21 188.747 350.94C191.127 350.71 193.517 350.51 195.907 350.3C197.597 350.15 198.317 351.28 199.227 352.21C199.367 352.35 199.157 353.14 199.057 353.15C196.777 353.41 198.957 354.62 198.597 355.26C200.457 355.42 200.237 356.89 199.977 357.94C199.607 359.41 201.157 360.78 200.037 362.19C201.037 363.58 200.377 365.32 200.897 366.69C201.357 367.9 202.597 369.16 203.807 369.66C205.517 370.37 207.097 371.31 208.797 372.02C209.437 372.29 210.227 372.66 210.497 373.21C211.087 374.43 212.147 375.03 213.137 375.79C213.827 376.32 214.277 376.92 214.297 377.95C214.307 378.48 215.497 378.92 215.657 379.52C216.247 381.88 218.417 383.72 217.947 386.41C219.947 388.58 220.077 391.5 221.117 394.05C221.517 395.02 221.647 395.87 221.657 396.8C221.697 400.65 221.937 404.53 221.577 408.35C221.327 411.01 221.337 413.78 220.257 416.36C219.987 416.99 220.187 417.82 220.167 418.56C220.117 420.58 220.057 422.45 219.037 424.45C218.087 426.31 218.467 428.82 217.187 430.76C217.127 430.85 217.127 431.06 217.187 431.12C219.377 433.29 216.837 434.66 216.047 435.99C215.067 437.67 213.457 439.06 211.107 439.21C209.477 439.31 207.907 439.93 206.197 439.97C204.607 440.01 203.037 440.69 201.457 441.06C199.867 441.43 198.257 441.71 196.677 442.14C192.717 443.21 188.717 443.81 184.607 443.65C184.277 443.64 183.937 444.11 183.597 444.36C183.347 444.36 183.097 444.36 182.847 444.36C182.647 444.11 182.467 443.66 182.257 443.65C181.147 443.58 180.027 443.62 178.907 443.62C175.677 443.62 172.447 443.65 169.217 443.61C167.837 443.59 167.157 442.84 167.267 441.68C167.397 440.2 167.407 440.08 166.347 439.16C165.527 438.45 164.637 437.2 165.047 436.62C166.087 435.15 165.257 433.31 166.517 431.86C164.377 431.98 162.497 431.71 160.407 432.26C158.267 432.83 155.997 434.28 153.557 433.18C152.037 434.6 149.867 433.51 148.167 434.6C147.467 435.05 146.217 434.74 145.237 434.65C144.317 434.57 143.557 435.64 142.427 434.77C141.987 434.43 140.727 435.33 139.827 435.39C138.107 435.5 136.377 435.42 134.707 435.42C134.387 436.03 134.057 436.51 133.877 437.05C133.467 438.26 133.177 438.96 131.757 437.75C130.317 436.53 128.117 436.39 126.577 437.02C122.747 438.58 118.667 438.16 114.767 439.08C112.437 439.63 109.847 439.1 107.517 439.63C105.187 440.16 102.657 439.18 100.497 440.64C96.9375 440.05 93.6974 441.71 90.3374 442.29C86.0574 443.04 81.8475 443.74 77.5075 443.63C75.6475 443.58 73.7775 443.59 71.9175 443.66C71.5875 443.67 71.2774 444.12 70.9574 444.37C65.2274 444.34 59.5075 444.34 53.7875 444.34ZM355.957 262.18C357.737 263.24 359.318 264.71 361.158 265.19C365.908 266.42 368.927 270.33 373.107 272.37C373.307 274.4 375.157 274.33 376.447 274.97C376.757 275.12 377.237 275.03 377.437 275.24C379.447 277.34 382.477 277.57 384.727 279.35C385.987 280.35 388.007 280.35 389.617 280.96C393.277 282.33 396.867 283.87 400.477 285.34C402.267 286.07 404.167 286.6 406.007 287.28C408.387 288.16 410.947 288.59 413.447 289.13C414.117 289.28 414.477 289.05 414.977 288.19C417.227 284.37 417.267 279.66 420.077 276.12C419.767 274.38 420.417 272.69 421.227 271.4C422.227 269.83 422.078 268.04 422.908 266.47C423.378 265.59 422.928 264.26 423.288 263.28C424.198 260.79 424.747 258.28 424.597 255.61C424.537 254.5 424.587 253.37 424.587 252.25C424.587 250.26 424.687 248.27 424.557 246.29C424.427 244.27 424.107 242.27 423.817 240.26C423.757 239.82 423.467 239.42 423.297 238.99C422.727 237.61 422.017 236.27 421.637 234.84C420.897 232.08 419.397 229.8 417.887 227.41C416.587 225.36 414.477 224.53 413.017 222.83C411.777 221.39 410.257 220.04 408.587 219.19C407.307 218.54 405.597 218.65 404.107 218.4C401.327 217.94 398.377 218.01 395.567 218.35C393.437 218.61 391.407 219.66 389.327 220.32C388.767 220.5 387.987 220.3 387.607 220.63C385.017 222.85 382.408 225.07 380.017 227.49C378.807 228.72 378.287 230.66 377.007 231.76C375.527 233.03 375.358 234.88 374.288 236.31C373.467 237.42 372.227 238.8 372.467 240.7C373.337 240.09 373.937 239.36 374.667 239.19C377.157 238.62 379.587 237.88 381.927 236.88C385.447 235.37 389.277 234.31 391.857 231.19C392.937 229.89 394.127 230.1 395.697 230.43C395.087 231.69 394.267 232.77 394.077 233.95C393.677 236.45 392.207 237.92 390.087 238.96C389.677 239.16 389.157 239.22 388.827 239.51C385.307 242.54 382.677 246.33 379.867 249.96C379.747 250.12 379.737 250.56 379.857 250.66C380.097 250.87 380.547 251.14 380.767 251.05C385.997 248.78 390.878 247.38 394.027 241.77C394.258 241.35 394.667 240.82 395.067 240.75C396.567 240.48 397.147 239.13 398.177 238.33C398.717 237.92 399.207 237.2 399.767 237.14C400.267 237.08 400.857 237.74 401.367 238.06C401.137 238.38 400.907 238.65 400.737 238.96C400.467 239.46 400.267 240.01 399.977 240.51C399.587 241.18 400.917 241.26 400.327 242.29C399.157 244.37 398.287 246.54 395.817 247.45C395.397 247.61 394.987 248.07 394.777 248.49C393.637 250.82 391.777 252.72 390.617 254.98C389.377 257.38 387.267 259.67 388.197 262.81C389.377 263.1 390.328 262.99 391.538 262.28C393.788 260.95 395.907 259.44 397.807 257.73C399.527 256.19 401.457 254.85 402.897 253C402.378 251.53 404.787 252.26 404.577 250.71C404.507 250.19 405.818 249.18 406.658 248.9C407.897 248.48 407.918 247.28 408.658 246.63C409.057 246.28 409.897 246.1 410.377 246.28C410.757 246.43 411.117 247.24 411.097 247.74C411.027 249.31 409.777 252.15 408.667 253.17C405.437 256.17 402.587 259.52 399.038 262.24C396.458 264.21 393.587 265.34 390.717 266.55C389.597 267.02 387.757 267.09 386.827 266.47C385.077 265.3 383.647 263.66 383.507 261.19C383.377 258.92 384.367 256.97 384.827 254.8C382.757 254.8 380.777 254.83 378.797 254.79C374.877 254.71 373.907 252.87 375.237 249.21C376.037 247 377.657 245.58 378.977 243.68C376.227 244.97 373.437 244.23 370.697 244.32C369.017 244.38 368.407 243.37 368.617 241.53C368.687 240.92 368.657 240.29 368.627 239.67C368.477 236.55 368.497 236.35 369.927 233.74C372.217 229.56 374.507 225.39 378.457 222.35C377.247 221.55 376.707 220.6 376.807 219.19C376.937 217.34 376.967 215.45 376.788 213.6C376.688 212.63 376.287 211.43 375.597 210.84C374.627 210.01 372.847 211.11 372.367 212.61C370.687 217.83 368.777 223.01 368.637 228.59C367.347 229.85 368.188 231.58 367.658 233.03C366.318 236.72 365.217 240.48 364.117 244.25C363.817 245.27 363.348 246.19 363.397 247.31C363.507 250.13 362.297 252.65 360.707 254.73C358.977 257.04 357.447 259.37 355.957 262.18ZM133.287 428.67C134.507 428.48 135.877 429.16 137.097 428C137.377 427.73 138.557 428.62 139.327 428.62C140.097 428.62 140.847 428 141.627 427.96C146.617 427.66 151.607 427.44 156.597 427.18C157.317 427.14 158.267 427.35 158.727 426.97C159.987 425.93 161.397 426.39 162.617 426.53C163.817 426.67 164.927 427.82 166.097 426.46C168.357 427.93 170.877 426.86 173.257 427.17C175.327 427.44 177.267 426.87 179.127 426.05C181.507 425 184.077 424.55 186.567 424.3C189.747 423.98 191.887 422 194.327 420.48C195.427 419.8 194.777 418.9 193.367 418.16C192.087 417.5 190.857 417.48 189.547 417.48C185.697 417.47 181.847 417.48 177.987 417.48C177.247 417.48 176.387 417.24 175.777 417.54C172.707 419.01 169.587 417.87 166.407 417.95C166.767 417.33 167.307 417.02 167.697 416.58C169.467 414.55 171.537 413.54 174.367 413.67C176.597 413.77 178.907 413.4 181.077 412.84C182.997 412.34 184.877 411.79 186.837 411.41C188.367 411.11 189.967 410.71 191.497 410.14C193.887 409.25 195.317 407.49 196.957 406.01C196.407 405.28 195.997 404.69 195.537 404.14C195.277 403.83 194.967 403.38 194.647 403.35C191.137 403.03 187.717 403.66 184.307 404.44C182.487 404.86 180.717 405.45 178.807 405.63C176.867 405.81 174.897 406.23 172.977 406.78C171.277 407.26 169.377 407.67 167.937 405.93C168.807 405.06 169.687 404.19 170.557 403.31C172.127 404.03 172.187 402.06 173.227 401.79C173.657 401.68 173.997 401.15 174.417 401.09C176.547 400.78 178.677 400.56 180.817 400.32C181.417 400.25 182.057 400.34 182.617 400.16C186.237 399 189.827 397.78 193.437 396.6C193.947 396.43 194.887 396.86 194.747 395.87C194.637 395.09 195.667 393.73 193.847 393.61C192.687 391.7 190.337 392.46 188.807 391.37C184.157 391.68 179.617 390.14 174.947 390.58C173.697 390.7 172.747 391.29 171.677 391.71C171.137 391.92 171.157 393.18 170.077 392.45C169.427 392.02 168.527 391.98 167.827 391.6C167.087 391.2 166.917 390.66 167.207 389.15C167.527 387.48 166.087 385.26 168.647 384.25C167.017 383.32 168.607 382.42 168.677 381.5C168.767 380.29 168.497 379.85 167.487 380.92C163.547 381.05 159.627 382.69 155.657 380.96C155.187 380.76 154.377 380.89 153.927 381.18C152.307 382.19 150.567 381.4 148.907 381.67C148.117 380.49 146.907 380.99 145.857 380.94C144.367 380.88 142.817 381.18 141.397 380.85C140.037 380.53 138.837 381.94 137.487 380.97C137.327 380.85 136.437 381.29 136.347 381.6C135.977 382.88 134.927 383.74 134.417 384.84C133.347 387.13 133.257 389.73 132.257 392.14C131.327 394.37 131.647 397.1 131.357 399.6C131.177 401.14 131.797 402.72 130.887 404.26C130.577 404.79 131.977 405.73 130.757 406.58C129.927 407.16 132.117 408.15 130.647 408.87C132.077 410.46 131.087 412.39 131.357 414.14C131.647 416.02 131.987 417.9 132.087 419.8C132.237 422.69 131.787 425.62 133.287 428.67ZM379.957 169.79C381.567 167.99 382.887 166.43 384.297 164.96C385.697 163.5 387.347 162.44 389.107 161.38C391.287 160.07 393.427 158.62 395.647 157.32C399.827 154.86 403.397 151.3 408.417 150.36C408.727 150.3 408.947 149.88 409.257 149.69C410.447 148.97 411.577 148.05 412.867 147.64C414.447 147.14 415.957 146.71 417.217 145.5C418.507 144.26 420.197 143.38 421.307 142.01C422.847 140.13 423.977 137.92 425.347 135.89C427.537 132.65 428.437 129.08 428.347 125.2C428.327 124.28 427.977 123.25 428.947 122.45C429.207 122.24 429.258 121.33 429.038 121.07C427.788 119.67 428.567 118.02 428.317 116.51C428.207 115.82 427.987 115.15 427.857 114.47C427.147 110.78 424.608 108.47 421.788 106.37C421.318 106.02 420.597 105.86 420.347 105.42C418.607 102.3 415.297 102.18 412.457 101.2C412.047 101.06 411.387 101.54 410.887 101.82C409.677 102.49 408.537 103.36 407.267 103.88C405.977 104.41 405.147 105.22 404.417 106.38C403.717 107.49 402.497 108.3 401.857 109.43C401.237 110.53 401.157 111.87 399.997 112.78C399.307 113.32 398.887 114.27 398.517 115.11C398.147 115.95 397.607 117.01 397.847 117.74C398.157 118.67 396.207 119.34 397.717 120.15C396.407 120.95 397.848 121.69 397.788 122.5C397.628 124.63 397.008 126.61 396.277 128.59C395.728 130.11 395.837 132.01 394.957 133.22C393.967 134.57 394.107 136.52 392.517 137.46C391.327 140.59 388.758 142.81 387.158 145.67C385.358 148.91 382.307 150.67 379.117 152.17C377.547 152.91 375.887 153.47 374.027 153.43C372.547 153.39 372.187 154.57 372.957 155.86C373.837 157.34 374.787 158.84 375.297 160.47C375.857 162.27 377.517 163.38 377.717 165.47C377.857 166.93 379.147 168.31 379.957 169.79ZM182.147 358.03C182.077 360.16 181.957 362.13 183.337 363.96C184.067 364.92 184.397 366.26 184.667 367.48C184.957 368.76 185.107 370.11 185.017 371.4C184.987 371.81 183.877 372.04 183.457 372.53C181.387 374.94 178.907 376.86 176.127 378.26C172.157 380.27 171.877 383.75 171.637 387.49C172.507 387.24 173.127 386.95 173.757 386.91C175.907 386.77 178.007 386.82 180.187 386.28C182.367 385.74 184.847 386.08 187.147 386.39C189.217 386.67 191.187 387.65 193.317 387.62C195.607 387.59 197.147 389.19 199.027 390.04C199.437 390.22 199.977 390.74 199.977 391.1C199.957 393.42 200.237 395.87 199.557 398C199.017 399.69 198.807 400.81 199.987 402.19C201.037 403.42 201.667 406.02 201.507 407.5C201.467 407.83 201.277 408.45 201.187 408.44C199.717 408.32 200.117 409.38 199.987 410.17C199.947 410.4 199.547 410.6 199.267 410.76C197.767 411.61 196.257 412.45 194.677 413.34C195.537 413.77 196.277 414.47 196.967 414.44C198.927 414.33 198.727 415.95 199.227 416.98C199.337 417.21 198.657 417.91 198.757 418.03C200.367 419.83 197.687 421.38 198.457 423.13C198.507 423.25 198.017 423.77 197.697 423.88C194.727 424.88 192.627 427.53 189.327 428.03C187.927 428.24 186.517 429 185.107 429.49C183.667 429.99 182.187 429.45 180.777 430.12C179.647 430.66 177.937 430.39 177.157 431.17C175.647 432.68 174.517 430.49 173.217 431C173.217 432.76 173.217 434.34 173.217 436.14C173.877 436.14 174.467 436.17 175.057 436.14C180.917 435.83 186.777 436.64 192.657 435.52C195.307 435.02 197.987 434.82 200.627 434.04C201.557 433.77 202.907 432.76 204.077 433.88C204.507 432.68 205.477 433.97 206.247 433.41C206.907 432.93 208.257 433.48 209.057 433.09C209.777 432.74 210.977 432.83 211.187 431.62C211.407 430.35 211.697 429.1 211.917 427.83C212.057 427.03 212.207 426.22 212.397 425.44C212.817 423.72 213.337 422.12 214.107 420.53C214.497 419.72 214.007 418.46 214.437 417.7C215.097 416.55 215.107 415.73 214.197 414.85C215.267 414.18 214.847 413.1 214.907 412.16C215.157 408.54 214.747 404.93 215.497 401.26C216.057 398.55 215.167 395.54 214.897 392.66C214.877 392.46 214.617 392.29 214.507 392.08C212.977 389.35 211.887 386.47 211.127 383.41C210.747 381.89 210.077 379.96 208.897 379.22C206.877 377.94 205.447 375.52 202.567 375.6C201.887 375.62 201.177 374.82 200.507 374.35C199.067 373.33 197.627 372.29 196.217 371.22C195.907 370.98 195.597 370.58 195.547 370.21C195.447 369.48 195.827 368.46 195.457 368.03C194.207 366.58 195.407 364.73 194.677 363.5C193.667 361.81 194.227 360.18 194.047 358.53C193.917 357.33 194.017 356.11 194.017 354.57C192.117 356.45 189.687 354.7 188.067 356.31C185.927 355.78 184.287 357.23 182.147 358.03ZM233.977 313.64C236.557 308.66 235.717 303.39 235.827 298.24C235.837 297.62 235.827 297 235.827 296.38C235.827 295.88 236.007 295.29 235.797 294.9C234.337 292.15 234.437 289.01 233.727 286.09C232.897 282.7 231.817 279.43 230.837 276.11C230.077 273.53 228.657 273.01 226.627 272.77C225.647 272.65 224.747 272.75 224.007 271.8C223.527 271.19 218.287 269.87 217.437 269.73C215.047 269.36 212.767 270.43 210.407 270.17C209.557 270.08 208.457 269.48 207.917 269.82C206.157 270.93 204.087 270.69 202.267 271.5C200.467 272.31 198.647 273.01 197.047 274.2C196.597 274.54 195.997 274.96 195.507 274.91C194.457 274.81 193.937 275.42 193.337 276.04C192.557 276.84 191.897 278.02 190.947 278.34C188.507 279.16 188.477 281.54 187.357 283.19C187.117 283.55 187.317 284.28 187.037 284.52C184.857 286.43 186.167 288.88 185.927 291.08C187.077 291.91 186.387 293.13 186.587 294.16C186.817 295.3 187.257 296.43 187.287 297.58C187.317 299.11 187.377 300.5 188.807 301.44C189.107 301.64 189.527 301.96 189.537 302.24C189.577 305.07 192.097 305.12 193.717 305.44C197.387 306.15 200.957 307.11 204.527 308.17C206.087 308.63 207.707 309.24 209.287 309.21C211.977 309.15 214.467 310.61 217.177 310.03C218.427 311.57 220.317 310.6 221.897 311.21C224.587 312.24 227.597 312.46 230.467 313.01C231.607 313.24 232.757 313.42 233.977 313.64ZM358.077 161.94C358.197 163.76 357.977 165.69 358.497 167.39C359.917 171.99 361.597 176.49 364.077 180.69C365.057 182.34 366.237 183.38 367.797 184.3C368.987 185 370.187 184.82 371.297 184.55C372.057 184.36 372.527 183.48 372.408 182.45C372.367 182.1 372.807 181.57 373.167 181.32C374.207 180.59 374.057 179.45 373.797 178.63C372.687 175.11 372.137 171.4 370.747 168.01C370.057 166.31 370.017 164.31 368.767 162.9C367.797 161.81 367.607 159.92 365.687 159.77C365.417 158.01 363.867 157.22 362.757 156.18C361.857 155.34 360.667 154.64 359.237 154.85C358.537 154.95 357.337 156.32 357.697 156.93C358.697 158.56 357.867 160.29 358.077 161.94Z" fill="#1D3D6C"/>
<path d="M572.897 20.2707C572.017 20.5407 571.637 21.0907 571.357 22.0207C570.787 23.8707 569.817 25.6007 569.217 27.4407C568.997 28.1207 568.937 28.4607 568.147 28.5307C567.757 28.5707 567.177 29.0907 567.097 29.4707C566.287 33.6807 562.367 35.0307 559.627 37.3207C558.177 38.5307 555.627 38.3307 553.757 39.1607C552.757 39.6107 552.117 39.7407 551.167 39.2506C550.297 38.8006 549.387 38.6007 549.737 37.2607C549.857 36.7807 550.047 35.9506 549.027 35.9407C548.777 35.6907 548.527 35.4407 548.277 35.1907C544.977 32.5007 544.507 28.7807 544.557 24.8807C544.557 24.6507 544.597 24.2807 544.727 24.2307C546.617 23.4207 545.727 21.4207 546.487 20.0907C547.147 18.9307 547.257 17.4307 547.527 16.0707C547.897 14.2207 548.707 12.6307 549.567 10.9407C550.657 8.82068 551.447 6.62068 553.387 5.09068C553.397 3.02068 555.628 3.21066 556.538 2.01066C557.488 0.750659 558.947 0.320687 560.557 0.0706871C562.737 -0.279313 567.357 0.700676 568.697 2.34068C569.177 2.92068 569.257 3.83068 569.517 4.59068C570.007 4.19068 570.497 3.22069 570.727 4.85069C570.827 5.57069 571.677 6.17067 572.137 6.86067C572.247 7.03067 572.157 7.35068 572.157 7.59068C572.037 7.59068 571.887 7.54069 571.807 7.60069C570.557 8.39069 572.808 9.53069 571.538 10.3207C571.997 10.6507 572.447 10.9907 572.907 11.3207C572.897 14.3107 572.897 17.2907 572.897 20.2707ZM568.417 14.4107C568.417 13.1607 568.667 12.1907 568.367 11.4407C567.567 9.43068 568.267 6.90068 565.437 5.56068C562.487 4.16068 558.557 4.22068 556.797 6.97068C554.387 10.7507 551.467 14.3707 551.227 19.1707C549.727 20.6207 551.007 22.5207 550.457 24.0607C549.887 25.6607 550.017 27.1707 550.527 28.6607C551.047 30.1707 551.708 31.6607 552.538 33.0307C552.808 33.4807 553.907 33.8207 554.417 33.6407C555.707 33.1707 557.098 32.6107 558.038 31.6707C561.498 28.2207 565.377 25.1607 567.027 20.1507C567.717 18.1107 568.727 16.2607 568.417 14.4107Z" fill="#1D3D6C"/>
<path d="M452.388 101.881C448.798 101.391 444.878 100.001 442.508 95.8909C441.128 93.4909 439.848 91.0309 438.538 88.5909C438.318 88.1909 438.118 87.7609 438.028 87.3109C437.728 85.8109 438.698 84.0909 437.268 82.7809C438.688 80.8809 437.778 78.5909 438.288 76.5109C438.828 74.3309 439.978 72.4709 440.778 70.4409C441.548 68.5109 442.578 66.7009 443.788 64.9409C444.628 63.7209 445.567 62.6709 446.557 61.6609C449.677 58.4909 451.937 54.6609 454.687 51.2209C454.957 50.8809 455.178 50.351 455.138 49.931C454.798 46.931 455.977 43.8109 454.417 40.9209C454.357 36.4109 454.507 31.9609 458.487 28.8209C459.127 28.3209 459.817 27.8609 460.547 27.5109C461.787 26.9209 463.247 25.8109 464.307 26.0909C465.357 26.3709 465.908 25.4809 466.658 25.8009C467.998 26.3709 469.377 26.7109 470.827 26.5209C472.457 26.3009 473.807 27.1309 475.227 27.6309C476.517 28.0809 477.728 28.8209 478.908 29.5309C482.058 31.4409 484.337 34.1709 486.567 37.0909C488.997 40.2809 489.847 43.961 490.917 47.611C491.177 48.491 491.308 49.3909 491.658 50.2909C492.298 51.9409 492.647 53.721 492.487 55.551C492.387 56.661 492.017 58.1609 492.567 58.8209C493.557 60.0209 492.518 60.8309 492.378 61.6209C491.768 64.9009 491.757 68.4509 489.467 71.2009C488.107 72.8309 487.828 75.2209 485.758 76.3209C482.648 81.7509 478.137 85.991 473.837 90.421C472.657 91.631 470.787 91.0909 469.847 92.7009C469.357 93.5309 468.177 93.9609 467.327 94.5909C464.597 96.5809 461.647 98.1809 458.617 99.6609C457.997 99.9609 457.377 100.281 456.797 100.661C454.887 101.881 454.888 101.891 452.388 101.881ZM486.758 57.6309C486.428 54.7609 486.177 51.8809 485.737 49.0409C485.527 47.6909 485.038 46.3609 484.528 45.0809C483.118 41.5209 481.048 38.4609 478.288 35.7009C475.218 32.6209 471.348 32.0009 467.518 31.0309C467.218 30.9509 466.828 31.1409 466.508 31.2609C465.428 31.6609 464.377 32.3809 463.297 32.4409C461.087 32.5509 460.837 34.4609 459.837 35.6909C460.677 36.8709 459.327 37.891 459.617 39.111C459.897 40.271 459.337 41.8809 459.947 42.6709C460.867 43.841 459.618 45.5309 461.158 46.3109C459.788 47.3409 460.638 48.8309 460.388 50.0909C460.018 51.9009 458.368 55.761 457.388 56.801C455.918 58.361 454.107 59.6509 453.667 61.9809C453.587 62.3809 453.058 62.8009 452.648 63.0309C447.988 65.5609 445.757 70.0309 443.487 74.4709C443.337 74.7709 443.318 75.151 443.268 75.491C443.008 77.371 443.057 79.3709 442.427 81.111C441.867 82.651 441.587 83.9309 442.117 85.5309C442.627 87.0809 442.917 88.631 443.977 89.991C445.457 91.911 446.948 94.1609 449.398 94.3309C453.038 94.5809 457.057 95.4609 459.837 91.7209C460.367 91.0109 461.328 90.5909 462.138 90.1209C463.738 89.2009 465.457 88.4709 466.977 87.4409C468.567 86.3709 469.488 84.5409 471.408 83.7309C473.128 83.0009 473.147 80.3009 475.337 79.8809C475.567 78.2509 477.317 77.7409 477.927 76.4809C478.637 74.9909 479.907 74.0709 480.857 72.8409C481.857 71.5509 482.647 70.1109 483.557 68.7509C485.787 65.3809 487.038 61.7609 486.758 57.6309Z" fill="#1D3D6C"/>
<path d="M462.647 154.091C462.647 152.851 462.647 151.611 462.647 150.361C462.647 149.991 462.527 149.351 462.677 149.291C464.607 148.391 463.997 146.321 464.687 144.871C465.877 142.381 467.077 140.001 469.227 138.181C469.857 137.641 470.467 136.981 470.827 136.251C472.357 133.161 474.497 130.741 477.797 129.501C479.747 126.931 483.307 127.701 485.567 125.771C488.817 125.741 491.987 126.051 494.587 128.271C495.717 129.231 496.807 130.281 497.687 131.461C498.727 132.851 499.207 134.531 499.647 136.231C500.387 139.121 500.788 144.341 499.908 146.631C499.518 147.651 499.137 148.601 499.217 149.691L496.817 155.401C495.327 157.391 493.927 159.461 492.317 161.351C489.957 164.111 484.547 166.591 480.767 167.631C477.377 168.561 474.437 166.691 471.237 166.811C469.467 164.601 465.827 164.561 464.897 161.371C462.077 159.571 462.667 156.731 462.647 154.091ZM477.997 163.011C482.937 163.711 485.897 160.051 489.417 157.561C491.107 154.161 493.837 151.321 494.487 147.341C494.787 145.501 494.337 143.491 495.477 141.801C493.957 140.151 493.967 137.881 493.517 135.931C493.067 133.961 491.487 133.531 490.477 132.401C489.137 130.901 487.197 132.061 485.567 131.721C484.587 133.451 482.537 132.861 481.187 133.721C478.917 135.171 476.607 136.571 474.487 138.221C471.607 140.461 470.197 143.781 468.667 146.971C468.357 147.611 466.997 154.721 467.147 155.271C467.357 156.041 467.497 156.961 467.997 157.501C469.297 158.891 469.867 161.201 472.347 161.181C473.837 162.881 475.767 163.291 477.997 163.011Z" fill="#1D3D6C"/>
<path d="M514.067 134.741C511.647 133.251 510.497 131.271 510.117 128.491C509.927 127.101 509.557 126.021 510.167 124.581C510.707 123.311 510.467 121.731 510.607 120.291C511.017 116.021 514.597 114.011 517.287 111.571C519.167 109.871 522.127 110.581 524.647 110.601C524.827 110.601 524.957 111.161 525.187 111.361C525.967 112.051 525.957 114.161 527.897 112.931C527.927 112.911 528.687 113.771 528.887 114.301C529.647 116.351 530.327 118.431 530.987 120.511C531.017 120.601 530.577 120.821 530.367 121.011C530.177 121.181 529.817 121.481 529.857 121.541C531.437 124.421 529.687 126.821 528.527 129.111C527.097 131.931 524.347 135.591 520.837 136.951C518.937 137.691 517.067 138.141 515.007 138.241C513.517 138.311 513.247 137.441 512.757 136.551C512.687 136.411 512.677 136.141 512.757 136.041C513.097 135.681 513.467 135.341 514.067 134.741ZM526.067 120.671C525.577 118.431 524.757 116.251 522.867 114.681C522.447 114.331 521.367 114.241 520.927 114.531C519.447 115.531 518.137 116.771 516.727 117.881C514.187 119.901 513.717 122.721 514.077 125.641C514.167 126.381 514.137 126.941 514.057 127.641C513.967 128.361 514.507 129.151 514.717 129.921C514.867 130.441 514.627 131.651 515.227 131.351C516.557 130.691 516.997 132.791 518.567 131.881C520.867 130.541 521.617 127.981 523.667 126.511C524.417 125.971 524.767 124.781 525.147 123.821C525.547 122.881 525.737 121.841 526.067 120.671Z" fill="#1D3D6C"/>
<path d="M218.258 298.821C219.628 297.841 220.387 296.131 222.197 295.691C222.747 295.551 223.267 295.211 223.827 295.141C225.278 294.961 226.428 296.171 227.998 295.991C228.538 295.931 229.558 297.241 229.778 298.081C230.048 299.081 230.488 300.241 230.438 301.091C230.388 302.021 229.818 303.051 229.838 304.141C229.838 304.341 229.698 304.631 229.528 304.741C227.198 306.321 225.068 308.431 221.858 307.781C221.428 307.691 220.808 307.471 220.668 307.141C219.998 305.551 218.057 305.981 217.077 304.681C216.317 303.661 214.868 303.151 213.688 302.471C212.388 301.721 211.058 301.031 209.728 300.331C207.958 299.401 206.198 299.131 204.288 300.081C203.478 300.481 202.388 300.311 201.568 300.691C200.958 300.971 200.388 301.351 200.068 300.681C199.858 300.241 200.048 299.481 200.278 298.971C200.598 298.231 201.067 297.531 201.577 296.911C202.527 295.761 203.598 295.191 205.278 294.991C208.788 294.571 211.798 296.291 215.088 296.691C216.238 296.841 217.238 298.101 218.258 298.821ZM223.938 304.251C224.368 303.891 224.658 303.691 224.898 303.441C226.488 301.771 226.518 301.561 225.378 299.491C225.278 299.301 224.828 299.081 224.818 299.101C224.028 300.091 222.298 299.201 221.758 300.631C221.208 302.091 222.248 302.851 223.128 303.671C223.288 303.821 223.488 303.941 223.938 304.251Z" fill="#1D3D6C"/>
<path d="M214.577 275.73C215.657 276.83 216.357 277.69 216.547 279.26C216.887 282.12 217.357 285.04 218.427 287.75C219.307 289.98 218.107 291.94 217.847 294.02C217.827 294.17 217.157 294.44 216.927 294.33C215.737 293.79 215.347 292.11 213.767 292.05C213.717 292.05 213.607 291.6 213.657 291.56C215.277 290.48 213.207 289.74 213.367 288.71C213.497 287.88 212.687 286.91 212.777 286.06C212.857 285.35 213.167 284.84 212.757 284.03C212.357 283.25 212.697 282.28 212.127 281.3C211.587 280.37 211.647 278.78 212.047 277.71C212.377 276.91 213.627 276.44 214.577 275.73Z" fill="#1D3D6C"/>
<path d="M204.858 289.791C204.748 289.711 204.597 289.511 204.407 289.451C203.887 289.281 203.777 287.831 202.847 288.941C202.587 288.571 202.398 288.121 202.058 287.871C201.698 287.601 200.247 289.071 200.887 287.341C201.167 286.571 201.117 286.331 200.827 285.681C200.467 284.891 201.368 284.091 201.418 283.421C201.498 282.221 202.438 282.641 202.868 282.211L206.387 282.451C206.997 283.301 207.597 284.161 208.207 285.011C206.737 285.811 208.208 287.661 206.978 288.521C206.308 288.991 205.588 289.361 204.858 289.791Z" fill="#1D3D6C"/>
<path d="M224.917 277.961C225.077 278.021 226.017 278.111 226.287 278.581C226.847 279.551 227.268 280.721 227.318 281.831C227.348 282.591 226.837 283.591 226.237 284.091C225.497 284.721 224.447 285.171 223.467 285.311C222.497 285.451 220.097 282.551 220.157 281.601C220.277 279.881 222.507 277.941 224.917 277.961Z" fill="#1D3D6C"/>
<path d="M483.247 157.23C481.907 155.07 483.727 152.9 482.877 150.79C482.697 150.34 483.507 149.31 484.077 148.78C485.187 147.74 485.958 146.22 488.028 145.73C487.698 148.04 488.687 150.13 487.347 152.22C486.167 154.05 485.477 156.25 483.247 157.23Z" fill="#1D3D6C"/>
</svg>
