<svg width="345" height="259" viewBox="0 0 345 259" fill="none" xmlns="http://www.w3.org/2000/svg">
<path d="M333.642 152.99C334.807 151.061 335.904 149.139 336.371 146.841C336.61 145.642 336.706 144.472 336.679 143.288C336.617 140.578 336.453 139.366 335.52 137.805C334.389 135.919 333.313 133.954 331.62 132.514C330.146 131.259 328.781 129.628 327.074 128.961C324.771 128.053 323.146 125.94 320.671 125.472C320.28 125.401 319.89 125.167 319.554 124.925C318.745 124.358 318.642 123.869 319.081 122.94C319.293 122.479 319.547 122.039 319.739 121.571C319.999 120.954 320.541 120.23 320.397 119.727C320.164 118.89 319.629 117.783 318.95 117.507C317.003 116.705 315.008 115.351 312.801 116.457C312.054 116.833 311.615 116.45 310.806 116.301C311.402 116.053 311.807 115.883 312.246 115.698C312.136 115.578 312.047 115.4 311.958 115.4C310.408 115.4 309.14 116.23 307.837 116.939C306.967 117.408 306.055 117.826 305.28 118.436C304.54 119.018 303.429 119.018 303.052 120.294C302.867 120.925 301.784 121.259 301.146 121.769C300.235 122.5 299.398 123.33 298.459 124.018C297.869 124.457 297.204 124.869 296.512 125.046C293.173 125.897 289.725 126.436 287.127 129.145C286.907 129.379 286.091 129.337 285.81 129.103C285.235 128.606 284.775 128.457 284.474 129.223C284.131 130.089 283.253 129.741 282.773 130.216C282.314 130.67 281.91 131.188 281.443 131.642C281.327 131.755 281.08 131.713 280.895 131.755C280.436 131.855 279.784 131.791 279.558 132.082C278.228 133.819 276.583 135.33 275.506 137.217C274.752 138.536 273.978 139.954 273.854 141.671C273.758 143.075 273.08 144.422 273.182 145.912C273.251 146.926 273.292 147.976 273.114 148.969C272.949 149.912 273.203 150.713 273.306 151.593C273.505 153.281 274.32 154.834 274.197 156.565C274.19 156.699 274.231 156.948 274.259 156.948C275.616 156.983 274.745 158.65 275.452 158.848C276.603 159.16 276.713 160.288 277.392 160.919C278.036 161.508 278.859 161.884 279.538 162.437C280.58 163.288 281.779 163.366 283.486 163.515C283.027 163.026 282.849 162.841 282.671 162.65C282.499 162.458 282.499 162.458 282.897 161.777C282.938 161.714 283.027 161.65 283.02 161.6C282.828 160.309 283.281 158.969 282.732 157.692C282.431 156.99 282.307 156.182 281.896 155.572C279.716 152.366 279.695 148.614 279.325 144.961C279.277 144.493 279.551 143.99 279.668 143.493C279.75 143.139 279.812 142.777 279.887 142.422C280.086 142.628 280.388 143.054 280.47 143.018C281.361 142.585 282.218 142.089 283.082 141.593C283.63 141.273 284.158 140.919 284.837 140.685C283.459 143.38 283.747 146.316 283.466 149.11C283.342 150.323 284.035 151.756 284.7 152.877C285.447 154.146 285.954 155.565 286.9 156.742C287.325 157.267 287.613 158.338 287.38 158.912C286.962 159.941 287.538 160.827 287.915 161.16C288.985 162.09 289.348 163.437 290.171 164.451C291.597 166.203 293.598 167.168 295.792 167.019C296.999 166.941 298.363 167.231 299.48 166.373C299.775 166.146 300.235 165.919 300.283 165.636C300.324 165.38 299.899 165.047 299.679 164.749C299.542 164.565 299.398 164.395 299.254 164.217C299.48 164.026 299.686 163.7 299.94 163.657C300.927 163.487 301.928 163.409 302.874 163.302C303.354 164.529 303.8 165.614 304.211 166.707C304.883 168.501 306.316 169.544 307.742 170.607C307.872 170.7 309.949 171.033 310.244 171.097C310.785 171.217 311.306 171.409 311.834 171.565C313.562 172.054 313.74 171.721 316.098 171.409C318.224 171.125 319.931 169.778 322.008 169.515C322.79 169.416 322.899 168.139 323.838 168.118C325.093 166.345 326.485 164.664 327.554 162.777C328.192 161.657 328.315 160.224 328.679 158.933C329.049 157.614 329.412 156.458 330.9 155.799C332.038 155.295 333.162 154.345 333.669 152.962C333.464 152.664 333.224 152.38 333.059 152.061C333.004 151.962 333.128 151.763 333.162 151.607C333.292 151.735 333.498 151.841 333.539 151.99C333.628 152.302 333.621 152.65 333.642 152.99ZM299.94 158.309C298.103 158.884 296.8 157.579 295.271 157.451C294.38 157.373 293.605 156.848 293.345 156.04C293.084 155.245 293.112 154.295 293.214 153.444C293.31 152.642 293.873 152.586 294.764 153.089C295.305 153.394 295.998 153.926 296.457 153.784C297.342 153.508 297.931 154.182 297.972 154.529C298.171 156.054 299.768 156.713 299.94 158.309ZM294.99 142.564C294.874 142.883 294.75 143.21 294.627 143.536C294.38 142.004 293.304 143.876 292.796 143.039C292.33 142.266 291.638 141.642 291.137 140.89C291.007 140.692 291.11 140.195 291.261 139.94C291.645 139.309 292.138 138.748 292.556 138.139C293.132 137.302 294.044 137.536 294.819 137.302C295.278 137.167 295.682 136.855 296.142 136.72C296.306 136.67 296.663 136.834 296.725 136.99C296.793 137.153 296.587 137.621 296.546 137.621C295.34 137.444 295.861 138.422 295.703 138.94C295.635 139.174 295.655 139.543 295.511 139.642C294.366 140.401 294.25 141.366 294.99 142.564ZM323.084 148.309C324.997 149.479 323.496 150.763 323.468 151.933C323.352 150.806 323.228 149.678 323.084 148.309ZM297.869 165.09C296.841 166.075 296.821 166.125 296.334 165.884C295.95 165.692 295.285 165.288 295.326 165.125C295.511 164.324 296.012 164.863 296.437 164.969C296.821 165.061 297.225 165.04 297.869 165.09ZM286.352 130.089C285.838 130.897 285.331 131.713 284.714 132.692C284.33 131.138 285.063 130.443 286.352 130.089ZM292.207 164.763C292.447 164.622 292.57 164.515 292.714 164.473C293.482 164.253 293.962 164.607 294.188 165.345C294.229 165.465 294.147 165.721 294.051 165.778C293.221 166.26 293.31 165.139 292.817 164.997C292.639 164.948 292.46 164.863 292.207 164.763ZM321.933 153.848C321.761 153.6 321.556 153.423 321.562 153.26C321.569 153.089 321.782 152.933 321.912 152.77C322.09 152.947 322.31 153.103 322.413 153.316C322.44 153.38 322.152 153.607 321.933 153.848ZM308.948 117.017C309.202 116.918 309.442 116.819 309.695 116.748C309.716 116.741 309.867 117.039 309.832 117.074C309.634 117.28 309.407 117.45 309.188 117.627C309.133 117.471 309.071 117.33 308.948 117.017ZM316.859 119.705C316.866 119.791 316.88 119.869 316.887 119.954C316.606 120.025 316.325 120.145 316.037 120.159C315.886 120.166 315.728 119.996 315.577 119.911C315.715 119.84 315.838 119.72 315.982 119.705C316.27 119.67 316.565 119.698 316.859 119.705ZM331.729 153.288C331.969 153.103 332.202 152.926 332.429 152.742C332.49 152.884 332.641 153.096 332.607 153.146C332.429 153.352 332.195 153.515 331.99 153.685C331.921 153.579 331.853 153.472 331.729 153.288Z" fill="#FF9737"/>
<path d="M33.3338 53.8666C35.3974 54.9943 37.6049 55.5049 39.9289 55.6042C42.3215 55.7106 44.7141 55.8879 47.5729 56.0652C44.2479 58.7107 41.3137 60.9732 38.4618 63.342C37.4266 64.2002 36.5697 65.2995 35.6441 66.2995C35.2122 66.7676 34.7392 67.2144 34.4033 67.7535C34.0331 68.3563 32.7099 68.2641 33.0733 69.1932C33.4846 70.2429 32.2095 69.9166 32.2712 70.6401C32.3123 71.1224 30.6327 70.8386 31.5582 72.0018C31.5719 72.0231 31.2291 72.4841 31.0098 72.5266C30.6875 72.5975 30.6944 71.1862 30.0774 72.2359C29.8854 72.5621 30.0225 73.0728 29.9334 73.4841C29.8854 73.7111 29.7209 74.0373 29.5495 74.087C28.0001 74.5267 27.3214 75.9522 26.3479 77.0445C25.3265 78.1863 24.5723 79.4843 23.969 80.924C23.6468 81.6971 22.8927 82.2786 22.3237 82.9382C22.1454 83.1439 21.8918 83.2999 21.7615 83.5269C20.0339 86.5766 18.2172 89.5838 16.6404 92.7115C15.3927 95.1939 13.5759 97.3783 12.9178 100.18C10.7034 101.513 10.4429 104.159 9.2226 106.159C8.00916 108.145 6.90543 110.258 6.15816 112.457C5.02013 115.797 4.24542 119.28 3.27193 122.684C2.95657 123.79 2.4904 124.861 2.07906 125.939C2.01736 126.102 1.83224 126.237 1.80482 126.4C1.42776 128.627 1.07129 130.861 0.707932 133.088C1.62659 134.5 0.344574 135.826 0.557098 137.266C0.755905 138.606 0.522842 140.025 0.413147 141.401C-0.0119019 146.543 -0.354691 151.685 0.694214 156.791C0.865601 157.621 1.05072 158.295 0.707932 159.146C0.488556 159.692 0.440567 160.55 0.707932 161.032C1.74313 162.926 2.23676 164.947 2.68922 167.054C3.19653 169.416 3.8958 171.82 4.99956 173.933C6.24042 176.324 6.54205 179.43 9.31172 180.813C10.1755 182.685 12.4516 183.125 13.2948 185.012C16.373 186.65 18.841 189.515 22.5979 189.771C25.2373 189.955 27.8356 189.671 30.3173 188.87C33.0801 187.983 35.7676 186.806 38.1739 185.061C39.0377 184.437 39.9837 183.941 41.1012 183.253C40.7104 186.395 41.4783 189.132 42.5546 191.799C42.5546 191.714 42.534 191.622 42.5546 191.537C42.6094 191.289 42.678 191.047 42.7397 190.799C42.7877 190.856 42.8974 190.941 42.8837 190.969C42.7603 191.225 42.6094 191.473 42.4723 191.721C42.6231 192.686 42.2187 193.778 43.0893 194.572C43.0825 194.487 43.0482 194.402 43.0688 194.324C43.1167 194.09 43.1853 193.863 43.247 193.636C43.3018 193.679 43.4047 193.742 43.3978 193.75C43.2813 194.005 43.151 194.253 43.0208 194.508C42.8288 195.998 44.4399 196.899 44.4056 198.005C44.3645 199.331 44.5222 200.374 45.0912 201.523C45.5231 202.395 45.5231 203.502 45.9481 204.374C46.2361 204.963 45.9413 206.275 47.3124 205.977C47.4152 205.956 47.758 206.395 47.7443 206.594C47.4838 209.232 49.136 210.998 50.4111 212.92C51.4669 214.509 52.6461 216.005 53.7498 217.566C53.9897 217.899 54.12 218.318 54.4011 218.92C50.6031 219.339 47.0313 219.708 43.4733 220.133C42.7877 220.211 42.1227 220.481 41.4646 220.715C39.8261 221.289 38.0573 220.58 36.4394 221.218C34.8283 221.857 33.0459 221.977 31.6336 223.275C31.0714 223.793 29.7758 223.19 29.2616 224.304C28.3429 223.821 27.8425 224.821 27.1089 224.949C24.1747 225.481 21.8575 227.445 19.1975 228.602C18.0046 229.119 17.0654 230.495 16.2427 231.658C15.3104 232.978 14.6385 234.495 13.8639 235.935C13.7336 236.176 13.6033 236.453 13.5965 236.715C13.5759 237.354 13.4457 238.098 13.7062 238.602C13.8639 238.9 14.6934 238.864 15.2213 238.885C16.7569 238.956 18.2309 239.155 19.4512 240.269C19.6294 240.432 20.0271 240.623 20.1573 240.538C22.1591 239.176 24.113 240.871 26.1286 240.609C28.0618 240.354 30.0568 240.673 32.0175 240.644C33.1007 240.623 34.369 241.219 35.1779 239.893C35.7949 241.339 36.8302 239.056 37.646 240.198C37.8585 240.502 38.9554 240.091 39.6409 240.077C41.1423 240.042 42.7534 240.41 44.1108 239.956C46.1881 239.261 48.2242 239.758 50.2672 239.545C50.9458 239.474 50.8773 239.134 50.7402 238.673C51.0624 238.694 51.6109 238.616 51.6726 238.758C52.1113 239.779 52.9546 239.439 53.7087 239.637C55.9505 240.226 58.2402 239.105 60.4409 239.956C60.5986 240.02 60.8316 240.042 60.9688 239.964C62.621 239.098 64.3555 240.105 66.0556 239.715C66.7138 239.566 67.3376 239.857 66.9332 238.786C66.9332 238.779 67.2896 238.63 67.4816 238.545C67.6187 239.871 68.8527 239.41 69.5314 239.864C70.5323 240.524 70.7038 241.063 70.1073 242.552C69.8468 243.191 70.2993 243.581 70.6763 243.439C72.2188 242.864 73.302 243.169 74.1315 244.708C74.3029 245.027 75.0913 245.056 75.6055 245.091C80.0411 245.418 84.4835 245.68 88.9191 246.042C90.2971 246.155 91.5517 245.503 93.0119 245.815C95.3565 246.318 97.8383 245.68 100.197 246.276C101.417 246.588 102.527 245.864 103.775 246.29C104.961 246.701 106.298 246.701 107.58 246.758C108.917 246.822 110.295 246.517 111.591 246.751C116.959 247.723 122.409 247.105 127.79 247.829C131.911 248.382 136.093 248.574 140.206 249.12C143.654 249.581 147.055 249.609 150.489 249.517C151.621 249.489 152.8 249.304 153.862 248.914C155.549 248.297 156.797 247.105 157.571 245.339C158.298 243.68 158.38 243.815 160.012 244.148C163.117 244.772 166.148 245.957 169.383 245.637C171.056 245.467 172.736 245.297 174.374 244.935C176.356 244.503 178.323 243.964 180.236 243.29C180.99 243.027 181.573 242.935 182.217 243.382C183.074 243.985 184.336 243.219 185.042 244.297C186.029 243.999 187.03 243.73 188.01 243.389C189.237 242.964 190.444 242.481 191.918 241.928C191.424 243.893 191.006 245.644 190.54 247.375C189.971 249.51 190.821 251.134 192.884 251.687C193.899 251.957 194.927 252.177 195.976 252.425C196.545 251.056 196.552 251.042 197.67 251.453C198.156 251.63 198.623 251.865 198.972 252.013C199.061 253.616 198.444 255.014 199.665 256.659C200.844 258.241 200.467 258.638 202.085 258.397C203.312 258.212 204.505 258.326 205.704 258.453C208.707 258.787 210.901 257.311 213.026 255.347C216.913 251.765 219.608 247.283 222.439 242.864C223.851 240.666 225.62 238.708 227.142 236.58C228.506 234.665 229.816 232.708 231.036 230.694C234.615 224.779 237.172 218.346 239.88 211.991C242.636 205.53 244.459 198.757 245.947 191.906C246.831 187.82 247.373 183.615 247.201 179.366C247.167 178.544 247.037 177.579 247.387 176.926C248.456 174.898 247.969 172.87 247.695 170.82C247.38 168.472 246.818 166.146 246.715 163.798C246.619 161.664 246.098 159.649 245.776 157.571C245.536 156.032 245.618 154.422 245.282 152.912C244.329 148.642 243.218 144.408 242.197 140.152C241.237 136.167 239.578 132.436 238.344 128.549C236.075 121.429 232.914 114.684 229.898 107.903C227.259 101.967 223.838 96.435 220.451 90.8888C215.844 83.3425 209.921 77.0374 203.716 70.9947C201.55 68.8812 198.917 67.2357 196.367 65.5974C193.214 63.5761 189.937 61.7533 186.68 59.9022C183.184 57.9163 179.55 56.2496 175.766 54.895C173.552 54.1006 171.317 53.363 169.198 52.2353C166.538 50.8169 163.817 49.3487 160.944 48.604C158.421 47.9445 155.981 47.0224 153.403 46.5472C153.142 43.6252 152.903 40.8095 152.628 38.0009C152.155 33.1568 151.6 28.3057 150.304 23.6176C149.756 21.6388 149.605 19.5466 148.755 17.6529C147.932 15.8231 147.233 13.9152 146.198 12.2202C144.868 10.0286 143.997 7.48244 141.598 6.05688C139.973 5.09231 138.766 3.55326 136.908 2.766C134.481 1.7447 132.082 1.42555 129.559 1.7518C128.819 1.85109 128.126 2.45395 127.4 2.46813C126.742 2.48232 126.083 1.82273 125.418 1.80145C123.958 1.7518 122.964 0.950379 121.997 0C120.565 0 119.132 0 117.699 0C117.425 0.198587 117.171 0.517742 116.869 0.574481C112.77 1.3901 109.225 3.33341 105.976 6.02142C104.653 7.11365 103.46 8.41153 101.821 9.14914C101.156 9.44702 100.21 9.97893 100.169 11.1279C100.162 11.2839 99.3739 11.3123 99.086 11.5677C98.7226 11.8868 98.5924 12.5038 98.2153 12.7804C96.1175 14.362 95.0275 16.7167 93.7866 18.9295C93.5261 19.3905 93.6152 19.9934 92.9708 20.2984C92.6143 20.4686 92.2921 20.9367 92.1481 21.3409C91.0923 24.3339 89.9406 27.3056 89.1042 30.3695C88.4255 32.859 88.1033 35.4619 87.692 38.0293C87.5754 38.7386 87.5343 39.5613 87.7742 40.1996C88.021 40.845 87.7948 41.0932 87.5274 41.5968C87.1161 42.3627 87.6782 42.1854 88.117 42.001C88.2335 41.9514 88.3981 42.0152 88.5352 42.0223C88.5078 42.1855 88.5352 42.4479 88.4392 42.5046C87.9113 42.8238 87.3834 43.2564 86.8076 43.3486C85.1554 43.611 83.4826 43.7387 81.8167 43.9089C81.3025 43.9656 80.7266 43.838 80.5553 44.611C80.5278 44.7245 80.0891 44.8451 79.8834 44.7883C76.6476 43.8947 73.0963 44.5614 69.408 46.0295C68.5922 46.3558 67.7832 46.7033 66.9674 47.0508C65.9597 47.4834 65.0479 47.2494 64.2046 46.604C61.3938 44.455 58.2471 43.1216 54.9016 42.1003C51.8851 41.1783 48.8138 40.2989 46.2086 38.3201C45.8521 38.0506 45.4614 37.8307 45.1254 37.5329C44.5359 37.0151 44.433 36.2704 45.1323 35.93C47.5798 34.7384 47.7512 31.7809 49.5268 30.0859C49.6913 29.9298 49.6364 29.4263 49.5473 29.1213C48.7178 26.1992 46.6405 24.4616 44.0628 23.3906C42.8837 22.9013 41.8347 22.4048 40.9367 21.4402C40.2237 20.6743 39.3873 19.8799 38.1396 20.3409C37.9887 20.3977 37.7214 20.1778 37.5226 20.0572C35.5276 18.7806 33.4366 18.2274 31.0783 18.7877C30.2419 18.9863 29.3164 18.8799 28.4389 18.8161C27.7739 18.7664 26.9786 19.5678 26.4096 18.4969C26.3479 18.3834 25.5869 18.5891 25.203 18.7593C24.161 19.2203 23.0298 19.5891 22.1454 20.2771C21.3639 20.8799 20.6304 21.1423 19.698 21.114C19.2661 21.0998 18.6422 21.0856 18.4297 21.3551C17.4288 22.5963 15.8863 23.0147 14.7688 24.0289C14.0284 24.7027 13.4936 25.5538 13.0275 26.5538C12.4104 27.873 11.6495 29.3412 10.1687 30.093C9.49683 30.4334 9.394 31.2206 10.1344 31.5965C11.7798 32.4334 11.6563 34.2207 12.2733 35.5896C12.5064 36.1002 12.4036 36.6605 13.2126 36.2633C13.3223 36.2066 13.7199 36.703 13.9461 36.9725C14.4534 37.5825 14.9402 38.2208 15.4338 38.8449C16.325 38.1924 16.6747 39.4265 17.3397 39.4123C17.6824 39.4052 18.0115 39.0435 18.3474 38.8449C18.1829 38.8307 18.0184 38.8307 17.8538 38.7953C17.6962 38.7598 17.5453 38.6818 17.3945 38.6251C17.6002 38.5825 17.8195 38.4903 18.0115 38.5258C18.1143 38.547 18.1829 38.7882 18.272 38.9229C18.5394 38.9513 18.8959 38.8733 19.0467 39.0222C19.4992 39.4478 19.7802 40.1428 20.2876 40.4053C20.7263 40.6251 21.4804 40.1854 21.9123 40.4124C22.6253 40.7812 24.0513 40.4762 23.7016 42.1642C23.4754 43.2493 24.6957 44.3557 23.7154 45.5472C23.5714 45.7174 24.017 46.5189 24.3118 46.9374C24.634 47.3842 25.5527 47.4693 25.0454 48.3913C25.0248 48.4267 25.3539 48.7814 25.4224 48.7459C26.7455 48.1218 26.6633 49.2353 26.8827 49.98C26.8895 50.1431 26.9032 50.3133 26.9169 50.4764C28.2606 52.1644 29.001 52.4836 30.8932 52.2353C31.3936 52.1715 31.4691 52.3063 31.5376 52.9446C31.6199 53.7673 32.566 53.9375 33.3544 53.9304C33.6286 53.7602 33.8891 53.5049 34.1839 53.4411C34.4718 53.3843 34.8009 53.5262 35.1163 53.5829C35.1025 53.668 35.0957 53.7602 35.082 53.8453C34.5267 53.8666 33.9303 53.8666 33.3338 53.8666ZM101.657 21.731C101.739 21.3055 101.41 20.6672 102.192 20.5963C102.425 19.731 102.521 18.7877 102.911 18.0075C105.229 13.3975 108.375 9.54634 112.619 6.68811C113.791 5.90085 114.977 5.26251 116.3 5.02137C114.902 6.5817 113.565 8.09237 112.208 9.58177C112.036 9.77326 111.783 9.88676 111.549 10.0073C108.444 11.6315 106.435 14.3904 104.516 17.2557C103.761 18.3763 102.918 19.4331 102.109 20.5111C101.931 20.887 101.746 21.27 101.568 21.6459C101.472 21.9083 101.383 22.1637 101.287 22.4261C101.259 22.3552 101.191 22.2488 101.218 22.2133C101.355 22.0573 101.513 21.8941 101.657 21.731ZM105.4 77.8743C105.414 77.6119 105.427 77.3495 105.441 77.08C105.153 76.6473 104.858 76.2147 104.57 75.782C103.919 76.6473 103.72 76.3778 103.192 75.5125C102.397 74.2146 100.903 73.6827 99.0585 73.2572C98.4278 73.1153 97.8794 72.6117 97.2966 72.2642C97.0293 72.1082 96.6042 71.7536 96.5288 71.8245C95.617 72.6472 95.3839 71.5763 94.8629 71.2642C94.3008 70.9309 93.5672 72.0018 93.0051 71.1011C92.5389 71.8245 92.34 71.8174 91.9836 71.0869C91.6065 71.1578 91.1609 71.3848 90.8592 71.2571C90.5165 71.1082 90.3176 70.6188 89.9954 70.3564C89.9406 70.3138 89.4881 70.9025 89.3579 70.8457C88.9945 70.6897 88.7066 70.1223 88.3912 70.1294C86.4237 70.1649 84.3396 69.328 82.5434 70.9096C82.324 71.1011 81.8852 71.0443 81.5425 71.0585C80.7815 71.0869 79.9657 70.7961 79.3007 70.8741C78.334 70.9805 77.4428 71.7394 76.5036 72.172C76.0374 72.3848 75.4067 72.7465 75.0571 72.5763C73.5077 71.8458 72.8564 72.9734 72.0749 73.9096C72.2051 74.2004 72.5205 74.6473 72.4382 74.7536C72.0337 75.2572 71.6978 74.9522 71.4373 74.5125C69.6205 75.5693 69.8399 77.9949 68.4277 79.3282C68.7979 80.5978 67.6941 81.9028 68.5236 83.1865C68.6608 83.3993 68.5922 83.8461 68.4825 84.1227C68.2289 84.7823 67.8929 85.4064 67.5844 86.0589C65.7883 84.7823 65.7883 84.7823 63.9441 86.3426C63.8207 86.449 63.6356 86.6121 63.5191 86.5766C61.9148 86.1795 61.2498 87.5979 60.2558 88.3639C60.9276 88.7327 61.0853 89.0945 60.2489 89.4491C60.0707 90.1441 59.9473 90.8604 59.7005 91.52C59.5565 91.903 59.2137 92.2151 58.9532 92.5555C58.775 92.1796 58.5967 91.7967 58.3705 91.3144C58.1168 92.3924 57.9934 93.4563 57.6095 94.3995C57.0474 95.7896 57.5341 97.1301 57.6438 98.4564C57.7398 99.6266 59.488 100.3 58.871 101.868C58.8572 101.896 59.3234 102.258 59.5222 102.222C60.6397 102.01 61.0579 102.995 61.7229 103.535C62.0451 103.797 62.2165 104.251 62.5387 104.506C63.4299 105.201 63.5396 105.683 62.7307 106.038C62.1137 106.308 61.4007 106.421 60.722 106.449C57.4313 106.584 54.36 107.662 51.3572 108.903C49.2388 109.776 47.237 110.939 45.1666 111.932C40.1894 114.322 35.5482 117.322 30.9138 120.315C29.3712 121.308 28.055 122.641 26.8004 124.095C24.4969 126.769 21.8301 129.11 19.3141 131.592C19.0399 131.869 18.7725 132.152 18.4983 132.429C18.8205 132.727 19.129 133.266 19.4649 133.28C20.8223 133.351 22.2345 134.145 23.5303 133.315C24.8808 132.457 26.1834 131.486 27.3763 130.408C30.4887 127.592 33.2447 124.336 36.9193 122.216C38.2356 121.457 39.4421 120.485 40.7927 119.819C42.157 119.152 43.3978 118.109 44.9678 117.868C44.8718 119.166 44.6524 120.251 44.7347 121.315C44.9266 123.819 45.146 126.329 45.5711 128.79C45.8727 130.535 45.8658 132.4 46.8805 133.968C46.949 133.67 47.0108 133.365 47.0793 133.067C47.1204 133.138 47.2164 133.245 47.1958 133.287C47.0862 133.5 46.9422 133.706 46.8119 133.911C47.3672 137.713 48.5121 141.33 50.1643 144.763C50.6237 145.713 50.9527 146.855 52.3033 146.883C52.3581 146.883 52.4061 147.309 52.461 147.529C51.2681 147.273 51.3983 147.663 52.0839 148.344C52.3993 148.656 52.6666 149.018 53.0025 149.302C53.7841 149.954 53.7498 150.819 53.1602 151.394C51.6726 152.827 51.2749 154.869 50.226 156.543C48.3133 159.6 46.8599 162.947 45.4202 166.231C44.3713 168.621 43.3841 171.033 42.0679 173.288C41.019 175.09 40.0591 176.997 38.736 178.565C37.646 179.856 36.2748 180.948 35.0203 182.076C32.9019 183.976 30.1596 185.019 27.3557 185.48C24.9768 185.87 22.6596 185.764 20.6372 183.912C19.0467 182.459 17.1614 181.366 15.4749 180.019C11.718 177.019 9.28432 173.019 7.65268 168.472C6.88484 166.338 6.28156 164.139 5.43146 162.047C4.88301 160.692 4.63618 159.387 5.10922 158.032C5.3766 157.266 5.1778 156.649 5.07495 155.919C4.8213 154.132 4.71848 152.302 4.70477 150.493C4.69106 148.294 5.06126 146.075 4.87616 143.904C4.56081 140.238 5.27377 136.663 5.63026 133.088C5.94562 129.904 6.59691 126.684 7.51555 123.528C9.15405 117.918 11.1147 112.457 13.6376 107.244C15.8108 102.761 18.4434 98.5131 20.9731 94.2222C23.4617 89.9881 25.9777 85.7681 28.6651 81.6687C30.5573 78.775 32.5797 75.931 34.842 73.3423C39.0239 68.5549 43.5555 64.1293 48.5876 60.2852C51.035 58.4128 53.6058 57.5759 56.7046 58.7178C58.6721 59.4412 60.8591 59.9448 62.9226 59.8738C64.5748 59.8171 66.1927 59.9802 67.701 60.3348C70.0182 60.8809 72.2599 60.4483 74.5223 60.3916C75.1119 60.3774 75.5849 60.1788 76.2294 60.4767C77.1275 60.9022 77.7307 60.3348 77.3948 59.4554C76.9835 58.3631 76.5653 57.1078 75.7632 56.3702C74.8994 55.583 74.5635 54.6113 74.0699 53.6751C73.5008 52.59 72.356 52.7531 71.4784 52.3275C71.4099 52.2921 71.3756 52.1786 71.3344 52.0935C71.0465 51.4906 70.6763 51.0367 69.9222 51.058C69.7782 51.0651 69.5108 50.7105 69.5108 50.5261C69.5108 50.3346 69.7439 50.0083 69.9222 49.9729C71.7321 49.5828 73.542 49.1643 75.3656 48.909C77.4702 48.6182 79.6503 48.7175 81.7001 48.2211C84.5521 47.526 87.3903 47.9374 90.2285 47.7813C91.1198 47.7317 91.7847 48.0863 92.0384 49.058C92.1275 49.4055 92.2235 49.8026 92.4429 50.058C93.0462 50.7459 92.9776 49.675 93.4644 49.6679C93.6495 50.3062 93.8826 50.9942 94.0334 51.6892C94.3419 53.1148 95.2331 54.1006 96.2683 54.973C96.5014 55.1716 96.9333 55.1503 97.1047 55.3702C99.2436 58.1007 100.073 58.5972 102.747 58.9447C104.838 59.2213 106.901 59.7533 108.999 59.9022C110.713 60.0228 112.454 60.4483 114.189 59.9873C115.279 59.7036 115.553 58.9377 115.018 57.8383C114.861 57.5192 114.826 57.1433 114.696 56.6326C115.8 57.0227 116.616 57.5191 117.466 57.583C121.634 57.9021 125.775 58.7107 129.984 58.3703C132.308 58.1859 134.481 57.3631 136.483 56.2355C139.397 54.59 141.508 52.0439 142.914 49.0225C144.093 49.5757 145.128 50.0863 146.184 50.5473C146.568 50.7105 147.075 50.9303 147.404 50.8027C149.399 50.0296 151.319 50.2424 153.225 51.0864C153.3 51.1218 153.403 51.0793 153.492 51.1006C155.453 51.6112 157.441 52.051 159.374 52.6538C162.494 53.6326 165.517 54.7744 168.458 56.3348C171.797 58.1078 175.471 59.2426 179.064 60.4483C180.284 60.8597 181.367 61.4058 182.443 62.0583C182.889 62.3278 183.527 62.7959 183.849 62.6469C185.364 61.9377 185.94 62.9165 186.557 63.9874C186.735 64.2924 186.982 64.6895 187.27 64.7676C189.505 65.3349 190.944 67.2357 192.884 68.2996C194.489 69.179 195.942 70.3564 197.498 71.3351C199.87 72.8245 201.728 74.8955 203.696 76.8743C206.911 80.1013 210.126 83.3212 212.759 87.0873C213.678 88.3923 214.425 89.8249 215.323 91.1512C217.188 93.9031 219.21 96.5556 220.944 99.3855C222.158 101.364 222.85 103.691 224.071 105.662C225.599 108.116 226.134 111.024 227.793 113.435C228.938 115.102 229.418 117.258 230.049 118.84C230.604 119.656 230.59 117.655 231.084 119.038C231.344 119.755 232.188 120.436 231.07 121.131L231.125 121.081C231.674 122.748 232.215 124.414 232.777 126.081C234.368 130.812 235.993 135.535 237.556 140.28C238.036 141.727 238.344 143.238 238.742 144.713C238.81 144.954 238.988 145.38 239.078 145.372C239.941 145.273 240.325 145.323 239.832 146.401C239.605 146.897 239.695 147.741 239.962 148.245C240.27 148.826 240.531 149.231 240.312 149.968C240.14 150.543 240.339 151.238 240.387 151.876C240.394 151.961 240.456 152.075 240.517 152.11C240.977 152.38 241.95 152.621 241.299 153.266C240.25 154.302 241.82 154.068 241.717 154.493C240.798 158.181 241.902 161.763 242.286 165.373C242.478 167.167 243.39 168.926 243.376 170.692C243.349 174.033 244.5 177.444 243.026 180.728C242.924 184.912 241.875 188.927 241.025 192.984C240.229 196.764 238.844 200.317 237.693 203.97C236.37 208.161 234.738 212.197 232.921 216.162C231.749 218.715 230.549 221.261 229.281 223.765C228.554 225.204 227.807 226.658 226.47 227.828C225.497 226.623 224.667 225.417 223.666 224.403C221.452 222.155 219.148 219.991 216.872 217.807C215.501 216.495 214.068 215.254 212.738 213.906C209.996 211.133 206.952 208.785 203.566 206.927C200.837 205.431 198.067 204.026 195.325 202.565C194.016 201.863 193.892 201.572 194.324 199.934C195.284 196.324 195.647 192.608 196.155 188.927C196.682 185.068 196.669 181.118 197.341 177.288C197.862 174.302 197.985 171.366 197.786 168.387C197.711 167.302 197.389 166.238 197.286 165.16C197.053 162.784 197.06 160.373 196.662 158.032C196.031 154.309 195.496 150.571 195.174 146.805C195.085 145.791 195.195 144.762 195.071 143.755C194.962 142.833 194.249 142.145 194.461 140.996C194.605 140.188 193.796 139.209 193.453 138.287C191.575 133.195 189.169 128.372 186.584 123.634C186.433 123.358 186.145 123.173 185.919 122.939C185.666 123.344 185.412 123.748 185.158 124.152C184.548 123.301 184.336 122.046 182.985 121.968C182.176 124.01 184.164 125.592 183.869 127.556C183.835 127.805 183.91 128.216 184.075 128.315C184.438 128.549 184.891 128.642 185.309 128.783C184.527 129.954 185.782 130.273 186.152 130.968C186.694 131.982 186.406 133.344 187.379 134.181C187.318 134.252 187.27 134.351 187.194 134.379C186.139 134.791 186.762 135.408 187.071 135.883C188.017 137.365 188.202 139.089 188.613 140.741C189.038 142.429 189.251 144.231 189.998 145.748C190.334 146.422 190.416 147.167 190.793 147.791C190.972 147.926 191.15 148.053 191.321 148.188C191.143 148.408 190.965 148.628 190.787 148.855C191.136 150.451 191.486 152.053 191.836 153.649C191.932 154.075 192.103 154.5 192.11 154.933C192.151 156.628 192.082 158.33 192.158 160.025C192.226 161.649 191.87 163.295 192.398 164.912C192.487 165.196 192.041 165.664 191.602 166.494C191.013 164.125 189.032 163.224 188.49 161.266C186.694 160.408 186.31 158.607 185.761 156.905C185.686 156.664 185.426 156.479 185.268 156.259C182.916 153.004 180.188 150.053 178.117 146.571C177.747 145.947 177.027 145.358 177 144.734C176.959 143.642 175.252 144.358 175.601 143.124C173.682 140.777 171.762 138.422 169.85 136.074C169.76 136.202 169.692 136.422 169.589 136.436C169.397 136.464 169.191 136.372 168.993 136.33C169.137 136.259 169.267 136.159 169.418 136.131C169.569 136.096 169.733 136.124 169.891 136.124C169.239 135.613 168.232 135.237 167.999 134.578C167.436 132.982 166.004 132.237 165.154 130.954C164.975 130.684 164.057 130.663 164.063 130.585C164.207 128.89 162.939 128.117 161.993 127.216C158.394 123.797 154.664 120.521 151.113 117.045C147.953 113.953 144.319 111.528 140.837 108.896C139.987 108.258 138.999 107.804 138.053 107.301C137.189 106.847 136.305 106.428 135.428 106.017C134.577 105.613 133.748 104.563 132.822 105.903C132.295 104.79 131.458 104.435 130.327 104.847C130.32 104.847 130.231 104.698 130.245 104.641C130.67 103.137 129.525 103.563 128.846 103.414L126.44 102.74C126.214 101.733 125.85 101.414 125.117 102.393C125.028 102.513 124.685 102.435 124.459 102.449C124.973 100.91 123.506 101.038 122.923 100.818C121.216 100.159 119.392 99.8465 117.637 99.3146C115.711 98.7259 113.812 98.1443 111.789 98.8748C111.227 99.0805 110.281 99.4351 110.076 99.2011C108.752 97.6904 107.381 98.3287 105.942 98.8181C105.187 99.0734 104.673 98.5202 104.941 97.7542C105.708 95.5272 106.442 93.2789 107.354 91.1087C108.094 89.3568 108.759 87.5908 109.177 85.7326C109.328 85.073 109.794 84.5198 108.931 83.8319C108.41 83.4205 108.362 82.385 108.101 81.6262C107.278 81.2503 107.621 80.8957 108.115 80.541C107.553 79.9027 106.545 79.6474 106.517 78.5481C105.763 78.9524 105.393 78.7112 105.4 77.8743ZM192.446 188.92C192.089 189.906 191.513 190.87 191.417 191.884C191.15 194.7 190.869 197.48 189.813 200.14C189.457 201.041 189.464 202.09 189.265 203.062C188.949 204.565 188.62 206.069 188.264 207.565C187.475 210.899 185.885 214.034 185.974 217.594C185.988 218.112 185.672 218.637 185.515 219.162C185.124 220.459 184.726 221.757 184.349 223.062C184.198 223.566 184.123 224.098 183.945 224.594C183.547 225.701 183.115 226.793 182.69 227.892C182.827 227.97 183.054 228.027 183.074 228.133C183.108 228.332 183.026 228.552 182.992 228.765C182.93 228.616 182.855 228.474 182.814 228.318C182.772 228.162 182.779 227.992 182.766 227.821C181.23 230.247 179.317 235.375 179.009 238.141C178.913 238.978 178.782 239.474 177.816 239.58C175.725 239.807 173.641 240.453 171.557 240.432C168.273 240.389 164.989 239.978 161.719 239.644C159.642 239.432 158.963 238.658 159.086 236.481C159.299 232.772 158.435 229.183 157.887 225.594C157.222 221.282 156.262 217.027 155.816 212.665C155.638 210.949 155.288 209.254 154.987 207.558C154.198 203.076 152.971 198.707 151.449 194.452C149.708 189.572 147.829 184.721 145.732 179.99C143.812 175.671 141.419 171.593 138.801 167.671C135.921 163.359 133.008 159.096 129.182 155.578C128.263 154.734 127.235 154.366 126.173 153.954C125.974 153.876 125.549 153.975 125.466 154.132C125.316 154.415 125.199 154.876 125.322 155.132C125.878 156.245 126.46 157.352 127.146 158.38C128.805 160.862 130.567 163.274 132.226 165.763C133.727 168.018 135.044 170.423 136.627 172.614C139.335 176.373 141.296 180.522 142.982 184.827C144.107 187.693 145.025 190.65 146.287 193.445C146.849 194.686 147.254 195.927 147.589 197.218C148.11 199.239 148.611 201.268 149.139 203.289C149.749 205.644 150.393 207.998 150.983 210.36C151.079 210.736 150.935 211.176 150.894 211.679C149.42 211.076 148.392 209.594 146.726 210.417C146.616 210.473 146.28 210.275 146.198 210.112C145.882 209.502 145.279 209.48 144.799 209.197C142.749 207.998 140.46 208.473 138.321 207.977C135.962 207.424 133.494 207.409 131.081 207.083C127.345 206.573 123.595 206.339 119.824 206.502C118.659 206.551 117.438 206.636 116.321 206.367C115.114 206.076 113.908 205.842 112.681 205.807C111.837 205.785 110.939 206.211 110.151 206.041C107.991 205.573 105.859 205.679 103.7 205.892C101.979 206.062 101.547 205.743 101.06 204.111C100.539 202.374 100.018 200.629 99.4356 198.913C97.9274 194.459 96.3163 190.033 94.8766 185.558C92.9296 179.508 91.25 173.38 90.1942 167.089C89.8172 164.855 89.2687 162.649 88.8985 160.408C88.2335 156.465 86.0946 152.834 86.5402 148.649C86.5745 148.33 86.2523 147.982 86.1974 147.635C86.1083 147.039 86.0946 146.429 86.0329 145.607C88.0827 145.819 89.8652 145.45 91.7573 146.018C93.6152 146.571 95.857 146.372 97.3858 145.124C98.8323 143.947 99.9498 142.16 100.793 140.429C101.259 139.472 101.965 137.727 99.8744 137.159C99.6618 137.103 99.6481 136.479 99.4219 136.237C98.3867 135.117 97.3721 133.968 96.234 132.968C95.5073 132.337 94.575 131.961 93.4027 131.273C94.7532 131.273 95.7884 131.039 96.6796 131.315C98.9831 132.032 101.307 131.741 103.597 131.642C105.16 131.578 106.901 131.202 107.011 128.876C107.032 128.365 107.443 127.883 107.642 127.372C107.765 127.053 107.991 126.634 107.889 126.393C107.306 124.989 107.71 122.961 105.599 122.464C105.325 122.4 105.181 121.755 104.975 121.386C105.256 121.202 105.517 121.095 105.702 120.911C106.401 120.237 107.169 119.606 107.738 118.826C108.416 117.897 107.505 117.152 107.244 116.336C107.176 116.109 107.32 115.819 107.278 115.577C107.025 114.201 106.641 112.953 105.462 112.024C104.145 110.989 102.98 109.762 101.808 108.676C102.096 107.875 102.555 107.123 102.617 106.336C102.788 104.336 104.139 103.676 105.667 103.421C108.629 102.925 111.687 102.712 114.587 103.457C120.907 105.074 127.139 107.003 133.042 109.946C136.086 111.464 138.958 113.159 141.646 115.343C144.484 117.648 147.644 119.507 150.277 122.145C154.274 126.159 158.586 129.854 162.473 133.968C165.681 137.358 168.554 141.103 171.433 144.805C174.69 149.004 177.816 153.316 180.935 157.621C182.786 160.174 184.699 162.678 186.207 165.508C187.571 168.054 189.347 170.366 190.944 172.785C190.622 173.707 191.849 173.933 191.76 174.707C191.698 175.224 191.363 175.714 191.335 176.224C191.28 177.09 191.294 177.976 191.431 178.827C191.52 179.38 191.884 179.891 192.192 180.565C192.651 179.983 192.939 179.614 193.385 179.054C193.234 180.345 193.083 181.388 193.008 182.43C192.926 183.558 193.193 184.643 192.569 185.813C192.117 186.65 192.405 187.913 192.363 188.983C192.501 189.168 192.638 189.352 192.754 189.551C192.775 189.586 192.699 189.693 192.665 189.764C192.603 189.487 192.528 189.203 192.446 188.92ZM95.3839 202.239C91.442 202.729 87.6645 201.168 83.8048 201.693C81.2339 200.75 78.574 201.424 75.962 201.268C72.6987 201.069 69.4355 201.353 66.1585 201.658C61.5241 202.083 56.8485 202.048 52.2553 202.998C50.5688 203.346 49.8558 202.828 48.992 201.282C47.8266 199.196 47.1684 196.934 46.6748 194.615C45.9961 191.437 45.1186 188.281 44.7415 185.068C44.2959 181.217 44.4193 177.345 46.997 174.089C47.2164 173.813 47.3329 173.451 47.4769 173.118C49.0605 169.451 50.5825 165.756 52.2416 162.132C53.5099 159.359 54.9496 156.671 56.3961 153.791C57.0954 154.288 57.6164 154.777 58.2265 155.075C59.0355 155.472 59.865 154.976 59.6593 154.174C59.296 152.77 60.3586 151.302 59.3577 149.94C59.152 149.663 59.2137 149.018 59.3783 148.642C60.7151 145.635 63.4025 144.174 66.8509 144.472C67.2005 144.5 67.5639 144.458 67.9066 144.387C73.1169 143.33 78.2038 144.117 83.1192 145.245C82.6325 148.096 82.5845 150.784 82.9479 153.408C83.3249 156.103 84.127 158.727 84.744 161.387C84.9908 162.451 85.3953 163.515 85.4364 164.593C85.5804 168.38 86.6499 171.983 87.5206 175.593C88.8026 180.912 89.9474 186.281 91.9013 191.423C93.2244 194.906 94.1979 198.523 95.3839 202.239ZM108.814 225.963C108.554 225.126 108.122 224.346 108.108 223.566C108.074 221.459 107.155 219.722 106.271 217.928C105.16 215.672 104.125 213.367 103.076 211.126C103.453 210.871 103.597 210.693 103.741 210.686C107.182 210.608 110.631 210.438 114.065 210.523C117.288 210.608 120.503 211.083 123.725 211.176C127.646 211.289 131.575 211.076 135.469 211.729C137.464 212.062 139.486 212.247 141.481 212.608C143.641 212.998 145.773 213.615 147.939 213.963C151.209 214.495 151.463 214.651 152.052 217.849C152.155 218.388 152.183 218.949 152.196 219.502C152.217 220.474 151.943 221.545 152.244 222.41C152.882 224.226 153.184 226.091 153.574 227.956C154.52 232.481 154.952 237.02 154.239 241.623C153.897 243.85 152.443 244.864 150.112 244.595C149.495 244.524 148.865 244.609 148.241 244.602C145.293 244.566 142.338 244.588 139.52 243.481C139.184 243.354 138.842 243.169 138.499 243.162C136.922 243.127 135.345 243.12 133.769 243.162C132.233 243.205 130.725 243.127 129.182 242.928C124.15 242.269 119.056 242.24 113.997 241.843C109.116 241.46 104.207 241.396 99.3054 241.261C95.6445 241.162 91.9767 241.169 88.3089 241.134C87.8633 241.127 87.3423 241.304 86.9858 241.127C85.2651 240.254 83.4963 240.836 81.7481 240.779C79.7531 240.715 77.765 240.339 75.77 240.127C74.9611 240.042 74.8034 239.566 74.7554 238.815C74.7074 237.999 75.0159 237.488 75.4753 236.857C77.4977 234.091 80.4319 232.729 83.3044 231.297C84.7098 230.594 86.2043 229.914 87.7262 229.651C92.5251 228.814 97.3172 227.899 102.226 227.8C103.789 227.765 105.338 227.984 106.895 227.878C107.799 227.814 108.108 227.616 107.738 226.502C107.361 225.339 108.43 226.375 108.814 225.963ZM52.0085 207.601C53.9418 207.289 55.5803 206.892 57.2325 206.785C61.4007 206.523 65.5757 206.417 69.744 206.197C72.2188 206.069 74.6937 205.679 77.1617 205.7C81.3299 205.743 85.4913 205.998 89.6526 206.218C91.723 206.331 93.7934 206.53 95.857 206.778C96.3232 206.835 96.9813 207.126 97.1458 207.502C97.9616 209.367 98.846 211.246 99.3259 213.218C99.9292 215.729 100.814 218.069 102.075 220.282C103.069 222.027 102.863 222.559 101.033 222.878C99.703 223.112 98.2976 223.041 97.2692 224.19C97.2007 224.268 96.9402 224.304 96.9059 224.261C95.7884 222.545 94.5133 224.41 93.3341 224.084C92.9639 225.403 91.8122 224.233 91.1609 224.772C91.0992 224.828 90.5987 223.857 90.1394 224.779C90.0571 224.942 89.1796 224.545 88.734 224.665C86.6156 225.218 84.4013 225.594 82.4474 226.531C78.6151 228.368 74.8102 230.382 72.068 233.885C71.3961 234.744 70.7929 235.176 69.6754 235.141C66.6178 235.056 63.5602 235.141 60.4957 235.141C54.6822 235.141 48.8686 235.127 43.0551 235.119C42.5203 235.119 41.965 235.056 41.4508 235.176C38.119 235.963 34.7118 236.034 31.3388 236.148C28.0892 236.254 24.8191 235.843 21.5558 235.651C20.8977 235.616 20.2396 235.566 19.1016 235.495C20.7058 234.056 21.8301 232.665 23.2561 231.843C26.156 230.169 29.1862 228.758 32.3055 227.481C36.3914 225.814 40.6008 225.041 44.8855 224.594C47.4838 224.325 50.0546 223.977 52.6323 223.601C54.6205 223.311 56.7046 222.474 58.8298 223.431C59.7485 223.85 60.3312 223.247 60.2626 222.119C60.1461 220.282 59.7142 218.516 58.583 217.02C57.2667 215.282 55.9025 213.587 54.641 211.807C53.7292 210.509 52.9408 209.097 52.0085 207.601ZM73.6242 119.074C74.7005 119.762 75.6261 120.684 76.6955 120.925C77.7102 121.152 78.7796 122.138 79.9245 121.244C82.8313 121.308 85.8066 119.996 88.6449 121.67C88.7888 121.755 88.9945 121.719 89.1728 121.719C91.819 121.698 94.2665 122.804 96.8305 123.187C98.6404 123.457 100.162 124.322 101.787 124.996C102.514 125.301 103.22 125.727 103.837 126.23C104.104 126.443 104.31 127.102 104.18 127.372C104.029 127.67 103.487 127.819 103.09 127.904C102.87 127.954 102.603 127.691 102.349 127.649C100.443 127.337 98.5375 126.939 96.6111 126.805C95.8844 126.755 95.144 126.883 94.3693 126.805C91.0032 126.485 87.6165 126.258 84.271 127.202C83.5991 127.393 82.7285 127.053 82.1732 127.379C81.5836 127.727 81.3848 127.805 80.617 127.62C79.3418 127.315 77.8679 127.776 76.5036 128.06C75.8112 128.202 75.7289 129.039 76.2911 129.478C76.7778 129.861 77.2988 130.209 77.7924 130.585C79.3418 131.755 80.994 132.599 82.9684 132.727C84.7029 132.847 86.4511 132.982 88.0484 133.883C88.3089 134.032 88.7408 133.84 89.0905 133.833C89.4058 133.826 89.7555 133.748 90.0229 133.869C90.825 134.216 91.5791 134.663 92.3743 135.025C94.2185 135.869 95.6376 137.259 96.9196 138.805C97.612 139.642 97.1801 141.748 96.2409 141.883C95.096 142.046 93.8963 143.656 92.7171 141.918C92.6485 141.812 92.388 141.84 92.2098 141.819C90.1874 141.606 88.165 141.429 86.1494 141.188C83.2564 140.84 80.3633 140.465 77.4839 140.053C76.7092 139.947 75.962 139.585 75.1942 139.528C74.1247 139.443 73.0415 139.464 71.9789 139.55C70.9368 139.635 69.8742 139.762 68.8733 140.06C67.8861 140.358 66.4875 139.33 65.9117 140.996C64.6502 140.294 63.9372 141.124 63.2585 142.025C61.1881 140.94 60.9688 145.032 58.823 143.72C58.7475 143.883 58.6721 144.053 58.583 144.209C58.3568 144.599 58.1237 144.982 57.8837 145.358C57.3216 146.245 56.019 146.245 55.546 145.287C53.7087 141.535 52.0565 137.699 51.0967 133.592C50.37 130.493 49.8696 127.322 48.9235 124.294C48.0254 121.414 48.7726 118.677 48.992 115.882C49.0194 115.549 49.465 115.131 49.8078 114.975C51.652 114.116 53.5167 113.322 55.3814 112.521C55.5254 112.457 55.7722 112.4 55.8476 112.471C57.1091 113.684 58.0209 112.627 59.0492 112.024C59.7279 111.627 60.4957 111.357 61.243 111.095C63.3202 110.364 65.3838 109.641 67.5913 109.315C69.5451 109.024 71.4304 108.272 73.4186 109.088C73.6379 109.18 73.9122 109.216 74.1452 109.173C77.2166 108.591 80.2399 109.386 83.2632 109.655C84.2367 109.74 85.0937 109.372 86.0397 109.549C89.1522 110.152 92.2784 110.655 95.4045 111.187C95.8021 111.251 95.9255 111.336 95.905 111.84C95.8844 112.294 96.2615 112.769 96.4123 113.116C97.2898 112.868 98.1399 112.301 98.7363 112.513C101.108 113.35 103.096 114.755 103.809 117.655C100.855 118.145 98.0371 117.67 95.5416 116.556C91.9493 114.953 88.3432 115.684 84.7578 115.776C82.0978 115.847 79.5132 116.868 76.8258 117.102C75.5918 117.209 74.3235 117.436 73.6242 119.074ZM183.362 239.552C184.898 235.127 186.378 231.063 187.708 226.942C188.737 223.757 189.573 220.509 190.492 217.289C190.588 216.942 190.725 216.587 190.732 216.232C190.835 212.708 192.062 209.445 192.891 206.083C193.049 205.452 193.296 205.19 193.844 204.963C194.612 204.643 194.783 205.204 195.003 205.665C195.49 206.7 196.518 207.31 197.354 207.154C198.403 206.963 198.924 207.402 199.294 208.076C199.733 208.871 200.186 209.289 201.111 209.204C201.502 209.168 202.167 209.31 202.284 209.58C203.188 211.58 205.266 212.098 206.657 213.466C207.494 214.289 208.227 215.303 209.208 215.871C210.997 216.899 212.471 218.381 213.664 219.928C214.74 221.318 216.022 222.417 217.181 223.665C218.922 225.545 220.821 227.275 222.549 229.169C225.531 232.446 224.633 232.027 222.37 234.9C220.348 237.467 217.757 239.573 216.859 242.949C216.817 243.098 216.721 243.354 216.66 243.354C215.021 243.325 215.179 244.949 214.514 245.808C213.458 247.176 212.156 248.389 211.34 249.893C209.742 252.865 207 253.418 204.21 253.964C203.332 254.134 202.983 253.517 203.326 252.531C203.689 251.503 204.121 250.51 204.539 249.503C206.465 244.878 209.4 240.85 211.806 236.502C212.176 235.836 212.018 235.467 211.689 235.105C211.429 234.822 210.853 234.509 210.599 234.63C209.187 235.268 207.597 235.651 206.568 236.978C205.355 238.545 204.025 240.056 203.024 241.765C201.625 244.134 199.329 245.439 197.45 247.226C196.792 247.85 195.771 248.063 194.838 248.496C195.579 245.9 196.292 243.503 196.936 241.084C197.286 239.772 197.375 238.368 197.855 237.119C198.959 234.261 200.069 231.389 201.913 228.899C202.407 228.24 202.071 227.736 201.18 227.58C199.082 227.219 197.108 227.736 196.004 229.566C194.523 232.02 192.603 234.034 190.746 236.112C188.833 238.247 186.447 239.495 183.362 239.552ZM39.401 37.5825C40.3128 37.8166 41.4646 37.7811 41.0669 39.2421C42.0816 39.4974 41.4988 40.6535 41.965 41.0506C42.6094 41.6039 43.5281 41.7954 44.2616 42.2635C46.1538 43.4692 48.3887 43.9585 50.1643 45.4692C51.4463 46.5615 52.982 47.3558 54.4765 48.136C55.1758 48.4977 55.7928 49.2566 56.9034 48.6182C57.3764 48.3487 58.4322 49.1927 59.2343 49.4835C59.4674 49.5686 59.8102 49.5544 60.0227 49.4338C61.3115 48.7246 62.3742 49.7601 63.2037 50.2495C65.7608 51.7743 68.0986 53.6822 70.5255 55.4411C68.1329 55.6042 65.9185 55.2425 63.6904 55.0368C59.9199 54.6822 56.2247 54.0226 52.5912 52.8595C48.2927 51.4765 43.8709 50.8594 39.3462 51.1006C38.5783 51.1431 37.7968 50.8523 37.0084 50.7743C35.13 50.5899 33.5326 49.5828 31.805 48.9516C28.3292 47.682 27.1638 46.1217 26.9444 42.3486C26.8484 40.7031 26.3959 39.4762 24.8191 38.5613C23.6811 37.9017 22.6939 37.008 21.3776 36.5754C19.7048 36.0292 18.0732 35.2987 16.4964 34.5044C14.9333 33.71 14.522 32.5753 15.379 31.1781C16.1331 29.9582 17.0586 28.7596 18.1486 27.8801C19.5746 26.7383 21.3913 26.0928 22.7693 24.9013C24.1267 23.724 25.5184 23.8304 27.0198 23.9793C27.3557 24.0148 27.6848 24.2417 28.007 24.2204C31.709 23.958 35.2739 24.8162 38.8526 25.5822C39.3325 25.6815 39.9837 26.0006 40.1483 26.3978C40.779 27.9581 42.1981 28.8163 43.0756 30.1639C43.5966 30.9582 43.2676 31.4901 42.9591 31.7596C41.1766 33.3058 40.5322 35.5328 39.401 37.5825ZM142.928 26.2418C144.141 28.7312 145.211 33.6391 144.909 35.3767C144.436 38.0718 143.97 40.7741 143.421 43.455C142.859 46.2068 142.605 46.6536 140.665 48.4693C139.562 49.5048 138.252 50.3275 137.231 51.4481C136.298 52.4765 135.668 53.7815 134.002 53.6893C133.844 53.6822 133.679 54.8382 133.46 54.8595C132.905 54.9092 132.329 54.5475 131.753 54.5049C131.444 54.4836 131.122 54.8524 130.786 54.9163C130.025 55.0652 129.066 55.4695 128.524 55.1574C127.688 54.668 127.146 54.3063 126.508 55.278C126.173 54.1503 125.226 54.5333 124.486 54.4269C121.771 54.0439 119.049 53.7035 116.342 53.2921C115.464 53.1573 114.847 52.8098 114.449 51.7247C113.387 48.8594 113.332 46.0295 113.894 43.072C114.545 39.6677 115.018 36.2349 115.642 32.8235C115.951 31.1497 116.424 29.5185 116.835 27.8234C121.257 29.9653 135.688 29.0149 142.928 26.2418ZM74.3372 91.8888C75.0776 92.1087 75.7769 92.2151 76.3939 92.52C80.1713 94.3711 84.2916 93.9031 88.261 94.4492C88.3501 94.4634 88.4461 94.4775 88.5283 94.4421C90.1531 93.7825 91.867 94.1087 93.5261 93.8889C95.1371 93.6761 96.8716 93.7115 98.1947 92.3356C98.5375 91.981 99.2437 91.9314 99.799 91.8888C100.683 91.8179 101.581 91.8676 102.356 91.8676C102.356 92.6123 102.356 93.3002 102.356 93.9882C102.356 94.2719 102.452 94.6265 102.329 94.818C100.718 97.2719 100.718 97.2648 100.855 99.1727C100.868 99.35 100.724 99.5486 100.649 99.733C99.5179 99.2436 99.5659 100.088 99.4356 100.832C99.3602 101.265 99.2162 101.868 98.9146 102.052C97.7286 102.769 97.9891 103.946 97.8725 105.01C97.7971 105.691 97.756 106.379 97.7011 107.038C90.2697 105.449 82.8313 105.464 75.2764 104.861C76.4967 103.769 77.0589 102.854 76.8189 101.797C76.0648 98.5415 75.201 95.3216 74.3372 91.8888ZM100.615 88.3072C100.711 87.6476 100.93 87.144 100.786 86.832C100.574 86.3993 100.402 85.1085 99.5179 86.4064C99.1408 86.9596 98.6815 86.5908 98.421 86.2575C97.9822 85.7043 97.7766 84.8674 97.2487 84.4986C95.617 83.3496 94.0265 81.924 91.7642 82.7042C91.5242 82.7893 91.0238 82.612 90.8798 82.3921C90.1737 81.2786 88.7409 82.2929 88.0347 81.2857C85.5461 81.6262 83.0576 82.0162 80.5621 82.2857C79.5818 82.3921 79.191 83.307 78.3272 83.6546C77.2646 84.0801 75.8317 84.0376 75.1942 84.7326C74.2207 85.7894 73.9396 85.066 73.4803 84.5199C72.589 83.4773 72.4588 82.1794 72.6439 80.8815C73.0346 78.1296 76.2911 74.8742 78.951 74.4983C81.6796 74.1153 84.4149 73.9097 87.1846 73.8884C92.2441 73.86 96.9745 74.7678 101.3 77.6757C103.522 79.1722 104.509 81.5269 105.811 83.683C106.017 84.0305 105.9 84.5837 105.928 85.0447C105.969 85.8887 105.613 86.4277 104.824 86.7185C103.487 87.1866 102.171 87.7114 100.615 88.3072ZM72.4999 105.152C71.8555 105.237 71.3413 105.23 70.8683 105.386C69.4492 105.854 68.4345 105.471 67.4747 104.23C66.2819 102.676 64.8422 101.329 63.5191 99.8819C61.6749 97.8748 61.3184 94.9102 62.5798 92.286C63.6562 90.0661 66.1996 88.7043 68.7568 88.9242C69.504 88.988 69.8742 89.2434 69.9496 90.0519C70.0799 91.4562 70.2444 92.8605 70.4912 94.2435C70.642 95.1017 71.0602 95.9102 71.2042 96.7684C71.6772 99.5273 72.068 102.293 72.4999 105.152ZM138.492 18.3267C138.122 19.2558 138.088 19.7097 137.868 19.8445C135.928 21.0076 135.373 21.1069 133.446 20.731C135.023 19.9792 136.463 19.2983 138.492 18.3267ZM47.0519 28.639C45.3722 29.3979 45.0295 27.9936 44.4262 27.1638C45.2146 27.6106 46.0029 28.0503 47.0519 28.639ZM94.5613 26.0786C94.4036 25.9581 94.2528 25.8375 94.0951 25.7169C94.4584 24.958 94.6161 24.0573 95.9118 23.2346C95.3017 24.5183 94.9315 25.2985 94.5613 26.0786ZM136.017 5.63131C135.907 5.69514 135.805 5.75898 135.695 5.82281C135.572 5.59586 135.407 5.39017 135.325 5.14903C135.222 4.84406 134.255 5.08523 134.852 4.38308C135.325 3.82279 135.592 4.3689 135.791 4.69515C135.942 4.95048 135.949 5.31215 136.017 5.63131ZM141.721 10.0286C141.748 9.8371 141.762 9.70237 141.783 9.57471C141.934 9.63854 142.139 9.6598 142.221 9.78037C142.304 9.89385 142.256 10.1066 142.269 10.2697C142.084 10.1846 141.899 10.1066 141.721 10.0286ZM58.4733 96.4421C58.4116 96.4421 58.3431 96.4421 58.2814 96.4421C58.2814 96.045 58.2814 95.6549 58.2814 95.2577C58.3431 95.2577 58.4116 95.2577 58.4733 95.2577C58.4733 95.6549 58.4733 96.0521 58.4733 96.4421ZM143.27 12.518C143.222 12.3762 143.154 12.2343 143.133 12.0854C143.126 12.0287 143.222 11.9577 143.264 11.8939C143.312 12.0428 143.38 12.1847 143.401 12.3336C143.414 12.3833 143.318 12.4542 143.27 12.518ZM105.571 99.6834C105.743 99.6479 105.887 99.6195 106.031 99.5912C106.038 99.6975 106.065 99.811 106.044 99.9103C106.038 99.9387 105.88 99.9742 105.825 99.9458C105.729 99.889 105.661 99.7827 105.571 99.6834ZM59.9747 107.421C59.8924 107.535 59.817 107.719 59.7348 107.726C59.5908 107.74 59.44 107.634 59.2892 107.577C59.3646 107.471 59.4331 107.279 59.5154 107.272C59.6593 107.265 59.8102 107.364 59.9747 107.421ZM71.2796 93.0662C71.3413 93.2364 71.4167 93.3853 71.4441 93.5413C71.451 93.5981 71.355 93.669 71.3002 93.74C71.2316 93.6336 71.1082 93.5272 71.1014 93.4137C71.0945 93.3073 71.2111 93.1938 71.2796 93.0662ZM190.506 165.862C190.56 165.926 190.67 166.004 190.67 166.061C190.656 166.224 190.588 166.387 190.54 166.55C190.485 166.486 190.375 166.423 190.382 166.366C190.403 166.189 190.464 166.025 190.506 165.862ZM89.3099 179.671C89.3647 179.529 89.4127 179.388 89.4675 179.246C89.5224 179.281 89.6115 179.317 89.6184 179.359C89.6321 179.501 89.6115 179.65 89.6046 179.792C89.5018 179.756 89.4058 179.714 89.3099 179.671ZM42.0747 186.905C42.1227 186.756 42.1707 186.6 42.2118 186.451C42.2666 186.515 42.3695 186.586 42.3626 186.65C42.3489 186.806 42.2872 186.955 42.2392 187.104C42.1913 187.04 42.1364 186.969 42.0747 186.905ZM132.521 4.11357C132.678 4.0852 132.829 4.03552 132.987 4.03552C133.056 4.03552 133.124 4.12773 133.193 4.17738C132.973 4.20575 132.754 4.23411 132.535 4.26248C132.535 4.21284 132.528 4.16322 132.521 4.11357ZM50.226 220.346C50.3768 220.296 50.5071 220.233 50.6442 220.211C50.6991 220.204 50.7676 220.289 50.8293 220.332C50.7333 220.403 50.6374 220.53 50.5414 220.53C50.4386 220.545 50.3357 220.424 50.226 220.346ZM94.8286 224.715C94.8149 224.772 94.8081 224.864 94.7738 224.885C94.6984 224.921 94.6093 224.921 94.527 224.928C94.5476 224.835 94.5681 224.743 94.5887 224.651C94.6641 224.672 94.7464 224.694 94.8286 224.715ZM83.5923 227.02C83.654 226.97 83.7225 226.871 83.7705 226.878C83.9145 226.906 84.0448 226.97 84.1887 227.027C84.127 227.07 84.0585 227.155 84.0036 227.148C83.8597 227.126 83.7294 227.07 83.5923 227.02ZM141.083 23.5609C141.221 23.5041 141.358 23.4261 141.502 23.3906C141.55 23.3836 141.618 23.4899 141.68 23.5396C141.598 23.6318 141.502 23.802 141.426 23.7949C141.303 23.7807 141.193 23.646 141.083 23.5609ZM79.9451 244.183C79.9862 244.368 80.0205 244.531 80.0548 244.694C79.9382 244.701 79.8148 244.723 79.6983 244.701C79.6709 244.694 79.6297 244.517 79.664 244.453C79.7326 244.347 79.8423 244.276 79.9451 244.183Z" fill="#1D3D6C"/>
<path d="M26.9668 50.4906C26.9462 50.3274 26.9394 50.1573 26.9325 49.9941C26.6514 50.0863 26.3703 50.1856 26.0961 50.2778C26.3841 50.3487 26.6789 50.4196 26.9668 50.4906Z" fill="#1D3D6C"/>
<path d="M29.3156 18.1432C29.4732 18.1928 29.6241 18.2638 29.7817 18.2921C29.8229 18.2992 29.8846 18.1715 29.9395 18.1077C29.7886 18.0581 29.6378 17.9942 29.4801 17.973C29.4321 17.9659 29.3704 18.0864 29.3156 18.1432Z" fill="#1D3D6C"/>
<path d="M106.497 78.6747C106.607 77.8165 106.278 77.2703 105.441 77.0859C105.428 77.3484 105.414 77.6108 105.4 77.8803C105.764 78.1427 106.127 78.4122 106.497 78.6747Z" fill="#1D3D6C"/>
<path d="M231.052 121.2C231.058 121.03 231.1 120.846 231.065 120.69C231.031 120.526 230.921 120.377 230.846 120.229C230.798 120.448 230.709 120.675 230.729 120.888C230.743 120.994 230.976 121.065 231.113 121.158L231.052 121.2Z" fill="#1D3D6C"/>
<path d="M60.2832 89.5348C60.2763 89.1447 60.2695 88.7475 60.2626 88.3574C59.7827 88.7546 59.6319 89.1518 60.2832 89.5348Z" fill="#1D3D6C"/>
<path d="M108.027 80.543C108.034 80.9401 108.034 81.3373 108.041 81.7345C108.644 81.3302 108.603 80.933 108.027 80.543Z" fill="#1D3D6C"/>
<path d="M190.828 148.994C190.828 148.597 190.828 148.2 190.828 147.803C190.108 148.2 190.115 148.597 190.828 148.994Z" fill="#1D3D6C"/>
<path d="M91.9098 71.1796C92.2937 71.1796 92.6776 71.1725 93.0547 71.1725C92.6708 70.5413 92.2868 70.2789 91.9098 71.1796Z" fill="#1D3D6C"/>
<path d="M127.981 50.5034C128.866 50.5034 129.757 50.5601 130.641 50.4892C131.594 50.4112 132.163 49.7658 132.218 48.7091C132.232 48.4396 131.992 47.9785 131.766 47.9005C128.88 46.8792 126.082 45.631 123.299 44.3543C122.127 43.8153 121.009 44.4536 121.009 45.7232C121.002 47.8367 122.175 48.8084 124.204 49.8651C125.52 50.5389 126.713 50.4609 127.981 50.5034Z" fill="#1D3D6C"/>
<path d="M132.714 33.4414C131.185 34.9024 130.98 36.6756 131.192 38.5621C131.357 40.0161 131.494 41.4771 131.802 42.8956C131.891 43.314 132.502 43.8105 132.934 43.8814C133.235 43.9311 133.715 43.3637 133.976 42.9807C135.456 40.782 134.695 38.477 134.078 36.2642C133.818 35.3067 134.229 33.9166 132.714 33.4414Z" fill="#1D3D6C"/>
<path d="M141.281 35.0096C141.062 34.6692 140.623 33.9316 140.123 33.2437C140.04 33.1302 139.663 33.2082 139.437 33.2649C137.504 33.7117 136.297 35.0309 136.037 36.953C135.865 38.2012 136.667 39.2793 137.888 39.4495C139.869 39.719 140.918 38.8608 141.144 36.7685C141.185 36.3572 141.206 35.9529 141.281 35.0096Z" fill="#1D3D6C"/>
<path d="M122.533 36.065C122.567 37.6963 123.259 38.753 124.157 39.6467C124.377 39.8665 124.973 39.8807 125.302 39.7389C126.66 39.1502 127.057 37.7885 127.379 36.4906C127.784 34.8948 126.029 34.5898 125.515 33.5047C125.343 33.1359 123.465 33.9231 123.143 34.5402C122.855 35.0934 122.67 35.7033 122.533 36.065Z" fill="#1D3D6C"/>
<path d="M307.998 254.778C308.135 254.608 308.334 254.261 308.41 254.282C309.692 254.722 310.398 253.289 311.652 253.296C312.756 253.303 313.922 252.622 314.957 252.048C315.999 251.48 316.952 250.707 317.898 249.963C319.152 248.97 320.517 248.055 321.531 246.835C322.052 246.204 322.087 244.97 322.032 244.033C321.888 241.65 321.963 239.296 322.313 236.941C321.428 235.239 322.532 233.608 322.58 231.941C322.669 228.813 323.019 225.692 322.532 222.586C322.148 220.118 321.881 217.614 322.004 215.16C322.265 209.884 321.182 204.699 321.312 199.444C321.394 196.025 320.914 192.592 321.586 189.181C321.696 188.628 321.531 188.025 321.518 187.443C321.504 186.812 321.518 186.287 321.915 185.635C322.292 185.018 322.025 183.911 321.881 183.053C321.792 182.514 321.271 182.053 321.168 181.514C320.969 180.479 320.633 179.776 319.591 179.28C318.851 178.925 318.309 178.386 317.356 178.5C316.883 178.557 315.985 178.677 315.807 177.72C314.052 176.847 312.352 175.571 310.295 175.982C309.287 176.188 308.355 176.301 307.347 176.166C306.805 176.095 306.278 176.28 305.818 175.727C305.613 175.486 305.078 175.457 304.701 175.486C303.611 175.564 302.521 175.698 301.438 175.854C300.786 175.947 299.929 175.606 299.655 176.677C299.628 176.776 299.251 176.854 299.052 176.826C296.207 176.4 293.896 177.734 292.052 179.649C291.147 180.585 289.906 181.464 289.55 182.925C289.372 183.635 289.07 184.344 289.043 185.06C289.001 186.252 289.063 187.457 289.214 188.635C289.351 189.734 289.104 190.734 288.899 191.791C288.618 193.259 287.959 194.77 288.782 196.309C289.022 196.756 288.83 197.153 288.432 197.585C288.035 198.018 287.719 198.77 287.747 199.358C287.877 201.933 287.322 204.422 287.013 206.947C286.972 207.274 287.075 207.628 286.993 207.933C286.801 208.699 287.493 209.345 287.082 210.217C286.76 210.891 286.952 211.813 286.869 212.614C286.513 216.04 286.108 219.465 285.793 222.898C285.526 225.827 285.382 228.771 285.149 231.707C285.053 232.92 284.868 234.125 284.744 235.338C284.415 238.523 284.011 241.707 284.381 244.927C284.49 245.877 284.621 246.537 285.772 246.381C285.992 246.353 286.314 246.771 286.527 247.033C287.493 248.211 288.028 249.679 289.269 250.707C291.648 252.672 294.438 253.495 297.269 254.253C298.942 254.7 300.635 255.126 302.404 254.934C302.5 254.927 302.617 255.147 302.726 255.254C303.206 255.211 303.686 255.161 304.166 255.119C304.742 254.353 305.366 254.112 306.086 254.941C306.716 254.899 307.361 254.835 307.998 254.778ZM305.112 191.479C306.017 191.294 307.073 191.55 307.717 190.557C307.765 190.479 308.026 190.436 308.087 190.493C309.383 191.621 310.809 190.805 312.16 190.763C313.894 190.706 315.622 190.465 317.356 190.301C317.02 193.656 317.034 197.025 317.212 200.415C317.329 202.642 317.356 204.898 317.281 207.11C317.178 210.302 316.979 213.472 317.295 216.664C317.384 217.572 317.569 218.515 317.411 219.387C316.869 222.38 317.192 225.359 317.274 228.345C317.295 229.083 317.301 229.827 317.199 230.558C316.835 233.139 316.486 235.742 316.774 238.331C316.986 240.281 316.678 242.111 316.198 243.913C315.67 245.884 314.765 247.594 312.845 248.658C310.946 249.714 308.636 249.331 306.881 250.707C305.743 250.09 304.865 251.452 303.72 251.126C302.665 250.828 301.54 250.523 300.478 250.622C299.34 250.736 298.531 250.019 297.523 249.856C294.904 249.424 293.677 248.821 291.99 247.636C290.023 246.253 289.44 243.941 288.282 242.019C288.151 241.799 288.282 241.395 288.316 241.083C288.638 237.501 288.988 233.927 289.289 230.345C289.557 227.118 289.804 223.884 290.009 220.657C290.208 217.501 290.304 214.33 290.517 211.174C290.798 206.933 291.319 202.699 291.394 198.458C291.442 195.763 292.21 193.252 292.422 190.649C293.224 190.642 293.951 190.479 294.568 190.67C296.303 191.209 297.982 191.947 299.813 191.046C300.012 190.947 300.382 191.209 300.677 191.316C301.04 191.45 301.581 191.812 301.725 191.692C302.822 190.734 303.967 191.521 305.078 191.479C305.044 191.259 305.009 191.046 304.975 190.826C305.064 190.833 305.146 190.841 305.236 190.841C305.201 191.06 305.16 191.266 305.112 191.479ZM304.646 188.379C304.344 188.351 304.104 188.344 303.871 188.316C300.889 187.968 297.907 187.656 294.938 187.266C292.923 186.996 292.937 186.954 293.135 184.663C293.163 184.337 293.087 184.003 293.033 183.677C292.916 182.975 293.32 182.635 293.828 182.308C297.866 179.698 302.356 178.783 307.011 178.798C310.768 178.812 314.189 180.457 317.658 181.762C318.014 181.897 318.343 182.181 318.638 182.443C319.351 183.081 319.475 183.656 318.892 184.351C317.514 185.996 315.937 187.259 313.613 186.812C313.181 186.727 312.633 186.635 312.283 186.826C309.842 188.138 307.004 187.131 304.646 188.379ZM300.971 176.493C300.93 176.549 300.882 176.663 300.841 176.663C300.704 176.663 300.567 176.613 300.43 176.585C300.553 176.514 300.67 176.436 300.8 176.393C300.848 176.372 300.923 176.457 300.971 176.493ZM317.651 197.408C317.678 197.273 317.699 197.131 317.726 196.997C317.768 197.053 317.85 197.11 317.85 197.167C317.85 197.302 317.816 197.429 317.795 197.564C317.747 197.514 317.699 197.465 317.651 197.408Z" fill="#1D3D6C"/>
<path d="M344.62 108.129C343.125 106.944 342.508 106.866 341.405 108.114C341.041 108.526 340.644 108.448 340.376 108.646C339.615 109.214 338.758 109.866 338.381 110.703C336.997 113.746 334.755 116.115 332.787 118.696C331.807 119.987 330.854 121.299 329.812 122.696C330.888 122.916 331.642 124.122 332.513 122.668C332.835 122.122 333.665 123.725 334.309 122.689C336.64 122.526 337.936 121.051 338.937 119.023C340.603 115.661 342.392 112.363 344.147 109.044C344.243 108.859 344.49 108.76 344.668 108.618C344.647 108.462 344.634 108.299 344.62 108.129Z" fill="#1D3D6C"/>
<path d="M307.614 170.748C308.855 170.649 310.027 169.89 311.295 170.308C312.639 169.138 314.668 168.769 315.415 166.947C315.888 165.798 316.704 164.925 317.198 163.826C317.362 163.457 317.712 163.131 317.767 162.755C318.185 160.124 319.309 157.648 319.289 154.904C319.261 150.655 319.186 146.45 317.26 142.535C316.869 141.74 316.643 140.854 316.423 139.988C315.758 137.364 314.168 135.513 311.953 134.173C310.431 133.251 308.923 132.314 307.374 131.449C306.174 130.775 306.201 130.882 304.967 131.882C302.897 133.556 302.026 136.002 301.073 138.35C299.647 141.868 298.455 145.485 297.104 149.031C296.501 150.613 295.705 152.109 295.095 153.684C294.684 154.733 294.451 155.861 294.136 156.953C293.992 157.457 293.868 157.918 294.65 157.897C294.698 157.897 294.855 158.4 294.787 158.613C294.65 159.053 294.142 159.535 294.238 159.854C294.615 161.117 295.198 162.251 295.39 163.642C295.555 164.833 296.357 166.337 297.317 166.904C298.688 167.713 299.606 169.202 301.471 169.436C302.78 169.599 304.028 170.578 305.502 170.578C306.201 170.571 306.908 170.684 307.614 170.748ZM306.983 135.421C307.669 136.385 308.306 137.322 308.971 138.222C309.876 139.449 310.856 140.62 311.706 141.882C313.427 144.45 314.456 147.364 315.299 150.329C315.744 151.897 316.149 153.563 316.108 155.173C316.046 157.627 315.621 160.102 313.811 161.961C312.577 163.223 311.377 164.634 309.91 165.521C308.759 166.216 307.319 167.117 305.9 166.634C303.432 165.805 300.792 165.173 299.462 162.351C299.126 161.641 298.934 161.159 299.065 160.344C299.216 159.329 299.277 158.053 298.804 157.251C298.078 156.024 298.496 155.109 298.893 154.081C299.099 153.549 299.421 153.067 299.654 152.549C301.169 149.13 303.445 146.081 304.117 142.244C304.35 140.925 305.255 139.712 305.386 138.4C305.516 137.01 306.14 136.18 306.983 135.421Z" fill="#1D3D6C"/>
<path d="M279.629 93.4492C277.696 95.1443 277.333 96.8394 277.916 98.9246C278.464 100.896 278.91 102.882 279.904 104.691C280.72 106.159 281.528 107.634 282.289 109.138C283.16 110.868 283.935 112.641 284.812 114.365C285.374 115.464 285.971 116.563 286.698 117.549C287.04 118.017 287.733 118.187 288.247 118.535C288.747 118.868 289.076 118.521 289.152 118.166C289.611 115.989 289.94 113.819 288.72 111.726C287.253 109.216 285.827 106.677 284.435 104.109C283.942 103.194 283.626 102.173 283.194 101.215C282.07 98.726 280.911 96.2365 279.629 93.4492Z" fill="#1D3D6C"/>
<path d="M305.915 94.2832C303.878 96.7797 302.761 99.638 302.5 102.922C302.281 105.674 301.877 108.411 301.493 111.149C301.397 111.823 301.698 111.943 302.158 112.199C302.651 112.475 303.104 112.624 303.364 112.078C303.981 110.808 305.325 110.227 305.983 109.071C306.73 107.752 307.279 106.298 307.834 104.872C307.999 104.447 308.012 103.865 307.875 103.425C307.299 101.51 307.176 99.6096 307.368 97.6025C307.546 95.7301 307.272 95.4464 305.915 94.2832Z" fill="#1D3D6C"/>
<path d="M327.625 91.959C326.419 93.1647 325.425 94.0938 324.52 95.108C324.355 95.2924 324.622 95.8314 324.54 96.1719C324.506 96.335 323.951 96.3775 323.923 96.5265C323.621 98.1932 323.244 99.867 323.176 101.548C323.142 102.349 321.674 101.824 322.346 102.668C322.84 103.293 322.483 103.775 322.387 104.229C322.223 105.016 321.818 105.747 321.517 106.498C320.269 106.385 321.016 107.555 320.632 108.059C320.18 108.654 320.235 109.633 319.885 110.35C319.577 110.995 318.96 111.484 318.596 112.116C318.425 112.406 318.37 113.101 318.514 113.201C318.912 113.47 319.789 113.747 319.878 113.605C320.516 112.633 321.873 113.619 322.449 112.435C322.922 111.456 323.717 110.647 324.3 109.711C324.444 109.484 324.328 109.073 324.293 108.754C324.177 107.477 325.157 106.3 324.616 104.973C324.568 104.86 324.643 104.583 324.739 104.527C326.268 103.612 325.726 101.718 326.535 100.505C327.084 99.6755 325.966 98.7464 326.645 98.3138C327.659 97.6684 326.892 96.6399 327.433 95.8881C327.865 95.2853 327.913 94.3491 328.023 93.5477C328.071 93.1931 327.845 92.7959 327.625 91.959Z" fill="#1D3D6C"/>
<path d="M307.005 148.91C307.615 150.726 306.779 152.031 305.785 153.393C304.661 154.932 303.605 156.534 303.358 158.598C303.289 159.152 302.268 159.676 302.919 160.421C303.735 161.35 304.194 162.598 305.689 162.939C306.635 163.159 307.684 162.535 308.513 163.35C309.192 162.698 310.145 162.173 310.495 161.364C311.674 158.62 312.161 155.761 310.824 152.868C310.591 152.357 310.378 151.832 310.172 151.314C309.309 149.187 309.309 149.187 307.005 148.91Z" fill="#1D3D6C"/>
</svg>
