<svg width="274" height="163" viewBox="0 0 274 163" fill="none" xmlns="http://www.w3.org/2000/svg">
<path d="M241.691 0.0289101C241.402 1.64877 242.212 2.18392 243.687 1.9959C244.671 1.86573 245.451 1.48967 245.813 3.09506C246.276 5.1488 247.491 7.01455 248.069 9.03937C248.402 10.2253 248.445 11.6716 248.084 12.8287C246.247 18.7296 242.761 23.5602 238.003 27.4797C236.962 28.333 235.863 29.1285 234.807 29.9529C233.23 31.1677 232.319 32.4694 233.389 34.6099C233.794 35.4199 233.679 36.6926 233.375 37.6183C232.811 39.3972 233.1 40.8001 234.055 42.4055C234.807 43.6493 235.082 45.2547 235.342 46.7299C236.108 51.011 236.803 55.292 237.439 59.5875C237.656 61.0917 237.555 62.6392 237.757 64.1578C237.902 65.2426 238.321 66.2839 238.639 67.3397C238.914 68.2653 239.305 69.1476 239.478 70.0877C240.158 73.8625 240.766 77.6663 241.532 82.1788C242.834 81.0796 243.702 80.4432 244.454 79.7056C250.673 73.5588 256.762 67.2674 263.111 61.2652C266.018 58.5173 269.272 56.0296 273.438 55.321C273.438 56.0007 273.438 56.6805 273.438 57.3747C270.661 62.726 266.553 67.0938 262.836 71.7654C261.693 73.2117 260.392 74.5423 259.119 75.8873C255.764 79.4308 252.321 82.873 249.053 86.5032C247.086 88.6871 247.332 88.8606 250.354 90.5239C253.999 92.5342 257.369 95.0942 261.144 96.7719C264.065 98.0736 267.059 99.0426 269.561 101.834C268.809 102.572 268.115 103.439 267.247 104.032C266.741 104.379 265.627 104.032 265.324 104.423C262.315 108.154 259.394 105.652 256.545 104.322C252.481 102.427 248.489 100.344 244.121 98.1748C244.063 99.1005 243.904 99.8525 243.976 100.59C244.15 102.253 244.483 103.902 244.685 105.565C245.076 108.805 243.687 112.204 245.596 115.357C245.958 115.95 245.741 117.078 245.451 117.816C245.278 118.264 244.323 118.828 243.933 118.698C242.66 118.278 241.387 117.7 240.288 116.933C239.42 116.326 239.522 113.795 237.54 115.718C237.106 115.241 236.528 114.836 236.267 114.272C234.243 109.933 233.592 105.377 234.228 100.619C234.358 99.6211 234.431 98.5798 234.286 97.5963C233.548 92.462 232.681 87.342 231.972 82.1932C231.365 77.8543 230.916 73.4865 230.396 69.1331C230.251 67.9616 230.092 66.7901 229.889 65.6186C228.617 58.5028 227.098 51.4304 227.301 44.1121C227.358 41.7981 226.621 39.4695 226.274 37.1554C226.042 35.6513 225.059 35.7815 224.017 36.1141C220.488 37.2278 217.003 38.4571 213.445 39.4551C211.999 39.86 210.379 40.0625 208.932 39.8022C208.021 39.6431 207.284 38.4427 206.474 37.705C207.269 37.2133 208.036 36.6637 208.86 36.2443C209.106 36.1141 209.54 36.2442 209.844 36.36C212.649 37.5315 214.645 35.9261 216.771 34.4943C217.856 33.7711 219.057 33.1058 220.3 32.7732C224.35 31.6884 225.984 29.3888 224.784 25.4115C223.829 22.273 224.263 19.3225 225.276 16.4299C227.865 9.0972 230.106 6.17568 236.427 1.88017C237.685 1.02686 239.232 0.607446 240.65 0C241.011 0.028926 241.344 0.0289101 241.691 0.0289101ZM242.993 9.48772C242.516 8.54763 242.212 7.3472 241.46 6.63851C240.115 5.40916 239.464 7.15917 238.524 7.66537C238.379 7.73769 238.263 7.86789 238.119 7.92574C232.912 10.2398 231.957 11.6572 231.176 17.3556C230.873 19.5974 229.803 21.7668 231.09 24.052C231.191 24.24 230.526 24.8764 230.208 25.3102C230.858 25.3102 231.683 25.5706 232.131 25.2669C235.776 22.7792 238.437 19.2792 241.055 15.8514C242.27 14.2894 242.328 11.8741 242.993 9.48772Z" fill="#1D3D6C"/>
<path d="M0 77.8544C2.06821 74.1663 3.81818 70.2468 6.27689 66.8336C10.2542 61.3376 14.9981 56.7529 21.3184 53.5276C26.8433 50.7074 32.4406 48.4511 38.3993 47.0771C42.2465 46.1804 46.2093 45.732 50.1288 45.1246C50.6205 45.0523 51.1556 45.1391 51.6618 45.2258C53.1225 45.4717 54.1205 46.137 54.3808 47.7858C54.5978 49.1887 54.135 50.1433 52.9635 50.7507C50.5771 51.9656 48.3208 53.3107 46.4117 55.2343C45.9344 55.7115 44.9366 55.726 44.1556 55.8417C34.2773 57.4326 25.3537 60.8459 18.1656 68.251C14.4631 72.0692 10.8328 75.5837 9.79148 81.1809C9.34313 83.5962 9.34306 85.7801 9.54554 88.1665C9.95051 92.9827 11.6862 96.5406 16.5168 98.2617C17.7462 98.6956 18.7006 99.8526 19.8287 100.619C23.6759 103.251 28.1451 103.946 32.6141 104.712C34.4075 105.016 36.143 105.609 37.9075 106.057C37.7773 108.328 41.2773 106.014 41.1472 108.588C41.1327 108.906 43.3166 109.08 44.0542 109.76C44.9943 110.628 45.4138 112.045 46.2526 113.057C47.0481 114.012 48.2486 114.663 49.0006 115.646C49.7238 116.586 49.9697 117.873 50.635 118.871C51.2713 119.84 52.4285 120.52 52.8768 121.533C53.8892 123.832 54.9015 126.146 53.1081 128.721C52.356 129.791 52.4429 131.44 52.8479 132.973C53.0937 132.206 53.3396 131.425 53.5855 130.659C54.0917 133.725 54.1639 133.841 52.7755 134.68C49.2899 136.762 46.2671 139.235 44.2567 142.88C43.7071 143.864 42.3911 144.413 41.4655 145.209C40.482 146.047 39.4117 146.828 38.5874 147.812C37.1844 149.504 35.984 151.326 33.3518 151.211C32.8456 151.182 32.05 151.789 31.8186 152.31C30.6326 154.913 28.0293 155.723 25.8164 156.678C24.5003 157.242 22.4899 156.562 20.9279 156.027C20.4217 155.853 19.8433 154.017 20.1615 153.612C21.333 152.093 21.8247 150.155 24.0954 149.302C28.8682 147.479 32.9467 144.399 36.8227 141.014C39.0066 139.105 41.6245 137.673 43.9096 135.851C48.4655 132.221 49.1742 129.024 46.6721 123.861C44.6907 119.783 42.7382 115.747 38.7175 113.101C37.0976 112.045 35.579 111.495 33.6409 111.38C30.1264 111.177 26.6264 110.642 23.1263 110.165C17.775 109.442 13.5518 106.202 8.99594 103.714C5.46697 101.791 2.74798 99.1439 1.46078 95.1955C1.21491 94.4579 0.506219 93.8649 0.0144771 93.2141C1.41243e-05 88.1086 0 82.9743 0 77.8544Z" fill="#1D3D6C"/>
<path d="M59.949 103.598C60.8601 99.6354 62.1475 96.6994 64.2446 94.1973C64.8376 93.4886 65.5607 91.782 67.0648 93.8647C67.6 94.6167 70.6371 91.7386 70.4491 90.0609C70.2033 87.8914 69.6681 85.7365 69.2053 83.3935C70.4058 82.9451 71.5773 82.8005 73.0381 83.9286C73.8914 84.5939 73.8769 87.8191 76.2633 85.534C76.7695 86.908 77.2612 88.2964 77.9121 90.0898C81.0795 88.47 84.7243 90.0031 87.964 88.2675C88.6148 87.9204 89.6417 88.2096 90.4805 88.2675C92.4186 88.4121 93.8214 89.3088 95.3401 90.625C96.3814 91.5361 98.6809 89.7572 100.301 91.2903C100.966 91.9122 102.268 91.9266 101.762 93.3729C101.704 93.5465 102.022 94.0816 102.109 94.0672C104.032 93.7345 105.565 93.8791 106.78 95.8606C108.545 98.7532 110.685 101.414 110.757 105.045C110.786 106.361 111.206 107.662 111.379 108.979C111.466 109.629 111.596 110.425 111.336 110.96C110.7 112.233 108.255 112.406 109.528 114.952C110.078 116.051 109.21 118.047 108.617 119.493C107.648 121.865 107.229 124.873 103.627 124.931C103.28 124.931 102.615 125.539 102.629 125.813C102.919 129.559 99.5921 129.776 97.4661 130.832C95.2966 131.902 92.8234 133.074 90.3213 131.179C89.9886 130.933 88.9473 131.049 88.7159 131.353C87.2551 133.32 86.0981 133.161 84.9266 131.107C83.8997 129.313 82.8729 130.239 82.439 131.44C82.0051 132.669 81.8027 134.13 81.9907 135.417C83.2201 143.878 84.594 152.324 85.8523 160.771C85.939 161.335 85.4908 162.477 85.2304 162.492C84.3048 162.564 82.7139 162.535 82.5114 162.058C81.3688 159.368 78.2014 157.603 79.0547 153.901C79.344 152.628 78.3027 151.022 77.8254 149.591C77.4204 148.347 78.8089 147.031 77.1167 145.613C76.1766 144.818 76.4948 142.431 76.3646 140.768C76.1187 137.471 76.1042 134.159 75.6992 130.89C75.5256 129.444 74.7159 128.041 74.0361 126.696C73.472 125.568 72.1992 124.714 74.2674 123.543C74.8459 123.21 74.7737 120.939 74.3687 119.782C72.6042 114.793 71.8955 109.658 71.6497 104.423C71.6207 103.743 71.6063 103.063 71.4616 102.398C70.7096 99.0569 70.1599 98.84 67.0069 100.344C64.9098 101.357 62.7693 102.311 59.949 103.598ZM88.1663 95.875C88.1518 96.0197 88.1375 96.1498 88.123 96.2944C87.2697 96.2944 86.4309 96.28 85.5775 96.2944C84.5507 96.3089 83.5238 96.251 82.5114 96.3812C79.2861 96.7717 78.6064 97.2346 78.9101 100.532C79.532 107.474 80.5155 114.388 81.4122 121.301C81.4845 121.836 82.0919 122.632 82.5836 122.747C84.6952 123.268 86.9081 124.107 88.9763 123.861C97.3648 122.877 100.735 120.245 103.251 111.914C104.842 106.65 101.024 98.4061 95.6003 96.9887C93.1994 96.3378 90.6539 96.2222 88.1663 95.875Z" fill="#1D3D6C"/>
<path d="M140.899 78.8388C141.188 78.2024 141.304 77.6962 141.607 77.3201C143.184 75.3965 143.516 75.4255 144.529 77.5804C145.165 78.9255 145.425 80.7334 147.682 79.6487C147.783 79.6053 148.448 80.2706 148.39 80.4441C147.551 82.9173 149.562 84.5806 150.502 86.2438C151.543 88.0951 151.124 90.3947 153.12 92.0724C154.335 93.0993 154.176 95.8183 154.566 97.7853C155.897 104.612 158.326 111.149 160.149 117.845C160.539 119.263 161.436 119.567 162.55 118.395C162.636 119.407 162.419 120.608 162.882 121.403C164.184 123.631 162.984 125.93 163.331 128.172C163.432 128.823 162.492 129.85 161.769 130.327C161.364 130.602 160.221 130.313 159.787 129.879C157.415 127.565 155.173 125.135 152.888 122.748C149.027 126.755 136.979 127.55 132.814 123.819C131.223 122.401 129.588 121.027 127.925 119.697C125.741 117.947 125.64 115.604 126.219 113.246C127.057 109.833 128.07 106.449 129.155 103.108C130.124 100.157 132.698 98.6531 135.215 97.3659C137.731 96.0787 140.465 95.1674 143.169 94.2563C145.975 93.3017 146.279 92.8823 145.44 89.9463C145.165 88.9773 144.803 88.0372 144.413 87.1116C143.082 83.9297 140.233 82.9462 137.181 84.6095C135.417 85.5785 133.797 86.8802 131.946 87.5744C130.847 87.9938 128.373 87.7335 128.301 87.4008C127.983 85.8967 126.117 85.0868 127.448 82.6281C129.776 78.3181 132.785 75.3965 137.297 73.9213C138.266 73.6031 139.12 73.6176 138.801 75.411C138.613 76.3366 140.074 77.566 140.899 78.8388ZM147.204 100.562C144.051 102.298 141.159 103.961 138.18 105.494C136.82 106.203 136.01 107.085 136.27 108.676C136.588 110.643 136.791 112.653 137.297 114.577C137.514 115.387 138.324 116.631 138.917 116.659C142.128 116.848 145.382 116.862 148.593 116.616C149.62 116.544 150.719 115.705 150.314 114.071C149.244 109.746 148.304 105.393 147.204 100.562Z" fill="#1D3D6C"/>
<path d="M210.422 65.9244C208.788 66.8934 207.631 67.5732 206.459 68.2674C207.038 68.4843 207.645 68.7302 209.034 69.2509C206.807 70.2055 205.158 71.2323 203.364 71.6373C197.261 73.0113 193.385 77.0609 190.463 82.1663C188.583 85.435 189.292 89.1086 189.798 92.5942C190.174 95.2409 190.796 97.9166 191.765 100.39C192.372 101.937 191.75 102.443 190.839 103.268C189.538 104.454 188.684 103.355 187.759 102.776C182.769 99.6666 180.325 95.0384 179.226 89.3255C177.823 82.1085 175.928 74.9927 174.265 67.819C174.106 67.1537 173.946 66.4451 174.062 65.7942C174.279 64.5504 174.366 62.6124 175.118 62.2652C176.752 61.4987 177.085 63.5235 177.895 64.507C178.719 65.505 179.732 66.3728 180.513 67.3996C181.511 68.7158 182.682 70.0464 183.188 71.565C183.593 72.7654 183.724 74.1105 185.141 73.9514C186.052 73.8501 186.92 72.8666 187.701 72.1579C188.916 71.0587 190.116 69.9451 191.187 68.7013C191.982 67.7757 192.416 67.8624 193.009 68.8315C193.067 68.9327 194.166 68.5856 194.166 68.5422C193.703 65.7364 195.193 65.5194 197.377 65.9678C197.753 66.0401 198.273 65.4182 198.722 65.1C199.373 64.6517 200.023 64.1888 200.674 63.7405C200.877 64.2322 201.021 64.7529 201.311 65.1723C201.383 65.288 202.005 65.2591 202.164 65.0855C204.999 62.1351 207.342 64.2033 210.422 65.9244Z" fill="#1D3D6C"/>
</svg>
