<svg width="184" height="69" viewBox="0 0 184 69" fill="none" xmlns="http://www.w3.org/2000/svg">
<path d="M104.153 53.6864C104.569 54.3827 105.021 54.8204 105.072 55.3001C105.131 55.8849 104.973 56.5677 104.697 57.095C103.722 58.9372 101.815 59.656 100.132 60.6013C98.2077 61.6795 96.0819 61.2574 94.0217 61.2011C92.4389 60.1838 90.333 59.8417 89.6629 57.6463C89.5211 57.1857 88.9712 56.7978 88.5243 56.4963C87.998 56.1416 87.8114 55.3848 88.3656 55.1824C89.14 54.9031 88.9788 54.3574 89.0837 53.8168C89.2739 52.8542 88.5608 51.8786 89.1582 50.9216C89.3251 50.6576 89.4426 50.3584 89.544 50.0632C89.726 49.539 89.9583 49.1756 90.617 49.4413C90.7436 49.493 90.9569 49.3058 91.134 49.2465C93.5398 48.4255 94.5543 48.6196 96.6958 50.3131C95.3437 53.9082 96.1745 53.2413 92.041 56.175C92.561 56.8794 92.7349 57.8652 93.8862 57.9812C94.7159 58.0669 95.4251 58.9586 96.3558 58.3517C98.2248 58.5812 99.6237 57.4673 101.118 56.6693C102.33 56.0164 103.581 55.3875 104.153 53.6864ZM91.1139 53.6564C92.1874 52.8935 93.0534 52.3129 93.8718 51.6712C94.1335 51.4668 94.4817 51.0236 94.4088 50.8193C94.2128 50.2499 93.8329 50.7639 93.5171 50.7915C93.1749 50.8223 92.8131 50.6372 92.4583 50.5625C91.769 50.4198 91.0894 50.8895 91.0635 51.5565C91.0424 52.1612 91.0889 52.7711 91.1139 53.6564Z" fill="#FF9737"/>
<path d="M78.9461 51.1704C79.4615 50.9964 79.9168 50.9222 80.284 50.7052C80.8263 50.3868 81.2674 50.4944 81.6542 50.8958C81.9444 51.1954 82.1924 51.4343 82.6188 51.1279C82.6688 51.0899 82.946 51.2213 82.9698 51.3173C83.2014 52.2344 83.5391 52.9978 84.5426 53.4002C84.877 53.536 84.9901 54.2296 85.2014 54.6695C85.8537 56.0219 86.5117 57.3696 87.2768 58.9503C87.1612 59.0929 86.9372 59.619 86.5521 59.798C86.0314 60.0396 85.4558 59.7804 84.9774 59.4137C84.3118 58.9018 83.7332 58.3444 83.4584 57.5128C83.1673 56.6224 82.8549 55.7355 82.4886 54.8706C82.2187 54.2432 81.9129 53.6078 81.5003 53.0686C80.9887 52.391 80.3415 52.445 79.8943 53.1523C79.6977 53.461 79.5018 53.8273 79.4747 54.1754C79.3348 55.8998 79.1534 57.621 79.8473 59.3112C80.0936 59.9054 80.0184 60.6679 79.9557 61.3372C79.9307 61.5914 79.618 62.0479 79.1225 61.6329C77.8137 60.5219 76.7382 59.3664 76.6149 57.4646C76.3509 53.4141 75.9083 49.3757 75.5499 45.3282C75.4399 44.0599 75.3298 42.7916 75.2721 41.5222C75.2406 40.788 75.1747 40.0249 75.589 39.1373C76.7636 40.2274 77.1725 41.4824 77.0091 42.8391C76.9502 43.3258 77.3066 43.4477 77.3128 43.6364C77.3223 44.118 78.0979 44.6281 77.3323 45.1276C77.2607 45.1743 77.3994 45.5405 77.4399 45.758C77.5435 46.3724 77.6527 46.982 77.7511 47.596C77.7896 47.8395 77.729 48.1483 77.8567 48.3203C78.1699 48.7264 78.4389 49.0976 78.4734 49.6595C78.5037 50.1428 78.7601 50.6071 78.9461 51.1704Z" fill="#FF9737"/>
<path d="M71.9117 57.317C72.9563 57.4612 72.9563 57.4612 73.4993 56.1969C73.5531 56.3108 73.6013 56.4296 73.6664 56.534C74.3593 57.7014 73.7157 58.9161 73.7587 60.106C73.8062 61.2387 72.7091 61.9005 72.1194 62.7587C71.9189 63.0515 71.3027 63.2438 70.9151 63.1874C69.9276 63.0476 68.9119 62.869 68.0123 62.4747C67.3807 62.1954 66.9147 61.537 66.3725 61.0504C66.8349 60.3495 65.9865 59.8338 66.1457 59.0674C66.3812 57.9254 65.7779 56.6813 66.4019 55.5174C66.4997 55.3368 66.3868 55.0406 66.3589 54.662C63.1954 55.4814 60.1251 56.5118 56.7964 55.3634C57.5885 54.9914 58.2999 54.7176 58.9509 54.3451C59.9796 53.7563 59.9765 53.662 60.7612 53.854C61.5052 54.0323 61.7897 52.6641 62.6234 53.3669C63.261 52.9671 63.9275 52.7317 64.6994 52.6194C65.3869 52.5163 66.0202 52.0378 66.8727 51.6287C67.1022 50.5646 66.7013 49.1378 67.5643 47.658C67.88 49.1043 68.1376 50.2901 68.408 51.5134C68.7442 51.4926 69.3107 51.3329 69.7974 51.4598C70.1406 51.5493 70.3224 51.5635 70.5836 51.3643C70.9392 51.0942 71.3329 50.7381 71.5559 51.4977C71.6599 51.4379 71.7646 51.3677 71.8774 51.3294C72.0761 51.2613 72.2784 51.2144 72.4811 51.1623C72.4692 51.4488 72.508 51.755 72.4246 52.0203C72.3832 52.1477 72.0839 52.1662 71.9538 52.2919C71.6998 52.5335 71.3001 52.497 71.2706 53.1429C71.2468 53.716 70.3742 54.113 69.5722 54.0086C68.9252 53.9267 68.3349 53.9904 67.952 54.6766C67.6424 55.2274 67.7326 55.6788 67.8754 56.2597C68.0939 57.1444 68.0776 58.0892 68.1525 59.0045C68.1746 59.2571 68.0599 59.5879 68.1776 59.7539C68.4749 60.1639 68.3974 60.8896 69.2283 60.8918C70.4297 60.9019 71.0179 60.6656 71.2735 59.8022C71.5013 59.0255 71.6781 58.2343 71.9117 57.317Z" fill="#FF9737"/>
<path d="M52.284 16.3001C50.9332 16.7257 49.7739 17.1567 48.6094 16.1298C49.8618 15.9276 50.514 14.7625 51.6526 14.4219C51.813 14.3741 51.989 14.0602 52.0045 13.8633C52.0563 13.0865 52.1442 12.2884 52.0459 11.5223C51.8026 9.62289 52.5945 7.90437 52.8688 6.10073C52.9309 5.68574 53.4692 5.34522 53.9557 4.78125C54.6026 6.21778 55.3116 7.35637 54.7889 8.83014C54.6647 9.18129 54.6543 9.60692 54.7061 9.98467C54.8665 11.1818 55.0839 12.3682 55.2857 13.6239C55.8136 13.6239 56.3105 13.6345 56.8022 13.6186C56.9781 13.6132 57.18 13.576 57.3197 13.4749C58.5929 12.5757 58.5877 12.5704 59.8608 12.9269C60.0109 12.9695 60.161 13.0173 60.4664 13.1078C59.4727 13.2568 60.1093 13.8899 59.8867 14.3421C59.3951 14.39 58.8413 14.4432 57.8269 14.539C58.5153 14.7731 58.7637 14.8582 59.0587 14.9593C59.0225 15.0338 59.0018 15.1455 58.95 15.1615C57.8373 15.5233 56.7193 15.8798 55.529 16.2575C55.617 17.3003 56.3416 18.1676 56.9989 18.9497C57.5164 19.5615 58.3548 19.9978 59.1363 20.2479C61.4963 21.0193 61.5481 21.3386 62.7022 20.897C62.7022 20.1947 62.7436 19.4232 62.6919 18.657C62.6298 17.7206 62.9868 16.9226 63.6959 16.481C65.0105 15.6563 66.2836 14.7465 67.8259 14.3049C68.4625 14.124 69.0421 14.1346 69.6529 14.108C70.0824 14.0868 70.1187 14.2411 70.0048 14.6614C69.8288 15.3158 70.5637 15.2147 70.8329 15.5286C71.5057 16.316 71.5471 16.316 71.0761 17.3589C70.8639 17.8271 70.5741 18.274 70.4551 18.7688C70.1756 19.8967 69.3941 20.6895 68.5505 21.2375C67.888 21.6737 67.4688 22.2537 66.9409 22.7751C67.1376 23.3603 67.5878 23.4189 68.1106 23.4455C69.0215 23.488 70.041 23.1156 70.7604 24.0573C71.133 23.4508 71.7748 23.7062 72.2871 23.5412C73.1618 23.2593 74.0106 22.8709 74.8904 22.6155C75.4856 22.4452 75.8427 22.9666 75.6512 23.6157C75.144 25.297 74.3833 25.8716 72.7323 26.1164C70.6725 26.4196 68.654 26.3664 66.6614 25.7599C65.8954 25.5258 65.1605 25.297 64.467 24.7649C63.3957 23.9403 61.988 23.8977 60.7148 23.903C58.7326 23.9084 57.0092 23.1369 55.4099 22.1898C54.0592 21.3971 53.2518 19.9393 52.8378 18.3378C52.6773 17.7313 52.5066 17.1194 52.284 16.3001ZM65.7816 20.4181C66.9461 19.0508 69.156 18.5453 68.6333 15.8585C67.1531 16.9598 65.4556 17.4812 64.555 19.0986C64.9846 19.5668 65.3417 19.9499 65.7816 20.4181Z" fill="#FF9737"/>
<path d="M16.7143 43.342C16.5757 42.9818 16.4165 42.5799 16.2624 42.178C16.1957 42.011 16.1392 41.6978 16.0673 41.6926C15.2971 41.6613 14.9737 41.0975 14.8299 40.5077C14.5269 39.2863 14.2085 38.0492 14.4037 36.7704C14.4345 36.5668 14.5988 36.3319 14.7683 36.2066C15.7182 35.4967 15.8568 35.1314 16.3087 34.1709C16.7862 33.1531 17.7515 32.4223 18.7733 32.177C19.6976 31.9578 20.3446 31.3575 21.161 31.013C21.3407 30.9399 21.4896 30.6215 21.5256 30.3971C21.7053 29.2226 21.844 28.0429 22.0237 26.6388C20.9557 26.6388 20.0468 26.6336 19.1328 26.6388C17.767 26.6493 16.6938 26.216 16.2676 24.7545C16.2573 24.718 16.1341 24.7284 16.0982 24.6867C16.0263 24.5927 15.9031 24.4257 15.9339 24.3787C16.6784 23.1886 15.1893 22.2177 15.6411 21.0172C15.9287 20.2551 16.1957 19.4878 16.7143 18.8614C17.0635 18.4386 17.5154 18.0994 17.921 17.7288C17.9672 17.687 18.0391 17.6661 18.0699 17.6139C19.3947 15.74 21.0172 16.2672 22.8041 17.118C22.9171 16.8101 22.9685 16.523 23.1226 16.2985C23.2407 16.1211 23.4922 15.9227 23.6668 15.9384C23.8363 15.954 24.0314 16.1994 24.1341 16.3925C24.2162 16.5439 24.1033 16.8257 24.206 16.9458C25.2843 18.2716 24.9197 19.7175 24.6424 21.1894C24.473 22.082 25.0327 22.9798 24.7246 23.9089C24.4884 24.6292 24.3959 25.2922 24.8067 26.0647C25.0429 26.5084 24.8067 27.2339 24.7502 27.8237C24.6886 28.5023 24.591 29.1809 24.4832 30.0578C25.428 30.0734 26.3009 30.2979 26.9993 30.0369C27.7798 29.7446 28.2778 30.3553 28.971 30.2927C29.4588 30.2457 29.6745 31.1226 29.2791 31.4775C28.2368 32.4223 27.2098 33.4245 25.6078 33.1426C25.1918 33.0696 24.7502 33.1322 24.247 33.1322C24.093 34.6564 23.9132 36.0448 23.8311 37.4437C23.7797 38.3363 23.5641 39.1506 23.292 40.0014C22.7631 41.6665 21.7926 42.5799 20.0982 42.8096C19.8055 42.8514 19.5795 43.2585 19.2868 43.4464C18.3728 44.0362 18.2753 43.9788 17.3613 43.0184C16.9248 42.559 17.0583 43.3472 16.7143 43.342ZM19.3279 24.3578C20.1136 24.2012 20.9402 24.149 21.6745 23.8515C22.2188 23.6323 22.7015 23.1886 22.7272 22.4161C22.758 21.5392 22.9428 20.6727 23.0301 19.7958C23.0506 19.5609 23.0352 19.1955 22.8914 19.0911C22.4036 18.7362 21.8748 18.3917 21.3151 18.1933C20.93 18.0576 20.5192 18.115 20.2676 18.6892C20.0519 19.1851 19.5744 19.5765 19.1636 19.9628C18.1726 20.9024 17.8234 22.4735 18.3523 23.6584C18.5577 24.1125 18.8042 24.4048 19.3279 24.3578ZM21.3305 34.3484C19.5384 34.7816 18.2085 35.502 17.1559 36.6868C16.9197 36.953 16.6168 37.3654 16.6732 37.6473C16.8684 38.6756 17.1559 39.6882 17.5154 40.6695C17.6078 40.9253 18.1007 41.1863 18.3985 41.1706C19.3279 41.1288 20.6475 39.9283 20.7708 39.0409C20.9864 37.5533 21.1302 36.0605 21.3305 34.3484Z" fill="#FF9737"/>
<path d="M5.86626 3.234C4.78521 3.16131 3.91081 3.01075 3.06293 3.08344C2.5118 3.13017 2.42175 2.87576 2.23627 2.54347C1.96601 2.0606 2.31044 1.90484 2.6125 1.64523C3.3173 1.05334 4.30299 0.96508 4.9548 0.20704C5.19857 -0.0785229 6.14714 -0.0473744 6.61347 0.170692C7.32358 0.497791 8.26684 0.316073 8.79146 1.13123C8.89745 1.29218 9.42735 1.6089 9.95728 1.05335C10.3759 0.617215 11.3033 0.897586 11.9392 1.44275C11.2874 2.34098 10.2858 2.7771 9.30017 3.15093C7.70509 3.7584 7.67862 3.70129 7.47195 5.3939C7.44016 5.64312 7.51962 5.91829 7.44543 6.15193C7.22286 6.86844 8.4046 5.9183 8.10784 6.70749C7.95416 7.11247 7.78457 7.53303 7.76337 7.95878C7.73688 8.37933 7.88531 8.81027 7.9542 9.24121C8.02839 9.67215 8.12903 10.0979 8.16612 10.534C8.20322 10.9754 8.14495 11.4271 8.19264 11.8684C8.22974 12.237 8.4099 12.5901 8.44169 12.9587C8.47879 13.452 8.55299 13.9971 8.38341 14.4333C8.19264 14.9109 7.57264 15.3003 8.46822 15.6846C8.47352 15.6846 8.38874 16.0792 8.27745 16.1259C7.60444 16.4011 8.05488 16.4114 8.34104 16.5724C8.51062 16.6659 8.45233 16.7385 8.01779 17.3824C7.9277 17.5122 7.83757 17.7977 7.90116 17.8548C8.83383 18.7375 8.68546 19.7551 8.37811 20.8247C8.31981 21.0324 8.31982 21.3595 8.447 21.4997C9.08821 22.2369 8.51058 23.3169 9.23128 24.0334C9.35316 24.1528 9.30021 24.5318 9.20482 24.7395C9.08824 24.9835 8.7014 25.1653 8.6855 25.3885C8.66431 25.7364 9.41676 25.051 9.37437 25.7727C9.35847 26.0479 9.50686 26.4165 9.71353 26.5931C9.9255 26.7748 10.3389 26.7125 10.5879 26.8682C11.3563 27.3615 12.0876 27.9067 12.75 28.3687C12.6652 29.0074 11.4093 28.3116 11.9604 29.3397C11.5842 29.3864 11.1602 29.5577 10.8423 29.4487C10.1481 29.2099 9.51219 28.9866 8.81268 29.3968C8.6802 29.4747 8.45232 29.402 8.27215 29.3812C7.32358 29.2826 6.32202 28.9503 5.43175 29.1268C3.63 29.4902 2.39522 28.3428 0.948525 27.7976C0.397401 27.5899 0.0900875 26.9254 0 26.214C0.778992 26.214 1.64274 25.9648 2.15147 26.2763C2.84037 26.6969 3.59288 26.6761 4.28709 26.9254C4.9283 27.1538 5.71787 26.9721 6.58165 26.9721C6.27429 25.9337 6.06761 24.8226 6.57104 23.6544C6.77771 23.1767 6.35909 22.4758 6.32729 21.8683C6.14182 18.5558 6.06763 15.2328 5.79737 11.9307C5.59069 9.3814 5.95636 6.85806 5.87687 4.32434C5.85567 4.01281 5.86626 3.69609 5.86626 3.234Z" fill="#FF9737"/>
<path d="M31.0887 25.2861C30.4179 24.6595 29.817 24.1959 29.3501 23.6254C29.0282 23.2332 28.7599 22.7136 28.7009 22.2245C28.6365 21.6998 28.8189 21.1395 28.937 20.5995C29.1677 19.5247 29.6721 18.4447 29.6184 17.3902C29.5487 16.0097 30.3911 14.9247 30.5467 13.6461C30.5843 13.3506 30.9545 13.0959 31.2336 12.7495C32.5536 14.1759 32.3068 15.7347 31.9204 17.5634C32.9131 17.1304 33.5355 16.8706 34.1472 16.5905C35.8804 15.7958 38.2521 16.8604 38.6492 18.623C37.9033 19.5399 39.0731 19.9526 39.2287 20.625C39.379 21.2719 39.599 21.9953 39.4326 22.5964C39.2555 23.2383 39.1375 23.7324 39.4863 24.3488C39.6419 24.6289 39.4755 25.0721 39.4701 25.4389C39.4648 25.6477 39.4111 25.9076 39.513 26.0655C39.6794 26.3151 40.0497 26.4832 39.6955 26.8194C39.3038 27.1913 38.8316 27.1607 38.4506 26.8703C37.4579 26.1215 36.9321 25.0823 36.8301 23.9056C36.7174 22.5658 36.7229 21.221 36.6853 19.8812C36.6746 19.5807 36.8194 19.2139 36.6853 18.9898C36.4063 18.5313 36.0682 17.9913 35.6068 17.7825C34.9575 17.4921 34.4746 18.0983 34.2063 18.5517C33.0848 20.4365 31.6736 22.2194 31.6306 24.5321C31.6253 24.7359 31.3516 24.9346 31.0887 25.2861Z" fill="#FF9737"/>
<path d="M44.4447 14.3438C45.0237 16.1116 46.3332 17.6493 45.673 19.6787C45.581 19.9559 46.041 20.3586 46.1059 20.7247C46.1708 21.117 45.9544 21.4884 46.0735 21.9591C46.3548 23.1098 46.2574 24.297 45.5161 25.5C45.2888 25.0973 45.1102 24.7887 44.937 24.4696C44.8505 24.3075 44.7747 24.0041 44.6936 24.0041C42.7618 24.0041 43.3353 22.3932 43.1135 21.4831C42.8862 20.5521 43.1947 19.5008 43.265 18.4966C43.3191 17.7225 43.4328 16.9432 43.4057 16.1691C43.3732 15.3689 43.7466 14.8511 44.4447 14.3438Z" fill="#FF9737"/>
<path d="M42.2344 8.25917C42.3845 8.01464 42.5561 7.39518 42.9208 7.24303C43.3069 7.08001 43.9505 7.21587 44.342 7.4604C45.4843 8.16681 45.7901 10.1665 44.9213 11.2913C44.6638 11.6228 44.3259 11.8238 44.2079 12.3074C44.0578 12.916 43.4571 12.753 43.0495 12.6498C42.481 12.5085 43.0602 12.1661 43.0066 11.9107C42.7599 10.7859 42.5293 9.66111 42.2344 8.25917Z" fill="#FF9737"/>
<path d="M154.031 68.7051C153.87 68.4602 153.651 67.9808 153.546 68.0068C152.572 68.2205 152.061 66.8604 151.05 67.3033C151.009 67.3189 150.884 67.2668 150.889 67.246C150.931 66.3914 150.029 66.4643 149.664 66.0057C149.279 65.5159 148.81 65.073 149.18 64.3695C148.445 64.2913 148.685 63.5201 148.398 63.1188C148.153 62.7749 148.533 61.9828 148.638 61.394C148.445 61.3783 148.09 61.3783 148.085 61.3418C148.049 61.0135 147.653 60.4351 148.523 60.5862C148.627 60.6071 149.393 60.2631 148.596 59.9296C148.523 59.8984 148.46 59.6326 148.487 59.6117C149.497 58.8926 149.279 57.4648 150.227 56.6727C151.29 55.7816 152.192 54.6977 153.573 54.3798C153.203 53.3897 152.859 52.4569 152.499 51.4877C151.16 52.3267 149.68 52.8843 147.997 52.6341C147.559 52.5716 147.126 52.509 146.694 52.4257C146.168 52.3267 146.355 51.2792 145.542 51.5502C145.402 51.0291 144.849 50.5966 145.188 49.9608C145.292 49.7628 145.548 49.4866 145.141 49.4085C144.094 49.2104 144.354 48.2933 144.5 47.8451C145.016 46.2558 145.673 44.7081 147.017 43.5773C147.491 43.176 147.992 43.004 148.591 43.0509C148.513 43.7753 148.533 44.4006 147.653 44.8956C146.934 45.2969 146.454 46.2818 146.079 47.1104C145.584 48.2047 146.23 49.6951 147.246 50.2162C148.627 50.9249 151.874 49.299 152.129 47.767C152.192 47.3918 152.186 47.0061 152.249 46.6309C152.53 44.8644 151.915 43.9472 150.196 43.9472C149.393 43.9472 148.987 43.5825 148.528 43.103C148.653 42.9884 148.789 42.7695 148.909 42.7799C149.294 42.806 149.623 43.1812 150.066 42.7331C150.581 42.2172 151.191 42.1755 151.65 42.8946C151.686 42.9467 151.723 43.0509 151.749 43.0509C152.504 42.9415 153.401 42.8269 153.463 43.8378C153.505 44.5674 154.448 45.0833 153.875 45.891C154.683 48.1734 154.818 50.6331 155.73 52.8842C155.928 53.3689 156.314 53.4731 156.772 53.5825C157.611 53.7805 157.741 54.0672 157.59 54.9635C157.481 55.5836 157.392 56.2037 157.288 56.8238C157.173 57.4961 157.179 57.4908 157.986 58.3871C158.148 58.5643 158.304 58.7936 158.356 59.0229C158.659 60.3569 159.003 61.691 159.18 63.0406C159.247 63.5409 159.07 64.234 158.737 64.5987C157.658 65.7765 157.08 67.4492 155.386 68.0485C155.136 68.1371 154.985 68.5123 154.792 68.7572C154.542 68.7363 154.286 68.7207 154.031 68.7051ZM156.882 63.6138C156.611 62.4153 156.366 61.2011 156.058 60.0078C155.876 59.2834 155.652 58.5643 155.355 57.8817C155.146 57.4074 154.854 57.1729 154.161 57.4231C152.478 58.0276 150.759 59.914 150.592 61.6545C150.561 61.962 150.524 62.3163 150.634 62.5873C151.233 64.0307 152.244 65.1459 153.604 65.9067C153.818 66.0266 154.276 65.9797 154.464 65.8182C155.318 65.1042 156.116 64.3226 156.882 63.6138Z" fill="#FF9737"/>
<path d="M136.981 56.6776C134.432 57.3915 132.228 56.761 130.284 55.0101C129.659 54.4421 128.95 53.9679 128.184 53.3738C127.486 54.4681 126.84 55.5833 126.084 56.6203C125.698 57.1518 125.23 57.0893 124.943 56.1617C124.86 56.6307 124.833 56.9069 124.76 57.1727C124.714 57.3447 124.536 57.6469 124.516 57.6365C123.458 57.2196 122.52 58.3139 121.483 57.8762C121.269 57.7876 121.118 57.5583 120.946 57.4124C121.347 56.6255 122.494 57.0633 122.744 56.167C124.776 55.9116 125.183 54.0981 125.975 52.7016C126.522 51.7427 126.23 50.8412 125.573 49.8876C124.12 47.7771 122.931 45.5051 122.046 43.0767C121.556 41.7375 120.769 40.5024 120.289 39.158C119.591 37.209 119.018 35.208 119.237 33.0975C119.289 32.6181 119.487 32.1335 119.695 31.6905C119.904 31.2528 120.305 31.2945 120.67 31.5133C120.962 31.6905 121.165 31.951 120.894 32.2793C120.086 33.2486 121.061 33.9782 121.253 34.8015C121.306 35.0256 121.785 35.1454 121.577 35.5467L122.04 36.9016C122.405 37.751 122.728 38.6212 123.14 39.455C124.109 41.4248 125.084 43.3946 126.121 45.3331C126.584 46.1982 127.184 46.985 127.83 47.9699C127.913 47.4853 128.023 47.183 128.007 46.8808C127.825 43.478 127.012 40.2419 125.433 37.2142C124.104 36.0626 123.744 34.0511 121.952 33.2955C121.759 33.2121 121.623 32.9203 121.524 32.7015C121.379 32.3836 121.691 32.0709 122.077 32.1334C122.363 32.1803 122.707 32.1699 122.916 32.3262C123.796 32.9933 124.698 33.6551 125.469 34.4419C126.157 35.1454 126.569 36.1356 127.298 36.7661C127.939 37.3185 127.668 38.1835 128.21 38.6421C128.898 39.2257 128.664 40.0491 128.919 40.7422C129.174 41.4404 129.44 42.1439 129.622 42.8631C129.727 43.28 129.68 43.7385 129.701 44.1762C129.721 44.6765 129.628 45.2185 129.794 45.6666C130.018 46.2659 129.909 46.7453 129.706 47.3029C129.471 47.9439 129.221 48.6369 129.237 49.2987C129.258 50.3149 129.966 51.0132 130.795 51.5239C132.478 52.5609 134.182 53.5666 135.865 54.5984C136.35 54.9111 136.584 55.3957 136.981 56.6776Z" fill="#FF9737"/>
<path d="M169.127 32.1437C168.351 29.5486 168.612 27.0264 168.851 24.4209C169.477 24.5564 169.841 24.7179 169.904 25.4527C170.024 26.8753 169.888 28.3031 170.05 29.7206C170.149 30.5804 170.222 31.4454 170.305 32.2584C171.415 32.1281 172.411 31.8571 173.385 31.9248C175.673 32.076 177.919 31.9717 180.154 31.4715C181.16 31.9353 182.124 31.1901 183.119 31.3829C183.401 31.435 183.849 31.4663 183.911 31.6226C184.026 31.9249 184.042 32.3834 183.885 32.6544C183.26 33.7279 182.223 34.374 181.05 34.4678C178.481 34.6763 175.912 35.088 173.317 34.8795C172.999 34.8535 172.645 34.7753 172.369 34.8899C171.936 35.0619 171.4 35.213 171.754 35.9686C171.999 36.495 171.988 37.1411 172.098 37.73C171.311 37.8915 171.754 38.4231 171.895 38.7045C172.254 39.4392 172.447 39.8405 172.358 40.1271C172.322 40.247 172.233 40.3512 172.192 40.471C172.056 40.8775 172.129 40.8514 172.749 42.1073C173.104 42.8264 173.317 43.6446 173.442 44.4471C173.718 46.2501 175.313 46.74 176.538 47.506C176.934 47.7509 177.794 47.2506 178.606 47.0474C178.554 47.4747 178.554 47.777 178.471 48.0479C178.419 48.2251 176.767 49.2621 176.496 49.4132C176.168 49.5904 175.949 49.9917 175.464 49.606C175.136 49.3507 174.651 49.309 174.271 49.1162C173.729 48.84 173.176 48.5482 172.697 48.1782C172.311 47.8864 171.988 47.4904 171.697 47.0943C171.436 46.7504 171.144 46.37 171.061 45.9635C170.649 43.9624 170.191 41.9666 170.222 39.8978C170.232 39.2829 170.06 38.6576 169.951 38.0427C169.894 37.7352 169.774 37.4434 169.69 37.1411C169.503 36.4533 169.534 35.4736 169.091 35.1505C168.565 34.7701 167.627 34.9525 166.871 34.8952C165.667 34.8014 164.458 35.2703 163.26 34.8847C162.999 34.8014 162.786 34.5877 162.546 34.4314C162.718 34.1917 162.838 33.8008 163.062 33.7279C163.963 33.4361 164.75 33.04 165.438 32.3365C165.756 32.0134 166.543 32.4512 166.955 31.8832C166.996 31.8311 167.283 31.8519 167.309 31.904C167.7 32.8316 168.351 32.3574 169.127 32.1437Z" fill="#FF9737"/>
<path d="M168.794 47.9077C167.981 48.3506 167.21 47.5533 166.329 47.8139C165.99 47.9129 165.287 47.3501 164.985 46.9228C164.083 45.6461 163.27 44.2964 162.468 42.952C161.947 42.0765 161.04 41.5762 160.331 41.8785C159.68 42.1599 159.294 43.2333 159.435 44.1192C159.622 45.3074 160.149 46.3652 160.618 47.4491C160.785 47.8295 160.852 48.2725 160.868 48.6894C160.884 49.1219 160.477 49.2469 160.206 49.0645C158.815 48.1161 157.163 47.5221 156.803 45.4428C156.454 43.4261 155.573 41.5033 155.13 39.4918C154.854 38.2463 154.635 36.9696 154.448 35.6929C154.161 33.7648 153.859 31.8159 153.197 29.9451C152.853 28.9758 152.765 27.9128 152.509 26.6621C153.499 27.1207 153.994 27.574 153.974 28.4547C153.958 29.0279 153.895 29.6324 154.667 29.8357C154.781 29.8669 154.948 30.2109 154.912 30.2578C154.281 31.0186 155.104 31.5188 155.23 32.139C155.344 32.6861 155.428 33.2489 155.61 33.7752C155.876 34.5361 156.136 35.3125 156.548 35.9951C156.798 36.412 157.079 36.6882 156.694 37.1416C156.621 37.225 156.584 37.4647 156.616 37.4855C157.397 37.9337 156.97 38.7883 157.246 39.2938C157.46 39.6898 156.756 40.3829 157.647 40.4663C158.325 40.5288 159.018 40.8675 159.633 40.263C159.883 40.0129 160.274 39.5439 160.409 39.6012C161.076 39.8931 161.822 39.5648 162.504 40.0859C163.057 40.5132 163.479 41.571 164.547 41.0186C164.615 40.9822 164.86 41.1958 164.953 41.3365C165.959 42.8529 166.986 44.3537 167.934 45.9066C168.32 46.5111 168.518 47.2355 168.794 47.9077Z" fill="#FF9737"/>
<path d="M138.612 45.1035C138.992 46.1197 139.867 46.8857 139.878 48.0999C139.878 48.3396 140.263 48.5584 140.368 48.8294C140.597 49.4495 140.211 49.1942 139.946 49.09C139.914 49.3818 139.888 49.6788 139.857 49.9706C140.576 49.7361 140.581 50.4292 140.79 50.7627C141.014 51.1171 141.04 51.5965 141.228 51.9821C141.582 52.7169 142.035 53.3995 142.374 54.1447C142.723 54.916 142.473 55.2078 141.566 55.1713C140.305 55.1244 138.252 53.5038 138.325 52.2427C138.382 51.1849 137.595 50.3511 137.96 49.2046C138.262 48.2458 137.965 47.0993 137.976 46.0363C137.976 45.7445 138.122 45.4526 138.2 45.1556C138.341 45.1348 138.476 45.1191 138.612 45.1035Z" fill="#FF9737"/>
<path d="M135.084 39.4655C135.386 39.4498 135.813 39.554 135.964 39.3925C136.84 38.4701 137.793 38.9443 138.737 39.1528C139.18 39.2518 139.477 39.799 139.263 40.1116C138.242 41.5968 135.261 41.9042 133.937 40.6327C133.546 40.2575 133.671 39.627 134.198 39.4342C134.469 39.3352 134.771 39.3195 135.058 39.2622C135.068 39.3352 135.073 39.3977 135.084 39.4655Z" fill="#FF9737"/>
</svg>
