<svg width="424" height="370" viewBox="0 0 424 370" fill="none" xmlns="http://www.w3.org/2000/svg">
<path d="M178.4 177.712C178.76 173.692 177.34 170.212 173.6 168.812C170.06 167.482 166.32 167.992 163.8 171.552C162.49 170.622 161.48 169.762 160.34 169.112C154.26 165.622 147.86 168.822 147.37 175.752C147.04 180.452 145.39 184.582 143.15 188.632C142.35 190.072 141.25 191.002 139.91 191.212C137.33 191.612 135.5 192.962 133.86 194.802C133.14 195.612 132.45 196.072 131.39 195.132C130.91 194.712 130.06 194.622 129.36 194.552C128.7 194.482 127.8 194.392 127.38 194.752C124.86 196.882 121.59 196.812 118.72 197.902C117.41 198.402 115.93 198.562 114.52 198.652C112.01 198.822 112 198.752 109.92 200.532C110.49 201.052 111.65 201.732 111.56 202.092C111.27 203.202 109.94 203.512 109.14 203.052C106.63 201.612 103.99 203.152 101.49 202.432C101.26 202.362 101 202.422 100.76 202.382C98.24 201.952 95.92 201.312 94.14 199.162C92.26 196.902 90.02 194.932 87.95 192.832C86 190.872 84.0399 188.922 82.0599 186.992C77.9399 182.982 73.7099 179.082 69.4999 175.152C69.0799 174.762 68.5099 174.502 67.9699 174.252C66.4699 173.542 65.4699 172.282 65.1799 170.762C64.9299 169.452 65.24 168.032 65.4 166.672C65.43 166.392 65.8599 165.992 66.1699 165.932C67.5699 165.642 68.4 164.752 69.14 163.602C69.85 162.502 70.58 161.372 71.52 160.482C73.67 158.442 75.4099 156.022 78.9799 155.762C81.4799 155.582 83.8599 153.972 86.3399 153.122C90.7099 151.612 95.04 150.002 99.64 149.242C101.64 148.912 103.57 148.202 105.56 147.822C108.61 147.242 111.73 146.962 114.75 146.252C118.95 145.262 123.32 145.402 127.48 144.162C129.02 143.702 130.65 144.572 132.3 144.142C133.8 143.742 135.38 143.412 136.91 143.452C138.53 143.492 140.07 142.812 141.74 143.222C142.55 143.422 143.67 143.042 144.44 142.572C147.84 140.492 151.75 140.462 155.46 139.742C160.05 138.852 164.68 137.962 169.43 138.152C170.45 138.192 171.5 137.712 172.51 137.392C172.77 137.312 173.04 136.942 173.13 136.662C173.78 134.492 174.22 132.232 175.94 130.552C175.82 128.212 177.45 126.582 178.32 124.632C180.47 119.832 182.74 115.112 185.42 110.572C187.12 107.692 188.27 104.492 189.66 101.432C190.59 99.3921 191.13 97.032 192.53 95.392C193.83 93.872 193.44 91.962 194.6 90.502C195.62 89.222 196.12 87.5421 196.93 86.0721C199.18 82.0021 201.5 77.9621 203.73 73.882C204.36 72.732 204.76 71.4621 205.3 70.2621C207.67 65.0321 210.81 60.2321 213.65 55.2621C215.19 52.5721 216.58 49.8021 218.5 47.2921C221.73 43.0821 224.77 38.7721 229.31 35.7921C230.45 35.0421 231.36 33.8421 232.12 32.6821C232.68 31.8321 232.96 31.1921 234.21 31.5121C234.49 31.5821 235.13 30.242 235.61 29.552C236.15 28.772 236.7 27.9921 237.24 27.2021C237.71 26.5121 238.16 25.812 238.62 25.112C238.69 25.012 238.79 24.922 238.89 24.862C240.53 23.802 241.03 20.9021 243.92 21.7421C243.97 21.7621 244.54 20.4221 245.45 21.0921C246.28 21.7021 246.32 22.402 245.68 23.282C244.89 24.372 246.85 26.1521 244.83 27.0121C246.87 28.7321 244.56 30.5121 244.91 32.0421C245.28 33.6721 244.85 35.7421 246.6 36.9921C247.42 37.5721 247.48 38.5921 247.76 39.5421C249.9 46.7621 251.18 54.1721 252.92 61.4821C253.44 63.6821 253.95 65.8921 254.31 68.1221C254.68 70.3721 255.28 72.572 255.14 74.922C255.05 76.442 255.62 77.982 255.8 79.532C255.98 81.072 255.49 82.6621 256.48 84.1521C256.82 84.6621 256.61 85.602 256.54 86.332C256.31 88.482 257.16 90.7221 255.98 92.7921C257.13 94.7421 256.53 96.8821 256.48 98.9021C256.43 100.752 256.89 102.272 258.11 103.522C259.47 104.922 260.76 106.152 261.35 108.252C261.88 110.122 263.51 111.702 264.73 113.362C265.6 114.542 267.03 115.452 266.39 117.262C268.73 120.402 269.71 124.422 272.97 127.012C274.33 128.102 275.21 129.792 276.34 131.242C277.85 130.282 279.7 129.912 281.71 130.032C283.3 130.132 284.91 129.982 286.5 130.082C287.47 130.142 288.81 129.452 289.21 131.102C290.23 131.002 291.43 130.522 292.22 130.902C293.72 131.632 295.06 130.252 296.65 131.102C297.92 131.782 299.73 131.562 301.3 131.512C304.59 131.402 307.71 132.192 310.86 132.992C313.18 133.582 315.57 133.852 317.89 134.442C319.64 134.892 321.81 133.432 323.16 135.602C324.94 135.912 326.71 136.312 328.51 136.512C329.42 136.612 330.39 136.472 331.28 136.252C332.72 135.902 334.09 135.462 335.33 136.772C335.55 137.002 336.11 136.892 336.51 136.962C338.57 137.372 339.66 139.182 339.5 141.462C339.46 141.982 339.93 142.252 339.09 142.662C338.29 143.042 337.03 143.492 337.44 144.952C337.46 145.032 336.85 145.422 336.54 145.432C335.54 145.452 334.65 144.092 333.55 145.182C334.18 145.582 334.35 145.972 334.02 146.272C333.85 146.432 333.55 146.542 333.49 146.722C333 148.452 330.88 147.902 330.1 149.142C329.4 150.262 328.83 151.462 328.16 152.592C327.98 152.892 327.67 153.222 327.35 153.322C323.22 154.602 320.41 157.932 316.84 160.072C315.3 161.002 313.75 161.922 312.16 162.882C311.34 161.582 312.89 159.352 310.82 158.092C308.43 160.312 306.01 162.542 303.62 164.812C302.9 165.492 302.75 166.242 303.71 166.892C304.01 167.092 304.48 167.192 304.6 167.462C304.88 168.082 305.35 169.152 305.12 169.362C304.48 169.942 303.69 170.992 302.71 170.462C301.62 169.862 300.88 169.852 299.71 170.402C298.93 170.772 297.67 170.172 296.64 169.932C295.2 169.592 295.99 168.302 295.64 167.492C295.56 167.312 295.3 167.202 294.86 166.852C291.01 170.842 287.67 175.092 288.47 181.092C288.85 183.922 289.65 186.782 290.77 189.402C291.69 191.542 291.27 192.852 289.63 194.162C288.96 194.692 288.42 195.392 287.76 195.942C284.25 198.842 283.84 202.462 285.26 206.502C285.94 208.422 286.69 210.322 287.42 212.232C287.76 213.122 287.65 213.602 286.75 214.312C285.06 215.622 283.23 216.722 281.91 218.622C278.44 223.622 281.26 228.552 284.72 230.422C286.6 231.442 288.71 232.102 290.78 232.672C293.7 233.472 293.91 233.502 293.1 236.252C292.77 237.382 293.62 238.642 292.29 239.772C291.65 240.312 292.12 242.102 291.95 243.302C291.76 244.602 291.39 245.872 291.14 247.162C290.91 248.332 290.83 249.542 290.52 250.692C290.03 252.532 289.36 254.322 288.86 256.152C287.43 261.342 286.22 266.562 285.2 271.862C284.61 274.932 283.94 277.942 283.72 281.082C283.55 283.572 282.92 286.042 282.41 288.512C281.64 292.232 281.71 296.002 281.59 299.772C281.54 301.402 280.91 303.032 280.39 304.612C280.04 305.682 279.92 305.572 277.88 305.492C277.52 305.482 277.05 306.272 276.79 306.782C276.64 307.072 276.82 307.522 276.85 307.902C276.5 307.662 275.98 307.502 275.83 307.172C275.57 306.572 275.51 305.882 275.41 305.222C275.37 304.942 275.53 304.502 275.39 304.382C274.87 303.922 274.14 303.662 273.72 303.142C273.4 302.742 273.44 302.052 273.3 301.402C272.7 302.072 272.56 303.832 271.36 302.052C271.17 301.782 270.88 301.502 270.58 301.392C268.35 300.582 266.86 298.892 265.38 297.172C264.49 296.132 263.47 295.482 261.97 295.302C260.22 295.092 258.74 293.612 256.79 293.942C256.59 293.972 256.26 293.842 256.15 293.672C254.84 291.732 252.24 292.032 250.7 290.542C249.68 289.562 248.61 288.572 247.86 287.402C247.18 286.342 246.43 285.622 245.33 284.962C242.66 283.362 240.19 281.412 237.55 279.732C236.06 278.782 234.34 278.332 232.82 277.272C228.29 274.122 223.53 271.302 218.88 268.332C216.14 266.582 213.31 267.192 211.62 269.972C211.44 270.272 211.44 270.832 211.2 270.932C209.03 271.862 208.18 274.212 206.53 275.452C203.98 277.372 201.67 279.842 198.37 280.702C197.72 280.872 197.16 281.452 196.6 281.902C193.99 284.022 191.38 286.132 188.81 288.292C188.06 288.922 187.38 289.652 186.75 290.402C184.65 292.912 182.79 295.642 180.47 297.912C178.04 300.292 175.59 302.702 173.91 305.562C172 308.822 169.24 311.292 167.07 314.272C166.21 315.452 165.02 316.382 163.97 317.422C163.58 317.812 163.05 318.132 162.79 318.592C161 321.742 158.14 323.992 156.03 326.882C153.46 330.392 150.72 333.772 148.1 337.242C147.09 338.582 146.24 340.042 145.27 341.422C143.39 344.072 142.61 347.212 141.32 350.132C141.02 350.792 140.22 351.402 139.51 351.672C138.63 352.002 137.61 352.002 136.64 352.042C136.51 352.052 136.31 351.522 136.21 351.212C135.74 349.722 134.18 348.422 135.4 346.622C135.49 346.492 135.36 346.152 135.25 345.952C133.32 342.202 133.32 342.202 133.32 339.442C133.32 334.272 133.32 329.112 133.32 323.942C133.32 322.182 132.93 320.682 131.94 319.062C130.73 317.092 130.33 314.612 129.67 312.332C129.56 311.952 130.01 311.432 130.02 310.982C130.07 307.092 130.12 303.202 130.09 299.312C130.08 298.362 129.59 297.412 129.67 296.482C129.87 293.972 130.21 291.472 130.58 288.982C130.81 287.452 131.27 285.952 131.47 284.422C132.06 280.052 133.95 275.972 134.13 271.482C134.21 269.502 135.01 267.542 135.61 265.602C136.6 262.402 137.74 259.232 137.77 255.822C137.78 254.982 138.39 255.012 138.98 254.812C140.18 254.392 141.72 254.692 142.53 253.352C142.95 252.662 143.42 251.962 143.65 251.192C144.22 249.302 145.33 247.872 146.98 246.832C148.6 245.812 150.17 244.712 151.83 243.772C152.74 243.252 153.77 242.822 154.8 242.652C155.8 242.492 156.86 242.772 157.9 242.782C158.58 242.782 159.42 242.862 159.9 242.512C162.43 240.642 164.86 238.652 167.33 236.702C168.19 236.032 169.14 235.462 169.9 234.692C171.08 233.502 172.23 232.242 173.21 230.892C174.88 228.602 176.51 226.282 178.37 224.132C178.98 223.432 179.62 222.492 179.69 221.622C179.91 218.612 180.71 215.732 181.28 212.792C181.49 211.722 181.4 210.572 181.28 209.482C180.99 206.712 181.84 204.232 183.06 201.822C183.72 200.522 184.44 199.252 185 197.912C185.37 197.042 185.59 196.082 185.75 195.142C186.14 192.892 186.35 190.592 186.84 188.362C187.69 184.472 185.39 180.112 181.6 178.742C180.59 178.402 179.57 178.092 178.4 177.712ZM162.93 287.972C164.65 285.612 166.17 283.372 167.87 281.272C168.82 280.102 169.26 278.482 171.02 277.932C171.65 277.742 172.21 276.712 172.44 275.962C173.17 273.562 175.91 272.762 176.69 270.452C179.26 269.032 180.38 266.412 181.9 264.122C183.03 262.412 184.17 260.692 185.47 259.112C188.37 255.602 191.4 252.182 194.33 248.692C194.73 248.222 194.85 247.522 195.1 246.922C190.54 245.942 187.17 247.302 184.96 251.182C183.4 253.912 182 256.732 180.45 259.472C178.96 262.102 177.53 264.802 175.79 267.262C172.36 272.122 168.7 276.812 165.2 281.622C163.89 283.442 162.37 285.262 162.93 287.972ZM273.41 213.422C275.86 212.632 274.95 210.902 275.38 209.732C276.45 206.852 277.47 203.882 277.96 200.862C278.75 195.922 280.61 191.252 281.3 186.312C281.66 183.722 282.83 181.102 281.19 178.502C280.68 177.692 281.05 176.892 281.59 176.142C281.71 175.982 281.5 175.382 281.28 175.242C281.06 175.102 280.51 175.182 280.33 175.372C279.94 175.802 279.64 176.332 279.41 176.872C278.21 179.582 277.02 182.302 275.88 185.042C275.7 185.462 275.8 186.002 275.76 186.482C275.65 187.782 275.52 189.042 275.18 190.352C274.49 193.002 274.49 195.842 274.3 198.602C274.15 200.792 274.2 202.992 274.06 205.182C273.9 207.842 273.65 210.482 273.41 213.422ZM245.37 223.562C244.99 222.842 244.65 222.112 244.21 221.452C244.1 221.292 243.56 221.192 243.43 221.302C242.86 221.802 242.35 222.372 241.87 222.962C241.78 223.072 241.9 223.442 242.03 223.602C242.8 224.592 242.79 224.572 242.59 225.042C241.86 226.792 240.69 228.412 241.05 230.492C241.12 230.912 240.9 231.442 240.69 231.852C240.41 232.402 240 233.052 240.8 233.292C241.18 233.402 241.96 232.902 242.24 232.462C243.34 230.762 244.41 229.022 245.31 227.212C245.88 226.082 243.91 224.832 245.37 223.562ZM259.81 269.782C261.34 271.712 262.84 273.592 264.73 275.972C264.5 273.272 265.6 271.142 264.57 269.222C262.98 269.402 261.47 269.582 259.81 269.782Z" fill="#D8B06C"/>
<path d="M72.51 326.052C72.25 326.192 72.01 326.442 71.84 326.392C70.01 325.902 68.96 327.072 68.86 328.472C68.77 329.722 68.15 329.902 67.38 330.472C64.45 332.672 62.71 335.842 61.06 339.012C60.43 340.222 60.12 341.612 59.82 342.962C59.26 345.472 58.66 347.992 58.36 350.542C58.16 352.232 56.37 353.292 56.82 355.132C55.43 357.782 55.14 360.922 53.2 363.412C53.59 363.832 54.08 364.352 54.64 364.952C52.95 365.742 51.7 364.302 50.24 364.232L48.61 363.042C48.31 362.772 48.05 362.322 47.71 362.262C45 361.712 44.62 361.372 44.14 358.762C43.88 357.372 43.78 355.942 43.34 354.622C43.09 353.872 42.29 353.312 41.62 352.542C39.25 354.482 37.77 357.262 35.2 358.912C34.89 359.112 34.89 359.772 34.58 359.992C32.37 361.522 30.18 363.112 27.86 364.462C25.37 365.912 22.54 366.732 20.23 368.552C19.78 368.912 18.65 369.052 18.3 368.742C17.58 368.122 17.38 368.572 16.9 368.902C16.71 369.032 15.56 369.432 16.15 368.182C16.42 367.612 16.56 366.732 16.31 366.202C15.2 363.802 15.74 361.592 16.79 359.382C17.63 357.612 19.05 356.042 18.77 353.862C20.29 352.572 20.3 350.492 21.31 348.962C21.69 348.392 21.62 348.182 21.18 347.892C20.95 347.742 20.64 347.562 20.4 347.602C20.08 347.652 19.59 348.122 19.52 348.052C18.23 346.852 16.51 347.652 15.08 347.032C13.06 346.172 10.85 345.742 9.19 344.132C8.89 343.832 8.34999 343.792 7.92999 343.602C7.40999 343.372 6.91 343.052 6.37 342.872C4.77 342.352 3.80999 341.192 3.10999 339.752C4.13999 338.802 5.01998 337.492 6.22998 337.002C7.29998 336.572 5.31 335.052 7.06 335.402C8.46 333.892 10.65 333.742 12.17 332.432C12.49 332.152 19.05 330.212 19.43 330.182C21.67 330.042 23.52 328.452 25.89 328.552C26.47 328.572 27.26 327.262 27.7 326.432C29.48 323.082 30.91 319.582 32.27 316.022C33.97 311.592 36.43 307.492 39.16 303.622C39.71 302.832 41.04 302.502 41.44 301.242C41.57 300.852 42.4 300.512 42.92 300.512C43.18 300.512 43.38 301.382 43.72 301.742C47.08 305.342 48.54 309.892 50.08 314.392C50.29 315.022 50.24 316.002 49.88 316.502C49.32 317.292 49.37 317.412 50.27 317.522C50.49 317.552 50.81 317.972 50.83 318.242C50.91 318.982 50.75 319.752 50.89 320.472C51.01 321.132 51.25 321.892 51.7 322.342C52.05 322.682 53 322.892 53.34 322.662C54.25 322.052 54.54 324.012 55.52 323.002C55.85 322.662 56.73 323.472 57.39 322.742C57.92 322.162 58.23 323.732 59.15 323.102C59.76 322.682 60.76 322.782 61.58 322.732C62.42 322.672 63.18 322.302 63.92 322.122C65.56 321.712 67.37 321.892 69.09 322.022C69.8 322.072 69.22 323.772 70.65 323.572C70.98 323.522 72.28 324.442 70.99 325.332C71.49 325.542 71.98 325.782 72.51 326.052ZM51.17 357.852C52.11 356.562 51.89 354.822 53 354.072C54.69 352.932 53.29 351.382 53.87 350.212C54.11 349.722 55.07 349.482 55.14 349.042C55.23 348.432 54.65 347.742 54.64 347.082C54.63 346.722 55.21 346.342 55.53 345.982C55.7 345.792 55.88 345.632 56.06 345.452C54.1 344.032 56.1 342.612 56.18 341.232C56.28 339.422 56.6 337.272 57.68 335.962C59.73 333.462 60.83 330.242 63.54 328.272C64.12 327.852 64.69 327.422 65.26 327.002C64.86 326.602 64.79 326.472 64.68 326.432C63.63 326.052 62.88 327.062 62.01 327.092C59.96 327.172 58.12 328.272 55.97 327.972C54.76 327.802 53.41 328.702 52.2 328.532C51.45 328.422 50.91 328.382 50.18 328.592C49.36 328.842 48.37 328.792 48.61 327.382C48.76 326.472 48.41 325.802 47.76 325.102C47.15 324.442 46.36 323.452 46.46 322.722C46.75 320.582 45.57 318.732 45.62 316.682C45.71 313.202 43.92 310.232 43.15 306.862C42.71 307.302 42.36 307.522 42.19 307.842C39.86 312.342 37.51 316.872 35.48 321.482C33.95 324.952 32 328.232 30.67 331.802C30.36 332.652 29.76 333.372 28.72 332.482C25.64 334.342 22.07 334.462 18.74 335.412C16.1 336.162 13.57 337.312 11.02 338.372C10.29 338.672 10.39 339.302 10.91 339.822C11.17 340.082 11.42 340.512 11.72 340.562C15.55 341.142 18.99 343.542 23.11 342.862C24.54 342.622 26.05 342.822 27.58 342.822C27.64 343.332 27.82 343.752 27.69 344.012C27.11 345.142 26.3 346.182 25.85 347.352C25.4 348.542 25.44 349.912 24.99 351.102C23.56 354.792 22 358.432 20.45 362.192C20.84 362.152 21.28 362.252 21.49 362.072C23.2 360.612 25.15 359.572 27.07 358.442C28.91 357.352 30.62 355.942 32.06 354.372C32.64 353.732 32.98 353.022 33.84 352.452C35.92 351.062 37.73 349.252 39.65 347.612C39.73 345.832 40.94 346.442 41.7 346.802C42.98 347.412 44.13 348.132 45.66 348.112C46.49 348.102 47.07 348.822 47.15 349.862C47.21 350.642 48.03 351.842 47.78 352.092C46.04 353.762 48.8 352.942 48.65 353.802C48.53 354.502 48.17 355.502 49.7 355.632C50.24 355.672 50.66 357.022 51.17 357.852Z" fill="#1D3D6C"/>
<path d="M398.59 107.562C396 109.792 393.73 112.322 390.94 113.952C389.12 115.012 386.54 114.752 384.16 115.102C383.78 113.942 383.45 112.962 383.15 111.972C382.88 111.082 382.18 109.652 382.48 109.392C383.78 108.262 381.89 107.562 382.36 106.542C383.08 104.982 383.38 103.222 384.12 101.682C384.47 100.962 384.89 100.562 384.2 99.8324C383.7 99.3024 383.84 98.3924 382.58 98.3624C381.48 98.3424 380.43 97.5124 379.15 97.6624C378.66 97.7224 378.1 97.2424 377.59 96.9924C374.99 95.7124 374.89 95.4024 377.37 94.0524C378.56 93.4024 378.32 91.5024 379.99 91.5524C379.93 91.3724 379.92 91.1624 379.81 91.0324C378.99 89.9924 379.33 89.7124 380.55 89.4424C382.12 89.0924 382.94 87.0824 384.87 87.2424C385.02 87.2524 385.18 86.7124 385.4 86.4724C385.87 85.9724 386.31 85.2024 386.87 85.0924C388.71 84.7524 390.31 84.2524 390.84 82.2024C391.19 82.3524 391.54 82.5124 392.21 82.8024C391.13 78.5224 394.88 76.4224 396.11 73.2024C397.71 72.8724 397.96 71.2624 398.76 70.2424C400.38 68.1824 401.26 67.9624 402.81 70.0424C404.05 71.7124 405.21 73.5324 405.47 75.6324C405.59 76.6224 407.35 77.6824 405.56 78.7224C406.77 79.4824 406.05 80.7524 406.36 81.7724C407.08 81.6224 407.8 81.4124 408.53 81.3224C409.34 81.2224 409.96 79.8024 411.04 81.0724C411.26 81.3324 412.44 80.6724 413.2 80.5824C414.06 80.4824 414.95 80.6524 415.8 80.5324C416.59 80.4124 417.42 79.7324 418.09 79.8924C418.96 80.1024 419.59 80.3124 420.51 79.8824C421.22 79.5424 422.22 79.8124 423.28 79.8124C422.63 82.0324 421.55 84.1524 421.97 86.5124C422.19 87.7124 421.5 88.8524 420.86 89.3624C418.51 91.2424 417.77 94.5724 414.68 95.8224C413.86 96.1524 413.07 97.7724 413.1 98.7724C413.2 101.602 411.07 103.872 411.46 106.742C411.6 107.782 409.84 108.062 409.94 109.482C409.99 110.282 409.24 111.142 408.83 111.962C408.53 112.562 409.55 113.252 408.56 113.882C408.03 114.212 407.92 115.272 407.39 115.542C406.94 115.762 405.99 116.082 405.53 115.072C405.14 114.232 404.56 113.482 404.06 112.702C403.89 112.432 403.7 111.942 403.52 111.942C400.97 111.912 400.23 109.852 399.17 108.142C399.02 107.922 398.8 107.772 398.59 107.562ZM395.1 86.1124C393.24 87.0724 391.5 87.7724 390 88.8024C388.17 90.0624 385.76 90.3724 384.37 92.3524C383.66 93.3624 383.7 93.4824 384.89 94.0124C386.15 94.5724 387.41 95.2224 388.49 96.0624C388.93 96.4024 388.75 97.4724 389.15 97.9824C390.86 100.172 389.17 101.962 388.56 103.862C388.06 105.392 387.4 106.862 386.92 108.392C386.81 108.742 387.12 109.262 387.36 109.632C387.41 109.712 388.04 109.532 388.3 109.342C389.54 108.402 390.79 107.482 391.94 106.442C393.14 105.362 394.07 103.552 395.42 103.192C397.17 102.722 397.23 101.012 398.65 100.312C400.16 99.5724 400.58 99.1524 401.04 100.682C401.77 103.122 403.65 105.052 404.08 107.632C404.12 107.852 404.59 108.142 404.85 108.132C405.09 108.122 405.46 107.772 405.52 107.522C405.67 106.822 405.5 106.012 405.78 105.392C406.31 104.232 406.86 103.152 407.16 101.842C407.48 100.442 407.89 99.0924 407.77 97.6624C407.69 96.8024 408.24 96.3824 408.6 95.7524C410.28 92.8124 413 90.8624 415.23 88.4524C416.14 87.4624 417.2 86.5924 417.13 85.0224C415.24 85.2424 413.3 84.6524 411.45 85.7424C410.81 86.1224 409.44 86.1424 408.95 85.7124C407.71 84.6024 406.88 85.1224 405.75 85.7724C404.28 86.6224 404.22 86.5224 403.27 84.6424C403.22 84.5324 403.07 84.3724 403.02 84.3924C402.66 84.5124 402.31 84.6724 401.96 84.8124C401.92 84.3324 402.05 83.5924 401.8 83.4224C400.53 82.5424 402.29 81.5824 401.78 81.0624C400.81 80.0924 401.11 79.0224 401.11 77.9724C401.11 77.3724 401.55 76.7524 401.48 76.1724C401.39 75.3924 401.01 74.6424 400.8 74.0324C399.76 75.7124 398.4 77.3624 397.64 79.2524C396.68 81.5724 394.17 83.3424 395.1 86.1124Z" fill="#1D3D6C"/>
<path d="M0.0899658 18.0124C0.709966 18.0124 1.63001 18.2624 1.89001 17.9624C2.46001 17.2924 2.79998 16.3624 3.03998 15.4824C3.24998 14.6824 3.01 13.7324 3.31 12.9724C4.4 10.1924 5.67998 7.49238 6.78998 4.71239C7.78998 2.24239 10.13 1.51238 12.16 0.352384C12.29 0.282384 12.61 0.292383 12.67 0.382383C13.46 1.58238 14.62 1.73238 15.91 1.60238C16.09 1.58238 16.44 1.79239 16.48 1.95239C17.12 4.29239 19.84 4.49239 20.97 6.37239C22.06 8.18239 23.22 10.0224 24.69 11.5124C25.7 12.5424 25.1 14.0824 26.43 14.9824C27.46 15.6724 27.97 17.0824 28.88 18.0024C29.69 18.8324 30.33 19.6224 30.04 21.0424C31.45 19.1724 33.36 18.4224 35.24 18.0724C37.1 17.7224 38.46 16.0624 40.59 16.4324C41.53 16.5924 42.6 15.8624 43.63 15.7924C45.24 15.6724 46.88 15.6224 48.47 15.8024C49.84 15.9524 50.93 16.9824 52.29 17.3924C53.24 17.6824 54 19.1524 54.5 20.2524C54.87 21.0524 55.2 21.1024 55.82 20.8424C56.35 20.6224 56.88 20.3624 57.35 20.0524C57.94 19.6624 58.43 19.0024 59.07 18.8024C60.29 18.4124 61.58 18.1524 62.85 18.0424C64.33 17.9124 65.83 18.0024 67.32 18.0324C67.53 18.0324 67.78 18.1824 67.92 18.3524C68.55 19.0724 69.16 19.8124 70.12 18.7724C70.4 19.0624 70.67 19.3624 70.97 19.6324C71.15 19.7924 71.38 20.0124 71.58 20.0024C72.77 19.9424 74.66 20.6524 74.61 21.3724C74.57 21.9224 73.34 22.7224 74.3 23.0824C75.47 23.5324 75.88 24.2024 76.39 25.2124C77.06 26.5524 77.63 26.4524 79.18 25.1524C79.77 24.6624 84.17 23.9524 85.03 24.2424C85.35 24.3524 85.66 24.7324 85.94 24.7024C88.82 24.3724 90.61 26.1924 92.45 27.9324C93.08 28.5324 93.68 29.1624 94.56 30.0424C95.19 29.0924 95.69 28.0824 96.44 27.3024C97.16 26.5524 98.06 25.8724 99.02 25.4624C101.13 24.5524 103.07 23.1124 105.56 23.2124C106.24 23.2424 106.93 22.9524 107.61 22.7924C111.07 21.9324 114.16 22.7424 116.96 24.8424C117.6 25.3224 118.26 25.8624 117.32 26.6824C117.94 26.9924 118.55 27.3024 119.26 27.6524C119.58 25.2624 119.9 22.7924 120.23 20.3224C120.29 19.8524 120.24 19.0824 120.47 18.9724C121.28 18.6124 120.54 17.2424 121.93 17.2024C123.23 17.1624 121.13 16.2324 122.06 15.7924C122.74 15.4724 122.2 13.8824 123.6 14.2624C123.48 13.9124 123.15 13.3724 123.27 13.2324C124.12 12.2624 124.78 10.9324 126.48 11.2824C127.1 11.4124 127.5 11.2824 127.73 10.4224C128.27 8.37238 128.37 8.40239 130.34 8.31239C130.92 8.29239 131.5 8.31239 132.2 8.31239C131.93 7.66239 131.6 7.05238 131.67 7.00238C132.43 6.46238 133.26 6.01238 134 5.49238C134.85 5.00238 134.1 7.59238 135 6.14238C135.56 5.24238 136.38 5.07238 136.87 4.86238C138.36 4.25238 140.04 4.06238 141.67 3.85238C143.19 3.65238 144.8 4.17238 146.23 3.11238C146.75 2.72238 147.53 4.46238 148.2 3.08238C149.11 4.38238 150.47 3.78238 151.62 3.78238C152.75 3.77238 153.69 4.15239 154.67 4.56239C155.41 4.87239 156.21 5.03238 156.96 5.33238C157.6 5.58238 158.23 5.89239 158.81 6.26239C161.72 8.06239 163.28 11.2224 165.97 13.3324C167.63 13.2924 168.09 10.8824 169.98 11.1424C171.02 9.60238 173.05 9.97239 174.29 8.98239C175.61 7.94239 176.95 7.45239 178.57 7.56239C180.81 5.46239 184 5.59239 186.49 4.20239C187.86 3.43239 189.52 4.68239 190.58 3.23239C195.23 2.48239 199.65 0.352384 204.51 0.852384C210.57 -0.687616 216.74 0.372382 222.85 0.162382C224.59 0.102382 226.36 -0.247616 228.19 0.742384C229.66 1.54238 231.82 0.18239 233.42 1.59239C236.73 1.08239 239.64 3.09238 242.87 3.10238C244.54 3.10238 245.64 4.95239 247.46 4.62239C248.02 5.56239 248.95 5.25238 249.78 5.33238C250.36 5.39238 251.22 5.36239 251.45 5.70239C252.67 7.50239 254.77 6.72238 256.38 7.41238C257.36 7.83238 258.59 8.09238 259.61 8.60238C261.88 9.74238 264.05 11.0824 266.31 12.2524C268.61 13.4424 270.2 15.7024 272.75 16.5124C273.64 18.4024 275.7 19.0924 276.97 20.6324C278.27 22.2024 280.12 23.3224 281.51 24.7424C282.82 26.0724 283.92 27.7524 285.35 29.0324C286.73 30.2724 287.49 32.0524 289.22 33.0024C290.86 33.9024 292.48 34.9424 293.82 36.2124C294.26 36.6324 296.52 36.9424 294.8 38.5024C294.99 38.6324 295.19 38.8924 295.36 38.8724C297.36 38.6324 298.21 40.3124 299.11 41.4524C300.84 43.6424 302.08 46.2224 303.78 48.4324C305.44 50.5824 306.5 53.1224 308.35 55.1524C309.08 55.9524 309.11 57.3424 309.74 58.2724C312.1 61.7724 312.66 66.0324 314.69 69.6624C315.12 70.4424 315.1 71.4824 315.25 72.4124C315.67 75.0924 317.24 77.3124 318.17 79.7824C318.84 81.5424 319.4 83.2824 318.99 85.1924C318.94 85.4324 319.03 85.7324 319.13 85.9824C319.97 88.0324 321.01 90.0024 320.94 92.3424C320.91 93.2224 321.22 94.2324 321.68 94.9924C322.7 96.7024 322.74 98.3924 321.94 100.112C321.52 101.012 322.29 100.612 322.51 100.832C322.8 101.112 323.14 101.852 323.1 101.872C322.16 102.512 322.77 102.882 323.17 103.532C323.81 104.602 324.21 105.832 324.61 107.032C324.9 107.912 323.6 108.692 324.56 109.822C325.17 110.532 325.13 111.792 325.37 112.812C325.61 113.842 324.84 115.062 325.94 115.932C324.72 117.402 326.02 118.102 326.78 119.082C327.25 119.682 327.41 120.562 327.58 121.342C327.76 122.152 327.48 123.422 327.93 123.752C329.01 124.542 330.37 125.162 331.69 125.382C334.81 125.892 337.71 127.132 340.77 127.812C341.89 128.062 342.96 128.742 344.07 128.802C346.48 128.922 348.32 130.832 350.78 130.702C351.28 130.672 351.86 131.092 352.32 131.422C353 131.922 353.88 132.412 354.17 133.112C354.4 133.682 354.02 134.622 353.68 135.282C353.12 136.372 352.32 137.342 353.61 138.472C353.72 138.572 353.29 139.572 353.21 139.562C351.79 139.342 352.29 140.762 351.75 141.292C350.21 142.812 349.08 144.782 347.43 146.142C345.88 147.432 344.63 148.952 343.35 150.422C340.94 153.212 339 156.412 336.48 159.092C334.32 161.382 333.25 164.432 330.88 166.492C329.76 167.472 329.79 169.562 327.78 169.642C327.92 171.502 326.45 172.362 325.41 173.512C324.36 174.682 323.42 175.942 322.34 177.072C321.72 177.722 320.85 178.122 320.19 178.742C319.11 179.762 318.94 180.482 319.94 181.492C320.76 182.312 320.89 183.112 320.88 184.122C320.85 187.482 320.93 190.842 320.85 194.192C320.8 196.342 319.98 198.382 320.06 200.602C320.13 202.602 319.63 204.622 319.38 206.632C319.35 206.862 319.35 207.172 319.2 207.292C317.34 208.842 317.12 211.162 316.42 213.232C315.72 215.312 314.29 217.042 313.85 219.272C313.6 220.562 312.8 222.132 311.75 222.772C310.56 223.502 310.17 224.682 309.27 225.522C307.88 226.832 306.61 228.332 305.58 229.942C304.74 231.272 304.1 232.582 302.43 233.082C302.01 233.212 301.78 234.012 301.47 234.502C301.84 234.702 302.28 234.832 302.57 235.112C302.79 235.332 302.93 235.732 302.95 236.052C303 236.922 302.99 237.792 302.96 238.662C302.94 239.392 303.08 240.612 302.77 240.752C301.45 241.322 303.72 242.262 302.47 242.722C302.29 242.792 302.19 243.382 302.23 243.702C302.77 247.392 301.56 250.942 301.4 254.582C301.33 256.152 300.39 257.652 300.11 259.242C299.66 261.782 298.93 264.262 298.35 266.752C297.44 270.712 297.25 274.852 295.6 278.642C295.08 279.832 296.16 281.382 294.8 282.412C295.26 285.132 293.85 287.522 293.13 289.942C292.22 292.962 291.97 296.222 290.72 298.992C288.81 303.212 288.49 307.982 285.89 311.942C285.5 312.532 285.49 313.522 284.78 314.072C283.84 314.802 283.43 315.692 283.53 316.932C283.65 318.292 281.44 318.762 282.03 320.432C282.05 320.482 281.51 320.852 281.21 320.882C279.85 320.992 278.57 320.522 277.26 320.242C275.89 319.962 275.33 318.962 274.6 318.022C273.79 316.972 273.08 315.462 272 315.082C269.33 314.122 268.67 311.202 266.4 309.982C260.73 302.002 260.58 302.572 253.75 296.692C252.98 294.632 250.79 294.302 249.33 293.072C247.9 291.872 246.37 290.442 244.66 290.012C242.9 289.572 241.78 288.172 239.89 287.882C238.07 287.602 236.55 285.772 234.72 285.172C232.75 284.532 231.35 283.112 229.6 282.212C225.15 279.932 221.54 276.292 216.75 274.502C215.22 273.932 214.28 273.752 212.87 274.752C207.18 278.792 201.42 282.722 196.71 287.962C195.7 289.082 194.83 290.672 192.87 290.362C192.66 292.412 190.56 292.562 189.45 293.712C188.29 294.912 186.87 295.842 185.57 296.912C182.62 299.352 179.77 301.922 176.71 304.222C173.08 306.962 170.35 310.812 166.06 312.702C165.95 312.752 165.89 312.892 165.79 312.952C164.65 313.592 165.02 315.412 163.28 315.782C162.12 316.032 161.04 317.072 160.11 317.952C158.89 319.102 157.84 320.432 156.74 321.702C156.59 321.872 156.52 322.302 156.44 322.292C155.07 322.182 154.16 322.912 153.36 323.902C152.67 324.762 151.66 325.202 150.94 326.172C149.9 327.572 147.89 328.292 146.94 329.722C145.65 331.682 144.05 333.102 142.16 334.392C140.26 335.682 139.3 338.112 136.92 338.852C136.07 341.282 133.31 341.012 131.74 342.462C131.29 342.882 130.57 342.552 130.6 341.662C130.66 339.862 129.04 343.012 129.11 341.162C129.15 340.282 129.22 339.382 127.9 339.482C127.96 339.042 128.21 338.362 128.03 338.212C127.65 337.892 126.85 338.192 126.83 337.232C126.82 336.692 126.29 336.152 126.3 335.612C126.36 333.062 124.34 331.082 124.42 328.542C123.24 328.082 124.88 327.532 124.37 326.932C124.03 326.532 123.95 325.852 123.9 325.282C123.79 324.102 123.97 322.982 123.22 321.812C122.64 320.902 123.59 319.442 122.54 318.352C122.22 318.022 122.41 317.182 122.4 316.572C122.38 315.822 122.42 315.082 122.39 314.332C122.36 313.612 122.56 312.492 122.18 312.232C121.19 311.542 122.69 311.012 122.13 310.592C121.06 309.792 122.65 309.552 122.44 308.842C122.23 308.162 122.68 307.172 122.34 306.652C121.52 305.412 121.9 304.072 121.59 302.832C121.29 301.662 121.83 300.322 121.35 299.472C120.57 298.102 121.58 296.462 120.82 295.612C119.56 294.202 121.5 292.882 120.38 291.492C119.56 290.482 120.47 288.742 119.51 287.382C119.13 286.842 121.06 285.622 119.43 284.702C121.02 281.932 119.81 278.932 120.17 276.052C120.35 274.652 119.93 273.252 120.83 271.832C121.34 271.032 121.37 269.312 120.83 268.602C119.57 266.932 120.62 265.742 121.11 264.382C121.23 264.062 121.6 263.802 121.63 263.492C121.67 263.042 121.66 262.392 121.39 262.142C121.1 261.882 120.35 261.782 120.02 261.982C117.54 263.522 114.73 264.222 112.06 265.292C110.13 266.072 108 266.452 106.25 267.442C104.34 268.522 102.03 267.992 100.33 269.412C98.48 268.492 96.96 269.782 95.28 270.132C93.42 270.512 91.49 270.562 89.63 270.942C88.52 271.172 87.34 272.292 86.46 272.052C85.24 271.722 84.19 272.202 83.46 272.532C82.39 273.012 81.41 273.052 80.35 273.162C78.58 273.352 76.82 273.612 75.06 273.902C73.3 274.192 71.48 273.302 69.7 274.542C69.13 274.942 67.75 274.012 66.72 273.922C62.95 273.612 59.32 272.962 55.65 271.832C47.99 269.482 47.06 268.682 41.86 265.442C39.36 263.882 36.9 262.332 34.52 260.572C33.44 259.772 32.5 258.862 31.53 257.992C29.78 256.412 28.17 254.672 26.49 253.002C23.57 250.102 20.85 247.032 18.58 243.592C17.18 243.612 17.22 242.202 16.54 241.502C15.9 240.842 15.35 240.062 14.83 239.262C13.16 236.732 13.1 233.752 12.03 231.072C11.36 229.392 11.56 227.342 10.44 225.772C9.84 224.932 11.69 224.752 10.74 223.602C10.12 222.862 10.6 221.242 10.44 220.032C10.31 219.002 10.12 217.922 9.67999 217.002C9.03999 215.642 11.61 214.422 9.75 213.112C9.74 211.622 9.71997 210.132 9.71997 208.652C9.70997 207.162 9.71997 205.672 9.71997 204.172C9.71997 202.682 9.71997 201.192 9.71997 199.692C9.71997 198.192 9.76002 196.702 9.71002 195.212C9.65002 193.402 10.79 191.822 10.52 189.922C10.29 188.292 10.2 186.562 11.18 184.992C11.4 184.632 11.15 184.002 11.22 183.522C11.51 181.742 10.67 179.932 11.74 178.132C12.58 176.722 11.43 174.842 12.62 173.262C13.1 172.632 12.6 171.322 12.73 170.342C12.83 169.552 13.27 168.822 13.43 168.032C13.73 166.532 14.04 165.012 14.17 163.492C14.29 162.012 14.15 160.512 14.22 159.022C14.25 158.462 14.54 157.922 14.7 157.362C15.32 155.252 15.69 153.032 16.62 151.072C17.52 149.162 18.19 147.262 18.76 145.232C19.35 143.152 20.07 141.072 20.9 139.042C21.72 137.022 22.34 134.912 23.18 132.902C23.63 131.842 24.59 130.982 24.93 129.902C25.43 128.322 27.22 127.522 27.17 125.572C27.14 124.552 29.45 125.032 29.24 123.102C29.14 122.202 30.36 121.142 31.01 120.172C31.6 119.292 32.29 118.472 32.83 117.562C33.42 116.572 33.69 115.292 34.47 114.542C36.25 112.842 37.09 110.692 38.2 108.612C38.98 107.132 38.89 105.912 38.44 104.532C37.79 102.512 37.76 101.922 38.35 99.1824C39.31 100.232 40.23 101.132 41.03 102.142C41.87 103.202 42.24 103.272 42.99 102.192C44.59 99.8824 46.48 97.6824 47.64 95.1624C48.53 93.2224 50.4 92.2724 51.29 90.3424C51.95 88.9024 53.63 87.8124 54.63 86.5224C56.45 84.2024 58.59 82.2524 60.59 80.1524C62.51 78.1424 64.27 76.0024 66.13 73.9524C68.14 71.7424 70.57 69.9024 72.88 67.9824C75.05 66.1724 77.67 65.0224 79.87 63.2024C81.34 61.9824 83.25 61.1924 85.09 60.5724C86.84 59.9824 88.65 59.5624 90.26 58.6324C91.11 58.1424 91.78 58.0624 92.56 58.6824C93.44 59.3724 93.52 60.0524 92.64 60.7524C91.71 61.4924 90.79 62.2424 89.77 62.8424C88.95 63.3224 91.23 63.9424 89.62 64.2724C88.95 64.4024 88.34 64.7624 87.69 64.9924C87.36 65.1124 86.89 65.0424 86.69 65.2624C84.34 67.8724 80.68 68.6424 78.34 71.2824C77.58 72.1324 76.08 71.7124 75.24 72.8524C74.64 73.6624 74.01 74.5824 72.72 74.8224C72.02 74.9524 71.25 75.8824 70.95 76.6224C70.7 77.2424 70.62 77.5024 69.9 77.7424C68.79 78.1124 68.02 79.1424 67.1 79.8624C66.03 80.6924 65.26 81.5724 64.62 82.7524C63.86 84.1624 62.08 84.6024 61.22 86.1224C60.22 87.8824 57.96 88.7124 57.32 90.8624C55.08 91.4824 55.32 94.0524 53.79 95.3624C52.78 96.2224 51.81 97.3824 51.08 98.6024C50.36 99.7924 49.74 101.052 48.95 102.192C48.06 103.462 47.09 104.682 46.05 105.832C45.36 106.592 45.29 107.342 45.76 108.122C46.55 109.422 47.38 110.672 48.37 111.882C49.79 113.592 51.06 115.472 52.5 117.232C53.88 118.922 54.76 121.032 55.81 122.942C56.95 125.012 59.44 125.872 59.94 128.302C61.97 129.552 63.2 131.612 64.88 133.212C67.52 135.722 70.13 138.282 73.01 140.502C74.43 141.592 76.3 142.152 77.86 143.162C78.15 143.342 78.85 142.882 79.36 142.702C82.73 141.542 85.81 139.662 89.28 138.732C92.95 137.752 96.33 135.852 100.1 135.142C101.31 133.562 103.28 134.922 104.81 133.832C105.94 133.032 107.78 133.312 109.24 132.872C113.96 131.472 118.93 131.152 123.58 129.632C125.14 129.122 126.86 129.822 128.19 128.652C128.56 129.242 128.8 128.932 129.27 128.662C130.5 127.952 131.83 127.572 133.33 127.622C134.46 127.652 135.61 127.162 136.75 126.942C137.78 126.742 138.77 126.902 139.88 126.382C141.41 125.662 143.35 126.322 145.11 125.522C146.46 124.902 148.1 124.842 149.62 124.732C151.05 124.632 152.51 124.822 153.78 123.952C155.56 124.772 157.34 123.802 159.13 123.892C160.38 123.952 161.66 123.462 162.92 123.192C163.07 123.162 163.17 122.902 163.29 122.742C161.39 121.372 164.16 120.882 163.87 120.462C162.76 118.852 165.39 118.922 164.99 117.492C164.78 116.752 165.78 115.662 166.25 114.742C166.77 113.712 167.3 112.682 167.87 111.682C168.05 111.372 168.32 110.982 168.63 110.902C170.69 110.332 171.12 108.902 170.87 107.012C170.83 106.712 171.26 106.332 171.19 106.052C170.94 104.982 174.02 106.072 172.36 104.202C173.12 103.772 174.05 103.702 173.94 102.272C173.87 101.402 174.85 100.462 175.32 99.5424C175.74 98.7224 175.97 97.7724 176.52 97.0624C178.52 94.4524 178.7 90.8524 181.24 88.5624C181.23 87.0724 181.86 85.8424 182.78 84.7224C182.1 82.7724 185.06 82.1124 184.4 80.1724C186.13 80.1224 185.53 78.7824 185.81 77.8324C186.09 76.8524 187.11 76.0124 187.16 75.0724C187.23 73.9324 188.26 74.2024 188.46 73.7724C189.22 72.1424 190.65 70.8224 191.25 69.3324C191.94 67.6124 193.1 66.3524 194.01 64.8924C196.18 61.4024 198.59 58.0724 200.92 54.6924C201.8 53.4324 202.81 52.2524 203.64 50.9624C204.42 49.7424 204.47 47.9424 206.4 47.6624C206.53 47.6424 206.54 47.0124 206.68 46.7024C206.91 46.1724 207.1 45.5624 207.5 45.2024C207.72 45.0124 208.37 45.3924 208.77 45.2924C209.08 45.2224 209.31 44.8024 209.57 44.5424C208.37 43.7224 209.5 42.8124 209.76 42.2624C210.12 41.4824 211.14 40.9924 211.9 40.4024C212.08 40.2624 212.41 40.2624 212.51 40.1024C213.07 39.2224 213.61 38.3324 214.1 37.4024C215.24 35.2424 217.22 33.5924 217.84 31.1224C218.98 30.7724 219.4 30.1124 219.42 28.8224C219.43 27.8524 220.4 29.9124 220.84 28.6924C221.04 28.1524 221.34 27.6224 221.73 27.2124C222.15 26.7624 222.83 28.2024 223.29 27.1024C223.95 27.4224 224.18 27.6824 224.75 26.6024C225.38 25.4124 227.05 24.6124 228.42 24.0324C229.81 23.4524 231.26 24.1824 232.48 24.8924C233.17 25.2924 233.62 25.8024 234.32 25.0324C234.41 24.9324 234.74 24.8824 234.82 24.9524C235.37 25.4524 235.85 26.0424 236.43 26.5124C237.09 27.0524 237.38 27.5324 236.51 28.1024C236.93 28.2824 237.36 28.4524 237.78 28.6324C237.64 28.8924 237.34 29.3424 237.39 29.3924C237.65 29.6424 238.1 29.7024 238.33 29.9624C238.78 30.4724 240.01 30.8724 238.74 31.8224C238.63 31.9024 238.8 32.7024 238.98 32.7624C241.38 33.5524 241.01 35.9324 241.61 37.6024C242.39 39.7624 242.45 42.1424 243.63 44.2324C244.07 45.0024 243.72 46.4024 244.27 46.8924C245.11 47.6324 243.19 48.4424 244.55 48.8224C244.53 52.5324 246.59 55.7724 246.92 59.4024C247.99 59.9624 246.92 61.0524 247.59 61.8924C248.18 62.6324 248.1 63.8824 248.42 64.8824C248.77 65.9724 249.12 67.0924 249.68 68.0824C250.23 69.0624 249.5 70.1824 250.38 71.1824C251.01 71.8924 251.03 73.1224 251.4 74.0924C251.85 75.2724 252.55 76.3824 252.85 77.5924C253.69 80.9924 254.28 84.4524 255.15 87.8424C255.88 90.6724 255.71 93.6724 256.99 96.4024C257.37 97.2224 257.19 98.2924 257.38 99.2324C257.54 100.022 257.93 100.752 258.09 101.542C258.39 103.042 258.6 104.562 258.85 106.082C259.1 107.592 259.12 109.192 259.65 110.602C260.53 112.932 260.55 115.422 261.33 117.602C262.35 117.482 263.8 116.862 264.51 117.342C265.76 118.182 266.95 117.252 268.19 117.852C269.38 118.432 270.91 118.042 272.34 118.612C273.63 119.122 275.28 118.722 276.77 118.722C278.26 118.722 279.75 118.722 281.25 118.722C282.75 118.722 284.24 118.692 285.73 118.732C286.89 118.772 288.16 118.372 289.13 119.402C290.21 117.592 291.17 119.762 292.28 119.522C293.47 119.262 294.86 119.152 295.98 119.522C299.25 120.592 302.76 120.232 306.01 121.412C306.49 121.592 307.23 120.932 307.82 120.992C310.07 121.192 312.4 121.252 314.51 121.942C315.46 122.252 316.35 122.312 317.27 122.452C318.87 122.692 320.48 122.932 322.09 123.172C321.47 120.692 321.01 118.342 319.56 116.352C319.37 116.092 319.31 115.692 319.3 115.352C319.27 114.362 319.25 113.362 319.3 112.372C319.34 111.512 319.32 110.702 318.6 110.092C319.99 109.262 318.44 108.512 318.44 107.702C318.43 105.502 317.49 103.332 317.24 101.202C316.94 98.5824 316.2 96.1424 315.6 93.6324C315.22 92.0424 314.67 90.5424 314.11 89.0224C312.79 85.4624 311.46 81.8724 310.59 78.1924C310.17 76.4224 308.88 75.2024 308.56 73.4024C308.25 71.6324 307.29 69.9724 306.52 68.3024C305.8 66.7324 305.02 65.1824 304.15 63.6924C302.31 60.5624 300.41 57.4824 298.18 54.5724C295.69 51.3124 293.35 47.8924 291.08 44.4624C289.9 42.6724 288.19 41.3524 287.21 39.3824C286.49 37.9124 285.15 36.7524 284.12 35.4324C283.16 34.2024 281.49 33.5624 281.21 31.7924C279.08 31.3124 278.56 29.2324 277.28 27.8924C276.04 26.5924 274.97 24.8524 272.69 25.4824C270.04 24.0824 267.3 22.8124 264.75 21.2524C262.47 19.8624 260.25 18.4024 257.82 17.2524C256.88 16.8024 256.02 16.1324 255.2 15.4824C251.52 12.5524 246.74 11.7724 242.89 9.16238C241.19 9.31238 239.64 8.60239 238.01 8.37239C236.95 8.22239 235.96 8.13238 234.94 7.64238C233.92 7.14238 232.69 7.09239 231.55 6.84239C230.41 6.59239 229.09 6.62238 228.17 6.02238C227.02 5.28238 225.76 5.70238 224.73 5.27238C223.32 4.68238 222.2 4.33239 220.8 5.29239C220.29 5.64239 219.21 5.61238 218.62 5.30238C216.17 4.00238 213.58 4.73239 211.07 4.65239C209.57 4.60239 208.05 5.28239 206.53 5.29239C205.06 5.30239 203.72 5.66238 202.36 6.08238C201.62 6.31238 200.5 6.89238 200.19 6.61238C199.13 5.65238 198.61 7.23238 197.68 6.89238C196.91 6.61238 195.96 6.82239 195.09 6.84239C193.84 6.86239 192.43 6.48239 192 8.34239C191.93 8.66239 191.27 9.01238 190.85 9.05238C188.24 9.29238 186.11 10.8624 183.66 11.5224C178.85 12.8024 174.77 15.4524 170.84 18.3924C170.11 18.9424 169.65 19.4824 170.56 20.4824C172 22.0524 172.52 24.1824 172.96 26.1724C173.39 28.1124 174.63 29.8124 174.55 31.8824C174.54 32.2124 174.63 32.6224 174.83 32.8724C177.35 36.1324 176.53 39.9624 176.84 43.6324C176.94 44.8124 174.66 43.3824 175.7 45.0324C176.05 45.5824 176.07 46.4424 175.99 47.1224C175.9 47.9124 175.35 48.6524 175.31 49.4324C175.22 51.4724 173.12 52.9124 173.67 55.1024C172.41 56.1024 172 57.6124 171.27 58.9524C170.43 60.4824 169.56 62.0924 168.34 63.3124C167.12 64.5324 165.57 65.5824 163.97 66.2024C161.72 67.0624 159.58 69.2024 156.8 67.3524C156.37 67.0724 155.44 67.3724 156.39 68.2224C156.46 68.2824 156.34 68.5624 156.31 68.7324C155.27 68.0324 154.37 70.1624 153.15 68.8624C152.91 68.6124 151.67 69.5424 150.93 69.4824C149.17 69.3524 147.43 68.9524 145.69 68.6724C145.31 67.3024 144.43 69.2724 143.79 68.3624C143.4 67.8124 142.26 67.8624 142.31 66.7824C142.13 66.8024 141.92 66.7724 141.79 66.8624C140.09 67.9624 138.87 67.1824 137.69 65.9124C135.86 63.9424 132.98 63.0124 131.98 60.1924C131.94 60.0824 131.8 60.0224 131.72 59.9224C131.32 59.3724 129.8 60.6424 130.17 59.1524C130.47 57.9324 129.08 57.9324 129.14 57.2924C129.25 55.9624 127.88 56.3724 127.59 55.7324C127.37 55.2424 127.55 54.5724 127.55 53.9524C131.66 56.1124 134.86 59.3124 138.93 61.0824C140.39 61.7224 141.44 63.1324 143.44 62.9424C144.86 62.8124 146.36 63.7924 147.97 63.6024C149.15 63.4624 150.39 63.4024 151.39 64.3224C153.88 63.0124 156.74 63.7424 159.34 62.7924C162.35 61.7024 164.44 59.4924 166.26 57.1424C167.56 55.4624 168.61 53.4924 169.48 51.4224C170.34 49.3724 170.21 47.0324 171.56 45.1924C170.97 42.3724 172.57 39.6424 171.7 36.6924C171.3 35.3324 169.81 35.1224 169.77 33.8124C168.33 33.5224 167.21 32.7124 166.13 31.7424C165.77 31.4124 164.98 31.4924 164.39 31.5124C161.57 31.6024 159.17 30.6224 156.77 29.1424C155.15 28.1424 153.1 27.8324 151.24 27.2324C151.09 27.1824 150.74 27.3124 150.74 27.3424C150.77 28.6824 149.45 29.0524 148.88 29.9424C148 31.3124 147.65 33.0424 146.23 34.0624C145.02 34.9324 144.72 36.6524 143.21 37.2224C143.29 38.7524 141.24 38.6324 141.17 39.2624C140.98 40.9624 138.27 40.3724 138.72 42.3224C137.52 43.0224 136.33 43.7424 135.12 44.4324C133.91 45.1124 132.69 45.7624 131.46 46.4124C131.26 46.5124 130.98 46.4524 130.78 46.5624C126.65 48.6624 126.65 48.6624 122.7 48.6624C122.63 48.4824 122.45 48.2124 122.5 48.1524C124.1 46.3424 123.91 44.7024 122.29 42.9624C121.61 42.2324 121.34 41.1324 120.82 40.2324C120.68 39.9824 120.28 39.7324 120.02 39.7524C119.78 39.7724 119.5 40.1224 119.36 40.3824C118.45 42.1324 117.55 43.8624 116.42 45.5124C113.08 50.3524 108.62 52.6724 102.78 52.3724C102.33 52.3524 101.89 52.1224 101.44 52.0124C100.88 51.8724 100.92 50.5324 99.82 51.3024C99.49 51.5324 98.64 50.8924 98.05 50.9224C96.33 51.0124 95.18 50.0024 93.87 49.0924C94.48 48.7524 94.95 48.4924 95.43 48.2224C94.39 48.5724 95.45 45.3824 93.58 47.1224C93.4 46.7024 93.23 46.2724 92.93 45.5424C91.64 47.2224 89.98 48.1924 88.14 48.9324C85.41 50.0324 82.58 50.3224 79.69 50.1024C79.46 50.0824 79.36 49.2224 79.06 49.0824C76.41 47.8824 74.63 45.9724 73.81 43.1524C73.75 42.9324 73 42.7324 72.64 42.8124C71.1 43.1824 71.11 43.2224 70.82 41.5324C70.8 41.4324 70.65 41.3524 70.57 41.2624C69.09 43.7524 69.12 43.6124 66.21 42.9224C63.82 42.3624 61.55 41.7224 59.32 40.5924C57.49 39.6724 56.05 38.6224 55 36.9124C54.68 36.3924 54.18 35.9724 53.69 35.5924C52.59 34.7324 51.88 33.6824 51.96 32.0824C50.77 34.8124 48.55 36.2124 46.24 37.4224C42.93 39.1524 39.41 40.2324 35.62 39.6524C34.46 39.4724 32.95 39.5124 32.75 37.7524C32.38 37.8324 32.02 37.9124 31.6 38.0124C30.57 35.9124 29.73 33.5424 28.89 31.1424C28.21 29.1824 28.41 27.7724 29.05 26.0824C29.2 25.6724 29.84 25.5824 29.49 24.6824C28.29 21.6124 28.47 21.0824 25.1 22.5424C22.98 23.4524 21.03 24.7524 18.52 23.3524C17.67 22.8724 16.32 23.3424 15.21 23.2624C11.95 23.0424 8.68002 22.9024 5.46002 22.4624C4.15002 22.2824 2.90001 21.4624 1.70001 20.7924C1.45001 20.6524 1.56999 19.8924 1.48999 19.4224C1.32999 18.4324 0.54 18.9124 0 18.7924C0.09 18.5024 0.0899658 18.2524 0.0899658 18.0124ZM71.48 25.6524C71.62 25.5524 71.77 25.4524 71.91 25.3524C71.58 24.7524 71.27 24.1524 70.91 23.5724C70.84 23.4624 70.58 23.4624 70.4 23.4124C70.34 23.6324 70.15 23.9424 70.23 24.0624C70.6 24.6224 71.05 25.1224 72.06 25.4624C72.29 26.4124 70.51 26.8824 71.59 28.2524C72.02 28.7924 71.25 30.2924 70.94 31.7324C73.46 29.6724 72.1 27.4824 71.48 25.6524ZM150.65 8.96239C149.24 8.10239 149.24 8.10239 147.03 8.96239C148.43 8.96239 149.61 8.96238 150.87 8.78238C150.82 8.92238 150.76 9.05238 150.71 9.19238C153.08 10.6824 155.46 12.1724 157.83 13.6524C157.49 12.2024 156.92 10.7424 155.87 10.1724C154.4 9.37238 152.56 9.22239 150.65 8.96239ZM277.33 311.782C277.67 310.992 278.06 310.162 278.37 309.302C279.06 307.422 279.78 305.572 281.32 304.182C282.14 300.412 284.07 297.122 285.79 293.742C285.47 291.932 287.18 290.822 287.34 289.162C287.69 285.542 289.16 282.182 289.89 278.632C290.55 275.432 291.15 272.202 291.7 268.992C291.92 267.692 292.25 266.482 292.65 265.252C292.83 264.702 293.27 264.182 293.26 263.652C293.24 260.652 295.18 258.002 294.78 254.942C296.42 251.852 296.11 248.312 296.9 245.022C297.51 242.512 296.8 239.722 297.73 237.142C297.86 236.772 297.62 236.272 297.56 235.862C294.98 235.862 292.61 235.772 290.25 235.882C287.81 235.992 285.85 234.342 283.41 234.222C282.38 234.172 281.45 232.502 280.44 231.612C278.96 230.322 278.62 228.362 277.58 226.832C276.58 225.362 276.65 223.742 276.94 222.282C277.3 220.502 279.01 219.292 279.45 217.352C279.66 216.432 280.84 215.612 281.75 215.002C282.79 214.302 284.02 213.882 285.1 213.372C284.05 211.422 282.73 209.792 282.28 207.942C281.78 205.912 280.54 204.092 280.59 201.912C280.71 196.192 282.52 192.602 286.7 189.182C287.08 188.872 288.04 189.252 288.96 189.322C288.75 188.352 288.6 187.432 288.35 186.542C287.53 183.602 286.33 180.742 286.56 177.582C286.72 175.442 287.6 173.412 287.45 171.212C287.42 170.692 287.86 170.152 288.06 169.612C288.48 168.462 290.01 167.022 291.21 166.432C291.88 166.102 292.43 165.522 293.07 165.022C293.27 165.612 293.42 166.052 293.62 166.622C293.92 165.982 294.15 165.482 294.33 165.092C294.93 165.812 295.41 166.642 296.12 167.142C296.39 167.332 298.63 167.882 297.01 165.992C298.29 164.082 296.53 162.182 297.01 160.272C297.18 159.592 297.3 158.902 297.44 158.212C297.97 155.622 300.62 155.772 302.21 154.552C302.31 154.472 302.73 154.622 302.83 154.772C303.07 155.152 303.2 155.592 303.38 156.012C303.78 155.592 303.96 155.412 304.74 155.772C306.61 156.642 307.81 158.102 308.94 159.642C310.46 161.692 312.17 163.662 312.83 166.232C315.39 168.152 315.89 171.142 316.76 174.122C327.39 162.122 336.62 149.292 345.67 136.092C342.37 135.412 339.46 134.342 336.35 134.392C330.35 131.972 323.91 131.352 317.66 130.052C314.69 129.432 311.79 127.982 308.61 128.422C304.89 126.562 300.67 126.732 296.77 125.522C295.18 125.032 293.31 125.542 291.58 125.412C289.81 125.282 288.06 124.812 286.29 124.722C283.68 124.602 281.07 124.652 278.46 124.712C277.73 124.732 276.94 125.282 276.28 125.132C273.41 124.472 270.61 124.372 267.73 125.192C267.2 125.342 266.45 124.932 265.82 125.422C265.71 125.512 265.24 125.382 265.19 125.252C264.69 124.102 264.06 125.772 263.59 125.172C262.72 124.052 262.19 125.182 261.47 125.412C260.6 125.682 259.57 125.432 259.29 124.542C258.96 123.502 258.08 123.312 257.47 122.722C256.56 121.832 255.52 121.142 255.17 119.572C254.51 116.552 253.55 113.602 253.79 110.472C254.08 106.782 252.58 103.362 252.17 99.7824C252.09 99.1124 251.41 98.3424 251.54 97.4724C251.75 96.1024 251.38 94.8424 250.71 93.7124C250.39 93.1824 249.88 92.8624 250.66 92.3724C249.61 90.3024 250.15 87.7824 248.82 85.7824C248.64 85.5124 248.56 85.1124 248.56 84.7824C248.6 82.0124 247.32 79.5724 246.7 76.9724C246.01 74.0424 243.83 71.5724 244.06 68.3724C242.4 67.3124 243.64 65.4824 242.88 64.0024C241.8 61.8924 241.72 59.2824 241.07 56.9324C240.21 53.8224 239.11 50.7724 238.28 47.6524C237.11 43.2624 235.36 39.1424 232.88 35.3424C231.67 33.4824 230.53 31.5824 229.27 29.7624C228.84 29.1324 228.24 28.7424 227.63 29.8224C226.89 31.1424 226.16 32.5724 225.08 33.6024C219.98 38.4824 215.55 43.9124 211.38 49.5724C210.09 51.3124 208.49 52.8224 207.21 54.5724C205.93 56.3124 204.46 57.9024 203.14 59.5724C200.33 63.1324 198 67.0924 195.64 70.9824C193.13 75.1224 190.79 79.4024 188.35 83.5924C186.3 87.1224 184.83 90.8924 183.13 94.5224C181.09 98.8724 178.89 103.192 177.14 107.702C176.73 108.772 176.1 109.762 175.57 110.782C175.04 111.802 174.03 112.862 174.1 113.852C174.2 115.372 173.03 115.732 172.38 116.462C171.57 117.382 172.58 118.442 171.72 119.342C170.37 120.762 170.97 123.422 168.71 124.352C169.08 126.622 167.19 127.212 165.76 128.182C166.28 128.382 166.71 128.542 167.16 128.712C164.15 131.352 164.15 131.352 160.97 131.442C160.47 131.452 159.85 131.252 159.5 131.482C157.78 132.622 155.8 132.822 153.87 133.212C151.95 133.602 150.08 134.612 148.03 133.842C147.3 134.872 145.83 133.952 145.37 134.502C144.56 135.472 143.61 134.222 142.76 135.092C142.27 135.592 140.86 135.152 139.87 135.202C139.54 135.212 139.22 135.412 138.89 135.522C138.13 135.782 137.03 135.822 136.67 136.362C135.75 137.752 135.16 135.462 134.21 136.342C133.72 136.802 132.61 136.632 131.77 136.662C130.78 136.712 129.45 136.262 128.85 136.752C127.34 137.982 125.64 136.882 124.27 137.482C122.75 138.152 121.25 138.132 119.7 138.162C118.83 138.172 117.95 138.082 117.09 138.182C116.2 138.292 114.81 139.012 114.56 138.702C113.56 137.492 113.01 139.642 112.45 138.882C111.55 137.672 110.84 138.972 110.05 138.962C109.03 138.962 108.03 139.502 107 139.622C104.38 139.932 101.74 140.142 99.11 140.392C98.75 140.422 98.38 140.412 98.05 140.532C97.19 140.852 96.37 141.312 95.49 141.552C94.73 141.762 94.27 142.712 93.12 142.202C92.61 141.982 91.64 142.942 90.83 143.242C89.21 143.832 87.79 144.912 86.01 145.132C85.39 145.212 83.67 146.682 82.93 147.432C82.35 148.022 81.85 148.582 80.82 148.682C79.22 148.832 77.63 149.322 76.1 149.832C72.38 151.072 68.87 152.802 65.38 154.572C64.14 155.202 62.98 155.982 61.77 156.672C60.67 157.302 59.55 157.902 58.43 158.522C59.38 159.212 59.88 160.292 60.67 161.132C61.13 161.632 61.49 162.282 61.73 162.922C63.97 168.862 68.78 172.712 73.12 176.922C74.22 177.982 75.46 178.762 76.24 180.212C77.07 181.762 78.34 183.132 79.57 184.422C80.46 185.352 81.66 185.982 82.65 186.842C83.59 187.652 84.28 189.012 85.33 189.362C86.82 189.862 87.15 191.062 87.9 192.042C88.1 192.302 88.45 192.492 88.76 192.632C90.71 193.482 92.45 194.642 94.09 195.982C94.99 196.712 96.02 197.702 97.04 197.752C98.8 197.842 100.66 198.382 102.44 197.392C103.1 197.022 104.13 197.012 104.9 197.222C105.4 197.352 105.61 197.502 106.26 197.352C109.31 196.672 112.56 197.692 115.57 196.372C116.73 197.372 117.87 196.552 119.06 196.422C122.23 196.082 125.18 195.032 128.21 194.182C130.24 193.612 132.1 192.792 134.02 191.982C136.77 190.822 136.86 191.062 137.64 189.742C138.12 188.932 138.69 188.182 139.21 187.412C140.33 185.762 141.72 184.222 142.44 182.412C142.79 181.532 143.13 180.742 143.65 179.922C145.14 177.582 145.81 174.762 147.78 172.692C148.22 169.432 150.87 168.402 153.37 167.332C154.55 166.832 155.32 167.572 155.63 168.762C155.9 168.282 156.16 167.822 156.43 167.362C157.66 168.662 159.24 167.732 160.63 168.042C161.6 168.262 160.68 168.682 160.73 168.932C160.82 169.412 161.27 169.822 161.57 170.262C162.09 169.782 162.58 168.932 162.76 170.532C162.82 171.062 164.92 171.502 164.89 171.372C164.55 169.962 167.29 170.352 166.47 168.662C166.45 168.622 167.39 168.012 167.44 168.062C168.05 168.762 168.43 168.652 169.11 168.012C170.37 166.852 172.2 167.142 173.72 166.592C174.06 166.472 175.11 167.142 175.11 167.452C175.13 169.272 176.69 168.492 177.46 168.972C178.09 170.582 176.69 172.722 178.9 174.012C179.04 172.992 179.18 172.022 179.32 171.052C179.85 174.282 179.89 177.482 179.83 180.682C179.81 181.742 180.15 182.422 181.22 182.912C181.17 180.852 182.97 180.712 184.07 180.022C185.02 179.422 185.85 180.312 186.58 181.042C186.87 181.332 187.45 181.302 187.89 181.452C188.21 181.562 188.75 181.702 188.76 181.872C188.85 182.732 188.61 183.672 188.86 184.462C189.05 185.072 189.8 185.512 190.28 186.042C190.34 186.112 190.29 186.282 190.29 186.412C190.31 187.612 189.91 188.582 188.88 190.742C188.44 191.662 188.34 192.752 188.05 193.752C186.98 197.522 186.15 199.042 183.9 201.682C183.63 201.992 183.58 202.572 183.59 203.032C183.61 203.812 183.32 204.342 182.87 205.002C182.17 206.022 181.73 207.262 181.36 208.462C181.14 209.192 181.25 209.972 182.42 209.822C183.28 209.712 184.14 209.682 184.71 210.582C185.7 212.152 186.51 213.802 187.26 215.492C187.36 215.732 187.04 216.432 186.98 216.422C185.05 216.162 187.09 218.202 185.87 218.312C186.69 219.122 186.85 219.882 185.82 220.682C185.72 220.762 185.89 221.392 186.09 221.642C186.85 222.572 186.86 222.912 185.51 223.322C184.5 223.632 186.39 224.442 185.76 224.912C184.22 226.062 184.49 228.182 183.04 229.432C181.61 230.682 180.28 232.202 179.36 233.852C177.95 236.402 175.86 238.372 173.68 239.992C171.59 241.542 169.31 243.012 166.91 244.242C164.54 245.462 161.65 245.472 159.65 247.472C159.53 247.592 159.01 247.552 158.9 247.412C157.88 246.162 156.92 248.042 155.77 247.402C154.84 246.892 154.01 249.112 152.65 247.992C152.58 247.932 152.01 248.572 151.63 248.802C150.52 249.442 149.49 250.322 148.06 250.092C146.45 249.832 144.7 250.712 143.23 249.052C142.34 248.052 140.8 248.392 139.75 249.532C136.96 252.552 133.74 254.972 130.14 256.952C128.85 257.662 127.98 258.902 128.32 260.652C128.48 261.472 128.51 262.442 128.23 263.212C127.25 265.932 126.8 268.712 126.84 271.592C126.89 274.702 126.92 277.812 126.82 280.912C126.76 282.812 126.93 284.652 126.23 286.622C125.43 288.862 127.34 291.262 126.85 293.732C128.29 294.912 127.32 296.512 127.59 297.902C127.86 299.282 128.12 300.672 128.34 302.072C128.72 304.562 127.53 307.212 129.07 309.602C129.16 309.742 129.07 310.102 128.95 310.272C128.06 311.492 128.28 312.532 128.95 313.882C129.5 314.982 129.02 316.552 129.35 317.822C129.91 319.992 130.69 322.082 130.61 324.392C130.55 326.172 131.45 327.812 131.51 329.642C131.55 330.762 132.47 331.862 133.15 333.292C138.55 328.032 143.67 323.052 148.78 318.072C148.96 317.902 149.11 317.692 149.31 317.552C153.53 314.602 157.59 311.462 161.27 307.852C161.84 307.292 162.71 307.042 163.29 306.492C163.85 305.952 164.09 305.002 164.71 304.612C165.73 303.972 166.65 303.312 167.57 302.532C168.53 301.712 169.42 300.532 170.59 300.082C171.96 299.562 172.22 297.522 174.09 297.792C174.4 297.842 174.83 297.232 175.18 296.882C178.84 293.212 183.04 290.222 187.13 287.062C191.62 283.592 195.69 279.582 199.98 275.842C201.05 274.902 202.17 273.982 203.38 273.242C205.48 271.972 207.56 270.652 209.5 269.172C210.55 268.372 211.47 268.052 212.75 267.902C213.83 267.782 214.82 266.532 215.91 267.892C217.69 266.812 218.42 269.522 220.04 269.042C223.28 270.632 226.14 272.862 229.26 274.672C231.26 275.832 233.31 277.112 235.09 278.542C237.07 280.132 239.79 280.212 241.46 282.162C245.63 283.172 249.12 285.432 252.49 287.982C253.33 288.612 254.41 288.752 255.24 289.702C256.8 291.492 258.58 293.192 260.54 294.522C263.8 296.742 266.32 299.572 268.66 302.682C271.27 306.012 273.24 309.962 277.33 311.782ZM163.22 211.402C160.26 210.432 160.09 208.302 160.6 206.452C161.05 204.842 162.22 203.312 163.42 202.062C165.66 199.712 166.91 196.762 168.64 194.122C169.95 192.132 170.78 189.802 171.66 187.562C172.59 185.202 174.55 183.142 173.92 180.292C175.35 178.702 174.53 176.772 174.62 175.002C174.69 173.562 173.36 171.872 172.4 171.712C170.74 171.422 169.48 171.752 168.68 173.502C168.38 174.142 168.14 174.752 167.9 175.422C167.17 177.472 166.46 179.612 165.26 181.392C163.41 184.132 162.14 187.052 161.22 190.182C160.96 191.052 160.66 192.162 160 192.612C158.81 193.422 159.27 195.702 157.21 195.592C156.31 194.122 156.91 192.512 156.81 190.972C156.79 190.622 157.31 190.172 157.67 189.862C158.45 189.182 158.49 188.352 158.03 187.592C157.76 187.142 157.79 187.012 157.94 186.492C158.49 184.602 158.23 182.492 159.71 180.862C159.93 180.612 159.81 179.872 159.62 179.452C158.64 177.282 158.24 174.992 158.17 172.462C157.1 172.462 156.11 172.542 155.15 172.442C154.28 172.342 153.72 172.742 153.28 173.352C151.69 175.542 150.1 177.742 148.57 179.982C148.19 180.532 148.06 181.252 147.8 181.892C146.99 183.922 146.55 186.232 145.27 187.892C143.39 190.332 141.44 192.672 140.06 195.462C139.75 196.092 139.05 196.952 138.51 196.982C137.1 197.042 135.7 197.492 135.04 198.442C133.97 199.982 132.27 198.832 131.06 199.872C130.3 200.522 128.7 200.082 127.64 200.532C123.75 202.202 119.64 202.872 115.51 203.002C108.68 203.222 101.84 203.072 95 203.042C94.07 203.042 92.99 203.452 92.3 202.382C91.58 203.242 90.39 203.382 89.69 202.992C88.06 202.072 86.4 202.432 84.74 202.302C83.82 202.232 82.91 201.432 82 202.312C80.38 201.182 78.01 201.672 76.71 199.622C76.25 198.902 74.65 198.962 74.69 197.522C75.74 197.382 76.78 197.212 77.83 197.102C78.18 197.062 78.59 197.062 78.89 197.212C81.43 198.482 84.01 197.642 86.85 197.692C86.05 196.892 85.61 196.102 84.97 195.892C83.61 195.432 82.88 194.292 81.86 193.482C80.83 192.672 80.35 191.152 78.75 191.092C78.42 189.702 77.5 188.892 76.17 188.492C75.97 186.832 74.41 186.232 73.51 185.122C72.52 183.922 71.1 183.072 70.62 181.462C68.78 181.392 69.07 179.302 67.81 178.532C66.47 177.712 65.48 176.312 64.34 175.182C61.88 172.732 59.49 170.232 58.27 166.882C56.57 165.752 56.71 163.502 55.34 162.102C54.77 161.522 54.76 160.382 54.55 159.482C54.35 158.632 54.04 157.762 54.1 156.922C54.17 155.902 54.58 154.902 54.84 153.892C55.48 154.152 56.23 155.522 56.73 154.002C57.35 152.142 58.95 151.572 60.37 150.892C63.04 149.612 65.84 148.612 69.07 147.292C67.91 147.142 66.88 147.212 66.8 146.972C66.33 145.522 65.08 145.342 63.96 144.832C63.46 144.602 62.99 144.052 62.76 143.542C61.57 140.872 59 139.162 58.05 136.222C57.43 134.302 55.95 132.462 54.43 131.052C50.25 127.172 47.69 122.292 45.27 117.292C44.46 115.612 43.27 114.392 41.75 113.332C40.66 115.192 39.95 117.132 38.64 118.482C37.13 120.022 37.26 122.212 35.91 123.742C34.6 125.232 34.55 127.502 32.91 128.832C33.2 130.522 32.03 131.722 31.36 133.032C30.68 134.362 30.85 136.182 29.22 137.002C29.51 138.702 27.88 139.742 27.72 141.222C27.29 145.082 25.28 148.442 24.39 152.172C23.4 156.322 20.63 159.982 20.94 164.542C20.97 165.042 20.47 165.572 20.23 166.092C18.49 169.952 18.77 174.182 17.99 178.212C18.78 179.162 16.92 179.842 17.82 181.052C18.36 181.782 18.07 183.212 17.96 184.302C17.86 185.332 17.42 186.322 17.26 187.352C17.09 188.432 17.26 189.492 17.99 190.392C16.03 191.732 19.31 193.772 17.36 195.112C18.69 198.402 17.69 201.842 17.97 205.192C18.08 206.552 18.08 207.932 17.96 209.292C17.85 210.442 17.74 211.712 17.19 212.682C16.28 214.302 16.54 215.962 16.51 217.622C16.48 219.662 16.6 221.642 17.17 223.672C18.14 227.122 18.21 230.822 20.17 234.002C20.52 234.572 20.33 235.652 20.76 235.942C22.02 236.812 22.14 238.742 23.84 239.122C23.87 240.862 25.3 241.872 26.28 242.852C28.02 244.592 28.68 247.402 31.4 248.192C31.61 248.252 31.9 248.522 31.91 248.702C32.07 251.062 34.42 251.572 35.62 253.062C37.12 254.932 39.15 256.312 41.03 257.782C43.25 259.522 46.13 260.292 48.02 262.532C48.15 262.682 48.45 262.722 48.67 262.742C50.38 262.852 51.77 263.832 53.06 264.722C54.51 265.722 56.17 265.652 57.69 266.172C60.69 267.192 63.78 268.012 67.01 267.982C69.5 267.962 71.98 267.982 74.47 267.972C75.2 267.972 76.21 268.192 76.61 267.812C77.62 266.862 78.72 267.432 79.75 267.222C80.89 266.992 82.04 266.482 83.17 266.542C84.91 266.632 86.76 266.512 88.01 265.632C89.58 264.522 91.24 265.072 92.82 264.592C95.74 263.692 98.88 263.432 101.9 262.752C104.16 262.242 106.52 262.162 108.52 260.702C109.53 259.972 110.74 259.462 111.92 259.042C115.82 257.652 119.64 256.082 123.47 254.502C124.64 254.022 125.51 252.692 126.68 252.372C129.41 251.632 131.33 249.682 133.52 248.202C135.95 246.572 138.18 244.672 141.04 243.802C141.52 243.652 142.07 243.722 142.59 243.682C142.44 241.782 144.5 242.132 145.24 241.052C146.4 242.712 147.49 244.622 149.89 242.622C150.11 242.442 150.62 242.632 150.99 242.592C153.37 242.352 155.76 242.112 158.14 241.832C158.46 241.792 158.78 241.402 159.07 241.432C160.78 241.562 161.68 240.012 163.16 239.562C168.42 237.952 170.53 236.272 174.52 232.002C177.31 229.012 179.55 225.672 181.94 222.402C183.09 220.832 182.74 219.002 183.58 217.462C183.66 217.312 183.15 216.822 182.9 216.502C182.65 216.182 182.33 215.902 182.15 215.552C181.94 215.152 181.92 214.362 181.71 214.322C181.16 214.232 180.46 214.292 179.99 214.572C177.29 216.172 176.83 216.502 174.71 220.142C173.11 222.882 170.09 223.922 168.1 226.152C167.92 226.362 166.73 226.112 166.52 225.762C165.78 224.562 167.4 223.242 166.5 221.912C166.39 221.752 166.65 221.242 166.85 220.972C167.61 219.912 168.44 218.892 169.21 217.842C170.54 216.032 172.04 214.322 173.13 212.372C175.26 208.552 177.02 204.522 179.23 200.742C180.06 199.322 180.53 197.772 181.41 196.412C182.42 194.842 183.11 193.152 183.74 191.412C184.57 189.122 185.56 186.902 184.9 184.372C184.43 184.412 184.1 184.342 183.96 184.472C179.36 188.592 175.62 193.392 172.61 198.782C171.65 200.502 170.86 202.352 169.67 203.892C167.65 206.482 165.4 208.882 163.22 211.402ZM295.11 218.582C293.22 218.582 291.89 218.582 290.56 218.582C289.64 216.762 287.83 220.092 286.96 217.972C285.41 219.552 282.85 220.202 282.32 222.662C282.08 223.762 281.95 225.382 282.55 226.082C284.31 228.102 285.59 231.072 289.11 230.642C295.02 232.582 296.77 230.842 300.79 228.712C301.21 228.492 301.63 227.672 301.83 227.742C302.4 227.952 302.76 229.012 303.06 227.412C303.33 225.982 303.82 224.212 304.84 223.402C305.97 222.512 306.54 221.322 307.41 220.332C308.39 219.232 309.08 217.822 309.68 216.452C311.66 211.922 315.03 207.932 315.02 202.622C315.02 202.362 315.88 202.092 316.34 201.832C314.67 201.182 316.39 200.132 316.07 199.212C315.65 198.002 315.34 196.422 315.77 195.312C316.69 192.932 316.88 190.732 315.71 188.452C317.19 187.732 315.03 186.842 315.8 186.132C317.03 185.002 316.09 183.542 316.44 182.292C316.74 181.232 315.49 180.422 316.33 179.122C317.19 177.802 315.3 176.802 315.03 175.672C314.26 172.462 312.34 170.172 310.11 168.012C309.39 167.312 308.92 166.642 308.88 165.512C308.85 164.572 308.3 163.522 307.67 162.782C306.92 161.892 305.88 161.202 304.88 160.572C303.91 159.962 302.86 159.472 301.79 159.062C301.55 158.972 300.88 159.392 300.8 159.682C300.64 160.262 300.49 161.142 300.8 161.492C301.65 162.452 301.38 163.522 301.52 164.572C301.67 165.722 302.26 166.872 302.2 167.992C301.97 171.792 303.42 175.112 304.89 178.452C305.76 180.452 306.91 182.392 307.37 184.482C307.7 185.972 308.05 187.462 308.65 188.812C309.05 189.712 308.83 190.062 308.32 190.652C307.51 191.602 307.26 189.972 306.55 190.312C306.4 190.382 305.97 189.962 305.72 189.712C304.15 188.082 302.48 186.642 301.69 184.302C300.67 181.272 299.06 178.442 297.79 175.492C296.51 172.532 294.5 170.432 291.01 169.242C292.16 171.102 292.03 172.802 291.72 174.342C290.86 178.622 290.73 180.812 291.95 184.122C292.62 185.942 293.01 187.912 294.29 189.492C294.5 189.752 294.74 190.082 294.77 190.402C294.93 192.042 295.81 193.242 296.9 194.382C297.37 194.872 297.54 195.632 298 196.142C298.39 196.582 298.62 196.902 298 197.202C297.53 197.432 296.69 197.782 296.52 197.602C294.77 195.762 291.9 195.902 290.2 193.762C289.05 192.322 286.97 193.402 286.57 195.372C286.39 196.272 286.32 197.342 285.78 198.002C284.79 199.232 284.77 200.702 285.16 201.802C286.71 206.192 288.36 210.592 291.86 213.922C292.67 214.692 293.52 215.442 294.2 216.312C294.62 216.832 294.73 217.582 295.11 218.582ZM139.28 30.4824C140.52 28.7524 141.88 26.8724 143.54 24.5724C141.84 25.4424 140.51 22.8124 139.17 24.8324C138.41 25.9724 137.69 27.2624 137.49 28.5724C137.41 29.1224 138.69 29.8924 139.28 30.4824ZM108.73 41.1724C109.1 41.0824 109.39 41.1024 109.53 40.9724C110.81 39.7724 112.29 38.9024 113.85 38.1224C114.08 38.0124 114.27 37.4824 114.21 37.2124C114.01 36.2924 112.26 35.4124 111.62 35.9724C110.2 37.2024 108.81 38.5124 108.3 40.4324C108.24 40.6424 108.59 40.9524 108.73 41.1724ZM49.33 26.7224C49.54 26.8024 49.76 26.8724 49.97 26.9524C50.01 26.3824 49.81 25.5624 50.11 25.2724C51.72 23.7224 50.31 22.4324 49.79 21.1524C49.53 20.5224 48.63 19.5024 48.48 21.4024C48.46 21.6124 47.69 21.7524 47.27 21.9224C47.66 22.1824 48.15 22.3624 48.4 22.7224C48.79 23.2724 49.15 23.9124 49.29 24.5624C49.44 25.2524 49.33 26.0024 49.33 26.7224ZM14.32 9.59239C13.29 8.86239 12.38 8.19238 11.45 7.58238C11.31 7.49238 10.89 7.57239 10.81 7.70239C10.64 7.98239 10.44 8.45239 10.56 8.65239C11.49 10.1124 12.84 9.96239 14.32 9.59239ZM114.57 35.2724C115.01 34.6724 115.4 34.1924 115.71 33.6624C115.78 33.5424 115.57 33.2624 115.49 33.0624C115.07 33.5124 114.63 33.9524 114.26 34.4424C114.19 34.5324 114.4 34.8324 114.57 35.2724ZM144.68 8.92238C144.68 8.71238 144.69 8.49238 144.69 8.28238C143.77 8.34238 142.85 8.41238 141.93 8.47238C141.94 8.62238 141.95 8.77239 141.95 8.93239C142.86 8.92239 143.77 8.92238 144.68 8.92238ZM232.13 26.5724C231.89 26.3624 231.79 26.2124 231.71 26.2224C231.14 26.2824 230.57 26.3824 230 26.4824C229.99 26.4824 230 26.7124 230.03 26.7224C230.6 26.8124 231.18 26.9024 231.75 26.9524C231.83 26.9524 231.92 26.7924 232.13 26.5724ZM61.86 25.4324C62.13 25.8424 62.26 26.0324 62.38 26.2224C62.7 25.8024 63.03 25.3824 63.35 24.9524C63.14 24.8724 62.87 24.6824 62.74 24.7524C62.41 24.9124 62.14 25.2024 61.86 25.4324Z" fill="#1D3D6C"/>
<path d="M286.52 46.2129C286.63 48.4129 286.86 50.3829 285.61 52.2129C285.36 52.5829 285.11 53.0629 285.12 53.4829C285.27 57.0029 282.85 59.2929 281.1 61.8929C280.23 63.1729 279.05 64.2529 278.26 65.5729C277.58 66.7029 276.44 67.3629 275.82 68.5829C275.14 69.9329 273.75 70.8129 272.88 72.1929C271.89 73.7829 270.1 74.8929 268.65 76.1929C267.84 76.9229 266.96 77.5729 266.19 78.3329C263.67 80.8029 263.68 80.8229 258.98 82.1229C258.98 79.7429 259.35 77.6629 261.09 75.9329C262.1 74.9229 263.29 74.0729 263.79 72.5829C264 71.9529 264.71 71.2129 265.33 71.0329C267.41 70.4329 268.29 68.5229 269.71 67.2429C270.51 66.5229 270.6 65.2529 272.05 64.8529C272.84 64.6329 273.27 63.2029 273.93 62.3829C276.18 59.6029 278.49 56.8629 280.72 54.0629C281.52 53.0629 282.31 52.0029 282.83 50.8429C283.61 49.0529 284.73 47.5929 286.52 46.2129Z" fill="#1D3D6C"/>
<path d="M151.61 51.2131C151.5 51.7931 151.53 52.803 151.27 52.883C149.51 53.413 149.53 55.763 147.47 56.143C144.88 56.623 144.88 56.9931 141.93 55.6831C141.06 55.2931 138.76 55.9831 139.49 53.4831C139.56 53.2631 138.23 52.6531 137.58 52.1831C136.4 51.3431 136.27 50.193 137.19 49.133C137.63 48.633 138.13 48.243 138.71 48.863C139.71 49.923 141.12 50.2631 142.25 51.0131C143.68 51.9631 145.08 51.433 146.48 51.523C146.89 51.553 147.8 50.623 147.72 50.423C147.22 49.093 148.8 47.8631 147.82 46.5431C147.71 46.4031 147.96 45.763 148.19 45.663C148.43 45.553 149.01 45.683 149.14 45.893C150.19 47.553 152.06 48.8531 151.61 51.2131Z" fill="#1D3D6C"/>
<path d="M164.76 36.5527C165.49 37.6227 166.25 38.6627 166.93 39.7627C167.26 40.3027 166.23 41.0627 167.13 41.5927C165.57 42.4327 166.1 44.1727 165.47 45.3527C164.81 46.6127 163.46 47.5027 162.22 48.7427C161.85 48.2727 161.55 47.6927 161.07 47.3827C160.79 47.2027 160.18 47.6027 159.79 47.4927C158.92 47.2327 158.1 46.7927 157.24 46.4827C156.61 46.2627 155.95 46.1227 155.3 45.9527C155.8 45.5527 156.14 45.2227 155.42 44.6227C154.48 43.8327 153.62 42.9227 152.8 42.0027C152.52 41.6827 152.46 41.1727 152.3 40.7527C152.97 40.6927 154.21 40.5127 154.23 40.5827C154.62 42.4727 156.62 42.1527 157.65 43.1327C159.28 44.6927 161.11 43.8127 162.85 43.3427C163.13 43.2627 163.42 42.6627 163.44 42.2927C163.49 41.4427 163.65 40.7527 164.13 39.9527C164.59 39.1827 165.49 38.0027 163.57 36.9227C163.97 36.7927 164.37 36.6727 164.76 36.5527Z" fill="#1D3D6C"/>
<path d="M162.44 56.6425C161.77 57.3525 161.37 57.7725 160.97 58.1925C160.11 57.3225 158.9 57.8525 158 57.4725C157.19 57.1325 156.5 56.2325 156.05 55.4125C155.27 54.0125 154.59 52.5525 154.2 50.9625C154.06 50.4125 153.42 49.8525 154.12 49.4625C154.54 49.2225 155.42 49.2825 155.81 49.5825C156.79 50.3325 157.77 51.1826 158.43 52.2026C159.2 53.4026 161.63 53.6225 160.73 55.8825C160.73 55.9025 161.62 56.2825 162.44 56.6425Z" fill="#1D3D6C"/>
<path d="M199.63 154.503C199.95 154.823 200.32 155.033 200.45 155.353C201.08 156.873 200.3 158.883 201.58 160.063C203.05 161.433 201.41 163.493 202.95 164.683C202.73 164.963 202.38 165.213 202.32 165.533C202.27 165.813 202.05 166.613 202.92 166.203C203.12 166.113 203.27 165.923 203.77 165.513C203.77 166.363 203.8 166.943 203.76 167.513C203.69 168.533 203.91 169.323 204.71 170.133C205.58 171.013 206.06 172.283 206.76 173.353C208.39 175.863 209.4 175.993 212 174.313C214.65 172.593 216 169.953 217.17 167.203C218.03 165.203 218.45 162.983 219.51 161.113C220.25 159.803 220.53 158.363 220.05 157.343C219.6 156.393 219.92 155.883 220.21 155.303C221.22 153.273 221.84 153.263 223.17 155.113C225.63 158.543 226.11 161.063 224.63 164.593C223.56 167.133 222.11 169.503 221.01 172.033C219.67 175.133 217.2 177.253 214.93 179.563C212.42 179.863 210.05 181.603 207.38 180.193C207.05 180.013 206.54 180.143 206.12 180.173C205.85 180.193 205.59 180.283 205.33 180.343C205.63 178.533 203.37 179.203 202.89 177.683C202.17 175.423 199.95 173.573 199.5 171.313C199.1 169.263 198.47 167.133 198.54 164.963C198.57 163.973 198.55 162.973 198.55 161.983C198.55 160.993 198.81 159.893 198.48 159.033C198.1 158.053 199.82 157.553 198.8 156.503C198.6 156.313 199.32 155.213 199.63 154.503Z" fill="#1D3D6C"/>
<path d="M245.8 149.432C247.25 151.612 249.61 153.282 249.28 156.242C250.93 158.142 250.5 160.972 252.26 162.832C252.67 163.262 252.97 163.802 253.38 164.222C254.38 165.222 254.98 165.242 256.18 164.432C256.85 163.972 257.97 163.682 258.15 163.082C258.66 161.392 260.3 160.772 261.11 159.452C261.77 158.382 262.61 157.182 262.62 156.022C262.65 153.812 264.13 152.072 264.23 149.942C264.24 149.642 264.71 149.392 264.79 149.072C265.05 148.112 265.35 147.162 266.52 147.102C267.23 147.062 268.48 148.732 268.68 149.732C269.39 153.472 269.49 153.512 268.65 155.802C267.98 157.632 267.69 159.612 266.24 161.152C265.48 161.962 265.12 163.142 264.63 164.192C264.18 165.142 263.06 165.112 262.43 166.172C260.93 168.712 257.96 169.372 255.26 170.202C253.2 168.962 249.87 169.892 249.01 166.582C246.89 164.842 246.82 162.352 246.15 159.932C245.19 156.392 245.91 152.962 245.8 149.432Z" fill="#1D3D6C"/>
<path d="M235.37 161.873C236.66 163.403 236.27 165.503 237.85 166.703C238.18 166.953 238.09 167.843 238.07 168.433C238.03 169.683 237.98 170.883 239.19 171.723C239.42 171.883 239.53 172.333 239.57 172.663C239.84 175.413 240.06 178.173 240.34 180.923C240.41 181.613 240.64 182.293 240.79 182.973C240.89 183.433 240.91 183.913 241.09 184.343C241.76 185.953 239.56 187.163 240.74 189.113C241.52 190.393 241.06 192.453 241.04 194.173C241.04 194.713 240.73 195.283 240.45 195.783C240.35 195.963 239.85 196.133 239.7 196.043C238.21 195.113 236.54 194.333 235.38 193.093C234.71 192.383 234.12 191.163 234.31 189.823C234.51 188.483 234.59 187.043 234.29 185.743C234 184.513 234.53 183.253 234.26 182.273C233.23 178.523 233.78 174.753 233.61 170.993C231.85 168.833 233.39 166.663 233.68 164.533C233.82 163.603 234.76 162.793 235.37 161.873Z" fill="#1D3D6C"/>
<path d="M243.04 206.723C243.89 209.003 243.03 210.773 241.77 212.163C240.38 213.703 238.38 214.723 236.34 214.883C234.2 215.053 231.95 215.443 229.82 214.543C229.07 214.223 228.34 215.683 227.45 214.483C226.92 213.773 225.95 213.383 225.17 212.873C224.69 212.553 224.14 212.323 223.69 211.973C223.23 211.613 222.64 211.213 222.46 210.713C221.73 208.653 221.07 206.563 220.53 204.443C220.39 203.913 220.73 203.233 220.95 202.653C221.57 201.033 221.64 199.113 223.32 198.053C223.6 197.873 223.97 197.843 224.67 197.633C224.67 198.773 224.69 199.723 224.66 200.663C224.64 201.413 224.64 202.103 225.35 202.633C225.7 202.893 226.01 203.353 226.14 203.783C227.26 207.713 228.81 208.813 232.58 209.053C235.67 209.243 238.31 207.953 241.11 207.113C241.76 206.923 242.44 206.843 243.04 206.723Z" fill="#1D3D6C"/>
</svg>
