<svg width="21" height="10" viewBox="0 0 21 10" fill="none" xmlns="http://www.w3.org/2000/svg">
<g clip-path="url(#clip0_3497_34778)">
<path d="M0.79637 7.62351C0.589829 5.93337 0.658676 4.48971 0.79637 3.02844C0.882428 2.04253 0.916852 2.07774 1.93234 2.14816C5.9943 2.44746 10.0046 3.29253 14.0838 3.29253C14.7895 3.29253 15.4952 3.45098 16.2181 3.5214C16.0976 3.06365 15.8222 2.8876 15.4435 2.81717C14.4969 2.62351 13.7568 2.00732 12.965 1.51436C12.5175 1.25027 12.2938 0.89816 12.5175 0.387597C12.7757 -0.175783 13.2232 -0.0525439 13.6707 0.123512C15.7706 0.986188 17.836 1.93689 19.7292 3.2045C20.0563 3.43337 20.2972 3.78548 20.4693 4.17281C20.7964 4.91224 20.7792 5.26436 20.1251 5.66929C18.6449 6.60239 17.3368 7.78196 15.9082 8.78548C15.564 9.03196 15.2886 9.27844 15.0304 9.59534C14.6862 10.0355 14.2387 10.0707 13.8428 9.71858C13.4642 9.38408 13.6019 8.96154 13.8601 8.60943C14.1527 8.2221 14.4453 7.76436 14.8411 7.50027C15.478 7.06013 15.9427 6.47915 16.5623 5.7221C11.1578 5.98619 6.01152 7.02492 0.79637 7.62351Z" fill="white"/>
</g>
<defs>
<clipPath id="clip0_3497_34778">
<rect width="10" height="20" fill="white" transform="matrix(0 -1 1 0 0.675781 10)"/>
</clipPath>
</defs>
</svg>
