<svg width="386" height="19" viewBox="0 0 386 19" fill="none" xmlns="http://www.w3.org/2000/svg">
<g clip-path="url(#clip0_1963_31717)">
<path d="M384.31 9.33067C379.976 12.4439 374.404 13.2013 369.519 11.5192C370.027 9.02864 368.722 6.17098 365.833 6.60311C364.463 6.80756 363.067 8.27125 363.977 9.76281C364.551 10.7061 365.671 11.4821 366.884 12.0908C366.271 12.6669 365.483 13.0712 364.713 13.3035C361.701 14.2236 358.046 13.8518 354.965 13.4847C351.555 13.0758 348.193 12.2209 344.975 10.9616C344.621 10.8222 344.253 10.6782 343.886 10.5156C345.006 9.25633 345.391 7.63931 344.109 5.60409C343.255 4.25193 341.653 3.05775 340.104 3.82444C338.593 4.57254 338.655 6.26391 339.281 7.66719C339.718 8.65227 340.331 9.47937 341.058 10.1949C339.298 11.352 336.829 11.8677 335.188 12.2534C331.804 13.0573 328.324 13.3546 324.862 13.1455C321.509 12.9457 317.854 12.4346 314.768 10.943C314.461 10.7944 314.164 10.6271 313.888 10.4366C315.153 9.53977 316.33 8.48499 317.39 7.26293C317.587 7.03989 317.482 6.70998 317.377 6.47301C316.672 4.86993 314.995 2.82077 313.148 2.75572C311.568 2.69996 310.596 4.52143 310.425 5.96653C310.263 7.36516 310.583 8.5361 311.209 9.52118C303.864 13.9494 294.199 13.2292 286.158 11.2358C284.748 10.8873 282.883 10.3622 281.61 9.38643C282.699 8.6755 283.842 7.89952 284.761 6.9609C285.505 6.19886 285.427 5.43217 285.002 4.40991C284.315 2.74642 282.459 1.15728 280.668 1.78457C278.913 2.39793 278.261 4.68871 278.471 6.44977C278.554 7.16535 278.756 7.79729 279.036 8.37347C278.944 8.42458 278.852 8.4757 278.769 8.52681C273.923 11.3055 268.267 12.4904 262.791 11.9003C260.366 11.6354 257.403 11.115 255.223 9.69776C256.208 8.36883 257.031 6.90514 257.626 5.31135C258.222 3.71292 257.127 2.20277 255.56 1.82639C254.054 1.46396 252.387 2.43975 251.647 3.82444C250.566 5.83642 251.34 7.69507 252.772 9.19592C252.347 9.68846 251.896 10.1578 251.428 10.6038C249.379 12.5322 246.972 13.9959 244.398 14.9763C238.029 17.3972 230.995 16.7141 224.525 15.1389C223.207 14.8183 221.334 14.3955 219.933 13.5498C221.807 12.3231 222.905 10.5109 221.715 7.82052C221.028 6.26391 219.482 4.94892 217.911 5.96188C216.458 6.9005 216.033 9.02864 216.388 10.6921C216.545 11.4263 216.817 12.0768 217.18 12.6576C214.313 14.0191 210.627 14.3351 207.655 14.5442C203.89 14.8137 200.056 14.6092 196.357 13.81C194.322 13.3732 191.774 12.6019 190.093 11.0174C192.61 8.69409 194.79 5.13014 192.982 1.89609C190.544 -2.47172 186.836 1.62194 186.574 5.19519C186.438 7.03989 186.928 8.66156 187.799 10.0463C187.252 10.4644 186.674 10.8501 186.07 11.2079C182.083 13.5591 177.587 15.0088 173.044 15.4084C168.727 15.7895 163.492 15.5664 159.539 13.4847C159.522 13.4755 159.504 13.4662 159.487 13.4569C161.466 12.2023 162.542 10.3947 160.608 7.83911C159.553 6.44513 157.74 5.91541 156.55 7.44415C155.394 8.92642 155.74 11.115 156.703 12.5972C155.819 12.9225 154.939 13.1363 154.379 13.2896C148.981 14.7812 135.635 17.4251 131.617 11.115C134.239 9.2331 136.213 6.62635 134.869 3.13209C134.401 1.91933 132.895 -0.250642 131.45 0.0932073C129.686 0.511402 128.824 3.66645 128.719 5.23236C128.605 6.91908 128.938 8.49428 129.581 9.90685C126.552 11.9699 122.7 13.2059 119.378 14.0191C114.672 15.1761 109.774 15.3852 104.994 14.6325C104.114 14.4931 102.866 14.3304 101.733 13.9587C102.634 13.127 103.138 12.0211 102.95 10.5388C102.74 8.88925 101.47 6.99343 99.7892 6.84474C97.9507 6.6821 97.0796 8.79631 97.2285 10.4644C97.3335 11.6307 97.7494 12.574 98.3797 13.3407C96.8301 13.9726 95.0486 14.1957 93.4596 14.4419C90.6888 14.8694 87.8917 15.0692 85.0902 15.046C80.2095 15.0042 75.1099 14.4141 70.4525 12.811C69.7521 12.5694 68.614 12.0861 67.756 11.4031C67.8436 11.338 67.9355 11.2776 68.0231 11.2172C68.881 10.5992 70.9121 9.62806 71.1485 8.51752C71.8445 5.26024 66.7493 4.8374 65.3398 6.84009C64.6175 7.86699 64.8583 9.21916 65.3967 10.3343C62.2231 12.5461 58.8657 14.5163 55.1757 15.5153C50.9559 16.6584 46.5086 16.2077 42.8973 13.4708C41.9737 12.7738 41.1464 11.9235 40.481 10.9523C42.1882 9.63735 43.8122 7.95063 43.9697 5.7342C44.2236 2.21206 38.9183 -1.83049 37.4432 2.77895C36.6903 5.12549 37.1937 7.58355 38.3055 9.75816C36.1125 11.3845 33.7181 12.7041 31.2143 13.6985C26.6706 15.506 21.0764 16.7095 16.2439 15.6408C15.793 15.5432 15.2327 15.3899 14.703 15.1529C15.898 13.9819 17.4082 12.1837 17.2419 10.8455C17.0624 9.39108 15.2196 8.4757 14.0202 8.72661C12.4706 9.04723 11.1005 10.7154 11.2712 12.43C11.3456 13.1827 11.6433 13.8751 12.0679 14.4884C8.80242 17.1184 4.39009 17.9269 0.542438 16.3145C-0.595663 15.8359 0.341082 17.8247 1.02832 18.1128C5.24367 19.8785 10.0981 19.0189 13.6656 16.0915C14.0333 16.3564 14.4098 16.584 14.7862 16.7653C19.4218 19.0375 25.979 17.741 30.6408 16.2077C33.4686 15.2783 36.1694 13.9401 38.6688 12.258C38.9358 12.0768 39.216 11.891 39.5005 11.6912C40.3322 12.8296 41.304 13.8332 42.2932 14.6139C46.2153 17.7225 51.0654 18.6425 55.8104 17.5227C58.8263 16.8071 61.6497 15.3945 64.3067 13.745C65.1253 13.2385 65.922 12.7041 66.7142 12.1558C68.0143 13.4569 69.739 14.2514 71.4286 14.7812C77.8151 16.7838 84.7313 17.3321 91.3497 16.7141C93.3852 16.5236 97.5787 16.3424 100.341 14.9391C102.744 16.2681 106.009 16.6212 108.22 16.8257C114.466 17.4018 120.866 16.3749 126.666 13.8425C127.87 13.3175 129.314 12.6391 130.68 11.7841C131.914 13.4615 133.621 14.7858 135.521 15.599C140.778 17.8479 147.156 17.0255 152.566 15.901C153.871 15.6315 156.204 15.1064 158.178 14.2003C159.518 15.2598 161.181 15.8545 162.783 16.3006C165.598 17.0812 168.513 17.4715 171.424 17.4437C177.198 17.3925 182.954 15.7848 187.953 12.6995C188.36 12.4486 188.784 12.1512 189.213 11.812C190.662 13.2524 192.536 14.3118 194.383 14.9531C200.135 16.9558 206.723 16.9511 212.645 15.9614C214.195 15.7012 216.602 15.2319 218.616 14.3026C221.26 16.505 225.541 17.1602 228.408 17.6899C234.637 18.8469 241.334 18.9399 247.221 16.1751C249.953 14.8927 252.492 13.0294 254.488 10.6735C255.818 11.6122 257.28 12.3045 258.344 12.6576C263.501 14.3722 269.147 14.363 274.339 12.8249C276.444 12.2023 278.48 11.3101 280.393 10.1903C282.673 12.3138 286.464 13.0851 289.112 13.6241C294.203 14.665 299.482 15.1064 304.63 14.2236C307.519 13.7264 310.281 12.7506 312.758 11.2311C314.645 12.7459 317.298 13.6009 319.298 14.0842C325.269 15.5339 331.546 15.4735 337.486 13.8658C339.009 13.4522 341.154 12.7134 342.752 11.5703C345.483 13.3361 349.046 14.112 351.87 14.7207C354.798 15.3527 357.779 15.6872 360.769 15.6872C363.137 15.6872 365.956 15.7198 367.965 14.191C368.385 13.8704 368.722 13.4708 368.981 13.0247C369.458 13.2013 369.904 13.35 370.298 13.4755C375.56 15.1668 381.312 14.2933 385.86 11.0267C386.481 10.5806 385.037 8.85672 384.328 9.36785L384.31 9.33067ZM14.7599 10.6968C14.8738 10.6503 15.0882 10.562 15.2765 10.5202C14.9657 10.7154 14.7381 11.4635 14.5148 11.8027C14.0902 12.4393 13.6 13.0247 13.0659 13.5637C13.0178 13.3918 12.9915 13.2059 13.0003 13.0015C13.0353 12.0164 13.9501 11.036 14.7643 10.7014L14.7599 10.6968ZM40.7349 2.61167C43.2212 2.52339 42.0262 5.92006 41.2164 7.03525C40.7086 7.73689 40.0783 8.32701 39.4173 8.87066C39.3955 8.80561 39.3648 8.7452 39.3429 8.68015C38.8176 7.09565 38.2705 2.69996 40.7349 2.61167ZM66.9287 8.41994C67.2395 7.9274 67.7779 7.64395 68.3032 7.49062C68.4126 7.45809 69.3581 7.27222 69.3713 7.38839C69.3844 7.51849 67.9355 8.48034 67.8567 8.54075C67.4409 8.85207 67.0163 9.15875 66.5961 9.46078C66.5961 9.13087 66.7011 8.78237 66.9287 8.41994ZM101.181 9.51189C101.86 10.6457 100.507 12.0443 99.5922 12.6902C99.1983 12.2441 98.9531 11.6865 98.9488 10.9802C98.9444 10.1531 99.9555 7.46274 101.181 9.51189ZM130.452 7.18859C130.387 5.79925 130.767 3.06239 132.168 2.35146C132.286 2.24924 132.405 2.15166 132.523 2.04943C132.794 2.37469 133.07 2.69996 133.341 3.02522C133.586 3.57817 133.56 4.4982 133.459 5.07438C133.232 6.36613 132.431 7.45344 131.533 8.31771C131.275 8.56398 131.004 8.80096 130.724 9.02864C130.579 8.46176 130.487 7.85305 130.457 7.18859H130.452ZM157.675 9.97655C157.99 8.83813 159.596 7.57425 159.71 9.62806C159.771 10.7247 158.957 11.4913 157.92 12.0489C157.578 11.4728 157.452 10.7804 157.675 9.97191V9.97655ZM188.469 8.31307C187.83 5.7342 188.859 2.63955 191.31 1.78457C192.396 3.05775 191.577 5.22307 190.855 6.56129C190.294 7.59284 189.594 8.45711 188.789 9.20986C188.662 8.92642 188.548 8.63368 188.469 8.31307ZM218.139 9.53048C218.388 8.56863 219.903 6.32896 220.345 8.3363C220.686 9.88362 219.465 11.259 218.349 11.9885C217.994 11.3241 217.88 10.5202 218.139 9.52583V9.53048ZM253.617 4.80952C253.862 4.50749 255.691 3.04845 256.02 3.66645C256.322 4.23334 254.492 6.87262 254.173 7.35122C253.984 7.63001 253.792 7.90416 253.59 8.16902C252.908 7.14677 252.746 5.88753 253.621 4.80487L253.617 4.80952ZM280.419 5.34853C280.594 4.84669 280.914 4.19617 281.373 3.91737C282.1 3.47594 281.846 3.51776 282.573 4.45638C283.549 5.71561 283.304 5.00932 282.774 5.69702C282.205 6.43583 281.242 7.09101 280.305 7.64395C280.104 6.99807 280.108 6.24068 280.423 5.34853H280.419ZM312.229 6.6914C312.706 4.58648 314.505 4.11717 315.591 5.88289C314.601 6.98413 313.529 7.9274 312.386 8.73126C312.133 8.14114 312.049 7.46274 312.224 6.6914H312.229ZM340.87 7.95063C340.48 7.08171 340.432 6.1431 341.351 5.65056C342.673 4.93962 343.338 6.90514 342.944 7.97386C342.743 8.52216 342.419 8.99612 342.012 9.40967C341.544 9.01935 341.141 8.55004 340.87 7.94598V7.95063ZM367.956 9.92544C367.93 10.2321 367.86 10.5156 367.764 10.7804C367.002 10.4087 366.262 9.97655 365.558 9.47472C366.039 8.21084 368.136 7.80659 367.956 9.93009V9.92544Z" fill="#FF9737"/>
</g>
<defs>
<clipPath id="clip0_1963_31717">
<rect width="386" height="19" fill="white"/>
</clipPath>
</defs>
</svg>
