<svg width="21" height="41" viewBox="0 0 21 41" fill="none" xmlns="http://www.w3.org/2000/svg">
<mask id="path-1-outside-1_2007_31038" maskUnits="userSpaceOnUse" x="-1" y="0" width="22" height="41" fill="black">
<rect fill="white" x="-1" width="22" height="41"/>
<path d="M19.9458 28.1355C20.138 26.2022 19.7111 24.1795 18.8416 22.516C18.4371 21.741 17.9051 20.968 17.2524 20.3452C16.5148 19.6412 15.5493 19.4505 14.5479 19.2274C13.6494 19.0286 12.7598 18.8379 11.8568 18.6756C11.8188 18.1501 11.7808 17.6247 11.7406 17.0972C11.5662 14.7297 11.4522 12.3561 11.26 9.98854C11.231 9.62337 11.1997 9.2582 11.1706 8.89303C11.8076 8.78754 12.4402 8.65364 13.0727 8.51366C13.1241 8.50148 13.1778 8.49337 13.2292 8.48323C13.2448 8.50351 13.2605 8.52583 13.2783 8.54815C13.6159 8.92752 14.0942 9.08576 14.6194 9.09185C14.691 9.09185 14.7647 9.09793 14.8362 9.09793C14.8832 9.10808 14.9301 9.11416 14.9771 9.1243C15.0553 9.14053 15.1358 9.16082 15.2117 9.18314C15.2185 9.18517 15.2252 9.18923 15.2319 9.19125C15.2028 9.17705 15.1983 9.17097 15.2766 9.20342C15.2855 9.20748 15.2922 9.21154 15.3012 9.21357C15.3079 9.2156 15.3168 9.21966 15.3235 9.21966C15.319 9.21966 15.3146 9.21763 15.3079 9.2156C15.9695 9.49151 16.6266 9.89319 17.3485 10.0251C17.5564 10.3578 17.8537 10.6317 18.2985 10.6986C18.8305 10.7797 19.2149 10.5728 19.4183 10.1224C19.8005 9.27443 19.2775 8.3757 18.5891 7.80157C18.4102 7.65347 18.2247 7.52161 18.0325 7.408C18.0884 6.96168 17.8 6.47681 17.163 6.47681C16.8121 6.47681 16.4612 6.4829 16.1125 6.49507C16.1036 6.49304 16.0924 6.49101 16.0835 6.48898C15.9404 6.29017 15.7012 6.15019 15.3615 6.14816C13.9198 6.14816 12.4268 6.13801 10.9605 6.24757C10.8622 4.85383 10.7951 3.46009 10.8063 2.06432C10.8174 0.64624 8.39008 0.644212 8.3789 2.06432C8.36773 3.56761 8.44596 5.06887 8.55548 6.5681C7.05346 6.87241 5.63191 7.39785 4.38469 8.30064C4.19471 8.36556 4.01142 8.44671 3.83261 8.56032C3.51075 8.76319 3.24477 9.03098 2.91397 9.22371C2.46247 9.48745 1.98191 9.58077 1.61982 9.97231C1.03421 10.6235 0.973858 11.5324 1.00738 12.3297C1.04538 13.2 1.04315 14.0947 1.11914 14.9589C1.20408 15.9368 1.68016 16.8152 2.51611 17.4441C2.80221 17.6592 3.10842 17.8336 3.43028 17.9838C3.59792 18.1298 3.77226 18.2719 3.95107 18.4098C4.65291 18.9494 5.46203 19.2335 6.33821 19.4505C7.40885 19.7143 8.4616 20.0348 9.53894 20.2742C9.6127 21.3454 9.67976 22.4145 9.72893 23.4857C9.84069 25.8776 9.82057 28.2694 9.93904 30.6613C9.97256 31.3328 10.0083 32.0043 10.0463 32.6779C9.29084 32.6961 8.5376 32.7671 7.78212 32.7712C6.89923 32.7773 6.2868 32.6779 5.55368 32.2944C4.8496 31.9272 4.04719 31.4363 3.55992 31.0224C3.51299 30.9818 3.47052 30.9372 3.42358 30.8966C3.42358 30.8743 3.39452 30.8398 3.37217 30.8094C3.36323 30.7911 3.35653 30.7729 3.35206 30.7567C3.34088 30.7039 3.32747 30.6512 3.31406 30.5984C3.31406 30.5944 3.31406 30.5944 3.31406 30.5923C3.31406 30.5842 3.31406 30.5761 3.31406 30.5619C3.30512 30.3732 3.29394 30.1846 3.28947 29.9959C3.27382 28.9328 1.48347 28.9308 1.46783 29.9959C1.46112 30.4341 1.38736 30.8743 1.51476 31.3064C1.63546 31.7122 1.90815 32.0571 2.19201 32.3796C2.6681 32.9193 3.24924 33.3717 3.80132 33.8444C5.14911 34.9947 6.7696 36.0151 8.70747 35.5485C8.93769 35.4937 9.19473 35.3172 9.29978 35.1022C9.59035 35.1002 9.88092 35.09 10.1693 35.0779C10.2363 36.289 10.3525 37.49 10.661 38.6748C10.8063 39.2307 11.5483 39.6303 12.1541 39.4437C13.1644 39.1333 13.5376 38.3198 13.2828 37.4089C13.2024 37.1208 13.0459 36.8571 12.9542 36.573C12.8917 36.3762 12.8872 35.9401 12.8984 35.6094C12.9073 35.3375 12.9207 35.0677 12.9319 34.7979C13.2918 34.735 13.6471 34.6559 14.0025 34.5686C15.1402 34.4205 16.1885 34.0574 17.1049 33.3899C17.1474 33.3676 17.1899 33.3473 17.2301 33.325C18.978 32.3472 19.9681 30.8459 19.9994 28.9693C20.0039 28.6874 19.9816 28.4114 19.9436 28.1376L19.9458 28.1355ZM15.6543 32.2336C15.0016 32.5379 14.3087 32.7752 13.598 32.9578C13.3789 32.9761 13.1576 32.9862 12.9319 32.9903C12.9319 32.9842 12.9319 32.9781 12.9319 32.972C12.8514 32.0611 12.6346 31.1827 12.6145 30.2637C12.5743 28.3607 12.7352 26.4395 12.4692 24.5447C12.3418 23.6338 12.1652 22.7513 12.1965 21.8282C12.2099 21.4225 12.2144 21.035 12.1854 20.6556C13.4303 20.822 14.6597 21.0776 15.5582 21.8221C16.7875 22.8406 17.1496 24.4798 17.5229 25.8836C17.7173 26.618 17.9856 27.3808 18.1107 28.1457C18.0034 29.0241 17.7419 29.8823 17.2815 30.641C16.9596 31.1685 16.5506 31.6493 16.0499 32.0388C15.9203 32.1058 15.7884 32.1707 15.6565 32.2315L15.6543 32.2336ZM4.49645 16.5819C3.81473 15.955 3.27382 15.3586 3.10172 14.466C2.94302 13.6423 3.11289 12.7679 3.47499 12.0051C3.89296 11.1226 4.53221 10.376 5.31004 9.7735C5.43968 9.74104 5.57379 9.71669 5.72578 9.69641C6.34268 9.6112 6.90147 9.53411 7.49378 9.35355C7.92293 9.22168 8.33196 9.16082 8.76111 9.13039C8.76111 9.13039 8.76111 9.13445 8.76111 9.13648C8.96004 11.4999 9.0785 13.8675 9.25061 16.233C9.29978 16.9045 9.34896 17.576 9.39813 18.2475C8.82593 18.1319 8.2582 17.9959 7.70389 17.8174C6.74277 17.507 5.80401 17.1074 4.85407 16.7706C4.77137 16.7402 4.68644 16.7097 4.60374 16.6752C4.56798 16.6448 4.53445 16.6144 4.49869 16.5819H4.49645ZM3.38558 30.8337C3.40123 30.8622 3.41017 30.8743 3.38558 30.8337V30.8337Z"/>
</mask>
<path d="M19.9458 28.1355C20.138 26.2022 19.7111 24.1795 18.8416 22.516C18.4371 21.741 17.9051 20.968 17.2524 20.3452C16.5148 19.6412 15.5493 19.4505 14.5479 19.2274C13.6494 19.0286 12.7598 18.8379 11.8568 18.6756C11.8188 18.1501 11.7808 17.6247 11.7406 17.0972C11.5662 14.7297 11.4522 12.3561 11.26 9.98854C11.231 9.62337 11.1997 9.2582 11.1706 8.89303C11.8076 8.78754 12.4402 8.65364 13.0727 8.51366C13.1241 8.50148 13.1778 8.49337 13.2292 8.48323C13.2448 8.50351 13.2605 8.52583 13.2783 8.54815C13.6159 8.92752 14.0942 9.08576 14.6194 9.09185C14.691 9.09185 14.7647 9.09793 14.8362 9.09793C14.8832 9.10808 14.9301 9.11416 14.9771 9.1243C15.0553 9.14053 15.1358 9.16082 15.2117 9.18314C15.2185 9.18517 15.2252 9.18923 15.2319 9.19125C15.2028 9.17705 15.1983 9.17097 15.2766 9.20342C15.2855 9.20748 15.2922 9.21154 15.3012 9.21357C15.3079 9.2156 15.3168 9.21966 15.3235 9.21966C15.319 9.21966 15.3146 9.21763 15.3079 9.2156C15.9695 9.49151 16.6266 9.89319 17.3485 10.0251C17.5564 10.3578 17.8537 10.6317 18.2985 10.6986C18.8305 10.7797 19.2149 10.5728 19.4183 10.1224C19.8005 9.27443 19.2775 8.3757 18.5891 7.80157C18.4102 7.65347 18.2247 7.52161 18.0325 7.408C18.0884 6.96168 17.8 6.47681 17.163 6.47681C16.8121 6.47681 16.4612 6.4829 16.1125 6.49507C16.1036 6.49304 16.0924 6.49101 16.0835 6.48898C15.9404 6.29017 15.7012 6.15019 15.3615 6.14816C13.9198 6.14816 12.4268 6.13801 10.9605 6.24757C10.8622 4.85383 10.7951 3.46009 10.8063 2.06432C10.8174 0.64624 8.39008 0.644212 8.3789 2.06432C8.36773 3.56761 8.44596 5.06887 8.55548 6.5681C7.05346 6.87241 5.63191 7.39785 4.38469 8.30064C4.19471 8.36556 4.01142 8.44671 3.83261 8.56032C3.51075 8.76319 3.24477 9.03098 2.91397 9.22371C2.46247 9.48745 1.98191 9.58077 1.61982 9.97231C1.03421 10.6235 0.973858 11.5324 1.00738 12.3297C1.04538 13.2 1.04315 14.0947 1.11914 14.9589C1.20408 15.9368 1.68016 16.8152 2.51611 17.4441C2.80221 17.6592 3.10842 17.8336 3.43028 17.9838C3.59792 18.1298 3.77226 18.2719 3.95107 18.4098C4.65291 18.9494 5.46203 19.2335 6.33821 19.4505C7.40885 19.7143 8.4616 20.0348 9.53894 20.2742C9.6127 21.3454 9.67976 22.4145 9.72893 23.4857C9.84069 25.8776 9.82057 28.2694 9.93904 30.6613C9.97256 31.3328 10.0083 32.0043 10.0463 32.6779C9.29084 32.6961 8.5376 32.7671 7.78212 32.7712C6.89923 32.7773 6.2868 32.6779 5.55368 32.2944C4.8496 31.9272 4.04719 31.4363 3.55992 31.0224C3.51299 30.9818 3.47052 30.9372 3.42358 30.8966C3.42358 30.8743 3.39452 30.8398 3.37217 30.8094C3.36323 30.7911 3.35653 30.7729 3.35206 30.7567C3.34088 30.7039 3.32747 30.6512 3.31406 30.5984C3.31406 30.5944 3.31406 30.5944 3.31406 30.5923C3.31406 30.5842 3.31406 30.5761 3.31406 30.5619C3.30512 30.3732 3.29394 30.1846 3.28947 29.9959C3.27382 28.9328 1.48347 28.9308 1.46783 29.9959C1.46112 30.4341 1.38736 30.8743 1.51476 31.3064C1.63546 31.7122 1.90815 32.0571 2.19201 32.3796C2.6681 32.9193 3.24924 33.3717 3.80132 33.8444C5.14911 34.9947 6.7696 36.0151 8.70747 35.5485C8.93769 35.4937 9.19473 35.3172 9.29978 35.1022C9.59035 35.1002 9.88092 35.09 10.1693 35.0779C10.2363 36.289 10.3525 37.49 10.661 38.6748C10.8063 39.2307 11.5483 39.6303 12.1541 39.4437C13.1644 39.1333 13.5376 38.3198 13.2828 37.4089C13.2024 37.1208 13.0459 36.8571 12.9542 36.573C12.8917 36.3762 12.8872 35.9401 12.8984 35.6094C12.9073 35.3375 12.9207 35.0677 12.9319 34.7979C13.2918 34.735 13.6471 34.6559 14.0025 34.5686C15.1402 34.4205 16.1885 34.0574 17.1049 33.3899C17.1474 33.3676 17.1899 33.3473 17.2301 33.325C18.978 32.3472 19.9681 30.8459 19.9994 28.9693C20.0039 28.6874 19.9816 28.4114 19.9436 28.1376L19.9458 28.1355ZM15.6543 32.2336C15.0016 32.5379 14.3087 32.7752 13.598 32.9578C13.3789 32.9761 13.1576 32.9862 12.9319 32.9903C12.9319 32.9842 12.9319 32.9781 12.9319 32.972C12.8514 32.0611 12.6346 31.1827 12.6145 30.2637C12.5743 28.3607 12.7352 26.4395 12.4692 24.5447C12.3418 23.6338 12.1652 22.7513 12.1965 21.8282C12.2099 21.4225 12.2144 21.035 12.1854 20.6556C13.4303 20.822 14.6597 21.0776 15.5582 21.8221C16.7875 22.8406 17.1496 24.4798 17.5229 25.8836C17.7173 26.618 17.9856 27.3808 18.1107 28.1457C18.0034 29.0241 17.7419 29.8823 17.2815 30.641C16.9596 31.1685 16.5506 31.6493 16.0499 32.0388C15.9203 32.1058 15.7884 32.1707 15.6565 32.2315L15.6543 32.2336ZM4.49645 16.5819C3.81473 15.955 3.27382 15.3586 3.10172 14.466C2.94302 13.6423 3.11289 12.7679 3.47499 12.0051C3.89296 11.1226 4.53221 10.376 5.31004 9.7735C5.43968 9.74104 5.57379 9.71669 5.72578 9.69641C6.34268 9.6112 6.90147 9.53411 7.49378 9.35355C7.92293 9.22168 8.33196 9.16082 8.76111 9.13039C8.76111 9.13039 8.76111 9.13445 8.76111 9.13648C8.96004 11.4999 9.0785 13.8675 9.25061 16.233C9.29978 16.9045 9.34896 17.576 9.39813 18.2475C8.82593 18.1319 8.2582 17.9959 7.70389 17.8174C6.74277 17.507 5.80401 17.1074 4.85407 16.7706C4.77137 16.7402 4.68644 16.7097 4.60374 16.6752C4.56798 16.6448 4.53445 16.6144 4.49869 16.5819H4.49645ZM3.38558 30.8337C3.40123 30.8622 3.41017 30.8743 3.38558 30.8337V30.8337Z" fill="#FFE48B"/>
<path d="M19.9458 28.1355C20.138 26.2022 19.7111 24.1795 18.8416 22.516C18.4371 21.741 17.9051 20.968 17.2524 20.3452C16.5148 19.6412 15.5493 19.4505 14.5479 19.2274C13.6494 19.0286 12.7598 18.8379 11.8568 18.6756C11.8188 18.1501 11.7808 17.6247 11.7406 17.0972C11.5662 14.7297 11.4522 12.3561 11.26 9.98854C11.231 9.62337 11.1997 9.2582 11.1706 8.89303C11.8076 8.78754 12.4402 8.65364 13.0727 8.51366C13.1241 8.50148 13.1778 8.49337 13.2292 8.48323C13.2448 8.50351 13.2605 8.52583 13.2783 8.54815C13.6159 8.92752 14.0942 9.08576 14.6194 9.09185C14.691 9.09185 14.7647 9.09793 14.8362 9.09793C14.8832 9.10808 14.9301 9.11416 14.9771 9.1243C15.0553 9.14053 15.1358 9.16082 15.2117 9.18314C15.2185 9.18517 15.2252 9.18923 15.2319 9.19125C15.2028 9.17705 15.1983 9.17097 15.2766 9.20342C15.2855 9.20748 15.2922 9.21154 15.3012 9.21357C15.3079 9.2156 15.3168 9.21966 15.3235 9.21966C15.319 9.21966 15.3146 9.21763 15.3079 9.2156C15.9695 9.49151 16.6266 9.89319 17.3485 10.0251C17.5564 10.3578 17.8537 10.6317 18.2985 10.6986C18.8305 10.7797 19.2149 10.5728 19.4183 10.1224C19.8005 9.27443 19.2775 8.3757 18.5891 7.80157C18.4102 7.65347 18.2247 7.52161 18.0325 7.408C18.0884 6.96168 17.8 6.47681 17.163 6.47681C16.8121 6.47681 16.4612 6.4829 16.1125 6.49507C16.1036 6.49304 16.0924 6.49101 16.0835 6.48898C15.9404 6.29017 15.7012 6.15019 15.3615 6.14816C13.9198 6.14816 12.4268 6.13801 10.9605 6.24757C10.8622 4.85383 10.7951 3.46009 10.8063 2.06432C10.8174 0.64624 8.39008 0.644212 8.3789 2.06432C8.36773 3.56761 8.44596 5.06887 8.55548 6.5681C7.05346 6.87241 5.63191 7.39785 4.38469 8.30064C4.19471 8.36556 4.01142 8.44671 3.83261 8.56032C3.51075 8.76319 3.24477 9.03098 2.91397 9.22371C2.46247 9.48745 1.98191 9.58077 1.61982 9.97231C1.03421 10.6235 0.973858 11.5324 1.00738 12.3297C1.04538 13.2 1.04315 14.0947 1.11914 14.9589C1.20408 15.9368 1.68016 16.8152 2.51611 17.4441C2.80221 17.6592 3.10842 17.8336 3.43028 17.9838C3.59792 18.1298 3.77226 18.2719 3.95107 18.4098C4.65291 18.9494 5.46203 19.2335 6.33821 19.4505C7.40885 19.7143 8.4616 20.0348 9.53894 20.2742C9.6127 21.3454 9.67976 22.4145 9.72893 23.4857C9.84069 25.8776 9.82057 28.2694 9.93904 30.6613C9.97256 31.3328 10.0083 32.0043 10.0463 32.6779C9.29084 32.6961 8.5376 32.7671 7.78212 32.7712C6.89923 32.7773 6.2868 32.6779 5.55368 32.2944C4.8496 31.9272 4.04719 31.4363 3.55992 31.0224C3.51299 30.9818 3.47052 30.9372 3.42358 30.8966C3.42358 30.8743 3.39452 30.8398 3.37217 30.8094C3.36323 30.7911 3.35653 30.7729 3.35206 30.7567C3.34088 30.7039 3.32747 30.6512 3.31406 30.5984C3.31406 30.5944 3.31406 30.5944 3.31406 30.5923C3.31406 30.5842 3.31406 30.5761 3.31406 30.5619C3.30512 30.3732 3.29394 30.1846 3.28947 29.9959C3.27382 28.9328 1.48347 28.9308 1.46783 29.9959C1.46112 30.4341 1.38736 30.8743 1.51476 31.3064C1.63546 31.7122 1.90815 32.0571 2.19201 32.3796C2.6681 32.9193 3.24924 33.3717 3.80132 33.8444C5.14911 34.9947 6.7696 36.0151 8.70747 35.5485C8.93769 35.4937 9.19473 35.3172 9.29978 35.1022C9.59035 35.1002 9.88092 35.09 10.1693 35.0779C10.2363 36.289 10.3525 37.49 10.661 38.6748C10.8063 39.2307 11.5483 39.6303 12.1541 39.4437C13.1644 39.1333 13.5376 38.3198 13.2828 37.4089C13.2024 37.1208 13.0459 36.8571 12.9542 36.573C12.8917 36.3762 12.8872 35.9401 12.8984 35.6094C12.9073 35.3375 12.9207 35.0677 12.9319 34.7979C13.2918 34.735 13.6471 34.6559 14.0025 34.5686C15.1402 34.4205 16.1885 34.0574 17.1049 33.3899C17.1474 33.3676 17.1899 33.3473 17.2301 33.325C18.978 32.3472 19.9681 30.8459 19.9994 28.9693C20.0039 28.6874 19.9816 28.4114 19.9436 28.1376L19.9458 28.1355ZM15.6543 32.2336C15.0016 32.5379 14.3087 32.7752 13.598 32.9578C13.3789 32.9761 13.1576 32.9862 12.9319 32.9903C12.9319 32.9842 12.9319 32.9781 12.9319 32.972C12.8514 32.0611 12.6346 31.1827 12.6145 30.2637C12.5743 28.3607 12.7352 26.4395 12.4692 24.5447C12.3418 23.6338 12.1652 22.7513 12.1965 21.8282C12.2099 21.4225 12.2144 21.035 12.1854 20.6556C13.4303 20.822 14.6597 21.0776 15.5582 21.8221C16.7875 22.8406 17.1496 24.4798 17.5229 25.8836C17.7173 26.618 17.9856 27.3808 18.1107 28.1457C18.0034 29.0241 17.7419 29.8823 17.2815 30.641C16.9596 31.1685 16.5506 31.6493 16.0499 32.0388C15.9203 32.1058 15.7884 32.1707 15.6565 32.2315L15.6543 32.2336ZM4.49645 16.5819C3.81473 15.955 3.27382 15.3586 3.10172 14.466C2.94302 13.6423 3.11289 12.7679 3.47499 12.0051C3.89296 11.1226 4.53221 10.376 5.31004 9.7735C5.43968 9.74104 5.57379 9.71669 5.72578 9.69641C6.34268 9.6112 6.90147 9.53411 7.49378 9.35355C7.92293 9.22168 8.33196 9.16082 8.76111 9.13039C8.76111 9.13039 8.76111 9.13445 8.76111 9.13648C8.96004 11.4999 9.0785 13.8675 9.25061 16.233C9.29978 16.9045 9.34896 17.576 9.39813 18.2475C8.82593 18.1319 8.2582 17.9959 7.70389 17.8174C6.74277 17.507 5.80401 17.1074 4.85407 16.7706C4.77137 16.7402 4.68644 16.7097 4.60374 16.6752C4.56798 16.6448 4.53445 16.6144 4.49869 16.5819H4.49645ZM3.38558 30.8337C3.40123 30.8622 3.41017 30.8743 3.38558 30.8337V30.8337Z" stroke="#FFE48B" stroke-width="2" mask="url(#path-1-outside-1_2007_31038)"/>
</svg>
