<svg width="545" height="128" viewBox="0 0 545 128" fill="none" xmlns="http://www.w3.org/2000/svg">
<path d="M313.805 128C225.208 128 153.77 125.957 152.441 125.907C150.412 125.839 148.862 125.046 149.01 124.117C149.157 123.189 150.781 122.497 152.921 122.547C155.32 122.615 393.176 129.435 539.706 118.023C541.735 117.871 543.617 118.479 543.949 119.408C544.281 120.319 542.953 121.197 540.923 121.349C473.803 126.565 387.789 128 313.768 128H313.805Z" fill="#1D3D6C"/>
<path d="M313.768 38C225.171 38 153.733 35.9574 152.441 35.9067C150.412 35.8392 148.862 35.0458 149.01 34.1173C149.157 33.1889 150.781 32.4967 152.921 32.5474C155.32 32.6149 393.139 39.4349 539.706 28.0232C541.735 27.8713 543.617 28.479 543.949 29.4075C544.281 30.336 542.953 31.1969 540.923 31.3488C473.802 36.5651 387.789 38 313.731 38H313.768Z" fill="#1D3D6C"/>
<g clip-path="url(#clip0_3497_33289)">
<path d="M83.859 53.9404C85.199 56.3704 87.189 57.9904 89.399 59.2404C91.519 60.4404 93.359 61.9004 95.019 63.6404C95.399 64.0404 95.759 64.4904 96.009 64.9804C97.129 67.1304 96.679 68.4804 94.419 69.3004C92.489 70.0004 90.559 70.8604 88.399 70.0404C87.829 69.8304 87.129 69.8804 86.499 69.9604C81.549 70.6104 77.049 69.1604 72.719 67.0104C71.769 66.5404 70.929 66.5104 69.979 66.8804C67.549 67.8404 65.139 68.8904 62.649 69.6704C58.709 70.9004 54.739 72.0604 50.729 73.0204C48.509 73.5504 46.159 73.5004 43.899 73.9104C41.279 74.3804 38.699 74.3404 36.049 74.2604C32.259 74.1404 28.629 73.3504 24.979 72.5304C21.589 71.7604 18.689 69.8904 15.569 68.5104C14.509 68.0504 13.679 67.0704 12.749 66.3304C12.129 65.8304 11.579 65.2304 10.899 64.8304C7.17904 62.5904 4.97904 59.1204 3.20904 55.3204C2.58904 53.9704 2.26904 52.4504 1.49904 51.2104C0.339036 49.3304 0.369036 47.2304 0.0890361 45.2104C-0.120964 43.7304 0.0290361 42.1704 0.249036 40.6804C0.749036 37.4004 1.58904 34.2204 2.88904 31.1104C4.14904 28.1104 5.74904 25.3204 7.49904 22.6604C9.58904 19.4804 12.179 16.6604 15.399 14.4504C16.729 13.5404 18.049 12.5704 19.239 11.3804C20.599 10.0104 22.539 9.18036 24.289 8.25036C25.969 7.36036 27.739 6.65036 29.459 5.84036C30.529 5.34036 31.539 4.70036 32.639 4.27036C35.819 3.04036 39.019 1.89036 42.229 0.730358C42.749 0.540358 43.309 0.440358 43.869 0.390358C49.969 -0.199642 55.979 -0.139642 62.079 1.04036C65.949 1.79036 69.589 3.05036 73.199 4.42036C75.389 5.25036 77.379 6.73036 79.269 8.16036C81.079 9.53036 82.579 11.3004 84.349 12.7304C86.039 14.1004 87.039 15.8404 87.629 17.8604C88.589 21.1304 89.529 24.4104 90.429 27.7004C91.469 31.4904 90.969 35.2604 90.129 39.0104C89.849 40.2504 89.609 41.5004 89.389 42.7504C88.809 46.1504 86.129 51.7104 83.849 53.9604L83.859 53.9404ZM92.149 65.7504C89.929 64.0604 88.079 62.7404 86.349 61.2804C84.529 59.7504 82.639 58.2304 81.109 56.4304C79.319 54.3404 79.589 52.4304 81.469 50.3704C81.889 49.9104 82.469 49.5004 82.689 48.9504C83.639 46.5504 85.319 44.4604 85.519 41.7404C85.599 40.5704 86.109 39.4404 86.339 38.2704C86.809 35.9604 87.549 33.6704 86.879 31.2504C86.279 29.1004 85.569 26.9504 85.279 24.7504C85.009 22.6704 84.229 20.7904 83.339 19.0204C81.479 15.3304 78.519 12.5404 75.049 10.3304C71.979 8.37036 68.879 6.46036 65.179 5.88036C63.849 5.67036 62.539 5.35036 61.219 5.06036C57.409 4.22036 53.539 3.78036 49.669 4.10036C45.399 4.46036 41.139 5.15036 37.129 6.78036C34.119 8.01036 31.069 9.19036 28.219 10.7204C23.859 13.0604 19.859 15.9804 16.099 19.2104C15.499 19.7204 14.779 20.1404 14.299 20.7504C12.509 23.0204 10.449 25.0604 9.13904 27.7404C6.90904 32.2504 4.57904 36.6904 4.37904 41.8604C4.29904 43.9104 4.13904 46.0304 4.51904 48.0204C5.21904 51.6404 6.97904 54.8904 8.83904 58.0604C9.18904 58.6604 9.67904 59.2204 10.209 59.6704C12.829 61.8804 15.439 64.1004 18.149 66.2004C19.069 66.9104 20.219 67.4104 21.349 67.7604C23.399 68.4004 25.529 68.7504 27.579 69.4004C30.189 70.2304 32.889 70.3004 35.549 70.3304C38.239 70.3704 40.949 70.1104 43.639 69.8404C47.989 69.4004 52.229 68.4004 56.389 67.0104C59.399 66.0104 62.479 65.2604 65.499 64.3104C67.089 63.8104 68.679 63.2204 70.139 62.4404C71.289 61.8304 72.209 61.8604 73.249 62.5604C74.169 63.1804 75.109 63.8204 76.119 64.2504C80.699 66.1804 85.529 66.3204 90.399 66.1104C90.789 66.0904 91.169 65.9604 92.149 65.7504Z" fill="#1D3D6C"/>
<path d="M53.5693 18.9598C57.5693 18.3198 59.4093 19.4898 61.2393 23.2098C63.0593 26.8898 63.2393 30.5698 62.5593 34.5698C62.1993 36.7398 62.0293 38.9298 61.4293 41.0698C60.5193 44.2498 59.1093 47.1298 56.9393 49.6398C55.7493 51.0098 54.6793 52.5098 53.6893 54.0298C53.2393 54.7298 53.1293 55.6498 52.7993 56.5898C51.6593 57.0098 50.4593 56.9198 49.2193 56.4198C45.4393 54.8898 42.0193 52.8498 38.8093 50.3098C36.1993 48.2598 33.9993 45.8398 32.1093 43.2598C28.9893 39.0098 27.3893 33.9898 28.8993 28.7998C30.4193 23.5398 35.8593 22.0298 40.6693 25.4698C41.4293 26.0198 42.1093 26.6998 42.9293 27.3998C43.2993 26.8398 43.7393 26.4198 43.8693 25.9298C44.8893 22.1198 47.9493 20.6398 51.2393 19.4698C51.9793 19.1998 52.7893 19.0898 53.5793 18.9598H53.5693ZM58.8693 27.6498C58.2393 23.8698 55.8193 22.1598 52.4993 23.4398C50.2593 24.3098 47.8893 25.2098 47.1493 28.0798C46.6793 29.8698 46.2293 31.5998 46.4693 33.4698C46.6393 34.7198 45.8693 35.3998 44.8193 35.7798C43.8093 36.1498 42.8193 35.6898 42.2393 34.6298C41.9293 34.0798 41.7093 33.4698 41.5593 33.1098C40.2493 31.2398 39.4693 29.3198 37.3693 28.3898C35.4693 27.5498 33.9693 27.9198 33.0693 29.7698C32.2993 31.3698 32.2993 32.9398 32.7093 34.6498C33.6593 38.6298 35.7793 41.9498 38.4293 44.9498C41.1293 47.9898 44.4193 50.3098 48.0893 52.0598C49.4193 52.6998 50.2293 52.3798 51.2393 50.9398C52.0493 49.7698 52.9193 48.6198 53.7093 47.4398C54.9793 45.5298 56.6093 43.7498 57.3993 41.6498C59.0693 37.1598 59.6593 32.4398 58.8693 27.6398V27.6498Z" fill="#1D3D6C"/>
<path d="M52.5001 23.4498C55.8101 22.1698 58.2401 23.8798 58.8701 27.6598C59.6601 32.4598 59.0701 37.1798 57.4001 41.6698C56.6101 43.7698 54.9801 45.5498 53.7101 47.4598C52.9201 48.6498 52.0501 49.7898 51.2401 50.9598C50.2301 52.3998 49.4101 52.7198 48.0901 52.0798C44.4101 50.3198 41.1301 48.0098 38.4301 44.9698C35.7801 41.9698 33.6601 38.6498 32.7101 34.6698C32.3101 32.9598 32.3001 31.3798 33.0701 29.7898C33.9701 27.9398 35.4701 27.5598 37.3701 28.4098C39.4701 29.3298 40.2501 31.2598 41.5601 33.1298C41.7101 33.4898 41.9401 34.0998 42.2401 34.6498C42.8301 35.7098 43.8101 36.1698 44.8201 35.7998C45.8801 35.4198 46.6401 34.7398 46.4701 33.4898C46.2201 31.6298 46.6801 29.8998 47.1501 28.0998C47.8901 25.2298 50.2601 24.3198 52.5001 23.4598V23.4498Z" fill="#FFC7BB"/>
</g>
<path d="M540.131 114.528C540.131 114.528 269.533 127.549 139.953 117.542C148.255 103.312 177.993 76.692 177.956 75.3075C177.956 74.2385 149.731 50.8955 139.953 37.857C262.523 39.8899 418.41 44.7618 540.131 34.8428C530.021 48.4245 511.315 59.3424 499.988 72.6963C518.694 88.1532 540.131 114.528 540.131 114.528Z" fill="#1D3D6C"/>
<path d="M540.425 114.615C539.355 114.72 538.174 114.825 537.03 114.878L533.931 115.053L527.696 115.421L515.225 116.087L490.283 117.331C473.642 118.137 457.002 118.786 440.325 119.417C407.008 120.748 373.579 121.59 340.151 122.185C323.437 122.536 306.686 122.711 289.972 122.799C273.221 122.746 256.507 122.834 239.756 122.518C206.291 121.888 172.789 120.959 139.693 118.242L137.959 118.102L138.476 117.331C143.014 110.269 149.25 103.557 155.596 96.9147L175.188 77.0942C175.594 76.6736 175.926 76.2705 176.295 75.8674C176.664 75.4118 176.811 75.3066 176.442 75.0087C175.667 74.2201 174.782 73.3964 173.896 72.5903L168.509 67.7535L157.736 58.0622C150.652 51.5956 143.604 45.0939 138.033 38.1716L137 36.8748L140.026 36.9098C173.454 37.2428 206.845 37.7335 240.236 38.1891C273.627 38.6097 306.982 39.0303 340.336 39.0478C373.69 39.0303 407.044 38.8726 440.288 38.0489C448.59 37.8562 456.891 37.5407 465.193 37.2954C473.495 37.015 481.76 36.6119 490.061 36.2614C498.326 35.8759 506.591 35.4027 514.856 34.9821L539.539 33.3172L545 32.9492L543.155 35.3501C537.953 42.1673 530.463 48.4236 522.936 54.5398C515.409 60.6384 507.698 66.6494 502.016 73.0985L501.868 72.1872C509.653 78.9868 516.442 85.9617 522.715 93.0417C525.851 96.5817 528.876 100.139 531.828 103.714L536.182 109.077L538.322 111.776L539.392 113.125L539.908 113.809L540.167 114.142C540.277 114.264 540.388 114.492 540.388 114.632L540.425 114.615ZM539.798 114.44C539.798 114.44 539.539 114.369 539.466 114.264L539.17 113.931L538.58 113.265L537.399 111.933L535.038 109.287L530.205 104.012C526.921 100.507 523.6 97.0199 520.132 93.5675C513.195 86.6627 506.185 79.7579 498.031 73.2037L497.514 72.7655L497.92 72.2749C503.381 65.5804 510.76 59.324 518.029 53.1728C525.297 47.0216 532.345 40.8529 537.067 34.2986L540.683 36.3315L515.815 38.2242C507.476 38.7149 499.175 39.2932 490.836 39.7313C482.498 40.0818 474.159 40.5199 465.784 40.8179C457.408 41.0807 449.069 41.3962 440.694 41.624C407.229 42.5178 373.727 42.8157 340.262 42.5879C306.797 42.3776 273.369 41.8869 239.978 41.1683C206.587 40.4849 173.232 39.5736 139.878 38.785L141.833 37.5057C146.925 44.3053 153.64 50.8771 160.355 57.4314C163.75 60.7085 167.292 63.9331 170.834 67.1751L176.147 72.047C177.033 72.8707 177.881 73.6768 178.693 74.5356C178.84 74.7809 179.32 75.1664 179.099 75.4644C178.951 75.7798 178.73 76.0953 178.545 76.2705C178.176 76.7086 177.77 77.1467 177.365 77.5498C174.118 80.8795 170.723 84.1391 167.403 87.4338C164.119 90.7285 160.909 94.0407 157.81 97.3704C151.648 104.03 145.523 110.759 141.428 117.699L140.173 116.77C173.158 118.996 206.587 119.487 239.867 119.662C256.544 119.837 273.221 119.732 289.899 119.697C306.576 119.469 323.253 119.487 339.93 119.206C373.284 118.803 406.639 117.997 439.993 117.226L490.024 115.859L515.04 115.123L527.548 114.72L533.784 114.527L536.92 114.422C537.842 114.387 538.728 114.404 539.761 114.404L539.798 114.44Z" fill="white"/>
<path d="M258.984 80.32H247.304C248.712 82.688 250.664 84.704 253.16 86.272C255.592 84.736 257.576 82.752 258.984 80.32ZM261.864 76.448L264.52 78.016C262.856 82.336 260.264 85.664 256.936 88.224C260.04 89.472 263.72 90.368 267.944 90.816C267.112 91.712 266.024 93.44 265.544 94.56C260.552 93.856 256.424 92.608 252.968 90.72C249.128 92.736 244.648 94.016 239.848 94.784C239.528 93.792 238.536 91.968 237.8 91.136C242.056 90.592 245.96 89.664 249.32 88.256C246.92 86.304 244.968 83.872 243.336 80.928L245.064 80.32H240.872V76.576H250.92V72.864H239.304V69.088H250.92V64.896H254.888V69.088H266.568V72.864H254.888V76.576H261.192L261.864 76.448ZM283.08 78.464L283.56 81.888C282.6 82.176 281.64 82.464 280.648 82.752V90.336C280.648 92.096 280.36 93.024 279.368 93.6C278.44 94.24 277.032 94.368 274.984 94.336C274.888 93.408 274.472 91.84 273.992 90.848C275.176 90.88 276.264 90.88 276.648 90.848C277.032 90.848 277.16 90.72 277.16 90.304V83.744L273.768 84.736L272.936 81.088C274.12 80.8 275.56 80.448 277.16 80.032V74.464H273.448V70.944H277.16V64.928H280.648V70.944H283.272V74.464H280.648V79.136L283.08 78.464ZM285.8 86.048L288.776 84.448C289.992 86.08 291.592 88.352 292.36 89.792L289.16 91.648C288.488 90.176 286.952 87.776 285.8 86.048ZM299.432 78.592V80.768H302.952V84.224H299.432V90.816C299.432 92.704 299.08 93.632 297.832 94.208C296.68 94.752 294.952 94.784 292.68 94.784C292.52 93.728 292.04 92.256 291.592 91.232C293.032 91.328 294.696 91.296 295.176 91.264C295.688 91.264 295.816 91.168 295.816 90.72V84.224H284.04V80.768H295.816V78.592H299.432ZM295.304 68.576H303.144V72.032H295.304V74.56H301.736V78.016H285.352V74.56H291.688V72.032H283.688V68.576H291.688V65.056H295.304V68.576ZM317.768 70.944V69.792H309.16V66.592H317.768V64.928H321.544V70.944H317.768ZM315.336 74.048V76.16H318.6V74.048H315.336ZM321.8 74.048V76.16H325.16V74.048H321.8ZM328.328 74.048V76.16H331.784V74.048H328.328ZM311.944 78.624V71.616H335.336V78.624H311.944ZM327.272 86.432H320.072C321.224 87.168 322.408 88.032 323.208 88.768C324.776 88.128 326.184 87.36 327.272 86.432ZM309.352 85.408V79.712H337.512V85.408H333.736V82.592H321.448L323.912 83.104C323.656 83.392 323.4 83.648 323.144 83.904H329.96L330.632 83.744L333.032 85.12C329.16 91.232 320.68 93.696 311.784 94.688C311.496 93.792 310.824 92.288 310.248 91.456C313.576 91.2 316.872 90.752 319.816 89.92C318.952 89.152 317.864 88.32 316.904 87.712C316.2 87.968 315.464 88.192 314.696 88.416C314.28 87.584 313.224 86.304 312.488 85.76C316.008 85.024 318.472 83.904 319.944 82.592H312.936V85.408H309.352ZM329 66.592H337.64V69.76H329V70.944H325.192V64.928H329V66.592ZM362.312 78.816V80.736H368.2V78.816H362.312ZM362.312 74.176V76.032H368.2V74.176H362.312ZM362.312 69.504V71.36H368.2V69.504H362.312ZM355.592 84.96L358.216 82.848L358.856 83.424V66.496H371.848V83.712H359.176C360.424 84.864 361.8 86.208 362.568 87.104L359.816 89.408C358.92 88.256 357.032 86.304 355.592 84.96ZM349.48 84.096V77.792C348.392 79.68 347.176 81.28 345.864 82.432C345.32 81.6 344.2 80.416 343.432 79.808C345.544 78.24 347.624 75.456 348.872 72.672H344.232V69.44H349.48V64.928H353.096V69.44H357.608V72.672H353.096V73.856C354.376 74.592 357.416 76.768 358.152 77.376L356.168 80.416C355.432 79.616 354.248 78.464 353.096 77.408V84.096H349.48ZM347.144 93.024L343.656 91.296C344.808 89.6 345.896 86.976 346.44 84.704L349.832 86.048C349.192 88.32 348.264 91.168 347.144 93.024ZM356.808 90.784H361.928C363.432 90.784 363.656 90.336 363.848 87.104C364.616 87.712 366.216 88.256 367.272 88.448C366.792 93.024 365.736 94.144 362.216 94.144H356.456C352.104 94.144 350.984 93.088 350.984 89.76V85.376H354.76V89.696C354.76 90.656 355.08 90.784 356.808 90.784ZM366.376 85.824L369.704 84.288C370.984 86.272 372.84 88.992 373.704 90.656L370.152 92.48C369.384 90.784 367.624 87.968 366.376 85.824ZM386.6 73.28V75.008H400.744V73.28H386.6ZM386.6 68.896V70.592H400.744V68.896H386.6ZM395.88 90.688H407.944V93.984H379.752V90.688H391.944V88.512H383.688V85.536H391.944V83.584H385.16C384.232 84.8 383.208 85.92 382.216 86.784C381.48 86.112 379.944 84.928 379.048 84.448C381.16 82.848 383.176 80.416 384.328 77.92H382.856V66.016H404.712V77.92H385.576L388.232 78.688C387.944 79.264 387.656 79.84 387.304 80.448H391.944V78.496H395.88V80.448H405.928V83.584H395.88V85.536H404.456V88.512H395.88V90.688ZM440.392 74.816L443.688 76.544C442.024 78.72 440.008 81.088 438.408 82.72C439.784 85.472 441.672 87.52 444.392 89.44C443.528 90.08 442.504 91.296 442.056 92.32C439.368 90.272 437.48 88.096 436.008 85.408V90.496C436.008 92.416 435.624 93.408 434.504 94.016C433.416 94.656 431.784 94.816 429.416 94.816C429.256 93.792 428.616 92.16 428.136 91.136C429.672 91.2 431.176 91.2 431.656 91.168C432.136 91.168 432.36 91.008 432.36 90.528V85.28C430.12 87.456 427.816 89.664 425.832 91.456L424.072 88.768C420.776 89.824 417.32 90.912 414.568 91.776L413.768 88.16C414.888 87.872 416.168 87.52 417.608 87.104V79.392H414.408V75.904H417.608V70.272H414.248V66.72H424.392V70.272H421.16V75.904H423.912V79.392H421.16V86.08L424.424 85.088L424.776 87.136C426.856 85.632 429.704 83.392 432.36 81.184V73.536H425V70.048H432.36V64.928H436.008V70.048H440.36C439.528 69.088 438.152 67.904 437 67.04L439.08 65.12C440.424 65.952 442.088 67.328 442.92 68.288L441.096 70.048H443.848V73.536H436.008V74.816C436.328 76.576 436.712 78.112 437.16 79.552C438.344 78.016 439.592 76.256 440.392 74.816ZM425.192 76.256L428.136 74.944C429.352 76.704 430.728 78.976 431.208 80.576L428.104 82.016C427.656 80.48 426.376 78.048 425.192 76.256Z" fill="white"/>
<defs>
<clipPath id="clip0_3497_33289">
<rect width="96.6" height="74.31" fill="white"/>
</clipPath>
</defs>
</svg>
