<svg width="376" height="91" viewBox="0 0 376 91" fill="none" xmlns="http://www.w3.org/2000/svg">
<path d="M371.512 82.528C371.512 82.528 122.138 95.5489 2.7207 85.5423C10.3713 71.3121 37.7773 44.692 37.7433 43.3075C37.7433 42.2385 11.7314 18.8955 2.7207 5.85704C115.677 7.88991 259.338 12.7618 371.512 2.84277C362.195 16.4245 344.956 27.3424 334.517 40.6963C351.757 56.1532 371.512 82.528 371.512 82.528Z" fill="#1D3D6C"/>
<path d="M371.784 82.6148C370.798 82.7199 369.71 82.8251 368.655 82.8776L365.799 83.0529L360.053 83.4209L348.56 84.0868L325.574 85.3311C310.239 86.1372 294.904 86.7856 279.535 87.4165C248.831 88.7484 218.024 89.5896 187.218 90.1855C171.815 90.536 156.378 90.7112 140.974 90.7988C125.537 90.7463 110.134 90.8339 94.697 90.5184C63.8568 89.8875 32.9825 88.9587 2.48218 86.2424L0.884066 86.1022L1.3601 85.3311C5.54241 78.2686 11.2888 71.5566 17.1373 64.9147L35.1926 45.0942C35.5666 44.6736 35.8727 44.2705 36.2127 43.8674C36.5527 43.4118 36.6887 43.3066 36.3487 43.0087C35.6347 42.2201 34.8186 41.3964 34.0025 40.5903L29.0382 35.7535L19.1094 26.0622C12.5809 19.5956 6.08645 13.0939 0.952071 6.17161L0 4.87477L2.78821 4.90982C33.5945 5.24279 64.3668 5.73349 95.1391 6.18913C125.911 6.60973 156.65 7.03032 187.388 7.04785C218.126 7.03032 248.865 6.8726 279.501 6.04893C287.151 5.85616 294.802 5.54071 302.452 5.29537C310.103 5.01497 317.72 4.6119 325.37 4.2614C332.987 3.87586 340.603 3.40269 348.22 2.98209L370.968 1.31724L376 0.949219L374.3 3.35012C369.506 10.1673 362.603 16.4236 355.666 22.5398C348.73 28.6384 341.623 34.6494 336.387 41.0985L336.251 40.1872C343.426 46.9868 349.682 53.9617 355.462 61.0417C358.353 64.5817 361.141 68.1393 363.861 71.7143L367.873 77.0769L369.846 79.7757L370.832 81.1251L371.308 81.8086L371.546 82.1416C371.648 82.2643 371.75 82.4921 371.75 82.6323L371.784 82.6148ZM371.206 82.4395C371.206 82.4395 370.968 82.3694 370.9 82.2643L370.628 81.9313L370.084 81.2653L368.995 79.9335L366.819 77.2872L362.365 72.0123C359.339 68.5073 356.279 65.0199 353.082 61.5675C346.69 54.6627 340.229 47.7579 332.715 41.2037L332.239 40.7655L332.613 40.2749C337.645 33.5804 344.446 27.324 351.144 21.1728C357.843 15.0216 364.337 8.8529 368.689 2.29863L372.022 4.3315L349.104 6.22418C341.419 6.71488 333.769 7.29319 326.084 7.73131C318.4 8.08181 310.715 8.51993 302.997 8.81785C295.278 9.08072 287.593 9.39617 279.875 9.62399C249.035 10.5178 218.16 10.8157 187.32 10.5879C156.48 10.3776 125.673 9.88686 94.9011 9.16835C64.1288 8.48488 33.3905 7.57359 2.6522 6.78497L4.45433 5.50566C9.14668 12.3053 15.3351 18.8771 21.5236 25.4314C24.6518 28.7085 27.9161 31.9331 31.1803 35.1751L36.0767 40.047C36.8927 40.8707 37.6748 41.6768 38.4229 42.5356C38.5589 42.7809 39.0009 43.1664 38.7969 43.4644C38.6609 43.7798 38.4569 44.0953 38.2869 44.2705C37.9468 44.7086 37.5728 45.1467 37.1988 45.5498C34.2065 48.8795 31.0783 52.1391 28.0181 55.4338C24.9919 58.7285 22.0336 62.0407 19.1774 65.3704C13.499 72.0298 7.85458 78.7593 4.0803 85.6991L2.92422 84.7703C33.3225 86.996 64.1288 87.4867 94.7991 87.6619C110.168 87.8371 125.537 87.732 140.906 87.6969C156.276 87.4691 171.645 87.4866 187.014 87.2063C217.752 86.8032 248.491 85.997 279.229 85.2259L325.336 83.859L348.39 83.123L359.917 82.7199L365.663 82.5271L368.553 82.422C369.403 82.3869 370.22 82.4045 371.172 82.4045L371.206 82.4395Z" fill="white"/>
</svg>
