<svg width="779" height="437" viewBox="0 0 779 437" fill="none" xmlns="http://www.w3.org/2000/svg">
<g clip-path="url(#clip0_3497_36541)">
<path d="M777.828 245.635C780.441 241.849 777.918 237.922 777.783 234.183C777.377 224.273 777.422 214.13 773.097 204.828C773.457 203.893 773.367 203.005 772.646 202.257C772.646 199.92 772.737 197.63 771.745 195.292C766.294 182.906 758.184 172.529 749.353 162.666C748.362 161.544 747.01 160.609 745.433 160.376C744.352 157.945 741.378 158.179 740.027 156.215C735.431 149.578 728.583 146.399 721.644 143.455C710.786 138.827 699.342 136.724 687.628 136.022C679.968 135.602 672.444 131.862 664.605 134.901C663.974 135.134 663.118 134.667 662.352 134.527C658.297 133.639 654.602 134.62 651.133 136.724C643.023 137.612 635.634 140.51 628.651 145.511C626.173 141.398 625.632 136.677 622.388 133.639C619.82 129.899 617.252 126.16 614.684 122.373C614.549 121.859 614.594 121.205 614.278 120.878C606.889 113.305 599.906 105.172 591.841 98.3943C584.182 91.9438 575.576 86.5216 566.205 83.0159C559.987 80.7255 553.724 78.6688 547.462 76.4251C537.37 72.8259 526.917 70.9562 516.149 70.4888C505.921 70.0213 495.874 71.6106 485.736 72.265C483.889 72.3585 482.267 72.8726 480.78 71.3769C477.672 68.2918 473.932 65.7677 471.679 61.9348C464.876 50.436 455.189 41.9288 445.097 33.8423C440.907 30.4768 437.257 26.2699 432.121 24.1197C426.715 21.8293 421.353 19.4922 416.082 16.8278C400.087 8.74128 382.786 5.93671 365.485 2.89841C363.953 1.82332 362.196 1.49612 360.394 1.40264C353.05 0.935207 345.751 0.280805 338.407 0.0470905C327.413 -0.326853 316.6 0.935207 305.922 4.11373C296.686 6.87156 287.405 9.48917 278.123 12.1068C267.716 15.0516 258.93 21.1282 249.829 26.6906C236.538 33.2346 224.373 41.5549 213.469 51.7916C211.938 53.2406 210.811 54.8766 210 56.8398C209.099 57.0268 208.468 57.5877 208.108 58.5226C207.612 58.3823 207.297 58.5226 207.162 59.0367C203.873 62.1218 201.305 65.8612 198.872 69.6941C196.574 70.0681 195.402 71.891 194.411 73.6673C191.933 78.0611 187.788 80.8657 184.769 84.6986C183.238 86.7086 181.706 85.8204 180.039 85.54C177.065 84.9791 174.091 83.9507 171.073 83.904C153.637 83.6235 136.245 83.717 119.305 89.0925C111.33 91.6633 102.769 92.8319 95.2453 96.2909C83.8014 101.573 72.4926 107.603 63.6618 117.185C58.12 123.215 51.7222 128.497 47.397 135.648C44.0629 141.211 41.1343 147.007 37.9805 152.663C36.3134 153.878 36.3134 155.654 36.5838 157.477C33.3849 162.012 33.6552 167.527 32.7992 172.622C31.042 182.672 30.6816 192.628 35.953 202.164C38.1607 206.184 39.6926 210.764 41.9904 214.831C43.8376 218.15 43.4772 220.3 39.6926 222.31C31.2222 226.751 23.8783 232.874 17.7057 240.493C10.3618 249.608 3.37827 259.003 1.30574 271.11C-2.2536 291.49 1.75629 310.841 9.91124 329.305C12.1189 334.259 14.642 339.495 18.6068 343.234C29.7354 353.658 41.5849 363.333 55.8222 368.756C63.842 371.841 71.9068 375.533 80.6475 376.001C89.9739 376.515 99.3453 376.515 108.717 376.842C124.171 377.403 137.372 371.14 150.122 362.586C153.006 366.699 152.33 372.215 155.078 376.421C158.683 381.984 159.539 389.323 165.171 393.67C169.631 403.158 177.786 409.188 185.58 415.078C189.185 417.789 192.384 422.183 197.565 422.417C197.926 423.351 198.511 423.819 199.502 423.725C200.133 425.174 201.305 425.315 202.611 425.128C204.413 426.39 206.261 427.605 208.649 427.138C211.082 428.54 213.334 430.363 216.308 430.316C221.669 432.466 227.301 432.934 232.978 433.541C241.944 434.944 250.775 434.944 259.921 433.541C281.502 430.082 301.191 421.902 319.529 409.843C320.024 409.609 320.52 409.329 321.016 409.095C321.917 409.188 322.277 408.627 322.457 407.833C323.223 407.739 323.944 407.506 324.169 406.617C329.486 403.813 329.531 403.766 333.721 408.627C337.956 413.535 342.372 418.116 348.274 420.781C350.977 425.922 355.978 427.231 360.799 428.914C362.737 431.391 365.62 431.438 368.323 431.952C372.558 434.663 377.424 434.71 382.065 435.785C393.779 438.496 404.593 436.112 414.955 430.316C418.514 428.587 422.524 428.026 425.768 425.548C435.545 419.939 444.917 413.816 452.982 405.636C457.397 401.195 460.956 396.1 464.741 391.192C466.138 389.369 467.039 389.697 468.3 391.005C472.626 403.766 481.907 411.525 493.035 417.509C496.279 421.622 500.244 424.567 505.426 425.361L505.741 425.782L506.237 425.689C507.093 427.465 508.534 427.231 510.021 426.904C518.401 430.924 527.232 433.775 536.243 435.224C552.418 437.795 566.971 430.924 580.622 423.351C591.526 417.275 601.438 409.048 609.457 398.858C610.809 397.129 611.485 396.334 613.693 397.596C624.956 404.14 637.617 406.29 649.827 409.889C654.062 412.04 658.567 413.021 663.298 412.881C679.833 416.247 695.107 411.853 709.885 404.608C716.643 404.561 720.833 399.699 725.474 395.633C728.357 394.464 731.016 392.969 733.088 390.538C733.944 390.398 734.53 389.93 734.8 389.089C737.458 388.668 738.675 386.752 739.441 384.321C742.414 382.685 744.938 380.582 746.605 377.45C758.319 360.669 763.861 342.393 759.265 321.639C759.265 318.18 760.166 314.394 759.04 311.355C756.427 304.297 760.076 299.436 763.275 294.247C763.951 293.126 764.807 292.097 765.483 291.022C773.322 278.542 776.701 264.659 777.602 249.935C778.413 248.486 778.864 247.037 777.828 245.494V245.635ZM461.046 386.705C460.956 386.378 460.956 386.004 460.821 385.677C460.866 385.583 460.911 385.536 461.001 385.49C461.001 385.91 461.091 386.331 461.046 386.705ZM325.566 387.313C325.566 387.313 325.476 387.313 325.431 387.313C325.431 387.313 325.521 387.313 325.566 387.266C325.566 387.266 325.566 387.313 325.566 387.359V387.313ZM696.504 341.551C696.504 341.551 696.278 341.691 696.143 341.785C696.008 341.505 695.873 341.224 695.647 340.897C696.053 341.131 696.368 341.318 696.729 341.504C696.639 341.504 696.549 341.504 696.458 341.504L696.504 341.551ZM706.28 217.636C706.956 217.916 707.046 218.243 706.596 218.617C706.686 218.197 706.596 217.869 706.28 217.636ZM705.199 216.701C705.199 216.701 705.379 216.841 705.469 216.935C705.379 216.841 705.289 216.794 705.154 216.748C705.154 216.748 705.154 216.748 705.199 216.748V216.701ZM694.026 318.227C694.026 318.227 693.98 318.227 693.935 318.273C693.935 318.273 693.98 318.273 694.026 318.227ZM655.819 316.03C655.999 317.245 655.413 318.04 654.467 318.6C653.836 318.974 653.296 319.395 652.845 319.816C652.665 317.993 652.26 315.936 651.764 314.207C652.935 314.908 654.287 315.515 655.864 316.03H655.819ZM711.687 363.333C711.687 363.333 711.642 362.913 711.552 362.679C711.552 362.539 711.642 362.399 711.642 362.258C711.777 362.586 711.777 362.96 711.822 363.333C711.777 363.333 711.687 363.333 711.642 363.333H711.687ZM726.195 351.367H726.06C726.06 351.367 726.15 351.367 726.195 351.367C726.195 351.367 726.195 351.414 726.195 351.461V351.367ZM735.521 339.401C735.611 339.962 735.791 340.429 735.972 340.897C735.431 340.757 734.935 340.616 734.395 340.476C734.575 339.728 735.071 339.588 735.521 339.448V339.401ZM731.782 205.296C731.917 205.576 732.007 205.81 732.052 206.137C732.052 206.371 731.962 206.651 731.917 206.838C731.827 206.932 731.737 206.978 731.646 207.072C731.737 206.604 731.782 205.997 731.782 205.296ZM602.609 220.814C603.15 220.814 603.555 220.954 603.916 221.141C603.06 221.469 602.203 221.749 601.347 222.076C601.618 221.562 601.978 221.095 602.609 220.814ZM222.886 96.805C223.111 97.1322 223.156 97.4594 222.976 97.7867C222.976 97.4594 222.976 97.1322 222.886 96.805ZM594.274 309.439C594.274 309.439 594.229 309.345 594.184 309.299C594.184 309.299 594.274 309.299 594.319 309.252C594.319 309.299 594.319 309.392 594.274 309.439ZM588.687 309.252C588.687 309.252 588.552 309.345 588.462 309.392C588.462 309.299 588.462 309.205 588.462 309.112C588.552 309.158 588.642 309.205 588.732 309.252H588.687ZM594.86 317.292C594.86 317.292 594.679 317.151 594.589 317.105C594.679 317.105 594.769 317.198 594.86 317.245V317.292ZM573.774 283.917C573.774 283.917 573.954 284.057 574.044 284.104C573.954 284.104 573.864 284.011 573.774 283.917ZM580.487 355.06V355.153C580.487 355.153 580.487 355.107 580.487 355.013C580.487 355.013 580.487 355.013 580.532 355.06H580.487ZM540.749 261.434C540.749 261.434 540.794 261.34 540.839 261.294C540.884 261.294 540.929 261.294 541.019 261.294C540.929 261.434 540.794 261.527 540.704 261.621C540.704 261.527 540.704 261.481 540.749 261.387V261.434ZM491.594 238.249C491.188 239.231 490.647 240.259 490.107 241.381C489.071 239.465 490.242 238.81 491.594 238.249ZM525.25 296.678C524.979 296.678 524.709 296.678 524.349 296.585C524.349 296.491 524.349 296.398 524.304 296.304C524.619 296.444 524.934 296.538 525.25 296.678ZM540.568 340.336C540.388 340.757 540.253 341.224 540.208 341.645C540.073 341.551 539.893 341.411 539.757 341.318C539.938 340.99 540.208 340.663 540.523 340.336H540.568ZM230.365 138.079C230.365 138.079 230.455 137.845 230.545 137.752C230.545 137.892 230.635 137.939 230.635 138.032C230.545 138.032 230.455 138.032 230.365 138.079ZM348.409 221.095C348.409 221.095 348.409 221.141 348.409 221.188C348.409 221.188 348.409 221.188 348.364 221.188C348.364 221.188 348.364 221.141 348.409 221.095ZM399.231 345.852C399.231 345.852 399.231 345.852 399.231 345.898C399.231 345.898 399.231 345.898 399.231 345.852ZM393.599 323.836C393.509 323.602 393.419 323.368 393.374 323.181C393.554 323.321 393.734 323.508 393.96 323.649C393.869 323.742 393.734 323.836 393.644 323.882L393.599 323.836ZM440.997 247.364C440.997 247.364 440.907 247.084 440.862 246.897C440.952 246.943 441.087 247.084 441.222 247.13C441.177 247.224 441.087 247.271 441.042 247.317L440.997 247.364ZM496.955 197.77C496.955 197.77 496.955 197.489 497 197.349C497.135 197.489 497.271 197.676 497.406 197.817C497.271 197.817 497.09 197.817 496.955 197.817V197.77ZM284.026 149.297C284.026 149.297 283.755 149.484 283.62 149.578C283.53 149.344 283.44 149.157 283.305 148.923C283.53 149.017 283.755 149.157 284.026 149.297ZM594.815 225.488C593.733 226.096 592.877 226.517 592.201 226.891C592.877 225.488 593.688 224.086 594.995 222.637C595.085 223.619 594.995 224.6 594.86 225.488H594.815ZM568.367 235.772C568.367 235.772 568.412 235.725 568.457 235.725C568.457 235.725 568.457 235.725 568.412 235.772H568.367ZM350.121 46.0889C350.121 46.0889 350.121 46.2759 350.121 46.3694C350.031 46.2759 349.941 46.1824 349.806 46.0422C349.851 46.0422 349.941 46.0422 349.986 46.0422C349.986 46.0422 350.031 46.0889 350.076 46.1357L350.121 46.0889ZM280.872 45.9954C280.872 45.9954 280.872 45.9954 280.872 45.9487V45.9954ZM239.241 78.1078C239.241 78.1078 239.241 77.9209 239.241 77.8274C239.376 77.8274 239.511 77.8741 239.646 77.9209C239.511 78.0144 239.421 78.0611 239.286 78.1078H239.241ZM166.207 117.138C166.207 117.138 166.207 117.138 166.207 117.091C166.207 117.091 166.207 117.091 166.252 117.091L166.207 117.138ZM247.216 376.235C247.216 376.235 247.306 376.235 247.351 376.235C247.351 376.235 247.351 376.281 247.351 376.328C247.351 376.328 247.351 376.328 247.306 376.328C247.306 376.328 247.216 376.328 247.171 376.235C247.216 376.235 247.171 376.235 247.261 376.235H247.216ZM399.727 426.717C399.727 426.717 399.682 426.53 399.637 426.437C399.682 426.437 399.727 426.437 399.772 426.437C399.772 426.53 399.772 426.577 399.727 426.67V426.717ZM460.776 385.677C460.776 385.677 460.776 385.677 460.821 385.677H460.776ZM570.935 151.588C570.935 151.588 570.71 151.635 570.575 151.588C570.485 151.494 570.395 151.401 570.305 151.307C570.53 151.354 570.71 151.494 570.89 151.541L570.935 151.588ZM177.966 132.376C177.966 132.376 178.282 132.61 178.417 132.75C178.282 132.61 178.101 132.47 177.966 132.376ZM171.749 93.6265C171.749 93.6265 171.749 93.533 171.749 93.4863C171.749 93.4863 171.839 93.4863 171.884 93.533C171.884 93.533 171.839 93.5798 171.794 93.6265H171.749ZM171.478 93.8602C171.478 93.8602 171.388 93.907 171.343 93.9537C171.343 93.907 171.343 93.8602 171.343 93.8135C171.388 93.8135 171.433 93.8135 171.478 93.8602ZM165.08 111.342C165.08 111.342 164.9 111.295 164.765 111.249C164.765 111.249 164.765 111.015 164.765 110.734C164.855 110.921 164.99 111.108 165.126 111.295L165.08 111.342ZM137.462 316.31C137.462 316.31 137.191 316.076 137.056 315.983C137.191 316.076 137.327 316.217 137.462 316.31ZM146.923 320.844C146.923 320.844 146.923 320.938 146.923 320.984C146.923 320.984 146.833 320.938 146.788 320.891C146.833 320.891 146.878 320.891 146.923 320.844ZM118.358 137.051C118.358 137.705 118.494 138.36 118.584 139.014C118.133 138.547 117.953 137.612 118.358 137.051ZM206.891 410.217C206.982 409.936 206.982 409.656 207.072 409.422C207.207 409.562 207.342 409.749 207.477 409.843C207.297 409.983 207.117 410.076 206.891 410.217ZM243.882 426.109H243.791C244.017 425.782 244.242 425.455 244.422 425.081C244.512 425.548 244.287 426.063 243.882 426.063V426.109ZM290.108 394.792C290.333 395.446 290.649 396.194 291.009 396.942C290.378 396.521 290.153 395.726 290.108 394.792ZM522.637 395.212H522.727C522.727 395.212 522.727 395.259 522.727 395.306C522.682 395.306 522.727 395.212 522.637 395.212ZM710.245 402.691C710.561 401.943 711.056 401.336 711.642 400.962C711.372 401.569 710.921 402.177 710.245 402.691Z" fill="white"/>
</g>
<defs>
<clipPath id="clip0_3497_36541">
<rect width="779" height="437" fill="white"/>
</clipPath>
</defs>
</svg>
