<svg width="97" height="75" viewBox="0 0 97 75" fill="none" xmlns="http://www.w3.org/2000/svg">
<g clip-path="url(#clip0_1988_32047)">
<path d="M83.859 53.9404C85.199 56.3704 87.189 57.9904 89.399 59.2404C91.519 60.4404 93.359 61.9004 95.019 63.6404C95.399 64.0404 95.759 64.4904 96.009 64.9804C97.129 67.1304 96.679 68.4804 94.419 69.3004C92.489 70.0004 90.559 70.8604 88.399 70.0404C87.829 69.8304 87.129 69.8804 86.499 69.9604C81.549 70.6104 77.049 69.1604 72.719 67.0104C71.769 66.5404 70.929 66.5104 69.979 66.8804C67.549 67.8404 65.139 68.8904 62.649 69.6704C58.709 70.9004 54.739 72.0604 50.729 73.0204C48.509 73.5504 46.159 73.5004 43.899 73.9104C41.279 74.3804 38.699 74.3404 36.049 74.2604C32.259 74.1404 28.629 73.3504 24.979 72.5304C21.589 71.7604 18.689 69.8904 15.569 68.5104C14.509 68.0504 13.679 67.0704 12.749 66.3304C12.129 65.8304 11.579 65.2304 10.899 64.8304C7.17904 62.5904 4.97904 59.1204 3.20904 55.3204C2.58904 53.9704 2.26904 52.4504 1.49904 51.2104C0.339036 49.3304 0.369036 47.2304 0.0890361 45.2104C-0.120964 43.7304 0.0290361 42.1704 0.249036 40.6804C0.749036 37.4004 1.58904 34.2204 2.88904 31.1104C4.14904 28.1104 5.74904 25.3204 7.49904 22.6604C9.58904 19.4804 12.179 16.6604 15.399 14.4504C16.729 13.5404 18.049 12.5704 19.239 11.3804C20.599 10.0104 22.539 9.18036 24.289 8.25036C25.969 7.36036 27.739 6.65036 29.459 5.84036C30.529 5.34036 31.539 4.70036 32.639 4.27036C35.819 3.04036 39.019 1.89036 42.229 0.730358C42.749 0.540358 43.309 0.440358 43.869 0.390358C49.969 -0.199642 55.979 -0.139642 62.079 1.04036C65.949 1.79036 69.589 3.05036 73.199 4.42036C75.389 5.25036 77.379 6.73036 79.269 8.16036C81.079 9.53036 82.579 11.3004 84.349 12.7304C86.039 14.1004 87.039 15.8404 87.629 17.8604C88.589 21.1304 89.529 24.4104 90.429 27.7004C91.469 31.4904 90.969 35.2604 90.129 39.0104C89.849 40.2504 89.609 41.5004 89.389 42.7504C88.809 46.1504 86.129 51.7104 83.849 53.9604L83.859 53.9404ZM92.149 65.7504C89.929 64.0604 88.079 62.7404 86.349 61.2804C84.529 59.7504 82.639 58.2304 81.109 56.4304C79.319 54.3404 79.589 52.4304 81.469 50.3704C81.889 49.9104 82.469 49.5004 82.689 48.9504C83.639 46.5504 85.319 44.4604 85.519 41.7404C85.599 40.5704 86.109 39.4404 86.339 38.2704C86.809 35.9604 87.549 33.6704 86.879 31.2504C86.279 29.1004 85.569 26.9504 85.279 24.7504C85.009 22.6704 84.229 20.7904 83.339 19.0204C81.479 15.3304 78.519 12.5404 75.049 10.3304C71.979 8.37036 68.879 6.46036 65.179 5.88036C63.849 5.67036 62.539 5.35036 61.219 5.06036C57.409 4.22036 53.539 3.78036 49.669 4.10036C45.399 4.46036 41.139 5.15036 37.129 6.78036C34.119 8.01036 31.069 9.19036 28.219 10.7204C23.859 13.0604 19.859 15.9804 16.099 19.2104C15.499 19.7204 14.779 20.1404 14.299 20.7504C12.509 23.0204 10.449 25.0604 9.13904 27.7404C6.90904 32.2504 4.57904 36.6904 4.37904 41.8604C4.29904 43.9104 4.13904 46.0304 4.51904 48.0204C5.21904 51.6404 6.97904 54.8904 8.83904 58.0604C9.18904 58.6604 9.67904 59.2204 10.209 59.6704C12.829 61.8804 15.439 64.1004 18.149 66.2004C19.069 66.9104 20.219 67.4104 21.349 67.7604C23.399 68.4004 25.529 68.7504 27.579 69.4004C30.189 70.2304 32.889 70.3004 35.549 70.3304C38.239 70.3704 40.949 70.1104 43.639 69.8404C47.989 69.4004 52.229 68.4004 56.389 67.0104C59.399 66.0104 62.479 65.2604 65.499 64.3104C67.089 63.8104 68.679 63.2204 70.139 62.4404C71.289 61.8304 72.209 61.8604 73.249 62.5604C74.169 63.1804 75.109 63.8204 76.119 64.2504C80.699 66.1804 85.529 66.3204 90.399 66.1104C90.789 66.0904 91.169 65.9604 92.149 65.7504Z" fill="#1D3D6C"/>
<path d="M53.5693 18.9598C57.5693 18.3198 59.4093 19.4898 61.2393 23.2098C63.0593 26.8898 63.2393 30.5698 62.5593 34.5698C62.1993 36.7398 62.0293 38.9298 61.4293 41.0698C60.5193 44.2498 59.1093 47.1298 56.9393 49.6398C55.7493 51.0098 54.6793 52.5098 53.6893 54.0298C53.2393 54.7298 53.1293 55.6498 52.7993 56.5898C51.6593 57.0098 50.4593 56.9198 49.2193 56.4198C45.4393 54.8898 42.0193 52.8498 38.8093 50.3098C36.1993 48.2598 33.9993 45.8398 32.1093 43.2598C28.9893 39.0098 27.3893 33.9898 28.8993 28.7998C30.4193 23.5398 35.8593 22.0298 40.6693 25.4698C41.4293 26.0198 42.1093 26.6998 42.9293 27.3998C43.2993 26.8398 43.7393 26.4198 43.8693 25.9298C44.8893 22.1198 47.9493 20.6398 51.2393 19.4698C51.9793 19.1998 52.7893 19.0898 53.5793 18.9598H53.5693ZM58.8693 27.6498C58.2393 23.8698 55.8193 22.1598 52.4993 23.4398C50.2593 24.3098 47.8893 25.2098 47.1493 28.0798C46.6793 29.8698 46.2293 31.5998 46.4693 33.4698C46.6393 34.7198 45.8693 35.3998 44.8193 35.7798C43.8093 36.1498 42.8193 35.6898 42.2393 34.6298C41.9293 34.0798 41.7093 33.4698 41.5593 33.1098C40.2493 31.2398 39.4693 29.3198 37.3693 28.3898C35.4693 27.5498 33.9693 27.9198 33.0693 29.7698C32.2993 31.3698 32.2993 32.9398 32.7093 34.6498C33.6593 38.6298 35.7793 41.9498 38.4293 44.9498C41.1293 47.9898 44.4193 50.3098 48.0893 52.0598C49.4193 52.6998 50.2293 52.3798 51.2393 50.9398C52.0493 49.7698 52.9193 48.6198 53.7093 47.4398C54.9793 45.5298 56.6093 43.7498 57.3993 41.6498C59.0693 37.1598 59.6593 32.4398 58.8693 27.6398V27.6498Z" fill="#1D3D6C"/>
<path d="M52.5001 23.4498C55.8101 22.1698 58.2401 23.8798 58.8701 27.6598C59.6601 32.4598 59.0701 37.1798 57.4001 41.6698C56.6101 43.7698 54.9801 45.5498 53.7101 47.4598C52.9201 48.6498 52.0501 49.7898 51.2401 50.9598C50.2301 52.3998 49.4101 52.7198 48.0901 52.0798C44.4101 50.3198 41.1301 48.0098 38.4301 44.9698C35.7801 41.9698 33.6601 38.6498 32.7101 34.6698C32.3101 32.9598 32.3001 31.3798 33.0701 29.7898C33.9701 27.9398 35.4701 27.5598 37.3701 28.4098C39.4701 29.3298 40.2501 31.2598 41.5601 33.1298C41.7101 33.4898 41.9401 34.0998 42.2401 34.6498C42.8301 35.7098 43.8101 36.1698 44.8201 35.7998C45.8801 35.4198 46.6401 34.7398 46.4701 33.4898C46.2201 31.6298 46.6801 29.8998 47.1501 28.0998C47.8901 25.2298 50.2601 24.3198 52.5001 23.4598V23.4498Z" fill="#FFC7BB"/>
</g>
<defs>
<clipPath id="clip0_1988_32047">
<rect width="96.6" height="74.31" fill="white"/>
</clipPath>
</defs>
</svg>
