<svg width="516" height="129" viewBox="0 0 516 129" fill="none" xmlns="http://www.w3.org/2000/svg">
<g clip-path="url(#clip0_3497_34562)">
<path d="M83.859 53.9404C85.199 56.3704 87.189 57.9904 89.399 59.2404C91.519 60.4404 93.359 61.9004 95.019 63.6404C95.399 64.0404 95.759 64.4904 96.009 64.9804C97.129 67.1304 96.679 68.4804 94.419 69.3004C92.489 70.0004 90.559 70.8604 88.399 70.0404C87.829 69.8304 87.129 69.8804 86.499 69.9604C81.549 70.6104 77.049 69.1604 72.719 67.0104C71.769 66.5404 70.929 66.5104 69.979 66.8804C67.549 67.8404 65.139 68.8904 62.649 69.6704C58.709 70.9004 54.739 72.0604 50.729 73.0204C48.509 73.5504 46.159 73.5004 43.899 73.9104C41.279 74.3804 38.699 74.3404 36.049 74.2604C32.259 74.1404 28.629 73.3504 24.979 72.5304C21.589 71.7604 18.689 69.8904 15.569 68.5104C14.509 68.0504 13.679 67.0704 12.749 66.3304C12.129 65.8304 11.579 65.2304 10.899 64.8304C7.17904 62.5904 4.97904 59.1204 3.20904 55.3204C2.58904 53.9704 2.26904 52.4504 1.49904 51.2104C0.339036 49.3304 0.369036 47.2304 0.0890361 45.2104C-0.120964 43.7304 0.0290361 42.1704 0.249036 40.6804C0.749036 37.4004 1.58904 34.2204 2.88904 31.1104C4.14904 28.1104 5.74904 25.3204 7.49904 22.6604C9.58904 19.4804 12.179 16.6604 15.399 14.4504C16.729 13.5404 18.049 12.5704 19.239 11.3804C20.599 10.0104 22.539 9.18036 24.289 8.25036C25.969 7.36036 27.739 6.65036 29.459 5.84036C30.529 5.34036 31.539 4.70036 32.639 4.27036C35.819 3.04036 39.019 1.89036 42.229 0.730358C42.749 0.540358 43.309 0.440358 43.869 0.390358C49.969 -0.199642 55.979 -0.139642 62.079 1.04036C65.949 1.79036 69.589 3.05036 73.199 4.42036C75.389 5.25036 77.379 6.73036 79.269 8.16036C81.079 9.53036 82.579 11.3004 84.349 12.7304C86.039 14.1004 87.039 15.8404 87.629 17.8604C88.589 21.1304 89.529 24.4104 90.429 27.7004C91.469 31.4904 90.969 35.2604 90.129 39.0104C89.849 40.2504 89.609 41.5004 89.389 42.7504C88.809 46.1504 86.129 51.7104 83.849 53.9604L83.859 53.9404ZM92.149 65.7504C89.929 64.0604 88.079 62.7404 86.349 61.2804C84.529 59.7504 82.639 58.2304 81.109 56.4304C79.319 54.3404 79.589 52.4304 81.469 50.3704C81.889 49.9104 82.469 49.5004 82.689 48.9504C83.639 46.5504 85.319 44.4604 85.519 41.7404C85.599 40.5704 86.109 39.4404 86.339 38.2704C86.809 35.9604 87.549 33.6704 86.879 31.2504C86.279 29.1004 85.569 26.9504 85.279 24.7504C85.009 22.6704 84.229 20.7904 83.339 19.0204C81.479 15.3304 78.519 12.5404 75.049 10.3304C71.979 8.37036 68.879 6.46036 65.179 5.88036C63.849 5.67036 62.539 5.35036 61.219 5.06036C57.409 4.22036 53.539 3.78036 49.669 4.10036C45.399 4.46036 41.139 5.15036 37.129 6.78036C34.119 8.01036 31.069 9.19036 28.219 10.7204C23.859 13.0604 19.859 15.9804 16.099 19.2104C15.499 19.7204 14.779 20.1404 14.299 20.7504C12.509 23.0204 10.449 25.0604 9.13904 27.7404C6.90904 32.2504 4.57904 36.6904 4.37904 41.8604C4.29904 43.9104 4.13904 46.0304 4.51904 48.0204C5.21904 51.6404 6.97904 54.8904 8.83904 58.0604C9.18904 58.6604 9.67904 59.2204 10.209 59.6704C12.829 61.8804 15.439 64.1004 18.149 66.2004C19.069 66.9104 20.219 67.4104 21.349 67.7604C23.399 68.4004 25.529 68.7504 27.579 69.4004C30.189 70.2304 32.889 70.3004 35.549 70.3304C38.239 70.3704 40.949 70.1104 43.639 69.8404C47.989 69.4004 52.229 68.4004 56.389 67.0104C59.399 66.0104 62.479 65.2604 65.499 64.3104C67.089 63.8104 68.679 63.2204 70.139 62.4404C71.289 61.8304 72.209 61.8604 73.249 62.5604C74.169 63.1804 75.109 63.8204 76.119 64.2504C80.699 66.1804 85.529 66.3204 90.399 66.1104C90.789 66.0904 91.169 65.9604 92.149 65.7504Z" fill="#1D3D6C"/>
<path d="M53.5693 18.9598C57.5693 18.3198 59.4093 19.4898 61.2393 23.2098C63.0593 26.8898 63.2393 30.5698 62.5593 34.5698C62.1993 36.7398 62.0293 38.9298 61.4293 41.0698C60.5193 44.2498 59.1093 47.1298 56.9393 49.6398C55.7493 51.0098 54.6793 52.5098 53.6893 54.0298C53.2393 54.7298 53.1293 55.6498 52.7993 56.5898C51.6593 57.0098 50.4593 56.9198 49.2193 56.4198C45.4393 54.8898 42.0193 52.8498 38.8093 50.3098C36.1993 48.2598 33.9993 45.8398 32.1093 43.2598C28.9893 39.0098 27.3893 33.9898 28.8993 28.7998C30.4193 23.5398 35.8593 22.0298 40.6693 25.4698C41.4293 26.0198 42.1093 26.6998 42.9293 27.3998C43.2993 26.8398 43.7393 26.4198 43.8693 25.9298C44.8893 22.1198 47.9493 20.6398 51.2393 19.4698C51.9793 19.1998 52.7893 19.0898 53.5793 18.9598H53.5693ZM58.8693 27.6498C58.2393 23.8698 55.8193 22.1598 52.4993 23.4398C50.2593 24.3098 47.8893 25.2098 47.1493 28.0798C46.6793 29.8698 46.2293 31.5998 46.4693 33.4698C46.6393 34.7198 45.8693 35.3998 44.8193 35.7798C43.8093 36.1498 42.8193 35.6898 42.2393 34.6298C41.9293 34.0798 41.7093 33.4698 41.5593 33.1098C40.2493 31.2398 39.4693 29.3198 37.3693 28.3898C35.4693 27.5498 33.9693 27.9198 33.0693 29.7698C32.2993 31.3698 32.2993 32.9398 32.7093 34.6498C33.6593 38.6298 35.7793 41.9498 38.4293 44.9498C41.1293 47.9898 44.4193 50.3098 48.0893 52.0598C49.4193 52.6998 50.2293 52.3798 51.2393 50.9398C52.0493 49.7698 52.9193 48.6198 53.7093 47.4398C54.9793 45.5298 56.6093 43.7498 57.3993 41.6498C59.0693 37.1598 59.6593 32.4398 58.8693 27.6398V27.6498Z" fill="#1D3D6C"/>
<path d="M52.5001 23.4498C55.8101 22.1698 58.2401 23.8798 58.8701 27.6598C59.6601 32.4598 59.0701 37.1798 57.4001 41.6698C56.6101 43.7698 54.9801 45.5498 53.7101 47.4598C52.9201 48.6498 52.0501 49.7898 51.2401 50.9598C50.2301 52.3998 49.4101 52.7198 48.0901 52.0798C44.4101 50.3198 41.1301 48.0098 38.4301 44.9698C35.7801 41.9698 33.6601 38.6498 32.7101 34.6698C32.3101 32.9598 32.3001 31.3798 33.0701 29.7898C33.9701 27.9398 35.4701 27.5598 37.3701 28.4098C39.4701 29.3298 40.2501 31.2598 41.5601 33.1298C41.7101 33.4898 41.9401 34.0998 42.2401 34.6498C42.8301 35.7098 43.8101 36.1698 44.8201 35.7998C45.8801 35.4198 46.6401 34.7398 46.4701 33.4898C46.2201 31.6298 46.6801 29.8998 47.1501 28.0998C47.8901 25.2298 50.2601 24.3198 52.5001 23.4598V23.4498Z" fill="#FFC7BB"/>
</g>
<path d="M511.512 114.528C511.512 114.528 262.138 127.549 142.721 117.542C150.371 103.312 177.777 76.692 177.743 75.3075C177.743 74.2385 151.731 50.8955 142.721 37.857C255.677 39.8899 399.338 44.7618 511.512 34.8428C502.195 48.4245 484.956 59.3424 474.517 72.6963C491.757 88.1532 511.512 114.528 511.512 114.528Z" fill="#1D3D6C"/>
<path d="M511.784 114.615C510.798 114.72 509.71 114.825 508.655 114.878L505.799 115.053L500.053 115.421L488.56 116.087L465.574 117.331C450.239 118.137 434.904 118.786 419.535 119.417C388.831 120.748 358.024 121.59 327.218 122.185C311.815 122.536 296.378 122.711 280.974 122.799C265.537 122.746 250.134 122.834 234.697 122.518C203.857 121.888 172.982 120.959 142.482 118.242L140.884 118.102L141.36 117.331C145.542 110.269 151.289 103.557 157.137 96.9147L175.193 77.0942C175.567 76.6736 175.873 76.2705 176.213 75.8674C176.553 75.4118 176.689 75.3066 176.349 75.0087C175.635 74.2201 174.819 73.3964 174.003 72.5903L169.038 67.7535L159.109 58.0622C152.581 51.5956 146.086 45.0939 140.952 38.1716L140 36.8748L142.788 36.9098C173.595 37.2428 204.367 37.7335 235.139 38.1891C265.911 38.6097 296.65 39.0303 327.388 39.0478C358.126 39.0303 388.865 38.8726 419.501 38.0489C427.151 37.8562 434.802 37.5407 442.452 37.2954C450.103 37.015 457.72 36.6119 465.37 36.2614C472.987 35.8759 480.603 35.4027 488.22 34.9821L510.968 33.3172L516 32.9492L514.3 35.3501C509.506 42.1673 502.603 48.4236 495.666 54.5398C488.73 60.6384 481.623 66.6494 476.387 73.0985L476.251 72.1872C483.426 78.9868 489.682 85.9617 495.462 93.0417C498.353 96.5817 501.141 100.139 503.861 103.714L507.873 109.077L509.846 111.776L510.832 113.125L511.308 113.809L511.546 114.142C511.648 114.264 511.75 114.492 511.75 114.632L511.784 114.615ZM511.206 114.44C511.206 114.44 510.968 114.369 510.9 114.264L510.628 113.931L510.084 113.265L508.995 111.933L506.819 109.287L502.365 104.012C499.339 100.507 496.279 97.0199 493.082 93.5675C486.69 86.6627 480.229 79.7579 472.715 73.2037L472.239 72.7655L472.613 72.2749C477.645 65.5804 484.446 59.324 491.144 53.1728C497.843 47.0216 504.337 40.8529 508.689 34.2986L512.022 36.3315L489.104 38.2242C481.419 38.7149 473.769 39.2932 466.084 39.7313C458.4 40.0818 450.715 40.5199 442.997 40.8179C435.278 41.0807 427.593 41.3962 419.875 41.624C389.035 42.5178 358.16 42.8157 327.32 42.5879C296.48 42.3776 265.673 41.8869 234.901 41.1683C204.129 40.4849 173.39 39.5736 142.652 38.785L144.454 37.5057C149.147 44.3053 155.335 50.8771 161.524 57.4314C164.652 60.7085 167.916 63.9331 171.18 67.1751L176.077 72.047C176.893 72.8707 177.675 73.6768 178.423 74.5356C178.559 74.7809 179.001 75.1664 178.797 75.4644C178.661 75.7798 178.457 76.0953 178.287 76.2705C177.947 76.7086 177.573 77.1467 177.199 77.5498C174.207 80.8795 171.078 84.1391 168.018 87.4338C164.992 90.7285 162.034 94.0407 159.177 97.3704C153.499 104.03 147.855 110.759 144.08 117.699L142.924 116.77C173.322 118.996 204.129 119.487 234.799 119.662C250.168 119.837 265.537 119.732 280.906 119.697C296.276 119.469 311.645 119.487 327.014 119.206C357.752 118.803 388.491 117.997 419.229 117.226L465.336 115.859L488.39 115.123L499.917 114.72L505.663 114.527L508.553 114.422C509.403 114.387 510.22 114.404 511.172 114.404L511.206 114.44Z" fill="white"/>
<path d="M302.735 128.145C221.095 128.145 155.266 126.024 154.042 125.972C152.172 125.902 150.744 125.078 150.88 124.114C151.016 123.15 152.512 122.432 154.484 122.484C156.694 122.555 375.875 129.635 510.899 117.788C512.769 117.63 514.503 118.261 514.809 119.225C515.115 120.171 513.891 121.082 512.021 121.24C450.17 126.655 370.91 128.145 302.701 128.145H302.735Z" fill="#1D3D6C"/>
<path d="M302.737 38.3813C221.096 38.3813 155.268 36.2608 154.077 36.2082C152.207 36.1381 150.779 35.3144 150.915 34.3506C151.051 33.3867 152.547 32.6682 154.519 32.7208C156.73 32.7909 375.876 39.8709 510.934 28.0241C512.804 27.8664 514.538 28.4973 514.844 29.4612C515.15 30.425 513.926 31.3188 512.056 31.4765C450.205 36.8917 370.946 38.3813 302.703 38.3813H302.737Z" fill="#1D3D6C"/>
<path d="M247.824 85.6H268.688V88.576H247.824V85.6ZM248.656 80.448H270.128V83.616H248.656V80.448ZM243.888 90.752H272.208V94.048H243.888V90.752ZM256.112 78.496H260.112V93.056H256.112V78.496ZM250.736 73.28V74.976H264.944V73.28H250.736ZM250.736 68.864V70.56H264.944V68.864H250.736ZM246.992 65.952H268.944V77.92H246.992V65.952ZM248.624 77.6L252.4 78.688C250.96 81.792 248.56 84.896 246.352 86.848C245.616 86.144 244.048 84.992 243.152 84.448C245.36 82.784 247.472 80.192 248.624 77.6ZM302.704 71.2L306.928 72.768C305.552 75.904 303.856 79.456 302.512 81.728L299.152 80.32C300.432 77.856 301.936 74.08 302.704 71.2ZM291.056 65.088H295.376C295.248 77.216 295.216 89.152 281.008 94.944C280.496 93.92 279.344 92.48 278.288 91.68C291.664 86.592 290.96 76.288 291.056 65.088ZM294.512 76.768C296.304 84.16 300.24 89.184 308.208 91.008C307.376 91.872 306.192 93.536 305.68 94.624C297.072 92.16 293.232 86.4 291.024 77.408L294.512 76.768ZM279.888 71.872L283.696 70.56C284.784 73.632 286.224 77.696 286.832 80.16L282.736 81.792C282.224 79.264 280.944 75.072 279.888 71.872ZM334.48 79.008H338.192V90.24C338.192 91.296 338.288 91.488 338.736 91.488C338.896 91.488 339.632 91.488 339.824 91.488C340.336 91.488 340.464 90.752 340.528 87.104C341.264 87.744 342.768 88.32 343.728 88.576C343.44 93.28 342.608 94.656 340.208 94.656C339.664 94.656 338.512 94.656 338 94.656C335.12 94.656 334.48 93.568 334.48 90.272V79.008ZM329.52 70.24V76.896H338V70.24H329.52ZM325.904 66.816H341.808V80.32H325.904V66.816ZM328.976 79.04H332.72C332.4 86.4 331.504 91.904 325.072 95.072C324.592 94.112 323.536 92.672 322.704 91.968C328.272 89.472 328.752 85.12 328.976 79.04ZM313.808 70.176H323.056V73.632H313.808V70.176ZM317.936 81.056L321.616 76.672V94.848H317.936V81.056ZM321.424 77.728C322.352 78.496 325.456 81.632 326.192 82.4L323.824 85.536C322.768 83.872 320.464 80.96 319.28 79.616L321.424 77.728ZM321.744 70.176H322.544L323.216 70.048L325.232 71.488C323.152 77.504 318.864 83.136 314.608 86.176C314.384 85.056 313.584 82.912 313.104 82.144C316.816 79.84 320.336 75.264 321.744 70.88V70.176ZM316.56 66.752L319.472 64.96C320.592 66.176 321.808 67.84 322.352 68.992L319.28 71.04C318.8 69.856 317.616 68.032 316.56 66.752ZM351.152 66.272L354.192 64.96C355.12 66.432 356.24 68.32 356.752 69.536L353.68 71.072C353.168 69.824 352.048 67.776 351.152 66.272ZM367.408 82.08H370.832V92.736H367.408V82.08ZM365.712 73.632V75.904H372.88V73.632H365.712ZM362.32 70.72H376.432V78.816H362.32V70.72ZM360.688 80.224H377.808V94.816H374.128V83.296H364.24V94.848H360.688V80.224ZM362.736 85.44H376.048V88.288H362.736V85.44ZM362.768 90.496H376.08V93.568H362.768V90.496ZM360.528 66.176H377.936V69.408H360.528V66.176ZM349.168 70.752H358.736V74.208H349.168V70.752ZM357.104 78.24C358 78.816 360.784 81.28 361.456 81.92L359.216 84.992C358.224 83.616 356.048 81.216 354.96 80.064L357.104 78.24ZM357.328 70.752H358.096L358.736 70.624L360.848 71.968C358.64 78.176 354.192 83.84 349.776 86.88C349.456 85.856 348.528 83.936 347.952 83.232C351.952 80.832 355.76 76.128 357.328 71.456V70.752ZM353.008 81.696L356.752 77.184V94.88H353.008V81.696ZM384.304 70.432H397.2V73.952H384.304V70.432ZM384.048 88.192C387.248 87.648 392.016 86.624 396.496 85.632L396.848 89.152C392.72 90.176 388.304 91.2 384.88 92L384.048 88.192ZM385.392 75.68L388.336 75.104C389.008 78.496 389.584 82.784 389.776 85.728L386.64 86.336C386.544 83.424 385.968 79.04 385.392 75.68ZM392.528 74.848L396.08 75.456C395.376 79.552 394.352 84.576 393.456 87.68L390.672 87.072C391.472 83.84 392.208 78.624 392.528 74.848ZM387.92 65.92L391.216 64.96C392.08 66.4 392.944 68.32 393.296 69.6L389.84 70.72C389.52 69.44 388.688 67.392 387.92 65.92ZM404.464 70.72H413.776V74.368H404.464V70.72ZM399.12 89.76H410.576V93.344H399.12V89.76ZM402.352 64.8H406.32V81.472H402.352V64.8ZM397.424 79.904H412.656V94.72H408.752V83.488H401.136V94.848H397.424V79.904Z" fill="white"/>
<defs>
<clipPath id="clip0_3497_34562">
<rect width="96.6" height="74.31" fill="white"/>
</clipPath>
</defs>
</svg>
