<svg width="39" height="42" viewBox="0 0 39 42" fill="none" xmlns="http://www.w3.org/2000/svg">
<path d="M23.2635 15.65C23.3476 15.448 23.3838 15.326 23.5826 15.2273C24.2153 14.9124 24.9143 14.9621 25.5675 14.778C26.0138 14.6523 26.4731 14.5674 26.9307 14.4887C27.2184 14.4398 27.5124 14.4209 27.8057 14.4095C27.9312 14.4052 28.0012 14.4802 28.0004 14.6359C27.9997 14.775 28.0612 14.9182 28.1068 15.0537C28.1198 15.0944 28.1887 15.1541 28.2123 15.1459C28.5042 15.0489 28.5967 15.2319 28.7119 15.4475C28.816 15.6443 28.9885 15.8024 29.1179 15.9873C29.5605 16.6184 29.8462 17.3366 30.2284 18.0019C30.3737 18.2534 30.5203 18.5036 30.6522 18.7615C30.8189 19.0889 30.9734 19.4241 31.1295 19.7557C31.2093 19.9235 31.2785 20.0955 31.3557 20.2631C31.5167 20.6117 31.7095 20.9477 31.8376 21.3074C32.1552 22.2007 32.4265 23.1117 32.7506 24.0043C32.8944 24.4024 32.8077 24.7804 32.7639 25.1646C32.7366 25.4035 32.5569 25.4886 32.3294 25.3602C31.8975 25.1169 31.4826 24.8687 31.1886 24.4204C30.9622 24.0751 30.5897 23.8242 30.2794 23.5328C30.1378 23.4004 29.9742 23.2865 29.8532 23.1368C29.4211 22.6049 28.9152 22.156 28.3793 21.73C28.0916 21.5018 27.8511 21.2152 27.5708 20.9762C27.099 20.5762 26.6145 20.1892 26.1299 19.8046C26.0606 19.7501 25.9616 19.6993 25.8771 19.7021C25.5688 19.7096 25.261 19.7401 24.9244 19.7643C25.0315 20.1604 25.1598 20.5763 25.2542 20.9995C25.2975 21.191 25.2768 21.3985 25.2863 21.6253C25.533 21.8409 25.8352 22.064 26.0887 22.3325C26.4613 22.729 26.8409 23.1311 27.0417 23.653C27.0709 23.727 27.0745 23.8766 27.0354 23.9C26.8805 23.9924 26.8159 24.0162 26.903 24.26C27.0063 24.5537 26.8993 24.9158 26.6469 25.1746C26.3231 25.505 26.05 25.8679 25.7724 26.2394C25.3431 26.8133 24.8845 27.414 24.3052 27.8344C23.7463 28.24 23.3651 28.8181 22.7907 29.1968C22.6376 29.297 22.5608 29.5048 22.424 29.6384C22.1798 29.8761 21.925 29.8692 21.7764 29.583C21.6554 29.3464 21.4716 29.2001 21.3013 29.0167C21.1053 28.8055 21.025 28.4832 20.9064 28.2047C20.8681 28.1171 20.876 28.0118 20.8497 27.9189C20.6612 27.2718 20.5536 27.1743 19.8785 27.0105C19.386 26.8909 18.9524 26.6818 18.6524 26.2433C18.6152 26.1877 18.5824 26.0227 18.4025 26.0656C18.3477 26.0787 18.2466 25.8912 18.1403 25.7644C18.05 25.9505 17.9564 26.13 17.8727 26.3129C17.7904 26.4946 17.7779 26.6531 17.8691 26.8654C18.0102 27.193 18.1357 27.5385 18.102 27.9236C18.0865 28.101 18.1988 28.2908 18.2568 28.4746C18.3846 28.8815 18.5099 29.2883 18.6457 29.6908C18.7574 30.0197 18.9047 30.3351 19.0032 30.668C19.2494 31.5015 19.4747 32.3408 19.7118 33.1773C19.8015 33.4941 19.8899 33.812 19.9966 34.1239C20.1257 34.5016 20.2743 34.8746 20.4126 35.2492C20.517 35.5303 20.3403 35.7255 20.2118 35.9108C19.9656 35.8356 19.7229 35.7787 19.4923 35.6857C18.973 35.4782 18.3786 34.9768 17.9315 34.4551C17.6674 34.1461 17.3538 33.8786 17.0762 33.5786C16.7637 33.2398 16.4339 32.8943 16.1989 32.5163C15.7502 31.7941 15.143 31.2048 14.6603 30.5204C14.0775 29.6971 13.5438 28.8372 12.9937 27.9886C12.9093 27.86 12.7134 27.6909 13.0475 27.6078C13.0528 27.6057 13.0551 27.5357 13.0382 27.51C12.8761 27.2609 12.9913 26.9812 13.0901 26.7996C13.2833 26.445 13.3402 26.0708 13.4343 25.6961C13.6447 24.8668 13.8814 24.0437 14.1204 23.2233C14.1701 23.0502 14.1484 22.9181 14.0345 22.7907C14.0077 22.7615 13.9808 22.7324 13.9552 22.7046C13.5441 22.2231 13.0956 21.7754 12.722 21.2601C12.5124 20.9711 12.1985 20.765 12.0247 20.4319C11.7887 19.9772 11.4348 19.5862 11.3926 19.0323C11.3822 18.8884 11.2042 18.749 11.0889 18.6228C10.9992 18.5243 10.8468 18.4714 10.7861 18.3626C10.5699 17.9735 10.3793 17.57 10.182 17.1698C10.0183 16.8376 9.84396 16.5096 9.70924 16.1671C9.61214 15.9199 9.57048 15.652 9.50628 15.3936C9.50138 15.3766 9.51626 15.3524 9.50999 15.3365C9.3543 14.8544 9.22505 14.3618 9.02842 13.8952C8.90909 13.6103 8.77758 13.3333 8.76871 13.0261C8.74729 12.2787 8.47037 11.5625 8.53021 10.8056C8.5916 10.031 8.54061 9.25677 8.51012 8.48175C8.4823 7.7491 8.58918 7.00908 8.66107 6.27494C8.69468 5.93448 8.87519 5.72431 9.25751 5.6735C9.55973 5.63356 9.85052 5.41774 10.1437 5.42296C10.4152 5.42757 10.7069 5.55138 10.9753 5.63614C11.5045 5.80244 11.9997 6.08192 12.5043 6.32523C12.6783 6.40938 12.8286 6.54381 13.0055 6.62311C13.1628 6.69304 13.3558 6.69079 13.4037 6.91584C13.4119 6.95358 13.4869 6.98694 13.5367 7.00151C14.1046 7.16354 14.4989 7.58867 14.9663 7.90786C15.3001 8.13494 15.6123 8.38949 15.946 8.61657C16.6209 9.07391 17.2784 9.55525 17.9402 10.0306C18.2069 10.2224 18.4522 10.4533 18.7399 10.6087C19.4054 10.9682 19.7459 11.6733 20.3641 12.0772C20.4428 12.4619 20.8487 12.551 21.0527 12.8306C21.2547 13.1049 21.5233 13.3326 21.762 13.5808C21.789 13.6074 21.8386 13.6245 21.8475 13.6546C22.0358 14.3183 22.7346 14.6335 22.9537 15.2808C22.9985 15.3958 23.1259 15.4861 23.2635 15.65ZM9.51683 10.8371C9.64293 11.7596 9.69217 12.6997 9.9149 13.5975C10.2861 15.0891 10.9363 16.4851 11.5897 17.8738C11.7124 18.1348 11.7952 18.4292 11.9744 18.6428C12.2229 18.939 12.4053 19.2626 12.5908 19.5929C12.7785 19.9285 12.9882 20.2596 13.2359 20.5519C13.7026 21.097 14.0964 21.7034 14.6842 22.1492C15.284 22.6039 15.8361 23.1219 16.4087 23.6112C16.6426 23.8116 16.8676 24.0267 17.1133 24.2103C17.7112 24.6571 18.3119 25.1015 18.9231 25.5278C19.4044 25.8635 19.7734 26.3592 20.3879 26.5432C20.4058 26.3966 20.4888 26.2073 20.4279 26.1152C20.252 25.8496 20.401 25.6354 20.4709 25.4053C20.5442 25.1654 20.6545 24.9554 20.8565 24.7765C21.0225 24.6302 21.1265 24.4044 21.2362 24.2021C21.6227 23.4903 22.2984 23.0337 22.7905 22.4142C23.3177 22.1807 23.5914 21.6928 23.92 21.2645C23.9835 21.1807 24.0485 21.0064 24.0073 20.9517C23.7247 20.5785 23.6875 20.1284 23.5559 19.7058C23.3895 19.1717 23.1206 18.6694 22.9698 18.1315C22.6379 16.9497 21.9826 15.9477 21.2859 14.9663C20.9834 14.5416 20.6321 14.1508 20.2805 13.7626C19.8883 13.3287 19.4519 12.9318 19.0707 12.4887C18.3928 11.7005 17.6096 11.0523 16.7134 10.5271C16.2835 10.275 15.8838 9.96944 15.4778 9.6786C14.8074 9.19867 14.1431 8.70903 13.4805 8.22723C13.2416 8.53569 13.0509 8.80371 12.839 9.05198C12.6397 9.28731 12.4518 9.55299 12.2013 9.71618C11.8017 9.97867 11.3663 10.1985 10.9225 10.383C10.5008 10.5632 10.0457 10.6727 9.51683 10.8371ZM14.7507 23.4317C14.7413 23.7002 14.7307 23.8946 14.7304 24.0873C14.729 24.6285 14.7285 25.1595 14.4212 25.6522C14.3364 25.7891 14.2697 26.0258 14.271 26.1867C14.2729 26.6758 14.2053 27.127 13.9511 27.5515C13.8538 27.7154 13.9473 27.9163 14.1542 27.9306C14.4041 27.9486 14.5193 28.1195 14.5889 28.2724C14.7432 28.6102 15.0064 28.8707 15.1822 29.1809C15.5652 29.8528 16.0617 30.4222 16.5712 30.9901C16.7549 31.1952 16.8696 31.4605 17.0378 31.6833C17.502 32.3009 17.9994 32.8908 18.5677 33.4423C18.6028 33.2743 18.5993 33.1246 18.5685 32.9815C18.5088 32.7005 18.4141 32.4254 18.3648 32.1428C18.2166 31.2835 17.8181 30.4979 17.6252 29.6526C17.5182 29.1836 17.3308 28.7281 17.3146 28.2415C17.2999 27.8266 17.1807 27.4524 17.0343 27.0681C16.8691 26.6362 16.8836 26.1638 17.0677 25.7229C17.1292 25.5751 17.2964 25.5029 17.211 25.2669C17.132 25.0468 16.9793 25.0998 16.8517 25.0402C16.6052 24.9254 16.3863 24.771 16.2823 24.5014C15.6896 24.3155 15.3504 23.7714 14.7507 23.4317ZM24.689 19.2011C24.8392 19.1338 24.9995 19.0815 25.1385 18.9953C25.4625 18.7939 25.8369 18.7169 26.1762 18.8078C26.4782 18.8878 26.8107 19.0408 26.943 19.397C26.9832 19.5065 27.025 19.5676 27.134 19.4316C27.1755 19.3804 27.3299 19.3517 27.383 19.387C27.7209 19.6106 28.0544 19.8402 28.3691 20.095C28.7615 20.4115 29.1132 20.7831 29.5218 21.0742C29.9641 21.3886 30.2848 21.7933 30.5877 22.227C30.6342 22.2936 30.7079 22.3422 30.768 22.3998C30.7896 22.3864 30.8125 22.3718 30.833 22.357C30.7915 22.218 30.75 22.0791 30.7086 21.9401C30.4805 21.1759 30.1201 20.4665 29.7738 19.7545C29.3096 18.8011 28.8255 17.8549 28.3132 16.9254C28.0697 16.4841 27.7469 16.0882 27.4549 15.6758C27.3607 15.5412 27.2696 15.4886 27.0665 15.5487C26.6577 15.6686 26.2291 15.7231 25.8072 15.7883C25.0721 15.9027 24.3245 15.9547 23.57 16.2475C24.1248 17.1718 24.2615 18.2216 24.689 19.2011ZM9.77648 6.52699C9.69772 6.93116 9.58315 7.30668 9.56257 7.68786C9.52813 8.32953 9.55334 8.97515 9.55829 9.61899C9.56034 9.81449 9.68709 9.91239 9.86093 9.83696C10.1994 9.68912 10.536 9.53347 10.8603 9.35759C11.5076 9.00698 11.9838 8.45248 12.5108 7.95858C12.6596 7.81968 12.6455 7.67417 12.4686 7.58082C12.0058 7.33991 11.5382 7.11006 11.0691 6.8839C10.6661 6.68907 10.2391 6.58022 9.77648 6.52699ZM22.0746 25.095C21.7626 25.5822 21.4988 26.0008 21.2289 26.4151C21.1155 26.5877 21.1199 26.7272 21.2742 26.8748C21.5887 27.1767 21.8043 27.5428 21.9312 27.9599C21.9433 27.9967 21.9527 28.0358 21.9728 28.0682C22.0638 28.2102 22.1946 28.2178 22.3355 28.0808C22.5391 27.8842 22.7358 27.6792 22.904 27.5076C22.6324 26.7166 22.3709 25.9545 22.0746 25.095ZM23.2217 23.6277C22.9643 23.9728 22.7589 24.2485 22.5203 24.5684C23.3791 24.9512 23.4398 25.877 23.8835 26.526C24.0681 26.3711 24.2321 26.2476 24.3799 26.1048C24.4915 25.9971 24.5671 25.8773 24.4587 25.7006C24.05 25.0316 23.6537 24.3523 23.2217 23.6277ZM26.0036 24.1366C25.4582 23.5425 24.9524 22.9901 24.4654 22.4573C24.1921 22.736 23.9413 22.991 23.65 23.2847C23.8132 23.3896 23.9417 23.526 24.091 23.5556C24.5542 23.646 24.7451 23.9882 24.9391 24.3537C25.0332 24.533 25.162 24.6949 25.3099 24.9159C25.5705 24.6221 25.7827 24.3854 26.0036 24.1366Z" fill="#FFE48B"/>
<path d="M28.3303 35.5034C28.0974 36.0205 28.2192 36.5546 28.1828 37.0735C28.1551 37.4771 28.2074 37.8863 28.1987 38.2928C28.1962 38.4381 28.1146 38.5816 28.0531 38.7741C27.3026 38.568 26.5742 38.4162 26.2345 37.5861C26.0977 37.2524 25.8299 36.9723 25.6497 36.654C25.4808 36.352 25.3309 36.0363 25.202 35.7149C24.9503 35.0903 24.6712 34.4722 24.4903 33.8258C24.2385 32.9242 24.1779 32.0125 24.4646 31.0839C24.6548 30.4712 24.7715 29.838 25.1515 29.3032C25.4077 28.9426 25.6619 28.5767 25.9479 28.2405C26.2438 27.8936 26.6544 27.6946 27.0627 27.5069C27.2728 27.4104 27.4967 27.347 27.7142 27.2678C27.7651 27.3871 27.844 27.6238 27.9474 27.4196C28.0556 27.2044 28.1968 27.1798 28.3546 27.1719C29.4346 27.1132 30.4853 27.2294 31.4362 27.8002C32.3761 28.3663 33.2393 29.0342 33.8559 29.9536C34.145 30.3849 34.3824 30.8665 34.5579 31.3555C34.6812 31.6982 34.8271 32.0288 34.9559 32.3669C35.0855 32.7089 35.2283 33.0469 35.3566 33.39C35.4033 33.5128 35.421 33.6459 35.4581 33.7908C35.215 33.8704 35.0129 33.9038 34.7628 33.8296C34.5212 33.7599 34.257 33.5989 33.9762 33.7595C33.9238 33.7894 33.8173 33.766 33.7564 33.7326C33.0194 33.3132 32.163 33.2524 31.4085 32.9323C31.5443 33.3795 31.6519 33.8268 31.815 34.2534C32.0964 34.9916 32.4265 35.7124 32.7077 36.4532C32.9484 37.087 33.0845 37.75 33.14 38.4289C33.1524 38.5781 33.1762 38.7295 33.2067 38.8777C33.2685 39.178 33.117 39.3333 32.8047 39.3136C32.3348 39.2853 31.9721 39.1272 31.6716 38.7243C31.3859 38.3418 30.9922 38.0406 30.6463 37.704C30.4393 37.502 30.2089 37.3197 30.0267 37.097C29.7166 36.7162 29.3278 36.432 28.9567 36.1212C28.7353 35.9384 28.5452 35.7176 28.3303 35.5034ZM28.5919 30.2807C28.8836 30.9446 29.1513 31.5629 29.4297 32.1745C29.5645 32.4722 29.6 32.7664 29.4706 33.0934C29.2317 33.0214 28.976 32.9825 28.7598 32.8704C28.5107 32.7413 28.2661 32.5757 28.069 32.3771C27.6174 31.9202 27.1992 31.433 26.7251 30.9127C26.6761 31.3131 26.6255 31.6726 26.5901 32.0333C26.571 32.2372 26.5473 32.4496 26.3357 32.5191C26.1475 32.5831 26.1541 32.6386 26.2297 32.7958C26.2652 32.8717 26.1874 33.0028 26.1615 33.109C26.0583 33.0783 25.9389 33.0704 25.8508 33.0129C25.578 32.8333 25.4009 32.5522 25.1391 32.2459C25.2998 32.8906 25.4095 33.4606 25.5902 34.0062C25.7578 34.5137 25.9653 35.0157 26.2219 35.4836C26.4913 35.9783 26.6924 36.5257 27.1844 37.0309C27.2018 36.6711 27.2203 36.4301 27.2225 36.1865C27.225 35.8369 27.2155 35.4927 27.3747 35.162C27.4481 35.0088 27.5103 34.8228 27.4978 34.6595C27.4817 34.45 27.5796 34.3514 27.7072 34.2208C27.9216 34.0034 28.0021 33.9734 28.1579 34.2207C28.279 34.4126 28.4503 34.5552 28.641 34.5642C28.8393 34.5739 28.9097 34.6886 29.0139 34.796C29.484 35.275 29.954 35.754 30.4309 36.2272C30.8994 36.6933 31.3738 37.1523 31.8465 37.6149C31.917 37.6849 31.9918 37.7489 32.0652 37.814C32.0732 37.5045 32.0398 37.2297 31.9208 36.9984C31.4844 36.1509 31.1762 35.252 30.8625 34.3577C30.6572 33.7717 30.519 33.1621 30.3427 32.5659C30.3073 32.4453 30.2703 32.3285 30.4175 32.2801C30.9134 32.1128 31.4173 31.9271 31.943 32.0025C32.5432 32.0882 33.1346 32.2446 33.7174 32.3683C33.5228 31.7334 33.2809 31.0982 32.8478 30.5178C32.6045 30.1914 32.3093 29.9319 32.0579 29.624C31.3624 28.7755 30.4581 28.2993 29.3792 28.1411C29.2695 28.1251 29.1598 28.1092 29.0487 28.0943C29.4077 28.2815 29.7706 28.409 29.9745 28.7779C29.9921 28.8101 30.0311 28.8313 30.0639 28.8508C30.5264 29.153 30.788 29.6495 31.1892 30.0101C31.2248 30.0413 31.2168 30.1185 31.2362 30.2032C31.073 30.2157 30.9202 30.2547 30.7753 30.233C30.4553 30.1846 30.1648 30.2218 29.8944 30.4228C29.7674 30.5176 29.706 30.534 29.6476 30.3693C29.6385 30.3417 29.53 30.313 29.508 30.3315C29.285 30.5163 29.0916 30.4649 28.8842 30.2961C28.8267 30.2528 28.7089 30.2859 28.5919 30.2807Z" fill="#FFE48B"/>
<path d="M13.3184 17.7248C13.3136 17.6631 13.2927 17.5961 13.3054 17.5385C13.3287 17.4321 13.5665 17.2537 13.2017 17.3086C13.1473 17.3166 13.0251 17.1961 13.0138 17.1211C12.9729 16.8596 12.9218 16.6113 12.9878 16.3235C13.0809 15.9308 13.1451 15.5036 12.9404 15.1002C12.8947 15.0094 12.8963 14.8742 12.9243 14.7733C12.9846 14.5513 13.07 14.3341 13.1588 14.121C13.2173 13.978 13.2667 13.7487 13.4762 14.0096C13.5127 13.9579 13.5896 13.8957 13.5803 13.8566C13.5112 13.5952 13.6107 13.4507 13.8591 13.3691C13.9433 13.3407 14.0151 13.264 14.0796 13.1981C14.2365 13.0383 14.3877 12.8715 14.6229 12.6201C14.589 12.8036 14.579 12.8589 14.5691 12.9142C14.6673 12.8717 14.827 12.9725 14.8539 12.7667C14.8721 12.6317 14.8937 12.6324 14.9861 12.7145C15.0134 12.7386 15.0198 12.7966 15.0482 12.808C15.1222 12.8375 15.8879 12.7091 15.9969 12.6599C16.0247 12.6483 16.0658 12.6162 16.079 12.6263C16.2006 12.7097 16.3191 12.8005 16.4377 12.8887C16.5652 12.5845 16.7486 12.8227 16.8586 12.8783C17.0065 12.9538 17.1353 13.1016 17.2233 13.2485C17.3449 13.4493 17.6549 13.3488 17.729 13.5966C18.5395 14.0505 18.8242 14.3281 19.1437 15.0531C19.2577 15.312 19.5583 15.4941 19.4708 15.8375C19.7422 16.2813 19.5362 16.7828 19.6437 17.2467C19.3849 17.8559 19.434 18.6224 18.7724 19.0202C18.5715 19.1418 18.7897 19.3766 18.5648 19.4808C18.385 19.5659 18.2484 19.7416 18.09 19.8746C17.9111 20.0223 17.7401 20.1823 17.5454 20.3057C17.4278 20.3809 17.2686 20.4206 17.1923 20.2122C17.1861 20.1964 17.0873 20.2158 17.0309 20.2185C17.0673 20.5473 16.8101 20.4226 16.685 20.4079C16.5422 20.3915 16.4131 20.2768 16.268 20.2271C16.159 20.1895 16.0367 20.1864 15.921 20.1661C15.9706 19.979 15.6028 20.3017 15.7176 19.9964C15.7441 19.9272 15.4595 20.0134 15.4917 19.8056C15.4931 19.7904 15.4013 19.7594 15.3536 19.736C15.3294 19.808 15.3052 19.8799 15.2665 20.0016C14.9233 19.7214 14.5062 19.4985 14.2621 19.1516C13.9396 18.6944 13.486 18.319 13.3183 17.7554C13.4047 17.8332 13.4895 17.9146 13.5814 17.9878C13.604 18.0064 13.6798 18.0015 13.6859 17.9893C13.704 17.9436 13.7235 17.8662 13.7023 17.8464C13.594 17.7565 13.5095 17.5692 13.3184 17.7248ZM14.5204 13.8214C14.1932 13.9855 14.064 14.31 13.9039 14.6228C13.5882 15.2398 13.5817 15.898 13.7119 16.54C13.8482 17.2145 14.2522 17.7771 14.708 18.2868C14.8603 18.4571 15.0912 18.5616 15.2247 18.743C15.4692 19.0708 15.8344 19.2151 16.1545 19.4231C16.2995 19.5175 16.5224 19.523 16.7071 19.5136C16.9944 19.4979 17.2814 19.4426 17.5635 19.3843C17.8325 19.3299 17.9035 19.2047 17.8869 18.9275C17.882 18.8377 17.8869 18.7372 17.9232 18.6574C18.2115 18.0188 18.378 17.3555 18.391 16.652C18.4131 15.422 17.4599 13.9586 16.2943 13.5796C15.6615 13.371 15.0515 13.2513 14.5204 13.8214Z" fill="#FFE48B"/>
<g clip-path="url(#clip0_2291_33537)">
<path d="M16.8969 29.5671C17.0851 30.4142 17.4852 31.1986 17.6342 32.0535C17.6812 32.3359 17.7832 32.6182 17.8381 32.8928C17.8695 33.0418 17.8773 33.1908 17.8381 33.3555C17.2734 32.8065 16.7714 32.2182 16.3086 31.5986C16.1439 31.3711 16.0263 31.1123 15.8459 30.9005C15.336 30.3358 14.834 29.7632 14.4497 29.0965C14.2771 28.7827 14.0105 28.5239 13.8614 28.1866C13.7908 28.0376 13.6732 27.8651 13.4222 27.8415C13.2183 27.8415 13.1241 27.6297 13.2183 27.465C13.4771 27.0415 13.5399 26.5866 13.5399 26.1003C13.5399 25.9434 13.6104 25.7002 13.6889 25.5669C14.0026 25.0727 14.0026 24.5394 14.0026 23.9982C14.0026 23.8099 14.0105 23.6138 14.0183 23.3472C14.6223 23.6844 14.9595 24.2335 15.5556 24.4139C15.6576 24.6884 15.8772 24.8374 16.1204 24.9551C16.2537 25.0178 16.4027 24.9629 16.4812 25.1826C16.5675 25.4179 16.4027 25.4885 16.34 25.6375C16.1518 26.0767 16.1361 26.5473 16.3086 26.9787C16.4498 27.3631 16.5675 27.7396 16.5831 28.1553C16.5988 28.6416 16.7871 29.0965 16.8969 29.5671Z" fill="#FFE48B"/>
<path d="M29.9794 21.8569C30.0186 21.9902 30.0657 22.1314 30.1049 22.2726C30.0814 22.2883 30.0579 22.3039 30.0343 22.3118C29.9794 22.2569 29.901 22.2098 29.8618 22.1392C29.5559 21.7078 29.2343 21.3 28.795 20.9862C28.3872 20.696 28.0342 20.3274 27.642 20.0058C27.3283 19.7548 26.991 19.5273 26.6538 19.2999C26.5989 19.2685 26.442 19.2999 26.4028 19.3469C26.293 19.4803 26.2537 19.4175 26.2145 19.3077C26.0812 18.9548 25.7518 18.8057 25.4459 18.7194C25.1086 18.6332 24.7321 18.7116 24.4105 18.9077C24.2693 18.994 24.1125 19.0489 23.9556 19.1116C23.532 18.139 23.3987 17.088 22.8418 16.1624C23.5948 15.8722 24.3399 15.8173 25.0772 15.6997C25.5008 15.6369 25.9243 15.582 26.34 15.4644C26.5361 15.4016 26.6302 15.4565 26.7244 15.5899C27.0146 16.0056 27.3361 16.3978 27.5871 16.837C28.097 17.7704 28.5833 18.7116 29.046 19.6685C29.3912 20.3823 29.752 21.0882 29.9794 21.8569Z" fill="#FFE48B"/>
<path d="M30.1281 34.2729C30.4418 35.167 30.7556 36.0612 31.187 36.9083C31.3125 37.1436 31.3439 37.4181 31.336 37.724C31.2576 37.6613 31.187 37.5985 31.1164 37.5279C30.6458 37.0652 30.1673 36.6102 29.6967 36.1396C29.2261 35.669 28.7555 35.1905 28.2849 34.7121C28.1829 34.6023 28.1123 34.4846 27.9084 34.4768C27.7201 34.4689 27.5476 34.3278 27.4299 34.1317C27.2731 33.8885 27.1946 33.9199 26.975 34.1317C26.8495 34.265 26.7475 34.367 26.7711 34.5709C26.7789 34.7356 26.7162 34.9239 26.6456 35.0729C26.4887 35.4102 26.4965 35.7474 26.4887 36.1004C26.4887 36.3435 26.473 36.5867 26.4573 36.9475C25.9632 36.4377 25.7592 35.8886 25.4926 35.3945C25.2337 34.9317 25.0298 34.4297 24.8572 33.9199C24.6768 33.3708 24.567 32.8061 24.4102 32.1629C24.669 32.4688 24.8494 32.7434 25.1239 32.9238C25.2102 32.9865 25.3279 32.9944 25.4298 33.0257C25.4533 32.9159 25.5318 32.7826 25.5004 32.712C25.422 32.5551 25.4141 32.5002 25.6024 32.4296C25.8142 32.3669 25.8377 32.1472 25.8612 31.9433C25.8926 31.5825 25.9475 31.2296 25.9946 30.8295C26.4652 31.3472 26.8887 31.8335 27.3358 32.2884C27.5319 32.4924 27.7829 32.6571 28.026 32.7826C28.2457 32.8924 28.5045 32.9316 28.7398 33.01C28.8731 32.6806 28.8339 32.3826 28.7006 32.0845C28.4182 31.4727 28.1515 30.8609 27.8613 30.1942C27.979 30.2021 28.0966 30.1628 28.1515 30.2099C28.3633 30.3746 28.5515 30.4295 28.779 30.2491C28.8025 30.2256 28.9045 30.257 28.9202 30.2805C28.9751 30.4452 29.0378 30.4295 29.1633 30.3354C29.4379 30.1393 29.7281 30.1001 30.0418 30.1471C30.1908 30.1707 30.3399 30.1315 30.5046 30.1158C30.4889 30.0295 30.4967 29.9511 30.4575 29.9275C30.0575 29.5667 29.7987 29.0647 29.3359 28.7667C29.2967 28.7432 29.2653 28.7275 29.2418 28.6882C29.0378 28.3196 28.677 28.1941 28.3162 28.0059L28.6457 28.0529C29.7281 28.2098 30.6301 28.6882 31.3282 29.5354C31.5792 29.8491 31.8772 30.1079 32.1204 30.4295C32.5518 31.0099 32.7949 31.6453 32.9832 32.2806C32.4027 32.1551 31.8145 31.9982 31.2105 31.9198C30.685 31.8414 30.183 32.0296 29.6889 32.1943C29.5398 32.2414 29.5791 32.359 29.6104 32.4767C29.7908 33.0728 29.9242 33.6846 30.1281 34.2729Z" fill="#FFE48B"/>
<path d="M12.503 20.4682C12.2598 20.1702 12.0481 19.8408 11.8598 19.5035C11.6716 19.1741 11.4912 18.8525 11.2402 18.5544C11.0676 18.3426 10.9813 18.0524 10.8559 17.7857C10.2048 16.3974 9.55382 15.0013 9.18518 13.511C8.95771 12.6168 8.91065 11.6756 8.78516 10.7501C9.31852 10.5854 9.77344 10.4756 10.1892 10.2952C10.6362 10.1148 11.0676 9.89514 11.4676 9.62846C11.7186 9.46374 11.9069 9.20491 12.1108 8.9696C12.3226 8.71861 12.5108 8.45193 12.7461 8.13818C13.4128 8.62448 14.0795 9.11078 14.7463 9.58924C15.1541 9.87945 15.5541 10.1853 15.9855 10.4442C16.8797 10.9697 17.664 11.6129 18.3386 12.4051C18.7229 12.8443 19.1543 13.2443 19.5465 13.6757C19.8995 14.0679 20.2524 14.4522 20.5583 14.8836C21.2485 15.8641 21.9074 16.8602 22.2368 18.0446C22.3937 18.5858 22.6604 19.0878 22.8251 19.6211C22.9584 20.0447 22.9977 20.4918 23.28 20.8683C23.3192 20.9232 23.2565 21.0957 23.1859 21.182C22.8643 21.6056 22.5898 22.0919 22.0564 22.3272C21.5701 22.9468 20.8956 23.4017 20.5034 24.1155C20.3936 24.3194 20.2916 24.5469 20.1269 24.6881C19.923 24.8685 19.8132 25.0802 19.7426 25.3155C19.672 25.5509 19.523 25.7626 19.6955 26.0293C19.7583 26.1234 19.672 26.3117 19.6563 26.4607C19.0445 26.2725 18.6759 25.7783 18.1896 25.441C17.5778 25.0175 16.9817 24.5704 16.3856 24.1233C16.1346 23.9429 15.9149 23.7233 15.6796 23.5272C15.1071 23.0331 14.5502 22.5154 13.9541 22.0605C13.3658 21.6134 12.9736 21.0094 12.503 20.4682ZM12.5893 17.6681C12.754 18.2328 13.2089 18.6093 13.5305 19.0642C13.7737 19.4094 14.1972 19.6368 14.5345 19.9113L14.6208 19.6525C14.6678 19.676 14.7619 19.7074 14.7619 19.7153C14.7306 19.927 15.0129 19.8408 14.9894 19.9113C14.8717 20.2172 15.2404 19.8957 15.1933 20.0761C15.3031 20.0996 15.4286 20.0996 15.5384 20.1388C15.6796 20.1937 15.813 20.3035 15.9542 20.3192C16.0797 20.3349 16.3385 20.4604 16.2993 20.131C16.3542 20.131 16.4561 20.1074 16.464 20.1231C16.5424 20.3349 16.6993 20.2957 16.8169 20.2172C17.013 20.0996 17.1777 19.9349 17.3582 19.7858C17.515 19.6525 17.6562 19.4799 17.8366 19.3937C18.0562 19.2917 17.8445 19.0564 18.0405 18.9309C18.7072 18.5387 18.6523 17.7701 18.9112 17.1583C18.8092 16.6955 19.0131 16.1935 18.7386 15.7543C18.8249 15.4092 18.5268 15.2287 18.417 14.9699C18.0954 14.2405 17.8131 13.9659 16.9973 13.511C16.9268 13.26 16.613 13.362 16.4954 13.1659C16.4091 13.0169 16.2757 12.8678 16.1267 12.7894C16.0169 12.7345 15.8365 12.4992 15.711 12.8051C15.5855 12.711 15.4679 12.6247 15.3502 12.5384C15.3345 12.5306 15.2953 12.5619 15.2639 12.5698C15.162 12.6247 14.3933 12.7502 14.3149 12.7188C14.2913 12.711 14.2835 12.6561 14.26 12.6247C14.1658 12.5463 14.1423 12.5463 14.1266 12.6796C14.0952 12.8835 13.9384 12.7816 13.8364 12.8286C13.8521 12.7737 13.8599 12.7188 13.8913 12.5306C13.656 12.7816 13.507 12.9541 13.3501 13.111C13.2874 13.1737 13.2168 13.2522 13.1305 13.2835C12.8795 13.362 12.7854 13.511 12.8481 13.7698C12.8638 13.8091 12.7854 13.8718 12.7461 13.9267C12.5344 13.66 12.4873 13.8953 12.4324 14.0365C12.3383 14.2483 12.252 14.4679 12.1971 14.6875C12.1657 14.7895 12.1657 14.9229 12.2128 15.017C12.4167 15.417 12.354 15.8405 12.2598 16.2406C12.1893 16.5229 12.2442 16.7739 12.2834 17.0328C12.2991 17.1112 12.4167 17.2289 12.4716 17.221C12.8403 17.1661 12.5971 17.3465 12.5736 17.4485C12.5657 17.5112 12.5814 17.574 12.5893 17.6367C12.7775 17.4798 12.8638 17.6681 12.9736 17.7622C12.9971 17.7779 12.9736 17.8563 12.9579 17.9034C12.9501 17.9112 12.8716 17.9191 12.8481 17.9034L12.5893 17.6681Z" fill="#FFE48B"/>
<path d="M30.9437 38.6419C30.6534 38.2576 30.2613 37.9517 29.9161 37.6144C29.7122 37.4183 29.4769 37.2301 29.2965 37.0105C28.9828 36.634 28.5984 36.3438 28.2298 36.0379C28.0023 35.8496 27.8141 35.63 27.6023 35.4182C27.367 35.9359 27.4846 36.4693 27.4533 36.9869C27.4219 37.3948 27.4768 37.8027 27.469 38.2105C27.469 38.3517 27.3827 38.4929 27.3199 38.689C26.5748 38.4851 25.8453 38.3282 25.5002 37.4968C25.3669 37.1674 25.1002 36.885 24.9198 36.5712C24.7473 36.2653 24.5982 35.9516 24.4727 35.63C24.2217 35.0025 23.9394 34.3829 23.759 33.7397C23.508 32.8377 23.4452 31.9279 23.7354 30.9945C23.9237 30.3827 24.0413 29.7552 24.4178 29.214C24.6767 28.8532 24.9277 28.4924 25.2179 28.1551C25.5159 27.81 25.9238 27.6061 26.3316 27.4178C26.5434 27.3237 26.763 27.261 26.9827 27.1825C27.0376 27.3002 27.116 27.5355 27.218 27.3315C27.3278 27.1198 27.469 27.0962 27.6258 27.0884C28.7004 27.0256 29.7514 27.1433 30.7083 27.7159C31.6417 28.2806 32.5124 28.9473 33.1242 29.865C33.4144 30.2964 33.6497 30.7827 33.8301 31.269C33.9477 31.6141 34.0968 31.9435 34.2223 32.2808C34.3556 32.6259 34.4968 32.9632 34.6223 33.3005C34.6693 33.426 34.6929 33.5593 34.7242 33.7083C34.4811 33.7868 34.285 33.8182 34.034 33.7397C33.7909 33.677 33.5242 33.5123 33.2418 33.677C33.1948 33.7005 33.0849 33.677 33.0222 33.6456C32.2849 33.2299 31.43 33.1671 30.677 32.8456C30.8103 33.2926 30.9201 33.7397 31.0848 34.1711C31.3672 34.9084 31.6966 35.63 31.979 36.3673C32.2143 37.0026 32.3555 37.6615 32.4104 38.3439C32.4182 38.4929 32.4418 38.6419 32.4731 38.791C32.5359 39.089 32.3869 39.2459 32.0731 39.2302C31.6025 39.1988 31.2417 39.042 30.9437 38.6419ZM29.3357 28.7669C29.7985 29.065 30.0573 29.567 30.4574 29.9278C30.4966 29.9513 30.4887 30.0297 30.5044 30.116C30.3397 30.1317 30.1907 30.1709 30.0416 30.1474C29.7279 30.1003 29.4377 30.1395 29.1632 30.3356C29.0377 30.4297 28.9749 30.4454 28.92 30.2807C28.9043 30.2572 28.8024 30.2258 28.7788 30.2493C28.5514 30.4297 28.3631 30.3748 28.1514 30.2101C28.0964 30.1631 27.9788 30.2023 27.8611 30.1944C28.1514 30.8611 28.418 31.4729 28.7004 32.0847C28.8337 32.3828 28.873 32.6808 28.7396 33.0103C28.5043 32.9318 28.2455 32.8926 28.0259 32.7828C27.7827 32.6573 27.5317 32.4926 27.3356 32.2887C26.8885 31.8337 26.465 31.3474 25.9944 30.8298C25.9473 31.2298 25.8924 31.5827 25.861 31.9435C25.8375 32.1475 25.814 32.3671 25.6022 32.4299C25.414 32.5004 25.4218 32.5553 25.5002 32.7122C25.5316 32.7828 25.4532 32.9161 25.4296 33.026C25.3277 32.9946 25.21 32.9867 25.1237 32.924C24.8492 32.7436 24.6688 32.4691 24.41 32.1632C24.5668 32.8063 24.6767 33.3711 24.8571 33.9201C25.0296 34.43 25.2336 34.9319 25.4924 35.3947C25.7591 35.8889 25.963 36.4379 26.4571 36.9477C26.4728 36.5869 26.4885 36.3438 26.4885 36.1006C26.4885 35.7477 26.4885 35.4104 26.6454 35.0731C26.716 34.9241 26.7787 34.7359 26.7709 34.5711C26.7474 34.3672 26.8493 34.2652 26.9748 34.1319C27.1944 33.9201 27.2729 33.8887 27.4297 34.1319C27.5474 34.328 27.72 34.4692 27.9082 34.477C28.1121 34.4849 28.1827 34.6025 28.2847 34.7123C28.7553 35.1908 29.2259 35.6692 29.6965 36.1398C30.1671 36.6105 30.6456 37.0654 31.1162 37.5282C31.1868 37.5987 31.2574 37.6615 31.3358 37.7242C31.3437 37.4183 31.3123 37.1438 31.1868 36.9085C30.7554 36.0614 30.4417 35.1672 30.1279 34.2731C29.924 33.6848 29.7907 33.073 29.6103 32.4769C29.5789 32.3593 29.5397 32.2416 29.6887 32.1945C30.1828 32.0298 30.6848 31.8416 31.2103 31.92C31.8143 31.9985 32.4026 32.1553 32.983 32.2808C32.7947 31.6455 32.5516 31.0102 32.1202 30.4297C31.877 30.1082 31.579 29.8493 31.328 29.5356C30.6299 28.6885 29.7279 28.21 28.6455 28.0532L28.3161 28.0061C28.6769 28.1943 29.0377 28.3198 29.2416 28.6885C29.2651 28.7277 29.2965 28.7434 29.3357 28.7669Z" fill="#FFE48B"/>
<path d="M12.982 16.4525C13.1153 17.1271 13.5232 17.6918 13.9781 18.2016C14.1272 18.3742 14.3625 18.4762 14.4958 18.6566C14.739 18.986 15.1076 19.1272 15.4292 19.339C15.5704 19.4331 15.79 19.4331 15.9782 19.4252C16.2684 19.4095 16.5508 19.3546 16.8332 19.2997C17.0999 19.2448 17.1705 19.1193 17.1548 18.8448C17.1548 18.7507 17.1548 18.6487 17.194 18.5703C17.4842 17.935 17.6489 17.2683 17.6646 16.5623C17.6803 15.3388 16.7312 13.872 15.5625 13.4955C14.935 13.2837 14.3232 13.1661 13.7899 13.7387C13.4605 13.8955 13.335 14.225 13.1781 14.5387C12.8565 15.1505 12.8487 15.8094 12.982 16.4525ZM13.5311 19.0644C13.2095 18.6095 12.7545 18.233 12.5898 17.6683L12.8487 17.9036C12.8487 17.9036 12.9506 17.9114 12.9585 17.9036C12.9742 17.8565 12.9977 17.7781 12.9742 17.7624C12.8643 17.6683 12.7781 17.48 12.5898 17.6369C12.582 17.5742 12.5663 17.5114 12.5741 17.4487C12.5977 17.3467 12.8408 17.1663 12.4722 17.2212C12.4173 17.229 12.2996 17.1114 12.2839 17.033C12.2447 16.7741 12.1898 16.5231 12.2604 16.2408C12.3545 15.8407 12.4173 15.4172 12.2133 15.0172C12.1663 14.923 12.1663 14.7897 12.1976 14.6877C12.2526 14.4681 12.3388 14.2485 12.433 14.0367C12.4879 13.8955 12.5349 13.6602 12.7467 13.9269C12.7859 13.872 12.8643 13.8093 12.8487 13.77C12.7859 13.5112 12.88 13.3622 13.131 13.2837C13.2173 13.2524 13.2879 13.1739 13.3506 13.1112C13.5075 12.9543 13.6565 12.7818 13.8919 12.5308C13.8605 12.719 13.8526 12.7739 13.8369 12.8288C13.9389 12.7818 14.0958 12.8837 14.1272 12.6798C14.1428 12.5464 14.1664 12.5464 14.2605 12.6249C14.284 12.6563 14.2919 12.7112 14.3154 12.719C14.3938 12.7504 15.1625 12.6249 15.2645 12.57C15.2958 12.57 15.3351 12.5308 15.3508 12.5386C15.4684 12.6249 15.5861 12.7112 15.7116 12.8053C15.8371 12.4994 16.0175 12.7347 16.1273 12.7896C16.2763 12.868 16.4096 13.0171 16.4959 13.1661C16.6136 13.3622 16.9273 13.2602 16.9979 13.5112C17.8136 13.9661 18.096 14.2407 18.4176 14.9701C18.5274 15.2289 18.8254 15.4093 18.7392 15.7545C19.0137 16.1937 18.8098 16.6957 18.9117 17.1585C18.6529 17.7702 18.7078 18.5389 18.0411 18.9311C17.845 19.0566 18.0568 19.2919 17.8372 19.3939C17.6568 19.4801 17.5156 19.6527 17.3587 19.786C17.1783 19.9351 17.0136 20.0998 16.8175 20.2174C16.6998 20.2959 16.543 20.3351 16.4645 20.1233C16.4567 20.1076 16.3547 20.1312 16.2998 20.1312C16.339 20.4606 16.0802 20.3351 15.9547 20.3194C15.8135 20.3037 15.6802 20.1939 15.539 20.139C15.4292 20.0998 15.3037 20.0998 15.1939 20.0763C15.2409 19.8959 14.8723 20.2174 14.9899 19.9115C15.0135 19.8409 14.7311 19.9272 14.7625 19.7154C14.7625 19.7076 14.6684 19.6762 14.6213 19.6527L14.535 19.9115C14.1978 19.637 13.7742 19.4096 13.5311 19.0644Z" fill="#FFE48B"/>
<path d="M24.2072 24.2646C24.3014 24.445 24.4347 24.6097 24.5837 24.8293C24.8426 24.5391 25.0543 24.2959 25.274 24.0528C24.7328 23.4567 24.2229 22.9076 23.7366 22.3743C23.4621 22.6488 23.2111 22.9076 22.9209 23.1978C23.0856 23.2998 23.2111 23.441 23.3601 23.4724C23.8229 23.5587 24.019 23.9038 24.2072 24.2646ZM8.82604 9.53439C8.82604 9.73048 8.95938 9.8246 9.13194 9.75401C9.46921 9.60498 9.80649 9.44811 10.1281 9.26771C10.7791 8.9226 11.2575 8.3657 11.7831 7.87156C11.9321 7.73038 11.9164 7.58919 11.736 7.49507C11.2732 7.25192 10.8105 7.02446 10.3398 6.79699C9.93983 6.60091 9.50843 6.4911 9.04566 6.44404C8.96723 6.84406 8.85742 7.22055 8.83389 7.60488C8.80251 8.24021 8.83389 8.89122 8.83389 9.53439H8.82604ZM21.7914 24.4842C22.6464 24.8685 22.7091 25.7941 23.1562 26.4372C23.3366 26.2882 23.5013 26.1627 23.6503 26.0215C23.7602 25.9117 23.8386 25.7941 23.7288 25.6137C23.3209 24.947 22.9209 24.2646 22.4895 23.543C22.2385 23.8881 22.0267 24.1626 21.7914 24.4842ZM20.4972 26.3274C20.3874 26.5 20.3874 26.6412 20.5443 26.7902C20.858 27.0882 21.0777 27.4569 21.2032 27.8726C21.211 27.9118 21.2267 27.951 21.2424 27.9824C21.3365 28.1236 21.462 28.1314 21.6032 27.9981C21.8071 27.7942 22.0032 27.5902 22.1758 27.4177C21.9012 26.6333 21.6424 25.8647 21.3443 25.0097C21.0306 25.496 20.7718 25.9117 20.4972 26.3274ZM30.1056 22.2723C30.0664 22.1311 30.0193 21.9899 29.9801 21.8566C29.7526 21.0879 29.3918 20.382 29.0467 19.6683C28.5839 18.7113 28.0976 17.7701 27.5878 16.8367C27.3368 16.3975 27.0152 16.0053 26.725 15.5896C26.6309 15.4563 26.5368 15.4014 26.3407 15.4641C25.925 15.5818 25.5014 15.6367 25.0779 15.6994C24.3406 15.8171 23.5954 15.872 22.8425 16.1622C23.3993 17.0877 23.5327 18.1388 23.9562 19.1114C24.1131 19.0486 24.27 18.9937 24.4112 18.9074C24.7327 18.7113 25.1092 18.6329 25.4465 18.7192C25.7524 18.8055 26.0818 18.9545 26.2152 19.3074C26.2544 19.4173 26.2936 19.48 26.4034 19.3467C26.4426 19.2918 26.5995 19.2682 26.6544 19.2996C26.9917 19.5271 27.329 19.7545 27.6427 20.0055C28.0349 20.3271 28.3878 20.6958 28.7957 20.986C29.2349 21.2997 29.5565 21.7076 29.8624 22.139C29.9016 22.2096 29.9801 22.2566 30.035 22.3115C30.0585 22.3037 30.082 22.288 30.1056 22.2723ZM13.689 25.5666C13.6106 25.6999 13.54 25.9431 13.54 26.1C13.54 26.5863 13.4773 27.0412 13.2184 27.4647C13.1243 27.6294 13.2184 27.8334 13.4224 27.8412C13.6734 27.8648 13.791 28.0373 13.8616 28.1863C14.0106 28.5236 14.2773 28.7825 14.4499 29.0962C14.8342 29.7629 15.3362 30.3355 15.846 30.9002C16.0264 31.112 16.1441 31.3708 16.3088 31.5983C16.7716 32.2179 17.2735 32.8062 17.8383 33.3552C17.8775 33.1905 17.8696 33.0415 17.8383 32.8925C17.7834 32.6179 17.6814 32.3356 17.6343 32.0532C17.4853 31.1983 17.0853 30.4139 16.8971 29.5668C16.7872 29.0962 16.599 28.6413 16.5833 28.155C16.5676 27.7393 16.45 27.3628 16.3088 26.9784C16.1362 26.547 16.1519 26.0764 16.3402 25.6372C16.4029 25.4882 16.5676 25.4176 16.4813 25.1823C16.4029 24.9626 16.2539 25.0175 16.1205 24.9548C15.8774 24.8371 15.6578 24.6881 15.5558 24.4136C14.9597 24.2332 14.6224 23.6841 14.0185 23.3469C14.0106 23.6136 14.0028 23.8096 14.0028 23.9979C14.0028 24.5391 14.0028 25.0725 13.689 25.5666ZM12.5047 20.4683C12.9753 21.0095 13.3675 21.6135 13.9557 22.0605C14.5518 22.5155 15.1087 23.0331 15.6813 23.5273C15.9166 23.7234 16.1362 23.943 16.3872 24.1234C16.9833 24.5705 17.5794 25.0175 18.1912 25.4411C18.6775 25.7784 19.0462 26.2725 19.658 26.4608C19.6737 26.3117 19.7599 26.1235 19.6972 26.0294C19.5246 25.7627 19.6737 25.5509 19.7443 25.3156C19.8148 25.0803 19.9247 24.8685 20.1286 24.6881C20.2933 24.5469 20.3953 24.3195 20.5051 24.1155C20.8973 23.4018 21.5718 22.9469 22.0581 22.3272C22.5915 22.0919 22.866 21.6056 23.1876 21.1821C23.2582 21.0958 23.3209 20.9232 23.2817 20.8683C22.9993 20.4918 22.9601 20.0447 22.8268 19.6212C22.6621 19.0878 22.3954 18.5858 22.2385 18.0446C21.9091 16.8603 21.2502 15.8641 20.56 14.8837C20.2541 14.4523 19.9011 14.068 19.5482 13.6758C19.156 13.2444 18.7246 12.8444 18.3403 12.4051C17.6657 11.6129 16.8814 10.9698 15.9872 10.4442C15.5558 10.1854 15.1558 9.87951 14.7479 9.5893C14.0812 9.11084 13.4145 8.62454 12.7478 8.13824C12.5125 8.45198 12.3243 8.71866 12.1125 8.96966C11.9086 9.20496 11.7203 9.4638 11.4693 9.62851C11.0693 9.89519 10.6379 10.1148 10.1908 10.2952C9.77511 10.4756 9.32019 10.5854 8.78682 10.7501C8.91232 11.6757 8.95938 12.6169 9.18685 13.5111C9.55549 15.0013 10.2065 16.3975 10.8575 17.7858C10.983 18.0525 11.0693 18.3427 11.2419 18.5545C11.4928 18.8525 11.6732 19.1741 11.8615 19.5035C12.0497 19.8408 12.2615 20.1702 12.5047 20.4683ZM12.6772 6.82837C12.6851 6.86759 12.7557 6.89896 12.8106 6.91465C13.3753 7.07936 13.7675 7.50291 14.2381 7.8245C14.5675 8.05196 14.8813 8.30296 15.2185 8.53042C15.8931 8.98534 16.5519 9.47164 17.2108 9.94226C17.4775 10.1383 17.7206 10.3658 18.0108 10.5227C18.6775 10.8835 19.0148 11.5894 19.6344 11.9894C19.7129 12.3738 20.1207 12.4679 20.3247 12.7424C20.5286 13.0169 20.7953 13.2444 21.0306 13.4954C21.062 13.5189 21.109 13.5346 21.1169 13.566C21.3051 14.2327 22.0032 14.5464 22.2228 15.1974C22.2699 15.3072 22.3954 15.4014 22.5366 15.5661C22.615 15.3621 22.6542 15.2366 22.8503 15.1425C23.4856 14.8288 24.1837 14.8758 24.8347 14.6954C25.2818 14.5699 25.7446 14.4837 26.1995 14.4052C26.4897 14.3503 26.7799 14.3346 27.078 14.3268C27.2035 14.319 27.2741 14.3974 27.2741 14.5464C27.2741 14.6876 27.329 14.8288 27.376 14.97C27.3917 15.0092 27.4623 15.0641 27.4858 15.0562C27.776 14.9621 27.8702 15.1425 27.98 15.3621C28.0898 15.5582 28.2623 15.7151 28.3878 15.9033C28.8349 16.5308 29.1173 17.2524 29.5016 17.9191C29.6428 18.1701 29.7918 18.4211 29.9252 18.6721C30.0899 19.0015 30.2468 19.3388 30.4036 19.6683C30.4821 19.8408 30.5527 20.0134 30.6233 20.1781C30.788 20.5232 30.9841 20.8605 31.1096 21.2213C31.4233 22.1154 31.6978 23.0253 32.0194 23.9195C32.1684 24.3195 32.0822 24.696 32.0351 25.0803C32.0037 25.3156 31.8312 25.4019 31.6037 25.2764C31.1723 25.0332 30.7566 24.7822 30.4585 24.3352C30.2311 23.99 29.8624 23.7391 29.5487 23.4488C29.4075 23.3155 29.2428 23.1978 29.1251 23.0488C28.6937 22.5155 28.1839 22.0684 27.6506 21.6448C27.3603 21.4174 27.125 21.1272 26.8427 20.8918C26.3721 20.4918 25.8858 20.0996 25.3995 19.7153C25.3289 19.6604 25.2347 19.6133 25.1485 19.6133C24.8426 19.6212 24.5288 19.6526 24.1915 19.6761C24.3014 20.0761 24.4269 20.4918 24.5288 20.9154C24.568 21.1036 24.5445 21.3154 24.5602 21.5429C24.8033 21.7546 25.1092 21.9743 25.3602 22.2488C25.7289 22.641 26.1132 23.0488 26.3093 23.5665C26.3407 23.6371 26.3485 23.794 26.3093 23.8175C26.1524 23.9038 26.0897 23.9273 26.176 24.1704C26.2779 24.4685 26.176 24.8293 25.9171 25.0881C25.5955 25.4176 25.321 25.7784 25.0465 26.1549C24.6151 26.7274 24.1523 27.3314 23.5798 27.7471C23.015 28.155 22.6385 28.7354 22.0581 29.1119C21.9091 29.2138 21.8306 29.4178 21.6973 29.5511C21.4541 29.7864 21.1953 29.7864 21.0463 29.4962C20.9286 29.2609 20.7404 29.1119 20.5757 28.9315C20.3796 28.7197 20.2933 28.3981 20.1757 28.1157C20.1364 28.0295 20.1443 27.9275 20.1207 27.8334C19.9325 27.1824 19.8227 27.0882 19.1481 26.9235C18.654 26.8059 18.2226 26.5941 17.9246 26.1549C17.8853 26.1 17.854 25.9352 17.6736 25.9823C17.6187 25.9901 17.5167 25.8019 17.4147 25.6764C17.3206 25.8647 17.2265 26.0451 17.1402 26.2255C17.0618 26.4059 17.0461 26.5706 17.1402 26.7823C17.2814 27.1039 17.4069 27.449 17.3755 27.8412C17.3598 28.0138 17.4696 28.202 17.5245 28.3903C17.6579 28.7981 17.7834 29.206 17.9167 29.606C18.0265 29.9355 18.1755 30.2492 18.2775 30.5786C18.5207 31.4179 18.7481 32.2571 18.9834 33.0886C19.0697 33.4101 19.1638 33.7239 19.2658 34.0376C19.3991 34.4141 19.5482 34.7906 19.6815 35.1593C19.7913 35.4416 19.6109 35.6377 19.4854 35.826C19.2344 35.7475 18.9913 35.6926 18.7638 35.5985C18.2461 35.3946 17.65 34.8926 17.2029 34.3671C16.9363 34.0612 16.6225 33.7945 16.348 33.4964C16.0343 33.1513 15.7048 32.8062 15.4695 32.4297C15.0224 31.7081 14.4106 31.1198 13.9322 30.4374C13.3518 29.6139 12.8184 28.7511 12.2615 27.904C12.1831 27.7706 11.987 27.6059 12.3164 27.5196C12.3243 27.5196 12.3243 27.449 12.3086 27.4255C12.1439 27.1745 12.2615 26.8922 12.3635 26.7118C12.5517 26.3588 12.6145 25.9823 12.7086 25.6137C12.9125 24.7822 13.1557 23.9587 13.391 23.1351C13.438 22.9625 13.4224 22.8292 13.3047 22.7037C13.2812 22.6723 13.2498 22.6488 13.2263 22.6174C12.8184 22.139 12.3635 21.6919 11.9948 21.1742C11.7831 20.884 11.4693 20.6801 11.2968 20.3428C11.0615 19.8879 10.7085 19.5035 10.6614 18.9466C10.6536 18.8055 10.4732 18.6643 10.3634 18.5388C10.2693 18.4368 10.1202 18.3819 10.0575 18.2799C9.83786 17.8878 9.64961 17.4877 9.45353 17.0799C9.28881 16.7505 9.11625 16.421 8.98291 16.0838C8.88095 15.8328 8.84173 15.5661 8.77898 15.3072C8.77114 15.2916 8.78682 15.268 8.77898 15.2523C8.62211 14.766 8.49661 14.2719 8.30053 13.8091C8.18287 13.5268 8.04953 13.2444 8.04169 12.9385C8.01816 12.1934 7.74363 11.4796 7.79854 10.7188C7.86129 9.94226 7.81423 9.17359 7.78285 8.39708C7.75148 7.65978 7.86129 6.92249 7.93188 6.1852C7.96325 5.84793 8.14365 5.63615 8.52799 5.58909C8.83389 5.54987 9.1241 5.33025 9.41431 5.3381C9.68883 5.3381 9.97904 5.46359 10.2457 5.54987C10.7791 5.71459 11.2732 5.99695 11.7752 6.2401C11.9478 6.32638 12.0968 6.45972 12.2772 6.53816C12.4341 6.60875 12.6302 6.60091 12.6772 6.82837Z" fill="#FFE48B"/>
</g>
<defs>
<clipPath id="clip0_2291_33537">
<rect width="27.3426" height="34.2841" fill="white" transform="translate(7.57812 5.14209)"/>
</clipPath>
</defs>
</svg>
