<svg width="32" height="46" viewBox="0 0 32 46" fill="none" xmlns="http://www.w3.org/2000/svg">
<path d="M13.1405 0C13.3809 0.286962 13.6177 0.573929 13.8618 0.857304C13.931 0.939806 14.0331 1.07971 14.0986 1.06895C14.5467 0.997208 14.6269 1.33439 14.7762 1.607C15.1843 2.35669 15.6141 3.0956 15.9966 3.85605C16.4047 4.67031 16.7581 5.50968 17.1479 6.33111C17.4612 6.99112 17.8764 7.61167 17.942 8.36853C18.6196 9.32268 18.8091 10.4885 19.3337 11.5108C19.6397 12.1098 19.8328 12.7662 20.0987 13.3904C20.2117 13.6558 20.3829 13.8997 20.5213 14.1436C21.341 13.8782 22.066 13.4944 22.8456 13.2218C23.5378 12.9779 24.168 12.5618 24.8493 12.2784C25.505 12.0058 26.0733 11.4928 26.8821 11.6112C27.1152 11.6471 27.2901 11.1377 27.6471 11.4175C27.8985 10.7934 28.2336 11.5861 28.5105 11.3709C28.5324 11.439 28.5943 11.5395 28.5688 11.5717C28.3757 11.8085 28.4814 11.9376 28.7036 12.0632C28.751 12.0883 28.7655 12.282 28.7437 12.2927C28.2992 12.4972 28.4996 12.8595 28.6672 13.0209C29.1481 13.4801 28.9222 13.8603 28.7583 14.3732C28.3284 15.7255 27.5961 16.9487 27.1626 18.2902C26.8129 19.3628 26.3648 20.3887 25.6762 21.289C25.4577 21.576 25.6034 21.7625 25.7418 21.906C26.6671 22.8745 27.2573 24.0295 27.7855 25.2311C27.8803 25.4464 28.0005 25.6652 28.1608 25.8302C28.3939 26.0705 28.6271 26.2893 28.6417 26.6552C28.6453 26.7628 28.7182 26.8847 28.7947 26.9708C29.4941 27.7456 29.9131 28.7034 30.5178 29.5356C30.9076 30.0736 31.1044 30.7623 31.7856 31.1103C31.9532 31.1964 32.0151 31.6304 31.9969 31.8958C31.9751 32.1649 31.5634 32.3191 31.1736 32.2653C31.0279 32.2474 30.8858 32.19 30.7437 32.1469C30.0879 31.9532 29.4249 31.7703 28.7728 31.5587C28.383 31.4331 27.9896 31.5156 27.6544 31.6376C27.0824 31.8456 26.5724 31.6483 26.0514 31.5407C25.6471 31.4546 25.2646 31.2753 24.8784 31.1318C24.5687 31.017 24.2846 31.1856 24.2992 31.5048C24.3137 31.842 24.4011 32.1792 24.4048 32.5164C24.4084 32.7782 24.5724 33.1118 24.1461 33.2661C24.0769 33.2912 24.0478 33.7073 24.1134 33.7431C24.4558 33.9297 24.2627 34.1808 24.2372 34.3996C24.1279 35.3179 24.0077 36.2361 23.8839 37.1544C23.8256 37.5848 23.9859 37.9938 23.8875 38.4493C23.6434 39.5685 23.5013 40.7127 23.3228 41.8462C23.2645 42.2085 23.2281 42.5708 23.1734 42.9331C23.1151 43.3133 23.0532 43.6936 22.9731 44.0666C22.9294 44.2639 22.8419 44.4504 22.7727 44.6405C22.7363 44.7445 22.6926 44.845 22.6525 44.949L22.423 45.7453C22.2153 45.8242 22.0041 45.9067 21.7563 46C21.7381 45.8278 21.7599 45.6198 21.6871 45.4476C21.6361 45.3221 21.4138 45.2647 21.3628 45.1391C21.3009 44.9813 21.392 44.7517 21.3118 44.619C21.2135 44.4576 20.9913 44.3751 20.8456 44.2352C20.3501 43.7653 20.0222 43.177 19.7016 42.5852C19.3045 41.8606 18.9111 41.136 18.5249 40.4114C17.9056 39.2492 17.2863 38.0835 16.6742 36.9141C16.5795 36.7311 16.4958 36.541 16.4229 36.3473C16.0185 35.2712 15.4101 34.3027 14.871 33.2912C14.4301 32.4662 13.7671 31.7774 13.5376 30.7121C12.8381 31.5048 12.2589 32.1362 11.7051 32.789C11.053 33.5566 10.3973 34.3171 9.66867 35.0201C9.14042 35.5295 8.65955 36.0891 8.12402 36.602C7.55206 37.1472 6.86718 37.4916 6.226 37.922C5.90177 38.1408 5.52654 38.3023 5.13309 38.1947C4.82707 38.1122 4.55385 37.9256 4.27333 37.7857C4.36441 37.5705 4.75785 37.879 4.67406 37.3589C4.59391 36.8603 4.42266 36.2899 4.73596 35.7268C4.98369 35.2784 4.95821 34.6901 5.16951 34.2166C5.62125 33.2123 5.68681 32.1146 6.02562 31.0852C6.49557 29.6683 6.92182 28.2371 7.35534 26.8094C7.53021 26.2355 7.66498 25.6544 7.83256 25.0267C6.85986 24.7038 5.87991 24.3703 4.89993 24.051C3.9163 23.7318 2.92539 23.4269 1.93813 23.1112C1.59932 23.0036 1.2678 22.8314 0.925349 22.8027C0.506398 22.7668 0.225906 22.6808 0.174904 22.218C0.160332 22.0781 0.0619318 21.949 0 21.8163C0.182152 21.7445 0.499124 21.7015 0.528269 21.5903C0.72135 20.8585 1.35888 20.5465 1.89077 20.177C2.47365 19.7753 3.13302 19.4811 3.77784 19.1727C5.03469 18.57 6.29884 17.9889 7.56297 17.4007C7.64676 17.3612 7.71964 17.3002 7.80343 17.2787C8.40817 17.1316 9.01655 16.9953 9.60672 16.8554C9.57393 16.5792 9.54479 16.3533 9.51564 16.1273C9.563 16.1201 9.62494 16.095 9.65773 16.1165C9.70509 16.1452 9.7306 16.2062 9.80346 16.3102C9.82896 16.095 9.92369 15.8869 9.85811 15.7722C9.62496 15.3704 9.70876 15.0045 9.82169 14.592C10.0038 13.9141 10.1714 13.2218 10.2151 12.5259C10.2916 11.2884 10.747 10.1298 10.9328 8.91736C11.0749 7.98832 11.3554 7.08439 11.5011 6.15535C11.7379 4.65597 11.9565 3.153 12.3682 1.68591C12.4228 1.49221 12.4592 1.25187 12.3937 1.07252C12.3135 0.850121 12.3208 0.720999 12.4847 0.545235C12.6195 0.401754 12.6815 0.186532 12.7762 0.00718105C12.8964 7.00607e-06 13.0203 0 13.1405 0ZM10.0293 22.5839C10.3681 22.34 10.2005 22.0387 10.0585 21.7445C10.0585 22.0351 10.0585 22.3221 10.0585 22.6126C9.99288 22.7202 9.89455 22.8207 9.86905 22.939C9.84719 23.0395 9.90545 23.1543 9.92731 23.2655C9.9601 23.2619 9.99289 23.2583 10.0257 23.2511C10.0293 23.0251 10.0293 22.8063 10.0293 22.5839ZM14.9474 6.1123C15.0312 5.76795 14.86 5.49533 14.6779 5.22989C14.6596 5.20119 14.5577 5.19762 14.5139 5.21914C14.4739 5.24066 14.4265 5.33391 14.4447 5.35902C14.6123 5.61011 14.7945 5.85043 14.973 6.09435C14.86 6.85839 15.2863 7.51123 15.4283 8.22504C15.5085 8.62679 15.6287 9.01778 15.7344 9.41594C16.3937 9.68138 16.3646 10.3665 16.6087 10.8687C16.9694 11.6005 17.3264 12.3609 17.4794 13.15C17.636 13.9643 17.9457 14.5382 18.8164 14.818C18.5213 14.1114 18.2444 13.4406 17.9603 12.7698C17.698 12.1457 17.3737 11.5431 17.166 10.9046C16.6524 9.31192 15.8618 7.83765 15.2134 6.3024C15.1769 6.21632 15.0385 6.17328 14.9474 6.1123ZM14.8491 24.2806C14.5358 24.7576 14.5176 24.8186 14.7143 25.1307C14.8564 25.3567 15.0167 25.5683 15.1842 25.7764C15.7744 26.5296 16.4593 27.0246 17.4866 26.5691C17.5631 26.5332 17.6688 26.5655 17.7562 26.5476C18.5322 26.3754 19.3519 26.2857 19.8656 25.5647C19.9311 25.4715 20.0368 25.3567 20.1388 25.3387C20.6452 25.2419 20.5614 24.7505 20.7727 24.4563C20.7945 24.424 20.7763 24.3164 20.7435 24.2985C20.6743 24.259 20.5723 24.2232 20.5104 24.2483C20.3719 24.3021 20.2299 24.3774 20.1278 24.4779C19.8218 24.7935 19.4357 24.8724 19.0204 24.9836C18.7362 25.059 18.3901 24.8975 18.2262 25.0769C17.8983 25.432 17.4794 25.371 17.1041 25.5073C16.7216 25.6472 16.5103 25.5504 16.3391 25.2993C16.095 24.937 15.7708 24.7254 15.3773 24.5747C15.1915 24.5066 15.0239 24.381 14.8491 24.2806ZM16.0841 17.2213C16.1424 17.5657 16.2116 17.8419 16.2298 18.1252C16.2844 18.8319 16.4411 19.517 16.7398 20.1591C16.8928 20.4891 16.9293 20.8227 16.9766 21.1778C17.0932 22.0781 17.4211 22.8888 18.2189 23.5452C18.31 23.3372 18.4266 23.2009 18.412 23.0825C18.3355 22.444 18.2371 21.8091 18.1242 21.1778C17.9092 19.9977 17.3919 18.9144 16.9657 17.8024C16.82 17.4222 16.5176 17.3038 16.0841 17.2213ZM13.1405 19.6318C13.0203 20.2667 13.5376 20.7007 13.8472 21.2244C14.1387 21.1922 14.3318 21.4289 14.5758 21.4935C14.9657 21.5939 15.3591 21.2137 15.3045 20.8263C15.268 20.568 15.2352 20.299 15.1259 20.0658C14.8782 19.5349 14.5904 19.0077 14.084 18.6669C13.6432 18.3692 13.2097 18.588 13.1369 19.1224C13.1223 19.2659 13.1405 19.4166 13.1405 19.6318ZM19.9202 17.7558C19.2718 17.7629 19.0021 18.0212 19.1661 18.4911C19.3774 19.0937 19.6798 19.6641 20.2663 19.9941C20.412 20.0766 20.6743 20.0407 20.8419 19.969C20.9731 19.9116 21.1588 19.6748 21.126 19.5923C20.9366 19.1117 20.984 18.5521 20.5687 18.136C20.3537 17.9279 20.2408 17.6374 19.9202 17.7558ZM13.687 3.25343C13.5886 3.93138 13.625 3.99236 14.3026 4.45867C14.0658 3.99236 13.8764 3.6229 13.687 3.25343ZM6.64492 34.8121C6.56113 35.1349 6.48102 35.4613 6.36809 35.8954C6.9364 35.4398 6.93636 35.4398 6.64492 34.8121Z" fill="#FFDE89"/>
</svg>
