<svg width="326" height="152" viewBox="0 0 326 152" fill="none" xmlns="http://www.w3.org/2000/svg">
<path d="M181.852 100.82C182.712 108.39 185.572 115.13 187.812 121.92C190.962 122.44 193.702 122.23 196.382 121.25C196.972 121.03 197.582 120.57 198.152 120.62C200.252 120.81 201.582 119.97 202.402 118.06C202.642 117.5 203.232 117.09 203.652 116.6C204.482 115.61 206.072 114.88 204.852 113.17C205.572 111.83 206.302 110.48 207.012 109.13C208.072 107.13 209.402 105.31 210.412 103.24C212.062 99.8704 214.592 96.8904 217.052 93.9904C219.112 91.5504 221.152 89.1704 222.372 86.1804C222.572 85.6904 223.132 85.3504 223.512 84.9304C224.102 84.2904 224.672 83.6504 225.252 83.0004C229.732 86.9304 235.082 90.1304 239.332 94.6404C243.482 99.0404 247.472 103.59 251.662 108.21C252.302 107.36 253.002 106.61 253.502 105.75C257.182 99.3204 261.202 93.1104 264.982 86.7504C265.862 85.2704 267.852 84.4304 267.702 82.2704C267.682 81.9304 268.792 83.1004 268.972 81.8604C269.042 81.3604 267.892 80.7904 269.032 80.4004C269.852 80.1304 270.682 79.9104 271.672 79.6304C272.072 80.6004 272.652 81.5004 272.792 82.4704C273.042 84.2104 273.722 85.5104 275.162 86.5904C275.882 87.1304 276.332 88.1604 276.672 89.0604C277.382 90.9504 277.892 92.9204 278.562 94.8304C278.812 95.5304 279.132 96.3804 279.692 96.7804C282.152 98.5404 282.552 101.24 282.852 103.84C283.092 105.93 284.072 107.44 285.452 108.79C287.362 110.65 287.822 110.58 289.972 108.79C290.912 108.01 292.022 107.43 293.032 106.73C297.082 103.91 300.942 100.76 305.222 98.3304C309.992 95.6104 315.132 93.5404 320.112 91.1804C320.922 90.7904 321.732 90.3904 322.502 89.9304C323.402 89.4004 324.062 89.8604 324.422 90.5504C325.052 91.7504 325.582 92.8604 324.882 94.4304C322.272 100.27 319.872 106.21 317.402 112.12C316.712 113.77 316.162 115.5 315.322 117.08C314.402 118.82 313.842 120.36 314.992 122.3C315.532 123.2 315.452 124.54 315.432 125.67C315.342 130.4 315.122 135.13 315.062 139.86C315.042 141.3 315.452 142.73 315.522 144.18C315.592 145.57 315.202 146.94 316.092 148.29C316.442 148.82 316.152 149.77 316.152 150.5C312.862 151.14 12.7421 151.43 2.15209 150.82C0.622085 148.81 0.642079 146.56 1.12208 144.24C3.01208 143.47 1.96208 142.25 1.59208 141.14C1.12208 139.7 0.262084 138.27 0.252084 136.83C0.212084 132.23 -0.527921 127.6 0.732079 123.03C0.962079 122.18 0.822079 121.24 0.872079 120.34C1.04208 116.98 1.30208 113.63 1.35208 110.27C1.37208 109.18 0.992083 108.03 0.572083 107C-0.107917 105.32 0.192083 103.94 0.892083 102.27C2.38208 98.6704 3.75208 94.9604 4.57208 91.1604C5.06208 88.8704 6.12208 87.3404 8.03208 85.7904C9.27208 87.4904 10.5521 89.1604 11.7321 90.8904C12.2121 91.5904 12.3221 92.6104 12.9021 93.1604C13.2621 93.5004 14.3121 93.0404 14.8421 93.3204C15.4621 93.6604 15.9621 94.3504 16.3421 95.0004C18.6321 98.9604 21.3721 102.64 23.9221 106.41C26.5721 110.31 30.3521 113.43 33.6421 116.9C35.8521 115.99 37.1821 114.46 37.2621 112.53C37.3521 110.17 39.0921 109.23 40.3921 107.95C41.6221 106.74 41.7621 106.88 41.9821 106.33C44.1421 101.1 47.0121 96.2204 49.3821 91.0904C50.1721 89.3704 51.2821 87.8204 51.4121 85.7904C51.4721 84.8804 52.1521 83.9004 52.7721 83.1504C54.4121 81.1804 55.4921 81.3904 56.6321 83.7804C56.7821 84.1004 56.8021 84.7004 57.0021 84.7604C60.7821 85.8004 62.9721 88.7804 65.3221 91.5504C66.9421 93.4504 68.7221 95.1704 70.6321 96.7804C74.5021 100.04 78.2721 103.4 82.2121 106.82C84.6721 104.01 86.9421 101.24 88.5521 97.9504C88.9921 97.0504 89.9021 96.4004 90.4921 95.5604C91.3621 94.3204 92.7721 93.0204 92.8021 91.7204C92.8621 89.0404 94.7021 87.7204 96.2521 85.7604C97.2821 86.9104 98.7921 87.6104 98.5821 89.5504C98.5721 89.6604 98.9921 89.9004 99.2421 89.9504C102.962 90.7904 104.422 91.7204 106.652 94.2504C109.502 97.4804 112.462 100.62 115.382 103.79C117.292 105.86 119.082 108.06 121.172 109.93C123.342 111.87 125.792 113.5 128.152 115.22C129.472 116.18 130.872 117.05 132.502 118.14C132.402 117.4 132.522 116.52 132.212 116.34C130.692 115.42 130.662 113.76 130.362 112.42C129.842 110.08 129.832 107.63 129.492 105.24C128.542 98.4804 128.602 91.6504 127.952 84.8604C127.932 84.6004 127.992 84.3204 127.912 84.0904C127.512 82.9604 126.522 82.0704 126.962 80.6004C127.322 79.4104 127.242 78.0804 127.352 76.8304C129.952 76.5604 131.202 77.0404 132.882 78.9204C133.012 79.0604 133.092 79.4204 133.162 79.4104C136.932 78.9804 138.872 81.6804 140.972 84.0104C143.702 87.0404 146.352 90.1404 148.982 93.2504C150.052 94.5104 150.952 95.9204 151.972 97.2304C153.592 99.3104 155.282 101.34 156.892 103.42C157.832 104.63 158.672 105.92 159.582 107.15C160.312 108.14 161.092 109.09 161.852 110.06C162.012 110.26 162.332 110.38 162.402 110.6C163.702 114.87 167.622 116.51 170.752 118.93C171.752 119.7 172.652 120.59 173.802 121.6C174.662 120.52 174.582 119.56 174.252 118.63C172.652 114.11 172.342 109.4 172.142 104.68C171.842 97.4804 171.892 90.2404 171.162 83.0904C170.252 74.2004 170.712 65.3204 170.682 56.4404C170.672 53.9004 171.302 51.3604 171.642 48.8204C171.732 48.1904 171.992 47.5604 171.942 46.9504C171.672 43.7904 170.582 42.7004 167.192 42.3704C162.972 41.9504 158.692 41.4104 154.792 39.9004C150.542 38.2504 146.072 37.2904 141.922 35.4004C141.232 35.0804 140.502 34.8004 139.772 34.6104C134.312 33.2004 132.052 31.0104 129.972 25.5104C129.492 24.2404 128.502 23.0804 127.512 22.1104C126.202 20.8304 125.662 19.4004 125.702 17.6304C125.742 16.2104 125.822 14.7804 125.672 13.3704C125.452 11.3304 126.062 9.57042 127.282 8.04042C128.872 6.04042 130.572 4.1304 132.252 2.2104C134.132 0.0603986 136.622 -0.329605 139.192 0.300395C143.952 1.47039 148.482 3.08041 152.832 5.57041C158.052 8.55042 162.672 12.2504 166.932 16.3004C169.802 19.0204 172.292 22.4404 173.582 26.3504C174.062 27.8004 175.042 28.0404 176.052 28.2404C176.842 28.4004 177.912 26.9304 178.502 28.6804C178.512 28.7104 179.132 28.6204 179.392 28.4604C180.902 27.5204 182.422 26.5704 183.892 25.5604C188.992 22.0604 194.712 20.6604 200.812 20.6204C203.892 20.6004 206.922 20.7604 209.852 22.0004C210.852 22.4204 212.132 22.1804 213.292 22.2204C217.772 22.3904 219.562 23.9504 220.072 28.2504C220.202 29.4004 220.162 30.5704 220.122 31.7304C220.072 33.2804 219.162 34.2304 217.842 34.9804C213.872 37.2504 209.572 39.2904 205.172 39.5904C199.632 39.9804 194.352 42.3004 188.712 41.5704C185.932 41.2104 183.812 43.2704 181.242 43.6804C181.132 43.7004 180.982 43.8104 180.942 43.9104C179.782 46.8604 178.302 49.7804 178.702 53.0604C178.912 54.8304 178.962 56.4704 178.672 58.2904C178.022 62.4104 177.602 66.6104 177.632 70.7704C177.652 74.2904 178.602 77.8004 178.822 81.3304C178.992 84.2304 179.222 86.9804 180.452 89.7204C181.192 91.3704 180.992 93.4604 181.092 95.3604C181.112 95.7604 180.622 96.2304 180.302 96.6004C179.002 98.1104 181.112 99.5404 180.392 101.03C180.852 100.98 181.332 100.9 181.852 100.82Z" fill="#1D3D6C"/>
</svg>
