<svg width="222" height="229" viewBox="0 0 222 229" fill="none" xmlns="http://www.w3.org/2000/svg">
<g filter="url(#filter0_d_3497_34040)">
<path d="M70.3572 206.799C70.1222 205.71 69.8872 204.781 69.7377 203.841C69.6523 203.328 69.631 202.784 69.7484 202.282C70.0688 200.83 70.0581 199.431 69.9086 197.925C69.7484 196.419 70.3144 194.818 70.6774 193.28C72.0229 187.749 73.4006 182.239 74.7888 176.718C75.942 172.126 77.1486 167.545 78.2912 162.942C79.2843 158.949 80.3308 154.976 81.1424 150.94C81.3453 149.925 80.9288 148.665 80.4803 147.662C78.1417 142.504 75.643 137.421 73.3151 132.253C70.2931 125.525 68.2855 118.445 66.2139 111.398C65.1674 107.842 64.1316 104.35 62.4658 101.029C61.2698 98.6581 61.5368 98.5087 64.0996 97.4408C68.5418 95.5934 73.0695 95.9458 77.5544 96.9069C84.1537 98.3378 90.454 100.772 96.7757 103.09C100.417 104.425 104.08 105.706 107.753 106.945C108.106 107.062 108.81 106.806 109.035 106.496C110.572 104.36 112.238 102.267 113.455 99.9502C114.502 97.964 116.232 96.5438 117.278 94.5362C118.271 92.6355 120.044 91.1512 121.358 89.3999C123.803 86.1109 126.238 82.7899 128.523 79.3942C129.27 78.2943 129.505 76.8527 130.082 75.6247C130.562 74.5889 131.107 73.5638 131.801 72.6775C132.121 72.2717 132.954 71.8872 133.381 72.026C134.278 72.3143 135.026 72.1542 135.133 71.3533C135.314 70.0078 137.3 70.7233 137.322 69.0574C137.332 68.2352 138.496 67.4236 139.158 66.6227C139.489 66.2169 139.874 65.8432 140.237 65.4588C140.888 64.7754 141.615 65.2025 141.775 65.7365C142.298 67.4343 143.366 68.5983 144.754 69.6127C145.213 69.9438 145.48 70.6699 145.619 71.2679C146.388 74.5782 147.979 77.5575 149.303 80.6435C149.794 81.7968 150.072 83.0356 150.456 84.2316C152.4 90.2329 154.397 96.2235 156.255 102.246C156.991 104.649 157.419 107.147 157.995 109.604C158.091 110.009 158.166 110.426 158.326 110.81C159.234 113.063 159.202 112.871 161.53 112.305C162.929 111.974 164.541 112.124 165.961 112.465C167.19 112.754 168.3 112.925 169.571 112.946C170.617 112.967 172.166 112.433 173.116 113.715C173.233 113.875 173.789 113.758 174.13 113.715C174.632 113.651 175.198 113.341 175.625 113.48C180.271 114.953 185.108 114.975 189.892 115.445C191.109 115.562 192.294 116.085 193.49 116.416C193.779 116.502 194.089 116.705 194.345 116.651C198.595 115.797 202.343 117.741 206.721 118.584C204.863 120.784 205.258 123.293 204.34 125.525C202.375 130.266 199.535 134.303 196.043 137.987C193.362 140.817 190.81 143.753 188.162 146.615C184.093 151.015 180.409 155.916 175.444 159.28C172.336 161.383 171.397 164.042 170.639 167.31C168.215 177.818 165.769 188.336 163.014 198.769C161.722 203.659 159.651 208.347 158.081 213.163C157.6 214.648 156.5 214.712 155.368 215.15C154.087 215.651 153.724 214.712 153.03 214.146C151.246 212.693 149.517 211.156 147.616 209.885C142.191 206.244 136.681 202.752 131.235 199.143C128.416 197.274 125.682 195.288 122.917 193.344C121.272 192.191 119.692 190.931 118.015 189.842C116.328 188.742 114.769 188.656 112.74 189.703C106.354 192.981 99.6803 195.597 92.814 197.765C85.6381 200.029 78.761 203.008 72.0122 206.329C71.4676 206.596 70.8377 206.671 70.3572 206.799ZM82.4986 143.604C82.7121 143.508 82.9364 143.401 83.1499 143.305C80.5124 135.125 77.202 127.244 72.5782 119.214C72.4821 120.165 72.3433 120.485 72.4394 120.709C73.3257 122.695 74.5538 124.553 74.2121 126.924C74.148 127.373 74.8741 127.928 75.2051 128.451C76.8282 131.089 78.7931 133.577 78.5902 136.983C78.5475 137.656 79.1668 138.905 79.6153 138.959C80.7793 139.119 80.8327 139.77 81.0996 140.614C81.42 141.66 82.018 142.611 82.4986 143.604ZM134.513 106.325C133.179 108.365 132.687 110.073 133.424 112.028C133.563 112.391 133.307 113.031 133.029 113.394C131.95 114.772 131.919 114.751 133.115 115.989C133.328 116.214 133.627 116.427 133.702 116.694C134.172 118.509 134.62 120.325 135.015 122.161C135.528 124.511 135.966 126.871 136.467 129.22C136.553 129.615 136.788 129.967 136.959 130.341C137.087 130.202 137.215 130.064 137.343 129.935C136.425 122.226 135.496 114.526 134.513 106.325ZM190.394 119.204C191.43 119.716 190.682 120.634 192.06 120.688C193.864 120.752 195.658 121.318 197.217 122.332C198.039 122.866 198.573 123.496 198.146 124.682C197.74 125.781 197.687 127.009 197.474 128.184C199.364 126.219 201.243 124.361 202.087 121.788C198.541 119.844 194.804 119.641 190.394 119.204ZM179.235 142.547C179.395 142.728 179.566 142.92 179.726 143.102C180.975 141.917 182.289 140.795 183.463 139.535C185.77 137.079 187.991 134.559 190.244 132.06C191.269 130.928 190.97 130.042 189.732 129.337C186.218 133.769 182.727 138.158 179.235 142.547ZM122.062 95.8604C121.913 95.7429 121.774 95.6254 121.624 95.5186C119.222 98.9144 116.819 102.3 114.438 105.706C114.075 106.219 113.754 106.795 113.584 107.382C113.487 107.703 113.605 108.333 113.84 108.461C114.235 108.696 114.822 108.792 115.271 108.685C115.602 108.61 115.922 108.173 116.093 107.831C118.101 103.848 120.076 99.8541 122.062 95.8604ZM145.096 95.4546C144.989 97.7398 144.797 99.7047 144.861 101.648C144.893 102.534 145.576 103.378 145.715 104.275C145.843 105.151 147.744 104.04 147.093 105.727C146.815 106.453 147.178 107.5 148.652 107.639C148.374 105.909 148.011 104.296 146.964 103.036C146.527 102.502 146.42 102.321 146.527 101.573C146.847 99.5124 146.377 97.5155 145.096 95.4546ZM191.942 129.327C192.807 128.003 193.565 126.849 194.313 125.696C194.056 125.568 193.619 125.28 193.576 125.322C192.754 126.315 191.953 127.33 191.205 128.376C191.173 128.44 191.526 128.803 191.942 129.327ZM71.3823 101.467C70.5173 100.922 69.8232 100.313 68.8942 100.975C68.7874 101.05 68.8088 101.328 68.7768 101.509C69.5777 101.499 70.3998 101.488 71.3823 101.467ZM169.517 157.667C169.112 158.276 168.93 158.426 168.898 158.607C168.866 158.831 168.054 159.376 169.069 159.237C169.218 159.216 169.282 158.532 169.517 157.667Z" fill="#FFE48B"/>
<path d="M148.792 23.3004C151.9 25.7565 155.477 27.7747 156.929 31.8859C157.196 31.7471 157.645 31.5228 158.125 31.2772C158.275 32.014 158.414 32.7081 158.531 33.3061C159.097 33.2314 159.567 33.1673 160.037 33.1032C159.823 33.5411 159.62 33.9682 159.311 34.5982C161.468 34.7797 163.101 35.8796 164.543 37.4173C166.155 39.1472 167.949 40.717 169.605 42.4148C170.309 43.141 171.292 43.7817 171.068 45.0418L171.164 44.9456C170.822 45.0951 169.84 44.7107 170.331 45.5543C170.801 46.3445 171.698 46.8785 172.701 47.7861C172.552 46.9425 172.488 46.5901 172.434 46.2377L172.381 46.2911C173.748 46.163 173.865 47.3376 174.314 48.1599C173.417 48.6831 173.492 49.4412 174.25 49.8043C174.976 50.1567 174.88 49.2811 175.019 48.8326C176.119 49.2704 176.482 50.1994 176.845 51.2353C177.272 52.4633 177.368 52.4313 179.269 52.3992C178.35 51.4061 178.233 50.4984 178.521 49.0675C179.044 46.5474 178.831 43.8778 178.906 41.2722C178.938 40.0549 178.916 38.8376 178.916 37.2251C179.418 37.759 179.632 37.9833 179.941 38.3143C179.664 36.5844 180.721 34.9079 179.61 33.1566C179.151 32.4412 181.34 29.9424 182.376 29.8036C182.899 29.7288 183.444 29.7288 183.967 29.7822C186.381 30.0171 188.815 30.1346 191.196 30.5618C192.852 30.8608 194.923 30.818 195.447 33.1352C195.468 33.2207 195.596 33.3275 195.681 33.3381C198.832 33.7332 197.764 36.0825 197.561 37.7804C197.315 39.82 196.91 41.9236 196.077 43.771C195.201 45.6931 195.5 47.8609 194.357 49.7082C193.973 50.3169 194.582 51.4702 194.443 52.3245C193.855 56.0192 193.3 59.7353 192.457 63.3767C191.88 65.8647 192.008 67.8296 194.069 69.6556C196.578 71.8874 198.874 74.3755 201.202 76.8102C203.722 79.4478 206.168 82.1601 208.645 84.8404C210.332 86.6664 211.998 88.5031 213.696 90.3078C214.123 90.7563 214.582 91.2795 215.127 91.4824C216.398 91.9416 216.964 93.0094 217.636 94.0132C217.636 94.4403 217.636 94.8675 217.636 95.2839C216.91 94.8248 216.045 95.679 216.013 95.6576C214.198 94.6966 213.44 96.3518 212.265 97.0245C210.813 97.8574 209.254 98.5302 207.716 99.2136C203.487 101.082 199.408 103.293 194.966 104.649C194.667 104.745 194.347 104.788 193.802 104.905C193.546 103.303 192.457 102.513 191.09 101.691C189.851 100.944 189.221 99.267 188.207 98.0924C187.171 96.9071 186.007 95.8392 184.779 94.6005C185.131 97.8254 185.505 100.869 185.793 103.912C186.092 107.137 186.477 110.362 186.509 113.587C186.53 115.819 187.641 118.05 186.562 120.282C187.352 122.984 186.722 125.75 186.915 128.473C187.011 129.904 186.776 131.356 186.765 132.797C186.754 134.015 186.872 135.243 186.915 136.46C186.936 137.09 187.064 137.742 186.925 138.34C186.114 142.002 186.68 145.644 187.149 149.253C187.705 153.535 188.345 157.785 188.399 162.12C188.431 165.121 189.05 168.111 189.317 171.122C189.67 175.031 189.936 178.95 190.267 182.869C190.663 187.492 191.09 192.116 191.517 196.74C191.912 201.033 192.382 205.315 192.724 209.618C192.862 211.38 192.894 213.164 192.734 214.915C192.531 217.136 190.737 218.684 188.463 218.716C187.107 218.738 185.473 218.951 184.48 218.289C183.658 217.745 183.668 216.025 183.145 214.893C182.718 213.964 182.75 213.196 182.942 212.192C183.252 210.569 183.316 208.828 183.113 207.184C182.728 203.873 182.825 200.552 182.6 197.242C182.291 192.543 181.746 187.856 181.404 183.146C181.255 181.032 181.415 178.907 181.319 176.782C181.223 174.796 180.934 172.82 180.817 170.834C180.721 169.168 180.732 167.502 180.7 165.837C180.614 161.437 180.913 157.027 180.187 152.649C180.059 151.89 180.753 150.983 180.582 150.257C179.877 147.117 180.849 143.956 180.176 140.785C179.792 138.948 180.411 136.919 180.465 134.965C180.507 133.523 180.347 132.082 180.294 130.64C180.208 128.163 180.08 125.675 180.07 123.197C180.038 117.41 180.144 111.611 180.005 105.824C179.952 103.453 180.411 101.05 179.685 98.6904C179.343 97.5798 179.45 96.3304 179.098 95.2199C178.393 92.9667 180.55 91.3009 180.198 89.1545C180.144 88.8021 180.208 88.3643 180.027 88.1187C178.596 86.1645 177.261 84.1356 175.627 82.363C174.218 80.836 172.499 79.5866 170.865 78.2731C167.565 75.6142 164.575 72.6669 162.002 69.2925C161.553 68.7052 160.966 68.2247 160.475 67.6801C157.485 64.4125 154.431 61.1876 151.537 57.8452C148.803 54.6951 146.219 51.4275 143.592 48.1812C142.866 47.2842 142.15 46.3445 141.563 45.3514C138.925 40.8771 135.562 37.0009 131.888 33.3702C129.699 31.2025 127.467 29.0775 125.439 26.7709C123.452 24.5178 121.69 22.0617 119.758 19.595C116.063 22.019 112.261 24.4217 108.556 26.9631C104.765 29.5687 101.081 32.313 97.3222 34.972C95.8699 35.9971 94.4496 37.1076 92.8585 37.8872C87.7435 40.4073 83.1518 43.6749 78.7095 47.2095C76.0079 49.3665 73.3383 51.577 70.4872 53.5098C68.1699 55.0795 65.5644 56.2221 63.1618 57.685C61.9551 58.4112 60.9299 59.4363 59.8087 60.312C58.1642 61.604 56.477 62.8427 54.8539 64.1669C53.487 65.2774 52.6648 66.6336 52.5794 68.513C52.5153 69.9546 52.2162 71.4496 51.725 72.8165C50.1553 77.1946 49.4506 81.733 48.8633 86.3034C48.7885 86.9227 48.8205 87.6168 48.5429 88.14C47.4003 90.233 47.3575 92.5716 46.9304 94.8248C46.6528 96.2557 46.3538 97.6759 46.0441 99.0961C45.916 99.7048 45.6811 100.303 45.6384 100.922C45.3821 104.158 45.2006 107.383 43.9191 110.447C43.6522 111.088 43.7376 111.91 43.7482 112.647C43.7696 114.025 43.855 115.402 43.0434 116.641C42.926 116.822 42.7125 117.036 42.7552 117.196C43.2891 119.428 41.8902 121.361 41.7941 123.518C41.7087 125.483 41.3884 127.458 41.0039 129.391C40.2351 133.257 39.5836 137.122 39.1885 141.063C38.7827 145.067 37.4906 148.986 36.4975 152.916C35.387 157.315 33.9668 161.651 33.0912 166.093C32.6213 168.474 32.0767 170.781 31.3506 173.098C30.7205 175.073 30.5496 177.23 30.3788 179.313C29.9944 183.905 28.3713 188.283 28.0403 192.896C27.8587 195.501 27.4956 198.107 27.0685 200.691C26.8656 201.908 26.3851 203.094 25.8939 204.236C25.3172 205.582 24.196 205.956 22.7864 205.678C22.5835 205.635 22.2098 205.817 22.135 205.988C21.9001 206.554 21.9321 207.301 21.0458 207.301C19.8819 207.29 18.7179 207.29 17.5539 207.205C17.3511 207.194 17.1268 206.799 17.0093 206.532C16.2939 204.824 16.1658 203.04 16.593 201.268C17.0735 199.249 17.8636 197.285 18.2374 195.245C18.6432 193.099 18.6219 190.867 18.9636 188.71C19.3266 186.446 19.9139 184.214 20.3838 181.972C21.4089 177.07 22.3699 172.158 23.4378 167.267C24.2707 163.477 25.3386 159.739 26.1181 155.938C26.8335 152.456 27.2821 148.922 27.8694 145.409C28.3072 142.728 28.7771 140.059 29.2149 137.378C29.6207 134.89 29.9944 132.402 30.4002 129.925C31.3292 124.158 32.0661 118.381 33.3902 112.668C34.2551 108.92 35.0988 105.172 36.0812 101.445C37.4801 96.1062 38.8362 90.7669 40.171 85.417C41.1748 81.3913 42.1038 77.3441 43.2143 72.7203C41.3456 74.2687 40.0002 75.5608 38.4838 76.5859C35.6434 78.5294 32.6961 80.3234 29.7916 82.1921C28.649 82.9289 27.581 83.7832 26.3851 84.4239C24.2921 85.5559 22.1671 86.6557 19.9887 87.6168C17.3938 88.7594 13.9874 87.6702 12.6739 85.1287C11.5847 83.0144 10.2285 81.6262 7.79381 81.1243C6.65121 80.8893 5.67956 79.8536 4.67578 79.2128C5.43395 77.547 6.12809 75.8491 6.98237 74.2473C7.37747 73.5105 7.9861 72.7951 8.66952 72.3145C13.0263 69.2498 17.2015 65.9288 21.9535 63.4194C25.6482 61.4759 29.1722 59.1907 32.6107 56.8094C35.8783 54.5455 38.8895 51.8866 42.1037 49.5374C44.8908 47.4978 47.8061 45.629 50.6893 43.7283C57.1604 39.4676 63.6315 35.2069 70.1454 31.0102C74.9827 27.8921 80.1298 25.3079 85.1594 22.5102C88.0212 20.9191 91.2248 19.6911 93.4566 17.0535C93.6274 16.8506 94.1293 16.9788 94.3963 16.8186C95.0583 16.4128 96.4145 16.9254 96.2864 15.409C96.2757 15.2488 96.7027 14.9712 96.959 14.8858C100.269 13.7539 102.907 11.4152 105.972 9.84551C109.325 8.12628 112.688 6.41777 115.999 4.6131C117.173 3.9724 118.209 3.0647 119.33 2.31721C119.651 2.10364 120.057 2.00755 120.42 1.86873C120.409 2.18909 120.27 2.73369 120.398 2.80844C120.954 3.1288 121.851 2.54147 121.979 1.79397C122.075 1.22802 122.043 0.630016 122.064 0.0533793C123.036 0.149485 124.243 -0.0961114 124.926 0.395098C126.09 1.2387 126.667 0.384425 127.446 0C128.3 0.320354 127.094 2.56279 129.229 1.82598C129.571 1.70851 130.447 2.84044 130.938 3.5025C132.39 5.4353 133.65 7.50696 135.209 9.34366C137.089 11.5434 139.192 13.5509 141.211 15.6332C141.499 15.9322 141.926 16.1245 142.14 16.4662C143.197 18.1854 144.521 19.5523 146.294 20.6094C147.329 21.2288 148.024 22.4248 148.878 23.3538C147.97 23.6314 148.034 24.1119 148.611 24.6672C148.75 24.7954 148.974 24.8274 149.155 24.9022C149.059 24.4644 148.963 24.0265 148.856 23.578C148.846 23.5033 148.824 23.3965 148.792 23.3004ZM188.356 50.114C188.175 50.1888 187.865 50.2315 187.844 50.3382C187.267 53.2214 186.06 55.9872 186.092 58.9985C186.092 58.9985 186.925 61.1555 186.85 60.9526C187.064 59.9168 187.384 58.7102 187.534 57.4928C187.833 55.0154 188.036 52.5381 188.281 50.0607C189.659 47.3056 189.691 44.2088 190.631 41.315C189.83 42.2867 189.178 43.2051 188.869 44.5078C188.42 46.3872 188.313 48.2239 188.356 50.114ZM141.435 33.6799C143.047 35.7728 144.083 38.1755 147.191 39.5744C145.792 37.428 144.66 35.9544 143.827 34.3312C143.261 33.21 142.545 33.5517 141.435 33.6799ZM191.997 33.8721C191.88 33.8827 191.773 33.8828 191.656 33.8934C191.656 35.1642 191.656 36.4456 191.656 37.7163C191.773 37.7163 191.88 37.7163 191.997 37.7163C191.997 36.4243 191.997 35.1535 191.997 33.8721ZM186.242 32.3771C186.124 32.3771 186.007 32.3771 185.889 32.3771C185.889 33.3168 185.889 34.2565 185.889 35.1962C186.007 35.1962 186.124 35.1962 186.242 35.1962C186.242 34.2565 186.242 33.3168 186.242 32.3771ZM191.068 40.717C191.314 40.1831 191.506 39.9802 191.463 39.82C191.399 39.5317 191.207 39.2861 191.068 39.0191C191.068 39.4676 191.068 39.9161 191.068 40.717ZM195.617 40.7276C195.532 41.0586 195.415 41.3256 195.393 41.6033C195.382 41.7848 195.511 41.9663 195.564 42.1479C195.692 41.8489 195.852 41.5606 195.916 41.2509C195.948 41.1335 195.767 40.9625 195.617 40.7276Z" fill="#1D3D6C"/>
<path d="M87.0702 220.103C85.9917 219.355 85.116 218.416 83.6744 218.117C82.4143 217.86 81.7309 216.622 81.3678 215.372C80.7591 213.258 80.1932 211.144 79.5098 208.645C81.1756 208.645 82.6279 208.666 84.0695 208.634C84.849 208.623 85.18 208.922 85.212 209.734C85.2441 210.439 85.7781 210.482 86.3761 210.343C86.5683 210.3 86.8886 210.417 87.0274 210.578C88.2661 211.891 89.4835 212.062 91.0426 211.378C94.8227 209.702 98.5922 207.961 102.468 206.53C105.256 205.505 107.989 204.213 111.022 203.914C113.734 203.647 116.415 203.071 119.127 202.964C122.854 202.804 126.58 202.782 130.222 201.832C130.628 201.725 131.332 201.885 131.567 202.184C132.037 202.804 131.578 204.416 130.916 204.608C129.677 204.961 128.374 205.121 128.268 206.829C128.257 207 127.755 207.31 127.531 207.267C125.865 206.958 124.189 208.047 122.533 207.193C120.387 208.538 117.963 207.684 115.699 208.047C113.862 208.346 112.047 209.221 110.253 209.157C107.519 209.061 105.48 210.674 103.131 211.453C100.397 212.361 97.8767 213.941 95.2712 215.233C94.182 214.55 93.5199 215.554 92.7404 215.938C91.8007 216.408 90.8717 216.953 90.0708 217.625C89.2058 218.352 88.4904 219.259 87.7109 220.081C87.4973 220.103 87.2838 220.103 87.0702 220.103Z" fill="#1D3D6C"/>
<path d="M52.7517 196.346C53.702 195.919 54.5029 195.716 55.1222 195.257C57.2045 193.73 59.5965 193.089 62.0526 192.512C64.1989 192.01 66.2705 191.167 68.4169 190.676C73.4678 189.533 78.5507 188.22 83.7511 189.021C86.079 189.384 88.2896 190.494 90.5427 191.316C91.2155 191.562 91.8242 192 92.5396 192.395C91.995 193.292 91.6532 194.434 90.201 193.591C90.1049 193.538 89.9553 193.441 89.9126 193.473C89.5389 193.772 89.2186 194.296 88.8128 194.349C88.5459 194.392 88.9195 193.089 87.8944 193.452C87.4032 193.623 86.9121 193.858 86.4102 193.922C85.7908 193.997 85.1287 193.986 84.5094 193.869C84.0075 193.772 83.3774 193.164 83.0891 193.313C80.8146 194.488 78.3159 192.801 75.9987 194.018C74.7493 194.68 73.1795 194.851 71.7379 194.99C71.1292 195.054 70.7555 194.808 70.3177 195.556C70.0614 195.994 68.6411 196.613 69.0896 194.84C68.6091 194.83 68.1286 194.808 67.6481 194.798C68.0004 195.716 67.3384 195.983 66.6977 196.239C64.3057 197.179 61.9137 198.119 59.5111 199.026C56.6813 200.094 53.8729 201.194 52.0468 203.832C51.5236 204.59 51.0004 205.028 49.9432 204.451C49.3773 204.141 48.5016 204.398 47.6473 204.398C47.6366 204.173 47.6473 203.757 47.5939 203.351C47.5298 202.903 47.7113 202.539 46.793 202.507C45.1058 202.443 44.1555 201.301 44.038 199.453C43.9526 198.129 42.9809 196.602 43.408 195.577C44.006 194.125 43.2158 193.132 43.109 191.946C42.8954 189.533 44.5079 188.305 46.0883 187.098C46.398 186.853 47.4124 187.088 47.7755 187.44C48.854 188.465 49.6656 189.779 50.7655 190.772C52.3779 192.256 52.9973 194.018 52.7517 196.346Z" fill="#1D3D6C"/>
<path d="M125.971 186.681C126.932 185.143 127.765 183.83 128.576 182.516C128.662 182.378 128.768 182.089 128.736 182.068C128.202 181.726 127.519 181.385 128.213 180.669C129.067 179.793 129.922 178.864 130.958 178.266C131.726 177.818 132.175 179.441 133.371 179.057C133.787 178.918 134.663 179.922 135.539 179.313C135.677 179.217 135.966 179.27 136.147 179.345C136.959 179.665 138.037 180.53 138.507 180.274C140.611 179.131 142.725 177.871 144.509 176.28C147.082 173.984 149.634 171.56 151.706 168.816C153.564 166.36 156.191 165.089 158.455 163.274C158.7 163.071 159.458 163.039 159.522 163.167C159.854 163.765 160.088 164.438 160.195 165.121C160.227 165.313 159.672 165.837 159.469 165.805C158.647 165.644 158.22 165.655 158.647 166.659C158.732 166.872 158.69 167.246 158.551 167.438C157.066 169.574 155.571 171.71 154.034 173.813C150.061 179.259 144.882 183.285 139.041 186.542C137.322 187.503 135.378 188.005 133.713 188.955C132.111 189.874 130.968 188.24 129.58 188.774C129.495 188.806 129.153 188.539 129.153 188.411C129.132 186.916 128.331 187.065 127.284 187.386C127.017 187.461 126.579 187.012 125.971 186.681Z" fill="#1D3D6C"/>
<path d="M98.9137 164.662C100.836 163.434 102.651 164.459 104.499 165.089C105.502 165.431 106.378 165.676 106.068 167.246C105.919 168.026 106.89 169.008 107.286 169.937C107.51 170.46 107.82 171.475 107.691 171.539C106.431 172.222 108.204 174.048 106.389 174.593C105.406 174.892 104.627 175.885 103.548 176.718C103.036 176.451 102.309 176.045 101.562 175.703C100.857 175.372 100.184 174.657 99.2981 175.362C99.2554 175.404 98.9457 175.116 98.7642 174.988C99.6932 173.781 98.4331 173.781 97.8992 173.29C95.7528 171.315 94.5248 168.666 93.5638 166.05C92.2824 162.548 91.3 158.874 90.67 155.19C89.9545 150.972 88.5662 146.818 88.9827 142.44C89.0361 141.917 88.94 141.351 89.1108 140.87C89.2283 140.529 89.6341 140.144 89.9758 140.069C90.2108 140.016 90.6271 140.411 90.8407 140.699C92.6347 143.081 93.2114 145.975 94.2365 148.687C94.386 149.082 94.6209 149.477 94.6209 149.872C94.6103 153.834 96.1586 157.422 97.2905 161.106C97.6536 162.291 98.3157 163.38 98.9137 164.662Z" fill="#1D3D6C"/>
<path d="M142.91 134.111C144.49 134.699 144.992 135.649 145.045 137.091C145.195 141.319 148.868 143.284 152.552 141.127C153.449 140.604 154.144 139.76 154.987 139.13C155.276 138.917 155.863 138.724 156.055 138.874C156.322 139.077 156.568 139.685 156.45 139.974C155.98 141.106 155.532 142.323 154.784 143.263C152.478 146.157 149.306 147.096 145.729 146.669C145.184 146.605 144.64 146.071 144.202 145.644C142.963 144.416 141.885 142.761 141.714 142.142C140.956 139.354 141.287 136.728 142.91 134.111Z" fill="#1D3D6C"/>
<path d="M110.499 124.147C110.777 124.19 111.086 124.201 111.385 124.276C113.297 124.767 113.286 124.777 113.318 126.87C113.318 127.159 113.575 127.522 113.468 127.725C112.795 129.006 113.318 130.202 114.258 130.779C115.198 131.355 116.532 131.163 117.515 130.352C118.636 129.423 119.704 128.44 120.772 127.447C121.146 127.105 121.402 126.636 121.797 126.315C122.352 125.867 122.918 126.166 123.014 126.732C124.146 133.267 117.995 136.438 113.617 135.136C109.784 133.993 109.485 132.316 109.837 128.814C109.997 127.266 109.186 125.589 110.499 124.147Z" fill="#1D3D6C"/>
<path d="M131.193 129.274C134.312 129.039 134.611 129.285 134.28 132.072C134.173 132.98 133.863 133.877 133.521 134.731C133.148 135.671 132.4 136.461 132.752 137.646C133.019 138.532 132.155 138.02 131.888 138.212C131.065 138.81 131.631 140.124 130.745 140.764C130.969 143.69 128.994 145.634 127.68 147.951C126.484 146.541 124.936 145.473 125.192 143.412C125.299 142.526 125.117 141.544 125.448 140.754C126.196 138.981 126.655 137.059 128.129 135.607C129.111 134.635 129.165 133.012 130.595 132.136C131.161 131.784 131.012 130.246 131.193 129.274Z" fill="#1D3D6C"/>
<path d="M132.348 156.843C129.817 159.118 127.201 160.474 123.848 159.865C123.336 159.769 122.812 159.63 122.289 159.62C120.954 159.598 120.303 159.032 119.673 157.74C118.936 156.213 117.505 155.017 116.395 153.651C115.626 152.7 115.722 151.835 116.715 151.814C118.114 151.793 119.385 151.056 121.018 151.76C123.271 152.722 125.236 154.334 127.81 154.697C129.305 154.911 130.661 156.011 132.348 156.843Z" fill="#1D3D6C"/>
<path d="M171.068 45.0424C172.008 44.9249 172.521 45.2559 172.371 46.281L172.425 46.2277C172.008 45.8005 171.581 45.3627 171.165 44.9355L171.068 45.0424Z" fill="#1D3D6C"/>
</g>
<defs>
<filter id="filter0_d_3497_34040" x="0.675781" y="0" width="220.961" height="228.103" filterUnits="userSpaceOnUse" color-interpolation-filters="sRGB">
<feFlood flood-opacity="0" result="BackgroundImageFix"/>
<feColorMatrix in="SourceAlpha" type="matrix" values="0 0 0 0 0 0 0 0 0 0 0 0 0 0 0 0 0 0 127 0" result="hardAlpha"/>
<feOffset dy="4"/>
<feGaussianBlur stdDeviation="2"/>
<feComposite in2="hardAlpha" operator="out"/>
<feColorMatrix type="matrix" values="0 0 0 0 0 0 0 0 0 0 0 0 0 0 0 0 0 0 0.25 0"/>
<feBlend mode="normal" in2="BackgroundImageFix" result="effect1_dropShadow_3497_34040"/>
<feBlend mode="normal" in="SourceGraphic" in2="effect1_dropShadow_3497_34040" result="shape"/>
</filter>
</defs>
</svg>
