<svg width="30" height="30" viewBox="0 0 30 30" fill="none" xmlns="http://www.w3.org/2000/svg">
<circle cx="14.6758" cy="15" r="13.75" stroke="#1D3D6C" stroke-width="1.5"/>
<path d="M16.406 5.33301C16.4766 5.536 16.5809 5.74251 16.6179 5.95951C16.665 6.229 16.7289 6.432 16.9846 6.58949C17.1428 6.68749 17.2841 6.96749 17.2807 7.15998C17.2605 7.97897 17.4826 8.76294 17.5263 9.57142C17.5364 9.75342 17.7518 9.93892 17.4591 10.0754C17.4389 10.0859 17.4254 10.1769 17.4322 10.1804C17.9065 10.4359 17.7686 10.9259 17.8392 11.3354C17.9065 11.7239 18.068 11.9129 18.3877 11.7799C18.8789 11.5769 19.3735 11.6469 19.8647 11.6224C20.2583 11.6049 20.6385 11.6014 20.9951 11.3914C21.1701 11.2864 21.7824 11.4264 21.8935 11.5734C21.9305 11.6224 21.9372 11.7274 21.9103 11.7869C21.843 11.9444 21.7723 12.1124 21.6647 12.2384C21.4729 12.4624 21.3888 12.7109 21.308 13.0014C21.197 13.4109 20.9615 13.8028 20.5779 14.0198C20.1776 14.2438 19.9185 14.5868 19.831 15.0208C19.6796 15.7523 19.2893 16.3333 18.8486 16.8863C18.6837 17.0928 18.7275 17.1768 18.8755 17.3588C18.9697 17.4708 18.8856 17.7263 18.9562 17.8768C19.0336 18.0378 19.2557 18.1323 19.3196 18.2968C19.4374 18.6083 19.4946 18.9478 19.5686 19.2803C19.7301 20.0187 19.9622 20.7467 19.8848 21.5272C19.8747 21.6497 19.9824 21.7827 20.0329 21.9122C20.0834 22.0417 20.1675 22.1712 20.1675 22.3007C20.1641 22.5212 20.1775 22.8397 20.0531 22.9342C19.868 23.0777 19.5955 23.0357 19.3835 22.8012C19.286 22.6927 19.0336 22.7417 18.9226 22.6367C18.7376 22.4652 18.5962 22.4652 18.4078 22.5947C18.3876 22.6087 18.2867 22.4967 18.2228 22.4477C18.0007 22.2727 17.7955 22.0592 17.5499 21.9297C17.1462 21.7197 16.8568 21.4572 16.9308 20.9497C16.6617 20.9252 16.4901 21.1282 16.2243 20.8482C15.8071 20.4037 15.2317 20.1202 14.754 19.7912C14.0273 20.7747 13.3073 21.7827 12.5503 22.7592C12.3148 23.0637 11.9817 23.2877 11.6957 23.5537C11.403 23.8267 11.0732 23.9177 10.6796 23.8267C10.6258 23.6727 10.6056 23.4907 10.5114 23.3612C10.1514 22.8782 10.1682 22.3147 10.2691 21.7862C10.508 20.5262 10.6527 19.2663 10.5854 17.9853C10.5786 17.8733 10.5921 17.7368 10.6493 17.6528C10.8041 17.4218 10.619 17.3133 10.5013 17.2398C9.98313 16.9108 9.44147 16.6238 8.92671 16.2913C8.27063 15.8678 7.63137 15.4163 6.98875 14.9648C6.87773 14.8878 6.78686 14.7618 6.71284 14.6393C6.57826 14.4188 6.57827 14.2123 6.80369 14.0373C7.45977 13.5228 8.13939 13.0714 8.94687 12.8264C9.5222 12.6514 10.0639 12.3609 10.6291 12.1579C10.9084 12.0564 11.2314 12.0669 11.5072 11.9584C11.8302 11.8254 12.3147 11.8919 12.3551 11.3214C12.3585 11.2689 12.5099 11.2304 12.594 11.1849C12.6445 11.1569 12.6949 11.1254 12.7454 11.0974C12.4022 10.6704 12.843 10.4009 12.9843 10.1349C13.4856 9.18645 14.0508 8.26945 14.6261 7.36296C14.9088 6.91497 15.3764 6.56149 15.5547 6.0855C15.7331 5.63051 15.9652 5.43801 16.406 5.33301Z" fill="#1D3D6C"/>
</svg>
