<svg width="171" height="109" viewBox="0 0 171 109" fill="none" xmlns="http://www.w3.org/2000/svg">
<path d="M23.4064 21.29C23.5566 21.0383 23.7081 20.7843 23.8583 20.5326C24.3906 20.6052 24.3182 20.0076 24.5992 19.8164C24.8788 19.6276 25.3306 19.5602 25.455 19.3227C25.7895 18.6896 26.332 18.5907 26.8535 18.4547C27.6919 18.2361 28.5393 18.0701 29.383 17.8956C29.9648 17.7743 30.5513 17.6113 31.1301 17.577C31.5112 17.5557 31.8767 17.7631 32.2605 17.8097C32.6478 17.8551 33.0622 17.7828 33.4461 17.8389C33.8715 17.9025 34.2774 18.047 34.6854 18.1736C35.0366 18.2844 35.5715 18.3141 35.6793 18.5675C35.9103 19.1018 36.4 18.7296 36.7176 18.945C37.2181 19.288 37.6128 19.7649 38.1216 20.065C39.4682 20.8617 40.5556 21.9093 41.4093 23.2378C41.7057 23.701 42.0891 24.1052 42.4731 24.4939C42.6009 24.6222 42.9106 24.7351 43.0412 24.6561C43.348 24.4698 43.8358 24.125 43.8278 23.9116C43.7774 22.6646 45.2468 22.7005 45.5225 21.7655C45.5316 21.7358 45.7745 21.7195 45.8887 21.7548C46.0553 21.8036 46.2639 22.0183 46.3517 21.9629C46.9589 21.5867 47.148 21.6797 46.9431 22.3946C46.8927 22.5659 46.9378 22.7557 46.9408 22.9822C47.2802 22.9344 47.6445 22.7675 47.861 22.8726C48.8031 23.3389 49.808 23.7578 50.5903 24.4292C51.6922 25.3804 52.8648 26.2129 54.0865 26.9872C54.3809 27.1739 54.7629 27.2765 54.9747 27.5342C56.2136 29.0178 57.9985 29.7744 59.4596 30.9675C60.4933 31.811 61.4028 32.718 62.0319 33.9211C62.2761 34.3899 62.5592 34.8077 63.0704 35.0363C63.8253 35.3726 64.338 36.0136 64.8477 36.6498C65.0408 36.8907 65.1547 36.9891 64.8165 37.4017C64.258 38.0773 64.5401 38.6465 65.3211 38.8233C65.8616 38.9448 66.4007 39.0687 66.9307 39.2224C68.6493 39.7235 70.3419 40.3115 72.0892 40.7211C73.2148 40.9859 74.28 41.4291 75.4315 41.5976C77.6059 41.9134 79.7009 42.5457 81.9444 42.5962C82.2455 42.603 82.5758 42.8983 82.808 42.7938C83.491 42.4884 83.3938 43.1433 83.6108 43.5273C84.3403 42.3045 84.9869 41.2158 85.64 40.1308C85.7901 39.8791 85.9235 39.4819 86.1201 39.4176C87.016 39.1268 87.3794 38.1173 88.2369 37.7606C88.6763 37.5788 89.1415 37.1897 89.4109 36.7767C89.898 36.0326 90.5129 35.6291 91.269 35.2253C92.3606 34.6449 93.3933 34.2309 94.5592 34.4233C94.7766 34.4593 95.0527 34.2716 95.3022 34.1863C95.531 34.3141 95.7619 34.4431 95.9907 34.571C95.8745 34.6548 95.7583 34.7387 95.6421 34.8225C95.7294 34.9125 95.8289 35.0979 95.9055 35.0805C96.2718 34.9971 96.5091 35.1012 96.6647 35.4192C96.8908 35.8748 97.0693 36.3765 97.3808 36.7564C97.7452 37.1974 97.6609 37.7487 97.7877 38.2501C98.0518 39.303 98.0829 40.3556 97.7007 41.44C97.3607 42.4056 96.9661 43.3564 96.6074 44.3147C96.2804 45.1862 96.0604 46.1048 95.6291 46.9243C95.202 47.7367 94.8875 48.5678 94.7037 49.4211C94.6225 49.7936 94.0363 50.1056 94.4285 50.5337C93.8265 51.5428 93.2231 52.5542 92.6211 53.5633C92.2443 53.4858 92.1571 53.8296 92.0233 54.0588C91.1693 55.5096 89.7108 56.5023 88.9994 58.0613C87.9914 58.9069 86.9854 59.7536 85.9723 60.5932C85.8989 60.6535 85.7035 60.6867 85.7013 60.676C85.5039 60.0275 85.0476 60.4691 84.6854 60.5263C84.5945 60.5388 84.5029 60.5668 84.4135 60.5865L82.8148 59.6046C82.496 59.015 82.16 58.4252 82.2142 57.683C82.2797 56.811 81.8387 56.1753 81.5206 55.4783C81.3866 55.1819 80.901 55.0214 81.183 54.5679C81.538 53.997 80.8675 53.8377 80.9211 53.4054C80.9441 53.222 80.988 53.0375 80.9946 52.8576C81.0102 52.5371 81.0444 52.2048 81.0014 51.8959C80.8706 50.9332 80.9628 49.9875 81.4643 49.0552C80.8036 49.0723 80.2291 49.0077 79.666 48.7311C79.0669 48.4376 78.3687 48.3102 77.6934 48.183C75.3303 47.7396 72.9485 47.3902 70.5191 47.1979C68.3535 47.0263 66.2136 46.7298 63.9774 46.7973C63.9222 47.6086 63.8719 48.3973 63.4784 49.2063C63.2298 49.7196 63.3355 50.377 63.2624 50.9724C63.0327 52.8385 62.4144 54.6806 62.3532 56.5585C62.3457 56.8171 62.0711 57.1037 62.0793 57.3552C62.0878 57.7367 61.9976 58.0662 61.8992 58.4386C61.7366 59.0537 61.5293 59.7293 61.5254 60.3002C61.5192 61.1356 61.2654 61.8264 61.0021 62.6005C60.8351 63.0929 60.5595 63.5404 60.4168 64.04C60.0211 65.4366 59.7719 66.8866 58.8412 68.1236C58.7602 68.2303 58.6854 68.3943 58.6963 68.5112C58.7524 69.1504 58.2156 69.5437 57.9806 70.0582C57.814 70.4242 57.4396 70.5791 57.1705 70.4319C56.5964 70.1207 56.4695 70.6132 56.2339 70.9502C56.1584 70.908 56.0807 70.8645 56.0051 70.8223C56.2134 70.2802 55.9337 70.0448 55.5192 69.905C54.994 69.7287 54.4639 69.556 53.9318 69.4011C53.8808 69.3853 53.7862 69.4908 53.7106 69.5403C51.8736 68.514 50.0367 67.4877 48.1998 66.4614C47.9691 65.8639 47.4769 65.589 46.8226 65.6919C44.6792 64.4943 42.5379 63.298 40.3944 62.1004C40.3656 61.9798 40.3786 61.794 40.3031 61.7518C38.4624 60.698 36.611 59.6573 34.7561 58.6273C34.6935 58.5923 34.5374 58.714 34.4239 58.7645C33.582 58.2942 32.7402 57.8238 31.8983 57.3535C32.3844 56.7703 31.7338 56.5873 31.6344 56.2088C30.8315 56.3775 30.4074 55.6024 29.6927 55.5703C28.9299 55.5367 28.2858 55.1547 27.8716 54.6573C27.3317 54.0138 26.6354 53.6564 25.9242 53.411C25.3853 53.2239 25.2219 52.9141 25.1119 52.4569C25.0727 52.2958 25.1934 52.0308 25.1125 51.9349C24.7699 51.5346 25.1369 51.4357 25.3678 51.4634C25.7638 51.5137 25.8474 51.3736 25.9092 50.9998C26.059 50.0926 26.5472 49.308 27.0801 48.5547C27.266 48.2913 27.5549 48.1014 27.7659 47.8489C27.9812 47.5893 28.1053 47.1932 28.3601 47.0411C28.9174 46.7099 28.0947 46.6175 28.3876 46.2809C29.0238 45.5474 29.1489 44.4934 29.9634 43.8278C30.3161 43.5405 30.7914 43.0621 30.7925 42.7177C30.7993 41.5533 32.0246 41.1204 32.2767 40.0899C32.4167 39.5128 32.9636 38.9193 33.4493 38.491C33.9514 38.0498 34.2015 37.5341 34.4813 37.0795C34.0116 36.6271 33.6261 36.2408 33.2286 35.8699C31.3817 34.1415 29.6793 32.2818 28.1761 30.2136C27.6348 29.4711 27.0869 28.7155 26.4863 28.0096C25.5295 26.883 24.7656 25.5824 24.0987 24.2158C23.6486 23.2963 23.6526 22.257 23.4064 21.29ZM36.6248 33.3322C37.6622 32.7753 37.9432 31.6723 38.5282 30.8025C38.6162 30.6744 38.5615 30.4476 38.5667 30.27C38.5942 29.2881 38.4644 28.3672 38.0055 27.5346C37.5917 26.7811 37.462 25.8792 36.9666 25.1465C36.3111 24.1757 34.9996 24.0729 34.3969 23.0618C34.3642 23.0056 34.2367 23.0167 34.1549 22.9899C33.3403 22.7343 32.5279 22.4703 31.7099 22.2254C30.9371 21.9962 30.1574 21.7885 29.2605 21.5406C29.3381 21.9702 29.4123 22.2269 29.4292 22.4928C29.4494 22.8112 29.4252 23.1364 29.4095 23.4569C29.3895 23.8668 29.2858 24.2963 29.3501 24.6805C29.4571 25.3165 29.5225 26.0463 29.8684 26.5182C30.5661 27.4715 31.4226 28.2983 32.2513 29.138C32.9306 29.8278 33.6711 30.4536 34.371 31.1232C35.133 31.8529 35.875 32.5967 36.6248 33.3322ZM93.2074 43.3806C93.5642 42.5606 93.7873 41.8779 94.1442 41.2701C94.7644 40.211 94.4819 39.2807 94.1886 38.3444C94.1483 38.2142 93.9095 38.0935 93.7663 38.1116C93.6324 38.1286 93.3924 38.3427 93.3832 38.4642C93.3358 39.1564 92.9369 39.6996 92.5855 40.2694C92.4714 40.4558 92.2406 41.3589 92.1609 41.5454C91.9798 41.9793 91.7269 42.3888 91.5444 42.825C91.4563 43.0354 91.4187 43.2866 91.4353 43.5048C91.4752 44.0843 92.1176 44.3197 92.6151 43.9392C92.8738 43.7419 93.0928 43.4907 93.2074 43.3806ZM85.5363 51.5645C85.1948 52.5229 84.8154 53.5931 85.2559 54.6686C85.3645 54.9351 85.5606 54.9972 85.7825 54.8616C86.1943 54.6104 86.5971 54.3163 86.6958 53.789C86.8312 53.07 86.9027 52.3375 87.0998 51.6308C87.2312 51.1597 86.9967 51.0414 86.7185 50.924C86.2462 50.7266 85.9392 50.8843 85.5363 51.5645ZM90.5473 48.8527C90.4269 49.0545 90.2735 49.2537 90.1841 49.476C90.022 49.873 90.2159 50.5227 90.5109 50.6938C90.8707 50.9012 91.5407 50.6899 91.8393 50.2425C91.9995 50.0028 92.1216 49.7355 92.2351 49.4728C92.3634 49.1709 92.4479 48.8509 92.5762 48.549C92.8723 47.8597 92.8077 47.5482 92.2928 47.3017C91.9707 47.147 91.3114 47.3643 91.1908 47.8415C91.078 48.3008 90.621 48.4348 90.5473 48.8527ZM87.9741 42.8468C87.8482 43.0772 87.7552 43.1994 87.7146 43.335C87.4784 44.0926 87.2229 44.8489 87.0456 45.6141C86.9802 45.8973 87.095 46.2115 87.1587 46.5004C87.2104 46.7224 87.3359 46.9318 87.6149 46.768C87.7513 46.689 87.8733 46.523 87.9468 46.3709C88.1261 45.9931 88.3313 45.6106 88.4209 45.2143C88.4973 44.874 89.1743 44.8343 88.8413 44.2589C88.7041 44.0208 89.0157 43.4889 89.0866 43.0853C89.1211 42.8925 89.1362 42.597 89.0303 42.5189C88.8898 42.4119 88.6088 42.4005 88.4172 42.4707C88.2242 42.5433 88.0674 42.7628 87.9741 42.8468ZM61.9603 38.1707C61.8659 37.9913 61.7628 37.8071 61.6705 37.6194C61.3497 36.9558 60.5456 36.8516 60.1605 36.3103C59.939 35.9966 59.7462 35.9965 59.4243 35.9909C59.1814 35.9881 58.9473 35.9269 58.9014 36.2305C58.8679 36.4556 58.8165 36.7878 59.2684 36.7395C59.6809 36.6945 59.8687 36.9008 59.7878 37.4127C59.7103 37.9044 59.7991 38.4068 59.8181 38.9683C60.5568 38.7383 61.2898 38.711 61.9603 38.1707Z" fill="#1D3D6C"/>
<path d="M98.5518 62.3274C98.7069 62.155 98.8527 62.2851 98.9456 62.3303C99.1902 62.4482 99.4009 62.6216 99.6218 62.7781C99.8189 62.9176 100.009 63.0628 100.203 63.207C100.237 63.2315 100.275 63.2523 100.303 63.2824C100.445 63.437 100.625 63.5388 100.81 63.6416C101.065 63.7849 101.3 63.9565 101.554 64.0988C101.978 64.3345 102.42 64.5419 102.834 64.7927C103.053 64.9246 103.229 65.1179 103.419 65.2904C103.73 65.5713 104.039 65.8541 104.343 66.1406C104.683 66.4602 104.934 66.8542 105.176 67.251C105.342 67.5234 105.494 67.8118 105.606 68.1144C105.692 68.3519 105.722 68.6205 105.744 68.8826C105.764 69.1201 105.762 69.3689 105.728 69.613C105.696 69.842 105.61 70.071 105.548 70.3001C105.51 70.4339 105.484 70.5696 105.434 70.7015C105.352 70.9174 105.276 71.137 105.105 71.3198C104.981 71.4527 104.874 71.6044 104.741 71.7278C104.313 72.1293 103.862 72.4808 103.287 72.6193C102.95 72.7012 102.615 72.7615 102.282 72.7859C101.933 72.8113 101.62 72.7105 101.35 72.5229C101.114 72.3569 100.863 72.2099 100.64 72.0298C100.511 71.9271 100.414 71.7829 100.322 71.6434C100.222 71.4944 100.137 71.3333 100.058 71.1693C99.9322 70.9072 99.7856 70.6518 99.7043 70.369C99.586 69.9581 99.4964 69.5321 99.4366 69.1013C99.4038 68.8647 99.4549 68.6027 99.4693 68.353C99.4889 68.0005 99.5066 67.648 99.5337 67.2955C99.5493 67.0938 99.5926 66.8893 99.6014 66.6885C99.6116 66.4539 99.6146 66.2173 99.5919 65.9883C99.5636 65.7036 99.5372 65.4124 99.4539 65.1494C99.3561 64.845 99.2133 64.5584 99.0594 64.2832C98.8846 63.9722 98.663 63.6903 98.4882 63.3793C98.3676 63.1634 98.2522 62.9381 98.3 62.6479C98.3262 62.4876 98.4205 62.3991 98.554 62.3256C98.5553 62.3293 98.5555 62.334 98.5568 62.3378C98.5544 62.335 98.5534 62.3293 98.5513 62.3246L98.5518 62.3274Z" fill="#BBD0F7"/>
<path d="M93.5921 65.0628C93.3493 65.2509 93.1084 65.4457 92.8136 65.5256C92.6088 65.5811 92.4029 65.6197 92.1958 65.6658C91.7244 65.7701 91.2673 65.7739 90.8493 65.6195C90.6117 65.5319 90.4005 65.3889 90.1805 65.2665C90.0368 65.1856 89.8737 65.1215 89.7623 65.0077C89.6014 64.842 89.4542 64.6548 89.3463 64.4496C89.1767 64.1249 89.029 63.7861 88.9011 63.4398C88.8076 63.1895 88.74 62.9232 88.6993 62.6531C88.6415 62.2786 88.5854 61.8994 88.5886 61.5126C88.5926 61.1089 88.4945 60.74 88.4401 60.3561C88.4297 60.2818 88.379 60.2197 88.3472 60.151C88.1996 59.8301 88.0646 59.4997 87.9006 59.1882C87.8038 59.0029 87.6581 58.8485 87.5397 58.6754C87.4452 58.537 87.4873 58.3648 87.5394 58.2067C87.5654 58.1286 87.6591 58.0618 87.7215 57.9913C87.7481 57.9828 87.7863 57.9725 87.8232 57.9583C88.0136 57.8859 88.193 57.8737 88.3589 57.9631C88.4449 58.0092 88.5401 58.0375 88.6286 58.0798C88.8271 58.1768 89.0253 58.2756 89.2201 58.3792C89.4877 58.5222 89.7517 58.67 90.0166 58.8187C90.2494 58.9495 90.4717 59.0945 90.7108 59.215C91.1008 59.4117 91.5053 59.5877 91.8967 59.7816C92.171 59.9172 92.4351 60.0715 92.7056 60.2136C92.8266 60.2767 92.9607 60.3219 93.0789 60.3906C93.3683 60.5572 93.6461 60.7323 93.8652 60.9911C94.0842 61.2499 94.2738 61.5294 94.3858 61.8503C94.4841 62.1373 94.5338 62.4535 94.5567 62.7668C94.574 63.0115 94.5204 63.2722 94.4883 63.5272C94.4509 63.8226 94.2752 64.0833 94.1343 64.3496C94.024 64.5566 93.9 64.7607 93.7026 64.916C93.6567 64.9527 93.6277 65.0138 93.591 65.0637C93.5946 65.0524 93.5993 65.0402 93.6036 65.0298C93.598 65.0298 93.5943 65.0298 93.5886 65.0298C93.5907 65.0411 93.5916 65.0534 93.5937 65.0646L93.5921 65.0628Z" fill="#BBD0F7"/>
<path d="M106.431 60.8978C106.348 60.9702 106.269 61.0501 106.181 61.114C105.865 61.3425 105.52 61.4562 105.164 61.4392C104.847 61.4251 104.534 61.3799 104.222 61.3413C103.826 61.2924 103.515 61.0958 103.25 60.841C103.11 60.7065 102.995 60.542 102.893 60.3746C102.729 60.1028 102.627 59.801 102.572 59.4738C102.529 59.2209 102.426 58.9867 102.368 58.7366C102.329 58.5636 102.333 58.3737 102.294 58.2007C102.232 57.9374 102.161 57.6779 102.075 57.425C101.994 57.188 101.903 56.9539 101.788 56.7358C101.709 56.5872 101.586 56.4659 101.476 56.338C101.345 56.1838 101.35 55.8397 101.522 55.6902C101.611 55.6131 101.75 55.5953 101.867 55.5539C102.117 55.4665 102.28 55.6235 102.482 55.6819C102.853 55.7882 103.237 55.8663 103.61 55.966C103.683 55.9857 103.732 56.0638 103.804 56.091C104.083 56.1992 104.375 56.2848 104.649 56.4042C104.86 56.4964 105.056 56.6206 105.25 56.7419C105.426 56.8519 105.573 57.0165 105.768 57.0832C105.954 57.1472 106.109 57.2356 106.24 57.3635C106.384 57.5027 106.538 57.6418 106.642 57.812C106.79 58.0509 106.943 58.3001 107.011 58.5765C107.125 59.0325 107.171 59.5196 107.019 60.016C106.937 60.2867 106.776 60.5453 106.554 60.7587C106.508 60.8019 106.468 60.8527 106.426 60.9006L106.427 60.8997L106.431 60.8978Z" fill="#BBD0F7"/>
<mask id="mask0_2688_32621" style="mask-type:alpha" maskUnits="userSpaceOnUse" x="74" y="63" width="97" height="46">
<path d="M128.225 93.679C128.481 95.9831 129.334 98.0346 130.002 100.101C130.941 100.26 131.758 100.196 132.558 99.8974C132.734 99.8304 132.915 99.6904 133.085 99.7057C133.712 99.7635 134.108 99.5078 134.353 98.9265C134.424 98.756 134.6 98.6312 134.725 98.4821C134.973 98.1807 135.447 97.9585 135.083 97.4381C135.298 97.0302 135.516 96.6193 135.727 96.2084C136.043 95.5996 136.44 95.0457 136.741 94.4156C137.233 93.3898 137.988 92.4828 138.721 91.6001C139.335 90.8574 139.944 90.133 140.307 89.2229C140.367 89.0738 140.534 88.9703 140.647 88.8425C140.823 88.6477 140.993 88.4529 141.166 88.255C142.502 89.4512 144.097 90.4252 145.365 91.798C146.602 93.1372 147.792 94.5221 149.041 95.9283C149.232 95.6696 149.441 95.4413 149.59 95.1796C150.687 93.2224 151.886 91.3323 153.013 89.3964C153.275 88.946 153.869 88.6903 153.824 88.0328C153.818 87.9293 154.149 88.2855 154.203 87.908C154.224 87.7558 153.881 87.5823 154.221 87.4636C154.465 87.3815 154.713 87.3145 155.008 87.2293C155.127 87.5245 155.3 87.7985 155.342 88.0937C155.416 88.6233 155.619 89.019 156.048 89.3477C156.263 89.5121 156.397 89.8256 156.499 90.0995C156.71 90.6748 156.862 91.2744 157.062 91.8558C157.137 92.0689 157.232 92.3276 157.399 92.4493C158.133 92.985 158.252 93.8068 158.341 94.5982C158.413 95.2344 158.705 95.694 159.117 96.1049C159.686 96.671 159.823 96.6497 160.464 96.1049C160.745 95.8675 161.076 95.6909 161.377 95.4779C162.585 94.6195 163.736 93.6607 165.012 92.9211C166.434 92.0932 167.967 91.4631 169.452 90.7448C169.693 90.6261 169.935 90.5044 170.164 90.3643C170.433 90.203 170.63 90.343 170.737 90.5531C170.925 90.9183 171.083 91.2562 170.874 91.734C170.096 93.5116 169.38 95.3196 168.644 97.1185C168.438 97.6207 168.274 98.1472 168.023 98.6282C167.749 99.1578 167.582 99.6265 167.925 100.217C168.086 100.491 168.062 100.899 168.056 101.243C168.029 102.682 167.964 104.122 167.946 105.562C167.94 106 168.062 106.435 168.083 106.877C168.104 107.3 167.988 107.717 168.253 108.128C168.357 108.289 168.271 108.578 168.271 108.8C167.29 108.995 77.7995 109.083 74.6417 108.898C74.1855 108.286 74.1915 107.601 74.3346 106.895C74.8981 106.661 74.5851 106.289 74.4747 105.951C74.3346 105.513 74.0781 105.078 74.0752 104.64C74.0632 103.239 73.8426 101.83 74.2183 100.439C74.2869 100.18 74.2451 99.8944 74.26 99.6204C74.3107 98.5977 74.3883 97.5781 74.4032 96.5554C74.4091 96.2236 74.2958 95.8736 74.1706 95.5601C73.9678 95.0487 74.0573 94.6287 74.266 94.1203C74.7103 93.0246 75.1188 91.8954 75.3633 90.7387C75.5094 90.0417 75.8255 89.576 76.395 89.1042C76.7648 89.6217 77.1464 90.13 77.4983 90.6565C77.6414 90.8696 77.6742 91.1801 77.8472 91.3475C77.9545 91.451 78.2676 91.311 78.4256 91.3962C78.6105 91.4997 78.7596 91.7097 78.8729 91.9075C79.5558 93.1129 80.3728 94.233 81.1331 95.3805C81.9233 96.5675 83.0504 97.5172 84.0315 98.5734C84.6904 98.2964 85.087 97.8307 85.1109 97.2433C85.1377 96.5249 85.6566 96.2388 86.0442 95.8492C86.411 95.4809 86.4527 95.5235 86.5183 95.3561C87.1624 93.7642 88.0182 92.2789 88.7249 90.7174C88.9604 90.1939 89.2914 89.7221 89.3302 89.1042C89.3481 88.8273 89.5508 88.529 89.7357 88.3007C90.2247 87.7011 90.5467 87.765 90.8867 88.4924C90.9314 88.5898 90.9374 88.7725 90.997 88.7907C92.1241 89.1073 92.7771 90.0143 93.4779 90.8574C93.9609 91.4358 94.4917 91.9593 95.0612 92.4493C96.2152 93.4416 97.3393 94.4643 98.5142 95.5053C99.2477 94.65 99.9246 93.8068 100.405 92.8055C100.536 92.5315 100.807 92.3337 100.983 92.078C101.243 91.7006 101.663 91.3049 101.672 90.9092C101.69 90.0935 102.238 89.6917 102.701 89.0951C103.008 89.4451 103.458 89.6582 103.395 90.2487C103.392 90.2822 103.518 90.3552 103.592 90.3704C104.701 90.6261 105.137 90.9092 105.802 91.6793C106.652 92.6624 107.534 93.6181 108.405 94.583C108.974 95.2131 109.508 95.8827 110.131 96.4519C110.778 97.0424 111.509 97.5385 112.213 98.062C112.606 98.3542 113.024 98.619 113.51 98.9508C113.48 98.7256 113.516 98.4577 113.423 98.4029C112.97 98.1229 112.961 97.6176 112.872 97.2098C112.717 96.4975 112.714 95.7518 112.612 95.0243C112.329 92.9668 112.347 90.8879 112.153 88.8212C112.147 88.742 112.165 88.6568 112.141 88.5868C112.022 88.2428 111.727 87.972 111.858 87.5245C111.965 87.1623 111.941 86.7575 111.974 86.377C112.749 86.2948 113.122 86.4409 113.623 87.0132C113.662 87.0558 113.686 87.1654 113.707 87.1623C114.831 87.0314 115.409 87.8533 116.035 88.5624C116.849 89.4847 117.64 90.4283 118.424 91.3749C118.743 91.7584 119.011 92.1876 119.315 92.5863C119.798 93.2194 120.302 93.8373 120.782 94.4704C121.063 94.8387 121.313 95.2313 121.585 95.6057C121.802 95.907 122.035 96.1962 122.261 96.4914C122.309 96.5523 122.405 96.5888 122.425 96.6558C122.813 97.9555 123.982 98.4547 124.915 99.1913C125.213 99.4256 125.482 99.6965 125.825 100.004C126.081 99.6752 126.057 99.383 125.959 99.0999C125.482 97.7242 125.389 96.2906 125.33 94.8539C125.24 92.6624 125.255 90.4587 125.037 88.2824C124.766 85.5765 124.903 82.8737 124.894 80.1708C124.891 79.3977 125.079 78.6246 125.181 77.8514C125.207 77.6597 125.285 77.4679 125.27 77.2823C125.19 76.3204 124.865 75.9887 123.854 75.8882C122.595 75.7604 121.319 75.596 120.156 75.1364C118.889 74.6342 117.556 74.342 116.319 73.7667C116.113 73.6693 115.895 73.5841 115.678 73.5263C114.049 73.0971 113.376 72.4305 112.755 70.7564C112.612 70.3699 112.317 70.0168 112.022 69.7216C111.631 69.332 111.47 68.8967 111.482 68.358C111.494 67.9257 111.518 67.4905 111.473 67.0613C111.408 66.4404 111.589 65.9047 111.953 65.439C112.427 64.8302 112.934 64.2489 113.435 63.6645C113.996 63.0101 114.738 62.8914 115.505 63.0831C116.924 63.4392 118.275 63.9293 119.572 64.6872C121.128 65.5942 122.506 66.7204 123.776 67.9531C124.632 68.781 125.374 69.822 125.759 71.0121C125.902 71.4535 126.194 71.5265 126.496 71.5874C126.731 71.6361 127.05 71.1886 127.226 71.7213C127.229 71.7304 127.414 71.703 127.492 71.6543C127.942 71.3682 128.395 71.0791 128.833 70.7717C130.354 69.7063 132.06 69.2802 133.879 69.268C134.797 69.2619 135.7 69.3107 136.574 69.6881C136.872 69.8159 137.254 69.7429 137.6 69.755C138.936 69.8068 139.469 70.2816 139.622 71.5904C139.66 71.9405 139.648 72.2966 139.636 72.6497C139.622 73.1214 139.35 73.4106 138.957 73.6389C137.773 74.3298 136.491 74.9507 135.179 75.0421C133.527 75.1608 131.952 75.8669 130.271 75.6447C129.442 75.5351 128.809 76.1622 128.043 76.287C128.01 76.293 127.966 76.3265 127.954 76.357C127.608 77.2549 127.166 78.1436 127.286 79.142C127.348 79.6807 127.363 80.1799 127.277 80.7339C127.083 81.9879 126.958 83.2663 126.967 84.5325C126.973 85.6039 127.256 86.6723 127.322 87.7467C127.372 88.6294 127.441 89.4664 127.808 90.3004C128.028 90.8027 127.969 91.4388 127.998 92.0171C128.004 92.1389 127.858 92.2819 127.763 92.3945C127.375 92.8541 128.004 93.2894 127.79 93.7429C127.927 93.7277 128.07 93.7034 128.225 93.679Z" fill="#1D3D6C"/>
</mask>
<g mask="url(#mask0_2688_32621)">
<rect x="92.6484" y="46.8379" width="58.4324" height="38.5405" fill="#1D3D6C"/>
</g>
</svg>
