<svg width="390" height="606" viewBox="0 0 390 606" fill="none" xmlns="http://www.w3.org/2000/svg">
<path d="M341.5 5L390 9V30H0V5L109.5 0L150 9L195 3.5L293.5 9L341.5 5Z" fill="#E7E6E1"/>
<path d="M390 605.98H0V22.98L90.92 15.52L164.08 22.98L263.12 15L349.24 21.38L390 22.98V605.98Z" fill="#1D3D6C"/>
<mask id="mask0_3659_33055" style="mask-type:luminance" maskUnits="userSpaceOnUse" x="0" y="22" width="390" height="584">
<path d="M390 22.9805H0V605.98H390V22.9805Z" fill="white"/>
</mask>
<g mask="url(#mask0_3659_33055)">
<path d="M148.43 507.421C148.43 507.621 148.29 507.811 148.08 507.861L147.01 508.111C146.77 508.171 146.53 508.021 146.47 507.771C146.41 507.511 146.57 507.291 146.81 507.231L147.88 506.981C148.12 506.921 148.36 507.071 148.42 507.311C148.42 507.351 148.43 507.381 148.43 507.411V507.421ZM141.5 508.941C141.5 509.151 141.35 509.341 141.14 509.381C140.34 509.541 139.55 509.701 138.78 509.851C138.54 509.901 138.3 509.741 138.25 509.491C138.2 509.241 138.36 509.011 138.61 508.961C139.38 508.811 140.16 508.661 140.96 508.491C141.2 508.441 141.44 508.601 141.49 508.841C141.49 508.871 141.49 508.901 141.49 508.931L141.5 508.941ZM133.25 510.471C133.25 510.691 133.09 510.881 132.87 510.911C132.06 511.041 131.26 511.171 130.5 511.291C130.25 511.331 130.03 511.161 129.99 510.911C129.95 510.661 130.12 510.431 130.37 510.401C131.13 510.281 131.92 510.161 132.73 510.021C132.98 509.981 133.21 510.151 133.25 510.391C133.25 510.411 133.25 510.441 133.25 510.461V510.471ZM124.94 511.661C124.94 511.881 124.77 512.081 124.54 512.111C123.7 512.211 122.9 512.301 122.15 512.381C121.9 512.411 121.68 512.231 121.66 511.981C121.63 511.721 121.81 511.511 122.06 511.491C122.81 511.411 123.6 511.321 124.44 511.221C124.69 511.191 124.91 511.371 124.94 511.611C124.94 511.631 124.94 511.651 124.94 511.661ZM116.58 512.421C116.58 512.661 116.4 512.861 116.16 512.871C114.57 512.961 113.74 512.961 113.74 512.961C113.49 512.961 113.29 512.761 113.29 512.511C113.29 512.261 113.49 512.061 113.74 512.061C113.74 512.061 114.56 512.061 116.11 511.971C116.36 511.961 116.57 512.151 116.58 512.391V512.411V512.421Z" fill="#2A557F"/>
<path d="M164.281 564.561C164.281 564.781 164.121 564.971 163.901 565.001C163.651 565.041 163.431 564.871 163.391 564.621C163.161 563.061 162.911 561.491 162.651 559.931C162.611 559.681 162.771 559.451 163.021 559.411C163.261 559.371 163.501 559.531 163.541 559.781C163.811 561.351 164.061 562.921 164.291 564.491C164.291 564.511 164.291 564.531 164.291 564.551L164.281 564.561ZM161.721 550.441C161.721 550.651 161.581 550.831 161.361 550.881C161.121 550.931 160.881 550.781 160.831 550.531C160.261 547.881 159.631 545.131 158.951 542.361C158.891 542.121 159.041 541.881 159.281 541.821C159.521 541.761 159.761 541.911 159.821 542.151C160.501 544.931 161.141 547.691 161.711 550.351C161.711 550.381 161.711 550.411 161.711 550.441H161.721ZM157.401 532.971C157.401 533.171 157.271 533.351 157.071 533.401C156.831 533.471 156.581 533.331 156.521 533.091C155.781 530.431 154.991 527.721 154.171 525.041C154.101 524.801 154.231 524.551 154.471 524.481C154.711 524.411 154.961 524.541 155.031 524.781C155.851 527.471 156.641 530.191 157.381 532.851C157.391 532.891 157.401 532.931 157.401 532.971ZM152.121 515.761C152.121 515.951 152.001 516.121 151.811 516.191C151.571 516.271 151.321 516.141 151.241 515.911C149.601 511.011 148.471 508.021 148.461 507.991C148.371 507.751 148.491 507.501 148.721 507.411C148.951 507.321 149.211 507.441 149.301 507.671C149.311 507.701 150.451 510.701 152.101 515.621C152.121 515.671 152.121 515.721 152.121 515.761Z" fill="#2A557F"/>
<path d="M163.381 600.84C163.381 600.99 163.311 601.13 163.171 601.22C162.961 601.35 162.681 601.29 162.551 601.08L162.391 600.83C162.261 600.62 162.321 600.34 162.531 600.21C162.741 600.08 163.021 600.14 163.151 600.35L163.301 600.59C163.351 600.66 163.371 600.75 163.371 600.83L163.381 600.84ZM158.651 593.55C158.651 593.7 158.581 593.84 158.451 593.92C158.241 594.06 157.961 594 157.831 593.79C156.951 592.46 156.051 591.13 155.161 589.81C155.021 589.61 155.071 589.33 155.281 589.18C155.491 589.04 155.771 589.09 155.901 589.3C156.801 590.63 157.701 591.96 158.581 593.29C158.631 593.37 158.651 593.45 158.651 593.54V593.55ZM151.201 582.66C151.201 582.8 151.131 582.94 151.011 583.03C150.811 583.17 150.531 583.12 150.381 582.92C149.451 581.6 148.531 580.29 147.611 579.01C147.471 578.81 147.511 578.53 147.711 578.38C147.911 578.24 148.191 578.28 148.341 578.49C149.261 579.78 150.191 581.09 151.121 582.41C151.181 582.49 151.201 582.58 151.201 582.67V582.66ZM143.501 571.94C143.501 572.08 143.441 572.21 143.321 572.3C143.121 572.45 142.841 572.4 142.691 572.2C141.721 570.88 140.771 569.59 139.841 568.34C139.691 568.14 139.731 567.86 139.931 567.71C140.131 567.56 140.411 567.6 140.561 567.8C141.491 569.05 142.441 570.34 143.411 571.67C143.471 571.75 143.501 571.84 143.501 571.94ZM135.611 561.36C135.611 561.5 135.551 561.63 135.431 561.72C135.231 561.87 134.951 561.83 134.801 561.63C133.781 560.28 132.811 559.01 131.891 557.82C131.741 557.62 131.781 557.34 131.971 557.19C132.171 557.04 132.451 557.08 132.601 557.27C133.521 558.46 134.491 559.74 135.511 561.09C135.571 561.17 135.601 561.27 135.601 561.36H135.611ZM127.541 550.91C127.541 551.04 127.481 551.17 127.371 551.26C127.171 551.41 126.891 551.38 126.741 551.18C124.851 548.78 123.751 547.41 123.751 547.41C123.601 547.22 123.621 546.93 123.821 546.78C124.011 546.62 124.301 546.65 124.451 546.85C124.451 546.85 125.551 548.22 127.441 550.63C127.501 550.71 127.541 550.81 127.541 550.91Z" fill="#2A557F"/>
<path d="M189.55 575.29C189.55 575.36 189.53 575.441 189.5 575.501C189.4 575.691 189.3 575.871 189.19 576.061C189.07 576.281 188.79 576.35 188.58 576.23C188.36 576.11 188.29 575.831 188.41 575.621C188.51 575.441 188.61 575.26 188.71 575.08C188.83 574.86 189.1 574.78 189.32 574.9C189.47 574.98 189.56 575.14 189.56 575.3L189.55 575.29ZM186.65 579.871C186.65 579.961 186.62 580.051 186.56 580.131C186.09 580.781 185.6 581.42 185.09 582.05C184.93 582.24 184.65 582.271 184.46 582.121C184.27 581.971 184.24 581.68 184.39 581.49C184.89 580.87 185.37 580.24 185.83 579.6C185.98 579.4 186.26 579.361 186.46 579.501C186.58 579.591 186.65 579.73 186.65 579.86V579.871ZM182.03 585.39C182.03 585.5 181.99 585.61 181.91 585.7C181.35 586.29 180.79 586.86 180.22 587.42C180.04 587.59 179.76 587.59 179.58 587.42C179.41 587.24 179.41 586.96 179.58 586.78C180.14 586.23 180.7 585.66 181.25 585.08C181.42 584.9 181.71 584.891 181.89 585.061C181.98 585.151 182.03 585.27 182.03 585.39ZM176.82 590.35C176.82 590.48 176.77 590.601 176.66 590.691C176.04 591.231 175.42 591.75 174.82 592.24C174.63 592.4 174.34 592.37 174.19 592.18C174.03 591.99 174.06 591.7 174.25 591.55C174.85 591.06 175.46 590.541 176.08 590.011C176.27 589.851 176.55 589.871 176.71 590.061C176.78 590.141 176.82 590.25 176.82 590.35ZM171.2 594.84C171.2 594.98 171.14 595.11 171.02 595.2C170.34 595.7 169.68 596.17 169.06 596.61C168.86 596.75 168.58 596.701 168.43 596.501C168.29 596.301 168.34 596.021 168.54 595.871C169.16 595.441 169.81 594.97 170.48 594.47C170.68 594.32 170.96 594.361 171.11 594.561C171.17 594.641 171.2 594.73 171.2 594.83V594.84ZM165.25 598.9C165.25 599.05 165.18 599.2 165.04 599.28C163.74 600.1 162.96 600.53 162.96 600.53C162.74 600.65 162.47 600.57 162.35 600.36C162.23 600.14 162.3 599.871 162.52 599.751C162.52 599.751 163.29 599.32 164.56 598.52C164.77 598.39 165.05 598.45 165.18 598.66C165.23 598.73 165.25 598.82 165.25 598.9Z" fill="#2A557F"/>
<path d="M187.421 574.551C187.421 574.621 187.401 574.691 187.371 574.751C187.261 574.971 186.991 575.061 186.771 574.951C185.731 574.421 184.651 573.901 183.551 573.371C183.331 573.261 183.231 573.001 183.341 572.771C183.451 572.551 183.711 572.451 183.941 572.561C185.051 573.091 186.141 573.621 187.181 574.151C187.341 574.231 187.431 574.391 187.431 574.551H187.421ZM177.631 570.001C177.631 570.061 177.621 570.121 177.591 570.181C177.491 570.411 177.231 570.511 177.001 570.411C175.871 569.921 174.761 569.451 173.691 569.001C173.461 568.901 173.351 568.641 173.451 568.411C173.551 568.181 173.811 568.071 174.041 568.171C175.111 568.621 176.221 569.091 177.361 569.581C177.531 569.651 177.631 569.821 177.631 569.991V570.001ZM167.651 565.871C167.651 565.921 167.651 565.981 167.621 566.041C167.531 566.271 167.271 566.381 167.041 566.291C164.971 565.471 163.681 564.991 163.681 564.991C163.451 564.901 163.331 564.641 163.421 564.411C163.511 564.181 163.771 564.061 164.001 564.151C164.001 564.151 165.301 564.641 167.371 565.461C167.551 565.531 167.651 565.701 167.651 565.881V565.871Z" fill="#2A557F"/>
<path d="M121.84 547.341C121.78 547.521 119.5 549.891 119.98 550.461C120.46 551.031 122.94 549.651 123.08 549.731C123.3 549.871 124.92 552.431 125.43 552.301C126.01 552.161 125.56 549.261 125.74 548.951C125.96 548.591 128.91 548.671 129.01 548.121C129.14 547.461 126.22 546.321 126.23 546.131C126.26 545.701 127.02 543.081 126.46 542.741C125.82 542.351 123.95 544.911 123.53 544.881C123.11 544.851 120.89 543.711 120.36 544.201C119.95 544.571 121.95 547.031 121.84 547.331V547.341Z" fill="#2A557F"/>
<path d="M166.181 599.871C166.721 601.661 165.7 603.551 163.91 604.091C162.12 604.631 160.23 603.611 159.69 601.821C159.15 600.031 160.171 598.141 161.961 597.601C163.75 597.061 165.641 598.081 166.181 599.871Z" fill="#2A557F"/>
<path d="M165.751 563.991C166.071 565.051 165.461 566.181 164.401 566.491C163.341 566.811 162.211 566.201 161.901 565.141C161.581 564.081 162.191 562.951 163.251 562.641C164.311 562.321 165.441 562.931 165.751 563.991Z" fill="#2A557F"/>
<path d="M191.161 574.681C191.501 575.821 190.851 577.021 189.711 577.361C188.571 577.701 187.371 577.051 187.031 575.911C186.691 574.771 187.341 573.571 188.471 573.231C189.611 572.891 190.811 573.541 191.151 574.681H191.161Z" fill="#2A557F"/>
<path d="M151.721 506.981C152.191 508.551 151.301 510.211 149.731 510.681C148.161 511.151 146.501 510.261 146.031 508.691C145.561 507.121 146.451 505.461 148.021 504.991C149.591 504.521 151.251 505.411 151.721 506.981Z" fill="#2A557F"/>
<path d="M115.271 512.071C115.521 512.911 115.041 513.801 114.201 514.051C113.361 514.301 112.47 513.821 112.22 512.981C111.97 512.141 112.451 511.251 113.291 511.001C114.131 510.751 115.021 511.231 115.271 512.071Z" fill="#2A557F"/>
<path d="M212.99 575.98C213.503 575.98 213.92 575.564 213.92 575.05C213.92 574.536 213.503 574.12 212.99 574.12C212.476 574.12 212.06 574.536 212.06 575.05C212.06 575.564 212.476 575.98 212.99 575.98Z" fill="#2A557F"/>
<path d="M154.091 305.47V306.03C154.091 306.32 153.851 306.55 153.561 306.55C153.271 306.55 153.041 306.31 153.041 306.03V305.47C153.041 305.18 153.281 304.95 153.571 304.95C153.861 304.95 154.091 305.19 154.091 305.47ZM153.461 314.38C153.461 314.38 153.461 314.43 153.461 314.45C153.331 315.4 153.181 316.32 153.021 317.23C152.971 317.52 152.701 317.7 152.411 317.65C152.131 317.6 151.941 317.33 151.991 317.04C152.151 316.15 152.301 315.23 152.431 314.3C152.471 314.01 152.731 313.81 153.021 313.85C153.281 313.89 153.471 314.11 153.471 314.37L153.461 314.38ZM151.061 325.29C151.061 325.34 151.061 325.39 151.041 325.44C150.761 326.38 150.471 327.27 150.181 328.12C150.091 328.39 149.791 328.54 149.511 328.45C149.241 328.36 149.091 328.06 149.181 327.79C149.471 326.95 149.751 326.07 150.031 325.15C150.111 324.87 150.411 324.72 150.681 324.8C150.911 324.87 151.051 325.08 151.051 325.3L151.061 325.29ZM147.041 335.71C147.041 335.79 147.021 335.86 146.991 335.94C146.221 337.55 145.701 338.43 145.681 338.46C145.531 338.71 145.211 338.79 144.961 338.65C144.711 338.51 144.631 338.18 144.771 337.93C144.771 337.93 145.291 337.05 146.041 335.48C146.171 335.22 146.481 335.11 146.741 335.24C146.931 335.33 147.041 335.52 147.041 335.71Z" fill="#2A557F"/>
<path d="M207.971 310.891C207.971 311.161 207.761 311.391 207.491 311.411C207.461 311.411 204.131 311.671 199.091 311.791C198.801 311.791 198.561 311.571 198.551 311.281C198.551 311.011 198.771 310.751 199.061 310.741C204.081 310.621 207.371 310.371 207.411 310.361C207.701 310.341 207.951 310.551 207.971 310.841C207.971 310.851 207.971 310.871 207.971 310.881V310.891ZM188.421 311.251C188.421 311.551 188.171 311.781 187.881 311.771C184.981 311.691 182.161 311.541 179.481 311.341C179.191 311.321 178.971 311.091 179.001 310.781C179.021 310.491 179.271 310.281 179.561 310.301C182.221 310.501 185.031 310.641 187.911 310.721C188.191 310.721 188.421 310.961 188.421 311.241V311.251ZM168.951 309.531C168.951 309.531 168.951 309.591 168.951 309.611C168.901 309.901 168.631 310.091 168.351 310.041C165.381 309.551 162.601 308.961 160.101 308.271C159.821 308.201 159.651 307.901 159.731 307.631C159.811 307.351 160.091 307.191 160.371 307.261C162.831 307.931 165.571 308.521 168.511 309.001C168.771 309.041 168.951 309.261 168.951 309.521V309.531Z" fill="#2A557F"/>
<path d="M232.571 271.53C232.571 271.58 232.571 271.64 232.541 271.69C232.531 271.73 232.221 272.66 231.531 274.34C231.421 274.61 231.121 274.74 230.851 274.63C230.581 274.52 230.451 274.21 230.561 273.95C231.231 272.31 231.541 271.38 231.541 271.37C231.631 271.1 231.931 270.95 232.201 271.04C232.421 271.11 232.561 271.32 232.561 271.54L232.571 271.53ZM228.061 281.75C228.061 281.83 228.041 281.91 228.001 281.99C227.591 282.78 227.161 283.61 226.691 284.47C226.551 284.72 226.231 284.82 225.981 284.68C225.731 284.54 225.631 284.22 225.771 283.97C226.231 283.11 226.661 282.29 227.071 281.51C227.201 281.25 227.521 281.15 227.781 281.28C227.961 281.37 228.071 281.56 228.071 281.75H228.061ZM222.531 291.46C222.531 291.56 222.501 291.65 222.451 291.74C221.971 292.51 221.461 293.3 220.941 294.1C220.781 294.34 220.461 294.41 220.221 294.25C219.981 294.09 219.911 293.77 220.071 293.53C220.591 292.73 221.091 291.95 221.571 291.19C221.721 290.94 222.051 290.87 222.291 291.03C222.451 291.13 222.541 291.3 222.541 291.47L222.531 291.46ZM216.231 300.69C216.231 300.8 216.201 300.91 216.131 301C215.581 301.74 215.021 302.49 214.441 303.24C214.261 303.47 213.931 303.51 213.711 303.34C213.481 303.16 213.441 302.83 213.621 302.61C214.191 301.86 214.751 301.12 215.301 300.39C215.471 300.16 215.801 300.11 216.031 300.28C216.171 300.38 216.241 300.54 216.241 300.7L216.231 300.69ZM209.261 309.42C209.261 309.54 209.221 309.66 209.131 309.76C208.711 310.25 208.281 310.74 207.841 311.24C207.651 311.46 207.321 311.48 207.101 311.29C206.881 311.1 206.861 310.77 207.051 310.55C207.481 310.06 207.911 309.57 208.331 309.08C208.521 308.86 208.851 308.84 209.071 309.03C209.191 309.13 209.251 309.28 209.251 309.43L209.261 309.42Z" fill="#2A557F"/>
<path d="M228.021 269.01C228.021 269.08 228.001 269.16 227.971 269.23C227.851 269.49 227.541 269.61 227.281 269.49L226.951 269.34C226.681 269.22 226.571 268.91 226.681 268.65C226.801 268.39 227.111 268.26 227.371 268.38L227.721 268.54C227.911 268.63 228.031 268.82 228.031 269.02L228.021 269.01ZM223.751 267.4C223.751 267.45 223.751 267.51 223.721 267.56C223.631 267.84 223.341 267.99 223.061 267.9C222.621 267.76 222.181 267.62 221.741 267.49C221.461 267.41 221.301 267.11 221.381 266.84C221.461 266.56 221.751 266.4 222.031 266.49C222.491 266.62 222.941 266.76 223.381 266.9C223.601 266.97 223.741 267.18 223.741 267.4H223.751ZM218.361 265.93C218.361 265.93 218.361 266.01 218.351 266.05C218.281 266.33 218.001 266.51 217.721 266.44C217.271 266.33 216.821 266.23 216.371 266.13C216.091 266.07 215.911 265.79 215.971 265.51C216.031 265.23 216.311 265.05 216.591 265.11C217.051 265.21 217.511 265.31 217.961 265.42C218.201 265.48 218.361 265.69 218.361 265.93ZM212.881 264.82C212.881 264.82 212.881 264.88 212.881 264.91C212.831 265.19 212.561 265.38 212.271 265.33C211.811 265.25 211.351 265.17 210.901 265.1C210.621 265.05 210.421 264.81 210.471 264.5C210.521 264.21 210.791 264.02 211.071 264.07C211.531 264.15 211.991 264.23 212.451 264.31C212.701 264.35 212.881 264.58 212.881 264.83V264.82ZM207.351 263.96C207.351 263.96 207.351 264.01 207.351 264.03C207.311 264.32 207.051 264.52 206.761 264.48C206.281 264.42 205.821 264.36 205.381 264.3C205.091 264.26 204.891 264.02 204.921 263.72C204.951 263.43 205.221 263.23 205.501 263.26C205.951 263.31 206.411 263.37 206.891 263.44C207.151 263.48 207.341 263.7 207.341 263.96H207.351ZM201.791 263.32C201.791 263.32 201.791 263.35 201.791 263.37C201.761 263.66 201.511 263.87 201.221 263.84C200.341 263.76 199.831 263.72 199.831 263.72C199.541 263.7 199.331 263.48 199.351 263.16C199.371 262.87 199.621 262.66 199.911 262.68C199.911 262.68 200.421 262.72 201.321 262.8C201.591 262.82 201.801 263.05 201.801 263.32H201.791Z" fill="#2A557F"/>
<path d="M144.721 341.21C144.921 341.25 147.721 343.29 148.241 342.71C148.761 342.13 146.971 339.73 147.041 339.57C147.151 339.32 149.601 337.27 149.391 336.75C149.161 336.16 146.191 337.05 145.851 336.9C145.441 336.72 145.101 333.63 144.521 333.6C143.811 333.56 143.041 336.77 142.831 336.79C142.371 336.82 139.531 336.4 139.261 337.03C138.941 337.76 141.891 339.34 141.921 339.78C141.951 340.22 141.071 342.7 141.661 343.19C142.111 343.57 144.391 341.12 144.721 341.19V341.21Z" fill="#2A557F"/>
<path d="M228.67 274.77C228.91 274.97 231.37 279.84 232.51 279.4C233.66 278.96 232.87 274.33 233.09 274.15C233.42 273.88 238.32 272.77 238.4 271.9C238.5 270.91 233.72 270.02 233.34 269.56C232.9 269.02 234.64 264.46 233.85 263.99C232.89 263.43 229.5 267.36 229.2 267.24C228.54 266.96 224.87 264.33 224.03 265.01C223.07 265.8 226.04 270.13 225.76 270.77C225.48 271.41 222.48 274.24 222.94 275.35C223.29 276.19 228.24 274.42 228.65 274.76L228.67 274.77Z" fill="#2A557F"/>
<path d="M207.32 315.44C209.833 315.44 211.87 313.403 211.87 310.89C211.87 308.377 209.833 306.34 207.32 306.34C204.808 306.34 202.771 308.377 202.771 310.89C202.771 313.403 204.808 315.44 207.32 315.44Z" fill="#2A557F"/>
<path d="M153.571 302.07C155.441 302.07 156.961 303.59 156.961 305.46C156.961 307.33 155.441 308.85 153.571 308.85C151.701 308.85 150.181 307.33 150.181 305.46C150.181 303.59 151.701 302.07 153.571 302.07Z" fill="#2A557F"/>
<path d="M199.86 265.82C201.307 265.82 202.48 264.647 202.48 263.2C202.48 261.753 201.307 260.58 199.86 260.58C198.413 260.58 197.24 261.753 197.24 263.2C197.24 264.647 198.413 265.82 199.86 265.82Z" fill="#2A557F"/>
<path d="M239.981 341.92C240.583 341.92 241.071 341.432 241.071 340.83C241.071 340.228 240.583 339.74 239.981 339.74C239.379 339.74 238.891 340.228 238.891 340.83C238.891 341.432 239.379 341.92 239.981 341.92Z" fill="#2A557F"/>
<path d="M124.74 317.4C125.34 317.4 125.83 317.89 125.83 318.49C125.83 319.09 125.34 319.58 124.74 319.58C124.14 319.58 123.65 319.09 123.65 318.49C123.65 317.89 124.14 317.4 124.74 317.4Z" fill="#2A557F"/>
<path d="M388.66 482.18C388.66 482.18 388.64 482.18 388.63 482.18L387.24 482.09C386.93 482.07 386.69 481.8 386.71 481.49C386.73 481.18 386.96 480.93 387.31 480.96L388.69 481.05C389 481.07 389.24 481.34 389.22 481.65C389.2 481.95 388.95 482.18 388.65 482.18H388.66ZM379.72 481.51C379.72 481.51 379.69 481.51 379.67 481.51C378.64 481.42 377.63 481.32 376.65 481.22C376.34 481.19 376.11 480.91 376.14 480.6C376.17 480.29 376.43 480.05 376.76 480.09C377.74 480.19 378.75 480.28 379.77 480.37C380.08 480.4 380.31 480.67 380.29 480.99C380.26 481.29 380.01 481.51 379.72 481.51ZM369.18 480.37C369.18 480.37 369.13 480.37 369.11 480.37C368.08 480.24 367.07 480.1 366.1 479.97C365.79 479.93 365.57 479.64 365.62 479.33C365.66 479.02 365.94 478.8 366.26 478.85C367.23 478.99 368.23 479.12 369.26 479.25C369.57 479.29 369.79 479.57 369.75 479.89C369.71 480.18 369.47 480.39 369.19 480.39L369.18 480.37ZM358.69 478.8C358.69 478.8 358.63 478.8 358.59 478.8C357.53 478.62 356.54 478.44 355.6 478.26C355.29 478.2 355.09 477.9 355.15 477.6C355.21 477.29 355.5 477.09 355.81 477.15C356.74 477.33 357.73 477.5 358.79 477.69C359.1 477.74 359.31 478.04 359.25 478.35C359.2 478.63 358.96 478.82 358.69 478.82V478.8ZM348.3 476.69C348.3 476.69 348.21 476.69 348.17 476.67C346.21 476.2 345.21 475.91 345.21 475.91C344.91 475.82 344.74 475.51 344.83 475.2C344.92 474.9 345.24 474.73 345.53 474.82C345.53 474.82 346.53 475.11 348.44 475.57C348.75 475.64 348.93 475.95 348.86 476.25C348.8 476.51 348.57 476.69 348.31 476.69H348.3Z" fill="#2A557F"/>
<path d="M387.13 557.11C387.13 557.11 387.08 557.11 387.05 557.11C386.74 557.06 386.52 556.78 386.57 556.47C386.86 554.47 387.13 552.47 387.38 550.46C387.42 550.15 387.69 549.93 388.01 549.97C388.32 550.01 388.54 550.29 388.5 550.6C388.25 552.62 387.98 554.63 387.69 556.63C387.65 556.91 387.41 557.12 387.13 557.12V557.11ZM389.15 539.03C389.15 539.03 389.12 539.03 389.1 539.03C388.79 539 388.55 538.73 388.58 538.42C388.85 535.03 389.08 531.47 389.26 527.86C389.28 527.55 389.54 527.29 389.86 527.32C390.17 527.34 390.41 527.6 390.4 527.92C390.22 531.55 389.99 535.11 389.72 538.52C389.7 538.82 389.45 539.04 389.15 539.04V539.03ZM390.25 516.33H390.24C389.93 516.33 389.68 516.06 389.68 515.75C389.74 512.82 389.76 510 389.76 507.34V505.16C389.76 504.84 390.04 504.6 390.32 504.59C390.63 504.59 390.89 504.84 390.89 505.16V507.35C390.89 510.02 390.87 512.84 390.81 515.78C390.81 516.09 390.55 516.34 390.24 516.34L390.25 516.33ZM390.1 493.6C389.79 493.6 389.54 493.36 389.53 493.05C389.32 486.54 389.03 482.51 389.03 482.47C389.01 482.16 389.24 481.88 389.56 481.86C389.91 481.86 390.14 482.07 390.17 482.39C390.17 482.43 390.46 486.47 390.67 493.01C390.68 493.32 390.43 493.59 390.12 493.6H390.1Z" fill="#2A557F"/>
<path d="M372.9 600.7C372.65 600.7 372.43 600.54 372.35 600.29L372.25 599.93C372.17 599.63 372.34 599.31 372.65 599.23C372.95 599.14 373.27 599.32 373.35 599.63L373.45 599.98C373.54 600.28 373.36 600.6 373.06 600.68C373.01 600.69 372.96 600.7 372.9 600.7ZM369.82 590.16C369.58 590.16 369.35 590 369.28 589.76C368.69 587.83 368.09 585.9 367.48 583.97C367.39 583.67 367.55 583.35 367.85 583.26C368.16 583.16 368.47 583.33 368.56 583.63C369.17 585.56 369.77 587.5 370.36 589.43C370.45 589.73 370.28 590.05 369.98 590.14C369.93 590.16 369.87 590.16 369.81 590.16H369.82ZM364.75 574.27C364.51 574.27 364.29 574.12 364.21 573.88C363.57 571.95 362.92 570.03 362.27 568.14C362.17 567.84 362.33 567.52 362.62 567.42C362.91 567.32 363.24 567.48 363.34 567.77C363.99 569.67 364.64 571.59 365.28 573.52C365.38 573.82 365.22 574.14 364.92 574.24C364.86 574.26 364.8 574.27 364.74 574.27H364.75ZM359.32 558.5C359.09 558.5 358.87 558.36 358.78 558.12C358.09 556.17 357.4 554.27 356.73 552.41C356.62 552.12 356.78 551.79 357.07 551.68C357.36 551.57 357.69 551.73 357.8 552.02C358.47 553.88 359.16 555.78 359.85 557.73C359.96 558.03 359.8 558.35 359.51 558.46C359.45 558.48 359.38 558.49 359.32 558.49V558.5ZM353.6 542.83C353.37 542.83 353.15 542.69 353.07 542.46C352.32 540.46 351.61 538.56 350.93 536.79C350.82 536.5 350.97 536.17 351.26 536.06C351.56 535.95 351.88 536.1 351.99 536.39C352.67 538.17 353.38 540.07 354.13 542.07C354.24 542.36 354.09 542.69 353.8 542.8C353.73 542.82 353.67 542.84 353.6 542.84V542.83ZM347.62 527.25C347.39 527.25 347.18 527.11 347.09 526.89C345.68 523.3 344.84 521.25 344.84 521.25C344.72 520.96 344.86 520.63 345.15 520.51C345.45 520.39 345.77 520.53 345.89 520.82C345.89 520.82 346.73 522.88 348.14 526.48C348.26 526.77 348.11 527.1 347.82 527.22C347.75 527.25 347.68 527.26 347.61 527.26L347.62 527.25Z" fill="#2A557F"/>
<path d="M372.9 599.79C372.64 599.79 372.4 599.61 372.35 599.35C372.28 599.04 372.47 598.74 372.78 598.67C372.78 598.67 373.87 598.43 375.7 597.92C376 597.84 376.32 598.01 376.4 598.32C376.48 598.62 376.31 598.94 376 599.02C374.12 599.54 373.02 599.78 373.02 599.78C372.98 599.78 372.94 599.79 372.9 599.79ZM381.66 597.27C381.42 597.27 381.2 597.12 381.12 596.88C381.02 596.58 381.18 596.26 381.48 596.16C382.38 595.86 383.34 595.53 384.33 595.17C384.63 595.06 384.95 595.22 385.06 595.51C385.17 595.81 385.01 596.13 384.72 596.24C383.72 596.6 382.75 596.93 381.84 597.23C381.78 597.25 381.72 597.26 381.66 597.26V597.27ZM390.18 594.09C389.96 594.09 389.75 593.96 389.66 593.74C389.54 593.45 389.67 593.12 389.96 593C390.87 592.62 391.79 592.22 392.73 591.8C393.01 591.67 393.35 591.8 393.48 592.08C393.61 592.37 393.48 592.7 393.2 592.83C392.26 593.26 391.32 593.66 390.4 594.05C390.33 594.08 390.25 594.09 390.18 594.09ZM398.41 590.22C398.21 590.22 398.01 590.11 397.91 589.92C397.76 589.64 397.87 589.3 398.15 589.15C399.03 588.68 399.91 588.2 400.79 587.7C401.06 587.54 401.41 587.64 401.57 587.91C401.73 588.18 401.63 588.53 401.36 588.69C400.47 589.2 399.58 589.69 398.69 590.16C398.61 590.21 398.52 590.23 398.43 590.23L398.41 590.22ZM406.2 585.54C406.02 585.54 405.84 585.45 405.73 585.29C405.55 585.03 405.62 584.68 405.87 584.5C406.7 583.93 407.51 583.34 408.3 582.74C408.55 582.55 408.91 582.6 409.1 582.85C409.29 583.1 409.24 583.46 408.99 583.65C408.18 584.27 407.35 584.87 406.51 585.44C406.41 585.51 406.3 585.54 406.19 585.54H406.2ZM413.26 579.82C413.11 579.82 412.96 579.76 412.85 579.65C412.63 579.42 412.64 579.06 412.86 578.85L413.42 578.3C413.64 578.08 414 578.08 414.22 578.3C414.44 578.52 414.44 578.88 414.22 579.1L413.65 579.66C413.54 579.77 413.4 579.82 413.25 579.82H413.26Z" fill="#2A557F"/>
<path d="M411.53 577.58C411.39 577.58 411.25 577.53 411.14 577.42C410.08 576.41 408.96 575.38 407.81 574.34C407.58 574.13 407.56 573.77 407.77 573.54C407.98 573.31 408.34 573.291 408.57 573.501C409.73 574.541 410.85 575.58 411.92 576.6C412.15 576.82 412.16 577.18 411.94 577.4C411.83 577.52 411.68 577.58 411.53 577.58ZM401.32 568.52C401.19 568.52 401.06 568.48 400.95 568.39C399.76 567.39 398.59 566.41 397.46 565.48C397.22 565.28 397.18 564.92 397.38 564.68C397.58 564.44 397.94 564.4 398.18 564.6C399.31 565.53 400.49 566.51 401.68 567.52C401.92 567.72 401.95 568.081 401.75 568.321C401.64 568.451 401.48 568.52 401.32 568.52ZM390.73 559.9C390.61 559.9 390.48 559.86 390.38 559.78C388.17 558.04 386.79 556.99 386.79 556.98C386.54 556.79 386.49 556.43 386.68 556.18C386.87 555.93 387.23 555.881 387.48 556.071C387.48 556.071 388.87 557.131 391.09 558.881C391.34 559.071 391.38 559.43 391.18 559.68C391.07 559.82 390.9 559.9 390.73 559.9Z" fill="#2A557F"/>
<path d="M342.54 520.46C342.4 520.65 338.78 522.7 339.15 523.56C339.52 524.42 343.03 523.65 343.17 523.81C343.39 524.05 344.42 527.74 345.08 527.77C345.84 527.81 346.34 524.13 346.67 523.83C347.07 523.47 350.61 524.63 350.93 524.01C351.32 523.26 348.2 520.82 348.29 520.59C348.48 520.08 350.35 517.18 349.8 516.57C349.16 515.87 345.98 518.29 345.48 518.1C344.98 517.91 342.71 515.73 341.88 516.12C341.25 516.42 342.78 520.12 342.54 520.45V520.46Z" fill="#2A557F"/>
<path d="M372.9 604.41C375.264 604.41 377.18 602.493 377.18 600.13C377.18 597.766 375.264 595.85 372.9 595.85C370.536 595.85 368.62 597.766 368.62 600.13C368.62 602.493 370.536 604.41 372.9 604.41Z" fill="#2A557F"/>
<path d="M387.13 559.08C388.533 559.08 389.67 557.943 389.67 556.54C389.67 555.137 388.533 554 387.13 554C385.727 554 384.59 555.137 384.59 556.54C384.59 557.943 385.727 559.08 387.13 559.08Z" fill="#2A557F"/>
<path d="M389.6 486.2C391.676 486.2 393.36 484.516 393.36 482.44C393.36 480.363 391.676 478.68 389.6 478.68C387.523 478.68 385.84 480.363 385.84 482.44C385.84 484.516 387.523 486.2 389.6 486.2Z" fill="#2A557F"/>
<path d="M347.37 475.38C347.37 476.49 346.47 477.39 345.36 477.39C344.25 477.39 343.35 476.49 343.35 475.38C343.35 474.27 344.25 473.37 345.36 473.37C346.47 473.37 347.37 474.27 347.37 475.38Z" fill="#2A557F"/>
<path d="M268.71 483.72C268.57 483.72 268.43 483.67 268.32 483.56C268.32 483.56 265.87 481.22 261.67 477.33C261.44 477.12 261.43 476.76 261.64 476.53C261.85 476.3 262.21 476.29 262.44 476.5C266.66 480.4 269.11 482.74 269.11 482.74C269.34 482.96 269.35 483.32 269.13 483.54C269.02 483.66 268.87 483.72 268.72 483.72H268.71ZM254.21 470.321C254.07 470.321 253.94 470.27 253.83 470.17C251.74 468.28 249.47 466.25 247.05 464.1C246.82 463.89 246.79 463.53 247 463.3C247.21 463.06 247.57 463.04 247.8 463.25C250.22 465.4 252.49 467.431 254.58 469.321C254.81 469.531 254.83 469.89 254.62 470.12C254.51 470.24 254.35 470.31 254.2 470.31L254.21 470.321ZM239.45 457.25C239.32 457.25 239.19 457.2 239.08 457.11C236.85 455.18 234.55 453.201 232.18 451.191C231.94 450.991 231.91 450.63 232.11 450.39C232.31 450.15 232.67 450.121 232.91 450.321C235.28 452.331 237.59 454.32 239.82 456.25C240.06 456.46 240.08 456.81 239.88 457.05C239.77 457.18 239.61 457.25 239.45 457.25ZM224.41 444.511C224.28 444.511 224.15 444.471 224.05 444.381C221.73 442.471 219.38 440.55 217.01 438.64C216.77 438.44 216.73 438.09 216.92 437.84C217.12 437.59 217.48 437.56 217.72 437.75C220.1 439.66 222.45 441.59 224.78 443.5C225.02 443.7 225.06 444.06 224.86 444.3C224.75 444.44 224.58 444.511 224.42 444.511H224.41ZM209.03 432.19C208.91 432.19 208.79 432.15 208.68 432.07C206.27 430.2 203.85 428.37 201.44 426.57C201.19 426.38 201.14 426.03 201.32 425.77C201.51 425.52 201.86 425.47 202.11 425.65C204.52 427.45 206.95 429.29 209.36 431.16C209.61 431.35 209.65 431.71 209.46 431.96C209.35 432.1 209.18 432.18 209.01 432.18L209.03 432.19Z" fill="#2A557F"/>
<path d="M230.45 421.15C229.3 421.15 228.17 421.15 227.05 421.13C226.74 421.13 226.48 420.87 226.49 420.56C226.49 420.25 226.75 420 227.06 420C228.18 420.01 229.31 420.02 230.45 420.02H231.6C231.91 420.02 232.17 420.27 232.17 420.59C232.17 420.9 231.92 421.16 231.6 421.16H230.45V421.15ZM242.2 420.9C241.9 420.9 241.65 420.66 241.63 420.36C241.62 420.05 241.86 419.78 242.17 419.77C243.67 419.7 245.18 419.63 246.7 419.53C247.01 419.5 247.28 419.75 247.3 420.06C247.32 420.37 247.08 420.64 246.77 420.66C245.25 420.76 243.73 420.84 242.22 420.9C242.22 420.9 242.2 420.9 242.19 420.9H242.2ZM216.45 420.83C216.45 420.83 216.43 420.83 216.42 420.83C214.83 420.76 213.31 420.68 211.87 420.6C211.56 420.58 211.32 420.31 211.34 420C211.36 419.69 211.58 419.44 211.94 419.47C213.38 419.55 214.89 419.63 216.47 419.7C216.78 419.71 217.03 419.98 217.01 420.29C217 420.6 216.75 420.83 216.44 420.83H216.45ZM201.33 419.83C201.33 419.83 201.3 419.83 201.28 419.83C198.39 419.57 196.74 419.37 196.74 419.37C196.43 419.33 196.21 419.05 196.24 418.74C196.28 418.43 196.57 418.21 196.87 418.24C196.87 418.24 198.51 418.44 201.39 418.69C201.7 418.72 201.93 418.99 201.9 419.31C201.87 419.61 201.63 419.83 201.33 419.83ZM257.31 419.72C257.02 419.72 256.78 419.51 256.75 419.22C256.71 418.91 256.94 418.63 257.25 418.59C258.76 418.41 260.25 418.22 261.74 418C262.06 417.95 262.34 418.17 262.38 418.48C262.43 418.79 262.21 419.08 261.9 419.12C260.4 419.34 258.89 419.54 257.38 419.71C257.36 419.71 257.33 419.71 257.31 419.71V419.72Z" fill="#2A557F"/>
<path d="M268.71 417.961C268.71 417.961 268.66 417.961 268.64 417.961C268.33 417.921 268.11 417.631 268.15 417.321C268.24 416.641 268.34 415.951 268.44 415.261C268.49 414.951 268.78 414.731 269.09 414.781C269.4 414.831 269.61 415.121 269.57 415.431C269.47 416.111 269.37 416.791 269.28 417.471C269.24 417.761 269 417.961 268.72 417.961H268.71ZM270.99 405.481C270.99 405.481 270.91 405.481 270.86 405.471C270.55 405.401 270.36 405.101 270.43 404.791C270.77 403.301 271.13 401.821 271.5 400.351C271.58 400.051 271.88 399.861 272.19 399.941C272.49 400.021 272.68 400.331 272.6 400.631C272.23 402.081 271.88 403.561 271.54 405.041C271.48 405.301 271.25 405.481 270.99 405.481ZM274.9 390.831C274.85 390.831 274.79 390.831 274.74 390.811C274.44 390.721 274.27 390.401 274.36 390.101C274.82 388.591 275.27 387.131 275.72 385.751C275.82 385.451 276.14 385.291 276.43 385.381C276.73 385.481 276.89 385.801 276.8 386.091C276.36 387.471 275.9 388.921 275.45 390.421C275.37 390.671 275.15 390.821 274.91 390.821L274.9 390.831ZM279.69 376.441C279.62 376.441 279.56 376.431 279.5 376.411C279.2 376.301 279.05 375.981 279.16 375.681C280.15 372.981 280.77 371.401 280.77 371.401C280.89 371.111 281.22 370.961 281.51 371.081C281.8 371.201 281.94 371.531 281.83 371.821C281.83 371.821 281.2 373.391 280.23 376.071C280.15 376.301 279.93 376.441 279.7 376.441H279.69Z" fill="#2A557F"/>
<path d="M303.25 441.821C303.15 441.821 303.05 441.791 302.96 441.741L302.07 441.211C301.8 441.051 301.71 440.701 301.87 440.431C302.03 440.161 302.38 440.071 302.65 440.231L303.53 440.751C303.8 440.911 303.89 441.261 303.73 441.531C303.63 441.711 303.43 441.811 303.24 441.811L303.25 441.821ZM294.67 436.441C294.56 436.441 294.45 436.411 294.36 436.351C293.1 435.521 291.84 434.671 290.57 433.811C290.31 433.631 290.24 433.281 290.42 433.021C290.6 432.761 290.95 432.691 291.21 432.871C292.47 433.731 293.73 434.571 294.98 435.401C295.24 435.571 295.31 435.931 295.14 436.191C295.03 436.361 294.85 436.451 294.67 436.451V436.441ZM283.41 428.721C283.3 428.721 283.18 428.691 283.08 428.621C281.8 427.711 280.56 426.821 279.37 425.971C279.12 425.791 279.06 425.431 279.24 425.181C279.42 424.931 279.78 424.871 280.03 425.051C281.21 425.901 282.45 426.791 283.73 427.691C283.99 427.871 284.05 428.231 283.86 428.481C283.75 428.641 283.57 428.721 283.4 428.721H283.41ZM272.36 420.701C272.24 420.701 272.12 420.661 272.02 420.591C269.74 418.901 268.36 417.851 268.36 417.851C268.11 417.661 268.06 417.301 268.25 417.051C268.44 416.801 268.8 416.751 269.05 416.941C269.05 416.941 270.42 417.981 272.7 419.671C272.95 419.861 273 420.211 272.82 420.471C272.71 420.621 272.54 420.701 272.36 420.701Z" fill="#2A557F"/>
<path d="M303.25 441.82C302.98 441.82 302.74 441.63 302.69 441.35C302.64 441.04 302.84 440.75 303.15 440.69C303.15 440.69 304.79 440.4 307.62 439.83C307.92 439.77 308.23 439.97 308.29 440.27C308.35 440.58 308.15 440.88 307.85 440.94C305 441.52 303.36 441.81 303.36 441.81C303.33 441.81 303.29 441.81 303.26 441.81L303.25 441.82ZM318.11 438.68C317.85 438.68 317.62 438.5 317.56 438.24C317.49 437.93 317.68 437.63 317.98 437.56C319.38 437.23 320.86 436.88 322.4 436.5C322.71 436.42 323.01 436.61 323.09 436.91C323.17 437.21 322.98 437.52 322.67 437.6C321.13 437.98 319.65 438.34 318.24 438.67C318.2 438.68 318.15 438.68 318.11 438.68ZM332.8 434.91C332.55 434.91 332.32 434.75 332.25 434.5C332.17 434.2 332.34 433.88 332.64 433.8C334.08 433.4 335.53 432.98 337 432.54C337.3 432.45 337.62 432.62 337.71 432.92C337.8 433.22 337.63 433.54 337.33 433.63C335.85 434.07 334.39 434.49 332.95 434.89C332.9 434.9 332.85 434.91 332.8 434.91ZM347.29 430.45C347.05 430.45 346.83 430.3 346.75 430.06C346.65 429.76 346.81 429.44 347.11 429.34C348.54 428.86 349.97 428.36 351.39 427.84C351.68 427.73 352.01 427.89 352.12 428.18C352.23 428.48 352.07 428.8 351.78 428.91C350.35 429.43 348.91 429.93 347.48 430.41C347.42 430.43 347.36 430.44 347.3 430.44L347.29 430.45ZM361.47 425.09C361.25 425.09 361.04 424.96 360.95 424.74C360.83 424.45 360.96 424.12 361.25 423.99C362.65 423.39 364.03 422.78 365.39 422.15C365.67 422.02 366.01 422.15 366.14 422.43C366.27 422.71 366.14 423.05 365.86 423.18C364.49 423.81 363.1 424.43 361.68 425.03C361.61 425.06 361.53 425.08 361.46 425.08L361.47 425.09Z" fill="#2A557F"/>
<path d="M193.74 418.601C193.44 418.721 187.86 418.601 187.7 419.841C187.54 421.091 192.11 422.611 192.17 422.901C192.26 423.331 190.9 428.291 191.64 428.791C192.49 429.351 195.59 425.461 196.19 425.341C196.9 425.201 200.18 428.981 200.98 428.491C201.95 427.891 200.03 422.931 200.29 422.721C200.86 422.261 205.01 420.211 204.79 419.121C204.54 417.871 199.19 418.471 198.75 417.911C198.31 417.351 197.19 413.271 195.96 413.151C195.03 413.061 194.24 418.391 193.74 418.601Z" fill="#2A557F"/>
<path d="M273.141 483.151C273.141 485.601 271.151 487.591 268.701 487.591C266.251 487.591 264.261 485.601 264.261 483.151C264.261 480.701 266.251 478.711 268.701 478.711C271.151 478.711 273.141 480.701 273.141 483.151Z" fill="#2A557F"/>
<path d="M305.68 441.25C305.68 442.59 304.59 443.68 303.25 443.68C301.91 443.68 300.82 442.59 300.82 441.25C300.82 439.91 301.91 438.82 303.25 438.82C304.59 438.82 305.68 439.91 305.68 441.25Z" fill="#2A557F"/>
<path d="M371.61 421.391C371.61 423.201 370.15 424.661 368.34 424.661C366.53 424.661 365.07 423.201 365.07 421.391C365.07 419.581 366.53 418.121 368.34 418.121C370.15 418.121 371.61 419.581 371.61 421.391Z" fill="#2A557F"/>
<path d="M271.17 417.391C271.17 418.751 270.07 419.851 268.71 419.851C267.35 419.851 266.25 418.751 266.25 417.391C266.25 416.031 267.35 414.931 268.71 414.931C270.07 414.931 271.17 416.031 271.17 417.391Z" fill="#2A557F"/>
<path d="M72.1503 433.15C73.161 433.15 73.9803 432.331 73.9803 431.32C73.9803 430.31 73.161 429.49 72.1503 429.49C71.1396 429.49 70.3203 430.31 70.3203 431.32C70.3203 432.331 71.1396 433.15 72.1503 433.15Z" fill="#2A557F"/>
<path d="M98.7196 24.7704C99.7303 24.7704 100.55 23.951 100.55 22.9404C100.55 21.9297 99.7303 21.1104 98.7196 21.1104C97.709 21.1104 96.8896 21.9297 96.8896 22.9404C96.8896 23.951 97.709 24.7704 98.7196 24.7704Z" fill="#2A557F"/>
<path d="M-19.8699 426.541C-20.1399 426.541 -20.3799 426.351 -20.4299 426.071C-20.4799 425.761 -20.2799 425.471 -19.9699 425.411C-17.2799 424.931 -14.2399 424.371 -11.0299 423.751C-10.7199 423.691 -10.4199 423.891 -10.3599 424.201C-10.2999 424.511 -10.4999 424.811 -10.8099 424.871C-14.0299 425.491 -17.0799 426.061 -19.7699 426.541C-19.7999 426.541 -19.8399 426.541 -19.8699 426.541ZM0.990145 422.521C0.730145 422.521 0.490147 422.331 0.430147 422.061C0.370147 421.751 0.57015 421.451 0.87015 421.391C3.90015 420.781 6.91015 420.161 9.79015 419.561C10.1001 419.501 10.4001 419.691 10.4601 420.001C10.5201 420.311 10.3302 420.611 10.0202 420.671C7.14015 421.271 4.12015 421.881 1.10015 422.501C1.06015 422.501 1.02014 422.511 0.990145 422.511V422.521ZM21.7901 418.211C21.5301 418.211 21.2901 418.031 21.2401 417.761C21.1701 417.451 21.3701 417.151 21.6801 417.091C27.0601 415.951 30.6001 415.191 30.6001 415.191C30.9101 415.131 31.2102 415.321 31.2802 415.631C31.3502 415.941 31.1501 416.241 30.8401 416.311C30.8401 416.311 27.3001 417.071 21.9101 418.211C21.8701 418.211 21.8301 418.221 21.7901 418.221V418.211Z" fill="#2A557F"/>
<path d="M26.9501 499.971C26.8001 499.971 26.6401 499.911 26.5301 499.791C25.8601 499.051 25.1801 498.301 24.4901 497.531C24.2801 497.301 24.3001 496.941 24.5401 496.731C24.7701 496.521 25.1301 496.541 25.3401 496.781C26.0201 497.551 26.7001 498.291 27.3701 499.031C27.5801 499.261 27.5701 499.621 27.3301 499.831C27.2201 499.931 27.0801 499.981 26.9501 499.981V499.971ZM18.9601 490.841C18.8001 490.841 18.6401 490.771 18.5301 490.641C17.8801 489.871 17.2301 489.091 16.5801 488.311C16.3801 488.071 16.4101 487.711 16.6501 487.511C16.8901 487.311 17.2501 487.341 17.4501 487.581C18.1001 488.361 18.7501 489.141 19.3901 489.911C19.5901 490.151 19.5601 490.511 19.3201 490.711C19.2101 490.801 19.0801 490.841 18.9501 490.841H18.9601ZM11.2801 481.441C11.1101 481.441 10.9501 481.371 10.8301 481.231L8.94012 478.851C8.75012 478.601 8.79012 478.251 9.03012 478.051C9.28012 477.851 9.63012 477.901 9.83012 478.141L11.7101 480.511C11.9101 480.751 11.8601 481.111 11.6201 481.311C11.5201 481.391 11.3901 481.431 11.2701 481.431L11.2801 481.441ZM3.81012 471.881C3.64012 471.881 3.47012 471.801 3.36012 471.661L1.52012 469.261C1.33012 469.011 1.38012 468.651 1.63012 468.461C1.88012 468.271 2.24012 468.321 2.43012 468.571L4.27012 470.971C4.46012 471.221 4.41012 471.581 4.17012 471.771C4.07012 471.851 3.95012 471.891 3.82012 471.891L3.81012 471.881ZM-3.49988 462.211C-3.66988 462.211 -3.83988 462.131 -3.95988 461.981L-5.76988 459.541C-5.95988 459.291 -5.89988 458.931 -5.64988 458.751C-5.39988 458.561 -5.03988 458.621 -4.85988 458.871L-3.04988 461.301C-2.85988 461.551 -2.90988 461.911 -3.16988 462.101C-3.26988 462.181 -3.38988 462.211 -3.50988 462.211H-3.49988ZM-10.6899 452.431C-10.8699 452.431 -11.0399 452.351 -11.1499 452.201L-12.9299 449.741C-13.1099 449.491 -13.0599 449.131 -12.7999 448.951C-12.5499 448.761 -12.1899 448.821 -12.0099 449.081L-10.2299 451.541C-10.0499 451.791 -10.0999 452.151 -10.3599 452.331C-10.4599 452.401 -10.5799 452.441 -10.6899 452.441V452.431ZM-17.7799 442.571C-17.9599 442.571 -18.1299 442.491 -18.2399 442.331L-19.9999 439.851C-20.1799 439.591 -20.1199 439.241 -19.8599 439.061C-19.5999 438.881 -19.2499 438.941 -19.0699 439.201L-17.3099 441.681C-17.1299 441.941 -17.1899 442.291 -17.4399 442.471C-17.5399 442.541 -17.6499 442.581 -17.7699 442.581L-17.7799 442.571ZM-24.7699 432.631C-24.9499 432.631 -25.1299 432.541 -25.2399 432.391C-26.3599 430.771 -26.9799 429.871 -26.9799 429.871C-27.1599 429.611 -27.0899 429.261 -26.8299 429.081C-26.5699 428.901 -26.2199 428.971 -26.0399 429.231C-26.0399 429.231 -25.4299 430.131 -24.3099 431.741C-24.1299 432.001 -24.1999 432.351 -24.4499 432.531C-24.5499 432.601 -24.6599 432.631 -24.7699 432.631Z" fill="#2A557F"/>
<path d="M34.9 501.61C34.79 501.61 34.67 501.58 34.57 501.5C34.32 501.32 34.26 500.96 34.44 500.71C34.73 500.31 35.02 499.9 35.31 499.48C35.49 499.22 35.84 499.16 36.1 499.34C36.36 499.52 36.42 499.87 36.24 500.13C35.95 500.56 35.65 500.97 35.36 501.38C35.25 501.53 35.08 501.62 34.9 501.62V501.61ZM39.07 495.27C38.97 495.27 38.87 495.24 38.77 495.19C38.5 495.03 38.42 494.68 38.58 494.41L39.36 493.12C39.52 492.85 39.87 492.76 40.14 492.92C40.41 493.08 40.5 493.43 40.34 493.7L39.55 495C39.44 495.17 39.26 495.27 39.06 495.27H39.07ZM42.89 488.71C42.8 488.71 42.7 488.69 42.61 488.64C42.34 488.49 42.24 488.14 42.39 487.87L43.12 486.55C43.27 486.27 43.62 486.17 43.89 486.32C44.17 486.47 44.27 486.82 44.12 487.09L43.38 488.42C43.28 488.61 43.08 488.71 42.88 488.71H42.89ZM46.47 482.02C46.38 482.02 46.29 482 46.21 481.96C45.93 481.82 45.82 481.47 45.96 481.2C46.4 480.34 46.65 479.85 46.65 479.85C46.79 479.57 47.13 479.46 47.41 479.59C47.69 479.73 47.81 480.07 47.67 480.35C47.67 480.35 47.42 480.85 46.98 481.72C46.88 481.92 46.68 482.03 46.47 482.03V482.02Z" fill="#2A557F"/>
<path d="M44.3399 477.91C44.1999 477.91 44.0599 477.86 43.9499 477.75L42.8499 476.71C42.6199 476.49 42.6099 476.14 42.8299 475.91C43.0499 475.68 43.3999 475.67 43.6299 475.89L44.7299 476.94C44.9599 477.16 44.9699 477.52 44.7499 477.74C44.6399 477.86 44.4899 477.92 44.3399 477.92V477.91ZM39.8999 473.77C39.7599 473.77 39.6299 473.72 39.5199 473.62L38.3999 472.6C38.1699 472.39 38.1499 472.03 38.3599 471.8C38.5699 471.56 38.9299 471.55 39.1599 471.76L40.2799 472.78C40.5099 472.99 40.5299 473.35 40.3199 473.58C40.2099 473.7 40.0499 473.76 39.8999 473.76V473.77ZM35.3899 469.71C35.2599 469.71 35.1199 469.66 35.0099 469.57L33.8799 468.57C33.6399 468.36 33.6199 468 33.8299 467.77C34.0399 467.53 34.3999 467.51 34.6299 467.72L35.7699 468.73C35.9999 468.94 36.0299 469.3 35.8199 469.53C35.7099 469.66 35.5499 469.72 35.3999 469.72L35.3899 469.71ZM30.7999 465.7C30.6799 465.7 30.5599 465.66 30.4599 465.57L29.3099 464.58C29.0699 464.38 29.0499 464.02 29.2499 463.78C29.4599 463.54 29.8099 463.52 30.0499 463.72L31.1499 464.67C31.3899 464.87 31.4399 465.26 31.2299 465.49C31.1099 465.63 30.9499 465.7 30.7899 465.7H30.7999ZM26.2199 461.76C26.0899 461.76 25.9599 461.72 25.8499 461.62L24.6899 460.64C24.4499 460.44 24.4199 460.08 24.6199 459.84C24.8199 459.6 25.1799 459.57 25.4199 459.77L26.5799 460.75C26.8199 460.95 26.8499 461.31 26.6399 461.55C26.5299 461.68 26.3699 461.75 26.2099 461.75L26.2199 461.76ZM21.5799 457.85C21.4499 457.85 21.3199 457.81 21.2199 457.72L20.0499 456.75C19.8099 456.55 19.7699 456.19 19.9699 455.95C20.1699 455.71 20.5299 455.68 20.7699 455.87L21.9399 456.85C22.1799 457.05 22.2099 457.41 22.0099 457.65C21.8999 457.78 21.7399 457.85 21.5699 457.85H21.5799Z" fill="#2A557F"/>
<path d="M34.2607 415.73C34.2607 417.69 32.6807 419.27 30.7207 419.27C28.7607 419.27 27.1807 417.69 27.1807 415.73C27.1807 413.77 28.7607 412.19 30.7207 412.19C32.6807 412.19 34.2607 413.77 34.2607 415.73Z" fill="#2A557F"/>
<path d="M20.4902 460.641C22.8595 460.641 24.7802 458.72 24.7802 456.351C24.7802 453.981 22.8595 452.061 20.4902 452.061C18.1209 452.061 16.2002 453.981 16.2002 456.351C16.2002 458.72 18.1209 460.641 20.4902 460.641Z" fill="#2A557F"/>
<path d="M35.9405 504.701C35.9405 506.881 34.1805 508.641 32.0005 508.641C29.8205 508.641 28.0605 506.881 28.0605 504.701C28.0605 502.521 29.8205 500.761 32.0005 500.761C34.1805 500.761 35.9405 502.521 35.9405 504.701Z" fill="#2A557F"/>
<path d="M48.9306 480.1C48.9306 481.08 48.1406 481.87 47.1606 481.87C46.1806 481.87 45.3906 481.08 45.3906 480.1C45.3906 479.12 46.1806 478.33 47.1606 478.33C48.1406 478.33 48.9306 479.12 48.9306 480.1Z" fill="#2A557F"/>
<path d="M139.76 394.5C139.76 395.15 139.23 395.68 138.58 395.68C137.93 395.68 137.4 395.15 137.4 394.5C137.4 393.85 137.93 393.32 138.58 393.32C139.23 393.32 139.76 393.85 139.76 394.5Z" fill="#2A557F"/>
<path d="M269.88 449.651C269.88 450.301 269.351 450.831 268.701 450.831C268.051 450.831 267.521 450.301 267.521 449.651C267.521 449.001 268.051 448.471 268.701 448.471C269.351 448.471 269.88 449.001 269.88 449.651Z" fill="#2A557F"/>
<path d="M317.56 405.641C317.56 406.291 317.03 406.821 316.38 406.821C315.73 406.821 315.2 406.291 315.2 405.641C315.2 404.991 315.73 404.461 316.38 404.461C317.03 404.461 317.56 404.991 317.56 405.641Z" fill="#2A557F"/>
<path d="M205.97 473.37C205.97 474.02 205.44 474.55 204.79 474.55C204.14 474.55 203.61 474.02 203.61 473.37C203.61 472.72 204.14 472.19 204.79 472.19C205.44 472.19 205.97 472.72 205.97 473.37Z" fill="#2A557F"/>
<path d="M315.201 577.15C315.852 577.15 316.38 576.622 316.38 575.97C316.38 575.318 315.852 574.79 315.201 574.79C314.549 574.79 314.021 575.318 314.021 575.97C314.021 576.622 314.549 577.15 315.201 577.15Z" fill="#2A557F"/>
<path d="M11.6098 222.211C11.6098 222.211 11.6298 222.211 11.6398 222.211L12.9898 221.891C13.2898 221.821 13.5998 222.011 13.6698 222.311C13.7398 222.611 13.5998 222.921 13.2498 222.991L11.8998 223.311C11.5898 223.381 11.2898 223.191 11.2198 222.891C11.1498 222.601 11.3198 222.301 11.6098 222.211ZM20.3498 220.251C20.3498 220.251 20.3798 220.251 20.3998 220.241C21.4098 220.031 22.3998 219.831 23.3698 219.631C23.6798 219.571 23.9798 219.771 24.0398 220.081C24.0998 220.391 23.9198 220.691 23.5898 220.751C22.6198 220.941 21.6298 221.141 20.6298 221.351C20.3198 221.411 20.0198 221.221 19.9598 220.911C19.8998 220.621 20.0698 220.331 20.3498 220.251ZM30.7698 218.271C30.7698 218.271 30.8198 218.261 30.8398 218.251C31.8698 218.081 32.8698 217.911 33.8398 217.761C34.1498 217.711 34.4398 217.921 34.4898 218.231C34.5398 218.541 34.3398 218.831 34.0198 218.881C33.0498 219.031 32.0598 219.191 31.0398 219.371C30.7298 219.421 30.4398 219.211 30.3898 218.911C30.3398 218.621 30.5098 218.351 30.7798 218.271H30.7698ZM41.2598 216.711C41.2598 216.711 41.3198 216.691 41.3598 216.691C42.4198 216.561 43.4298 216.441 44.3798 216.341C44.6898 216.311 44.9698 216.531 45.0098 216.841C45.0398 217.151 44.8298 217.431 44.5098 217.471C43.5698 217.571 42.5698 217.691 41.5098 217.821C41.1998 217.861 40.9098 217.641 40.8798 217.331C40.8398 217.051 41.0198 216.801 41.2798 216.721L41.2598 216.711ZM51.8198 215.701C51.8198 215.701 51.9098 215.681 51.9498 215.681C53.9598 215.561 55.0098 215.551 55.0098 215.551C55.3198 215.551 55.5798 215.801 55.5798 216.111C55.5798 216.421 55.3298 216.681 55.0198 216.681C55.0198 216.681 53.9798 216.691 52.0198 216.811C51.7098 216.831 51.4398 216.591 51.4198 216.281C51.3998 216.011 51.5698 215.781 51.8198 215.701Z" fill="#2A557F"/>
<path d="M-8.73993 150.081C-8.73993 150.081 -8.68993 150.071 -8.65993 150.061C-8.34993 150.011 -8.05993 150.231 -8.00993 150.541C-7.70993 152.531 -7.37993 154.531 -7.02993 156.521C-6.97993 156.831 -7.16993 157.121 -7.48993 157.181C-7.79993 157.231 -8.08993 157.031 -8.14993 156.721C-8.49993 154.721 -8.82993 152.711 -9.12993 150.711C-9.16993 150.431 -8.99993 150.161 -8.72993 150.081H-8.73993ZM-5.40993 167.961C-5.40993 167.961 -5.37993 167.961 -5.36993 167.951C-5.05993 167.881 -4.75993 168.081 -4.68993 168.381C-3.95993 171.711 -3.14993 175.171 -2.26993 178.691C-2.19993 178.991 -2.36993 179.321 -2.67993 179.381C-2.97993 179.461 -3.28993 179.271 -3.36993 178.971C-4.24993 175.451 -5.06993 171.971 -5.79993 168.631C-5.85993 168.341 -5.68993 168.051 -5.40993 167.971V167.961ZM0.150069 189.991H0.160071C0.460071 189.901 0.780068 190.081 0.860068 190.381C1.66007 193.201 2.46007 195.901 3.23007 198.451L3.87007 200.541C3.96007 200.841 3.77007 201.161 3.49007 201.251C3.19007 201.341 2.87007 201.171 2.78007 200.871L2.14007 198.781C1.36007 196.221 0.56007 193.521 -0.23993 190.691C-0.31993 190.391 -0.149933 190.081 0.140067 189.991H0.150069ZM6.91007 211.691C7.20007 211.601 7.51007 211.761 7.61007 212.051C9.71007 218.221 11.1501 221.991 11.1701 222.021C11.2801 222.311 11.1401 222.641 10.8401 222.751C10.5001 222.861 10.2201 222.721 10.1101 222.421C10.1001 222.381 8.64007 218.601 6.54007 212.411C6.44007 212.111 6.60007 211.791 6.90007 211.691H6.92007H6.91007Z" fill="#2A557F"/>
<path d="M-7.81071 104.23C-7.57071 104.16 -7.31071 104.25 -7.17071 104.46L-6.97072 104.77C-6.80072 105.03 -6.88072 105.39 -7.15072 105.55C-7.41072 105.72 -7.77072 105.64 -7.93072 105.37L-8.12072 105.07C-8.29072 104.81 -8.22071 104.46 -7.95071 104.28C-7.90071 104.25 -7.86071 104.23 -7.81071 104.21V104.23ZM-1.80071 113.41C-1.57071 113.34 -1.31071 113.42 -1.16071 113.64C-0.0407127 115.31 1.09928 116.99 2.23928 118.66C2.41928 118.92 2.34929 119.27 2.08929 119.45C1.82929 119.63 1.47929 119.56 1.29929 119.3C0.149287 117.63 -0.990717 115.95 -2.11072 114.27C-2.29072 114.01 -2.22072 113.66 -1.96072 113.48C-1.91072 113.45 -1.86071 113.42 -1.81071 113.41H-1.80071ZM7.67928 127.14C7.90928 127.07 8.15928 127.15 8.30928 127.36C9.48928 129.02 10.6693 130.67 11.8393 132.29C12.0193 132.54 11.9693 132.9 11.7093 133.08C11.4493 133.26 11.0993 133.21 10.9193 132.95C9.74928 131.32 8.56928 129.68 7.38928 128.01C7.20928 127.75 7.26929 127.4 7.51929 127.22C7.56929 127.18 7.62928 127.16 7.67928 127.14ZM17.4693 140.65C17.6893 140.58 17.9493 140.65 18.0893 140.86C19.3193 142.52 20.5293 144.15 21.7093 145.72C21.8993 145.97 21.8493 146.33 21.5993 146.51C21.3493 146.7 20.9893 146.65 20.7993 146.4C19.6193 144.82 18.4093 143.2 17.1693 141.53C16.9793 141.28 17.0393 140.92 17.2893 140.74C17.3393 140.7 17.3993 140.67 17.4593 140.65H17.4693ZM27.5093 153.98C27.7293 153.91 27.9793 153.98 28.1293 154.18C29.4293 155.88 30.6693 157.48 31.8293 158.98C32.0193 159.23 31.9793 159.58 31.7293 159.78C31.4793 159.97 31.1193 159.93 30.9293 159.68C29.7693 158.18 28.5293 156.57 27.2293 154.87C27.0393 154.62 27.0893 154.26 27.3393 154.07C27.3993 154.03 27.4593 154 27.5193 153.98H27.5093ZM37.7593 167.14C37.9793 167.07 38.2193 167.14 38.3693 167.33C40.7693 170.35 42.1693 172.07 42.1693 172.07C42.3693 172.31 42.3293 172.67 42.0893 172.87C41.8393 173.07 41.4893 173.03 41.2893 172.79C41.2893 172.79 39.8893 171.07 37.4893 168.03C37.2893 167.78 37.3393 167.43 37.5793 167.23C37.6393 167.18 37.6993 167.15 37.7693 167.13L37.7593 167.14Z" fill="#2A557F"/>
<path d="M28.4394 52.3707C28.6294 52.3107 28.8395 52.3607 28.9995 52.5007C29.2295 52.7207 29.2394 53.0807 29.0194 53.3007C28.9994 53.3307 26.5594 55.9007 22.9594 60.0807C22.7594 60.3207 22.3994 60.3407 22.1594 60.1407C21.9194 59.9407 21.8994 59.5807 22.0994 59.3407C25.7294 55.1407 28.1694 52.5507 28.1994 52.5207C28.2694 52.4507 28.3594 52.4007 28.4494 52.3707H28.4394ZM14.6294 68.5307C14.7994 68.4807 14.9994 68.5107 15.1494 68.6307C15.3994 68.8207 15.4394 69.1807 15.2394 69.4307C13.3194 71.8607 11.4694 74.2907 9.73944 76.6507C9.54944 76.9007 9.19945 76.9607 8.94945 76.7707C8.69945 76.5807 8.63944 76.2307 8.82944 75.9807C10.5694 73.6107 12.4294 71.1707 14.3594 68.7307C14.4294 68.6407 14.5294 68.5707 14.6394 68.5407L14.6294 68.5307ZM2.21944 85.7507C2.36944 85.7007 2.54945 85.7207 2.68945 85.8207C2.94945 85.9907 3.02944 86.3407 2.85944 86.6107C1.14944 89.2607 -0.430553 91.8707 -1.84055 94.3607C-2.00055 94.6307 -2.34056 94.7307 -2.61056 94.5807C-2.88056 94.4207 -2.98056 94.0807 -2.83056 93.8107C-1.41056 91.3007 0.179447 88.6707 1.90945 86.0007C1.98945 85.8807 2.09944 85.8007 2.21944 85.7707V85.7507Z" fill="#2A557F"/>
<path d="M33.9093 52.6407C34.0293 52.2407 38.7593 46.7107 37.6393 45.5307C36.5093 44.3407 31.1993 47.6907 30.8693 47.5107C30.3593 47.2407 26.4793 41.7807 25.3693 42.1207C24.0993 42.5107 25.4693 48.8507 25.0893 49.5507C24.6493 50.3807 18.1293 50.5707 17.9693 51.7807C17.7693 53.2507 24.3593 55.4107 24.3493 55.8407C24.3493 56.8007 22.9893 62.6707 24.2593 63.3507C25.7293 64.1307 29.5293 58.2407 30.4593 58.2607C31.3893 58.2807 36.4193 60.5207 37.5493 59.3707C38.4093 58.5007 33.6793 53.3207 33.8893 52.6407H33.9093Z" fill="#2A557F"/>
<path d="M44.5897 172.16C44.6697 171.93 47.5297 168.92 46.9297 168.21C46.3197 167.5 43.1897 169.25 43.0097 169.14C42.7297 168.97 40.6697 165.74 40.0297 165.9C39.2897 166.09 39.8897 169.74 39.6497 170.13C39.3697 170.59 35.6497 170.51 35.5197 171.2C35.3597 172.04 39.0597 173.46 39.0397 173.7C39.0097 174.25 38.0597 177.56 38.7697 177.98C39.5797 178.47 41.9297 175.22 42.4597 175.25C42.9897 175.29 45.7997 176.71 46.4797 176.09C46.9997 175.62 44.4497 172.52 44.5897 172.14V172.16Z" fill="#2A557F"/>
<path d="M10.6399 226C12.7165 226 14.3999 224.317 14.3999 222.24C14.3999 220.164 12.7165 218.48 10.6399 218.48C8.56329 218.48 6.87988 220.164 6.87988 222.24C6.87988 224.317 8.56329 226 10.6399 226Z" fill="#2A557F"/>
<path d="M53.09 216.691C52.77 215.631 53.37 214.511 54.43 214.181C55.49 213.851 56.61 214.461 56.94 215.521C57.27 216.581 56.66 217.701 55.6 218.021C54.54 218.341 53.42 217.741 53.09 216.681V216.691Z" fill="#2A557F"/>
<path d="M54.5804 112.281C55.2321 112.281 55.7604 111.753 55.7604 111.101C55.7604 110.449 55.2321 109.921 54.5804 109.921C53.9287 109.921 53.4004 110.449 53.4004 111.101C53.4004 111.753 53.9287 112.281 54.5804 112.281Z" fill="#2A557F"/>
<path d="M247.969 80.75C247.899 80.86 247.769 80.94 247.629 80.95L246.429 81.04C246.179 81.06 245.969 80.87 245.949 80.63C245.929 80.38 246.119 80.17 246.359 80.15L247.569 80.06C247.819 80.04 248.029 80.23 248.049 80.48C248.049 80.58 248.029 80.68 247.979 80.76L247.969 80.75ZM243.169 81.12C243.099 81.23 242.969 81.31 242.829 81.32L241.629 81.42C241.379 81.44 241.169 81.26 241.139 81.01C241.119 80.76 241.299 80.55 241.549 80.52L242.749 80.42C242.999 80.4 243.209 80.58 243.239 80.83C243.239 80.93 243.219 81.03 243.169 81.11V81.12ZM238.389 81.53C238.319 81.64 238.199 81.72 238.049 81.73L236.859 81.84C236.609 81.86 236.389 81.68 236.369 81.43C236.349 81.19 236.529 80.96 236.779 80.94L237.979 80.83C238.229 80.81 238.449 80.99 238.469 81.24C238.469 81.35 238.449 81.44 238.399 81.53H238.389ZM233.609 81.97C233.539 82.08 233.419 82.16 233.279 82.17L232.089 82.29C231.839 82.31 231.619 82.13 231.599 81.89C231.569 81.64 231.749 81.42 231.999 81.4L233.199 81.28C233.449 81.26 233.669 81.44 233.689 81.69C233.699 81.79 233.669 81.9 233.619 81.98L233.609 81.97ZM228.799 82.47C228.739 82.57 228.639 82.63 228.509 82.65L227.319 82.77C227.069 82.8 226.849 82.62 226.829 82.37C226.799 82.12 226.979 81.9 227.229 81.88L228.349 81.76C228.599 81.73 228.849 81.91 228.879 82.16C228.889 82.28 228.869 82.39 228.809 82.47H228.799ZM224.059 82.95C223.989 83.06 223.869 83.14 223.729 83.15L222.539 83.28C222.289 83.31 222.069 83.13 222.039 82.88C222.009 82.63 222.189 82.41 222.439 82.38L223.629 82.25C223.879 82.22 224.099 82.4 224.129 82.65C224.139 82.76 224.109 82.86 224.059 82.95ZM219.289 83.49C219.219 83.6 219.099 83.67 218.969 83.69L217.779 83.83C217.529 83.86 217.309 83.68 217.279 83.44C217.249 83.19 217.419 82.97 217.669 82.94L218.859 82.8C219.109 82.77 219.329 82.95 219.359 83.19C219.369 83.3 219.349 83.4 219.289 83.49ZM214.529 84.07C214.459 84.18 214.349 84.25 214.209 84.27L213.019 84.42C212.769 84.45 212.549 84.28 212.519 84.03C212.489 83.78 212.659 83.56 212.909 83.53L214.099 83.38C214.349 83.35 214.569 83.52 214.599 83.77C214.609 83.88 214.589 83.99 214.529 84.07ZM209.769 84.7C209.699 84.8 209.589 84.88 209.459 84.9L208.269 85.06C208.019 85.09 207.799 84.92 207.759 84.68C207.719 84.44 207.899 84.21 208.139 84.17L209.329 84C209.579 83.97 209.799 84.14 209.839 84.38C209.849 84.49 209.829 84.6 209.769 84.69V84.7ZM205.019 85.38C204.949 85.48 204.839 85.56 204.709 85.58L203.529 85.76C203.279 85.8 203.059 85.63 203.019 85.38C202.979 85.14 203.149 84.91 203.399 84.87L204.589 84.69C204.839 84.65 205.059 84.82 205.099 85.07C205.119 85.18 205.089 85.29 205.029 85.38H205.019ZM200.249 86.15C200.189 86.24 200.089 86.31 199.969 86.33H199.919L199.019 86.49C198.769 86.53 198.539 86.37 198.499 86.12C198.459 85.88 198.619 85.64 198.869 85.6L199.769 85.45C200.009 85.41 200.269 85.57 200.309 85.82C200.329 85.94 200.309 86.06 200.249 86.15Z" fill="#2A557F"/>
<path d="M194.43 88.8402C194.43 88.8402 194.4 88.8802 194.38 88.9002C193.86 89.4602 193.31 90.0402 192.74 90.6602C192.57 90.8402 192.29 90.8502 192.1 90.6802C191.92 90.5102 191.9 90.2302 192.08 90.0402C192.65 89.4302 193.2 88.8402 193.72 88.2802C193.89 88.1002 194.17 88.0902 194.36 88.2602C194.52 88.4102 194.55 88.6502 194.43 88.8302V88.8402ZM187.93 95.9202C187.93 95.9202 187.9 95.9602 187.89 95.9802L186.28 97.7602C186.11 97.9402 185.83 97.9602 185.64 97.7902C185.46 97.6302 185.44 97.3502 185.61 97.1602L187.22 95.3802C187.39 95.2002 187.67 95.1802 187.85 95.3502C188.02 95.5002 188.04 95.7502 187.93 95.9302V95.9202ZM181.51 103.07C181.51 103.07 181.48 103.11 181.47 103.12L179.87 104.91C179.7 105.1 179.42 105.11 179.23 104.95C179.05 104.79 179.03 104.51 179.19 104.31L180.79 102.52C180.96 102.33 181.24 102.32 181.43 102.48C181.6 102.63 181.63 102.88 181.51 103.06V103.07ZM175.13 110.26C175.13 110.26 175.1 110.3 175.09 110.31L173.49 112.12C173.33 112.31 173.04 112.33 172.86 112.16C172.67 112 172.65 111.71 172.82 111.53L174.42 109.72C174.58 109.53 174.87 109.52 175.05 109.68C175.22 109.83 175.25 110.08 175.13 110.26Z" fill="#2A557F"/>
<path d="M218.28 106.71C218.24 106.77 218.18 106.83 218.11 106.86C217.89 106.97 217.62 106.89 217.5 106.67C217.26 106.2 216.88 105.48 216.36 104.59C216.23 104.37 216.31 104.1 216.52 103.98C216.73 103.85 217.01 103.93 217.13 104.14C217.66 105.05 218.05 105.79 218.3 106.27C218.38 106.42 218.36 106.59 218.28 106.72V106.71ZM214.53 100.57C214.53 100.57 214.46 100.66 214.41 100.69C214.21 100.83 213.93 100.79 213.78 100.58C213.34 99.9598 212.87 99.3198 212.36 98.6698C212.21 98.4698 212.24 98.1898 212.44 98.0398C212.64 97.8898 212.92 97.9198 213.07 98.1198C213.59 98.7798 214.07 99.4298 214.51 100.06C214.62 100.22 214.62 100.42 214.51 100.57H214.53ZM202.32 112.85C202.26 112.93 202.18 113 202.08 113.03C201.84 113.1 201.59 112.97 201.52 112.74C201.28 111.97 201.06 111.2 200.85 110.41C200.79 110.17 200.94 109.92 201.17 109.86C201.41 109.8 201.66 109.94 201.72 110.18C201.92 110.95 202.13 111.71 202.37 112.46C202.41 112.59 202.39 112.73 202.32 112.84V112.85ZM209.99 94.9898C209.99 94.9898 209.95 95.0498 209.92 95.0698C209.74 95.2398 209.45 95.2298 209.28 95.0498C208.75 94.4798 208.19 93.9198 207.61 93.3698C207.43 93.1998 207.42 92.9198 207.59 92.7298C207.76 92.5498 208.05 92.5398 208.23 92.7098C208.82 93.2798 209.39 93.8498 209.94 94.4298C210.09 94.5798 210.1 94.8098 209.99 94.9798V94.9898ZM200.7 105.84C200.63 105.94 200.52 106.02 200.39 106.04C200.14 106.08 199.91 105.91 199.88 105.67C199.75 104.87 199.64 104.07 199.55 103.28C199.52 103.03 199.7 102.81 199.94 102.78C200.19 102.75 200.41 102.93 200.44 103.17C200.53 103.95 200.64 104.74 200.77 105.53C200.79 105.65 200.77 105.76 200.7 105.85V105.84ZM199.95 98.6798C199.87 98.7998 199.75 98.8698 199.6 98.8798C199.35 98.8898 199.14 98.6998 199.13 98.4598C199.08 97.6298 199.05 96.8198 199.03 96.0498C199.03 95.7998 199.22 95.5898 199.47 95.5898C199.72 95.5898 199.93 95.7798 199.93 96.0298C199.95 96.7998 199.98 97.5898 200.03 98.4198C200.03 98.5198 200.01 98.6098 199.96 98.6898L199.95 98.6798ZM204.63 90.1898C204.63 90.1898 204.62 90.2098 204.61 90.2098C204.46 90.4098 204.18 90.4498 203.98 90.2998C203.41 89.8798 202.83 89.4698 202.23 89.0798L202.03 88.9498C201.82 88.8098 201.76 88.5398 201.9 88.3298C202.04 88.1198 202.31 88.0598 202.52 88.1998L202.71 88.3198C203.33 88.7298 203.93 89.1498 204.51 89.5798C204.7 89.7198 204.75 89.9898 204.62 90.1898H204.63ZM199.83 91.4798C199.75 91.6098 199.6 91.6898 199.44 91.6798C199.19 91.6798 199 91.4698 199 91.2198C199.02 90.2798 199.06 89.4598 199.09 88.8098C199.1 88.5598 199.31 88.3698 199.56 88.3798C199.81 88.3898 200 88.5998 199.99 88.8498C199.96 89.4998 199.92 90.3098 199.9 91.2398C199.9 91.3298 199.87 91.4098 199.83 91.4698V91.4798Z" fill="#2A557F"/>
<path d="M218.439 107.61C218.399 107.68 218.329 107.74 218.249 107.77C218.249 107.77 217.849 107.96 217.139 108.26C216.909 108.36 216.649 108.26 216.549 108.02C216.449 107.79 216.549 107.53 216.789 107.43C217.479 107.13 217.879 106.95 217.879 106.95C218.109 106.85 218.369 106.95 218.479 107.17C218.549 107.32 218.529 107.48 218.449 107.6L218.439 107.61ZM213.999 109.44C213.949 109.52 213.879 109.58 213.779 109.61C213.419 109.75 213.039 109.89 212.649 110.03C212.419 110.12 212.159 110 212.069 109.76C211.979 109.53 212.099 109.27 212.339 109.18C212.729 109.04 213.099 108.9 213.459 108.76C213.689 108.67 213.949 108.79 214.039 109.02C214.089 109.16 214.069 109.31 213.999 109.42V109.44ZM209.459 111.01C209.399 111.1 209.319 111.16 209.219 111.19C208.839 111.31 208.449 111.42 208.059 111.54C207.819 111.61 207.569 111.47 207.499 111.23C207.429 110.99 207.569 110.74 207.809 110.67C208.189 110.56 208.579 110.44 208.949 110.33C209.189 110.26 209.439 110.39 209.509 110.63C209.549 110.76 209.529 110.9 209.459 111.01ZM204.819 112.23C204.759 112.33 204.659 112.4 204.539 112.42C204.139 112.5 203.739 112.58 203.349 112.65C203.109 112.69 202.869 112.53 202.829 112.29C202.789 112.05 202.949 111.81 203.189 111.77C203.579 111.7 203.959 111.63 204.349 111.54C204.589 111.49 204.829 111.64 204.879 111.89C204.909 112.01 204.879 112.13 204.819 112.23Z" fill="#2A557F"/>
<path d="M220.969 142.68C220.889 142.81 220.749 142.89 220.579 142.88C220.329 142.88 220.129 142.67 220.139 142.42C220.139 142.42 220.159 141.53 220.169 140.02C220.169 139.77 220.369 139.57 220.619 139.57C220.869 139.57 221.069 139.77 221.069 140.02C221.069 141.55 221.039 142.44 221.039 142.44C221.039 142.53 221.009 142.61 220.969 142.68ZM220.939 133.06C220.859 133.18 220.729 133.26 220.569 133.26C220.319 133.26 220.119 133.07 220.109 132.82C220.089 132.05 220.069 131.25 220.049 130.42C220.049 130.17 220.239 129.96 220.489 129.96C220.739 129.96 220.949 130.15 220.949 130.4C220.979 131.23 220.999 132.03 221.009 132.81C221.009 132.9 220.979 132.99 220.939 133.07V133.06ZM220.549 123.47C220.479 123.58 220.349 123.66 220.199 123.67C219.949 123.69 219.739 123.5 219.719 123.25C219.669 122.46 219.619 121.66 219.559 120.86C219.539 120.61 219.729 120.4 219.979 120.38C220.229 120.36 220.439 120.55 220.459 120.8C220.519 121.6 220.569 122.4 220.619 123.2C220.619 123.3 220.599 123.39 220.549 123.47ZM219.679 113.91C219.609 114.02 219.499 114.09 219.359 114.11C219.109 114.14 218.889 113.97 218.859 113.72C218.759 112.92 218.649 112.13 218.529 111.35C218.489 111.11 218.659 110.88 218.909 110.84C219.159 110.8 219.379 110.97 219.419 111.22C219.539 112 219.649 112.8 219.749 113.61C219.759 113.72 219.739 113.83 219.679 113.91Z" fill="#2A557F"/>
<path d="M189.699 125.66C189.569 125.87 189.289 125.93 189.079 125.79L188.769 125.59C188.129 125.17 186.789 124.28 185.089 123.07C184.889 122.93 184.819 122.64 184.979 122.44C185.119 122.24 185.399 122.19 185.609 122.33C187.299 123.53 188.619 124.41 189.259 124.83L189.559 125.02C189.769 125.15 189.829 125.43 189.699 125.64V125.66ZM180.929 119.35C180.929 119.35 180.909 119.37 180.909 119.38C180.759 119.57 180.469 119.61 180.279 119.45C178.939 118.39 177.699 117.34 176.589 116.34C176.409 116.18 176.389 115.89 176.559 115.71C176.729 115.53 177.009 115.51 177.199 115.68C178.299 116.67 179.519 117.7 180.849 118.75C181.029 118.9 181.069 119.16 180.949 119.35H180.929Z" fill="#2A557F"/>
<path d="M224.3 148.06C224.65 147.88 231.51 147.58 231.61 146.05C231.7 144.5 225.97 143.01 225.88 142.67C225.74 142.15 227 135.95 226.05 135.41C224.96 134.79 221.48 139.82 220.75 140.01C219.9 140.24 215.56 135.88 214.62 136.54C213.48 137.35 216.24 143.28 215.94 143.55C215.28 144.16 210.36 147.02 210.71 148.33C211.12 149.84 217.63 148.67 218.22 149.32C218.81 149.97 220.51 154.88 222.03 154.92C223.18 154.95 223.71 148.35 224.31 148.05L224.3 148.06Z" fill="#2A557F"/>
<path d="M200.54 89.6904C200.82 89.6004 205.81 90.1104 206.04 89.0204C206.27 87.9104 202.29 86.2204 202.26 85.9604C202.21 85.5704 203.79 81.2204 203.16 80.7204C202.44 80.1504 199.38 83.4204 198.84 83.4804C198.2 83.5504 195.53 79.9304 194.78 80.3204C193.87 80.7904 195.23 85.3704 194.99 85.5404C194.44 85.9104 190.58 87.4504 190.69 88.4404C190.82 89.5804 195.66 89.4304 196.02 89.9604C196.38 90.4904 197.08 94.2304 198.17 94.4204C199 94.5704 200.09 89.8504 200.55 89.7004L200.54 89.6904Z" fill="#2A557F"/>
<path d="M187.849 124.65C188.269 123.83 189.269 123.51 190.089 123.94C190.909 124.36 191.229 125.36 190.799 126.18C190.379 127 189.379 127.32 188.559 126.89C187.739 126.47 187.419 125.47 187.849 124.65Z" fill="#2A557F"/>
<path d="M170.2 110.3C171.04 108.67 173.05 108.03 174.68 108.87C176.31 109.71 176.95 111.72 176.11 113.35C175.27 114.98 173.26 115.62 171.63 114.78C170 113.94 169.36 111.93 170.2 110.3Z" fill="#2A557F"/>
<path d="M216.559 106.24C217.029 105.33 218.149 104.97 219.059 105.44C219.969 105.91 220.319 107.03 219.859 107.94C219.389 108.85 218.269 109.2 217.359 108.74C216.449 108.27 216.099 107.15 216.559 106.24Z" fill="#2A557F"/>
<path d="M200.57 111.83C200.97 111.06 201.91 110.76 202.68 111.16C203.45 111.56 203.75 112.5 203.35 113.27C202.95 114.04 202.01 114.34 201.24 113.94C200.47 113.54 200.17 112.6 200.57 111.83Z" fill="#2A557F"/>
<path d="M244.71 79.02C245.53 77.43 247.49 76.8 249.08 77.63C250.67 78.45 251.3 80.41 250.47 82C249.65 83.59 247.69 84.22 246.1 83.39C244.51 82.56 243.88 80.61 244.71 79.02Z" fill="#2A557F"/>
<path d="M347.929 170.72L347.419 170.39C347.159 170.22 347.089 169.86 347.259 169.6C347.439 169.34 347.729 169.23 348.049 169.44L348.549 169.77C348.809 169.94 348.889 170.29 348.719 170.56C348.549 170.83 348.199 170.9 347.929 170.73V170.72ZM340.209 164.87C340.209 164.87 340.169 164.84 340.149 164.82C339.369 164.14 338.609 163.45 337.889 162.77C337.659 162.55 337.649 162.19 337.869 161.97C338.089 161.74 338.439 161.73 338.669 161.95C339.389 162.63 340.129 163.3 340.899 163.97C341.139 164.18 341.159 164.53 340.949 164.77C340.759 164.99 340.449 165.03 340.209 164.87ZM331.729 156.22C331.729 156.22 331.639 156.15 331.609 156.11C330.929 155.3 330.289 154.51 329.689 153.74C329.499 153.49 329.539 153.14 329.789 152.94C330.039 152.75 330.389 152.79 330.589 153.04C331.179 153.8 331.809 154.58 332.489 155.38C332.689 155.62 332.659 155.98 332.419 156.18C332.219 156.35 331.949 156.35 331.739 156.22H331.729ZM324.649 146.38C324.579 146.33 324.519 146.27 324.469 146.2C323.469 144.54 322.979 143.56 322.949 143.51C322.809 143.23 322.919 142.89 323.199 142.75C323.479 142.61 323.819 142.72 323.959 143.01C323.959 143.01 324.459 144 325.429 145.61C325.589 145.88 325.509 146.23 325.239 146.39C325.049 146.51 324.809 146.49 324.639 146.38H324.649Z" fill="#2A557F"/>
<path d="M311.05 216.44C310.8 216.28 310.72 215.95 310.86 215.69C310.88 215.66 312.62 212.49 315.5 207.83C315.67 207.56 316.02 207.48 316.28 207.65C316.54 207.82 316.63 208.17 316.46 208.43C313.6 213.06 311.87 216.2 311.85 216.24C311.7 216.52 311.35 216.62 311.08 216.47C311.07 216.47 311.05 216.46 311.04 216.45L311.05 216.44ZM322.32 198.47H322.31C322.05 198.28 321.99 197.93 322.17 197.67C323.96 195.09 325.77 192.61 327.54 190.3C327.73 190.05 328.06 189.97 328.34 190.19C328.59 190.38 328.64 190.74 328.45 190.99C326.69 193.29 324.89 195.75 323.11 198.32C322.93 198.57 322.59 198.64 322.33 198.47H322.32ZM335.43 181.8C335.43 181.8 335.38 181.76 335.36 181.74C335.13 181.53 335.11 181.17 335.32 180.94C337.53 178.52 339.72 176.36 341.82 174.5C342.05 174.29 342.41 174.3 342.62 174.55C342.83 174.79 342.81 175.14 342.57 175.35C340.5 177.18 338.34 179.32 336.16 181.71C335.97 181.92 335.66 181.95 335.43 181.8Z" fill="#2A557F"/>
<path d="M332.21 262.13C332.21 262.13 332.12 262.06 332.08 262.01C332.05 261.98 331.39 261.15 330.27 259.53C330.09 259.27 330.16 258.92 330.41 258.74C330.67 258.56 331.02 258.63 331.2 258.88C332.29 260.46 332.96 261.29 332.96 261.3C333.16 261.54 333.12 261.9 332.87 262.1C332.67 262.26 332.4 262.26 332.2 262.13H332.21ZM325.6 251.97C325.53 251.92 325.46 251.86 325.42 251.78C324.94 250.94 324.45 250.05 323.94 249.12C323.79 248.84 323.89 248.5 324.17 248.35C324.45 248.2 324.79 248.31 324.94 248.58C325.44 249.51 325.93 250.39 326.41 251.22C326.57 251.49 326.47 251.84 326.2 252C326.01 252.11 325.78 252.09 325.61 251.98L325.6 251.97ZM320.06 241.19C319.97 241.13 319.9 241.05 319.85 240.95C319.44 240.05 319.02 239.13 318.6 238.18C318.47 237.89 318.6 237.56 318.89 237.43C319.18 237.3 319.51 237.43 319.64 237.72C320.06 238.66 320.47 239.58 320.88 240.47C321.01 240.75 320.88 241.09 320.6 241.23C320.42 241.31 320.21 241.29 320.05 241.19H320.06ZM315.41 230C315.31 229.94 315.23 229.84 315.19 229.72C314.84 228.78 314.5 227.83 314.16 226.86C314.06 226.56 314.21 226.24 314.51 226.14C314.81 226.03 315.13 226.19 315.23 226.49C315.57 227.45 315.91 228.4 316.25 229.33C316.36 229.62 316.21 229.95 315.92 230.06C315.74 230.13 315.56 230.1 315.41 230ZM311.62 218.49C311.51 218.42 311.42 218.31 311.38 218.17C311.18 217.49 310.99 216.81 310.8 216.12C310.72 215.82 310.89 215.5 311.2 215.42C311.5 215.33 311.82 215.51 311.9 215.82C312.09 216.51 312.28 217.19 312.47 217.86C312.56 218.16 312.38 218.48 312.08 218.56C311.91 218.61 311.75 218.58 311.61 218.49H311.62Z" fill="#2A557F"/>
<path d="M337.2 259.48C337.14 259.44 337.08 259.38 337.03 259.31C336.86 259.05 336.94 258.69 337.2 258.52L337.54 258.3C337.8 258.13 338.15 258.2 338.33 258.47C338.5 258.73 338.43 259.08 338.16 259.26L337.82 259.48C337.63 259.61 337.38 259.6 337.2 259.48ZM341.2 256.56C341.2 256.56 341.11 256.49 341.07 256.44C340.87 256.2 340.91 255.84 341.15 255.64C341.54 255.33 341.92 255.01 342.31 254.68C342.55 254.48 342.91 254.5 343.11 254.74C343.31 254.98 343.29 255.34 343.05 255.54C342.66 255.87 342.27 256.2 341.87 256.52C341.67 256.68 341.4 256.68 341.2 256.55V256.56ZM345.74 252.53C345.74 252.53 345.67 252.48 345.64 252.45C345.42 252.22 345.43 251.86 345.66 251.65C346.02 251.3 346.38 250.95 346.74 250.6C346.96 250.38 347.32 250.39 347.54 250.6C347.76 250.82 347.76 251.18 347.54 251.4C347.18 251.76 346.81 252.11 346.45 252.46C346.25 252.65 345.96 252.67 345.75 252.52L345.74 252.53ZM350 248.21C350 248.21 349.95 248.17 349.92 248.15C349.69 247.94 349.68 247.58 349.89 247.35C350.24 246.98 350.58 246.61 350.92 246.24C351.13 246.01 351.48 245.99 351.72 246.21C351.95 246.42 351.97 246.78 351.75 247.01C351.41 247.38 351.07 247.75 350.71 248.13C350.52 248.33 350.21 248.36 349.99 248.22L350 248.21ZM354.05 243.7C354.05 243.7 354.01 243.67 353.99 243.65C353.75 243.45 353.73 243.09 353.93 242.85C354.27 242.45 354.6 242.07 354.91 241.7C355.11 241.46 355.46 241.42 355.71 241.63C355.95 241.83 355.98 242.19 355.78 242.43C355.47 242.8 355.14 243.19 354.79 243.59C354.6 243.81 354.28 243.85 354.05 243.69V243.7ZM357.93 239.02C357.93 239.02 357.9 239 357.89 238.99C357.64 238.8 357.6 238.44 357.8 238.19C358.4 237.44 358.73 237 358.73 237C358.92 236.75 359.25 236.68 359.53 236.89C359.78 237.08 359.83 237.44 359.64 237.69C359.64 237.69 359.3 238.13 358.7 238.9C358.52 239.13 358.19 239.18 357.94 239.02H357.93Z" fill="#2A557F"/>
<path d="M321.02 141.01C320.87 141.16 317.35 142.5 317.56 143.32C317.78 144.14 321.02 143.93 321.12 144.09C321.28 144.34 321.7 147.78 322.29 147.9C322.96 148.04 323.91 144.82 324.25 144.59C324.65 144.32 327.66 145.85 328.04 145.34C328.5 144.72 326.04 142.11 326.14 141.92C326.38 141.49 328.45 139.15 328.04 138.53C327.57 137.81 324.38 139.55 323.96 139.31C323.54 139.07 321.81 136.81 321.01 137.05C320.41 137.23 321.27 140.76 321.01 141.01H321.02Z" fill="#2A557F"/>
<path d="M331.58 256.66C331.25 256.76 325.38 256.11 325.09 257.4C324.8 258.7 329.48 260.74 329.52 261.04C329.57 261.51 327.68 266.61 328.41 267.2C329.25 267.88 332.89 264.06 333.53 263.99C334.29 263.91 337.39 268.2 338.29 267.76C339.37 267.22 337.81 261.81 338.1 261.61C338.75 261.18 343.31 259.4 343.19 258.24C343.05 256.9 337.35 257.03 336.93 256.4C336.51 255.77 335.72 251.36 334.44 251.12C333.46 250.94 332.14 256.49 331.59 256.66H331.58Z" fill="#2A557F"/>
<path d="M315.57 218.54C314.08 220.82 311.02 221.47 308.73 219.97C306.45 218.48 305.8 215.42 307.3 213.13C308.8 210.84 311.85 210.2 314.14 211.7C316.43 213.2 317.07 216.25 315.57 218.54Z" fill="#2A557F"/>
<path d="M351.329 172.25C350.219 173.95 347.939 174.43 346.239 173.32C344.539 172.21 344.059 169.93 345.169 168.23C346.279 166.53 348.559 166.05 350.259 167.16C351.959 168.27 352.439 170.55 351.329 172.25Z" fill="#2A557F"/>
<path d="M361.56 238.91C360.7 240.22 358.94 240.59 357.63 239.74C356.32 238.89 355.95 237.12 356.8 235.81C357.65 234.5 359.42 234.13 360.73 234.98C362.04 235.83 362.41 237.6 361.56 238.91Z" fill="#2A557F"/>
<path d="M300.63 178.94C301.282 178.94 301.81 178.412 301.81 177.76C301.81 177.108 301.282 176.58 300.63 176.58C299.978 176.58 299.45 177.108 299.45 177.76C299.45 178.412 299.978 178.94 300.63 178.94Z" fill="#2A557F"/>
<path d="M368.36 147.35C369.011 147.35 369.54 146.822 369.54 146.17C369.54 145.519 369.011 144.99 368.36 144.99C367.708 144.99 367.18 145.519 367.18 146.17C367.18 146.822 367.708 147.35 368.36 147.35Z" fill="#2A557F"/>
<path d="M252.76 182.131C253.412 182.131 253.94 181.602 253.94 180.951C253.94 180.299 253.412 179.771 252.76 179.771C252.108 179.771 251.58 180.299 251.58 180.951C251.58 181.602 252.108 182.131 252.76 182.131Z" fill="#2A557F"/>
<path d="M259.55 306.34C260.202 306.34 260.73 305.812 260.73 305.16C260.73 304.509 260.202 303.98 259.55 303.98C258.898 303.98 258.37 304.509 258.37 305.16C258.37 305.812 258.898 306.34 259.55 306.34Z" fill="#2A557F"/>
<path d="M393.921 95.6905C393.851 95.6405 393.781 95.5805 393.741 95.5005L392.971 94.1805C392.811 93.9105 392.911 93.5605 393.181 93.4005C393.451 93.2405 393.801 93.3305 393.961 93.6105L394.731 94.9305C394.891 95.2005 394.791 95.5505 394.521 95.7105C394.331 95.8205 394.101 95.8105 393.921 95.6905ZM390.861 90.4305C390.791 90.3805 390.731 90.3205 390.681 90.2405L389.911 88.9305C389.751 88.6605 389.851 88.3105 390.121 88.1505C390.391 87.9905 390.741 88.0805 390.901 88.3605L391.661 89.6705C391.821 89.9405 391.731 90.2905 391.461 90.4505C391.271 90.5605 391.041 90.5505 390.861 90.4405V90.4305ZM387.801 85.1905C387.731 85.1405 387.671 85.0805 387.621 85.0005L386.871 83.7305L387.831 83.1205L388.601 84.4305C388.761 84.7005 388.671 85.0505 388.401 85.2105C388.211 85.3205 387.981 85.3105 387.801 85.2005V85.1905ZM384.731 79.9505C384.661 79.9005 384.601 79.8405 384.551 79.7605L383.781 78.4505C383.621 78.1805 383.711 77.8305 383.981 77.6705C384.251 77.5105 384.601 77.6105 384.761 77.8705L385.531 79.1805C385.691 79.4505 385.601 79.8005 385.331 79.9605C385.141 80.0705 384.911 80.0605 384.731 79.9505ZM381.651 74.7205C381.581 74.6705 381.521 74.6105 381.471 74.5305L380.741 73.2905L381.191 72.9305L381.681 72.6405L382.451 73.9505C382.611 74.2205 382.521 74.5705 382.251 74.7305C382.061 74.8405 381.831 74.8305 381.651 74.7205ZM378.561 69.5005C378.491 69.4505 378.431 69.3905 378.381 69.3105L377.611 68.0105C377.451 67.7405 377.541 67.3905 377.811 67.2305C378.081 67.0705 378.431 67.1505 378.591 67.4305L379.361 68.7405C379.521 69.0105 379.431 69.3605 379.161 69.5205C378.971 69.6305 378.741 69.6205 378.561 69.5105V69.5005ZM375.461 64.2905C375.391 64.2405 375.331 64.1805 375.281 64.1005L374.501 62.8005C374.341 62.5305 374.431 62.1805 374.701 62.0205C374.971 61.8605 375.321 61.9505 375.481 62.2205L376.261 63.5205C376.421 63.7905 376.331 64.1405 376.061 64.3005C375.871 64.4105 375.631 64.4005 375.461 64.2905ZM372.351 59.0805C372.281 59.0305 372.221 58.9705 372.171 58.9005L371.391 57.6005C371.231 57.3305 371.321 56.9805 371.591 56.8205C371.861 56.6605 372.211 56.7505 372.371 57.0205L373.151 58.3205C373.311 58.5905 373.221 58.9405 372.951 59.1005C372.761 59.2205 372.521 59.2005 372.351 59.0905V59.0805ZM369.231 53.8805C369.161 53.8305 369.101 53.7705 369.051 53.7005L368.271 52.4005C368.111 52.1305 368.191 51.7805 368.461 51.6205C368.731 51.4605 369.081 51.5505 369.241 51.8105L370.021 53.1105C370.181 53.3805 370.101 53.7305 369.831 53.8905C369.641 54.0105 369.401 53.9905 369.231 53.8805ZM366.101 48.6805C366.031 48.6305 365.971 48.5705 365.921 48.5005L365.141 47.2005C364.981 46.9305 365.061 46.5805 365.331 46.4205C365.601 46.2605 365.951 46.3405 366.111 46.6105L366.891 47.9105C367.051 48.1805 366.971 48.5305 366.701 48.6905C366.511 48.8105 366.271 48.7905 366.101 48.6805ZM362.961 43.5005C362.891 43.4505 362.831 43.3905 362.791 43.3205L362.001 42.0305C361.841 41.7605 361.921 41.4105 362.191 41.2505C362.461 41.0905 362.811 41.1805 362.971 41.4405L363.761 42.7305C363.921 43.0005 363.841 43.3505 363.571 43.5105C363.381 43.6305 363.141 43.6205 362.961 43.5105V43.5005ZM359.801 38.3205C359.731 38.2705 359.671 38.2105 359.631 38.1405L358.841 36.8405C358.681 36.5705 358.761 36.2205 359.031 36.0605C359.301 35.9005 359.651 35.9805 359.811 36.2505L360.601 37.5505C360.761 37.8205 360.681 38.1705 360.411 38.3305C360.221 38.4505 359.981 38.4405 359.801 38.3305V38.3205ZM356.621 33.1405C356.551 33.1005 356.491 33.0405 356.451 32.9605L355.651 31.6705C355.481 31.4005 355.571 31.0505 355.831 30.8905C356.101 30.7305 356.441 30.8105 356.611 31.0705L357.411 32.3605C357.581 32.6305 357.491 32.9805 357.221 33.1405C357.031 33.2605 356.791 33.2505 356.611 33.1405H356.621ZM353.431 27.9805C353.361 27.9405 353.301 27.8805 353.261 27.8005L352.461 26.5105C352.291 26.2405 352.381 25.8905 352.641 25.7305C352.911 25.5605 353.261 25.6605 353.421 25.9105L354.221 27.2005C354.391 27.4705 354.301 27.8205 354.041 27.9805C353.851 28.1005 353.611 28.0905 353.431 27.9805ZM350.221 22.8305C350.151 22.7905 350.091 22.7305 350.051 22.6605L349.251 21.3805C349.081 21.1105 349.161 20.7605 349.431 20.6005C349.701 20.4305 350.051 20.5105 350.211 20.7805L351.021 22.0705C351.191 22.3405 351.111 22.6905 350.841 22.8505C350.651 22.9705 350.411 22.9605 350.231 22.8505L350.221 22.8305ZM346.991 17.7005C346.921 17.6605 346.871 17.6005 346.821 17.5305L346.011 16.2505C345.841 15.9905 345.921 15.6305 346.181 15.4705C346.441 15.3005 346.801 15.3805 346.961 15.6405L347.771 16.9205C347.941 17.1905 347.861 17.5405 347.591 17.7105C347.391 17.8305 347.161 17.8205 346.971 17.7105L346.991 17.7005Z" fill="#2A557F"/>
<path d="M324.63 29.2504C324.56 29.2004 324.49 29.1404 324.45 29.0504C324.3 28.7804 324.39 28.4304 324.66 28.2804C324.68 28.2704 326.85 27.0304 329.85 25.1604C330.12 24.9904 330.47 25.0704 330.63 25.3404C330.8 25.6104 330.72 25.9604 330.45 26.1204C327.43 28.0004 325.24 29.2504 325.22 29.2604C325.03 29.3704 324.8 29.3504 324.63 29.2404V29.2504ZM336.19 21.9704C336.13 21.9304 336.08 21.8804 336.03 21.8204C335.85 21.5604 335.92 21.2104 336.17 21.0304C337.96 19.8004 339.6 18.6004 341.05 17.4804C341.3 17.2904 341.66 17.3404 341.85 17.5804C342.04 17.8304 342 18.1904 341.75 18.3804C340.28 19.5204 338.63 20.7304 336.82 21.9704C336.63 22.1104 336.37 22.1004 336.19 21.9704Z" fill="#2A557F"/>
<path d="M327.001 30.1208C326.261 31.2608 324.731 31.5808 323.591 30.8408C322.451 30.1008 322.131 28.5708 322.871 27.4308C323.611 26.2908 325.141 25.9708 326.281 26.7108C327.421 27.4508 327.741 28.9808 327.001 30.1208Z" fill="#2A557F"/>
<path d="M73.2398 281.86C73.1698 281.91 73.0898 281.96 72.9998 281.98L71.5098 282.31C71.1998 282.38 70.8998 282.19 70.8298 281.88C70.7598 281.57 70.9498 281.27 71.2598 281.2L72.7498 280.87C73.0598 280.8 73.3598 281 73.4298 281.3C73.4798 281.52 73.3998 281.73 73.2398 281.86ZM67.2998 283.19C67.2298 283.24 67.1498 283.28 67.0598 283.3L65.5798 283.63C65.2698 283.7 64.9698 283.51 64.8998 283.2C64.8298 282.89 65.0198 282.59 65.3298 282.52L66.8098 282.19C67.1198 282.12 67.4198 282.31 67.4898 282.62C67.5398 282.84 67.4598 283.05 67.2998 283.18V283.19ZM61.3798 284.53C61.3098 284.58 61.2298 284.62 61.1398 284.64L59.6998 284.97L59.4098 283.87L60.8898 283.53C61.1898 283.46 61.4998 283.65 61.5698 283.96C61.6198 284.18 61.5398 284.39 61.3798 284.52V284.53ZM55.4598 285.88C55.3898 285.93 55.3198 285.97 55.2298 285.99L53.7498 286.33C53.4398 286.4 53.1398 286.21 53.0698 285.9C52.9998 285.59 53.1998 285.29 53.4998 285.22L54.9798 284.88C55.2898 284.81 55.5898 285 55.6598 285.31C55.7098 285.53 55.6298 285.74 55.4698 285.88H55.4598ZM49.5498 287.24C49.4798 287.29 49.4098 287.33 49.3198 287.35L47.9198 287.68L47.7198 287.14L47.5898 286.59L49.0698 286.25C49.3798 286.18 49.6798 286.37 49.7498 286.68C49.7998 286.9 49.7198 287.12 49.5598 287.25L49.5498 287.24ZM43.6398 288.61C43.5698 288.66 43.4998 288.7 43.4098 288.72L41.9398 289.07C41.6398 289.14 41.3298 288.95 41.2598 288.65C41.1898 288.34 41.3698 288.04 41.6798 287.97L43.1598 287.62C43.4598 287.55 43.7698 287.74 43.8398 288.05C43.8898 288.27 43.8098 288.49 43.6498 288.62L43.6398 288.61ZM37.7298 289.99C37.6598 290.04 37.5898 290.08 37.4998 290.1L36.0298 290.45C35.7198 290.52 35.4198 290.33 35.3498 290.03C35.2798 289.72 35.4698 289.42 35.7698 289.35L37.2398 289C37.5398 288.93 37.8498 289.12 37.9198 289.42C37.9698 289.64 37.8898 289.86 37.7298 289.99ZM31.8298 291.39C31.7598 291.44 31.6898 291.48 31.5998 291.5L30.1198 291.85C29.8098 291.92 29.5098 291.73 29.4398 291.43C29.3698 291.12 29.5598 290.82 29.8598 290.75L31.3298 290.4C31.6398 290.33 31.9398 290.52 32.0098 290.82C32.0598 291.04 31.9798 291.26 31.8198 291.39H31.8298ZM25.9298 292.8C25.8698 292.85 25.7898 292.89 25.6998 292.91L24.2298 293.26C23.9298 293.33 23.6198 293.15 23.5398 292.84C23.4698 292.54 23.6598 292.23 23.9598 292.15L25.4298 291.8C25.7398 291.73 26.0398 291.91 26.1198 292.22C26.1698 292.44 26.0898 292.66 25.9298 292.79V292.8ZM20.0298 294.22C19.9698 294.27 19.8898 294.31 19.7998 294.33L18.3298 294.69C18.0198 294.76 17.7198 294.58 17.6398 294.27C17.5698 293.96 17.7498 293.66 18.0598 293.58L19.5298 293.22C19.8298 293.15 20.1398 293.33 20.2198 293.64C20.2698 293.86 20.1898 294.08 20.0298 294.21V294.22ZM14.1498 295.65C14.0898 295.7 14.0098 295.74 13.9298 295.76L12.4598 296.12C12.1498 296.19 11.8498 296.01 11.7698 295.7C11.6998 295.39 11.8898 295.09 12.1898 295.01L13.6598 294.65C13.9698 294.58 14.2698 294.76 14.3498 295.07C14.3998 295.29 14.3198 295.51 14.1598 295.65H14.1498ZM8.25983 297.1C8.19983 297.15 8.11983 297.19 8.03983 297.21L6.55982 297.58C6.25982 297.65 5.94983 297.47 5.86983 297.16C5.79983 296.86 5.97983 296.55 6.28983 296.47L7.76983 296.1C8.06983 296.02 8.37983 296.21 8.45983 296.52C8.50983 296.74 8.42983 296.96 8.26983 297.1H8.25983ZM2.35983 298.57C2.29983 298.62 2.21983 298.66 2.13983 298.68L0.669825 299.05C0.369825 299.13 0.0598298 298.94 -0.0201702 298.64C-0.0901702 298.33 0.0898258 298.03 0.389826 297.95L1.85983 297.58C2.15983 297.5 2.46983 297.69 2.54983 297.99C2.60983 298.21 2.51983 298.43 2.35983 298.57ZM-3.52017 300.06C-3.58017 300.11 -3.66017 300.15 -3.74017 300.17L-5.21017 300.54C-5.51017 300.62 -5.82018 300.43 -5.90018 300.13C-5.98018 299.83 -5.79017 299.52 -5.49017 299.44L-4.02017 299.07C-3.72017 298.99 -3.41018 299.18 -3.33018 299.48C-3.27018 299.7 -3.36017 299.92 -3.52017 300.06ZM-9.40018 301.57C-9.46018 301.62 -9.54018 301.66 -9.62018 301.68L-11.0802 302.06C-11.3802 302.14 -11.6902 301.96 -11.7702 301.65C-11.8502 301.34 -11.6602 301.03 -11.3602 300.96L-9.89017 300.58C-9.59017 300.5 -9.28017 300.68 -9.20017 300.99C-9.14017 301.21 -9.22017 301.44 -9.39017 301.57H-9.40018ZM-15.2702 303.11C-15.3302 303.16 -15.4002 303.2 -15.4802 303.22L-16.9402 303.61C-17.2402 303.69 -17.5502 303.51 -17.6402 303.21C-17.7202 302.91 -17.5402 302.59 -17.2402 302.51L-15.7702 302.12C-15.4702 302.04 -15.1602 302.22 -15.0702 302.52C-15.0102 302.74 -15.0902 302.97 -15.2602 303.11H-15.2702Z" fill="#2A557F"/>
<path d="M73.7993 284.15C75.4892 284.15 76.8593 282.78 76.8593 281.09C76.8593 279.4 75.4892 278.03 73.7993 278.03C72.1093 278.03 70.7393 279.4 70.7393 281.09C70.7393 282.78 72.1093 284.15 73.7993 284.15Z" fill="#2A557F"/>
</g>
</svg>
