<?xml version="1.0" encoding="utf-8"?>
<!-- Generator: Adobe Illustrator 27.7.0, SVG Export Plug-In . SVG Version: 6.00 Build 0)  -->
<svg version="1.1" id="_圖層_1" xmlns="http://www.w3.org/2000/svg" xmlns:xlink="http://www.w3.org/1999/xlink" x="0px" y="0px"
	 viewBox="0 0 24 12.5" style="enable-background:new 0 0 24 12.5;" xml:space="preserve">
<style type="text/css">
	.st0{fill:#3D3A35;}
</style>
<path class="st0" d="M14.5,6.3c0,1.6-1.1,2.8-2.5,2.8S9.5,7.9,9.5,6.3s1.1-2.8,2.5-2.8S14.5,4.7,14.5,6.3z"/>
<path class="st0" d="M2,6.3C2,6.3,5.8,0,12,0s10,6.3,10,6.3s-3.8,6.3-10,6.3S2,6.3,2,6.3z M12,10.2c2.4,0,4.4-1.8,4.4-4s-2-4-4.4-4
	s-4.4,1.8-4.4,4S9.6,10.2,12,10.2z"/>
</svg>
