<?xml version="1.0" encoding="utf-8"?>
<!-- Generator: Adobe Illustrator 27.7.0, SVG Export Plug-In . SVG Version: 6.00 Build 0)  -->
<svg version="1.1" id="_015_HEALTH" xmlns="http://www.w3.org/2000/svg" xmlns:xlink="http://www.w3.org/1999/xlink" x="0px"
	 y="0px" viewBox="0 0 24 11" style="enable-background:new 0 0 24 11;" xml:space="preserve">
<style type="text/css">
	.st0{fill:#BEBDBD;}
</style>
<path class="st0" d="M22.4,1.8c-0.4-0.4-1-0.5-1.4-0.1c-2,1.7-5.3,2.8-9,2.8s-7-1-9-2.8C2.6,1.4,2,1.4,1.6,1.8
	c-0.4,0.4-0.3,1,0.1,1.4c0.5,0.4,1.1,0.8,1.7,1.2l-0.7,2c0,0.1-0.1,0.2-0.1,0.3c0,0.6,0.5,1,1,1c0.4,0,0.8-0.3,0.9-0.7l0.7-1.8
	c0.6,0.2,1.2,0.4,1.9,0.6L6.8,8l0,0C6.7,8.5,7,9.1,7.6,9.2c0.1,0,0.1,0,0.2,0c0.5,0,0.9-0.4,1-0.8l0.4-2.1c0.6,0.1,1.3,0.1,1.9,0.2
	v2c0,0.6,0.4,1,1,1s1-0.4,1-1v-2c0.6,0,1.3-0.1,1.9-0.2l0.4,2.1c0.1,0.5,0.5,0.8,1,0.8c0.1,0,0.1,0,0.2,0l0,0
	C17,9.1,17.3,8.5,17.2,8l-0.4-2.1c0.7-0.2,1.3-0.4,1.9-0.6l0.7,1.8c0.1,0.4,0.5,0.7,0.9,0.7l0,0c0.1,0,0.2,0,0.3-0.1
	c0.5-0.2,0.8-0.8,0.6-1.3l-0.7-2c0.6-0.4,1.2-0.8,1.7-1.2C22.7,2.9,22.8,2.2,22.4,1.8L22.4,1.8z"/>
</svg>
