<svg width="300" height="308" viewBox="0 0 300 308" fill="none" xmlns="http://www.w3.org/2000/svg">
<path d="M73.6114 307.39C73.1037 302.713 71.919 299.482 72.919 295.774C73.4266 293.897 73.5805 291.39 71.9497 289.298C70.5497 287.513 70.1345 285.313 70.9191 282.898C71.8729 279.975 71.2883 276.944 71.0729 273.928C70.7498 269.529 71.1652 265.052 70.7191 260.667C69.7345 250.944 70.1037 241.221 70.1037 231.483C70.1037 230.267 69.9806 229.006 70.2575 227.837C70.7036 225.914 70.2575 224.437 69.2728 222.713C68.2729 220.975 67.6421 218.775 67.596 216.775C67.396 207.498 67.3499 198.206 67.473 188.929C67.5345 183.606 68.0267 178.299 68.319 172.975C68.5806 168.145 66.5036 165.114 61.9498 163.099C52.5191 158.945 42.9963 154.929 34.2271 149.406C31.2733 147.545 28.0424 146.145 24.8578 144.683C19.2425 142.099 13.5348 139.714 7.9195 137.114C4.47338 135.514 2.35042 132.407 0.519663 129.314C-0.726481 127.207 0.719646 124.314 2.81194 123.222C9.38111 119.761 15.8425 116.084 22.5348 112.868C27.2886 110.576 32.3348 108.93 37.2424 106.961C39.1809 106.191 41.0578 105.268 42.9962 104.53C47.5192 102.807 52.0884 101.176 56.6268 99.4837C60.1653 98.1607 63.6268 96.5762 67.2422 95.5454C71.6114 94.2839 76.0883 93.3453 80.5652 92.5145C86.6728 91.3915 92.8266 90.4839 98.9804 89.5454C103.165 88.9147 104.934 85.8376 106.565 82.4838C109.149 77.1762 111.826 71.9148 114.519 66.6687C115.965 63.838 117.488 61.0378 119.057 58.2686C121.749 53.5456 124.011 48.5919 127.242 44.1458C128.826 41.9766 129.411 39.1149 130.719 36.715C132.888 32.7304 135.411 28.946 137.565 24.9614C139.072 22.1768 140.103 19.1306 141.503 16.2845C143.365 12.5153 145.395 8.82298 147.334 5.08454C149.026 1.83842 152.688 2.06913 155.395 0.607605C155.703 0.438376 156.934 1.14613 157.072 1.63843C157.965 5.00764 160.134 7.28454 162.564 9.71529C165.026 12.1768 167.103 15.1613 168.149 18.869C169.026 21.9767 171.211 24.7306 172.811 27.6383C175.887 33.2228 179.164 38.7149 181.995 44.4072C185.841 52.1302 190.395 59.4841 193.149 67.7609C194.333 71.3301 196.518 74.561 197.98 78.0533C199.487 81.6686 200.58 85.4685 202.056 89.0838C203.21 91.8838 205.21 94.4376 205.887 97.3145C206.995 102.13 209.718 103.376 214.302 103.361C221.672 103.345 229.056 103.807 236.425 104.376C239.241 104.591 241.995 105.607 244.748 106.345C247.671 107.114 250.517 108.314 253.471 108.745C258.979 109.561 264.425 111.037 270.148 110.391C272.625 110.114 275.225 111.237 277.794 111.391C280.302 111.53 282.887 110.914 285.363 111.238C287.779 111.561 289.779 113.33 291.963 114.453C292.348 114.653 292.333 116.499 291.902 117.238C290.81 119.053 289.363 120.637 288.086 122.345C285.363 126.007 282.779 129.791 279.917 133.345C278.41 135.222 276.686 137.114 274.656 138.36C265.871 143.699 258.456 150.637 251.194 157.791C250.01 158.96 248.748 160.053 247.425 161.053C242.056 165.16 237.964 170.545 233.072 175.114C232.21 175.929 232.487 176.668 232.733 177.575C234.164 182.975 235.687 188.345 236.918 193.791C239.133 203.529 241.164 213.314 243.287 223.067C244.179 227.19 245.179 231.298 246.01 235.452C246.948 240.16 248.148 244.867 248.487 249.636C249.041 257.652 250.548 265.559 250.564 273.651C250.579 278.928 251.917 284.221 252.887 289.467C253.717 293.944 253.517 298.282 251.933 302.528C251.364 304.067 250.641 304.42 248.918 303.482C247.287 302.59 245.164 302.651 243.302 302.144C242.148 301.821 240.948 301.39 239.979 300.698C235.318 297.405 230.272 295.128 224.718 293.744C217.21 291.882 210.164 288.59 203.256 285.251C197.841 282.651 192.872 279.082 187.872 275.698C178.934 269.636 169.841 263.836 160.38 258.621C157.18 256.867 153.98 255.098 150.98 253.036C147.011 250.313 143.518 250.621 139.826 253.621C134.503 257.959 128.888 261.944 123.596 266.313C110.411 277.205 97.3497 288.252 84.2113 299.19C81.0113 301.774 77.7036 304.205 73.6114 307.39ZM214.333 275.667C214.102 270.344 212.949 265.544 213.718 260.621C213.979 258.929 213.041 257.082 212.933 255.282C212.549 249.067 212.287 242.836 211.995 236.621C211.933 235.113 211.995 233.59 210.133 232.529C209.995 235.436 210.195 238.206 209.687 240.852C208.733 245.744 208.072 250.636 208.133 255.621C208.179 259.836 208.456 264.067 208.287 268.236C208.164 271.236 208.902 272.775 211.41 273.882C212.333 274.282 213.133 274.928 214.333 275.667ZM89.1959 134.576C89.2882 134.868 89.365 135.16 89.4573 135.437C91.965 135.283 94.488 135.191 96.9957 134.945C97.4573 134.899 98.165 134.314 98.1958 133.945C98.2419 133.468 97.8265 132.73 97.3957 132.468C96.7957 132.13 95.9035 131.837 95.3189 132.037C93.2266 132.76 91.2266 133.714 89.1959 134.576ZM149.918 181.129C151.257 177.837 149.057 175.222 148.488 172.098C147.549 173.268 146.795 174.175 145.98 175.206C146.918 177.037 147.857 178.883 148.842 180.714C148.949 180.899 149.349 180.929 149.918 181.129ZM224.379 214.421C223.195 216.298 223.164 217.806 224.595 219.79C225.379 217.76 225.81 216.237 224.379 214.421ZM145.211 230.083C145.364 230.083 145.518 230.098 145.657 230.098C145.78 229.544 146.011 228.975 146.011 228.421C146.011 227.698 145.842 226.975 145.734 226.252C145.165 226.79 144.934 227.344 144.934 227.898C144.934 228.636 145.103 229.36 145.211 230.083Z" fill="#EBC483"/>
<path d="M69.9186 198.93C70.8417 199.53 71.3954 199.899 71.9493 200.253C72.2723 198.914 72.9646 199.53 73.4877 200.022C75.58 201.991 78.1646 202.899 80.7953 203.914C84.0107 205.145 87.1799 206.684 90.0722 208.545C91.5184 209.468 92.5645 209.791 94.1338 209.268C95.8722 208.699 94.6568 210.345 95.0414 210.683C96.8414 212.207 99.2414 210.853 101.226 211.884C102.118 212.345 103.349 212.114 104.241 212.576C107.734 214.345 111.672 214.191 115.303 215.422C118.964 216.668 122.78 217.53 126.595 218.237C129.703 218.807 132.903 218.76 136.041 219.222C140.641 219.899 145.318 219.037 149.872 220.099C153.087 218.868 156.426 220.314 159.764 219.56C163.072 218.807 166.841 219.73 169.995 218.683C172.564 217.822 175.456 218.683 177.61 217.068C178.964 216.053 179.348 218.606 180.533 217.391C181.348 216.545 182.41 215.822 183.487 215.406C186.564 214.191 189.748 213.237 192.841 212.022C198.518 209.807 204.225 207.637 209.779 205.13C214.025 203.222 218.21 201.053 222.148 198.545C224.256 197.207 226.01 195.084 227.487 193.007C228.64 191.376 231.179 192.453 231.81 190.314C232.548 191.038 233.502 191.668 233.948 192.545C234.194 193.022 233.471 193.945 233.502 194.653C233.517 194.884 234.979 195.207 234.948 195.284C234.425 197.284 233.81 199.268 233.179 201.253C233.086 201.514 232.779 201.714 232.594 201.945C229.394 205.76 226.163 209.53 223.04 213.407C222.01 214.683 221.425 216.33 220.379 217.591C219.117 219.099 217.671 220.468 216.163 221.729C211.763 225.422 207.302 229.052 202.856 232.683C200.994 234.206 199.118 235.714 197.225 237.191C192.333 240.96 187.502 244.822 182.502 248.452C177.887 251.806 173.179 255.037 168.364 258.114C162.795 261.668 157.087 264.991 151.426 268.391C149.056 269.821 147.118 269.837 144.395 268.175C141.333 266.298 138.364 264.406 135.487 262.237C132.272 259.806 128.718 257.745 125.087 255.945C117.764 252.314 110.841 248.206 104.857 242.529C100.903 238.791 97.3029 234.745 93.5029 230.868C90.8876 228.191 88.8414 224.945 86.3953 222.083C84.4415 219.791 82.3493 217.591 80.1493 215.53C75.6878 211.314 73.1955 205.684 69.5802 200.868C69.3494 200.499 69.7801 199.684 69.9186 198.93ZM214.964 211.484C214.81 211.314 214.671 211.145 214.517 210.96C211.994 212.176 209.533 213.53 206.933 214.545C203.887 215.745 200.579 216.36 197.625 217.73C191.579 220.514 185.179 222.237 178.887 224.237C175.625 225.268 172.164 226.237 168.81 226.206C166.595 226.191 164.441 226.745 162.226 226.545C159.964 226.345 157.61 226.237 155.379 226.606C151.21 227.299 146.995 226.714 142.826 227.237C140.98 227.468 138.995 226.437 137.103 226.514C131.903 226.73 126.949 225.53 121.964 224.376C119.764 223.868 117.595 223.099 115.38 222.853C110.38 222.314 105.934 220.114 101.303 218.468C97.1338 216.976 93.0722 215.207 88.1184 213.207C91.0106 216.883 93.0723 219.914 95.5646 222.56C98.8723 226.068 102.687 229.114 105.964 232.653C110.795 237.883 116.78 241.606 122.303 245.929C122.657 246.206 123.056 246.499 123.472 246.575C127.256 247.314 130.333 249.499 133.533 251.391C137.933 254.006 142.195 256.806 146.518 259.545C147.41 260.098 148.21 260.898 149.164 261.206C150.918 261.791 150.749 259.775 151.61 259.114C151.733 259.022 151.841 258.868 151.964 258.837C155.102 258.252 157.164 255.868 159.672 254.206C166.564 249.606 173.549 245.16 180.333 240.422C185.256 236.976 189.948 233.222 194.656 229.483C198.025 226.806 201.256 223.945 204.517 221.145C206.533 219.406 208.056 217.253 210.733 216.099C212.487 215.36 213.579 213.084 214.964 211.484Z" fill="#1D3D6C"/>
<path d="M268.394 228.314C271.671 225.914 273.24 222.945 273.825 219.068C274.732 213.145 276.132 207.283 277.548 201.468C277.871 200.145 277.701 199.56 276.625 199.006C273.486 197.391 271.671 195.053 272.501 191.283C272.578 190.96 272.055 190.53 271.948 190.13C270.732 184.883 271.209 179.591 271.809 174.345C272.055 172.145 273.117 170.022 274.009 167.945C274.548 166.699 276.271 166.884 276.932 168.13C277.009 168.268 277.132 168.407 277.132 168.545C277.086 172.268 277.009 175.976 276.948 179.699C274.425 180.56 276.686 182.083 276.778 183.007C277.086 186.237 278.04 189.406 278.778 192.591C278.825 192.806 279.271 192.929 279.824 193.268C280.348 188.206 282.702 183.591 282.086 178.468C283.409 176.068 281.671 172.437 285.532 171.007C286.332 172.93 287.271 174.883 286.794 177.483C286.424 179.514 286.209 181.653 287.101 183.899C287.686 185.376 286.824 187.422 286.64 189.222C286.532 190.191 286.378 191.176 286.394 192.16C286.409 193.36 287.286 193.806 288.271 193.483C289.655 193.037 290.717 192.545 291.194 190.622C292.609 184.837 293.424 179.053 292.978 173.114C292.917 172.283 293.117 171.407 292.994 170.591C292.732 168.991 293.209 167.899 294.778 167.376C296.655 166.76 297.147 168.222 297.701 169.437C298.194 170.514 298.609 171.653 298.932 172.791C300.701 179.099 298.517 191.176 295.994 195.406C295.44 196.345 295.086 197.191 293.794 197.314C292.363 197.452 291.794 199.037 290.701 199.576C289.624 200.114 288.163 199.806 286.871 199.976C284.286 200.314 283.209 201.699 283.24 204.483C283.255 205.468 281.501 205.991 282.717 207.499C283.301 208.222 282.901 209.868 282.748 211.068C282.578 212.406 282.194 213.714 281.917 215.037C281.671 216.222 281.363 217.391 281.225 218.591C281.04 220.391 280.748 222.252 280.963 224.021C281.086 225.052 281.132 226.314 282.825 226.96C284.886 227.745 285.255 230.022 285.548 232.222C286.332 238.206 282.271 242.206 278.163 243.852C276.64 244.467 275.148 245.406 273.578 245.575C272.055 245.744 270.594 246.237 268.855 245.898C264.24 245.006 263.748 244.852 264.732 240.606C265.348 237.96 264.44 235.606 262.948 234.083C260.409 231.468 259.886 228.268 259.009 225.129C256.24 215.268 252.763 205.729 246.871 197.206C244.733 194.114 242.871 190.837 240.84 187.668C240.44 187.053 239.686 186.376 240.656 185.853C241.333 185.499 242.394 185.345 243.056 185.622C243.825 185.945 244.271 187.237 245.009 187.422C246.379 187.76 246.779 189.822 248.563 189.268C248.825 189.191 249.486 189.606 249.563 189.899C249.871 190.976 249.794 192.222 250.302 193.145C250.671 193.822 251.84 193.529 252.086 195.053C252.548 197.945 253.932 199.422 256.594 201.96C257.363 202.699 258.332 203.329 257.456 204.622C257.394 204.714 257.794 205.283 258.071 205.437C259.163 205.991 259.732 206.668 259.086 207.929C258.994 208.114 259.148 208.56 259.317 208.729C262.163 211.375 262.194 211.375 262.794 213.16C264.255 217.406 265.671 221.668 267.148 225.914C267.502 226.729 267.979 227.483 268.394 228.314Z" fill="#1D3D6C"/>
<path d="M80.1033 175.407C80.811 178.483 79.5802 181.237 78.3187 183.637C76.2264 187.622 74.011 191.606 70.9802 195.037C65.1187 201.653 58.9034 207.929 53.8727 215.283C51.5342 218.699 47.7498 221.129 44.5806 223.96C43.5806 224.868 42.4112 225.575 41.3497 226.422C39.7189 227.729 38.8421 229.345 38.9652 231.56C39.0421 232.868 39.042 234.791 38.2728 235.406C36.042 237.145 34.996 240.314 31.8884 240.929C28.0423 241.683 24.2423 243.283 20.15 241.606C19.7654 239.591 19.1961 237.437 18.95 235.252C18.6884 232.822 18.7961 230.16 20.4576 228.345C22.7653 225.806 22.3654 222.976 22.0577 220.145C21.5654 215.514 20.5192 210.945 20.6422 206.222C20.7038 204.006 20.1193 201.791 19.7962 199.345C17.7962 199.791 16.1499 200.16 14.473 198.96C13.1346 198.006 13.35 195.991 11.2577 195.483C9.38083 195.022 9.87305 192.806 9.64229 191.16C9.36537 189.268 8.71931 187.345 7.81162 185.653C6.07318 182.391 6.33472 178.899 6.08857 175.453C5.99626 174.037 5.88858 172.637 7.82702 172.33C7.93471 172.314 8.04241 171.776 8.02703 171.499C7.93472 168.73 8.11935 168.176 10.7347 167.838C12.0732 167.668 12.0884 167.299 11.9346 166.345C12.4884 166.514 13.027 166.699 13.5808 166.868C13.55 167.007 13.5038 167.13 13.473 167.268C13.7038 167.268 14.027 167.361 14.1654 167.253C17.3962 164.791 17.3961 164.776 21.0268 166.868C21.7961 167.314 22.7654 167.653 23.2577 168.33C25.8731 171.914 28.7653 175.345 30.1191 179.699C30.1653 179.837 30.3038 179.96 30.3191 180.114C30.473 181.299 30.9961 182.591 30.7037 183.668C29.5653 187.976 31.6115 192.545 29.5807 196.745C28.873 198.222 28.1806 199.268 26.1806 198.237C25.1037 197.683 24.1653 198.622 24.673 199.53C27.0268 203.806 26.8423 208.653 27.8731 213.222C28.2115 214.683 28.3807 216.191 28.8115 217.622C29.1499 218.776 27.9807 220.499 30.1345 221.006C32.1345 221.483 34.0884 222.699 36.1037 221.037C40.0268 217.806 44.6112 215.468 47.7189 211.145C50.8881 206.745 54.6267 202.76 58.2266 198.683C65.1343 190.883 72.1187 183.145 79.0879 175.391C79.1648 175.345 79.3802 175.407 80.1033 175.407ZM25.196 192.837C24.8421 191.883 24.5653 191.529 24.6576 191.329C26.3499 187.56 24.2422 183.945 24.0883 180.268C23.9807 177.822 22.8423 175.376 21.8577 173.053C20.7961 170.545 19.8115 170.161 17.2423 170.699C16.3654 170.884 15.5346 171.33 14.6576 171.484C12.9654 171.776 12.5962 172.853 12.3962 174.376C11.8577 178.514 13.3654 182.083 15.2423 185.56C17.2576 189.314 20.4729 191.468 25.196 192.837Z" fill="#1D3D6C"/>
<path d="M181.195 205.53C180.087 206.976 179.133 208.253 177.195 208.176C174.641 208.068 172.072 208.13 170.01 206.145C167.533 203.76 165.81 201.007 165.549 197.484C165.518 197.022 165.533 196.561 165.41 196.114C165.026 194.638 164.133 194.33 162.718 194.976C159.995 196.222 157.349 197.699 154.503 198.514C151.103 199.499 147.503 200.222 144.364 197.499C141.949 197.56 140.226 195.837 138.134 195.114C135.58 194.238 133.749 192.514 131.503 190.361C135.103 189.13 138.503 189.237 141.78 189.253C144.58 189.268 147.364 190.253 150.18 190.699C151.057 190.838 152.087 190.884 152.887 190.576C155.872 189.468 158.826 188.222 161.749 186.961C163.564 186.176 164.441 184.868 164.503 182.714C164.641 178.807 165.349 174.945 167.41 171.53C168.703 169.391 170.287 167.422 171.81 165.422C175.826 160.176 180.703 155.946 186.718 153.176C188.518 152.346 190.502 151.853 192.472 151.484C193.179 151.346 194.041 151.992 194.825 152.284C194.472 153.069 194.333 154.115 193.733 154.592C191.179 156.669 188.041 158.207 185.949 160.653C182.764 164.376 178.872 167.715 176.426 171.791C174.056 175.761 171.687 180.284 172.687 185.591C173.364 189.13 172.718 192.807 173.472 196.453C174.302 200.453 176.441 202.96 179.949 204.622C180.333 204.822 180.641 205.13 181.195 205.53Z" fill="#1D3D6C"/>
<path d="M142.457 172.654C140.457 170.439 138.718 168.685 137.21 166.762C136.61 165.992 136.149 164.808 136.21 163.838C136.472 159.931 135.518 155.962 136.903 152.07C137.334 150.839 137.195 149.346 137.072 147.993C136.764 144.839 137.826 141.716 137.149 138.546C137.041 138.023 137.349 137.377 137.595 136.839C138.134 135.654 139.426 135.485 140.103 136.608C142.364 140.393 145.426 143.854 144.441 148.869C143.903 151.654 145.057 154.623 143.641 157.408C143.364 157.946 143.872 158.854 143.903 159.593C143.949 160.593 143.903 161.592 143.872 162.577C143.841 163.592 143.395 164.839 143.826 165.608C145.334 168.377 143.534 170.131 142.457 172.654Z" fill="#1D3D6C"/>
<path d="M162.364 155.715C160.472 153.869 160.026 151.361 157.795 149.915C156.734 149.238 155.887 146.654 156.364 145.5C157.241 143.346 157.241 140.977 158.795 138.869C160.564 136.484 162.026 135.915 164.903 136.223C166.503 136.392 167.272 137.008 167.918 137.931C168.964 139.423 171.287 141.177 170.487 142.592C168.041 146.915 167.349 152.315 162.934 155.469C162.795 155.577 162.626 155.608 162.364 155.715Z" fill="#1D3D6C"/>
<path d="M117.195 140.348C118.026 140.578 119.364 140.84 120.611 141.332C121.011 141.486 121.549 142.363 121.411 142.671C120.795 144.148 121.426 145.224 121.964 146.547C122.98 149.086 121.226 151.378 120.765 153.809C120.503 155.163 119.903 155.886 118.811 156.594C115.811 158.532 113.118 157.747 111.441 154.563C110.426 152.64 111.057 150.071 108.918 148.578C108.565 148.332 108.672 147.101 108.857 146.409C109.734 143.163 113.288 140.455 117.195 140.348Z" fill="#1D3D6C"/>
</svg>
