<svg width="253" height="323" viewBox="0 0 253 323" fill="none" xmlns="http://www.w3.org/2000/svg">
<path d="M0.458008 154.351C2.39645 154.751 4.25799 154.659 5.08875 152.536C7.18104 147.182 11.8733 144.213 15.7963 140.505C22.5039 134.151 29.1038 127.69 35.9037 121.444C39.3345 118.29 43.2268 115.629 46.7191 112.521C50.9806 108.721 55.7191 105.506 60.2267 102.075C66.7497 97.0902 72.9189 91.3518 80.765 88.2134C82.4111 87.5518 84.1189 86.521 84.5189 84.5364C85.3189 80.4749 87.5649 77.0596 89.2572 73.3827C90.2572 71.2135 90.7957 68.8443 91.6111 66.5828C91.9649 65.5828 92.3188 64.5059 92.9649 63.6905C96.6111 59.0751 97.5649 53.2444 100.088 48.1368C102.565 43.1368 105.272 38.26 107.903 33.3369C110.611 28.26 113.396 23.2293 116.072 18.1524C118.472 13.5986 120.642 8.92171 123.165 4.46021C124.011 2.96791 125.626 1.90642 127.395 0.167969C127.703 2.27564 129.842 2.66021 129.272 4.82942C129.042 5.7371 132.395 7.89096 133.626 7.5525C134.795 7.22943 135.195 7.67558 135.826 8.41403C140.257 13.5832 143.672 19.414 146.78 25.3986C150.103 31.8139 153.01 38.4754 155.903 45.1061C157.58 48.9522 158.441 53.1829 160.426 56.8291C163.195 61.9367 164.826 67.4443 167.087 72.7212C168.21 75.3519 169.38 76.8442 172.718 76.7673C175.949 76.7058 179.21 78.0443 182.472 78.6289C190.81 80.1519 199.149 81.6135 207.487 83.075C212.841 84.0135 218.241 84.7211 223.548 85.8442C227.395 86.6596 231.133 87.9672 234.933 89.0595C238.733 90.1518 242.533 91.2134 246.333 92.3211C248.548 92.9672 250.687 93.721 252.256 96.1364C250.702 97.7672 249.271 99.7209 247.394 101.075C246.21 101.936 245.994 102.998 246.456 103.69C247.687 105.521 246.825 106.306 245.579 107.644C242.487 110.936 239.702 114.521 236.779 117.967C236.102 118.767 235.241 119.413 234.533 120.198C233.856 120.936 232.918 121.675 232.687 122.567C231.625 126.659 228.425 129.398 226.533 133.228C226.071 132.398 225.779 131.89 225.302 130.998C225.041 133.013 224.856 134.705 224.61 136.398C224.564 136.675 224.302 136.921 224.195 137.198C223.395 139.259 221.102 140.275 220.425 142.474C220.364 142.69 218.595 142.182 218.287 142.567C217.841 143.121 218.041 144.167 217.856 144.982C217.81 145.182 217.379 145.351 217.102 145.444C214.487 146.336 213.764 148.905 213.195 150.951C212.241 154.305 211.533 157.921 214.164 161.167C214.687 161.813 214.548 163.197 214.364 164.167C214.01 165.92 213.533 167.628 214.579 169.582C214.964 168.859 215.241 168.367 215.841 167.243C215.564 169.074 215.256 170.243 215.256 171.413C215.241 172.567 215.533 173.72 215.702 174.859C215.825 175.674 216.102 176.49 216.056 177.29C215.979 178.566 215.056 180.028 217.195 180.536C217.349 180.566 217.533 181.028 217.502 181.274C216.902 187.166 219.918 192.659 219.502 198.536C219.425 199.582 219.795 200.643 219.81 201.705C219.825 202.843 221.702 204.643 218.795 204.828C218.825 205.259 218.702 205.935 218.933 206.089C220.779 207.397 220.395 209.305 220.395 211.089C220.395 213.982 220.456 216.889 220.195 219.751C220.072 221.105 222.179 222.397 220.01 223.966C219.302 224.474 219.902 226.797 219.887 228.289C219.887 228.581 219.687 228.874 219.656 229.166C219.472 230.981 221.441 232.443 219.887 234.72C219.01 235.997 220.164 238.504 219.964 240.427C219.764 242.427 220.533 244.489 219.502 246.412C219.441 246.535 219.348 246.751 219.395 246.797C221.671 249.135 220.056 251.827 219.979 254.335C219.902 256.458 220.733 258.104 221.887 259.597C222.964 260.997 222.502 262.212 221.764 263.32C220.564 265.135 215.348 266.473 213.425 265.397C209.133 262.997 204.349 262.412 199.656 261.412C186.78 258.689 173.903 255.966 161.826 250.504C156.441 248.074 150.934 246.181 145.18 244.735C140.395 243.535 135.718 241.689 131.595 238.858C130.503 238.104 129.903 238.566 129.318 239.258C127.103 241.874 124.995 244.597 122.734 247.181C120.334 249.92 118.534 253.027 116.534 256.027C115.072 258.227 113.165 260.197 111.226 262.012C105.242 267.612 99.2263 273.273 91.6571 276.735C89.6417 277.658 87.4111 278.258 85.4419 279.273C83.3188 280.366 81.4266 281.704 78.9343 282.058C77.5805 282.258 76.365 283.535 75.165 284.443C72.9342 286.119 70.5651 287.304 67.7035 286.643C66.9805 286.473 66.042 285.95 65.7651 285.335C65.0266 283.719 64.4882 281.981 64.0728 280.243C63.8267 279.227 64.0267 278.104 62.396 278.119C62.1191 278.119 61.719 276.996 61.5652 276.35C60.2113 270.458 59.2729 264.489 58.5653 258.504C58.0883 254.427 57.8576 250.335 57.6114 246.243C57.2422 240.197 56.9805 234.135 56.6574 228.089C56.1805 218.843 55.596 209.612 55.2421 200.366C54.9652 193.243 54.9344 186.12 54.7959 178.997C54.7344 175.582 54.7345 175.566 51.6114 174.659C49.873 174.151 48.0729 173.813 46.3499 173.243C45.396 172.92 44.0423 172.49 43.7192 171.736C42.2423 168.259 39.5345 168.89 36.473 169.259C37.0114 169.674 37.2885 169.92 37.5962 170.136C37.7193 170.213 37.873 170.228 38.0268 170.274C37.7191 170.351 37.3499 170.582 37.0884 170.49C34.3653 169.644 31.6424 168.751 28.9347 167.859C28.7962 167.813 28.6884 167.674 28.5807 167.567C26.3961 165.32 25.027 164.52 21.9963 165.52C20.3963 166.043 19.5193 165.72 19.0116 164.751C18.0116 162.813 16.3809 162.844 14.5963 162.336C10.4117 161.136 6.41179 159.336 2.36567 157.705C2.15029 157.613 2.458 156.582 2.19646 156.244C1.82723 155.782 1.13486 155.582 0.581016 155.274C0.45794 154.967 0.458008 154.659 0.458008 154.351ZM97.6263 79.2289C95.6109 82.0904 95.611 82.0904 99.4572 83.6134C99.3187 81.7673 98.5648 80.3827 97.5187 79.1212C99.5033 77.8135 99.5032 77.8134 98.8109 74.8288C98.3802 76.4288 98.0109 77.8289 97.6263 79.2289ZM71.8267 101.075C69.9959 100.567 69.0421 103.675 66.9959 102.229C65.8421 103.475 63.8575 104.182 64.319 106.459C62.6729 107.275 60.9805 108.875 59.3959 108.752C56.0882 108.506 57.1497 111.444 55.9036 112.598C55.1343 113.306 54.4883 114.182 53.6575 114.798C51.9191 116.059 50.4113 117.49 49.5498 119.582C54.3805 115.905 59.5651 112.736 63.7804 108.367C64.1804 107.952 64.4114 107.352 64.719 106.844C66.9344 105.921 69.9344 103.629 72.0113 101.306C75.2266 100.013 77.7189 97.7518 80.6881 94.9518C79.4266 95.0441 78.7189 94.8749 78.3497 95.1518C76.042 96.9518 73.242 98.2594 71.8267 101.075ZM163.257 98.1364C165.426 92.998 165.734 92.8749 164.518 89.5211C163.518 86.7827 163.226 83.2135 159.287 82.4135C158.841 82.3212 158.195 80.6596 158.457 80.2288C159.426 78.6288 158.641 77.275 158.149 75.9366C155.795 69.4443 153.441 62.9675 150.903 56.5368C149.672 53.4137 148.949 49.9983 146.334 47.4753C146.257 48.9829 146.426 50.4291 146.764 51.8291C147.426 54.5983 148.072 57.3829 148.934 60.0906C150.318 64.5213 151.78 68.9366 153.38 73.2904C154.718 76.9365 156.595 80.3981 157.657 84.1211C158.487 87.0134 160.641 89.3827 160.38 92.798C160.241 94.398 162.103 96.1518 163.257 98.1364ZM125.888 234.981C122.58 239.028 119.457 242.858 116.303 246.658C113.211 250.381 110.057 254.058 107.011 257.812C103.98 261.55 99.8109 264.32 97.4571 268.704C98.5648 268.381 99.4418 267.858 100.226 267.197C105.257 262.858 110.057 258.35 114.595 253.443C118.718 248.981 122.042 243.997 125.872 239.366C126.949 238.058 127.718 236.92 125.888 234.981ZM61.4421 178.89C62.0268 183.72 60.7344 187.689 62.5652 191.397C62.8575 191.997 62.5036 192.905 62.5344 193.659C62.6113 195.305 62.7343 196.936 62.842 198.582C63.0112 198.582 63.1652 198.582 63.3344 198.582C63.9344 190.413 64.5343 182.243 65.1651 173.843C63.6266 173.259 61.9497 173.382 60.1651 174.382C62.5805 175.997 62.8113 176.259 61.1959 177.705C59.6113 179.136 60.2728 180.459 60.3959 182.49C60.7651 181.213 60.9652 180.536 61.4421 178.89ZM101.503 249.489C104.626 245.981 107.811 242.52 110.811 238.904C111.534 238.028 112.642 236.751 111.196 235.351C110.642 234.828 110.365 234.028 109.734 232.997C106.226 238.381 102.842 243.351 101.503 249.489ZM75.565 271.504C74.3342 269.704 73.0573 268.104 72.1189 266.335C71.6266 265.397 71.165 264.689 70.1958 265.12C69.6881 265.335 69.242 266.212 69.1958 266.827C68.9035 270.012 70.0267 272.843 71.4267 275.889C72.3497 274.796 72.9805 273.966 73.7035 273.212C74.3804 272.473 75.1804 271.827 75.565 271.504ZM164.41 99.8286C164.41 100.706 164.18 101.675 164.441 102.459C166.41 108.152 168.472 113.798 170.549 119.459C170.672 119.782 171.164 119.982 172.041 120.69C170.826 112.859 167.487 106.444 164.41 99.8286ZM211.287 135.059C216.502 130.352 216.441 128.382 211.287 125.444C211.287 128.521 211.287 131.49 211.287 135.059ZM86.6419 104.352C86.8112 104.506 86.9803 104.644 87.1496 104.798C88.1342 104.09 89.5649 103.582 90.0419 102.613C90.9957 100.675 92.0111 98.5363 90.6573 96.0902C90.1957 96.7364 89.6417 97.2902 89.3494 97.9364C88.3956 100.059 87.5496 102.213 86.6419 104.352ZM100.057 71.4596C100.303 71.7058 100.549 71.9366 100.796 72.1828C101.642 71.4905 102.842 70.9828 103.272 70.0905C104.026 68.5213 104.349 66.7366 104.78 65.0443C104.811 64.9212 104.38 64.5982 104.134 64.5366C103.903 64.4905 103.457 64.5982 103.38 64.7674C102.242 66.9674 101.165 69.2135 100.057 71.4596ZM212.133 146.413C213.779 145.398 215.81 145.105 215.379 142.613C214.61 144.044 211.779 143.644 212.133 146.413ZM49.7038 172.674C48.9653 171.459 47.873 170.274 46.0115 171.382C47.3499 171.843 48.5192 172.259 49.7038 172.674ZM65.3497 215.751C65.0881 215.782 64.8112 215.828 64.5497 215.859C64.6112 216.828 64.6727 217.782 64.7343 218.751C64.9958 218.735 65.2419 218.72 65.5035 218.705C65.4573 217.72 65.3958 216.735 65.3497 215.751ZM148.734 218.197C148.38 218.474 148.011 218.705 148.041 218.751C148.364 219.443 148.749 220.12 149.149 220.782C149.165 220.797 149.749 220.505 149.734 220.474C149.441 219.735 149.103 218.997 148.734 218.197ZM105.934 60.8598C105.657 60.7521 105.38 60.6444 105.119 60.5367C104.811 61.429 104.488 62.3213 104.18 63.2136C104.38 63.2905 104.596 63.3675 104.796 63.4444C105.18 62.5828 105.565 61.7213 105.934 60.8598ZM64.2266 220.966C63.8882 220.689 63.5036 220.366 63.119 220.058C63.0113 220.305 62.7343 220.658 62.8266 220.766C63.1189 221.166 63.519 221.474 63.8728 221.812C63.9497 221.597 64.042 221.382 64.2266 220.966Z" fill="#EBC483"/>
<path d="M232.286 158.752C235.717 161.536 238.363 163.952 238.117 167.675C237.948 170.09 239.01 172.228 238.871 174.567C239.163 173.921 239.456 173.274 239.748 172.628C239.779 176.982 237.763 181.167 238.81 186.244C239.302 184.951 239.548 184.274 239.81 183.613C239.117 186.259 241.317 189.167 238.963 191.705C238.379 192.336 239.979 192.336 239.779 193.644C239.194 197.628 237.856 201.336 236.502 205.043C235.44 207.951 235.302 208.013 235.471 209.043C236.071 212.859 234.963 216.336 232.84 219.366C229.979 223.428 226.517 226.936 221.948 229.228C221.117 229.643 220.502 230.582 219.933 231.382C219.517 231.982 218.825 232.674 217.471 234.043C216.794 234.72 216.825 236.105 216.148 236.797C212.641 240.443 209.117 244.074 204.548 246.474C202.841 247.366 201.071 248.274 199.671 249.551C196.795 252.182 192.625 251.812 189.61 254.182C188.718 254.889 186.964 254.582 185.595 254.612C183.518 254.674 181.487 254.843 179.579 255.751C178.902 256.074 178.148 256.397 177.425 256.412C171.118 256.582 164.826 256.566 158.918 253.843C156.41 252.689 154.549 250.828 152.826 248.659C151.995 247.612 151.749 245.166 149.333 246.228C147.841 244.212 145.533 242.766 144.964 240.074C143.81 234.674 142.887 229.259 143.103 223.705C143.257 219.628 143.549 215.628 145.657 211.89C146.826 209.828 147.103 207.29 147.918 205.013C149.703 200.028 152.318 195.444 155.056 190.936C158.672 185.013 162.441 179.182 167.056 174.013C170.549 170.09 174.61 166.69 178.333 162.967C183.887 157.428 191.225 155.629 198.21 152.89C203.994 150.629 209.994 149.136 215.794 146.936C219.579 145.506 223.579 144.629 227.471 143.505C229.133 144.829 230.902 143.921 232.502 143.521C233.533 143.275 233.917 143.367 234.01 144.229C234.086 144.844 233.856 146.059 233.671 146.075C229.81 146.49 227.256 149.49 223.933 150.982C220.471 152.536 216.948 153.644 213.379 154.844C204.271 157.905 195.256 161.259 187.21 166.659C184.749 168.305 182.195 169.967 180.441 172.521C179.856 173.367 178.964 173.998 178.179 174.705C175.656 176.936 175.641 177.828 178.241 179.674C179.964 180.89 181.749 181.997 183.749 183.321C184.625 181.121 184.918 178.536 186.364 177.198C188.548 175.167 188.964 171.767 192.318 170.536C193.995 169.921 196.471 169.398 197.287 167.09C199.21 167.121 200.995 166.551 202.779 165.951C203.764 165.628 204.917 165.521 205.702 164.921C206.917 163.998 206.902 167.444 208.364 165.49C208.733 164.998 210.271 165.244 211.225 165.382C211.702 165.444 212.287 165.982 212.471 166.444C212.84 167.336 213.148 167.613 214.071 167.013C214.641 166.644 215.41 166.567 216.102 166.352C216.579 168.659 218.456 165.921 219.363 167.275C219.917 168.105 221.502 168.474 221.687 169.259C222.01 170.736 222.733 171.259 224.04 171.536C224.348 171.598 224.563 172.228 224.794 172.613C226.933 176.167 228.656 180.228 227.994 184.151C227.056 189.767 226.671 195.644 223.656 200.813C222.071 203.536 223.04 204.751 226.179 204.89C227.902 204.967 229.61 205.582 231.471 205.982C235.194 190.69 236.348 175.351 232.286 158.752ZM197.518 229.428C202.287 226.905 201.702 219.151 199.441 215.582C196.225 210.49 193.01 205.397 189.718 200.351C188.641 198.705 187.595 196.951 186.133 195.674C181.641 191.736 176.964 187.982 172.318 184.213C171.702 183.705 171.179 183.505 170.179 184.397C168.856 185.567 168.349 187.044 167.41 188.321C163.626 193.49 160.733 199.059 158.01 204.859C154.795 211.736 152.256 218.551 152.764 226.243C153.133 231.736 153.764 237.182 156.149 242.228C156.472 242.905 157.41 243.428 158.18 243.72C164.118 245.92 170.241 247.12 176.579 246.566C178.025 246.443 179.318 247.228 180.902 246.643C182.979 245.889 185.348 245.935 187.533 245.366C189.548 244.843 191.502 244.028 193.441 243.259C194.395 242.874 195.287 242.289 196.195 241.782C200.487 239.335 204.764 236.874 209.056 234.412C209.056 234.105 209.056 233.782 209.041 233.474C204.487 234.182 200.687 232.92 197.518 229.428ZM186.487 186.536C187.21 187.013 187.964 187.305 188.441 187.844C191.671 191.444 194.81 195.136 198.025 198.736C199.287 200.136 200.225 202.428 202.856 200.705C203.241 200.459 204.102 200.613 204.564 200.89C204.887 201.074 204.918 201.782 205.071 202.243C205.625 201.828 206.148 201.382 206.717 200.997C206.964 200.828 207.271 200.705 207.548 200.705C208.271 200.72 209.241 200.613 208.533 201.859C209.041 201.967 209.964 202.213 209.979 202.182C210.579 200.105 211.748 200.767 213.194 201.259C215.64 202.09 216.056 201.905 216.887 199.551C218.394 195.336 219.579 190.997 221.133 186.782C222.702 182.505 221.594 178.874 219.348 175.182C218.456 173.736 217.333 172.782 215.948 172.444C212.287 171.521 208.594 170.951 204.748 171.305C196.918 172.028 191.733 176.274 188.348 183.105C187.841 184.197 187.225 185.228 186.487 186.536ZM228.102 212.766C220.102 208.32 211.671 207.213 202.502 207.013C203.748 211.382 204.794 215.243 206.01 219.043C206.148 219.459 207.348 219.936 207.887 219.782C211.702 218.674 215.441 218.89 219.271 219.813C220.84 220.197 222.333 220.12 223.394 218.09C224.379 216.166 226.302 214.736 228.102 212.766Z" fill="#1D3D6C"/>
<path d="M64.1034 177.058C60.565 178.72 57.2573 180.305 53.9343 181.797C53.4573 182.012 52.7958 181.843 52.2266 181.874C51.6574 181.889 50.888 181.689 50.565 181.997C48.6727 183.689 46.765 184.981 44.1804 185.781C41.9958 186.443 40.4419 188.966 38.3958 190.351C36.5343 191.612 36.4728 194.766 33.5036 194.858C33.3498 194.858 32.9036 197.027 33.242 197.966C33.7189 199.304 34.5652 200.735 35.6729 201.551C36.9652 202.504 38.6728 203.135 40.2574 203.335C41.642 203.504 42.0574 206.335 43.9344 204.55C45.2266 205.981 46.7958 205.012 48.2419 205.135C50.7803 205.35 53.4265 205.504 55.7957 206.351C59.2265 207.581 62.7648 207.735 66.2879 208.012C67.5648 208.12 67.5341 208.689 67.5495 209.535C68.2572 209.489 69.2418 209.704 69.6418 209.335C71.1956 207.843 72.734 208.027 74.6263 208.627C78.1032 209.72 81.7186 208.689 85.2725 209.027C88.857 209.381 92.4878 208.212 96.0724 209.643C96.9339 209.981 98.4261 209.289 99.3953 208.689C100.165 208.212 100.641 207.381 100.503 206.073C100.426 205.304 101.811 204.043 102.811 203.551C104.826 202.551 107.042 201.997 109.134 201.151C110.934 200.427 112.58 199.474 114.257 201.581C114.734 202.197 116.118 202.104 117.103 202.289C117.764 202.412 118.78 202.166 119.041 202.52C119.626 203.32 120.026 204.366 120.149 205.366C120.241 206.212 119.949 207.15 119.626 207.981C119.364 208.674 118.503 209.243 118.472 209.889C118.257 214.273 114.641 215.273 111.642 216.027C109.565 216.535 107.118 217.612 104.734 216.35C104.257 216.089 103.534 216.289 102.918 216.258C93.38 215.904 83.8569 215.504 74.3493 214.489C69.6417 213.981 64.8879 214.227 60.1341 213.504C52.2111 212.289 44.5189 210.243 36.9497 207.766C34.7651 207.043 32.8883 205.366 30.8729 204.12C31.2268 202.258 29.5652 201.274 29.0575 199.797C28.919 199.381 29.196 198.689 29.4883 198.258C30.3191 197.058 31.4728 195.981 29.9651 194.489C29.7805 194.304 29.5652 193.874 29.6575 193.72C30.6421 192.043 31.2883 189.812 32.7652 188.843C37.8267 185.535 42.1652 180.981 48.3805 179.505C49.7805 179.166 51.1342 178.151 52.488 177.428C55.7188 175.72 59.1957 175.72 62.7034 176.135C63.1033 176.166 63.4419 176.597 64.1034 177.058ZM32.1498 199.135C31.5959 198.735 31.2574 198.489 30.9343 198.243C30.7036 198.674 30.3652 199.074 30.2883 199.535C30.2575 199.75 30.719 200.058 30.9651 200.32C31.3344 199.966 31.6882 199.597 32.1498 199.135Z" fill="#1D3D6C"/>
<path d="M139.272 322.503C138.811 321.842 138.503 321.211 138.026 320.734C137.395 320.119 136.841 319.688 135.734 320.442C133.241 322.134 130.503 321.719 127.841 320.611C127.564 320.503 127.057 320.319 127.072 320.242C127.549 317.226 124.303 315.903 123.949 313.18C123.072 306.38 121.134 299.796 119.072 293.288C117.211 287.442 114.457 281.888 112.211 276.165C111.395 274.088 110.826 271.904 110.288 269.735C110.165 269.273 110.457 268.458 110.842 268.196C111.134 267.996 112.103 268.212 112.334 268.55C115.303 272.965 119.995 275.888 121.903 281.365C124.441 288.673 128.057 295.596 129.764 303.211C130.118 304.811 130.041 306.519 130.457 308.103C130.641 308.826 131.364 310.58 132.303 308.334C132.38 308.134 133.057 308.18 133.457 308.103C133.487 308.365 133.626 308.688 133.518 308.873C132.672 310.303 133.611 310.134 134.549 310.119C135.872 310.088 137.318 310.534 138.472 310.119C141.549 308.996 144.103 310.15 146.672 311.457C148.61 312.426 149.38 314.396 148.087 315.903C146.503 317.765 144.411 319.196 142.534 320.796C142.426 320.888 142.257 320.919 142.118 320.965C141.211 321.18 139.626 321.934 139.272 322.503Z" fill="#1D3D6C"/>
<path d="M202.118 305.658C200.548 308.75 199.302 311.443 197.825 314.012C197.348 314.827 196.364 315.458 195.472 315.904C194.687 316.289 193.61 316.089 192.856 316.519C190.333 317.935 188.933 316.627 187.933 314.658C186.564 314.55 187.718 317.196 185.595 316.289C184.272 315.719 182.548 316.181 181.133 315.766C177.118 314.55 175.164 310.996 174.333 306.473C174.087 305.15 174.195 303.735 174.256 302.366C174.579 295.012 173.025 287.843 171.918 280.658C171.087 275.258 170.041 269.905 169.149 264.52C169.041 263.874 169.333 263.151 169.518 262.043C173.749 266.028 175.872 270.674 177.302 275.704C177.625 276.843 177.779 278.089 177.672 279.258C177.579 280.289 177.072 281.227 178.379 281.858C178.502 281.92 178.379 282.643 178.256 283.027C177.472 285.612 177.472 285.612 178.502 288.15C178.656 287.889 178.826 287.643 178.949 287.381C179.072 287.104 179.133 286.812 179.256 286.458C179.379 286.658 179.564 286.812 179.564 286.981C179.595 287.735 179.564 288.504 179.595 289.258C179.687 291.197 179.318 292.997 180.487 294.997C181.395 296.55 180.841 298.966 180.872 300.997C180.887 302.35 180.625 303.735 180.795 305.073C180.902 305.904 181.579 306.673 181.995 307.458C182.487 305.396 184.656 307.766 185.195 306.32C185.687 304.997 186.748 305.027 187.733 304.873C190.795 304.412 193.856 303.797 196.933 303.75C198.41 303.72 199.933 304.812 202.118 305.658Z" fill="#1D3D6C"/>
<path d="M141.026 134.182C142.257 136.735 142.472 139.32 142.564 142.212C142.672 145.859 141.733 149.166 141.272 152.628C140.98 154.874 140.595 157.12 140.318 159.381C140.21 160.228 140.057 161.135 140.257 161.935C140.887 164.597 140.949 164.581 138.749 166.135C138.257 166.489 137.78 166.874 137.056 167.412C134.61 164.781 132.441 162.489 133.364 158.135C134.657 152.012 135.164 145.72 135.826 139.489C136.149 136.228 138.61 135.366 141.026 134.182Z" fill="#1D3D6C"/>
<path d="M113.365 167.734C117.195 169.134 121.041 170.55 124.272 173.165C126.595 175.057 129.226 175.257 131.964 174.842C132.964 174.688 134.072 173.934 134.534 175.273C134.841 176.15 134.872 177.534 134.364 178.181C132.318 180.796 129.903 182.919 126.272 183.18C119.041 183.719 115.057 180.596 113.749 173.796C113.334 171.827 112.072 169.919 113.365 167.734Z" fill="#1D3D6C"/>
<path d="M123.041 145.568C122.103 147.537 122.795 150.645 119.303 151.276C118.949 151.337 118.657 151.768 118.334 152.03C115.288 154.399 113.549 154.306 111.119 151.506C110.057 150.291 108.365 149.276 110.38 147.214C111.119 146.445 110.457 144.476 110.842 143.168C111.749 140.03 114.765 138.737 116.949 136.753C117.272 136.46 118.303 136.476 118.642 136.768C120.365 138.245 123.026 139.076 122.457 142.26C122.288 143.199 122.795 144.276 123.041 145.568Z" fill="#1D3D6C"/>
<path d="M156.318 140.229C156.333 137.045 159.395 132.583 162.379 131.476C162.687 131.368 163.149 131.537 163.502 131.676C166.287 132.768 168.026 134.629 167.933 137.814C167.918 138.199 168.179 138.922 168.164 138.922C166.026 139.46 168.487 141.199 167.256 142.214C166.302 143.014 166.025 144.568 165.364 145.737C165.072 146.245 164.564 146.675 164.087 147.029C163.61 147.383 163.041 147.706 162.472 147.829C161.81 147.968 160.749 148.183 160.456 147.845C158.533 145.629 156.318 143.506 156.318 140.229Z" fill="#1D3D6C"/>
<path d="M214.471 180.551C214.502 183.166 214.302 184.905 214.61 186.535C214.964 188.412 213.164 188.581 212.548 189.658C211.718 191.12 210.502 189.889 209.533 189.981C208.225 190.105 208.041 189.981 208.071 188.828C208.133 186.643 208.61 184.797 210.81 183.658C211.933 183.105 212.779 182.028 214.471 180.551Z" fill="#1D3D6C"/>
<path d="M203.533 178.954C203.333 180.846 202.425 182.831 199.948 183.569C199.071 183.831 197.887 183.892 197.102 183.523C195.794 182.908 195.779 181.262 196.333 180.369C197.256 178.862 198.625 177.585 199.994 176.415C200.779 175.723 203.533 177.415 203.533 178.954Z" fill="#1D3D6C"/>
</svg>
