<svg width="300" height="264" viewBox="0 0 300 264" fill="none" xmlns="http://www.w3.org/2000/svg">
<path d="M212.025 64.2554C214.825 59.917 219.44 60.64 223.655 60.2093C224.332 60.1477 225.071 60.3477 225.686 60.1478C230.409 58.6093 235.163 58.3632 239.994 59.5785C240.732 59.7631 241.547 60.1939 242.194 60.0092C246.455 58.8246 250.547 60.2708 254.64 60.8708C258.178 61.3785 261.547 60.8708 264.932 60.3016C266.947 59.9631 268.824 59.6555 270.963 61.317C269.978 63.0093 268.932 64.7476 267.963 66.5169C267.686 67.0092 267.301 67.8861 267.501 68.1476C269.424 70.5476 267.501 72.2245 266.501 74.0399C264.455 77.7629 262.439 81.486 260.27 85.1475C256.563 91.409 252.624 97.532 249.194 103.963C245.347 111.178 241.747 118.547 236.917 125.209C236.209 126.193 235.578 127.27 235.101 128.378C232.547 134.409 228.178 139.332 224.948 144.932C224.532 145.655 223.948 146.455 223.963 147.209C224.04 151.47 224.286 155.732 224.44 159.993C224.64 165.639 225.009 171.285 224.932 176.931C224.824 184.87 224.455 192.808 224.071 200.731C223.578 210.916 222.963 221.1 222.363 231.285C222.255 232.992 223.024 235.085 220.655 236.023C220.501 236.085 220.348 236.669 220.394 236.716C221.378 237.423 221.794 238.239 221.225 239.439C220.855 240.223 220.64 241.1 220.332 241.992C219.978 241.408 219.686 240.915 219.317 240.315C218.348 242.008 219.302 243.315 219.64 244.746C220.086 246.623 219.302 247.777 217.332 247.792C212.179 247.823 207.132 249.085 201.84 248.238C197.563 247.562 193.025 248.208 188.625 248.562C184.933 248.854 181.379 249.254 177.948 247.285C174.271 245.162 170.194 246.038 166.333 246.469C161.179 247.038 156.225 246.777 151.194 245.531C148.025 244.746 144.687 244.546 141.41 244.362C140.564 244.315 139.425 245.177 138.841 245.946C137.025 248.346 134.733 248.854 131.964 248.269C130.195 247.9 127.533 248.315 126.764 247.285C125.379 245.408 124.671 245.177 123.01 246.654C122.548 247.054 121.549 246.854 120.795 246.9C114.564 247.331 108.318 247.746 102.087 248.177C99.3486 248.362 96.6256 248.715 93.8872 248.762C84.5488 248.946 75.318 249.9 66.2719 252.269C62.7335 253.192 59.149 253.869 55.1952 253.146C56.4875 247.961 57.8259 242.915 59.0105 237.823C60.7336 230.454 62.5489 223.1 63.9797 215.669C65.8412 206.023 67.3643 196.3 69.0412 186.608C69.6566 183.054 70.272 179.501 70.9489 175.639C69.4566 175.039 67.8104 174.285 66.1181 173.701C58.3643 171.07 50.4568 168.839 42.8876 165.793C30.8723 160.947 18.5185 157.193 6.07243 153.747C5.04167 153.47 3.98015 153.255 3.01093 152.839C-0.173661 151.485 -0.619804 148.578 2.0571 146.301C5.16476 143.67 8.38017 141.162 11.534 138.593C12.1186 138.116 12.7185 137.609 13.2109 137.039C17.5954 131.993 22.6723 127.655 27.8261 123.486C32.903 119.393 38.4107 115.84 43.7952 112.132C49.3029 108.332 54.8721 104.64 60.4259 100.917C65.0874 97.7936 69.7182 94.6089 74.4566 91.6244C75.7335 90.8244 76.6565 90.0244 76.8411 88.5475C77.5334 83.286 78.195 78.0245 78.8565 72.7477C79.4258 68.2554 79.9641 63.7477 80.5026 59.2554C80.518 59.1016 80.5642 58.9478 80.5642 58.8093C80.2103 51.1632 81.7487 43.671 82.441 36.1172C82.4872 35.6557 82.3795 35.1787 82.4565 34.7479C83.4564 29.7326 84.7642 24.7634 85.4103 19.7019C85.9796 15.2096 87.9025 10.9943 87.6102 6.33275C87.5025 4.702 88.3026 2.99435 88.8718 1.36359C88.9949 1.02513 89.9641 0.640515 90.3641 0.778975C94.6256 2.31742 99.1794 3.08668 103.041 5.71743C106.41 8.00972 109.795 10.1789 112.395 13.4866C113.502 14.9019 115.625 15.6404 117.41 16.4097C126.364 20.2712 134.595 25.3634 142.564 30.9172C144.287 32.1172 146.01 33.348 147.641 34.671C148.01 34.9787 148.041 35.7172 148.21 36.271C148.564 37.4864 148.825 37.7479 150.348 37.194C151.84 36.6556 153.44 38.2709 153.733 39.8863C153.994 41.2863 154.933 41.0402 155.641 41.5325C157.594 42.9017 159.471 44.4248 161.164 46.1171C165.471 50.4248 169.717 54.7785 173.84 59.2554C175.579 61.1477 177.179 63.2554 178.363 65.5323C179.471 67.6708 180.979 67.8092 182.902 67.4554C186.009 66.8708 189.209 66.5323 192.209 65.5938C193.886 65.0708 196.179 66.9015 197.317 64.3015C197.394 64.1323 198.394 64.0554 198.533 64.2554C199.902 66.0861 201.117 65.3323 202.702 64.4246C205.671 62.6861 208.809 62.64 212.025 64.2554ZM171.425 71.1938C167.856 63.2862 151.794 46.1786 145.579 42.7325C154.517 52.594 162.963 61.8862 171.425 71.1938ZM185.994 74.563C186.086 74.8861 186.194 75.2091 186.286 75.5168C189.532 75.1168 192.809 74.9476 195.994 74.2707C199.317 73.5784 202.532 72.4091 205.809 71.4553C205.056 70.563 204.348 70.2707 203.763 70.4246C197.902 72.0399 191.686 72.3169 185.994 74.563ZM73.1796 192.654C75.3026 188.885 77.072 184.87 78.5335 180.716C78.6412 180.408 77.9642 179.424 77.6565 179.439C77.0719 179.455 76.0412 179.87 75.9796 180.239C75.3489 184.393 72.5642 187.962 73.1796 192.654ZM154.148 209.531C153.056 211.223 152.087 212.731 150.841 214.639C156.179 213.546 156.179 213.546 154.148 209.531ZM122.395 192.024C123.533 190.747 125.179 189.716 124.487 187.608C124.41 187.377 123.61 187.085 123.487 187.193C122.148 188.454 121.287 189.9 122.395 192.024ZM190.517 92.1629C191.609 93.9013 192.409 95.2397 194.256 94.4397C194.84 94.1936 195.163 93.3474 195.609 92.7782C195.102 92.5782 194.594 92.2397 194.071 92.1936C193.025 92.1013 191.979 92.1629 190.517 92.1629ZM176.04 192.331C176.209 192.331 176.379 192.331 176.548 192.331C176.548 190.531 176.548 188.731 176.548 186.931C176.379 186.931 176.209 186.931 176.04 186.931C176.04 188.731 176.04 190.531 176.04 192.331ZM94.4102 9.87126C94.4102 11.1636 94.4102 12.3019 94.4102 13.6404C95.8256 12.2865 97.3333 11.1482 94.4102 9.87126ZM78.4257 168.347C77.7796 167.947 77.2103 167.47 77.0719 167.562C76.5796 167.916 76.1489 168.439 75.8412 168.978C75.7489 169.131 76.1334 169.562 76.3027 169.87C76.8719 169.47 77.4257 169.07 78.4257 168.347ZM110.579 154.239C111.195 153.732 111.595 153.393 111.979 153.055C111.364 152.824 110.764 152.501 110.133 152.393C109.81 152.332 109.41 152.639 109.041 152.762C109.502 153.208 109.964 153.639 110.579 154.239ZM173.533 108.255C173.44 108.317 173.271 108.393 173.271 108.44C173.302 109.27 173.363 110.101 173.425 110.932C173.563 110.901 173.84 110.886 173.84 110.84C173.887 110.04 173.917 109.24 173.917 108.44C173.917 108.378 173.671 108.317 173.533 108.255Z" fill="#EBC483"/>
<path d="M183.517 157.162C184.686 155.07 186.917 153.47 188.117 150.932C189.24 148.593 191.902 147.778 194.579 147.393C194.071 148.024 193.563 148.655 192.886 149.485C193.671 149.562 194.317 149.824 194.809 149.639C196.102 149.162 197.317 148.47 198.609 147.947C199.871 147.439 201.009 149.393 202.425 148.132C202.778 147.824 203.578 147.947 204.163 148.009C206.101 148.224 208.04 148.562 209.994 148.762C213.763 149.116 217.609 149.085 221.301 149.808C225.255 150.593 229.394 150.608 233.163 152.393C235.44 153.47 237.901 154.147 240.209 155.132C242.855 156.255 242.593 156.116 244.701 153.716C247.809 150.193 251.27 146.947 254.686 143.701C256.394 142.07 258.67 141.147 259.409 138.455C259.686 137.439 261.347 136.809 262.778 139.101C262.101 135.901 263.332 134.239 265.286 132.778C266.593 131.793 267.578 130.378 268.701 129.147C269.009 128.809 269.224 128.239 269.593 128.132C273.055 127.132 274.793 123.763 277.839 122.193C280.732 120.701 283.562 119.07 286.439 117.547C286.824 117.347 287.501 117.224 287.839 117.424C288.685 117.932 289.455 118.609 290.209 119.27C292.224 121.07 289.285 124.578 292.485 125.993C293.209 128.409 293.132 130.762 292.147 133.101C292.024 133.378 292.009 133.701 291.993 133.993C291.67 140.962 291.301 147.916 291.055 154.885C290.978 156.993 291.347 157.362 293.501 156.716C295.224 156.208 295.962 156.608 296.655 158.085C296.947 158.701 297.608 159.501 298.193 159.578C299.793 159.778 299.885 160.101 298.978 161.408C298.639 161.885 299.039 163.07 299.362 163.808C300.393 166.147 299.993 168.301 298.839 170.454C297.378 173.193 296.393 176.316 294.424 178.608C291.132 182.439 290.824 186.716 290.87 191.331C290.901 194.316 290.085 197.316 290.316 200.27C290.778 206.393 289.162 212.516 290.593 218.623C290.685 218.977 290.07 219.777 289.639 219.946C288.27 220.439 289.07 219.054 288.762 218.808C287.547 217.839 286.178 217.039 284.578 215.992C279.009 221.039 273.224 226.362 267.332 231.562C263.409 235.038 260.101 238.915 258.147 243.823C257.578 245.254 257.009 245.269 255.501 245.146C248.701 244.577 241.824 244.669 235.055 243.946C229.271 243.331 223.548 242.023 217.824 240.838C214.901 240.223 212.025 239.346 209.24 238.3C206.394 237.223 203.517 237.762 200.671 237.715C199.102 237.7 198.302 236.915 198.055 235.731C197.902 234.992 199.025 233.962 198.809 233.3C198.579 232.608 197.132 234.3 196.409 232.592C195.317 230.023 193.686 227.885 193.44 224.777C193.117 220.608 191.902 216.5 191.994 212.223C192.025 210.793 191.302 209.331 191.04 208.316C188.625 208.116 186.44 207.793 184.256 207.762C181.702 207.731 179.517 206.331 176.963 206.193C174.64 206.069 172.348 204.777 170.056 204.808C167.379 204.854 164.702 204.67 162.04 204.562C154.194 204.254 146.364 203.531 138.518 203.254C133.441 203.07 128.579 201.516 123.594 201.162C116.656 200.67 109.949 198.962 103.102 198.054C99.3948 197.562 95.6564 197.593 91.9949 196.931C91.3949 196.824 90.8871 196.193 90.3486 195.808C90.7486 195.423 91.1025 194.947 91.5641 194.67C93.8102 193.362 96.2563 192.516 98.8409 192.977C100.056 193.193 100.256 192.9 100.626 191.87C100.949 190.993 101.179 191.1 101.902 192.454C102.349 193.285 102.933 193.193 103.733 192.747C106.179 191.377 108.856 191.5 111.425 192.947C111.641 193.07 111.81 193.239 112.01 193.393C113.841 190.993 116.21 192.885 118.287 192.747C121.256 192.531 124.21 193.147 127.133 194.162C129.718 195.07 132.641 194.931 135.348 195.593C139.456 196.593 143.579 196.454 147.733 196.47C149.056 196.47 150.84 195.685 151.887 197.423C151.948 197.516 152.394 197.531 152.425 197.47C153.502 194.947 155.533 196.5 157.164 196.347C161.04 195.977 164.856 197.07 168.779 196.593C170.902 196.331 173.148 197.116 175.333 197.377C177.102 197.577 178.533 197.254 179.456 195.362C180.948 192.285 183.748 190.239 186.394 188.362C188.702 186.731 189.671 185.623 188.656 182.547C187.517 179.085 187.563 175.224 187.056 171.547C186.594 168.301 186.225 165.039 185.532 161.839C185.194 160.255 184.256 158.824 183.517 157.162ZM191.686 163.962C192.255 164.316 192.025 161.931 192.825 163.47C193.502 164.778 194.009 166.378 193.902 167.808C193.656 171.131 194.579 174.085 195.779 177.054C196.502 178.839 196.656 181.5 197.932 182.208C199.179 182.9 201.625 181.854 203.363 181.131C205.117 180.393 206.209 181.962 207.702 181.87C207.686 182.654 207.625 183.454 207.686 184.239C207.717 184.67 207.794 185.239 208.086 185.5C210.809 187.993 206.717 191.593 209.501 194.054C209.532 194.085 209.225 194.547 209.04 194.793C207.132 197.316 205.517 200.177 203.194 202.223C201.071 204.1 200.84 206.177 201.348 208.346C202.394 212.762 202.455 217.285 203.086 221.731C203.379 223.808 203.717 225.885 204.04 227.962C204.286 229.577 204.825 230.162 206.748 229.639C208.394 229.192 210.44 229.377 212.086 229.931C219.963 232.592 228.055 234.285 236.27 235.392C240.394 235.946 244.563 236.146 249.086 235.623C247.424 231.977 246.655 228.5 247.04 224.823C247.117 224.1 246.855 223.331 246.778 222.592C246.563 220.5 245.993 218.362 246.24 216.316C246.778 211.777 246.009 207.316 246.009 202.823C246.009 197.731 245.317 192.654 245.363 187.577C245.394 184.731 245.24 181.947 244.978 179.131C244.917 178.424 244.947 177.716 244.901 177.024C244.686 173.87 244.547 170.701 244.194 167.547C243.932 165.162 243.101 164.116 240.809 164.162C238.424 164.208 236.578 162.931 234.747 162.055C232.255 160.855 229.717 160.285 227.132 159.547C216.563 156.501 205.64 157.116 194.886 156.101C193.855 156.008 192.732 156.101 191.732 156.378C189.317 157.07 189.056 157.978 190.256 160.285C190.84 161.455 191.209 162.716 191.686 163.962ZM281.747 184.47C280.793 184.67 280.516 184.716 280.255 184.793C280.116 184.839 280.024 185.024 279.885 185.054C277.224 185.777 277.039 185.577 276.193 182.993C274.67 178.408 275.393 174.3 278.686 170.793C281.87 167.408 283.193 163.562 282.901 158.87C282.578 153.624 282.824 148.332 282.839 143.07C282.839 142.455 282.732 141.809 282.901 141.255C284.178 137.162 283.147 132.855 284.809 127.947C281.07 130.563 277.701 131.809 275.378 134.809C273.347 137.424 270.932 139.762 268.562 142.086C263.363 147.162 258.07 152.147 252.84 157.193C250.101 159.824 249.255 162.67 250.332 166.624C251.24 169.947 253.409 173.747 250.178 177.208C250.117 177.27 250.701 177.808 250.824 178.177C251.378 179.87 252.024 181.547 252.332 183.285C252.809 185.962 253.209 188.685 253.317 191.393C253.378 192.747 254.193 194.439 252.501 195.562C252.393 195.639 252.486 196.146 252.609 196.393C253.101 197.423 254.009 198.393 254.086 199.439C254.347 203.039 254.316 206.639 254.378 210.254C254.424 212.685 254.07 215.192 254.547 217.546C255.455 222.039 255.394 226.592 255.84 231.5C258.886 227.439 262.301 224.162 266.193 221.392C267.286 220.623 268.486 219.977 269.47 219.085C271.024 217.685 272.347 216.023 273.947 214.669C275.501 213.362 277.532 212.531 278.839 211.039C280.101 209.608 281.978 208.008 281.532 205.87C281.116 203.87 281.362 202.008 281.362 200.07C281.347 197.977 281.485 195.946 281.67 193.87C281.947 190.87 281.747 187.823 281.747 184.47Z" fill="#1D3D6C"/>
<path d="M155.456 141.378C153.779 144.486 152.533 147.855 149.718 150.27C147.118 152.501 144.302 154.363 141.241 155.824C140.749 156.055 138.225 157.609 139.702 154.655C139.195 154.763 138.272 154.809 138.256 154.963C137.979 157.163 136.656 157.009 134.949 156.794C131.702 156.409 128.441 156.224 125.18 156.117C123.841 156.071 123.687 155.763 123.872 154.471C123.949 153.947 122.795 153.04 122.026 152.624C117.333 150.071 115.103 145.947 114.195 140.886C114.056 140.148 113.795 139.44 113.641 138.701C113.549 138.286 113.41 137.532 113.564 137.455C116.364 135.948 113.564 134.025 113.918 132.317C114.087 131.471 112.395 130.963 111.903 131.84C110.918 133.517 109.487 133.348 107.98 133.778C107.01 134.055 105.795 135.209 104.61 135.671C101.918 136.732 99.1336 137.655 96.3182 138.332C94.149 138.855 91.8721 138.855 89.6414 139.163C86.4722 139.594 84.4568 142.04 82.3337 143.994C81.4107 144.84 81.7645 147.101 81.5953 148.732C81.4569 150.04 81.4721 151.378 81.2721 152.686C81.1029 153.763 82.0413 155.286 80.3029 155.809C79.349 156.086 76.2107 154.024 76.1491 152.963C75.9645 149.332 75.7337 145.686 76.0414 142.086C76.1337 140.886 77.6875 139.717 78.7336 138.717C81.6721 135.886 85.4874 134.994 89.3182 134.117C93.2566 133.224 97.1797 132.348 101.087 131.317C103.964 130.563 106.826 129.702 109.595 128.625C111.533 127.871 112.856 128.209 113.749 130.163C114.41 127.594 115.041 125.286 115.595 122.948C115.795 122.086 116.18 121.055 115.903 120.317C115.272 118.578 115.949 117.655 117.21 116.579C118.195 115.732 119.441 114.471 119.441 113.379C119.457 111.717 121.364 111.179 121.18 110.102C120.81 107.932 122.98 108.363 123.472 107.363C124.395 105.502 126.98 104.994 127.149 102.409C127.195 101.656 129.195 100.225 129.779 100.456C131.949 101.286 133.256 99.5171 134.995 99.2556C135.872 99.1171 136.718 98.7787 137.579 98.5172C139.256 98.0249 137.887 99.9479 138.749 99.994C139.995 100.071 141.349 99.7325 142.441 100.133C143.472 100.517 144.179 101.717 145.133 102.409C145.856 102.932 146.826 103.702 147.533 103.563C149.164 103.256 149.764 103.502 149.441 105.24C149.395 105.532 149.856 106.04 150.195 106.256C151.61 107.117 153.887 107.255 153.025 109.886C157.179 111.04 156.564 115.532 159.102 118.148C159.81 114.532 163.333 114.409 165.902 113.302C168.441 112.209 169.256 110.994 169.271 108.271C169.348 100.979 172.748 95.4094 179.025 91.6402C181.917 89.9018 185.302 90.1171 188.425 89.3018C188.84 89.1941 189.441 89.7941 190.256 90.2249C188.241 91.8556 186.518 93.3633 184.656 94.7017C183.564 95.4863 182.117 95.8095 181.117 96.6556C180.379 97.2864 180.302 98.7479 179.548 99.3171C176.271 101.763 175.871 105.332 175.595 108.902C175.471 110.532 176.41 112.455 175.856 113.825C174.733 116.563 176.764 118.24 177.318 120.378C177.964 122.871 178.564 125.363 179.41 127.778C179.733 128.717 180.61 129.502 181.348 130.255C182.164 131.086 183.071 131.348 184.179 130.578C189.964 126.548 194.825 122.009 197.071 114.825C198.256 111.009 199.087 107.532 197.517 103.917C196.579 101.763 194.964 99.9017 193.702 97.9786C197.871 96.9017 197.871 97.0095 199.763 97.9325C203.317 99.671 204.41 102.994 205.302 106.394C206.64 111.486 204.702 115.994 202.456 120.378C200.087 124.994 196.902 129.025 193.04 132.44C189.394 135.671 185.056 137.286 180.056 136.809C178.702 136.671 177.779 136.178 177.348 134.809C177.148 134.178 176.687 133.194 176.256 133.148C172.671 132.778 172.994 129.609 172.21 127.409C171.41 125.163 171.164 122.717 170.595 119.948C169.502 120.763 168.748 121.471 167.871 121.948C166.287 122.778 164.887 123.84 162.933 124.102C160.349 124.455 160.072 125.055 160.041 127.732C159.995 130.64 159.225 133.301 157.887 135.978C157.41 135.378 157.102 134.978 156.549 134.286C156.533 136.932 158.672 139.732 155.379 141.455C155.518 140.624 155.671 139.794 155.871 138.671C153.933 139.301 153.471 140.424 153.933 142.071C154.425 141.855 154.949 141.624 155.456 141.378ZM131.287 147.855C133.426 147.855 134.81 147.763 136.164 147.871C138.949 148.117 141.179 147.178 143.041 145.117C143.856 144.209 144.81 143.424 145.61 142.517C149.195 138.501 152.087 133.825 152.518 128.563C153.21 119.763 150.61 111.932 142.964 106.486C139.225 103.84 132.933 104.117 129.564 107.225C123.764 112.609 119.98 119.163 118.303 126.901C117.133 132.348 117.764 137.594 120.287 142.548C122.041 145.994 124.533 148.424 128.841 147.963C129.903 147.855 130.979 147.871 131.287 147.855Z" fill="#1D3D6C"/>
<path d="M194.409 245.392C193.686 246.192 191.24 245.684 192.502 247.915C190.717 249.007 190.748 251.792 188.24 252.269C185.61 252.761 183.04 253.638 180.394 254.007C179.148 254.176 177.794 253.33 176.471 253.269C168.579 252.899 160.687 252.638 152.794 252.284C151.287 252.222 149.794 251.869 148.287 251.807C145.579 251.684 142.856 251.592 140.148 251.669C138.502 251.715 136.872 252.253 135.241 252.269C127.533 252.407 119.918 253.084 112.395 254.93C109.779 255.561 107.025 255.622 104.318 255.822C99.6563 256.176 94.9641 256.33 90.318 256.761C84.1796 257.33 77.9796 257.422 71.8874 258.576C71.4412 258.653 70.9797 258.592 70.5181 258.622C64.3797 258.961 58.2414 259.515 52.1029 259.561C47.7953 259.592 43.7492 260.684 39.6415 261.622C37.7646 262.053 35.9185 262.638 34.0416 263.053C33.6877 263.13 32.9646 262.868 32.8723 262.622C32.7031 262.115 32.6262 261.269 32.9185 260.961C36.2108 257.407 39.3339 253.946 44.6569 252.838C48.4723 252.053 52.3183 251.684 56.1337 250.992C59.9029 250.299 63.872 251.038 67.595 249.669C73.3335 250.499 78.8566 248.192 84.595 248.592C87.118 248.761 89.7334 248.238 92.241 247.715C96.4102 246.853 100.672 247.299 104.918 246.453C108.887 245.669 113.195 245.469 117.41 245.453C120.072 245.438 122.949 244.499 125.748 244.115C131.518 243.315 137.302 242.53 143.148 242.838C149.318 243.146 155.487 243.576 161.656 243.884C164.548 244.022 167.44 243.961 170.333 244.099C174.502 244.315 178.656 244.638 182.81 244.899C183.271 244.93 183.779 245.115 184.163 244.961C187.656 243.576 191.01 244.823 194.409 245.392Z" fill="#1D3D6C"/>
<path d="M171.225 170.577C170.087 171.485 169.348 171.977 168.733 172.592C168.148 173.177 167.225 173.715 168.102 174.808C168.287 175.039 168.117 175.715 167.902 176.054C163.24 183.377 152.118 183.915 148.533 177.131C147.902 175.931 146.887 174.869 146.487 173.608C145.117 169.254 149.487 163.823 154.241 163.792C154.794 163.792 155.333 163.562 155.887 163.531C156.933 163.485 158.025 163.346 159.04 163.531C160.871 163.869 161.594 165.439 162.348 166.931C163.933 165.685 165.456 166.038 166.917 167.162C168.21 168.162 169.487 169.208 171.225 170.577ZM158.625 168.792C158.179 168.823 157.702 168.977 157.271 168.885C154.702 168.346 153.456 170.177 152.148 171.792C151.887 172.131 151.887 173.054 152.148 173.377C153.517 175.038 155.133 176.531 157.471 176.223C160.471 175.838 162.44 173.638 164.333 171.592C165.394 170.454 164.179 168.485 162.748 169.039C161.164 169.639 160.025 167.839 158.625 168.792Z" fill="#1D3D6C"/>
<path d="M169.071 157.808C165.425 156.1 164.41 153.192 164.548 149.454C164.718 144.731 164.594 140.008 164.594 135.285C164.594 134.377 164.456 133.423 164.671 132.562C164.825 131.9 165.302 131.054 165.856 130.808C166.317 130.608 167.256 130.977 167.748 131.377C170.379 133.608 171.687 137.869 171.194 141.808C171.041 143.039 170.779 144.5 171.241 145.531C172.487 148.254 171.287 151.039 171.871 153.762C172.348 155.946 170.779 157.023 169.071 157.808Z" fill="#1D3D6C"/>
<path d="M183.471 115.827C183.933 114.273 184.071 112.519 184.933 111.242C185.564 110.304 187.148 109.519 188.287 109.55C189.594 109.596 191.179 110.134 191.24 112.196C191.287 113.503 192.071 114.796 192.025 116.088C191.917 118.688 190.425 120.211 188.302 120.35C185.041 120.55 183.948 119.473 183.471 115.827Z" fill="#1D3D6C"/>
<path d="M138.487 141.224C137.595 139.762 137.225 138.008 135.948 136.701C135.518 136.255 135.241 135.347 135.333 134.731C135.841 131.193 136.533 127.701 138.979 124.855C140.994 122.516 142.548 122.793 144.517 125.162C147.271 128.455 146.61 131.762 145.287 135.239C145.025 135.931 144.61 136.562 144.333 137.255C143.487 139.362 142.287 140.931 139.671 140.624C139.302 140.562 138.887 141.008 138.487 141.224Z" fill="#1D3D6C"/>
</svg>
