<svg width="207" height="277" viewBox="0 0 207 277" fill="none" xmlns="http://www.w3.org/2000/svg">
<path d="M134.993 276.713C134.61 276.133 134.091 274.997 133.844 275.058C131.535 275.565 130.325 272.342 127.93 273.391C127.831 273.429 127.535 273.305 127.547 273.256C127.646 271.231 125.51 271.404 124.646 270.317C123.732 269.156 122.621 268.107 123.497 266.44C121.756 266.255 122.324 264.427 121.645 263.477C121.065 262.662 121.966 260.785 122.213 259.39C121.756 259.353 120.917 259.353 120.904 259.266C120.818 258.488 119.88 257.118 121.942 257.476C122.188 257.525 124.003 256.71 122.114 255.92C121.941 255.846 121.793 255.216 121.855 255.167C124.25 253.463 123.732 250.08 125.979 248.203C128.498 246.092 130.634 243.523 133.906 242.77C133.029 240.424 132.214 238.214 131.363 235.918C128.189 237.905 124.683 239.227 120.694 238.634C119.657 238.486 118.632 238.338 117.608 238.14C116.361 237.905 116.805 235.424 114.879 236.066C114.545 234.831 113.237 233.806 114.039 232.3C114.286 231.831 114.891 231.176 113.928 230.991C111.446 230.522 112.064 228.349 112.409 227.287C113.632 223.521 115.188 219.854 118.373 217.174C119.497 216.224 120.682 215.816 122.102 215.927C121.917 217.644 121.966 219.125 119.879 220.298C118.176 221.249 117.04 223.583 116.151 225.546C114.978 228.139 116.509 231.67 118.916 232.905C122.188 234.584 129.881 230.732 130.486 227.102C130.634 226.213 130.622 225.299 130.77 224.41C131.436 220.224 129.98 218.051 125.905 218.051C124.003 218.051 123.04 217.187 121.954 216.051C122.25 215.779 122.571 215.261 122.855 215.285C123.769 215.347 124.547 216.236 125.596 215.174C126.819 213.952 128.263 213.853 129.35 215.557C129.436 215.68 129.523 215.927 129.584 215.927C131.375 215.668 133.499 215.396 133.647 217.792C133.745 219.52 135.98 220.743 134.622 222.657C136.536 228.065 136.857 233.893 139.018 239.227C139.487 240.375 140.401 240.622 141.487 240.881C143.475 241.35 143.784 242.029 143.426 244.153C143.166 245.623 142.957 247.092 142.71 248.561C142.438 250.154 142.45 250.142 144.364 252.265C144.747 252.685 145.117 253.228 145.241 253.772C145.957 256.933 146.772 260.094 147.192 263.291C147.352 264.477 146.932 266.119 146.142 266.983C143.586 269.774 142.216 273.737 138.203 275.157C137.61 275.367 137.252 276.256 136.795 276.836C136.203 276.787 135.598 276.75 134.993 276.713ZM141.746 264.65C141.104 261.81 140.524 258.933 139.796 256.105C139.363 254.389 138.833 252.685 138.129 251.068C137.635 249.944 136.943 249.388 135.301 249.981C131.313 251.413 127.238 255.883 126.843 260.007C126.769 260.736 126.683 261.575 126.942 262.217C128.362 265.637 130.757 268.28 133.98 270.082C134.486 270.366 135.573 270.255 136.017 269.873C138.042 268.181 139.931 266.329 141.746 264.65Z" fill="#1D3D6C"/>
<path d="M123.485 38.1771C120.262 39.1649 117.496 40.165 114.718 37.782C117.706 37.3128 119.262 34.6088 121.978 33.8185C122.361 33.7074 122.781 32.9789 122.818 32.5221C122.942 30.7194 123.151 28.8673 122.917 27.0893C122.337 22.6813 124.226 18.6932 124.88 14.5074C125.028 13.5444 126.312 12.7541 127.473 11.4453C129.016 14.7791 130.708 17.4214 129.461 20.8416C129.165 21.6565 129.14 22.6443 129.263 23.5209C129.646 26.2991 130.165 29.0525 130.646 31.9665C131.906 31.9665 133.091 31.9912 134.264 31.9541C134.684 31.9418 135.165 31.8553 135.499 31.6207C138.536 29.534 138.524 29.5217 141.561 30.349C141.919 30.4477 142.277 30.5589 143.006 30.7688C140.635 31.1145 142.154 32.5838 141.623 33.6333C140.45 33.7445 139.129 33.8679 136.709 34.0902C138.351 34.6335 138.944 34.831 139.647 35.0656C139.561 35.2385 139.512 35.4978 139.388 35.5348C136.734 36.3744 134.066 37.2017 131.227 38.0784C131.436 40.4984 133.165 42.511 134.733 44.3261C135.968 45.746 137.968 46.7585 139.833 47.3388C145.463 49.1292 145.587 49.87 148.34 48.8452C148.34 47.2153 148.439 45.425 148.315 43.647C148.167 41.4738 149.019 39.6218 150.711 38.5969C153.847 36.6831 156.884 34.5717 160.564 33.5469C162.082 33.1271 163.465 33.1518 164.922 33.0901C165.947 33.0407 166.034 33.3988 165.762 34.3742C165.342 35.8929 167.095 35.6583 167.737 36.3868C169.343 38.2142 169.441 38.2142 168.318 40.6343C167.812 41.7208 167.12 42.758 166.836 43.9063C166.169 46.5239 164.305 48.3636 162.292 49.6354C160.712 50.6479 159.712 51.9937 158.452 53.2038C158.922 54.562 159.996 54.6978 161.243 54.7595C163.416 54.8583 165.848 53.994 167.565 56.1795C168.454 54.7719 169.985 55.3645 171.207 54.9818C173.294 54.3274 175.319 53.426 177.418 52.8333C178.838 52.4382 179.69 53.6483 179.233 55.1546C178.023 59.0564 176.208 60.3899 172.269 60.9578C167.355 61.6616 162.539 61.5382 157.786 60.1306C155.958 59.5873 154.205 59.0564 152.55 57.8216C149.994 55.9078 146.636 55.809 143.599 55.8214C138.87 55.8337 134.758 54.0434 130.943 51.8456C127.72 50.0058 125.794 46.6227 124.806 42.9062C124.423 41.4986 124.016 40.0786 123.485 38.1771ZM155.687 47.7339C158.465 44.5607 163.737 43.3877 162.49 37.1523C158.959 39.7082 154.909 40.9182 152.76 44.6718C153.785 45.7584 154.637 46.6474 155.687 47.7339Z" fill="#1D3D6C"/>
<path d="M39.2518 102.456C38.9184 101.604 38.5357 100.653 38.1653 99.7026C38.0047 99.3075 37.8689 98.5667 37.6961 98.5543C35.844 98.4802 35.0662 97.1467 34.7205 95.7515C33.992 92.8622 33.2264 89.9359 33.6956 86.9109C33.7696 86.4293 34.1649 85.8737 34.5723 85.5774C36.8566 83.8981 37.1899 83.0338 38.2765 80.7619C39.4248 78.3542 41.746 76.6256 44.2031 76.0453C46.4256 75.5267 47.9814 74.1067 49.9446 73.2918C50.3767 73.119 50.7348 72.3658 50.8212 71.8349C51.2534 69.0567 51.5868 66.2662 52.019 62.9448C49.4508 62.9448 47.2653 62.9325 45.0675 62.9448C41.7831 62.9695 39.2024 61.9447 38.1776 58.4875C38.1529 58.401 37.8566 58.4257 37.7702 58.3269C37.5973 58.1047 37.3011 57.7096 37.3752 57.5985C39.1655 54.7833 35.5847 52.4867 36.6713 49.6468C37.3627 47.8441 38.0047 46.0291 39.2518 44.5474C40.0914 43.5473 41.1781 42.7447 42.1536 41.8681C42.2647 41.7693 42.4374 41.7199 42.5115 41.5964C45.6971 37.1638 49.5988 38.4108 53.8957 40.4234C54.1673 39.6949 54.2909 39.0158 54.6613 38.4849C54.9453 38.0651 55.5503 37.5959 55.9701 37.6329C56.3775 37.67 56.8468 38.2503 57.0937 38.7071C57.2913 39.0652 57.0196 39.732 57.2666 40.016C59.8595 43.1522 58.9828 46.5723 58.3161 50.0543C57.9086 52.1656 59.2545 54.2894 58.5137 56.4872C57.9457 58.1911 57.7233 59.7592 58.7111 61.5866C59.2791 62.6362 58.7111 64.3524 58.5753 65.7477C58.4272 67.3528 58.1925 68.9579 57.9332 71.0323C60.2051 71.0693 62.3042 71.6003 63.9834 70.9829C65.8602 70.2914 67.0579 71.7361 68.7247 71.5879C69.8977 71.4768 70.4164 73.5511 69.4657 74.3907C66.9592 76.6256 64.4897 78.9963 60.6374 78.3295C59.6372 78.1567 58.5753 78.3048 57.3653 78.3048C56.9949 81.9102 56.5627 85.1946 56.3651 88.5037C56.2416 90.615 55.7231 92.5412 55.0687 94.5538C53.797 98.4926 51.4634 100.653 47.3888 101.197C46.685 101.295 46.1416 102.259 45.4378 102.703C43.24 104.098 43.0054 103.962 40.8076 101.691C39.7581 100.604 40.0791 102.468 39.2518 102.456ZM45.5367 57.5491C47.4258 57.1786 49.4137 57.0552 51.1793 56.3514C52.4881 55.8328 53.6488 54.7833 53.7106 52.9559C53.7847 50.8815 54.2291 48.8319 54.439 46.7576C54.4884 46.2019 54.4513 45.3376 54.1056 45.0907C52.9326 44.2511 51.6609 43.4361 50.3151 42.9669C49.389 42.6459 48.4012 42.7818 47.7962 44.14C47.2776 45.3129 46.1293 46.239 45.1415 47.1527C42.7585 49.3752 41.9189 53.0917 43.1907 55.8945C43.6846 56.9687 44.2773 57.6602 45.5367 57.5491ZM50.352 81.1817C46.0428 82.2066 42.8449 83.9105 40.3137 86.7133C39.7457 87.343 39.0173 88.3184 39.1531 88.9852C39.6223 91.4176 40.3138 93.813 41.1781 96.1343C41.4003 96.7393 42.5856 97.3566 43.3018 97.3196C45.5366 97.2208 48.7099 94.381 49.0062 92.2819C49.5248 88.763 49.8705 85.2316 50.352 81.1817Z" fill="#1D3D6C"/>
<path d="M94.5924 248.216C88.5546 249.907 83.3317 248.413 78.7262 244.265C77.2445 242.919 75.5653 241.795 73.7502 240.388C72.0957 242.98 70.5646 245.623 68.7742 248.08C67.8605 249.339 66.7494 249.191 66.0703 246.993C65.8727 248.105 65.8108 248.759 65.638 249.389C65.5269 249.796 65.1071 250.512 65.0577 250.488C62.5512 249.5 60.3288 252.093 57.8717 251.056C57.3654 250.846 57.0073 250.302 56.5999 249.957C57.5506 248.092 60.2669 249.129 60.8596 247.006C65.675 246.401 66.6382 242.104 68.515 238.795C69.8115 236.523 69.12 234.387 67.5642 232.127C64.1193 227.127 61.3041 221.743 59.2051 215.989C58.0445 212.816 56.18 209.89 55.0441 206.704C53.3896 202.086 52.0313 197.345 52.5499 192.344C52.6734 191.208 53.1426 190.06 53.6365 189.011C54.1304 187.973 55.0811 188.072 55.9454 188.591C56.6369 189.011 57.1185 189.628 56.4764 190.406C54.5626 192.702 56.8715 194.431 57.3283 196.382C57.4518 196.913 58.5877 197.197 58.0938 198.148L59.1927 201.358C60.0571 203.37 60.8226 205.432 61.798 207.408C64.0946 212.075 66.4036 216.743 68.8608 221.336C69.9597 223.385 71.3795 225.25 72.9105 227.583C73.1081 226.435 73.3675 225.719 73.3305 225.003C72.8983 216.94 70.972 209.272 67.2308 202.099C64.0823 199.37 63.2304 194.604 58.9829 192.813C58.5261 192.616 58.205 191.925 57.9704 191.406C57.6247 190.653 58.3656 189.912 59.2793 190.06C59.9584 190.171 60.7733 190.146 61.2672 190.517C63.3538 192.097 65.4899 193.665 67.3173 195.53C68.9472 197.197 69.9225 199.543 71.6511 201.037C73.1698 202.346 72.5278 204.395 73.8119 205.482C75.4417 206.865 74.8862 208.816 75.4912 210.458C76.0962 212.112 76.7259 213.779 77.1581 215.483C77.405 216.471 77.2939 217.557 77.3433 218.595C77.3927 219.78 77.1704 221.064 77.5655 222.126C78.0964 223.546 77.8371 224.682 77.3555 226.003C76.7999 227.522 76.2073 229.164 76.2444 230.732C76.2938 233.14 77.973 234.794 79.9362 236.004C83.9244 238.461 87.9619 240.844 91.9501 243.289C93.0984 244.03 93.654 245.178 94.5924 248.216Z" fill="#1D3D6C"/>
<path d="M170.763 190.084C168.923 183.935 169.54 177.959 170.108 171.785C171.59 172.106 172.454 172.489 172.602 174.23C172.886 177.601 172.565 180.984 172.948 184.342C173.183 186.38 173.356 188.429 173.553 190.355C176.183 190.047 178.541 189.405 180.85 189.565C186.271 189.923 191.592 189.676 196.889 188.491C199.272 189.59 201.557 187.824 203.915 188.281C204.582 188.405 205.644 188.479 205.792 188.849C206.063 189.565 206.101 190.652 205.73 191.294C204.248 193.837 201.791 195.368 199.013 195.591C192.926 196.085 186.839 197.06 180.69 196.566C179.937 196.504 179.097 196.319 178.443 196.591C177.418 196.998 176.146 197.356 176.986 199.147C177.566 200.394 177.541 201.925 177.801 203.32C175.936 203.703 176.986 204.962 177.319 205.629C178.171 207.37 178.628 208.321 178.418 209C178.332 209.284 178.122 209.531 178.023 209.815C177.702 210.778 177.875 210.716 179.344 213.692C180.184 215.396 180.69 217.334 180.986 219.236C181.641 223.508 185.419 224.668 188.32 226.484C189.259 227.064 191.296 225.878 193.222 225.397C193.099 226.409 193.099 227.126 192.901 227.768C192.778 228.187 188.864 230.645 188.222 231.003C187.444 231.422 186.925 232.373 185.777 231.459C184.999 230.854 183.851 230.756 182.949 230.299C181.665 229.644 180.356 228.953 179.22 228.076C178.307 227.385 177.541 226.447 176.85 225.508C176.232 224.693 175.541 223.792 175.344 222.829C174.368 218.087 173.281 213.358 173.355 208.457C173.38 207 172.973 205.518 172.714 204.061C172.578 203.332 172.294 202.641 172.096 201.925C171.652 200.295 171.726 197.974 170.676 197.208C169.429 196.307 167.207 196.739 165.416 196.603C162.564 196.381 159.699 197.492 156.86 196.578C156.242 196.381 155.736 195.875 155.168 195.504C155.575 194.936 155.859 194.01 156.39 193.837C158.526 193.146 160.391 192.208 162.021 190.541C162.774 189.775 164.638 190.812 165.614 189.466C165.713 189.343 166.392 189.392 166.453 189.516C167.379 191.714 168.923 190.59 170.763 190.084Z" fill="#1D3D6C"/>
<path d="M13.6684 7.6908C11.1495 7.51794 9.11217 7.1599 7.1366 7.33276C5.85249 7.44388 5.64266 6.83886 5.21051 6.04863C4.5808 4.90034 5.38332 4.52991 6.08712 3.91254C7.7293 2.50495 10.0259 2.29506 11.5447 0.492364C12.1126 -0.186736 14.3228 -0.112661 15.4094 0.405924C17.0639 1.1838 19.2617 0.751655 20.4841 2.69018C20.731 3.07294 21.9657 3.82613 23.2004 2.50497C24.1758 1.4678 26.3366 2.13456 27.8183 3.43102C26.2996 5.56709 23.9659 6.60424 21.6694 7.49324C17.9528 8.93787 17.8912 8.80206 17.4096 12.8273C17.3355 13.4199 17.5207 14.0743 17.3478 14.63C16.8292 16.3339 19.5827 14.0743 18.8912 15.9511C18.5332 16.9142 18.138 17.9143 18.0886 18.9268C18.0269 19.9269 18.3727 20.9518 18.5333 21.9766C18.7061 23.0014 18.9406 24.0139 19.027 25.0511C19.1135 26.1006 18.9777 27.1748 19.0888 28.2243C19.1753 29.101 19.595 29.9406 19.6691 30.8172C19.7555 31.9902 19.9284 33.2867 19.5333 34.3239C19.0888 35.4598 17.6442 36.3859 19.7309 37.2996C19.7432 37.2996 19.5457 38.238 19.2864 38.3491C17.7183 39.0035 18.7678 39.0282 19.4346 39.4109C19.8297 39.6332 19.6939 39.806 18.6814 41.3371C18.4715 41.6458 18.2615 42.3249 18.4097 42.4607C20.5828 44.5597 20.2371 46.9798 19.5209 49.5233C19.3851 50.0172 19.3851 50.7951 19.6815 51.1285C21.1755 52.8818 19.8296 55.45 21.5088 57.1539C21.7928 57.4379 21.6694 58.3393 21.4472 58.8332C21.1756 59.4135 20.2742 59.8457 20.2372 60.3766C20.1878 61.2039 21.941 59.574 21.8422 61.2903C21.8052 61.9447 22.1509 62.8214 22.6325 63.2412C23.1264 63.6733 24.0895 63.5251 24.6698 63.8956C26.4602 65.0686 28.164 66.365 29.7074 67.4639C29.5099 68.9826 26.5836 67.3281 27.8677 69.7728C26.9911 69.884 26.0033 70.2915 25.2625 70.0322C23.645 69.4642 22.1633 68.9332 20.5335 69.9087C20.2248 70.0939 19.6939 69.921 19.2741 69.8716C17.0639 69.637 14.7303 68.8468 12.6559 69.2666C8.45788 70.1309 5.58086 67.4022 2.21006 66.1057C0.925942 65.6118 0.209903 64.0314 0 62.3398C1.81505 62.3398 3.82757 61.7471 5.01291 62.488C6.61805 63.4881 8.3714 63.4387 9.98889 64.0314C11.4829 64.5746 13.3226 64.1425 15.3352 64.1425C14.6191 61.673 14.1375 59.0307 15.3105 56.2526C15.792 55.1167 14.8166 53.4498 14.7426 52.0051C14.3104 44.1276 14.1375 36.2253 13.5078 28.3725C13.0263 22.31 13.8783 16.3092 13.6931 10.2837C13.6437 9.5429 13.6684 8.78971 13.6684 7.6908Z" fill="#1D3D6C"/>
<path d="M162.613 128.457C163.725 130.026 164.873 130.976 165.083 132.1C165.33 133.47 165.083 135.113 164.527 136.409C162.564 140.941 158.193 142.99 154.39 145.534C150.044 148.435 144.944 147.83 140.067 148.077C136.141 145.966 131.103 145.546 129.115 140.484C128.695 139.422 127.325 138.607 126.214 137.977C124.905 137.236 124.325 135.483 125.596 134.903C127.374 134.1 126.893 132.841 127.041 131.544C127.313 129.235 125.448 127.062 126.683 124.692C127.029 124.037 127.251 123.309 127.436 122.592C127.769 121.321 128.251 120.419 129.856 120.926C130.165 121.024 130.634 120.543 131.042 120.37C136.573 117.987 139.005 118.259 144.376 121.864C141.845 130.606 143.685 128.877 134.462 136.57C135.82 138.138 136.413 140.434 139.154 140.496C141.129 140.545 142.969 142.521 145.056 140.916C149.513 141.113 152.612 138.224 155.995 136.063C158.736 134.298 161.576 132.581 162.613 128.457ZM131.807 130.791C134.202 128.791 136.141 127.26 137.956 125.593C138.536 125.062 139.277 123.951 139.067 123.481C138.499 122.173 137.697 123.457 136.956 123.58C136.153 123.716 135.264 123.346 134.412 123.235C132.758 123.025 131.239 124.259 131.301 125.84C131.363 127.272 131.585 128.704 131.807 130.791Z" fill="#1D3D6C"/>
<path d="M102.606 127.163C103.791 126.657 104.853 126.398 105.68 125.818C106.903 124.966 107.964 125.139 108.952 126.015C109.693 126.67 110.323 127.188 111.273 126.386C111.385 126.287 112.064 126.546 112.138 126.768C112.854 128.892 113.792 130.633 116.237 131.399C117.052 131.658 117.447 133.275 118.027 134.275C119.818 137.35 121.62 140.412 123.719 144.005C123.473 144.363 123.04 145.647 122.164 146.141C120.978 146.808 119.571 146.302 118.373 145.524C116.706 144.437 115.237 143.227 114.434 141.313C113.582 139.264 112.681 137.226 111.656 135.251C110.903 133.819 110.063 132.374 108.989 131.176C107.656 129.67 106.137 129.917 105.211 131.67C104.803 132.436 104.408 133.337 104.408 134.164C104.396 138.264 104.285 142.363 106.236 146.228C106.927 147.586 106.89 149.401 106.865 150.994C106.853 151.599 106.199 152.735 104.952 151.846C101.655 149.463 98.9015 146.931 98.2594 142.462C96.8889 132.942 95.0985 123.484 93.5058 113.989C93.0119 111.013 92.518 108.038 92.1476 105.049C91.9377 103.321 91.6413 101.531 92.4563 99.3574C95.432 101.716 96.6295 104.605 96.4937 107.84C96.4443 109.001 97.3087 109.223 97.3581 109.667C97.4692 110.803 99.3954 111.865 97.6791 113.186C97.5186 113.31 97.9136 114.149 98.0495 114.656C98.4075 116.088 98.7779 117.508 99.1237 118.94C99.2595 119.508 99.1731 120.249 99.5065 120.632C100.321 121.533 101.025 122.36 101.21 123.682C101.371 124.817 102.062 125.867 102.606 127.163Z" fill="#1D3D6C"/>
<path d="M169.972 227.436C168.046 228.485 166.219 226.596 164.132 227.213C163.329 227.448 161.663 226.114 160.947 225.102C158.81 222.077 156.884 218.879 154.983 215.693C153.748 213.619 151.6 212.434 149.92 213.15C148.377 213.816 147.463 216.36 147.797 218.459C148.241 221.274 149.488 223.781 150.599 226.349C150.995 227.25 151.155 228.3 151.192 229.288C151.229 230.312 150.266 230.609 149.624 230.177C146.327 227.929 142.413 226.522 141.561 221.595C140.734 216.817 138.647 212.261 137.598 207.495C136.943 204.544 136.425 201.519 135.98 198.494C135.301 193.925 134.585 189.307 133.017 184.874C132.202 182.578 131.992 180.059 131.387 177.096C133.733 178.182 134.906 179.256 134.857 181.343C134.82 182.701 134.671 184.134 136.499 184.615C136.771 184.689 137.166 185.504 137.079 185.615C135.585 187.418 137.536 188.603 137.832 190.073C138.104 191.369 138.302 192.703 138.734 193.95C139.364 195.752 139.981 197.592 140.956 199.21C141.549 200.197 142.216 200.852 141.302 201.926C141.129 202.124 141.043 202.692 141.117 202.741C142.969 203.803 141.956 205.828 142.611 207.025C143.117 207.964 141.45 209.606 143.562 209.804C145.167 209.952 146.809 210.754 148.266 209.322C148.859 208.729 149.785 207.618 150.106 207.754C151.686 208.445 153.452 207.668 155.069 208.902C156.378 209.915 157.378 212.421 159.909 211.112C160.07 211.026 160.65 211.532 160.872 211.866C163.255 215.459 165.688 219.015 167.935 222.694C168.849 224.126 169.318 225.843 169.972 227.436Z" fill="#1D3D6C"/>
<path d="M87.1222 142.98C89.6164 143.128 89.6164 143.128 90.6659 140.041C90.814 140.301 90.9499 140.572 91.1227 140.807C92.9748 143.437 91.6784 146.425 91.9995 149.228C92.3205 151.895 89.8511 153.66 88.6163 155.796C88.1965 156.525 86.7765 157.093 85.8504 157.031C83.4921 156.883 81.0598 156.648 78.862 155.883C77.3186 155.34 76.0962 153.87 74.7257 152.821C75.6888 151.08 73.5896 150.018 73.8242 148.178C74.1699 145.437 72.5155 142.61 73.7749 139.745C73.9725 139.301 73.6513 138.621 73.5155 137.732C66.1936 140.251 59.131 143.252 51.0559 141.153C52.8586 140.128 54.4884 139.35 55.9577 138.35C58.279 136.769 58.2543 136.547 60.1435 136.856C61.9338 137.14 62.3536 133.855 64.4527 135.362C65.8849 134.3 67.416 133.621 69.2187 133.213C70.8238 132.843 72.2314 131.596 74.1699 130.472C74.5157 127.916 73.3056 124.62 75.0713 120.965C76.0837 124.323 76.9111 127.077 77.7754 129.917C78.5656 129.805 79.8745 129.324 81.0475 129.534C81.8747 129.682 82.3069 129.682 82.8872 129.163C83.6774 128.46 84.5417 127.546 85.2085 129.299C85.4431 129.139 85.6776 128.953 85.9369 128.842C86.3938 128.645 86.863 128.497 87.3322 128.336C87.3569 129.015 87.5051 129.731 87.3569 130.373C87.2828 130.682 86.579 130.781 86.295 131.102C85.7394 131.719 84.7886 131.707 84.838 133.238C84.8874 134.596 82.8995 135.695 80.9857 135.596C79.4423 135.522 78.0594 135.782 77.2815 137.473C76.6518 138.831 76.9481 139.881 77.3926 141.227C78.0717 143.276 78.2076 145.511 78.5533 147.66C78.6521 148.252 78.4421 149.055 78.7507 149.425C79.5286 150.339 79.4793 152.068 81.4425 151.919C84.2824 151.722 85.6282 151.055 86.0727 148.968C86.4678 147.092 86.7394 145.19 87.1222 142.98Z" fill="#1D3D6C"/>
<path d="M74.0342 60.3378C72.4908 58.8191 71.1079 57.6955 70.0337 56.3126C69.2929 55.3618 68.6755 54.1024 68.5397 52.9171C68.3916 51.6453 68.8113 50.2871 69.0829 48.9783C69.6139 46.373 70.7745 43.7554 70.6511 41.1995C70.4905 37.8534 72.429 35.2235 72.7871 32.1243C72.8735 31.4082 73.7255 30.7908 74.3676 29.9512C77.405 33.4084 76.8371 37.1867 75.9481 41.6194C78.2323 40.5698 79.6645 39.9401 81.0721 39.261C85.0602 37.3348 90.5178 39.9154 91.4315 44.1876C89.7152 46.4101 92.407 47.4102 92.7651 49.0401C93.1108 50.6082 93.617 52.3615 93.2343 53.8185C92.8268 55.3742 92.5551 56.5719 93.3577 58.0659C93.7158 58.745 93.333 59.8192 93.3206 60.7082C93.3083 61.2144 93.1847 61.8442 93.4193 62.2269C93.8021 62.832 94.6542 63.2394 93.8393 64.0543C92.9379 64.9557 91.8513 64.8816 90.9746 64.1778C88.6904 62.3627 87.4803 59.8439 87.2457 56.9917C86.9864 53.7444 86.9989 50.4847 86.9125 47.2373C86.8878 46.5089 87.2211 45.6198 86.9125 45.0766C86.2704 43.9653 85.4925 42.6565 84.4307 42.1503C82.9366 41.4465 81.8254 42.9158 81.208 44.0147C78.6275 48.5832 75.3801 52.9047 75.2813 58.5104C75.2689 59.0043 74.6392 59.4858 74.0342 60.3378Z" fill="#1D3D6C"/>
<path d="M105.878 34.8672C107.199 39.0406 110.187 42.6707 108.681 47.4614C108.471 48.1158 109.52 49.0666 109.668 49.9309C109.816 50.8569 109.323 51.7335 109.594 52.8448C110.236 55.5612 110.014 58.364 108.322 61.2039C107.804 60.2531 107.396 59.5247 107.001 58.7715C106.804 58.3887 106.631 57.6726 106.446 57.6726C102.038 57.6726 103.346 53.8696 102.84 51.7212C102.322 49.5234 103.025 47.0416 103.186 44.6709C103.309 42.8435 103.569 41.0038 103.507 39.1764C103.433 37.2872 104.285 36.0649 105.878 34.8672Z" fill="#1D3D6C"/>
<path d="M98.4571 220.791C99.3584 223.199 101.433 225.014 101.457 227.891C101.457 228.459 102.371 228.977 102.618 229.619C103.161 231.089 102.248 230.484 101.618 230.237C101.544 230.928 101.482 231.632 101.408 232.323C103.112 231.768 103.124 233.41 103.618 234.2C104.149 235.04 104.211 236.176 104.655 237.089C105.495 238.83 106.569 240.448 107.372 242.213C108.199 244.041 107.606 244.732 105.458 244.646C102.47 244.535 97.605 240.695 97.7779 237.707C97.9137 235.2 96.0493 233.225 96.9137 230.508C97.6298 228.236 96.926 225.52 96.9507 223.001C96.9507 222.31 97.2964 221.618 97.4816 220.914C97.815 220.865 98.136 220.828 98.4571 220.791Z" fill="#1D3D6C"/>
<path d="M99.7166 19.2597C100.062 18.7041 100.457 17.2965 101.297 16.9507C102.186 16.5803 103.668 16.889 104.569 17.4447C107.199 19.0498 107.903 23.5936 105.903 26.1495C105.31 26.9027 104.532 27.3595 104.26 28.4584C103.915 29.8413 102.532 29.4709 101.593 29.2363C100.284 28.9153 101.618 28.1374 101.494 27.557C100.927 25.0012 100.396 22.4453 99.7166 19.2597Z" fill="#1D3D6C"/>
<path d="M90.0979 207.433C90.814 207.396 91.8264 207.643 92.1845 207.26C94.2588 205.075 96.5185 206.198 98.7533 206.692C99.8028 206.927 100.507 208.223 100 208.964C97.5803 212.483 90.5177 213.211 87.3815 210.199C86.4555 209.31 86.7518 207.816 87.9989 207.359C88.641 207.124 89.357 207.087 90.0361 206.951C90.0608 207.124 90.0732 207.272 90.0979 207.433Z" fill="#1D3D6C"/>
</svg>
