<svg width="1920" height="1080" viewBox="0 0 1920 1080" fill="none" xmlns="http://www.w3.org/2000/svg">
<g clip-path="url(#clip0_4085_24481)">
<rect width="1920" height="1080" fill="white"/>
<path d="M-1118.58 888.844C-1125.61 917.688 -1092.83 1104.31 -1092.83 1104.31C-1086.76 1117.26 -1082.32 1117.76 -1070.52 1118.11C-1051.01 1118.69 -1038.59 1133.04 -1020.12 1137.87C-992.57 1145.07 -959.548 1154.27 -931.415 1155.1C-800.755 1158.98 -670.828 1168.74 -540.58 1149.9C-501.822 1144.29 -462.934 1139.27 -424.458 1130.34C-357.372 1114.77 -289.274 1121.57 -221.713 1123.57L211.534 1136.43C334.692 1140.08 456.247 1130.54 579.284 1134.19L916.469 1144.19C942.128 1144.95 970.431 1155.83 971.702 1112.97C972.285 1093.32 974.875 1074.45 968.109 1056.63C961.615 1039.52 930.672 1004.86 917.518 996.706C891.849 980.787 863.731 961.865 836.255 952.67C759.669 927.04 679.518 895.707 605.469 858.557C563.835 837.67 519.256 829.311 477.529 809.486C438.52 790.951 390.491 794.424 349.227 781.946C307.313 769.271 261.755 763.302 219.276 753.993C187.85 747.106 155.79 736.238 124.596 732.562C48.986 723.654 -23.3515 679.274 -98.6464 673.726C-137.42 670.869 -177.59 655.009 -213.943 637.444C-236.309 626.637 -264.337 615.842 -282.814 595.966C-311.61 564.99 -376.206 573.479 -410.681 572.456L-503.421 569.705L-911.199 557.61C-936.703 556.854 -958.119 576.787 -982.668 585.066C-1003.46 592.08 -1021.81 603.836 -1043.19 607.735C-1055.54 609.987 -1064.75 613.451 -1073.63 625.089C-1084.12 638.846 -1080.03 672.696 -1080.56 690.608C-1081.64 727.014 -1087.48 748.703 -1097.95 781.741C-1108.43 814.803 -1110.09 854.013 -1118.58 888.844Z" fill="#1D3D6C"/>
<path d="M2015.04 1040.91C2018.91 1006.63 1967.17 792.562 1967.17 792.562C1959.85 778.082 1955.45 777.928 1943.83 778.683C1924.63 779.931 1910.94 764.453 1892.31 760.648C1864.53 754.971 1831.16 747.516 1803.47 749.315C1674.88 757.671 1546.38 759.098 1420.58 793.868C1383.14 804.214 1345.52 813.892 1308.71 828.079C1244.52 852.816 1177 851.605 1110.51 855.926L684.106 883.634C562.894 891.511 444.64 914.591 323.548 922.459L-8.30898 944.024C-33.5628 945.665 -62.4725 935.78 -59.2209 985.821C-57.7307 1008.75 -58.2915 1030.98 -49.7825 1051.07C-41.6159 1070.35 -7.62083 1107.65 6.14012 1115.86C32.9948 1131.86 62.5666 1151.13 90.4879 1159.13C168.315 1181.43 250.238 1210.02 326.785 1245.98C369.824 1266.2 414.438 1271.54 457.456 1290.52C497.672 1308.26 544.429 1299.48 586.221 1309.95C628.672 1320.58 673.996 1323.04 716.648 1329.7C748.202 1334.62 780.797 1344.12 811.786 1345.32C886.901 1348.25 962.528 1392.8 1036.98 1391.84C1075.32 1391.35 1116.4 1405.86 1153.9 1422.73C1176.98 1433.11 1205.61 1442.92 1225.83 1464.25C1257.33 1497.48 1319.81 1481.23 1353.74 1479.03L1445.02 1473.1L1846.35 1447.02C1871.45 1445.39 1890.37 1420.07 1913.59 1408.01C1933.25 1397.79 1950.02 1382.3 1970.58 1375.65C1982.46 1371.81 1991.14 1366.87 1998.62 1352.45C2007.47 1335.4 1999.91 1296.38 1998.55 1275.48C1995.79 1232.98 1999.24 1207.15 2006.04 1167.65C2012.85 1128.12 2010.37 1082.3 2015.04 1040.91Z" fill="#25559A"/>
<path d="M1342.73 833.603C1341.72 830.718 1340.7 827.787 1340.33 824.58C1340.28 824.588 1340.23 824.596 1340.18 824.604C1339.95 824.639 1339.75 824.672 1339.54 824.694C1339.72 824.328 1339.58 823.969 1339.45 823.609C1339.28 823.176 1339.11 822.742 1339.5 822.295C1339.52 822.264 1339.55 822.233 1339.58 822.2C1339.74 822.018 1339.93 821.807 1339.92 821.623C1339.91 821.374 1339.91 821.119 1339.9 820.862C1339.89 820.06 1339.88 819.246 1339.58 818.569C1338.91 817.085 1338.79 815.596 1338.7 814.026C1338.65 813.184 1338.52 812.344 1338.39 811.505C1338.23 810.439 1338.06 809.374 1338.06 808.308C1338.04 806.055 1338.27 803.781 1338.62 801.55C1338.77 800.564 1338.75 799.676 1338.63 798.718C1338.45 797.192 1339.01 795.81 1339.57 794.437C1339.66 794.212 1339.75 793.988 1339.84 793.763C1339.86 793.709 1339.94 793.649 1340 793.638C1340.57 793.548 1341.09 793.311 1341.61 793.075C1342.38 792.727 1343.14 792.38 1344.03 792.496C1345.89 792.738 1347.68 792.361 1349.48 791.985C1350.61 791.745 1351.75 791.506 1352.91 791.424C1355.29 791.261 1357.61 790.156 1359.75 788.927C1360.46 788.521 1360.95 788.007 1360.98 787.167C1361 786.539 1361.02 785.906 1360.95 785.283C1360.68 782.954 1359.71 782.11 1357.29 782.018C1357.11 782.011 1356.92 782.018 1356.72 782.025C1356.27 782.042 1355.82 782.058 1355.44 781.899C1353.86 781.227 1352.22 781.14 1350.56 781.151C1347.27 781.173 1344.18 781.931 1341.43 783.826C1340.64 784.373 1339.82 784.888 1339.01 785.397C1338.87 785.483 1338.53 785.532 1338.53 785.516C1338.31 784.884 1337.99 785.027 1337.67 785.167C1337.5 785.237 1337.35 785.306 1337.2 785.278C1336.66 785.169 1336.13 785.039 1335.87 784.254C1335.18 782.137 1333.83 780.285 1332.28 778.812C1329.99 776.619 1327.49 774.615 1324.68 773.002C1322.33 771.653 1319.89 770.781 1317.32 770.148C1315.93 769.807 1314.59 770.018 1313.57 771.182C1313.45 771.319 1313.33 771.457 1313.21 771.594C1312.43 772.496 1311.64 773.399 1310.89 774.339C1310.23 775.168 1309.91 776.121 1310.02 777.225C1310.09 777.876 1310.07 778.535 1310.05 779.192C1310.05 779.305 1310.04 779.419 1310.04 779.532C1310.02 780.491 1310.31 781.265 1311.02 781.958C1311.55 782.483 1312.08 783.111 1312.34 783.799C1313.47 786.777 1314.69 787.963 1317.63 788.727C1318.02 788.83 1318.42 788.981 1318.79 789.155C1320.08 789.744 1321.43 790.166 1322.77 790.589C1323.77 790.901 1324.76 791.212 1325.73 791.591C1327.84 792.409 1330.15 792.702 1332.42 792.929C1334.25 793.108 1334.84 793.698 1334.99 795.409C1335 795.621 1334.95 795.838 1334.9 796.056C1334.87 796.178 1334.84 796.3 1334.82 796.422C1334.77 796.851 1334.69 797.279 1334.62 797.708C1334.46 798.655 1334.3 799.601 1334.31 800.548C1334.31 801.815 1334.3 803.081 1334.28 804.348C1334.24 807.89 1334.2 811.433 1334.57 814.979C1334.84 817.652 1334.91 820.347 1334.98 823.043C1335.01 824.253 1335.04 825.463 1335.09 826.67C1335.2 829.226 1335.37 831.777 1336.23 834.224C1336.33 834.495 1336.38 834.77 1336.34 835.057C1338.25 837.285 1340.49 839.191 1341.92 838.985C1343.4 838.773 1343.68 838.389 1343.73 836.035C1343.67 836.026 1343.61 836.016 1343.55 836.006C1343.28 835.205 1343.01 834.406 1342.73 833.603Z" fill="#477DCA"/>
<path d="M1449.37 917.603C1448.34 914.718 1447.3 911.787 1446.93 908.58C1446.87 908.588 1446.82 908.596 1446.77 908.604C1446.54 908.639 1446.33 908.672 1446.12 908.694C1446.3 908.328 1446.16 907.969 1446.02 907.609C1445.85 907.176 1445.68 906.742 1446.07 906.295C1446.1 906.264 1446.13 906.233 1446.16 906.2C1446.33 906.018 1446.52 905.807 1446.51 905.623C1446.5 905.374 1446.49 905.119 1446.49 904.862C1446.48 904.06 1446.47 903.246 1446.16 902.569C1445.48 901.085 1445.35 899.596 1445.26 898.026C1445.21 897.184 1445.08 896.344 1444.95 895.505C1444.78 894.439 1444.61 893.374 1444.61 892.308C1444.59 890.055 1444.82 887.781 1445.18 885.55C1445.34 884.564 1445.31 883.676 1445.19 882.718C1445.01 881.192 1445.58 879.81 1446.15 878.437C1446.24 878.212 1446.34 877.988 1446.43 877.763C1446.45 877.709 1446.53 877.649 1446.59 877.638C1447.16 877.548 1447.7 877.311 1448.23 877.075C1449.01 876.727 1449.79 876.38 1450.7 876.496C1452.6 876.738 1454.42 876.361 1456.25 875.985C1457.41 875.745 1458.57 875.506 1459.76 875.424C1462.18 875.261 1464.54 874.156 1466.72 872.927C1467.45 872.521 1467.95 872.007 1467.98 871.167C1468 870.539 1468.02 869.906 1467.95 869.283C1467.67 866.954 1466.69 866.11 1464.22 866.018C1464.03 866.011 1463.84 866.018 1463.64 866.025C1463.18 866.042 1462.72 866.058 1462.33 865.899C1460.72 865.227 1459.05 865.14 1457.36 865.151C1454 865.173 1450.85 865.931 1448.05 867.826C1447.24 868.373 1446.4 868.888 1445.57 869.397C1445.43 869.483 1445.09 869.532 1445.08 869.516C1444.87 868.884 1444.53 869.027 1444.21 869.167C1444.04 869.237 1443.88 869.306 1443.74 869.278C1443.18 869.169 1442.64 869.039 1442.38 868.254C1441.67 866.137 1440.3 864.285 1438.72 862.812C1436.38 860.619 1433.84 858.615 1430.96 857.002C1428.57 855.653 1426.08 854.781 1423.46 854.148C1422.05 853.807 1420.68 854.018 1419.64 855.182C1419.52 855.319 1419.4 855.457 1419.28 855.594C1418.47 856.496 1417.67 857.399 1416.91 858.339C1416.24 859.168 1415.9 860.121 1416.02 861.225C1416.09 861.876 1416.07 862.535 1416.05 863.192C1416.05 863.305 1416.04 863.419 1416.04 863.532C1416.02 864.491 1416.32 865.265 1417.04 865.958C1417.58 866.483 1418.13 867.111 1418.39 867.799C1419.53 870.777 1420.78 871.963 1423.78 872.727C1424.18 872.83 1424.58 872.981 1424.96 873.155C1426.28 873.744 1427.65 874.166 1429.02 874.589C1430.04 874.901 1431.05 875.212 1432.04 875.591C1434.19 876.409 1436.54 876.702 1438.86 876.929C1440.73 877.108 1441.33 877.698 1441.48 879.409C1441.49 879.621 1441.44 879.838 1441.39 880.056C1441.36 880.178 1441.33 880.3 1441.31 880.422C1441.25 880.851 1441.18 881.279 1441.11 881.708C1440.94 882.655 1440.78 883.601 1440.78 884.548C1440.79 885.815 1440.77 887.081 1440.76 888.348C1440.72 891.89 1440.68 895.433 1441.05 898.979C1441.32 901.652 1441.4 904.347 1441.47 907.043C1441.5 908.253 1441.54 909.463 1441.59 910.67C1441.7 913.226 1441.87 915.777 1442.75 918.224C1442.84 918.495 1442.9 918.77 1442.86 919.057C1444.8 921.285 1447.09 923.191 1448.55 922.985C1450.05 922.773 1450.34 922.389 1450.4 920.035C1450.33 920.026 1450.27 920.016 1450.21 920.006C1449.94 919.205 1449.65 918.406 1449.37 917.603Z" fill="#477DCA"/>
<path d="M1601.37 882.603C1600.34 879.718 1599.3 876.787 1598.93 873.58C1598.87 873.588 1598.82 873.596 1598.77 873.604C1598.54 873.639 1598.33 873.672 1598.12 873.694C1598.3 873.328 1598.16 872.969 1598.02 872.609C1597.85 872.176 1597.68 871.742 1598.07 871.295C1598.1 871.264 1598.13 871.233 1598.16 871.2C1598.33 871.018 1598.52 870.807 1598.51 870.623C1598.5 870.374 1598.49 870.119 1598.49 869.862C1598.48 869.06 1598.47 868.246 1598.16 867.569C1597.48 866.085 1597.35 864.596 1597.26 863.026C1597.21 862.184 1597.08 861.344 1596.95 860.505C1596.78 859.439 1596.61 858.374 1596.61 857.308C1596.59 855.055 1596.82 852.781 1597.18 850.55C1597.34 849.564 1597.31 848.676 1597.19 847.718C1597.01 846.192 1597.58 844.81 1598.15 843.437C1598.24 843.212 1598.34 842.988 1598.43 842.763C1598.45 842.709 1598.53 842.649 1598.59 842.638C1599.16 842.548 1599.7 842.311 1600.23 842.075C1601.01 841.727 1601.79 841.38 1602.7 841.496C1604.6 841.738 1606.42 841.361 1608.25 840.985C1609.41 840.745 1610.57 840.506 1611.76 840.424C1614.18 840.261 1616.54 839.156 1618.72 837.927C1619.45 837.521 1619.95 837.007 1619.98 836.167C1620 835.539 1620.02 834.906 1619.95 834.283C1619.67 831.954 1618.69 831.11 1616.22 831.018C1616.03 831.011 1615.84 831.018 1615.64 831.025C1615.18 831.042 1614.72 831.058 1614.33 830.899C1612.72 830.227 1611.05 830.14 1609.36 830.151C1606 830.173 1602.85 830.931 1600.05 832.826C1599.24 833.373 1598.4 833.888 1597.57 834.397C1597.43 834.483 1597.09 834.532 1597.08 834.516C1596.87 833.884 1596.53 834.027 1596.21 834.167C1596.04 834.237 1595.88 834.306 1595.74 834.278C1595.18 834.169 1594.64 834.039 1594.38 833.254C1593.67 831.137 1592.3 829.285 1590.72 827.812C1588.38 825.619 1585.84 823.615 1582.96 822.002C1580.57 820.653 1578.08 819.781 1575.46 819.148C1574.05 818.807 1572.68 819.018 1571.64 820.182C1571.52 820.319 1571.4 820.457 1571.28 820.594C1570.47 821.496 1569.67 822.399 1568.91 823.339C1568.24 824.168 1567.9 825.121 1568.02 826.225C1568.09 826.876 1568.07 827.535 1568.05 828.192C1568.05 828.305 1568.04 828.419 1568.04 828.532C1568.02 829.491 1568.32 830.265 1569.04 830.958C1569.58 831.483 1570.13 832.111 1570.39 832.799C1571.53 835.777 1572.78 836.963 1575.78 837.727C1576.18 837.83 1576.58 837.981 1576.96 838.155C1578.28 838.744 1579.65 839.166 1581.02 839.589C1582.04 839.901 1583.05 840.212 1584.04 840.591C1586.19 841.409 1588.54 841.702 1590.86 841.929C1592.73 842.108 1593.33 842.698 1593.48 844.409C1593.49 844.621 1593.44 844.838 1593.39 845.056C1593.36 845.178 1593.33 845.3 1593.31 845.422C1593.25 845.851 1593.18 846.279 1593.11 846.708C1592.94 847.655 1592.78 848.601 1592.78 849.548C1592.79 850.815 1592.77 852.081 1592.76 853.348C1592.72 856.89 1592.68 860.433 1593.05 863.979C1593.32 866.652 1593.4 869.347 1593.47 872.043C1593.5 873.253 1593.54 874.463 1593.59 875.67C1593.7 878.226 1593.87 880.777 1594.75 883.224C1594.84 883.495 1594.9 883.77 1594.86 884.057C1596.8 886.285 1599.09 888.191 1600.55 887.985C1602.05 887.773 1602.34 887.389 1602.4 885.035C1602.33 885.026 1602.27 885.016 1602.21 885.006C1601.94 884.205 1601.65 883.406 1601.37 882.603Z" fill="#477DCA"/>
<path d="M1263.37 848.603C1262.34 845.718 1261.3 842.787 1260.93 839.58C1260.87 839.588 1260.82 839.596 1260.77 839.604C1260.54 839.639 1260.33 839.672 1260.12 839.694C1260.3 839.328 1260.16 838.969 1260.02 838.609C1259.85 838.176 1259.68 837.742 1260.07 837.295C1260.1 837.264 1260.13 837.233 1260.16 837.2C1260.33 837.018 1260.52 836.807 1260.51 836.623C1260.5 836.374 1260.49 836.119 1260.49 835.862C1260.48 835.06 1260.47 834.246 1260.16 833.569C1259.48 832.085 1259.35 830.596 1259.26 829.026C1259.21 828.184 1259.08 827.344 1258.95 826.505C1258.78 825.439 1258.61 824.374 1258.61 823.308C1258.59 821.055 1258.82 818.781 1259.18 816.55C1259.34 815.564 1259.31 814.676 1259.19 813.718C1259.01 812.192 1259.58 810.81 1260.15 809.437C1260.24 809.212 1260.34 808.988 1260.43 808.763C1260.45 808.709 1260.53 808.649 1260.59 808.638C1261.16 808.548 1261.7 808.311 1262.23 808.075C1263.01 807.727 1263.79 807.38 1264.7 807.496C1266.6 807.738 1268.42 807.361 1270.25 806.985C1271.41 806.745 1272.57 806.506 1273.76 806.424C1276.18 806.261 1278.54 805.156 1280.72 803.927C1281.45 803.521 1281.95 803.007 1281.98 802.167C1282 801.539 1282.02 800.906 1281.95 800.283C1281.67 797.954 1280.69 797.11 1278.22 797.018C1278.03 797.011 1277.84 797.018 1277.64 797.025C1277.18 797.042 1276.72 797.058 1276.33 796.899C1274.72 796.227 1273.05 796.14 1271.36 796.151C1268 796.173 1264.85 796.931 1262.05 798.826C1261.24 799.373 1260.4 799.888 1259.57 800.397C1259.43 800.483 1259.09 800.532 1259.08 800.516C1258.87 799.884 1258.53 800.027 1258.21 800.167C1258.04 800.237 1257.88 800.306 1257.74 800.278C1257.18 800.169 1256.64 800.039 1256.38 799.254C1255.67 797.137 1254.3 795.285 1252.72 793.812C1250.38 791.619 1247.84 789.615 1244.96 788.002C1242.57 786.653 1240.08 785.781 1237.46 785.148C1236.05 784.807 1234.68 785.018 1233.64 786.182C1233.52 786.319 1233.4 786.457 1233.28 786.594C1232.47 787.496 1231.67 788.399 1230.91 789.339C1230.24 790.168 1229.9 791.121 1230.02 792.225C1230.09 792.876 1230.07 793.535 1230.05 794.192C1230.05 794.305 1230.04 794.419 1230.04 794.532C1230.02 795.491 1230.32 796.265 1231.04 796.958C1231.58 797.483 1232.13 798.111 1232.39 798.799C1233.53 801.777 1234.78 802.963 1237.78 803.727C1238.18 803.83 1238.58 803.981 1238.96 804.155C1240.28 804.744 1241.65 805.166 1243.02 805.589C1244.04 805.901 1245.05 806.212 1246.04 806.591C1248.19 807.409 1250.54 807.702 1252.86 807.929C1254.73 808.108 1255.33 808.698 1255.48 810.409C1255.49 810.621 1255.44 810.838 1255.39 811.056C1255.36 811.178 1255.33 811.3 1255.31 811.422C1255.25 811.851 1255.18 812.279 1255.11 812.708C1254.94 813.655 1254.78 814.601 1254.78 815.548C1254.79 816.815 1254.77 818.081 1254.76 819.348C1254.72 822.89 1254.68 826.433 1255.05 829.979C1255.32 832.652 1255.4 835.347 1255.47 838.043C1255.5 839.253 1255.54 840.463 1255.59 841.67C1255.7 844.226 1255.87 846.777 1256.75 849.224C1256.84 849.495 1256.9 849.77 1256.86 850.057C1258.8 852.285 1261.09 854.191 1262.55 853.985C1264.05 853.773 1264.34 853.389 1264.4 851.035C1264.33 851.026 1264.27 851.016 1264.21 851.006C1263.94 850.205 1263.65 849.406 1263.37 848.603Z" fill="#477DCA"/>
<path d="M322.606 195.265C323.353 195.126 324.052 194.993 323.609 195.794C322.945 196.99 322.17 198.152 321.284 199.203C318.337 202.716 315.327 206.174 312.331 209.646C311.231 210.926 310.117 212.199 308.975 213.438C308.38 214.085 308.138 214.606 308.699 215.483C309.619 216.895 309.342 218.621 309.432 220.179C309.633 223.568 309.591 226.97 309.501 230.365C309.474 231.541 309.017 232.717 308.74 233.886C308.609 234.442 308.249 235.013 308.325 235.528C308.526 236.759 307.702 237.378 307.066 238.137C306.478 238.832 306.069 238.978 305.613 237.928C305.384 237.406 304.374 237.497 304.187 236.606C304.146 236.418 302.714 236.189 302.527 236.439C301.966 237.19 301.565 236.947 300.942 236.641C299.476 235.91 298.002 235.249 296.611 234.331C295.117 233.343 293.387 232.724 291.747 231.979C290.149 231.249 288.53 230.546 286.917 229.843C286.336 229.586 285.748 229.308 285.139 229.141C281.68 228.194 282.558 228.034 280.58 230.463C278.788 232.661 277.044 234.908 275.107 236.982C273.342 238.867 271.066 240.036 268.575 240.704C267.62 240.961 266.818 241.205 266.7 242.388C266.679 242.631 266.25 242.993 265.994 243C265.738 243.007 265.344 242.687 265.24 242.429C264.596 240.69 263.476 239.111 263.732 237.065C263.815 236.376 263.185 235.625 263.005 234.874C262.258 231.722 261.933 228.494 262.14 225.279C262.327 222.406 262.915 219.553 263.323 216.694C263.469 215.671 263.835 214.551 262.306 214.231C261.075 212.276 259.836 210.321 258.625 208.352C257.062 205.812 255.616 203.203 253.948 200.74C252.419 198.486 251.872 196.072 252.025 193.414C252.059 192.76 252.267 192.475 252.931 192.649C253.678 192.844 254.093 192.711 254.204 191.786C254.301 190.972 254.896 190.645 255.782 190.381C257.788 189.789 259.649 188.704 261.656 188.099C264.064 187.368 266.555 186.909 269.025 186.373C271.765 185.775 274.512 185.19 277.265 184.689C277.992 184.557 278.372 184.279 278.649 183.604C279.466 181.642 280.303 179.687 281.251 177.795C281.777 176.744 282.42 175.7 283.23 174.872C283.921 174.163 284.406 173.516 284.357 172.507C284.323 171.686 284.406 170.928 285.554 170.983C285.644 170.99 285.928 170.35 285.831 170.141C285.464 169.334 285.866 168.799 286.295 168.193C287.111 167.045 287.831 165.828 288.682 164.708C288.952 164.353 289.478 164.074 289.927 164.005C290.232 163.956 290.64 164.283 290.937 164.52C291.712 165.125 292.384 165.911 293.235 166.37C293.899 166.732 294.632 167.386 295.566 166.781C296.092 166.447 296.5 166.684 296.687 167.296C297.026 168.423 297.531 169.529 297.69 170.677C297.933 172.389 298.265 174.024 299.102 175.561C299.732 176.73 300.237 177.975 300.797 179.186C300.852 179.311 300.956 179.464 300.929 179.583C300.41 181.586 302.167 182.846 302.561 184.585C303.053 186.777 304.575 187.298 306.99 186.999C308.007 186.874 309.086 187.062 310.11 187.257C313.009 187.806 315.895 188.439 318.787 189.024C319.548 189.177 320.309 189.344 321.084 189.379C322.523 189.448 323.595 190.395 324.855 190.888C324.959 190.93 324.952 191.229 325 191.41C324.412 191.508 324.315 191.883 324.46 192.391C323.083 192.767 323.243 194.158 322.606 195.265Z" fill="#EBC483"/>
<path d="M1528.98 143C1530.15 144.497 1531.28 145.769 1532.21 147.168C1533.89 149.657 1535.45 152.224 1537.06 154.755C1537.47 155.392 1537.71 156.077 1538.7 156.238C1539.36 156.35 1539.86 157.21 1540.52 157.601C1542.01 158.497 1543.6 159.224 1545.07 160.168C1546.4 161.028 1547.6 162.091 1549 163.168C1546.92 164.671 1545.11 166.196 1542.69 166.615C1542.46 166.657 1542.12 166.895 1542.1 167.084C1541.93 168.273 1540.92 168.385 1540.12 168.776C1539.55 169.056 1539.02 169.399 1538.43 169.601C1537.09 170.077 1536.8 171.203 1536.56 172.42C1536.08 174.783 1535.54 177.133 1535.05 179.497C1534.89 180.301 1534.62 181.049 1534.78 181.958C1535.02 183.315 1534.04 184.35 1532.32 185C1531.73 184.301 1531.28 183.455 1530.58 182.979C1528.6 181.615 1527.54 179.706 1526.89 177.462C1526.48 176.035 1525.76 174.643 1525.65 173.203C1525.54 171.818 1524.77 171.594 1523.84 171.392C1521.53 170.881 1519.2 170.434 1516.88 169.958C1516.68 169.916 1516.46 169.902 1516.26 169.825C1514.06 168.951 1513.05 167.72 1515.17 165.65C1516.69 164.168 1518.33 162.804 1519.9 161.371C1521.78 159.643 1524.05 158.224 1524.93 155.65C1525.75 153.245 1526.39 150.783 1527.04 148.322C1527.35 147.133 1527.41 145.874 1527.76 144.699C1527.91 144.112 1528.48 143.657 1528.98 143Z" fill="#F2DFBF"/>
<path d="M450.531 297.354C450.49 298.844 450.291 300.054 451.375 301.167C451.82 301.621 451.807 302.804 451.642 303.566C451.059 306.274 450.318 308.939 449.152 311.472C448.714 312.423 448.624 313.543 448.377 314.585C448.261 315.068 448.247 315.607 448.021 316.019C447.232 317.447 447.596 318.594 448.7 319.629C449.427 320.308 450.113 321.036 450.853 321.7C453.453 324.037 455.956 326.472 458 329.522C457.588 329.802 457.232 330.2 456.813 330.305C454.571 330.858 452.307 331.292 450.065 331.852C448.426 332.257 446.793 332.719 445.209 333.3C444.674 333.496 443.926 334.111 443.906 334.566C443.837 336.182 442.678 337.099 441.944 338.281C439.749 341.835 437.507 345.361 435.291 348.901C435.216 349.02 435.223 349.181 435.154 349.3C434.523 350.349 433.447 351.014 432.404 351C431.835 350.993 431.217 349.81 430.724 349.083C429.441 347.215 428.639 345.095 428.152 342.905C427.706 340.918 426.595 339.281 425.868 337.448C425.607 336.805 425.312 336.616 424.441 336.819C422.589 337.245 420.731 337.644 418.749 337.539C416.767 337.434 414.743 337.98 412.741 338.246C411.575 338.4 410.374 338.778 409.243 338.631C408.454 338.533 407.748 337.721 407 337.225C407.96 337.071 407.343 336.161 407.7 335.706C409.078 333.929 410.175 331.949 411.444 330.089C412.61 328.381 413.845 326.716 414.997 325.002C415.333 324.499 415.642 323.897 415.724 323.309C416.108 320.371 416.012 317.384 416.574 314.452C417.144 311.493 417.569 308.506 418.008 305.525C418.104 304.847 418.056 304.126 417.932 303.447C417.809 302.748 417.912 302.202 418.392 301.677C418.838 301.188 418.941 301.572 419.373 301.747C421.033 302.433 422.816 302.818 424.565 303.252C425.998 303.608 427.473 303.811 428.899 304.182C430.586 304.616 432.26 305.092 433.563 306.407C433.721 306.568 434.077 306.715 434.256 306.645C435.312 306.232 436.773 307.12 437.486 305.847C438.275 304.427 439.633 303.783 440.792 302.881C442.678 301.419 444.475 299.795 446.766 298.935C447.116 298.802 447.356 298.361 447.657 298.081C448.055 297.704 448.412 297.151 448.878 297.032C449.351 296.899 449.928 297.214 450.531 297.354Z" fill="#D8B06C"/>
</g>
<defs>
<clipPath id="clip0_4085_24481">
<rect width="1920" height="1080" fill="white"/>
</clipPath>
</defs>
</svg>
