<svg width="80" height="80" viewBox="0 0 80 80" fill="none" xmlns="http://www.w3.org/2000/svg">
<circle cx="40" cy="40" r="39.25" stroke="#1D3D6C" stroke-width="1.5"/>
<path fill-rule="evenodd" clip-rule="evenodd" d="M56.5878 23.7675C57.1736 24.3533 57.1736 25.303 56.5878 25.8888L26.1822 56.2944C25.5964 56.8802 24.6467 56.8802 24.0609 56.2944C23.4751 55.7086 23.4751 54.7588 24.0609 54.1731L54.4665 23.7675C55.0522 23.1817 56.002 23.1817 56.5878 23.7675Z" fill="#1D3D6C"/>
<path fill-rule="evenodd" clip-rule="evenodd" d="M56.588 55.5878C56.0022 56.1736 55.0525 56.1736 54.4667 55.5878L24.0611 25.1822C23.4753 24.5964 23.4753 23.6466 24.0611 23.0609C24.6469 22.4751 25.5966 22.4751 26.1824 23.0609L56.588 53.4665C57.1738 54.0522 57.1738 55.002 56.588 55.5878Z" fill="#1D3D6C"/>
</svg>
