<svg width="131" height="157" viewBox="0 0 131 157" fill="none" xmlns="http://www.w3.org/2000/svg">
<path d="M0 74.6873C0.938995 74.8811 1.84073 74.8364 2.24316 73.808C3.25668 71.2145 5.52961 69.7762 7.42996 67.9802C10.6792 64.9024 13.8762 61.7725 17.1701 58.7468C18.832 57.2191 20.7175 55.9298 22.4091 54.4244C24.4734 52.5837 26.7688 51.0262 28.9523 49.3643C32.1121 46.9497 35.1005 44.17 38.9012 42.6497C39.6986 42.3293 40.5258 41.83 40.7196 40.8686C41.1071 38.9012 42.1951 37.2468 43.0149 35.4657C43.4993 34.4149 43.7601 33.2672 44.1551 32.1717C44.3265 31.6873 44.4979 31.1657 44.8109 30.7707C46.5771 28.535 47.0392 25.7106 48.2614 23.2364C49.4612 20.8144 50.7728 18.452 52.0471 16.0672C53.3587 13.608 54.7076 11.1711 56.0043 8.71179C57.1669 6.50589 58.2177 4.24037 59.4399 2.07919C59.8497 1.35631 60.6322 0.842114 61.4893 0C61.6383 1.02097 62.6742 1.20726 62.3984 2.25804C62.2866 2.69772 63.9112 3.74107 64.5074 3.57711C65.0738 3.42061 65.2676 3.63673 65.5731 3.99444C67.7194 6.49843 69.3738 9.3229 70.8792 12.2219C72.4889 15.3295 73.8973 18.5563 75.2984 21.7683C76.1107 23.6314 76.5281 25.6808 77.4894 27.447C78.8308 29.9212 79.6207 32.5891 80.7162 35.1452C81.2603 36.4196 81.8267 37.1424 83.4438 37.1052C85.0088 37.0754 86.5887 37.7237 88.1686 38.0069C92.2077 38.7447 96.2469 39.4527 100.286 40.1607C102.88 40.6153 105.495 40.9581 108.066 41.5021C109.929 41.8971 111.74 42.5305 113.581 43.0596C115.422 43.5887 117.263 44.103 119.103 44.6395C120.176 44.9525 121.212 45.3177 121.972 46.4877C121.22 47.2776 120.527 48.2241 119.618 48.8799C119.044 49.2972 118.939 49.8114 119.163 50.1468C119.759 51.0336 119.342 51.4137 118.738 52.062C117.24 53.6568 115.891 55.3932 114.475 57.0626C114.147 57.4501 113.73 57.7631 113.387 58.1432C113.059 58.5009 112.605 58.8586 112.493 59.2908C111.979 61.2731 110.429 62.5997 109.512 64.4553C109.289 64.0529 109.147 63.8069 108.916 63.3747C108.789 64.3509 108.7 65.1707 108.581 65.9905C108.558 66.1246 108.431 66.2439 108.379 66.378C107.992 67.3766 106.881 67.8685 106.554 68.9341C106.524 69.0385 105.667 68.7925 105.518 68.9789C105.302 69.2471 105.398 69.7539 105.309 70.1489C105.287 70.2458 105.078 70.3277 104.944 70.3724C103.677 70.8047 103.327 72.0492 103.051 73.0404C102.589 74.665 102.246 76.4163 103.52 77.9888C103.774 78.3018 103.707 78.9724 103.617 79.4419C103.446 80.2915 103.215 81.1187 103.722 82.0652C103.908 81.7149 104.042 81.4764 104.333 80.9324C104.199 81.8192 104.05 82.3856 104.05 82.952C104.042 83.5109 104.184 84.0698 104.266 84.6213C104.325 85.0163 104.459 85.4113 104.437 85.7988C104.4 86.4173 103.953 87.1253 104.989 87.3712C105.063 87.3861 105.152 87.6097 105.138 87.7289C104.847 90.5832 106.308 93.2437 106.106 96.0905C106.069 96.5972 106.248 97.1114 106.255 97.6257C106.263 98.1771 107.172 99.049 105.764 99.1385C105.778 99.3471 105.719 99.675 105.831 99.7496C106.725 100.383 106.539 101.307 106.539 102.172C106.539 103.573 106.568 104.981 106.442 106.367C106.382 107.023 107.403 107.649 106.352 108.409C106.009 108.655 106.3 109.78 106.293 110.503C106.293 110.645 106.196 110.786 106.181 110.928C106.091 111.807 107.045 112.515 106.293 113.618C105.868 114.237 106.427 115.452 106.33 116.383C106.233 117.352 106.606 118.351 106.106 119.282C106.077 119.342 106.032 119.446 106.054 119.468C107.157 120.601 106.375 121.905 106.337 123.12C106.3 124.149 106.703 124.946 107.261 125.669C107.783 126.347 107.56 126.936 107.202 127.472C106.621 128.352 104.094 129 103.163 128.478C101.083 127.316 98.7658 127.033 96.4929 126.548C90.2553 125.229 84.0177 123.91 78.1676 121.264C75.5593 120.087 72.8913 119.17 70.1041 118.47C67.7864 117.889 65.521 116.994 63.5237 115.623C62.9946 115.258 62.704 115.481 62.4208 115.817C61.3477 117.084 60.3267 118.403 59.2312 119.655C58.0686 120.981 57.1967 122.487 56.2279 123.94C55.5199 125.006 54.5958 125.959 53.6568 126.839C50.7579 129.551 47.8439 132.294 44.1774 133.971C43.2011 134.418 42.1206 134.708 41.1667 135.2C40.1383 135.729 39.2217 136.378 38.0144 136.549C37.3586 136.646 36.7698 137.265 36.1885 137.704C35.1079 138.517 33.9603 139.09 32.5741 138.77C32.2239 138.688 31.7693 138.435 31.6351 138.137C31.2774 137.354 31.0166 136.512 30.8154 135.67C30.6962 135.178 30.7931 134.634 30.0031 134.641C29.869 134.641 29.6752 134.097 29.6007 133.784C28.9449 130.93 28.4903 128.039 28.1475 125.14C27.9165 123.165 27.8047 121.183 27.6855 119.2C27.5066 116.271 27.3798 113.335 27.2233 110.406C26.9923 105.928 26.7092 101.456 26.5378 96.9773C26.4036 93.5269 26.3887 90.0764 26.3216 86.626C26.2918 84.9716 26.2919 84.9641 24.779 84.5244C23.9369 84.2785 23.065 84.1146 22.2303 83.8388C21.7682 83.6823 21.1125 83.4737 20.956 83.1085C20.2405 81.4243 18.9289 81.7298 17.4459 81.9087C17.7067 82.1099 17.8409 82.2291 17.99 82.3334C18.0496 82.3707 18.124 82.3782 18.1986 82.4005C18.0495 82.4378 17.8707 82.5496 17.744 82.5049C16.4249 82.095 15.1059 81.6627 13.7943 81.2305C13.7272 81.2082 13.675 81.1411 13.6228 81.0889C12.5646 80.0009 11.9014 79.6133 10.4333 80.0977C9.65823 80.3511 9.2334 80.1946 8.98747 79.7251C8.50307 78.7861 7.71313 78.801 6.84866 78.5551C4.82162 77.9738 2.88405 77.1019 0.924083 76.312C0.81975 76.2673 0.968808 75.768 0.842118 75.604C0.663262 75.3804 0.32787 75.2835 0.059586 75.1345C-3.27482e-05 74.9855 0 74.8364 0 74.6873ZM47.0689 38.2976C46.0927 39.6837 46.0927 39.6837 47.9558 40.4215C47.8887 39.5272 47.5235 38.8565 47.0168 38.2454C47.9781 37.612 47.9781 37.6119 47.6428 36.1662C47.4341 36.9412 47.2552 37.6194 47.0689 38.2976ZM34.5714 48.8799C33.6846 48.6339 33.2225 50.1393 32.2314 49.4388C31.6724 50.0424 30.7111 50.3852 30.9347 51.4882C30.1373 51.8832 29.3175 52.6582 28.5499 52.5986C26.9476 52.4794 27.4618 53.9028 26.8582 54.4617C26.4855 54.8045 26.1726 55.2293 25.7702 55.5274C24.928 56.1385 24.1977 56.8315 23.7803 57.8451C26.1204 56.0639 28.6318 54.5288 30.6738 52.4123C30.8675 52.2111 30.9794 51.9204 31.1284 51.6745C32.2016 51.2274 33.6548 50.117 34.6608 48.9917C36.2184 48.3657 37.4257 47.2702 38.864 45.9139C38.2529 45.9586 37.9101 45.8766 37.7312 46.0107C36.6133 46.8827 35.257 47.5161 34.5714 48.8799ZM78.8606 47.4565C79.9114 44.9674 80.0605 44.9078 79.4718 43.2832C78.9874 41.9567 78.8457 40.2277 76.9379 39.8402C76.7218 39.7955 76.4088 38.9906 76.5355 38.782C77.005 38.0069 76.6249 37.3511 76.3865 36.7028C75.2463 33.5579 74.106 30.4205 72.8764 27.3054C72.2802 25.7926 71.9299 24.1381 70.663 22.9159C70.6258 23.6463 70.7078 24.3468 70.8717 25.025C71.1922 26.3664 71.5052 27.7153 71.9225 29.0269C72.5932 31.1731 73.3012 33.3119 74.0763 35.4209C74.7246 37.1872 75.6337 38.864 76.1479 40.6674C76.5504 42.0685 77.5937 43.2161 77.467 44.8706C77.4 45.6456 78.3017 46.4951 78.8606 47.4565ZM60.7589 113.745C59.1566 115.705 57.6438 117.561 56.1161 119.401C54.6181 121.205 53.0905 122.986 51.6149 124.804C50.1468 126.615 48.1272 127.957 46.9869 130.081C47.5235 129.924 47.9483 129.671 48.3284 129.35C50.7653 127.249 53.0904 125.065 55.2889 122.688C57.2861 120.527 58.8958 118.112 60.7515 115.869C61.2731 115.236 61.6457 114.684 60.7589 113.745ZM29.5411 86.5738C29.8243 88.9139 29.1983 90.8366 30.0851 92.6326C30.2267 92.9232 30.0553 93.3629 30.0702 93.7281C30.1074 94.5255 30.167 95.3154 30.2192 96.1128C30.3012 96.1128 30.3757 96.1128 30.4577 96.1128C30.7483 92.1556 31.0389 88.1985 31.3445 84.1295C30.5993 83.8463 29.787 83.9059 28.9225 84.3903C30.0925 85.1728 30.2043 85.2995 29.4218 86C28.6542 86.6931 28.9747 87.334 29.0343 88.3177C29.2131 87.6991 29.3101 87.3712 29.5411 86.5738ZM48.9469 120.773C50.4597 119.073 52.0024 117.397 53.4556 115.645C53.8059 115.221 54.3424 114.602 53.6419 113.924C53.3736 113.671 53.2394 113.283 52.9339 112.784C51.2348 115.392 49.5953 117.799 48.9469 120.773ZM36.3823 131.437C35.7861 130.565 35.1676 129.79 34.713 128.933C34.4745 128.478 34.2509 128.136 33.7814 128.344C33.5355 128.449 33.3194 128.873 33.297 129.171C33.1554 130.714 33.6995 132.085 34.3776 133.561C34.8248 133.032 35.1303 132.629 35.4806 132.264C35.8085 131.906 36.196 131.593 36.3823 131.437ZM79.4195 48.2762C79.4195 48.701 79.3078 49.1705 79.4345 49.5506C80.3884 52.308 81.3869 55.043 82.393 57.7854C82.4526 57.9419 82.6911 58.0388 83.1159 58.3816C82.5271 54.5884 80.91 51.4807 79.4195 48.2762ZM102.127 65.3421C104.653 63.0617 104.623 62.1078 102.127 60.6844C102.127 62.1749 102.127 63.6132 102.127 65.3421ZM41.748 50.4672C41.83 50.5417 41.9119 50.6088 41.9939 50.6834C42.4709 50.3406 43.1639 50.0946 43.395 49.6251C43.857 48.6861 44.3489 47.6502 43.6931 46.4653C43.4695 46.7783 43.2011 47.0466 43.0595 47.3596C42.5975 48.388 42.1877 49.4314 41.748 50.4672ZM48.2464 34.5341C48.3657 34.6534 48.4849 34.7652 48.6041 34.8844C49.014 34.549 49.5953 34.3031 49.8039 33.8709C50.1691 33.1108 50.3256 32.2463 50.5343 31.4265C50.5492 31.3669 50.3406 31.2104 50.2213 31.1806C50.1095 31.1582 49.8934 31.2104 49.8562 31.2924C49.3047 32.3581 48.783 33.4461 48.2464 34.5341ZM102.537 70.8419C103.334 70.3501 104.318 70.2085 104.109 69.0012C103.737 69.6943 102.365 69.5005 102.537 70.8419ZM23.8549 83.5631C23.4972 82.9744 22.9681 82.4005 22.0664 82.9371C22.7147 83.1606 23.2811 83.3619 23.8549 83.5631ZM31.4339 104.43C31.3072 104.445 31.1731 104.467 31.0464 104.482C31.0762 104.951 31.106 105.413 31.1358 105.883C31.2625 105.875 31.3817 105.868 31.5084 105.86C31.4861 105.384 31.4563 104.907 31.4339 104.43ZM71.8256 105.615C71.6542 105.749 71.4753 105.861 71.4902 105.883C71.6467 106.218 71.8331 106.546 72.0269 106.867C72.0343 106.874 72.3174 106.732 72.31 106.718C72.1684 106.36 72.0045 106.002 71.8256 105.615ZM51.0932 29.3995C50.959 29.3473 50.8249 29.2951 50.6982 29.243C50.5491 29.6752 50.3927 30.1074 50.2436 30.5397C50.3405 30.5769 50.4448 30.6142 50.5417 30.6515C50.728 30.2341 50.9143 29.8168 51.0932 29.3995ZM30.8899 106.956C30.726 106.822 30.5397 106.665 30.3534 106.516C30.3012 106.636 30.167 106.807 30.2117 106.859C30.3533 107.053 30.5471 107.202 30.7185 107.366C30.7558 107.262 30.8005 107.157 30.8899 106.956Z" fill="#FF9737"/>
<path d="M67.242 156.141C67.0184 155.821 66.8693 155.515 66.6383 155.284C66.3327 154.986 66.0645 154.778 65.5279 155.143C64.3206 155.963 62.9941 155.761 61.7049 155.225C61.5707 155.173 61.3248 155.083 61.3322 155.046C61.5633 153.585 59.9909 152.944 59.8195 151.625C59.3947 148.331 58.4557 145.142 57.4571 141.989C56.5553 139.157 55.2214 136.467 54.1333 133.695C53.7384 132.689 53.4626 131.631 53.2018 130.58C53.1422 130.356 53.2838 129.961 53.4701 129.835C53.6117 129.738 54.0811 129.842 54.1929 130.006C55.6312 132.145 57.9042 133.561 58.8283 136.214C60.0579 139.754 61.8092 143.107 62.6364 146.796C62.8078 147.571 62.7706 148.398 62.9718 149.166C63.0612 149.516 63.4115 150.366 63.866 149.278C63.9033 149.181 64.2312 149.203 64.425 149.166C64.4399 149.293 64.507 149.449 64.4548 149.539C64.0449 150.232 64.4995 150.15 64.9541 150.142C65.595 150.127 66.2955 150.343 66.8544 150.142C68.3449 149.598 69.582 150.157 70.8265 150.791C71.7655 151.26 72.1382 152.214 71.5122 152.944C70.7446 153.846 69.7311 154.539 68.8219 155.314C68.7697 155.359 68.6877 155.374 68.6206 155.396C68.181 155.501 67.4134 155.866 67.242 156.141Z" fill="#1D3D6C"/>
<path d="M97.6852 147.982C96.925 149.48 96.3213 150.784 95.6059 152.029C95.3749 152.423 94.898 152.729 94.4658 152.945C94.0857 153.131 93.564 153.035 93.1988 153.243C91.9766 153.929 91.2985 153.295 90.8141 152.342C90.1509 152.289 90.7098 153.571 89.6813 153.131C89.0404 152.856 88.2058 153.079 87.5202 152.878C85.5751 152.289 84.6287 150.568 84.2263 148.377C84.107 147.736 84.1592 147.05 84.189 146.387C84.3455 142.825 83.5928 139.352 83.0562 135.872C82.6538 133.256 82.1471 130.663 81.7148 128.054C81.6627 127.741 81.8043 127.391 81.8937 126.854C83.9431 128.785 84.9715 131.035 85.6645 133.472C85.821 134.024 85.8955 134.627 85.8434 135.194C85.7987 135.693 85.5528 136.148 86.1862 136.453C86.2459 136.483 86.1862 136.833 86.1266 137.019C85.7465 138.271 85.7465 138.271 86.2458 139.501C86.3204 139.374 86.4024 139.255 86.462 139.129C86.5216 138.994 86.5514 138.853 86.611 138.681C86.6706 138.778 86.76 138.853 86.76 138.935C86.7749 139.3 86.76 139.673 86.7749 140.038C86.8196 140.977 86.6408 141.849 87.2072 142.817C87.6469 143.57 87.3786 144.74 87.3935 145.724C87.401 146.38 87.2742 147.05 87.3562 147.699C87.4084 148.101 87.7363 148.474 87.9375 148.854C88.176 147.855 89.2267 149.003 89.4876 148.302C89.7261 147.661 90.2403 147.676 90.7172 147.602C92.2002 147.378 93.6833 147.08 95.1737 147.058C95.8891 147.043 96.6269 147.572 97.6852 147.982Z" fill="#1D3D6C"/>
<path d="M68.0918 64.9175C68.688 66.1546 68.7923 67.4066 68.8371 68.8076C68.8892 70.5738 68.4346 72.1761 68.211 73.8528C68.0694 74.9409 67.8831 76.0289 67.749 77.1244C67.6968 77.5343 67.6223 77.974 67.7192 78.3615C68.0248 79.6508 68.0546 79.6433 66.9889 80.396C66.7504 80.5674 66.5193 80.7537 66.1691 81.0146C64.9841 79.7402 63.9334 78.6298 64.3806 76.5208C65.0066 73.5547 65.2525 70.5067 65.5729 67.4885C65.7294 65.9087 66.9218 65.4913 68.0918 64.9175Z" fill="#1D3D6C"/>
<path d="M54.6924 81.1709C56.548 81.8491 58.4111 82.5347 59.9761 83.8016C61.1014 84.7182 62.3757 84.8151 63.7022 84.6139C64.1866 84.5394 64.7232 84.1742 64.9468 84.8226C65.0959 85.2473 65.1107 85.9181 64.8647 86.2311C63.8736 87.498 62.7036 88.5264 60.9448 88.6531C57.4422 88.9139 55.5121 87.4011 54.8787 84.1071C54.6775 83.1532 54.0664 82.2291 54.6924 81.1709Z" fill="#1D3D6C"/>
<path d="M59.3803 70.4328C58.9257 71.3867 59.2611 72.8921 57.5694 73.1976C57.398 73.2274 57.2564 73.4361 57.0999 73.5628C55.6244 74.7105 54.7822 74.6657 53.6047 73.3094C53.0905 72.7207 52.2708 72.2288 53.247 71.2302C53.6047 70.8576 53.2843 69.9037 53.4706 69.2703C53.9103 67.75 55.371 67.124 56.4292 66.1626C56.5857 66.021 57.085 66.0285 57.2489 66.1701C58.0836 66.8855 59.3728 67.2879 59.0971 68.8305C59.0151 69.2851 59.2611 69.8068 59.3803 70.4328Z" fill="#1D3D6C"/>
<path d="M75.4995 67.8473C75.507 66.3046 76.99 64.1434 78.4358 63.6069C78.5848 63.5547 78.8084 63.6367 78.9798 63.7038C80.3287 64.2329 81.1708 65.1346 81.1261 66.6772C81.1186 66.8635 81.2453 67.2138 81.2379 67.2138C80.202 67.4747 81.3943 68.3168 80.7981 68.8086C80.3361 69.1962 80.2019 69.9488 79.8815 70.5152C79.7399 70.7611 79.494 70.9698 79.263 71.1412C79.032 71.3126 78.7562 71.4691 78.4804 71.5287C78.16 71.5958 77.6458 71.7001 77.5042 71.5362C76.5727 70.463 75.4995 69.4346 75.4995 67.8473Z" fill="#1D3D6C"/>
<path d="M4.23121 55.7428C5.44326 56.1067 6.4808 56.4256 7.51438 56.7301C7.62356 56.7621 7.83727 56.7808 7.84575 56.7553C7.97748 56.333 8.08169 55.81 8.6911 56.1456C9.43781 56.5594 10.2205 56.9635 10.8137 57.5507C11.2572 57.9857 10.2471 58.5864 10.7261 59.3207C10.8962 59.5755 10.3817 60.3497 10.9526 60.8271C11.0429 60.9029 11.0601 61.1068 11.0432 61.2428C10.9769 61.8481 10.5932 62.7333 10.8522 63.0024C12.0086 64.2082 13.2461 65.3995 14.6455 66.307C16.6648 67.6168 18.7664 68.8885 20.9952 69.7778C22.9905 70.5765 24.3296 72.1109 25.9684 73.3006C26.1502 73.4286 26.3113 73.9331 26.2368 73.9998C25.8952 74.3328 25.4856 74.6148 25.0452 74.8125C24.9217 74.8694 24.4673 74.5919 24.4515 74.4494C24.4079 73.8664 24.3221 73.5809 23.725 74.0532C23.597 74.15 23.3375 74.1901 23.1826 74.132C21.4716 73.526 19.7588 72.9128 18.0596 72.265C13.6622 70.5935 9.99869 67.8483 6.7309 64.5158C5.76744 63.5354 5.07183 62.3195 4.12539 61.3731C3.21231 60.4639 4.10177 59.394 3.48679 58.5578C3.44949 58.5062 3.56627 58.227 3.65253 58.2034C4.65497 57.9138 4.4069 57.4022 3.9986 56.7567C3.89913 56.5908 4.12043 56.2135 4.23121 55.7428Z" fill="#1D3D6C"/>
<path d="M121.824 73.5375C120.815 72.3061 121.376 70.9639 121.661 69.6319C121.816 68.9082 121.914 68.2812 123.028 68.367C123.58 68.4067 124.181 67.6526 124.793 67.3026C125.137 67.1042 125.815 66.8064 125.87 66.8899C126.447 67.7071 127.567 66.3288 128.093 67.5422C128.381 68.1985 129.133 68.6573 129.799 69.3365C129.656 69.7136 129.434 70.2501 129.259 70.7962C129.087 71.3118 128.646 71.8367 129.208 72.3932C129.241 72.4193 129.066 72.6575 128.992 72.7939C128.08 72.249 128.183 73.1223 127.887 73.5327C126.694 75.1823 124.959 76.2506 123.225 77.1313C120.902 78.3068 118.437 79.289 115.936 80.0279C113.071 80.8698 110.306 82.1728 107.238 82.2433C106.871 82.2493 106.486 82.3623 106.139 82.2833C105.893 82.23 105.593 81.9802 105.513 81.7495C105.457 81.5911 105.697 81.2701 105.879 81.0984C107.382 79.6598 109.34 79.0227 111.136 78.0897C111.398 77.9536 111.652 77.7584 111.926 77.726C114.672 77.4083 117.032 76.0409 119.492 74.9541C120.284 74.6053 120.985 74.057 121.824 73.5375Z" fill="#1D3D6C"/>
</svg>
