<svg width="331" height="330" viewBox="0 0 331 330" fill="none" xmlns="http://www.w3.org/2000/svg">
<path d="M271.73 90.915C271.73 91.5303 271.73 92.1304 271.73 92.7458C270.837 93.8997 269.96 95.0689 269.022 96.1919C268.683 96.6073 268.006 97.2689 267.776 97.1612C264.745 95.8381 263.591 98.2843 263.253 100.084C262.837 102.346 261.468 103.746 260.36 105.438C258.607 108.115 255.93 109.899 254.36 113.022C252.822 116.115 249.914 118.607 248.684 122.115C248.391 122.93 247.576 123.546 247.068 124.299C245.884 126.038 244.637 127.745 243.607 129.576C241.607 133.115 239.607 136.668 237.884 140.345C236.622 143.038 235.145 145.884 234.961 148.73C234.622 153.791 234.976 158.915 235.453 163.976C236.161 171.591 236.007 179.237 236.576 186.868C236.991 192.345 238.422 197.653 238.468 203.16C238.499 207.191 239.684 211.222 239.576 215.222C239.453 219.545 239.761 223.837 239.761 228.145C239.761 229.96 239.807 231.791 239.93 233.591C240.268 238.36 241.053 243.145 240.914 247.898C240.761 253.744 240.622 259.529 241.453 265.329C241.607 266.375 241.622 267.483 241.437 268.514C240.976 271.267 238.991 272.175 236.576 270.867C234.991 270.006 233.191 269.452 231.776 268.375C229.915 266.96 228.13 267.283 226.268 267.991C223.453 269.068 220.607 269.144 217.838 268.098C213.315 266.406 208.822 264.591 204.361 262.729C200.869 261.283 196.976 260.283 194.069 258.037C190.684 255.406 186.961 253.406 183.546 250.898C182.822 250.36 182.115 249.791 181.407 249.221C178.792 247.16 176.223 245.037 173.546 243.068C167.315 238.468 161.038 233.96 154.792 229.391C151.484 226.975 149.961 227.037 146.438 229.822C145.977 230.175 145.438 230.452 144.915 230.699C138.515 233.699 132.069 236.529 126.223 240.683C120.469 244.76 114.254 248.191 108.192 251.821C103.285 254.76 98.7155 258.268 93.2079 260.129C89.6541 261.329 86.1926 262.806 82.6388 263.99C76.9157 265.914 71.162 267.791 65.3774 269.544C62.4851 270.421 58.6851 267.667 59.362 264.883C59.8082 263.021 59.2543 261.606 58.9466 260.083C58.2389 256.637 57.8544 253.221 58.4698 249.729C58.5621 249.16 58.5005 248.56 58.439 247.975C57.5621 240.098 58.5159 232.252 59.239 224.468C59.8698 217.56 61.0082 210.714 60.7313 203.73C60.6082 200.714 60.639 197.73 60.2082 194.699C59.7621 191.514 60.7313 188.145 60.7621 184.853C60.839 178.176 61.1158 171.499 62.5927 164.961C63.6235 160.376 62.4851 156.422 59.9158 152.653C58.0389 149.899 56.239 147.084 54.5929 144.176C52.7467 140.899 50.9468 137.561 49.4391 134.115C47.0084 128.592 44.2238 123.115 42.7007 117.315C40.9161 110.53 38.6084 103.884 37.1007 97.0382C36.593 94.6997 35.8699 92.4074 35.2853 90.0843C34.8545 88.3459 34.8545 86.3921 33.993 84.9152C33.0238 83.2536 34.593 80.9766 32.47 79.7766C31.0392 75.392 29.5623 71.0383 28.27 66.623C28.1162 66.0845 28.87 65.2691 29.1931 64.5921C28.4854 64.2075 27.8393 63.7922 27.147 63.5153C25.9778 63.0384 24.8546 62.5768 25.1623 60.9614C25.47 59.4537 26.7316 58.3461 28.4392 58.3461C29.3162 58.3461 30.2699 58.5615 31.0699 58.9461C33.6545 60.2231 36.4084 57.8383 38.9776 59.3768C39.0853 59.4383 39.6083 58.8384 39.9006 58.5307C40.6083 57.7615 41.3007 56.977 42.1161 56.0847C42.6084 56.6693 43.039 57.0846 43.3621 57.5769C44.5621 59.3769 44.5469 59.3615 46.2238 57.9153C46.4546 57.7153 47.1007 57.6076 47.1776 57.7153C48.2853 59.2999 49.916 58.6846 51.3776 58.7615C52.4391 58.8231 53.5005 58.8077 54.5621 58.9153C60.1159 59.5153 65.6698 60.1614 71.2236 60.7306C73.3313 60.946 75.5159 60.7152 77.562 61.1306C82.8543 62.2229 88.3156 62.5923 93.3463 64.6999C95.1309 65.4538 96.131 64.9923 97.2848 63.7615C100.777 59.9923 104.285 56.223 107.9 52.5461C109.577 50.8231 111.562 49.3923 113.269 47.7C117.946 43.1154 122.546 38.4693 127.177 33.8694C131.162 29.9155 135.008 25.7771 139.223 22.0848C144.669 17.2848 150.423 12.8233 156.053 8.23874C157.669 6.91568 159.177 5.66965 158.623 3.16198C158.469 2.45429 159.254 1.53121 159.623 0.654297C162.007 1.86967 162.423 5.20813 165.392 5.48505C166.777 8.77733 169.454 11.3311 170.223 15.0542C170.915 18.4234 171.915 21.931 173.623 24.8695C178.038 32.4386 181.469 40.4848 185.515 48.2078C189.392 55.5924 192.023 63.4384 194.084 71.4691C194.576 73.4076 195.222 74.1767 197.284 74.4228C203.222 75.1305 209.13 76.0997 215.022 77.0997C221.992 78.2843 228.93 79.7152 235.899 80.8844C244.191 82.269 252.453 83.7613 260.422 86.5766C260.807 86.7151 261.33 86.9305 261.637 86.7766C263.653 85.8536 265.222 86.4074 267.099 87.5613C269.406 88.9612 269.591 88.6381 270.945 90.3457C271.145 90.6381 271.468 90.7611 271.73 90.915ZM198.73 154.776C198.422 154.899 198.099 155.007 197.792 155.13C198.099 156.561 198.484 157.976 198.715 159.407C199.499 164.484 200.038 169.607 201.023 174.653C202.146 180.36 203.884 185.945 204.915 191.653C206.638 201.083 208.022 210.576 209.545 220.052C209.807 221.714 210.361 222.114 211.992 221.776C215.792 220.976 217.915 218.083 217.238 214.129C216.761 211.329 215.761 208.622 215.192 205.837C214.115 200.545 213.222 195.222 212.191 189.93C209.991 178.761 206.299 168.084 201.007 157.991C200.392 156.838 199.484 155.838 198.73 154.776ZM168.515 98.5612C168.269 98.5304 168.023 98.515 167.761 98.4842C167.084 101.653 166.407 104.823 165.607 108.484C168.438 106.376 168.469 106.377 168.5 104.315C168.546 102.407 168.515 100.484 168.515 98.5612ZM234.038 106.146C239.591 106.792 240.299 106.499 241.93 103.053C239.345 104.069 237.053 104.961 234.038 106.146ZM154.792 36.2386C158.146 33.131 158.177 32.9924 156.315 30.7463C155.884 32.3001 155.454 33.854 154.792 36.2386ZM49.8237 74.546C49.4083 74.1614 49.1314 73.7152 48.8545 73.7152C48.3776 73.7152 47.916 73.9768 47.439 74.146C47.8237 74.4999 48.1621 74.9613 48.6237 75.1613C48.8544 75.2536 49.2853 74.8537 49.8237 74.546Z" fill="#EBC483"/>
<path d="M265.144 154.04C265.99 155.717 267.175 157.317 267.606 159.087C269.206 165.825 272.175 172.071 275.836 177.732C279.083 182.748 281.744 188.117 285.159 193.025C287.975 197.086 290.421 201.394 293.298 205.409C296.467 209.84 299.944 214.04 303.298 218.332C304.775 220.224 306.328 222.071 307.775 223.994C311.621 229.178 316.513 233.055 322.359 235.763C322.898 236.009 323.513 236.624 323.959 236.517C326.851 235.824 328.282 238.224 330.313 239.347C330.313 239.963 330.313 240.563 330.313 241.178C328.744 241.932 327.19 242.732 325.605 243.44C323.928 244.193 321.775 243.855 320.805 246.209C320.498 246.932 318.636 247.455 317.544 247.347C313.344 246.963 310.021 249.193 306.467 250.732C303.421 252.039 300.39 253.424 297.559 255.132C293.267 257.732 289.159 260.686 287.175 265.578C286.129 268.147 285.144 270.778 284.559 273.47C283.436 278.685 279.821 282.193 276.544 285.916C272.79 290.178 267.313 291.501 262.267 293.209C259.852 294.024 256.821 293.378 254.129 292.993C249.898 292.378 245.683 291.516 241.514 290.547C239.052 289.978 236.791 288.732 234.16 288.501C231.021 288.224 227.914 287.408 224.775 287.07C220.514 286.608 216.975 288.701 213.422 290.67C212.898 290.962 212.237 291.147 211.868 291.578C209.498 294.239 206.022 294.87 203.037 296.239C199.16 297.993 195.376 300.039 191.145 301.131C186.929 302.224 183.006 301.285 179.006 300.639C177.837 300.455 176.914 299.455 176.699 297.824C176.453 295.932 177.683 295.578 178.806 295.008C179.453 294.67 180.222 294.562 180.945 294.378C187.391 292.855 193.56 290.608 199.406 287.47C200.852 286.701 202.468 286.239 203.975 285.562C205.206 285.008 206.683 284.624 207.529 283.685C210.591 280.332 214.914 280.178 218.714 278.624C220.345 277.962 221.637 278.639 223.083 278.393C225.191 278.039 227.406 277.808 229.529 278.024C232.944 278.378 236.652 278.455 239.637 279.886C245.191 282.547 251.237 282.532 256.96 284.055C259.96 284.855 262.883 283.608 265.667 282.455C270.467 280.47 272.898 276.193 275.082 271.932C276.775 268.624 277.883 264.993 279.221 261.501C281.606 255.301 286.19 251.086 291.882 248.07C295.99 245.886 300.313 244.101 304.575 242.194C306.605 241.286 308.698 240.517 310.775 239.67C310.744 239.378 310.821 238.932 310.667 238.824C306.621 236.178 303.452 232.609 300.544 228.84C298.344 225.978 296.513 222.84 294.39 219.901C293.144 218.178 291.544 216.701 290.344 214.963C286.067 208.763 281.621 202.655 277.76 196.209C274.436 190.655 271.621 184.779 269.298 178.686C268.098 175.533 266.267 172.625 264.821 169.563C261.56 162.64 259.237 155.456 257.852 147.856C257.037 143.348 255.529 138.948 255.006 134.348C254.944 133.825 255.006 133.302 255.021 132.764C255.637 132.964 256.329 133.025 256.852 133.379C258.99 134.794 259.221 137.379 260.067 139.487C260.36 140.225 259.929 141.348 260.883 142.164C261.806 142.948 262.344 143.917 261.99 145.348C261.852 145.917 262.837 146.425 262.883 147.594C262.96 149.871 264.113 152.148 265.329 154.21C264.806 153.917 264.267 153.64 263.744 153.348C263.683 153.764 263.436 154.286 263.606 154.563C263.883 155.04 264.437 155.348 264.867 155.733C264.929 155.163 265.036 154.594 265.144 154.04Z" fill="#1D3D6C"/>
<path d="M146.068 329.161C143.484 328.238 140.899 327.268 138.284 326.391C134.422 325.084 131.514 322.807 130.022 318.868C129.607 317.761 129.976 317.622 130.822 316.93C132.407 315.653 133.837 313.961 134.761 312.145C136.022 309.653 138.284 309.299 140.422 309.084C144.037 308.715 147.714 308.73 150.899 311.053C151.237 311.299 151.699 311.391 152.576 311.745C153.176 309.653 153.991 307.715 154.268 305.699C154.776 302.115 154.837 298.469 155.314 294.869C156.114 288.915 157.545 283.084 159.222 277.33C160.514 272.869 161.945 268.453 163.499 264.084C164.207 262.115 165.237 260.223 166.376 258.469C166.714 257.946 167.93 257.715 168.683 257.823C169.145 257.884 169.668 258.761 169.868 259.376C170.237 260.515 170.437 261.7 170.622 262.884C170.714 263.438 170.591 264.023 170.576 264.607C170.222 264.3 169.868 263.992 169.514 263.7C169.391 264.053 169.068 264.515 169.191 264.746C170.114 266.53 169.499 268.207 169.16 270.023C168.453 273.823 166.668 277.407 167.006 281.392C164.237 287.038 164.406 293.315 163.237 299.299C162.653 302.299 162.853 305.438 162.33 308.438C161.591 312.684 160.53 316.884 159.576 321.084C159.514 321.376 159.237 321.607 159.16 321.884C157.883 326.853 157.514 327.114 152.114 327.714C151.576 327.776 151.13 328.653 150.653 329.161C149.114 329.161 147.591 329.161 146.068 329.161Z" fill="#1D3D6C"/>
<path d="M199.069 136.178C202.961 135.701 206.099 135.07 209.253 135.039C210.776 135.024 213.099 135.701 213.653 136.778C214.438 138.301 215.684 138.362 216.607 138.501C218.407 138.778 219.191 140.193 220.499 140.993C228.468 145.824 235.207 152.147 242.007 158.393C245.237 161.362 248.422 164.285 250.576 168.208C251.899 170.624 252.084 170.516 251.73 174.808C251.699 175.162 252.007 175.87 252.207 175.885C254.376 176.116 254.345 177.7 254.391 179.254C254.407 180.008 254.084 180.885 254.36 181.485C256.053 185.085 254.16 188.208 253.237 191.47C253.191 191.608 253.207 191.777 253.16 191.916C250.53 199.485 245.945 205.823 240.161 211.177C235.991 215.023 231.884 219.1 226.545 221.469C225.853 221.777 225.084 222.115 224.607 222.669C222.699 224.915 220.069 225.562 217.376 226.039C211.069 227.177 204.915 227.392 199.515 223.023C197.822 221.654 197.899 221.362 199.099 219.485C199.976 218.116 200.699 216.516 200.961 214.931C201.207 213.439 201.669 212.131 202.899 211.5C206.73 209.546 210.407 206.916 214.761 206.5C217.868 206.192 221.33 205.593 223.976 208.5C225.207 209.854 226.699 209.777 228.145 208.393C229.668 206.931 231.391 205.669 232.961 204.254C235.222 202.223 237.622 200.3 239.591 198.008C243.668 193.285 247.053 188.131 246.884 181.516C246.776 177.085 244.53 173.408 242.099 169.977C239.099 165.777 234.868 162.701 231.13 159.193C227.715 155.993 223.868 153.255 220.515 150.024C216.976 146.608 212.899 144.162 208.53 142.07C206.222 140.962 203.899 139.855 201.653 138.608C200.838 138.193 200.238 137.316 199.069 136.178Z" fill="#1D3D6C"/>
<path d="M49.7925 191.056C44.8541 191.456 40.2542 191.84 35.6389 192.225C33.2696 190.441 30.4389 192.194 27.9158 191.225C25.562 190.302 23.0388 189.779 20.685 188.871C18.4389 187.994 16.0851 187.133 14.2082 185.702C12.239 184.194 10.2082 183.117 7.85438 182.471C5.71594 181.887 4.13129 180.733 3.57745 178.302C3.28514 177.025 2.22359 175.948 1.62359 174.718C0.500523 172.425 -0.0839303 170.241 1.59298 167.733C2.80835 165.902 3.51602 163.641 4.06986 161.487C5.17754 157.133 7.7314 153.795 11.2237 151.272C17.2236 146.964 22.6389 141.826 29.2389 138.379C33.285 136.272 37.3772 134.195 41.5311 132.302C42.5618 131.841 43.9771 131.902 45.1156 132.149C45.9002 132.318 48.4079 132.656 45.7772 134.21C46.008 137.964 43.408 139.656 40.6388 141.256C39.6081 141.856 38.6694 142.595 37.5925 143.072C30.5003 146.256 24.4697 150.995 18.6851 156.087C17.3621 157.256 16.1928 158.625 14.7774 159.656C12.9159 161.041 10.8389 162.179 12.0081 165.056C12.0543 165.179 12.0236 165.395 11.9313 165.487C8.60826 168.856 11.762 171.979 12.3927 175.148C12.5312 175.856 13.5312 176.394 14.1158 177.041C14.8235 177.794 15.7928 178.456 16.1312 179.364C16.7312 180.948 17.7158 181.179 19.1311 180.902C19.4081 180.841 19.8235 180.887 19.9928 181.071C21.1774 182.333 23.4543 182.21 24.0081 184.256C25.7927 183.287 27.6235 183.779 29.4697 184.025C31.3466 184.271 33.2542 184.41 35.1465 184.425C37.1157 184.44 39.1002 184.056 41.054 184.21C44.5771 184.487 47.408 182.04 50.7925 181.948C51.6695 181.933 52.654 181.61 53.4078 181.917C54.777 182.471 55.9002 182.425 57.3155 181.917C59.3925 181.194 61.131 182.225 61.7925 184.317C62.454 186.394 62.977 188.533 63.3923 190.671C63.5616 191.533 63.5616 192.564 63.2385 193.348C61.6539 197.056 60.0539 200.748 59.7 204.825C59.6693 205.102 59.3771 205.348 59.2694 205.625C57.7617 209.148 56.4078 209.609 53.1924 207.64C50.2078 205.809 48.4849 202.948 48.1465 199.671C47.9311 197.563 49.0848 195.333 49.5617 193.133C49.7309 192.487 49.7156 191.779 49.7925 191.056Z" fill="#1D3D6C"/>
<path d="M145.853 171.9C146.191 175.162 146.576 178.362 146.853 181.562C147.038 183.685 144.684 185.485 142.191 185.223C140.099 185.008 137.992 184.839 135.93 184.423C134.469 184.131 132.745 183.854 131.715 182.947C128.746 180.316 125.345 180.131 121.822 180.716C117.499 181.423 113.146 182.27 110.115 185.916C109.776 186.316 109.699 186.946 109.515 187.469C109.992 187.439 110.5 187.285 110.946 187.377C114.453 188.193 118.084 188.685 121.392 190.008C123.607 190.9 125.699 190.593 127.838 190.916C130.207 191.269 132.515 192.085 134.838 192.7C135.407 192.854 136.407 192.885 136.499 193.193C137.407 196.193 140.145 195.746 142.284 196.623C148.638 199.239 149.915 206.946 144.438 211.131C142.838 212.362 142.93 215.039 140.33 215.208C139.022 215.285 137.653 215.731 136.407 215.992C133.746 216.546 130.776 215.5 128.084 215.962C125.13 216.469 122.469 216.362 119.746 215.223C116.192 213.746 112.592 212.362 108.992 210.946C108.515 213.069 108.161 215.131 107.546 217.115C107.315 217.854 106.5 218.408 105.961 219.054C105.453 218.577 104.93 218.1 104.423 217.608C100.484 213.808 101.93 209.054 102.315 204.592C102.407 203.5 103.807 202.531 104.669 201.439C105.253 201.516 104.269 204.269 106.238 202.516C106.453 202.316 107.177 202.3 107.377 202.5C109.792 204.839 112.884 205.223 115.961 205.915C119.438 206.715 122.853 207.915 126.192 209.208C130.284 210.792 134.145 210.069 138.022 208.562C139.807 207.869 140.468 206.5 140.653 204.7C140.807 203.054 140.192 202.069 138.576 201.746C135.484 201.116 132.376 200.546 129.299 199.823C128.453 199.623 127.746 198.931 126.899 198.654C125.207 198.069 123.469 197.208 121.746 197.208C117.869 197.223 114.361 195.716 110.746 194.808C108.792 194.316 107.115 192.716 105.33 191.593C105.207 191.516 105.1 191.362 105.069 191.239C104.161 187.716 104.946 184.285 105.607 180.854C108.653 178.362 111.084 174.762 115.899 175.531C116.73 175.67 117.699 174.439 118.684 174.3C120.546 174.024 122.469 174.131 124.361 173.993C126.284 173.854 128.269 173.208 130.115 173.516C132.145 173.854 134.069 174.931 135.961 175.87C138.776 177.27 140.745 177.07 142.33 174.408C143.176 172.931 144.222 172.27 145.853 171.9Z" fill="#1D3D6C"/>
<path d="M74.9767 301.917C80.0228 304.733 84.7611 307.363 89.3457 309.933C90.9149 304.871 92.1919 299.948 93.9919 295.225C96.1303 289.625 98.7303 284.21 101.099 278.702C101.807 277.056 102.346 275.317 103.038 273.671C106.084 266.487 108.807 259.148 113.007 252.502C114.438 250.256 115.284 249.887 116.792 250.779C118.423 251.748 118.915 253.564 118.13 255.548C116.961 258.456 115.838 261.379 114.669 264.287C111.592 271.933 108.915 279.718 106.515 287.61C104.684 293.61 102.223 299.425 100.315 305.41C99.361 308.379 98.9918 311.548 98.4072 314.625C98.0226 316.656 97.838 318.748 97.2996 320.748C97.038 321.702 96.3149 322.748 95.4995 323.271C95.038 323.563 93.9612 322.871 93.1458 322.671C92.7766 322.579 92.2997 322.471 91.9766 322.61C88.2228 324.194 84.792 322.471 81.3151 321.579C79.7305 321.179 78.0535 320.717 76.6843 319.856C73.9766 318.133 71.346 316.363 70.7921 312.625C70.3152 309.425 70.746 306.794 73.1152 304.502C73.8844 303.748 74.3767 302.763 74.9767 301.917Z" fill="#1D3D6C"/>
<path d="M161.976 131.194C162.176 135.148 160.268 138.025 157.253 140.255C156.176 141.055 154.853 141.548 153.776 142.348C148.945 145.901 143.437 147.194 137.576 147.748C134.437 148.04 131.361 147.717 128.284 147.578C125.161 147.44 122.068 146.578 118.961 146.024C116.591 145.609 114.176 145.394 111.884 144.732C105.007 142.748 99.0378 138.901 93.4686 134.609C91.0532 132.748 89.4223 129.809 87.5916 127.24C87.1608 126.64 87.4071 125.579 87.3302 124.732C88.2994 124.763 89.5763 124.409 90.1763 124.886C92.8378 126.978 96.484 127.409 98.7147 130.209C99.484 131.178 100.422 132.132 102.007 131.717C102.468 131.594 103.253 131.994 103.622 132.394C106.915 136.04 111.607 136.594 115.93 137.532C121.822 138.824 127.837 139.778 133.945 139.424C140.837 139.04 147.253 137.101 152.899 133.071C154.96 131.594 156.776 129.717 158.56 127.901C159.345 127.117 159.699 126.24 161.068 127.117C162.283 127.886 162.914 128.625 162.36 130.04C162.191 130.44 162.099 130.825 161.976 131.194Z" fill="#1D3D6C"/>
<path d="M121.822 122.176C121.853 122.176 120.93 122.207 120.038 122.068C118.33 121.791 117.93 121.145 118.238 119.33C118.376 118.438 118.53 117.545 118.576 116.638C118.976 108.822 119.792 101.146 123.823 94.1456C125.161 91.8072 125.115 91.4839 126.376 92.8378C127.638 94.1762 129.253 94.2685 130.684 94.9762C131.93 95.5916 130.976 95.9302 130.084 95.6532C129.884 96.6071 129.253 97.7455 129.576 98.4685C130.699 101.022 129.515 103.422 129.469 105.869C129.453 106.422 129.007 107.007 129.115 107.499C130.115 111.868 127.838 115.622 127.038 119.653C126.684 121.468 126.053 122.391 124.161 122.176C123.699 122.13 123.238 122.176 121.822 122.176Z" fill="#1D3D6C"/>
<path d="M98.2692 99.0707C97.7307 96.5476 99.1922 95.0091 100.9 93.6091C101.346 93.2399 102.054 93.1014 102.331 92.6553C103.269 91.2091 104.577 89.8092 106.146 90.2246C107.423 90.563 108.561 92.0399 109.392 93.2707C111.146 95.8553 111.761 98.563 110.484 101.763C109.054 105.332 107.146 108.301 104.085 110.717C102.808 111.732 101.992 111.101 101.515 110.578C100.623 109.594 99.8538 108.332 99.5614 107.055C98.9461 104.425 98.6846 101.732 98.2692 99.0707Z" fill="#1D3D6C"/>
<path d="M147.237 111.133C145.437 111.579 143.991 110.01 142.806 108.533C141.591 107.025 141.145 105.379 142.037 103.133C142.806 101.225 143.499 99.3177 144.437 97.4408C145.453 95.4101 147.483 95.2254 149.053 94.3639C149.745 93.9793 151.406 94.9946 152.468 95.6254C154.868 97.0715 155.13 99.5485 155.206 102.025C155.33 106.056 152.283 108.271 149.96 110.856C149.606 111.241 148.53 111.01 147.237 111.133Z" fill="#1D3D6C"/>
<path d="M255.284 131.611C254.884 129.457 254.576 127.842 254.269 126.227C254.73 127.811 256.715 129.103 255.284 131.611Z" fill="#1D3D6C"/>
</svg>
