<svg width="308" height="318" viewBox="0 0 308 318" fill="none" xmlns="http://www.w3.org/2000/svg">
<path d="M95.0228 297.935C94.6844 296.366 94.3458 295.027 94.1304 293.673C94.0073 292.935 93.9766 292.15 94.1458 291.427C94.6073 289.335 94.592 287.32 94.3766 285.15C94.1458 282.981 94.9612 280.674 95.4842 278.458C97.4227 270.489 99.4074 262.551 101.407 254.597C103.069 247.982 104.807 241.382 106.453 234.751C107.884 228.997 109.392 223.274 110.561 217.459C110.853 215.997 110.253 214.182 109.607 212.736C106.238 205.305 102.638 197.982 99.2844 190.536C94.9305 180.844 92.0382 170.644 89.0536 160.49C87.546 155.367 86.0536 150.336 83.6537 145.552C81.9306 142.136 82.3153 141.921 86.0075 140.382C92.4075 137.721 98.9305 138.229 105.392 139.613C114.9 141.675 123.976 145.182 133.084 148.521C138.33 150.444 143.607 152.29 148.899 154.075C149.407 154.244 150.422 153.875 150.745 153.428C152.961 150.352 155.361 147.336 157.115 143.998C158.622 141.136 161.114 139.09 162.622 136.198C164.053 133.459 166.607 131.321 168.499 128.798C172.022 124.059 175.53 119.275 178.822 114.383C179.899 112.798 180.237 110.721 181.068 108.952C181.76 107.46 182.545 105.983 183.545 104.706C184.007 104.121 185.207 103.567 185.822 103.767C187.114 104.183 188.191 103.952 188.345 102.798C188.607 100.86 191.468 101.89 191.499 99.4905C191.514 98.3059 193.191 97.1366 194.145 95.9828C194.622 95.3982 195.176 94.8598 195.699 94.3059C196.637 93.3213 197.684 93.9367 197.914 94.7059C198.668 97.1521 200.206 98.829 202.206 100.291C202.868 100.767 203.253 101.814 203.453 102.675C204.56 107.444 206.853 111.737 208.76 116.183C209.468 117.844 209.868 119.629 210.422 121.352C213.222 129.998 216.099 138.629 218.776 147.306C219.837 150.767 220.452 154.367 221.283 157.905C221.422 158.49 221.529 159.09 221.76 159.644C223.068 162.89 223.022 162.613 226.376 161.798C228.391 161.321 230.714 161.536 232.76 162.028C234.529 162.444 236.129 162.69 237.96 162.721C239.468 162.751 241.699 161.982 243.068 163.828C243.237 164.059 244.037 163.89 244.529 163.828C245.252 163.736 246.068 163.29 246.683 163.49C253.375 165.613 260.344 165.644 267.237 166.321C268.991 166.49 270.698 167.244 272.421 167.721C272.837 167.844 273.283 168.136 273.652 168.059C279.775 166.828 285.175 169.628 291.483 170.844C288.806 174.013 289.375 177.628 288.052 180.844C285.221 187.674 281.129 193.49 276.098 198.797C272.237 202.874 268.56 207.105 264.744 211.228C258.883 217.566 253.575 224.628 246.421 229.474C241.945 232.505 240.591 236.336 239.498 241.043C236.006 256.182 232.483 271.335 228.514 286.366C226.653 293.412 223.668 300.166 221.406 307.104C220.714 309.243 219.129 309.335 217.499 309.966C215.653 310.689 215.129 309.335 214.129 308.52C211.56 306.427 209.068 304.212 206.33 302.381C198.514 297.135 190.576 292.104 182.73 286.904C178.668 284.212 174.73 281.351 170.745 278.551C168.376 276.889 166.099 275.074 163.684 273.504C161.253 271.92 159.007 271.797 156.084 273.304C146.884 278.027 137.269 281.797 127.376 284.92C117.038 288.181 107.13 292.473 97.4073 297.258C96.6227 297.643 95.7151 297.75 95.0228 297.935ZM112.515 206.89C112.823 206.751 113.146 206.597 113.453 206.459C109.653 194.674 104.884 183.321 98.2227 171.751C98.0843 173.121 97.8843 173.582 98.0227 173.905C99.2996 176.767 101.069 179.444 100.577 182.859C100.484 183.505 101.53 184.305 102.007 185.059C104.346 188.859 107.177 192.444 106.884 197.351C106.823 198.32 107.715 200.12 108.361 200.197C110.038 200.428 110.115 201.367 110.5 202.582C110.961 204.09 111.823 205.459 112.515 206.89ZM187.453 153.182C185.53 156.121 184.822 158.582 185.884 161.398C186.084 161.921 185.714 162.844 185.314 163.367C183.76 165.352 183.714 165.321 185.437 167.105C185.745 167.428 186.176 167.736 186.284 168.121C186.96 170.736 187.607 173.351 188.176 175.998C188.914 179.382 189.545 182.782 190.268 186.167C190.391 186.736 190.73 187.244 190.976 187.782C191.16 187.582 191.345 187.382 191.53 187.197C190.207 176.09 188.868 164.998 187.453 153.182ZM267.96 171.736C269.452 172.475 268.375 173.798 270.36 173.874C272.96 173.967 275.544 174.782 277.79 176.244C278.975 177.013 279.744 177.921 279.129 179.628C278.544 181.213 278.467 182.982 278.16 184.674C280.883 181.844 283.59 179.167 284.806 175.459C279.698 172.659 274.314 172.367 267.96 171.736ZM251.883 205.367C252.114 205.628 252.36 205.905 252.591 206.167C254.391 204.459 256.283 202.843 257.975 201.028C261.298 197.49 264.498 193.859 267.744 190.259C269.221 188.628 268.79 187.351 267.006 186.336C261.944 192.721 256.914 199.044 251.883 205.367ZM169.514 138.106C169.299 137.936 169.099 137.767 168.884 137.613C165.422 142.505 161.961 147.382 158.53 152.29C158.007 153.029 157.545 153.859 157.299 154.705C157.161 155.167 157.33 156.075 157.668 156.259C158.238 156.598 159.084 156.736 159.73 156.582C160.207 156.475 160.668 155.844 160.915 155.352C163.807 149.613 166.653 143.859 169.514 138.106ZM202.699 137.521C202.545 140.813 202.268 143.644 202.36 146.444C202.407 147.721 203.391 148.936 203.591 150.228C203.776 151.49 206.514 149.89 205.576 152.321C205.176 153.367 205.699 154.875 207.822 155.075C207.422 152.582 206.899 150.259 205.391 148.444C204.76 147.675 204.606 147.413 204.76 146.336C205.222 143.367 204.545 140.49 202.699 137.521ZM270.191 186.321C271.437 184.413 272.529 182.751 273.606 181.09C273.237 180.905 272.606 180.49 272.544 180.551C271.36 181.982 270.206 183.444 269.129 184.951C269.083 185.044 269.591 185.567 270.191 186.321ZM96.4997 146.182C95.2535 145.398 94.2536 144.521 92.9152 145.475C92.7613 145.582 92.7921 145.982 92.7459 146.244C93.8998 146.229 95.0843 146.213 96.4997 146.182ZM237.883 227.151C237.299 228.028 237.037 228.243 236.991 228.505C236.945 228.828 235.775 229.613 237.237 229.413C237.452 229.382 237.545 228.397 237.883 227.151Z" fill="#EBC483"/>
<path d="M208.022 33.569C212.498 37.1074 217.652 40.015 219.745 45.9381C220.129 45.7381 220.775 45.415 221.468 45.0611C221.683 46.1227 221.883 47.1227 222.052 47.9842C222.868 47.8765 223.545 47.7842 224.221 47.6919C223.914 48.3227 223.621 48.938 223.175 49.8457C226.283 50.1072 228.637 51.6918 230.714 53.9072C233.037 56.3995 235.621 58.661 238.006 61.1071C239.021 62.1533 240.437 63.0764 240.114 64.8918L240.252 64.7533C239.76 64.9686 238.344 64.4148 239.052 65.6302C239.729 66.7686 241.021 67.5379 242.467 68.8456C242.252 67.6302 242.16 67.1225 242.083 66.6148L242.006 66.6917C243.975 66.5071 244.144 68.1994 244.791 69.384C243.498 70.1378 243.606 71.2301 244.698 71.7532C245.744 72.2609 245.606 70.9994 245.806 70.3532C247.391 70.984 247.914 72.3224 248.437 73.8147C249.052 75.584 249.191 75.5378 251.929 75.4917C250.606 74.0609 250.437 72.7532 250.852 70.6917C251.606 67.0609 251.298 63.2148 251.406 59.461C251.452 57.7072 251.421 55.9534 251.421 53.6303C252.144 54.3995 252.452 54.7226 252.898 55.1996C252.498 52.7073 254.021 50.2919 252.421 47.7688C251.76 46.7381 254.914 43.1381 256.406 42.9381C257.16 42.8304 257.944 42.8303 258.698 42.9073C262.175 43.2457 265.683 43.415 269.113 44.0304C271.498 44.4612 274.483 44.3996 275.236 47.738C275.267 47.8611 275.452 48.0149 275.575 48.0303C280.113 48.5996 278.575 51.9842 278.283 54.4303C277.929 57.3688 277.344 60.3995 276.144 63.061C274.883 65.8302 275.313 68.9533 273.667 71.6148C273.113 72.4917 273.99 74.1532 273.79 75.384C272.944 80.707 272.144 86.0608 270.929 91.3069C270.098 94.8915 270.283 97.7222 273.252 100.353C276.867 103.568 280.175 107.153 283.529 110.661C287.159 114.461 290.682 118.368 294.252 122.23C296.682 124.86 299.082 127.507 301.529 130.107C302.144 130.753 302.805 131.507 303.59 131.799C305.421 132.46 306.236 133.999 307.205 135.445C307.205 136.06 307.205 136.676 307.205 137.276C306.159 136.614 304.913 137.845 304.867 137.814C302.252 136.43 301.159 138.814 299.467 139.783C297.375 140.983 295.129 141.953 292.913 142.937C286.821 145.63 280.944 148.814 274.544 150.768C274.113 150.906 273.652 150.968 272.867 151.137C272.498 148.83 270.929 147.691 268.96 146.506C267.175 145.43 266.267 143.014 264.806 141.322C263.313 139.614 261.637 138.076 259.867 136.291C260.375 140.937 260.913 145.322 261.329 149.706C261.76 154.353 262.314 158.999 262.36 163.645C262.39 166.86 263.99 170.075 262.436 173.291C263.575 177.183 262.667 181.168 262.944 185.091C263.083 187.152 262.744 189.245 262.729 191.321C262.714 193.075 262.883 194.845 262.944 196.598C262.975 197.506 263.16 198.444 262.96 199.306C261.79 204.583 262.606 209.829 263.283 215.029C264.083 221.198 265.006 227.321 265.083 233.567C265.129 237.89 266.021 242.198 266.406 246.536C266.914 252.167 267.298 257.813 267.775 263.459C268.344 270.121 268.96 276.782 269.575 283.444C270.144 289.628 270.821 295.798 271.313 301.997C271.513 304.536 271.56 307.105 271.329 309.628C271.036 312.828 268.452 315.059 265.175 315.105C263.221 315.136 260.867 315.444 259.437 314.49C258.252 313.705 258.267 311.228 257.514 309.597C256.898 308.259 256.944 307.151 257.221 305.705C257.667 303.367 257.76 300.859 257.467 298.49C256.913 293.721 257.052 288.936 256.729 284.167C256.283 277.398 255.498 270.644 255.006 263.859C254.79 260.813 255.021 257.752 254.883 254.69C254.744 251.829 254.329 248.983 254.16 246.121C254.021 243.721 254.037 241.321 253.99 238.921C253.867 232.583 254.298 226.229 253.252 219.921C253.067 218.829 254.067 217.521 253.821 216.475C252.806 211.952 254.206 207.398 253.237 202.829C252.683 200.183 253.575 197.26 253.652 194.444C253.714 192.368 253.483 190.291 253.406 188.214C253.283 184.645 253.098 181.06 253.083 177.491C253.037 169.152 253.19 160.799 252.99 152.46C252.913 149.045 253.575 145.583 252.529 142.183C252.037 140.583 252.19 138.783 251.683 137.183C250.667 133.937 253.775 131.537 253.267 128.445C253.19 127.937 253.283 127.307 253.021 126.953C250.96 124.137 249.037 121.214 246.683 118.661C244.652 116.461 242.175 114.661 239.821 112.768C235.068 108.938 230.76 104.691 227.052 99.8299C226.406 98.9837 225.56 98.2915 224.852 97.5069C220.545 92.7992 216.145 88.1531 211.975 83.3377C208.037 78.7993 204.314 74.0917 200.529 69.4148C199.483 68.1225 198.452 66.7686 197.606 65.3379C193.806 58.8918 188.96 53.3073 183.668 48.0765C180.514 44.9535 177.299 41.892 174.376 38.5689C171.514 35.3228 168.976 31.7843 166.191 28.2305C160.868 31.7228 155.391 35.1843 150.053 38.8458C144.591 42.5996 139.284 46.5535 133.868 50.3842C131.776 51.8611 129.73 53.4611 127.438 54.5841C120.068 58.2149 113.453 62.9225 107.053 68.0148C103.161 71.1224 99.3148 74.3071 95.2072 77.0916C91.8688 79.3532 88.115 80.9993 84.6535 83.1069C82.915 84.1531 81.4381 85.63 79.8227 86.8916C77.4535 88.7531 75.0227 90.5377 72.6843 92.4453C70.7151 94.0453 69.5304 95.9992 69.4074 98.7068C69.3151 100.784 68.8842 102.938 68.1765 104.907C65.915 111.214 64.8997 117.753 64.0536 124.337C63.9459 125.23 63.992 126.23 63.592 126.984C61.9458 129.999 61.8843 133.368 61.2689 136.614C60.8689 138.676 60.4382 140.722 59.9921 142.768C59.8075 143.645 59.469 144.507 59.4075 145.399C59.0382 150.06 58.7767 154.706 56.9306 159.122C56.546 160.045 56.669 161.229 56.6844 162.291C56.7151 164.276 56.8382 166.26 55.6689 168.045C55.4997 168.306 55.1922 168.614 55.2537 168.845C56.0229 172.06 54.0075 174.845 53.8691 177.952C53.746 180.783 53.2845 183.629 52.7306 186.414C51.623 191.983 50.6844 197.552 50.1152 203.229C49.5306 208.998 47.669 214.644 46.2382 220.306C44.6383 226.644 42.5922 232.89 41.3307 239.29C40.6538 242.721 39.8691 246.044 38.823 249.383C37.9153 252.229 37.6691 255.336 37.423 258.336C36.8691 264.952 34.5308 271.259 34.0538 277.905C33.7923 281.659 33.2692 285.413 32.6538 289.136C32.3615 290.89 31.6692 292.598 30.9615 294.244C30.1308 296.182 28.5154 296.721 26.4846 296.321C26.1923 296.259 25.6539 296.521 25.5462 296.767C25.2077 297.582 25.2538 298.659 23.9769 298.659C22.3 298.644 20.6231 298.644 18.9462 298.521C18.6539 298.505 18.3308 297.936 18.1615 297.551C17.1308 295.09 16.9463 292.521 17.5617 289.967C18.254 287.059 19.3923 284.228 19.9308 281.29C20.5154 278.198 20.4847 274.982 20.977 271.875C21.5001 268.613 22.3462 265.398 23.0231 262.167C24.5 255.106 25.8846 248.029 27.423 240.983C28.623 235.521 30.1615 230.137 31.2846 224.66C32.3153 219.644 32.9615 214.552 33.8076 209.491C34.4384 205.629 35.1153 201.783 35.7461 197.921C36.3307 194.337 36.8691 190.752 37.4538 187.183C38.7922 178.875 39.8538 170.552 41.7615 162.322C43.0076 156.922 44.223 151.522 45.6384 146.153C47.6538 138.46 49.6075 130.768 51.5306 123.061C52.9767 117.261 54.3152 111.43 55.9151 104.768C53.2229 106.999 51.2845 108.861 49.0999 110.338C45.0076 113.137 40.7615 115.722 36.5769 118.414C34.9308 119.476 33.3922 120.707 31.6692 121.63C28.6538 123.261 25.5923 124.845 22.4539 126.23C18.7155 127.876 13.8078 126.307 11.9155 122.645C10.3463 119.599 8.39239 117.599 4.88473 116.876C3.23859 116.537 1.83872 115.045 0.392578 114.122C1.48488 111.722 2.48492 109.276 3.71568 106.968C4.28491 105.907 5.16175 104.876 6.14636 104.184C12.4232 99.7684 18.4385 94.9838 25.2846 91.3684C30.6076 88.5684 35.6846 85.2761 40.6385 81.8454C45.3461 78.5839 49.6844 74.7532 54.3151 71.3686C58.3304 68.4301 62.5305 65.7378 66.6843 62.9994C76.0073 56.861 85.3302 50.7226 94.7148 44.6765C101.684 40.1842 109.099 36.4612 116.345 32.4304C120.468 30.1381 125.084 28.369 128.299 24.569C128.545 24.2767 129.268 24.4613 129.653 24.2306C130.607 23.646 132.561 24.3844 132.376 22.1998C132.361 21.969 132.976 21.5691 133.345 21.446C138.114 19.8152 141.914 16.446 146.33 14.1845C151.161 11.7076 156.007 9.24609 160.776 6.64611C162.468 5.72304 163.96 4.41532 165.576 3.33841C166.037 3.03072 166.622 2.89228 167.145 2.69229C167.13 3.15382 166.93 3.93844 167.114 4.04613C167.914 4.50766 169.207 3.6615 169.391 2.58458C169.53 1.7692 169.483 0.907666 169.514 0.0769037C170.914 0.215364 172.653 -0.138468 173.637 0.569219C175.314 1.78459 176.145 0.553842 177.268 0C178.499 0.461535 176.76 3.69222 179.837 2.63069C180.33 2.46146 181.591 4.09223 182.299 5.04606C184.391 7.83066 186.206 10.8153 188.453 13.4614C191.16 16.6306 194.191 19.5228 197.099 22.5228C197.514 22.9536 198.129 23.2306 198.437 23.7229C199.96 26.1998 201.868 28.169 204.422 29.692C205.914 30.5843 206.914 32.3074 208.145 33.6459C206.837 34.0459 206.929 34.7381 207.76 35.5381C207.96 35.7227 208.283 35.7689 208.545 35.8766C208.406 35.2459 208.268 34.615 208.114 33.9689C208.099 33.8612 208.068 33.7074 208.022 33.569ZM265.021 72.1994C264.76 72.3071 264.314 72.3686 264.283 72.5224C263.452 76.6762 261.714 80.6609 261.76 84.9993C261.76 84.9993 262.96 88.1069 262.852 87.8146C263.16 86.3223 263.621 84.5839 263.837 82.83C264.267 79.2608 264.56 75.6917 264.913 72.1225C266.898 68.1533 266.944 63.6918 268.298 59.5226C267.144 60.9226 266.206 62.2456 265.76 64.1225C265.113 66.8302 264.96 69.4763 265.021 72.1994ZM197.422 48.5226C199.745 51.538 201.237 54.9995 205.714 57.0149C203.699 53.9226 202.068 51.7995 200.868 49.4611C200.052 47.8457 199.022 48.338 197.422 48.5226ZM270.267 48.7996C270.098 48.8149 269.944 48.815 269.775 48.8303C269.775 50.6611 269.775 52.5073 269.775 54.338C269.944 54.338 270.098 54.338 270.267 54.338C270.267 52.4765 270.267 50.6457 270.267 48.7996ZM261.975 46.6458C261.806 46.6458 261.637 46.6458 261.467 46.6458C261.467 47.9996 261.467 49.3534 261.467 50.7072C261.637 50.7072 261.806 50.7072 261.975 50.7072C261.975 49.3534 261.975 47.9996 261.975 46.6458ZM268.929 58.6611C269.283 57.8918 269.559 57.5995 269.498 57.3687C269.406 56.9533 269.129 56.5995 268.929 56.2149C268.929 56.861 268.929 57.5072 268.929 58.6611ZM275.483 58.6764C275.359 59.1533 275.19 59.5379 275.159 59.9379C275.144 60.1994 275.329 60.461 275.406 60.7225C275.59 60.2918 275.821 59.8764 275.913 59.4303C275.959 59.2611 275.698 59.0148 275.483 58.6764Z" fill="#1D3D6C"/>
<path d="M119.1 317.103C117.546 316.026 116.284 314.672 114.208 314.242C112.392 313.872 111.407 312.088 110.884 310.288C110.007 307.242 109.192 304.195 108.208 300.595C110.607 300.595 112.7 300.626 114.777 300.58C115.9 300.565 116.377 300.995 116.423 302.165C116.469 303.18 117.238 303.242 118.1 303.042C118.377 302.98 118.838 303.149 119.038 303.38C120.823 305.272 122.577 305.518 124.823 304.534C130.269 302.118 135.7 299.611 141.284 297.549C145.3 296.072 149.238 294.211 153.607 293.78C157.515 293.395 161.376 292.565 165.284 292.411C170.653 292.18 176.022 292.149 181.268 290.78C181.853 290.626 182.868 290.857 183.207 291.288C183.884 292.18 183.222 294.503 182.268 294.78C180.484 295.288 178.607 295.519 178.453 297.98C178.438 298.226 177.715 298.672 177.392 298.611C174.992 298.165 172.576 299.734 170.192 298.503C167.099 300.442 163.607 299.211 160.346 299.734C157.699 300.165 155.084 301.426 152.5 301.334C148.561 301.195 145.623 303.518 142.238 304.642C138.3 305.949 134.669 308.226 130.915 310.088C129.346 309.103 128.392 310.549 127.269 311.103C125.915 311.78 124.577 312.565 123.423 313.534C122.177 314.58 121.146 315.888 120.023 317.072C119.715 317.103 119.408 317.103 119.1 317.103Z" fill="#1D3D6C"/>
<path d="M69.6537 282.875C71.0229 282.26 72.1767 281.968 73.069 281.306C76.069 279.106 79.5151 278.183 83.0535 277.352C86.1458 276.629 89.1303 275.414 92.2226 274.706C99.4995 273.06 106.822 271.168 114.315 272.321C117.669 272.845 120.853 274.444 124.099 275.629C125.069 275.983 125.946 276.614 126.976 277.183C126.192 278.475 125.699 280.121 123.607 278.906C123.469 278.829 123.253 278.691 123.192 278.737C122.653 279.168 122.192 279.921 121.607 279.998C121.223 280.06 121.761 278.183 120.284 278.706C119.576 278.952 118.869 279.291 118.146 279.383C117.253 279.491 116.299 279.475 115.407 279.306C114.684 279.168 113.776 278.291 113.361 278.506C110.084 280.198 106.484 277.768 103.146 279.521C101.346 280.475 99.0841 280.721 97.0072 280.921C96.1302 281.014 95.5918 280.66 94.9611 281.737C94.5919 282.368 92.5457 283.26 93.1918 280.706C92.4995 280.691 91.8073 280.66 91.115 280.644C91.6227 281.968 90.6688 282.352 89.7457 282.721C86.2996 284.075 82.8535 285.429 79.392 286.737C75.3151 288.275 71.269 289.86 68.6382 293.66C67.8844 294.752 67.1306 295.383 65.6075 294.552C64.7922 294.106 63.5306 294.475 62.2998 294.475C62.2845 294.152 62.2998 293.552 62.2228 292.967C62.1305 292.321 62.3921 291.798 61.069 291.752C58.6383 291.66 57.2691 290.014 57.0999 287.352C56.9768 285.444 55.5769 283.244 56.1922 281.767C57.0538 279.675 55.9153 278.244 55.7614 276.537C55.4537 273.06 57.7769 271.291 60.0538 269.552C60.4999 269.198 61.9614 269.537 62.4845 270.045C64.0383 271.521 65.2076 273.414 66.7922 274.844C69.1152 276.983 70.0075 279.521 69.6537 282.875Z" fill="#1D3D6C"/>
<path d="M175.145 268.951C176.529 266.736 177.729 264.844 178.898 262.951C179.022 262.751 179.175 262.336 179.129 262.305C178.36 261.813 177.375 261.321 178.375 260.29C179.606 259.028 180.837 257.69 182.329 256.828C183.437 256.182 184.083 258.521 185.806 257.967C186.406 257.767 187.667 259.213 188.929 258.336C189.129 258.198 189.544 258.274 189.806 258.382C190.975 258.844 192.529 260.09 193.206 259.721C196.237 258.075 199.283 256.259 201.852 253.967C205.56 250.659 209.237 247.167 212.221 243.213C214.898 239.675 218.683 237.844 221.944 235.228C222.298 234.936 223.39 234.89 223.483 235.075C223.96 235.936 224.298 236.905 224.452 237.89C224.498 238.167 223.698 238.921 223.406 238.875C222.221 238.644 221.606 238.659 222.221 240.105C222.344 240.413 222.283 240.952 222.083 241.228C219.944 244.305 217.79 247.382 215.575 250.413C209.852 258.259 202.39 264.059 193.975 268.751C191.498 270.136 188.698 270.859 186.298 272.228C183.991 273.551 182.344 271.197 180.344 271.967C180.221 272.013 179.729 271.628 179.729 271.444C179.698 269.29 178.544 269.505 177.037 269.967C176.652 270.074 176.021 269.428 175.145 268.951Z" fill="#1D3D6C"/>
<path d="M136.161 237.23C138.93 235.461 141.545 236.938 144.207 237.846C145.653 238.338 146.915 238.692 146.468 240.954C146.253 242.077 147.653 243.492 148.222 244.83C148.545 245.584 148.992 247.046 148.807 247.138C146.992 248.123 149.545 250.753 146.93 251.538C145.515 251.969 144.392 253.4 142.838 254.6C142.099 254.215 141.053 253.63 139.976 253.138C138.961 252.661 137.992 251.63 136.715 252.646C136.653 252.707 136.207 252.292 135.946 252.107C137.284 250.369 135.469 250.369 134.699 249.661C131.607 246.815 129.838 243 128.453 239.231C126.607 234.184 125.192 228.892 124.284 223.584C123.253 217.508 121.253 211.523 121.853 205.215C121.93 204.461 121.792 203.646 122.038 202.954C122.207 202.462 122.792 201.908 123.284 201.8C123.623 201.723 124.222 202.292 124.53 202.708C127.115 206.138 127.946 210.308 129.423 214.215C129.638 214.785 129.976 215.354 129.976 215.923C129.961 221.631 132.192 226.8 133.822 232.107C134.346 233.815 135.299 235.384 136.161 237.23Z" fill="#1D3D6C"/>
<path d="M199.545 193.215C201.822 194.061 202.545 195.43 202.622 197.507C202.837 203.599 208.129 206.43 213.437 203.322C214.729 202.569 215.729 201.353 216.945 200.446C217.36 200.138 218.206 199.861 218.483 200.076C218.868 200.369 219.222 201.246 219.052 201.661C218.375 203.292 217.729 205.046 216.652 206.399C213.329 210.569 208.76 211.922 203.606 211.307C202.822 211.215 202.037 210.445 201.406 209.83C199.622 208.061 198.068 205.676 197.822 204.784C196.729 200.769 197.206 196.984 199.545 193.215Z" fill="#1D3D6C"/>
<path d="M152.853 178.859C153.253 178.921 153.699 178.936 154.13 179.044C156.883 179.752 156.868 179.767 156.914 182.782C156.914 183.198 157.284 183.721 157.13 184.013C156.161 185.859 156.914 187.582 158.268 188.413C159.622 189.244 161.545 188.967 162.96 187.798C164.576 186.459 166.114 185.044 167.653 183.613C168.191 183.121 168.56 182.444 169.13 181.982C169.93 181.336 170.745 181.767 170.883 182.582C172.514 191.998 163.653 196.567 157.345 194.69C151.822 193.044 151.391 190.628 151.899 185.582C152.13 183.352 150.961 180.936 152.853 178.859Z" fill="#1D3D6C"/>
<path d="M182.668 186.247C187.16 185.908 187.591 186.262 187.114 190.277C186.96 191.585 186.514 192.877 186.022 194.108C185.483 195.462 184.406 196.6 184.914 198.308C185.299 199.585 184.053 198.847 183.668 199.123C182.483 199.985 183.299 201.877 182.022 202.8C182.345 207.016 179.499 209.816 177.606 213.154C175.883 211.123 173.653 209.585 174.022 206.616C174.176 205.339 173.914 203.923 174.391 202.785C175.468 200.231 176.13 197.462 178.253 195.37C179.668 193.97 179.745 191.631 181.806 190.37C182.622 189.862 182.406 187.647 182.668 186.247Z" fill="#1D3D6C"/>
<path d="M184.33 225.965C180.684 229.242 176.914 231.195 172.084 230.318C171.345 230.18 170.591 229.98 169.838 229.965C167.915 229.934 166.976 229.119 166.068 227.257C165.007 225.057 162.945 223.334 161.345 221.365C160.238 219.995 160.376 218.749 161.807 218.719C163.822 218.688 165.653 217.626 168.007 218.642C171.253 220.026 174.084 222.349 177.791 222.872C179.945 223.18 181.899 224.765 184.33 225.965Z" fill="#1D3D6C"/>
<path d="M240.113 64.8922C241.467 64.723 242.206 65.1998 241.99 66.6767L242.067 66.5998C241.467 65.9845 240.852 65.3537 240.252 64.7383L240.113 64.8922Z" fill="#1D3D6C"/>
</svg>
