<svg width="110" height="143" viewBox="0 0 110 143" fill="none" xmlns="http://www.w3.org/2000/svg">
<path d="M0.941895 24.5195C0.941895 24.1695 0.941895 23.8095 0.941895 23.4595C1.93189 22.4695 3.4619 21.6395 3.8019 20.4595C4.96189 16.4695 8.2319 15.4995 11.4919 14.2795C14.0719 13.3095 16.6019 12.1695 19.1219 11.0395C20.0419 10.6295 20.7419 9.74947 21.8919 10.8095C22.3119 11.1895 23.4319 11.0295 24.1419 10.8195C26.1219 10.2195 28.0119 9.24947 30.0219 8.81947C32.6719 8.24947 35.5819 8.51948 38.0719 7.59948C44.3519 5.27948 50.7819 3.98947 57.4319 3.52947C59.2919 3.39947 61.6019 3.64947 62.8919 2.65947C65.7419 0.489471 68.9519 1.09947 71.9619 0.349473C73.9719 -0.150527 73.7319 1.16947 73.2919 1.65947C72.5119 2.52947 72.4219 3.86947 70.6519 4.22947C66.7219 5.01947 62.8219 6.18947 59.1119 7.69947C51.7019 10.7095 43.8519 11.4895 36.0719 12.2895C28.2019 13.0895 20.4719 13.8295 13.2819 17.5995C8.37189 20.1795 6.42189 26.1295 9.58189 30.7495C10.1319 31.5595 11.1419 32.5595 11.9719 32.5895C15.2019 32.7195 18.1919 35.5695 21.6019 33.5195C26.0119 34.4895 30.1519 32.6795 34.4119 32.1595C38.6919 31.6295 43.0419 31.0695 46.9019 28.8095C47.6219 28.3895 48.5519 28.1595 49.3919 28.1195C54.8519 27.8595 60.0819 26.6695 65.1819 24.7095C66.4719 24.2195 67.8719 24.0095 69.2419 23.7595C74.4819 22.7895 80.0219 24.0795 85.0819 21.6495C85.5019 21.4495 86.1619 21.5195 86.6419 21.6695C91.7519 23.2595 96.3119 19.7795 101.372 20.0795C103.872 20.2295 106.482 18.6095 109.762 17.5595C108.722 19.8595 107.912 21.5295 107.192 23.2395C106.342 25.2495 108.442 26.9495 107.842 28.9695C107.702 29.4495 107.822 30.0195 107.622 30.4595C105.722 34.6895 105.782 39.1495 105.962 43.6295C105.992 44.4595 106.462 45.3495 106.272 46.0995C105.092 50.8395 105.142 55.6495 105.322 60.4695C105.352 61.3395 105.902 62.6595 105.522 62.9895C103.302 64.9595 104.672 67.1695 104.802 69.2995C104.862 70.3495 105.092 71.4595 104.892 72.4595C104.282 75.4595 104.252 78.3595 104.372 81.4695C104.582 86.6195 103.422 91.9195 102.272 97.0295C100.802 103.529 100.792 110.099 100.382 116.659C100.112 120.849 99.9119 125.039 99.5719 129.219C99.5219 129.819 98.7619 130.329 98.4819 130.939C97.4819 133.089 95.2819 133.089 93.5019 133.489C83.4919 135.769 73.4719 138.039 63.0619 137.149C59.7919 136.869 56.5619 137.559 54.0019 139.579C50.6819 142.189 47.0019 142.699 43.0419 142.489C35.6319 142.089 28.2219 141.729 20.8219 141.209C18.1319 141.019 15.7119 140.069 13.9619 137.759C13.1219 136.649 12.1619 135.489 11.0119 134.749C5.4319 131.189 5.4219 131.239 5.4019 125.709C5.3919 123.589 5.3919 121.449 5.1819 119.349C4.2419 110.259 3.85189 101.169 4.39189 92.0395C4.47189 90.6395 4.8819 89.2495 4.8219 87.8695C4.4319 79.4495 3.8219 71.0395 3.5519 62.6095C3.4319 58.7995 4.8219 54.7195 3.8819 51.1995C2.4019 45.6795 5.35189 40.2595 3.33189 34.9395C4.48189 31.0295 2.40189 27.8495 0.941895 24.5195ZM61.5519 43.0495C58.3119 43.6795 57.5519 45.5895 57.1119 47.7795C56.8419 49.1495 56.5919 50.5295 56.1919 51.8695C55.6119 53.8695 55.4719 56.6795 54.1119 57.5895C52.4519 58.6995 49.6819 58.5595 47.4619 58.3095C44.0519 57.9195 42.0819 59.9495 40.4819 62.1595C38.9919 64.2295 38.1819 66.7995 37.1519 69.1795C36.9019 69.7695 36.6419 70.7695 36.9419 71.0995C38.5919 72.9695 37.8219 74.7395 36.8619 76.4595C35.8119 78.3495 36.8219 79.6595 38.2019 80.4295C39.6719 81.2395 41.4319 81.6995 43.1219 81.9395C45.5319 82.2795 47.9819 82.2895 50.9619 82.4695C50.5219 84.6395 50.2519 86.3095 49.8419 87.9395C49.4619 89.4595 48.7819 90.9295 48.5219 92.4695C48.0519 95.2295 48.0619 98.0995 47.3719 100.789C46.1619 105.469 46.1819 105.559 41.8219 104.729C40.4419 104.469 38.9619 104.479 37.6919 103.959C33.9919 102.439 30.7819 103.309 27.3919 105.109C25.7719 105.969 24.4819 106.949 24.7219 108.489C24.8919 109.589 26.2519 110.899 27.3919 111.389C29.8019 112.419 32.3819 113.309 34.9719 113.619C37.6119 113.939 39.9119 116.489 43.0019 114.689C43.7219 114.269 44.2919 115.929 44.0619 117.119C43.4019 120.659 45.3619 123.119 47.7219 125.309C49.2919 126.769 50.7019 126.259 51.1019 124.199C51.2019 123.689 51.0419 123.119 51.1719 122.609C52.2119 118.299 52.9719 113.759 59.0519 113.909C60.2019 113.939 60.8019 111.099 62.6719 113.099C62.9619 113.409 64.4519 113.039 65.0319 112.559C68.2919 109.869 71.4719 107.079 74.5919 104.239C74.9619 103.899 75.0819 102.539 74.9019 102.439C73.4019 101.649 74.2619 100.719 74.6219 99.8295C76.3219 95.5695 77.4319 91.5295 72.7219 88.1795C71.5619 87.3595 71.1319 85.4995 70.3719 84.1095C70.0519 83.5095 69.8619 82.4495 69.4519 82.3595C67.2319 81.8695 66.6619 80.1195 65.5519 78.5095C64.8019 77.4195 62.5119 77.3895 60.9119 76.8795C60.6719 77.7495 60.6919 79.3295 59.3519 77.6095C59.0619 77.2395 59.0819 76.1895 59.3819 75.8795C61.2719 73.9895 60.4019 71.5295 60.8719 69.3595C61.2019 67.8395 60.9719 65.8395 61.8719 64.8995C63.3919 63.3095 65.7319 61.2395 67.5219 61.4195C71.9219 61.8695 73.7619 58.2695 77.0019 56.8495C72.4519 55.6195 67.9619 55.0395 63.0919 55.9695C62.5619 51.5195 62.0719 47.4395 61.5519 43.0495ZM8.7619 102.969C8.7619 105.079 8.7919 106.569 8.7619 108.039C8.6219 114.709 9.4119 121.269 11.4619 127.629C11.9219 129.069 12.6519 130.619 13.7219 131.619C15.1419 132.939 17.0219 133.769 19.4219 135.249C18.7619 133.419 18.6419 132.059 17.9119 131.269C14.8419 127.949 13.3619 123.959 12.0019 119.729C11.1019 116.939 10.5319 114.589 11.4119 111.639C12.3119 108.679 12.5819 105.339 8.7619 102.969ZM94.0219 126.639C95.2519 116.329 96.3619 105.989 96.2319 95.5595C93.8319 105.789 92.4619 116.089 94.0219 126.639ZM98.6819 36.8295C98.6819 38.0395 98.5519 39.1095 98.7419 40.1195C98.8319 40.5995 99.5219 41.2895 99.9719 41.3195C101.042 41.3995 100.782 40.8795 100.452 40.0695C100.082 39.1495 100.082 38.0095 100.202 36.9895C100.382 35.5295 101.952 33.0795 100.302 32.8895C97.6719 32.5895 99.3319 35.5895 98.6819 36.8295ZM9.3019 66.2495C9.3019 70.1795 9.3019 73.5595 9.3019 76.9395C10.8919 73.4595 11.4419 70.0395 9.3019 66.2495Z" fill="#1D3D6C"/>
<path d="M97.8318 7.98956C95.5818 11.4996 92.1118 12.6296 88.2018 12.9696C83.6118 13.3696 79.2018 14.6196 74.7418 15.7096C71.0018 16.6196 67.1318 16.9996 63.3518 17.7596C58.1218 18.8096 52.9018 19.9296 47.7118 21.1596C45.9218 21.5896 44.2818 22.7696 42.4818 23.0696C36.5418 24.0696 30.8418 26.2996 24.6818 26.2696C22.5818 26.2596 22.1318 24.7796 20.5718 23.4796C21.8618 23.1996 22.7818 22.9496 23.7218 22.8096C24.3718 22.7096 25.4018 23.0396 25.6518 22.7096C28.3718 19.1196 33.0718 21.2396 36.2018 18.9596C38.5918 19.9196 40.3718 18.6696 42.4618 17.6896C44.6018 16.6796 47.1918 16.6796 49.5418 16.0596C50.8618 15.7096 52.4318 14.2296 53.2918 14.6096C55.3718 15.5296 55.8718 13.2496 57.2618 13.2496C58.6218 13.2396 60.1618 13.9296 61.3118 13.4996C65.8818 11.7796 71.1618 13.0396 75.3818 10.0396C78.4118 11.2996 80.6318 9.06956 83.1918 8.27956C84.3118 7.92956 85.5818 8.07955 86.7918 8.00955C87.9718 7.93955 89.3818 8.27956 90.3018 7.74956C92.9618 6.22956 95.3618 7.10956 97.8318 7.98956Z" fill="#1D3D6C"/>
<path d="M59.2719 83.5202C62.0419 82.7802 63.2719 84.3302 64.4419 85.9402C65.9819 88.0802 67.5619 90.2001 68.9319 92.4501C69.4019 93.2201 69.7519 94.7501 69.3419 95.2501C66.3319 98.8902 63.3619 102.7 58.4219 103.93C56.3319 104.45 55.1919 103.73 55.4819 101.62C56.0719 97.2901 57.0119 93.0001 57.8919 88.7101C58.2219 87.0001 58.7819 85.3302 59.2719 83.5202Z" fill="#1D3D6C"/>
<path d="M53.8719 68.8496C53.7419 70.0496 53.6619 71.2596 53.4819 72.4596C53.0319 75.4296 52.1919 75.7696 49.0619 75.4396C47.2619 75.2496 45.3819 76.0096 43.5219 76.0696C42.6519 76.0996 41.5819 75.6596 40.9619 75.0696C40.6919 74.8096 41.2019 73.5396 41.5919 72.8496C42.1019 71.9596 43.2919 71.2596 43.4019 70.3796C43.8319 66.8696 46.4719 66.0696 49.1519 65.2496C52.6519 64.1796 53.9919 65.2296 53.8719 68.8496Z" fill="#1D3D6C"/>
</svg>
