<svg width="115" height="229" viewBox="0 0 115 229" fill="none" xmlns="http://www.w3.org/2000/svg">
<path d="M90.5785 93.2824C91.6585 92.7224 92.2486 92.3324 93.4486 92.6224C97.2686 93.5424 100.068 96.2524 103.508 97.8024C105.858 98.8624 108.119 100.142 110.349 101.442C111.749 102.262 113.069 103.232 114.359 104.232C114.909 104.662 114.939 105.232 114.379 105.892C113.879 106.482 113.629 107.312 113.339 108.052C113.249 108.272 113.329 108.772 113.459 108.822C115.049 109.452 114.788 110.562 114.508 111.892C114.248 113.102 114.419 114.392 114.309 115.642C113.939 119.912 112.589 123.992 111.839 128.192C111.559 129.782 111.289 131.372 110.929 132.942C110.469 134.932 109.929 136.912 109.409 138.882C109.149 139.882 108.829 140.862 108.559 141.852C107.999 143.912 107.619 146.032 106.879 148.022C105.039 152.962 102.939 157.812 101.129 162.772C100.319 164.982 98.5985 166.282 97.0385 167.762C96.0685 168.682 94.9987 168.402 94.4887 167.042C93.5187 164.462 92.6387 161.922 92.9887 158.962C93.2587 156.682 92.5685 154.282 92.2885 151.932C92.1585 150.862 91.8686 149.792 91.8886 148.722C91.9486 144.912 91.3986 141.192 90.6386 137.462C90.2286 135.462 90.2286 133.382 89.8886 131.362C89.3086 127.972 88.6286 124.592 87.9386 121.222C87.8386 120.742 87.5987 120.172 87.2287 119.882C85.8887 118.812 84.4686 117.842 82.9486 116.742C81.9886 118.812 81.0486 121.042 79.9386 123.182C79.4386 124.152 78.6085 124.962 77.8385 125.962C78.1185 127.762 78.6087 129.792 78.7287 131.842C78.8987 134.862 79.0785 137.932 78.0685 140.872C77.9285 141.292 77.4086 141.942 77.1586 141.902C76.1686 141.742 75.8085 141.612 75.3085 142.962C74.6985 144.582 72.9486 145.742 70.9486 145.942C68.3886 146.192 65.9286 146.762 63.4186 147.352C59.5386 148.262 55.4385 149.182 51.4685 148.902C47.6385 148.632 43.9486 149.732 40.1486 149.292C39.1386 149.172 38.0686 149.782 37.0086 149.862C35.1186 150.002 34.0585 149.062 34.4485 147.312C34.7785 145.872 34.5185 144.592 34.4485 143.202C34.3685 141.602 35.1786 139.942 35.6686 138.332C35.8186 137.822 36.2285 137.402 36.4485 136.912C37.9585 133.482 37.8485 132.682 35.5585 129.572C33.8885 127.302 32.7885 124.862 33.0785 121.922C33.1185 121.552 33.5686 120.732 32.6486 120.272C32.3686 120.132 32.6086 118.972 32.6086 118.052C31.5586 118.522 30.5186 118.952 29.5086 119.432C28.5086 119.912 27.8886 120.542 27.5186 121.772C26.9486 123.672 26.2486 125.592 24.7286 127.112C24.0286 127.812 23.8286 129.022 23.4186 130.012C22.5086 132.202 21.5886 134.382 20.7286 136.582C20.0286 138.382 19.5286 140.252 18.7586 142.022C16.8286 146.452 14.7885 150.832 12.8085 155.242C12.0585 156.912 11.2986 158.582 10.6386 160.292C9.83859 162.362 9.13859 164.482 8.38859 166.572C7.82859 168.142 6.37862 168.342 5.16862 168.672C4.38862 167.472 3.55861 166.362 2.90861 165.142C1.43861 162.402 0.698607 158.142 0.658607 154.322C0.638607 152.062 0.258597 149.802 0.148597 147.532C0.028597 144.972 -0.141466 142.322 0.208534 139.872C0.878534 135.192 0.398612 130.512 0.788612 125.872C1.24861 120.282 2.04856 114.712 2.73856 109.132C2.83856 108.282 2.60853 106.862 4.32853 107.702C4.35853 107.712 4.61859 107.422 4.63859 107.252C4.83859 105.612 6.3286 104.832 7.3986 104.412C9.4886 103.592 11.0685 102.202 12.8085 100.942C16.6685 98.1624 20.6185 95.5024 24.5685 92.8624C25.3985 92.3024 25.7786 91.6624 25.7486 90.7124C25.7386 90.4924 25.7285 90.2724 25.7185 90.0624C25.6885 86.5424 25.3786 83.0324 25.6286 79.5024C25.7686 77.5224 25.1686 75.5224 25.6186 73.4824C26.2386 70.7024 26.1286 67.7724 27.9286 65.2624C28.3986 64.6124 28.1385 63.3824 28.0985 62.4324C28.0685 61.6924 27.6086 60.9224 27.7386 60.2424C28.2086 57.8124 28.8386 55.4124 29.4286 53.0024C29.9186 51.0024 30.3486 48.9824 30.9986 47.0424C31.4686 45.6424 32.2486 44.3524 32.8986 43.0224C32.9386 42.9324 33.0886 42.8824 33.1186 42.7924C34.1786 40.1824 35.3885 37.6224 36.2185 34.9324C36.7285 33.2924 37.1585 31.6424 38.2185 30.3024C40.7985 27.0424 42.1786 23.0024 45.1386 19.9924C48.1686 16.9124 50.7186 13.4324 53.3586 10.0224C55.8586 6.8024 58.9586 4.03241 61.8886 1.16241C63.2486 -0.16759 64.7685 -0.417643 66.5785 0.732357C68.0085 1.64236 70.0184 1.76239 71.2485 2.83239C72.3885 3.82239 73.1885 5.3924 74.0285 6.7124C75.6885 9.3124 76.7985 12.2724 78.0785 15.1124C78.5185 16.0924 78.6786 17.2024 79.1486 18.1724C79.5686 19.0324 80.3985 19.7124 79.7985 20.8424C79.6985 21.0324 79.8985 21.4424 80.0585 21.6824C81.8985 24.4024 82.0586 27.6224 82.9086 30.6524C83.5186 32.8124 83.9385 35.0124 84.5485 37.1724C85.7885 41.5324 86.8687 45.9324 87.9887 50.3224C88.4387 52.0924 88.6585 53.9524 89.3285 55.6424C90.8785 59.5524 89.8084 63.7724 90.9985 67.7024C89.9585 69.6224 91.3687 71.4524 91.2387 73.3724C91.1187 75.2624 91.4485 77.1924 91.5785 79.1024C91.5985 79.3124 91.7486 79.5624 91.6786 79.7224C90.1086 83.2224 91.9585 87.0624 90.5785 90.6024C90.3585 91.2524 90.5785 92.0924 90.5785 93.2824ZM49.2286 23.6524C46.4686 28.0324 43.3185 32.2124 41.0585 36.8324C37.3085 44.5124 35.0886 52.7824 32.9086 61.0324C32.4986 62.5824 31.7986 64.1324 31.7986 65.6824C31.7986 67.8324 31.4186 69.8624 31.0286 71.9324C30.6286 74.0324 30.3385 76.1924 30.3485 78.3224C30.3885 82.3124 29.8985 86.3024 30.8085 90.3024C31.7385 94.3824 32.2386 98.5624 32.9286 102.692C33.2086 104.382 33.3986 106.102 33.7886 107.762C34.7386 111.802 35.7086 115.842 36.7886 119.842C37.6386 122.992 37.4386 126.422 39.3986 129.402C39.9986 128.842 41.0285 128.332 41.0985 127.722C41.2985 125.962 42.6985 125.582 43.8185 124.852C44.9885 124.092 46.2085 123.592 47.7085 123.552C48.9385 123.522 50.1886 122.932 51.3786 122.462C55.5686 120.812 60.0786 121.282 64.3886 120.402C67.4686 121.292 70.3785 120.192 73.3085 119.542C73.8785 119.412 74.7785 118.902 74.7985 118.522C74.9285 115.922 76.3785 113.872 77.3285 111.602C78.5285 108.732 79.1787 105.632 80.4587 102.802C83.2687 96.5824 84.0585 89.9724 84.5985 83.3024C84.8286 80.4124 84.7286 77.4924 84.6186 74.5824C84.4986 71.3324 84.0585 68.0824 84.0185 64.8324C83.9485 59.0524 82.9287 53.4924 80.9887 48.0524C80.0587 45.4424 79.4485 42.7124 78.7585 40.0224C77.6185 35.5824 76.5386 31.1224 75.4386 26.7024C73.3186 27.1624 71.5485 27.6224 69.7585 27.9224C68.0685 28.2124 66.3186 28.6724 64.6686 28.4724C62.0286 28.1624 59.3885 27.5424 56.8385 26.7424C54.3985 26.0024 52.0686 24.8424 49.2286 23.6524ZM26.5086 96.0024C25.5086 97.1124 24.7685 97.9024 24.0785 98.7224C22.1385 101.022 20.2386 103.282 17.1686 104.282C16.3186 104.562 15.1886 105.332 14.6186 106.022C12.8786 108.112 10.9786 109.792 8.37858 110.692C7.37858 111.042 7.05859 112.232 7.88859 113.032C8.88859 114.002 8.76859 115.142 8.51859 116.042C7.96859 118.032 8.15862 120.082 7.79862 122.032C7.02862 126.262 7.10857 130.462 7.24857 134.702C7.29857 136.232 6.83858 137.772 6.75858 139.322C6.52858 143.612 6.53856 147.902 6.98856 152.282C7.73856 151.692 8.25859 151.042 8.63859 150.322C9.38859 148.912 9.96859 147.402 10.7686 146.022C13.2086 141.832 14.3186 137.062 16.5186 132.772C17.7386 130.392 18.5686 127.782 20.2386 125.652C21.6586 123.832 22.4886 121.812 23.2386 119.652C24.0786 117.222 25.8285 115.262 28.1885 114.042C28.9785 113.632 29.9486 113.922 30.4286 112.612C30.8786 111.392 30.0385 111.072 29.7085 110.362C29.0685 108.992 28.6885 107.552 29.2085 106.032C27.3485 103.122 27.8486 99.5924 26.5086 96.0024ZM83.9587 113.502C84.8387 113.752 85.7086 114.102 86.6086 114.232C88.7086 114.532 90.5786 115.542 91.6986 117.142C92.6986 118.562 93.5686 120.402 92.8586 122.392C92.6386 123.002 92.5985 123.412 93.5485 123.222C93.9085 123.152 94.6685 123.582 94.7685 123.922C95.4085 126.082 96.0086 128.252 96.4386 130.462C96.9786 133.212 97.1486 136.052 97.8485 138.752C98.6086 141.672 98.5285 144.542 98.2685 147.472C98.2285 147.922 98.3686 148.392 98.4186 148.852C98.5586 148.872 98.7085 148.892 98.8485 148.902C99.1685 148.162 99.4885 147.422 99.8085 146.682C101.569 142.612 102.569 138.302 103.639 134.032C105.069 128.312 106.388 122.552 107.528 116.762C108.068 114.012 108.109 111.172 108.339 108.372C108.419 107.462 108.219 106.912 107.139 106.442C104.969 105.492 102.949 104.192 100.919 102.962C97.3786 100.822 94.0085 98.3724 89.7485 96.9224C88.8084 102.842 85.6387 107.802 83.9587 113.502ZM65.7387 6.22241C63.9587 7.66241 62.1286 8.8524 60.6786 10.4024C58.2386 13.0124 56.0386 15.8524 53.7586 18.6124C53.0686 19.4524 53.2586 20.3224 54.2686 20.6224C56.2386 21.2024 58.2286 21.7424 60.2386 22.1524C64.2486 22.9724 68.2585 22.3124 72.2685 22.0924C73.3985 22.0324 73.8586 21.3624 73.4386 20.3324C72.3286 17.6524 71.1587 15.0024 69.9687 12.3624C68.9487 10.0924 67.5187 8.10241 65.7387 6.22241ZM51.7586 129.262C48.6886 130.222 46.0685 131.062 43.4385 131.862C42.3385 132.192 41.8586 132.802 41.9886 133.982C42.2486 136.392 41.8586 138.722 40.9086 140.952C40.8286 141.152 40.7285 141.352 40.6985 141.562C40.5785 142.492 41.1085 142.992 42.1985 142.912C43.7685 142.802 45.3386 142.632 46.6686 142.502C48.3386 138.162 49.9486 133.982 51.7586 129.262ZM61.8886 127.112C59.5586 127.662 57.6986 128.102 55.5386 128.612C57.8286 133.312 54.7785 137.472 54.3485 141.822C55.6885 141.822 56.8285 141.882 57.9685 141.802C58.8285 141.742 59.5786 141.502 59.7486 140.362C60.3986 136.052 61.1386 131.742 61.8886 127.112ZM71.9186 139.222C71.7186 134.742 71.5386 130.582 71.3686 126.572C69.2086 126.782 67.2286 126.972 64.9386 127.182C65.2586 128.212 65.3186 129.252 65.8485 129.912C67.4986 131.952 67.0886 134.092 66.6086 136.342C66.3686 137.442 66.3386 138.592 66.1786 140.062C68.3386 139.742 70.0886 139.492 71.9186 139.222Z" fill="#1D3D6C"/>
<path d="M41.2085 195.952C38.3685 197.322 36.9785 200.032 34.9685 202.112C33.4085 203.732 32.1686 205.662 30.6786 207.362C30.1486 207.972 29.2885 208.292 28.3385 208.892C25.8785 205.332 23.3185 202.082 24.8385 197.332C25.4485 195.422 25.3086 193.272 25.6786 191.272C26.0386 189.382 26.5285 187.502 27.1285 185.672C28.2885 182.112 29.3085 178.482 30.8485 175.082C32.9985 170.342 35.9986 166.242 40.5386 163.312C43.5386 161.382 46.2985 159.102 49.8285 158.182C52.2085 157.562 54.5986 156.912 57.0186 156.502C59.5186 156.082 61.9786 156.702 64.3886 157.362C65.6286 157.702 66.8084 158.232 68.0184 158.672C67.8084 159.362 67.2986 160.652 68.4686 160.152C69.6986 159.622 70.3885 160.022 71.0885 160.552C75.8985 164.162 79.9586 168.412 81.9686 174.242C83.9486 180.012 85.2385 185.942 84.5785 192.062C84.2685 194.932 83.5585 197.832 82.5585 200.542C81.8585 202.442 81.2986 204.372 80.6386 206.272C79.9686 208.192 79.3686 210.142 78.6886 212.062C78.4486 212.752 78.0486 213.382 77.6886 214.132C76.3686 213.602 75.3885 213.022 74.5885 211.812C73.8085 210.652 73.2587 209.022 71.4887 208.702C71.1586 208.642 70.7886 208.162 70.6486 207.802C69.0086 203.382 65.5784 200.062 63.5084 196.002C62.4884 198.392 61.3486 200.682 60.5186 203.082C59.0786 207.232 57.9085 211.482 56.4585 215.642C55.2185 219.202 53.4285 222.512 51.2385 225.602C50.7585 226.282 50.3186 227.012 49.9186 227.752C49.1086 229.252 47.9086 229.372 46.6486 228.172C44.7486 226.372 43.7686 224.402 43.9286 221.612C44.0786 218.962 43.4785 216.272 43.2085 213.602C43.0485 212.002 42.7185 210.402 42.7385 208.802C42.7785 206.072 42.1386 203.472 41.6686 200.822C41.3786 199.252 41.3585 197.632 41.2085 195.952ZM60.9885 174.642C59.8585 178.512 58.7886 182.102 57.7886 185.702C57.2986 187.452 56.3986 188.832 54.6786 189.762C53.9186 188.602 52.9685 187.522 52.4485 186.272C51.8485 184.832 51.3986 183.252 51.2686 181.702C50.9786 178.142 50.9386 174.572 50.7786 170.662C49.1386 172.192 47.6385 173.542 46.1985 174.952C45.3885 175.752 44.5285 176.572 43.3785 176.112C42.3485 175.712 42.1785 175.972 41.9385 176.912C41.8185 177.362 41.0186 177.642 40.5286 178.002C40.1986 177.502 39.7186 177.042 39.5486 176.482C39.0286 174.742 39.2785 172.912 39.2585 170.672C37.6385 173.992 36.0686 176.812 34.8886 179.782C33.7886 182.542 32.8786 185.422 32.2986 188.332C31.6786 191.402 30.5785 194.452 30.8685 198.362C32.2285 196.892 33.1686 195.932 34.0486 194.902C35.3086 193.422 36.4985 191.922 38.3585 191.082C39.2185 190.692 40.1486 190.122 40.6786 189.382C41.3586 188.432 42.1286 188.362 43.1386 188.262C44.8286 188.102 45.2785 188.262 45.0585 189.872C44.8885 191.122 45.1086 192.342 45.8886 193.062C46.6986 193.812 46.5886 194.552 46.6486 195.382C46.9386 199.102 47.2285 202.822 47.5685 206.542C47.8985 210.202 48.2786 213.852 48.6386 217.512C48.6886 218.062 48.7785 218.602 48.8585 219.142C49.9985 217.852 50.8386 216.562 51.1586 215.152C52.3286 209.982 54.2285 205.052 56.0885 200.122C57.3085 196.892 58.8986 193.802 60.2786 190.632C60.5586 189.992 60.8185 189.362 61.6185 189.682C64.3285 190.742 67.1385 191.752 69.1085 193.952C71.3585 196.462 73.3185 199.242 75.3585 201.852C76.7985 198.452 78.0384 194.882 78.2684 190.862C78.3984 188.602 78.0685 186.442 78.0985 184.232C78.1685 178.132 76.0187 172.872 71.9887 168.342C71.5787 167.882 71.1684 167.422 70.7484 166.962C71.6084 169.042 72.6984 170.882 72.2484 173.182C72.2084 173.382 72.2985 173.612 72.3685 173.812C73.2585 176.752 72.5984 179.802 73.0184 182.772C73.0584 183.032 72.7484 183.332 72.5284 183.762C71.7884 183.232 70.9986 182.852 70.4586 182.242C69.2686 180.892 67.8984 180.012 66.0284 179.902C65.1484 179.852 64.8286 179.702 65.1686 178.792C65.2286 178.642 64.8686 178.132 64.7086 178.132C63.0986 178.122 62.4586 177.212 62.1786 175.752C62.0886 175.362 61.4685 175.082 60.9885 174.642Z" fill="#1D3D6C"/>
<path d="M40.8084 66.5722C41.0084 66.2922 41.1585 65.9322 41.4185 65.7322C41.8985 65.3622 43.5485 65.4522 41.7985 64.3822C41.5385 64.2222 41.4485 63.2722 41.6685 62.9122C42.4285 61.6522 43.0985 60.4122 44.4085 59.4222C46.2085 58.0822 48.0084 56.4922 48.5784 54.0422C48.7084 53.4922 49.1985 52.9222 49.6785 52.5922C50.7285 51.8622 51.8685 51.2422 53.0085 50.6522C53.7685 50.2522 54.7985 49.4522 54.7585 51.3122C55.0985 51.2222 55.6485 51.2322 55.7485 51.0322C56.3885 49.6722 57.3285 49.4122 58.6785 49.9522C59.1385 50.1322 59.7185 50.0622 60.2285 50.0122C61.4685 49.8922 62.7085 49.7222 64.6085 49.4922C63.8085 50.1522 63.5684 50.3522 63.3284 50.5522C63.8984 50.7222 64.2184 51.7222 65.0684 50.9422C65.6284 50.4322 65.7184 50.5122 65.8184 51.1922C65.8484 51.3922 65.6684 51.6622 65.7484 51.8122C65.9584 52.2022 69.6784 54.3922 70.3184 54.5722C70.4784 54.6222 70.7684 54.6322 70.7884 54.7222C71.0084 55.5122 71.1885 56.3222 71.3785 57.1222C73.0085 56.2822 72.9386 57.9522 73.2086 58.5822C73.5686 59.4322 73.5886 60.5222 73.4386 61.4622C73.2386 62.7522 74.9185 63.4322 74.3485 64.7522C76.1785 69.5822 76.3985 71.7822 75.1685 76.0122C74.7285 77.5222 75.3584 79.3722 73.7584 80.5222C73.3284 83.3822 70.6586 84.7822 69.4586 87.1422C66.1786 88.8122 63.6485 92.2522 59.4085 91.5822C58.1185 91.3822 58.2085 93.1622 56.8785 92.8022C55.8085 92.5222 54.5984 92.7822 53.4484 92.7822C52.1584 92.7722 50.8585 92.8422 49.5885 92.6722C48.8185 92.5722 47.9985 92.1722 48.4185 91.0122C48.4485 90.9222 47.9585 90.6522 47.7085 90.4622C46.6885 91.9922 46.0384 90.5422 45.5584 90.0322C45.0084 89.4522 44.8685 88.5022 44.4285 87.7722C44.0985 87.2222 43.5885 86.7722 43.1685 86.2722C44.0485 85.6522 41.3285 85.7122 42.9085 84.8222C43.2685 84.6222 41.7485 83.9722 42.6285 83.2022C42.6885 83.1422 42.4085 82.6822 42.2885 82.4122C41.9285 82.6322 41.5685 82.8522 40.9685 83.2322C40.5085 80.8122 39.5285 78.3722 39.7285 76.0222C39.9885 72.9222 39.3984 69.7022 40.6984 66.7022C40.7884 67.3422 40.8585 67.9922 40.9885 68.6322C41.0185 68.7922 41.3585 69.0422 41.4285 69.0122C41.6685 68.8822 42.0285 68.6222 42.0085 68.4622C41.8685 67.6922 42.1784 66.5922 40.8084 66.5722ZM59.8785 54.2422C57.8985 53.7722 56.1885 54.6922 54.3885 55.4522C50.8385 56.9522 48.4585 59.7322 46.7185 62.9322C44.8885 66.2922 44.5985 70.1322 44.7185 73.9322C44.7585 75.2022 45.3685 76.4722 45.2885 77.7222C45.1585 79.9922 46.1984 81.9122 46.8184 83.9422C47.0984 84.8622 48.0285 85.6822 48.8485 86.3022C50.1285 87.2622 51.5485 88.0522 52.9585 88.8122C54.2985 89.5422 55.0485 89.2622 55.9685 88.0222C56.2685 87.6222 56.6485 87.2122 57.0885 87.0022C60.5985 85.3122 63.6784 83.0822 66.2484 80.1322C70.7384 74.9722 71.9084 65.3322 68.2984 59.5522C66.3484 56.4022 64.1785 53.7122 59.8785 54.2422Z" fill="#1D3D6C"/>
</svg>
