<svg width="334" height="257" viewBox="0 0 334 257" fill="none" xmlns="http://www.w3.org/2000/svg">
<path d="M119.641 205.266C118.507 206.005 117.369 206.739 116.231 207.478C116.423 207.99 116.586 208.426 116.788 208.959C115.305 208.622 114.59 209.707 113.506 210.027C113.245 210.104 112.861 210.014 112.694 210.151C110.535 211.897 107.545 212.089 105.086 213.255C103.559 213.976 102.13 214.847 100.671 215.641C100.932 217.242 102.371 218.31 102.864 219.817C103.317 221.222 104.357 222.481 105.165 223.848C102.184 224.432 100.144 223.271 98.1536 221.504C95.6605 226.811 91.9454 231.349 90.3885 236.656C89.6691 236.204 89.0976 235.845 88.3831 235.401C88.2501 236.088 88.1467 236.618 88.0333 237.207C87.4322 237.207 86.8902 237.207 86.0871 237.207C85.8112 235.901 85.5254 234.53 85.2298 233.117C84.8455 233.01 84.4168 232.895 84.0079 232.78C83.934 232.613 83.865 232.472 83.8157 232.323C83.3033 230.828 85.0672 229.402 84.0079 227.861C83.9586 227.788 84.7125 227.408 84.8898 227.088C85.9984 225.086 87.0479 223.062 88.2156 220.85C85.7324 221.311 83.5891 222.054 81.2881 222.319C78.6078 222.626 78.6275 222.742 76.1787 221.627C76.4743 221 76.7601 220.372 77.0656 219.749C77.238 219.394 77.3366 218.835 77.6371 218.728C79.1202 218.203 79.0266 216.884 78.8985 216.094C78.7556 215.202 79.268 214.775 79.5636 214.07C79.9332 214.185 80.2633 214.284 80.756 214.437C81.022 212.123 83.6778 212.26 85.2298 211.197C86.1068 211.662 86.5946 211.017 87.2401 210.71C87.9545 210.364 88.7527 210.159 89.4967 209.852C89.9845 209.651 90.4328 209.382 91.0487 209.07C88.5655 205.121 87.6884 200.676 84.5942 196.714C85.4811 196.714 86.0428 196.573 86.4172 196.744C87.3041 197.15 88.1023 197.705 89.2109 198.358C89.4425 198.951 89.7923 199.831 90.2604 201.031C90.4082 200.019 90.5166 199.289 90.6348 198.469C91.8518 199.122 92.9949 199.566 93.8818 200.258C94.8032 200.98 95.4831 201.936 96.3454 202.875C97.5821 201.12 98.9814 199.528 99.883 197.747C100.76 196.018 101.125 194.093 102.105 192.325C102.071 192.65 102.031 192.978 101.977 193.457C102.44 193.533 103.027 193.632 103.588 193.73C103.869 194.199 104.145 194.656 104.421 195.117C104.49 195.711 104.554 196.309 104.638 197.043C106.446 195.839 106.106 194.05 106.88 192.645C106.323 192.944 105.889 193.316 105.672 193.764C105.426 194.276 105.357 194.853 104.574 194.985C104.746 194.212 104.835 193.414 105.111 192.667C105.608 191.317 106.185 189.985 106.801 188.67C107.096 188.034 107.555 187.458 107.934 186.864C109.294 187.372 108.924 188.303 108.944 189.037C108.993 191.262 109.171 193.529 107.308 195.489C107.589 196.027 107.89 196.595 108.116 197.022C107.781 197.555 107.594 198.089 107.195 198.431C106.367 199.135 107.446 200.04 106.658 200.847C106.136 201.377 106.342 202.406 106.081 203.174C105.805 203.981 105.362 204.741 104.923 205.655C106.677 206.056 108.018 205.335 109.387 205.078C111.61 204.66 113.773 203.998 115.98 203.507C116.458 203.4 117.079 203.499 117.542 203.682C118.286 203.973 118.951 204.408 119.651 204.784C119.641 204.942 119.641 205.104 119.641 205.266Z" fill="#D8B06C"/>
<path d="M134.971 232.136C134.427 232.719 133.88 233.3 133.334 233.884C133.498 234.192 133.637 234.455 133.809 234.777C132.95 234.706 132.677 235.469 132.113 235.78C131.977 235.855 131.754 235.835 131.677 235.939C130.68 237.266 129.046 237.681 127.817 238.667C127.053 239.278 126.361 239.975 125.643 240.625C125.968 241.623 126.884 242.165 127.327 243.081C127.736 243.935 128.453 244.639 129.054 245.434C127.47 246.099 126.211 245.556 124.91 244.62C124.128 248.258 122.583 251.523 122.319 255.07C121.87 254.851 121.514 254.677 121.069 254.463C121.072 254.915 121.075 255.264 121.078 255.652C120.746 255.711 120.446 255.764 120.001 255.842C119.702 255.034 119.389 254.185 119.066 253.31C118.842 253.279 118.592 253.248 118.352 253.214C118.293 253.115 118.239 253.031 118.195 252.94C117.743 252.035 118.558 250.95 117.799 250.068C117.763 250.027 118.138 249.71 118.2 249.488C118.588 248.099 118.94 246.702 119.338 245.173C118.015 245.711 116.913 246.396 115.67 246.79C114.221 247.248 114.245 247.32 112.765 246.847C112.858 246.416 112.945 245.987 113.044 245.558C113.099 245.315 113.091 244.948 113.245 244.85C114.007 244.369 113.806 243.535 113.647 243.042C113.467 242.485 113.702 242.162 113.787 241.683C114.004 241.72 114.198 241.751 114.488 241.801C114.375 240.295 115.859 240.123 116.598 239.291C117.136 239.503 117.333 239.043 117.656 238.784C118.012 238.493 118.431 238.284 118.808 238.014C119.055 237.838 119.273 237.622 119.579 237.363C117.76 235.08 116.774 232.323 114.616 230.091C115.107 230.005 115.402 229.86 115.628 229.932C116.165 230.105 116.669 230.382 117.356 230.691C117.551 231.048 117.843 231.577 118.237 232.298C118.205 231.637 118.183 231.159 118.156 230.623C118.903 230.922 119.586 231.094 120.154 231.45C120.745 231.822 121.229 232.367 121.812 232.883C122.299 231.64 122.894 230.485 123.192 229.258C123.483 228.067 123.468 226.799 123.811 225.573C123.829 225.784 123.844 225.998 123.868 226.309C124.133 226.313 124.468 226.319 124.79 226.327C124.998 226.6 125.202 226.865 125.407 227.133C125.512 227.505 125.615 227.881 125.744 228.343C126.609 227.396 126.219 226.285 126.489 225.311C126.215 225.557 126.017 225.837 125.947 226.145C125.869 226.497 125.895 226.872 125.477 227.033C125.485 226.522 125.444 226.003 125.513 225.498C125.636 224.586 125.805 223.678 125.998 222.777C126.09 222.341 126.279 221.928 126.422 221.511C127.231 221.703 127.132 222.335 127.225 222.802C127.503 224.22 127.856 225.653 127.047 227.088C127.262 227.405 127.493 227.738 127.666 227.989C127.541 228.363 127.497 228.723 127.315 228.981C126.936 229.512 127.635 229.985 127.29 230.578C127.061 230.968 127.291 231.606 127.233 232.123C127.171 232.666 127.011 233.195 126.872 233.823C127.887 233.908 128.548 233.315 129.277 233.018C130.459 232.533 131.582 231.898 132.748 231.369C133 231.254 133.355 231.256 133.632 231.328C134.076 231.441 134.493 231.655 134.922 231.826C134.935 231.928 134.953 232.032 134.971 232.136Z" fill="#D8B06C"/>
<path d="M138.413 190.213C138.121 190.708 138.127 191.295 138.087 191.86C137.962 193.651 137.874 195.452 137.744 197.246C137.689 197.999 137.58 198.741 137.466 199.478C137.419 199.797 137.394 200.093 137.495 200.418C137.658 200.933 137.525 201.408 137.427 201.856C136.971 202.094 136.526 202.288 136.103 202.55C135.031 203.218 133.862 203.325 132.661 203.257C132.292 203.236 131.922 203.215 131.54 203.192C131.542 203.538 131.544 203.814 131.55 204.09C131.56 204.527 131.712 204.769 132.052 204.86C133.474 205.254 134.829 205.915 136.129 206.82C136.239 206.898 136.344 207.002 136.445 207.109C136.714 207.396 136.957 207.69 137.305 207.871C137.682 208.068 137.927 208.56 138.129 209.051C138.666 210.346 138.704 211.717 138.803 213.086C138.88 214.137 138.971 215.187 139.044 216.237C139.077 216.716 139.208 217.122 139.577 217.446C139.716 216.417 139.861 215.413 139.986 214.402C140.105 213.402 140.188 212.385 140.32 211.39C140.421 210.647 140.58 209.928 140.71 209.194C140.748 208.981 140.806 208.772 140.814 208.552C140.827 208.088 140.947 207.779 141.316 207.648C141.529 207.574 141.717 207.402 141.909 207.255C142.55 206.751 143.299 206.682 144.034 206.553C145.075 206.369 146.126 206.238 147.169 206.086C147.529 206.036 147.634 205.763 147.44 205.348C147.314 205.078 147.135 204.94 146.896 204.875C146.195 204.687 145.5 204.48 144.8 204.281C143.857 204.012 142.975 203.554 142.16 202.818C141.884 202.57 141.556 202.426 141.289 202.167C140.409 201.313 139.904 200.132 139.524 198.86C139.38 198.377 139.267 197.884 139.15 197.39C138.996 196.72 138.863 196.041 138.705 195.371C138.488 194.447 138.544 193.524 138.501 192.601C138.471 191.918 138.484 191.233 138.471 190.548C138.469 190.435 138.437 190.318 138.418 190.202L138.413 190.213Z" fill="#D8B06C"/>
<path d="M263.702 120.339C264.709 119.823 264.128 118.313 265.266 117.87C265.542 117.762 265.686 117.103 266.111 117.66C267.112 118.972 267.226 117.966 267.975 117.265C269.281 116.036 271.037 115.281 272.637 114.382C272.769 114.304 273.188 114.766 273.35 114.694C273.721 114.526 274.021 114.185 274.351 113.915C273.637 113.465 274.411 113.196 274.446 112.854C274.53 111.955 274.692 111.752 275.333 112.501C276.046 113.34 276.352 113.238 276.304 112.111C276.292 111.866 276.544 111.38 276.598 111.386C278.174 111.704 278.485 110.445 279.084 109.493C279.258 109.223 279.702 109.091 280.043 108.965C280.307 108.869 280.702 108.983 280.87 108.827C281.344 108.378 281.733 107.839 282.153 107.335C282.242 108.078 282.332 108.827 282.422 109.57C282.542 109.57 282.662 109.564 282.782 109.564C282.812 108.809 282.794 108.042 282.908 107.299C282.95 107.03 283.429 106.562 283.495 106.598C284.921 107.347 285.191 106.658 285.34 105.364C285.394 104.932 286.233 104.591 286.731 104.231C286.755 104.213 287.03 104.429 287.054 104.567C287.15 105.004 287.006 105.723 287.785 104.974C287.959 104.807 288.319 104.765 288.588 104.777C289.661 104.819 290.416 104.579 290.716 103.339C290.859 102.745 291.183 103.063 291.273 103.554C291.447 104.483 291.968 104.345 292.453 103.824C293.67 102.53 294.023 102.308 296.666 101.906C297.031 101.942 296.822 101.786 296.612 101.786C296.426 101.786 296.073 101.984 296.079 102.038C296.139 102.338 296.288 102.619 296.402 102.907C296.666 102.643 296.93 102.38 296.66 101.9C296.246 101.355 296.432 100.936 296.654 100.54C296.75 100.366 296.936 100.246 297.085 100.103C297.091 100.097 299.039 99.9708 299.045 99.9648C298.829 100.786 299.368 101.241 299.89 101.709C300.315 102.086 300.219 102.2 299.674 102.386C298.805 102.685 298.038 103.315 297.157 103.518C295.803 103.83 295.312 105.256 293.849 105.598C292.609 105.891 291.315 106.706 290.224 107.695C289.523 108.33 288.81 109.079 287.671 109.337C286.743 109.547 285.958 110.493 285.161 111.17C284.819 111.458 283.914 110.044 283.992 111.608C284.004 111.872 283.111 112.165 282.644 112.471C282.482 112.579 282.374 112.842 282.212 112.872C281.278 113.046 280.337 113.172 279.396 113.31C280.169 114.94 278.473 114.472 277.94 114.898C277.245 115.455 276.208 116.096 275.471 115.946C274.728 115.802 274.039 115.832 274.057 116.342C274.075 116.953 274.668 117.432 273.482 117.366C272.96 117.336 272.373 117.576 271.906 117.846C271.486 118.086 271.229 118.595 270.815 118.847C270.659 118.942 270.072 118.493 270.024 118.559C269.743 118.912 269.629 119.404 269.335 119.745C269.107 120.015 268.682 120.333 268.394 120.291C267.262 120.129 266.716 120.71 266.273 121.621C265.949 122.28 265.548 121.992 265.23 121.555C264.847 121.028 264.337 120.812 263.696 120.92C263.702 120.74 263.702 120.542 263.702 120.339ZM273.41 116.18C273.188 115.85 273.092 115.701 272.99 115.551C272.733 115.892 272.469 116.228 272.211 116.569C272.379 116.629 272.595 116.785 272.703 116.731C272.966 116.593 273.188 116.36 273.41 116.18Z" fill="#D8B06C"/>
<path d="M230.476 137.04C230.764 137.363 231.021 137.657 231.279 137.944C231.621 138.328 231.848 138.394 231.962 137.765C232.004 137.531 232.268 137.124 232.364 137.141C233.388 137.333 232.993 136.351 233.34 135.991C233.993 135.326 234.299 136.914 235.03 136.165C235.683 135.494 236.558 135.05 237.289 134.439C237.739 134.061 238.086 133.972 238.548 134.391C238.649 134.487 238.937 134.379 239.135 134.367C238.356 132.192 240.903 133.408 241.208 132.342C241.592 132.587 242.119 133.486 242.131 132.132C242.137 131.73 242.035 131.305 242.149 130.939C242.383 130.196 242.628 130.856 242.898 130.963C243.138 131.059 243.473 131.113 243.689 131.017C244.037 130.862 244.408 130.071 244.51 131.149C244.564 131.712 244.522 132.282 244.522 133.163C245.175 132.27 245.523 131.599 246.05 131.155C246.362 130.898 246.865 131.101 247.153 131.617C247.368 132 247.638 132.114 247.003 132.354C246.517 132.539 245.828 132.977 245.774 133.372C245.589 134.733 244.923 133.474 244.804 133.6C244.258 134.163 243.078 134.079 243.114 135.224C242.059 134.505 241.694 135.068 241.514 136.057C241.484 136.219 241.268 136.5 241.22 136.482C240.795 136.339 240.303 135.907 239.998 136.015C239.357 136.243 240.843 136.848 239.914 137.237C239.488 137.417 239.105 137.693 238.673 137.855C238.152 138.046 237.559 138.082 237.079 138.34C236.66 138.568 236.39 139.071 235.977 139.311C235.815 139.401 235.432 139.107 235.15 138.993C235.078 139.359 235.072 139.766 234.91 140.09C234.707 140.509 234.431 141.12 234.083 141.204C232.106 141.678 230.59 142.93 228.948 143.985C228.72 144.134 228.451 144.254 228.187 144.296C226.03 144.62 226.018 144.596 225.011 145.537C224.106 146.382 222.734 146.334 221.805 147.25C221.518 147.532 220.211 147.676 220.99 146.274C221.164 145.962 219.45 145.471 220.145 144.476C220.487 143.979 221.272 143.811 221.751 143.379C222.279 142.9 223.207 142.487 222.47 141.492C222.86 141.228 223.249 140.971 223.639 140.707C223.807 140.995 223.956 141.3 224.154 141.564C224.526 142.067 224.957 142.049 225.335 141.582C225.43 141.462 225.305 141.18 225.365 141.001C225.454 140.737 226.593 140.072 227.24 139.664C227.534 139.478 229.056 139.742 227.815 138.592C227.678 138.466 228.606 138.16 228.93 138.616C229.08 138.825 229.086 139.143 229.158 139.413C229.284 139.221 229.433 139.047 229.541 138.843C229.847 138.286 230.134 137.711 230.476 137.04Z" fill="#D8B06C"/>
<path d="M194.217 161.493C194.001 159.45 194.319 158.808 196.374 158.772C197.884 158.742 198.501 156.981 200.017 157.364C200.077 157.089 200.113 156.807 200.197 156.543C200.497 155.579 201.563 155.177 202.312 155.704C202.768 156.022 203.361 156.196 203.721 156.591C203.924 156.813 203.9 157.406 203.745 157.724C203.649 157.922 203.127 157.999 202.804 157.981C202.546 157.969 202.001 157.268 202.067 157.838C202.252 159.408 201 159.767 200.215 159.803C198.855 159.863 198.669 161.181 197.674 161.583C196.841 161.918 195.727 161.87 195.331 163.171C195.104 163.926 194.45 163.237 193.935 162.991C193.378 162.727 192.611 162.787 193.486 163.698C193.516 163.734 193.342 164.076 193.282 164.07C193.006 164.04 192.581 164.016 192.503 163.848C192.012 162.811 193.03 162.122 193.18 161.217C193.324 161.277 193.516 161.295 193.594 161.403C193.767 161.637 193.887 161.912 194.025 162.17C194.103 161.888 194.181 161.619 194.217 161.493Z" fill="#D8B06C"/>
<path d="M255.097 123.252C255.259 123.953 255.337 124.51 255.522 125.032C255.792 125.793 256.146 126.53 256.463 127.279C255.69 127.56 254.905 127.824 254.144 128.136C253.551 128.375 252.94 128.615 252.418 128.981C252.221 129.118 253.575 129.849 252.215 129.927C251.609 129.963 251.154 129.993 251.046 129.076C250.98 128.531 250.477 128.879 250.531 129.34C250.699 130.772 249.596 131.162 248.643 131.431C248.164 131.569 247.475 131.108 246.935 130.82C246.204 130.431 246.264 129.694 246.372 129.011C246.39 128.897 246.75 128.705 246.822 128.747C248.38 129.772 248.553 128.369 249.057 127.512C249.153 127.345 249.332 127.117 249.47 127.117C249.62 127.117 249.866 127.327 249.908 127.489C250.003 127.866 249.973 128.309 250.519 127.836C251.178 127.267 251.298 126.182 252.322 125.96C252.316 124.708 252.784 125.283 253.215 125.727C253.425 125.325 253.581 124.876 253.856 124.522C254.192 124.085 254.623 123.725 255.097 123.252Z" fill="#D8B06C"/>
<path d="M331.464 84.1516C331.596 84.0317 331.715 83.8459 331.865 83.81C332.033 83.768 332.375 83.834 332.393 83.9059C332.548 84.6849 333.1 85.0564 333.753 85.338C333.291 85.8593 332.5 85.9492 332.075 86.2668C330.391 87.5312 328.533 88.2742 326.592 88.9514C326.083 89.1311 325.759 89.7903 325.304 90.1678C325.112 90.3236 324.776 90.3116 324.507 90.3775C324.453 90.036 324.291 89.6704 324.363 89.3648C324.734 87.7649 324.908 87.5372 325.885 86.6144C326.544 85.9912 327.041 85.7575 327.227 86.9559C327.251 87.1057 327.431 87.2316 327.539 87.3634C327.629 87.2016 327.82 87.0219 327.796 86.884C327.593 85.7994 328.408 85.3021 329.019 84.6969C329.534 84.1935 329.558 84.6489 329.618 85.0384C329.672 85.4039 329.774 85.7695 329.858 86.129C329.996 85.8294 330.067 85.368 330.295 85.2661C330.571 85.1403 331.032 85.4459 331.314 85.332C331.56 85.2362 331.679 84.8107 331.829 84.5231C331.841 84.4931 331.703 84.3852 331.464 84.1516Z" fill="#D8B06C"/>
<path d="M263.702 120.34C263.702 120.537 263.702 120.741 263.702 120.939C264.188 122.071 263.888 123.162 262.858 123.282C262.079 123.378 261.863 123.647 261.839 124.301C261.491 124.253 261.072 124.055 260.808 124.181C260.389 124.384 260.023 125.122 259.724 125.068C258.615 124.882 258.142 125.655 257.5 126.224C257.213 126.476 257.159 126.32 256.943 125.583C256.829 125.193 256.398 124.906 256.254 124.516C256.17 124.295 256.326 123.929 256.476 123.701C256.56 123.582 256.925 123.522 257.069 123.606C257.452 123.821 257.776 124.133 258.136 124.396C258.142 124.402 258.321 124.235 258.303 124.193C257.86 123.012 259.646 123.677 259.556 122.659C259.508 122.173 260.053 121.652 260.089 121.131C260.227 119.195 261 121.502 261.312 120.927C260.844 121.856 260.994 122.455 261.791 122.713C261.941 122.761 262.144 122.653 262.318 122.617C262.24 122.413 262.144 122.215 262.097 122.006C262.019 121.652 261.971 121.286 261.911 120.927C262.108 120.789 262.42 120.687 262.486 120.502C262.636 120.094 262.66 119.639 262.732 119.201C263.055 119.597 263.379 119.968 263.702 120.34Z" fill="#D8B06C"/>
<path d="M302.047 99.3729C302.856 99.5766 303.563 99.1392 303.725 98.528C304.006 97.4793 304.857 96.9999 305.451 96.2749C305.87 95.7595 306.308 95.5258 306.907 96.0891C307.003 96.179 307.542 95.9872 307.698 95.7835C308.111 95.2562 308.609 95.0884 309.238 95.1783C309.238 95.7775 309.238 96.3767 309.238 96.976C309.028 97.6771 308.627 98.0785 307.836 98.2104C307.32 98.2943 306.805 98.6298 306.385 98.9714C306.14 99.1811 306.086 99.6246 305.948 99.9601C305.666 99.8403 305.361 99.5826 305.115 99.6305C304.492 99.7564 303.791 99.8882 303.317 100.266C302.892 100.601 302.73 101.266 302.041 101.674C302.047 100.907 302.047 100.14 302.047 99.3729Z" fill="#D8B06C"/>
<path d="M216.969 149.101C216.885 149.527 217.215 150.348 216.514 150.246C215.513 150.102 214.225 148.898 214.53 151.235C213.296 151.223 212.948 152.996 211.576 152.691C211.51 152.128 211.606 151.474 211.342 151.031C211.103 150.623 211.001 150.468 211.396 150.162C211.678 149.946 211.798 149.623 212.259 150.018C212.589 150.306 212.661 150.162 212.9 149.509C213.014 149.197 213.242 148.784 213.512 148.7C214.404 148.418 215.393 148.382 215.933 147.436C216.28 147.789 216.622 148.143 216.969 148.496C216.969 148.7 216.969 148.898 216.969 149.101Z" fill="#D8B06C"/>
<path d="M156.453 188.345C156.453 188.74 156.477 188.92 156.447 188.926C155.506 189.196 154.571 189.585 153.612 189.669C152.761 189.747 152.732 189.597 152.935 190.215C153.025 190.484 153.678 191.006 153.133 190.964C151.773 190.862 151.263 191.85 150.46 192.51C150.335 192.611 149.921 192.605 149.867 192.516C149.634 192.144 149.4 191.725 149.34 191.299C149.316 191.125 149.723 190.886 149.933 190.676C151.419 189.118 152.396 188.687 154.487 188.651C155.074 188.639 155.11 188.633 155.033 188.141C154.973 187.794 154.805 187.464 154.685 187.123C154.823 187.081 155.039 186.961 155.092 187.015C155.614 187.488 156.111 187.997 156.453 188.345Z" fill="#D8B06C"/>
<path d="M168.581 179.099C167.802 179.626 168.203 180.969 166.891 180.891C166.501 180.867 165.998 181.22 165.692 181.538C164.919 182.329 165.057 181.772 164.764 181.166C164.482 180.585 163.787 180.597 163.637 181.526C163.613 181.7 163.469 181.856 163.379 182.017C163.266 181.885 163.056 181.748 163.062 181.628C163.104 181.023 162.696 180.13 163.943 180.226C164.23 180.25 164.548 179.95 164.835 179.776C165.171 179.572 164.08 178.176 165.62 178.853C165.854 178.955 166.405 178.164 166.879 177.961C167.131 177.853 167.598 178.038 167.874 178.23C168.167 178.434 168.341 178.793 168.581 179.099Z" fill="#D8B06C"/>
<path d="M208.58 152.099C209.131 151.008 209.976 151.11 210.305 152.039C210.611 152.884 211.084 152.632 211.576 152.698C211.049 153.795 209.796 153.789 208.921 154.352C207.933 154.981 207.992 153.944 207.98 153.297C208.406 153.213 209.047 153.567 209.143 152.848C209.173 152.626 208.777 152.351 208.58 152.099Z" fill="#D8B06C"/>
<path d="M299.051 99.9705C299.566 99.1316 300.327 98.7061 301.298 98.796C301.562 98.82 301.795 99.1675 302.047 99.3713C300.651 99.7548 302.059 101.157 301.208 101.702C300.489 101.121 299.77 100.546 299.051 99.9705Z" fill="#D8B06C"/>
<path d="M216.969 149.102C216.969 148.904 216.969 148.701 216.969 148.503C218.125 148.167 217.304 147.202 217.58 146.597C217.676 146.394 217.94 146.148 218.131 146.136C218.335 146.13 218.659 146.334 218.742 146.531C218.964 147.023 219.096 147.556 219.234 148.077C219.527 149.192 219.348 149.48 218.467 148.503C218.113 149.066 217.58 149.186 216.969 149.102Z" fill="#D8B06C"/>
<path d="M320.917 92.1647C320.617 91.5415 320.102 90.9303 320.084 90.3011C320.072 89.7439 320.588 89.1626 320.917 88.6173C320.971 88.5274 321.307 88.5334 321.468 88.5993C321.612 88.6593 321.828 88.9109 321.798 88.9948C321.648 89.4203 321.283 89.8098 321.265 90.2232C321.253 90.5648 321.804 90.9363 321.768 91.2599C321.738 91.5715 321.259 91.8232 320.917 92.1647Z" fill="#D8B06C"/>
<path d="M204.972 154.916C205.188 154.682 204.576 153.867 205.481 154.125C206.14 154.311 206.788 154.616 207.357 154.988C207.567 155.126 206.128 156.324 205.559 156.282C204.6 156.204 205.14 155.407 204.972 154.916Z" fill="#D8B06C"/>
<path d="M313.534 93.7041C313.39 94.2554 313.384 94.8007 313.12 95.1303C312.863 95.4539 312.335 95.5737 311.928 95.7774C311.898 95.6097 311.802 95.4179 311.856 95.2741C311.916 95.1063 312.186 94.9925 312.216 94.8367C312.275 94.4531 312.138 94.0097 312.281 93.6741C312.425 93.3386 312.809 93.1049 313.09 92.8232C313.246 93.1229 313.396 93.4225 313.534 93.7041Z" fill="#D8B06C"/>
<path d="M145.666 193.457C145.666 194.578 145.858 195.273 145.63 195.464C145.085 195.914 144.342 196.13 143.671 196.423C143.623 196.447 143.449 196.339 143.449 196.291C143.449 196.148 143.461 195.974 143.551 195.872C144.102 195.213 144.684 194.572 145.666 193.457Z" fill="#D8B06C"/>
<path d="M309.238 96.9744C309.238 96.3752 309.238 95.776 309.238 95.1768C309.436 95.3266 309.784 95.4524 309.814 95.6322C310.011 96.7827 310.497 96.5969 311.144 95.9857C311.264 95.8719 311.467 95.8479 311.635 95.782C311.677 96.4771 311.719 97.1482 310.664 96.9924C310.197 96.9145 309.712 96.9744 309.238 96.9744Z" fill="#D8B06C"/>
<path d="M148.663 190.563C148.663 191.42 148.693 192.283 148.627 193.14C148.621 193.259 148.136 193.451 147.914 193.409C147.734 193.373 147.447 192.99 147.495 192.84C147.722 192.061 148.034 191.306 148.322 190.545C148.435 190.545 148.549 190.551 148.663 190.563Z" fill="#D8B06C"/>
<path d="M315.014 93.6251C314.919 93.2357 314.799 93.0379 314.841 92.8821C315.086 91.9413 316.009 91.6537 316.644 91.0904C316.68 91.0545 316.914 91.2043 317.022 91.3061C317.07 91.3541 317.07 91.5338 317.022 91.5818C316.417 92.217 315.793 92.8342 315.014 93.6251Z" fill="#D8B06C"/>
<path d="M176.334 174.252C176.298 173.838 176.161 173.365 176.262 172.957C176.316 172.742 176.916 172.43 177.053 172.514C177.407 172.724 177.641 173.137 177.922 173.467C177.443 173.7 176.964 173.94 176.334 174.252Z" fill="#D8B06C"/>
<path d="M323.278 88.6279C323.391 88.7538 323.565 88.8556 323.607 88.9994C323.883 89.9103 323.349 90.4975 322.69 90.9589C322.493 91.0968 322.115 90.9829 321.815 90.9829C321.887 90.8151 321.929 90.6353 322.025 90.4795C322.361 89.9283 322.714 89.383 323.068 88.8377C323.122 88.7538 323.206 88.6938 323.278 88.6279Z" fill="#D8B06C"/>
<path d="M181.704 170.279C181.452 170.53 181.141 170.854 180.817 171.165C180.781 171.195 180.643 171.189 180.625 171.159C180.547 171.004 180.386 170.776 180.44 170.68C180.661 170.291 180.955 169.931 181.23 169.571C181.254 169.541 181.404 169.547 181.422 169.577C181.5 169.739 181.554 169.907 181.704 170.279Z" fill="#D8B06C"/>
<path d="M175.167 175.57C174.801 175.744 174.472 175.966 174.112 176.038C173.872 176.085 173.591 175.924 173.327 175.858C173.801 175.528 174.274 175.205 174.741 174.875C174.837 175.037 174.933 175.193 175.167 175.57Z" fill="#D8B06C"/>
<path d="M172.29 176.253C171.99 176.684 171.816 176.93 171.649 177.175C171.379 176.708 171.103 176.241 170.858 175.755C170.846 175.737 171.205 175.444 171.271 175.48C171.595 175.665 171.87 175.923 172.29 176.253Z" fill="#D8B06C"/>
<path d="M157.178 186.182C157.418 186.409 157.603 186.505 157.639 186.637C157.687 186.811 157.687 187.092 157.586 187.188C157.244 187.506 156.836 187.764 156.459 188.045C156.459 187.943 156.429 187.836 156.465 187.752C156.681 187.242 156.914 186.745 157.178 186.182Z" fill="#D8B06C"/>
<path d="M187.158 168.181C186.894 167.612 186.702 167.295 186.612 166.947C186.582 166.821 186.792 166.629 186.894 166.474C187.134 166.677 187.397 166.857 187.589 167.097C187.643 167.169 187.475 167.414 187.158 168.181Z" fill="#D8B06C"/>
<path d="M125.047 209.715C125.34 209.996 125.616 210.26 125.892 210.524C125.646 210.62 125.263 210.865 125.179 210.787C124.951 210.584 124.843 210.236 124.717 209.937C124.705 209.907 124.951 209.775 125.047 209.715Z" fill="#D8B06C"/>
<path d="M150.85 76.3068C150.568 75.9233 150.317 75.5158 149.993 75.1683C149.61 74.7488 149.64 74.4851 150.227 74.5271C151.294 74.605 151.761 74.0897 152.079 73.1189C152.372 72.2261 152.834 73.4904 153.001 73.1968C153.223 72.8133 153.019 72.1422 153.283 71.8366C153.792 71.2433 154.493 71.3032 155.081 71.8545C155.74 72.4717 156.123 71.9444 156.525 71.525C156.998 71.0276 156.657 70.9437 156.207 70.9137C155.596 70.8718 155.548 70.5542 156.009 70.2726C156.794 69.7932 157.957 69.6134 158.388 68.9363C158.976 68.0195 159.197 67.4262 160.156 68.4809C160.216 68.5468 160.887 68.2771 160.995 68.0374C161.145 67.7079 160.935 67.2225 161.055 66.863C161.199 66.4315 161.48 65.7724 161.786 65.7244C162.607 65.5866 162.044 66.3596 162.229 66.6772C162.415 67.0008 162.601 67.3364 162.853 67.606C162.931 67.6899 163.38 67.618 163.398 67.5401C163.698 66.4615 163.949 65.3769 164.237 64.2024C164.806 65.0653 164.878 66.2098 166.208 66.1439C166.604 66.1259 167.143 66.6832 167.383 66.5574C167.718 66.3776 167.892 65.8083 168.036 65.3769C168.282 64.6338 168.557 63.9807 169.396 63.693C169.654 63.6032 170.001 63.1897 169.977 62.95C169.846 61.5298 171.194 61.6736 171.47 62.0092C172.231 62.95 172.62 61.8834 173.153 61.8654C173.801 61.8354 173.729 61.2722 173.393 60.7868C173.279 60.625 173.309 60.3733 173.273 60.1576C173.465 60.1456 173.681 60.0797 173.854 60.1336C174.154 60.2235 174.562 60.5711 174.699 60.4812C175.718 59.7861 176.449 58.294 178.037 59.4565C178.528 58.8093 179.062 58.1801 179.481 57.485C179.547 57.3772 179.05 56.9577 178.852 56.6581C178.732 56.4723 178.69 56.2386 178.612 56.0289C178.882 56.0349 179.218 55.939 179.409 56.0649C179.727 56.2746 179.979 56.6042 180.2 56.9218C180.35 57.1435 180.392 57.4371 180.482 57.7007C180.59 57.4671 180.728 57.2394 180.8 56.9877C180.853 56.8019 180.794 56.5922 180.812 56.3944C180.919 55.3038 180.931 55.2859 182.136 55.7712C182.651 55.981 183.041 56.1068 183.214 55.3937C183.31 54.9922 183.46 54.6027 183.586 54.2132C183.658 54.5848 183.76 54.9503 183.796 55.3218C183.832 55.6933 183.802 56.0649 183.802 56.5442C184.826 56.1907 185.324 54.393 186.51 55.9211C186.72 55.7113 187.091 55.5196 187.121 55.2799C187.301 53.8897 188.572 53.644 189.446 53.0028C189.812 52.7331 190.537 52.6493 190.627 52.3437C190.986 51.1392 191.777 51.1452 192.814 51.0913C193.953 51.0373 192.778 50.3782 192.862 50.3123C193.198 50.0366 193.246 49.0719 194.025 49.6831C194.486 50.0486 195.163 50.0965 195.133 49.5452C195.061 48.2749 195.571 48.0771 196.667 48.1131C197.83 48.149 198.687 46.8667 199.999 47.2083C200.125 47.2382 200.364 46.8188 200.55 46.603C199.891 46.0338 199.843 45.6383 200.868 45.7641C201.299 45.8181 201.761 46.3454 202.09 46.2555C202.396 46.1656 202.45 45.3866 202.785 45.1709C203.762 44.5537 204.996 44.29 205.428 43.0077C205.458 42.9238 205.554 42.8279 205.638 42.7979C207.13 42.2526 207.13 42.2526 207.303 41.1381C207.315 41.0722 207.435 41.0302 207.507 40.9763C207.597 41.1381 207.729 41.2879 207.771 41.4617C207.891 41.953 207.477 42.8938 208.454 42.708C209.61 42.4803 208.25 41.965 208.406 41.8751C209.035 41.5036 209.736 41.2519 210.413 40.9523C210.947 41.9291 211.558 41.1141 211.995 40.9164C213.164 40.389 213.541 38.4775 215.381 38.9988C215.525 39.0408 215.884 38.2678 216.172 37.8962C216.286 37.7464 216.597 37.5307 216.621 37.5487C217.766 38.6513 218.078 37.4888 218.563 36.8356C218.707 36.6439 218.809 36.4341 218.934 36.2304C220.708 37.7045 220.666 35.763 221.218 34.996C221.667 34.3728 222.038 34.3728 222.536 34.942C222.608 35.0259 223.207 34.8701 223.279 34.7083C223.788 33.5458 225.448 34.6724 225.844 33.3781C226.011 33.4679 226.245 33.5219 226.335 33.6597C226.479 33.8874 226.521 34.6964 226.832 34.0792C227.342 33.0844 227.887 32.4073 228.912 31.886C229.343 31.6703 229.313 30.5437 229.529 29.6928C230.104 29.6269 230.206 30.4418 230.679 30.5797C230.985 30.6695 231.416 30.6456 231.674 30.4838C231.902 30.34 231.974 29.9385 232.118 29.6509C232.189 29.9205 232.213 30.2261 232.363 30.4418C232.429 30.5377 232.861 30.5317 232.95 30.4299C233.382 29.9265 233.711 29.3393 234.155 28.8479C234.365 28.6142 234.988 28.3745 235.012 28.4105C235.545 29.2074 236.312 28.6921 236.246 28.3026C236.06 27.176 238.11 27.0562 237.265 25.7738C237.253 25.7559 237.63 25.3724 237.75 25.4083C238.541 25.648 239.314 25.9716 240.099 26.2412C240.291 26.3072 240.519 26.2712 240.734 26.2832C240.734 25.9836 240.734 25.684 240.734 25.3843C242.089 25.4922 243.329 24.9948 244.414 24.3357C245.768 23.5207 247.248 23.1073 248.674 22.52C249.423 22.2144 249.729 22.4122 249.735 23.2271C249.741 23.5267 249.963 23.8204 250.082 24.114C250.292 23.9043 250.52 23.7125 250.7 23.4848C250.807 23.347 250.843 23.1552 250.909 22.9874C251.497 22.7597 252.425 23.5447 252.707 22.3882C254.115 22.6758 254.103 21.3875 254.469 20.6684C254.864 19.8894 255.523 19.0984 256.452 18.7808C256.968 18.6071 257.501 18.3794 257.926 18.0438C258.537 17.5584 259.059 16.9592 259.622 16.4139C260.353 17.4805 260.701 16.4558 261.078 16.0963C261.576 15.6169 261.689 16.1622 261.929 16.336C262.672 16.8813 263.188 16.7555 263.499 15.9405C263.751 15.2813 263.907 15.2094 264.763 15.1855C264.889 15.1795 265.141 14.808 265.105 14.754C264.919 14.4724 264.38 14.1548 265.153 14.029C266.022 13.8851 267.16 14.3765 267.34 12.8964C267.34 12.8784 267.868 12.8605 268.107 12.9504C268.377 13.0462 268.551 13.6994 268.886 13.0163C269.234 12.3152 269.174 11.3744 270.085 11.0148C270.145 11.3744 270.21 11.7399 270.27 12.0994C270.546 11.9017 270.912 11.7519 271.067 11.4882C271.241 11.1886 271.217 10.7811 271.283 10.4156C272.697 9.52276 272.913 9.52875 273.045 10.7632C273.165 11.8657 273.338 11.4643 273.968 11.0748C276.059 9.78643 276.089 9.84035 277.269 9.82238C277.269 10.4216 277.269 11.0208 277.269 11.6201C275.921 13.3818 273.5 14.8619 270.372 15.8087C269.515 16.0663 268.605 16.1862 268.257 17.2348C268.197 17.4146 267.82 17.5165 267.574 17.6064C267.154 17.7562 267.136 16.8334 266.435 17.2948C265.525 17.894 264.038 17.912 263.487 18.673C262.774 19.6677 260.946 18.7928 260.922 20.4767C260.371 20.1171 259.898 20.4827 259.37 20.5546C258.208 20.7223 257.225 20.968 256.8 22.2024C256.518 22.0826 256.009 21.8309 255.985 21.8729C255.338 22.9095 253.42 22.2744 253.252 23.9342C253.246 23.9822 252.989 24.0181 252.845 24.0421C251.58 24.2878 251.604 24.3177 250.891 24.9829C250.664 25.1926 250.094 25.4143 249.986 25.3124C249.573 24.911 249.381 24.887 248.866 25.2705C248.357 25.648 248.123 27.1221 246.99 26.0195C246.157 28.0689 243.275 27.3079 242.4 29.3572C242.316 29.555 241.657 29.4411 241.34 29.6089C240.183 30.2081 238.703 30.2081 237.924 31.4905C237.547 32.1077 237.199 31.874 236.869 31.4366C236.576 32.1377 235.317 31.5684 235.281 32.7609C235.257 33.5099 234.838 32.8927 234.568 32.7489C234.089 32.4912 233.634 32.4193 233.532 33.1683L231.86 33.9713C231.237 34.7862 230.116 34.3608 229.319 35.1698C228.396 36.1105 226.928 36.524 225.682 37.1412C225.298 37.333 225.286 37.291 225.136 36.6618C225.053 36.3023 224.939 35.9547 224.837 35.5952C224.423 35.8049 224.004 36.0027 223.614 36.2544C223.567 36.2843 223.71 36.7697 223.746 36.7697C224.423 36.7277 224.753 37.1352 224.501 37.6625C224.196 38.2977 223.968 37.5787 223.698 37.4648C223.65 37.4468 223.513 37.5008 223.495 37.5427C223.339 38.082 223.207 38.6213 223.063 39.1606C222.626 38.855 222.104 38.076 221.667 38.837C221.176 39.6819 219.707 39.3943 219.743 40.6767C219.534 40.6707 219.324 40.6767 219.114 40.6527C218.773 40.6227 218.221 40.431 218.132 40.5628C217.832 41.0062 217.94 42.1088 217.035 40.9943C216.609 41.4197 216.244 41.9291 215.747 42.2407C215.291 42.5283 215.279 43.4811 214.26 43.0556C213.368 42.6781 213.925 44.1043 213.224 44.2181C213.068 44.2421 212.954 44.4758 212.798 44.5117C210.713 45.0331 210.731 45.045 210.15 45.872C209.676 46.5491 209.305 47.6457 208.214 46.5251C207.933 46.9027 207.669 47.3041 207.363 47.6577C207.046 48.0232 206.668 48.5086 206.56 47.5079C206.506 46.9925 206.081 46.7588 206.015 47.388C205.835 49.0779 203.63 48.9101 203.39 50.4561C203.253 50.2883 203.121 50.1145 202.977 49.9527C202.839 49.7969 202.689 49.6531 202.546 49.5033C202.192 49.8568 201.815 50.1924 201.491 50.5639C200.826 51.331 200.119 51.7804 198.992 51.8463C198.291 51.8882 197.584 52.7092 196.985 53.2904C196.391 53.8777 195.852 54.2612 194.935 54.1893C193.989 54.1174 193.252 54.6567 192.772 55.5196C192.706 55.6394 192.335 55.7533 192.251 55.6873C191.34 54.9623 190.717 55.4057 189.956 56.0289C189.255 56.6042 188.338 56.9098 187.511 57.3292C187.667 58.9951 186.067 58.1322 185.396 58.6895C184.856 59.1389 184.491 59.7262 183.957 60.1037C183.52 60.4153 182.453 59.7741 182.585 61.0265C182.591 61.0924 182.447 61.2422 182.399 61.2302C181.914 61.1343 181.141 60.7748 181.009 60.9366C180.692 61.3321 180.716 61.9912 180.506 62.5066C180.404 62.7582 180.128 62.986 179.883 63.1298C179.379 63.4174 178.522 61.9493 178.145 63.5852C178.013 64.1604 176.833 64.8016 176.09 64.8555C175.161 64.9275 174.699 65.4308 174.106 65.9222C173.453 66.4615 172.692 66.8749 172.045 67.4322C171.553 67.8517 171.2 68.1813 170.571 67.612C169.989 67.0907 170.139 67.7558 170.001 68.0195C169.888 68.2292 169.624 68.5108 169.444 68.4989C169.055 68.4749 168.521 68.0674 168.324 68.2052C167.988 68.4389 167.886 68.9902 167.646 69.3857C167.575 69.5056 167.377 69.5535 167.233 69.6374C167.161 69.4696 167.065 69.3018 167.029 69.1221C166.993 68.9303 167.101 68.6547 167.005 68.5408C166.802 68.2951 166.448 67.9176 166.256 67.9655C165.501 68.1633 166.304 68.5168 166.244 68.6726C166.1 69.0681 165.681 69.3617 165.531 69.7572C165.447 69.973 165.693 70.3085 165.789 70.5902C165.357 70.698 164.92 70.8059 164.489 70.9197C162.679 71.3931 162.673 71.3931 161.69 72.3579C161.181 72.8552 160.743 73.6342 159.922 72.7294C159.862 72.6635 159.419 72.7953 159.419 72.8493C159.353 74.2754 158.299 73.85 157.49 73.9159C156.477 73.9938 157.214 74.3413 157.292 74.7308C157.394 75.2462 156.884 75.384 156.255 74.8207C155.722 74.3473 155.632 75.0664 155.416 75.0185C154.272 74.7428 154.721 76.4806 153.589 76.3667C152.899 76.2948 152.162 76.7143 151.443 76.918C151.252 76.7023 151.054 76.5045 150.85 76.3068ZM246.835 25.4203C247.092 25.3604 247.494 25.3484 247.787 25.1686C248.057 25.0008 248.309 24.6653 248.363 24.3657C248.393 24.2099 247.997 23.9642 247.793 23.7604C247.632 23.9582 247.494 24.1739 247.308 24.3477C247.128 24.5155 246.9 24.6293 246.703 24.7791C246.535 24.905 246.385 25.0488 246.229 25.1866C246.397 25.2525 246.559 25.3184 246.835 25.4203Z" fill="#D8B06C"/>
<path d="M150.85 76.3058C151.047 76.5036 151.251 76.7073 151.449 76.9051C151.251 77.1987 150.892 77.4983 150.892 77.7919C150.898 79.1941 150.376 78.3432 149.849 78.1395C149.441 77.9777 148.92 78.1095 148.039 78.1095C148.081 78.1095 148.267 78.1095 148.453 78.1095C148.195 77.75 147.937 77.3904 147.674 77.0309C147.536 77.1687 147.254 77.3485 147.278 77.4444C147.35 77.72 147.542 77.9657 148.039 78.1095C147.674 78.9844 146.943 79.9072 146.098 80.7042C145.864 80.9259 145.253 80.6982 144.863 80.824C144.162 81.0398 143.179 81.8008 142.868 81.5791C141.316 80.4465 142.077 82.4839 141.346 82.5977C140.675 82.7056 140.081 83.3588 139.47 83.8022C138.895 84.2217 138.074 85.1684 137.822 85.0306C136.654 84.4074 137.217 86.5227 136.061 85.9894C135.689 85.8216 134.814 87.056 134.209 87.0201C133.142 86.9541 133.07 87.6433 132.573 88.1826C132.142 88.6559 131.231 88.7938 130.512 88.8657C129.721 88.9496 129.607 91.1787 128.337 89.5308C127.504 90.166 126.533 90.6813 125.874 91.4663C125.149 92.3292 124.963 91.0409 124.478 91.2926C124.478 91.0948 124.478 90.8911 124.478 90.6933C124.675 90.5375 125.017 90.4057 125.053 90.2139C125.257 89.2072 124.49 87.865 126.197 87.3796C126.371 87.3317 126.239 86.271 126.299 85.6838C126.305 85.6298 126.713 85.51 126.839 85.5879C127.33 85.8815 129.044 86.0253 129.044 85.7677C129.038 84.1438 130.614 85.0606 131.165 84.3415C131.728 83.6044 133.202 84.701 133.388 83.6404C133.586 82.5019 134.754 83.0532 135.036 82.2622C135.336 81.4352 135.857 82.1124 136.288 82.1843C136.36 81.7169 136.426 81.2435 136.498 80.7761C136.708 80.812 137.013 80.7641 137.115 80.8899C137.697 81.5611 138.188 82.0524 138.398 80.6682C138.679 80.7881 138.961 80.9019 139.243 81.0218C139.38 80.6802 139.458 80.2847 139.692 80.0271C139.806 79.8952 140.207 80.0211 140.477 80.0271C140.387 80.2368 140.261 80.4405 140.219 80.6622C140.195 80.7881 140.255 81.0278 140.345 81.0637C140.513 81.1356 140.818 81.1836 140.908 81.0877C141.082 80.9019 141.262 80.6023 141.244 80.3686C141.142 79.2241 141.4 78.7807 142.76 78.6069C144.054 78.4451 145.469 77.6721 146.409 76.7433C147.722 75.4549 148.854 75.4549 150.256 76.2998C150.406 76.3837 150.652 76.3058 150.85 76.3058ZM128.594 87.5414C127.827 87.2238 127.582 87.056 127.516 87.1099C127.276 87.3017 127.096 87.5653 126.892 87.805C127.054 87.9069 127.24 88.1166 127.366 88.0867C127.701 87.9968 128.019 87.805 128.594 87.5414Z" fill="#D8B06C"/>
<path d="M76.5577 118.846C76.6716 117.642 75.3113 116.593 76.3719 115.065C76.6776 115.772 76.9592 116.317 77.1509 116.893C77.4685 117.845 77.6543 117.726 78.5172 117.276C79.5359 116.749 77.7562 116.132 78.7569 115.712C79.452 115.425 79.5958 114.837 78.9846 114.202C78.9067 114.118 79.1584 113.717 79.2602 113.459C81.0579 115.029 81.1838 112.932 81.9568 112.237C82.1964 112.021 82.4601 111.733 82.7537 111.673C84.5634 111.296 84.5634 111.314 84.9589 109.151C84.9888 108.977 85.1446 108.833 85.2405 108.671C85.3424 108.923 85.4083 109.199 85.5641 109.408C85.66 109.54 85.9057 109.558 86.0854 109.624C86.0854 107.922 87.6914 108.336 88.5423 107.754C88.5902 107.724 88.5483 107.563 88.5483 107.467C88.746 107.269 88.9498 107.065 89.1475 106.868C89.513 106.933 89.8905 106.975 90.2441 107.083C90.4059 107.131 90.5257 107.317 90.6695 107.443C91.0171 106.897 91.3467 106.334 91.7182 105.801C91.9819 105.423 92.5751 106.981 92.7608 105.645C92.7908 105.435 93.0545 105.106 93.2342 105.088C95.763 104.878 96.2903 104.764 97.6685 103.392C98.4056 102.655 99.8138 103.386 100.203 102.098C100.515 102.289 100.82 102.481 101.132 102.667C100.785 103.512 100.491 104.393 100.065 105.196C99.8437 105.615 99.4003 105.921 99.0348 106.256C98.3157 106.915 97.339 105.274 97.0393 106.202C96.7877 106.987 96.4821 107.575 95.9607 108.15C95.1757 109.007 95.1458 108.414 95.0978 107.742C95.0919 107.688 94.8342 107.653 94.6964 107.605C94.6844 108.827 93.3301 108.695 92.8148 109.444C92.659 109.672 93.1144 111.086 92.0058 110.019C91.7242 110.391 91.4665 110.786 91.1609 111.134C90.8373 111.506 90.4958 111.883 90.1063 112.177C89.6628 112.506 89.1535 112.746 88.6801 113.028C88.4404 113.165 88.1648 113.477 87.973 113.429C86.5349 113.076 85.8877 114.166 84.9709 114.873C84.4735 115.251 83.6406 115.023 82.9455 115.185C82.3942 115.311 82.9035 117.36 81.6751 115.862C80.986 116.347 80.2609 116.791 79.6138 117.324C79.0085 117.827 78.3913 118.367 77.9419 119.008C77.2768 119.943 77.0431 118.588 76.5577 118.846Z" fill="#D8B06C"/>
<path d="M124.491 90.6872C124.491 90.8849 124.491 91.0887 124.491 91.2864C124.293 91.604 123.933 91.9096 123.921 92.2332C123.885 93.3657 123.574 92.9942 122.981 92.5568C122.807 92.4309 122.172 93.0961 121.794 93.0481C121.093 92.9583 122.052 94.9657 120.733 93.8212C120.44 94.1747 120.206 94.6481 119.835 94.8518C119.283 95.1574 118.606 95.2413 118.013 95.487C117.12 95.8645 116.191 96.1402 115.784 97.2487C115.532 97.9319 114.933 98.0517 112.908 98.579C112.674 98.6389 112.458 98.8427 112.278 99.0165C111.781 99.4899 111.332 100.143 110.606 99.2921C110.583 99.2621 110.289 99.4599 110.121 99.5558L108.347 101.192C107.371 100.97 106.783 101.797 105.986 102.043C105.825 102.091 105.507 101.839 105.339 101.653C104.842 101.114 104.848 101.096 104.734 101.323C104.333 102.15 103.673 102.953 103.59 103.816C103.446 105.302 102.079 103.007 102.097 104.404C101.498 104.086 101.684 103.72 101.99 103.289C102.091 103.145 102.02 102.881 102.032 102.672C101.732 102.672 101.432 102.672 101.139 102.672C101.486 101.294 101.48 101.306 102.607 101.431C102.864 101.461 103.38 101.323 103.38 101.3C103.278 100.197 104.488 100.431 104.83 99.8494C105.189 99.2502 105.405 98.573 105.681 97.9259C106.208 98.627 106.616 98.4352 107.371 98.0517C108.09 97.6802 108.431 97.4465 108.347 96.6555C108.335 96.5237 108.617 96.3619 108.761 96.2121C109.013 96.5237 109.336 96.8413 109.588 96.296C110.235 94.8758 111.104 93.8751 112.866 94.2107C112.902 94.2166 113.039 93.7253 113.117 93.4616C113.219 93.1141 111.925 92.8444 112.979 92.5568C113.411 92.4369 113.83 91.4842 114.615 92.401C115.37 93.2818 115.544 93.132 116.809 92.0954C117.33 91.6639 117.659 91.8797 117.989 92.7246C118.115 93.0481 118.414 93.3478 118.708 93.5635C119.187 93.917 119.679 93.6594 119.709 93.0901C119.727 92.7965 119.829 92.3231 119.691 92.2272C118.942 91.7059 119.277 91.3583 119.769 90.9269C120.266 90.4954 120.626 90.6812 121.009 91.0767C121.129 91.1965 121.339 91.2265 122.112 91.4602C122.537 91.4362 122.477 91.3104 122.399 91.3044C122.106 91.2804 121.722 91.1785 121.53 91.3224C121.261 91.5261 121.129 91.9156 120.943 92.2272C121.105 92.3171 121.327 92.5208 121.417 92.4789C121.866 92.2332 122.279 91.9276 122.112 91.4662C121.71 90.8969 121.842 90.4415 122.124 90.1119C122.513 89.6565 123.064 88.9255 123.448 88.9794C124.197 89.0753 124.652 89.7883 124.491 90.6872Z" fill="#D8B06C"/>
<path d="M53.7866 132.028C53.6009 132.723 54.4338 134.006 52.726 133.844C52.4923 133.82 52.0489 134 52.0129 134.162C51.6294 135.803 50.1673 136.145 48.9748 136.846C48.5793 137.08 48.3456 137.589 48.04 137.973C47.7104 137.523 47.4767 137.445 46.9614 137.895C46.1764 138.572 45.7869 139.884 44.4986 139.794C43.3001 139.71 43.0784 141.484 41.7002 141.089C41.4245 141.011 40.9571 142.005 40.4658 142.167C39.9145 142.353 39.3033 142.155 39.3212 143.09C39.3212 143.222 38.2786 143.282 37.8172 143.545C37.5655 143.689 37.5176 144.187 37.3797 144.528C37.17 144.372 36.9603 144.217 36.7505 144.067C36.6127 144.372 36.5468 144.786 36.3131 144.954C36.0315 145.151 35.6 145.115 35.2405 145.217C34.6233 145.397 34.0181 145.613 33.4068 145.811C33.2091 145.613 33.0054 145.409 32.8076 145.211C33.0173 144.498 33.1731 143.767 33.4788 143.096C33.5507 142.94 34.1499 142.91 34.4555 143C34.7431 143.084 35.1027 143.737 35.1746 142.964C35.3424 141.173 36.2652 140.376 38.0209 140.406C38.2786 140.411 38.698 140.28 38.7639 140.112C38.9317 139.68 38.9377 139.183 39.0036 138.716C39.2853 138.836 39.7407 139.117 39.8186 139.039C40.1362 138.716 40.316 138.254 40.5976 137.889C40.7474 137.691 41.023 137.427 41.2088 137.451C43.2702 137.733 44.3847 135.935 46.0146 135.3C46.3022 133.82 47.7584 133.724 48.7351 133.323C49.61 132.963 49.6639 132.939 49.0108 132.376C49.3583 132.064 49.9156 131.423 50.0115 131.489C51.2758 132.304 51.8032 131.249 52.4923 130.608C52.8279 130.297 53.1454 129.961 53.7626 129.344C53.7626 130.303 53.7626 130.872 53.7626 131.441C53.7866 131.627 53.7866 131.825 53.7866 132.028Z" fill="#D8B06C"/>
<path d="M11.002 159.744C11.3136 159.151 11.5472 158.539 11.9308 158.042C12.2783 157.587 12.6978 156.808 13.3869 157.754C13.9322 157.287 14.2917 156.322 15.2804 157.059C15.3224 156.79 15.4962 156.388 15.3883 156.274C14.7891 155.669 14.6872 155.375 15.7239 155.375C16.0654 155.375 16.5149 155.226 16.7306 154.98C17.4137 154.207 18.0369 153.805 18.8758 154.776C18.9417 154.854 19.3672 154.614 19.6249 154.519C19.487 154.213 19.3792 153.662 19.2054 153.638C17.7553 153.446 18.8219 152.919 19.1095 152.691C19.3732 152.481 19.9964 152.295 20.1402 152.433C20.9312 153.2 21.6263 152.373 22.3513 152.397C22.651 152.409 22.9446 152.397 23.2442 152.397C23.1064 152.637 22.9745 152.883 22.8247 153.116C22.621 153.434 22.4053 153.74 22.1955 154.045C21.4825 153.14 21.3087 154.201 20.9432 154.423C20.5357 154.674 20.26 155.172 19.8406 155.363C19.3192 155.597 18.4564 154.992 18.3725 156.244C18.3485 156.634 17.3957 157.005 16.8265 157.299C16.3111 157.563 16.1134 159.043 15.1486 157.796C14.6572 158.288 14.2438 158.917 13.6565 159.234C12.9914 159.594 12.3982 159.894 12.2184 160.703C12.2064 160.768 11.775 160.852 11.6971 160.774C11.4514 160.529 11.3016 160.211 11.002 159.744Z" fill="#D8B06C"/>
<path d="M277.276 9.79829C277.276 9.50467 277.258 9.20506 277.306 8.91743C277.312 8.88747 277.743 8.82754 277.881 8.92342C278.954 9.65448 279.661 8.66575 280.17 8.19236C281.033 7.38939 281.123 7.1497 281.303 7.59913C281.698 8.56388 281.746 9.1751 282.249 7.62909C282.363 7.28753 283.652 6.77818 283.879 8.15042C283.999 8.87548 284.64 8.52194 285.066 8.59984C284.652 8.91144 284.239 9.21704 283.831 9.53463C283.028 10.1578 281.363 9.20506 281.189 10.9788C280.002 11.1645 279.133 11.8596 278.282 12.6566C277.791 13.118 277.45 12.7585 277.276 11.596C278.097 10.9968 278.097 10.4035 277.276 9.79829Z" fill="#D8B06C"/>
<path d="M32.8199 145.206C33.0176 145.403 33.2214 145.607 33.4191 145.805C32.9757 147.051 31.7952 147.201 30.7705 147.62C30.0095 147.932 29.3384 148.477 28.5714 148.783C27.7983 149.089 27.9961 150.413 26.8576 150.287C26.528 150.251 26.1804 150.431 25.8389 150.509C25.9707 150.125 25.9887 149.622 26.2523 149.382C26.7557 148.915 27.4029 148.591 27.9841 148.202C28.4994 147.86 29.8477 147.956 28.7212 146.722C28.5893 146.578 30.4529 145.259 30.8484 145.361C30.9443 145.385 30.9563 145.691 31.0282 145.865C31.1001 146.032 31.19 146.194 31.2739 146.356C31.3877 146.236 31.6035 146.122 31.6094 146.002C31.6394 145.146 31.6274 144.289 31.6274 143.336C32.73 143.749 31.5735 145.11 32.8199 145.206Z" fill="#D8B06C"/>
<path d="M53.7871 132.029C53.7871 131.832 53.7871 131.628 53.7871 131.43C54.4882 131.22 55.1414 130.795 54.9496 130.034C54.614 128.71 56.7173 129.201 56.3398 127.973C56.7473 128.542 57.8259 128.069 58.0117 129.171C57.9038 129.195 57.8079 129.051 57.7001 129.039C57.2267 128.991 56.7353 128.985 56.7892 129.68C56.8012 129.842 56.9271 129.992 57.005 130.148C57.3405 129.878 57.6701 129.609 58.0117 129.165C58.5809 129.021 59.1802 129.021 59.7794 129.021C58.7667 129.932 57.748 130.837 56.7473 131.76C56.2499 132.215 55.8365 133.006 55.2972 133.096C54.8657 133.18 54.2965 132.419 53.7871 132.029Z" fill="#D8B06C"/>
<path d="M10.6603 157.861C10.5345 159.329 10.9959 160.156 10.2349 160.935C9.94727 161.229 9.92929 161.313 9.378 161.037C9.25815 160.977 8.88064 161.139 8.87465 161.217C8.8327 161.804 8.82072 162.403 8.85667 162.991C8.89862 163.656 8.57503 163.764 7.9818 163.812C7.55634 163.848 7.13089 164.141 6.75338 164.387C6.08224 164.83 5.38114 164.603 5.26729 163.818C5.21336 163.44 5.24332 163.254 5.86053 163.41C6.7354 163.632 6.80731 163.398 6.5796 162.403C6.49571 162.038 6.41781 161.642 6.45975 161.277C6.54964 160.54 6.84326 160.923 7.15486 161.175C7.60428 161.541 7.90989 161.493 8.26942 160.917C8.85667 160.007 9.60571 159.198 10.6603 157.861Z" fill="#D8B06C"/>
<path d="M74.5143 116.915C74.6521 117.358 74.766 117.538 74.748 117.712C74.6641 118.587 75.1315 119.018 75.9644 118.863C76.1382 118.833 76.3539 119.042 76.5517 119.138C76.3959 119.438 76.1921 120.013 76.0962 120.001C74.5982 119.731 73.6873 120.552 72.9803 121.655C72.7645 121.991 72.9623 122.853 72.2851 122.014C72.0634 121.733 70.3317 122.17 71.6979 120.996C71.3384 118.719 73.5795 118.413 74.5143 116.915Z" fill="#D8B06C"/>
<path d="M3.06268 167.233C2.77505 167.635 2.65521 167.904 2.45147 168.072C1.14515 169.163 -0.604596 169.72 -1.46149 171.362C-1.47348 171.386 -1.89893 171.266 -2.04874 171.128C-2.21053 170.978 -2.39629 170.571 -2.35434 170.541C-1.57535 169.918 -1.20382 168.851 -0.107235 168.563C0.725693 168.348 1.14515 167.784 1.09721 166.856C1.08523 166.64 1.64251 166.179 1.72041 166.22C2.18781 166.478 2.5833 166.85 3.06268 167.233Z" fill="#D8B06C"/>
<path d="M61.5764 128.433C61.5584 129.116 61.7562 130.111 60.5996 129.05C60.4498 128.912 60.0603 129.032 59.7787 129.032C59.569 128.72 59.4012 128.367 59.1375 128.109C58.766 127.744 58.4664 127.48 59.0596 127.031C59.533 126.671 59.9165 126.198 60.336 125.778C60.5457 125.562 60.0064 124.616 60.9712 125.131C60.4079 125.742 62.1397 126.12 61.1389 126.791C60.8933 126.953 60.6176 127.168 60.5158 127.426C60.0364 128.595 60.9112 128.415 61.5764 128.433Z" fill="#D8B06C"/>
<path d="M285.323 6.08343C286.144 6.40102 286.683 6.79052 287.162 6.7306C287.552 6.68266 287.852 6.05946 288.247 5.75985C288.325 5.70591 288.696 5.93961 288.846 6.11938C288.972 6.26919 289.068 6.67067 289.002 6.71861C288.631 6.98826 288.211 7.192 287.798 7.40173C287.492 7.55753 286.911 7.67738 286.905 7.83917C286.875 8.52828 286.539 8.70206 285.958 8.5942C285.598 8.52828 284.358 9.00167 285.455 7.85715C285.616 7.68936 285.443 7.19799 285.413 6.86243C285.395 6.62873 285.359 6.40102 285.323 6.08343Z" fill="#D8B06C"/>
<path d="M250.91 22.98C250.712 22.7283 250.293 22.3388 250.347 22.2489C250.652 21.7695 251.371 21.386 251.407 20.9306C251.539 19.073 252.576 20.5651 252.797 20.649C254.026 21.1104 253.085 21.6077 252.714 22.0931C252.666 22.153 252.708 22.2848 252.708 22.3807C252.12 22.6084 251.191 21.8234 250.91 22.98Z" fill="#D8B06C"/>
<path d="M23.184 149.97C23.5556 150.167 23.9451 150.515 24.3705 150.575C25.0776 150.677 25.1555 151.06 24.9518 151.564C24.7181 152.121 23.5795 152.618 23.238 152.403C22.8904 152.181 22.453 150.677 22.6687 150.293C22.7406 150.15 22.9683 150.096 23.184 149.97Z" fill="#D8B06C"/>
<path d="M69.5045 121.83C69.4985 121.818 69.6483 122.358 69.882 122.4C70.685 122.543 70.5771 122.753 70.1037 123.209C69.7322 123.568 69.3367 123.928 68.9053 123.448C68.4858 122.981 68.1922 122.388 67.8686 121.836C67.7847 121.698 67.7308 121.387 67.7787 121.357C68.2521 121.093 68.7375 120.854 69.2409 120.656C69.3847 120.602 69.5944 120.716 69.7742 120.758C69.7262 120.979 69.6663 121.195 69.5045 121.83Z" fill="#D8B06C"/>
<path d="M65.1716 122.967C65.1716 124.129 65.1955 125.172 65.1416 126.203C65.1356 126.358 64.7761 126.55 64.5484 126.622C64.063 126.772 63.9012 126.556 63.9611 126.053C64.0989 125.004 63.5297 123.728 65.1716 122.967Z" fill="#D8B06C"/>
<path d="M4.11053 164.141C4.524 164.782 4.84159 165.285 5.16517 165.783C4.88953 165.914 4.61988 166.148 4.34423 166.154C3.60718 166.172 3.25963 165.633 3.47535 164.842C3.53527 164.632 3.79893 164.482 4.11053 164.141Z" fill="#D8B06C"/>
<path d="M63.9731 126.635C63.4458 127.6 62.8945 128.523 61.5762 128.433C61.9896 127.318 62.4211 126.228 63.9731 126.635Z" fill="#D8B06C"/>
<path d="M292.099 5.15496C292.076 5.26881 292.088 5.48453 292.01 5.52648C291.524 5.77216 291.027 6.02983 290.506 6.17365C290.338 6.22159 289.924 5.96991 289.876 5.79014C289.595 4.68157 290.829 5.17893 291.171 4.62764C291.626 3.89059 291.602 4.84336 291.854 4.92126C291.938 4.94523 291.998 5.05309 292.099 5.15496Z" fill="#D8B06C"/>
<path d="M67.5687 121.842C66.9995 122.549 66.8976 123.37 66.9695 124.238C66.604 124.173 66.2384 124.107 65.8789 124.047C66.0167 123.837 66.2205 123.645 66.2744 123.424C66.3583 123.058 66.2984 122.657 66.3823 122.291C66.5381 121.572 67.1433 121.919 67.5687 121.842Z" fill="#D8B06C"/>
<path d="M300.087 0.503906C300.375 0.95932 300.669 1.27092 300.609 1.35481C300.339 1.77427 299.973 2.13381 299.644 2.51732C299.578 2.15778 299.422 1.78626 299.464 1.4447C299.506 1.16905 299.788 0.935351 300.087 0.503906Z" fill="#D8B06C"/>
<path d="M68.3907 124.346C68.1331 124.801 67.9713 125.089 67.8155 125.377C67.5339 124.999 67.2522 124.616 66.9766 124.238C67.2163 124.1 67.4559 123.855 67.6956 123.849C67.8934 123.849 68.0971 124.13 68.3907 124.346Z" fill="#D8B06C"/>
<path d="M292.059 4.40435C292.005 4.3684 291.831 4.23657 291.651 4.10474C291.933 3.8231 292.179 3.38567 292.502 3.31975C292.724 3.27181 293.054 3.75119 293.335 3.99089C293.173 4.12871 293.03 4.31447 292.838 4.39237C292.664 4.45829 292.448 4.40435 292.059 4.40435Z" fill="#D8B06C"/>
<path d="M297.242 2.4873C297.638 2.63112 297.895 2.721 298.147 2.81089C297.871 2.94272 297.608 3.14646 297.326 3.18241C297.074 3.21836 296.799 3.06856 296.535 2.99665C296.781 2.82886 297.021 2.6491 297.242 2.4873Z" fill="#D8B06C"/>
<path d="M240.327 25.6126C239.938 25.307 239.758 25.1632 239.578 25.0254C239.842 24.7617 240.105 24.498 240.369 24.2344C240.489 24.4321 240.693 24.6239 240.699 24.8216C240.705 25.0254 240.519 25.2351 240.327 25.6126Z" fill="#D8B06C"/>
<path d="M177.096 57.7001C177.317 57.5204 177.539 57.2867 177.803 57.1489C177.911 57.0949 178.126 57.2507 178.294 57.3107C178.036 57.6522 177.773 57.9878 177.515 58.3293C177.413 58.1795 177.311 58.0297 177.096 57.7001Z" fill="#D8B06C"/>
<path d="M89.1418 106.862C88.944 107.06 88.7403 107.264 88.5425 107.461C87.6976 107.299 87.7336 106.748 88.2189 106.347C88.5365 106.089 89.1238 106.161 89.1418 106.862Z" fill="#D8B06C"/>
</svg>
